<?xml version="1.0" encoding="UTF-8" standalone="no"?>
<!DOCTYPE svg PUBLIC "-//W3C//DTD SVG 1.1//EN"
"http://www.w3.org/Graphics/SVG/1.1/DTD/svg11.dtd">
<svg viewBox="0 0 1100 825" version="1.1" xmlns="http://www.w3.org/2000/svg" xmlns:xlink="http://www.w3.org/1999/xlink">
<defs>
<style type="text/css"><![CDATA[
.g2_2{
fill: none;
stroke: #5B9BD5;
stroke-width: 2;
stroke-linecap: butt;
stroke-linejoin: miter;
stroke-miterlimit: 7;
}
.g3_2{
fill: none;
stroke: #0563C1;
stroke-width: 2;
stroke-linecap: butt;
stroke-linejoin: miter;
}
.g4_2{
fill: none;
stroke: #000000;
stroke-width: 2;
stroke-linecap: butt;
stroke-linejoin: miter;
}
.g1_2{
fill: #FFFFFF;
}
]]></style>
</defs>
<path fill-rule="evenodd" d="M0,0L1100,0l0,825L0,825L0,0Z" class="g1_2" />
<path fill-rule="evenodd" d="M0,0L1100,0l0,825L0,825L0,0Z" class="g1_2" />
<path fill-rule="evenodd" d="M125.1,308l0,-0.8l0,-0.7l0.2,-0.9l0.1,-0.8l0.2,-0.8l0.3,-0.9l0.3,-0.8l0.3,-0.7l0.3,-0.8l0.5,-0.7l0.4,-0.7l0.5,-0.7l0.4,-0.6l0.6,-0.6l0.5,-0.7l0.6,-0.6l0.6,-0.4l0.6,-0.5l0.8,-0.4l0.8,-0.5l0.6,-0.5l0.7,-0.3l0.8,-0.3L136,293l0.9,-0.3l0.8,-0.1l0.7,-0.2l0.9,-0.1l0.8,0l0.8,0l763.5,0l0.8,0l0.9,0l0.8,0.1l0.8,0.2l0.9,0.3l0.7,0.1l0.8,0.3l0.8,0.3l0.7,0.3l0.6,0.5l0.8,0.5l0.8,0.4l0.6,0.5l0.6,0.4l0.6,0.6l0.6,0.7l0.5,0.6l0.4,0.7l0.5,0.6l0.4,0.8l0.5,0.8l0.3,0.6l0.3,0.7l0.3,0.8l0.3,0.9l0.2,0.8l0.1,0.8l0,0.9l0.2,0.7l0,0.8l0.1,63.4l-0.1,0.8l0,0.9l-0.2,0.7l-0.1,1l-0.2,0.7l-0.1,0.8l-0.3,0.8l-0.3,0.7l-0.5,0.8l-0.3,0.7l-0.5,0.7l-0.4,0.7l-0.6,0.6l-0.5,0.6l-0.6,0.7l-0.6,0.6l-0.6,0.4l-0.6,0.6l-0.8,0.3l-0.6,0.5l-0.8,0.5l-0.7,0.3l-0.8,0.3l-0.8,0.3l-0.7,0.3l-0.9,0.1l-0.8,0.2l-0.8,0.1l-0.9,0l-0.8,0l-763.5,0.2l-0.8,-0.2l-0.8,0L138.4,387l-0.7,-0.2l-0.8,-0.1L136,386.5l-0.8,-0.3l-0.8,-0.3l-0.7,-0.4l-0.6,-0.3l-0.8,-0.5l-0.8,-0.5l-0.6,-0.6l-0.6,-0.4l-0.6,-0.6l-0.5,-0.7l-0.6,-0.6l-0.4,-0.6L127.7,380l-0.4,-0.7l-0.5,-0.7l-0.3,-0.8l-0.3,-0.7l-0.3,-0.8l-0.3,-0.8l-0.2,-0.7l-0.1,-1l-0.2,-0.7l0,-0.9l0,-0.8l0,-63.4Z" class="g1_2" />
<path d="M125.1,308l0,-0.8l0,-0.7l0.2,-0.9l0.1,-0.8l0.2,-0.8l0.3,-0.9l0.3,-0.8l0.3,-0.7l0.3,-0.8l0.5,-0.7l0.4,-0.7l0.5,-0.7l0.4,-0.6l0.6,-0.6l0.5,-0.7l0.6,-0.6l0.6,-0.4l0.6,-0.5l0.8,-0.4l0.8,-0.5l0.6,-0.5l0.7,-0.3l0.8,-0.3L136,293l0.9,-0.3l0.8,-0.1l0.7,-0.2l0.9,-0.1l0.8,0l0.8,0l763.5,0l0.8,0l0.9,0l0.8,0.1l0.8,0.2l0.9,0.3l0.7,0.1l0.8,0.3l0.8,0.3l0.7,0.3l0.6,0.5l0.8,0.5l0.8,0.4l0.6,0.5l0.6,0.4l0.6,0.6l0.6,0.7l0.5,0.6l0.4,0.7l0.5,0.6l0.4,0.8l0.5,0.8l0.3,0.6l0.3,0.7l0.3,0.8l0.3,0.9l0.2,0.8l0.1,0.8l0,0.9l0.2,0.7l0,0.8l0.1,63.4l-0.1,0.8l0,0.9l-0.2,0.7l-0.1,1l-0.2,0.7l-0.1,0.8l-0.3,0.8l-0.3,0.7l-0.5,0.8l-0.3,0.7l-0.5,0.7l-0.4,0.7l-0.6,0.6l-0.5,0.6l-0.6,0.7l-0.6,0.6l-0.6,0.4l-0.6,0.6l-0.8,0.3l-0.6,0.5l-0.8,0.5l-0.7,0.3l-0.8,0.3l-0.8,0.3l-0.7,0.3l-0.9,0.1l-0.8,0.2l-0.8,0.1l-0.9,0l-0.8,0l-763.5,0.2l-0.8,-0.2l-0.8,0L138.4,387l-0.7,-0.2l-0.8,-0.1L136,386.5l-0.8,-0.3l-0.8,-0.3l-0.7,-0.4l-0.6,-0.3l-0.8,-0.5l-0.8,-0.5l-0.6,-0.6l-0.6,-0.4l-0.6,-0.6l-0.5,-0.7l-0.6,-0.6l-0.4,-0.6L127.7,380l-0.4,-0.7l-0.5,-0.7l-0.3,-0.8l-0.3,-0.7l-0.3,-0.8l-0.3,-0.8l-0.2,-0.7l-0.1,-1l-0.2,-0.7l0,-0.9l0,-0.8l0,-63.4Z" class="g2_2" />
<path d="M217,359l65,0" class="g3_2" />
<path d="M282,359l381,0" class="g4_2" />
</svg>