<?xml version="1.0" encoding="UTF-8" standalone="no"?>
<!DOCTYPE svg PUBLIC "-//W3C//DTD SVG 1.1//EN"
"http://www.w3.org/Graphics/SVG/1.1/DTD/svg11.dtd">
<svg viewBox="0 0 1210 1210" version="1.1" xmlns="http://www.w3.org/2000/svg" xmlns:xlink="http://www.w3.org/1999/xlink">
<defs>
<style type="text/css"><![CDATA[
.g2_134{
fill: #BFBFBF;
}
.g3_134{
fill: none;
stroke: #B2B2B2;
stroke-width: 4;
stroke-linecap: butt;
stroke-linejoin: miter;
stroke-miterlimit: 7;
}
.g1_134{
fill: #FFFFFF;
}
]]></style>
</defs>
<path fill-rule="evenodd" d="M0,0L1210,0l0,1210L0,1210L0,0Z" class="g1_134" />
<path fill-rule="evenodd" d="M0,0L1210,0l0,1210L0,1210L0,0Z" class="g1_134" />
<image x="100" y="100" width="566" height="222" xlink:href="img/1.png" />
<image x="92" y="485" width="825" height="339" xlink:href="img/2.png" />
<path fill-rule="evenodd" d="M860.9,754.7l0,-0.6l0.2,-0.8l0,-0.6l0.1,-0.6l0.2,-0.6l0.1,-0.6l0.3,-0.6l0.2,-0.6l0.3,-0.5l0.3,-0.6l0.3,-0.6l0.4,-0.5l0.4,-0.6l0.4,-0.4l0.5,-0.5l0.4,-0.4l0.5,-0.4l0.4,-0.4l0.7,-0.3l0.6,-0.5l0.4,-0.1l0.6,-0.3l0.6,-0.3l0.7,-0.2l0.6,-0.1l0.6,-0.3l0.6,0l0.6,-0.2l0.6,0l0.6,0l33.8,0l-148.5,-37l217.2,37l148.5,0l0.7,0l0.6,0l0.6,0.2l0.6,0l0.6,0.3l0.6,0.1l0.6,0.2l0.6,0.3l0.6,0.3l0.6,0.1l0.5,0.5l0.6,0.3l0.5,0.4l0.4,0.4l0.5,0.4l0.5,0.5l0.4,0.4l0.3,0.6l0.5,0.5l0.3,0.6l0.3,0.6l0.3,0.5l0.1,0.6l0.4,0.6l0.1,0.6l0.2,0.6l0.1,0.6l0,0.6l0.2,0.8l0,0.6l0,18.5l0,30.7l0,0.6l0,0.6l-0.2,0.6l-0.1,0.7l-0.2,0.6l-0.1,0.6l-0.2,0.6l-0.3,0.6l-0.3,0.6l-0.3,0.6l-0.3,0.5l-0.3,0.6l-0.5,0.5l-0.4,0.4l-0.5,0.5l-0.5,0.4l-0.4,0.5l-0.5,0.3l-0.6,0.5l-0.5,0.3l-0.6,0.3l-0.6,0.3l-0.4,0.1l-0.6,0.3l-0.8,0.2l-0.6,0.1L1126,816l-0.6,0l-0.6,0.1l-0.7,0l-148.5,0l-68.7,0l-33.8,0l-0.6,0l-0.6,0L871.3,816l-0.6,-0.2l-0.6,-0.1l-0.6,-0.2l-0.7,-0.1l-0.6,-0.3l-0.6,-0.3l-0.4,-0.3l-0.6,-0.3l-0.7,-0.4l-0.4,-0.4L865,812.9l-0.4,-0.3l-0.5,-0.4l-0.4,-0.6l-0.4,-0.5l-0.4,-0.5L862.6,810l-0.3,-0.6L862,809l-0.2,-0.7l-0.3,-0.6l-0.1,-0.6l-0.2,-0.7l-0.1,-0.7l0,-0.6l-0.2,-0.6l0,-0.6l0,-30.7l0,-18.5Z" class="g2_134" />
<path d="M860.9,754.7l0,0l0,-0.6l0.2,-0.8l0,-0.6l0.1,-0.6l0.2,-0.6l0.1,-0.6l0.3,-0.6l0.2,-0.6l0.3,-0.5l0.3,-0.6l0.3,-0.6l0.4,-0.5l0.4,-0.6l0.4,-0.4l0.5,-0.5l0.4,-0.4l0.5,-0.4l0.4,-0.4l0.7,-0.3l0.6,-0.5l0.4,-0.1l0.6,-0.3l0.6,-0.3l0.7,-0.2l0.6,-0.1l0.6,-0.3l0.6,0l0.6,-0.2l0.6,0l0.6,0l33.8,0l-148.5,-37l217.2,37l148.5,0l0.7,0l0.6,0l0.6,0.2l0.6,0l0.6,0.3l0.6,0.1l0.6,0.2l0.6,0.3l0.6,0.3l0.6,0.1l0.5,0.5l0.6,0.3l0.5,0.4l0.4,0.4l0.5,0.4l0.5,0.5l0.4,0.4l0.3,0.6l0.5,0.5l0.3,0.6l0.3,0.6l0.3,0.5l0.1,0.6l0.4,0.6l0.1,0.6l0.2,0.6l0.1,0.6l0,0.6l0.2,0.8l0,0.6l0,18.5l0,30.7l0,0.6l0,0.6l-0.2,0.6l-0.1,0.7l-0.2,0.6l-0.1,0.6l-0.2,0.6l-0.3,0.6l-0.3,0.6l-0.3,0.6l-0.3,0.5l-0.3,0.6l-0.5,0.5l-0.4,0.4l-0.5,0.5l-0.5,0.4l-0.4,0.5l-0.5,0.3l-0.6,0.5l-0.5,0.3l-0.6,0.3l-0.6,0.3l-0.4,0.1l-0.6,0.3l-0.8,0.2l-0.6,0.1L1126,816l-0.6,0l-0.6,0.1l-0.7,0l-148.5,0l-68.7,0l-33.8,0l-0.6,0l-0.6,0L871.3,816l-0.6,-0.2l-0.6,-0.1l-0.6,-0.2l-0.7,-0.1l-0.6,-0.3l-0.6,-0.3l-0.4,-0.3l-0.6,-0.3l-0.7,-0.4l-0.4,-0.4L865,812.9l-0.4,-0.3l-0.5,-0.4l-0.4,-0.6l-0.4,-0.5l-0.4,-0.5L862.6,810l-0.3,-0.6L862,809l-0.2,-0.7l-0.3,-0.6l-0.1,-0.6l-0.2,-0.7l-0.1,-0.7l0,-0.6l-0.2,-0.6l0,-0.6l0,-30.7l0,-18.5Z" class="g3_134" />
<image x="95" y="823" width="860" height="250" xlink:href="img/3.png" />
</svg>