<?xml version="1.0" encoding="UTF-8" standalone="no"?>
<!DOCTYPE svg PUBLIC "-//W3C//DTD SVG 1.1//EN"
"http://www.w3.org/Graphics/SVG/1.1/DTD/svg11.dtd">
<svg viewBox="0 0 1155 1210" version="1.1" xmlns="http://www.w3.org/2000/svg" xmlns:xlink="http://www.w3.org/1999/xlink">
<defs>
<clipPath id="c0_28"><path d="M0.5,1210.5L0.5,0.5l1155,0l0,1210Z" /></clipPath>
<style type="text/css"><![CDATA[
.g2_28{
fill: none;
stroke: #0000EE;
stroke-width: 2;
stroke-linecap: butt;
stroke-linejoin: miter;
}
.g1_28{
fill: #FFFFFF;
}
]]></style>
</defs>
<path fill-rule="evenodd" d="M0,0L1155,0l0,1210L0,1210L0,0Z" class="g1_28" />
<path fill-rule="evenodd" d="M0,0L1155,0l0,1210L0,1210L0,0Z" class="g1_28" />
<image x="790" y="1140" width="319" height="55" xlink:href="img/1.png" />
<g clip-path="url(#c0_28)">
<g fill="#626262" >
<use xlink:href="#f0_q" transform="matrix(12,0,0,12,47.7,32.1)" />
<use xlink:href="#f1_1u" transform="matrix(12,0,0,12,74.3,33.2)" />
<use xlink:href="#f1_b" transform="matrix(12,0,0,12,86.2,33.2)" />
<use xlink:href="#f1_k" transform="matrix(12,0,0,12,97.6,33.2)" />
<use xlink:href="#f1_h" transform="matrix(12,0,0,12,108.9,33.2)" />
<use xlink:href="#f1_8" transform="matrix(12,0,0,12,126.5,33.2)" />
<use xlink:href="#f1_7" transform="matrix(12,0,0,12,144.3,33.2)" />
<use xlink:href="#f1_l" transform="matrix(12,0,0,12,155.5,33.2)" />
<use xlink:href="#f1_b" transform="matrix(12,0,0,12,162.5,33.2)" />
<use xlink:href="#f1_1o" transform="matrix(12,0,0,12,179.7,33.2)" />
</g>
<g fill="#0000EE" >
<use xlink:href="#f1_f" transform="matrix(12,0,0,12,192.3,33.2)" />
<use xlink:href="#f1_c" transform="matrix(12,0,0,12,204,33.2)" />
<use xlink:href="#f1_c" transform="matrix(12,0,0,12,211,33.2)" />
<use xlink:href="#f1_9" transform="matrix(12,0,0,12,218.2,33.2)" />
<use xlink:href="#f1_n" transform="matrix(12,0,0,12,229.8,33.2)" />
<use xlink:href="#f1_1l" transform="matrix(12,0,0,12,236,33.2)" />
<use xlink:href="#f1_1l" transform="matrix(12,0,0,12,242.1,33.2)" />
<use xlink:href="#f1_12" transform="matrix(12,0,0,12,248.4,33.2)" />
<use xlink:href="#f1_12" transform="matrix(12,0,0,12,263.5,33.2)" />
<use xlink:href="#f1_12" transform="matrix(12,0,0,12,278.5,33.2)" />
<use xlink:href="#f1_1c" transform="matrix(12,0,0,12,291.6,33.2)" />
<use xlink:href="#f1_7" transform="matrix(12,0,0,12,297.5,33.2)" />
<use xlink:href="#f1_l" transform="matrix(12,0,0,12,308.7,33.2)" />
<use xlink:href="#f1_k" transform="matrix(12,0,0,12,316.3,33.2)" />
<use xlink:href="#f1_6" transform="matrix(12,0,0,12,327.8,33.2)" />
<use xlink:href="#f1_a" transform="matrix(12,0,0,12,338,33.2)" />
<use xlink:href="#f1_b" transform="matrix(12,0,0,12,343,33.2)" />
<use xlink:href="#f1_1c" transform="matrix(12,0,0,12,354.5,33.2)" />
<use xlink:href="#f1_6" transform="matrix(12,0,0,12,360.3,33.2)" />
<use xlink:href="#f1_7" transform="matrix(12,0,0,12,370.5,33.2)" />
<use xlink:href="#f1_8" transform="matrix(12,0,0,12,381.8,33.2)" />
<use xlink:href="#f1_1l" transform="matrix(12,0,0,12,399.5,33.2)" />
<use xlink:href="#f1_c" transform="matrix(12,0,0,12,405.7,33.2)" />
<use xlink:href="#f1_b" transform="matrix(12,0,0,12,412.9,33.2)" />
<use xlink:href="#f1_6" transform="matrix(12,0,0,12,424.2,33.2)" />
<use xlink:href="#f1_f" transform="matrix(12,0,0,12,434.4,33.2)" />
<use xlink:href="#f1_4" transform="matrix(12,0,0,12,446,33.2)" />
<use xlink:href="#f1_b" transform="matrix(12,0,0,12,457.6,33.2)" />
<use xlink:href="#f1_c" transform="matrix(12,0,0,12,468.9,33.2)" />
<use xlink:href="#f1_12" transform="matrix(12,0,0,12,476.1,33.2)" />
<use xlink:href="#f1_7" transform="matrix(12,0,0,12,491.1,33.2)" />
<use xlink:href="#f1_l" transform="matrix(12,0,0,12,502.3,33.2)" />
<use xlink:href="#f1_1a" transform="matrix(12,0,0,12,510,33.2)" />
<use xlink:href="#f1_1l" transform="matrix(12,0,0,12,520.6,33.2)" />
<use xlink:href="#f1_k" transform="matrix(12,0,0,12,526.8,33.2)" />
<use xlink:href="#f1_l" transform="matrix(12,0,0,12,538.3,33.2)" />
<use xlink:href="#f1_c" transform="matrix(12,0,0,12,545.9,33.2)" />
<use xlink:href="#f1_d" transform="matrix(12,0,0,12,553.1,33.2)" />
<use xlink:href="#f1_6" transform="matrix(12,0,0,12,558.1,33.2)" />
<use xlink:href="#f1_a" transform="matrix(12,0,0,12,568.3,33.2)" />
<use xlink:href="#f1_b" transform="matrix(12,0,0,12,573.5,33.2)" />
<use xlink:href="#f1_g" transform="matrix(12,0,0,12,584.8,33.2)" />
<use xlink:href="#f1_1l" transform="matrix(12,0,0,12,594.4,33.2)" />
<use xlink:href="#f1_h" transform="matrix(12,0,0,12,600.6,33.2)" />
<use xlink:href="#f1_g" transform="matrix(12,0,0,12,612.3,33.2)" />
<use xlink:href="#f1_a" transform="matrix(12,0,0,12,621.9,33.2)" />
<use xlink:href="#f1_1l" transform="matrix(12,0,0,12,627,33.2)" />
<use xlink:href="#f1_9" transform="matrix(12,0,0,12,633.1,33.2)" />
<use xlink:href="#f1_l" transform="matrix(12,0,0,12,644.7,33.2)" />
<use xlink:href="#f1_b" transform="matrix(12,0,0,12,651.9,33.2)" />
<use xlink:href="#f1_29" transform="matrix(12,0,0,12,663.2,33.2)" />
<use xlink:href="#f1_1o" transform="matrix(12,0,0,12,672.7,33.2)" />
<use xlink:href="#f1_9" transform="matrix(12,0,0,12,679.4,33.2)" />
<use xlink:href="#f1_r" transform="matrix(12,0,0,12,690.9,33.2)" />
<use xlink:href="#f1_c" transform="matrix(12,0,0,12,701.7,33.2)" />
<use xlink:href="#f1_f" transform="matrix(12,0,0,12,708.9,33.2)" />
<use xlink:href="#f1_7" transform="matrix(12,0,0,12,720.5,33.2)" />
<use xlink:href="#f1_4" transform="matrix(12,0,0,12,731.6,33.2)" />
<use xlink:href="#f1_1o" transform="matrix(12,0,0,12,743.1,33.2)" />
<use xlink:href="#f1_13" transform="matrix(12,0,0,12,749.7,33.2)" />
<use xlink:href="#f1_i" transform="matrix(12,0,0,12,761.4,33.2)" />
<use xlink:href="#f1_b" transform="matrix(12,0,0,12,773,33.2)" />
<use xlink:href="#f1_l" transform="matrix(12,0,0,12,784.3,33.2)" />
<use xlink:href="#f1_d" transform="matrix(12,0,0,12,792.1,33.2)" />
<use xlink:href="#f1_b" transform="matrix(12,0,0,12,797.1,33.2)" />
<use xlink:href="#f1_g" transform="matrix(12,0,0,12,808.6,33.2)" />
<use xlink:href="#f1_1o" transform="matrix(12,0,0,12,818,33.2)" />
<use xlink:href="#f1_2" transform="matrix(12,0,0,12,824.6,33.2)" />
<use xlink:href="#f1_1j" transform="matrix(12,0,0,12,836.2,33.2)" />
<use xlink:href="#f1_2" transform="matrix(12,0,0,12,848,33.2)" />
<use xlink:href="#f1_14" transform="matrix(12,0,0,12,859.4,33.2)" />
<use xlink:href="#f1_1m" transform="matrix(12,0,0,12,871.2,33.2)" />
<use xlink:href="#f1_22" transform="matrix(12,0,0,12,882.9,33.2)" />
<use xlink:href="#f1_1c" transform="matrix(12,0,0,12,894.7,33.2)" />
<use xlink:href="#f1_f" transform="matrix(12,0,0,12,900.5,33.2)" />
<use xlink:href="#f1_c" transform="matrix(12,0,0,12,912.1,33.2)" />
<use xlink:href="#f1_8" transform="matrix(12,0,0,12,919.3,33.2)" />
<use xlink:href="#f1_a" transform="matrix(12,0,0,12,937,33.2)" />
</g>
</g>
<path d="M192,34l750,0" class="g2_28" />
<g clip-path="url(#c0_28)">
<g fill="#626262" >
<use xlink:href="#f1_j" transform="matrix(12,0,0,12,948.6,33.2)" />
<use xlink:href="#f1_g" transform="matrix(12,0,0,12,960.3,33.2)" />
<use xlink:href="#f1_b" transform="matrix(12,0,0,12,969.8,33.2)" />
<use xlink:href="#f1_k" transform="matrix(12,0,0,12,981.1,33.2)" />
<use xlink:href="#f1_l" transform="matrix(12,0,0,12,992.6,33.2)" />
<use xlink:href="#f1_6" transform="matrix(12,0,0,12,999.6,33.2)" />
<use xlink:href="#f1_f" transform="matrix(12,0,0,12,1010,33.2)" />
<use xlink:href="#f1_e" transform="matrix(12,0,0,12,1027.4,33.2)" />
<use xlink:href="#f1_7" transform="matrix(12,0,0,12,1033.8,33.2)" />
<use xlink:href="#f1_l" transform="matrix(12,0,0,12,1044.9,33.2)" />
<use xlink:href="#f1_23" transform="matrix(12,0,0,12,74.3,77.6)" />
</g>
<g fill="#F69200" >
<use xlink:href="#f1_27" transform="matrix(12,0,0,12,83,77.6)" />
<use xlink:href="#f1_d" transform="matrix(12,0,0,12,95.5,77.6)" />
<use xlink:href="#f1_4" transform="matrix(12,0,0,12,100.6,77.6)" />
<use xlink:href="#f1_h" transform="matrix(12,0,0,12,112.1,77.6)" />
<use xlink:href="#f1_1y" transform="matrix(12,0,0,12,129.8,77.6)" />
<use xlink:href="#f1_k" transform="matrix(12,0,0,12,140.8,77.6)" />
<use xlink:href="#f1_l" transform="matrix(12,0,0,12,152.1,77.6)" />
<use xlink:href="#f1_d" transform="matrix(12,0,0,12,159.9,77.6)" />
<use xlink:href="#f1_k" transform="matrix(12,0,0,12,164.9,77.6)" />
<use xlink:href="#f1_m" transform="matrix(12,0,0,12,176.3,77.6)" />
<use xlink:href="#f1_a" transform="matrix(12,0,0,12,187.8,77.6)" />
<use xlink:href="#f1_b" transform="matrix(12,0,0,12,193,77.6)" />
<use xlink:href="#f1_s" transform="matrix(12,0,0,12,210.2,77.6)" />
<use xlink:href="#f1_k" transform="matrix(12,0,0,12,220.3,77.6)" />
<use xlink:href="#f1_c" transform="matrix(12,0,0,12,231.6,77.6)" />
<use xlink:href="#f1_c" transform="matrix(12,0,0,12,238.8,77.6)" />
<use xlink:href="#f1_b" transform="matrix(12,0,0,12,246,77.6)" />
<use xlink:href="#f1_l" transform="matrix(12,0,0,12,257.3,77.6)" />
<use xlink:href="#f1_4" transform="matrix(12,0,0,12,264.6,77.6)" />
<use xlink:href="#f1_g" transform="matrix(12,0,0,12,276.2,77.6)" />
</g>
<g fill="#626262" >
<use xlink:href="#f1_23" transform="matrix(12,0,0,12,285.8,77.6)" />
<use xlink:href="#f1_d" transform="matrix(12,0,0,12,300.3,77.6)" />
<use xlink:href="#f1_4" transform="matrix(12,0,0,12,305.4,77.6)" />
<use xlink:href="#f1_c" transform="matrix(12,0,0,12,322.8,77.6)" />
<use xlink:href="#f1_f" transform="matrix(12,0,0,12,330,77.6)" />
<use xlink:href="#f1_d" transform="matrix(12,0,0,12,341.6,77.6)" />
<use xlink:href="#f1_g" transform="matrix(12,0,0,12,346.6,77.6)" />
<use xlink:href="#f1_a" transform="matrix(12,0,0,12,362,77.6)" />
<use xlink:href="#f1_d" transform="matrix(12,0,0,12,367.2,77.6)" />
<use xlink:href="#f1_4" transform="matrix(12,0,0,12,372.3,77.6)" />
<use xlink:href="#f1_1a" transform="matrix(12,0,0,12,383.9,77.6)" />
<use xlink:href="#f1_1c" transform="matrix(12,0,0,12,394.4,77.6)" />
</g>
</g>
<defs>
	<path d="M264.3,297.9c0,0,-42.8,0,-79.4,16.8c0,0,-36.7,16.8,-64.2,44.3c0,0,-29,29.1,-44.3,67.3c0,0,-16.8,38.1,-16.8,82.5c0,0,0,41.2,15.3,77.9c0,0,16.8,38.2,44.3,65.7c0,0,29,27.5,65.7,42.7c0,0,36.6,16.8,79.4,16.8c0,0,42.8,0,81,-15.2c0,0,38.2,-16.8,65.7,-44.3c0,0,29,-27.5,45.8,-64.2c0,0,16.8,-38.2,16.8,-79.4c0,0,0,-44.4,-16.8,-82.5c0,0,-16.8,-38.2,-44.3,-65.7c0,0,-29,-29.1,-67.2,-45.9c0,0,-38.2,-16.8,-81,-16.8Z" 
	id="f0_q"
	transform="scale(0.001,-0.001)" />

	<path d="M488.9,594.3c0,0,110,0,165,50.4c0,0,55,50.4,55,148.2c0,0,0,97.8,-55,146.7c0,0,-55,48.9,-165,48.9l-189.5,0l0,-394.2ZM149.7,0l0,1113.8l339.2,0c0,0,191,0,284.2,-79.5c0,0,94.7,-81,94.7,-241.4c0,0,0,-105.4,-48.9,-174.1c0,0,-48.9,-70.3,-142.1,-97.8c0,0,48.9,-15.3,94.7,-68.8c0,0,45.9,-55,91.7,-148.2L1017.5,0L855.6,0L711.9,285.7c0,0,-55,111.5,-106.9,148.2c0,0,-51.9,36.7,-140.6,36.7l-165,0L299.4,0Z" 
	id="f1_1u"
	transform="scale(0.001,-0.001)" />

	<path d="M230.7,490.4l490.4,1.5c0,0,-1.5,111.6,-62.6,178.8c0,0,-62.7,67.2,-163.5,67.2c0,0,-114.6,0,-183.3,-64.1c0,0,-70.3,-65.7,-81,-183.4ZM516.4,-21.3c0,0,-198.6,0,-314.7,116C201.7,94.7,84,210.8,84,409.4c0,0,0,204.8,110,325.5c0,0,111.6,120.7,299.5,120.7c0,0,168,0,265.8,-108.5c0,0,99.3,-110,99.3,-296.4l0,-67.2l-632.5,0c0,0,9.2,-140.6,85.6,-213.9c0,0,76.4,-74.9,213.9,-74.9c0,0,77.9,0,152.7,18.4c0,0,74.9,19.8,148.2,58l0,-129.8c0,0,-74.8,-30.6,-151.2,-45.8c0,0,-77.9,-16.8,-158.9,-16.8Z" 
	id="f1_b"
	transform="scale(0.001,-0.001)" />

	<path d="M407.9,93.2c0,0,113.1,0,181.8,79.4c0,0,70.3,81,70.3,215.5l0,30.5l-137.5,0c0,0,-166.5,0,-230.7,-36.7c0,0,-64.2,-38.1,-64.2,-129.8c0,0,0,-73.3,47.4,-116.1c0,0,48.9,-42.8,132.9,-42.8ZM371.3,-21.3c0,0,-128.4,0,-203.2,71.7c0,0,-76.4,71.8,-76.4,192.5c0,0,0,140.6,93.2,212.4c0,0,94.7,71.8,282.6,71.8l192.5,0l0,13.7c0,0,0,94.8,-62.6,145.2c0,0,-62.7,51.9,-175.7,51.9c0,0,-71.8,0,-139.1,-16.8c0,0,-67.2,-16.8,-129.8,-51.9l0,126.8c0,0,74.8,30.5,145.1,44.3c0,0,71.8,15.3,139,15.3c0,0,180.3,0,268.9,-93.2c0,0,90.2,-94.8,90.2,-285.7L796,0L660,0l0,126.8c0,0,-47.4,-76.4,-117.6,-111.5c0,0,-70.3,-36.6,-171.1,-36.6Z" 
	id="f1_k"
	transform="scale(0.001,-0.001)" />

	<path d="M458.3,93.2c0,0,110,0,172.7,85.6c0,0,62.6,85.5,62.6,236.8c0,0,0,152.7,-62.6,238.3c0,0,-62.7,85.5,-172.7,85.5c0,0,-108.4,0,-171.1,-85.5c0,0,-62.6,-85.6,-62.6,-238.3c0,0,0,-151.3,62.6,-236.8c0,0,62.7,-85.6,171.1,-85.6ZM424.7,-21.3c0,0,-151.2,0,-245.9,120.6C178.8,99.3,84,220,84,415.6c0,0,0,197,94.8,317.7c0,0,94.7,122.3,245.9,122.3c0,0,93.2,0,158.9,-36.7c0,0,65.7,-36.7,110,-111.5l0,452.2l136,0L829.6,0l-136,0l0,125.3c0,0,-44.3,-74.9,-110,-110c0,0,-65.7,-36.6,-158.9,-36.6Z" 
	id="f1_h"
	transform="scale(0.001,-0.001)" />

	<path d="M137.5,0l0,834.2l139,0l0,-129.9c0,0,45.9,77.9,111.6,114.6c0,0,65.7,36.7,155.8,36.7c0,0,91.7,0,154.3,-45.9c0,0,64.2,-47.3,96.2,-135.9c0,0,50.5,93.1,122.3,137.5c0,0,71.8,44.3,168,44.3c0,0,131.4,0,201.7,-91.7c0,0,71.8,-91.7,71.8,-259.7L1358.2,0l-139,0l0,499.6c0,0,0,119.2,-41.3,177.2c0,0,-42.8,58.1,-129.8,58.1c0,0,-107,0,-168.1,-70.3c0,0,-62.6,-70.3,-62.6,-192.5L817.4,0L678.3,0l0,499.6c0,0,0,120.7,-41.2,177.2c0,0,-42.8,58.1,-131.4,58.1c0,0,-105.4,0,-166.5,-70.3c0,0,-62.7,-71.8,-62.7,-192.5L276.5,0Z" 
	id="f1_8"
	transform="scale(0.001,-0.001)" />

	<path d="M467.5,94.7c0,0,108.5,0,172.6,85.6c0,0,64.2,87.1,64.2,235.3c0,0,0,149.7,-64.2,235.2c0,0,-64.1,87.1,-172.6,87.1c0,0,-111.5,0,-175.7,-85.5c0,0,-64.2,-85.6,-64.2,-236.8c0,0,0,-149.8,64.2,-235.3c0,0,64.2,-85.6,175.7,-85.6Zm0,-116c0,0,-180.3,0,-281.1,116C186.4,94.7,84,210.8,84,415.6c0,0,0,206.2,100.9,322.3c0,0,102.3,117.7,282.6,117.7c0,0,178.8,0,281.1,-116.2c0,0,102.4,-117.6,102.4,-323.8c0,0,0,-204.8,-102.4,-320.9c0,0,-102.3,-116,-281.1,-116Z" 
	id="f1_7"
	transform="scale(0.001,-0.001)" />

	<path d="M137.5,0l0,834.2l139,0l0,-129.9c0,0,42.8,76.4,111.6,113.1c0,0,70.2,38.2,169.5,38.2c0,0,13.8,0,30.6,-1.6c0,0,16.8,-3,38.2,-6.1l1.5,-142.1c0,0,-24.4,13.8,-50.4,19.9c0,0,-27.5,6.1,-61.1,6.1c0,0,-116.1,0,-177.2,-74.9c0,0,-62.7,-76.3,-62.7,-216.9l0,-440Z" 
	id="f1_l"
	transform="scale(0.001,-0.001)" />

	<path d="M73,355l0,123l403,0l0,-123Z" 
	id="f1_1o"
	transform="scale(0.001,-0.001)" />

	<path d="M137.5,0l0,1159.6l139,0l0,-455.3c0,0,48.9,76.4,114.6,113.1c0,0,67.2,38.2,154.3,38.2c0,0,145.2,0,218.5,-88.7c0,0,73.3,-90.1,73.3,-262.7L837.2,0L699.7,0l0,499.6c0,0,0,117.6,-45.8,175.7c0,0,-45.8,59.6,-139,59.6c0,0,-110,0,-174.2,-70.3c0,0,-64.2,-70.3,-64.2,-192.5L276.5,0Z" 
	id="f1_f"
	transform="scale(0.001,-0.001)" />

	<path d="M420.1,0c0,0,-158.8,0,-218.4,58.1c0,0,-61.1,59.5,-61.1,216.9l0,453.8l-100.9,0l0,105.4l100.9,0l0,238.3l139,0l0,-238.3l282.6,0l0,-105.4l-282.6,0l0,-453.8c0,0,0,-102.4,27.5,-131.4c0,0,27.5,-29,113,-29l142.1,0L562.2,0Z" 
	id="f1_c"
	transform="scale(0.001,-0.001)" />

	<path d="M508.8,93.2c0,0,110,0,171.1,85.6c0,0,62.6,85.5,62.6,236.8c0,0,0,152.7,-61.1,238.3c0,0,-62.6,85.5,-172.6,85.5c0,0,-108.5,0,-169.6,-85.5c0,0,-62.7,-85.6,-62.7,-238.3c0,0,0,-151.3,61.1,-236.8c0,0,62.7,-85.6,171.2,-85.6ZM137.5,-317.7l0,1151.9l139,0l0,-126.8c0,0,42.8,74.8,108.5,111.5c0,0,65.7,36.7,157.4,36.7c0,0,152.7,0,247.5,-120.7c0,0,96.2,-122.3,96.2,-319.3c0,0,0,-195.6,-94.7,-316.3c0,0,-96.3,-120.6,-249,-120.6c0,0,-91.7,0,-157.4,35.1c0,0,-65.7,36.6,-108.5,111.5l0,-443Z" 
	id="f1_9"
	transform="scale(0.001,-0.001)" />

	<path d="M178,0l0,189l158,0L336,0Zm0,600l0,189l158,0l0,-189Z" 
	id="f1_n"
	transform="scale(0.001,-0.001)" />

	<path d="M0,-140.5L386.5,1113.8l126.8,0L126.8,-140.5Z" 
	id="f1_1l"
	transform="scale(0.001,-0.001)" />

	<path d="M282.6,0L62.6,834.2l137.5,0L372.8,183.3L542.4,834.2l161.9,0L876.9,183.3l171.2,650.9l135.9,0L965.6,0l-162,0L624.9,684.4L444.6,0Z" 
	id="f1_12"
	transform="scale(0.001,-0.001)" />

	<path d="M161,0l0,189l158,0L319,0Z" 
	id="f1_1c"
	transform="scale(0.001,-0.001)" />

	<path d="M495,-21.3c0,0,-189.4,0,-299.4,117.6C195.6,96.3,84,215.4,84,415.6c0,0,0,204.7,111.6,322.3c0,0,113,117.7,308.6,117.7c0,0,62.6,0,122.2,-13.8c0,0,61.1,-13.7,117.6,-39.7l0,-128.3c0,0,-58,32,-116.1,47.3c0,0,-58,16.8,-119.1,16.8c0,0,-133,0,-206.3,-84c0,0,-74.9,-84,-74.9,-238.3c0,0,0,-152.8,73.4,-236.8c0,0,74.8,-84.1,207.8,-84.1c0,0,61.1,0,119.1,15.3c0,0,58.1,16.8,116.1,48.9L744,30.6c0,0,-56.5,-26,-117.6,-38.1c0,0,-62.6,-13.8,-131.4,-13.8Z" 
	id="f1_6"
	transform="scale(0.001,-0.001)" />

	<path d="M143,0l0,1159l138,0L281,0Z" 
	id="f1_a"
	transform="scale(0.001,-0.001)" />

	<path d="M137.5,0l0,834.2l139,0l0,-129.9c0,0,48.9,76.4,114.6,113.1c0,0,67.2,38.2,154.3,38.2c0,0,145.2,0,218.5,-88.7c0,0,73.3,-90.1,73.3,-262.7L837.2,0L699.7,0l0,499.6c0,0,0,117.6,-45.8,175.7c0,0,-45.8,59.6,-139,59.6c0,0,-110,0,-174.2,-70.3c0,0,-64.2,-70.3,-64.2,-192.5L276.5,0Z" 
	id="f1_4"
	transform="scale(0.001,-0.001)" />

	<path d="M137.5,0l0,1159.6l139,0l0,-684.5L686,834.2l174.1,0L417.1,444.6L880,0L699.7,0L276.5,407.9L276.5,0Z" 
	id="f1_1a"
	transform="scale(0.001,-0.001)" />

	<path d="M143,0l0,834l138,0L281,0Zm0,985l0,174l138,0l0,-174Z" 
	id="f1_d"
	transform="scale(0.001,-0.001)" />

	<path d="M375.8,-21.3c0,0,-67.2,0,-140.5,12.2c0,0,-73.4,12.2,-152.8,39.7l0,140.5c0,0,76.4,-39.7,149.7,-58c0,0,73.4,-19.9,146.7,-19.9c0,0,96.2,0,148.2,32.1c0,0,51.9,33.6,51.9,94.7c0,0,0,55,-36.6,84c0,0,-38.2,30.6,-165,58.1l-48.9,12.2c0,0,-126.8,26,-183.4,81c0,0,-56.5,56.5,-56.5,152.8c0,0,0,119.1,82.5,183.3c0,0,84,64.2,238.3,64.2c0,0,74.9,0,142.1,-10.7c0,0,67.3,-12.3,123.8,-35.2l0,-129.8c0,0,-58.1,30.5,-120.7,44.3c0,0,-62.7,15.2,-129.9,15.2c0,0,-102.3,0,-152.8,-30.5c0,0,-50.4,-32.1,-50.4,-94.7c0,0,0,-47.4,35.2,-74.9c0,0,36.6,-27.5,148.2,-51.9l45.8,-10.7c0,0,146.7,-30.6,207.8,-87.1c0,0,62.6,-58.1,62.6,-160.4c0,0,0,-116.1,-91.7,-183.4c0,0,-93.1,-67.1,-253.6,-67.1Z" 
	id="f1_g"
	transform="scale(0.001,-0.001)" />

	<path d="M64.2,0l0,125.3L580.6,725.7L84,725.7l0,108.5l650.9,0l0,-125.3L220,108.5l514.9,0L734.9,0Z" 
	id="f1_29"
	transform="scale(0.001,-0.001)" />

	<path d="M120.7,-317.7l0,116.1l79.4,0c0,0,56.6,0,87.1,26c0,0,32.1,27.5,70.3,126.8l24.4,61L44.3,834.2l145.1,0L450.7,181.8L711.9,834.2l146.7,0L490.4,-76.3c0,0,-58,-149.7,-113,-195.5c0,0,-55,-45.9,-148.2,-45.9Z" 
	id="f1_r"
	transform="scale(0.001,-0.001)" />

	<path d="M458.3,93.2c0,0,110,0,172.7,85.6c0,0,62.6,85.5,62.6,236.8c0,0,0,152.7,-62.6,238.3c0,0,-62.7,85.5,-172.7,85.5c0,0,-108.4,0,-171.1,-85.5c0,0,-62.6,-85.6,-62.6,-238.3c0,0,0,-151.3,62.6,-236.8c0,0,62.7,-85.6,171.1,-85.6ZM693.6,-317.7l0,443c0,0,-44.3,-74.9,-110,-110c0,0,-65.7,-36.6,-158.9,-36.6c0,0,-151.2,0,-245.9,120.6C178.8,99.3,84,220,84,415.6c0,0,0,197,94.8,317.7c0,0,94.7,122.3,245.9,122.3c0,0,93.2,0,158.9,-36.7c0,0,65.7,-36.7,110,-111.5l0,126.8l136,0l0,-1151.9Z" 
	id="f1_13"
	transform="scale(0.001,-0.001)" />

	<path d="M421.7,-21.3c0,0,-143.6,0,-218.5,88.5L128.3,328.5l0,505.7l137.5,0l0,-499.6c0,0,0,-119.2,45.9,-178.8c0,0,47.3,-59.5,139,-59.5c0,0,111.5,0,175.7,70.2c0,0,65.7,71.8,65.7,194.1l0,473.6l136,0L828.1,0l-136,0l0,126.8c0,0,-50.4,-74.9,-116.1,-111.5c0,0,-67.2,-36.6,-154.3,-36.6Z" 
	id="f1_i"
	transform="scale(0.001,-0.001)" />

	<path d="M189.4,0l0,126.8l246,0l0,849.5L166.5,922.8l0,136l267.4,55l149.7,0l0,-987l246,0L829.6,0Z" 
	id="f1_2"
	transform="scale(0.001,-0.001)" />

	<path d="M484.3,96.3c0,0,117.6,0,175.7,114.5c0,0,59.6,114.6,59.6,343.8c0,0,0,230.7,-58.1,345.3c0,0,-59.6,114.5,-177.2,114.5c0,0,-116.1,0,-174.2,-114.5c0,0,-58,-114.6,-58,-345.3c0,0,0,-229.2,58,-343.8c0,0,58.1,-114.5,174.2,-114.5Zm0,-117.6c0,0,-186.4,0,-285.7,146.6c0,0,-99.3,148.2,-99.3,429.3c0,0,0,282.6,99.3,430.8c0,0,99.3,148.2,285.7,148.2c0,0,187.9,0,285.7,-148.2c0,0,99.3,-148.2,99.3,-430.8c0,0,0,-281.1,-97.8,-427.8c0,0,-99.3,-148.1,-287.2,-148.1Z" 
	id="f1_1j"
	transform="scale(0.001,-0.001)" />

	<path d="M411,-21.3c0,0,-70.3,0,-143.6,10.7c0,0,-73.4,12.1,-149.8,36.6l0,151.2c0,0,67.3,-36.6,137.5,-55c0,0,71.8,-18.3,152.8,-18.3c0,0,128.4,0,203.2,67.2c0,0,76.4,68.8,76.4,184.9c0,0,0,117.6,-74.9,184.8c0,0,-76.3,67.3,-204.7,67.3c0,0,-61.1,0,-120.7,-12.3c0,0,-61.1,-13.7,-123.7,-42.7l0,560.7l592.8,0l0,-128.4l-453.8,0l0,-271.9c0,0,32.1,10.7,64.2,15.3c0,0,33.6,6.1,67.2,6.1c0,0,186.4,0,294.9,-100.9c0,0,108.4,-102.3,108.4,-278c0,0,0,-178.8,-111.5,-278.1c0,0,-111.5,-99.2,-314.7,-99.2Z" 
	id="f1_14"
	transform="scale(0.001,-0.001)" />

	<path d="M484.3,96.3c0,0,108.5,0,169.6,58c0,0,62.6,58.1,62.6,158.9c0,0,0,99.3,-61.1,157.4c0,0,-62.6,58,-171.1,58c0,0,-106.9,0,-168,-58c0,0,-62.7,-58.1,-62.7,-157.4c0,0,0,-100.8,61.1,-158.9c0,0,62.7,-58,169.6,-58Zm0,550c0,0,97.8,0,152.8,48.8c0,0,55,48.9,55,134.5c0,0,0,87.1,-55,136c0,0,-55,48.8,-152.8,48.8c0,0,-97.8,0,-151.2,-48.8c0,0,-53.5,-48.9,-53.5,-136c0,0,0,-85.6,53.5,-134.5c0,0,53.4,-48.8,151.2,-48.8Zm0,-667.6c0,0,-183.3,0,-282.6,85.5c0,0,-99.3,87.1,-99.3,249c0,0,0,105.4,61.1,178.7c0,0,61.1,74.9,171.1,100.9c0,0,-97.8,22.9,-151.3,88.6c0,0,-55,67.2,-55,163.5c0,0,0,132.9,94.8,210.8c0,0,96.2,77.9,261.2,77.9c0,0,166.5,0,261.3,-77.9c0,0,94.7,-77.9,94.7,-210.8c0,0,0,-96.3,-53.5,-162c0,0,-55,-67.2,-151.2,-90.1c0,0,110,-26,169.5,-99.3c0,0,61.2,-74.9,61.2,-180.3c0,0,0,-161.9,-97.8,-247.5c0,0,-99.3,-87,-284.2,-87Z" 
	id="f1_1m"
	transform="scale(0.001,-0.001)" />

	<path d="M279.6,0L660,985.4l-534.7,0l0,128.4l715,0l0,-64.2L436.9,0Z" 
	id="f1_22"
	transform="scale(0.001,-0.001)" />

	<path d="M117.6,-177.1L178.8,61.1l0,128.3l157.3,0l0,-128.3L213.9,-177.1Z" 
	id="f1_j"
	transform="scale(0.001,-0.001)" />

	<path d="M165,0l0,728.8l-131.4,0l0,105.4l131.4,0l0,58c0,0,0,140.6,64.2,203.2c0,0,65.7,64.2,207.7,64.2l129.9,0l0,-113.1l-131.4,0c0,0,-74.8,0,-102.3,-30.5c0,0,-29.1,-30.6,-29.1,-107l0,-74.8l226.1,0l0,-105.4l-226.1,0L304,0Z" 
	id="f1_e"
	transform="scale(0.001,-0.001)" />

	<path d="M146,699l0,414l127,0l0,-414Zm281,0l0,414l127,0l0,-414Z" 
	id="f1_23"
	transform="scale(0.001,-0.001)" />

	<path d="M540.8,123.8c0,0,122.3,0,180.3,48.8c0,0,59.6,50.5,59.6,154.3c0,0,0,105.5,-58.1,154.4c0,0,-59.5,50.4,-181.8,50.4l-241.4,0l0,-407.9ZM522.5,653.9c0,0,111.5,0,165,41.2c0,0,53.5,41.3,53.5,126.8c0,0,0,84.1,-53.5,125.3c0,0,-53.5,41.3,-165,41.3l-223.1,0l0,-334.6ZM149.7,0l0,1113.8l385,0c0,0,171.1,0,264.3,-71.9c0,0,93.2,-71.8,93.2,-204.7c0,0,0,-102.3,-47.3,-161.9c0,0,-47.4,-61.1,-140.6,-74.9c0,0,111.5,-24.4,172.6,-99.3c0,0,62.7,-76.4,62.7,-189.4c0,0,0,-149.8,-100.8,-230.7C838.8,81,736.4,0,548.5,0Z" 
	id="f1_27"
	transform="scale(0.001,-0.001)" />

	<path d="M436.9,0L10.7,1113.8l157.4,0L521,175.7l354.4,938.1l155.9,0L606.5,0Z" 
	id="f1_1y"
	transform="scale(0.001,-0.001)" />

	<path d="M508.8,93.2c0,0,110,0,171.1,85.6c0,0,62.6,85.5,62.6,236.8c0,0,0,152.7,-61.1,238.3c0,0,-62.6,85.5,-172.6,85.5c0,0,-108.5,0,-169.6,-85.5c0,0,-62.7,-85.6,-62.7,-238.3c0,0,0,-151.3,61.1,-236.8c0,0,62.7,-85.6,171.2,-85.6ZM542.4,-21.3c0,0,-91.7,0,-157.4,35.1c0,0,-65.7,36.6,-108.5,111.5L276.5,0l-139,0l0,1159.6l139,0l0,-452.2c0,0,42.8,74.8,108.5,111.5c0,0,65.7,36.7,157.4,36.7c0,0,152.7,0,247.5,-120.7c0,0,96.2,-122.3,96.2,-319.3c0,0,0,-195.6,-94.7,-316.3c0,0,-96.3,-120.6,-249,-120.6Z" 
	id="f1_m"
	transform="scale(0.001,-0.001)" />

	<path d="M488.9,571.4c0,0,105.4,0,161.9,53.5c0,0,58.1,55,58.1,155.8c0,0,0,99.3,-56.5,152.8c0,0,-58.1,55,-163.5,55l-189.5,0l0,-417.1ZM149.7,0l0,1113.8l339.2,0c0,0,187.9,0,282.6,-84.1c0,0,96.3,-85.5,96.3,-249c0,0,0,-165,-94.7,-249c0,0,-96.3,-85.6,-284.2,-85.6l-189.5,0L299.4,0Z" 
	id="f1_s"
	transform="scale(0.001,-0.001)" />


</defs>
</svg>