<?xml version="1.0" encoding="UTF-8" standalone="no"?>
<!DOCTYPE svg PUBLIC "-//W3C//DTD SVG 1.1//EN"
"http://www.w3.org/Graphics/SVG/1.1/DTD/svg11.dtd">
<svg viewBox="0 0 1210 1210" version="1.1" xmlns="http://www.w3.org/2000/svg" xmlns:xlink="http://www.w3.org/1999/xlink">
<defs>
<style type="text/css"><![CDATA[
.g4_8{
fill: none;
stroke: #418AB3;
stroke-width: 1;
stroke-linecap: butt;
stroke-linejoin: round;
}
.g2_8{
fill: #838383;
}
.g3_8{
fill: none;
stroke: #606060;
stroke-width: 2;
stroke-linecap: butt;
stroke-linejoin: miter;
stroke-miterlimit: 7;
}
.g1_8{
fill: #FFFFFF;
}
]]></style>
</defs>
<path fill-rule="evenodd" d="M0,0L1210,0l0,1210L0,1210L0,0Z" class="g1_8" />
<path fill-rule="evenodd" d="M0,0L1210,0l0,1210L0,1210L0,0Z" class="g1_8" />
<path fill-rule="evenodd" d="M498.8,183.9l0,-0.9l0.2,-0.7l0,-1l0.1,-0.7l0.3,-0.8l0.2,-0.7l0.3,-1l0.3,-0.7l0.3,-0.8l0.5,-0.8l0.4,-0.6l0.5,-0.7l0.4,-0.6l0.6,-0.6l0.7,-0.7l0.6,-0.6l0.6,-0.6l0.6,-0.4l0.8,-0.5l0.6,-0.5l0.7,-0.4l0.8,-0.3l0.8,-0.3l0.9,-0.3l0.7,-0.2l0.8,-0.3l0.8,-0.1l0.9,0l0.7,-0.2l1,0l180.1,0l0.9,0l0.8,0.2l0.9,0l0.7,0.1l1,0.3l0.7,0.2l0.8,0.3l0.8,0.3l0.7,0.4l0.8,0.3l0.6,0.5l0.8,0.5l0.6,0.6l0.6,0.4l0.6,0.6l0.6,0.7l0.6,0.6l0.5,0.6l0.4,0.7l0.5,0.6l0.4,0.8l0.4,0.8l0.3,0.7l0.3,1l0.1,0.7l0.3,0.8l0.2,0.7l0,1L711,183l0,0.9l0,42.2l0,0.9l0,0.8l-0.1,0.9l-0.2,0.8l-0.1,0.7l-0.3,1l-0.3,0.7l-0.3,0.8l-0.4,0.7l-0.4,0.8l-0.5,0.6l-0.4,0.8l-0.5,0.6l-0.6,0.6l-0.5,0.6l-0.6,0.6l-0.7,0.6l-0.6,0.5l-0.7,0.5l-0.7,0.4l-0.8,0.5l-0.7,0.3l-0.8,0.3l-0.8,0.3l-0.7,0.1l-1,0.3l-0.7,0l-0.9,0.2l-0.8,0.2l-0.9,0l-180.1,0l-1,0l-0.7,0L512.3,242l-0.8,-0.2l-0.8,-0.1L510,241.4l-0.9,-0.3l-0.8,-0.3l-0.8,-0.3L506.8,240l-0.6,-0.4l-0.8,-0.5l-0.6,-0.5L504.2,238l-0.6,-0.4L502.9,237l-0.6,-0.8l-0.4,-0.6L501.4,235L501,234.2l-0.5,-0.8l-0.3,-0.7l-0.3,-0.8l-0.3,-0.7l-0.2,-1l-0.3,-0.7L499,228.7l0,-0.9L498.8,227l0,-0.9l0,-42.2Z" class="g2_8" />
<path d="M498.8,183.9l0,-0.9l0.2,-0.7l0,-1l0.1,-0.7l0.3,-0.8l0.2,-0.7l0.3,-1l0.3,-0.7l0.3,-0.8l0.5,-0.8l0.4,-0.6l0.5,-0.7l0.4,-0.6l0.6,-0.6l0.7,-0.7l0.6,-0.6l0.6,-0.6l0.6,-0.4l0.8,-0.5l0.6,-0.5l0.7,-0.4l0.8,-0.3l0.8,-0.3l0.9,-0.3l0.7,-0.2l0.8,-0.3l0.8,-0.1l0.9,0l0.7,-0.2l1,0l180.1,0l0.9,0l0.8,0.2l0.9,0l0.7,0.1l1,0.3l0.7,0.2l0.8,0.3l0.8,0.3l0.7,0.4l0.8,0.3l0.6,0.5l0.8,0.5l0.6,0.6l0.6,0.4l0.6,0.6l0.6,0.7l0.6,0.6l0.5,0.6l0.4,0.7l0.5,0.6l0.4,0.8l0.4,0.8l0.3,0.7l0.3,1l0.1,0.7l0.3,0.8l0.2,0.7l0,1L711,183l0,0.9l0,42.2l0,0.9l0,0.8l-0.1,0.9l-0.2,0.8l-0.1,0.7l-0.3,1l-0.3,0.7l-0.3,0.8l-0.4,0.7l-0.4,0.8l-0.5,0.6l-0.4,0.8l-0.5,0.6l-0.6,0.6l-0.5,0.6l-0.6,0.6l-0.7,0.6l-0.6,0.5l-0.7,0.5l-0.7,0.4l-0.8,0.5l-0.7,0.3l-0.8,0.3l-0.8,0.3l-0.7,0.1l-1,0.3l-0.7,0l-0.9,0.2l-0.8,0.2l-0.9,0l-180.1,0l-1,0l-0.7,0L512.3,242l-0.8,-0.2l-0.8,-0.1L510,241.4l-0.9,-0.3l-0.8,-0.3l-0.8,-0.3L506.8,240l-0.6,-0.4l-0.8,-0.5l-0.6,-0.5L504.2,238l-0.6,-0.4L502.9,237l-0.6,-0.8l-0.4,-0.6L501.4,235L501,234.2l-0.5,-0.8l-0.3,-0.7l-0.3,-0.8l-0.3,-0.7l-0.2,-1l-0.3,-0.7L499,228.7l0,-0.9L498.8,227l0,-0.9l0,-42.2Z" class="g3_8" />
<path d="M268.5,275.5l673,0l0,87l-673,0l0,-87Z" class="g4_8" />
</svg>