<?xml version="1.0" encoding="UTF-8" standalone="no"?>
<!DOCTYPE svg PUBLIC "-//W3C//DTD SVG 1.1//EN"
"http://www.w3.org/Graphics/SVG/1.1/DTD/svg11.dtd">
<svg viewBox="0 0 1155 1210" version="1.1" xmlns="http://www.w3.org/2000/svg" xmlns:xlink="http://www.w3.org/1999/xlink">
<defs>
<clipPath id="c0_20"><path d="M0.5,1210.5L0.5,0.5l1155,0l0,1210Z" /></clipPath>
<style type="text/css"><![CDATA[
.g1_20{
fill: #FFFFFF;
}
]]></style>
</defs>
<path fill-rule="evenodd" d="M0,0L1155,0l0,1210L0,1210L0,0Z" class="g1_20" />
<path fill-rule="evenodd" d="M0,0L1155,0l0,1210L0,1210L0,0Z" class="g1_20" />
<image x="790" y="1140" width="319" height="55" xlink:href="img/1.png" />
<g clip-path="url(#c0_20)">
<g fill="#626262" >
<use xlink:href="#f0_q" transform="matrix(12,0,0,12,47.7,32.1)" />
<use xlink:href="#f1_u" transform="matrix(12,0,0,12,73.9,33.2)" />
<use xlink:href="#f1_4" transform="matrix(12,0,0,12,79.3,33.2)" />
<use xlink:href="#f1_c" transform="matrix(12,0,0,12,96.7,33.2)" />
<use xlink:href="#f1_f" transform="matrix(12,0,0,12,103.7,33.2)" />
<use xlink:href="#f1_b" transform="matrix(12,0,0,12,115.3,33.2)" />
<use xlink:href="#f1_9" transform="matrix(12,0,0,12,132.6,33.2)" />
<use xlink:href="#f1_l" transform="matrix(12,0,0,12,144,33.2)" />
<use xlink:href="#f1_b" transform="matrix(12,0,0,12,151.2,33.2)" />
<use xlink:href="#f1_q" transform="matrix(12,0,0,12,162.6,33.2)" />
<use xlink:href="#f1_d" transform="matrix(12,0,0,12,173.5,33.2)" />
<use xlink:href="#f1_7" transform="matrix(12,0,0,12,178.5,33.2)" />
<use xlink:href="#f1_i" transform="matrix(12,0,0,12,189.7,33.2)" />
<use xlink:href="#f1_g" transform="matrix(12,0,0,12,201.3,33.2)" />
<use xlink:href="#f1_b" transform="matrix(12,0,0,12,216.7,33.2)" />
<use xlink:href="#f1_v" transform="matrix(12,0,0,12,227.7,33.2)" />
<use xlink:href="#f1_k" transform="matrix(12,0,0,12,238.5,33.2)" />
<use xlink:href="#f1_8" transform="matrix(12,0,0,12,249.8,33.2)" />
<use xlink:href="#f1_9" transform="matrix(12,0,0,12,267.5,33.2)" />
<use xlink:href="#f1_a" transform="matrix(12,0,0,12,279.1,33.2)" />
<use xlink:href="#f1_b" transform="matrix(12,0,0,12,284.3,33.2)" />
<use xlink:href="#f1_12" transform="matrix(12,0,0,12,301.4,33.2)" />
<use xlink:href="#f1_b" transform="matrix(12,0,0,12,316.5,33.2)" />
<use xlink:href="#f1_f" transform="matrix(12,0,0,12,333.8,33.2)" />
<use xlink:href="#f1_k" transform="matrix(12,0,0,12,345.2,33.2)" />
<use xlink:href="#f1_q" transform="matrix(12,0,0,12,356.5,33.2)" />
<use xlink:href="#f1_b" transform="matrix(12,0,0,12,367.4,33.2)" />
<use xlink:href="#f1_e" transform="matrix(12,0,0,12,384.6,33.2)" />
<use xlink:href="#f1_b" transform="matrix(12,0,0,12,391,33.2)" />
<use xlink:href="#f1_c" transform="matrix(12,0,0,12,402.3,33.2)" />
<use xlink:href="#f1_6" transform="matrix(12,0,0,12,409.5,33.2)" />
<use xlink:href="#f1_f" transform="matrix(12,0,0,12,419.9,33.2)" />
<use xlink:href="#f1_b" transform="matrix(12,0,0,12,431.3,33.2)" />
<use xlink:href="#f1_h" transform="matrix(12,0,0,12,442.8,33.2)" />
<use xlink:href="#f1_c" transform="matrix(12,0,0,12,460.3,33.2)" />
<use xlink:href="#f1_f" transform="matrix(12,0,0,12,467.3,33.2)" />
<use xlink:href="#f1_b" transform="matrix(12,0,0,12,478.9,33.2)" />
<use xlink:href="#f1_h" transform="matrix(12,0,0,12,496.2,33.2)" />
<use xlink:href="#f1_b" transform="matrix(12,0,0,12,507.9,33.2)" />
<use xlink:href="#f1_c" transform="matrix(12,0,0,12,519.2,33.2)" />
<use xlink:href="#f1_k" transform="matrix(12,0,0,12,526.4,33.2)" />
<use xlink:href="#f1_d" transform="matrix(12,0,0,12,537.7,33.2)" />
<use xlink:href="#f1_a" transform="matrix(12,0,0,12,542.9,33.2)" />
<use xlink:href="#f1_g" transform="matrix(12,0,0,12,548,33.2)" />
<use xlink:href="#f1_7" transform="matrix(12,0,0,12,563.3,33.2)" />
<use xlink:href="#f1_e" transform="matrix(12,0,0,12,574.6,33.2)" />
<use xlink:href="#f1_k" transform="matrix(12,0,0,12,586.9,33.2)" />
<use xlink:href="#f1_a" transform="matrix(12,0,0,12,598.1,33.2)" />
<use xlink:href="#f1_a" transform="matrix(12,0,0,12,603.3,33.2)" />
<use xlink:href="#f1_c" transform="matrix(12,0,0,12,614.3,33.2)" />
<use xlink:href="#f1_f" transform="matrix(12,0,0,12,621.5,33.2)" />
<use xlink:href="#f1_b" transform="matrix(12,0,0,12,632.9,33.2)" />
<use xlink:href="#f1_g" transform="matrix(12,0,0,12,650.2,33.2)" />
<use xlink:href="#f1_i" transform="matrix(12,0,0,12,659.7,33.2)" />
<use xlink:href="#f1_9" transform="matrix(12,0,0,12,671.3,33.2)" />
<use xlink:href="#f1_9" transform="matrix(12,0,0,12,682.9,33.2)" />
<use xlink:href="#f1_a" transform="matrix(12,0,0,12,694.3,33.2)" />
<use xlink:href="#f1_d" transform="matrix(12,0,0,12,699.5,33.2)" />
<use xlink:href="#f1_b" transform="matrix(12,0,0,12,704.6,33.2)" />
<use xlink:href="#f1_l" transform="matrix(12,0,0,12,716,33.2)" />
<use xlink:href="#f1_g" transform="matrix(12,0,0,12,723.6,33.2)" />
<use xlink:href="#f1_e" transform="matrix(12,0,0,12,739,33.2)" />
<use xlink:href="#f1_l" transform="matrix(12,0,0,12,745.5,33.2)" />
<use xlink:href="#f1_7" transform="matrix(12,0,0,12,752.6,33.2)" />
<use xlink:href="#f1_8" transform="matrix(12,0,0,12,763.8,33.2)" />
<use xlink:href="#f1_z" transform="matrix(12,0,0,12,787.5,33.2)" />
<use xlink:href="#f1_i" transform="matrix(12,0,0,12,799.2,33.2)" />
<use xlink:href="#f1_9" transform="matrix(12,0,0,12,810.7,33.2)" />
<use xlink:href="#f1_9" transform="matrix(12,0,0,12,822.3,33.2)" />
<use xlink:href="#f1_a" transform="matrix(12,0,0,12,833.9,33.2)" />
<use xlink:href="#f1_d" transform="matrix(12,0,0,12,838.9,33.2)" />
<use xlink:href="#f1_b" transform="matrix(12,0,0,12,844.1,33.2)" />
<use xlink:href="#f1_l" transform="matrix(12,0,0,12,855.4,33.2)" />
<use xlink:href="#f1_c" transform="matrix(12,0,0,12,869,33.2)" />
<use xlink:href="#f1_k" transform="matrix(12,0,0,12,876.1,33.2)" />
<use xlink:href="#f1_m" transform="matrix(12,0,0,12,887.4,33.2)" />
<use xlink:href="#f1_a" transform="matrix(12,0,0,12,899,33.2)" />
<use xlink:href="#f1_b" transform="matrix(12,0,0,12,904.1,33.2)" />
<use xlink:href="#f1_1c" transform="matrix(12,0,0,12,915.5,33.2)" />
<use xlink:href="#f0_q" transform="matrix(12,0,0,12,47.7,91.1)" />
<use xlink:href="#f1_z" transform="matrix(12,0,0,12,73.9,92.3)" />
<use xlink:href="#f1_i" transform="matrix(12,0,0,12,85.7,92.3)" />
<use xlink:href="#f1_9" transform="matrix(12,0,0,12,97.2,92.3)" />
<use xlink:href="#f1_9" transform="matrix(12,0,0,12,108.8,92.3)" />
<use xlink:href="#f1_7" transform="matrix(12,0,0,12,120.2,92.3)" />
<use xlink:href="#f1_g" transform="matrix(12,0,0,12,131.5,92.3)" />
<use xlink:href="#f1_b" transform="matrix(12,0,0,12,141,92.3)" />
<use xlink:href="#f1_j" transform="matrix(12,0,0,12,152.4,92.3)" />
<use xlink:href="#f1_12" transform="matrix(12,0,0,12,164.1,92.3)" />
<use xlink:href="#f1_b" transform="matrix(12,0,0,12,179.2,92.3)" />
<use xlink:href="#f1_12" transform="matrix(12,0,0,12,196.4,92.3)" />
<use xlink:href="#f1_k" transform="matrix(12,0,0,12,211.4,92.3)" />
<use xlink:href="#f1_4" transform="matrix(12,0,0,12,222.7,92.3)" />
<use xlink:href="#f1_c" transform="matrix(12,0,0,12,234.3,92.3)" />
<use xlink:href="#f1_c" transform="matrix(12,0,0,12,247.3,92.3)" />
<use xlink:href="#f1_7" transform="matrix(12,0,0,12,254.5,92.3)" />
<use xlink:href="#f1_e" transform="matrix(12,0,0,12,271.5,92.3)" />
<use xlink:href="#f1_b" transform="matrix(12,0,0,12,278,92.3)" />
<use xlink:href="#f1_c" transform="matrix(12,0,0,12,289.3,92.3)" />
<use xlink:href="#f1_6" transform="matrix(12,0,0,12,296.4,92.3)" />
<use xlink:href="#f1_f" transform="matrix(12,0,0,12,306.6,92.3)" />
<use xlink:href="#f1_c" transform="matrix(12,0,0,12,324,92.3)" />
<use xlink:href="#f1_f" transform="matrix(12,0,0,12,331.2,92.3)" />
<use xlink:href="#f1_b" transform="matrix(12,0,0,12,342.7,92.3)" />
<use xlink:href="#f1_h" transform="matrix(12,0,0,12,359.9,92.3)" />
<use xlink:href="#f1_b" transform="matrix(12,0,0,12,371.7,92.3)" />
<use xlink:href="#f1_c" transform="matrix(12,0,0,12,383,92.3)" />
<use xlink:href="#f1_k" transform="matrix(12,0,0,12,390.2,92.3)" />
<use xlink:href="#f1_d" transform="matrix(12,0,0,12,401.5,92.3)" />
<use xlink:href="#f1_a" transform="matrix(12,0,0,12,406.6,92.3)" />
<use xlink:href="#f1_g" transform="matrix(12,0,0,12,411.8,92.3)" />
<use xlink:href="#f1_7" transform="matrix(12,0,0,12,427.2,92.3)" />
<use xlink:href="#f1_e" transform="matrix(12,0,0,12,438.4,92.3)" />
<use xlink:href="#f1_k" transform="matrix(12,0,0,12,450.6,92.3)" />
<use xlink:href="#f1_9" transform="matrix(12,0,0,12,467.8,92.3)" />
<use xlink:href="#f1_k" transform="matrix(12,0,0,12,479.3,92.3)" />
<use xlink:href="#f1_l" transform="matrix(12,0,0,12,490.7,92.3)" />
<use xlink:href="#f1_c" transform="matrix(12,0,0,12,498.4,92.3)" />
<use xlink:href="#f1_d" transform="matrix(12,0,0,12,505.5,92.3)" />
<use xlink:href="#f1_6" transform="matrix(12,0,0,12,510.7,92.3)" />
<use xlink:href="#f1_i" transform="matrix(12,0,0,12,520.9,92.3)" />
<use xlink:href="#f1_a" transform="matrix(12,0,0,12,532.4,92.3)" />
<use xlink:href="#f1_k" transform="matrix(12,0,0,12,537.6,92.3)" />
<use xlink:href="#f1_l" transform="matrix(12,0,0,12,548.9,92.3)" />
<use xlink:href="#f1_g" transform="matrix(12,0,0,12,562.4,92.3)" />
<use xlink:href="#f1_i" transform="matrix(12,0,0,12,572,92.3)" />
<use xlink:href="#f1_9" transform="matrix(12,0,0,12,583.5,92.3)" />
<use xlink:href="#f1_9" transform="matrix(12,0,0,12,595.1,92.3)" />
<use xlink:href="#f1_a" transform="matrix(12,0,0,12,606.7,92.3)" />
<use xlink:href="#f1_d" transform="matrix(12,0,0,12,611.8,92.3)" />
<use xlink:href="#f1_b" transform="matrix(12,0,0,12,616.9,92.3)" />
<use xlink:href="#f1_l" transform="matrix(12,0,0,12,628.2,92.3)" />
<use xlink:href="#f1_1i" transform="matrix(12,0,0,12,641.8,92.3)" />
<use xlink:href="#f1_g" transform="matrix(12,0,0,12,649,92.3)" />
<use xlink:href="#f1_k" transform="matrix(12,0,0,12,658.4,92.3)" />
<use xlink:href="#f1_r" transform="matrix(12,0,0,12,669.7,92.3)" />
<use xlink:href="#f1_g" transform="matrix(12,0,0,12,686.5,92.3)" />
<use xlink:href="#f1_i" transform="matrix(12,0,0,12,696,92.3)" />
<use xlink:href="#f1_9" transform="matrix(12,0,0,12,707.6,92.3)" />
<use xlink:href="#f1_9" transform="matrix(12,0,0,12,719.1,92.3)" />
<use xlink:href="#f1_a" transform="matrix(12,0,0,12,730.7,92.3)" />
<use xlink:href="#f1_d" transform="matrix(12,0,0,12,735.7,92.3)" />
<use xlink:href="#f1_b" transform="matrix(12,0,0,12,740.9,92.3)" />
<use xlink:href="#f1_l" transform="matrix(12,0,0,12,752.2,92.3)" />
<use xlink:href="#f1_d" transform="matrix(12,0,0,12,759.9,92.3)" />
<use xlink:href="#f1_h" transform="matrix(12,0,0,12,765,92.3)" />
<use xlink:href="#f1_1v" transform="matrix(12,0,0,12,782.7,92.3)" />
<use xlink:href="#f1_24" transform="matrix(12,0,0,12,804.1,92.3)" />
<use xlink:href="#f1_z" transform="matrix(12,0,0,12,809.2,92.3)" />
<use xlink:href="#f1_2" transform="matrix(12,0,0,12,821,92.3)" />
<use xlink:href="#f1_1j" transform="matrix(12,0,0,12,832.4,92.3)" />
<use xlink:href="#f1_1j" transform="matrix(12,0,0,12,844.2,92.3)" />
<use xlink:href="#f1_2" transform="matrix(12,0,0,12,855.9,92.3)" />
<use xlink:href="#f1_24" transform="matrix(12,0,0,12,867.4,92.3)" />
<use xlink:href="#f1_o" transform="matrix(12,0,0,12,872.6,92.3)" />
<use xlink:href="#f1_1c" transform="matrix(12,0,0,12,879.7,92.3)" />
<use xlink:href="#f0_q" transform="matrix(12,0,0,12,47.7,150.2)" />
<use xlink:href="#f1_18" transform="matrix(12,0,0,12,73.9,151.3)" />
<use xlink:href="#f1_7" transform="matrix(12,0,0,12,87.7,151.3)" />
<use xlink:href="#f1_12" transform="matrix(12,0,0,12,98.8,151.3)" />
<use xlink:href="#f1_h" transform="matrix(12,0,0,12,119.8,151.3)" />
<use xlink:href="#f1_7" transform="matrix(12,0,0,12,131.5,151.3)" />
<use xlink:href="#f1_12" transform="matrix(12,0,0,12,148.5,151.3)" />
<use xlink:href="#f1_b" transform="matrix(12,0,0,12,163.6,151.3)" />
<use xlink:href="#f1_d" transform="matrix(12,0,0,12,180.7,151.3)" />
<use xlink:href="#f1_8" transform="matrix(12,0,0,12,185.9,151.3)" />
<use xlink:href="#f1_9" transform="matrix(12,0,0,12,203.6,151.3)" />
<use xlink:href="#f1_a" transform="matrix(12,0,0,12,215.2,151.3)" />
<use xlink:href="#f1_b" transform="matrix(12,0,0,12,220.4,151.3)" />
<use xlink:href="#f1_8" transform="matrix(12,0,0,12,231.6,151.3)" />
<use xlink:href="#f1_b" transform="matrix(12,0,0,12,249.5,151.3)" />
<use xlink:href="#f1_4" transform="matrix(12,0,0,12,260.8,151.3)" />
<use xlink:href="#f1_c" transform="matrix(12,0,0,12,272.4,151.3)" />
<use xlink:href="#f1_c" transform="matrix(12,0,0,12,285.4,151.3)" />
<use xlink:href="#f1_f" transform="matrix(12,0,0,12,292.4,151.3)" />
<use xlink:href="#f1_d" transform="matrix(12,0,0,12,304,151.3)" />
<use xlink:href="#f1_g" transform="matrix(12,0,0,12,309.2,151.3)" />
<use xlink:href="#f1_1f" transform="matrix(12,0,0,12,318.6,151.3)" />
</g>
</g>
<image x="105" y="164" width="914" height="481" xlink:href="img/2.png" />
<defs>
	<path d="M264.3,297.9c0,0,-42.8,0,-79.4,16.8c0,0,-36.7,16.8,-64.2,44.3c0,0,-29,29.1,-44.3,67.3c0,0,-16.8,38.1,-16.8,82.5c0,0,0,41.2,15.3,77.9c0,0,16.8,38.2,44.3,65.7c0,0,29,27.5,65.7,42.7c0,0,36.6,16.8,79.4,16.8c0,0,42.8,0,81,-15.2c0,0,38.2,-16.8,65.7,-44.3c0,0,29,-27.5,45.8,-64.2c0,0,16.8,-38.2,16.8,-79.4c0,0,0,-44.4,-16.8,-82.5c0,0,-16.8,-38.2,-44.3,-65.7c0,0,-29,-29.1,-67.2,-45.9c0,0,-38.2,-16.8,-81,-16.8Z" 
	id="f0_q"
	transform="scale(0.001,-0.001)" />

	<path d="M149,0l0,1113l150,0L299,0Z" 
	id="f1_u"
	transform="scale(0.001,-0.001)" />

	<path d="M137.5,0l0,834.2l139,0l0,-129.9c0,0,48.9,76.4,114.6,113.1c0,0,67.2,38.2,154.3,38.2c0,0,145.2,0,218.5,-88.7c0,0,73.3,-90.1,73.3,-262.7L837.2,0L699.7,0l0,499.6c0,0,0,117.6,-45.8,175.7c0,0,-45.8,59.6,-139,59.6c0,0,-110,0,-174.2,-70.3c0,0,-64.2,-70.3,-64.2,-192.5L276.5,0Z" 
	id="f1_4"
	transform="scale(0.001,-0.001)" />

	<path d="M420.1,0c0,0,-158.8,0,-218.4,58.1c0,0,-61.1,59.5,-61.1,216.9l0,453.8l-100.9,0l0,105.4l100.9,0l0,238.3l139,0l0,-238.3l282.6,0l0,-105.4l-282.6,0l0,-453.8c0,0,0,-102.4,27.5,-131.4c0,0,27.5,-29,113,-29l142.1,0L562.2,0Z" 
	id="f1_c"
	transform="scale(0.001,-0.001)" />

	<path d="M137.5,0l0,1159.6l139,0l0,-455.3c0,0,48.9,76.4,114.6,113.1c0,0,67.2,38.2,154.3,38.2c0,0,145.2,0,218.5,-88.7c0,0,73.3,-90.1,73.3,-262.7L837.2,0L699.7,0l0,499.6c0,0,0,117.6,-45.8,175.7c0,0,-45.8,59.6,-139,59.6c0,0,-110,0,-174.2,-70.3c0,0,-64.2,-70.3,-64.2,-192.5L276.5,0Z" 
	id="f1_f"
	transform="scale(0.001,-0.001)" />

	<path d="M230.7,490.4l490.4,1.5c0,0,-1.5,111.6,-62.6,178.8c0,0,-62.7,67.2,-163.5,67.2c0,0,-114.6,0,-183.3,-64.1c0,0,-70.3,-65.7,-81,-183.4ZM516.4,-21.3c0,0,-198.6,0,-314.7,116C201.7,94.7,84,210.8,84,409.4c0,0,0,204.8,110,325.5c0,0,111.6,120.7,299.5,120.7c0,0,168,0,265.8,-108.5c0,0,99.3,-110,99.3,-296.4l0,-67.2l-632.5,0c0,0,9.2,-140.6,85.6,-213.9c0,0,76.4,-74.9,213.9,-74.9c0,0,77.9,0,152.7,18.4c0,0,74.9,19.8,148.2,58l0,-129.8c0,0,-74.8,-30.6,-151.2,-45.8c0,0,-77.9,-16.8,-158.9,-16.8Z" 
	id="f1_b"
	transform="scale(0.001,-0.001)" />

	<path d="M508.8,93.2c0,0,110,0,171.1,85.6c0,0,62.6,85.5,62.6,236.8c0,0,0,152.7,-61.1,238.3c0,0,-62.6,85.5,-172.6,85.5c0,0,-108.5,0,-169.6,-85.5c0,0,-62.7,-85.6,-62.7,-238.3c0,0,0,-151.3,61.1,-236.8c0,0,62.7,-85.6,171.2,-85.6ZM137.5,-317.7l0,1151.9l139,0l0,-126.8c0,0,42.8,74.8,108.5,111.5c0,0,65.7,36.7,157.4,36.7c0,0,152.7,0,247.5,-120.7c0,0,96.2,-122.3,96.2,-319.3c0,0,0,-195.6,-94.7,-316.3c0,0,-96.3,-120.6,-249,-120.6c0,0,-91.7,0,-157.4,35.1c0,0,-65.7,36.6,-108.5,111.5l0,-443Z" 
	id="f1_9"
	transform="scale(0.001,-0.001)" />

	<path d="M137.5,0l0,834.2l139,0l0,-129.9c0,0,42.8,76.4,111.6,113.1c0,0,70.2,38.2,169.5,38.2c0,0,13.8,0,30.6,-1.6c0,0,16.8,-3,38.2,-6.1l1.5,-142.1c0,0,-24.4,13.8,-50.4,19.9c0,0,-27.5,6.1,-61.1,6.1c0,0,-116.1,0,-177.2,-74.9c0,0,-62.7,-76.3,-62.7,-216.9l0,-440Z" 
	id="f1_l"
	transform="scale(0.001,-0.001)" />

	<path d="M357.5,0L44.3,834.2l145.1,0L450.7,132.9L711.9,834.2l146.7,0L543.9,0Z" 
	id="f1_q"
	transform="scale(0.001,-0.001)" />

	<path d="M143,0l0,834l138,0L281,0Zm0,985l0,174l138,0l0,-174Z" 
	id="f1_d"
	transform="scale(0.001,-0.001)" />

	<path d="M467.5,94.7c0,0,108.5,0,172.6,85.6c0,0,64.2,87.1,64.2,235.3c0,0,0,149.7,-64.2,235.2c0,0,-64.1,87.1,-172.6,87.1c0,0,-111.5,0,-175.7,-85.5c0,0,-64.2,-85.6,-64.2,-236.8c0,0,0,-149.8,64.2,-235.3c0,0,64.2,-85.6,175.7,-85.6Zm0,-116c0,0,-180.3,0,-281.1,116C186.4,94.7,84,210.8,84,415.6c0,0,0,206.2,100.9,322.3c0,0,102.3,117.7,282.6,117.7c0,0,178.8,0,281.1,-116.2c0,0,102.4,-117.6,102.4,-323.8c0,0,0,-204.8,-102.4,-320.9c0,0,-102.3,-116,-281.1,-116Z" 
	id="f1_7"
	transform="scale(0.001,-0.001)" />

	<path d="M421.7,-21.3c0,0,-143.6,0,-218.5,88.5L128.3,328.5l0,505.7l137.5,0l0,-499.6c0,0,0,-119.2,45.9,-178.8c0,0,47.3,-59.5,139,-59.5c0,0,111.5,0,175.7,70.2c0,0,65.7,71.8,65.7,194.1l0,473.6l136,0L828.1,0l-136,0l0,126.8c0,0,-50.4,-74.9,-116.1,-111.5c0,0,-67.2,-36.6,-154.3,-36.6Z" 
	id="f1_i"
	transform="scale(0.001,-0.001)" />

	<path d="M375.8,-21.3c0,0,-67.2,0,-140.5,12.2c0,0,-73.4,12.2,-152.8,39.7l0,140.5c0,0,76.4,-39.7,149.7,-58c0,0,73.4,-19.9,146.7,-19.9c0,0,96.2,0,148.2,32.1c0,0,51.9,33.6,51.9,94.7c0,0,0,55,-36.6,84c0,0,-38.2,30.6,-165,58.1l-48.9,12.2c0,0,-126.8,26,-183.4,81c0,0,-56.5,56.5,-56.5,152.8c0,0,0,119.1,82.5,183.3c0,0,84,64.2,238.3,64.2c0,0,74.9,0,142.1,-10.7c0,0,67.3,-12.3,123.8,-35.2l0,-129.8c0,0,-58.1,30.5,-120.7,44.3c0,0,-62.7,15.2,-129.9,15.2c0,0,-102.3,0,-152.8,-30.5c0,0,-50.4,-32.1,-50.4,-94.7c0,0,0,-47.4,35.2,-74.9c0,0,36.6,-27.5,148.2,-51.9l45.8,-10.7c0,0,146.7,-30.6,207.8,-87.1c0,0,62.6,-58.1,62.6,-160.4c0,0,0,-116.1,-91.7,-183.4c0,0,-93.1,-67.1,-253.6,-67.1Z" 
	id="f1_g"
	transform="scale(0.001,-0.001)" />

	<path d="M42.8,0L368.2,436.9L70.3,834.2l161.9,0L453.8,537.8L675.3,834.2l161.9,0L536.3,427.8L854,0L692.1,0L447.6,326.9L204.7,0Z" 
	id="f1_v"
	transform="scale(0.001,-0.001)" />

	<path d="M407.9,93.2c0,0,113.1,0,181.8,79.4c0,0,70.3,81,70.3,215.5l0,30.5l-137.5,0c0,0,-166.5,0,-230.7,-36.7c0,0,-64.2,-38.1,-64.2,-129.8c0,0,0,-73.3,47.4,-116.1c0,0,48.9,-42.8,132.9,-42.8ZM371.3,-21.3c0,0,-128.4,0,-203.2,71.7c0,0,-76.4,71.8,-76.4,192.5c0,0,0,140.6,93.2,212.4c0,0,94.7,71.8,282.6,71.8l192.5,0l0,13.7c0,0,0,94.8,-62.6,145.2c0,0,-62.7,51.9,-175.7,51.9c0,0,-71.8,0,-139.1,-16.8c0,0,-67.2,-16.8,-129.8,-51.9l0,126.8c0,0,74.8,30.5,145.1,44.3c0,0,71.8,15.3,139,15.3c0,0,180.3,0,268.9,-93.2c0,0,90.2,-94.8,90.2,-285.7L796,0L660,0l0,126.8c0,0,-47.4,-76.4,-117.6,-111.5c0,0,-70.3,-36.6,-171.1,-36.6Z" 
	id="f1_k"
	transform="scale(0.001,-0.001)" />

	<path d="M137.5,0l0,834.2l139,0l0,-129.9c0,0,45.9,77.9,111.6,114.6c0,0,65.7,36.7,155.8,36.7c0,0,91.7,0,154.3,-45.9c0,0,64.2,-47.3,96.2,-135.9c0,0,50.5,93.1,122.3,137.5c0,0,71.8,44.3,168,44.3c0,0,131.4,0,201.7,-91.7c0,0,71.8,-91.7,71.8,-259.7L1358.2,0l-139,0l0,499.6c0,0,0,119.2,-41.3,177.2c0,0,-42.8,58.1,-129.8,58.1c0,0,-107,0,-168.1,-70.3c0,0,-62.6,-70.3,-62.6,-192.5L817.4,0L678.3,0l0,499.6c0,0,0,120.7,-41.2,177.2c0,0,-42.8,58.1,-131.4,58.1c0,0,-105.4,0,-166.5,-70.3c0,0,-62.7,-71.8,-62.7,-192.5L276.5,0Z" 
	id="f1_8"
	transform="scale(0.001,-0.001)" />

	<path d="M143,0l0,1159l138,0L281,0Z" 
	id="f1_a"
	transform="scale(0.001,-0.001)" />

	<path d="M282.6,0L62.6,834.2l137.5,0L372.8,183.3L542.4,834.2l161.9,0L876.9,183.3l171.2,650.9l135.9,0L965.6,0l-162,0L624.9,684.4L444.6,0Z" 
	id="f1_12"
	transform="scale(0.001,-0.001)" />

	<path d="M165,0l0,728.8l-131.4,0l0,105.4l131.4,0l0,58c0,0,0,140.6,64.2,203.2c0,0,65.7,64.2,207.7,64.2l129.9,0l0,-113.1l-131.4,0c0,0,-74.8,0,-102.3,-30.5c0,0,-29.1,-30.6,-29.1,-107l0,-74.8l226.1,0l0,-105.4l-226.1,0L304,0Z" 
	id="f1_e"
	transform="scale(0.001,-0.001)" />

	<path d="M495,-21.3c0,0,-189.4,0,-299.4,117.6C195.6,96.3,84,215.4,84,415.6c0,0,0,204.7,111.6,322.3c0,0,113,117.7,308.6,117.7c0,0,62.6,0,122.2,-13.8c0,0,61.1,-13.7,117.6,-39.7l0,-128.3c0,0,-58,32,-116.1,47.3c0,0,-58,16.8,-119.1,16.8c0,0,-133,0,-206.3,-84c0,0,-74.9,-84,-74.9,-238.3c0,0,0,-152.8,73.4,-236.8c0,0,74.8,-84.1,207.8,-84.1c0,0,61.1,0,119.1,15.3c0,0,58.1,16.8,116.1,48.9L744,30.6c0,0,-56.5,-26,-117.6,-38.1c0,0,-62.6,-13.8,-131.4,-13.8Z" 
	id="f1_6"
	transform="scale(0.001,-0.001)" />

	<path d="M458.3,93.2c0,0,110,0,172.7,85.6c0,0,62.6,85.5,62.6,236.8c0,0,0,152.7,-62.6,238.3c0,0,-62.7,85.5,-172.7,85.5c0,0,-108.4,0,-171.1,-85.5c0,0,-62.6,-85.6,-62.6,-238.3c0,0,0,-151.3,62.6,-236.8c0,0,62.7,-85.6,171.1,-85.6ZM424.7,-21.3c0,0,-151.2,0,-245.9,120.6C178.8,99.3,84,220,84,415.6c0,0,0,197,94.8,317.7c0,0,94.7,122.3,245.9,122.3c0,0,93.2,0,158.9,-36.7c0,0,65.7,-36.7,110,-111.5l0,452.2l136,0L829.6,0l-136,0l0,125.3c0,0,-44.3,-74.9,-110,-110c0,0,-65.7,-36.6,-158.9,-36.6Z" 
	id="f1_h"
	transform="scale(0.001,-0.001)" />

	<path d="M456.8,-21.3c0,0,-77.9,0,-166.5,16.8c0,0,-90.2,18.3,-186.4,53.4l0,154.3c0,0,91.7,-50.4,180.3,-76.4c0,0,88.6,-27.5,172.6,-27.5c0,0,129.9,0,200.1,50.4c0,0,70.3,52,70.3,145.2c0,0,0,82.5,-50.4,128.3c0,0,-50.4,47.4,-166.5,70.3l-91.7,16.8c0,0,-168,33.6,-242.9,105.4c0,0,-76.4,71.8,-76.4,200.1c0,0,0,146.7,103.9,232.3c0,0,105.4,85.5,287.2,85.5c0,0,79.5,0,160.4,-13.7c0,0,81,-15.3,166.6,-42.8l0,-148.2c0,0,-85.6,41.2,-162,61.1c0,0,-76.4,21.4,-146.6,21.4c0,0,-123.8,0,-189.5,-47.4c0,0,-67.2,-48.9,-67.2,-137.5c0,0,0,-73.3,44.3,-110c0,0,44.3,-38.2,168,-61.1l90.2,-19.8c0,0,169.6,-32.1,249,-111.6c0,0,81,-80.9,81,-216.9c0,0,0,-162,-108.5,-244.5c0,0,-108.5,-83.9,-319.3,-83.9Z" 
	id="f1_z"
	transform="scale(0.001,-0.001)" />

	<path d="M508.8,93.2c0,0,110,0,171.1,85.6c0,0,62.6,85.5,62.6,236.8c0,0,0,152.7,-61.1,238.3c0,0,-62.6,85.5,-172.6,85.5c0,0,-108.5,0,-169.6,-85.5c0,0,-62.7,-85.6,-62.7,-238.3c0,0,0,-151.3,61.1,-236.8c0,0,62.7,-85.6,171.2,-85.6ZM542.4,-21.3c0,0,-91.7,0,-157.4,35.1c0,0,-65.7,36.6,-108.5,111.5L276.5,0l-139,0l0,1159.6l139,0l0,-452.2c0,0,42.8,74.8,108.5,111.5c0,0,65.7,36.7,157.4,36.7c0,0,152.7,0,247.5,-120.7c0,0,96.2,-122.3,96.2,-319.3c0,0,0,-195.6,-94.7,-316.3c0,0,-96.3,-120.6,-249,-120.6Z" 
	id="f1_m"
	transform="scale(0.001,-0.001)" />

	<path d="M161,0l0,189l158,0L319,0Z" 
	id="f1_1c"
	transform="scale(0.001,-0.001)" />

	<path d="M117.6,-177.1L178.8,61.1l0,128.3l157.3,0l0,-128.3L213.9,-177.1Z" 
	id="f1_j"
	transform="scale(0.001,-0.001)" />

	<path d="M352.9,-200c0,0,-111.5,174.1,-166.5,342.1c0,0,-56.5,169.6,-56.5,336.1c0,0,0,166.5,55,334.6c0,0,56.5,169.6,168,345.3l120.7,0c0,0,-100.8,-171.2,-148.2,-339.2c0,0,-48.9,-168.1,-48.9,-340.7c0,0,0,-171.1,48.9,-339.2c0,0,48.9,-169.5,148.2,-339Z" 
	id="f1_1i"
	transform="scale(0.001,-0.001)" />

	<path d="M120.7,-317.7l0,116.1l79.4,0c0,0,56.6,0,87.1,26c0,0,32.1,27.5,70.3,126.8l24.4,61L44.3,834.2l145.1,0L450.7,181.8L711.9,834.2l146.7,0L490.4,-76.3c0,0,-58,-149.7,-113,-195.5c0,0,-55,-45.9,-148.2,-45.9Z" 
	id="f1_r"
	transform="scale(0.001,-0.001)" />

	<path d="M160,261l0,127l956,0l0,-127Zm0,307l0,125l956,0l0,-125Z" 
	id="f1_1v"
	transform="scale(0.001,-0.001)" />

	<path d="M146,699l0,414l127,0l0,-414Z" 
	id="f1_24"
	transform="scale(0.001,-0.001)" />

	<path d="M189.4,0l0,126.8l246,0l0,849.5L166.5,922.8l0,136l267.4,55l149.7,0l0,-987l246,0L829.6,0Z" 
	id="f1_2"
	transform="scale(0.001,-0.001)" />

	<path d="M484.3,96.3c0,0,117.6,0,175.7,114.5c0,0,59.6,114.6,59.6,343.8c0,0,0,230.7,-58.1,345.3c0,0,-59.6,114.5,-177.2,114.5c0,0,-116.1,0,-174.2,-114.5c0,0,-58,-114.6,-58,-345.3c0,0,0,-229.2,58,-343.8c0,0,58.1,-114.5,174.2,-114.5Zm0,-117.6c0,0,-186.4,0,-285.7,146.6c0,0,-99.3,148.2,-99.3,429.3c0,0,0,282.6,99.3,430.8c0,0,99.3,148.2,285.7,148.2c0,0,187.9,0,285.7,-148.2c0,0,99.3,-148.2,99.3,-430.8c0,0,0,-281.1,-97.8,-427.8c0,0,-99.3,-148.1,-287.2,-148.1Z" 
	id="f1_1j"
	transform="scale(0.001,-0.001)" />

	<path d="M122.2,-200c0,0,99.3,169.5,146.7,337.5c0,0,48.9,169.6,48.9,340.7c0,0,0,172.6,-47.4,340.7c0,0,-48.9,168,-148.2,339.2l119.2,0c0,0,111.5,-175.7,166.5,-343.8c0,0,56.5,-169.6,56.5,-336.1c0,0,0,-166.5,-55,-334.6c0,0,-56.5,-169.5,-168,-343.6Z" 
	id="f1_o"
	transform="scale(0.001,-0.001)" />

	<path d="M149,0l0,1113l150,0l0,-457l548,0l0,457l150,0L997,0L847,0l0,530l-548,0L299,0Z" 
	id="f1_18"
	transform="scale(0.001,-0.001)" />

	<path d="M290.3,0l0,189.4l152.8,0L443.1,0Zm4.6,297.9l0,114.6c0,0,0,76.4,21.4,123.8c0,0,21.3,48.8,88.6,113l67.2,67.2c0,0,41.2,39.8,59.6,74.9c0,0,19.8,35.1,19.8,70.3c0,0,0,67.2,-48.9,108.4c0,0,-48.8,41.3,-128.3,41.3c0,0,-59.6,0,-125.3,-26c0,0,-67.2,-27.5,-140.5,-76.4l0,140.6c0,0,70.3,41.2,142.1,62.6c0,0,71.8,21.4,149.7,21.4c0,0,137.5,0,220,-71.8c0,0,82.5,-73.3,82.5,-192.5c0,0,0,-56.5,-26,-106.9c0,0,-27.5,-52,-94.7,-116.1L516.4,582.1c0,0,-35.1,-35.2,-48.9,-53.5c0,0,-15.3,-19.8,-21.4,-39.7c0,0,-3,-15.3,-4.6,-36.7c0,0,-3,-22.9,-3,-62.6l0,-91.7Z" 
	id="f1_1f"
	transform="scale(0.001,-0.001)" />


</defs>
</svg>