<?xml version="1.0" encoding="UTF-8" standalone="no"?>
<!DOCTYPE svg PUBLIC "-//W3C//DTD SVG 1.1//EN"
"http://www.w3.org/Graphics/SVG/1.1/DTD/svg11.dtd">
<svg viewBox="0 0 1210 1210" version="1.1" xmlns="http://www.w3.org/2000/svg" xmlns:xlink="http://www.w3.org/1999/xlink">
<defs>
<style type="text/css"><![CDATA[
.g2_14{
fill: none;
stroke: #0000EE;
stroke-width: 2;
stroke-linecap: butt;
stroke-linejoin: miter;
}
.g3_14{
fill: none;
stroke: #418AB3;
stroke-width: 2;
stroke-linecap: butt;
stroke-linejoin: miter;
stroke-miterlimit: 7;
}
.g1_14{
fill: #FFFFFF;
}
]]></style>
</defs>
<path fill-rule="evenodd" d="M0,0L1210,0l0,1210L0,1210L0,0Z" class="g1_14" />
<path fill-rule="evenodd" d="M0,0L1210,0l0,1210L0,1210L0,0Z" class="g1_14" />
<path d="M397,117l56,0" class="g2_14" />
<path d="M453,117l380,0" class="g2_14" />
<path d="M548,161l41,0" class="g2_14" />
<path fill-rule="evenodd" d="M174.2,218.5l0,-0.9l0.1,-1l0.2,-0.7l0,-0.9l0.3,-1l0.1,-0.7l0.3,-0.9l0.5,-0.8l0.3,-0.8l0.5,-0.7l0.4,-0.8l0.5,-0.8l0.4,-0.6l0.6,-0.7l0.7,-0.6l0.6,-0.7l0.7,-0.6l0.6,-0.4l0.8,-0.5l0.8,-0.4l0.7,-0.5l0.8,-0.5l0.9,-0.3l0.8,-0.3l0.9,-0.3l0.8,-0.1l0.9,-0.2l0.7,-0.1l1,0l0.9,0l809.7,0l0.8,0l0.9,0l0.9,0.1l0.9,0.2l0.8,0.1l0.9,0.3l0.8,0.3l0.7,0.3l0.9,0.5l0.8,0.5l0.8,0.4l0.6,0.5l0.7,0.4l0.6,0.6l0.7,0.7l0.6,0.6l0.6,0.7l0.4,0.6l0.7,0.8l0.4,0.8l0.5,0.7l0.3,0.8l0.3,0.8l0.3,0.9l0.3,0.7l0.1,1l0.2,0.9l0.1,0.7l0,1l0,0.9l0.2,67l-0.2,1l0,0.9l-0.1,0.9l-0.2,0.8l-0.1,0.9l-0.3,0.7l-0.3,1l-0.3,0.7l-0.3,0.8l-0.5,0.7l-0.4,0.8l-0.5,0.8l-0.6,0.7l-0.6,0.6l-0.6,0.7l-0.7,0.6l-0.6,0.6l-0.7,0.4l-0.6,0.7l-0.8,0.3l-0.8,0.4l-0.7,0.5l-0.9,0.3l-0.8,0.3l-0.9,0.1l-0.8,0.3l-0.9,0.2l-0.9,0.1l-0.9,0l-0.8,0L191,302.5l0,-0.2l-0.9,0l-1,0l-0.7,-0.1L187.5,302l-0.8,-0.1l-0.9,-0.3L185,301.3L184.1,301l-0.8,-0.3l-0.7,-0.5l-0.8,-0.4L181,299.1l-0.6,-0.4l-0.7,-0.6l-0.6,-0.6l-0.7,-0.7l-0.6,-0.6l-0.4,-0.7l-0.5,-0.8l-0.4,-0.8L176,293.2l-0.3,-0.8l-0.5,-0.7l-0.3,-1L174.8,290l-0.3,-0.9l0,-0.8l-0.2,-0.9l-0.1,-0.9l0,-1l0,-67Z" class="g1_14" />
<path d="M174.2,218.5l0,-0.9l0.1,-1l0.2,-0.7l0,-0.9l0.3,-1l0.1,-0.7l0.3,-0.9l0.5,-0.8l0.3,-0.8l0.5,-0.7l0.4,-0.8l0.5,-0.8l0.4,-0.6l0.6,-0.7l0.7,-0.6l0.6,-0.7l0.7,-0.6l0.6,-0.4l0.8,-0.5l0.8,-0.4l0.7,-0.5l0.8,-0.5l0.9,-0.3l0.8,-0.3l0.9,-0.3l0.8,-0.1l0.9,-0.2l0.7,-0.1l1,0l0.9,0l809.7,0l0.8,0l0.9,0l0.9,0.1l0.9,0.2l0.8,0.1l0.9,0.3l0.8,0.3l0.7,0.3l0.9,0.5l0.8,0.5l0.8,0.4l0.6,0.5l0.7,0.4l0.6,0.6l0.7,0.7l0.6,0.6l0.6,0.7l0.4,0.6l0.7,0.8l0.4,0.8l0.5,0.7l0.3,0.8l0.3,0.8l0.3,0.9l0.3,0.7l0.1,1l0.2,0.9l0.1,0.7l0,1l0,0.9l0.2,67l-0.2,1l0,0.9l-0.1,0.9l-0.2,0.8l-0.1,0.9l-0.3,0.7l-0.3,1l-0.3,0.7l-0.3,0.8l-0.5,0.7l-0.4,0.8l-0.5,0.8l-0.6,0.7l-0.6,0.6l-0.6,0.7l-0.7,0.6l-0.6,0.6l-0.7,0.4l-0.6,0.7l-0.8,0.3l-0.8,0.4l-0.7,0.5l-0.9,0.3l-0.8,0.3l-0.9,0.1l-0.8,0.3l-0.9,0.2l-0.9,0.1l-0.9,0l-0.8,0L191,302.5l0,-0.2l-0.9,0l-1,0l-0.7,-0.1L187.5,302l-0.8,-0.1l-0.9,-0.3L185,301.3L184.1,301l-0.8,-0.3l-0.7,-0.5l-0.8,-0.4L181,299.1l-0.6,-0.4l-0.7,-0.6l-0.6,-0.6l-0.7,-0.7l-0.6,-0.6l-0.4,-0.7l-0.5,-0.8l-0.4,-0.8L176,293.2l-0.3,-0.8l-0.5,-0.7l-0.3,-1L174.8,290l-0.3,-0.9l0,-0.8l-0.2,-0.9l-0.1,-0.9l0,-1l0,-67Z" class="g3_14" />
<path d="M301,277l464,0" class="g2_14" />
</svg>