<?xml version="1.0" encoding="UTF-8" standalone="no"?>
<!DOCTYPE svg PUBLIC "-//W3C//DTD SVG 1.1//EN"
"http://www.w3.org/Graphics/SVG/1.1/DTD/svg11.dtd">
<svg viewBox="0 0 1155 1210" version="1.1" xmlns="http://www.w3.org/2000/svg" xmlns:xlink="http://www.w3.org/1999/xlink">
<defs>
<clipPath id="c0_9"><path d="M0.5,1210.5L0.5,0.5l1155,0l0,1210Z" /></clipPath>
<style type="text/css"><![CDATA[
.g2_9{
fill: none;
stroke: #0000EE;
stroke-width: 2;
stroke-linecap: butt;
stroke-linejoin: miter;
}
.g1_9{
fill: #FFFFFF;
}
]]></style>
</defs>
<path fill-rule="evenodd" d="M0,0L1155,0l0,1210L0,1210L0,0Z" class="g1_9" />
<path fill-rule="evenodd" d="M0,0L1155,0l0,1210L0,1210L0,0Z" class="g1_9" />
<image x="790" y="1140" width="319" height="55" xlink:href="img/1.png" />
<g clip-path="url(#c0_9)">
<g fill="#626262" >
<use xlink:href="#f0_c" transform="matrix(12.1,0,0,12.1,47.7,33.2)" />
<use xlink:href="#f0_4" transform="matrix(12.1,0,0,12.1,61.4,33.2)" />
<use xlink:href="#f0_8" transform="matrix(12.1,0,0,12.1,73.5,33.2)" />
<use xlink:href="#f0_3" transform="matrix(12.1,0,0,12.1,82.3,33.2)" />
<use xlink:href="#f0_e" transform="matrix(12.1,0,0,12.1,95.4,33.2)" />
<use xlink:href="#f0_i" transform="matrix(12.1,0,0,12.1,108.1,33.2)" />
<use xlink:href="#f0_n" transform="matrix(12.1,0,0,12.1,127.8,33.2)" />
<use xlink:href="#f0_i" transform="matrix(12.1,0,0,12.1,134.5,33.2)" />
<use xlink:href="#f0_a" transform="matrix(12.1,0,0,12.1,147.7,33.2)" />
<use xlink:href="#f0_8" transform="matrix(12.1,0,0,12.1,158.7,33.2)" />
<use xlink:href="#f0_7" transform="matrix(12.1,0,0,12.1,167.5,33.2)" />
<use xlink:href="#f0_m" transform="matrix(12.1,0,0,12.1,179.9,33.2)" />
<use xlink:href="#f0_m" transform="matrix(12.1,0,0,12.1,186.1,33.2)" />
<use xlink:href="#f0_7" transform="matrix(12.1,0,0,12.1,192.4,33.2)" />
<use xlink:href="#f0_8" transform="matrix(12.1,0,0,12.1,204.9,33.2)" />
<use xlink:href="#f0_h" transform="matrix(12.1,0,0,12.1,213.6,33.2)" />
<use xlink:href="#f0_e" transform="matrix(12.1,0,0,12.1,219.9,33.2)" />
<use xlink:href="#f0_i" transform="matrix(12.1,0,0,12.1,232.6,33.2)" />
<use xlink:href="#f0_7" transform="matrix(12.1,0,0,12.1,252.1,33.2)" />
<use xlink:href="#f0_i" transform="matrix(12.1,0,0,12.1,264.7,33.2)" />
<use xlink:href="#f0_r" transform="matrix(12.1,0,0,12.1,277.8,33.2)" />
<use xlink:href="#f0_c" transform="matrix(12.1,0,0,12.1,297.5,33.2)" />
<use xlink:href="#f0_4" transform="matrix(12.1,0,0,12.1,311.2,33.2)" />
<use xlink:href="#f0_6" transform="matrix(12.1,0,0,12.1,323.3,33.2)" />
<use xlink:href="#f0_b" transform="matrix(12.1,0,0,12.1,338.4,33.2)" />
<use xlink:href="#f0_u" transform="matrix(12.1,0,0,12.1,350.9,33.2)" />
<use xlink:href="#f0_a" transform="matrix(12.1,0,0,12.1,369.4,33.2)" />
<use xlink:href="#f0_b" transform="matrix(12.1,0,0,12.1,380.4,33.2)" />
<use xlink:href="#f0_8" transform="matrix(12.1,0,0,12.1,392.9,33.2)" />
<use xlink:href="#f0_q" transform="matrix(12.1,0,0,12.1,401.8,33.2)" />
<use xlink:href="#f0_v" transform="matrix(12.1,0,0,12.1,414.9,33.2)" />
<use xlink:href="#f1_q" transform="matrix(12.1,0,0,12.1,47.7,92.3)" />
<use xlink:href="#f2_16" transform="matrix(12.1,0,0,12.1,72.1,93.3)" />
<use xlink:href="#f2_7" transform="matrix(12.1,0,0,12.1,86.3,93.3)" />
<use xlink:href="#f2_12" transform="matrix(12.1,0,0,12.1,97.8,93.3)" />
<use xlink:href="#f2_4" transform="matrix(12.1,0,0,12.1,112.9,93.3)" />
<use xlink:href="#f2_a" transform="matrix(12.1,0,0,12.1,124.6,93.3)" />
<use xlink:href="#f2_7" transform="matrix(12.1,0,0,12.1,129.9,93.3)" />
<use xlink:href="#f2_k" transform="matrix(12.1,0,0,12.1,141.2,93.3)" />
<use xlink:href="#f2_h" transform="matrix(12.1,0,0,12.1,152.7,93.3)" />
<use xlink:href="#f2_k" transform="matrix(12.1,0,0,12.1,170.4,93.3)" />
<use xlink:href="#f2_4" transform="matrix(12.1,0,0,12.1,181.8,93.3)" />
<use xlink:href="#f2_h" transform="matrix(12.1,0,0,12.1,193.4,93.3)" />
<use xlink:href="#f2_u" transform="matrix(12.1,0,0,12.1,211.3,93.3)" />
<use xlink:href="#f2_4" transform="matrix(12.1,0,0,12.1,216.5,93.3)" />
<use xlink:href="#f2_g" transform="matrix(12.1,0,0,12.1,228.2,93.3)" />
<use xlink:href="#f2_c" transform="matrix(12.1,0,0,12.1,238,93.3)" />
<use xlink:href="#f2_k" transform="matrix(12.1,0,0,12.1,245.1,93.3)" />
<use xlink:href="#f2_a" transform="matrix(12.1,0,0,12.1,256.5,93.3)" />
<use xlink:href="#f2_a" transform="matrix(12.1,0,0,12.1,261.8,93.3)" />
<use xlink:href="#f2_s" transform="matrix(12.1,0,0,12.1,272.9,93.3)" />
<use xlink:href="#f2_r" transform="matrix(12.1,0,0,12.1,284.1,93.3)" />
<use xlink:href="#f2_c" transform="matrix(12.1,0,0,12.1,295,93.3)" />
<use xlink:href="#f2_f" transform="matrix(12.1,0,0,12.1,302.2,93.3)" />
<use xlink:href="#f2_7" transform="matrix(12.1,0,0,12.1,313.9,93.3)" />
<use xlink:href="#f2_4" transform="matrix(12.1,0,0,12.1,325.2,93.3)" />
<use xlink:href="#f2_y" transform="matrix(12.1,0,0,12.1,342.8,93.3)" />
<use xlink:href="#f2_1c" transform="matrix(12.1,0,0,12.1,354.7,93.3)" />
<use xlink:href="#f2_14" transform="matrix(12.1,0,0,12.1,360.6,93.3)" />
</g>
<g fill="#0000EE" >
<use xlink:href="#f2_n" transform="matrix(12.1,0,0,12.1,372.8,93.3)" />
<use xlink:href="#f2_f" transform="matrix(12.1,0,0,12.1,384.8,93.3)" />
<use xlink:href="#f2_c" transform="matrix(12.1,0,0,12.1,396.6,93.3)" />
<use xlink:href="#f2_c" transform="matrix(12.1,0,0,12.1,403.6,93.3)" />
<use xlink:href="#f2_9" transform="matrix(12.1,0,0,12.1,410.8,93.3)" />
<use xlink:href="#f2_g" transform="matrix(12.1,0,0,12.1,422.5,93.3)" />
<use xlink:href="#f2_n" transform="matrix(12.1,0,0,12.1,432.3,93.3)" />
<use xlink:href="#f2_1l" transform="matrix(12.1,0,0,12.1,438.4,93.3)" />
<use xlink:href="#f2_1l" transform="matrix(12.1,0,0,12.1,444.6,93.3)" />
<use xlink:href="#f2_12" transform="matrix(12.1,0,0,12.1,450.9,93.3)" />
<use xlink:href="#f2_12" transform="matrix(12.1,0,0,12.1,466.1,93.3)" />
<use xlink:href="#f2_12" transform="matrix(12.1,0,0,12.1,481.3,93.3)" />
<use xlink:href="#f2_1c" transform="matrix(12.1,0,0,12.1,494.7,93.3)" />
<use xlink:href="#f2_9" transform="matrix(12.1,0,0,12.1,500.5,93.3)" />
<use xlink:href="#f2_r" transform="matrix(12.1,0,0,12.1,512.2,93.3)" />
<use xlink:href="#f2_c" transform="matrix(12.1,0,0,12.1,523.2,93.3)" />
<use xlink:href="#f2_f" transform="matrix(12.1,0,0,12.1,530.4,93.3)" />
<use xlink:href="#f2_7" transform="matrix(12.1,0,0,12.1,542.1,93.3)" />
<use xlink:href="#f2_4" transform="matrix(12.1,0,0,12.1,553.4,93.3)" />
<use xlink:href="#f2_1c" transform="matrix(12.1,0,0,12.1,565.2,93.3)" />
<use xlink:href="#f2_7" transform="matrix(12.1,0,0,12.1,571,93.3)" />
<use xlink:href="#f2_l" transform="matrix(12.1,0,0,12.1,582.4,93.3)" />
<use xlink:href="#f2_x" transform="matrix(12.1,0,0,12.1,589.7,93.3)" />
<use xlink:href="#f2_1l" transform="matrix(12.1,0,0,12.1,601.7,93.3)" />
<use xlink:href="#f2_h" transform="matrix(12.1,0,0,12.1,607.8,93.3)" />
<use xlink:href="#f2_7" transform="matrix(12.1,0,0,12.1,619.7,93.3)" />
<use xlink:href="#f2_12" transform="matrix(12.1,0,0,12.1,631.1,93.3)" />
<use xlink:href="#f2_4" transform="matrix(12.1,0,0,12.1,646.2,93.3)" />
<use xlink:href="#f2_a" transform="matrix(12.1,0,0,12.1,658,93.3)" />
<use xlink:href="#f2_7" transform="matrix(12.1,0,0,12.1,663.3,93.3)" />
<use xlink:href="#f2_k" transform="matrix(12.1,0,0,12.1,674.6,93.3)" />
<use xlink:href="#f2_h" transform="matrix(12.1,0,0,12.1,686,93.3)" />
<use xlink:href="#f2_g" transform="matrix(12.1,0,0,12.1,697.9,93.3)" />
<use xlink:href="#f2_1l" transform="matrix(12.1,0,0,12.1,707.5,93.3)" />
</g>
</g>
<path d="M384,95l330,0" class="g2_9" />
<g clip-path="url(#c0_9)">
<g fill="#626262" >
<use xlink:href="#f1_q" transform="matrix(12.1,0,0,12.1,47.7,152.5)" />
<use xlink:href="#f2_16" transform="matrix(12.1,0,0,12.1,72.1,153.5)" />
<use xlink:href="#f2_7" transform="matrix(12.1,0,0,12.1,86.3,153.5)" />
<use xlink:href="#f2_12" transform="matrix(12.1,0,0,12.1,97.8,153.5)" />
<use xlink:href="#f2_4" transform="matrix(12.1,0,0,12.1,112.9,153.5)" />
<use xlink:href="#f2_a" transform="matrix(12.1,0,0,12.1,124.6,153.5)" />
<use xlink:href="#f2_7" transform="matrix(12.1,0,0,12.1,129.9,153.5)" />
<use xlink:href="#f2_k" transform="matrix(12.1,0,0,12.1,141.2,153.5)" />
<use xlink:href="#f2_h" transform="matrix(12.1,0,0,12.1,152.7,153.5)" />
<use xlink:href="#f2_s" transform="matrix(12.1,0,0,12.1,176.3,153.5)" />
<use xlink:href="#f2_r" transform="matrix(12.1,0,0,12.1,187.5,153.5)" />
<use xlink:href="#f2_16" transform="matrix(12.1,0,0,12.1,198.4,153.5)" />
<use xlink:href="#f2_b" transform="matrix(12.1,0,0,12.1,212.7,153.5)" />
<use xlink:href="#f2_q" transform="matrix(12.1,0,0,12.1,224.3,153.5)" />
<use xlink:href="#f2_w" transform="matrix(12.1,0,0,12.1,235.2,153.5)" />
<use xlink:href="#f2_y" transform="matrix(12.1,0,0,12.1,244.4,153.5)" />
<use xlink:href="#f2_1c" transform="matrix(12.1,0,0,12.1,256.3,153.5)" />
<use xlink:href="#f2_1m" transform="matrix(12.1,0,0,12.1,262.1,153.5)" />
<use xlink:href="#f2_1c" transform="matrix(12.1,0,0,12.1,273.9,153.5)" />
<use xlink:href="#f2_1j" transform="matrix(12.1,0,0,12.1,279.8,153.5)" />
<use xlink:href="#f2_7" transform="matrix(12.1,0,0,12.1,297.3,153.5)" />
<use xlink:href="#f2_l" transform="matrix(12.1,0,0,12.1,308.6,153.5)" />
<use xlink:href="#f2_f" transform="matrix(12.1,0,0,12.1,322.2,153.5)" />
<use xlink:href="#f2_d" transform="matrix(12.1,0,0,12.1,333.9,153.5)" />
<use xlink:href="#f2_x" transform="matrix(12.1,0,0,12.1,339.1,153.5)" />
<use xlink:href="#f2_f" transform="matrix(12.1,0,0,12.1,351.2,153.5)" />
<use xlink:href="#f2_b" transform="matrix(12.1,0,0,12.1,362.8,153.5)" />
<use xlink:href="#f2_l" transform="matrix(12.1,0,0,12.1,374.4,153.5)" />
<use xlink:href="#f2_q" transform="matrix(12.1,0,0,12.1,387.9,153.5)" />
<use xlink:href="#f2_b" transform="matrix(12.1,0,0,12.1,398.9,153.5)" />
<use xlink:href="#f2_l" transform="matrix(12.1,0,0,12.1,410.3,153.5)" />
<use xlink:href="#f2_g" transform="matrix(12.1,0,0,12.1,418.1,153.5)" />
<use xlink:href="#f2_d" transform="matrix(12.1,0,0,12.1,427.7,153.5)" />
<use xlink:href="#f2_7" transform="matrix(12.1,0,0,12.1,433,153.5)" />
<use xlink:href="#f2_4" transform="matrix(12.1,0,0,12.1,444.5,153.5)" />
<use xlink:href="#f2_n" transform="matrix(12.1,0,0,12.1,456.1,153.5)" />
</g>
<g fill="#0000EE" >
<use xlink:href="#f2_f" transform="matrix(12.1,0,0,12.1,468.9,153.5)" />
<use xlink:href="#f2_c" transform="matrix(12.1,0,0,12.1,480.5,153.5)" />
<use xlink:href="#f2_c" transform="matrix(12.1,0,0,12.1,487.7,153.5)" />
<use xlink:href="#f2_9" transform="matrix(12.1,0,0,12.1,494.8,153.5)" />
<use xlink:href="#f2_n" transform="matrix(12.1,0,0,12.1,506.6,153.5)" />
<use xlink:href="#f2_1l" transform="matrix(12.1,0,0,12.1,512.8,153.5)" />
<use xlink:href="#f2_1l" transform="matrix(12.1,0,0,12.1,518.9,153.5)" />
<use xlink:href="#f2_12" transform="matrix(12.1,0,0,12.1,525.2,153.5)" />
<use xlink:href="#f2_12" transform="matrix(12.1,0,0,12.1,540.4,153.5)" />
<use xlink:href="#f2_12" transform="matrix(12.1,0,0,12.1,555.5,153.5)" />
<use xlink:href="#f2_1c" transform="matrix(12.1,0,0,12.1,569,153.5)" />
<use xlink:href="#f2_9" transform="matrix(12.1,0,0,12.1,574.8,153.5)" />
<use xlink:href="#f2_r" transform="matrix(12.1,0,0,12.1,586.5,153.5)" />
<use xlink:href="#f2_h" transform="matrix(12.1,0,0,12.1,597.5,153.5)" />
<use xlink:href="#f2_b" transform="matrix(12.1,0,0,12.1,609.4,153.5)" />
<use xlink:href="#f2_q" transform="matrix(12.1,0,0,12.1,621,153.5)" />
<use xlink:href="#f2_1c" transform="matrix(12.1,0,0,12.1,630.5,153.5)" />
<use xlink:href="#f2_7" transform="matrix(12.1,0,0,12.1,636.4,153.5)" />
<use xlink:href="#f2_l" transform="matrix(12.1,0,0,12.1,647.7,153.5)" />
<use xlink:href="#f2_x" transform="matrix(12.1,0,0,12.1,655,153.5)" />
<use xlink:href="#f2_1l" transform="matrix(12.1,0,0,12.1,666.9,153.5)" />
<use xlink:href="#f2_h" transform="matrix(12.1,0,0,12.1,673.2,153.5)" />
<use xlink:href="#f2_7" transform="matrix(12.1,0,0,12.1,685.1,153.5)" />
<use xlink:href="#f2_12" transform="matrix(12.1,0,0,12.1,696.4,153.5)" />
<use xlink:href="#f2_4" transform="matrix(12.1,0,0,12.1,711.6,153.5)" />
<use xlink:href="#f2_a" transform="matrix(12.1,0,0,12.1,723.2,153.5)" />
<use xlink:href="#f2_7" transform="matrix(12.1,0,0,12.1,728.6,153.5)" />
<use xlink:href="#f2_k" transform="matrix(12.1,0,0,12.1,740,153.5)" />
<use xlink:href="#f2_h" transform="matrix(12.1,0,0,12.1,751.3,153.5)" />
<use xlink:href="#f2_1c" transform="matrix(12.1,0,0,12.1,763.2,153.5)" />
<use xlink:href="#f2_f" transform="matrix(12.1,0,0,12.1,769.2,153.5)" />
<use xlink:href="#f2_c" transform="matrix(12.1,0,0,12.1,780.8,153.5)" />
<use xlink:href="#f2_8" transform="matrix(12.1,0,0,12.1,787.9,153.5)" />
<use xlink:href="#f2_a" transform="matrix(12.1,0,0,12.1,806,153.5)" />
</g>
</g>
<path d="M468,155l349,0" class="g2_9" />
<g clip-path="url(#c0_9)">
<g fill="#626262" >
<use xlink:href="#f1_q" transform="matrix(12.1,0,0,12.1,47.7,212.7)" />
<use xlink:href="#f2_16" transform="matrix(12.1,0,0,12.1,72.1,213.7)" />
<use xlink:href="#f2_7" transform="matrix(12.1,0,0,12.1,86.3,213.7)" />
<use xlink:href="#f2_12" transform="matrix(12.1,0,0,12.1,97.8,213.7)" />
<use xlink:href="#f2_4" transform="matrix(12.1,0,0,12.1,112.9,213.7)" />
<use xlink:href="#f2_a" transform="matrix(12.1,0,0,12.1,124.6,213.7)" />
<use xlink:href="#f2_7" transform="matrix(12.1,0,0,12.1,129.9,213.7)" />
<use xlink:href="#f2_k" transform="matrix(12.1,0,0,12.1,141.2,213.7)" />
<use xlink:href="#f2_h" transform="matrix(12.1,0,0,12.1,152.7,213.7)" />
<use xlink:href="#f2_1n" transform="matrix(12.1,0,0,12.1,170.4,213.7)" />
<use xlink:href="#f2_6" transform="matrix(12.1,0,0,12.1,182.1,213.7)" />
<use xlink:href="#f2_a" transform="matrix(12.1,0,0,12.1,192.3,213.7)" />
<use xlink:href="#f2_d" transform="matrix(12.1,0,0,12.1,197.7,213.7)" />
<use xlink:href="#f2_9" transform="matrix(12.1,0,0,12.1,203,213.7)" />
<use xlink:href="#f2_g" transform="matrix(12.1,0,0,12.1,214.7,213.7)" />
<use xlink:href="#f2_b" transform="matrix(12.1,0,0,12.1,224.3,213.7)" />
<use xlink:href="#f2_1b" transform="matrix(12.1,0,0,12.1,241.7,213.7)" />
<use xlink:href="#f2_i" transform="matrix(12.1,0,0,12.1,247.1,213.7)" />
<use xlink:href="#f2_4" transform="matrix(12.1,0,0,12.1,259,213.7)" />
<use xlink:href="#f2_7" transform="matrix(12.1,0,0,12.1,270.7,213.7)" />
<use xlink:href="#f2_7" transform="matrix(12.1,0,0,12.1,287.8,213.7)" />
<use xlink:href="#f2_l" transform="matrix(12.1,0,0,12.1,299.3,213.7)" />
<use xlink:href="#f2_f" transform="matrix(12.1,0,0,12.1,312.8,213.7)" />
<use xlink:href="#f2_d" transform="matrix(12.1,0,0,12.1,324.6,213.7)" />
<use xlink:href="#f2_x" transform="matrix(12.1,0,0,12.1,329.7,213.7)" />
<use xlink:href="#f2_f" transform="matrix(12.1,0,0,12.1,341.6,213.7)" />
<use xlink:href="#f2_b" transform="matrix(12.1,0,0,12.1,353.4,213.7)" />
<use xlink:href="#f2_l" transform="matrix(12.1,0,0,12.1,365,213.7)" />
<use xlink:href="#f2_q" transform="matrix(12.1,0,0,12.1,378.5,213.7)" />
<use xlink:href="#f2_b" transform="matrix(12.1,0,0,12.1,389.5,213.7)" />
<use xlink:href="#f2_l" transform="matrix(12.1,0,0,12.1,400.9,213.7)" />
<use xlink:href="#f2_g" transform="matrix(12.1,0,0,12.1,408.6,213.7)" />
<use xlink:href="#f2_d" transform="matrix(12.1,0,0,12.1,418.3,213.7)" />
<use xlink:href="#f2_7" transform="matrix(12.1,0,0,12.1,423.6,213.7)" />
<use xlink:href="#f2_4" transform="matrix(12.1,0,0,12.1,434.9,213.7)" />
<use xlink:href="#f2_n" transform="matrix(12.1,0,0,12.1,446.7,213.7)" />
</g>
<g fill="#0000EE" >
<use xlink:href="#f2_f" transform="matrix(12.1,0,0,12.1,459.4,213.7)" />
<use xlink:href="#f2_c" transform="matrix(12.1,0,0,12.1,471.1,213.7)" />
<use xlink:href="#f2_c" transform="matrix(12.1,0,0,12.1,478.3,213.7)" />
<use xlink:href="#f2_9" transform="matrix(12.1,0,0,12.1,485.5,213.7)" />
<use xlink:href="#f2_g" transform="matrix(12.1,0,0,12.1,497.1,213.7)" />
<use xlink:href="#f2_n" transform="matrix(12.1,0,0,12.1,506.9,213.7)" />
<use xlink:href="#f2_1l" transform="matrix(12.1,0,0,12.1,513.1,213.7)" />
<use xlink:href="#f2_1l" transform="matrix(12.1,0,0,12.1,519.4,213.7)" />
<use xlink:href="#f2_12" transform="matrix(12.1,0,0,12.1,525.5,213.7)" />
<use xlink:href="#f2_12" transform="matrix(12.1,0,0,12.1,540.7,213.7)" />
<use xlink:href="#f2_12" transform="matrix(12.1,0,0,12.1,556,213.7)" />
<use xlink:href="#f2_1c" transform="matrix(12.1,0,0,12.1,569.3,213.7)" />
<use xlink:href="#f2_b" transform="matrix(12.1,0,0,12.1,575.2,213.7)" />
<use xlink:href="#f2_6" transform="matrix(12.1,0,0,12.1,586.6,213.7)" />
<use xlink:href="#f2_a" transform="matrix(12.1,0,0,12.1,596.9,213.7)" />
<use xlink:href="#f2_d" transform="matrix(12.1,0,0,12.1,602.2,213.7)" />
<use xlink:href="#f2_9" transform="matrix(12.1,0,0,12.1,607.5,213.7)" />
<use xlink:href="#f2_g" transform="matrix(12.1,0,0,12.1,619.3,213.7)" />
<use xlink:href="#f2_b" transform="matrix(12.1,0,0,12.1,628.9,213.7)" />
<use xlink:href="#f2_1c" transform="matrix(12.1,0,0,12.1,640.5,213.7)" />
<use xlink:href="#f2_7" transform="matrix(12.1,0,0,12.1,646.3,213.7)" />
<use xlink:href="#f2_l" transform="matrix(12.1,0,0,12.1,657.7,213.7)" />
<use xlink:href="#f2_x" transform="matrix(12.1,0,0,12.1,665,213.7)" />
<use xlink:href="#f2_1l" transform="matrix(12.1,0,0,12.1,676.9,213.7)" />
<use xlink:href="#f2_h" transform="matrix(12.1,0,0,12.1,683.2,213.7)" />
<use xlink:href="#f2_7" transform="matrix(12.1,0,0,12.1,695.1,213.7)" />
<use xlink:href="#f2_12" transform="matrix(12.1,0,0,12.1,706.4,213.7)" />
<use xlink:href="#f2_4" transform="matrix(12.1,0,0,12.1,721.6,213.7)" />
<use xlink:href="#f2_a" transform="matrix(12.1,0,0,12.1,733.3,213.7)" />
<use xlink:href="#f2_7" transform="matrix(12.1,0,0,12.1,738.6,213.7)" />
<use xlink:href="#f2_k" transform="matrix(12.1,0,0,12.1,750,213.7)" />
<use xlink:href="#f2_h" transform="matrix(12.1,0,0,12.1,761.3,213.7)" />
<use xlink:href="#f2_g" transform="matrix(12.1,0,0,12.1,773.2,213.7)" />
<use xlink:href="#f2_1l" transform="matrix(12.1,0,0,12.1,783,213.7)" />
<use xlink:href="#f2_d" transform="matrix(12.1,0,0,12.1,789.1,213.7)" />
<use xlink:href="#f2_4" transform="matrix(12.1,0,0,12.1,794.4,213.7)" />
<use xlink:href="#f2_h" transform="matrix(12.1,0,0,12.1,806.2,213.7)" />
<use xlink:href="#f2_b" transform="matrix(12.1,0,0,12.1,818.1,213.7)" />
<use xlink:href="#f2_v" transform="matrix(12.1,0,0,12.1,829.2,213.7)" />
<use xlink:href="#f2_1c" transform="matrix(12.1,0,0,12.1,840.2,213.7)" />
<use xlink:href="#f2_9" transform="matrix(12.1,0,0,12.1,846.2,213.7)" />
<use xlink:href="#f2_f" transform="matrix(12.1,0,0,12.1,857.9,213.7)" />
<use xlink:href="#f2_9" transform="matrix(12.1,0,0,12.1,869.5,213.7)" />
</g>
</g>
<path d="M459,215l422,0" class="g2_9" />
<g clip-path="url(#c0_9)">
<g fill="#626262" >
<use xlink:href="#f1_q" transform="matrix(12.1,0,0,12.1,47.7,272.9)" />
<use xlink:href="#f2_u" transform="matrix(12.1,0,0,12.1,72.1,273.9)" />
<use xlink:href="#f2_4" transform="matrix(12.1,0,0,12.1,77.5,273.9)" />
<use xlink:href="#f2_g" transform="matrix(12.1,0,0,12.1,89.1,273.9)" />
<use xlink:href="#f2_c" transform="matrix(12.1,0,0,12.1,98.8,273.9)" />
<use xlink:href="#f2_k" transform="matrix(12.1,0,0,12.1,106,273.9)" />
<use xlink:href="#f2_a" transform="matrix(12.1,0,0,12.1,117.3,273.9)" />
<use xlink:href="#f2_a" transform="matrix(12.1,0,0,12.1,122.6,273.9)" />
<use xlink:href="#f2_s" transform="matrix(12.1,0,0,12.1,133.8,273.9)" />
<use xlink:href="#f2_r" transform="matrix(12.1,0,0,12.1,144.9,273.9)" />
<use xlink:href="#f2_c" transform="matrix(12.1,0,0,12.1,155.9,273.9)" />
<use xlink:href="#f2_f" transform="matrix(12.1,0,0,12.1,163.1,273.9)" />
<use xlink:href="#f2_7" transform="matrix(12.1,0,0,12.1,174.8,273.9)" />
<use xlink:href="#f2_4" transform="matrix(12.1,0,0,12.1,186.1,273.9)" />
<use xlink:href="#f2_7" transform="matrix(12.1,0,0,12.1,203.8,273.9)" />
<use xlink:href="#f2_4" transform="matrix(12.1,0,0,12.1,215.1,273.9)" />
<use xlink:href="#f2_r" transform="matrix(12.1,0,0,12.1,232.6,273.9)" />
<use xlink:href="#f2_7" transform="matrix(12.1,0,0,12.1,243.6,273.9)" />
<use xlink:href="#f2_i" transform="matrix(12.1,0,0,12.1,254.9,273.9)" />
<use xlink:href="#f2_l" transform="matrix(12.1,0,0,12.1,266.8,273.9)" />
<use xlink:href="#f2_8" transform="matrix(12.1,0,0,12.1,280.4,273.9)" />
<use xlink:href="#f2_k" transform="matrix(12.1,0,0,12.1,298.4,273.9)" />
<use xlink:href="#f2_6" transform="matrix(12.1,0,0,12.1,309.7,273.9)" />
<use xlink:href="#f2_f" transform="matrix(12.1,0,0,12.1,320,273.9)" />
<use xlink:href="#f2_d" transform="matrix(12.1,0,0,12.1,331.7,273.9)" />
<use xlink:href="#f2_4" transform="matrix(12.1,0,0,12.1,337,273.9)" />
<use xlink:href="#f2_b" transform="matrix(12.1,0,0,12.1,348.7,273.9)" />
<use xlink:href="#f1_q" transform="matrix(12.1,0,0,12.1,47.7,333.1)" />
<use xlink:href="#f2_15" transform="matrix(12.1,0,0,12.1,72.1,334.1)" />
<use xlink:href="#f2_7" transform="matrix(12.1,0,0,12.1,85.1,334.1)" />
<use xlink:href="#f2_9" transform="matrix(12.1,0,0,12.1,96.4,334.1)" />
<use xlink:href="#f2_r" transform="matrix(12.1,0,0,12.1,108.1,334.1)" />
<use xlink:href="#f2_9" transform="matrix(12.1,0,0,12.1,124.9,334.1)" />
<use xlink:href="#f2_k" transform="matrix(12.1,0,0,12.1,136.6,334.1)" />
<use xlink:href="#f2_g" transform="matrix(12.1,0,0,12.1,148.1,334.1)" />
<use xlink:href="#f2_c" transform="matrix(12.1,0,0,12.1,157.7,334.1)" />
<use xlink:href="#f2_b" transform="matrix(12.1,0,0,12.1,164.9,334.1)" />
<use xlink:href="#f2_c" transform="matrix(12.1,0,0,12.1,182.3,334.1)" />
<use xlink:href="#f2_f" transform="matrix(12.1,0,0,12.1,189.4,334.1)" />
<use xlink:href="#f2_b" transform="matrix(12.1,0,0,12.1,201.2,334.1)" />
<use xlink:href="#f2_6" transform="matrix(12.1,0,0,12.1,218.5,334.1)" />
<use xlink:href="#f2_7" transform="matrix(12.1,0,0,12.1,228.8,334.1)" />
<use xlink:href="#f2_4" transform="matrix(12.1,0,0,12.1,240.1,334.1)" />
<use xlink:href="#f2_c" transform="matrix(12.1,0,0,12.1,251.8,334.1)" />
<use xlink:href="#f2_b" transform="matrix(12.1,0,0,12.1,259,334.1)" />
<use xlink:href="#f2_4" transform="matrix(12.1,0,0,12.1,270.6,334.1)" />
<use xlink:href="#f2_c" transform="matrix(12.1,0,0,12.1,282.2,334.1)" />
<use xlink:href="#f2_g" transform="matrix(12.1,0,0,12.1,289.3,334.1)" />
<use xlink:href="#f2_7" transform="matrix(12.1,0,0,12.1,304.9,334.1)" />
<use xlink:href="#f2_e" transform="matrix(12.1,0,0,12.1,316.2,334.1)" />
<use xlink:href="#f2_c" transform="matrix(12.1,0,0,12.1,328.6,334.1)" />
<use xlink:href="#f2_f" transform="matrix(12.1,0,0,12.1,335.7,334.1)" />
<use xlink:href="#f2_b" transform="matrix(12.1,0,0,12.1,347.5,334.1)" />
<use xlink:href="#f2_9" transform="matrix(12.1,0,0,12.1,364.7,334.1)" />
<use xlink:href="#f2_a" transform="matrix(12.1,0,0,12.1,376.4,334.1)" />
<use xlink:href="#f2_i" transform="matrix(12.1,0,0,12.1,381.8,334.1)" />
<use xlink:href="#f2_x" transform="matrix(12.1,0,0,12.1,393.7,334.1)" />
<use xlink:href="#f2_d" transform="matrix(12.1,0,0,12.1,405.6,334.1)" />
<use xlink:href="#f2_4" transform="matrix(12.1,0,0,12.1,410.9,334.1)" />
<use xlink:href="#f2_e" transform="matrix(12.1,0,0,12.1,428.4,334.1)" />
<use xlink:href="#f2_7" transform="matrix(12.1,0,0,12.1,434.9,334.1)" />
<use xlink:href="#f2_a" transform="matrix(12.1,0,0,12.1,446.3,334.1)" />
<use xlink:href="#f2_h" transform="matrix(12.1,0,0,12.1,451.5,334.1)" />
<use xlink:href="#f2_b" transform="matrix(12.1,0,0,12.1,463.4,334.1)" />
<use xlink:href="#f2_l" transform="matrix(12.1,0,0,12.1,475,334.1)" />
<use xlink:href="#f2_7" transform="matrix(12.1,0,0,12.1,488.5,334.1)" />
<use xlink:href="#f2_e" transform="matrix(12.1,0,0,12.1,499.8,334.1)" />
<use xlink:href="#f2_s" transform="matrix(12.1,0,0,12.1,512.2,334.1)" />
<use xlink:href="#f2_r" transform="matrix(12.1,0,0,12.1,523.3,334.1)" />
<use xlink:href="#f2_16" transform="matrix(12.1,0,0,12.1,534.3,334.1)" />
<use xlink:href="#f2_b" transform="matrix(12.1,0,0,12.1,548.5,334.1)" />
<use xlink:href="#f2_q" transform="matrix(12.1,0,0,12.1,560.1,334.1)" />
<use xlink:href="#f2_d" transform="matrix(12.1,0,0,12.1,576.9,334.1)" />
<use xlink:href="#f2_4" transform="matrix(12.1,0,0,12.1,582.2,334.1)" />
<use xlink:href="#f2_c" transform="matrix(12.1,0,0,12.1,594,334.1)" />
<use xlink:href="#f2_7" transform="matrix(12.1,0,0,12.1,601.1,334.1)" />
<use xlink:href="#f2_9" transform="matrix(12.1,0,0,12.1,618.2,334.1)" />
<use xlink:href="#f2_a" transform="matrix(12.1,0,0,12.1,630,334.1)" />
<use xlink:href="#f2_i" transform="matrix(12.1,0,0,12.1,635.3,334.1)" />
<use xlink:href="#f2_x" transform="matrix(12.1,0,0,12.1,647.2,334.1)" />
<use xlink:href="#f2_d" transform="matrix(12.1,0,0,12.1,659.1,334.1)" />
<use xlink:href="#f2_4" transform="matrix(12.1,0,0,12.1,664.4,334.1)" />
<use xlink:href="#f2_e" transform="matrix(12.1,0,0,12.1,682,334.1)" />
<use xlink:href="#f2_7" transform="matrix(12.1,0,0,12.1,688.4,334.1)" />
<use xlink:href="#f2_a" transform="matrix(12.1,0,0,12.1,699.7,334.1)" />
<use xlink:href="#f2_h" transform="matrix(12.1,0,0,12.1,705,334.1)" />
<use xlink:href="#f2_b" transform="matrix(12.1,0,0,12.1,716.9,334.1)" />
<use xlink:href="#f2_l" transform="matrix(12.1,0,0,12.1,728.5,334.1)" />
<use xlink:href="#f2_7" transform="matrix(12.1,0,0,12.1,742,334.1)" />
<use xlink:href="#f2_e" transform="matrix(12.1,0,0,12.1,753.3,334.1)" />
<use xlink:href="#f2_1n" transform="matrix(12.1,0,0,12.1,765.6,334.1)" />
<use xlink:href="#f2_6" transform="matrix(12.1,0,0,12.1,777.3,334.1)" />
<use xlink:href="#f2_a" transform="matrix(12.1,0,0,12.1,787.5,334.1)" />
<use xlink:href="#f2_d" transform="matrix(12.1,0,0,12.1,792.8,334.1)" />
<use xlink:href="#f2_9" transform="matrix(12.1,0,0,12.1,798.2,334.1)" />
<use xlink:href="#f2_g" transform="matrix(12.1,0,0,12.1,809.9,334.1)" />
<use xlink:href="#f2_b" transform="matrix(12.1,0,0,12.1,819.7,334.1)" />
<use xlink:href="#f1_q" transform="matrix(12.1,0,0,12.1,47.7,393.3)" />
<use xlink:href="#f2_u" transform="matrix(12.1,0,0,12.1,72.1,394.5)" />
<use xlink:href="#f2_4" transform="matrix(12.1,0,0,12.1,77.5,394.5)" />
<use xlink:href="#f2_1n" transform="matrix(12.1,0,0,12.1,95,394.5)" />
<use xlink:href="#f2_6" transform="matrix(12.1,0,0,12.1,106.6,394.5)" />
<use xlink:href="#f2_a" transform="matrix(12.1,0,0,12.1,117,394.5)" />
<use xlink:href="#f2_d" transform="matrix(12.1,0,0,12.1,122.3,394.5)" />
<use xlink:href="#f2_9" transform="matrix(12.1,0,0,12.1,127.5,394.5)" />
<use xlink:href="#f2_g" transform="matrix(12.1,0,0,12.1,139.2,394.5)" />
<use xlink:href="#f2_b" transform="matrix(12.1,0,0,12.1,149,394.5)" />
<use xlink:href="#f2_7" transform="matrix(12.1,0,0,12.1,166.4,394.5)" />
<use xlink:href="#f2_9" transform="matrix(12.1,0,0,12.1,177.6,394.5)" />
<use xlink:href="#f2_b" transform="matrix(12.1,0,0,12.1,189.4,394.5)" />
<use xlink:href="#f2_4" transform="matrix(12.1,0,0,12.1,200.8,394.5)" />
<use xlink:href="#f2_s" transform="matrix(12.1,0,0,12.1,218.5,394.5)" />
<use xlink:href="#f2_r" transform="matrix(12.1,0,0,12.1,229.6,394.5)" />
<use xlink:href="#f2_16" transform="matrix(12.1,0,0,12.1,240.6,394.5)" />
<use xlink:href="#f2_b" transform="matrix(12.1,0,0,12.1,254.8,394.5)" />
<use xlink:href="#f2_q" transform="matrix(12.1,0,0,12.1,266.4,394.5)" />
<use xlink:href="#f2_9" transform="matrix(12.1,0,0,12.1,283.2,394.5)" />
<use xlink:href="#f2_b" transform="matrix(12.1,0,0,12.1,295,394.5)" />
<use xlink:href="#f2_l" transform="matrix(12.1,0,0,12.1,306.6,394.5)" />
<use xlink:href="#f2_g" transform="matrix(12.1,0,0,12.1,314.2,394.5)" />
<use xlink:href="#f2_9" transform="matrix(12.1,0,0,12.1,323.9,394.5)" />
<use xlink:href="#f2_b" transform="matrix(12.1,0,0,12.1,335.7,394.5)" />
<use xlink:href="#f2_6" transform="matrix(12.1,0,0,12.1,347.1,394.5)" />
<use xlink:href="#f2_c" transform="matrix(12.1,0,0,12.1,357.5,394.5)" />
<use xlink:href="#f2_d" transform="matrix(12.1,0,0,12.1,364.5,394.5)" />
<use xlink:href="#f2_q" transform="matrix(12.1,0,0,12.1,369.8,394.5)" />
<use xlink:href="#f2_b" transform="matrix(12.1,0,0,12.1,380.8,394.5)" />
<use xlink:href="#f2_1i" transform="matrix(12.1,0,0,12.1,398.2,394.5)" />
<use xlink:href="#f2_1e" transform="matrix(12.1,0,0,12.1,405.5,394.5)" />
<use xlink:href="#f2_d" transform="matrix(12.1,0,0,12.1,423.4,394.5)" />
<use xlink:href="#f2_4" transform="matrix(12.1,0,0,12.1,428.6,394.5)" />
<use xlink:href="#f2_h" transform="matrix(12.1,0,0,12.1,440.3,394.5)" />
<use xlink:href="#f2_7" transform="matrix(12.1,0,0,12.1,452.2,394.5)" />
<use xlink:href="#f2_12" transform="matrix(12.1,0,0,12.1,463.5,394.5)" />
<use xlink:href="#f2_1o" transform="matrix(12.1,0,0,12.1,484.7,394.5)" />
<use xlink:href="#f2_1p" transform="matrix(12.1,0,0,12.1,491.4,394.5)" />
<use xlink:href="#f2_3" transform="matrix(12.1,0,0,12.1,512.8,394.5)" />
<use xlink:href="#f2_9" transform="matrix(12.1,0,0,12.1,527.4,394.5)" />
<use xlink:href="#f2_b" transform="matrix(12.1,0,0,12.1,539.2,394.5)" />
<use xlink:href="#f2_4" transform="matrix(12.1,0,0,12.1,550.8,394.5)" />
<use xlink:href="#f2_s" transform="matrix(12.1,0,0,12.1,568.3,394.5)" />
<use xlink:href="#f2_b" transform="matrix(12.1,0,0,12.1,578.7,394.5)" />
<use xlink:href="#f2_l" transform="matrix(12.1,0,0,12.1,590.3,394.5)" />
<use xlink:href="#f2_g" transform="matrix(12.1,0,0,12.1,597.9,394.5)" />
<use xlink:href="#f2_9" transform="matrix(12.1,0,0,12.1,607.7,394.5)" />
<use xlink:href="#f2_b" transform="matrix(12.1,0,0,12.1,619.4,394.5)" />
<use xlink:href="#f2_6" transform="matrix(12.1,0,0,12.1,630.8,394.5)" />
<use xlink:href="#f2_c" transform="matrix(12.1,0,0,12.1,641.1,394.5)" />
<use xlink:href="#f2_d" transform="matrix(12.1,0,0,12.1,648.2,394.5)" />
<use xlink:href="#f2_q" transform="matrix(12.1,0,0,12.1,653.6,394.5)" />
<use xlink:href="#f2_b" transform="matrix(12.1,0,0,12.1,664.5,394.5)" />
<use xlink:href="#f2_1o" transform="matrix(12.1,0,0,12.1,681.9,394.5)" />
<use xlink:href="#f2_1p" transform="matrix(12.1,0,0,12.1,688.6,394.5)" />
<use xlink:href="#f2_3" transform="matrix(12.1,0,0,12.1,710.2,394.5)" />
<use xlink:href="#f2_c" transform="matrix(12.1,0,0,12.1,724.8,394.5)" />
<use xlink:href="#f2_f" transform="matrix(12.1,0,0,12.1,732,394.5)" />
<use xlink:href="#f2_b" transform="matrix(12.1,0,0,12.1,743.6,394.5)" />
<use xlink:href="#f2_l" transform="matrix(12.1,0,0,12.1,755.2,394.5)" />
<use xlink:href="#f2_1o" transform="matrix(12.1,0,0,12.1,768.7,394.5)" />
<use xlink:href="#f2_1p" transform="matrix(12.1,0,0,12.1,775.5,394.5)" />
<use xlink:href="#f2_s" transform="matrix(12.1,0,0,12.1,797,394.5)" />
<use xlink:href="#f2_r" transform="matrix(12.1,0,0,12.1,808.1,394.5)" />
<use xlink:href="#f2_h" transform="matrix(12.1,0,0,12.1,819.1,394.5)" />
<use xlink:href="#f2_b" transform="matrix(12.1,0,0,12.1,831,394.5)" />
<use xlink:href="#f2_q" transform="matrix(12.1,0,0,12.1,842.4,394.5)" />
<use xlink:href="#f2_o" transform="matrix(12.1,0,0,12.1,853.4,394.5)" />
<use xlink:href="#f1_q" transform="matrix(12.1,0,0,12.1,47.7,453.4)" />
<use xlink:href="#f2_15" transform="matrix(12.1,0,0,12.1,72.1,454.7)" />
<use xlink:href="#f2_l" transform="matrix(12.1,0,0,12.1,85.1,454.7)" />
<use xlink:href="#f2_b" transform="matrix(12.1,0,0,12.1,92.2,454.7)" />
<use xlink:href="#f2_k" transform="matrix(12.1,0,0,12.1,103.7,454.7)" />
<use xlink:href="#f2_c" transform="matrix(12.1,0,0,12.1,115.1,454.7)" />
<use xlink:href="#f2_b" transform="matrix(12.1,0,0,12.1,122.3,454.7)" />
<use xlink:href="#f2_k" transform="matrix(12.1,0,0,12.1,139.5,454.7)" />
<use xlink:href="#f2_s" transform="matrix(12.1,0,0,12.1,156.8,454.7)" />
<use xlink:href="#f2_r" transform="matrix(12.1,0,0,12.1,167.9,454.7)" />
<use xlink:href="#f2_16" transform="matrix(12.1,0,0,12.1,178.9,454.7)" />
<use xlink:href="#f2_b" transform="matrix(12.1,0,0,12.1,193.3,454.7)" />
<use xlink:href="#f2_q" transform="matrix(12.1,0,0,12.1,204.9,454.7)" />
<use xlink:href="#f2_s" transform="matrix(12.1,0,0,12.1,221.6,454.7)" />
<use xlink:href="#f2_l" transform="matrix(12.1,0,0,12.1,232.5,454.7)" />
<use xlink:href="#f2_7" transform="matrix(12.1,0,0,12.1,239.7,454.7)" />
<use xlink:href="#f2_1q" transform="matrix(12.1,0,0,12.1,251,454.7)" />
<use xlink:href="#f2_b" transform="matrix(12.1,0,0,12.1,256.3,454.7)" />
<use xlink:href="#f2_6" transform="matrix(12.1,0,0,12.1,267.7,454.7)" />
<use xlink:href="#f2_c" transform="matrix(12.1,0,0,12.1,278.1,454.7)" />
<use xlink:href="#f1_q" transform="matrix(12.1,0,0,12.1,47.7,513.6)" />
<use xlink:href="#f2_z" transform="matrix(12.1,0,0,12.1,72.1,514.9)" />
<use xlink:href="#f2_b" transform="matrix(12.1,0,0,12.1,84,514.9)" />
<use xlink:href="#f2_a" transform="matrix(12.1,0,0,12.1,95.5,514.9)" />
<use xlink:href="#f2_b" transform="matrix(12.1,0,0,12.1,100.8,514.9)" />
<use xlink:href="#f2_6" transform="matrix(12.1,0,0,12.1,112.4,514.9)" />
<use xlink:href="#f2_c" transform="matrix(12.1,0,0,12.1,122.6,514.9)" />
<use xlink:href="#f2_1r" transform="matrix(12.1,0,0,12.1,135.6,514.9)" />
<use xlink:href="#f2_l" transform="matrix(12.1,0,0,12.1,149.9,514.9)" />
<use xlink:href="#f2_k" transform="matrix(12.1,0,0,12.1,157.5,514.9)" />
<use xlink:href="#f2_8" transform="matrix(12.1,0,0,12.1,168.8,514.9)" />
<use xlink:href="#f2_8" transform="matrix(12.1,0,0,12.1,186.9,514.9)" />
<use xlink:href="#f2_k" transform="matrix(12.1,0,0,12.1,204.9,514.9)" />
<use xlink:href="#f2_l" transform="matrix(12.1,0,0,12.1,216.2,514.9)" />
<use xlink:href="#f2_k" transform="matrix(12.1,0,0,12.1,229.7,514.9)" />
<use xlink:href="#f2_g" transform="matrix(12.1,0,0,12.1,241,514.9)" />
<use xlink:href="#f2_y" transform="matrix(12.1,0,0,12.1,256.6,514.9)" />
<use xlink:href="#f2_1c" transform="matrix(12.1,0,0,12.1,268.5,514.9)" />
<use xlink:href="#f2_1j" transform="matrix(12.1,0,0,12.1,274.4,514.9)" />
<use xlink:href="#f1_q" transform="matrix(12.1,0,0,12.1,47.7,573.8)" />
<use xlink:href="#f2_15" transform="matrix(12.1,0,0,12.1,72.1,575.1)" />
<use xlink:href="#f2_7" transform="matrix(12.1,0,0,12.1,85.1,575.1)" />
<use xlink:href="#f2_4" transform="matrix(12.1,0,0,12.1,96.4,575.1)" />
<use xlink:href="#f2_1s" transform="matrix(12.1,0,0,12.1,108.1,575.1)" />
<use xlink:href="#f2_x" transform="matrix(12.1,0,0,12.1,119.8,575.1)" />
<use xlink:href="#f2_i" transform="matrix(12.1,0,0,12.1,131.7,575.1)" />
<use xlink:href="#f2_l" transform="matrix(12.1,0,0,12.1,143.7,575.1)" />
<use xlink:href="#f2_b" transform="matrix(12.1,0,0,12.1,150.8,575.1)" />
<use xlink:href="#f2_d" transform="matrix(12.1,0,0,12.1,168.2,575.1)" />
<use xlink:href="#f2_4" transform="matrix(12.1,0,0,12.1,173.4,575.1)" />
<use xlink:href="#f2_c" transform="matrix(12.1,0,0,12.1,185.1,575.1)" />
<use xlink:href="#f2_b" transform="matrix(12.1,0,0,12.1,192.3,575.1)" />
<use xlink:href="#f2_l" transform="matrix(12.1,0,0,12.1,203.9,575.1)" />
<use xlink:href="#f2_9" transform="matrix(12.1,0,0,12.1,211.5,575.1)" />
<use xlink:href="#f2_l" transform="matrix(12.1,0,0,12.1,223.2,575.1)" />
<use xlink:href="#f2_b" transform="matrix(12.1,0,0,12.1,230.4,575.1)" />
<use xlink:href="#f2_c" transform="matrix(12.1,0,0,12.1,241.9,575.1)" />
<use xlink:href="#f2_b" transform="matrix(12.1,0,0,12.1,249,575.1)" />
<use xlink:href="#f2_l" transform="matrix(12.1,0,0,12.1,260.6,575.1)" />
<use xlink:href="#f2_m" transform="matrix(12.1,0,0,12.1,274.2,575.1)" />
<use xlink:href="#f2_r" transform="matrix(12.1,0,0,12.1,285.8,575.1)" />
<use xlink:href="#f2_6" transform="matrix(12.1,0,0,12.1,302.7,575.1)" />
<use xlink:href="#f2_f" transform="matrix(12.1,0,0,12.1,312.9,575.1)" />
<use xlink:href="#f2_7" transform="matrix(12.1,0,0,12.1,324.6,575.1)" />
<use xlink:href="#f2_7" transform="matrix(12.1,0,0,12.1,335.9,575.1)" />
<use xlink:href="#f2_g" transform="matrix(12.1,0,0,12.1,347.4,575.1)" />
<use xlink:href="#f2_d" transform="matrix(12.1,0,0,12.1,357,575.1)" />
<use xlink:href="#f2_4" transform="matrix(12.1,0,0,12.1,362.3,575.1)" />
<use xlink:href="#f2_x" transform="matrix(12.1,0,0,12.1,374.1,575.1)" />
<use xlink:href="#f2_c" transform="matrix(12.1,0,0,12.1,391.8,575.1)" />
<use xlink:href="#f2_f" transform="matrix(12.1,0,0,12.1,398.9,575.1)" />
<use xlink:href="#f2_b" transform="matrix(12.1,0,0,12.1,410.7,575.1)" />
<use xlink:href="#f2_1c" transform="matrix(12.1,0,0,12.1,428.1,575.1)" />
<use xlink:href="#f2_b" transform="matrix(12.1,0,0,12.1,433.9,575.1)" />
<use xlink:href="#f2_v" transform="matrix(12.1,0,0,12.1,445,575.1)" />
<use xlink:href="#f2_b" transform="matrix(12.1,0,0,12.1,455.4,575.1)" />
<use xlink:href="#f2_1s" transform="matrix(12.1,0,0,12.1,472.8,575.1)" />
<use xlink:href="#f2_a" transform="matrix(12.1,0,0,12.1,484.4,575.1)" />
<use xlink:href="#f2_b" transform="matrix(12.1,0,0,12.1,489.7,575.1)" />
<use xlink:href="#f2_7" transform="matrix(12.1,0,0,12.1,507.1,575.1)" />
<use xlink:href="#f2_e" transform="matrix(12.1,0,0,12.1,518.4,575.1)" />
<use xlink:href="#f2_s" transform="matrix(12.1,0,0,12.1,530.8,575.1)" />
<use xlink:href="#f2_r" transform="matrix(12.1,0,0,12.1,541.9,575.1)" />
<use xlink:href="#f2_c" transform="matrix(12.1,0,0,12.1,552.9,575.1)" />
<use xlink:href="#f2_f" transform="matrix(12.1,0,0,12.1,560.1,575.1)" />
<use xlink:href="#f2_7" transform="matrix(12.1,0,0,12.1,571.8,575.1)" />
<use xlink:href="#f2_4" transform="matrix(12.1,0,0,12.1,583.1,575.1)" />
<use xlink:href="#f2_d" transform="matrix(12.1,0,0,12.1,600.6,575.1)" />
<use xlink:href="#f2_4" transform="matrix(12.1,0,0,12.1,606,575.1)" />
<use xlink:href="#f2_g" transform="matrix(12.1,0,0,12.1,617.7,575.1)" />
<use xlink:href="#f2_c" transform="matrix(12.1,0,0,12.1,627.5,575.1)" />
<use xlink:href="#f2_k" transform="matrix(12.1,0,0,12.1,634.5,575.1)" />
<use xlink:href="#f2_a" transform="matrix(12.1,0,0,12.1,645.9,575.1)" />
<use xlink:href="#f2_a" transform="matrix(12.1,0,0,12.1,651.1,575.1)" />
<use xlink:href="#f2_b" transform="matrix(12.1,0,0,12.1,656.4,575.1)" />
<use xlink:href="#f2_h" transform="matrix(12.1,0,0,12.1,668,575.1)" />
<use xlink:href="#f2_d" transform="matrix(12.1,0,0,12.1,685.7,575.1)" />
<use xlink:href="#f2_4" transform="matrix(12.1,0,0,12.1,691,575.1)" />
<use xlink:href="#f2_r" transform="matrix(12.1,0,0,12.1,708.6,575.1)" />
<use xlink:href="#f2_7" transform="matrix(12.1,0,0,12.1,719.6,575.1)" />
<use xlink:href="#f2_i" transform="matrix(12.1,0,0,12.1,731,575.1)" />
<use xlink:href="#f2_l" transform="matrix(12.1,0,0,12.1,742.9,575.1)" />
<use xlink:href="#f2_8" transform="matrix(12.1,0,0,12.1,756.3,575.1)" />
<use xlink:href="#f2_k" transform="matrix(12.1,0,0,12.1,774.3,575.1)" />
<use xlink:href="#f2_6" transform="matrix(12.1,0,0,12.1,785.8,575.1)" />
<use xlink:href="#f2_f" transform="matrix(12.1,0,0,12.1,796,575.1)" />
<use xlink:href="#f2_d" transform="matrix(12.1,0,0,12.1,807.7,575.1)" />
<use xlink:href="#f2_4" transform="matrix(12.1,0,0,12.1,812.9,575.1)" />
<use xlink:href="#f2_b" transform="matrix(12.1,0,0,12.1,824.7,575.1)" />
<use xlink:href="#f0_k" transform="matrix(12.1,0,0,12.1,47.7,635.3)" />
<use xlink:href="#f0_d" transform="matrix(12.1,0,0,12.1,63.4,635.3)" />
<use xlink:href="#f0_7" transform="matrix(12.1,0,0,12.1,72.5,635.3)" />
<use xlink:href="#f0_l" transform="matrix(12.1,0,0,12.1,85,635.3)" />
<use xlink:href="#f0_m" transform="matrix(12.1,0,0,12.1,96,635.3)" />
<use xlink:href="#f0_b" transform="matrix(12.1,0,0,12.1,102.3,635.3)" />
<use xlink:href="#f0_n" transform="matrix(12.1,0,0,12.1,121.1,635.3)" />
<use xlink:href="#f0_i" transform="matrix(12.1,0,0,12.1,128,635.3)" />
<use xlink:href="#f0_a" transform="matrix(12.1,0,0,12.1,141.1,635.3)" />
<use xlink:href="#f0_8" transform="matrix(12.1,0,0,12.1,152.1,635.3)" />
<use xlink:href="#f0_7" transform="matrix(12.1,0,0,12.1,160.9,635.3)" />
<use xlink:href="#f0_m" transform="matrix(12.1,0,0,12.1,173.3,635.3)" />
<use xlink:href="#f0_m" transform="matrix(12.1,0,0,12.1,179.6,635.3)" />
<use xlink:href="#f0_7" transform="matrix(12.1,0,0,12.1,185.8,635.3)" />
<use xlink:href="#f0_8" transform="matrix(12.1,0,0,12.1,198.3,635.3)" />
<use xlink:href="#f0_h" transform="matrix(12.1,0,0,12.1,207.1,635.3)" />
<use xlink:href="#f0_e" transform="matrix(12.1,0,0,12.1,213.3,635.3)" />
<use xlink:href="#f0_i" transform="matrix(12.1,0,0,12.1,226,635.3)" />
<use xlink:href="#f1_q" transform="matrix(12.1,0,0,12.1,47.7,694.2)" />
<use xlink:href="#f2_16" transform="matrix(12.1,0,0,12.1,72.1,695.4)" />
<use xlink:href="#f2_7" transform="matrix(12.1,0,0,12.1,86.3,695.4)" />
<use xlink:href="#f2_12" transform="matrix(12.1,0,0,12.1,97.8,695.4)" />
<use xlink:href="#f2_4" transform="matrix(12.1,0,0,12.1,112.9,695.4)" />
<use xlink:href="#f2_a" transform="matrix(12.1,0,0,12.1,124.6,695.4)" />
<use xlink:href="#f2_7" transform="matrix(12.1,0,0,12.1,129.9,695.4)" />
<use xlink:href="#f2_k" transform="matrix(12.1,0,0,12.1,141.2,695.4)" />
<use xlink:href="#f2_h" transform="matrix(12.1,0,0,12.1,152.7,695.4)" />
<use xlink:href="#f2_3" transform="matrix(12.1,0,0,12.1,332.3,695.4)" />
<use xlink:href="#f2_l" transform="matrix(12.1,0,0,12.1,347.1,695.4)" />
<use xlink:href="#f2_k" transform="matrix(12.1,0,0,12.1,354.7,695.4)" />
<use xlink:href="#f2_6" transform="matrix(12.1,0,0,12.1,366,695.4)" />
<use xlink:href="#f2_a" transform="matrix(12.1,0,0,12.1,376.3,695.4)" />
<use xlink:href="#f2_b" transform="matrix(12.1,0,0,12.1,381.6,695.4)" />
<use xlink:href="#f2_2" transform="matrix(12.1,0,0,12.1,560.9,695.4)" />
<use xlink:href="#f2_2" transform="matrix(12.1,0,0,12.1,572.7,695.4)" />
<use xlink:href="#f2_x" transform="matrix(12.1,0,0,12.1,584.4,695.4)" />
<use xlink:href="#f2_1n" transform="matrix(12.1,0,0,12.1,764.2,695.4)" />
<use xlink:href="#f2_v" transform="matrix(12.1,0,0,12.1,776,695.4)" />
<use xlink:href="#f2_9" transform="matrix(12.1,0,0,12.1,786.9,695.4)" />
<use xlink:href="#f2_l" transform="matrix(12.1,0,0,12.1,798.5,695.4)" />
<use xlink:href="#f2_b" transform="matrix(12.1,0,0,12.1,805.7,695.4)" />
<use xlink:href="#f2_g" transform="matrix(12.1,0,0,12.1,817.3,695.4)" />
<use xlink:href="#f2_g" transform="matrix(12.1,0,0,12.1,826.9,695.4)" />
<use xlink:href="#f2_1n" transform="matrix(12.1,0,0,12.1,1004.6,695.4)" />
<use xlink:href="#f2_h" transform="matrix(12.1,0,0,12.1,1016.2,695.4)" />
<use xlink:href="#f2_d" transform="matrix(12.1,0,0,12.1,1028.1,695.4)" />
<use xlink:href="#f2_c" transform="matrix(12.1,0,0,12.1,1033.4,695.4)" />
<use xlink:href="#f2_d" transform="matrix(12.1,0,0,12.1,1040.6,695.4)" />
<use xlink:href="#f2_7" transform="matrix(12.1,0,0,12.1,1045.9,695.4)" />
<use xlink:href="#f2_4" transform="matrix(12.1,0,0,12.1,1057.2,695.4)" />
<use xlink:href="#f2_n" transform="matrix(12.1,0,0,12.1,1068.9,695.4)" />
</g>
<g fill="#0000EE" >
<use xlink:href="#f2_f" transform="matrix(12.1,0,0,12.1,72.1,742)" />
<use xlink:href="#f2_c" transform="matrix(12.1,0,0,12.1,83.8,742)" />
<use xlink:href="#f2_c" transform="matrix(12.1,0,0,12.1,90.9,742)" />
<use xlink:href="#f2_9" transform="matrix(12.1,0,0,12.1,98,742)" />
<use xlink:href="#f2_n" transform="matrix(12.1,0,0,12.1,109.8,742)" />
<use xlink:href="#f2_1l" transform="matrix(12.1,0,0,12.1,116,742)" />
<use xlink:href="#f2_1l" transform="matrix(12.1,0,0,12.1,122.3,742)" />
<use xlink:href="#f2_12" transform="matrix(12.1,0,0,12.1,128.4,742)" />
<use xlink:href="#f2_12" transform="matrix(12.1,0,0,12.1,143.7,742)" />
<use xlink:href="#f2_12" transform="matrix(12.1,0,0,12.1,158.9,742)" />
<use xlink:href="#f2_1c" transform="matrix(12.1,0,0,12.1,172.2,742)" />
<use xlink:href="#f2_7" transform="matrix(12.1,0,0,12.1,178,742)" />
<use xlink:href="#f2_l" transform="matrix(12.1,0,0,12.1,189.4,742)" />
<use xlink:href="#f2_k" transform="matrix(12.1,0,0,12.1,197.1,742)" />
<use xlink:href="#f2_6" transform="matrix(12.1,0,0,12.1,208.5,742)" />
<use xlink:href="#f2_a" transform="matrix(12.1,0,0,12.1,218.7,742)" />
<use xlink:href="#f2_b" transform="matrix(12.1,0,0,12.1,224,742)" />
<use xlink:href="#f2_1c" transform="matrix(12.1,0,0,12.1,235.5,742)" />
<use xlink:href="#f2_6" transform="matrix(12.1,0,0,12.1,241.4,742)" />
<use xlink:href="#f2_7" transform="matrix(12.1,0,0,12.1,251.6,742)" />
<use xlink:href="#f2_8" transform="matrix(12.1,0,0,12.1,262.9,742)" />
<use xlink:href="#f2_1l" transform="matrix(12.1,0,0,12.1,280.9,742)" />
<use xlink:href="#f2_c" transform="matrix(12.1,0,0,12.1,287.2,742)" />
<use xlink:href="#f2_b" transform="matrix(12.1,0,0,12.1,294.2,742)" />
<use xlink:href="#f2_6" transform="matrix(12.1,0,0,12.1,305.8,742)" />
<use xlink:href="#f2_f" transform="matrix(12.1,0,0,12.1,316,742)" />
<use xlink:href="#f2_4" transform="matrix(12.1,0,0,12.1,327.8,742)" />
<use xlink:href="#f2_b" transform="matrix(12.1,0,0,12.1,339.5,742)" />
<use xlink:href="#f2_c" transform="matrix(12.1,0,0,12.1,351.1,742)" />
<use xlink:href="#f2_12" transform="matrix(12.1,0,0,12.1,358.1,742)" />
<use xlink:href="#f2_7" transform="matrix(12.1,0,0,12.1,373.4,742)" />
<use xlink:href="#f2_l" transform="matrix(12.1,0,0,12.1,384.7,742)" />
<use xlink:href="#f2_1a" transform="matrix(12.1,0,0,12.1,392.4,742)" />
<use xlink:href="#f2_1l" transform="matrix(12.1,0,0,12.1,403.1,742)" />
<use xlink:href="#f2_h" transform="matrix(12.1,0,0,12.1,409.4,742)" />
<use xlink:href="#f2_k" transform="matrix(12.1,0,0,12.1,421.3,742)" />
<use xlink:href="#f2_c" transform="matrix(12.1,0,0,12.1,432.7,742)" />
<use xlink:href="#f2_k" transform="matrix(12.1,0,0,12.1,439.9,742)" />
<use xlink:href="#f2_m" transform="matrix(12.1,0,0,12.1,451.2,742)" />
<use xlink:href="#f2_k" transform="matrix(12.1,0,0,12.1,463,742)" />
<use xlink:href="#f2_g" transform="matrix(12.1,0,0,12.1,474.3,742)" />
<use xlink:href="#f2_b" transform="matrix(12.1,0,0,12.1,484,742)" />
<use xlink:href="#f2_1l" transform="matrix(12.1,0,0,12.1,495.5,742)" />
<use xlink:href="#f2_h" transform="matrix(12.1,0,0,12.1,501.7,742)" />
<use xlink:href="#f2_k" transform="matrix(12.1,0,0,12.1,513.6,742)" />
<use xlink:href="#f2_c" transform="matrix(12.1,0,0,12.1,524.9,742)" />
<use xlink:href="#f2_k" transform="matrix(12.1,0,0,12.1,532.1,742)" />
<use xlink:href="#f2_m" transform="matrix(12.1,0,0,12.1,543.6,742)" />
<use xlink:href="#f2_k" transform="matrix(12.1,0,0,12.1,555.3,742)" />
<use xlink:href="#f2_g" transform="matrix(12.1,0,0,12.1,566.6,742)" />
<use xlink:href="#f2_b" transform="matrix(12.1,0,0,12.1,576.4,742)" />
<use xlink:href="#f2_1o" transform="matrix(12.1,0,0,12.1,587.8,742)" />
<use xlink:href="#f2_c" transform="matrix(12.1,0,0,12.1,594.7,742)" />
<use xlink:href="#f2_b" transform="matrix(12.1,0,0,12.1,601.7,742)" />
<use xlink:href="#f2_6" transform="matrix(12.1,0,0,12.1,613.3,742)" />
<use xlink:href="#f2_f" transform="matrix(12.1,0,0,12.1,623.5,742)" />
<use xlink:href="#f2_4" transform="matrix(12.1,0,0,12.1,635.3,742)" />
<use xlink:href="#f2_7" transform="matrix(12.1,0,0,12.1,647,742)" />
<use xlink:href="#f2_a" transform="matrix(12.1,0,0,12.1,658.3,742)" />
<use xlink:href="#f2_7" transform="matrix(12.1,0,0,12.1,663.6,742)" />
<use xlink:href="#f2_x" transform="matrix(12.1,0,0,12.1,674.9,742)" />
<use xlink:href="#f2_d" transform="matrix(12.1,0,0,12.1,686.8,742)" />
<use xlink:href="#f2_b" transform="matrix(12.1,0,0,12.1,692.1,742)" />
<use xlink:href="#f2_g" transform="matrix(12.1,0,0,12.1,703.7,742)" />
<use xlink:href="#f2_1l" transform="matrix(12.1,0,0,12.1,713.3,742)" />
<use xlink:href="#f2_b" transform="matrix(12.1,0,0,12.1,719.6,742)" />
<use xlink:href="#f2_v" transform="matrix(12.1,0,0,12.1,730.7,742)" />
<use xlink:href="#f2_9" transform="matrix(12.1,0,0,12.1,741.7,742)" />
<use xlink:href="#f2_l" transform="matrix(12.1,0,0,12.1,753.5,742)" />
<use xlink:href="#f2_b" transform="matrix(12.1,0,0,12.1,760.6,742)" />
<use xlink:href="#f2_g" transform="matrix(12.1,0,0,12.1,772.1,742)" />
<use xlink:href="#f2_g" transform="matrix(12.1,0,0,12.1,781.8,742)" />
<use xlink:href="#f2_1o" transform="matrix(12.1,0,0,12.1,791.6,742)" />
<use xlink:href="#f2_b" transform="matrix(12.1,0,0,12.1,798.3,742)" />
<use xlink:href="#f2_h" transform="matrix(12.1,0,0,12.1,809.9,742)" />
<use xlink:href="#f2_d" transform="matrix(12.1,0,0,12.1,821.8,742)" />
<use xlink:href="#f2_c" transform="matrix(12.1,0,0,12.1,827,742)" />
<use xlink:href="#f2_d" transform="matrix(12.1,0,0,12.1,834.1,742)" />
<use xlink:href="#f2_7" transform="matrix(12.1,0,0,12.1,839.5,742)" />
<use xlink:href="#f2_4" transform="matrix(12.1,0,0,12.1,850.9,742)" />
<use xlink:href="#f2_1l" transform="matrix(12.1,0,0,12.1,862.5,742)" />
<use xlink:href="#f2_h" transform="matrix(12.1,0,0,12.1,868.8,742)" />
<use xlink:href="#f2_7" transform="matrix(12.1,0,0,12.1,880.7,742)" />
<use xlink:href="#f2_12" transform="matrix(12.1,0,0,12.1,892,742)" />
<use xlink:href="#f2_4" transform="matrix(12.1,0,0,12.1,907.2,742)" />
<use xlink:href="#f2_a" transform="matrix(12.1,0,0,12.1,919,742)" />
<use xlink:href="#f2_7" transform="matrix(12.1,0,0,12.1,924.3,742)" />
<use xlink:href="#f2_k" transform="matrix(12.1,0,0,12.1,935.6,742)" />
<use xlink:href="#f2_h" transform="matrix(12.1,0,0,12.1,946.9,742)" />
<use xlink:href="#f2_g" transform="matrix(12.1,0,0,12.1,958.8,742)" />
<use xlink:href="#f2_1l" transform="matrix(12.1,0,0,12.1,968.6,742)" />
<use xlink:href="#f2_d" transform="matrix(12.1,0,0,12.1,974.8,742)" />
<use xlink:href="#f2_4" transform="matrix(12.1,0,0,12.1,980.1,742)" />
<use xlink:href="#f2_h" transform="matrix(12.1,0,0,12.1,991.7,742)" />
<use xlink:href="#f2_b" transform="matrix(12.1,0,0,12.1,1003.6,742)" />
<use xlink:href="#f2_v" transform="matrix(12.1,0,0,12.1,1015,742)" />
<use xlink:href="#f2_1c" transform="matrix(12.1,0,0,12.1,1025.9,742)" />
<use xlink:href="#f2_f" transform="matrix(12.1,0,0,12.1,1031.7,742)" />
<use xlink:href="#f2_c" transform="matrix(12.1,0,0,12.1,1043.5,742)" />
<use xlink:href="#f2_8" transform="matrix(12.1,0,0,12.1,1050.7,742)" />
<use xlink:href="#f2_a" transform="matrix(12.1,0,0,12.1,1068.5,742)" />
</g>
</g>
<path d="M72,743l1003,0" class="g2_9" />
<g clip-path="url(#c0_9)">
<g fill="#626262" >
<use xlink:href="#f1_q" transform="matrix(12.1,0,0,12.1,47.7,801.2)" />
<use xlink:href="#f2_11" transform="matrix(12.1,0,0,12.1,72.1,802.2)" />
<use xlink:href="#f2_7" transform="matrix(12.1,0,0,12.1,85.9,802.2)" />
<use xlink:href="#f2_c" transform="matrix(12.1,0,0,12.1,97.2,802.2)" />
<use xlink:href="#f2_b" transform="matrix(12.1,0,0,12.1,104.3,802.2)" />
<use xlink:href="#f2_n" transform="matrix(12.1,0,0,12.1,115.9,802.2)" />
<use xlink:href="#f2_s" transform="matrix(12.1,0,0,12.1,128,802.2)" />
<use xlink:href="#f2_a" transform="matrix(12.1,0,0,12.1,139.1,802.2)" />
<use xlink:href="#f2_b" transform="matrix(12.1,0,0,12.1,144.4,802.2)" />
<use xlink:href="#f2_k" transform="matrix(12.1,0,0,12.1,155.9,802.2)" />
<use xlink:href="#f2_g" transform="matrix(12.1,0,0,12.1,167.3,802.2)" />
<use xlink:href="#f2_b" transform="matrix(12.1,0,0,12.1,176.9,802.2)" />
<use xlink:href="#f2_l" transform="matrix(12.1,0,0,12.1,194.3,802.2)" />
<use xlink:href="#f2_b" transform="matrix(12.1,0,0,12.1,201.5,802.2)" />
<use xlink:href="#f2_e" transform="matrix(12.1,0,0,12.1,213.1,802.2)" />
<use xlink:href="#f2_b" transform="matrix(12.1,0,0,12.1,219.5,802.2)" />
<use xlink:href="#f2_l" transform="matrix(12.1,0,0,12.1,231,802.2)" />
<use xlink:href="#f2_c" transform="matrix(12.1,0,0,12.1,244.5,802.2)" />
<use xlink:href="#f2_7" transform="matrix(12.1,0,0,12.1,251.7,802.2)" />
<use xlink:href="#f2_1d" transform="matrix(12.1,0,0,12.1,268.9,802.2)" />
<use xlink:href="#f2_7" transform="matrix(12.1,0,0,12.1,284.8,802.2)" />
<use xlink:href="#f2_h" transform="matrix(12.1,0,0,12.1,296.3,802.2)" />
<use xlink:href="#f2_i" transform="matrix(12.1,0,0,12.1,308.2,802.2)" />
<use xlink:href="#f2_a" transform="matrix(12.1,0,0,12.1,320.1,802.2)" />
<use xlink:href="#f2_b" transform="matrix(12.1,0,0,12.1,325.3,802.2)" />
<use xlink:href="#f2_2" transform="matrix(12.1,0,0,12.1,342.7,802.2)" />
<use xlink:href="#f2_k" transform="matrix(12.1,0,0,12.1,360.2,802.2)" />
<use xlink:href="#f2_4" transform="matrix(12.1,0,0,12.1,371.7,802.2)" />
<use xlink:href="#f2_h" transform="matrix(12.1,0,0,12.1,383.4,802.2)" />
<use xlink:href="#f2_1d" transform="matrix(12.1,0,0,12.1,401.1,802.2)" />
<use xlink:href="#f2_7" transform="matrix(12.1,0,0,12.1,417.1,802.2)" />
<use xlink:href="#f2_h" transform="matrix(12.1,0,0,12.1,428.4,802.2)" />
<use xlink:href="#f2_i" transform="matrix(12.1,0,0,12.1,440.3,802.2)" />
<use xlink:href="#f2_a" transform="matrix(12.1,0,0,12.1,452.2,802.2)" />
<use xlink:href="#f2_b" transform="matrix(12.1,0,0,12.1,457.6,802.2)" />
<use xlink:href="#f2_t" transform="matrix(12.1,0,0,12.1,474.9,802.2)" />
<use xlink:href="#f2_e" transform="matrix(12.1,0,0,12.1,492.5,802.2)" />
<use xlink:href="#f2_7" transform="matrix(12.1,0,0,12.1,498.9,802.2)" />
<use xlink:href="#f2_l" transform="matrix(12.1,0,0,12.1,510.2,802.2)" />
<use xlink:href="#f2_e" transform="matrix(12.1,0,0,12.1,523.8,802.2)" />
<use xlink:href="#f2_i" transform="matrix(12.1,0,0,12.1,530.2,802.2)" />
<use xlink:href="#f2_l" transform="matrix(12.1,0,0,12.1,542.1,802.2)" />
<use xlink:href="#f2_c" transform="matrix(12.1,0,0,12.1,549.8,802.2)" />
<use xlink:href="#f2_f" transform="matrix(12.1,0,0,12.1,556.9,802.2)" />
<use xlink:href="#f2_b" transform="matrix(12.1,0,0,12.1,568.6,802.2)" />
<use xlink:href="#f2_l" transform="matrix(12.1,0,0,12.1,580.2,802.2)" />
<use xlink:href="#f2_h" transform="matrix(12.1,0,0,12.1,593.8,802.2)" />
<use xlink:href="#f2_b" transform="matrix(12.1,0,0,12.1,605.7,802.2)" />
<use xlink:href="#f2_c" transform="matrix(12.1,0,0,12.1,617.1,802.2)" />
<use xlink:href="#f2_k" transform="matrix(12.1,0,0,12.1,624.3,802.2)" />
<use xlink:href="#f2_d" transform="matrix(12.1,0,0,12.1,635.6,802.2)" />
<use xlink:href="#f2_a" transform="matrix(12.1,0,0,12.1,640.9,802.2)" />
<use xlink:href="#f2_g" transform="matrix(12.1,0,0,12.1,646.2,802.2)" />
<use xlink:href="#f2_7" transform="matrix(12.1,0,0,12.1,661.8,802.2)" />
<use xlink:href="#f2_4" transform="matrix(12.1,0,0,12.1,673.1,802.2)" />
<use xlink:href="#f2_s" transform="matrix(12.1,0,0,12.1,690.6,802.2)" />
<use xlink:href="#f2_r" transform="matrix(12.1,0,0,12.1,701.9,802.2)" />
<use xlink:href="#f2_c" transform="matrix(12.1,0,0,12.1,712.9,802.2)" />
<use xlink:href="#f2_f" transform="matrix(12.1,0,0,12.1,720.1,802.2)" />
<use xlink:href="#f2_7" transform="matrix(12.1,0,0,12.1,731.7,802.2)" />
<use xlink:href="#f2_4" transform="matrix(12.1,0,0,12.1,743.1,802.2)" />
<use xlink:href="#f2_k" transform="matrix(12.1,0,0,12.1,760.7,802.2)" />
<use xlink:href="#f2_4" transform="matrix(12.1,0,0,12.1,772,802.2)" />
<use xlink:href="#f2_h" transform="matrix(12.1,0,0,12.1,783.7,802.2)" />
<use xlink:href="#f2_3" transform="matrix(12.1,0,0,12.1,801.6,802.2)" />
<use xlink:href="#f2_l" transform="matrix(12.1,0,0,12.1,816.1,802.2)" />
<use xlink:href="#f2_k" transform="matrix(12.1,0,0,12.1,823.8,802.2)" />
<use xlink:href="#f2_6" transform="matrix(12.1,0,0,12.1,835.1,802.2)" />
<use xlink:href="#f2_a" transform="matrix(12.1,0,0,12.1,845.5,802.2)" />
<use xlink:href="#f2_b" transform="matrix(12.1,0,0,12.1,850.7,802.2)" />
<use xlink:href="#f2_u" transform="matrix(12.1,0,0,12.1,868.1,802.2)" />
<use xlink:href="#f2_4" transform="matrix(12.1,0,0,12.1,873.4,802.2)" />
<use xlink:href="#f2_g" transform="matrix(12.1,0,0,12.1,885.2,802.2)" />
<use xlink:href="#f2_c" transform="matrix(12.1,0,0,12.1,894.9,802.2)" />
<use xlink:href="#f2_k" transform="matrix(12.1,0,0,12.1,902,802.2)" />
<use xlink:href="#f2_a" transform="matrix(12.1,0,0,12.1,913.4,802.2)" />
<use xlink:href="#f2_a" transform="matrix(12.1,0,0,12.1,918.7,802.2)" />
<use xlink:href="#f2_k" transform="matrix(12.1,0,0,12.1,923.9,802.2)" />
<use xlink:href="#f2_c" transform="matrix(12.1,0,0,12.1,935.3,802.2)" />
<use xlink:href="#f2_d" transform="matrix(12.1,0,0,12.1,942.4,802.2)" />
<use xlink:href="#f2_7" transform="matrix(12.1,0,0,12.1,947.7,802.2)" />
<use xlink:href="#f2_4" transform="matrix(12.1,0,0,12.1,959.1,802.2)" />
<use xlink:href="#f2_1c" transform="matrix(12.1,0,0,12.1,970.7,802.2)" />
</g>
</g>
<defs>
	<path d="M585.1,594.3c0,0,84.1,0,129.9,39.7c0,0,45.8,41.3,45.8,116.1c0,0,0,74.9,-45.8,114.6c0,0,-45.8,39.7,-129.9,39.7l-158.8,0l0,-310.1ZM139,0l0,1113.8l476.7,0c0,0,212.4,0,325.4,-94.8c0,0,114.6,-94.7,114.6,-268.9c0,0,0,-175.7,-113.1,-270.4c0,0,-114.5,-94.7,-326.9,-94.7l-189.4,0l0,-385Z" 
	id="f0_c"
	transform="scale(0.001,-0.001)" />

	<path d="M152.8,-328.4l0,174.2l82.5,0c0,0,68.7,0,99.3,21.4c0,0,30.5,22.9,47.3,77.9l7.7,24.4L18.3,834.2l267.4,0L508.8,267.4L699.7,834.2l267.4,0L615.7,-77.8c0,0,-51.9,-140.6,-122.2,-195.6c0,0,-71.8,-55,-186.4,-55Z" 
	id="f0_4"
	transform="scale(0.001,-0.001)" />

	<path d="M443.1,0c0,0,-158.9,0,-224.6,65.7c0,0,-65.7,65.7,-65.7,223.1l0,354.4l-132.9,0l0,191l132.9,0l0,238.3l265.8,0l0,-238.3l276.5,0l0,-191l-276.5,0l0,-354.4c0,0,0,-58.1,22.9,-78c0,0,24.5,-21.4,93.2,-21.4l136,0L670.7,0Z" 
	id="f0_8"
	transform="scale(0.001,-0.001)" />

	<path d="M126.8,0l0,1159.6l267.4,0l0,-447.7c0,0,61.1,73.4,128.3,108.5c0,0,68.8,35.2,149.7,35.2c0,0,145.2,0,220,-88.7c0,0,74.9,-90.1,74.9,-258.1L967.1,0L699.7,0l0,82.5l0,304c0,0,0,110,-4.6,151.3c0,0,-6.1,41.2,-18.3,61.1c0,0,-15.3,26,-41.2,39.7c0,0,-27.5,15.3,-62.7,15.3c0,0,-82.5,0,-129.8,-64.2c0,0,-48.9,-65.7,-48.9,-178.7l0,-411Z" 
	id="f0_3"
	transform="scale(0.001,-0.001)" />

	<path d="M525.6,168.1c0,0,87,0,132.9,64.1c0,0,45.8,64.2,45.8,183.4c0,0,0,120.7,-45.8,184.8c0,0,-45.9,64.2,-132.9,64.2c0,0,-88.7,0,-134.5,-64.2c0,0,-47.3,-64.1,-47.3,-184.8c0,0,0,-119.2,45.8,-183.4c0,0,47.3,-64.1,136,-64.1Zm0,-189.4c0,0,-217,0,-339.2,116c0,0,-122.2,116.1,-122.2,320.9c0,0,0,206.2,122.2,322.3c0,0,122.2,117.7,339.2,117.7c0,0,215.4,0,336.1,-116.2c0,0,122.2,-117.6,122.2,-323.8c0,0,0,-204.8,-120.7,-320.9c0,0,-122.2,-116,-337.6,-116Z" 
	id="f0_e"
	transform="scale(0.001,-0.001)" />

	<path d="M126.8,0l0,834.2l267.4,0l0,-122.3c0,0,61.1,73.4,128.3,108.5c0,0,68.8,35.2,149.7,35.2c0,0,145.2,0,220,-88.7c0,0,74.9,-90.1,74.9,-258.1L967.1,0L699.7,0l0,82.5l0,305.6c0,0,0,108.4,-4.6,149.7c0,0,-6.1,41.2,-18.3,61.1c0,0,-15.3,26,-41.2,39.7c0,0,-27.5,15.3,-62.7,15.3c0,0,-82.5,0,-129.8,-64.2c0,0,-48.9,-65.7,-48.9,-178.7l0,-411Z" 
	id="f0_i"
	transform="scale(0.001,-0.001)" />

	<path d="M139,0l0,1113l287,0L426,0Z" 
	id="f0_n"
	transform="scale(0.001,-0.001)" />

	<path d="M444.6,-21.3c0,0,-84,0,-171.1,12.2c0,0,-88.6,12.2,-181.8,39.7l0,201.6c0,0,79.4,-38.2,163.4,-56.5c0,0,84.1,-19.9,169.6,-19.9c0,0,79.5,0,117.7,21.4c0,0,39.7,21.4,39.7,64.2c0,0,0,35.1,-26,51.9c0,0,-27.5,18.4,-110,27.5l-45.8,6.1c0,0,-178.8,23,-250.6,82.5c0,0,-71.8,61.2,-71.8,184.9c0,0,0,132.9,90.2,197.1c0,0,91.6,64.2,279.5,64.2c0,0,74.9,0,155.9,-10.7c0,0,80.9,-12.3,177.2,-36.7l0,-203.2c0,0,-85.6,36.7,-165,53.5c0,0,-81,18.3,-151.3,18.3c0,0,-76.3,0,-113,-18.3c0,0,-36.7,-19.9,-36.7,-58.1c0,0,0,-32.1,27.5,-48.9c0,0,27.5,-18.3,100.9,-25.9l45.8,-7.7c0,0,206.2,-26,276.5,-85.5c0,0,70.3,-59.6,70.3,-186.4c0,0,0,-134.5,-97.8,-200.2c0,0,-99.3,-67.1,-293.3,-67.1Z" 
	id="f0_a"
	transform="scale(0.001,-0.001)" />

	<path d="M462.9,155.8c0,0,74.9,0,125.3,53.5c0,0,51.9,53.5,51.9,136l0,30.5l-137.5,0c0,0,-84,0,-125.2,-29c0,0,-42.8,-29,-42.8,-84c0,0,0,-50.4,33.6,-77.9c0,0,33.6,-29.1,94.7,-29.1ZM356,-21.3c0,0,-129.9,0,-210.9,74.8c0,0,-80.9,74.8,-80.9,197.1c0,0,0,146.6,100.8,215.4c0,0,102.4,68.7,317.8,68.7l157.3,0l0,19.9c0,0,0,64.2,-48.8,93.2c0,0,-50.5,29,-155.9,29c0,0,-85.5,0,-158.9,-16.8c0,0,-74.8,-16.8,-139,-51.9l0,204.7c0,0,85.6,19.8,172.6,30.5c0,0,87.1,12.3,172.7,12.3c0,0,226.1,0,326.9,-88.7c0,0,100.9,-90.1,100.9,-290.2L910.6,0L640.1,0l0,123.8c0,0,-53.4,-76.4,-120.7,-110c0,0,-67.2,-35.1,-163.4,-35.1Z" 
	id="f0_7"
	transform="scale(0.001,-0.001)" />

	<path d="M126,0l0,1159l268,0L394,0Z" 
	id="f0_m"
	transform="scale(0.001,-0.001)" />

	<path d="M126,0l0,834l268,0L394,0Zm0,942l0,217l268,0l0,-217Z" 
	id="f0_h"
	transform="scale(0.001,-0.001)" />

	<path d="M519.4,171.1c0,0,85.6,0,131.4,62.7c0,0,45.9,62.6,45.9,181.8c0,0,0,120.7,-45.9,183.3c0,0,-45.8,62.6,-131.4,62.6c0,0,-84,0,-128.3,-62.6c0,0,-45.8,-62.6,-45.8,-183.3c0,0,0,-119.2,44.3,-181.8c0,0,45.8,-62.7,129.8,-62.7ZM420.1,-21.3c0,0,-154.3,0,-253.6,122.1c0,0,-99.3,122.3,-99.3,314.8c0,0,0,194,99.3,316.2c0,0,99.3,123.8,253.6,123.8c0,0,87.1,0,152.8,-35.2c0,0,67.2,-35.1,123.8,-108.5l0,447.7l267.3,0L964,0L696.7,0l0,120.7c0,0,-56.6,-74.9,-122.3,-108.5c0,0,-65.6,-33.5,-154.3,-33.5Z" 
	id="f0_r"
	transform="scale(0.001,-0.001)" />

	<path d="M530.1,216.9c0,0,175.7,0,267.4,87.1c0,0,93.2,87.1,93.2,253.6c0,0,0,165,-91.7,250.6c0,0,-93.2,87.1,-268.9,87.1l-103.8,0l0,-678.4ZM139,0l0,1113.8l304.1,0c0,0,253.6,0,377.3,-36.7c0,0,123.8,-36.7,212.4,-122.2c0,0,79.4,-76.4,116.1,-174.2c0,0,38.2,-99.3,38.2,-223.1c0,0,0,-126.8,-36.7,-224.5c0,0,-38.2,-99.3,-117.6,-174.2c0,0,-88.6,-87.1,-213.9,-122.2C818.9,36.7,693.6,0,443.1,0Z" 
	id="f0_6"
	transform="scale(0.001,-0.001)" />

	<path d="M687.5,508.8c0,0,0,74.8,-44.3,120.6c0,0,-44.3,47.4,-116.1,47.4c0,0,-77.9,0,-126.8,-42.8c0,0,-48.9,-44.3,-59.6,-125.2ZM542.4,-21.3c0,0,-226.1,0,-351.4,114.5c0,0,-126.8,114.6,-126.8,322.4c0,0,0,204.7,123.7,322.3c0,0,123.8,117.7,340.7,117.7c0,0,197.1,0,314.7,-119.2c0,0,117.7,-119.2,117.7,-317.8l0,-74.8l-623.4,0c0,0,9.2,-94.8,67.3,-140.6c0,0,58,-47.4,163.4,-47.4c0,0,84.1,0,171.1,24.5c0,0,88.7,24.4,183.4,74.8l0,-204.7c0,0,-96.3,-36.6,-191,-53.4c0,0,-94.7,-18.3,-189.4,-18.3Z" 
	id="f0_b"
	transform="scale(0.001,-0.001)" />

	<path d="M349.9,0L22.9,834.2l265.9,0L498.1,256.7L704.3,834.2l268.9,0L643.2,0Z" 
	id="f0_u"
	transform="scale(0.001,-0.001)" />

	<path d="M414,-21.3c0,0,-143.6,0,-218.4,88.5c0,0,-76.4,88.6,-76.4,256.7l0,510.3l267.3,0l0,-82.5c0,0,0,-68.8,0,-171.1c0,0,-1.5,-102.4,-1.5,-136c0,0,0,-100.8,4.6,-145.2c0,0,6.1,-45.8,19.8,-65.6c0,0,15.3,-26,41.3,-39.8c0,0,27.5,-13.7,61.1,-13.7c0,0,84,0,131.4,64.1c0,0,48.9,64.2,48.9,177.3l0,412.5l265.8,0L957.9,0L692.1,0l0,120.7c0,0,-61.1,-73.3,-128.3,-106.9c0,0,-67.3,-35.1,-149.8,-35.1Z" 
	id="f0_q"
	transform="scale(0.001,-0.001)" />

	<path d="M571.4,171.1c0,0,87.1,0,131.4,62.7c0,0,45.8,62.6,45.8,181.8c0,0,0,120.7,-44.3,183.3c0,0,-45.8,62.6,-132.9,62.6c0,0,-85.6,0,-131.4,-62.6c0,0,-45.8,-64.2,-45.8,-183.3c0,0,0,-117.7,45.8,-180.3c0,0,45.8,-64.2,131.4,-64.2ZM126.8,-317.7l0,1151.9l267.4,0l0,-122.3c0,0,55,73.4,122.2,108.5c0,0,67.2,35.2,154.3,35.2c0,0,155.8,0,253.6,-122.3c0,0,99.3,-123.7,99.3,-317.7c0,0,0,-192.5,-97.8,-314.8c0,0,-99.3,-122.1,-255.1,-122.1c0,0,-87.1,0,-154.3,33.5c0,0,-67.2,35.2,-122.2,108.5l0,-438.4Z" 
	id="f0_v"
	transform="scale(0.001,-0.001)" />

	<path d="M264.3,297.9c0,0,-42.8,0,-79.4,16.8c0,0,-36.7,16.8,-64.2,44.3c0,0,-29,29.1,-44.3,67.3c0,0,-16.8,38.1,-16.8,82.5c0,0,0,41.2,15.3,77.9c0,0,16.8,38.2,44.3,65.7c0,0,29,27.5,65.7,42.7c0,0,36.6,16.8,79.4,16.8c0,0,42.8,0,81,-15.2c0,0,38.2,-16.8,65.7,-44.3c0,0,29,-27.5,45.8,-64.2c0,0,16.8,-38.2,16.8,-79.4c0,0,0,-44.4,-16.8,-82.5c0,0,-16.8,-38.2,-44.3,-65.7c0,0,-29,-29.1,-67.2,-45.9c0,0,-38.2,-16.8,-81,-16.8Z" 
	id="f1_q"
	transform="scale(0.001,-0.001)" />

	<path d="M481.3,123.8c0,0,230.6,0,337.6,103.8c0,0,106.9,103.9,106.9,330c0,0,0,223.1,-106.9,327c0,0,-107,103.9,-337.6,103.9l-181.9,0l0,-864.7ZM149.7,0l0,1113.8l308.6,0c0,0,323.9,0,475.2,-134.5c0,0,151.2,-136,151.2,-421.7c0,0,0,-288.7,-151.2,-423.2C933.5,134.4,780.7,0,458.3,0Z" 
	id="f2_16"
	transform="scale(0.001,-0.001)" />

	<path d="M467.5,94.7c0,0,108.5,0,172.6,85.6c0,0,64.2,87.1,64.2,235.3c0,0,0,149.7,-64.2,235.2c0,0,-64.1,87.1,-172.6,87.1c0,0,-111.5,0,-175.7,-85.5c0,0,-64.2,-85.6,-64.2,-236.8c0,0,0,-149.8,64.2,-235.3c0,0,64.2,-85.6,175.7,-85.6Zm0,-116c0,0,-180.3,0,-281.1,116C186.4,94.7,84,210.8,84,415.6c0,0,0,206.2,100.9,322.3c0,0,102.3,117.7,282.6,117.7c0,0,178.8,0,281.1,-116.2c0,0,102.4,-117.6,102.4,-323.8c0,0,0,-204.8,-102.4,-320.9c0,0,-102.3,-116,-281.1,-116Z" 
	id="f2_7"
	transform="scale(0.001,-0.001)" />

	<path d="M282.6,0L62.6,834.2l137.5,0L372.8,183.3L542.4,834.2l161.9,0L876.9,183.3l171.2,650.9l135.9,0L965.6,0l-162,0L624.9,684.4L444.6,0Z" 
	id="f2_12"
	transform="scale(0.001,-0.001)" />

	<path d="M137.5,0l0,834.2l139,0l0,-129.9c0,0,48.9,76.4,114.6,113.1c0,0,67.2,38.2,154.3,38.2c0,0,145.2,0,218.5,-88.7c0,0,73.3,-90.1,73.3,-262.7L837.2,0L699.7,0l0,499.6c0,0,0,117.6,-45.8,175.7c0,0,-45.8,59.6,-139,59.6c0,0,-110,0,-174.2,-70.3c0,0,-64.2,-70.3,-64.2,-192.5L276.5,0Z" 
	id="f2_4"
	transform="scale(0.001,-0.001)" />

	<path d="M143,0l0,1159l138,0L281,0Z" 
	id="f2_a"
	transform="scale(0.001,-0.001)" />

	<path d="M407.9,93.2c0,0,113.1,0,181.8,79.4c0,0,70.3,81,70.3,215.5l0,30.5l-137.5,0c0,0,-166.5,0,-230.7,-36.7c0,0,-64.2,-38.1,-64.2,-129.8c0,0,0,-73.3,47.4,-116.1c0,0,48.9,-42.8,132.9,-42.8ZM371.3,-21.3c0,0,-128.4,0,-203.2,71.7c0,0,-76.4,71.8,-76.4,192.5c0,0,0,140.6,93.2,212.4c0,0,94.7,71.8,282.6,71.8l192.5,0l0,13.7c0,0,0,94.8,-62.6,145.2c0,0,-62.7,51.9,-175.7,51.9c0,0,-71.8,0,-139.1,-16.8c0,0,-67.2,-16.8,-129.8,-51.9l0,126.8c0,0,74.8,30.5,145.1,44.3c0,0,71.8,15.3,139,15.3c0,0,180.3,0,268.9,-93.2c0,0,90.2,-94.8,90.2,-285.7L796,0L660,0l0,126.8c0,0,-47.4,-76.4,-117.6,-111.5c0,0,-70.3,-36.6,-171.1,-36.6Z" 
	id="f2_k"
	transform="scale(0.001,-0.001)" />

	<path d="M458.3,93.2c0,0,110,0,172.7,85.6c0,0,62.6,85.5,62.6,236.8c0,0,0,152.7,-62.6,238.3c0,0,-62.7,85.5,-172.7,85.5c0,0,-108.4,0,-171.1,-85.5c0,0,-62.6,-85.6,-62.6,-238.3c0,0,0,-151.3,62.6,-236.8c0,0,62.7,-85.6,171.1,-85.6ZM424.7,-21.3c0,0,-151.2,0,-245.9,120.6C178.8,99.3,84,220,84,415.6c0,0,0,197,94.8,317.7c0,0,94.7,122.3,245.9,122.3c0,0,93.2,0,158.9,-36.7c0,0,65.7,-36.7,110,-111.5l0,452.2l136,0L829.6,0l-136,0l0,125.3c0,0,-44.3,-74.9,-110,-110c0,0,-65.7,-36.6,-158.9,-36.6Z" 
	id="f2_h"
	transform="scale(0.001,-0.001)" />

	<path d="M149,0l0,1113l150,0L299,0Z" 
	id="f2_u"
	transform="scale(0.001,-0.001)" />

	<path d="M375.8,-21.3c0,0,-67.2,0,-140.5,12.2c0,0,-73.4,12.2,-152.8,39.7l0,140.5c0,0,76.4,-39.7,149.7,-58c0,0,73.4,-19.9,146.7,-19.9c0,0,96.2,0,148.2,32.1c0,0,51.9,33.6,51.9,94.7c0,0,0,55,-36.6,84c0,0,-38.2,30.6,-165,58.1l-48.9,12.2c0,0,-126.8,26,-183.4,81c0,0,-56.5,56.5,-56.5,152.8c0,0,0,119.1,82.5,183.3c0,0,84,64.2,238.3,64.2c0,0,74.9,0,142.1,-10.7c0,0,67.3,-12.3,123.8,-35.2l0,-129.8c0,0,-58.1,30.5,-120.7,44.3c0,0,-62.7,15.2,-129.9,15.2c0,0,-102.3,0,-152.8,-30.5c0,0,-50.4,-32.1,-50.4,-94.7c0,0,0,-47.4,35.2,-74.9c0,0,36.6,-27.5,148.2,-51.9l45.8,-10.7c0,0,146.7,-30.6,207.8,-87.1c0,0,62.6,-58.1,62.6,-160.4c0,0,0,-116.1,-91.7,-183.4c0,0,-93.1,-67.1,-253.6,-67.1Z" 
	id="f2_g"
	transform="scale(0.001,-0.001)" />

	<path d="M420.1,0c0,0,-158.8,0,-218.4,58.1c0,0,-61.1,59.5,-61.1,216.9l0,453.8l-100.9,0l0,105.4l100.9,0l0,238.3l139,0l0,-238.3l282.6,0l0,-105.4l-282.6,0l0,-453.8c0,0,0,-102.4,27.5,-131.4c0,0,27.5,-29,113,-29l142.1,0L562.2,0Z" 
	id="f2_c"
	transform="scale(0.001,-0.001)" />

	<path d="M488.9,571.4c0,0,105.4,0,161.9,53.5c0,0,58.1,55,58.1,155.8c0,0,0,99.3,-56.5,152.8c0,0,-58.1,55,-163.5,55l-189.5,0l0,-417.1ZM149.7,0l0,1113.8l339.2,0c0,0,187.9,0,282.6,-84.1c0,0,96.3,-85.5,96.3,-249c0,0,0,-165,-94.7,-249c0,0,-96.3,-85.6,-284.2,-85.6l-189.5,0L299.4,0Z" 
	id="f2_s"
	transform="scale(0.001,-0.001)" />

	<path d="M120.7,-317.7l0,116.1l79.4,0c0,0,56.6,0,87.1,26c0,0,32.1,27.5,70.3,126.8l24.4,61L44.3,834.2l145.1,0L450.7,181.8L711.9,834.2l146.7,0L490.4,-76.3c0,0,-58,-149.7,-113,-195.5c0,0,-55,-45.9,-148.2,-45.9Z" 
	id="f2_r"
	transform="scale(0.001,-0.001)" />

	<path d="M137.5,0l0,1159.6l139,0l0,-455.3c0,0,48.9,76.4,114.6,113.1c0,0,67.2,38.2,154.3,38.2c0,0,145.2,0,218.5,-88.7c0,0,73.3,-90.1,73.3,-262.7L837.2,0L699.7,0l0,499.6c0,0,0,117.6,-45.8,175.7c0,0,-45.8,59.6,-139,59.6c0,0,-110,0,-174.2,-70.3c0,0,-64.2,-70.3,-64.2,-192.5L276.5,0Z" 
	id="f2_f"
	transform="scale(0.001,-0.001)" />

	<path d="M412.5,-21.3c0,0,-68.7,0,-143.6,12.2c0,0,-74.9,13.7,-152.8,41.2l0,146.7c0,0,62.7,-36.7,136,-55c0,0,74.8,-19.9,157.3,-19.9c0,0,140.6,0,215.5,56.5c0,0,74.8,56.5,74.8,162c0,0,0,99.3,-68.7,154.3c0,0,-70.3,56.5,-192.5,56.5l-129.9,0l0,123.7l136,0c0,0,110,0,168,44.4c0,0,59.6,44.3,59.6,126.8c0,0,0,87,-59.6,132.9c0,0,-61.1,45.8,-174.1,45.8c0,0,-62.7,0,-132.9,-13.7c0,0,-71.8,-13.8,-155.9,-41.3l0,132.9c0,0,85.6,24.5,160.4,36.7c0,0,74.9,12.2,140.6,12.2c0,0,172.6,0,271.9,-77.9c0,0,100.9,-77.9,100.9,-210.8c0,0,0,-93.2,-53.5,-155.9c0,0,-53.5,-64.1,-151.2,-88.6c0,0,108.4,-24.4,169.5,-96.2c0,0,61.1,-73.4,61.1,-181.8c0,0,0,-163.5,-113,-253.6c0,0,-114.6,-90.1,-323.9,-90.1Z" 
	id="f2_y"
	transform="scale(0.001,-0.001)" />

	<path d="M161,0l0,189l158,0L319,0Z" 
	id="f2_1c"
	transform="scale(0.001,-0.001)" />

	<path d="M411,-21.3c0,0,-70.3,0,-143.6,10.7c0,0,-73.4,12.1,-149.8,36.6l0,151.2c0,0,67.3,-36.6,137.5,-55c0,0,71.8,-18.3,152.8,-18.3c0,0,128.4,0,203.2,67.2c0,0,76.4,68.8,76.4,184.9c0,0,0,117.6,-74.9,184.8c0,0,-76.3,67.3,-204.7,67.3c0,0,-61.1,0,-120.7,-12.3c0,0,-61.1,-13.7,-123.7,-42.7l0,560.7l592.8,0l0,-128.4l-453.8,0l0,-271.9c0,0,32.1,10.7,64.2,15.3c0,0,33.6,6.1,67.2,6.1c0,0,186.4,0,294.9,-100.9c0,0,108.4,-102.3,108.4,-278c0,0,0,-178.8,-111.5,-278.1c0,0,-111.5,-99.2,-314.7,-99.2Z" 
	id="f2_14"
	transform="scale(0.001,-0.001)" />

	<path d="M178,0l0,189l158,0L336,0Zm0,600l0,189l158,0l0,-189Z" 
	id="f2_n"
	transform="scale(0.001,-0.001)" />

	<path d="M508.8,93.2c0,0,110,0,171.1,85.6c0,0,62.6,85.5,62.6,236.8c0,0,0,152.7,-61.1,238.3c0,0,-62.6,85.5,-172.6,85.5c0,0,-108.5,0,-169.6,-85.5c0,0,-62.7,-85.6,-62.7,-238.3c0,0,0,-151.3,61.1,-236.8c0,0,62.7,-85.6,171.2,-85.6ZM137.5,-317.7l0,1151.9l139,0l0,-126.8c0,0,42.8,74.8,108.5,111.5c0,0,65.7,36.7,157.4,36.7c0,0,152.7,0,247.5,-120.7c0,0,96.2,-122.3,96.2,-319.3c0,0,0,-195.6,-94.7,-316.3c0,0,-96.3,-120.6,-249,-120.6c0,0,-91.7,0,-157.4,35.1c0,0,-65.7,36.6,-108.5,111.5l0,-443Z" 
	id="f2_9"
	transform="scale(0.001,-0.001)" />

	<path d="M0,-140.5L386.5,1113.8l126.8,0L126.8,-140.5Z" 
	id="f2_1l"
	transform="scale(0.001,-0.001)" />

	<path d="M137.5,0l0,834.2l139,0l0,-129.9c0,0,42.8,76.4,111.6,113.1c0,0,70.2,38.2,169.5,38.2c0,0,13.8,0,30.6,-1.6c0,0,16.8,-3,38.2,-6.1l1.5,-142.1c0,0,-24.4,13.8,-50.4,19.9c0,0,-27.5,6.1,-61.1,6.1c0,0,-116.1,0,-177.2,-74.9c0,0,-62.7,-76.3,-62.7,-216.9l0,-440Z" 
	id="f2_l"
	transform="scale(0.001,-0.001)" />

	<path d="M458.3,114.6c0,0,111.6,0,172.7,81c0,0,62.6,82.5,62.6,230.7c0,0,0,149.7,-61.1,230.6c0,0,-62.6,82.5,-174.2,82.5c0,0,-110,0,-171.1,-80.9c0,0,-62.6,-82.5,-62.6,-232.2c0,0,0,-148.2,61.1,-229.2c0,0,62.6,-82.5,172.6,-82.5ZM444.6,-317.7c0,0,-71.8,0,-136,10.7c0,0,-64.2,12.2,-123.7,33.6l0,134.5c0,0,59.5,-33.6,117.6,-48.9c0,0,59.6,-15.3,120.7,-15.3c0,0,136,0,203.2,70.3c0,0,67.2,70.3,67.2,210.7l0,68.8c0,0,-42.8,-74.9,-108.5,-110C585.1,36.7,517.9,0,424.7,0c0,0,-152.8,0,-245.9,116.1c0,0,-94.8,117.7,-94.8,310.2c0,0,0,194,93.2,311.6c0,0,94.7,117.7,247.5,117.7c0,0,93.2,0,158.9,-36.7c0,0,67.2,-36.7,110,-111.5l0,126.8l136,0l0,-731.8c0,0,0,-210.8,-94.7,-314.7c0,0,-94.8,-105.4,-290.3,-105.4Z" 
	id="f2_x"
	transform="scale(0.001,-0.001)" />

	<path d="M230.7,490.4l490.4,1.5c0,0,-1.5,111.6,-62.6,178.8c0,0,-62.7,67.2,-163.5,67.2c0,0,-114.6,0,-183.3,-64.1c0,0,-70.3,-65.7,-81,-183.4ZM516.4,-21.3c0,0,-198.6,0,-314.7,116C201.7,94.7,84,210.8,84,409.4c0,0,0,204.8,110,325.5c0,0,111.6,120.7,299.5,120.7c0,0,168,0,265.8,-108.5c0,0,99.3,-110,99.3,-296.4l0,-67.2l-632.5,0c0,0,9.2,-140.6,85.6,-213.9c0,0,76.4,-74.9,213.9,-74.9c0,0,77.9,0,152.7,18.4c0,0,74.9,19.8,148.2,58l0,-129.8c0,0,-74.8,-30.6,-151.2,-45.8c0,0,-77.9,-16.8,-158.9,-16.8Z" 
	id="f2_b"
	transform="scale(0.001,-0.001)" />

	<path d="M357.5,0L44.3,834.2l145.1,0L450.7,132.9L711.9,834.2l146.7,0L543.9,0Z" 
	id="f2_q"
	transform="scale(0.001,-0.001)" />

	<path d="M-13,-359l0,106l790,0l0,-106Z" 
	id="f2_w"
	transform="scale(0.001,-0.001)" />

	<path d="M484.3,96.3c0,0,108.5,0,169.6,58c0,0,62.6,58.1,62.6,158.9c0,0,0,99.3,-61.1,157.4c0,0,-62.6,58,-171.1,58c0,0,-106.9,0,-168,-58c0,0,-62.7,-58.1,-62.7,-157.4c0,0,0,-100.8,61.1,-158.9c0,0,62.7,-58,169.6,-58Zm0,550c0,0,97.8,0,152.8,48.8c0,0,55,48.9,55,134.5c0,0,0,87.1,-55,136c0,0,-55,48.8,-152.8,48.8c0,0,-97.8,0,-151.2,-48.8c0,0,-53.5,-48.9,-53.5,-136c0,0,0,-85.6,53.5,-134.5c0,0,53.4,-48.8,151.2,-48.8Zm0,-667.6c0,0,-183.3,0,-282.6,85.5c0,0,-99.3,87.1,-99.3,249c0,0,0,105.4,61.1,178.7c0,0,61.1,74.9,171.1,100.9c0,0,-97.8,22.9,-151.3,88.6c0,0,-55,67.2,-55,163.5c0,0,0,132.9,94.8,210.8c0,0,96.2,77.9,261.2,77.9c0,0,166.5,0,261.3,-77.9c0,0,94.7,-77.9,94.7,-210.8c0,0,0,-96.3,-53.5,-162c0,0,-55,-67.2,-151.2,-90.1c0,0,110,-26,169.5,-99.3c0,0,61.2,-74.9,61.2,-180.3c0,0,0,-161.9,-97.8,-247.5c0,0,-99.3,-87,-284.2,-87Z" 
	id="f2_1m"
	transform="scale(0.001,-0.001)" />

	<path d="M484.3,96.3c0,0,117.6,0,175.7,114.5c0,0,59.6,114.6,59.6,343.8c0,0,0,230.7,-58.1,345.3c0,0,-59.6,114.5,-177.2,114.5c0,0,-116.1,0,-174.2,-114.5c0,0,-58,-114.6,-58,-345.3c0,0,0,-229.2,58,-343.8c0,0,58.1,-114.5,174.2,-114.5Zm0,-117.6c0,0,-186.4,0,-285.7,146.6c0,0,-99.3,148.2,-99.3,429.3c0,0,0,282.6,99.3,430.8c0,0,99.3,148.2,285.7,148.2c0,0,187.9,0,285.7,-148.2c0,0,99.3,-148.2,99.3,-430.8c0,0,0,-281.1,-97.8,-427.8c0,0,-99.3,-148.1,-287.2,-148.1Z" 
	id="f2_1j"
	transform="scale(0.001,-0.001)" />

	<path d="M143,0l0,834l138,0L281,0Zm0,985l0,174l138,0l0,-174Z" 
	id="f2_d"
	transform="scale(0.001,-0.001)" />

	<path d="M137.5,0l0,834.2l139,0l0,-129.9c0,0,45.9,77.9,111.6,114.6c0,0,65.7,36.7,155.8,36.7c0,0,91.7,0,154.3,-45.9c0,0,64.2,-47.3,96.2,-135.9c0,0,50.5,93.1,122.3,137.5c0,0,71.8,44.3,168,44.3c0,0,131.4,0,201.7,-91.7c0,0,71.8,-91.7,71.8,-259.7L1358.2,0l-139,0l0,499.6c0,0,0,119.2,-41.3,177.2c0,0,-42.8,58.1,-129.8,58.1c0,0,-107,0,-168.1,-70.3c0,0,-62.6,-70.3,-62.6,-192.5L817.4,0L678.3,0l0,499.6c0,0,0,120.7,-41.2,177.2c0,0,-42.8,58.1,-131.4,58.1c0,0,-105.4,0,-166.5,-70.3c0,0,-62.7,-71.8,-62.7,-192.5L276.5,0Z" 
	id="f2_8"
	transform="scale(0.001,-0.001)" />

	<path d="M149,0l0,1113l705,0l0,-128l-555,0l0,-329l530,0l0,-126l-530,0l0,-404l567,0L866,0Z" 
	id="f2_1n"
	transform="scale(0.001,-0.001)" />

	<path d="M495,-21.3c0,0,-189.4,0,-299.4,117.6C195.6,96.3,84,215.4,84,415.6c0,0,0,204.7,111.6,322.3c0,0,113,117.7,308.6,117.7c0,0,62.6,0,122.2,-13.8c0,0,61.1,-13.7,117.6,-39.7l0,-128.3c0,0,-58,32,-116.1,47.3c0,0,-58,16.8,-119.1,16.8c0,0,-133,0,-206.3,-84c0,0,-74.9,-84,-74.9,-238.3c0,0,0,-152.8,73.4,-236.8c0,0,74.8,-84.1,207.8,-84.1c0,0,61.1,0,119.1,15.3c0,0,58.1,16.8,116.1,48.9L744,30.6c0,0,-56.5,-26,-117.6,-38.1c0,0,-62.6,-13.8,-131.4,-13.8Z" 
	id="f2_6"
	transform="scale(0.001,-0.001)" />

	<path d="M-77.8,-305.5l0,126.8l47.3,0c0,0,97.7,0,139,56.6c0,0,41.2,56.5,41.2,198.5l0,1037.4l149.7,0l0,-1037.4c0,0,0,-200.1,-76.3,-290.2c0,0,-76.4,-91.7,-244.4,-91.7Z" 
	id="f2_1b"
	transform="scale(0.001,-0.001)" />

	<path d="M421.7,-21.3c0,0,-143.6,0,-218.5,88.5L128.3,328.5l0,505.7l137.5,0l0,-499.6c0,0,0,-119.2,45.9,-178.8c0,0,47.3,-59.5,139,-59.5c0,0,111.5,0,175.7,70.2c0,0,65.7,71.8,65.7,194.1l0,473.6l136,0L828.1,0l-136,0l0,126.8c0,0,-50.4,-74.9,-116.1,-111.5c0,0,-67.2,-36.6,-154.3,-36.6Z" 
	id="f2_i"
	transform="scale(0.001,-0.001)" />

	<path d="M42.8,0L368.2,436.9L70.3,834.2l161.9,0L453.8,537.8L675.3,834.2l161.9,0L536.3,427.8L854,0L692.1,0L447.6,326.9L204.7,0Z" 
	id="f2_v"
	transform="scale(0.001,-0.001)" />

	<path d="M629.4,-21.3c0,0,-253.6,0,-398.7,154.2c0,0,-145.1,154.3,-145.1,421.7c0,0,0,268.9,145.1,423.2c0,0,145.1,155.8,398.7,155.8c0,0,99.4,0,188,-26c0,0,88.6,-27.5,166.5,-80.9l0,-158.9c0,0,-76.4,71.8,-162,106.9c0,0,-87,35.2,-184.8,35.2c0,0,-191,0,-291.8,-116.1c0,0,-100.9,-117.7,-100.9,-339.2c0,0,0,-220,100.9,-336.1c0,0,100.8,-117.7,291.8,-117.7c0,0,97.8,0,183.3,35.2c0,0,87.1,35.1,163.5,106.9l0,-157.3c0,0,-79.5,-55,-168.1,-81c0,0,-88.6,-25.9,-186.4,-25.9Z" 
	id="f2_15"
	transform="scale(0.001,-0.001)" />

	<path d="M165,0l0,728.8l-131.4,0l0,105.4l131.4,0l0,58c0,0,0,140.6,64.2,203.2c0,0,65.7,64.2,207.7,64.2l129.9,0l0,-113.1l-131.4,0c0,0,-74.8,0,-102.3,-30.5c0,0,-29.1,-30.6,-29.1,-107l0,-74.8l226.1,0l0,-105.4l-226.1,0L304,0Z" 
	id="f2_e"
	transform="scale(0.001,-0.001)" />

	<path d="M352.9,-200c0,0,-111.5,174.1,-166.5,342.1c0,0,-56.5,169.6,-56.5,336.1c0,0,0,166.5,55,334.6c0,0,56.5,169.6,168,345.3l120.7,0c0,0,-100.8,-171.2,-148.2,-339.2c0,0,-48.9,-168.1,-48.9,-340.7c0,0,0,-171.1,48.9,-339.2c0,0,48.9,-169.5,148.2,-339Z" 
	id="f2_1i"
	transform="scale(0.001,-0.001)" />

	<path d="M328.5,0L50.4,1113.8l151.3,0L436.9,171.1l232.3,942.7l169.6,0L1074,171.1l232.3,942.7l154.3,0L1179.4,0L990,0L756.3,965.6L517.9,0Z" 
	id="f2_1e"
	transform="scale(0.001,-0.001)" />

	<path d="M73,355l0,123l403,0l0,-123Z" 
	id="f2_1o"
	transform="scale(0.001,-0.001)" />

	<path d="M160.4,68.8l0,135.9l768.5,272l-768.5,275l0,135.9L1116.8,540.8l0,-125.2L160.4,68.8Z" 
	id="f2_1p"
	transform="scale(0.001,-0.001)" />

	<path d="M601.9,99.3c0,0,163.5,0,258.2,122.2c0,0,96.3,123.8,96.3,333.1c0,0,0,210.8,-94.7,333c0,0,-96.3,123.8,-259.8,123.8c0,0,-165,0,-261.2,-122.2c0,0,-96.3,-123.8,-96.3,-334.6c0,0,0,-209.3,96.3,-331.5c0,0,96.2,-123.8,261.2,-123.8Zm0,-120.6c0,0,-235.2,0,-375.8,155.7c0,0,-140.5,155.9,-140.5,420.2c0,0,0,264.3,140.5,421.7c0,0,140.6,157.3,375.8,157.3c0,0,233.8,0,372.8,-157.3c0,0,140.6,-157.4,140.6,-421.7c0,0,0,-262.8,-139,-418.6c0,0,-140.6,-157.3,-374.4,-157.3Z" 
	id="f2_3"
	transform="scale(0.001,-0.001)" />

	<path d="M122.2,-200c0,0,99.3,169.5,146.7,337.5c0,0,48.9,169.6,48.9,340.7c0,0,0,172.6,-47.4,340.7c0,0,-48.9,168,-148.2,339.2l119.2,0c0,0,111.5,-175.7,166.5,-343.8c0,0,56.5,-169.6,56.5,-336.1c0,0,0,-166.5,-55,-334.6c0,0,-56.5,-169.5,-168,-343.6Z" 
	id="f2_o"
	transform="scale(0.001,-0.001)" />

	<path d="M-27.4,-317.7l0,117.7l35,0c0,0,79.5,0,107,35.1c0,0,29,36.7,29,151.2l0,847.9l137.5,0l0,-847.9c0,0,0,-160.4,-61.1,-232.2c0,0,-61.1,-71.8,-195.6,-71.8Zm171,1303.1l0,174.2l137.5,0l0,-174.2Z" 
	id="f2_1q"
	transform="scale(0.001,-0.001)" />

	<path d="M456.8,-21.3c0,0,-77.9,0,-166.5,16.8c0,0,-90.2,18.3,-186.4,53.4l0,154.3c0,0,91.7,-50.4,180.3,-76.4c0,0,88.6,-27.5,172.6,-27.5c0,0,129.9,0,200.1,50.4c0,0,70.3,52,70.3,145.2c0,0,0,82.5,-50.4,128.3c0,0,-50.4,47.4,-166.5,70.3l-91.7,16.8c0,0,-168,33.6,-242.9,105.4c0,0,-76.4,71.8,-76.4,200.1c0,0,0,146.7,103.9,232.3c0,0,105.4,85.5,287.2,85.5c0,0,79.5,0,160.4,-13.7c0,0,81,-15.3,166.6,-42.8l0,-148.2c0,0,-85.6,41.2,-162,61.1c0,0,-76.4,21.4,-146.6,21.4c0,0,-123.8,0,-189.5,-47.4c0,0,-67.2,-48.9,-67.2,-137.5c0,0,0,-73.3,44.3,-110c0,0,44.3,-38.2,168,-61.1l90.2,-19.8c0,0,169.6,-32.1,249,-111.6c0,0,81,-80.9,81,-216.9c0,0,0,-162,-108.5,-244.5c0,0,-108.5,-83.9,-319.3,-83.9Z" 
	id="f2_z"
	transform="scale(0.001,-0.001)" />

	<path d="M640.1,-21.3c0,0,-259.7,0,-406.3,151.2c0,0,-148.2,152.7,-148.2,424.7c0,0,0,273.5,146.6,426.2c0,0,148.2,152.8,407.9,152.8c0,0,110,0,207.8,-26c0,0,97.8,-27.5,180.3,-80.9l0,-160.4c0,0,-82.5,71.8,-175.7,106.9c0,0,-94.7,36.7,-198.6,36.7c0,0,-204.7,0,-307.1,-114.6c0,0,-102.4,-114.6,-102.4,-340.7c0,0,0,-224.6,102.4,-339.2c0,0,102.4,-114.6,307.1,-114.6c0,0,79.4,0,142.1,13.8c0,0,62.6,13.7,113,44.3l0,297.9l-245.9,0l0,123.8l394.1,0l0,-478.2c0,0,-87.1,-61.1,-190.9,-91.7c0,0,-105.5,-32,-226.2,-32Z" 
	id="f2_1r"
	transform="scale(0.001,-0.001)" />

	<path d="M679.9,985.4l0,172.7l139,0l0,-172.7ZM165,0l0,728.8l-131.4,0l0,105.4l131.4,0l0,58c0,0,0,137.5,64.2,201.7c0,0,65.7,65.7,198.6,65.7l139,0l0,-113.1l-131.4,0c0,0,-74.8,0,-102.3,-30.5c0,0,-29.1,-30.6,-29.1,-107l0,-74.8l514.9,0L818.9,0l-139,0l0,728.8l-375.9,0L304,0Z" 
	id="f2_1s"
	transform="scale(0.001,-0.001)" />

	<path d="M508.8,93.2c0,0,110,0,171.1,85.6c0,0,62.6,85.5,62.6,236.8c0,0,0,152.7,-61.1,238.3c0,0,-62.6,85.5,-172.6,85.5c0,0,-108.5,0,-169.6,-85.5c0,0,-62.7,-85.6,-62.7,-238.3c0,0,0,-151.3,61.1,-236.8c0,0,62.7,-85.6,171.2,-85.6ZM542.4,-21.3c0,0,-91.7,0,-157.4,35.1c0,0,-65.7,36.6,-108.5,111.5L276.5,0l-139,0l0,1159.6l139,0l0,-452.2c0,0,42.8,74.8,108.5,111.5c0,0,65.7,36.7,157.4,36.7c0,0,152.7,0,247.5,-120.7c0,0,96.2,-122.3,96.2,-319.3c0,0,0,-195.6,-94.7,-316.3c0,0,-96.3,-120.6,-249,-120.6Z" 
	id="f2_m"
	transform="scale(0.001,-0.001)" />

	<path d="M647.8,186.4c0,0,132.9,0,204.7,96.2c0,0,71.8,97.8,71.8,272c0,0,0,177.2,-71.8,273.5c0,0,-71.8,96.2,-204.7,96.2c0,0,-131.4,0,-203.2,-96.2c0,0,-71.8,-96.3,-71.8,-273.5c0,0,0,-174.2,71.8,-270.4c0,0,71.8,-97.8,203.2,-97.8Zm0,-207.7c0,0,-267.4,0,-420.2,152.7c0,0,-152.7,154.3,-152.7,423.2c0,0,0,271.9,152.7,424.7c0,0,152.8,154.3,420.2,154.3c0,0,268.9,0,420.1,-152.8c0,0,152.8,-154.3,152.8,-426.2c0,0,0,-268.9,-151.3,-421.7c0,0,-152.7,-154.2,-421.6,-154.2Z" 
	id="f0_k"
	transform="scale(0.001,-0.001)" />

	<path d="M126.8,0l0,834.2l267.4,0l0,-136c0,0,51.9,81,117.6,119.2c0,0,67.2,38.2,160.4,38.2c0,0,13.8,0,29.1,-1.6c0,0,16.8,-1.5,45.8,-4.6l1.5,-242.9c0,0,-35.1,16.8,-70.3,24.5c0,0,-35.1,7.6,-70.2,7.6c0,0,-102.4,0,-157.4,-65.7c0,0,-56.5,-65.7,-56.5,-189.4L394.2,0Z" 
	id="f0_d"
	transform="scale(0.001,-0.001)" />

	<path d="M545.4,-21.3c0,0,-226.1,0,-352.9,114.5c0,0,-128.3,116.1,-128.3,322.4c0,0,0,207.7,126.8,323.8c0,0,128.3,116.2,354.4,116.2c0,0,65.7,0,129.9,-12.3c0,0,64.1,-12.2,126.8,-35.1l0,-216.9c0,0,-53.5,36.6,-108.5,55c0,0,-55,18.3,-114.6,18.3c0,0,-111.5,0,-172.6,-65.7c0,0,-62.6,-65.7,-62.6,-183.3c0,0,0,-116.2,61.1,-181.8c0,0,62.6,-65.7,174.1,-65.7c0,0,62.7,0,119.2,18.3c0,0,56.5,19.9,103.9,56.5l0,-218.5c0,0,-62.7,-24.4,-126.8,-35c0,0,-64.2,-10.7,-129.9,-10.7Z" 
	id="f0_l"
	transform="scale(0.001,-0.001)" />

	<path d="M189.4,0l0,126.8l246,0l0,849.5L166.5,922.8l0,136l267.4,55l149.7,0l0,-987l246,0L829.6,0Z" 
	id="f2_2"
	transform="scale(0.001,-0.001)" />

	<path d="M137.5,0l0,1159.6l139,0l0,-684.5L686,834.2l174.1,0L417.1,444.6L880,0L699.7,0L276.5,407.9L276.5,0Z" 
	id="f2_1a"
	transform="scale(0.001,-0.001)" />

	<path d="M149.7,0l0,1113.8l201.7,0l495,-932l0,932l145.1,0L991.5,0L789.9,0l-495,930.4L294.9,0Z" 
	id="f2_11"
	transform="scale(0.001,-0.001)" />

	<path d="M149.7,0l0,1113.8l224.6,0L658.5,354.4l285.7,759.4l224.6,0L1168.8,0L1020.6,0l0,977.8L733.3,213.9l-151.2,0L294.9,977.8L294.9,0Z" 
	id="f2_1d"
	transform="scale(0.001,-0.001)" />

	<path d="M111.5,0l0,126.8c0,0,85.6,88.6,233.8,236.8c0,0,148.2,149.7,186.4,194c0,0,71.8,81,100.8,137.5c0,0,29,56.6,29,110c0,0,0,88.7,-62.6,145.2c0,0,-62.6,56.5,-162,56.5c0,0,-71.8,0,-149.7,-24.4c0,0,-79.4,-26,-168,-74.9l0,151.3c0,0,90.1,36.6,169.6,55c0,0,79.4,19.8,145.1,19.8c0,0,172.6,0,275,-87.1c0,0,103.9,-87.1,103.9,-230.7c0,0,0,-68.7,-26,-129.8c0,0,-26,-62.7,-93.2,-145.2c0,0,-19.8,-22.9,-119.2,-125.2c0,0,-99.3,-103.9,-282.6,-288.8l527.1,0L818.9,0Z" 
	id="f2_t"
	transform="scale(0.001,-0.001)" />


</defs>
</svg>