<?xml version="1.0" encoding="UTF-8" standalone="no"?>
<!DOCTYPE svg PUBLIC "-//W3C//DTD SVG 1.1//EN"
"http://www.w3.org/Graphics/SVG/1.1/DTD/svg11.dtd">
<svg viewBox="0 0 1210 1210" version="1.1" xmlns="http://www.w3.org/2000/svg" xmlns:xlink="http://www.w3.org/1999/xlink">
<defs>
<style type="text/css"><![CDATA[
.g2_18{
fill: #B1D1E3;
}
.g3_18{
fill: none;
stroke: #418AB3;
stroke-width: 2;
stroke-linecap: butt;
stroke-linejoin: miter;
stroke-miterlimit: 7;
}
.g1_18{
fill: #FFFFFF;
}
]]></style>
</defs>
<path fill-rule="evenodd" d="M0,0L1210,0l0,1210L0,1210L0,0Z" class="g1_18" />
<path fill-rule="evenodd" d="M0,0L1210,0l0,1210L0,1210L0,0Z" class="g1_18" />
<path fill-rule="evenodd" d="M161.5,708.9l0,-0.6l0.1,-0.6l0,-0.6l0.2,-0.8l0.1,-0.6l0.2,-0.6l0.3,-0.6l0.2,-0.7l0.3,-0.4l0.3,-0.6l0.3,-0.6l0.4,-0.5l0.3,-0.4l0.5,-0.7l0.5,-0.3l0.4,-0.4l0.5,-0.5l0.4,-0.4l0.6,-0.3l0.5,-0.4l0.6,-0.3l0.6,-0.3l0.6,-0.3l0.6,-0.1l0.7,-0.2l0.6,-0.1l0.6,-0.2l0.6,0l0.6,-0.1l0.6,0l862.6,0l0.6,0l0.6,0.1l0.6,0l0.6,0.2l0.6,0.1l0.7,0.2l0.6,0.1l0.6,0.3l0.6,0.3l0.6,0.3l0.5,0.4l0.6,0.3l0.4,0.4l0.5,0.5l0.4,0.4l0.5,0.5l0.5,0.5l0.3,0.4l0.4,0.6l0.3,0.5l0.3,0.6l0.3,0.6l0.2,0.5l0.1,0.6l0.4,0.6l0.1,0.6l0.2,0.8l0,0.6l0,0.6l0,0.6l0.1,48.9l0,0.6l-0.1,0.6l0,0.6l-0.2,0.6l-0.1,0.6l-0.2,0.6l-0.3,0.7l-0.2,0.6l-0.3,0.6l-0.3,0.6l-0.3,0.4l-0.4,0.7l-0.3,0.4l-0.5,0.5l-0.5,0.4l-0.4,0.5l-0.5,0.5l-0.4,0.3l-0.6,0.4l-0.5,0.3l-0.6,0.3l-0.6,0.3l-0.6,0.2l-0.6,0.1l-0.7,0.3l-0.6,0.2l-0.6,0.1l-0.6,0l-0.6,0l-0.6,0L173.7,770l-0.6,0l-0.6,-0.2l-0.6,0l-0.6,-0.1l-0.6,-0.2L170,769.4l-0.6,-0.3l-0.6,-0.2l-0.6,-0.3l-0.6,-0.3L167.1,768l-0.6,-0.4l-0.4,-0.3l-0.5,-0.5l-0.4,-0.5l-0.5,-0.4l-0.5,-0.5L163.9,765l-0.4,-0.7l-0.3,-0.4l-0.3,-0.6l-0.3,-0.6l-0.2,-0.6l-0.3,-0.7l-0.2,-0.6l-0.1,-0.4l-0.2,-0.8l0,-0.6l-0.1,-0.6l0,-0.6l0,-48.9Z" class="g2_18" />
<path d="M161.5,708.9l0,-0.6l0.1,-0.6l0,-0.6l0.2,-0.8l0.1,-0.6l0.2,-0.6l0.3,-0.6l0.2,-0.7l0.3,-0.4l0.3,-0.6l0.3,-0.6l0.4,-0.5l0.3,-0.4l0.5,-0.7l0.5,-0.3l0.4,-0.4l0.5,-0.5l0.4,-0.4l0.6,-0.3l0.5,-0.4l0.6,-0.3l0.6,-0.3l0.6,-0.3l0.6,-0.1l0.7,-0.2l0.6,-0.1l0.6,-0.2l0.6,0l0.6,-0.1l0.6,0l862.6,0l0.6,0l0.6,0.1l0.6,0l0.6,0.2l0.6,0.1l0.7,0.2l0.6,0.1l0.6,0.3l0.6,0.3l0.6,0.3l0.5,0.4l0.6,0.3l0.4,0.4l0.5,0.5l0.4,0.4l0.5,0.5l0.5,0.5l0.3,0.4l0.4,0.6l0.3,0.5l0.3,0.6l0.3,0.6l0.2,0.5l0.1,0.6l0.4,0.6l0.1,0.6l0.2,0.8l0,0.6l0,0.6l0,0.6l0.1,48.9l0,0.6l-0.1,0.6l0,0.6l-0.2,0.6l-0.1,0.6l-0.2,0.6l-0.3,0.7l-0.2,0.6l-0.3,0.6l-0.3,0.6l-0.3,0.4l-0.4,0.7l-0.3,0.4l-0.5,0.5l-0.5,0.4l-0.4,0.5l-0.5,0.5l-0.4,0.3l-0.6,0.4l-0.5,0.3l-0.6,0.3l-0.6,0.3l-0.6,0.2l-0.6,0.1l-0.7,0.3l-0.6,0.2l-0.6,0.1l-0.6,0l-0.6,0l-0.6,0L173.7,770l-0.6,0l-0.6,-0.2l-0.6,0l-0.6,-0.1l-0.6,-0.2L170,769.4l-0.6,-0.3l-0.6,-0.2l-0.6,-0.3l-0.6,-0.3L167.1,768l-0.6,-0.4l-0.4,-0.3l-0.5,-0.5l-0.4,-0.5l-0.5,-0.4l-0.5,-0.5L163.9,765l-0.4,-0.7l-0.3,-0.4l-0.3,-0.6l-0.3,-0.6l-0.2,-0.6l-0.3,-0.7l-0.2,-0.6l-0.1,-0.4l-0.2,-0.8l0,-0.6l-0.1,-0.6l0,-0.6l0,-48.9Z" class="g3_18" />
</svg>