<?xml version="1.0" encoding="UTF-8" standalone="no"?>
<!DOCTYPE svg PUBLIC "-//W3C//DTD SVG 1.1//EN"
"http://www.w3.org/Graphics/SVG/1.1/DTD/svg11.dtd">
<svg viewBox="0 0 1100 825" version="1.1" xmlns="http://www.w3.org/2000/svg" xmlns:xlink="http://www.w3.org/1999/xlink">
<defs>
<style type="text/css"><![CDATA[
.g2_1{
fill: none;
stroke: #000000;
stroke-width: 2;
stroke-linecap: butt;
stroke-linejoin: miter;
stroke-miterlimit: 7;
}
.g3_1{
fill: none;
stroke: #0070C0;
stroke-width: 2;
stroke-linecap: butt;
stroke-linejoin: miter;
}
.g1_1{
fill: #FFFFFF;
}
]]></style>
</defs>
<path fill-rule="evenodd" d="M0,0L1100,0l0,825L0,825L0,0Z" class="g1_1" />
<path fill-rule="evenodd" d="M0,0L1100,0l0,825L0,825L0,0Z" class="g1_1" />
<path fill-rule="evenodd" d="M123.8,89.1l0,-0.6l0,-0.7l0.1,-0.4l0.2,-0.6l0,-0.6l0.3,-0.6l0.1,-0.5l0.2,-0.6L125,84l0.3,-0.4L125.6,83l0.3,-0.5L126.2,82l0.5,-0.4L127,81.1l0.4,-0.3l0.5,-0.4l0.4,-0.3l0.5,-0.3l0.4,-0.4l0.7,-0.3l0.4,-0.3l0.6,-0.1l0.5,-0.2L132,78.4l0.6,-0.2l0.6,-0.1l0.5,-0.2l0.6,0l0.6,0l717,0l0.6,0l0.6,0.2l0.6,0l0.5,0.1l0.6,0.2l0.6,0.1l0.5,0.2l0.6,0.1l0.4,0.3l0.6,0.3l0.5,0.4l0.5,0.3l0.4,0.3l0.5,0.4l0.4,0.3l0.3,0.5l0.5,0.4l0.3,0.5l0.5,0.5l0.3,0.6l0.1,0.4l0.3,0.5l0.2,0.6l0.1,0.5l0.3,0.6l0,0.6l0.2,0.6l0.1,0.4l0,0.7l0,0.6l0.2,44.7l0,0.6l-0.2,0.7l0,0.6l-0.1,0.4l-0.2,0.6l-0.1,0.6l-0.2,0.7l-0.3,0.4L862,139l-0.3,0.5l-0.3,0.4l-0.3,0.5l-0.5,0.5l-0.3,0.4l-0.5,0.5l-0.4,0.4l-0.3,0.3l-0.6,0.3l-0.5,0.5l-0.5,0.3l-0.6,0.2l-0.4,0.3l-0.5,0.3l-0.6,0.1l-0.6,0.2l-0.5,0.1l-0.6,0l-0.6,0.2l-0.6,0l-0.6,0l-717,0.1l-0.6,0l-0.6,0L133.2,145l-0.6,-0.2L132,144.7l-0.6,-0.2l-0.5,-0.1l-0.6,-0.2l-0.4,-0.3l-0.7,-0.3l-0.4,-0.3L128.3,143l-0.4,-0.5l-0.5,-0.3L127,141.8l-0.3,-0.3L126.2,141l-0.3,-0.4l-0.3,-0.7l-0.3,-0.4L125,139l-0.3,-0.6L124.5,138l-0.1,-0.7l-0.3,-0.6l0,-0.4l-0.2,-0.6l-0.1,-0.6l0,-0.7l0,-0.6l0,-44.7Z" class="g1_1" />
<path d="M123.8,89.1l0,-0.6l0,-0.7l0.1,-0.4l0.2,-0.6l0,-0.6l0.3,-0.6l0.1,-0.5l0.2,-0.6L125,84l0.3,-0.4L125.6,83l0.3,-0.5L126.2,82l0.5,-0.4L127,81.1l0.4,-0.3l0.5,-0.4l0.4,-0.3l0.5,-0.3l0.4,-0.4l0.7,-0.3l0.4,-0.3l0.6,-0.1l0.5,-0.2L132,78.4l0.6,-0.2l0.6,-0.1l0.5,-0.2l0.6,0l0.6,0l717,0l0.6,0l0.6,0.2l0.6,0l0.5,0.1l0.6,0.2l0.6,0.1l0.5,0.2l0.6,0.1l0.4,0.3l0.6,0.3l0.5,0.4l0.5,0.3l0.4,0.3l0.5,0.4l0.4,0.3l0.3,0.5l0.5,0.4l0.3,0.5l0.5,0.5l0.3,0.6l0.1,0.4l0.3,0.5l0.2,0.6l0.1,0.5l0.3,0.6l0,0.6l0.2,0.6l0.1,0.4l0,0.7l0,0.6l0.2,44.7l0,0.6l-0.2,0.7l0,0.6l-0.1,0.4l-0.2,0.6l-0.1,0.6l-0.2,0.7l-0.3,0.4L862,139l-0.3,0.5l-0.3,0.4l-0.3,0.5l-0.5,0.5l-0.3,0.4l-0.5,0.5l-0.4,0.4l-0.3,0.3l-0.6,0.3l-0.5,0.5l-0.5,0.3l-0.6,0.2l-0.4,0.3l-0.5,0.3l-0.6,0.1l-0.6,0.2l-0.5,0.1l-0.6,0l-0.6,0.2l-0.6,0l-0.6,0l-717,0.1l-0.6,0l-0.6,0L133.2,145l-0.6,-0.2L132,144.7l-0.6,-0.2l-0.5,-0.1l-0.6,-0.2l-0.4,-0.3l-0.7,-0.3l-0.4,-0.3L128.3,143l-0.4,-0.5l-0.5,-0.3L127,141.8l-0.3,-0.3L126.2,141l-0.3,-0.4l-0.3,-0.7l-0.3,-0.4L125,139l-0.3,-0.6L124.5,138l-0.1,-0.7l-0.3,-0.6l0,-0.4l-0.2,-0.6l-0.1,-0.6l0,-0.7l0,-0.6l0,-44.7Z" class="g2_1" />
<path d="M199,134l436,0" class="g3_1" />
</svg>