<?xml version="1.0" encoding="UTF-8" standalone="no"?>
<!DOCTYPE svg PUBLIC "-//W3C//DTD SVG 1.1//EN"
"http://www.w3.org/Graphics/SVG/1.1/DTD/svg11.dtd">
<svg viewBox="0 0 1100 825" version="1.1" xmlns="http://www.w3.org/2000/svg" xmlns:xlink="http://www.w3.org/1999/xlink">
<defs>
<style type="text/css"><![CDATA[
.g3_133{
fill: none;
stroke: #418AB3;
stroke-width: 2;
stroke-linecap: butt;
stroke-linejoin: miter;
stroke-miterlimit: 7;
}
.g2_133{
fill: none;
stroke: #000000;
stroke-width: 1;
stroke-linecap: butt;
stroke-linejoin: round;
}
.g1_133{
fill: #FFFFFF;
}
]]></style>
</defs>
<path fill-rule="evenodd" d="M0,0L1100,0l0,825L0,825L0,0Z" class="g1_133" />
<path fill-rule="evenodd" d="M0,0L1100,0l0,825L0,825L0,0Z" class="g1_133" />
<image x="753" y="777" width="303" height="38" xlink:href="img/1.png" />
<path d="M263.5,477.5l-255,0l0,-467l510,0l0,467l-255,0Z" class="g2_133" />
<path fill-rule="evenodd" d="M914.7,11.8l0,-0.3l0,-0.3l0,-0.4l0.1,-0.3l0,-0.1l0,-0.3L915,9.8l0.1,-0.3l0.2,-0.2L915.4,9l0.2,-0.3l0.2,-0.1l0.1,-0.3l0.2,-0.2l0.1,-0.3l0.3,-0.2l0.2,-0.1L917,7.3l0.1,-0.1L917.4,7l0.3,-0.1l0.2,-0.2l0.3,-0.1l0.3,0l0.3,-0.2l0.2,0l0.3,-0.1l0.3,0l0.3,0l0.3,0l167.6,0l0.3,0l0.3,0l0.3,0l0.3,0.1l0.3,0l0.2,0.2l0.3,0l0.3,0.1l0.3,0.2l0.1,0.1l0.3,0.2l0.3,0.1l0.2,0.2l0.1,0.1l0.3,0.3l0.2,0.2l0.2,0.2l0.3,0.3l0.1,0.3l0.2,0.1l0,0.3l0.1,0.2l0.2,0.3l0.1,0.3l0,0.3l0,0.3l0.2,0.1l0,0.4l0,0.3l0,0.3l0.1,22.3l0,0.3l-0.1,0.1l0,0.3l0,0.3l-0.2,0.3l0,0.4l-0.1,0.3l0,0.1l-0.2,0.3l-0.1,0.3l-0.2,0.2l-0.1,0.3l-0.3,0.1l-0.2,0.3l-0.2,0.2l-0.3,0.1l-0.1,0.3l-0.2,0.2l-0.3,0.2l-0.3,0.1l-0.1,0.2l-0.3,0l-0.3,0.1l-0.3,0.2l-0.2,0l-0.3,0.1l-0.3,0l-0.3,0l-0.3,0.2l-0.3,0l-167.6,0l-0.3,0l-0.3,0l-0.3,-0.2l-0.3,0l-0.2,0l-0.3,-0.1l-0.3,-0.2l-0.3,0L917.7,39l-0.3,-0.2l-0.3,-0.1L917,38.5l-0.3,-0.2L916.5,38l-0.3,-0.1l-0.1,-0.2l-0.2,-0.3l-0.1,-0.1L915.6,37l-0.2,-0.2l-0.1,-0.3l-0.2,-0.3L915,36.1l-0.2,-0.3l0,-0.4l0,-0.3l-0.1,-0.3l0,-0.3l0,-0.1l0,-0.3l0,-22.3Z" class="g1_133" />
<path d="M914.7,11.8l0,-0.3l0,-0.3l0,-0.4l0.1,-0.3l0,-0.1l0,-0.3L915,9.8l0.1,-0.3l0.2,-0.2L915.4,9l0.2,-0.3l0.2,-0.1l0.1,-0.3l0.2,-0.2l0.1,-0.3l0.3,-0.2l0.2,-0.1L917,7.3l0.1,-0.1L917.4,7l0.3,-0.1l0.2,-0.2l0.3,-0.1l0.3,0l0.3,-0.2l0.2,0l0.3,-0.1l0.3,0l0.3,0l0.3,0l167.6,0l0.3,0l0.3,0l0.3,0l0.3,0.1l0.3,0l0.2,0.2l0.3,0l0.3,0.1l0.3,0.2l0.1,0.1l0.3,0.2l0.3,0.1l0.2,0.2l0.1,0.1l0.3,0.3l0.2,0.2l0.2,0.2l0.3,0.3l0.1,0.3l0.2,0.1l0,0.3l0.1,0.2l0.2,0.3l0.1,0.3l0,0.3l0,0.3l0.2,0.1l0,0.4l0,0.3l0,0.3l0.1,22.3l0,0.3l-0.1,0.1l0,0.3l0,0.3l-0.2,0.3l0,0.4l-0.1,0.3l0,0.1l-0.2,0.3l-0.1,0.3l-0.2,0.2l-0.1,0.3l-0.3,0.1l-0.2,0.3l-0.2,0.2l-0.3,0.1l-0.1,0.3l-0.2,0.2l-0.3,0.2l-0.3,0.1l-0.1,0.2l-0.3,0l-0.3,0.1l-0.3,0.2l-0.2,0l-0.3,0.1l-0.3,0l-0.3,0l-0.3,0.2l-0.3,0l-167.6,0l-0.3,0l-0.3,0l-0.3,-0.2l-0.3,0l-0.2,0l-0.3,-0.1l-0.3,-0.2l-0.3,0L917.7,39l-0.3,-0.2l-0.3,-0.1L917,38.5l-0.3,-0.2L916.5,38l-0.3,-0.1l-0.1,-0.2l-0.2,-0.3l-0.1,-0.1L915.6,37l-0.2,-0.2l-0.1,-0.3l-0.2,-0.3L915,36.1l-0.2,-0.3l0,-0.4l0,-0.3l-0.1,-0.3l0,-0.3l0,-0.1l0,-0.3l0,-22.3Z" class="g3_133" />
<image x="142" y="495" width="700" height="247" xlink:href="img/2.png" />
</svg>