<?xml version="1.0" encoding="UTF-8" standalone="no"?>
<!DOCTYPE svg PUBLIC "-//W3C//DTD SVG 1.1//EN"
"http://www.w3.org/Graphics/SVG/1.1/DTD/svg11.dtd">
<svg viewBox="0 0 1155 1210" version="1.1" xmlns="http://www.w3.org/2000/svg" xmlns:xlink="http://www.w3.org/1999/xlink">
<defs>
<clipPath id="c0_46"><path d="M0.5,1210.5L0.5,0.5l1155,0l0,1210Z" /></clipPath>
<style type="text/css"><![CDATA[
.g2_46{
fill: none;
stroke: #0000EE;
stroke-width: 2;
stroke-linecap: butt;
stroke-linejoin: miter;
}
.g1_46{
fill: #FFFFFF;
}
]]></style>
</defs>
<path fill-rule="evenodd" d="M0,0L1155,0l0,1210L0,1210L0,0Z" class="g1_46" />
<path fill-rule="evenodd" d="M0,0L1155,0l0,1210L0,1210L0,0Z" class="g1_46" />
<image x="790" y="1140" width="319" height="55" xlink:href="img/1.png" />
<g clip-path="url(#c0_46)">
<g fill="#626262" >
<use xlink:href="#f0_1u" transform="matrix(12,0,0,12,47.7,33.2)" />
<use xlink:href="#f0_b" transform="matrix(12,0,0,12,59.6,33.2)" />
<use xlink:href="#f0_e" transform="matrix(12,0,0,12,71,33.2)" />
<use xlink:href="#f0_b" transform="matrix(12,0,0,12,77.4,33.2)" />
<use xlink:href="#f0_l" transform="matrix(12,0,0,12,88.7,33.2)" />
<use xlink:href="#f0_c" transform="matrix(12,0,0,12,102.3,33.2)" />
<use xlink:href="#f0_7" transform="matrix(12,0,0,12,109.5,33.2)" />
<use xlink:href="#f0_c" transform="matrix(12,0,0,12,126.4,33.2)" />
<use xlink:href="#f0_f" transform="matrix(12,0,0,12,133.6,33.2)" />
<use xlink:href="#f0_b" transform="matrix(12,0,0,12,145.1,33.2)" />
<use xlink:href="#f0_c" transform="matrix(12,0,0,12,162.3,33.2)" />
<use xlink:href="#f0_k" transform="matrix(12,0,0,12,169.5,33.2)" />
<use xlink:href="#f0_m" transform="matrix(12,0,0,12,181,33.2)" />
<use xlink:href="#f0_a" transform="matrix(12,0,0,12,192.4,33.2)" />
<use xlink:href="#f0_b" transform="matrix(12,0,0,12,197.6,33.2)" />
<use xlink:href="#f0_24" transform="matrix(12,0,0,12,214.8,33.2)" />
<use xlink:href="#f0_i" transform="matrix(12,0,0,12,219.9,33.2)" />
<use xlink:href="#f0_g" transform="matrix(12,0,0,12,231.5,33.2)" />
<use xlink:href="#f0_b" transform="matrix(12,0,0,12,240.9,33.2)" />
<use xlink:href="#f0_l" transform="matrix(12,0,0,12,252.4,33.2)" />
<use xlink:href="#f0_g" transform="matrix(12,0,0,12,260,33.2)" />
<use xlink:href="#f0_24" transform="matrix(12,0,0,12,269.5,33.2)" />
<use xlink:href="#f0_6" transform="matrix(12,0,0,12,280.5,33.2)" />
<use xlink:href="#f0_l" transform="matrix(12,0,0,12,290.8,33.2)" />
<use xlink:href="#f0_b" transform="matrix(12,0,0,12,297.9,33.2)" />
<use xlink:href="#f0_k" transform="matrix(12,0,0,12,309.3,33.2)" />
<use xlink:href="#f0_c" transform="matrix(12,0,0,12,320.6,33.2)" />
<use xlink:href="#f0_b" transform="matrix(12,0,0,12,327.8,33.2)" />
<use xlink:href="#f0_h" transform="matrix(12,0,0,12,339.1,33.2)" />
<use xlink:href="#f0_b" transform="matrix(12,0,0,12,356.8,33.2)" />
<use xlink:href="#f0_k" transform="matrix(12,0,0,12,368.1,33.2)" />
<use xlink:href="#f0_l" transform="matrix(12,0,0,12,379.4,33.2)" />
<use xlink:href="#f0_a" transform="matrix(12,0,0,12,387.1,33.2)" />
<use xlink:href="#f0_d" transform="matrix(12,0,0,12,392.2,33.2)" />
<use xlink:href="#f0_b" transform="matrix(12,0,0,12,397.3,33.2)" />
<use xlink:href="#f0_l" transform="matrix(12,0,0,12,408.6,33.2)" />
<use xlink:href="#f0_1c" transform="matrix(12,0,0,12,414.6,33.2)" />
<use xlink:href="#f0_1g" transform="matrix(12,0,0,12,426.2,33.2)" />
<use xlink:href="#f0_f" transform="matrix(12,0,0,12,437.7,33.2)" />
<use xlink:href="#f0_b" transform="matrix(12,0,0,12,449.1,33.2)" />
<use xlink:href="#f0_b" transform="matrix(12,0,0,12,466.4,33.2)" />
<use xlink:href="#f0_v" transform="matrix(12,0,0,12,477.4,33.2)" />
<use xlink:href="#f0_d" transform="matrix(12,0,0,12,488.2,33.2)" />
<use xlink:href="#f0_g" transform="matrix(12,0,0,12,493.4,33.2)" />
<use xlink:href="#f0_c" transform="matrix(12,0,0,12,502.8,33.2)" />
<use xlink:href="#f0_d" transform="matrix(12,0,0,12,510,33.2)" />
<use xlink:href="#f0_4" transform="matrix(12,0,0,12,515.1,33.2)" />
<use xlink:href="#f0_x" transform="matrix(12,0,0,12,526.7,33.2)" />
<use xlink:href="#f0_c" transform="matrix(12,0,0,12,544.2,33.2)" />
<use xlink:href="#f0_k" transform="matrix(12,0,0,12,551.4,33.2)" />
<use xlink:href="#f0_m" transform="matrix(12,0,0,12,562.7,33.2)" />
<use xlink:href="#f0_a" transform="matrix(12,0,0,12,574.3,33.2)" />
<use xlink:href="#f0_b" transform="matrix(12,0,0,12,579.5,33.2)" />
<use xlink:href="#f0_h" transform="matrix(12,0,0,12,596.6,33.2)" />
<use xlink:href="#f0_k" transform="matrix(12,0,0,12,608.4,33.2)" />
<use xlink:href="#f0_c" transform="matrix(12,0,0,12,619.8,33.2)" />
<use xlink:href="#f0_k" transform="matrix(12,0,0,12,627,33.2)" />
<use xlink:href="#f0_e" transform="matrix(12,0,0,12,644.1,33.2)" />
<use xlink:href="#f0_7" transform="matrix(12,0,0,12,650.5,33.2)" />
<use xlink:href="#f0_l" transform="matrix(12,0,0,12,661.6,33.2)" />
<use xlink:href="#f0_2d" transform="matrix(12,0,0,12,675.2,33.2)" />
<use xlink:href="#f0_i" transform="matrix(12,0,0,12,684.5,33.2)" />
<use xlink:href="#f0_g" transform="matrix(12,0,0,12,696.2,33.2)" />
<use xlink:href="#f0_b" transform="matrix(12,0,0,12,705.6,33.2)" />
<use xlink:href="#f0_l" transform="matrix(12,0,0,12,717.1,33.2)" />
<use xlink:href="#f0_g" transform="matrix(12,0,0,12,724.7,33.2)" />
<use xlink:href="#f0_2e" transform="matrix(12,0,0,12,734.3,33.2)" />
<use xlink:href="#f0_c" transform="matrix(12,0,0,12,749.4,33.2)" />
<use xlink:href="#f0_k" transform="matrix(12,0,0,12,756.6,33.2)" />
<use xlink:href="#f0_m" transform="matrix(12,0,0,12,767.9,33.2)" />
<use xlink:href="#f0_a" transform="matrix(12,0,0,12,779.5,33.2)" />
<use xlink:href="#f0_b" transform="matrix(12,0,0,12,784.7,33.2)" />
<use xlink:href="#f0_d" transform="matrix(12,0,0,12,801.9,33.2)" />
<use xlink:href="#f0_g" transform="matrix(12,0,0,12,807,33.2)" />
<use xlink:href="#f0_x" transform="matrix(12,0,0,12,822.4,33.2)" />
<use xlink:href="#f0_d" transform="matrix(12,0,0,12,834.1,33.2)" />
<use xlink:href="#f0_q" transform="matrix(12,0,0,12,839.2,33.2)" />
<use xlink:href="#f0_b" transform="matrix(12,0,0,12,850,33.2)" />
<use xlink:href="#f0_4" transform="matrix(12,0,0,12,861.3,33.2)" />
<use xlink:href="#f0_m" transform="matrix(12,0,0,12,878.8,33.2)" />
<use xlink:href="#f0_b" transform="matrix(12,0,0,12,890.3,33.2)" />
<use xlink:href="#f0_a" transform="matrix(12,0,0,12,901.7,33.2)" />
<use xlink:href="#f0_7" transform="matrix(12,0,0,12,906.8,33.2)" />
<use xlink:href="#f0_12" transform="matrix(12,0,0,12,917.9,33.2)" />
<use xlink:href="#f0_n" transform="matrix(12,0,0,12,931.8,33.2)" />
<use xlink:href="#f0_2" transform="matrix(12,0,0,12,47.7,328.3)" />
<use xlink:href="#f0_1c" transform="matrix(12,0,0,12,59.4,328.3)" />
<use xlink:href="#f0_1d" transform="matrix(12,0,0,12,87.1,328.3)" />
<use xlink:href="#f0_7" transform="matrix(12,0,0,12,102.8,328.3)" />
<use xlink:href="#f0_h" transform="matrix(12,0,0,12,114,328.3)" />
<use xlink:href="#f0_d" transform="matrix(12,0,0,12,125.7,328.3)" />
<use xlink:href="#f0_e" transform="matrix(12,0,0,12,130.9,328.3)" />
<use xlink:href="#f0_r" transform="matrix(12,0,0,12,136.8,328.3)" />
<use xlink:href="#f0_c" transform="matrix(12,0,0,12,153.5,328.3)" />
<use xlink:href="#f0_f" transform="matrix(12,0,0,12,160.7,328.3)" />
<use xlink:href="#f0_b" transform="matrix(12,0,0,12,172.3,328.3)" />
<use xlink:href="#f0_i" transform="matrix(12,0,0,12,189.4,328.3)" />
<use xlink:href="#f0_g" transform="matrix(12,0,0,12,201,328.3)" />
<use xlink:href="#f0_b" transform="matrix(12,0,0,12,210.5,328.3)" />
<use xlink:href="#f0_l" transform="matrix(12,0,0,12,221.9,328.3)" />
<use xlink:href="#f0_4" transform="matrix(12,0,0,12,229.2,328.3)" />
<use xlink:href="#f0_k" transform="matrix(12,0,0,12,240.8,328.3)" />
<use xlink:href="#f0_8" transform="matrix(12,0,0,12,252.1,328.3)" />
<use xlink:href="#f0_b" transform="matrix(12,0,0,12,269.9,328.3)" />
<use xlink:href="#f0_k" transform="matrix(12,0,0,12,287.1,328.3)" />
<use xlink:href="#f0_4" transform="matrix(12,0,0,12,298.4,328.3)" />
<use xlink:href="#f0_h" transform="matrix(12,0,0,12,310,328.3)" />
<use xlink:href="#f0_i" transform="matrix(12,0,0,12,327.6,328.3)" />
<use xlink:href="#f0_g" transform="matrix(12,0,0,12,339.2,328.3)" />
<use xlink:href="#f0_b" transform="matrix(12,0,0,12,348.7,328.3)" />
<use xlink:href="#f0_l" transform="matrix(12,0,0,12,360.1,328.3)" />
<use xlink:href="#f0_c" transform="matrix(12,0,0,12,367.7,328.3)" />
<use xlink:href="#f0_r" transform="matrix(12,0,0,12,374.9,328.3)" />
<use xlink:href="#f0_9" transform="matrix(12,0,0,12,385.8,328.3)" />
<use xlink:href="#f0_b" transform="matrix(12,0,0,12,397.2,328.3)" />
<use xlink:href="#f0_7" transform="matrix(12,0,0,12,414.5,328.3)" />
<use xlink:href="#f0_e" transform="matrix(12,0,0,12,425.6,328.3)" />
<use xlink:href="#f0_c" transform="matrix(12,0,0,12,438,328.3)" />
<use xlink:href="#f0_f" transform="matrix(12,0,0,12,445.2,328.3)" />
<use xlink:href="#f0_b" transform="matrix(12,0,0,12,456.6,328.3)" />
<use xlink:href="#f0_i" transform="matrix(12,0,0,12,473.9,328.3)" />
<use xlink:href="#f0_g" transform="matrix(12,0,0,12,485.3,328.3)" />
<use xlink:href="#f0_b" transform="matrix(12,0,0,12,494.9,328.3)" />
<use xlink:href="#f0_l" transform="matrix(12,0,0,12,506.2,328.3)" />
<use xlink:href="#f0_12" transform="matrix(12,0,0,12,519.8,328.3)" />
<use xlink:href="#f0_d" transform="matrix(12,0,0,12,534.8,328.3)" />
<use xlink:href="#f0_c" transform="matrix(12,0,0,12,540,328.3)" />
<use xlink:href="#f0_f" transform="matrix(12,0,0,12,547.1,328.3)" />
<use xlink:href="#f0_i" transform="matrix(12,0,0,12,564.6,328.3)" />
<use xlink:href="#f0_g" transform="matrix(12,0,0,12,576.2,328.3)" />
<use xlink:href="#f0_b" transform="matrix(12,0,0,12,585.6,328.3)" />
<use xlink:href="#f0_l" transform="matrix(12,0,0,12,596.9,328.3)" />
<use xlink:href="#f0_d" transform="matrix(12,0,0,12,604.7,328.3)" />
<use xlink:href="#f0_h" transform="matrix(12,0,0,12,609.7,328.3)" />
<use xlink:href="#f0_1v" transform="matrix(12,0,0,12,627.4,328.3)" />
<use xlink:href="#f0_10" transform="matrix(12,0,0,12,648.8,328.3)" />
<use xlink:href="#f0_12" transform="matrix(12,0,0,12,666.4,328.3)" />
<use xlink:href="#f0_d" transform="matrix(12,0,0,12,681.5,328.3)" />
<use xlink:href="#f0_c" transform="matrix(12,0,0,12,686.5,328.3)" />
<use xlink:href="#f0_f" transform="matrix(12,0,0,12,693.7,328.3)" />
<use xlink:href="#f0_c" transform="matrix(12,0,0,12,711.1,328.3)" />
<use xlink:href="#f0_f" transform="matrix(12,0,0,12,718.3,328.3)" />
<use xlink:href="#f0_b" transform="matrix(12,0,0,12,729.8,328.3)" />
<use xlink:href="#f0_e" transform="matrix(12,0,0,12,747,328.3)" />
<use xlink:href="#f0_7" transform="matrix(12,0,0,12,753.4,328.3)" />
<use xlink:href="#f0_a" transform="matrix(12,0,0,12,764.6,328.3)" />
<use xlink:href="#f0_a" transform="matrix(12,0,0,12,769.7,328.3)" />
<use xlink:href="#f0_7" transform="matrix(12,0,0,12,774.9,328.3)" />
<use xlink:href="#f0_12" transform="matrix(12,0,0,12,786.1,328.3)" />
<use xlink:href="#f0_d" transform="matrix(12,0,0,12,801,328.3)" />
<use xlink:href="#f0_4" transform="matrix(12,0,0,12,806.2,328.3)" />
<use xlink:href="#f0_x" transform="matrix(12,0,0,12,817.7,328.3)" />
<use xlink:href="#f0_q" transform="matrix(12,0,0,12,835.4,328.3)" />
<use xlink:href="#f0_k" transform="matrix(12,0,0,12,846,328.3)" />
<use xlink:href="#f0_a" transform="matrix(12,0,0,12,857.5,328.3)" />
<use xlink:href="#f0_i" transform="matrix(12,0,0,12,862.5,328.3)" />
<use xlink:href="#f0_b" transform="matrix(12,0,0,12,874.1,328.3)" />
<use xlink:href="#f0_g" transform="matrix(12,0,0,12,885.4,328.3)" />
<use xlink:href="#f0_n" transform="matrix(12,0,0,12,895,328.3)" />
<use xlink:href="#f1_q" transform="matrix(12,0,0,12,100.2,379)" />
<use xlink:href="#f0_p" transform="matrix(12,0,0,12,126.3,380.1)" />
<use xlink:href="#f0_g" transform="matrix(12,0,0,12,139.8,380.1)" />
<use xlink:href="#f0_b" transform="matrix(12,0,0,12,149.2,380.1)" />
<use xlink:href="#f0_l" transform="matrix(12,0,0,12,160.7,380.1)" />
<use xlink:href="#f0_4" transform="matrix(12,0,0,12,168,380.1)" />
<use xlink:href="#f0_k" transform="matrix(12,0,0,12,179.6,380.1)" />
<use xlink:href="#f0_8" transform="matrix(12,0,0,12,190.9,380.1)" />
<use xlink:href="#f0_b" transform="matrix(12,0,0,12,208.6,380.1)" />
<use xlink:href="#f0_n" transform="matrix(12,0,0,12,220.1,380.1)" />
</g>
<g fill="#0000EE" >
<use xlink:href="#f0_a" transform="matrix(12,0,0,12,232.2,380.1)" />
<use xlink:href="#f0_7" transform="matrix(12,0,0,12,237.4,380.1)" />
<use xlink:href="#f0_7" transform="matrix(12,0,0,12,248.5,380.1)" />
<use xlink:href="#f0_1a" transform="matrix(12,0,0,12,259.7,380.1)" />
<use xlink:href="#f0_d" transform="matrix(12,0,0,12,270.4,380.1)" />
<use xlink:href="#f0_4" transform="matrix(12,0,0,12,275.4,380.1)" />
<use xlink:href="#f0_x" transform="matrix(12,0,0,12,287,380.1)" />
<use xlink:href="#f0_e" transform="matrix(12,0,0,12,298.8,380.1)" />
<use xlink:href="#f0_7" transform="matrix(12,0,0,12,305.2,380.1)" />
<use xlink:href="#f0_l" transform="matrix(12,0,0,12,316.3,380.1)" />
<use xlink:href="#f0_1q" transform="matrix(12,0,0,12,323.9,380.1)" />
<use xlink:href="#f0_7" transform="matrix(12,0,0,12,329.1,380.1)" />
<use xlink:href="#f0_m" transform="matrix(12,0,0,12,340.3,380.1)" />
<use xlink:href="#f0_2f" transform="matrix(12,0,0,12,351.7,380.1)" />
<use xlink:href="#f0_r" transform="matrix(12,0,0,12,370.2,380.1)" />
<use xlink:href="#f0_k" transform="matrix(12,0,0,12,380.9,380.1)" />
<use xlink:href="#f0_f" transform="matrix(12,0,0,12,392.3,380.1)" />
<use xlink:href="#f0_7" transform="matrix(12,0,0,12,403.8,380.1)" />
<use xlink:href="#f0_7" transform="matrix(12,0,0,12,415.1,380.1)" />
<use xlink:href="#f0_1c" transform="matrix(12,0,0,12,425.7,380.1)" />
<use xlink:href="#f0_6" transform="matrix(12,0,0,12,431.7,380.1)" />
<use xlink:href="#f0_7" transform="matrix(12,0,0,12,441.9,380.1)" />
<use xlink:href="#f0_8" transform="matrix(12,0,0,12,453,380.1)" />
</g>
</g>
<path d="M232,381l239,0" class="g2_46" />
<g clip-path="url(#c0_46)">
<g fill="#626262" >
<use xlink:href="#f1_q" transform="matrix(12,0,0,12,100.2,430.7)" />
<use xlink:href="#f0_p" transform="matrix(12,0,0,12,126.3,431.9)" />
<use xlink:href="#f0_g" transform="matrix(12,0,0,12,139.8,431.9)" />
<use xlink:href="#f0_b" transform="matrix(12,0,0,12,149.2,431.9)" />
<use xlink:href="#f0_l" transform="matrix(12,0,0,12,160.7,431.9)" />
<use xlink:href="#f0_1g" transform="matrix(12,0,0,12,168.3,431.9)" />
<use xlink:href="#f0_r" transform="matrix(12,0,0,12,176.7,431.9)" />
<use xlink:href="#f0_9" transform="matrix(12,0,0,12,187.5,431.9)" />
<use xlink:href="#f0_b" transform="matrix(12,0,0,12,199.1,431.9)" />
<use xlink:href="#f0_n" transform="matrix(12,0,0,12,210.4,431.9)" />
<use xlink:href="#f0_1b" transform="matrix(12,0,0,12,222.6,431.9)" />
<use xlink:href="#f0_7" transform="matrix(12,0,0,12,227.8,431.9)" />
<use xlink:href="#f0_m" transform="matrix(12,0,0,12,239.1,431.9)" />
<use xlink:href="#f0_g" transform="matrix(12,0,0,12,250.6,431.9)" />
<use xlink:href="#f0_b" transform="matrix(12,0,0,12,260.1,431.9)" />
<use xlink:href="#f0_b" transform="matrix(12,0,0,12,271.5,431.9)" />
<use xlink:href="#f0_1a" transform="matrix(12,0,0,12,282.8,431.9)" />
<use xlink:href="#f0_b" transform="matrix(12,0,0,12,292.7,431.9)" />
<use xlink:href="#f0_l" transform="matrix(12,0,0,12,304,431.9)" />
<use xlink:href="#f0_19" transform="matrix(12,0,0,12,77,490.9)" />
<use xlink:href="#f0_b" transform="matrix(12,0,0,12,86.5,490.9)" />
<use xlink:href="#f0_c" transform="matrix(12,0,0,12,97.9,490.9)" />
<use xlink:href="#f0_6" transform="matrix(12,0,0,12,105.1,490.9)" />
<use xlink:href="#f0_f" transform="matrix(12,0,0,12,115.3,490.9)" />
<use xlink:href="#f0_k" transform="matrix(12,0,0,12,132.7,490.9)" />
<use xlink:href="#f0_4" transform="matrix(12,0,0,12,144,490.9)" />
<use xlink:href="#f0_h" transform="matrix(12,0,0,12,155.6,490.9)" />
<use xlink:href="#f0_7" transform="matrix(12,0,0,12,173.2,490.9)" />
<use xlink:href="#f0_m" transform="matrix(12,0,0,12,184.3,490.9)" />
<use xlink:href="#f0_g" transform="matrix(12,0,0,12,195.9,490.9)" />
<use xlink:href="#f0_b" transform="matrix(12,0,0,12,205.4,490.9)" />
<use xlink:href="#f0_l" transform="matrix(12,0,0,12,216.8,490.9)" />
<use xlink:href="#f0_q" transform="matrix(12,0,0,12,224.5,490.9)" />
<use xlink:href="#f0_b" transform="matrix(12,0,0,12,235.3,490.9)" />
<use xlink:href="#f0_c" transform="matrix(12,0,0,12,252.5,490.9)" />
<use xlink:href="#f0_f" transform="matrix(12,0,0,12,259.7,490.9)" />
<use xlink:href="#f0_b" transform="matrix(12,0,0,12,271.2,490.9)" />
<use xlink:href="#f0_q" transform="matrix(12,0,0,12,288.4,490.9)" />
<use xlink:href="#f0_k" transform="matrix(12,0,0,12,299.3,490.9)" />
<use xlink:href="#f0_a" transform="matrix(12,0,0,12,310.5,490.9)" />
<use xlink:href="#f0_i" transform="matrix(12,0,0,12,315.7,490.9)" />
<use xlink:href="#f0_b" transform="matrix(12,0,0,12,327.2,490.9)" />
<use xlink:href="#f0_g" transform="matrix(12,0,0,12,338.6,490.9)" />
<use xlink:href="#f0_7" transform="matrix(12,0,0,12,353.9,490.9)" />
<use xlink:href="#f0_e" transform="matrix(12,0,0,12,365.2,490.9)" />
<use xlink:href="#f0_24" transform="matrix(12,0,0,12,377.4,490.9)" />
<use xlink:href="#f0_i" transform="matrix(12,0,0,12,382.6,490.9)" />
<use xlink:href="#f0_g" transform="matrix(12,0,0,12,394.1,490.9)" />
<use xlink:href="#f0_b" transform="matrix(12,0,0,12,403.7,490.9)" />
<use xlink:href="#f0_l" transform="matrix(12,0,0,12,415,490.9)" />
<use xlink:href="#f0_4" transform="matrix(12,0,0,12,422.3,490.9)" />
<use xlink:href="#f0_k" transform="matrix(12,0,0,12,433.9,490.9)" />
<use xlink:href="#f0_8" transform="matrix(12,0,0,12,445.2,490.9)" />
<use xlink:href="#f0_b" transform="matrix(12,0,0,12,463,490.9)" />
<use xlink:href="#f0_24" transform="matrix(12,0,0,12,474.3,490.9)" />
<use xlink:href="#f0_k" transform="matrix(12,0,0,12,485.3,490.9)" />
<use xlink:href="#f0_4" transform="matrix(12,0,0,12,496.6,490.9)" />
<use xlink:href="#f0_h" transform="matrix(12,0,0,12,508.2,490.9)" />
<use xlink:href="#f0_24" transform="matrix(12,0,0,12,525.8,490.9)" />
<use xlink:href="#f0_i" transform="matrix(12,0,0,12,531,490.9)" />
<use xlink:href="#f0_g" transform="matrix(12,0,0,12,542.4,490.9)" />
<use xlink:href="#f0_b" transform="matrix(12,0,0,12,552,490.9)" />
<use xlink:href="#f0_l" transform="matrix(12,0,0,12,563.3,490.9)" />
<use xlink:href="#f0_c" transform="matrix(12,0,0,12,570.9,490.9)" />
<use xlink:href="#f0_r" transform="matrix(12,0,0,12,578.1,490.9)" />
<use xlink:href="#f0_9" transform="matrix(12,0,0,12,589,490.9)" />
<use xlink:href="#f0_b" transform="matrix(12,0,0,12,600.6,490.9)" />
<use xlink:href="#f0_24" transform="matrix(12,0,0,12,611.9,490.9)" />
<use xlink:href="#f0_7" transform="matrix(12,0,0,12,622.8,490.9)" />
<use xlink:href="#f0_e" transform="matrix(12,0,0,12,634,490.9)" />
<use xlink:href="#f0_c" transform="matrix(12,0,0,12,646.3,490.9)" />
<use xlink:href="#f0_f" transform="matrix(12,0,0,12,653.4,490.9)" />
<use xlink:href="#f0_b" transform="matrix(12,0,0,12,665,490.9)" />
<use xlink:href="#f0_i" transform="matrix(12,0,0,12,682.2,490.9)" />
<use xlink:href="#f0_g" transform="matrix(12,0,0,12,693.8,490.9)" />
<use xlink:href="#f0_b" transform="matrix(12,0,0,12,703.3,490.9)" />
<use xlink:href="#f0_l" transform="matrix(12,0,0,12,714.6,490.9)" />
<use xlink:href="#f0_12" transform="matrix(12,0,0,12,728.2,490.9)" />
<use xlink:href="#f0_d" transform="matrix(12,0,0,12,743.3,490.9)" />
<use xlink:href="#f0_c" transform="matrix(12,0,0,12,748.3,490.9)" />
<use xlink:href="#f0_f" transform="matrix(12,0,0,12,755.5,490.9)" />
<use xlink:href="#f0_24" transform="matrix(12,0,0,12,772.9,490.9)" />
<use xlink:href="#f0_i" transform="matrix(12,0,0,12,777.9,490.9)" />
<use xlink:href="#f0_g" transform="matrix(12,0,0,12,789.5,490.9)" />
<use xlink:href="#f0_b" transform="matrix(12,0,0,12,799,490.9)" />
<use xlink:href="#f0_l" transform="matrix(12,0,0,12,810.4,490.9)" />
<use xlink:href="#f0_d" transform="matrix(12,0,0,12,818.1,490.9)" />
<use xlink:href="#f0_h" transform="matrix(12,0,0,12,823.2,490.9)" />
<use xlink:href="#f0_1v" transform="matrix(12,0,0,12,840.8,490.9)" />
<use xlink:href="#f0_10" transform="matrix(12,0,0,12,862.2,490.9)" />
<use xlink:href="#f0_24" transform="matrix(12,0,0,12,873.9,490.9)" />
<use xlink:href="#f0_m" transform="matrix(12,0,0,12,884.9,490.9)" />
<use xlink:href="#f0_b" transform="matrix(12,0,0,12,896.5,490.9)" />
<use xlink:href="#f0_e" transform="matrix(12,0,0,12,907.8,490.9)" />
<use xlink:href="#f0_7" transform="matrix(12,0,0,12,914.2,490.9)" />
<use xlink:href="#f0_l" transform="matrix(12,0,0,12,925.4,490.9)" />
<use xlink:href="#f0_b" transform="matrix(12,0,0,12,932.6,490.9)" />
<use xlink:href="#f0_k" transform="matrix(12,0,0,12,949.8,490.9)" />
<use xlink:href="#f0_4" transform="matrix(12,0,0,12,961.1,490.9)" />
<use xlink:href="#f0_h" transform="matrix(12,0,0,12,972.7,490.9)" />
<use xlink:href="#f0_k" transform="matrix(12,0,0,12,990.3,490.9)" />
<use xlink:href="#f0_e" transform="matrix(12,0,0,12,1001.7,490.9)" />
<use xlink:href="#f0_c" transform="matrix(12,0,0,12,1007.7,490.9)" />
<use xlink:href="#f0_b" transform="matrix(12,0,0,12,1014.8,490.9)" />
<use xlink:href="#f0_l" transform="matrix(12,0,0,12,1026.1,490.9)" />
<use xlink:href="#f0_24" transform="matrix(12,0,0,12,77,549.8)" />
<use xlink:href="#f0_i" transform="matrix(12,0,0,12,82.2,549.8)" />
<use xlink:href="#f0_9" transform="matrix(12,0,0,12,93.6,549.8)" />
<use xlink:href="#f0_h" transform="matrix(12,0,0,12,105.2,549.8)" />
<use xlink:href="#f0_k" transform="matrix(12,0,0,12,117,549.8)" />
<use xlink:href="#f0_c" transform="matrix(12,0,0,12,128.3,549.8)" />
<use xlink:href="#f0_b" transform="matrix(12,0,0,12,135.5,549.8)" />
<use xlink:href="#f0_24" transform="matrix(12,0,0,12,146.8,549.8)" />
<use xlink:href="#f0_7" transform="matrix(12,0,0,12,157.7,549.8)" />
<use xlink:href="#f0_9" transform="matrix(12,0,0,12,168.9,549.8)" />
<use xlink:href="#f0_b" transform="matrix(12,0,0,12,180.5,549.8)" />
<use xlink:href="#f0_l" transform="matrix(12,0,0,12,191.8,549.8)" />
<use xlink:href="#f0_k" transform="matrix(12,0,0,12,199.6,549.8)" />
<use xlink:href="#f0_c" transform="matrix(12,0,0,12,210.9,549.8)" />
<use xlink:href="#f0_d" transform="matrix(12,0,0,12,218,549.8)" />
<use xlink:href="#f0_7" transform="matrix(12,0,0,12,223.2,549.8)" />
<use xlink:href="#f0_4" transform="matrix(12,0,0,12,234.4,549.8)" />
<use xlink:href="#f0_1c" transform="matrix(12,0,0,12,245.8,549.8)" />
<use xlink:href="#f0_t" transform="matrix(12,0,0,12,47.7,609)" />
<use xlink:href="#f0_1c" transform="matrix(12,0,0,12,59.4,609)" />
<use xlink:href="#f0_15" transform="matrix(12,0,0,12,75.2,609)" />
<use xlink:href="#f0_f" transform="matrix(12,0,0,12,88,609)" />
<use xlink:href="#f0_k" transform="matrix(12,0,0,12,99.6,609)" />
<use xlink:href="#f0_4" transform="matrix(12,0,0,12,110.9,609)" />
<use xlink:href="#f0_x" transform="matrix(12,0,0,12,122.5,609)" />
<use xlink:href="#f0_b" transform="matrix(12,0,0,12,134.1,609)" />
<use xlink:href="#f0_c" transform="matrix(12,0,0,12,151.3,609)" />
<use xlink:href="#f0_f" transform="matrix(12,0,0,12,158.5,609)" />
<use xlink:href="#f0_b" transform="matrix(12,0,0,12,170.1,609)" />
<use xlink:href="#f0_9" transform="matrix(12,0,0,12,187.4,609)" />
<use xlink:href="#f0_k" transform="matrix(12,0,0,12,198.8,609)" />
<use xlink:href="#f0_g" transform="matrix(12,0,0,12,210.3,609)" />
<use xlink:href="#f0_g" transform="matrix(12,0,0,12,219.7,609)" />
<use xlink:href="#f0_12" transform="matrix(12,0,0,12,229.2,609)" />
<use xlink:href="#f0_7" transform="matrix(12,0,0,12,244.3,609)" />
<use xlink:href="#f0_l" transform="matrix(12,0,0,12,255.5,609)" />
<use xlink:href="#f0_h" transform="matrix(12,0,0,12,262.8,609)" />
<use xlink:href="#f0_e" transform="matrix(12,0,0,12,280.4,609)" />
<use xlink:href="#f0_7" transform="matrix(12,0,0,12,286.8,609)" />
<use xlink:href="#f0_l" transform="matrix(12,0,0,12,297.9,609)" />
<use xlink:href="#f0_i" transform="matrix(12,0,0,12,311.5,609)" />
<use xlink:href="#f0_g" transform="matrix(12,0,0,12,323.1,609)" />
<use xlink:href="#f0_b" transform="matrix(12,0,0,12,332.6,609)" />
<use xlink:href="#f0_l" transform="matrix(12,0,0,12,343.9,609)" />
<use xlink:href="#f0_d" transform="matrix(12,0,0,12,351.7,609)" />
<use xlink:href="#f0_h" transform="matrix(12,0,0,12,356.8,609)" />
<use xlink:href="#f0_1v" transform="matrix(12,0,0,12,374.4,609)" />
<use xlink:href="#f0_2" transform="matrix(12,0,0,12,395.8,609)" />
<use xlink:href="#f0_1c" transform="matrix(12,0,0,12,407.4,609)" />
<use xlink:href="#f0_1h" transform="matrix(12,0,0,12,419.1,609)" />
<use xlink:href="#f0_6" transform="matrix(12,0,0,12,431.2,609)" />
<use xlink:href="#f0_6" transform="matrix(12,0,0,12,441.4,609)" />
<use xlink:href="#f0_b" transform="matrix(12,0,0,12,451.6,609)" />
<use xlink:href="#f0_9" transform="matrix(12,0,0,12,463,609)" />
<use xlink:href="#f0_c" transform="matrix(12,0,0,12,474.5,609)" />
<use xlink:href="#f0_c" transform="matrix(12,0,0,12,487.5,609)" />
<use xlink:href="#f0_f" transform="matrix(12,0,0,12,494.7,609)" />
<use xlink:href="#f0_b" transform="matrix(12,0,0,12,506.3,609)" />
<use xlink:href="#f0_4" transform="matrix(12,0,0,12,523.5,609)" />
<use xlink:href="#f0_b" transform="matrix(12,0,0,12,535,609)" />
<use xlink:href="#f0_12" transform="matrix(12,0,0,12,546.3,609)" />
<use xlink:href="#f0_9" transform="matrix(12,0,0,12,567.2,609)" />
<use xlink:href="#f0_k" transform="matrix(12,0,0,12,578.8,609)" />
<use xlink:href="#f0_g" transform="matrix(12,0,0,12,590.1,609)" />
<use xlink:href="#f0_g" transform="matrix(12,0,0,12,599.7,609)" />
<use xlink:href="#f0_12" transform="matrix(12,0,0,12,609.2,609)" />
<use xlink:href="#f0_7" transform="matrix(12,0,0,12,624.2,609)" />
<use xlink:href="#f0_l" transform="matrix(12,0,0,12,635.5,609)" />
<use xlink:href="#f0_h" transform="matrix(12,0,0,12,642.8,609)" />
<use xlink:href="#f0_k" transform="matrix(12,0,0,12,660.3,609)" />
<use xlink:href="#f0_g" transform="matrix(12,0,0,12,671.6,609)" />
<use xlink:href="#f0_k" transform="matrix(12,0,0,12,687.1,609)" />
<use xlink:href="#f0_4" transform="matrix(12,0,0,12,698.5,609)" />
<use xlink:href="#f0_d" transform="matrix(12,0,0,12,715.9,609)" />
<use xlink:href="#f0_4" transform="matrix(12,0,0,12,720.9,609)" />
<use xlink:href="#f0_9" transform="matrix(12,0,0,12,732.5,609)" />
<use xlink:href="#f0_i" transform="matrix(12,0,0,12,744,609)" />
<use xlink:href="#f0_c" transform="matrix(12,0,0,12,755.6,609)" />
<use xlink:href="#f0_e" transform="matrix(12,0,0,12,768.6,609)" />
<use xlink:href="#f0_l" transform="matrix(12,0,0,12,775,609)" />
<use xlink:href="#f0_7" transform="matrix(12,0,0,12,782.2,609)" />
<use xlink:href="#f0_8" transform="matrix(12,0,0,12,793.4,609)" />
<use xlink:href="#f0_i" transform="matrix(12,0,0,12,817,609)" />
<use xlink:href="#f0_g" transform="matrix(12,0,0,12,828.5,609)" />
<use xlink:href="#f0_b" transform="matrix(12,0,0,12,838.1,609)" />
<use xlink:href="#f0_l" transform="matrix(12,0,0,12,849.4,609)" />
</g>
<g fill="#595959" >
<use xlink:href="#f0_1c" transform="matrix(12,0,0,12,857.7,609)" />
<use xlink:href="#f0_19" transform="matrix(12,0,0,12,869.4,609)" />
<use xlink:href="#f0_b" transform="matrix(12,0,0,12,878.9,609)" />
<use xlink:href="#f0_c" transform="matrix(12,0,0,12,890.2,609)" />
<use xlink:href="#f0_6" transform="matrix(12,0,0,12,897.4,609)" />
<use xlink:href="#f0_f" transform="matrix(12,0,0,12,907.6,609)" />
<use xlink:href="#f0_k" transform="matrix(12,0,0,12,925,609)" />
<use xlink:href="#f0_4" transform="matrix(12,0,0,12,936.5,609)" />
<use xlink:href="#f0_h" transform="matrix(12,0,0,12,947.9,609)" />
<use xlink:href="#f0_7" transform="matrix(12,0,0,12,965.5,609)" />
<use xlink:href="#f0_m" transform="matrix(12,0,0,12,976.8,609)" />
<use xlink:href="#f0_g" transform="matrix(12,0,0,12,988.2,609)" />
<use xlink:href="#f0_b" transform="matrix(12,0,0,12,997.9,609)" />
<use xlink:href="#f0_l" transform="matrix(12,0,0,12,1009.1,609)" />
<use xlink:href="#f0_q" transform="matrix(12,0,0,12,1016.9,609)" />
<use xlink:href="#f0_b" transform="matrix(12,0,0,12,1027.6,609)" />
<use xlink:href="#f0_c" transform="matrix(12,0,0,12,71.2,667.9)" />
<use xlink:href="#f0_f" transform="matrix(12,0,0,12,78.4,667.9)" />
<use xlink:href="#f0_b" transform="matrix(12,0,0,12,89.8,667.9)" />
<use xlink:href="#f0_q" transform="matrix(12,0,0,12,107.1,667.9)" />
<use xlink:href="#f0_k" transform="matrix(12,0,0,12,117.9,667.9)" />
<use xlink:href="#f0_a" transform="matrix(12,0,0,12,129.2,667.9)" />
<use xlink:href="#f0_i" transform="matrix(12,0,0,12,134.4,667.9)" />
<use xlink:href="#f0_b" transform="matrix(12,0,0,12,145.8,667.9)" />
<use xlink:href="#f0_7" transform="matrix(12,0,0,12,163.1,667.9)" />
<use xlink:href="#f0_e" transform="matrix(12,0,0,12,174.2,667.9)" />
<use xlink:href="#f0_24" transform="matrix(12,0,0,12,186.6,667.9)" />
<use xlink:href="#f0_9" transform="matrix(12,0,0,12,191.6,667.9)" />
<use xlink:href="#f0_k" transform="matrix(12,0,0,12,203.2,667.9)" />
<use xlink:href="#f0_g" transform="matrix(12,0,0,12,214.5,667.9)" />
<use xlink:href="#f0_g" transform="matrix(12,0,0,12,224.1,667.9)" />
<use xlink:href="#f0_12" transform="matrix(12,0,0,12,233.6,667.9)" />
<use xlink:href="#f0_7" transform="matrix(12,0,0,12,248.7,667.9)" />
<use xlink:href="#f0_l" transform="matrix(12,0,0,12,259.8,667.9)" />
<use xlink:href="#f0_h" transform="matrix(12,0,0,12,267.2,667.9)" />
<use xlink:href="#f0_24" transform="matrix(12,0,0,12,278.9,667.9)" />
<use xlink:href="#f0_7" transform="matrix(12,0,0,12,289.9,667.9)" />
<use xlink:href="#f0_e" transform="matrix(12,0,0,12,301,667.9)" />
<use xlink:href="#f0_c" transform="matrix(12,0,0,12,313.3,667.9)" />
<use xlink:href="#f0_f" transform="matrix(12,0,0,12,320.5,667.9)" />
<use xlink:href="#f0_b" transform="matrix(12,0,0,12,331.9,667.9)" />
<use xlink:href="#f0_i" transform="matrix(12,0,0,12,349.2,667.9)" />
<use xlink:href="#f0_g" transform="matrix(12,0,0,12,360.8,667.9)" />
<use xlink:href="#f0_b" transform="matrix(12,0,0,12,370.2,667.9)" />
<use xlink:href="#f0_l" transform="matrix(12,0,0,12,381.7,667.9)" />
<use xlink:href="#f0_12" transform="matrix(12,0,0,12,395.3,667.9)" />
<use xlink:href="#f0_d" transform="matrix(12,0,0,12,410.2,667.9)" />
<use xlink:href="#f0_c" transform="matrix(12,0,0,12,415.3,667.9)" />
<use xlink:href="#f0_f" transform="matrix(12,0,0,12,422.5,667.9)" />
<use xlink:href="#f0_24" transform="matrix(12,0,0,12,439.9,667.9)" />
<use xlink:href="#f0_i" transform="matrix(12,0,0,12,445,667.9)" />
<use xlink:href="#f0_g" transform="matrix(12,0,0,12,456.7,667.9)" />
<use xlink:href="#f0_b" transform="matrix(12,0,0,12,466.1,667.9)" />
<use xlink:href="#f0_l" transform="matrix(12,0,0,12,477.4,667.9)" />
<use xlink:href="#f0_d" transform="matrix(12,0,0,12,485.2,667.9)" />
<use xlink:href="#f0_h" transform="matrix(12,0,0,12,490.2,667.9)" />
<use xlink:href="#f0_1v" transform="matrix(12,0,0,12,507.8,667.9)" />
<use xlink:href="#f0_2" transform="matrix(12,0,0,12,529.3,667.9)" />
<use xlink:href="#f0_24" transform="matrix(12,0,0,12,540.8,667.9)" />
<use xlink:href="#f0_m" transform="matrix(12,0,0,12,551.8,667.9)" />
<use xlink:href="#f0_b" transform="matrix(12,0,0,12,563.4,667.9)" />
<use xlink:href="#f0_e" transform="matrix(12,0,0,12,574.7,667.9)" />
<use xlink:href="#f0_7" transform="matrix(12,0,0,12,581.2,667.9)" />
<use xlink:href="#f0_l" transform="matrix(12,0,0,12,592.4,667.9)" />
<use xlink:href="#f0_b" transform="matrix(12,0,0,12,599.5,667.9)" />
<use xlink:href="#f0_k" transform="matrix(12,0,0,12,616.6,667.9)" />
<use xlink:href="#f0_4" transform="matrix(12,0,0,12,628.1,667.9)" />
<use xlink:href="#f0_h" transform="matrix(12,0,0,12,639.5,667.9)" />
<use xlink:href="#f0_k" transform="matrix(12,0,0,12,657.1,667.9)" />
<use xlink:href="#f0_e" transform="matrix(12,0,0,12,668.5,667.9)" />
<use xlink:href="#f0_c" transform="matrix(12,0,0,12,674.7,667.9)" />
<use xlink:href="#f0_b" transform="matrix(12,0,0,12,681.7,667.9)" />
<use xlink:href="#f0_l" transform="matrix(12,0,0,12,693.1,667.9)" />
<use xlink:href="#f0_24" transform="matrix(12,0,0,12,706.6,667.9)" />
<use xlink:href="#f0_i" transform="matrix(12,0,0,12,711.7,667.9)" />
<use xlink:href="#f0_9" transform="matrix(12,0,0,12,723.3,667.9)" />
<use xlink:href="#f0_h" transform="matrix(12,0,0,12,734.8,667.9)" />
<use xlink:href="#f0_k" transform="matrix(12,0,0,12,746.5,667.9)" />
<use xlink:href="#f0_c" transform="matrix(12,0,0,12,758,667.9)" />
<use xlink:href="#f0_b" transform="matrix(12,0,0,12,765,667.9)" />
<use xlink:href="#f0_24" transform="matrix(12,0,0,12,776.4,667.9)" />
<use xlink:href="#f0_7" transform="matrix(12,0,0,12,787.4,667.9)" />
<use xlink:href="#f0_9" transform="matrix(12,0,0,12,798.6,667.9)" />
<use xlink:href="#f0_b" transform="matrix(12,0,0,12,810,667.9)" />
<use xlink:href="#f0_l" transform="matrix(12,0,0,12,821.4,667.9)" />
<use xlink:href="#f0_k" transform="matrix(12,0,0,12,829.1,667.9)" />
<use xlink:href="#f0_c" transform="matrix(12,0,0,12,840.5,667.9)" />
<use xlink:href="#f0_d" transform="matrix(12,0,0,12,847.7,667.9)" />
<use xlink:href="#f0_7" transform="matrix(12,0,0,12,852.7,667.9)" />
<use xlink:href="#f0_4" transform="matrix(12,0,0,12,863.9,667.9)" />
<use xlink:href="#f0_1c" transform="matrix(12,0,0,12,875.5,667.9)" />
</g>
</g>
<image x="148" y="64" width="827" height="235" xlink:href="img/2.png" />
<defs>
	<path d="M488.9,594.3c0,0,110,0,165,50.4c0,0,55,50.4,55,148.2c0,0,0,97.8,-55,146.7c0,0,-55,48.9,-165,48.9l-189.5,0l0,-394.2ZM149.7,0l0,1113.8l339.2,0c0,0,191,0,284.2,-79.5c0,0,94.7,-81,94.7,-241.4c0,0,0,-105.4,-48.9,-174.1c0,0,-48.9,-70.3,-142.1,-97.8c0,0,48.9,-15.3,94.7,-68.8c0,0,45.9,-55,91.7,-148.2L1017.5,0L855.6,0L711.9,285.7c0,0,-55,111.5,-106.9,148.2c0,0,-51.9,36.7,-140.6,36.7l-165,0L299.4,0Z" 
	id="f0_1u"
	transform="scale(0.001,-0.001)" />

	<path d="M230.7,490.4l490.4,1.5c0,0,-1.5,111.6,-62.6,178.8c0,0,-62.7,67.2,-163.5,67.2c0,0,-114.6,0,-183.3,-64.1c0,0,-70.3,-65.7,-81,-183.4ZM516.4,-21.3c0,0,-198.6,0,-314.7,116C201.7,94.7,84,210.8,84,409.4c0,0,0,204.8,110,325.5c0,0,111.6,120.7,299.5,120.7c0,0,168,0,265.8,-108.5c0,0,99.3,-110,99.3,-296.4l0,-67.2l-632.5,0c0,0,9.2,-140.6,85.6,-213.9c0,0,76.4,-74.9,213.9,-74.9c0,0,77.9,0,152.7,18.4c0,0,74.9,19.8,148.2,58l0,-129.8c0,0,-74.8,-30.6,-151.2,-45.8c0,0,-77.9,-16.8,-158.9,-16.8Z" 
	id="f0_b"
	transform="scale(0.001,-0.001)" />

	<path d="M165,0l0,728.8l-131.4,0l0,105.4l131.4,0l0,58c0,0,0,140.6,64.2,203.2c0,0,65.7,64.2,207.7,64.2l129.9,0l0,-113.1l-131.4,0c0,0,-74.8,0,-102.3,-30.5c0,0,-29.1,-30.6,-29.1,-107l0,-74.8l226.1,0l0,-105.4l-226.1,0L304,0Z" 
	id="f0_e"
	transform="scale(0.001,-0.001)" />

	<path d="M137.5,0l0,834.2l139,0l0,-129.9c0,0,42.8,76.4,111.6,113.1c0,0,70.2,38.2,169.5,38.2c0,0,13.8,0,30.6,-1.6c0,0,16.8,-3,38.2,-6.1l1.5,-142.1c0,0,-24.4,13.8,-50.4,19.9c0,0,-27.5,6.1,-61.1,6.1c0,0,-116.1,0,-177.2,-74.9c0,0,-62.7,-76.3,-62.7,-216.9l0,-440Z" 
	id="f0_l"
	transform="scale(0.001,-0.001)" />

	<path d="M420.1,0c0,0,-158.8,0,-218.4,58.1c0,0,-61.1,59.5,-61.1,216.9l0,453.8l-100.9,0l0,105.4l100.9,0l0,238.3l139,0l0,-238.3l282.6,0l0,-105.4l-282.6,0l0,-453.8c0,0,0,-102.4,27.5,-131.4c0,0,27.5,-29,113,-29l142.1,0L562.2,0Z" 
	id="f0_c"
	transform="scale(0.001,-0.001)" />

	<path d="M467.5,94.7c0,0,108.5,0,172.6,85.6c0,0,64.2,87.1,64.2,235.3c0,0,0,149.7,-64.2,235.2c0,0,-64.1,87.1,-172.6,87.1c0,0,-111.5,0,-175.7,-85.5c0,0,-64.2,-85.6,-64.2,-236.8c0,0,0,-149.8,64.2,-235.3c0,0,64.2,-85.6,175.7,-85.6Zm0,-116c0,0,-180.3,0,-281.1,116C186.4,94.7,84,210.8,84,415.6c0,0,0,206.2,100.9,322.3c0,0,102.3,117.7,282.6,117.7c0,0,178.8,0,281.1,-116.2c0,0,102.4,-117.6,102.4,-323.8c0,0,0,-204.8,-102.4,-320.9c0,0,-102.3,-116,-281.1,-116Z" 
	id="f0_7"
	transform="scale(0.001,-0.001)" />

	<path d="M137.5,0l0,1159.6l139,0l0,-455.3c0,0,48.9,76.4,114.6,113.1c0,0,67.2,38.2,154.3,38.2c0,0,145.2,0,218.5,-88.7c0,0,73.3,-90.1,73.3,-262.7L837.2,0L699.7,0l0,499.6c0,0,0,117.6,-45.8,175.7c0,0,-45.8,59.6,-139,59.6c0,0,-110,0,-174.2,-70.3c0,0,-64.2,-70.3,-64.2,-192.5L276.5,0Z" 
	id="f0_f"
	transform="scale(0.001,-0.001)" />

	<path d="M407.9,93.2c0,0,113.1,0,181.8,79.4c0,0,70.3,81,70.3,215.5l0,30.5l-137.5,0c0,0,-166.5,0,-230.7,-36.7c0,0,-64.2,-38.1,-64.2,-129.8c0,0,0,-73.3,47.4,-116.1c0,0,48.9,-42.8,132.9,-42.8ZM371.3,-21.3c0,0,-128.4,0,-203.2,71.7c0,0,-76.4,71.8,-76.4,192.5c0,0,0,140.6,93.2,212.4c0,0,94.7,71.8,282.6,71.8l192.5,0l0,13.7c0,0,0,94.8,-62.6,145.2c0,0,-62.7,51.9,-175.7,51.9c0,0,-71.8,0,-139.1,-16.8c0,0,-67.2,-16.8,-129.8,-51.9l0,126.8c0,0,74.8,30.5,145.1,44.3c0,0,71.8,15.3,139,15.3c0,0,180.3,0,268.9,-93.2c0,0,90.2,-94.8,90.2,-285.7L796,0L660,0l0,126.8c0,0,-47.4,-76.4,-117.6,-111.5c0,0,-70.3,-36.6,-171.1,-36.6Z" 
	id="f0_k"
	transform="scale(0.001,-0.001)" />

	<path d="M508.8,93.2c0,0,110,0,171.1,85.6c0,0,62.6,85.5,62.6,236.8c0,0,0,152.7,-61.1,238.3c0,0,-62.6,85.5,-172.6,85.5c0,0,-108.5,0,-169.6,-85.5c0,0,-62.7,-85.6,-62.7,-238.3c0,0,0,-151.3,61.1,-236.8c0,0,62.7,-85.6,171.2,-85.6ZM542.4,-21.3c0,0,-91.7,0,-157.4,35.1c0,0,-65.7,36.6,-108.5,111.5L276.5,0l-139,0l0,1159.6l139,0l0,-452.2c0,0,42.8,74.8,108.5,111.5c0,0,65.7,36.7,157.4,36.7c0,0,152.7,0,247.5,-120.7c0,0,96.2,-122.3,96.2,-319.3c0,0,0,-195.6,-94.7,-316.3c0,0,-96.3,-120.6,-249,-120.6Z" 
	id="f0_m"
	transform="scale(0.001,-0.001)" />

	<path d="M143,0l0,1159l138,0L281,0Z" 
	id="f0_a"
	transform="scale(0.001,-0.001)" />

	<path d="M146,699l0,414l127,0l0,-414Z" 
	id="f0_24"
	transform="scale(0.001,-0.001)" />

	<path d="M421.7,-21.3c0,0,-143.6,0,-218.5,88.5L128.3,328.5l0,505.7l137.5,0l0,-499.6c0,0,0,-119.2,45.9,-178.8c0,0,47.3,-59.5,139,-59.5c0,0,111.5,0,175.7,70.2c0,0,65.7,71.8,65.7,194.1l0,473.6l136,0L828.1,0l-136,0l0,126.8c0,0,-50.4,-74.9,-116.1,-111.5c0,0,-67.2,-36.6,-154.3,-36.6Z" 
	id="f0_i"
	transform="scale(0.001,-0.001)" />

	<path d="M375.8,-21.3c0,0,-67.2,0,-140.5,12.2c0,0,-73.4,12.2,-152.8,39.7l0,140.5c0,0,76.4,-39.7,149.7,-58c0,0,73.4,-19.9,146.7,-19.9c0,0,96.2,0,148.2,32.1c0,0,51.9,33.6,51.9,94.7c0,0,0,55,-36.6,84c0,0,-38.2,30.6,-165,58.1l-48.9,12.2c0,0,-126.8,26,-183.4,81c0,0,-56.5,56.5,-56.5,152.8c0,0,0,119.1,82.5,183.3c0,0,84,64.2,238.3,64.2c0,0,74.9,0,142.1,-10.7c0,0,67.3,-12.3,123.8,-35.2l0,-129.8c0,0,-58.1,30.5,-120.7,44.3c0,0,-62.7,15.2,-129.9,15.2c0,0,-102.3,0,-152.8,-30.5c0,0,-50.4,-32.1,-50.4,-94.7c0,0,0,-47.4,35.2,-74.9c0,0,36.6,-27.5,148.2,-51.9l45.8,-10.7c0,0,146.7,-30.6,207.8,-87.1c0,0,62.6,-58.1,62.6,-160.4c0,0,0,-116.1,-91.7,-183.4c0,0,-93.1,-67.1,-253.6,-67.1Z" 
	id="f0_g"
	transform="scale(0.001,-0.001)" />

	<path d="M495,-21.3c0,0,-189.4,0,-299.4,117.6C195.6,96.3,84,215.4,84,415.6c0,0,0,204.7,111.6,322.3c0,0,113,117.7,308.6,117.7c0,0,62.6,0,122.2,-13.8c0,0,61.1,-13.7,117.6,-39.7l0,-128.3c0,0,-58,32,-116.1,47.3c0,0,-58,16.8,-119.1,16.8c0,0,-133,0,-206.3,-84c0,0,-74.9,-84,-74.9,-238.3c0,0,0,-152.8,73.4,-236.8c0,0,74.8,-84.1,207.8,-84.1c0,0,61.1,0,119.1,15.3c0,0,58.1,16.8,116.1,48.9L744,30.6c0,0,-56.5,-26,-117.6,-38.1c0,0,-62.6,-13.8,-131.4,-13.8Z" 
	id="f0_6"
	transform="scale(0.001,-0.001)" />

	<path d="M458.3,93.2c0,0,110,0,172.7,85.6c0,0,62.6,85.5,62.6,236.8c0,0,0,152.7,-62.6,238.3c0,0,-62.7,85.5,-172.7,85.5c0,0,-108.4,0,-171.1,-85.5c0,0,-62.6,-85.6,-62.6,-238.3c0,0,0,-151.3,62.6,-236.8c0,0,62.7,-85.6,171.1,-85.6ZM424.7,-21.3c0,0,-151.2,0,-245.9,120.6C178.8,99.3,84,220,84,415.6c0,0,0,197,94.8,317.7c0,0,94.7,122.3,245.9,122.3c0,0,93.2,0,158.9,-36.7c0,0,65.7,-36.7,110,-111.5l0,452.2l136,0L829.6,0l-136,0l0,125.3c0,0,-44.3,-74.9,-110,-110c0,0,-65.7,-36.6,-158.9,-36.6Z" 
	id="f0_h"
	transform="scale(0.001,-0.001)" />

	<path d="M143,0l0,834l138,0L281,0Zm0,985l0,174l138,0l0,-174Z" 
	id="f0_d"
	transform="scale(0.001,-0.001)" />

	<path d="M161,0l0,189l158,0L319,0Z" 
	id="f0_1c"
	transform="scale(0.001,-0.001)" />

	<path d="M389,0l0,985L-3,985l0,128l939,0l0,-128l-396,0L540,0Z" 
	id="f0_1g"
	transform="scale(0.001,-0.001)" />

	<path d="M42.8,0L368.2,436.9L70.3,834.2l161.9,0L453.8,537.8L675.3,834.2l161.9,0L536.3,427.8L854,0L692.1,0L447.6,326.9L204.7,0Z" 
	id="f0_v"
	transform="scale(0.001,-0.001)" />

	<path d="M137.5,0l0,834.2l139,0l0,-129.9c0,0,48.9,76.4,114.6,113.1c0,0,67.2,38.2,154.3,38.2c0,0,145.2,0,218.5,-88.7c0,0,73.3,-90.1,73.3,-262.7L837.2,0L699.7,0l0,499.6c0,0,0,117.6,-45.8,175.7c0,0,-45.8,59.6,-139,59.6c0,0,-110,0,-174.2,-70.3c0,0,-64.2,-70.3,-64.2,-192.5L276.5,0Z" 
	id="f0_4"
	transform="scale(0.001,-0.001)" />

	<path d="M458.3,114.6c0,0,111.6,0,172.7,81c0,0,62.6,82.5,62.6,230.7c0,0,0,149.7,-61.1,230.6c0,0,-62.6,82.5,-174.2,82.5c0,0,-110,0,-171.1,-80.9c0,0,-62.6,-82.5,-62.6,-232.2c0,0,0,-148.2,61.1,-229.2c0,0,62.6,-82.5,172.6,-82.5ZM444.6,-317.7c0,0,-71.8,0,-136,10.7c0,0,-64.2,12.2,-123.7,33.6l0,134.5c0,0,59.5,-33.6,117.6,-48.9c0,0,59.6,-15.3,120.7,-15.3c0,0,136,0,203.2,70.3c0,0,67.2,70.3,67.2,210.7l0,68.8c0,0,-42.8,-74.9,-108.5,-110C585.1,36.7,517.9,0,424.7,0c0,0,-152.8,0,-245.9,116.1c0,0,-94.8,117.7,-94.8,310.2c0,0,0,194,93.2,311.6c0,0,94.7,117.7,247.5,117.7c0,0,93.2,0,158.9,-36.7c0,0,67.2,-36.7,110,-111.5l0,126.8l136,0l0,-731.8c0,0,0,-210.8,-94.7,-314.7c0,0,-94.8,-105.4,-290.3,-105.4Z" 
	id="f0_x"
	transform="scale(0.001,-0.001)" />

	<path d="M128.3,745.6l0,129.8l123.8,238.4l96.2,0L285.7,875.4l0,-129.8Zm307.1,0l0,129.8l122.2,238.4l96.3,0L592.8,875.4l0,-129.8Z" 
	id="f0_2d"
	transform="scale(0.001,-0.001)" />

	<path d="M128.3,745.6l61.1,239.8l0,128.4l158.9,0l0,-128.4L224.6,745.6Zm307.1,0l61.1,239.8l0,128.4l157.4,0l0,-128.4L531.7,745.6Z" 
	id="f0_2e"
	transform="scale(0.001,-0.001)" />

	<path d="M357.5,0L44.3,834.2l145.1,0L450.7,132.9L711.9,834.2l146.7,0L543.9,0Z" 
	id="f0_q"
	transform="scale(0.001,-0.001)" />

	<path d="M282.6,0L62.6,834.2l137.5,0L372.8,183.3L542.4,834.2l161.9,0L876.9,183.3l171.2,650.9l135.9,0L965.6,0l-162,0L624.9,684.4L444.6,0Z" 
	id="f0_12"
	transform="scale(0.001,-0.001)" />

	<path d="M178,0l0,189l158,0L336,0Zm0,600l0,189l158,0l0,-189Z" 
	id="f0_n"
	transform="scale(0.001,-0.001)" />

	<path d="M189.4,0l0,126.8l246,0l0,849.5L166.5,922.8l0,136l267.4,55l149.7,0l0,-987l246,0L829.6,0Z" 
	id="f0_2"
	transform="scale(0.001,-0.001)" />

	<path d="M149.7,0l0,1113.8l224.6,0L658.5,354.4l285.7,759.4l224.6,0L1168.8,0L1020.6,0l0,977.8L733.3,213.9l-151.2,0L294.9,977.8L294.9,0Z" 
	id="f0_1d"
	transform="scale(0.001,-0.001)" />

	<path d="M120.7,-317.7l0,116.1l79.4,0c0,0,56.6,0,87.1,26c0,0,32.1,27.5,70.3,126.8l24.4,61L44.3,834.2l145.1,0L450.7,181.8L711.9,834.2l146.7,0L490.4,-76.3c0,0,-58,-149.7,-113,-195.5c0,0,-55,-45.9,-148.2,-45.9Z" 
	id="f0_r"
	transform="scale(0.001,-0.001)" />

	<path d="M137.5,0l0,834.2l139,0l0,-129.9c0,0,45.9,77.9,111.6,114.6c0,0,65.7,36.7,155.8,36.7c0,0,91.7,0,154.3,-45.9c0,0,64.2,-47.3,96.2,-135.9c0,0,50.5,93.1,122.3,137.5c0,0,71.8,44.3,168,44.3c0,0,131.4,0,201.7,-91.7c0,0,71.8,-91.7,71.8,-259.7L1358.2,0l-139,0l0,499.6c0,0,0,119.2,-41.3,177.2c0,0,-42.8,58.1,-129.8,58.1c0,0,-107,0,-168.1,-70.3c0,0,-62.6,-70.3,-62.6,-192.5L817.4,0L678.3,0l0,499.6c0,0,0,120.7,-41.2,177.2c0,0,-42.8,58.1,-131.4,58.1c0,0,-105.4,0,-166.5,-70.3c0,0,-62.7,-71.8,-62.7,-192.5L276.5,0Z" 
	id="f0_8"
	transform="scale(0.001,-0.001)" />

	<path d="M508.8,93.2c0,0,110,0,171.1,85.6c0,0,62.6,85.5,62.6,236.8c0,0,0,152.7,-61.1,238.3c0,0,-62.6,85.5,-172.6,85.5c0,0,-108.5,0,-169.6,-85.5c0,0,-62.7,-85.6,-62.7,-238.3c0,0,0,-151.3,61.1,-236.8c0,0,62.7,-85.6,171.2,-85.6ZM137.5,-317.7l0,1151.9l139,0l0,-126.8c0,0,42.8,74.8,108.5,111.5c0,0,65.7,36.7,157.4,36.7c0,0,152.7,0,247.5,-120.7c0,0,96.2,-122.3,96.2,-319.3c0,0,0,-195.6,-94.7,-316.3c0,0,-96.3,-120.6,-249,-120.6c0,0,-91.7,0,-157.4,35.1c0,0,-65.7,36.6,-108.5,111.5l0,-443Z" 
	id="f0_9"
	transform="scale(0.001,-0.001)" />

	<path d="M160,261l0,127l956,0l0,-127Zm0,307l0,125l956,0l0,-125Z" 
	id="f0_1v"
	transform="scale(0.001,-0.001)" />

	<path d="M576,386.5l0,595.9L195.6,386.5ZM576,0l0,261.3l-502.7,0l0,146.6l464.5,705.9l189.4,0l0,-727.3l158.9,0l0,-125.2l-158.9,0L727.2,0Z" 
	id="f0_10"
	transform="scale(0.001,-0.001)" />

	<path d="M264.3,297.9c0,0,-42.8,0,-79.4,16.8c0,0,-36.7,16.8,-64.2,44.3c0,0,-29,29.1,-44.3,67.3c0,0,-16.8,38.1,-16.8,82.5c0,0,0,41.2,15.3,77.9c0,0,16.8,38.2,44.3,65.7c0,0,29,27.5,65.7,42.7c0,0,36.6,16.8,79.4,16.8c0,0,42.8,0,81,-15.2c0,0,38.2,-16.8,65.7,-44.3c0,0,29,-27.5,45.8,-64.2c0,0,16.8,-38.2,16.8,-79.4c0,0,0,-44.4,-16.8,-82.5c0,0,-16.8,-38.2,-44.3,-65.7c0,0,-29,-29.1,-67.2,-45.9c0,0,-38.2,-16.8,-81,-16.8Z" 
	id="f1_q"
	transform="scale(0.001,-0.001)" />

	<path d="M559.2,-21.3c0,0,-210.9,0,-319.3,109.9c0,0,-108.5,111.5,-108.5,328.5l0,696.7l152.8,0l0,-676.9c0,0,0,-180.2,64.1,-258.1c0,0,64.2,-79.5,210.9,-79.5c0,0,143.6,0,207.7,77.9c0,0,65.7,79.5,65.7,259.7l0,676.9l152.8,0l0,-696.7c0,0,0,-217,-108.5,-327c0,0,-108.4,-111.4,-317.7,-111.4Z" 
	id="f0_p"
	transform="scale(0.001,-0.001)" />

	<path d="M137.5,0l0,1159.6l139,0l0,-684.5L686,834.2l174.1,0L417.1,444.6L880,0L699.7,0L276.5,407.9L276.5,0Z" 
	id="f0_1a"
	transform="scale(0.001,-0.001)" />

	<path d="M-27.4,-317.7l0,117.7l35,0c0,0,79.5,0,107,35.1c0,0,29,36.7,29,151.2l0,847.9l137.5,0l0,-847.9c0,0,0,-160.4,-61.1,-232.2c0,0,-61.1,-71.8,-195.6,-71.8Zm171,1303.1l0,174.2l137.5,0l0,-174.2Z" 
	id="f0_1q"
	transform="scale(0.001,-0.001)" />

	<path d="M765.4,171.1c0,0,93.2,0,145.2,61.1c0,0,51.9,61.1,51.9,168.1c0,0,0,103.9,-53.5,165c0,0,-53.4,62.6,-145.1,62.6c0,0,-90.1,0,-142.1,-61.1c0,0,-53.5,-61.1,-53.5,-166.5c0,0,0,-107,52,-168.1c0,0,53.5,-61.1,145.1,-61.1Zm7.7,-435.3c0,0,-137.5,0,-259.8,48.9c0,0,-122.2,48.9,-218.4,142.1c0,0,-94.8,91.5,-145.2,213.8c0,0,-50.4,122.2,-50.4,264.3c0,0,0,135.9,50.4,258.2c0,0,52,123.7,145.2,216.9c0,0,96.2,94.7,221.5,145.1c0,0,126.8,50.5,268.9,50.5c0,0,157.3,0,291.8,-64.2c0,0,136,-65.7,227.6,-184.9c0,0,56.6,-73.3,85.6,-158.9c0,0,30.5,-87,30.5,-178.7c0,0,0,-195.6,-119.1,-308.6c0,0,-119.2,-114.6,-327,-117.7l0,114.6c0,0,-45.8,-58,-102.3,-85.5c0,0,-58.1,-27.5,-136,-27.5c0,0,-128.3,0,-207.8,93.2c0,0,-81,93.2,-81,242.9c0,0,0,148.2,81,241.4c0,0,81,93.2,207.8,93.2c0,0,77.9,0,136,-27.5c0,0,58,-27.5,102.3,-84.1l0,97.8l107,0l0,-550c0,0,108.4,16.8,169.6,99.3c0,0,61.1,84,61.1,215.4c0,0,0,81,-23,149.8c0,0,-22.9,70.2,-71.8,129.8c0,0,-76.3,97.8,-187.9,149.7c0,0,-111.5,52,-242.9,52c0,0,-91.7,0,-175.7,-22.9c0,0,-85.5,-24.5,-157.3,-73.4c0,0,-116.2,-76.4,-181.9,-198.6c0,0,-67.2,-123.7,-67.2,-267.3c0,0,0,-119.2,42.8,-223.1c0,0,42.8,-103.9,125.3,-181.8c0,0,77.9,-76.3,180.3,-117.5c0,0,103.8,-41.3,220,-41.3c0,0,96.2,0,189.4,32.1c0,0,93.2,33.6,171.1,94.7l67.2,-84c0,0,-93.2,-71.8,-203.2,-110c0,0,-110,-38.2,-224.5,-38.2Z" 
	id="f0_2f"
	transform="scale(0.001,-0.001)" />

	<path d="M-77.8,-305.5l0,126.8l47.3,0c0,0,97.7,0,139,56.6c0,0,41.2,56.5,41.2,198.5l0,1037.4l149.7,0l0,-1037.4c0,0,0,-200.1,-76.3,-290.2c0,0,-76.4,-91.7,-244.4,-91.7Z" 
	id="f0_1b"
	transform="scale(0.001,-0.001)" />

	<path d="M149,0l0,1113l640,0l0,-128l-490,0l0,-327l441,0l0,-127l-441,0L299,0Z" 
	id="f0_19"
	transform="scale(0.001,-0.001)" />

	<path d="M111.5,0l0,126.8c0,0,85.6,88.6,233.8,236.8c0,0,148.2,149.7,186.4,194c0,0,71.8,81,100.8,137.5c0,0,29,56.6,29,110c0,0,0,88.7,-62.6,145.2c0,0,-62.6,56.5,-162,56.5c0,0,-71.8,0,-149.7,-24.4c0,0,-79.4,-26,-168,-74.9l0,151.3c0,0,90.1,36.6,169.6,55c0,0,79.4,19.8,145.1,19.8c0,0,172.6,0,275,-87.1c0,0,103.9,-87.1,103.9,-230.7c0,0,0,-68.7,-26,-129.8c0,0,-26,-62.7,-93.2,-145.2c0,0,-19.8,-22.9,-119.2,-125.2c0,0,-99.3,-103.9,-282.6,-288.8l527.1,0L818.9,0Z" 
	id="f0_t"
	transform="scale(0.001,-0.001)" />

	<path d="M629.4,-21.3c0,0,-253.6,0,-398.7,154.2c0,0,-145.1,154.3,-145.1,421.7c0,0,0,268.9,145.1,423.2c0,0,145.1,155.8,398.7,155.8c0,0,99.4,0,188,-26c0,0,88.6,-27.5,166.5,-80.9l0,-158.9c0,0,-76.4,71.8,-162,106.9c0,0,-87,35.2,-184.8,35.2c0,0,-191,0,-291.8,-116.1c0,0,-100.9,-117.7,-100.9,-339.2c0,0,0,-220,100.9,-336.1c0,0,100.8,-117.7,291.8,-117.7c0,0,97.8,0,183.3,35.2c0,0,87.1,35.1,163.5,106.9l0,-157.3c0,0,-79.5,-55,-168.1,-81c0,0,-88.6,-25.9,-186.4,-25.9Z" 
	id="f0_15"
	transform="scale(0.001,-0.001)" />

	<path d="M727.2,411L521,964L317.8,411ZM10.7,0L436.9,1113.8l169.6,0L1031.3,0L875.4,0L773.1,285.7l-501.2,0L169.6,0Z" 
	id="f0_1h"
	transform="scale(0.001,-0.001)" />


</defs>
</svg>