<?xml version="1.0" encoding="UTF-8" standalone="no"?>
<!DOCTYPE svg PUBLIC "-//W3C//DTD SVG 1.1//EN"
"http://www.w3.org/Graphics/SVG/1.1/DTD/svg11.dtd">
<svg viewBox="0 0 1210 1210" version="1.1" xmlns="http://www.w3.org/2000/svg" xmlns:xlink="http://www.w3.org/1999/xlink">
<defs>
<style type="text/css"><![CDATA[
.g2_6{
fill: #B1D1E3;
}
.g3_6{
fill: none;
stroke: #418AB3;
stroke-width: 2;
stroke-linecap: butt;
stroke-linejoin: miter;
stroke-miterlimit: 7;
}
.g1_6{
fill: #FFFFFF;
}
]]></style>
</defs>
<path fill-rule="evenodd" d="M0,0L1210,0l0,1210L0,1210L0,0Z" class="g1_6" />
<path fill-rule="evenodd" d="M0,0L1210,0l0,1210L0,1210L0,0Z" class="g1_6" />
<path fill-rule="evenodd" d="M161.5,223.1l0,-0.7l0.1,-0.6l0,-0.7l0.2,-0.6l0.1,-0.7l0.2,-0.6l0.3,-0.6l0.2,-0.6l0.3,-0.4l0.3,-0.7l0.3,-0.6l0.4,-0.4l0.3,-0.5l0.5,-0.6l0.5,-0.5l0.4,-0.4l0.5,-0.3l0.4,-0.5l0.6,-0.3l0.5,-0.3l0.6,-0.3l0.6,-0.3l0.6,-0.3l0.6,-0.2l0.7,-0.1l0.6,-0.2l0.6,-0.1l0.6,-0.2l0.6,0l0.6,0l862.6,0l0.6,0l0.6,0l0.6,0.2l0.6,0.1l0.6,0.2l0.7,0.1l0.6,0.2l0.6,0.3l0.6,0.3l0.6,0.3l0.5,0.3l0.6,0.3l0.4,0.5l0.5,0.4l0.4,0.3l0.5,0.7l0.5,0.4l0.3,0.5l0.4,0.4l0.3,0.6l0.3,0.7l0.3,0.6l0.2,0.4l0.1,0.6l0.4,0.6l0.1,0.7l0.2,0.6l0,0.7l0,0.6l0,0.7l0.1,48.8l0,0.7l-0.1,0.6l0,0.6l-0.2,0.6l-0.1,0.6l-0.2,0.6l-0.3,0.6l-0.2,0.6l-0.3,0.6l-0.3,0.7l-0.3,0.4l-0.4,0.5l-0.3,0.6l-0.5,0.4l-0.5,0.5l-0.4,0.5l-0.5,0.3l-0.4,0.4l-0.6,0.3l-0.5,0.3l-0.6,0.3l-0.6,0.3l-0.6,0.4l-0.6,0.1l-0.7,0.2l-0.6,0.3l-0.6,0l-0.6,0.1l-0.6,0l-0.6,0l-862.6,0.2l-0.6,0L172.5,284l-0.6,0l-0.6,-0.1l-0.6,-0.2L170,283.6l-0.6,-0.3l-0.6,-0.2l-0.6,-0.3l-0.6,-0.3l-0.5,-0.3l-0.6,-0.5l-0.4,-0.3L165.6,281l-0.4,-0.5L164.7,280l-0.5,-0.4l-0.3,-0.5l-0.4,-0.6l-0.3,-0.4l-0.3,-0.7l-0.3,-0.6l-0.2,-0.6l-0.3,-0.6L161.9,275l-0.1,-0.6l-0.2,-0.6l0,-0.6l-0.1,-0.6l0,-0.7l0,-48.8Z" class="g2_6" />
<path d="M161.5,223.1l0,-0.7l0.1,-0.6l0,-0.7l0.2,-0.6l0.1,-0.7l0.2,-0.6l0.3,-0.6l0.2,-0.6l0.3,-0.4l0.3,-0.7l0.3,-0.6l0.4,-0.4l0.3,-0.5l0.5,-0.6l0.5,-0.5l0.4,-0.4l0.5,-0.3l0.4,-0.5l0.6,-0.3l0.5,-0.3l0.6,-0.3l0.6,-0.3l0.6,-0.3l0.6,-0.2l0.7,-0.1l0.6,-0.2l0.6,-0.1l0.6,-0.2l0.6,0l0.6,0l862.6,0l0.6,0l0.6,0l0.6,0.2l0.6,0.1l0.6,0.2l0.7,0.1l0.6,0.2l0.6,0.3l0.6,0.3l0.6,0.3l0.5,0.3l0.6,0.3l0.4,0.5l0.5,0.4l0.4,0.3l0.5,0.7l0.5,0.4l0.3,0.5l0.4,0.4l0.3,0.6l0.3,0.7l0.3,0.6l0.2,0.4l0.1,0.6l0.4,0.6l0.1,0.7l0.2,0.6l0,0.7l0,0.6l0,0.7l0.1,48.8l0,0.7l-0.1,0.6l0,0.6l-0.2,0.6l-0.1,0.6l-0.2,0.6l-0.3,0.6l-0.2,0.6l-0.3,0.6l-0.3,0.7l-0.3,0.4l-0.4,0.5l-0.3,0.6l-0.5,0.4l-0.5,0.5l-0.4,0.5l-0.5,0.3l-0.4,0.4l-0.6,0.3l-0.5,0.3l-0.6,0.3l-0.6,0.3l-0.6,0.4l-0.6,0.1l-0.7,0.2l-0.6,0.3l-0.6,0l-0.6,0.1l-0.6,0l-0.6,0l-862.6,0.2l-0.6,0L172.5,284l-0.6,0l-0.6,-0.1l-0.6,-0.2L170,283.6l-0.6,-0.3l-0.6,-0.2l-0.6,-0.3l-0.6,-0.3l-0.5,-0.3l-0.6,-0.5l-0.4,-0.3L165.6,281l-0.4,-0.5L164.7,280l-0.5,-0.4l-0.3,-0.5l-0.4,-0.6l-0.3,-0.4l-0.3,-0.7l-0.3,-0.6l-0.2,-0.6l-0.3,-0.6L161.9,275l-0.1,-0.6l-0.2,-0.6l0,-0.6l-0.1,-0.6l0,-0.7l0,-48.8Z" class="g3_6" />
</svg>