<?xml version="1.0" encoding="UTF-8" standalone="no"?>
<!DOCTYPE svg PUBLIC "-//W3C//DTD SVG 1.1//EN"
"http://www.w3.org/Graphics/SVG/1.1/DTD/svg11.dtd">
<svg viewBox="0 0 1210 1045" version="1.1" xmlns="http://www.w3.org/2000/svg" xmlns:xlink="http://www.w3.org/1999/xlink">
<defs>
<style type="text/css"><![CDATA[
.g4_77{
fill: none;
stroke: #0000EE;
stroke-width: 2;
stroke-linecap: butt;
stroke-linejoin: miter;
}
.g2_77{
fill: #E6E6E6;
}
.g3_77{
fill: #418AB3;
fill-opacity: 0.2;
}
.g1_77{
fill: #FFFFFF;
}
]]></style>
</defs>
<path fill-rule="evenodd" d="M0,0L1210,0l0,1045L0,1045L0,0Z" class="g1_77" />
<path fill-rule="evenodd" d="M0,0L1210,0l0,1045L0,1045L0,0Z" class="g1_77" />
<image x="828" y="984" width="334" height="49" xlink:href="img/1.png" />
<path fill-rule="evenodd" d="M165,36l895,0l0,59L165,95l0,-59Z" class="g2_77" />
<path fill-rule="evenodd" d="M165,155l895,0l0,33l-895,0l0,-33Z" class="g2_77" />
<path fill-rule="evenodd" d="M117,317l112,0l0,163l-112,0l0,-163Z" class="g3_77" />
<path fill-rule="evenodd" d="M229,317l878,0l0,88l-878,0l0,-88Z" class="g3_77" />
<path d="M237,359l844,0" class="g4_77" />
<path d="M237,440l840,0" class="g4_77" />
</svg>