<?xml version="1.0" encoding="UTF-8" standalone="no"?>
<!DOCTYPE svg PUBLIC "-//W3C//DTD SVG 1.1//EN"
"http://www.w3.org/Graphics/SVG/1.1/DTD/svg11.dtd">
<svg viewBox="0 0 1210 1210" version="1.1" xmlns="http://www.w3.org/2000/svg" xmlns:xlink="http://www.w3.org/1999/xlink">
<defs>
<style type="text/css"><![CDATA[
.g2_5{
fill: none;
stroke: #0000EE;
stroke-width: 2;
stroke-linecap: butt;
stroke-linejoin: miter;
}
.g3_5{
fill: none;
stroke: #418AB3;
stroke-width: 2;
stroke-linecap: butt;
stroke-linejoin: miter;
stroke-miterlimit: 7;
}
.g1_5{
fill: #FFFFFF;
}
]]></style>
</defs>
<path fill-rule="evenodd" d="M0,0L1210,0l0,1210L0,1210L0,0Z" class="g1_5" />
<path fill-rule="evenodd" d="M0,0L1210,0l0,1210L0,1210L0,0Z" class="g1_5" />
<path d="M175,343l65,0" class="g2_5" />
<path d="M240,343l379,0" class="g2_5" />
<path d="M619,343l6,0" class="g2_5" />
<path fill-rule="evenodd" d="M170.5,214.3l0,-0.7l0.2,-0.9l0,-0.8l0.3,-0.8l0.1,-0.7l0.2,-0.9l0.3,-0.8l0.3,-0.8l0.4,-0.7l0.3,-0.6l0.5,-0.8l0.5,-0.8l0.4,-0.6l0.6,-0.6l0.6,-0.6l0.5,-0.6l0.8,-0.5l0.6,-0.4l0.6,-0.5l0.7,-0.4l0.8,-0.5L180,200l0.7,-0.3l0.8,-0.3l0.8,-0.3l0.7,-0.2l0.8,-0.1l0.9,0l0.8,-0.2l0.7,0l837.4,0l0.8,0l0.7,0.2l1,0l0.7,0.1l0.8,0.3l0.7,0.2l1,0.3l0.7,0.3l0.6,0.3l0.8,0.5l0.8,0.4l0.6,0.5l0.7,0.4l0.7,0.6l0.6,0.5l0.4,0.6l0.6,0.6l0.5,0.6l0.4,0.8l0.5,0.8l0.3,0.6l0.5,0.7l0.3,0.8l0.1,0.8l0.3,0.9l0.2,0.7l0.1,0.8l0.2,0.8l0.1,0.9l0,0.7l0,63.1l0,1l0,0.7l-0.1,0.9l-0.2,0.8l-0.3,0.8l-0.1,0.7l-0.3,0.8l-0.3,0.8l-0.3,0.7l-0.5,0.8l-0.5,0.8l-0.4,0.6l-0.5,0.6l-0.4,0.6l-0.6,0.6l-0.6,0.6l-0.7,0.5l-0.7,0.6l-0.6,0.4l-0.8,0.3l-0.8,0.5L1030,292l-0.7,0.3l-0.8,0.1l-0.9,0.3l-0.8,0.2l-0.7,0.1l-1,0.2l-0.7,0l-0.8,0l-837.4,0.1l-0.7,0l-0.8,-0.1l-0.9,0L183,293l-0.7,-0.1l-0.8,-0.3l-0.8,-0.3L180,292l-0.8,-0.3l-0.8,-0.5l-0.7,-0.5l-0.6,-0.4l-0.6,-0.5l-0.8,-0.6l-0.5,-0.4l-0.6,-0.7L174,287.5l-0.4,-0.7l-0.5,-0.6l-0.5,-0.8l-0.3,-0.8l-0.4,-0.7l-0.3,-0.6l-0.3,-1l-0.2,-0.7L171,280.8L170.7,280l0,-0.9l-0.2,-0.7l0,-1l0,-63.1Z" class="g1_5" />
<path d="M170.5,214.3l0,-0.7l0.2,-0.9l0,-0.8l0.3,-0.8l0.1,-0.7l0.2,-0.9l0.3,-0.8l0.3,-0.8l0.4,-0.7l0.3,-0.6l0.5,-0.8l0.5,-0.8l0.4,-0.6l0.6,-0.6l0.6,-0.6l0.5,-0.6l0.8,-0.5l0.6,-0.4l0.6,-0.5l0.7,-0.4l0.8,-0.5L180,200l0.7,-0.3l0.8,-0.3l0.8,-0.3l0.7,-0.2l0.8,-0.1l0.9,0l0.8,-0.2l0.7,0l837.4,0l0.8,0l0.7,0.2l1,0l0.7,0.1l0.8,0.3l0.7,0.2l1,0.3l0.7,0.3l0.6,0.3l0.8,0.5l0.8,0.4l0.6,0.5l0.7,0.4l0.7,0.6l0.6,0.5l0.4,0.6l0.6,0.6l0.5,0.6l0.4,0.8l0.5,0.8l0.3,0.6l0.5,0.7l0.3,0.8l0.1,0.8l0.3,0.9l0.2,0.7l0.1,0.8l0.2,0.8l0.1,0.9l0,0.7l0,63.1l0,1l0,0.7l-0.1,0.9l-0.2,0.8l-0.3,0.8l-0.1,0.7l-0.3,0.8l-0.3,0.8l-0.3,0.7l-0.5,0.8l-0.5,0.8l-0.4,0.6l-0.5,0.6l-0.4,0.6l-0.6,0.6l-0.6,0.6l-0.7,0.5l-0.7,0.6l-0.6,0.4l-0.8,0.3l-0.8,0.5L1030,292l-0.7,0.3l-0.8,0.1l-0.9,0.3l-0.8,0.2l-0.7,0.1l-1,0.2l-0.7,0l-0.8,0l-837.4,0.1l-0.7,0l-0.8,-0.1l-0.9,0L183,293l-0.7,-0.1l-0.8,-0.3l-0.8,-0.3L180,292l-0.8,-0.3l-0.8,-0.5l-0.7,-0.5l-0.6,-0.4l-0.6,-0.5l-0.8,-0.6l-0.5,-0.4l-0.6,-0.7L174,287.5l-0.4,-0.7l-0.5,-0.6l-0.5,-0.8l-0.3,-0.8l-0.4,-0.7l-0.3,-0.6l-0.3,-1l-0.2,-0.7L171,280.8L170.7,280l0,-0.9l-0.2,-0.7l0,-1l0,-63.1Z" class="g3_5" />
<path d="M295,271l47,0" class="g2_5" />
<path d="M342,271l19,0" class="g2_5" />
<path d="M361,271l394,0" class="g2_5" />
<path d="M755,271l5,0" class="g2_5" />
</svg>