<?xml version="1.0" encoding="UTF-8" standalone="no"?>
<!DOCTYPE svg PUBLIC "-//W3C//DTD SVG 1.1//EN"
"http://www.w3.org/Graphics/SVG/1.1/DTD/svg11.dtd">
<svg viewBox="0 0 1210 1045" version="1.1" xmlns="http://www.w3.org/2000/svg" xmlns:xlink="http://www.w3.org/1999/xlink">
<defs>
<style type="text/css"><![CDATA[
.g2_5{
fill: none;
stroke: #418AB3;
stroke-width: 2;
stroke-linecap: butt;
stroke-linejoin: miter;
stroke-miterlimit: 7;
}
.g3_5{
fill: none;
stroke: #0000EE;
stroke-width: 2;
stroke-linecap: butt;
stroke-linejoin: miter;
}
.g1_5{
fill: #FFFFFF;
}
]]></style>
</defs>
<path fill-rule="evenodd" d="M0,0L1210,0l0,1045L0,1045L0,0Z" class="g1_5" />
<path fill-rule="evenodd" d="M0,0L1210,0l0,1045L0,1045L0,0Z" class="g1_5" />
<image x="828" y="984" width="334" height="49" xlink:href="img/1.png" />
<path fill-rule="evenodd" d="M236.7,142.1l0,-0.9l0,-1.1l0.1,-0.9l0.2,-0.9l0.3,-1l0.3,-0.9l0.3,-0.9l0.3,-0.9l0.4,-0.9l0.5,-0.8l0.5,-0.7l0.6,-1l0.4,-0.7l0.6,-0.6l0.8,-0.8l0.6,-0.6l0.8,-0.6l0.7,-0.6l0.8,-0.6l0.9,-0.5l0.8,-0.5l0.9,-0.4l0.8,-0.3l0.9,-0.3l1.1,-0.3l0.9,-0.3l0.9,-0.2l0.9,-0.1l0.9,0l0.9,0l700.2,0l0.9,0l0.9,0l1.1,0.1l0.9,0.2l1,0.3l0.9,0.3l0.9,0.3l0.9,0.3l0.8,0.4l0.9,0.5l0.7,0.5l0.8,0.6l0.8,0.6l0.7,0.6l0.6,0.6l0.8,0.8l0.6,0.6l0.6,0.7l0.5,1l0.5,0.7l0.6,0.8l0.3,0.9l0.4,0.9l0.3,0.9l0.3,0.9l0.2,1l0.1,0.9l0.2,0.9l0,1.1l0.1,0.9l0,73.3l0,0.9l-0.1,1l-0.2,0.9l-0.1,1l-0.2,1l-0.3,0.9l-0.3,0.7l-0.4,0.9l-0.3,1l-0.5,0.7l-0.6,0.9l-0.5,0.8l-0.6,0.8l-0.6,0.7l-0.6,0.7l-0.8,0.7l-0.7,0.6l-0.8,0.5l-0.8,0.6l-0.7,0.5l-0.9,0.4l-0.8,0.5l-0.9,0.3l-0.9,0.3l-0.9,0.3l-1,0.3l-0.9,0.1l-1.1,0.2l-0.9,0l-0.9,0l-700.2,0.2l-0.9,-0.2l-0.9,0l-0.9,-0.2l-0.9,-0.1l-0.9,-0.2l-1.1,-0.3l-0.9,-0.3l-0.8,-0.4l-0.9,-0.3l-0.8,-0.6l-0.9,-0.5l-0.8,-0.5l-0.7,-0.6L242.6,229L242,228.3l-0.8,-0.7l-0.6,-0.7l-0.4,-0.8l-0.6,-0.8l-0.5,-0.7l-0.5,-0.9l-0.4,-1L237.9,222l-0.3,-0.9l-0.3,-0.9l-0.3,-1l-0.2,-1l-0.1,-0.9l0,-1l0,-0.9l0,-73.3Z" class="g1_5" />
<path d="M236.7,142.1l0,-0.9l0,-1.1l0.1,-0.9l0.2,-0.9l0.3,-1l0.3,-0.9l0.3,-0.9l0.3,-0.9l0.4,-0.9l0.5,-0.8l0.5,-0.7l0.6,-1l0.4,-0.7l0.6,-0.6l0.8,-0.8l0.6,-0.6l0.8,-0.6l0.7,-0.6l0.8,-0.6l0.9,-0.5l0.8,-0.5l0.9,-0.4l0.8,-0.3l0.9,-0.3l1.1,-0.3l0.9,-0.3l0.9,-0.2l0.9,-0.1l0.9,0l0.9,0l700.2,0l0.9,0l0.9,0l1.1,0.1l0.9,0.2l1,0.3l0.9,0.3l0.9,0.3l0.9,0.3l0.8,0.4l0.9,0.5l0.7,0.5l0.8,0.6l0.8,0.6l0.7,0.6l0.6,0.6l0.8,0.8l0.6,0.6l0.6,0.7l0.5,1l0.5,0.7l0.6,0.8l0.3,0.9l0.4,0.9l0.3,0.9l0.3,0.9l0.2,1l0.1,0.9l0.2,0.9l0,1.1l0.1,0.9l0,73.3l0,0.9l-0.1,1l-0.2,0.9l-0.1,1l-0.2,1l-0.3,0.9l-0.3,0.7l-0.4,0.9l-0.3,1l-0.5,0.7l-0.6,0.9l-0.5,0.8l-0.6,0.8l-0.6,0.7l-0.6,0.7l-0.8,0.7l-0.7,0.6l-0.8,0.5l-0.8,0.6l-0.7,0.5l-0.9,0.4l-0.8,0.5l-0.9,0.3l-0.9,0.3l-0.9,0.3l-1,0.3l-0.9,0.1l-1.1,0.2l-0.9,0l-0.9,0l-700.2,0.2l-0.9,-0.2l-0.9,0l-0.9,-0.2l-0.9,-0.1l-0.9,-0.2l-1.1,-0.3l-0.9,-0.3l-0.8,-0.4l-0.9,-0.3l-0.8,-0.6l-0.9,-0.5l-0.8,-0.5l-0.7,-0.6L242.6,229L242,228.3l-0.8,-0.7l-0.6,-0.7l-0.4,-0.8l-0.6,-0.8l-0.5,-0.7l-0.5,-0.9l-0.4,-1L237.9,222l-0.3,-0.9l-0.3,-0.9l-0.3,-1l-0.2,-1l-0.1,-0.9l0,-1l0,-0.9l0,-73.3Z" class="g2_5" />
<path d="M307,204l455,0" class="g3_5" />
<path fill-rule="evenodd" d="M236.7,402l0,-1l0,-0.7l0.1,-0.9l0.2,-1l0.1,-0.9l0.3,-0.7l0.3,-1l0.3,-0.7l0.5,-0.8l0.4,-0.7l0.5,-1l0.5,-0.6l0.6,-0.7l0.4,-0.6l0.6,-0.8l0.7,-0.6l0.7,-0.5l0.6,-0.6l0.8,-0.5l0.8,-0.4l0.9,-0.5l0.7,-0.4l0.8,-0.3l0.9,-0.3l0.8,-0.3l0.9,-0.2l0.9,-0.1l0.9,-0.2l0.8,0l0.9,0l702.6,0l1,0l0.9,0l0.9,0.2l0.8,0.1l0.9,0.3l0.9,0.2l0.7,0.3l1,0.3l0.7,0.4l0.8,0.5l0.8,0.4l0.7,0.5l0.6,0.6l0.8,0.6l0.6,0.6l0.6,0.7l0.6,0.6L970,392l0.6,0.8l0.5,0.8l0.3,0.7l0.4,0.8l0.3,0.7l0.3,1l0.3,0.7l0.2,0.9l0.1,1l0.2,0.9l0,0.7l0.1,1l0,68.4l0,0.9l0,0.9l-0.1,1l-0.2,0.7l-0.3,0.9l-0.3,0.9l-0.3,0.8l-0.1,0.8l-0.5,0.7l-0.4,1l-0.5,0.7l-0.5,0.6l-0.6,0.8l-0.6,0.8l-0.6,0.6l-0.6,0.6l-0.8,0.4l-0.6,0.7l-0.7,0.6l-0.8,0.3l-0.8,0.4l-0.7,0.5l-1,0.3l-0.7,0.3l-0.9,0.3l-0.9,0.2l-0.8,0.1l-0.9,0.2l-0.9,0l-1,0l-702.6,0.1l-0.9,0l-0.8,-0.1l-0.9,0l-0.9,-0.3l-0.9,-0.2l-0.8,-0.1l-0.9,-0.4L246.7,486L246,485.7l-0.9,-0.5l-0.8,-0.4l-0.8,-0.5l-0.6,-0.6l-0.7,-0.6l-0.7,-0.6l-0.6,-0.6l-0.4,-0.6l-0.6,-0.8l-0.5,-0.8L238.9,479l-0.4,-0.8L238,477.4l-0.3,-0.9l-0.3,-0.8l-0.3,-0.9L237,473.9l-0.2,-0.7l-0.1,-1l0,-0.9l0,-0.9l0,-68.4Z" class="g1_5" />
<path d="M236.7,402l0,-1l0,-0.7l0.1,-0.9l0.2,-1l0.1,-0.9l0.3,-0.7l0.3,-1l0.3,-0.7l0.5,-0.8l0.4,-0.7l0.5,-1l0.5,-0.6l0.6,-0.7l0.4,-0.6l0.6,-0.8l0.7,-0.6l0.7,-0.5l0.6,-0.6l0.8,-0.5l0.8,-0.4l0.9,-0.5l0.7,-0.4l0.8,-0.3l0.9,-0.3l0.8,-0.3l0.9,-0.2l0.9,-0.1l0.9,-0.2l0.8,0l0.9,0l702.6,0l1,0l0.9,0l0.9,0.2l0.8,0.1l0.9,0.3l0.9,0.2l0.7,0.3l1,0.3l0.7,0.4l0.8,0.5l0.8,0.4l0.7,0.5l0.6,0.6l0.8,0.6l0.6,0.6l0.6,0.7l0.6,0.6L970,392l0.6,0.8l0.5,0.8l0.3,0.7l0.4,0.8l0.3,0.7l0.3,1l0.3,0.7l0.2,0.9l0.1,1l0.2,0.9l0,0.7l0.1,1l0,68.4l0,0.9l0,0.9l-0.1,1l-0.2,0.7l-0.3,0.9l-0.3,0.9l-0.3,0.8l-0.1,0.8l-0.5,0.7l-0.4,1l-0.5,0.7l-0.5,0.6l-0.6,0.8l-0.6,0.8l-0.6,0.6l-0.6,0.6l-0.8,0.4l-0.6,0.7l-0.7,0.6l-0.8,0.3l-0.8,0.4l-0.7,0.5l-1,0.3l-0.7,0.3l-0.9,0.3l-0.9,0.2l-0.8,0.1l-0.9,0.2l-0.9,0l-1,0l-702.6,0.1l-0.9,0l-0.8,-0.1l-0.9,0l-0.9,-0.3l-0.9,-0.2l-0.8,-0.1l-0.9,-0.4L246.7,486L246,485.7l-0.9,-0.5l-0.8,-0.4l-0.8,-0.5l-0.6,-0.6l-0.7,-0.6l-0.7,-0.6l-0.6,-0.6l-0.4,-0.6l-0.6,-0.8l-0.5,-0.8L238.9,479l-0.4,-0.8L238,477.4l-0.3,-0.9l-0.3,-0.8l-0.3,-0.9L237,473.9l-0.2,-0.7l-0.1,-1l0,-0.9l0,-0.9l0,-68.4Z" class="g2_5" />
<path d="M301,461l453,0" class="g3_5" />
</svg>