<?xml version="1.0" encoding="UTF-8" standalone="no"?>
<!DOCTYPE svg PUBLIC "-//W3C//DTD SVG 1.1//EN"
"http://www.w3.org/Graphics/SVG/1.1/DTD/svg11.dtd">
<svg viewBox="0 0 1100 825" version="1.1" xmlns="http://www.w3.org/2000/svg" xmlns:xlink="http://www.w3.org/1999/xlink">
<defs>
<style type="text/css"><![CDATA[
.g2_35{
fill: none;
stroke: #418AB3;
stroke-width: 2;
stroke-linecap: butt;
stroke-linejoin: miter;
stroke-miterlimit: 7;
}
.g1_35{
fill: #FFFFFF;
}
]]></style>
</defs>
<path fill-rule="evenodd" d="M0,0L1100,0l0,825L0,825L0,0Z" class="g1_35" />
<path fill-rule="evenodd" d="M0,0L1100,0l0,825L0,825L0,0Z" class="g1_35" />
<path fill-rule="evenodd" d="M906.7,19.6l0,-0.4l0,-0.3l0.2,-0.3l0,-0.3l0,-0.3L907,17.7l0.2,-0.1l0,-0.3L907.3,17l0.2,-0.3l0.2,-0.2l0.1,-0.3L908,16l0.3,-0.3l0.1,-0.1l0.2,-0.2l0.3,-0.3L909,15l0.3,-0.2l0.2,-0.1l0.3,-0.2l0.3,-0.1l0.1,0l0.4,-0.2l0.3,-0.1l0.3,0l0.3,0l0.3,0l0.1,-0.2l0.3,0l167.8,0l0.3,0l0.1,0.2l0.4,0l0.3,0l0.3,0.1l0.3,0l0.3,0.2l0.1,0l0.3,0.1l0.3,0.2l0.2,0.1l0.3,0.2l0.1,0.1l0.4,0.3l0.1,0.2l0.2,0.1l0.3,0.3l0.1,0.2l0.2,0.3l0.1,0.2l0.2,0.3l0.1,0.3l0,0.3l0.2,0.3l0.1,0.1l0,0.3l0,0.3l0,0.3l0.2,0.3l0,0.4l0,22.1l0,0.3l0,0.3l-0.2,0.3l0,0.2l0,0.3l-0.1,0.3l-0.2,0.3l0,0.3l-0.1,0.2l-0.2,0.3l-0.1,0.3l-0.2,0.1l-0.1,0.3l-0.2,0.2l-0.3,0.1l-0.1,0.3l-0.4,0.2l-0.1,0.1l-0.3,0.2l-0.2,0.1l-0.3,0.2l-0.3,0.2l-0.1,0.1l-0.3,0l-0.3,0.2l-0.3,0l-0.3,0l-0.4,0.1l-0.1,0l-0.3,0L912.2,47.4l0,-0.2l-0.3,0l-0.1,0l-0.3,0l-0.3,-0.1l-0.3,0l-0.3,0l-0.4,-0.2l-0.1,-0.1l-0.3,-0.2l-0.3,-0.2l-0.2,-0.1L909,46.1L908.9,46l-0.3,-0.2l-0.2,-0.1l-0.1,-0.3L908,45.2l-0.2,-0.3l-0.1,-0.1l-0.2,-0.3l-0.2,-0.3L907.2,44l0,-0.3L907,43.4l-0.1,-0.3l0,-0.2l0,-0.3l-0.2,-0.3l0,-0.3l0,-0.3l0,-22.1Z" class="g1_35" />
<path d="M906.7,19.6l0,-0.4l0,-0.3l0.2,-0.3l0,-0.3l0,-0.3L907,17.7l0.2,-0.1l0,-0.3L907.3,17l0.2,-0.3l0.2,-0.2l0.1,-0.3L908,16l0.3,-0.3l0.1,-0.1l0.2,-0.2l0.3,-0.3L909,15l0.3,-0.2l0.2,-0.1l0.3,-0.2l0.3,-0.1l0.1,0l0.4,-0.2l0.3,-0.1l0.3,0l0.3,0l0.3,0l0.1,-0.2l0.3,0l167.8,0l0.3,0l0.1,0.2l0.4,0l0.3,0l0.3,0.1l0.3,0l0.3,0.2l0.1,0l0.3,0.1l0.3,0.2l0.2,0.1l0.3,0.2l0.1,0.1l0.4,0.3l0.1,0.2l0.2,0.1l0.3,0.3l0.1,0.2l0.2,0.3l0.1,0.2l0.2,0.3l0.1,0.3l0,0.3l0.2,0.3l0.1,0.1l0,0.3l0,0.3l0,0.3l0.2,0.3l0,0.4l0,22.1l0,0.3l0,0.3l-0.2,0.3l0,0.2l0,0.3l-0.1,0.3l-0.2,0.3l0,0.3l-0.1,0.2l-0.2,0.3l-0.1,0.3l-0.2,0.1l-0.1,0.3l-0.2,0.2l-0.3,0.1l-0.1,0.3l-0.4,0.2l-0.1,0.1l-0.3,0.2l-0.2,0.1l-0.3,0.2l-0.3,0.2l-0.1,0.1l-0.3,0l-0.3,0.2l-0.3,0l-0.3,0l-0.4,0.1l-0.1,0l-0.3,0L912.2,47.4l0,-0.2l-0.3,0l-0.1,0l-0.3,0l-0.3,-0.1l-0.3,0l-0.3,0l-0.4,-0.2l-0.1,-0.1l-0.3,-0.2l-0.3,-0.2l-0.2,-0.1L909,46.1L908.9,46l-0.3,-0.2l-0.2,-0.1l-0.1,-0.3L908,45.2l-0.2,-0.3l-0.1,-0.1l-0.2,-0.3l-0.2,-0.3L907.2,44l0,-0.3L907,43.4l-0.1,-0.3l0,-0.2l0,-0.3l-0.2,-0.3l0,-0.3l0,-0.3l0,-22.1Z" class="g2_35" />
</svg>