<?xml version="1.0" encoding="UTF-8" standalone="no"?>
<!DOCTYPE svg PUBLIC "-//W3C//DTD SVG 1.1//EN"
"http://www.w3.org/Graphics/SVG/1.1/DTD/svg11.dtd">
<svg viewBox="0 0 1210 1210" version="1.1" xmlns="http://www.w3.org/2000/svg" xmlns:xlink="http://www.w3.org/1999/xlink">
<defs>
<style type="text/css"><![CDATA[
.g2_39{
fill: none;
stroke: #418AB3;
stroke-width: 2;
stroke-linecap: butt;
stroke-linejoin: miter;
stroke-miterlimit: 7;
}
.g1_39{
fill: #FFFFFF;
}
]]></style>
</defs>
<path fill-rule="evenodd" d="M0,0L1210,0l0,1210L0,1210L0,0Z" class="g1_39" />
<path fill-rule="evenodd" d="M0,0L1210,0l0,1210L0,1210L0,0Z" class="g1_39" />
<path fill-rule="evenodd" d="M935,22.9l0,-0.3l0,-0.1l0,-0.3l0.2,-0.4l0,-0.1l0,-0.2l0.1,-0.3l0.2,-0.3l0,-0.1l0.1,-0.2l0.2,-0.1l0.1,-0.3L936.1,20l0.1,-0.1l0.2,-0.2l0.1,-0.1l0.2,-0.4l0.1,0l0.3,-0.1l0.2,-0.2l0.1,-0.1l0.3,-0.2l0.2,0l0.3,-0.1l0.2,0l0.3,-0.2l0.1,0l0.3,0l0.2,0l0.3,0l192.5,0l0.1,0l0.3,0l0.3,0l0.2,0l0.3,0.2l0.2,0l0.3,0.1l0.1,0l0.2,0.2l0.3,0.1l0.1,0.2l0.2,0.1l0.3,0.2l0.1,0.2l0.2,0.1l0.1,0.2l0.2,0.1l0.2,0.2l0.1,0.3l0.2,0.1l0,0.2l0.1,0.3l0.2,0.1l0,0.3l0,0.2l0.1,0.1l0,0.4l0,0.3l0.2,0.1l0,0.3l0,18.4l0,0.1l0,0.3l0,0.2l-0.2,0.3l0,0.3l0,0.1l-0.1,0.2l0,0.3l-0.2,0.1l-0.1,0.3l-0.2,0.2l-0.1,0.1l-0.2,0.4l-0.2,0.1l-0.1,0.2l-0.2,0.1l-0.1,0.2l-0.2,0.1l-0.3,0.2l-0.1,0l-0.2,0.1l-0.3,0.2l-0.1,0l-0.3,0.1l-0.2,0l-0.3,0.2l-0.2,0l-0.3,0l-0.1,0l-0.3,0L939.6,45.8l-0.3,0l-0.2,0l-0.3,0l-0.1,-0.1l-0.3,0l-0.2,-0.2l-0.3,0l-0.2,-0.1l-0.3,0l-0.1,-0.2l-0.2,-0.1l-0.3,-0.2l-0.1,-0.1l-0.2,-0.2l-0.1,-0.1l-0.2,-0.2l-0.1,-0.1l-0.2,-0.4l-0.1,-0.1l-0.2,-0.2l-0.1,-0.3l0,-0.1l-0.2,-0.2l-0.1,-0.3l0,-0.1l0,-0.3L935,42l0,-0.3l0,-0.1l0,-0.3l0,-18.4Z" class="g1_39" />
<path d="M935,22.9l0,-0.3l0,-0.1l0,-0.3l0.2,-0.4l0,-0.1l0,-0.2l0.1,-0.3l0.2,-0.3l0,-0.1l0.1,-0.2l0.2,-0.1l0.1,-0.3L936.1,20l0.1,-0.1l0.2,-0.2l0.1,-0.1l0.2,-0.4l0.1,0l0.3,-0.1l0.2,-0.2l0.1,-0.1l0.3,-0.2l0.2,0l0.3,-0.1l0.2,0l0.3,-0.2l0.1,0l0.3,0l0.2,0l0.3,0l192.5,0l0.1,0l0.3,0l0.3,0l0.2,0l0.3,0.2l0.2,0l0.3,0.1l0.1,0l0.2,0.2l0.3,0.1l0.1,0.2l0.2,0.1l0.3,0.2l0.1,0.2l0.2,0.1l0.1,0.2l0.2,0.1l0.2,0.2l0.1,0.3l0.2,0.1l0,0.2l0.1,0.3l0.2,0.1l0,0.3l0,0.2l0.1,0.1l0,0.4l0,0.3l0.2,0.1l0,0.3l0,18.4l0,0.1l0,0.3l0,0.2l-0.2,0.3l0,0.3l0,0.1l-0.1,0.2l0,0.3l-0.2,0.1l-0.1,0.3l-0.2,0.2l-0.1,0.1l-0.2,0.4l-0.2,0.1l-0.1,0.2l-0.2,0.1l-0.1,0.2l-0.2,0.1l-0.3,0.2l-0.1,0l-0.2,0.1l-0.3,0.2l-0.1,0l-0.3,0.1l-0.2,0l-0.3,0.2l-0.2,0l-0.3,0l-0.1,0l-0.3,0L939.6,45.8l-0.3,0l-0.2,0l-0.3,0l-0.1,-0.1l-0.3,0l-0.2,-0.2l-0.3,0l-0.2,-0.1l-0.3,0l-0.1,-0.2l-0.2,-0.1l-0.3,-0.2l-0.1,-0.1l-0.2,-0.2l-0.1,-0.1l-0.2,-0.2l-0.1,-0.1l-0.2,-0.4l-0.1,-0.1l-0.2,-0.2l-0.1,-0.3l0,-0.1l-0.2,-0.2l-0.1,-0.3l0,-0.1l0,-0.3L935,42l0,-0.3l0,-0.1l0,-0.3l0,-18.4Z" class="g2_39" />
</svg>