<?xml version="1.0" encoding="UTF-8" standalone="no"?>
<!DOCTYPE svg PUBLIC "-//W3C//DTD SVG 1.1//EN"
"http://www.w3.org/Graphics/SVG/1.1/DTD/svg11.dtd">
<svg viewBox="0 0 1210 1210" version="1.1" xmlns="http://www.w3.org/2000/svg" xmlns:xlink="http://www.w3.org/1999/xlink">
<defs>
<style type="text/css"><![CDATA[
.g2_38{
fill: none;
stroke: #418AB3;
stroke-width: 2;
stroke-linecap: butt;
stroke-linejoin: miter;
stroke-miterlimit: 7;
}
.g3_38{
fill: none;
stroke: #0000B3;
stroke-width: 2;
stroke-linecap: butt;
stroke-linejoin: miter;
}
.g1_38{
fill: #FFFFFF;
}
]]></style>
</defs>
<path fill-rule="evenodd" d="M0,0L1210,0l0,1210L0,1210L0,0Z" class="g1_38" />
<path fill-rule="evenodd" d="M0,0L1210,0l0,1210L0,1210L0,0Z" class="g1_38" />
<path fill-rule="evenodd" d="M146.7,407.8l0,-0.8l0,-0.9l0.1,-0.9l0.2,-1l0.1,-0.7l0.3,-0.9l0.3,-0.8L148,401l0.5,-0.9l0.5,-0.7l0.4,-0.8l0.5,-0.8l0.4,-0.6l0.6,-0.6l0.7,-0.8l0.6,-0.6l0.7,-0.4l0.6,-0.6l0.8,-0.5l0.8,-0.4l0.7,-0.5l0.8,-0.3l0.9,-0.5l0.8,-0.1l0.7,-0.3l1,-0.2l0.9,-0.1l0.7,-0.2l1,-0.1l0.9,0l782,0l1,0l0.9,0.1l0.7,0.2l1,0.1l0.9,0.2l0.7,0.3l1,0.1l0.7,0.5l0.8,0.3l0.7,0.5l0.8,0.4l0.8,0.5l0.6,0.6l0.7,0.4l0.7,0.6l0.6,0.8l0.6,0.6l0.4,0.8l0.5,0.6l0.5,0.8l0.4,0.7L961,401l0.3,0.8l0.3,0.8l0.1,0.9l0.3,0.7l0.2,1l0.1,0.9l0,0.9l0,0.8l0.2,67.3l-0.2,0l0,1l0,0.9l-0.1,0.9l-0.2,0.8l-0.1,0.9l-0.3,0.7l-0.3,1L961,482l-0.5,0.8l-0.3,0.7l-0.4,0.8l-0.7,0.8l-0.4,0.7l-0.6,0.6l-0.6,0.7l-0.7,0.6l-0.7,0.6l-0.6,0.4l-0.8,0.6l-0.8,0.5l-0.7,0.5l-0.8,0.3l-0.7,0.3l-1,0.3l-0.7,0.3l-0.9,0.1l-1,0.2l-0.7,0.1l-0.9,0l-1,0l-782,0.2l-0.9,-0.2l-1,0l-0.7,-0.1L160,491.6l-1,-0.1l-0.7,-0.3l-0.8,-0.3l-0.9,-0.3l-0.8,-0.3l-0.7,-0.5l-0.8,-0.5l-0.8,-0.4l-0.6,-0.6l-0.7,-0.6l-0.6,-0.6l-0.7,-0.7l-0.6,-0.6l-0.4,-0.7l-0.5,-0.6L149,483.7l-0.5,-0.8L148,482l-0.3,-0.7l-0.3,-1l-0.3,-0.7L147,478.7l-0.2,-0.8L146.7,477l0,-0.9l0,-1l0,-67.3Z" class="g1_38" />
<path d="M146.7,407.8l0,-0.8l0,-0.9l0.1,-0.9l0.2,-1l0.1,-0.7l0.3,-0.9l0.3,-0.8L148,401l0.5,-0.9l0.5,-0.7l0.4,-0.8l0.5,-0.8l0.4,-0.6l0.6,-0.6l0.7,-0.8l0.6,-0.6l0.7,-0.4l0.6,-0.6l0.8,-0.5l0.8,-0.4l0.7,-0.5l0.8,-0.3l0.9,-0.5l0.8,-0.1l0.7,-0.3l1,-0.2l0.9,-0.1l0.7,-0.2l1,-0.1l0.9,0l782,0l1,0l0.9,0.1l0.7,0.2l1,0.1l0.9,0.2l0.7,0.3l1,0.1l0.7,0.5l0.8,0.3l0.7,0.5l0.8,0.4l0.8,0.5l0.6,0.6l0.7,0.4l0.7,0.6l0.6,0.8l0.6,0.6l0.4,0.8l0.5,0.6l0.5,0.8l0.4,0.7L961,401l0.3,0.8l0.3,0.8l0.1,0.9l0.3,0.7l0.2,1l0.1,0.9l0,0.9l0,0.8l0.2,67.3l-0.2,0l0,1l0,0.9l-0.1,0.9l-0.2,0.8l-0.1,0.9l-0.3,0.7l-0.3,1L961,482l-0.5,0.8l-0.3,0.7l-0.4,0.8l-0.7,0.8l-0.4,0.7l-0.6,0.6l-0.6,0.7l-0.7,0.6l-0.7,0.6l-0.6,0.4l-0.8,0.6l-0.8,0.5l-0.7,0.5l-0.8,0.3l-0.7,0.3l-1,0.3l-0.7,0.3l-0.9,0.1l-1,0.2l-0.7,0.1l-0.9,0l-1,0l-782,0.2l-0.9,-0.2l-1,0l-0.7,-0.1L160,491.6l-1,-0.1l-0.7,-0.3l-0.8,-0.3l-0.9,-0.3l-0.8,-0.3l-0.7,-0.5l-0.8,-0.5l-0.8,-0.4l-0.6,-0.6l-0.7,-0.6l-0.6,-0.6l-0.7,-0.7l-0.6,-0.6l-0.4,-0.7l-0.5,-0.6L149,483.7l-0.5,-0.8L148,482l-0.3,-0.7l-0.3,-1l-0.3,-0.7L147,478.7l-0.2,-0.8L146.7,477l0,-0.9l0,-1l0,-67.3Z" class="g2_38" />
<path d="M253,467l624,0" class="g3_38" />
<image x="238" y="183" width="595" height="192" xlink:href="img/1.png" />
</svg>