<?xml version="1.0" encoding="UTF-8" standalone="no"?>
<!DOCTYPE svg PUBLIC "-//W3C//DTD SVG 1.1//EN"
"http://www.w3.org/Graphics/SVG/1.1/DTD/svg11.dtd">
<svg viewBox="0 0 1100 825" version="1.1" xmlns="http://www.w3.org/2000/svg" xmlns:xlink="http://www.w3.org/1999/xlink">
<defs>
<style type="text/css"><![CDATA[
.g2_1{
fill: none;
stroke: #418AB3;
stroke-width: 2;
stroke-linecap: butt;
stroke-linejoin: miter;
stroke-miterlimit: 7;
}
.g1_1{
fill: #FFFFFF;
}
]]></style>
</defs>
<path fill-rule="evenodd" d="M0,0L1100,0l0,825L0,825L0,0Z" class="g1_1" />
<path fill-rule="evenodd" d="M0,0L1100,0l0,825L0,825L0,0Z" class="g1_1" />
<path fill-rule="evenodd" d="M846.7,19.7l0,-0.3l0,-0.3l0,-0.3l0.1,-0.3l0,-0.3L847,17.9l0,-0.3l0.2,-0.2l0.1,-0.3l0.2,-0.3l0.1,-0.1l0.2,-0.4L847.9,16l0.2,-0.1l0.3,-0.3l0.1,-0.2l0.3,-0.1L849,15l0.3,-0.2l0.3,-0.1l0.2,-0.2l0.3,-0.1l0.3,0l0.3,-0.2l0.3,0l0.1,-0.1l0.3,0l0.3,0L852,13.9l0.3,0l220.8,0l0.3,0l0.3,0.2l0.3,0l0.3,0l0.3,0.1l0.3,0l0.2,0.2l0.3,0.1l0.3,0.2l0.3,0l0.2,0.3l0.3,0.1l0.1,0.2l0.3,0.1l0.2,0.2l0.3,0.3l0.1,0.1l0.2,0.3l0.1,0.4l0.2,0.1l0.2,0.3l0.1,0.3l0.2,0.3l0.1,0.2l0,0.3l0.2,0.3l0,0.3l0,0.3l0,0.3l0,0.3l0.1,22.9l0,0.3l-0.1,0.3l0,0.3l0,0.3l-0.2,0.4l0,0.3l-0.1,0.3l-0.2,0.3l-0.1,0.3l0,0.1l-0.4,0.3l-0.1,0.3l-0.2,0.2l-0.1,0.1l-0.2,0.4l-0.3,0.1l-0.3,0.3l-0.1,0.2l-0.3,0.1l-0.2,0.2l-0.3,0.1l-0.3,0.2l-0.3,0l-0.2,0.1l-0.3,0.2l-0.3,0l-0.3,0l-0.3,0.1l-0.3,0l-0.3,0l-220.8,0l-0.3,0l-0.3,0l-0.3,0l-0.3,-0.1l-0.1,0l-0.3,-0.2l-0.3,0L850.1,48l-0.3,-0.2l-0.2,-0.1l-0.3,-0.2L849,47.4l-0.2,-0.2l-0.3,-0.1l-0.1,-0.3l-0.3,-0.2l-0.2,-0.3l-0.1,-0.2l-0.2,-0.3l-0.1,-0.3l-0.2,-0.1l-0.1,-0.3L847,44.8l0,-0.3l-0.2,-0.3l0,-0.4l-0.1,-0.3l0,-0.3l0,-0.3l0,-0.3l0,-22.9Z" class="g1_1" />
<path d="M846.7,19.7l0,-0.3l0,-0.3l0,-0.3l0.1,-0.3l0,-0.3L847,17.9l0,-0.3l0.2,-0.2l0.1,-0.3l0.2,-0.3l0.1,-0.1l0.2,-0.4L847.9,16l0.2,-0.1l0.3,-0.3l0.1,-0.2l0.3,-0.1L849,15l0.3,-0.2l0.3,-0.1l0.2,-0.2l0.3,-0.1l0.3,0l0.3,-0.2l0.3,0l0.1,-0.1l0.3,0l0.3,0L852,13.9l0.3,0l220.8,0l0.3,0l0.3,0.2l0.3,0l0.3,0l0.3,0.1l0.3,0l0.2,0.2l0.3,0.1l0.3,0.2l0.3,0l0.2,0.3l0.3,0.1l0.1,0.2l0.3,0.1l0.2,0.2l0.3,0.3l0.1,0.1l0.2,0.3l0.1,0.4l0.2,0.1l0.2,0.3l0.1,0.3l0.2,0.3l0.1,0.2l0,0.3l0.2,0.3l0,0.3l0,0.3l0,0.3l0,0.3l0.1,22.9l0,0.3l-0.1,0.3l0,0.3l0,0.3l-0.2,0.4l0,0.3l-0.1,0.3l-0.2,0.3l-0.1,0.3l0,0.1l-0.4,0.3l-0.1,0.3l-0.2,0.2l-0.1,0.1l-0.2,0.4l-0.3,0.1l-0.3,0.3l-0.1,0.2l-0.3,0.1l-0.2,0.2l-0.3,0.1l-0.3,0.2l-0.3,0l-0.2,0.1l-0.3,0.2l-0.3,0l-0.3,0l-0.3,0.1l-0.3,0l-0.3,0l-220.8,0l-0.3,0l-0.3,0l-0.3,0l-0.3,-0.1l-0.1,0l-0.3,-0.2l-0.3,0L850.1,48l-0.3,-0.2l-0.2,-0.1l-0.3,-0.2L849,47.4l-0.2,-0.2l-0.3,-0.1l-0.1,-0.3l-0.3,-0.2l-0.2,-0.3l-0.1,-0.2l-0.2,-0.3l-0.1,-0.3l-0.2,-0.1l-0.1,-0.3L847,44.8l0,-0.3l-0.2,-0.3l0,-0.4l-0.1,-0.3l0,-0.3l0,-0.3l0,-0.3l0,-22.9Z" class="g2_1" />
</svg>