<?xml version="1.0" encoding="UTF-8" standalone="no"?>
<!DOCTYPE svg PUBLIC "-//W3C//DTD SVG 1.1//EN"
"http://www.w3.org/Graphics/SVG/1.1/DTD/svg11.dtd">
<svg viewBox="0 0 1100 825" version="1.1" xmlns="http://www.w3.org/2000/svg" xmlns:xlink="http://www.w3.org/1999/xlink">
<defs>
<style type="text/css"><![CDATA[
.g2_72{
fill: none;
stroke: #000000;
stroke-width: 2;
stroke-linecap: butt;
stroke-linejoin: miter;
stroke-miterlimit: 7;
}
.g3_72{
fill: none;
stroke: #0070C0;
stroke-width: 2;
stroke-linecap: butt;
stroke-linejoin: miter;
}
.g1_72{
fill: #FFFFFF;
}
]]></style>
</defs>
<path fill-rule="evenodd" d="M0,0L1100,0l0,825L0,825L0,0Z" class="g1_72" />
<path fill-rule="evenodd" d="M0,0L1100,0l0,825L0,825L0,0Z" class="g1_72" />
<image x="753" y="777" width="303" height="38" xlink:href="img/1.png" />
<path fill-rule="evenodd" d="M185.8,214l0,-0.7l0.1,-0.6l0,-0.6l0.2,-0.7l0.1,-0.6l0.2,-0.6l0.3,-0.6l0.1,-0.6l0.4,-0.6l0.3,-0.6l0.3,-0.5l0.4,-0.6l0.3,-0.4l0.5,-0.7l0.4,-0.4l0.5,-0.3l0.5,-0.5L191,204l0.4,-0.3l0.6,-0.4l0.7,-0.3l0.4,-0.3l0.6,-0.3l0.6,-0.1l0.6,-0.2l0.7,-0.1l0.6,-0.2l0.7,-0.1l0.6,0l0.7,0l598.5,0l0.6,0l0.7,0l0.6,0.1l0.6,0.2l0.7,0.1l0.7,0.2l0.6,0.1l0.4,0.3l0.6,0.3l0.6,0.3l0.7,0.4l0.4,0.3l0.5,0.4l0.4,0.5l0.6,0.4l0.4,0.5l0.4,0.5l0.5,0.4l0.3,0.6l0.3,0.5l0.3,0.6l0.3,0.6l0.3,0.6l0.1,0.6l0.2,0.6l0.2,0.6l0.1,0.7l0.2,0.6l0,0.6l0,0.7l0.1,49.4l-0.1,0l0,0.6l0,0.8l-0.2,0.6l0,0.6l-0.1,0.6l-0.4,0.6l-0.1,0.6l-0.3,0.6l-0.2,0.6l-0.4,0.5l-0.3,0.6l-0.3,0.5l-0.5,0.6l-0.4,0.4l-0.4,0.5l-0.6,0.5l-0.4,0.4l-0.5,0.3l-0.4,0.3l-0.7,0.5l-0.6,0.3l-0.6,0.1l-0.4,0.3l-0.6,0.4l-0.7,0.1l-0.7,0.2l-0.6,0.1l-0.6,0l-0.7,0.2l-0.6,0l-598.5,0l-0.7,0l-0.6,-0.2l-0.7,0l-0.6,-0.1l-0.7,-0.2l-0.6,-0.1l-0.6,-0.4l-0.6,-0.1l-0.4,-0.3L192,274.1l-0.6,-0.3L191,273.5L190.4,273l-0.5,-0.4l-0.5,-0.5L189,271.6l-0.5,-0.4l-0.3,-0.5l-0.4,-0.6l-0.3,-0.4L187.2,269l-0.4,-0.6l-0.1,-0.6l-0.3,-0.6l-0.2,-0.6L186.1,266l-0.2,-0.6l0,-0.6L185.8,264l0,-0.6l0,-49.4Z" class="g1_72" />
<path d="M185.8,214l0,-0.7l0.1,-0.6l0,-0.6l0.2,-0.7l0.1,-0.6l0.2,-0.6l0.3,-0.6l0.1,-0.6l0.4,-0.6l0.3,-0.6l0.3,-0.5l0.4,-0.6l0.3,-0.4l0.5,-0.7l0.4,-0.4l0.5,-0.3l0.5,-0.5L191,204l0.4,-0.3l0.6,-0.4l0.7,-0.3l0.4,-0.3l0.6,-0.3l0.6,-0.1l0.6,-0.2l0.7,-0.1l0.6,-0.2l0.7,-0.1l0.6,0l0.7,0l598.5,0l0.6,0l0.7,0l0.6,0.1l0.6,0.2l0.7,0.1l0.7,0.2l0.6,0.1l0.4,0.3l0.6,0.3l0.6,0.3l0.7,0.4l0.4,0.3l0.5,0.4l0.4,0.5l0.6,0.4l0.4,0.5l0.4,0.5l0.5,0.4l0.3,0.6l0.3,0.5l0.3,0.6l0.3,0.6l0.3,0.6l0.1,0.6l0.2,0.6l0.2,0.6l0.1,0.7l0.2,0.6l0,0.6l0,0.7l0.1,49.4l-0.1,0l0,0.6l0,0.8l-0.2,0.6l0,0.6l-0.1,0.6l-0.4,0.6l-0.1,0.6l-0.3,0.6l-0.2,0.6l-0.4,0.5l-0.3,0.6l-0.3,0.5l-0.5,0.6l-0.4,0.4l-0.4,0.5l-0.6,0.5l-0.4,0.4l-0.5,0.3l-0.4,0.3l-0.7,0.5l-0.6,0.3l-0.6,0.1l-0.4,0.3l-0.6,0.4l-0.7,0.1l-0.7,0.2l-0.6,0.1l-0.6,0l-0.7,0.2l-0.6,0l-598.5,0l-0.7,0l-0.6,-0.2l-0.7,0l-0.6,-0.1l-0.7,-0.2l-0.6,-0.1l-0.6,-0.4l-0.6,-0.1l-0.4,-0.3L192,274.1l-0.6,-0.3L191,273.5L190.4,273l-0.5,-0.4l-0.5,-0.5L189,271.6l-0.5,-0.4l-0.3,-0.5l-0.4,-0.6l-0.3,-0.4L187.2,269l-0.4,-0.6l-0.1,-0.6l-0.3,-0.6l-0.2,-0.6L186.1,266l-0.2,-0.6l0,-0.6L185.8,264l0,-0.6l0,-49.4Z" class="g2_72" />
<path d="M218,261l416,0" class="g3_72" />
</svg>