<?xml version="1.0" encoding="UTF-8" standalone="no"?>
<!DOCTYPE svg PUBLIC "-//W3C//DTD SVG 1.1//EN"
"http://www.w3.org/Graphics/SVG/1.1/DTD/svg11.dtd">
<svg viewBox="0 0 1210 1210" version="1.1" xmlns="http://www.w3.org/2000/svg" xmlns:xlink="http://www.w3.org/1999/xlink">
<defs>
<clipPath id="c0_1"><path d="M0.5,1210.5L0.5,0.5l1210,0l0,1210Z" /></clipPath>
<style type="text/css"><![CDATA[
.g2_1{
fill: #5B9BD5;
}
.g5_1{
fill: none;
stroke: #FFFFFF;
stroke-width: 1;
stroke-linecap: butt;
stroke-linejoin: miter;
}
.g3_1{
fill: #D1DEEF;
}
.g4_1{
fill: #E9EFF7;
}
.g1_1{
fill: #FFFFFF;
}
]]></style>
</defs>
<path fill-rule="evenodd" d="M0,0L1210,0l0,1210L0,1210L0,0Z" class="g1_1" />
<path fill-rule="evenodd" d="M0,0L1210,0l0,1210L0,1210L0,0Z" class="g1_1" />
<path fill-rule="evenodd" d="M65,11l49,0l0,105l-49,0L65,11Z" class="g2_1" />
<g clip-path="url(#c0_1)">
<g fill="#FFFFFF" >
<use xlink:href="#f0_2" transform="matrix(15,0,0,15,81.6,59)" />
<use xlink:href="#f0_3" transform="matrix(15,0,0,15,92.4,59)" />
<use xlink:href="#f0_5" transform="matrix(15,0,0,15,73.3,81.7)" />
<use xlink:href="#f0_6" transform="matrix(15,0,0,15,88.2,81.7)" />
<use xlink:href="#f0_3" transform="matrix(15,0,0,15,100.5,81.7)" />
</g>
</g>
<path fill-rule="evenodd" d="M114,11l260,0l0,105l-260,0L114,11Z" class="g2_1" />
<g clip-path="url(#c0_1)">
<g fill="#FFFFFF" >
<use xlink:href="#f0_2" transform="matrix(15,0,0,15,209.2,70.4)" />
<use xlink:href="#f0_7" transform="matrix(15,0,0,15,220,70.4)" />
<use xlink:href="#f0_8" transform="matrix(15,0,0,15,231.4,70.4)" />
<use xlink:href="#f0_9" transform="matrix(15,0,0,15,241,70.4)" />
<use xlink:href="#f0_6" transform="matrix(15,0,0,15,254.3,70.4)" />
<use xlink:href="#f0_d" transform="matrix(15,0,0,15,266.8,70.4)" />
</g>
</g>
<path fill-rule="evenodd" d="M374,11l154,0l0,105l-154,0L374,11Z" class="g2_1" />
<g clip-path="url(#c0_1)">
<g fill="#FFFFFF" >
<use xlink:href="#f0_e" transform="matrix(15,0,0,15,402.9,36.1)" />
<use xlink:href="#f0_f" transform="matrix(15,0,0,15,416.4,36.1)" />
<use xlink:href="#f0_h" transform="matrix(15,0,0,15,422.1,36.1)" />
<use xlink:href="#f0_7" transform="matrix(15,0,0,15,434.6,36.1)" />
<use xlink:href="#f0_6" transform="matrix(15,0,0,15,446.2,36.1)" />
<use xlink:href="#f0_i" transform="matrix(15,0,0,15,463.7,36.1)" />
<use xlink:href="#f0_d" transform="matrix(15,0,0,15,474.9,36.1)" />
<use xlink:href="#f0_h" transform="matrix(15,0,0,15,487.4,36.1)" />
<use xlink:href="#f0_j" transform="matrix(15,0,0,15,413.6,59)" />
<use xlink:href="#f0_6" transform="matrix(15,0,0,15,425.6,59)" />
<use xlink:href="#f0_d" transform="matrix(15,0,0,15,438.2,59)" />
<use xlink:href="#f0_k" transform="matrix(15,0,0,15,450.2,59)" />
<use xlink:href="#f0_7" transform="matrix(15,0,0,15,457.7,59)" />
<use xlink:href="#f0_d" transform="matrix(15,0,0,15,469.3,59)" />
<use xlink:href="#f0_k" transform="matrix(15,0,0,15,481.4,59)" />
<use xlink:href="#f0_l" transform="matrix(15,0,0,15,384.1,81.7)" />
<use xlink:href="#f0_7" transform="matrix(15,0,0,15,393.7,81.7)" />
<use xlink:href="#f0_i" transform="matrix(15,0,0,15,405.3,81.7)" />
<use xlink:href="#f0_m" transform="matrix(15,0,0,15,416.5,81.7)" />
<use xlink:href="#f0_d" transform="matrix(15,0,0,15,424.7,81.7)" />
<use xlink:href="#f0_f" transform="matrix(15,0,0,15,437.2,81.7)" />
<use xlink:href="#f0_d" transform="matrix(15,0,0,15,442.8,81.7)" />
<use xlink:href="#f0_n" transform="matrix(15,0,0,15,455.4,81.7)" />
<use xlink:href="#f0_o" transform="matrix(15,0,0,15,471.2,81.7)" />
<use xlink:href="#f0_f" transform="matrix(15,0,0,15,482.5,81.7)" />
<use xlink:href="#f0_p" transform="matrix(15,0,0,15,488.3,81.7)" />
<use xlink:href="#f0_7" transform="matrix(15,0,0,15,507.1,81.7)" />
<use xlink:href="#f0_q" transform="matrix(15,0,0,15,409.9,104.7)" />
<use xlink:href="#f0_r" transform="matrix(15,0,0,15,417.1,104.7)" />
<use xlink:href="#f0_r" transform="matrix(15,0,0,15,429.3,104.7)" />
<use xlink:href="#f0_s" transform="matrix(15,0,0,15,441.5,104.7)" />
<use xlink:href="#f0_p" transform="matrix(15,0,0,15,448,104.7)" />
<use xlink:href="#f0_p" transform="matrix(15,0,0,15,466.8,104.7)" />
<use xlink:href="#f0_t" transform="matrix(15,0,0,15,485.7,104.7)" />
</g>
</g>
<path fill-rule="evenodd" d="M528,11l154,0l0,105l-154,0L528,11Z" class="g2_1" />
<g clip-path="url(#c0_1)">
<g fill="#FFFFFF" >
<use xlink:href="#f0_5" transform="matrix(15,0,0,15,538.1,70.4)" />
<use xlink:href="#f0_6" transform="matrix(15,0,0,15,552.9,70.4)" />
<use xlink:href="#f0_3" transform="matrix(15,0,0,15,565.4,70.4)" />
<use xlink:href="#f0_6" transform="matrix(15,0,0,15,576.6,70.4)" />
<use xlink:href="#f0_u" transform="matrix(15,0,0,15,589.1,70.4)" />
<use xlink:href="#f0_v" transform="matrix(15,0,0,15,601.3,70.4)" />
<use xlink:href="#f0_w" transform="matrix(15,0,0,15,617,70.4)" />
<use xlink:href="#f0_f" transform="matrix(15,0,0,15,629.5,70.4)" />
<use xlink:href="#f0_x" transform="matrix(15,0,0,15,635.2,70.4)" />
<use xlink:href="#f0_x" transform="matrix(15,0,0,15,644.2,70.4)" />
<use xlink:href="#f0_7" transform="matrix(15,0,0,15,652.6,70.4)" />
<use xlink:href="#f0_y" transform="matrix(15,0,0,15,664.2,70.4)" />
</g>
</g>
<path fill-rule="evenodd" d="M682,11l155,0l0,105l-155,0L682,11Z" class="g2_1" />
<g clip-path="url(#c0_1)">
<g fill="#FFFFFF" >
<use xlink:href="#f0_5" transform="matrix(15,0,0,15,731,59)" />
<use xlink:href="#f0_6" transform="matrix(15,0,0,15,745.9,59)" />
<use xlink:href="#f0_3" transform="matrix(15,0,0,15,758.2,59)" />
<use xlink:href="#f0_6" transform="matrix(15,0,0,15,769.5,59)" />
<use xlink:href="#f0_u" transform="matrix(15,0,0,15,781.9,59)" />
<use xlink:href="#f0_z" transform="matrix(15,0,0,15,699.6,81.7)" />
<use xlink:href="#f0_y" transform="matrix(15,0,0,15,713.6,81.7)" />
<use xlink:href="#f0_y" transform="matrix(15,0,0,15,722.6,81.7)" />
<use xlink:href="#f0_f" transform="matrix(15,0,0,15,731.9,81.7)" />
<use xlink:href="#f0_n" transform="matrix(15,0,0,15,737.5,81.7)" />
<use xlink:href="#f0_d" transform="matrix(15,0,0,15,748.4,81.7)" />
<use xlink:href="#f0_p" transform="matrix(15,0,0,15,760.7,81.7)" />
<use xlink:href="#f0_7" transform="matrix(15,0,0,15,779.7,81.7)" />
<use xlink:href="#f0_d" transform="matrix(15,0,0,15,791.1,81.7)" />
<use xlink:href="#f0_k" transform="matrix(15,0,0,15,803.3,81.7)" />
<use xlink:href="#f0_y" transform="matrix(15,0,0,15,811.1,81.7)" />
</g>
</g>
<path fill-rule="evenodd" d="M837,11l154,0l0,105l-154,0L837,11Z" class="g2_1" />
<g clip-path="url(#c0_1)">
<g fill="#FFFFFF" >
<use xlink:href="#f0_v" transform="matrix(15,0,0,15,872.2,36.1)" />
<use xlink:href="#f0_w" transform="matrix(15,0,0,15,887.9,36.1)" />
<use xlink:href="#f0_f" transform="matrix(15,0,0,15,900.4,36.1)" />
<use xlink:href="#f0_x" transform="matrix(15,0,0,15,906.1,36.1)" />
<use xlink:href="#f0_i" transform="matrix(15,0,0,15,920.3,36.1)" />
<use xlink:href="#f0_d" transform="matrix(15,0,0,15,931.4,36.1)" />
<use xlink:href="#f0_h" transform="matrix(15,0,0,15,943.8,36.1)" />
<use xlink:href="#f0_z" transform="matrix(15,0,0,15,858.5,59)" />
<use xlink:href="#f0_y" transform="matrix(15,0,0,15,872.5,59)" />
<use xlink:href="#f0_y" transform="matrix(15,0,0,15,881.5,59)" />
<use xlink:href="#f0_f" transform="matrix(15,0,0,15,890.8,59)" />
<use xlink:href="#f0_n" transform="matrix(15,0,0,15,896.4,59)" />
<use xlink:href="#f0_d" transform="matrix(15,0,0,15,907.3,59)" />
<use xlink:href="#f0_p" transform="matrix(15,0,0,15,919.6,59)" />
<use xlink:href="#f0_7" transform="matrix(15,0,0,15,938.6,59)" />
<use xlink:href="#f0_d" transform="matrix(15,0,0,15,950,59)" />
<use xlink:href="#f0_k" transform="matrix(15,0,0,15,962.2,59)" />
<use xlink:href="#f0_o" transform="matrix(15,0,0,15,890.5,81.7)" />
<use xlink:href="#f0_f" transform="matrix(15,0,0,15,902,81.7)" />
<use xlink:href="#f0_p" transform="matrix(15,0,0,15,907.6,81.7)" />
<use xlink:href="#f0_7" transform="matrix(15,0,0,15,926.5,81.7)" />
<use xlink:href="#f0_q" transform="matrix(15,0,0,15,872.8,104.7)" />
<use xlink:href="#f0_r" transform="matrix(15,0,0,15,880,104.7)" />
<use xlink:href="#f0_r" transform="matrix(15,0,0,15,892.2,104.7)" />
<use xlink:href="#f0_s" transform="matrix(15,0,0,15,904.4,104.7)" />
<use xlink:href="#f0_p" transform="matrix(15,0,0,15,911,104.7)" />
<use xlink:href="#f0_p" transform="matrix(15,0,0,15,929.7,104.7)" />
<use xlink:href="#f0_t" transform="matrix(15,0,0,15,948.7,104.7)" />
</g>
</g>
<path fill-rule="evenodd" d="M991,11l154,0l0,105l-154,0L991,11Z" class="g2_1" />
<g clip-path="url(#c0_1)">
<g fill="#FFFFFF" >
<use xlink:href="#f0_o" transform="matrix(15,0,0,15,1001.8,47.5)" />
<use xlink:href="#f0_6" transform="matrix(15,0,0,15,1011.2,47.5)" />
<use xlink:href="#f0_k" transform="matrix(15,0,0,15,1023.6,47.5)" />
<use xlink:href="#f0_i" transform="matrix(15,0,0,15,1031.1,47.5)" />
<use xlink:href="#f0_10" transform="matrix(15,0,0,15,1042.4,47.5)" />
<use xlink:href="#f0_l" transform="matrix(15,0,0,15,1053.3,47.5)" />
<use xlink:href="#f0_7" transform="matrix(15,0,0,15,1063,47.5)" />
<use xlink:href="#f0_i" transform="matrix(15,0,0,15,1074.5,47.5)" />
<use xlink:href="#f0_m" transform="matrix(15,0,0,15,1085.7,47.5)" />
<use xlink:href="#f0_d" transform="matrix(15,0,0,15,1093.9,47.5)" />
<use xlink:href="#f0_f" transform="matrix(15,0,0,15,1106.4,47.5)" />
<use xlink:href="#f0_d" transform="matrix(15,0,0,15,1112.1,47.5)" />
<use xlink:href="#f0_n" transform="matrix(15,0,0,15,1124.4,47.5)" />
<use xlink:href="#f0_o" transform="matrix(15,0,0,15,1044.8,70.4)" />
<use xlink:href="#f0_f" transform="matrix(15,0,0,15,1056.3,70.4)" />
<use xlink:href="#f0_p" transform="matrix(15,0,0,15,1061.9,70.4)" />
<use xlink:href="#f0_7" transform="matrix(15,0,0,15,1080.8,70.4)" />
<use xlink:href="#f0_q" transform="matrix(15,0,0,15,1027.1,93.3)" />
<use xlink:href="#f0_r" transform="matrix(15,0,0,15,1034.3,93.3)" />
<use xlink:href="#f0_r" transform="matrix(15,0,0,15,1046.5,93.3)" />
<use xlink:href="#f0_s" transform="matrix(15,0,0,15,1058.7,93.3)" />
<use xlink:href="#f0_p" transform="matrix(15,0,0,15,1065.3,93.3)" />
<use xlink:href="#f0_p" transform="matrix(15,0,0,15,1084,93.3)" />
<use xlink:href="#f0_t" transform="matrix(15,0,0,15,1103,93.3)" />
</g>
</g>
<path fill-rule="evenodd" d="M65,116l49,0l0,52l-49,0l0,-52Z" class="g3_1" />
<g clip-path="url(#c0_1)">
<g fill="#808080" >
<use xlink:href="#f0_11" transform="matrix(12,0,0,12,85.3,147.7)" />
</g>
</g>
<path fill-rule="evenodd" d="M114,116l260,0l0,52l-260,0l0,-52Z" class="g3_1" />
<g clip-path="url(#c0_1)">
<g fill="#808080" >
<use xlink:href="#f0_12" transform="matrix(12,0,0,12,114.1,147.7)" />
<use xlink:href="#f0_d" transform="matrix(12,0,0,12,119.1,147.7)" />
<use xlink:href="#f0_k" transform="matrix(12,0,0,12,128.9,147.7)" />
<use xlink:href="#f0_m" transform="matrix(12,0,0,12,135.3,147.7)" />
<use xlink:href="#f0_6" transform="matrix(12,0,0,12,141.4,147.7)" />
<use xlink:href="#f0_h" transform="matrix(12,0,0,12,151.3,147.7)" />
<use xlink:href="#f0_w" transform="matrix(12,0,0,12,161.3,147.7)" />
<use xlink:href="#f0_8" transform="matrix(12,0,0,12,171.2,147.7)" />
<use xlink:href="#f0_9" transform="matrix(12,0,0,12,178.8,147.7)" />
<use xlink:href="#f0_6" transform="matrix(12,0,0,12,189.7,147.7)" />
<use xlink:href="#f0_d" transform="matrix(12,0,0,12,199.6,147.7)" />
<use xlink:href="#f0_k" transform="matrix(12,0,0,12,213.6,147.7)" />
<use xlink:href="#f0_6" transform="matrix(12,0,0,12,219.9,147.7)" />
<use xlink:href="#f0_13" transform="matrix(12,0,0,12,233.9,147.7)" />
<use xlink:href="#f0_m" transform="matrix(12,0,0,12,243.8,147.7)" />
<use xlink:href="#f0_6" transform="matrix(12,0,0,12,250.1,147.7)" />
<use xlink:href="#f0_n" transform="matrix(12,0,0,12,260,147.7)" />
<use xlink:href="#f0_m" transform="matrix(12,0,0,12,268.6,147.7)" />
<use xlink:href="#f0_i" transform="matrix(12,0,0,12,274.7,147.7)" />
<use xlink:href="#f0_p" transform="matrix(12,0,0,12,283.8,147.7)" />
<use xlink:href="#f0_p" transform="matrix(12,0,0,12,298.7,147.7)" />
<use xlink:href="#f0_f" transform="matrix(12,0,0,12,313.5,147.7)" />
<use xlink:href="#f0_d" transform="matrix(12,0,0,12,318,147.7)" />
<use xlink:href="#f0_n" transform="matrix(12,0,0,12,327.9,147.7)" />
</g>
</g>
<path fill-rule="evenodd" d="M374,116l154,0l0,52l-154,0l0,-52Z" class="g3_1" />
<g clip-path="url(#c0_1)">
<g fill="#808080" >
<use xlink:href="#f0_11" transform="matrix(12,0,0,12,435,147.7)" />
<use xlink:href="#f0_s" transform="matrix(12,0,0,12,444.3,147.7)" />
<use xlink:href="#f0_14" transform="matrix(12,0,0,12,449.1,147.7)" />
<use xlink:href="#f0_14" transform="matrix(12,0,0,12,458.6,147.7)" />
</g>
</g>
<path fill-rule="evenodd" d="M528,116l154,0l0,52l-154,0l0,-52Z" class="g3_1" />
<g clip-path="url(#c0_1)">
<g fill="#808080" >
<use xlink:href="#f0_15" transform="matrix(12,0,0,12,601.2,147.7)" />
</g>
</g>
<path fill-rule="evenodd" d="M682,116l155,0l0,52l-155,0l0,-52Z" class="g3_1" />
<g clip-path="url(#c0_1)">
<g fill="#808080" >
<use xlink:href="#f0_11" transform="matrix(12,0,0,12,755.3,147.7)" />
</g>
</g>
<path fill-rule="evenodd" d="M837,116l154,0l0,52l-154,0l0,-52Z" class="g3_1" />
<g clip-path="url(#c0_1)">
<g fill="#808080" >
<use xlink:href="#f0_11" transform="matrix(12,0,0,12,897.9,147.7)" />
<use xlink:href="#f0_s" transform="matrix(12,0,0,12,907.2,147.7)" />
<use xlink:href="#f0_14" transform="matrix(12,0,0,12,912.1,147.7)" />
<use xlink:href="#f0_14" transform="matrix(12,0,0,12,921.5,147.7)" />
</g>
</g>
<path fill-rule="evenodd" d="M991,116l154,0l0,52l-154,0l0,-52Z" class="g3_1" />
<g clip-path="url(#c0_1)">
<g fill="#808080" >
<use xlink:href="#f0_15" transform="matrix(12,0,0,12,1052.2,147.7)" />
<use xlink:href="#f0_s" transform="matrix(12,0,0,12,1061.3,147.7)" />
<use xlink:href="#f0_14" transform="matrix(12,0,0,12,1066.4,147.7)" />
<use xlink:href="#f0_14" transform="matrix(12,0,0,12,1075.7,147.7)" />
</g>
</g>
<path fill-rule="evenodd" d="M65,168l49,0l0,45l-49,0l0,-45Z" class="g4_1" />
<g clip-path="url(#c0_1)">
<g fill="#808080" >
<use xlink:href="#f0_15" transform="matrix(12,0,0,12,85.4,196.3)" />
</g>
</g>
<path fill-rule="evenodd" d="M114,168l260,0l0,45l-260,0l0,-45Z" class="g4_1" />
<g clip-path="url(#c0_1)">
<g fill="#808080" >
<use xlink:href="#f0_z" transform="matrix(12,0,0,12,115.3,187.2)" />
<use xlink:href="#f0_10" transform="matrix(12,0,0,12,126.5,187.2)" />
<use xlink:href="#f0_n" transform="matrix(12,0,0,12,131,187.2)" />
<use xlink:href="#f0_6" transform="matrix(12,0,0,12,139.4,187.2)" />
<use xlink:href="#f0_m" transform="matrix(12,0,0,12,149.4,187.2)" />
<use xlink:href="#f0_f" transform="matrix(12,0,0,12,155.9,187.2)" />
<use xlink:href="#f0_k" transform="matrix(12,0,0,12,160.5,187.2)" />
<use xlink:href="#f0_r" transform="matrix(12,0,0,12,166.9,187.2)" />
<use xlink:href="#f0_p" transform="matrix(12,0,0,12,176.8,187.2)" />
<use xlink:href="#f0_17" transform="matrix(12,0,0,12,191.6,187.2)" />
<use xlink:href="#f0_18" transform="matrix(12,0,0,12,200.6,187.2)" />
<use xlink:href="#f0_10" transform="matrix(12,0,0,12,208.8,187.2)" />
<use xlink:href="#f0_6" transform="matrix(12,0,0,12,213.4,187.2)" />
<use xlink:href="#f0_19" transform="matrix(12,0,0,12,223,187.2)" />
<use xlink:href="#f0_j" transform="matrix(12,0,0,12,241,187.2)" />
<use xlink:href="#f0_r" transform="matrix(12,0,0,12,250.7,187.2)" />
<use xlink:href="#f0_i" transform="matrix(12,0,0,12,260.5,187.2)" />
<use xlink:href="#f0_m" transform="matrix(12,0,0,12,269.7,187.2)" />
<use xlink:href="#f0_k" transform="matrix(12,0,0,12,276.2,187.2)" />
<use xlink:href="#f0_i" transform="matrix(12,0,0,12,286.9,187.2)" />
<use xlink:href="#f0_d" transform="matrix(12,0,0,12,296,187.2)" />
<use xlink:href="#f0_h" transform="matrix(12,0,0,12,305.9,187.2)" />
<use xlink:href="#f0_13" transform="matrix(12,0,0,12,115.3,205.5)" />
<use xlink:href="#f0_y" transform="matrix(12,0,0,12,124.8,205.5)" />
<use xlink:href="#f0_7" transform="matrix(12,0,0,12,132.3,205.5)" />
<use xlink:href="#f0_w" transform="matrix(12,0,0,12,141.5,205.5)" />
<use xlink:href="#f0_h" transform="matrix(12,0,0,12,151.4,205.5)" />
<use xlink:href="#f0_6" transform="matrix(12,0,0,12,161.3,205.5)" />
<use xlink:href="#f0_j" transform="matrix(12,0,0,12,175.3,205.5)" />
<use xlink:href="#f0_6" transform="matrix(12,0,0,12,185.1,205.5)" />
<use xlink:href="#f0_h" transform="matrix(12,0,0,12,195,205.5)" />
<use xlink:href="#f0_7" transform="matrix(12,0,0,12,204.8,205.5)" />
</g>
</g>
<path fill-rule="evenodd" d="M374,168l154,0l0,45l-154,0l0,-45Z" class="g4_1" />
<g clip-path="url(#c0_1)">
<g fill="#808080" >
<use xlink:href="#f0_11" transform="matrix(12,0,0,12,435,196.3)" />
<use xlink:href="#f0_s" transform="matrix(12,0,0,12,444.3,196.3)" />
<use xlink:href="#f0_11" transform="matrix(12,0,0,12,449.1,196.3)" />
<use xlink:href="#f0_14" transform="matrix(12,0,0,12,458.6,196.3)" />
</g>
</g>
<path fill-rule="evenodd" d="M528,168l154,0l0,45l-154,0l0,-45Z" class="g4_1" />
<g clip-path="url(#c0_1)">
<g fill="#808080" >
<use xlink:href="#f0_11" transform="matrix(12,0,0,12,596.4,196.3)" />
<use xlink:href="#f0_1a" transform="matrix(12,0,0,12,605.7,196.3)" />
</g>
</g>
<path fill-rule="evenodd" d="M682,168l155,0l0,45l-155,0l0,-45Z" class="g4_1" />
<g clip-path="url(#c0_1)">
<g fill="#808080" >
<use xlink:href="#f0_1c" transform="matrix(12,0,0,12,755.3,196.3)" />
</g>
</g>
<path fill-rule="evenodd" d="M837,168l154,0l0,45l-154,0l0,-45Z" class="g4_1" />
<g clip-path="url(#c0_1)">
<g fill="#808080" >
<use xlink:href="#f0_15" transform="matrix(12,0,0,12,898,196.3)" />
<use xlink:href="#f0_s" transform="matrix(12,0,0,12,907.2,196.3)" />
<use xlink:href="#f0_1e" transform="matrix(12,0,0,12,912.1,196.3)" />
<use xlink:href="#f0_14" transform="matrix(12,0,0,12,921.3,196.3)" />
</g>
</g>
<path fill-rule="evenodd" d="M991,168l154,0l0,45l-154,0l0,-45Z" class="g4_1" />
<g clip-path="url(#c0_1)">
<g fill="#808080" >
<use xlink:href="#f0_1c" transform="matrix(12,0,0,12,1052.2,196.3)" />
<use xlink:href="#f0_s" transform="matrix(12,0,0,12,1061.5,196.3)" />
<use xlink:href="#f0_1a" transform="matrix(12,0,0,12,1066.4,196.3)" />
<use xlink:href="#f0_14" transform="matrix(12,0,0,12,1075.8,196.3)" />
</g>
</g>
<path fill-rule="evenodd" d="M65,213l49,0l0,46l-49,0l0,-46Z" class="g3_1" />
<g clip-path="url(#c0_1)">
<g fill="#808080" >
<use xlink:href="#f0_1c" transform="matrix(12,0,0,12,85.3,241.5)" />
</g>
</g>
<path fill-rule="evenodd" d="M114,213l260,0l0,46l-260,0l0,-46Z" class="g3_1" />
<g clip-path="url(#c0_1)">
<g fill="#808080" >
<use xlink:href="#f0_13" transform="matrix(12,0,0,12,115.3,241.5)" />
<use xlink:href="#f0_1g" transform="matrix(12,0,0,12,125.1,241.5)" />
<use xlink:href="#f0_k" transform="matrix(12,0,0,12,133.8,241.5)" />
<use xlink:href="#f0_r" transform="matrix(12,0,0,12,140.2,241.5)" />
<use xlink:href="#f0_6" transform="matrix(12,0,0,12,150,241.5)" />
<use xlink:href="#f0_d" transform="matrix(12,0,0,12,159.9,241.5)" />
<use xlink:href="#f0_18" transform="matrix(12,0,0,12,174.1,241.5)" />
<use xlink:href="#f0_w" transform="matrix(12,0,0,12,182.3,241.5)" />
<use xlink:href="#f0_d" transform="matrix(12,0,0,12,192.2,241.5)" />
<use xlink:href="#f0_h" transform="matrix(12,0,0,12,202,241.5)" />
<use xlink:href="#f0_i" transform="matrix(12,0,0,12,211.9,241.5)" />
<use xlink:href="#f0_p" transform="matrix(12,0,0,12,221.1,241.5)" />
<use xlink:href="#f0_7" transform="matrix(12,0,0,12,235.9,241.5)" />
<use xlink:href="#f0_d" transform="matrix(12,0,0,12,245,241.5)" />
<use xlink:href="#f0_k" transform="matrix(12,0,0,12,254.8,241.5)" />
<use xlink:href="#f0_i" transform="matrix(12,0,0,12,261.1,241.5)" />
<use xlink:href="#f0_10" transform="matrix(12,0,0,12,270.2,241.5)" />
<use xlink:href="#f0_y" transform="matrix(12,0,0,12,274.8,241.5)" />
</g>
</g>
<path fill-rule="evenodd" d="M374,213l154,0l0,46l-154,0l0,-46Z" class="g3_1" />
<g clip-path="url(#c0_1)">
<g fill="#808080" >
<use xlink:href="#f0_1c" transform="matrix(12,0,0,12,435,241.5)" />
<use xlink:href="#f0_s" transform="matrix(12,0,0,12,444.3,241.5)" />
<use xlink:href="#f0_1c" transform="matrix(12,0,0,12,449.1,241.5)" />
<use xlink:href="#f0_14" transform="matrix(12,0,0,12,458.6,241.5)" />
</g>
</g>
<path fill-rule="evenodd" d="M528,213l154,0l0,46l-154,0l0,-46Z" class="g3_1" />
<g clip-path="url(#c0_1)">
<g fill="#808080" >
<use xlink:href="#f0_15" transform="matrix(12,0,0,12,596.4,241.5)" />
<use xlink:href="#f0_1h" transform="matrix(12,0,0,12,605.6,241.5)" />
</g>
</g>
<path fill-rule="evenodd" d="M682,213l155,0l0,46l-155,0l0,-46Z" class="g3_1" />
<g clip-path="url(#c0_1)">
<g fill="#808080" >
<use xlink:href="#f0_1j" transform="matrix(12,0,0,12,755.3,241.5)" />
</g>
</g>
<path fill-rule="evenodd" d="M837,213l154,0l0,46l-154,0l0,-46Z" class="g3_1" />
<g clip-path="url(#c0_1)">
<g fill="#808080" >
<use xlink:href="#f0_1c" transform="matrix(12,0,0,12,897.9,241.5)" />
<use xlink:href="#f0_s" transform="matrix(12,0,0,12,907.2,241.5)" />
<use xlink:href="#f0_1c" transform="matrix(12,0,0,12,912.1,241.5)" />
<use xlink:href="#f0_14" transform="matrix(12,0,0,12,921.5,241.5)" />
</g>
</g>
<path fill-rule="evenodd" d="M991,213l154,0l0,46l-154,0l0,-46Z" class="g3_1" />
<g clip-path="url(#c0_1)">
<g fill="#808080" >
<use xlink:href="#f0_1h" transform="matrix(12,0,0,12,1052.2,241.5)" />
<use xlink:href="#f0_s" transform="matrix(12,0,0,12,1061.5,241.5)" />
<use xlink:href="#f0_14" transform="matrix(12,0,0,12,1066.4,241.5)" />
<use xlink:href="#f0_14" transform="matrix(12,0,0,12,1075.8,241.5)" />
</g>
</g>
<path fill-rule="evenodd" d="M65,259l49,0l0,45l-49,0l0,-45Z" class="g4_1" />
<g clip-path="url(#c0_1)">
<g fill="#808080" >
<use xlink:href="#f0_1e" transform="matrix(12,0,0,12,85.4,286.8)" />
</g>
</g>
<path fill-rule="evenodd" d="M114,259l260,0l0,45l-260,0l0,-45Z" class="g4_1" />
<g clip-path="url(#c0_1)">
<g fill="#808080" >
<use xlink:href="#f0_j" transform="matrix(12,0,0,12,115.3,286.8)" />
<use xlink:href="#f0_6" transform="matrix(12,0,0,12,125,286.8)" />
<use xlink:href="#f0_d" transform="matrix(12,0,0,12,134.9,286.8)" />
<use xlink:href="#f0_k" transform="matrix(12,0,0,12,144.5,286.8)" />
<use xlink:href="#f0_m" transform="matrix(12,0,0,12,151.1,286.8)" />
<use xlink:href="#f0_6" transform="matrix(12,0,0,12,157.2,286.8)" />
<use xlink:href="#f0_10" transform="matrix(12,0,0,12,167.1,286.8)" />
<use xlink:href="#f0_2" transform="matrix(12,0,0,12,175.9,286.8)" />
<use xlink:href="#f0_k" transform="matrix(12,0,0,12,184.5,286.8)" />
<use xlink:href="#f0_m" transform="matrix(12,0,0,12,190.9,286.8)" />
<use xlink:href="#f0_w" transform="matrix(12,0,0,12,197.4,286.8)" />
<use xlink:href="#f0_8" transform="matrix(12,0,0,12,207.3,286.8)" />
<use xlink:href="#f0_k" transform="matrix(12,0,0,12,215.1,286.8)" />
<use xlink:href="#f0_w" transform="matrix(12,0,0,12,221.4,286.8)" />
<use xlink:href="#f0_m" transform="matrix(12,0,0,12,231.3,286.8)" />
<use xlink:href="#f0_7" transform="matrix(12,0,0,12,237.6,286.8)" />
<use xlink:href="#f0_y" transform="matrix(12,0,0,12,246.7,286.8)" />
</g>
</g>
<path fill-rule="evenodd" d="M374,259l154,0l0,45l-154,0l0,-45Z" class="g4_1" />
<g clip-path="url(#c0_1)">
<g fill="#808080" >
<use xlink:href="#f0_11" transform="matrix(12,0,0,12,435,286.8)" />
<use xlink:href="#f0_s" transform="matrix(12,0,0,12,444.3,286.8)" />
<use xlink:href="#f0_14" transform="matrix(12,0,0,12,449.1,286.8)" />
<use xlink:href="#f0_14" transform="matrix(12,0,0,12,458.6,286.8)" />
</g>
</g>
<path fill-rule="evenodd" d="M528,259l154,0l0,45l-154,0l0,-45Z" class="g4_1" />
<g clip-path="url(#c0_1)">
<g fill="#808080" >
<use xlink:href="#f0_11" transform="matrix(12,0,0,12,596.4,286.8)" />
<use xlink:href="#f0_1a" transform="matrix(12,0,0,12,605.7,286.8)" />
</g>
</g>
<path fill-rule="evenodd" d="M682,259l155,0l0,45l-155,0l0,-45Z" class="g4_1" />
<g clip-path="url(#c0_1)">
<g fill="#808080" >
<use xlink:href="#f0_15" transform="matrix(12,0,0,12,755.5,286.8)" />
</g>
</g>
<path fill-rule="evenodd" d="M837,259l154,0l0,45l-154,0l0,-45Z" class="g4_1" />
<g clip-path="url(#c0_1)">
<g fill="#808080" >
<use xlink:href="#f0_1c" transform="matrix(12,0,0,12,897.9,286.8)" />
<use xlink:href="#f0_s" transform="matrix(12,0,0,12,907.3,286.8)" />
<use xlink:href="#f0_15" transform="matrix(12,0,0,12,912.2,286.8)" />
<use xlink:href="#f0_14" transform="matrix(12,0,0,12,921.4,286.8)" />
</g>
</g>
<path fill-rule="evenodd" d="M991,259l154,0l0,45l-154,0l0,-45Z" class="g4_1" />
<g clip-path="url(#c0_1)">
<g fill="#808080" >
<use xlink:href="#f0_1e" transform="matrix(12,0,0,12,1052.3,286.8)" />
<use xlink:href="#f0_s" transform="matrix(12,0,0,12,1061.5,286.8)" />
<use xlink:href="#f0_15" transform="matrix(12,0,0,12,1066.4,286.8)" />
<use xlink:href="#f0_14" transform="matrix(12,0,0,12,1075.6,286.8)" />
</g>
</g>
<path fill-rule="evenodd" d="M65,304l49,0l0,45l-49,0l0,-45Z" class="g3_1" />
<g clip-path="url(#c0_1)">
<g fill="#808080" >
<use xlink:href="#f0_1a" transform="matrix(12,0,0,12,85.3,332)" />
</g>
</g>
<path fill-rule="evenodd" d="M114,304l260,0l0,45l-260,0l0,-45Z" class="g3_1" />
<g clip-path="url(#c0_1)">
<g fill="#808080" >
<use xlink:href="#f0_1k" transform="matrix(12,0,0,12,115.3,332)" />
<use xlink:href="#f0_i" transform="matrix(12,0,0,12,126.8,332)" />
<use xlink:href="#f0_k" transform="matrix(12,0,0,12,135.8,332)" />
<use xlink:href="#f0_i" transform="matrix(12,0,0,12,142.1,332)" />
<use xlink:href="#f0_2" transform="matrix(12,0,0,12,155.4,332)" />
<use xlink:href="#f0_k" transform="matrix(12,0,0,12,164.1,332)" />
<use xlink:href="#f0_m" transform="matrix(12,0,0,12,170.5,332)" />
<use xlink:href="#f0_w" transform="matrix(12,0,0,12,177,332)" />
<use xlink:href="#f0_8" transform="matrix(12,0,0,12,186.9,332)" />
<use xlink:href="#f0_k" transform="matrix(12,0,0,12,194.6,332)" />
<use xlink:href="#f0_w" transform="matrix(12,0,0,12,201,332)" />
<use xlink:href="#f0_m" transform="matrix(12,0,0,12,210.9,332)" />
<use xlink:href="#f0_7" transform="matrix(12,0,0,12,217.2,332)" />
<use xlink:href="#f0_y" transform="matrix(12,0,0,12,226.3,332)" />
</g>
</g>
<path fill-rule="evenodd" d="M374,304l154,0l0,45l-154,0l0,-45Z" class="g3_1" />
<g clip-path="url(#c0_1)">
<g fill="#808080" >
<use xlink:href="#f0_1c" transform="matrix(12,0,0,12,435,332)" />
<use xlink:href="#f0_s" transform="matrix(12,0,0,12,444.3,332)" />
<use xlink:href="#f0_1c" transform="matrix(12,0,0,12,449.1,332)" />
<use xlink:href="#f0_14" transform="matrix(12,0,0,12,458.6,332)" />
</g>
</g>
<path fill-rule="evenodd" d="M528,304l154,0l0,45l-154,0l0,-45Z" class="g3_1" />
<g clip-path="url(#c0_1)">
<g fill="#808080" >
<use xlink:href="#f0_15" transform="matrix(12,0,0,12,596.6,332)" />
<use xlink:href="#f0_1e" transform="matrix(12,0,0,12,605.8,332)" />
</g>
</g>
<path fill-rule="evenodd" d="M682,304l155,0l0,45l-155,0l0,-45Z" class="g3_1" />
<g clip-path="url(#c0_1)">
<g fill="#808080" >
<use xlink:href="#f0_11" transform="matrix(12,0,0,12,750.8,332)" />
<use xlink:href="#f0_15" transform="matrix(12,0,0,12,760,332)" />
</g>
</g>
<path fill-rule="evenodd" d="M837,304l154,0l0,45l-154,0l0,-45Z" class="g3_1" />
<g clip-path="url(#c0_1)">
<g fill="#808080" >
<use xlink:href="#f0_1c" transform="matrix(12,0,0,12,897.9,332)" />
<use xlink:href="#f0_s" transform="matrix(12,0,0,12,907.2,332)" />
<use xlink:href="#f0_1c" transform="matrix(12,0,0,12,912.1,332)" />
<use xlink:href="#f0_14" transform="matrix(12,0,0,12,921.5,332)" />
</g>
</g>
<path fill-rule="evenodd" d="M991,304l154,0l0,45l-154,0l0,-45Z" class="g3_1" />
<g clip-path="url(#c0_1)">
<g fill="#808080" >
<use xlink:href="#f0_1h" transform="matrix(12,0,0,12,1052.2,332)" />
<use xlink:href="#f0_s" transform="matrix(12,0,0,12,1061.5,332)" />
<use xlink:href="#f0_14" transform="matrix(12,0,0,12,1066.4,332)" />
<use xlink:href="#f0_14" transform="matrix(12,0,0,12,1075.8,332)" />
</g>
</g>
<path fill-rule="evenodd" d="M65,349l49,0l0,45l-49,0l0,-45Z" class="g4_1" />
<g clip-path="url(#c0_1)">
<g fill="#808080" >
<use xlink:href="#f0_1l" transform="matrix(12,0,0,12,85.3,377.2)" />
</g>
</g>
<path fill-rule="evenodd" d="M114,349l260,0l0,45l-260,0l0,-45Z" class="g4_1" />
<g clip-path="url(#c0_1)">
<g fill="#808080" >
<use xlink:href="#f0_18" transform="matrix(12,0,0,12,115.3,377.2)" />
<use xlink:href="#f0_w" transform="matrix(12,0,0,12,123.6,377.2)" />
<use xlink:href="#f0_d" transform="matrix(12,0,0,12,133.4,377.2)" />
<use xlink:href="#f0_8" transform="matrix(12,0,0,12,143.3,377.2)" />
<use xlink:href="#f0_9" transform="matrix(12,0,0,12,151.1,377.2)" />
<use xlink:href="#f0_6" transform="matrix(12,0,0,12,161.7,377.2)" />
<use xlink:href="#f0_d" transform="matrix(12,0,0,12,171.7,377.2)" />
<use xlink:href="#f0_y" transform="matrix(12,0,0,12,181.6,377.2)" />
</g>
</g>
<path fill-rule="evenodd" d="M374,349l154,0l0,45l-154,0l0,-45Z" class="g4_1" />
<g clip-path="url(#c0_1)">
<g fill="#808080" >
<use xlink:href="#f0_15" transform="matrix(12,0,0,12,435,377.2)" />
<use xlink:href="#f0_s" transform="matrix(12,0,0,12,444.1,377.2)" />
<use xlink:href="#f0_14" transform="matrix(12,0,0,12,449.2,377.2)" />
<use xlink:href="#f0_14" transform="matrix(12,0,0,12,458.5,377.2)" />
</g>
</g>
<path fill-rule="evenodd" d="M528,349l154,0l0,45l-154,0l0,-45Z" class="g4_1" />
<g clip-path="url(#c0_1)">
<g fill="#808080" >
<use xlink:href="#f0_15" transform="matrix(12,0,0,12,596.4,377.2)" />
<use xlink:href="#f0_11" transform="matrix(12,0,0,12,605.6,377.2)" />
</g>
</g>
<path fill-rule="evenodd" d="M682,349l155,0l0,45l-155,0l0,-45Z" class="g4_1" />
<g clip-path="url(#c0_1)">
<g fill="#808080" >
<use xlink:href="#f0_1e" transform="matrix(12,0,0,12,755.5,377.2)" />
</g>
</g>
<path fill-rule="evenodd" d="M837,349l154,0l0,45l-154,0l0,-45Z" class="g4_1" />
<g clip-path="url(#c0_1)">
<g fill="#808080" >
<use xlink:href="#f0_1c" transform="matrix(12,0,0,12,897.9,377.2)" />
<use xlink:href="#f0_s" transform="matrix(12,0,0,12,907.2,377.2)" />
<use xlink:href="#f0_1c" transform="matrix(12,0,0,12,912.1,377.2)" />
<use xlink:href="#f0_14" transform="matrix(12,0,0,12,921.5,377.2)" />
</g>
</g>
<path fill-rule="evenodd" d="M991,349l154,0l0,45l-154,0l0,-45Z" class="g4_1" />
<g clip-path="url(#c0_1)">
<g fill="#808080" >
<use xlink:href="#f0_1a" transform="matrix(12,0,0,12,1052.2,377.2)" />
<use xlink:href="#f0_s" transform="matrix(12,0,0,12,1061.5,377.2)" />
<use xlink:href="#f0_1c" transform="matrix(12,0,0,12,1066.4,377.2)" />
<use xlink:href="#f0_14" transform="matrix(12,0,0,12,1075.8,377.2)" />
</g>
</g>
<path fill-rule="evenodd" d="M65,394l49,0l0,46l-49,0l0,-46Z" class="g3_1" />
<g clip-path="url(#c0_1)">
<g fill="#808080" >
<use xlink:href="#f0_1h" transform="matrix(12,0,0,12,85.3,422.4)" />
</g>
</g>
<path fill-rule="evenodd" d="M114,394l260,0l0,46l-260,0l0,-46Z" class="g3_1" />
<g clip-path="url(#c0_1)">
<g fill="#808080" >
<use xlink:href="#f0_18" transform="matrix(12,0,0,12,115.3,422.4)" />
<use xlink:href="#f0_f" transform="matrix(12,0,0,12,123.6,422.4)" />
<use xlink:href="#f0_10" transform="matrix(12,0,0,12,128,422.4)" />
<use xlink:href="#f0_7" transform="matrix(12,0,0,12,132.7,422.4)" />
<use xlink:href="#f0_1m" transform="matrix(12,0,0,12,146,422.4)" />
<use xlink:href="#f0_i" transform="matrix(12,0,0,12,157.8,422.4)" />
<use xlink:href="#f0_d" transform="matrix(12,0,0,12,166.9,422.4)" />
<use xlink:href="#f0_h" transform="matrix(12,0,0,12,176.9,422.4)" />
<use xlink:href="#f0_10" transform="matrix(12,0,0,12,186.8,422.4)" />
<use xlink:href="#f0_f" transform="matrix(12,0,0,12,191.3,422.4)" />
<use xlink:href="#f0_d" transform="matrix(12,0,0,12,195.9,422.4)" />
<use xlink:href="#f0_n" transform="matrix(12,0,0,12,205.7,422.4)" />
</g>
</g>
<path fill-rule="evenodd" d="M374,394l154,0l0,46l-154,0l0,-46Z" class="g3_1" />
<g clip-path="url(#c0_1)">
<g fill="#808080" >
<use xlink:href="#f0_11" transform="matrix(12,0,0,12,435,422.4)" />
<use xlink:href="#f0_s" transform="matrix(12,0,0,12,444.3,422.4)" />
<use xlink:href="#f0_14" transform="matrix(12,0,0,12,449.1,422.4)" />
<use xlink:href="#f0_14" transform="matrix(12,0,0,12,458.6,422.4)" />
</g>
</g>
<path fill-rule="evenodd" d="M528,394l154,0l0,46l-154,0l0,-46Z" class="g3_1" />
<g clip-path="url(#c0_1)">
<g fill="#808080" >
<use xlink:href="#f0_1n" transform="matrix(12,0,0,12,601.2,422.4)" />
</g>
</g>
<path fill-rule="evenodd" d="M682,394l155,0l0,46l-155,0l0,-46Z" class="g3_1" />
<g clip-path="url(#c0_1)">
<g fill="#808080" >
<use xlink:href="#f0_1e" transform="matrix(12,0,0,12,755.5,422.4)" />
</g>
</g>
<path fill-rule="evenodd" d="M837,394l154,0l0,46l-154,0l0,-46Z" class="g3_1" />
<g clip-path="url(#c0_1)">
<g fill="#808080" >
<use xlink:href="#f0_15" transform="matrix(12,0,0,12,897.9,422.4)" />
<use xlink:href="#f0_s" transform="matrix(12,0,0,12,907,422.4)" />
<use xlink:href="#f0_11" transform="matrix(12,0,0,12,912.1,422.4)" />
<use xlink:href="#f0_14" transform="matrix(12,0,0,12,921.4,422.4)" />
</g>
</g>
<path fill-rule="evenodd" d="M991,394l154,0l0,46l-154,0l0,-46Z" class="g3_1" />
<g clip-path="url(#c0_1)">
<g fill="#808080" >
<use xlink:href="#f0_1c" transform="matrix(12,0,0,12,1052.2,422.4)" />
<use xlink:href="#f0_s" transform="matrix(12,0,0,12,1061.5,422.4)" />
<use xlink:href="#f0_11" transform="matrix(12,0,0,12,1066.4,422.4)" />
<use xlink:href="#f0_14" transform="matrix(12,0,0,12,1075.8,422.4)" />
</g>
</g>
<path fill-rule="evenodd" d="M65,440l49,0l0,45l-49,0l0,-45Z" class="g4_1" />
<g clip-path="url(#c0_1)">
<g fill="#808080" >
<use xlink:href="#f0_1j" transform="matrix(12,0,0,12,85.3,467.7)" />
</g>
</g>
<path fill-rule="evenodd" d="M114,440l260,0l0,45l-260,0l0,-45Z" class="g4_1" />
<g clip-path="url(#c0_1)">
<g fill="#808080" >
<use xlink:href="#f0_1p" transform="matrix(12,0,0,12,115.3,467.7)" />
<use xlink:href="#f0_1q" transform="matrix(12,0,0,12,124.2,467.7)" />
<use xlink:href="#f0_8" transform="matrix(12,0,0,12,132.1,467.7)" />
<use xlink:href="#f0_7" transform="matrix(12,0,0,12,139.8,467.7)" />
<use xlink:href="#f0_1r" transform="matrix(12,0,0,12,149,467.7)" />
<use xlink:href="#f0_9" transform="matrix(12,0,0,12,158.7,467.7)" />
<use xlink:href="#f0_6" transform="matrix(12,0,0,12,169.6,467.7)" />
<use xlink:href="#f0_d" transform="matrix(12,0,0,12,179.5,467.7)" />
<use xlink:href="#f0_1m" transform="matrix(12,0,0,12,193.5,467.7)" />
<use xlink:href="#f0_i" transform="matrix(12,0,0,12,205.3,467.7)" />
<use xlink:href="#f0_d" transform="matrix(12,0,0,12,214.4,467.7)" />
<use xlink:href="#f0_h" transform="matrix(12,0,0,12,224.3,467.7)" />
<use xlink:href="#f0_10" transform="matrix(12,0,0,12,234.1,467.7)" />
<use xlink:href="#f0_f" transform="matrix(12,0,0,12,238.7,467.7)" />
<use xlink:href="#f0_d" transform="matrix(12,0,0,12,243.2,467.7)" />
<use xlink:href="#f0_n" transform="matrix(12,0,0,12,253.1,467.7)" />
</g>
</g>
<path fill-rule="evenodd" d="M374,440l154,0l0,45l-154,0l0,-45Z" class="g4_1" />
<g clip-path="url(#c0_1)">
<g fill="#808080" >
<use xlink:href="#f0_15" transform="matrix(12,0,0,12,435,467.7)" />
<use xlink:href="#f0_s" transform="matrix(12,0,0,12,444.1,467.7)" />
<use xlink:href="#f0_14" transform="matrix(12,0,0,12,449.2,467.7)" />
<use xlink:href="#f0_14" transform="matrix(12,0,0,12,458.5,467.7)" />
</g>
</g>
<path fill-rule="evenodd" d="M528,440l154,0l0,45l-154,0l0,-45Z" class="g4_1" />
<g clip-path="url(#c0_1)">
<g fill="#808080" >
<use xlink:href="#f0_1n" transform="matrix(12,0,0,12,601.2,467.7)" />
</g>
</g>
<path fill-rule="evenodd" d="M682,440l155,0l0,45l-155,0l0,-45Z" class="g4_1" />
<g clip-path="url(#c0_1)">
<g fill="#808080" >
<use xlink:href="#f0_1e" transform="matrix(12,0,0,12,755.5,467.7)" />
</g>
</g>
<path fill-rule="evenodd" d="M837,440l154,0l0,45l-154,0l0,-45Z" class="g4_1" />
<g clip-path="url(#c0_1)">
<g fill="#808080" >
<use xlink:href="#f0_11" transform="matrix(12,0,0,12,897.9,467.7)" />
<use xlink:href="#f0_s" transform="matrix(12,0,0,12,907.3,467.7)" />
<use xlink:href="#f0_1e" transform="matrix(12,0,0,12,912.2,467.7)" />
<use xlink:href="#f0_14" transform="matrix(12,0,0,12,921.4,467.7)" />
</g>
</g>
<path fill-rule="evenodd" d="M991,440l154,0l0,45l-154,0l0,-45Z" class="g4_1" />
<g clip-path="url(#c0_1)">
<g fill="#808080" >
<use xlink:href="#f0_1c" transform="matrix(12,0,0,12,1052.2,467.7)" />
<use xlink:href="#f0_s" transform="matrix(12,0,0,12,1061.6,467.7)" />
<use xlink:href="#f0_1e" transform="matrix(12,0,0,12,1066.5,467.7)" />
<use xlink:href="#f0_14" transform="matrix(12,0,0,12,1075.7,467.7)" />
</g>
</g>
<path fill-rule="evenodd" d="M65,485l49,0l0,45l-49,0l0,-45Z" class="g3_1" />
<g clip-path="url(#c0_1)">
<g fill="#808080" >
<use xlink:href="#f0_1n" transform="matrix(12,0,0,12,85.4,512.9)" />
</g>
</g>
<path fill-rule="evenodd" d="M114,485l260,0l0,45l-260,0l0,-45Z" class="g3_1" />
<g clip-path="url(#c0_1)">
<g fill="#808080" >
<use xlink:href="#f0_1s" transform="matrix(12,0,0,12,115.3,512.9)" />
<use xlink:href="#f0_6" transform="matrix(12,0,0,12,131.4,512.9)" />
<use xlink:href="#f0_h" transform="matrix(12,0,0,12,141.3,512.9)" />
<use xlink:href="#f0_w" transform="matrix(12,0,0,12,151.2,512.9)" />
<use xlink:href="#f0_10" transform="matrix(12,0,0,12,161,512.9)" />
<use xlink:href="#f0_7" transform="matrix(12,0,0,12,165.7,512.9)" />
<use xlink:href="#f0_y" transform="matrix(12,0,0,12,174.9,512.9)" />
<use xlink:href="#f0_i" transform="matrix(12,0,0,12,186.4,512.9)" />
<use xlink:href="#f0_d" transform="matrix(12,0,0,12,195.6,512.9)" />
<use xlink:href="#f0_h" transform="matrix(12,0,0,12,205.5,512.9)" />
<use xlink:href="#f0_13" transform="matrix(12,0,0,12,219.7,512.9)" />
<use xlink:href="#f0_i" transform="matrix(12,0,0,12,229.2,512.9)" />
<use xlink:href="#f0_8" transform="matrix(12,0,0,12,238.3,512.9)" />
<use xlink:href="#f0_1t" transform="matrix(12,0,0,12,246,512.9)" />
<use xlink:href="#f0_i" transform="matrix(12,0,0,12,254.4,512.9)" />
<use xlink:href="#f0_n" transform="matrix(12,0,0,12,263.6,512.9)" />
<use xlink:href="#f0_7" transform="matrix(12,0,0,12,271.9,512.9)" />
<use xlink:href="#f0_y" transform="matrix(12,0,0,12,281.1,512.9)" />
</g>
</g>
<path fill-rule="evenodd" d="M374,485l154,0l0,45l-154,0l0,-45Z" class="g3_1" />
<g clip-path="url(#c0_1)">
<g fill="#808080" >
<use xlink:href="#f0_15" transform="matrix(12,0,0,12,435,512.9)" />
<use xlink:href="#f0_s" transform="matrix(12,0,0,12,444.1,512.9)" />
<use xlink:href="#f0_1c" transform="matrix(12,0,0,12,449.2,512.9)" />
<use xlink:href="#f0_14" transform="matrix(12,0,0,12,458.5,512.9)" />
</g>
</g>
<path fill-rule="evenodd" d="M528,485l154,0l0,45l-154,0l0,-45Z" class="g3_1" />
<g clip-path="url(#c0_1)">
<g fill="#808080" >
<use xlink:href="#f0_15" transform="matrix(12,0,0,12,596.6,512.9)" />
<use xlink:href="#f0_1e" transform="matrix(12,0,0,12,605.8,512.9)" />
</g>
</g>
<path fill-rule="evenodd" d="M682,485l155,0l0,45l-155,0l0,-45Z" class="g3_1" />
<g clip-path="url(#c0_1)">
<g fill="#808080" >
<use xlink:href="#f0_1j" transform="matrix(12,0,0,12,755.3,512.9)" />
</g>
</g>
<path fill-rule="evenodd" d="M837,485l154,0l0,45l-154,0l0,-45Z" class="g3_1" />
<g clip-path="url(#c0_1)">
<g fill="#808080" >
<use xlink:href="#f0_1c" transform="matrix(12,0,0,12,897.9,512.9)" />
<use xlink:href="#f0_s" transform="matrix(12,0,0,12,907.2,512.9)" />
<use xlink:href="#f0_11" transform="matrix(12,0,0,12,912.1,512.9)" />
<use xlink:href="#f0_14" transform="matrix(12,0,0,12,921.5,512.9)" />
</g>
</g>
<path fill-rule="evenodd" d="M991,485l154,0l0,45l-154,0l0,-45Z" class="g3_1" />
<g clip-path="url(#c0_1)">
<g fill="#808080" >
<use xlink:href="#f0_1a" transform="matrix(12,0,0,12,1052.2,512.9)" />
<use xlink:href="#f0_s" transform="matrix(12,0,0,12,1061.6,512.9)" />
<use xlink:href="#f0_1e" transform="matrix(12,0,0,12,1066.5,512.9)" />
<use xlink:href="#f0_14" transform="matrix(12,0,0,12,1075.7,512.9)" />
</g>
</g>
<path fill-rule="evenodd" d="M65,530l49,0l0,45l-49,0l0,-45Z" class="g4_1" />
<g clip-path="url(#c0_1)">
<g fill="#808080" >
<use xlink:href="#f0_11" transform="matrix(12,0,0,12,80.7,558.1)" />
<use xlink:href="#f0_14" transform="matrix(12,0,0,12,90,558.1)" />
</g>
</g>
<path fill-rule="evenodd" d="M114,530l260,0l0,45l-260,0l0,-45Z" class="g4_1" />
<g clip-path="url(#c0_1)">
<g fill="#808080" >
<use xlink:href="#f0_1s" transform="matrix(12,0,0,12,115.3,558.1)" />
<use xlink:href="#f0_6" transform="matrix(12,0,0,12,131.4,558.1)" />
<use xlink:href="#f0_m" transform="matrix(12,0,0,12,141.3,558.1)" />
<use xlink:href="#f0_7" transform="matrix(12,0,0,12,147.6,558.1)" />
<use xlink:href="#f0_6" transform="matrix(12,0,0,12,160.9,558.1)" />
<use xlink:href="#f0_d" transform="matrix(12,0,0,12,170.8,558.1)" />
<use xlink:href="#f0_1k" transform="matrix(12,0,0,12,184.9,558.1)" />
<use xlink:href="#f0_i" transform="matrix(12,0,0,12,196.4,558.1)" />
<use xlink:href="#f0_k" transform="matrix(12,0,0,12,205.4,558.1)" />
<use xlink:href="#f0_i" transform="matrix(12,0,0,12,211.7,558.1)" />
<use xlink:href="#f0_2" transform="matrix(12,0,0,12,225,558.1)" />
<use xlink:href="#f0_k" transform="matrix(12,0,0,12,233.7,558.1)" />
<use xlink:href="#f0_m" transform="matrix(12,0,0,12,240.1,558.1)" />
<use xlink:href="#f0_w" transform="matrix(12,0,0,12,246.6,558.1)" />
<use xlink:href="#f0_8" transform="matrix(12,0,0,12,256.5,558.1)" />
<use xlink:href="#f0_k" transform="matrix(12,0,0,12,264.2,558.1)" />
<use xlink:href="#f0_w" transform="matrix(12,0,0,12,270.6,558.1)" />
<use xlink:href="#f0_m" transform="matrix(12,0,0,12,280.5,558.1)" />
<use xlink:href="#f0_7" transform="matrix(12,0,0,12,286.7,558.1)" />
<use xlink:href="#f0_y" transform="matrix(12,0,0,12,295.9,558.1)" />
</g>
</g>
<path fill-rule="evenodd" d="M374,530l154,0l0,45l-154,0l0,-45Z" class="g4_1" />
<g clip-path="url(#c0_1)">
<g fill="#808080" >
<use xlink:href="#f0_11" transform="matrix(12,0,0,12,435,558.1)" />
<use xlink:href="#f0_s" transform="matrix(12,0,0,12,444.3,558.1)" />
<use xlink:href="#f0_14" transform="matrix(12,0,0,12,449.1,558.1)" />
<use xlink:href="#f0_14" transform="matrix(12,0,0,12,458.6,558.1)" />
</g>
</g>
<path fill-rule="evenodd" d="M528,530l154,0l0,45l-154,0l0,-45Z" class="g4_1" />
<g clip-path="url(#c0_1)">
<g fill="#808080" >
<use xlink:href="#f0_11" transform="matrix(12,0,0,12,596.4,558.1)" />
<use xlink:href="#f0_1c" transform="matrix(12,0,0,12,605.7,558.1)" />
</g>
</g>
<path fill-rule="evenodd" d="M682,530l155,0l0,45l-155,0l0,-45Z" class="g4_1" />
<g clip-path="url(#c0_1)">
<g fill="#808080" >
<use xlink:href="#f0_1c" transform="matrix(12,0,0,12,755.3,558.1)" />
</g>
</g>
<path fill-rule="evenodd" d="M837,530l154,0l0,45l-154,0l0,-45Z" class="g4_1" />
<g clip-path="url(#c0_1)">
<g fill="#808080" >
<use xlink:href="#f0_11" transform="matrix(12,0,0,12,897.9,558.1)" />
<use xlink:href="#f0_s" transform="matrix(12,0,0,12,907.2,558.1)" />
<use xlink:href="#f0_1a" transform="matrix(12,0,0,12,912.1,558.1)" />
<use xlink:href="#f0_14" transform="matrix(12,0,0,12,921.5,558.1)" />
</g>
</g>
<path fill-rule="evenodd" d="M991,530l154,0l0,45l-154,0l0,-45Z" class="g4_1" />
<g clip-path="url(#c0_1)">
<g fill="#808080" >
<use xlink:href="#f0_15" transform="matrix(12,0,0,12,1052.2,558.1)" />
<use xlink:href="#f0_s" transform="matrix(12,0,0,12,1061.3,558.1)" />
<use xlink:href="#f0_1a" transform="matrix(12,0,0,12,1066.4,558.1)" />
<use xlink:href="#f0_14" transform="matrix(12,0,0,12,1075.7,558.1)" />
</g>
</g>
<path fill-rule="evenodd" d="M65,575l49,0l0,46l-49,0l0,-46Z" class="g3_1" />
<path fill-rule="evenodd" d="M114,575l260,0l0,46l-260,0l0,-46Z" class="g3_1" />
<g clip-path="url(#c0_1)">
<g fill="#808080" >
<use xlink:href="#f0_o" transform="matrix(12,0,0,12,335.8,603.3)" />
<use xlink:href="#f0_6" transform="matrix(12,0,0,12,343.3,603.3)" />
<use xlink:href="#f0_k" transform="matrix(12,0,0,12,353.2,603.3)" />
<use xlink:href="#f0_i" transform="matrix(12,0,0,12,359.5,603.3)" />
<use xlink:href="#f0_10" transform="matrix(12,0,0,12,368.6,603.3)" />
</g>
</g>
<path fill-rule="evenodd" d="M374,575l154,0l0,46l-154,0l0,-46Z" class="g3_1" />
<g clip-path="url(#c0_1)">
<g fill="#808080" >
<use xlink:href="#f0_11" transform="matrix(12,0,0,12,430.4,603.3)" />
<use xlink:href="#f0_15" transform="matrix(12,0,0,12,439.7,603.3)" />
<use xlink:href="#f0_s" transform="matrix(12,0,0,12,448.8,603.3)" />
<use xlink:href="#f0_14" transform="matrix(12,0,0,12,453.7,603.3)" />
<use xlink:href="#f0_1a" transform="matrix(12,0,0,12,463.2,603.3)" />
</g>
</g>
<path fill-rule="evenodd" d="M528,575l154,0l0,46l-154,0l0,-46Z" class="g3_1" />
<g clip-path="url(#c0_1)">
<g fill="#808080" >
<use xlink:href="#f0_11" transform="matrix(12,0,0,12,591.9,603.3)" />
<use xlink:href="#f0_1a" transform="matrix(12,0,0,12,601.2,603.3)" />
<use xlink:href="#f0_1n" transform="matrix(12,0,0,12,610.5,603.3)" />
</g>
</g>
<path fill-rule="evenodd" d="M682,575l155,0l0,46l-155,0l0,-46Z" class="g3_1" />
<g clip-path="url(#c0_1)">
<g fill="#808080" >
<use xlink:href="#f0_1e" transform="matrix(12,0,0,12,750.9,603.3)" />
<use xlink:href="#f0_1n" transform="matrix(12,0,0,12,760.1,603.3)" />
</g>
</g>
<path fill-rule="evenodd" d="M837,575l154,0l0,46l-154,0l0,-46Z" class="g3_1" />
<g clip-path="url(#c0_1)">
<g fill="#808080" >
<use xlink:href="#f0_15" transform="matrix(12,0,0,12,893.3,603.3)" />
<use xlink:href="#f0_1l" transform="matrix(12,0,0,12,902.5,603.3)" />
<use xlink:href="#f0_s" transform="matrix(12,0,0,12,911.9,603.3)" />
<use xlink:href="#f0_15" transform="matrix(12,0,0,12,916.8,603.3)" />
<use xlink:href="#f0_14" transform="matrix(12,0,0,12,926,603.3)" />
</g>
</g>
<path fill-rule="evenodd" d="M991,575l154,0l0,46l-154,0l0,-46Z" class="g3_1" />
<g clip-path="url(#c0_1)">
<g fill="#808080" >
<use xlink:href="#f0_1e" transform="matrix(12,0,0,12,1047.6,603.3)" />
<use xlink:href="#f0_1a" transform="matrix(12,0,0,12,1056.8,603.3)" />
<use xlink:href="#f0_s" transform="matrix(12,0,0,12,1066.1,603.3)" />
<use xlink:href="#f0_14" transform="matrix(12,0,0,12,1071,603.3)" />
<use xlink:href="#f0_14" transform="matrix(12,0,0,12,1080.4,603.3)" />
</g>
</g>
<path d="M65.5,118.5l0,-108" class="g5_1" />
<path d="M113.5,116.5l0,-105" class="g5_1" />
<path d="M65.5,12.5l49,0" class="g5_1" />
<path d="M113.5,116.5l0,-105" class="g5_1" />
<path d="M373.5,116.5l0,-105" class="g5_1" />
<path d="M113.5,12.5l261,0" class="g5_1" />
<path d="M373.5,116.5l0,-105" class="g5_1" />
<path d="M527.5,116.5l0,-105" class="g5_1" />
<path d="M373.5,12.5l156,0" class="g5_1" />
<path d="M527.5,116.5l0,-105" class="g5_1" />
<path d="M682.5,116.5l0,-105" class="g5_1" />
<path d="M527.5,12.5l156,0" class="g5_1" />
<path d="M682.5,116.5l0,-105" class="g5_1" />
<path d="M836.5,116.5l0,-105" class="g5_1" />
<path d="M682.5,12.5l155,0" class="g5_1" />
<path d="M836.5,116.5l0,-105" class="g5_1" />
<path d="M990.5,118.5l0,-108" class="g5_1" />
<path d="M836.5,12.5l156,0" class="g5_1" />
<path d="M990.5,116.5l0,-105" class="g5_1" />
<path d="M1145.5,118.5l0,-108" class="g5_1" />
<path d="M990.5,12.5l156,0" class="g5_1" />
<path d="M65.5,169.5l0,-54" class="g5_1" />
<path d="M113.5,168.5l0,-52" class="g5_1" />
<path fill-rule="evenodd" d="M114.1,116.9l-0.6,2l-47.2,0l-0.6,-2l0.6,-2l47.2,0l0.6,2Z" class="g1_1" />
<path d="M113.5,168.5l0,-52" class="g5_1" />
<path d="M373.5,168.5l0,-52" class="g5_1" />
<path fill-rule="evenodd" d="M374.3,116.9l-0.8,2l-258.6,0l-0.8,-2l0.8,-2l258.6,0l0.8,2Z" class="g1_1" />
<path d="M373.5,168.5l0,-52" class="g5_1" />
<path d="M527.5,168.5l0,-52" class="g5_1" />
<path fill-rule="evenodd" d="M528.6,116.9l-0.8,2l-152.9,0l-0.6,-2l0.6,-2l152.9,0l0.8,2Z" class="g1_1" />
<path d="M527.5,168.5l0,-52" class="g5_1" />
<path d="M682.5,168.5l0,-52" class="g5_1" />
<path fill-rule="evenodd" d="M682.9,116.9l-0.7,2l-153,0l-0.6,-2l0.6,-2l153,0l0.7,2Z" class="g1_1" />
<path d="M682.5,168.5l0,-52" class="g5_1" />
<path d="M836.5,168.5l0,-52" class="g5_1" />
<path fill-rule="evenodd" d="M837.2,116.9l-0.7,2l-153,0l-0.6,-2l0.6,-2l153,0l0.7,2Z" class="g1_1" />
<path d="M836.5,168.5l0,-52" class="g5_1" />
<path d="M990.5,169.5l0,-54" class="g5_1" />
<path fill-rule="evenodd" d="M991.5,116.9l-0.7,2l-153,0l-0.6,-2l0.6,-2l153,0l0.7,2Z" class="g1_1" />
<path d="M990.5,168.5l0,-52" class="g5_1" />
<path d="M1145.5,169.5l0,-54" class="g5_1" />
<path fill-rule="evenodd" d="M1145.8,116.9l-0.7,2l-153,0l-0.6,-2l0.6,-2l153,0l0.7,2Z" class="g1_1" />
<path d="M65.5,214.5l0,-46" class="g5_1" />
<path d="M113.5,213.5l0,-45" class="g5_1" />
<path d="M65.5,169.5l49,0" class="g5_1" />
<path d="M113.5,213.5l0,-45" class="g5_1" />
<path d="M373.5,213.5l0,-45" class="g5_1" />
<path d="M114.5,169.5l260,0" class="g5_1" />
<path d="M373.5,213.5l0,-45" class="g5_1" />
<path d="M527.5,213.5l0,-45" class="g5_1" />
<path d="M374.5,169.5l154,0" class="g5_1" />
<path d="M527.5,213.5l0,-45" class="g5_1" />
<path d="M682.5,213.5l0,-45" class="g5_1" />
<path d="M528.5,169.5l154,0" class="g5_1" />
<path d="M682.5,213.5l0,-45" class="g5_1" />
<path d="M836.5,213.5l0,-45" class="g5_1" />
<path d="M682.5,169.5l155,0" class="g5_1" />
<path d="M836.5,213.5l0,-45" class="g5_1" />
<path d="M990.5,214.5l0,-46" class="g5_1" />
<path d="M837.5,169.5l154,0" class="g5_1" />
<path d="M990.5,213.5l0,-45" class="g5_1" />
<path d="M1145.5,214.5l0,-46" class="g5_1" />
<path d="M991.5,169.5l154,0" class="g5_1" />
<path d="M65.5,259.5l0,-46" class="g5_1" />
<path d="M113.5,259.5l0,-46" class="g5_1" />
<path d="M65.5,214.5l49,0" class="g5_1" />
<path d="M113.5,259.5l0,-46" class="g5_1" />
<path d="M373.5,259.5l0,-46" class="g5_1" />
<path d="M114.5,214.5l260,0" class="g5_1" />
<path d="M373.5,259.5l0,-46" class="g5_1" />
<path d="M527.5,259.5l0,-46" class="g5_1" />
<path d="M374.5,214.5l154,0" class="g5_1" />
<path d="M527.5,259.5l0,-46" class="g5_1" />
<path d="M682.5,259.5l0,-46" class="g5_1" />
<path d="M528.5,214.5l154,0" class="g5_1" />
<path d="M682.5,259.5l0,-46" class="g5_1" />
<path d="M836.5,259.5l0,-46" class="g5_1" />
<path d="M682.5,214.5l155,0" class="g5_1" />
<path d="M836.5,259.5l0,-46" class="g5_1" />
<path d="M990.5,259.5l0,-46" class="g5_1" />
<path d="M837.5,214.5l154,0" class="g5_1" />
<path d="M990.5,259.5l0,-46" class="g5_1" />
<path d="M1145.5,259.5l0,-46" class="g5_1" />
<path d="M991.5,214.5l154,0" class="g5_1" />
<path d="M65.5,304.5l0,-46" class="g5_1" />
<path d="M113.5,304.5l0,-45" class="g5_1" />
<path d="M65.5,259.5l49,0" class="g5_1" />
<path d="M113.5,304.5l0,-45" class="g5_1" />
<path d="M373.5,304.5l0,-45" class="g5_1" />
<path d="M114.5,259.5l260,0" class="g5_1" />
<path d="M373.5,304.5l0,-45" class="g5_1" />
<path d="M527.5,304.5l0,-45" class="g5_1" />
<path d="M374.5,259.5l154,0" class="g5_1" />
<path d="M527.5,304.5l0,-45" class="g5_1" />
<path d="M682.5,304.5l0,-45" class="g5_1" />
<path d="M528.5,259.5l154,0" class="g5_1" />
<path d="M682.5,304.5l0,-45" class="g5_1" />
<path d="M836.5,304.5l0,-45" class="g5_1" />
<path d="M682.5,259.5l155,0" class="g5_1" />
<path d="M836.5,304.5l0,-45" class="g5_1" />
<path d="M990.5,304.5l0,-46" class="g5_1" />
<path d="M837.5,259.5l154,0" class="g5_1" />
<path d="M990.5,304.5l0,-45" class="g5_1" />
<path d="M1145.5,304.5l0,-46" class="g5_1" />
<path d="M991.5,259.5l154,0" class="g5_1" />
<path d="M65.5,350.5l0,-47" class="g5_1" />
<path d="M113.5,349.5l0,-45" class="g5_1" />
<path d="M65.5,304.5l49,0" class="g5_1" />
<path d="M113.5,349.5l0,-45" class="g5_1" />
<path d="M373.5,349.5l0,-45" class="g5_1" />
<path d="M114.5,304.5l260,0" class="g5_1" />
<path d="M373.5,349.5l0,-45" class="g5_1" />
<path d="M527.5,349.5l0,-45" class="g5_1" />
<path d="M374.5,304.5l154,0" class="g5_1" />
<path d="M527.5,349.5l0,-45" class="g5_1" />
<path d="M682.5,349.5l0,-45" class="g5_1" />
<path d="M528.5,304.5l154,0" class="g5_1" />
<path d="M682.5,349.5l0,-45" class="g5_1" />
<path d="M836.5,349.5l0,-45" class="g5_1" />
<path d="M682.5,304.5l155,0" class="g5_1" />
<path d="M836.5,349.5l0,-45" class="g5_1" />
<path d="M990.5,350.5l0,-47" class="g5_1" />
<path d="M837.5,304.5l154,0" class="g5_1" />
<path d="M990.5,349.5l0,-45" class="g5_1" />
<path d="M1145.5,350.5l0,-47" class="g5_1" />
<path d="M991.5,304.5l154,0" class="g5_1" />
<path d="M65.5,395.5l0,-47" class="g5_1" />
<path d="M113.5,394.5l0,-45" class="g5_1" />
<path d="M65.5,350.5l49,0" class="g5_1" />
<path d="M113.5,394.5l0,-45" class="g5_1" />
<path d="M373.5,394.5l0,-45" class="g5_1" />
<path d="M114.5,350.5l260,0" class="g5_1" />
<path d="M373.5,394.5l0,-45" class="g5_1" />
<path d="M527.5,394.5l0,-45" class="g5_1" />
<path d="M374.5,350.5l154,0" class="g5_1" />
<path d="M527.5,394.5l0,-45" class="g5_1" />
<path d="M682.5,394.5l0,-45" class="g5_1" />
<path d="M528.5,350.5l154,0" class="g5_1" />
<path d="M682.5,394.5l0,-45" class="g5_1" />
<path d="M836.5,394.5l0,-45" class="g5_1" />
<path d="M682.5,350.5l155,0" class="g5_1" />
<path d="M836.5,394.5l0,-45" class="g5_1" />
<path d="M990.5,395.5l0,-47" class="g5_1" />
<path d="M837.5,350.5l154,0" class="g5_1" />
<path d="M990.5,394.5l0,-45" class="g5_1" />
<path d="M1145.5,395.5l0,-47" class="g5_1" />
<path d="M991.5,350.5l154,0" class="g5_1" />
<path d="M65.5,440.5l0,-46" class="g5_1" />
<path d="M113.5,440.5l0,-46" class="g5_1" />
<path d="M65.5,395.5l49,0" class="g5_1" />
<path d="M113.5,440.5l0,-46" class="g5_1" />
<path d="M373.5,440.5l0,-46" class="g5_1" />
<path d="M114.5,395.5l260,0" class="g5_1" />
<path d="M373.5,440.5l0,-46" class="g5_1" />
<path d="M527.5,440.5l0,-46" class="g5_1" />
<path d="M374.5,395.5l154,0" class="g5_1" />
<path d="M527.5,440.5l0,-46" class="g5_1" />
<path d="M682.5,440.5l0,-46" class="g5_1" />
<path d="M528.5,395.5l154,0" class="g5_1" />
<path d="M682.5,440.5l0,-46" class="g5_1" />
<path d="M836.5,440.5l0,-46" class="g5_1" />
<path d="M682.5,395.5l155,0" class="g5_1" />
<path d="M836.5,440.5l0,-46" class="g5_1" />
<path d="M990.5,440.5l0,-46" class="g5_1" />
<path d="M837.5,395.5l154,0" class="g5_1" />
<path d="M990.5,440.5l0,-46" class="g5_1" />
<path d="M1145.5,440.5l0,-46" class="g5_1" />
<path d="M991.5,395.5l154,0" class="g5_1" />
<path d="M65.5,485.5l0,-46" class="g5_1" />
<path d="M113.5,485.5l0,-45" class="g5_1" />
<path d="M65.5,440.5l49,0" class="g5_1" />
<path d="M113.5,485.5l0,-45" class="g5_1" />
<path d="M373.5,485.5l0,-45" class="g5_1" />
<path d="M114.5,440.5l260,0" class="g5_1" />
<path d="M373.5,485.5l0,-45" class="g5_1" />
<path d="M527.5,485.5l0,-45" class="g5_1" />
<path d="M374.5,440.5l154,0" class="g5_1" />
<path d="M527.5,485.5l0,-45" class="g5_1" />
<path d="M682.5,485.5l0,-45" class="g5_1" />
<path d="M528.5,440.5l154,0" class="g5_1" />
<path d="M682.5,485.5l0,-45" class="g5_1" />
<path d="M836.5,485.5l0,-45" class="g5_1" />
<path d="M682.5,440.5l155,0" class="g5_1" />
<path d="M836.5,485.5l0,-45" class="g5_1" />
<path d="M990.5,485.5l0,-46" class="g5_1" />
<path d="M837.5,440.5l154,0" class="g5_1" />
<path d="M990.5,485.5l0,-45" class="g5_1" />
<path d="M1145.5,485.5l0,-46" class="g5_1" />
<path d="M991.5,440.5l154,0" class="g5_1" />
<path d="M65.5,531.5l0,-47" class="g5_1" />
<path d="M113.5,530.5l0,-45" class="g5_1" />
<path d="M65.5,485.5l49,0" class="g5_1" />
<path d="M113.5,530.5l0,-45" class="g5_1" />
<path d="M373.5,530.5l0,-45" class="g5_1" />
<path d="M114.5,485.5l260,0" class="g5_1" />
<path d="M373.5,530.5l0,-45" class="g5_1" />
<path d="M527.5,530.5l0,-45" class="g5_1" />
<path d="M374.5,485.5l154,0" class="g5_1" />
<path d="M527.5,530.5l0,-45" class="g5_1" />
<path d="M682.5,530.5l0,-45" class="g5_1" />
<path d="M528.5,485.5l154,0" class="g5_1" />
<path d="M682.5,530.5l0,-45" class="g5_1" />
<path d="M836.5,530.5l0,-45" class="g5_1" />
<path d="M682.5,485.5l155,0" class="g5_1" />
<path d="M836.5,530.5l0,-45" class="g5_1" />
<path d="M990.5,531.5l0,-47" class="g5_1" />
<path d="M837.5,485.5l154,0" class="g5_1" />
<path d="M990.5,530.5l0,-45" class="g5_1" />
<path d="M1145.5,531.5l0,-47" class="g5_1" />
<path d="M991.5,485.5l154,0" class="g5_1" />
<path d="M65.5,576.5l0,-47" class="g5_1" />
<path d="M113.5,575.5l0,-45" class="g5_1" />
<path d="M65.5,531.5l49,0" class="g5_1" />
<path d="M113.5,575.5l0,-45" class="g5_1" />
<path d="M373.5,575.5l0,-45" class="g5_1" />
<path d="M114.5,531.5l260,0" class="g5_1" />
<path d="M373.5,575.5l0,-45" class="g5_1" />
<path d="M527.5,575.5l0,-45" class="g5_1" />
<path d="M374.5,531.5l154,0" class="g5_1" />
<path d="M527.5,575.5l0,-45" class="g5_1" />
<path d="M682.5,575.5l0,-45" class="g5_1" />
<path d="M528.5,531.5l154,0" class="g5_1" />
<path d="M682.5,575.5l0,-45" class="g5_1" />
<path d="M836.5,575.5l0,-45" class="g5_1" />
<path d="M682.5,531.5l155,0" class="g5_1" />
<path d="M836.5,575.5l0,-45" class="g5_1" />
<path d="M990.5,576.5l0,-47" class="g5_1" />
<path d="M837.5,531.5l154,0" class="g5_1" />
<path d="M990.5,575.5l0,-45" class="g5_1" />
<path d="M1145.5,576.5l0,-47" class="g5_1" />
<path d="M991.5,531.5l154,0" class="g5_1" />
<path d="M65.5,621.5l0,-46" class="g5_1" />
<path d="M65.5,621.5l49,0" class="g5_1" />
<path d="M113.5,621.5l0,-46" class="g5_1" />
<path d="M65.5,576.5l49,0" class="g5_1" />
<path d="M113.5,621.5l0,-46" class="g5_1" />
<path d="M113.5,621.5l261,0" class="g5_1" />
<path d="M373.5,621.5l0,-46" class="g5_1" />
<path d="M114.5,576.5l260,0" class="g5_1" />
<path d="M373.5,621.5l0,-46" class="g5_1" />
<path d="M373.5,621.5l156,0" class="g5_1" />
<path d="M527.5,621.5l0,-46" class="g5_1" />
<path d="M374.5,576.5l154,0" class="g5_1" />
<path d="M527.5,621.5l0,-46" class="g5_1" />
<path d="M527.5,621.5l156,0" class="g5_1" />
<path d="M682.5,621.5l0,-46" class="g5_1" />
<path d="M528.5,576.5l154,0" class="g5_1" />
<path d="M682.5,621.5l0,-46" class="g5_1" />
<path d="M682.5,621.5l155,0" class="g5_1" />
<path d="M836.5,621.5l0,-46" class="g5_1" />
<path d="M682.5,576.5l155,0" class="g5_1" />
<path d="M836.5,621.5l0,-46" class="g5_1" />
<path d="M836.5,621.5l156,0" class="g5_1" />
<path d="M990.5,621.5l0,-46" class="g5_1" />
<path d="M837.5,576.5l154,0" class="g5_1" />
<path d="M990.5,621.5l0,-46" class="g5_1" />
<path d="M990.5,621.5l156,0" class="g5_1" />
<path d="M1145.5,621.5l0,-46" class="g5_1" />
<path d="M991.5,576.5l154,0" class="g5_1" />
<defs>
	<path d="M343.8,-9.1c0,0,-44.4,0,-88.7,7.7c0,0,-44.3,9,-85.5,25.8c0,0,-41.3,16.9,-77.9,41.3c0,0,-36.7,24.4,-64.2,53.5l58.1,93.2c0,0,7.6,10.7,18.3,16.8c0,0,12.2,7.6,24.4,7.6c0,0,18.4,0,36.7,-13.7c0,0,19.9,-13.8,44.3,-30.6c0,0,26,-16.8,59.6,-30.6c0,0,33.6,-13.7,81,-13.7c0,0,65.7,0,102.3,33.6c0,0,38.2,35.1,38.2,102.4c0,0,0,38.2,-18.3,61.1c0,0,-18.3,24.4,-47.4,39.7c0,0,-30.5,16.8,-68.7,27.5c0,0,-38.2,12.2,-77.9,26c0,0,-39.8,13.7,-78,32.1c0,0,-39.7,19.8,-68.7,50.4c0,0,-30.6,32.1,-48.9,77.9c0,0,-18.3,45.8,-18.3,114.6c0,0,0,55,21.4,106.9c0,0,21.3,52,61.1,91.7c0,0,41.2,41.2,99.3,64.2c0,0,58,24.4,134.4,24.4c0,0,84,0,155.9,-27.5c0,0,73.3,-27.5,125.2,-77.9L611.1,803.6c0,0,-7.6,-15.3,-16.8,-21.4c0,0,-10.7,-6.1,-24.4,-6.1c0,0,-15.3,0,-30.6,9.2c0,0,-16.8,10.7,-38.2,22.9c0,0,-22.9,13.7,-51.9,22.9c0,0,-29.1,10.7,-67.3,10.7c0,0,-67.2,0,-100.8,-32.1c0,0,-33.6,-33.6,-33.6,-85.5c0,0,0,-33.6,18.3,-55c0,0,18.4,-22.9,47.4,-38.2c0,0,30.6,-16.8,68.7,-29.1c0,0,38.2,-13.7,78,-27.5c0,0,41.2,-15.2,79.4,-35.1c0,0,38.2,-19.9,68.8,-48.9c0,0,30.5,-30.5,48.8,-73.3c0,0,18.4,-42.8,18.4,-105.4c0,0,0,-67.3,-21.4,-125.3c0,0,-22.9,-59.6,-65.7,-102.4c0,0,-42.8,-44.3,-103.9,-68.7c0,0,-61.1,-24.4,-140.5,-24.4Z" 
	id="f0_2"
	transform="scale(0.001,-0.001)" />

	<path d="M203.2,-9.1c0,0,-24.4,0,-44.3,7.7c0,0,-21.4,7.5,-36.7,21.3c0,0,-15.3,15.2,-22.9,36.6c0,0,-9.2,21.4,-9.2,44.3c0,0,0,24.5,7.7,44.3c0,0,9.1,21.4,24.4,35.2c0,0,15.3,15.3,35.2,24.4c0,0,21.4,9.2,45.8,9.2c0,0,22.9,0,44.3,-9.2c0,0,21.4,-9.1,36.7,-22.9c0,0,15.2,-15.3,24.4,-35.1c0,0,9.2,-21.4,9.2,-45.9c0,0,0,-22.9,-9.2,-44.3c0,0,-9.2,-21.4,-24.4,-35.1c0,0,-15.3,-15.3,-36.7,-22.8c0,0,-21.4,-7.7,-44.3,-7.7Z" 
	id="f0_3"
	transform="scale(0.001,-0.001)" />

	<path d="M90.1,0l0,990l102.4,0c0,0,13.8,0,21.4,-1.5c0,0,9.2,-1.6,16.8,-4.6c0,0,7.6,-3.1,13.7,-9.2c0,0,6.2,-6.1,13.8,-15.3L747.1,316.3c0,0,-4.6,48.8,-4.6,93.1l0,580.6l172.6,0l0,-990L814.3,0c0,0,-22.9,0,-38.2,7.6c0,0,-15.3,7.7,-30.5,24.5L258.2,672.2c0,0,4.6,-45.8,4.6,-85.5L262.8,0Z" 
	id="f0_5"
	transform="scale(0.001,-0.001)" />

	<path d="M411,132.9c0,0,85.5,0,126.8,59.6c0,0,41.2,61.1,41.2,177.2c0,0,0,117.7,-41.2,177.2c0,0,-41.3,59.6,-126.8,59.6c0,0,-87.1,0,-128.4,-59.6c0,0,-41.2,-59.5,-41.2,-177.2c0,0,0,-116.1,41.2,-175.7c0,0,41.3,-61.1,128.4,-61.1Zm0,-143.5c0,0,-82.5,0,-149.7,25.9c0,0,-67.3,26,-114.6,74.8c0,0,-48.9,50.5,-74.9,120.7c0,0,-26,71.8,-26,160.5c0,0,0,87,26,157.3c0,0,26,71.8,73.3,120.7c0,0,48.9,50.4,116.2,76.4c0,0,67.2,26,149.7,26c0,0,80.9,0,148.2,-26c0,0,67.2,-26,114.6,-74.9c0,0,48.8,-50.4,74.8,-120.7c0,0,26,-71.8,26,-158.8c0,0,0,-88.7,-26,-158.9c0,0,-26,-71.8,-73.3,-120.7c0,0,-48.9,-50.4,-116.1,-76.4c0,0,-67.3,-25.9,-148.2,-25.9Z" 
	id="f0_6"
	transform="scale(0.001,-0.001)" />

	<path d="M551.5,455.3c0,0,0,32.1,-7.6,61.1c0,0,-9.2,29,-27.5,51.9c0,0,-18.3,23,-45.8,35.2c0,0,-27.5,13.7,-65.7,13.7c0,0,-71.8,0,-113.1,-41.2c0,0,-41.2,-42.8,-53.5,-120.7ZM411,-10.6c0,0,-77.9,0,-143.6,24.4c0,0,-67.3,24.4,-116.1,74.8c0,0,-48.9,50.4,-76.4,123.8c0,0,-29.1,74.8,-29.1,172.6c0,0,0,76.4,24.5,142.1c0,0,24.4,67.2,70.3,116.1c0,0,47.3,50.4,111.5,79.4c0,0,65.7,29.1,149.7,29.1c0,0,70.3,0,128.3,-22.9c0,0,59.6,-23,100.9,-65.7c0,0,42.8,-42.8,67.2,-105.5c0,0,24.4,-62.6,24.4,-143.6c0,0,0,-21.4,-1.5,-35.1c0,0,-3,-13.8,-7.6,-21.4c0,0,-6.1,-7.6,-13.8,-10.7c0,0,-9.1,-4.6,-21.4,-4.6l-443,0c0,0,4.6,-53.4,18.3,-93.2c0,0,15.3,-39.7,39.7,-64.1c0,0,24.5,-26,58.1,-38.2c0,0,33.6,-12.3,74.9,-12.3c0,0,41.2,0,71.8,9.2c0,0,30.5,10.7,51.9,21.4c0,0,22.9,12.2,41.3,21.4c0,0,18.3,10.7,35.1,10.7c0,0,21.4,0,35.1,-16.8L715,110c0,0,-30.6,-35.1,-67.2,-58.1c0,0,-38.2,-24.4,-77.9,-38.1c0,0,-39.8,-13.8,-81,-18.3c0,0,-41.3,-6.1,-77.9,-6.1Z" 
	id="f0_7"
	transform="scale(0.001,-0.001)" />

	<path d="M348.3,-10.6c0,0,-62.6,0,-117.6,24.4c0,0,-56.5,25.9,-97.8,74.8c0,0,-42.8,48.9,-67.2,120.7c0,0,-26,71.8,-26,162c0,0,0,80.9,21.4,149.7c0,0,22.9,70.3,64.2,120.7c0,0,42.8,51.9,103.9,80.9c0,0,62.6,29.1,145.1,29.1c0,0,77.9,0,136,-26c0,0,59.6,-27.5,106.9,-79.4L566.8,577.5c0,0,-7.6,-9.2,-15.3,-15.3c0,0,-9.1,-7.6,-24.4,-7.6c0,0,-13.8,0,-26,7.6c0,0,-12.2,9.2,-27.5,18.4c0,0,-15.3,10.7,-35.1,18.3c0,0,-21.4,9.2,-52,9.2c0,0,-38.2,0,-67.2,-16.8c0,0,-29,-16.9,-47.4,-47.4c0,0,-18.3,-30.6,-27.5,-73.3c0,0,-10.6,-44.3,-10.6,-99.3c0,0,0,-116.2,39.7,-177.3c0,0,39.7,-62.6,108.4,-62.6c0,0,36.7,0,58.1,10.7c0,0,22.9,10.7,36.7,22.9c0,0,15.2,12.2,27.5,21.4c0,0,12.2,10.7,30.5,10.7c0,0,21.4,0,33.6,-16.8l55,-70.3c0,0,-30.5,-35.1,-64.1,-58.1c0,0,-33.6,-24.4,-68.8,-38.1c0,0,-35.1,-13.8,-71.8,-18.3c0,0,-36.7,-6.1,-70.3,-6.1Z" 
	id="f0_8"
	transform="scale(0.001,-0.001)" />

	<path d="M313.2,-10.6c0,0,-47.4,0,-84,13.7c0,0,-38.2,13.7,-62.7,39.7c0,0,-25.9,27.5,-38.2,65.7c0,0,-13.7,39.7,-13.7,87.1l0,404.8l-65.7,0c0,0,-15.3,0,-26,9.2c0,0,-10.7,10.7,-10.7,30.5l0,74.9l113.1,21.4l38.2,195.5c0,0,7.6,30.6,42.8,30.6l97.7,0l0,-227.6l499.6,0L803.6,0L614.2,0l0,600.4l-310.2,0l0,-391.1c0,0,0,-33.6,13.8,-51.9c0,0,13.7,-18.4,39.7,-18.4c0,0,13.8,0,22.9,3.1c0,0,9.2,4.6,15.3,9.2c0,0,7.6,4.5,12.2,7.6c0,0,6.1,3,13.8,3c0,0,7.6,0,12.2,-3c0,0,6.1,-4.6,12.2,-13.8L504.2,53.5c0,0,-39.8,-32.1,-88.6,-47.4c0,0,-48.9,-16.7,-102.4,-16.7ZM713.5,837.2c0,0,-22.9,0,-44.3,9.2c0,0,-21.4,9.2,-36.7,24.4c0,0,-16.8,16.8,-26,38.2c0,0,-9.1,21.4,-9.1,45.9c0,0,0,24.4,9.1,45.8c0,0,9.2,21.4,24.5,36.7c0,0,16.8,16.8,38.2,25.9c0,0,21.4,10.7,44.3,10.7c0,0,24.4,0,47.3,-9.1c0,0,23,-10.7,38.2,-26c0,0,16.8,-16.8,26,-38.2c0,0,10.7,-21.4,10.7,-45.8c0,0,0,-24.5,-9.2,-45.9c0,0,-10.7,-21.4,-25.9,-36.6c0,0,-16.8,-16.8,-39.8,-26c0,0,-22.9,-9.2,-47.3,-9.2Z" 
	id="f0_9"
	transform="scale(0.001,-0.001)" />

	<path d="M91.7,0l0,739.4l116.1,0c0,0,18.3,0,30.5,-7.6c0,0,12.3,-7.6,15.3,-26l13.8,-53.4c0,0,21.4,21.4,45.8,39.7c0,0,24.4,18.3,51.9,30.5c0,0,27.5,13.8,58.1,21.4c0,0,30.6,7.7,68.7,7.7c0,0,59.6,0,105.5,-19.9c0,0,47.3,-21.4,77.9,-58c0,0,32.1,-38.2,47.3,-90.2c0,0,16.8,-51.9,16.8,-113L739.4,0L550,0l0,470.6c0,0,0,64.1,-29,97.7c0,0,-29.1,35.2,-87.1,35.2c0,0,-44.3,0,-81,-18.4c0,0,-38.2,-18.3,-71.8,-51.9L281.1,0Z" 
	id="f0_d"
	transform="scale(0.001,-0.001)" />

	<path d="M362.1,0L0,990l157.4,0c0,0,25.9,0,41.2,-12.2c0,0,16.8,-12.2,24.5,-30.6L409.4,362.1c0,0,10.7,-30.6,21.4,-65.7c0,0,12.3,-36.7,21.4,-74.9c0,0,9.2,38.2,18.4,74.9c0,0,10.7,36.7,22.9,67.2L678.3,947.2c0,0,6.1,16.8,23,29.1c0,0,18.3,13.7,42.7,13.7l157.4,0L539.3,0Z" 
	id="f0_e"
	transform="scale(0.001,-0.001)" />

	<path d="M93.2,0l0,739.4l189.4,0L282.6,0Zm90.1,834.2c0,0,-24.4,0,-44.3,9.1c0,0,-21.4,10.7,-36.6,26c0,0,-16.8,16.8,-26,36.7c0,0,-10.7,21.4,-10.7,47.3c0,0,0,24.5,9.2,45.9c0,0,10.7,21.4,25.9,36.6c0,0,16.8,16.8,36.7,26c0,0,21.4,9.2,45.8,9.2c0,0,24.5,0,47.4,-9.2c0,0,22.9,-9.2,38.2,-24.4c0,0,16.8,-16.8,26,-38.2c0,0,10.7,-21.4,10.7,-45.9c0,0,0,-25.9,-9.2,-45.8c0,0,-10.7,-21.4,-26,-36.7c0,0,-16.8,-16.8,-39.7,-25.9c0,0,-22.9,-10.7,-47.4,-10.7Z" 
	id="f0_f"
	transform="scale(0.001,-0.001)" />

	<path d="M380.4,137.5c0,0,26,0,47.4,6.1c0,0,22.9,6.1,41.2,15.3c0,0,18.4,10.7,35.2,26c0,0,16.8,15.2,33.6,36.6l0,325.4c0,0,-29,36.7,-61.1,50.5c0,0,-33.6,13.7,-71.8,13.7c0,0,-36.7,0,-67.3,-13.7c0,0,-30.5,-15.3,-51.9,-44.3c0,0,-21.4,-30.6,-32.1,-76.4c0,0,-12.2,-45.9,-12.2,-108.5c0,0,0,-64.2,9.2,-106.9c0,0,10.7,-44.4,27.5,-71.9c0,0,18.3,-27.5,44.3,-39.7c0,0,25.9,-12.2,58,-12.2ZM314.7,-10.6c0,0,-59.6,0,-108.4,24.4c0,0,-48.9,24.4,-84.1,73.3c0,0,-36.6,48.9,-56.5,119.2c0,0,-19.9,70.2,-19.9,161.9c0,0,0,82.5,23,152.8c0,0,22.9,70.3,62.6,122.2c0,0,41.2,51.9,99.3,81c0,0,58.1,30.5,128.3,30.5c0,0,59.6,0,102.4,-18.3c0,0,42.8,-18.3,76.4,-50.4l0,385l189.4,0L727.2,0L609.6,0c0,0,-16.8,0,-29,7.6c0,0,-12.3,9.2,-16.8,26L546.9,99.3c0,0,-42.7,-48.9,-99.3,-79.4c0,0,-58,-30.5,-132.9,-30.5Z" 
	id="f0_h"
	transform="scale(0.001,-0.001)" />

	<path d="M328.5,117.6c0,0,50.4,0,87.1,18.4c0,0,36.6,18.3,73.3,55l0,120.7c0,0,-73.3,-3.1,-122.2,-12.3c0,0,-48.9,-10.6,-77.9,-24.4c0,0,-29.1,-15.3,-41.3,-33.6c0,0,-12.2,-19.9,-12.2,-42.8c0,0,0,-44.3,24.4,-62.6c0,0,26,-18.4,68.8,-18.4ZM268.9,-10.6c0,0,-47.4,0,-87.1,12.1c0,0,-39.7,12.3,-67.2,36.7c0,0,-29,26,-44.3,64.2c0,0,-16.8,38.2,-16.8,87c0,0,0,41.3,19.8,82.5c0,0,21.4,41.3,71.8,73.4c0,0,50.5,33.6,134.5,55c0,0,84,22.9,209.3,26l0,39.7c0,0,0,71.8,-29,103.9c0,0,-30.6,33.6,-85.6,33.6c0,0,-42.8,0,-68.7,-9.2c0,0,-27.5,-9.2,-48.9,-19.9c0,0,-21.4,-12.2,-38.2,-21.3c0,0,-18.4,-10.7,-41.3,-10.7c0,0,-18.3,0,-32.1,9.1c0,0,-15.2,10.7,-22.9,24.5L88.6,635.6c0,0,64.2,61.1,140.6,90.1c0,0,77.9,29,168,29c0,0,65.7,0,116.1,-21.4c0,0,52,-21.4,87.1,-59.5c0,0,36.7,-38.2,55,-91.7c0,0,18.4,-53.5,18.4,-116.1l0,-466L588.2,0c0,0,-27.5,0,-41.3,7.6c0,0,-13.7,7.7,-22.9,30.6L508.8,88.6c0,0,-29.1,-26,-55,-44.3c0,0,-26,-18.3,-53.5,-30.5c0,0,-29,-13.8,-59.6,-18.3c0,0,-32.1,-6.1,-71.8,-6.1Z" 
	id="f0_i"
	transform="scale(0.001,-0.001)" />

	<path d="M466,-9.1c0,0,-100.9,0,-181.8,36.6c0,0,-81,36.7,-136,103.9c0,0,-56.5,67.2,-87.1,160.4c0,0,-30.5,93.2,-30.5,203.2c0,0,0,111.5,32,204.7c0,0,32.1,93.2,91.7,158.9c0,0,59.6,67.2,140.6,103.9c0,0,82.5,38.2,181.8,38.2c0,0,99.3,0,175.7,-35.1c0,0,77.9,-35.2,128.3,-93.2L715,780.7c0,0,-6.1,-9.2,-13.7,-15.3c0,0,-9.2,-6.1,-26,-6.1c0,0,-15.3,0,-29,10.7c0,0,-15.3,12.2,-36.7,26c0,0,-21.4,15.3,-53.5,25.9c0,0,-32.1,12.3,-81,12.3c0,0,-55,0,-99.3,-21.4c0,0,-45.8,-22.9,-77.9,-67.2c0,0,-32.1,-44.3,-48.9,-107c0,0,-18.3,-62.6,-18.3,-143.6c0,0,0,-81,19.9,-143.6c0,0,19.8,-64.2,51.9,-107c0,0,33.6,-44.3,77.9,-67.2c0,0,45.9,-22.9,96.3,-22.9c0,0,32.1,0,56.5,3.1c0,0,24.4,3,45.8,12.2c0,0,21.4,9.2,39.8,21.4c0,0,18.3,13.7,36.6,33.6c0,0,7.7,6.1,15.3,10.7c0,0,7.6,4.6,16.8,4.6c0,0,15.3,0,26,-12.3l79.4,-84c0,0,-55,-76.4,-136,-114.6C656.9,29,576,-9.1,466,-9.1Z" 
	id="f0_j"
	transform="scale(0.001,-0.001)" />

	<path d="M316.3,-10.6c0,0,-96.3,0,-148.2,54.9c0,0,-52,55,-52,151.3l0,404.8l-67.2,0c0,0,-15.3,0,-24.5,9.2c0,0,-10.6,10.7,-10.6,30.5l0,74.9l113,21.4L165,931.9c0,0,7.6,30.6,42.8,30.6l97.8,0l0,-227.6l183.3,0l0,-134.5l-183.3,0l0,-391.1c0,0,0,-33.6,13.7,-51.9c0,0,15.3,-18.4,41.3,-18.4c0,0,13.7,0,22.9,3.1c0,0,9.1,4.6,15.3,9.2c0,0,7.6,4.5,12.2,7.6c0,0,6.1,3,13.7,3c0,0,7.7,0,12.2,-3c0,0,6.2,-4.6,12.3,-13.8l58,-91.6c0,0,-39.7,-32.1,-88.6,-47.4c0,0,-50.4,-16.7,-102.3,-16.7Z" 
	id="f0_k"
	transform="scale(0.001,-0.001)" />

	<path d="M79,0l0,990l197,0l0,-830l344,0L620,0Z" 
	id="f0_l"
	transform="scale(0.001,-0.001)" />

	<path d="M81,0l0,739.4l111.5,0c0,0,29,0,39.7,-9.1c0,0,12.2,-10.7,16.8,-36.7l9.2,-76.4c0,0,33.6,64.2,77.9,100.9c0,0,44.3,36.6,103.9,36.6c0,0,48.9,0,79.4,-22.9L505.7,589.7c0,0,-1.5,-13.7,-9.2,-18.3c0,0,-7.6,-6.1,-19.8,-6.1c0,0,-10.7,0,-32.1,3c0,0,-21.4,3.1,-38.2,3.1c0,0,-26,0,-45.8,-7.6c0,0,-21.4,-7.7,-36.7,-21.4c0,0,-16.8,-15.3,-29,-35.2c0,0,-13.8,-21.4,-24.5,-48.9L270.4,0Z" 
	id="f0_m"
	transform="scale(0.001,-0.001)" />

	<path d="M352.9,-123.7c0,0,47.4,0,77.9,6.2c0,0,32.1,7.6,52,19.8c0,0,19.8,12.2,27.5,29c0,0,9.1,18.4,9.1,38.2c0,0,0,19.9,-10.6,32c0,0,-10.7,12.3,-30.6,18.4c0,0,-19.9,7.6,-45.8,10.7c0,0,-26,3,-55,4.5c0,0,-29.1,3.1,-61.1,4.6c0,0,-32.1,1.6,-62.7,4.6c0,0,-24.4,-15.3,-39.7,-35.1c0,0,-15.3,-19.8,-15.3,-47.3c0,0,0,-19.9,7.7,-35.1c0,0,7.6,-15.3,25.9,-26c0,0,18.4,-12.2,47.4,-18.3c0,0,30.5,-6.2,73.3,-6.2Zm-9.1,517.9c0,0,56.5,0,84,30.5c0,0,27.5,32.1,27.5,84.1c0,0,0,51.9,-27.5,82.5c0,0,-27.5,30.5,-84,30.5c0,0,-58.1,0,-84.1,-30.5c0,0,-27.5,-30.6,-27.5,-82.5c0,0,0,-50.5,26,-82.5c0,0,27.5,-32.1,85.6,-32.1Zm6.1,-652.3c0,0,-81,0,-140.6,16.8c0,0,-59.6,16.8,-97.8,42.8c0,0,-39.7,27.5,-58,62.6c0,0,-19.9,35.2,-19.9,73.4c0,0,0,50.4,29,83.9c0,0,29.1,33.6,78,55c0,0,-26,15.3,-41.3,41.2c0,0,-16.8,26,-16.8,65.7c0,0,0,16.8,6.1,33.6c0,0,6.1,18.4,16.8,35.2c0,0,12.2,18.3,29,33.6c0,0,18.4,15.3,41.3,29c0,0,-53.5,30.6,-84,79.5c0,0,-30.6,50.4,-30.6,119.1c0,0,0,55,21.4,99.3c0,0,21.4,44.3,58.1,74.9c0,0,38.2,32.1,90.1,48.9c0,0,51.9,16.8,113.1,16.8c0,0,44.3,0,84,-9.2c0,0,39.7,-10.7,73.3,-29l206.3,0l0,-70.3c0,0,0,-16.8,-9.2,-25.9c0,0,-9.2,-10.7,-30.6,-15.3L608.1,592.8c0,0,13.7,-38.2,13.7,-79.5c0,0,0,-55,-21.4,-99.3c0,0,-21.4,-44.3,-58,-74.8c0,0,-38.2,-32.1,-88.6,-48.9c0,0,-52,-16.8,-110,-16.8c0,0,-18.4,0,-35.2,1.5c0,0,-18.3,1.5,-35.1,4.6c0,0,-27.5,-18.3,-27.5,-42.8c0,0,0,-21.4,19.8,-30.5c0,0,19.9,-10.7,50.5,-13.8c0,0,32,-4.6,71.8,-4.6c0,0,39.7,-1.5,80.9,-4.6c0,0,42.8,-4.5,82.5,-13.7c0,0,41.3,-9.2,71.8,-29c0,0,32.1,-19.9,52,-53.5c0,0,19.8,-33.6,19.8,-87.1c0,0,0,-47.3,-22.9,-93.1c0,0,-24.4,-47.4,-67.2,-84c0,0,-44.3,-36.7,-108.5,-58.1c0,0,-64.1,-22.9,-146.6,-22.9Z" 
	id="f0_n"
	transform="scale(0.001,-0.001)" />

	<path d="M279,0l0,829L12,829l0,161l730,0l0,-161l-267,0L475,0Z" 
	id="f0_o"
	transform="scale(0.001,-0.001)" />

	<path d="M94.7,0l0,739.4l116.1,0c0,0,18.4,0,30.6,-7.6c0,0,12.2,-7.6,15.3,-26l13.7,-51.9c0,0,19.9,21.4,41.3,38.2c0,0,21.4,18.3,45.8,30.5c0,0,24.4,13.8,51.9,21.4c0,0,29.1,7.7,62.7,7.7c0,0,70.3,0,116.1,-36.7c0,0,45.8,-38.2,68.7,-100.8c0,0,16.9,36.6,42.8,62.6c0,0,27.5,26,59.6,42.8c0,0,32.1,16.8,67.2,24.4c0,0,35.2,7.7,71.8,7.7c0,0,62.7,0,111.6,-18.4c0,0,48.9,-19.8,80.9,-55c0,0,33.6,-36.6,50.5,-88.6c0,0,18.3,-51.9,18.3,-119.1L1159.6,0L970.1,0l0,470.6c0,0,0,132.9,-119.1,132.9c0,0,-27.5,0,-50.4,-7.7c0,0,-23,-9.1,-39.8,-25.9c0,0,-18.3,-16.8,-27.5,-41.3c0,0,-10.7,-24.4,-10.7,-58L722.6,0L533.2,0l0,470.6c0,0,0,71.8,-29,102.3c0,0,-30.6,30.6,-88.6,30.6c0,0,-36.7,0,-68.8,-16.8c0,0,-33.6,-16.8,-62.6,-47.4L284.2,0Z" 
	id="f0_p"
	transform="scale(0.001,-0.001)" />

	<path d="M290.3,-230.6c0,0,-53.5,82.5,-90.2,163.5c0,0,-38.2,82.4,-61.1,167.9c0,0,-24.4,85.6,-35.1,171.1c0,0,-10.7,87.1,-10.7,178.8c0,0,0,90.1,10.7,177.2c0,0,10.7,88.6,33.6,172.7c0,0,24.4,85.5,61.1,168c0,0,38.2,82.5,91.7,165l85.5,-51.9c0,0,6.1,-4.6,12.3,-10.7c0,0,7.6,-6.1,10.7,-15.3c0,0,4.5,-9.2,3,-19.9c0,0,-1.5,-12.2,-10.7,-27.5c0,0,-64.2,-125.2,-99.3,-267.3c0,0,-35.1,-143.6,-35.1,-290.3c0,0,0,-146.7,35.1,-288.8c0,0,35.1,-143.6,99.3,-267.2c0,0,9.2,-15.3,10.7,-26c0,0,1.5,-12.2,-1.5,-21.4c0,0,-4.6,-9.1,-10.7,-15.3c0,0,-7.7,-6.1,-13.8,-12.2l-85.5,-50.4Z" 
	id="f0_q"
	transform="scale(0.001,-0.001)" />

	<path d="M93.2,0l0,1071l189.4,0l0,-404.9c0,0,41.3,38.2,90.2,61.1c0,0,50.4,24.5,119.1,24.5c0,0,61.2,0,107,-19.9c0,0,45.8,-21.4,76.4,-58c0,0,32.1,-38.2,47.3,-90.2c0,0,16.8,-51.9,16.8,-113L739.4,0L550,0l0,470.6c0,0,0,64.1,-29,97.7c0,0,-29.1,35.2,-87.1,35.2c0,0,-42.8,0,-79.5,-18.4c0,0,-38.1,-18.3,-71.8,-51.9L282.6,0Z" 
	id="f0_r"
	transform="scale(0.001,-0.001)" />

	<path d="M210.8,-9.1c0,0,-24.4,0,-44.3,7.7c0,0,-21.4,7.5,-36.6,21.3c0,0,-15.3,15.2,-24.5,36.6c0,0,-9.1,21.4,-9.1,44.3c0,0,0,24.5,9.1,44.3c0,0,9.2,21.4,24.5,35.2c0,0,15.2,15.3,35.1,24.4c0,0,21.4,9.2,45.8,9.2c0,0,23,0,44.3,-9.2c0,0,21.4,-9.1,36.7,-22.9c0,0,15.3,-15.3,22.9,-35.1c0,0,9.2,-21.4,9.2,-45.9c0,0,0,-22.9,-7.6,-44.3c0,0,-9.2,-21.4,-24.5,-35.1c0,0,-15.3,-15.3,-36.7,-22.8c0,0,-21.3,-7.7,-44.3,-7.7Zm0,504.1c0,0,-24.4,0,-44.3,7.6c0,0,-21.4,9.2,-36.6,23c0,0,-15.3,15.2,-24.5,36.6c0,0,-9.1,21.4,-9.1,44.3c0,0,0,24.5,9.1,44.3c0,0,9.2,21.4,24.5,35.2c0,0,15.2,15.3,35.1,24.4c0,0,21.4,9.2,45.8,9.2c0,0,23,0,44.3,-9.2c0,0,21.4,-9.1,36.7,-22.9c0,0,15.3,-15.3,22.9,-35.1c0,0,9.2,-21.4,9.2,-45.9c0,0,0,-22.9,-7.6,-44.3c0,0,-9.2,-21.4,-24.5,-35.1c0,0,-15.3,-15.3,-36.7,-22.9c0,0,-21.3,-9.2,-44.3,-9.2Z" 
	id="f0_s"
	transform="scale(0.001,-0.001)" />

	<path d="M183.3,-230.6l-84,50.4c0,0,-7.6,6.1,-13.7,12.2c0,0,-7.7,6.2,-10.7,15.3c0,0,-3.1,9.2,-1.6,19.9c0,0,1.6,12.2,9.2,27.5c0,0,64.2,123.6,99.3,265.7c0,0,36.7,143.6,36.7,290.3c0,0,0,146.7,-35.2,288.7c0,0,-36.6,143.7,-100.8,268.9c0,0,-7.6,15.3,-9.2,26c0,0,-1.5,12.2,1.6,21.4c0,0,3,9.2,9.1,15.3c0,0,7.7,6.1,15.3,10.7l84,51.9c0,0,53.5,-82.5,90.2,-165c0,0,38.2,-82.5,61.1,-166.5c0,0,24.4,-85.6,35.1,-172.7c0,0,12.2,-88.6,12.2,-178.7c0,0,0,-91.7,-10.6,-177.2c0,0,-12.3,-87.1,-35.2,-172.7c0,0,-24.4,-85.5,-61.1,-166.4c0,0,-38.2,-82.5,-91.7,-165Z" 
	id="f0_t"
	transform="scale(0.001,-0.001)" />

	<path d="M116.1,0l0,600.4L62.6,611.1c0,0,-21.3,3.1,-35.1,13.8c0,0,-13.7,12.2,-13.7,33.6l0,76.4l102.3,0l0,51.9c0,0,0,62.6,18.3,113.1c0,0,18.4,51.9,53.5,87c0,0,35.2,35.2,84,53.5c0,0,50.5,19.9,114.6,19.9c0,0,24.5,0,45.9,-3.1c0,0,21.4,-3,44.3,-9.1l-3.1,-94.8c0,0,-1.5,-22.9,-18.3,-27.5c0,0,-16.8,-6.1,-36.7,-6.1c0,0,-29,0,-50.4,-6.1c0,0,-22.9,-7.6,-38.2,-22.9c0,0,-15.3,-16.8,-22.9,-42.8c0,0,-7.7,-27.5,-7.7,-67.2l0,-45.8l171.2,0l0,-134.5l-165,0L305.6,0Z" 
	id="f0_u"
	transform="scale(0.001,-0.001)" />

	<path d="M524,155.8c0,0,65.7,0,117.7,23c0,0,51.9,22.9,87.1,65.6c0,0,36.6,44.4,56.5,107c0,0,19.8,64.2,19.8,143.6c0,0,0,79.4,-19.8,142.1c0,0,-19.9,62.6,-55,106.9c0,0,-36.7,44.3,-88.6,67.3c0,0,-52,22.9,-117.7,22.9c0,0,-65.7,0,-117.6,-22.9c0,0,-52,-23,-87.1,-67.3c0,0,-36.7,-44.3,-56.5,-106.9c0,0,-19.9,-62.7,-19.9,-142.1c0,0,0,-79.4,19.9,-142.1c0,0,19.8,-64.1,55,-106.9c0,0,36.6,-44.3,88.6,-67.2c0,0,51.9,-23,117.6,-23ZM925.8,-190.9c0,0,-35.1,0,-61.1,9.2c0,0,-27.5,9.2,-51.9,35.1L675.3,10.7c0,0,-71.8,-19.8,-151.3,-19.8c0,0,-108.4,0,-197.1,36.6c0,0,-88.6,36.7,-151.2,103.9c0,0,-64.2,68.7,-97.8,161.9c0,0,-35.1,93.2,-35.1,201.7c0,0,0,108.5,33.6,201.7c0,0,35.1,93.2,97.8,160.4c0,0,64.1,67.2,152.7,105.4c0,0,88.7,38.2,197.1,38.2c0,0,108.5,0,197.1,-38.2c0,0,88.6,-38.2,151.3,-105.4c0,0,64.1,-68.8,97.7,-160.4c0,0,35.2,-93.2,35.2,-201.7c0,0,0,-125.3,-44.3,-227.6c0,0,-45.9,-103.9,-128.4,-172.7l255.2,-285.6Z" 
	id="f0_v"
	transform="scale(0.001,-0.001)" />

	<path d="M326.9,-10.6c0,0,-61.1,0,-106.9,19.8c0,0,-45.8,21.4,-76.4,58c0,0,-32.1,36.7,-47.3,88.6c0,0,-16.9,52,-16.9,113.1l0,470.5l189.5,0l0,-470.5c0,0,0,-64.2,29,-99.3c0,0,29,-35.2,87.1,-35.2c0,0,42.8,0,81,18.4c0,0,38.2,19.8,71.8,53.5l0,533.1l189.4,0L727.2,0L609.6,0c0,0,-16.8,0,-29,7.6c0,0,-12.3,9.2,-16.8,26L550,87.1c0,0,-42.8,-44.3,-96.2,-70.3c0,0,-53.5,-27.4,-126.9,-27.4Z" 
	id="f0_w"
	transform="scale(0.001,-0.001)" />

	<path d="M39.7,0l0,77.9c0,0,0,12.2,6.1,30.6c0,0,6.1,18.3,18.4,33.6L351.4,595.8l-293.3,0l0,143.6l508.7,0l0,-76.3c0,0,0,-21.4,-6.1,-39.8c0,0,-7.6,-19.8,-16.8,-32L256.7,143.6l304,0L560.7,0Z" 
	id="f0_x"
	transform="scale(0.001,-0.001)" />

	<path d="M284.2,-10.6c0,0,-36.7,0,-71.8,6.1c0,0,-35.2,6,-67.3,18.3c0,0,-32,12.2,-59.5,29c0,0,-27.5,16.8,-48.9,35.1L81,149.7c0,0,9.1,12.2,19.8,19.9c0,0,10.7,7.6,29.1,7.6c0,0,16.8,0,30.5,-9.1c0,0,15.3,-9.2,32.1,-19.9c0,0,16.8,-10.7,39.7,-18.3c0,0,24.5,-9.2,61.1,-9.2c0,0,26,0,44.3,6.1c0,0,19.9,6.1,30.6,18.3c0,0,12.2,12.3,18.3,26c0,0,6.1,15.3,6.1,30.6c0,0,0,33.6,-24.4,51.9c0,0,-24.4,18.3,-61.1,30.6c0,0,-38.2,13.7,-81,27.5c0,0,-42.8,15.2,-79.4,39.7c0,0,-38.2,24.4,-62.7,64.2c0,0,-24.4,41.2,-24.4,106.9c0,0,0,47.4,16.8,88.6c0,0,16.8,41.3,50.4,71.8c0,0,33.6,32.1,84,50.4c0,0,50.5,18.4,117.7,18.4c0,0,36.6,0,70.3,-6.1c0,0,35.1,-7.7,65.6,-19.9c0,0,30.6,-12.2,55,-29c0,0,24.5,-16.8,44.4,-36.7L521,591.3c0,0,-7.7,-13.8,-15.3,-18.4c0,0,-9.2,-4.6,-21.4,-4.6c0,0,-13.7,0,-27.5,6.1c0,0,-15.3,7.7,-32.1,16.9c0,0,-18.3,9.1,-39.7,15.2c0,0,-22.9,7.7,-51.9,7.7c0,0,-45.9,0,-70.3,-19.9c0,0,-24.5,-21.4,-24.5,-55c0,0,0,-24.4,13.8,-39.7c0,0,15.3,-15.3,38.2,-26c0,0,24.4,-12.2,53.5,-21.4c0,0,29,-9.1,59.5,-19.8c0,0,32.1,-12.3,61.1,-27.5c0,0,30.6,-15.3,53.5,-36.7c0,0,22.9,-22.9,36.7,-55c0,0,15.3,-32.1,15.3,-77.9c0,0,0,-53.5,-18.4,-97.8c0,0,-18.3,-45.8,-55,-77.9c0,0,-36.6,-33.6,-90.1,-52c0,0,-53.5,-18.2,-122.2,-18.2Z" 
	id="f0_y"
	transform="scale(0.001,-0.001)" />

	<path d="M601.9,374.3L501.1,687.5c0,0,-9.2,22.9,-18.3,53.5c0,0,-10.7,32.1,-19.9,68.7c0,0,-9.1,-36.6,-18.3,-67.2c0,0,-10.7,-32.1,-18.3,-55L325.4,374.3ZM1.5,0L363.6,990l200.2,0L924.3,0L773.1,0c0,0,-26,0,-41.3,12.2c0,0,-15.3,12.2,-22.9,30.6l-62.6,194l-365.2,0L220,42.8c0,0,-6.1,-15.3,-22.9,-29C197.1,13.8,180.3,0,155.8,0Z" 
	id="f0_z"
	transform="scale(0.001,-0.001)" />

	<path d="M93,0l0,1070l189,0L282,0Z" 
	id="f0_10"
	transform="scale(0.001,-0.001)" />

	<path d="M175.7,0l0,132.9l191,0l0,556.1c0,0,0,33.6,3,71.8L239.9,649.3c0,0,-12.3,-10.7,-24.5,-12.2c0,0,-8.8,-2,-17.8,-2c-2.2,0,-4.5,0.2,-6.6,0.5c0,0,-10.7,3,-19.9,7.6c0,0,-9.2,6.1,-12.2,12.2l-58.1,77.9l298,258.2l148.1,0l0,-858.6l169.6,0L716.5,0Z" 
	id="f0_11"
	transform="scale(0.001,-0.001)" />

	<path d="M103,0l0,990l197,0L300,0Z" 
	id="f0_12"
	transform="scale(0.001,-0.001)" />

	<path d="M403.3,495c0,0,90.2,0,131.4,47.4c0,0,41.3,47.3,41.3,129.8c0,0,0,76.4,-41.3,120.7c0,0,-42.8,45.9,-131.4,45.9l-122.2,0l0,-343.8ZM85.6,0l0,990l317.7,0c0,0,96.3,0,165,-22.9c0,0,70.3,-24.5,116.1,-65.7c0,0,45.9,-42.8,67.3,-100.8c0,0,21.4,-59.6,21.4,-128.4c0,0,0,-73.3,-23,-132.9c0,0,-22.9,-61.1,-68.7,-103.9c0,0,-45.8,-44.3,-114.6,-67.2c0,0,-70.3,-24.4,-163.5,-24.4l-122.2,0L281.1,0Z" 
	id="f0_13"
	transform="scale(0.001,-0.001)" />

	<path d="M385,137.5c0,0,32.1,0,62.6,15.3c0,0,32.1,16.8,55,56.5c0,0,24.5,41.3,38.2,110c0,0,15.3,68.8,15.3,175.7c0,0,0,106.9,-13.7,175.7c0,0,-15.3,68.7,-38.2,108.5c0,0,-24.5,41.2,-55,56.5c0,0,-32.1,16.8,-64.2,16.8c0,0,-33.6,0,-62.6,-15.3c0,0,-30.6,-16.8,-53.5,-56.5c0,0,-24.5,-41.3,-38.2,-110c0,0,-13.8,-68.8,-13.8,-175.7c0,0,0,-106.9,13.8,-175.7c0,0,13.7,-68.7,36.7,-108.5c0,0,24.4,-41.2,53.4,-56.5c0,0,30.6,-16.8,64.2,-16.8ZM385,-9.1c0,0,-76.4,0,-140.6,29c0,0,-64.1,29,-111.5,91.6c0,0,-48.9,62.7,-74.8,157.4c0,0,-27.5,96.2,-27.5,226.1c0,0,0,129.9,25.9,224.6c0,0,27.5,96.2,74.9,157.3c0,0,48.9,62.7,113,93.2c0,0,64.2,30.6,140.6,30.6c0,0,76.4,0,140.6,-30.6c0,0,65.7,-30.5,113,-91.6c0,0,48.9,-62.7,76.4,-157.4c0,0,27.5,-96.2,27.5,-226.1c0,0,0,-129.9,-27.5,-224.6c0,0,-27.5,-96.2,-74.9,-158.9c0,0,-48.8,-62.6,-113,-91.6c0,0,-65.7,-29,-142.1,-29Z" 
	id="f0_14"
	transform="scale(0.001,-0.001)" />

	<path d="M50.4,0l0,59.6c0,0,0,16.8,6.1,36.7c0,0,7.7,19.8,26,36.6L371.3,429.3c0,0,36.6,38.2,64.1,71.8c0,0,27.5,35.2,45.9,68.8c0,0,19.8,33.6,29,68.7c0,0,10.7,35.2,10.7,73.3c0,0,0,68.8,-33.6,103.9c0,0,-35.2,35.2,-97.8,35.2c0,0,-27.5,0,-48.9,-7.7c0,0,-22.9,-9.1,-39.7,-22.9c0,0,-18.4,-15.3,-30.6,-33.6c0,0,-13.7,-19.9,-19.8,-42.8c0,0,-12.3,-33.6,-32.1,-44.3c0,0,-13,-6.4,-36,-6.4c-6.5,0,-13.9,0.5,-22.1,1.8L65.7,711.9c0,0,10.7,71.9,39.7,125.3c0,0,29,55,71.8,90.2c0,0,44.3,36.6,100.9,55c0,0,58,18.3,122.2,18.3c0,0,68.7,0,125.3,-19.9c0,0,56.5,-21.4,96.2,-58c0,0,39.7,-36.7,61.1,-88.6c0,0,22.9,-53.5,22.9,-117.7c0,0,0,-53.4,-15.2,-99.3c0,0,-16.8,-47.3,-42.8,-90.1c0,0,-26,-42.8,-61.1,-82.5c0,0,-35.2,-39.7,-73.4,-79.5L302.5,145.1c0,0,33.6,10.7,67.2,15.3c0,0,33.6,6.1,62.7,6.1l224.5,0c0,0,29.1,0,45.9,-16.8c0,0,18.3,-16.8,18.3,-42.8L721.1,0Z" 
	id="f0_15"
	transform="scale(0.001,-0.001)" />

	<path d="M145.1,-206.2l-33.6,30.6c0,0,-7.6,6.1,-10.7,12.2c0,0,-3,6.1,-3,15.3c0,0,0,6.1,4.6,13.8c0,0,4.5,7.6,10.7,13.7c0,0,7.6,9.2,18.3,21.4c0,0,12.2,12.2,22.9,27.5c0,0,12.2,16.8,21.4,35.1c0,0,10.7,18.4,15.3,38.1c0,0,-22.9,1.6,-41.3,9.2c0,0,-19.8,9.2,-33.6,24.4c0,0,-13.7,15.3,-21.4,35.2c0,0,-7.6,19.8,-7.6,42.8c0,0,0,21.3,7.6,39.7c0,0,7.7,18.3,21.4,32.1c0,0,15.3,13.7,35.2,21.4c0,0,19.8,7.6,44.3,7.6c0,0,29,0,50.4,-9.2c0,0,21.4,-10.7,35.1,-27.5c0,0,13.8,-18.3,21.4,-41.2c0,0,7.6,-22.9,7.6,-47.4c0,0,0,-35.1,-10.7,-73.3c0,0,-12.2,-38.1,-32,-76.3c0,0,-19.9,-39.7,-50.5,-76.4c0,0,-32,-38.2,-71.8,-68.8Z" 
	id="f0_17"
	transform="scale(0.001,-0.001)" />

	<path d="M80,0l0,990l583,0l0,-156l-385,0l0,-281l322,0l0,-156l-322,0L278,0Z" 
	id="f0_18"
	transform="scale(0.001,-0.001)" />

	<path d="M235.3,0L4.6,739.4l151.2,0c0,0,19.9,0,33.6,-9.1c0,0,15.3,-10.7,19.9,-26L302.5,326.9c0,0,9.2,-33.6,15.3,-65.6c0,0,7.6,-32.1,12.2,-64.2c0,0,9.2,32.1,18.3,64.2c0,0,9.2,32,19.9,65.6L479.7,705.8c0,0,4.6,15.3,16.8,24.5c0,0,13.8,10.7,33.6,10.7l84.1,0c0,0,19.8,0,33.6,-9.2c0,0,15.3,-10.7,19.8,-26l107,-378.9c0,0,19.8,-68.7,35.1,-129.8c0,0,6.1,32.1,12.2,64.2c0,0,7.7,32,16.9,67.2l99.3,377.3c0,0,3,15.3,16.8,24.5c0,0,13.7,9.1,33.6,9.1l143.6,0L901.4,0L748.6,0c0,0,-26,0,-35.1,32.1L591.3,444.6c0,0,-15.3,44.3,-23,88.6c0,0,-9.1,-45.8,-22.9,-90.1L421.7,32.1C421.7,32.1,411,0,380.4,0Z" 
	id="f0_19"
	transform="scale(0.001,-0.001)" />

	<path d="M331.5,-9.1c0,0,-45.8,0,-87.1,7.7c0,0,-41.2,9,-77.9,25.8c0,0,-36.6,16.9,-67.2,38.2c0,0,-32.1,21.4,-56.5,45.9l55,76.4c0,0,19.8,24.4,47.3,24.4c0,0,16.8,0,33.7,-10.7c0,0,18.3,-10.7,39.7,-24.4c0,0,22.9,-13.8,51.9,-24.5c0,0,29,-10.7,71.8,-10.7c0,0,44.3,0,76.4,13.8c0,0,32.1,15.3,53.5,41.2c0,0,22.9,27.5,33.6,62.7c0,0,10.7,35.1,10.7,76.4c0,0,0,79.4,-44.3,122.2c0,0,-44.3,44.3,-126.8,44.3c0,0,-33.6,0,-67.2,-6.1c0,0,-35.2,-7.7,-70.3,-19.9L96.3,504.2L177.2,990l485.9,0l0,-74.9c0,0,0,-38.2,-24.5,-62.6c0,0,-26,-24.4,-82.5,-24.4l-253.6,0L270.4,634c0,0,58.1,10.7,113.1,10.7c0,0,76.4,0,134.4,-22.9c0,0,58.1,-22.9,97.8,-64.2c0,0,39.7,-41.2,59.6,-96.2c0,0,21.4,-55,21.4,-119.2c0,0,0,-79.4,-27.5,-143.6c0,0,-27.5,-65.7,-76.4,-111.5c0,0,-48.9,-47.4,-114.6,-71.8c0,0,-67.2,-24.4,-146.7,-24.4Z" 
	id="f0_1a"
	transform="scale(0.001,-0.001)" />

	<path d="M395.7,-9.1c0,0,-70.3,0,-123.8,15.2c0,0,-55,15.3,-94.7,48.9c0,0,-41.2,33.6,-70.3,82.5c0,0,-30.5,48.9,-50.4,114.6l77.9,33.6c0,0,20.6,7.8,42.9,7.8c5.5,0,11.2,-0.5,16.7,-1.7c0,0,27.5,-6.1,38.2,-30.5c0,0,13.8,-24.5,27.5,-45.9c0,0,15.3,-22.9,33.6,-39.7c0,0,19.9,-16.8,44.3,-26c0,0,24.5,-10.7,56.6,-10.7c0,0,39.7,0,68.7,12.3c0,0,30.6,13.7,48.9,35.1c0,0,19.9,21.4,29,47.4c0,0,10.7,27.5,10.7,55c0,0,0,33.6,-6.1,62.6c0,0,-6.1,29,-27.5,48.9c0,0,-22.9,19.8,-65.7,30.5c0,0,-42.8,12.3,-116.1,12.3l0,126.8c0,0,61.1,1.5,100.8,10.7c0,0,39.8,10.7,61.2,29c0,0,22.9,19.8,30.5,45.8c0,0,9.2,26,9.2,58.1c0,0,0,68.7,-33.6,102.3c0,0,-35.2,35.2,-96.3,35.2c0,0,-55,0,-90.1,-30.6c0,0,-36.7,-30.5,-52,-76.4c0,0,-12.2,-33.6,-30.5,-44.3c0,0,-12,-6.4,-34.6,-6.4c-6.5,0,-13.8,0.5,-21.9,1.8L84,711.9c0,0,10.7,71.9,39.8,125.3c0,0,29,55,71.8,90.2c0,0,44.3,36.6,100.8,55c0,0,56.5,18.3,120.7,18.3c0,0,68.7,0,123.7,-19.9c0,0,55,-19.8,93.2,-55c0,0,38.2,-35.1,58.1,-80.9c0,0,21.4,-47.4,21.4,-99.3c0,0,0,-47.4,-9.2,-82.5c0,0,-10.7,-36.7,-30.5,-62.7c0,0,-19.9,-27.5,-47.4,-45.8c0,0,-29,-18.3,-64.2,-30.6c0,0,169.6,-58,169.6,-229.1c0,0,0,-74.9,-27.5,-131.4c0,0,-27.5,-58.1,-73.3,-96.3c0,0,-45.9,-39.7,-107,-58c0,0,-61.1,-18.3,-128.3,-18.3Z" 
	id="f0_1c"
	transform="scale(0.001,-0.001)" />

	<path d="M479.7,375.8l0,307.1c0,0,0,21.4,0,47.4c0,0,1.6,26,6.1,53.5L200.1,375.8ZM479.7,0l0,236.8l-401.8,0c0,0,-16.8,0,-30.5,10.7c0,0,-15.3,10.7,-18.4,29L10.7,366.7L464.4,990l171.2,0l0,-614.2l114.5,0l0,-102.3c0,0,0,-15.3,-9.1,-26c0,0,-9.2,-10.7,-27.5,-10.7l-77.9,0L635.6,0Z" 
	id="f0_1e"
	transform="scale(0.001,-0.001)" />

	<path d="M145.1,-239.8L276.5,58.1L1.5,739.4l166.6,0c0,0,22.9,0,33.6,-9.1c0,0,12.2,-10.7,18.3,-24.5L343.8,339.2c0,0,7.6,-19.9,13.7,-39.8c0,0,6.1,-19.8,12.2,-41.2c0,0,6.1,21.4,12.2,41.2c0,0,7.7,21.4,15.3,41.3L513.3,705.8c0,0,4.6,15.3,18.4,24.5c0,0,15.2,9.1,32.1,9.1l151.2,0L348.3,-200c0,0,-9.1,-19.9,-21.4,-29.1c0,0,-13.7,-10.7,-39.7,-10.7Z" 
	id="f0_1g"
	transform="scale(0.001,-0.001)" />

	<path d="M129.9,0L493.5,742.5c0,0,13.7,24.4,25.9,45.8c0,0,13.8,21.4,30.6,39.8l-449.2,0c0,0,-15.2,0,-27.5,12.2c0,0,-12.2,12.2,-12.2,29l0,120.7l672.2,0l0,-76.4c0,0,0,-35.1,-7.6,-56.5c0,0,-7.6,-21.4,-13.8,-35.2L356,61.1c0,0,-12.2,-26,-33.6,-42.8c0,0,-23,-18.3,-61.1,-18.3Z" 
	id="f0_1h"
	transform="scale(0.001,-0.001)" />

	<path d="M386.5,134.4c0,0,36.7,0,64.2,12.3c0,0,27.5,12.2,45.8,33.6c0,0,18.4,22.9,27.5,51.9c0,0,9.2,29.1,9.2,64.2c0,0,0,82.5,-35.1,125.3c0,0,-35.2,42.7,-111.6,42.7c0,0,-76.4,0,-111.5,-42.7c0,0,-35.1,-44.3,-35.1,-125.3c0,0,0,-35.1,9.1,-64.2c0,0,9.2,-29,26,-50.4c0,0,18.3,-22.9,45.8,-35.1c0,0,29.1,-12.3,65.7,-12.3Zm0,478.2c0,0,36.7,0,61.1,12.3c0,0,24.5,13.7,38.2,35.1c0,0,15.3,22.9,19.9,50.4c0,0,6.1,29,6.1,58.1c0,0,0,27.5,-6.1,53.4c0,0,-7.6,27.5,-22.9,45.9c0,0,-15.3,19.8,-38.2,32.1c0,0,-24.5,12.2,-58.1,12.2c0,0,-33.6,0,-56.5,-12.2c0,0,-24.4,-12.3,-39.7,-30.6c0,0,-15.3,-19.9,-21.4,-45.8c0,0,-7.6,-27.5,-7.6,-55c0,0,0,-29.1,4.5,-56.6c0,0,6.1,-29,19.9,-50.4c0,0,15.3,-22.9,39.7,-35.1c0,0,24.5,-13.8,61.1,-13.8Zm0,-623.2c0,0,-76.4,0,-139,19.8c0,0,-62.6,21.4,-106.9,61.1c0,0,-45.9,41.2,-70.3,97.8c0,0,-26,56.5,-26,125.2c0,0,0,90.2,39.7,154.3c0,0,41.3,64.2,131.4,94.8c0,0,-70.3,32,-103.9,90.1c0,0,-35.1,59.6,-35.1,140.6c0,0,0,59.5,22.9,110c0,0,22.9,51.9,64.2,90.1c0,0,41.2,38.2,97.8,59.6c0,0,56.5,21.4,125.2,21.4c0,0,67.3,0,123.8,-21.4c0,0,58,-21.4,99.3,-59.6c0,0,41.2,-38.2,64.2,-88.6c0,0,22.9,-52,22.9,-111.5c0,0,0,-81,-33.6,-139.1c0,0,-35.2,-59.6,-105.5,-91.6c0,0,88.7,-30.6,129.9,-94.8c0,0,41.3,-64.1,41.3,-154.3c0,0,0,-68.7,-24.5,-125.2c0,0,-26,-56.6,-70.3,-96.3c0,0,-45.8,-41.2,-108.4,-61.1c0,0,-62.7,-21.3,-139.1,-21.3Z" 
	id="f0_1j"
	transform="scale(0.001,-0.001)" />

	<path d="M446.1,155.8c0,0,65.7,0,117.7,23c0,0,53.4,22.9,88.6,65.6c0,0,36.6,44.4,56.5,107c0,0,19.9,64.2,19.9,143.6c0,0,0,79.4,-19.9,142.1c0,0,-19.9,62.6,-55,106.9c0,0,-36.7,44.3,-88.6,67.3c0,0,-53.5,22.9,-119.2,22.9l-163.5,0l0,-678.4ZM85.6,0l0,990l360.5,0c0,0,108.5,0,197.1,-36.7c0,0,88.6,-36.6,151.2,-102.3c0,0,64.2,-65.7,97.8,-155.9c0,0,35.2,-91.6,35.2,-200.1c0,0,0,-108.5,-33.6,-200.1c0,0,-35.2,-91.7,-97.8,-157.4c0,0,-64.2,-65.7,-152.8,-100.8C643.2,36.7,554.6,0,446.1,0Z" 
	id="f0_1k"
	transform="scale(0.001,-0.001)" />

	<path d="M386.5,142.1c0,0,35.2,0,64.2,13.7c0,0,30.6,13.8,51.9,38.2c0,0,23,26,35.2,59.6c0,0,12.2,33.6,12.2,73.3c0,0,0,42.8,-10.7,76.4c0,0,-12.2,35.2,-33.6,58.1c0,0,-21.4,24.4,-51.9,36.7c0,0,-30.6,13.7,-67.3,13.7c0,0,-33.6,0,-62.6,-13.7c0,0,-29,-13.8,-48.9,-38.2c0,0,-21.4,-24.5,-32.1,-58.1c0,0,-12.2,-33.6,-12.2,-74.9c0,0,0,-41.2,9.2,-74.8c0,0,10.7,-35.2,30.5,-59.6c0,0,19.9,-24.4,48.9,-36.7c0,0,29,-13.7,67.2,-13.7Zm4.6,-152.7c0,0,-79.4,0,-142.1,25.9c0,0,-64.1,26,-108.4,74.8c0,0,-44.3,48.9,-67.3,116.2c0,0,-24.4,68.7,-24.4,149.7c0,0,0,74.8,27.5,151.2c0,0,29,77.9,84,160.4L385,997.6c0,0,13.8,19.9,39.7,32.1c0,0,27.5,12.2,61.1,12.2l169.6,0L368.2,667.6l-29,-38.2c0,0,25.9,10.7,53.4,16.9c0,0,29.1,7.6,61.2,7.6c0,0,53.4,0,103.8,-19.9c0,0,52,-19.8,91.7,-58c0,0,41.3,-38.2,65.7,-97.8c0,0,24.4,-59.6,24.4,-137.5c0,0,0,-73.3,-24.4,-137.5c0,0,-26,-64.2,-71.8,-111.5c0,0,-45.8,-47.4,-110,-74.9c0,0,-64.2,-27.4,-142.1,-27.4Z" 
	id="f0_1l"
	transform="scale(0.001,-0.001)" />

	<path d="M84,0l0,990l197,0l0,-424l400,0l0,424l197,0L878,0L681,0l0,427l-400,0L281,0Z" 
	id="f0_1m"
	transform="scale(0.001,-0.001)" />

	<path d="M412.5,527.1c0,0,38.2,0,67.2,12.2c0,0,29.1,12.2,48.9,33.6c0,0,19.9,22.9,30.6,52l10.7,65.7c0,0,0,39.7,-12.3,70.2c0,0,-12.2,30.6,-32,50.5c0,0,-21.4,21.3,-48.9,32c0,0,-29.1,12.3,-64.2,12.3c0,0,-33.6,0,-61.1,-12.3c0,0,-29,-13.7,-48.9,-35.1c0,0,-19.9,-21.4,-30.6,-50.4c0,0,-10.6,-30.6,-10.6,-65.7c0,0,0,-81,38.1,-122.2c0,0,39.8,-42.8,113.1,-42.8ZM158.9,0L461.4,380.4c0,0,10.7,13.8,19.9,26c0,0,10.6,13.7,19.8,26c0,0,-32.1,-19.9,-70.3,-29.1c0,0,-39.7,-10.7,-80.9,-10.7c0,0,-50.5,0,-97.8,16.8c0,0,-47.4,18.4,-85.6,53.5c0,0,-38.2,36.7,-61.1,88.6c0,0,-22.9,53.5,-22.9,125.3c0,0,0,67.2,22.9,125.3c0,0,24.5,59.6,68.8,103.9c0,0,44.3,44.3,105.4,68.7c0,0,61.1,26,136,26c0,0,74.8,0,134.4,-22.9c0,0,61.1,-24.5,103.9,-67.2c0,0,42.8,-44.3,64.2,-103.9c0,0,22.9,-61.1,22.9,-134.5c0,0,0,-45.8,-7.7,-87.1c0,0,-7.6,-42.7,-21.4,-80.9c0,0,-13.7,-38.2,-33.6,-74.9c0,0,-19.8,-36.7,-44.3,-71.8L417.1,39.7c0,0,-12.2,-16.8,-36.7,-27.5c0,0,-26,-12.2,-56.5,-12.2Z" 
	id="f0_1n"
	transform="scale(0.001,-0.001)" />

	<path d="M87,0l0,990l605,0l0,-156l-408,0l0,-263l317,0l0,-150l-317,0l0,-266l408,0L692,0Z" 
	id="f0_1p"
	transform="scale(0.001,-0.001)" />

	<path d="M10.7,0L226.1,380.4L19.9,739.4l181.8,0c0,0,19.8,0,29,-4.5c0,0,10.7,-6.1,18.3,-18.4L365.1,488.9c0,0,4.6,9.2,9.2,18.3c0,0,4.6,9.2,9.2,19.9l80.9,186.4c0,0,16.9,25.9,42.8,25.9l172.7,0L473.6,391.1L689,0L507.2,0c0,0,-19.8,0,-32.1,10.7c0,0,-13.7,10.7,-21.3,22.9L336.1,268.9c0,0,-3,-9.2,-6.1,-15.3c0,0,-3.1,-7.6,-7.6,-13.7L229.2,33.6c0,0,-7.7,-12.2,-18.4,-22.9C210.8,10.7,198.6,0,180.3,0Z" 
	id="f0_1q"
	transform="scale(0.001,-0.001)" />

	<path d="M412.5,131.4c0,0,36.7,0,67.2,13.7c0,0,30.6,15.3,52,44.3c0,0,21.4,30.6,32.1,76.4c0,0,12.2,45.9,12.2,110c0,0,0,62.7,-9.2,105.5c0,0,-9.2,44.3,-27.5,70.2c0,0,-18.3,27.5,-42.8,39.8c0,0,-25.9,12.2,-58,12.2c0,0,-53.5,0,-88.6,-19.9c0,0,-36.7,-21.4,-68.8,-62.6l0,-328.5c0,0,27.5,-33.6,61.1,-47.4c0,0,33.6,-13.7,70.3,-13.7ZM91.7,-239.8l0,979.2l116.1,0c0,0,16.8,0,29,-7.6c0,0,13.8,-7.6,16.8,-26l15.3,-64.1c0,0,22.9,24.4,47.4,44.3c0,0,24.4,21.4,53.4,36.6c0,0,29.1,15.3,61.1,23c0,0,33.6,9.1,73.4,9.1c0,0,58,0,106.9,-25.9c0,0,50.4,-26,85.6,-73.4c0,0,35.1,-48.9,55,-119.1c0,0,19.8,-70.3,19.8,-160.5c0,0,0,-84,-21.4,-154.3c0,0,-22.9,-70.2,-64.1,-122.2c0,0,-41.3,-51.9,-97.8,-81c0,0,-58.1,-28.9,-129.9,-28.9c0,0,-61.1,0,-102.3,16.7c0,0,-41.3,18.3,-74.9,50.4l0,-296.3Z" 
	id="f0_1r"
	transform="scale(0.001,-0.001)" />

	<path d="M102.4,0l0,990l171.1,0c0,0,9.1,-1.5,16.8,-4.6c0,0,7.6,-3,13.7,-9.1c0,0,7.7,-6.2,13.8,-16.9L624.9,421.7c0,0,24.4,-45.9,42.7,-97.8c0,0,10.7,26,21.4,50.4c0,0,10.7,26,22.9,48.9l305.6,536.2c0,0,6.1,10.7,12.2,16.9c0,0,6.1,7.6,13.8,9.1c0,0,7.6,3.1,16.8,3.1c0,0,10.7,1.5,22.9,1.5l148.2,0l0,-990L1058.8,0l0,618.8c0,0,0,19.8,0,42.7c0,0,1.5,24.5,4.5,48.9L750.1,157.4c0,0,-22.9,-42.8,-67.2,-42.8l-27.5,0c0,0,-45.8,0,-68.7,42.8L270.4,713.5c0,0,3.1,-24.5,4.6,-48.9c0,0,1.5,-24.5,1.5,-45.8L276.5,0Z" 
	id="f0_1s"
	transform="scale(0.001,-0.001)" />

	<path d="M79.4,0l0,1071l189.5,0l0,-609.6l29,0c0,0,18.4,0,27.5,4.6c0,0,9.2,6.1,18.4,19.8L479.7,707.4c0,0,10.7,15.2,24.5,22.9c0,0,15.2,9.1,36.6,9.1l174.2,0L536.3,467.5c0,0,-13.8,-16.8,-27.5,-29c0,0,-13.8,-12.2,-30.6,-22.9c0,0,15.3,-10.7,26,-24.5c0,0,12.2,-15.3,24.4,-33.6L722.6,0L553.1,0c0,0,-44.3,0,-62.7,32.1l-136,276.5c0,0,-9.1,16.8,-18.3,21.4c0,0,-10.7,6.1,-29,6.1l-38.2,0L268.9,0Z" 
	id="f0_1t"
	transform="scale(0.001,-0.001)" />


</defs>
</svg>