<?xml version="1.0" encoding="UTF-8" standalone="no"?>
<!DOCTYPE svg PUBLIC "-//W3C//DTD SVG 1.1//EN"
"http://www.w3.org/Graphics/SVG/1.1/DTD/svg11.dtd">
<svg viewBox="0 0 1210 1210" version="1.1" xmlns="http://www.w3.org/2000/svg" xmlns:xlink="http://www.w3.org/1999/xlink">
<defs>
<style type="text/css"><![CDATA[
.g2_150{
fill: none;
stroke: #418AB3;
stroke-width: 2;
stroke-linecap: butt;
stroke-linejoin: miter;
stroke-miterlimit: 7;
}
.g3_150{
fill: none;
stroke: #0000EE;
stroke-width: 2;
stroke-linecap: butt;
stroke-linejoin: miter;
}
.g1_150{
fill: #FFFFFF;
}
]]></style>
</defs>
<path fill-rule="evenodd" d="M0,0L1210,0l0,1210L0,1210L0,0Z" class="g1_150" />
<path fill-rule="evenodd" d="M0,0L1210,0l0,1210L0,1210L0,0Z" class="g1_150" />
<path fill-rule="evenodd" d="M155.8,118.9l0,-1l0,-0.9l0.2,-0.9l0.1,-0.9l0.3,-0.9l0.3,-0.9l0.4,-1l0.3,-0.9l0.4,-0.7l0.3,-1l0.6,-0.7l0.5,-0.8l0.6,-0.7l0.6,-0.8L161,106l0.8,-0.6l0.8,-0.6l0.7,-0.6l0.8,-0.5l0.7,-0.6l1,-0.3l0.7,-0.4l0.9,-0.3l1,-0.4l0.9,-0.3l0.9,-0.3l0.9,-0.1l0.9,-0.2l0.9,0l1,0l779.7,0l1,0l1,0l0.9,0.2l1,0.1l0.9,0.3l0.9,0.3l0.9,0.4l0.8,0.3l0.9,0.4l0.8,0.3l0.9,0.6l0.7,0.5l0.8,0.6l0.8,0.6l0.6,0.6l0.6,0.8l0.6,0.8l0.6,0.7l0.6,0.8l0.5,0.7l0.4,1l0.3,0.7l0.5,0.9l0.3,1l0.3,0.9l0.2,0.9l0.1,0.9l0.2,0.9l0,0.9l0.1,1l0,72.5l0,0.9l-0.1,1.1l0,0.9l-0.3,0.9l-0.2,1l-0.3,0.9l-0.3,0.9l-0.5,0.8l-0.3,0.9l-0.4,0.7l-0.5,1l-0.6,0.7l-0.6,0.8l-0.6,0.8l-0.6,0.6l-0.6,0.6l-0.8,0.6l-0.8,0.6l-0.7,0.6l-0.9,0.5l-0.8,0.4l-0.9,0.3l-0.8,0.5l-0.9,0.3l-0.9,0.3l-0.9,0.2l-1,0.1l-0.9,0.2l-1,0l-1,0.1l-779.7,0l-1,0L172,209.5l-0.9,0l-0.9,-0.3L169.3,209l-0.9,-0.3l-1,-0.3l-0.9,-0.3l-0.7,-0.5l-1,-0.4l-0.7,-0.5l-0.8,-0.6l-0.7,-0.5l-0.8,-0.7L161,204.3l-0.6,-0.6l-0.6,-0.8l-0.6,-0.8l-0.5,-0.7l-0.6,-0.8l-0.3,-0.9l-0.4,-0.9L157.1,198l-0.4,-0.9l-0.3,-0.9l-0.3,-1L156,194.3l-0.2,-0.9l0,-1.1l0,-0.9l0,-72.5Z" class="g1_150" />
<path d="M155.8,118.9l0,-1l0,-0.9l0.2,-0.9l0.1,-0.9l0.3,-0.9l0.3,-0.9l0.4,-1l0.3,-0.9l0.4,-0.7l0.3,-1l0.6,-0.7l0.5,-0.8l0.6,-0.7l0.6,-0.8L161,106l0.8,-0.6l0.8,-0.6l0.7,-0.6l0.8,-0.5l0.7,-0.6l1,-0.3l0.7,-0.4l0.9,-0.3l1,-0.4l0.9,-0.3l0.9,-0.3l0.9,-0.1l0.9,-0.2l0.9,0l1,0l779.7,0l1,0l1,0l0.9,0.2l1,0.1l0.9,0.3l0.9,0.3l0.9,0.4l0.8,0.3l0.9,0.4l0.8,0.3l0.9,0.6l0.7,0.5l0.8,0.6l0.8,0.6l0.6,0.6l0.6,0.8l0.6,0.8l0.6,0.7l0.6,0.8l0.5,0.7l0.4,1l0.3,0.7l0.5,0.9l0.3,1l0.3,0.9l0.2,0.9l0.1,0.9l0.2,0.9l0,0.9l0.1,1l0,72.5l0,0.9l-0.1,1.1l0,0.9l-0.3,0.9l-0.2,1l-0.3,0.9l-0.3,0.9l-0.5,0.8l-0.3,0.9l-0.4,0.7l-0.5,1l-0.6,0.7l-0.6,0.8l-0.6,0.8l-0.6,0.6l-0.6,0.6l-0.8,0.6l-0.8,0.6l-0.7,0.6l-0.9,0.5l-0.8,0.4l-0.9,0.3l-0.8,0.5l-0.9,0.3l-0.9,0.3l-0.9,0.2l-1,0.1l-0.9,0.2l-1,0l-1,0.1l-779.7,0l-1,0L172,209.5l-0.9,0l-0.9,-0.3L169.3,209l-0.9,-0.3l-1,-0.3l-0.9,-0.3l-0.7,-0.5l-1,-0.4l-0.7,-0.5l-0.8,-0.6l-0.7,-0.5l-0.8,-0.7L161,204.3l-0.6,-0.6l-0.6,-0.8l-0.6,-0.8l-0.5,-0.7l-0.6,-0.8l-0.3,-0.9l-0.4,-0.9L157.1,198l-0.4,-0.9l-0.3,-0.9l-0.3,-1L156,194.3l-0.2,-0.9l0,-1.1l0,-0.9l0,-72.5Z" class="g2_150" />
<path d="M268,180l462,0" class="g3_150" />
<image x="82" y="284" width="785" height="303" xlink:href="img/1.png" />
</svg>