<?xml version="1.0" encoding="UTF-8" standalone="no"?>
<!DOCTYPE svg PUBLIC "-//W3C//DTD SVG 1.1//EN"
"http://www.w3.org/Graphics/SVG/1.1/DTD/svg11.dtd">
<svg viewBox="0 0 1155 1210" version="1.1" xmlns="http://www.w3.org/2000/svg" xmlns:xlink="http://www.w3.org/1999/xlink">
<defs>
<clipPath id="c0_11"><path d="M0.5,1210.5L0.5,0.5l1155,0l0,1210Z" /></clipPath>
<style type="text/css"><![CDATA[
.g1_11{
fill: #FFFFFF;
}
]]></style>
</defs>
<path fill-rule="evenodd" d="M0,0L1155,0l0,1210L0,1210L0,0Z" class="g1_11" />
<path fill-rule="evenodd" d="M0,0L1155,0l0,1210L0,1210L0,0Z" class="g1_11" />
<image x="790" y="1140" width="319" height="55" xlink:href="img/1.png" />
<g clip-path="url(#c0_11)">
<g fill="#626262" >
<use xlink:href="#f0_q" transform="matrix(12,0,0,12,38.5,32.1)" />
<use xlink:href="#f1_1h" transform="matrix(12,0,0,12,64.8,33.2)" />
<use xlink:href="#f1_e" transform="matrix(12,0,0,12,76.5,33.2)" />
<use xlink:href="#f1_c" transform="matrix(12,0,0,12,82.5,33.2)" />
<use xlink:href="#f1_b" transform="matrix(12,0,0,12,89.7,33.2)" />
<use xlink:href="#f1_l" transform="matrix(12,0,0,12,101,33.2)" />
<use xlink:href="#f1_g" transform="matrix(12,0,0,12,118.4,33.2)" />
<use xlink:href="#f1_i" transform="matrix(12,0,0,12,127.8,33.2)" />
<use xlink:href="#f1_6" transform="matrix(12,0,0,12,139.4,33.2)" />
<use xlink:href="#f1_6" transform="matrix(12,0,0,12,149.7,33.2)" />
<use xlink:href="#f1_b" transform="matrix(12,0,0,12,159.9,33.2)" />
<use xlink:href="#f1_g" transform="matrix(12,0,0,12,171.3,33.2)" />
<use xlink:href="#f1_g" transform="matrix(12,0,0,12,180.8,33.2)" />
<use xlink:href="#f1_e" transform="matrix(12,0,0,12,190.3,33.2)" />
<use xlink:href="#f1_i" transform="matrix(12,0,0,12,196.7,33.2)" />
<use xlink:href="#f1_a" transform="matrix(12,0,0,12,208.3,33.2)" />
<use xlink:href="#f1_d" transform="matrix(12,0,0,12,223.1,33.2)" />
<use xlink:href="#f1_4" transform="matrix(12,0,0,12,228.1,33.2)" />
<use xlink:href="#f1_g" transform="matrix(12,0,0,12,239.7,33.2)" />
<use xlink:href="#f1_c" transform="matrix(12,0,0,12,249.2,33.2)" />
<use xlink:href="#f1_k" transform="matrix(12,0,0,12,256.4,33.2)" />
<use xlink:href="#f1_a" transform="matrix(12,0,0,12,267.8,33.2)" />
<use xlink:href="#f1_a" transform="matrix(12,0,0,12,272.9,33.2)" />
<use xlink:href="#f1_k" transform="matrix(12,0,0,12,278,33.2)" />
<use xlink:href="#f1_c" transform="matrix(12,0,0,12,289.3,33.2)" />
<use xlink:href="#f1_d" transform="matrix(12,0,0,12,296.5,33.2)" />
<use xlink:href="#f1_7" transform="matrix(12,0,0,12,301.6,33.2)" />
<use xlink:href="#f1_4" transform="matrix(12,0,0,12,312.8,33.2)" />
<use xlink:href="#f1_7" transform="matrix(12,0,0,12,333.9,33.2)" />
<use xlink:href="#f1_e" transform="matrix(12,0,0,12,345.2,33.2)" />
<use xlink:href="#f1_6" transform="matrix(12,0,0,12,361.1,33.2)" />
<use xlink:href="#f1_v" transform="matrix(12,0,0,12,371.3,33.2)" />
<use xlink:href="#f1_w" transform="matrix(12,0,0,12,382.1,33.2)" />
<use xlink:href="#f1_3" transform="matrix(12,0,0,12,391.3,33.2)" />
<use xlink:href="#f1_l" transform="matrix(12,0,0,12,405.8,33.2)" />
<use xlink:href="#f1_k" transform="matrix(12,0,0,12,413.6,33.2)" />
<use xlink:href="#f1_6" transform="matrix(12,0,0,12,424.9,33.2)" />
<use xlink:href="#f1_a" transform="matrix(12,0,0,12,435.1,33.2)" />
<use xlink:href="#f1_b" transform="matrix(12,0,0,12,440.2,33.2)" />
<use xlink:href="#f1_j" transform="matrix(12,0,0,12,451.5,33.2)" />
<use xlink:href="#f1_12" transform="matrix(12,0,0,12,466.9,33.2)" />
<use xlink:href="#f1_b" transform="matrix(12,0,0,12,482,33.2)" />
<use xlink:href="#f1_4" transform="matrix(12,0,0,12,502.9,33.2)" />
<use xlink:href="#f1_b" transform="matrix(12,0,0,12,514.4,33.2)" />
<use xlink:href="#f1_b" transform="matrix(12,0,0,12,525.8,33.2)" />
<use xlink:href="#f1_h" transform="matrix(12,0,0,12,537.1,33.2)" />
<use xlink:href="#f1_c" transform="matrix(12,0,0,12,558.5,33.2)" />
<use xlink:href="#f1_7" transform="matrix(12,0,0,12,565.7,33.2)" />
<use xlink:href="#f1_b" transform="matrix(12,0,0,12,586.4,33.2)" />
<use xlink:href="#f1_g" transform="matrix(12,0,0,12,597.7,33.2)" />
<use xlink:href="#f1_c" transform="matrix(12,0,0,12,607.2,33.2)" />
<use xlink:href="#f1_k" transform="matrix(12,0,0,12,614.4,33.2)" />
<use xlink:href="#f1_m" transform="matrix(12,0,0,12,625.8,33.2)" />
<use xlink:href="#f1_a" transform="matrix(12,0,0,12,637.3,33.2)" />
<use xlink:href="#f1_d" transform="matrix(12,0,0,12,642.5,33.2)" />
<use xlink:href="#f1_g" transform="matrix(12,0,0,12,647.5,33.2)" />
<use xlink:href="#f1_f" transform="matrix(12,0,0,12,657.1,33.2)" />
<use xlink:href="#f1_k" transform="matrix(12,0,0,12,678.2,33.2)" />
<use xlink:href="#f1_6" transform="matrix(12,0,0,12,699.2,33.2)" />
<use xlink:href="#f1_7" transform="matrix(12,0,0,12,709.4,33.2)" />
<use xlink:href="#f1_4" transform="matrix(12,0,0,12,720.6,33.2)" />
<use xlink:href="#f1_4" transform="matrix(12,0,0,12,732.2,33.2)" />
<use xlink:href="#f1_b" transform="matrix(12,0,0,12,743.6,33.2)" />
<use xlink:href="#f1_6" transform="matrix(12,0,0,12,754.9,33.2)" />
<use xlink:href="#f1_c" transform="matrix(12,0,0,12,765.3,33.2)" />
<use xlink:href="#f1_d" transform="matrix(12,0,0,12,772.3,33.2)" />
<use xlink:href="#f1_7" transform="matrix(12,0,0,12,777.5,33.2)" />
<use xlink:href="#f1_4" transform="matrix(12,0,0,12,788.7,33.2)" />
<use xlink:href="#f1_12" transform="matrix(12,0,0,12,809.9,33.2)" />
<use xlink:href="#f1_d" transform="matrix(12,0,0,12,824.8,33.2)" />
<use xlink:href="#f1_c" transform="matrix(12,0,0,12,830,33.2)" />
<use xlink:href="#f1_f" transform="matrix(12,0,0,12,837,33.2)" />
<use xlink:href="#f1_3" transform="matrix(12,0,0,12,858.2,33.2)" />
<use xlink:href="#f1_l" transform="matrix(12,0,0,12,872.6,33.2)" />
<use xlink:href="#f1_k" transform="matrix(12,0,0,12,880.4,33.2)" />
<use xlink:href="#f1_6" transform="matrix(12,0,0,12,891.7,33.2)" />
<use xlink:href="#f1_a" transform="matrix(12,0,0,12,902,33.2)" />
<use xlink:href="#f1_b" transform="matrix(12,0,0,12,907.1,33.2)" />
<use xlink:href="#f1_h" transform="matrix(12,0,0,12,928,33.2)" />
<use xlink:href="#f1_k" transform="matrix(12,0,0,12,939.7,33.2)" />
<use xlink:href="#f1_c" transform="matrix(12,0,0,12,951.2,33.2)" />
<use xlink:href="#f1_k" transform="matrix(12,0,0,12,958.2,33.2)" />
<use xlink:href="#f1_m" transform="matrix(12,0,0,12,969.6,33.2)" />
<use xlink:href="#f1_k" transform="matrix(12,0,0,12,981.1,33.2)" />
<use xlink:href="#f1_g" transform="matrix(12,0,0,12,992.5,33.2)" />
<use xlink:href="#f1_b" transform="matrix(12,0,0,12,1002,33.2)" />
<use xlink:href="#f1_e" transform="matrix(12,0,0,12,1022.9,33.2)" />
<use xlink:href="#f1_l" transform="matrix(12,0,0,12,1029.3,33.2)" />
<use xlink:href="#f1_7" transform="matrix(12,0,0,12,1036.5,33.2)" />
<use xlink:href="#f1_8" transform="matrix(12,0,0,12,1047.7,33.2)" />
<use xlink:href="#f1_s" transform="matrix(12,0,0,12,64.8,77.6)" />
<use xlink:href="#f1_r" transform="matrix(12,0,0,12,75.8,77.6)" />
<use xlink:href="#f1_c" transform="matrix(12,0,0,12,86.6,77.6)" />
<use xlink:href="#f1_f" transform="matrix(12,0,0,12,93.6,77.6)" />
<use xlink:href="#f1_7" transform="matrix(12,0,0,12,105.2,77.6)" />
<use xlink:href="#f1_4" transform="matrix(12,0,0,12,116.4,77.6)" />
<use xlink:href="#f1_9" transform="matrix(12,0,0,12,133.8,77.6)" />
<use xlink:href="#f1_l" transform="matrix(12,0,0,12,145.4,77.6)" />
<use xlink:href="#f1_7" transform="matrix(12,0,0,12,152.6,77.6)" />
<use xlink:href="#f1_x" transform="matrix(12,0,0,12,163.7,77.6)" />
<use xlink:href="#f1_l" transform="matrix(12,0,0,12,175.5,77.6)" />
<use xlink:href="#f1_k" transform="matrix(12,0,0,12,183.1,77.6)" />
<use xlink:href="#f1_8" transform="matrix(12,0,0,12,194.4,77.6)" />
<use xlink:href="#f1_1c" transform="matrix(12,0,0,12,212.3,77.6)" />
<use xlink:href="#f0_q" transform="matrix(12,0,0,12,38.5,135.5)" />
<use xlink:href="#f1_6" transform="matrix(12,0,0,12,64.8,136.7)" />
<use xlink:href="#f1_7" transform="matrix(12,0,0,12,75,136.7)" />
<use xlink:href="#f1_4" transform="matrix(12,0,0,12,86.1,136.7)" />
<use xlink:href="#f1_4" transform="matrix(12,0,0,12,97.7,136.7)" />
<use xlink:href="#f1_b" transform="matrix(12,0,0,12,109.2,136.7)" />
<use xlink:href="#f1_6" transform="matrix(12,0,0,12,120.6,136.7)" />
<use xlink:href="#f1_c" transform="matrix(12,0,0,12,130.9,136.7)" />
<use xlink:href="#f1_1i" transform="matrix(12,0,0,12,138,136.7)" />
<use xlink:href="#f1_o" transform="matrix(12,0,0,12,145.1,136.7)" />
<use xlink:href="#f1_e" transform="matrix(12,0,0,12,163.8,136.7)" />
<use xlink:href="#f1_i" transform="matrix(12,0,0,12,170.2,136.7)" />
<use xlink:href="#f1_4" transform="matrix(12,0,0,12,181.8,136.7)" />
<use xlink:href="#f1_6" transform="matrix(12,0,0,12,193.4,136.7)" />
<use xlink:href="#f1_c" transform="matrix(12,0,0,12,203.7,136.7)" />
<use xlink:href="#f1_d" transform="matrix(12,0,0,12,210.7,136.7)" />
<use xlink:href="#f1_7" transform="matrix(12,0,0,12,215.8,136.7)" />
<use xlink:href="#f1_4" transform="matrix(12,0,0,12,227,136.7)" />
<use xlink:href="#f1_f" transform="matrix(12,0,0,12,250.2,136.7)" />
<use xlink:href="#f1_b" transform="matrix(12,0,0,12,261.6,136.7)" />
<use xlink:href="#f1_a" transform="matrix(12,0,0,12,273.1,136.7)" />
<use xlink:href="#f1_9" transform="matrix(12,0,0,12,278.1,136.7)" />
<use xlink:href="#f1_g" transform="matrix(12,0,0,12,289.7,136.7)" />
<use xlink:href="#f1_c" transform="matrix(12,0,0,12,310.8,136.7)" />
<use xlink:href="#f1_7" transform="matrix(12,0,0,12,318,136.7)" />
<use xlink:href="#f1_6" transform="matrix(12,0,0,12,340.7,136.7)" />
<use xlink:href="#f1_7" transform="matrix(12,0,0,12,350.9,136.7)" />
<use xlink:href="#f1_4" transform="matrix(12,0,0,12,362.1,136.7)" />
<use xlink:href="#f1_4" transform="matrix(12,0,0,12,373.7,136.7)" />
<use xlink:href="#f1_b" transform="matrix(12,0,0,12,385.1,136.7)" />
<use xlink:href="#f1_6" transform="matrix(12,0,0,12,396.6,136.7)" />
<use xlink:href="#f1_c" transform="matrix(12,0,0,12,406.8,136.7)" />
<use xlink:href="#f1_c" transform="matrix(12,0,0,12,425.6,136.7)" />
<use xlink:href="#f1_7" transform="matrix(12,0,0,12,432.6,136.7)" />
<use xlink:href="#f1_3" transform="matrix(12,0,0,12,455.3,136.7)" />
<use xlink:href="#f1_l" transform="matrix(12,0,0,12,469.8,136.7)" />
<use xlink:href="#f1_k" transform="matrix(12,0,0,12,477.6,136.7)" />
<use xlink:href="#f1_6" transform="matrix(12,0,0,12,488.9,136.7)" />
<use xlink:href="#f1_a" transform="matrix(12,0,0,12,499.1,136.7)" />
<use xlink:href="#f1_b" transform="matrix(12,0,0,12,504.3,136.7)" />
<use xlink:href="#f1_h" transform="matrix(12,0,0,12,527.1,136.7)" />
<use xlink:href="#f1_k" transform="matrix(12,0,0,12,538.9,136.7)" />
<use xlink:href="#f1_c" transform="matrix(12,0,0,12,550.2,136.7)" />
<use xlink:href="#f1_k" transform="matrix(12,0,0,12,557.4,136.7)" />
<use xlink:href="#f1_m" transform="matrix(12,0,0,12,568.7,136.7)" />
<use xlink:href="#f1_k" transform="matrix(12,0,0,12,580.3,136.7)" />
<use xlink:href="#f1_g" transform="matrix(12,0,0,12,591.6,136.7)" />
<use xlink:href="#f1_b" transform="matrix(12,0,0,12,601.2,136.7)" />
<use xlink:href="#f1_e" transform="matrix(12,0,0,12,624.1,136.7)" />
<use xlink:href="#f1_l" transform="matrix(12,0,0,12,630.5,136.7)" />
<use xlink:href="#f1_7" transform="matrix(12,0,0,12,637.7,136.7)" />
<use xlink:href="#f1_8" transform="matrix(12,0,0,12,648.8,136.7)" />
<use xlink:href="#f1_s" transform="matrix(12,0,0,12,678.1,136.7)" />
<use xlink:href="#f1_r" transform="matrix(12,0,0,12,689.1,136.7)" />
<use xlink:href="#f1_c" transform="matrix(12,0,0,12,700,136.7)" />
<use xlink:href="#f1_f" transform="matrix(12,0,0,12,707,136.7)" />
<use xlink:href="#f1_7" transform="matrix(12,0,0,12,718.6,136.7)" />
<use xlink:href="#f1_4" transform="matrix(12,0,0,12,729.7,136.7)" />
<use xlink:href="#f1_i" transform="matrix(12,0,0,12,752.8,136.7)" />
<use xlink:href="#f1_g" transform="matrix(12,0,0,12,764.4,136.7)" />
<use xlink:href="#f1_d" transform="matrix(12,0,0,12,773.9,136.7)" />
<use xlink:href="#f1_4" transform="matrix(12,0,0,12,779,136.7)" />
<use xlink:href="#f1_x" transform="matrix(12,0,0,12,790.5,136.7)" />
<use xlink:href="#f1_h" transform="matrix(12,0,0,12,813.8,136.7)" />
<use xlink:href="#f1_k" transform="matrix(12,0,0,12,825.6,136.7)" />
<use xlink:href="#f1_c" transform="matrix(12,0,0,12,836.9,136.7)" />
<use xlink:href="#f1_k" transform="matrix(12,0,0,12,844.1,136.7)" />
<use xlink:href="#f1_m" transform="matrix(12,0,0,12,855.3,136.7)" />
<use xlink:href="#f1_k" transform="matrix(12,0,0,12,867,136.7)" />
<use xlink:href="#f1_g" transform="matrix(12,0,0,12,878.2,136.7)" />
<use xlink:href="#f1_b" transform="matrix(12,0,0,12,887.9,136.7)" />
<use xlink:href="#f1_4" transform="matrix(12,0,0,12,910.7,136.7)" />
<use xlink:href="#f1_k" transform="matrix(12,0,0,12,922.2,136.7)" />
<use xlink:href="#f1_8" transform="matrix(12,0,0,12,933.6,136.7)" />
<use xlink:href="#f1_b" transform="matrix(12,0,0,12,951.4,136.7)" />
<use xlink:href="#f1_j" transform="matrix(12,0,0,12,962.7,136.7)" />
<use xlink:href="#f1_h" transform="matrix(12,0,0,12,980,136.7)" />
<use xlink:href="#f1_k" transform="matrix(12,0,0,12,991.8,136.7)" />
<use xlink:href="#f1_c" transform="matrix(12,0,0,12,1003.1,136.7)" />
<use xlink:href="#f1_k" transform="matrix(12,0,0,12,1010.3,136.7)" />
<use xlink:href="#f1_m" transform="matrix(12,0,0,12,1021.7,136.7)" />
<use xlink:href="#f1_k" transform="matrix(12,0,0,12,1033.2,136.7)" />
<use xlink:href="#f1_g" transform="matrix(12,0,0,12,1044.6,136.7)" />
<use xlink:href="#f1_b" transform="matrix(12,0,0,12,1054.1,136.7)" />
<use xlink:href="#f1_i" transform="matrix(12,0,0,12,64.8,181)" />
<use xlink:href="#f1_g" transform="matrix(12,0,0,12,76.2,181)" />
<use xlink:href="#f1_b" transform="matrix(12,0,0,12,85.8,181)" />
<use xlink:href="#f1_l" transform="matrix(12,0,0,12,97.1,181)" />
<use xlink:href="#f1_4" transform="matrix(12,0,0,12,104.5,181)" />
<use xlink:href="#f1_k" transform="matrix(12,0,0,12,116.1,181)" />
<use xlink:href="#f1_8" transform="matrix(12,0,0,12,127.4,181)" />
<use xlink:href="#f1_b" transform="matrix(12,0,0,12,145.1,181)" />
<use xlink:href="#f1_j" transform="matrix(12,0,0,12,162.3,181)" />
<use xlink:href="#f1_9" transform="matrix(12,0,0,12,174.1,181)" />
<use xlink:href="#f1_k" transform="matrix(12,0,0,12,185.7,181)" />
<use xlink:href="#f1_g" transform="matrix(12,0,0,12,197,181)" />
<use xlink:href="#f1_g" transform="matrix(12,0,0,12,206.6,181)" />
<use xlink:href="#f1_12" transform="matrix(12,0,0,12,216.1,181)" />
<use xlink:href="#f1_7" transform="matrix(12,0,0,12,231.1,181)" />
<use xlink:href="#f1_l" transform="matrix(12,0,0,12,242.4,181)" />
<use xlink:href="#f1_h" transform="matrix(12,0,0,12,249.5,181)" />
<use xlink:href="#f1_k" transform="matrix(12,0,0,12,267.2,181)" />
<use xlink:href="#f1_4" transform="matrix(12,0,0,12,278.5,181)" />
<use xlink:href="#f1_h" transform="matrix(12,0,0,12,290.1,181)" />
<use xlink:href="#f1_h" transform="matrix(12,0,0,12,307.7,181)" />
<use xlink:href="#f1_k" transform="matrix(12,0,0,12,319.4,181)" />
<use xlink:href="#f1_c" transform="matrix(12,0,0,12,330.7,181)" />
<use xlink:href="#f1_k" transform="matrix(12,0,0,12,337.9,181)" />
<use xlink:href="#f1_m" transform="matrix(12,0,0,12,349.2,181)" />
<use xlink:href="#f1_k" transform="matrix(12,0,0,12,360.8,181)" />
<use xlink:href="#f1_g" transform="matrix(12,0,0,12,372.3,181)" />
<use xlink:href="#f1_b" transform="matrix(12,0,0,12,381.7,181)" />
<use xlink:href="#f1_g" transform="matrix(12,0,0,12,399,181)" />
<use xlink:href="#f1_b" transform="matrix(12,0,0,12,408.5,181)" />
<use xlink:href="#f1_l" transform="matrix(12,0,0,12,419.7,181)" />
<use xlink:href="#f1_q" transform="matrix(12,0,0,12,427.5,181)" />
<use xlink:href="#f1_d" transform="matrix(12,0,0,12,438.4,181)" />
<use xlink:href="#f1_6" transform="matrix(12,0,0,12,443.4,181)" />
<use xlink:href="#f1_b" transform="matrix(12,0,0,12,453.6,181)" />
<use xlink:href="#f1_4" transform="matrix(12,0,0,12,470.9,181)" />
<use xlink:href="#f1_k" transform="matrix(12,0,0,12,482.5,181)" />
<use xlink:href="#f1_8" transform="matrix(12,0,0,12,493.8,181)" />
<use xlink:href="#f1_b" transform="matrix(12,0,0,12,511.6,181)" />
<use xlink:href="#f1_1c" transform="matrix(12,0,0,12,522.9,181)" />
<use xlink:href="#f0_q" transform="matrix(12,0,0,12,38.5,238.9)" />
<use xlink:href="#f1_6" transform="matrix(12,0,0,12,64.8,240.2)" />
<use xlink:href="#f1_7" transform="matrix(12,0,0,12,75,240.2)" />
<use xlink:href="#f1_4" transform="matrix(12,0,0,12,86.1,240.2)" />
<use xlink:href="#f1_4" transform="matrix(12,0,0,12,97.7,240.2)" />
<use xlink:href="#f1_b" transform="matrix(12,0,0,12,109.2,240.2)" />
<use xlink:href="#f1_6" transform="matrix(12,0,0,12,120.6,240.2)" />
<use xlink:href="#f1_c" transform="matrix(12,0,0,12,130.9,240.2)" />
<use xlink:href="#f1_1i" transform="matrix(12,0,0,12,138,240.2)" />
<use xlink:href="#f1_o" transform="matrix(12,0,0,12,145.1,240.2)" />
<use xlink:href="#f1_e" transform="matrix(12,0,0,12,164.4,240.2)" />
<use xlink:href="#f1_i" transform="matrix(12,0,0,12,170.8,240.2)" />
<use xlink:href="#f1_4" transform="matrix(12,0,0,12,182.4,240.2)" />
<use xlink:href="#f1_6" transform="matrix(12,0,0,12,194,240.2)" />
<use xlink:href="#f1_c" transform="matrix(12,0,0,12,204.3,240.2)" />
<use xlink:href="#f1_d" transform="matrix(12,0,0,12,211.4,240.2)" />
<use xlink:href="#f1_7" transform="matrix(12,0,0,12,216.5,240.2)" />
<use xlink:href="#f1_4" transform="matrix(12,0,0,12,227.8,240.2)" />
<use xlink:href="#f1_l" transform="matrix(12,0,0,12,251.4,240.2)" />
<use xlink:href="#f1_b" transform="matrix(12,0,0,12,258.6,240.2)" />
<use xlink:href="#f1_c" transform="matrix(12,0,0,12,269.9,240.2)" />
<use xlink:href="#f1_i" transform="matrix(12,0,0,12,277.1,240.2)" />
<use xlink:href="#f1_l" transform="matrix(12,0,0,12,288.7,240.2)" />
<use xlink:href="#f1_4" transform="matrix(12,0,0,12,296.1,240.2)" />
<use xlink:href="#f1_g" transform="matrix(12,0,0,12,307.5,240.2)" />
<use xlink:href="#f1_c" transform="matrix(12,0,0,12,329.3,240.2)" />
<use xlink:href="#f1_f" transform="matrix(12,0,0,12,336.5,240.2)" />
<use xlink:href="#f1_b" transform="matrix(12,0,0,12,348,240.2)" />
<use xlink:href="#f2_n" transform="matrix(12,0,0,12,371.7,240.2)" />
<use xlink:href="#f2_3" transform="matrix(12,0,0,12,384.5,240.2)" />
<use xlink:href="#f2_b" transform="matrix(12,0,0,12,395.8,240.2)" />
<use xlink:href="#f2_b" transform="matrix(12,0,0,12,407.3,240.2)" />
<use xlink:href="#f2_j" transform="matrix(12,0,0,12,418.9,240.2)" />
<use xlink:href="#f2_d" transform="matrix(12,0,0,12,430.2,240.2)" />
<use xlink:href="#f2_6" transform="matrix(12,0,0,12,440.2,240.2)" />
<use xlink:href="#f2_a" transform="matrix(12,0,0,12,447.4,240.2)" />
<use xlink:href="#f2_3" transform="matrix(12,0,0,12,452.5,240.2)" />
<use xlink:href="#f2_b" transform="matrix(12,0,0,12,463.8,240.2)" />
<use xlink:href="#f1_7" transform="matrix(12,0,0,12,487.5,240.2)" />
<use xlink:href="#f1_m" transform="matrix(12,0,0,12,498.6,240.2)" />
<use xlink:href="#f1_1q" transform="matrix(12,0,0,12,510.3,240.2)" />
<use xlink:href="#f1_b" transform="matrix(12,0,0,12,515.4,240.2)" />
<use xlink:href="#f1_6" transform="matrix(12,0,0,12,526.7,240.2)" />
<use xlink:href="#f1_c" transform="matrix(12,0,0,12,536.9,240.2)" />
<use xlink:href="#f1_1c" transform="matrix(12,0,0,12,544.1,240.2)" />
<use xlink:href="#f1_1h" transform="matrix(12,0,0,12,562.1,240.2)" />
<use xlink:href="#f1_6" transform="matrix(12,0,0,12,574.2,240.2)" />
<use xlink:href="#f1_6" transform="matrix(12,0,0,12,584.4,240.2)" />
<use xlink:href="#f1_b" transform="matrix(12,0,0,12,594.8,240.2)" />
<use xlink:href="#f1_g" transform="matrix(12,0,0,12,606.1,240.2)" />
<use xlink:href="#f1_g" transform="matrix(12,0,0,12,615.7,240.2)" />
<use xlink:href="#f1_c" transform="matrix(12,0,0,12,637.4,240.2)" />
<use xlink:href="#f1_7" transform="matrix(12,0,0,12,644.4,240.2)" />
<use xlink:href="#f1_c" transform="matrix(12,0,0,12,667.7,240.2)" />
<use xlink:href="#f1_f" transform="matrix(12,0,0,12,674.9,240.2)" />
<use xlink:href="#f1_b" transform="matrix(12,0,0,12,686.5,240.2)" />
<use xlink:href="#f1_h" transform="matrix(12,0,0,12,710,240.2)" />
<use xlink:href="#f1_k" transform="matrix(12,0,0,12,721.8,240.2)" />
<use xlink:href="#f1_c" transform="matrix(12,0,0,12,733.1,240.2)" />
<use xlink:href="#f1_k" transform="matrix(12,0,0,12,740.3,240.2)" />
<use xlink:href="#f1_m" transform="matrix(12,0,0,12,751.7,240.2)" />
<use xlink:href="#f1_k" transform="matrix(12,0,0,12,763.2,240.2)" />
<use xlink:href="#f1_g" transform="matrix(12,0,0,12,774.5,240.2)" />
<use xlink:href="#f1_b" transform="matrix(12,0,0,12,784.1,240.2)" />
<use xlink:href="#f1_d" transform="matrix(12,0,0,12,807.6,240.2)" />
<use xlink:href="#f1_g" transform="matrix(12,0,0,12,812.7,240.2)" />
<use xlink:href="#f1_8" transform="matrix(12,0,0,12,834.4,240.2)" />
<use xlink:href="#f1_k" transform="matrix(12,0,0,12,852.2,240.2)" />
<use xlink:href="#f1_h" transform="matrix(12,0,0,12,863.6,240.2)" />
<use xlink:href="#f1_b" transform="matrix(12,0,0,12,875.2,240.2)" />
<use xlink:href="#f1_k" transform="matrix(12,0,0,12,898.8,240.2)" />
<use xlink:href="#f1_q" transform="matrix(12,0,0,12,910.1,240.2)" />
<use xlink:href="#f1_k" transform="matrix(12,0,0,12,921,240.2)" />
<use xlink:href="#f1_d" transform="matrix(12,0,0,12,932.3,240.2)" />
<use xlink:href="#f1_a" transform="matrix(12,0,0,12,937.4,240.2)" />
<use xlink:href="#f1_k" transform="matrix(12,0,0,12,942.5,240.2)" />
<use xlink:href="#f1_m" transform="matrix(12,0,0,12,953.9,240.2)" />
<use xlink:href="#f1_a" transform="matrix(12,0,0,12,965.4,240.2)" />
<use xlink:href="#f1_b" transform="matrix(12,0,0,12,970.5,240.2)" />
<use xlink:href="#f1_c" transform="matrix(12,0,0,12,994.1,240.2)" />
<use xlink:href="#f1_f" transform="matrix(12,0,0,12,1001.2,240.2)" />
<use xlink:href="#f1_l" transform="matrix(12,0,0,12,1012.8,240.2)" />
<use xlink:href="#f1_7" transform="matrix(12,0,0,12,1019.9,240.2)" />
<use xlink:href="#f1_i" transform="matrix(12,0,0,12,1031.2,240.2)" />
<use xlink:href="#f1_x" transform="matrix(12,0,0,12,1042.6,240.2)" />
<use xlink:href="#f1_f" transform="matrix(12,0,0,12,1054.4,240.2)" />
<use xlink:href="#f1_6" transform="matrix(12,0,0,12,64.8,284.6)" />
<use xlink:href="#f1_7" transform="matrix(12,0,0,12,75,284.6)" />
<use xlink:href="#f1_4" transform="matrix(12,0,0,12,86.1,284.6)" />
<use xlink:href="#f1_4" transform="matrix(12,0,0,12,97.7,284.6)" />
<use xlink:href="#f1_b" transform="matrix(12,0,0,12,109.2,284.6)" />
<use xlink:href="#f1_6" transform="matrix(12,0,0,12,120.6,284.6)" />
<use xlink:href="#f1_c" transform="matrix(12,0,0,12,130.9,284.6)" />
<use xlink:href="#f1_d" transform="matrix(12,0,0,12,138,284.6)" />
<use xlink:href="#f1_7" transform="matrix(12,0,0,12,143.1,284.6)" />
<use xlink:href="#f1_4" transform="matrix(12,0,0,12,154.4,284.6)" />
<use xlink:href="#f1_7" transform="matrix(12,0,0,12,171.8,284.6)" />
<use xlink:href="#f1_m" transform="matrix(12,0,0,12,182.9,284.6)" />
<use xlink:href="#f1_1q" transform="matrix(12,0,0,12,194.4,284.6)" />
<use xlink:href="#f1_b" transform="matrix(12,0,0,12,199.5,284.6)" />
<use xlink:href="#f1_6" transform="matrix(12,0,0,12,210.8,284.6)" />
<use xlink:href="#f1_c" transform="matrix(12,0,0,12,221.2,284.6)" />
<use xlink:href="#f1_g" transform="matrix(12,0,0,12,228.2,284.6)" />
<use xlink:href="#f1_1c" transform="matrix(12,0,0,12,237.8,284.6)" />
<use xlink:href="#f0_q" transform="matrix(12,0,0,12,38.5,342.5)" />
<use xlink:href="#f2_n" transform="matrix(12,0,0,12,64.8,343.6)" />
<use xlink:href="#f2_3" transform="matrix(12,0,0,12,77.6,343.6)" />
<use xlink:href="#f2_b" transform="matrix(12,0,0,12,88.7,343.6)" />
<use xlink:href="#f2_b" transform="matrix(12,0,0,12,100.3,343.6)" />
<use xlink:href="#f2_j" transform="matrix(12,0,0,12,111.8,343.6)" />
<use xlink:href="#f2_d" transform="matrix(12,0,0,12,123.1,343.6)" />
<use xlink:href="#f2_6" transform="matrix(12,0,0,12,133.3,343.6)" />
<use xlink:href="#f2_a" transform="matrix(12,0,0,12,140.3,343.6)" />
<use xlink:href="#f2_3" transform="matrix(12,0,0,12,145.5,343.6)" />
<use xlink:href="#f2_b" transform="matrix(12,0,0,12,156.6,343.6)" />
<use xlink:href="#f1_6" transform="matrix(12,0,0,12,174.2,343.6)" />
<use xlink:href="#f1_a" transform="matrix(12,0,0,12,184.5,343.6)" />
<use xlink:href="#f1_k" transform="matrix(12,0,0,12,189.6,343.6)" />
<use xlink:href="#f1_g" transform="matrix(12,0,0,12,201,343.6)" />
<use xlink:href="#f1_g" transform="matrix(12,0,0,12,210.5,343.6)" />
<use xlink:href="#f1_f" transform="matrix(12,0,0,12,225.9,343.6)" />
<use xlink:href="#f1_k" transform="matrix(12,0,0,12,237.4,343.6)" />
<use xlink:href="#f1_4" transform="matrix(12,0,0,12,248.8,343.6)" />
<use xlink:href="#f1_h" transform="matrix(12,0,0,12,260.3,343.6)" />
<use xlink:href="#f1_a" transform="matrix(12,0,0,12,272,343.6)" />
<use xlink:href="#f1_b" transform="matrix(12,0,0,12,277.2,343.6)" />
<use xlink:href="#f1_g" transform="matrix(12,0,0,12,288.5,343.6)" />
<use xlink:href="#f1_c" transform="matrix(12,0,0,12,303.9,343.6)" />
<use xlink:href="#f1_f" transform="matrix(12,0,0,12,311.1,343.6)" />
<use xlink:href="#f1_b" transform="matrix(12,0,0,12,322.6,343.6)" />
<use xlink:href="#f1_6" transform="matrix(12,0,0,12,339.8,343.6)" />
<use xlink:href="#f1_7" transform="matrix(12,0,0,12,350,343.6)" />
<use xlink:href="#f1_4" transform="matrix(12,0,0,12,361.3,343.6)" />
<use xlink:href="#f1_4" transform="matrix(12,0,0,12,372.8,343.6)" />
<use xlink:href="#f1_b" transform="matrix(12,0,0,12,384.4,343.6)" />
<use xlink:href="#f1_6" transform="matrix(12,0,0,12,395.7,343.6)" />
<use xlink:href="#f1_c" transform="matrix(12,0,0,12,405.9,343.6)" />
<use xlink:href="#f1_d" transform="matrix(12,0,0,12,413.1,343.6)" />
<use xlink:href="#f1_7" transform="matrix(12,0,0,12,418.2,343.6)" />
<use xlink:href="#f1_4" transform="matrix(12,0,0,12,429.4,343.6)" />
<use xlink:href="#f1_c" transform="matrix(12,0,0,12,446.8,343.6)" />
<use xlink:href="#f1_7" transform="matrix(12,0,0,12,454,343.6)" />
<use xlink:href="#f1_k" transform="matrix(12,0,0,12,470.9,343.6)" />
<use xlink:href="#f1_h" transform="matrix(12,0,0,12,488.2,343.6)" />
<use xlink:href="#f1_k" transform="matrix(12,0,0,12,499.9,343.6)" />
<use xlink:href="#f1_c" transform="matrix(12,0,0,12,511.2,343.6)" />
<use xlink:href="#f1_k" transform="matrix(12,0,0,12,518.4,343.6)" />
<use xlink:href="#f1_m" transform="matrix(12,0,0,12,529.7,343.6)" />
<use xlink:href="#f1_k" transform="matrix(12,0,0,12,541.3,343.6)" />
<use xlink:href="#f1_g" transform="matrix(12,0,0,12,552.8,343.6)" />
<use xlink:href="#f1_b" transform="matrix(12,0,0,12,562.2,343.6)" />
<use xlink:href="#f1_d" transform="matrix(12,0,0,12,579.5,343.6)" />
<use xlink:href="#f1_4" transform="matrix(12,0,0,12,584.5,343.6)" />
<use xlink:href="#f1_g" transform="matrix(12,0,0,12,596.1,343.6)" />
<use xlink:href="#f1_c" transform="matrix(12,0,0,12,605.6,343.6)" />
<use xlink:href="#f1_k" transform="matrix(12,0,0,12,612.8,343.6)" />
<use xlink:href="#f1_4" transform="matrix(12,0,0,12,624.2,343.6)" />
<use xlink:href="#f1_6" transform="matrix(12,0,0,12,635.7,343.6)" />
<use xlink:href="#f1_b" transform="matrix(12,0,0,12,645.9,343.6)" />
<use xlink:href="#f1_1c" transform="matrix(12,0,0,12,657.3,343.6)" />
<use xlink:href="#f1_u" transform="matrix(12,0,0,12,669.1,343.6)" />
<use xlink:href="#f1_c" transform="matrix(12,0,0,12,674.3,343.6)" />
<use xlink:href="#f1_b" transform="matrix(12,0,0,12,687.3,343.6)" />
<use xlink:href="#f1_4" transform="matrix(12,0,0,12,698.7,343.6)" />
<use xlink:href="#f1_6" transform="matrix(12,0,0,12,710.2,343.6)" />
<use xlink:href="#f1_k" transform="matrix(12,0,0,12,720.5,343.6)" />
<use xlink:href="#f1_9" transform="matrix(12,0,0,12,731.8,343.6)" />
<use xlink:href="#f1_g" transform="matrix(12,0,0,12,743.4,343.6)" />
<use xlink:href="#f1_i" transform="matrix(12,0,0,12,752.9,343.6)" />
<use xlink:href="#f1_a" transform="matrix(12,0,0,12,764.5,343.6)" />
<use xlink:href="#f1_k" transform="matrix(12,0,0,12,769.6,343.6)" />
<use xlink:href="#f1_c" transform="matrix(12,0,0,12,781,343.6)" />
<use xlink:href="#f1_b" transform="matrix(12,0,0,12,788,343.6)" />
<use xlink:href="#f1_g" transform="matrix(12,0,0,12,799.5,343.6)" />
<use xlink:href="#f1_k" transform="matrix(12,0,0,12,814.9,343.6)" />
<use xlink:href="#f1_h" transform="matrix(12,0,0,12,832,343.6)" />
<use xlink:href="#f1_k" transform="matrix(12,0,0,12,843.7,343.6)" />
<use xlink:href="#f1_c" transform="matrix(12,0,0,12,855.2,343.6)" />
<use xlink:href="#f1_k" transform="matrix(12,0,0,12,862.2,343.6)" />
<use xlink:href="#f1_m" transform="matrix(12,0,0,12,873.6,343.6)" />
<use xlink:href="#f1_k" transform="matrix(12,0,0,12,885.1,343.6)" />
<use xlink:href="#f1_g" transform="matrix(12,0,0,12,896.5,343.6)" />
<use xlink:href="#f1_b" transform="matrix(12,0,0,12,906,343.6)" />
<use xlink:href="#f1_g" transform="matrix(12,0,0,12,923.3,343.6)" />
<use xlink:href="#f1_b" transform="matrix(12,0,0,12,932.9,343.6)" />
<use xlink:href="#f1_g" transform="matrix(12,0,0,12,944.2,343.6)" />
<use xlink:href="#f1_g" transform="matrix(12,0,0,12,953.7,343.6)" />
<use xlink:href="#f1_d" transform="matrix(12,0,0,12,963.3,343.6)" />
<use xlink:href="#f1_7" transform="matrix(12,0,0,12,968.3,343.6)" />
<use xlink:href="#f1_4" transform="matrix(12,0,0,12,979.4,343.6)" />
<use xlink:href="#f1_1c" transform="matrix(12,0,0,12,991.1,343.6)" />
<use xlink:href="#f0_q" transform="matrix(12,0,0,12,38.5,401.5)" />
<use xlink:href="#f1_11" transform="matrix(12,0,0,12,64.8,402.6)" />
<use xlink:href="#f1_7" transform="matrix(12,0,0,12,78.5,402.6)" />
<use xlink:href="#f1_c" transform="matrix(12,0,0,12,89.7,402.6)" />
<use xlink:href="#f1_b" transform="matrix(12,0,0,12,96.8,402.6)" />
<use xlink:href="#f1_1z" transform="matrix(12,0,0,12,114.1,402.6)" />
<use xlink:href="#f1_1e" transform="matrix(12,0,0,12,129,402.6)" />
<use xlink:href="#f1_b" transform="matrix(12,0,0,12,146.1,402.6)" />
<use xlink:href="#f1_12" transform="matrix(12,0,0,12,163.4,402.6)" />
<use xlink:href="#f1_d" transform="matrix(12,0,0,12,178.4,402.6)" />
<use xlink:href="#f1_a" transform="matrix(12,0,0,12,183.4,402.6)" />
<use xlink:href="#f1_a" transform="matrix(12,0,0,12,188.6,402.6)" />
<use xlink:href="#f1_h" transform="matrix(12,0,0,12,199.5,402.6)" />
<use xlink:href="#f1_d" transform="matrix(12,0,0,12,211.3,402.6)" />
<use xlink:href="#f1_g" transform="matrix(12,0,0,12,216.3,402.6)" />
<use xlink:href="#f1_6" transform="matrix(12,0,0,12,225.9,402.6)" />
<use xlink:href="#f1_i" transform="matrix(12,0,0,12,236.2,402.6)" />
<use xlink:href="#f1_g" transform="matrix(12,0,0,12,247.8,402.6)" />
<use xlink:href="#f1_g" transform="matrix(12,0,0,12,257.2,402.6)" />
<use xlink:href="#f1_8" transform="matrix(12,0,0,12,272.7,402.6)" />
<use xlink:href="#f1_7" transform="matrix(12,0,0,12,290.4,402.6)" />
<use xlink:href="#f1_l" transform="matrix(12,0,0,12,301.5,402.6)" />
<use xlink:href="#f1_b" transform="matrix(12,0,0,12,308.7,402.6)" />
<use xlink:href="#f1_k" transform="matrix(12,0,0,12,326,402.6)" />
<use xlink:href="#f1_m" transform="matrix(12,0,0,12,337.3,402.6)" />
<use xlink:href="#f1_7" transform="matrix(12,0,0,12,348.9,402.6)" />
<use xlink:href="#f1_i" transform="matrix(12,0,0,12,360,402.6)" />
<use xlink:href="#f1_c" transform="matrix(12,0,0,12,371.6,402.6)" />
<use xlink:href="#f1_6" transform="matrix(12,0,0,12,384.6,402.6)" />
<use xlink:href="#f1_a" transform="matrix(12,0,0,12,394.8,402.6)" />
<use xlink:href="#f1_k" transform="matrix(12,0,0,12,400,402.6)" />
<use xlink:href="#f1_g" transform="matrix(12,0,0,12,411.3,402.6)" />
<use xlink:href="#f1_g" transform="matrix(12,0,0,12,420.9,402.6)" />
<use xlink:href="#f1_b" transform="matrix(12,0,0,12,430.4,402.6)" />
<use xlink:href="#f1_g" transform="matrix(12,0,0,12,441.7,402.6)" />
<use xlink:href="#f1_k" transform="matrix(12,0,0,12,457.1,402.6)" />
<use xlink:href="#f1_4" transform="matrix(12,0,0,12,468.5,402.6)" />
<use xlink:href="#f1_h" transform="matrix(12,0,0,12,480,402.6)" />
<use xlink:href="#f1_7" transform="matrix(12,0,0,12,497.6,402.6)" />
<use xlink:href="#f1_m" transform="matrix(12,0,0,12,508.8,402.6)" />
<use xlink:href="#f1_1q" transform="matrix(12,0,0,12,520.3,402.6)" />
<use xlink:href="#f1_b" transform="matrix(12,0,0,12,525.5,402.6)" />
<use xlink:href="#f1_6" transform="matrix(12,0,0,12,536.8,402.6)" />
<use xlink:href="#f1_c" transform="matrix(12,0,0,12,547,402.6)" />
<use xlink:href="#f1_g" transform="matrix(12,0,0,12,554.2,402.6)" />
<use xlink:href="#f1_d" transform="matrix(12,0,0,12,569.6,402.6)" />
<use xlink:href="#f1_4" transform="matrix(12,0,0,12,574.8,402.6)" />
<use xlink:href="#f1_1d" transform="matrix(12,0,0,12,592.2,402.6)" />
<use xlink:href="#f1_7" transform="matrix(12,0,0,12,607.9,402.6)" />
<use xlink:href="#f1_h" transform="matrix(12,0,0,12,619,402.6)" />
<use xlink:href="#f1_i" transform="matrix(12,0,0,12,630.8,402.6)" />
<use xlink:href="#f1_a" transform="matrix(12,0,0,12,642.2,402.6)" />
<use xlink:href="#f1_b" transform="matrix(12,0,0,12,647.4,402.6)" />
<use xlink:href="#f1_10" transform="matrix(12,0,0,12,664.6,402.6)" />
<use xlink:href="#f1_1c" transform="matrix(12,0,0,12,676.4,402.6)" />
</g>
</g>
<image x="45" y="449" width="1051" height="429" xlink:href="img/2.png" />
<defs>
	<path d="M264.3,297.9c0,0,-42.8,0,-79.4,16.8c0,0,-36.7,16.8,-64.2,44.3c0,0,-29,29.1,-44.3,67.3c0,0,-16.8,38.1,-16.8,82.5c0,0,0,41.2,15.3,77.9c0,0,16.8,38.2,44.3,65.7c0,0,29,27.5,65.7,42.7c0,0,36.6,16.8,79.4,16.8c0,0,42.8,0,81,-15.2c0,0,38.2,-16.8,65.7,-44.3c0,0,29,-27.5,45.8,-64.2c0,0,16.8,-38.2,16.8,-79.4c0,0,0,-44.4,-16.8,-82.5c0,0,-16.8,-38.2,-44.3,-65.7c0,0,-29,-29.1,-67.2,-45.9c0,0,-38.2,-16.8,-81,-16.8Z" 
	id="f0_q"
	transform="scale(0.001,-0.001)" />

	<path d="M727.2,411L521,964L317.8,411ZM10.7,0L436.9,1113.8l169.6,0L1031.3,0L875.4,0L773.1,285.7l-501.2,0L169.6,0Z" 
	id="f1_1h"
	transform="scale(0.001,-0.001)" />

	<path d="M165,0l0,728.8l-131.4,0l0,105.4l131.4,0l0,58c0,0,0,140.6,64.2,203.2c0,0,65.7,64.2,207.7,64.2l129.9,0l0,-113.1l-131.4,0c0,0,-74.8,0,-102.3,-30.5c0,0,-29.1,-30.6,-29.1,-107l0,-74.8l226.1,0l0,-105.4l-226.1,0L304,0Z" 
	id="f1_e"
	transform="scale(0.001,-0.001)" />

	<path d="M420.1,0c0,0,-158.8,0,-218.4,58.1c0,0,-61.1,59.5,-61.1,216.9l0,453.8l-100.9,0l0,105.4l100.9,0l0,238.3l139,0l0,-238.3l282.6,0l0,-105.4l-282.6,0l0,-453.8c0,0,0,-102.4,27.5,-131.4c0,0,27.5,-29,113,-29l142.1,0L562.2,0Z" 
	id="f1_c"
	transform="scale(0.001,-0.001)" />

	<path d="M230.7,490.4l490.4,1.5c0,0,-1.5,111.6,-62.6,178.8c0,0,-62.7,67.2,-163.5,67.2c0,0,-114.6,0,-183.3,-64.1c0,0,-70.3,-65.7,-81,-183.4ZM516.4,-21.3c0,0,-198.6,0,-314.7,116C201.7,94.7,84,210.8,84,409.4c0,0,0,204.8,110,325.5c0,0,111.6,120.7,299.5,120.7c0,0,168,0,265.8,-108.5c0,0,99.3,-110,99.3,-296.4l0,-67.2l-632.5,0c0,0,9.2,-140.6,85.6,-213.9c0,0,76.4,-74.9,213.9,-74.9c0,0,77.9,0,152.7,18.4c0,0,74.9,19.8,148.2,58l0,-129.8c0,0,-74.8,-30.6,-151.2,-45.8c0,0,-77.9,-16.8,-158.9,-16.8Z" 
	id="f1_b"
	transform="scale(0.001,-0.001)" />

	<path d="M137.5,0l0,834.2l139,0l0,-129.9c0,0,42.8,76.4,111.6,113.1c0,0,70.2,38.2,169.5,38.2c0,0,13.8,0,30.6,-1.6c0,0,16.8,-3,38.2,-6.1l1.5,-142.1c0,0,-24.4,13.8,-50.4,19.9c0,0,-27.5,6.1,-61.1,6.1c0,0,-116.1,0,-177.2,-74.9c0,0,-62.7,-76.3,-62.7,-216.9l0,-440Z" 
	id="f1_l"
	transform="scale(0.001,-0.001)" />

	<path d="M375.8,-21.3c0,0,-67.2,0,-140.5,12.2c0,0,-73.4,12.2,-152.8,39.7l0,140.5c0,0,76.4,-39.7,149.7,-58c0,0,73.4,-19.9,146.7,-19.9c0,0,96.2,0,148.2,32.1c0,0,51.9,33.6,51.9,94.7c0,0,0,55,-36.6,84c0,0,-38.2,30.6,-165,58.1l-48.9,12.2c0,0,-126.8,26,-183.4,81c0,0,-56.5,56.5,-56.5,152.8c0,0,0,119.1,82.5,183.3c0,0,84,64.2,238.3,64.2c0,0,74.9,0,142.1,-10.7c0,0,67.3,-12.3,123.8,-35.2l0,-129.8c0,0,-58.1,30.5,-120.7,44.3c0,0,-62.7,15.2,-129.9,15.2c0,0,-102.3,0,-152.8,-30.5c0,0,-50.4,-32.1,-50.4,-94.7c0,0,0,-47.4,35.2,-74.9c0,0,36.6,-27.5,148.2,-51.9l45.8,-10.7c0,0,146.7,-30.6,207.8,-87.1c0,0,62.6,-58.1,62.6,-160.4c0,0,0,-116.1,-91.7,-183.4c0,0,-93.1,-67.1,-253.6,-67.1Z" 
	id="f1_g"
	transform="scale(0.001,-0.001)" />

	<path d="M421.7,-21.3c0,0,-143.6,0,-218.5,88.5L128.3,328.5l0,505.7l137.5,0l0,-499.6c0,0,0,-119.2,45.9,-178.8c0,0,47.3,-59.5,139,-59.5c0,0,111.5,0,175.7,70.2c0,0,65.7,71.8,65.7,194.1l0,473.6l136,0L828.1,0l-136,0l0,126.8c0,0,-50.4,-74.9,-116.1,-111.5c0,0,-67.2,-36.6,-154.3,-36.6Z" 
	id="f1_i"
	transform="scale(0.001,-0.001)" />

	<path d="M495,-21.3c0,0,-189.4,0,-299.4,117.6C195.6,96.3,84,215.4,84,415.6c0,0,0,204.7,111.6,322.3c0,0,113,117.7,308.6,117.7c0,0,62.6,0,122.2,-13.8c0,0,61.1,-13.7,117.6,-39.7l0,-128.3c0,0,-58,32,-116.1,47.3c0,0,-58,16.8,-119.1,16.8c0,0,-133,0,-206.3,-84c0,0,-74.9,-84,-74.9,-238.3c0,0,0,-152.8,73.4,-236.8c0,0,74.8,-84.1,207.8,-84.1c0,0,61.1,0,119.1,15.3c0,0,58.1,16.8,116.1,48.9L744,30.6c0,0,-56.5,-26,-117.6,-38.1c0,0,-62.6,-13.8,-131.4,-13.8Z" 
	id="f1_6"
	transform="scale(0.001,-0.001)" />

	<path d="M143,0l0,1159l138,0L281,0Z" 
	id="f1_a"
	transform="scale(0.001,-0.001)" />

	<path d="M143,0l0,834l138,0L281,0Zm0,985l0,174l138,0l0,-174Z" 
	id="f1_d"
	transform="scale(0.001,-0.001)" />

	<path d="M137.5,0l0,834.2l139,0l0,-129.9c0,0,48.9,76.4,114.6,113.1c0,0,67.2,38.2,154.3,38.2c0,0,145.2,0,218.5,-88.7c0,0,73.3,-90.1,73.3,-262.7L837.2,0L699.7,0l0,499.6c0,0,0,117.6,-45.8,175.7c0,0,-45.8,59.6,-139,59.6c0,0,-110,0,-174.2,-70.3c0,0,-64.2,-70.3,-64.2,-192.5L276.5,0Z" 
	id="f1_4"
	transform="scale(0.001,-0.001)" />

	<path d="M407.9,93.2c0,0,113.1,0,181.8,79.4c0,0,70.3,81,70.3,215.5l0,30.5l-137.5,0c0,0,-166.5,0,-230.7,-36.7c0,0,-64.2,-38.1,-64.2,-129.8c0,0,0,-73.3,47.4,-116.1c0,0,48.9,-42.8,132.9,-42.8ZM371.3,-21.3c0,0,-128.4,0,-203.2,71.7c0,0,-76.4,71.8,-76.4,192.5c0,0,0,140.6,93.2,212.4c0,0,94.7,71.8,282.6,71.8l192.5,0l0,13.7c0,0,0,94.8,-62.6,145.2c0,0,-62.7,51.9,-175.7,51.9c0,0,-71.8,0,-139.1,-16.8c0,0,-67.2,-16.8,-129.8,-51.9l0,126.8c0,0,74.8,30.5,145.1,44.3c0,0,71.8,15.3,139,15.3c0,0,180.3,0,268.9,-93.2c0,0,90.2,-94.8,90.2,-285.7L796,0L660,0l0,126.8c0,0,-47.4,-76.4,-117.6,-111.5c0,0,-70.3,-36.6,-171.1,-36.6Z" 
	id="f1_k"
	transform="scale(0.001,-0.001)" />

	<path d="M467.5,94.7c0,0,108.5,0,172.6,85.6c0,0,64.2,87.1,64.2,235.3c0,0,0,149.7,-64.2,235.2c0,0,-64.1,87.1,-172.6,87.1c0,0,-111.5,0,-175.7,-85.5c0,0,-64.2,-85.6,-64.2,-236.8c0,0,0,-149.8,64.2,-235.3c0,0,64.2,-85.6,175.7,-85.6Zm0,-116c0,0,-180.3,0,-281.1,116C186.4,94.7,84,210.8,84,415.6c0,0,0,206.2,100.9,322.3c0,0,102.3,117.7,282.6,117.7c0,0,178.8,0,281.1,-116.2c0,0,102.4,-117.6,102.4,-323.8c0,0,0,-204.8,-102.4,-320.9c0,0,-102.3,-116,-281.1,-116Z" 
	id="f1_7"
	transform="scale(0.001,-0.001)" />

	<path d="M42.8,0L368.2,436.9L70.3,834.2l161.9,0L453.8,537.8L675.3,834.2l161.9,0L536.3,427.8L854,0L692.1,0L447.6,326.9L204.7,0Z" 
	id="f1_v"
	transform="scale(0.001,-0.001)" />

	<path d="M-13,-359l0,106l790,0l0,-106Z" 
	id="f1_w"
	transform="scale(0.001,-0.001)" />

	<path d="M601.9,99.3c0,0,163.5,0,258.2,122.2c0,0,96.3,123.8,96.3,333.1c0,0,0,210.8,-94.7,333c0,0,-96.3,123.8,-259.8,123.8c0,0,-165,0,-261.2,-122.2c0,0,-96.3,-123.8,-96.3,-334.6c0,0,0,-209.3,96.3,-331.5c0,0,96.2,-123.8,261.2,-123.8Zm0,-120.6c0,0,-235.2,0,-375.8,155.7c0,0,-140.5,155.9,-140.5,420.2c0,0,0,264.3,140.5,421.7c0,0,140.6,157.3,375.8,157.3c0,0,233.8,0,372.8,-157.3c0,0,140.6,-157.4,140.6,-421.7c0,0,0,-262.8,-139,-418.6c0,0,-140.6,-157.3,-374.4,-157.3Z" 
	id="f1_3"
	transform="scale(0.001,-0.001)" />

	<path d="M117.6,-177.1L178.8,61.1l0,128.3l157.3,0l0,-128.3L213.9,-177.1Z" 
	id="f1_j"
	transform="scale(0.001,-0.001)" />

	<path d="M282.6,0L62.6,834.2l137.5,0L372.8,183.3L542.4,834.2l161.9,0L876.9,183.3l171.2,650.9l135.9,0L965.6,0l-162,0L624.9,684.4L444.6,0Z" 
	id="f1_12"
	transform="scale(0.001,-0.001)" />

	<path d="M458.3,93.2c0,0,110,0,172.7,85.6c0,0,62.6,85.5,62.6,236.8c0,0,0,152.7,-62.6,238.3c0,0,-62.7,85.5,-172.7,85.5c0,0,-108.4,0,-171.1,-85.5c0,0,-62.6,-85.6,-62.6,-238.3c0,0,0,-151.3,62.6,-236.8c0,0,62.7,-85.6,171.1,-85.6ZM424.7,-21.3c0,0,-151.2,0,-245.9,120.6C178.8,99.3,84,220,84,415.6c0,0,0,197,94.8,317.7c0,0,94.7,122.3,245.9,122.3c0,0,93.2,0,158.9,-36.7c0,0,65.7,-36.7,110,-111.5l0,452.2l136,0L829.6,0l-136,0l0,125.3c0,0,-44.3,-74.9,-110,-110c0,0,-65.7,-36.6,-158.9,-36.6Z" 
	id="f1_h"
	transform="scale(0.001,-0.001)" />

	<path d="M508.8,93.2c0,0,110,0,171.1,85.6c0,0,62.6,85.5,62.6,236.8c0,0,0,152.7,-61.1,238.3c0,0,-62.6,85.5,-172.6,85.5c0,0,-108.5,0,-169.6,-85.5c0,0,-62.7,-85.6,-62.7,-238.3c0,0,0,-151.3,61.1,-236.8c0,0,62.7,-85.6,171.2,-85.6ZM542.4,-21.3c0,0,-91.7,0,-157.4,35.1c0,0,-65.7,36.6,-108.5,111.5L276.5,0l-139,0l0,1159.6l139,0l0,-452.2c0,0,42.8,74.8,108.5,111.5c0,0,65.7,36.7,157.4,36.7c0,0,152.7,0,247.5,-120.7c0,0,96.2,-122.3,96.2,-319.3c0,0,0,-195.6,-94.7,-316.3c0,0,-96.3,-120.6,-249,-120.6Z" 
	id="f1_m"
	transform="scale(0.001,-0.001)" />

	<path d="M137.5,0l0,1159.6l139,0l0,-455.3c0,0,48.9,76.4,114.6,113.1c0,0,67.2,38.2,154.3,38.2c0,0,145.2,0,218.5,-88.7c0,0,73.3,-90.1,73.3,-262.7L837.2,0L699.7,0l0,499.6c0,0,0,117.6,-45.8,175.7c0,0,-45.8,59.6,-139,59.6c0,0,-110,0,-174.2,-70.3c0,0,-64.2,-70.3,-64.2,-192.5L276.5,0Z" 
	id="f1_f"
	transform="scale(0.001,-0.001)" />

	<path d="M137.5,0l0,834.2l139,0l0,-129.9c0,0,45.9,77.9,111.6,114.6c0,0,65.7,36.7,155.8,36.7c0,0,91.7,0,154.3,-45.9c0,0,64.2,-47.3,96.2,-135.9c0,0,50.5,93.1,122.3,137.5c0,0,71.8,44.3,168,44.3c0,0,131.4,0,201.7,-91.7c0,0,71.8,-91.7,71.8,-259.7L1358.2,0l-139,0l0,499.6c0,0,0,119.2,-41.3,177.2c0,0,-42.8,58.1,-129.8,58.1c0,0,-107,0,-168.1,-70.3c0,0,-62.6,-70.3,-62.6,-192.5L817.4,0L678.3,0l0,499.6c0,0,0,120.7,-41.2,177.2c0,0,-42.8,58.1,-131.4,58.1c0,0,-105.4,0,-166.5,-70.3c0,0,-62.7,-71.8,-62.7,-192.5L276.5,0Z" 
	id="f1_8"
	transform="scale(0.001,-0.001)" />

	<path d="M488.9,571.4c0,0,105.4,0,161.9,53.5c0,0,58.1,55,58.1,155.8c0,0,0,99.3,-56.5,152.8c0,0,-58.1,55,-163.5,55l-189.5,0l0,-417.1ZM149.7,0l0,1113.8l339.2,0c0,0,187.9,0,282.6,-84.1c0,0,96.3,-85.5,96.3,-249c0,0,0,-165,-94.7,-249c0,0,-96.3,-85.6,-284.2,-85.6l-189.5,0L299.4,0Z" 
	id="f1_s"
	transform="scale(0.001,-0.001)" />

	<path d="M120.7,-317.7l0,116.1l79.4,0c0,0,56.6,0,87.1,26c0,0,32.1,27.5,70.3,126.8l24.4,61L44.3,834.2l145.1,0L450.7,181.8L711.9,834.2l146.7,0L490.4,-76.3c0,0,-58,-149.7,-113,-195.5c0,0,-55,-45.9,-148.2,-45.9Z" 
	id="f1_r"
	transform="scale(0.001,-0.001)" />

	<path d="M508.8,93.2c0,0,110,0,171.1,85.6c0,0,62.6,85.5,62.6,236.8c0,0,0,152.7,-61.1,238.3c0,0,-62.6,85.5,-172.6,85.5c0,0,-108.5,0,-169.6,-85.5c0,0,-62.7,-85.6,-62.7,-238.3c0,0,0,-151.3,61.1,-236.8c0,0,62.7,-85.6,171.2,-85.6ZM137.5,-317.7l0,1151.9l139,0l0,-126.8c0,0,42.8,74.8,108.5,111.5c0,0,65.7,36.7,157.4,36.7c0,0,152.7,0,247.5,-120.7c0,0,96.2,-122.3,96.2,-319.3c0,0,0,-195.6,-94.7,-316.3c0,0,-96.3,-120.6,-249,-120.6c0,0,-91.7,0,-157.4,35.1c0,0,-65.7,36.6,-108.5,111.5l0,-443Z" 
	id="f1_9"
	transform="scale(0.001,-0.001)" />

	<path d="M458.3,114.6c0,0,111.6,0,172.7,81c0,0,62.6,82.5,62.6,230.7c0,0,0,149.7,-61.1,230.6c0,0,-62.6,82.5,-174.2,82.5c0,0,-110,0,-171.1,-80.9c0,0,-62.6,-82.5,-62.6,-232.2c0,0,0,-148.2,61.1,-229.2c0,0,62.6,-82.5,172.6,-82.5ZM444.6,-317.7c0,0,-71.8,0,-136,10.7c0,0,-64.2,12.2,-123.7,33.6l0,134.5c0,0,59.5,-33.6,117.6,-48.9c0,0,59.6,-15.3,120.7,-15.3c0,0,136,0,203.2,70.3c0,0,67.2,70.3,67.2,210.7l0,68.8c0,0,-42.8,-74.9,-108.5,-110C585.1,36.7,517.9,0,424.7,0c0,0,-152.8,0,-245.9,116.1c0,0,-94.8,117.7,-94.8,310.2c0,0,0,194,93.2,311.6c0,0,94.7,117.7,247.5,117.7c0,0,93.2,0,158.9,-36.7c0,0,67.2,-36.7,110,-111.5l0,126.8l136,0l0,-731.8c0,0,0,-210.8,-94.7,-314.7c0,0,-94.8,-105.4,-290.3,-105.4Z" 
	id="f1_x"
	transform="scale(0.001,-0.001)" />

	<path d="M161,0l0,189l158,0L319,0Z" 
	id="f1_1c"
	transform="scale(0.001,-0.001)" />

	<path d="M352.9,-200c0,0,-111.5,174.1,-166.5,342.1c0,0,-56.5,169.6,-56.5,336.1c0,0,0,166.5,55,334.6c0,0,56.5,169.6,168,345.3l120.7,0c0,0,-100.8,-171.2,-148.2,-339.2c0,0,-48.9,-168.1,-48.9,-340.7c0,0,0,-171.1,48.9,-339.2c0,0,48.9,-169.5,148.2,-339Z" 
	id="f1_1i"
	transform="scale(0.001,-0.001)" />

	<path d="M122.2,-200c0,0,99.3,169.5,146.7,337.5c0,0,48.9,169.6,48.9,340.7c0,0,0,172.6,-47.4,340.7c0,0,-48.9,168,-148.2,339.2l119.2,0c0,0,111.5,-175.7,166.5,-343.8c0,0,56.5,-169.6,56.5,-336.1c0,0,0,-166.5,-55,-334.6c0,0,-56.5,-169.5,-168,-343.6Z" 
	id="f1_o"
	transform="scale(0.001,-0.001)" />

	<path d="M357.5,0L44.3,834.2l145.1,0L450.7,132.9L711.9,834.2l146.7,0L543.9,0Z" 
	id="f1_q"
	transform="scale(0.001,-0.001)" />

	<path d="M517.9,-21.3c0,0,-213.9,0,-334.6,116c0,0,-120.7,116.1,-120.7,322.4c0,0,0,132.9,45.9,261.2c0,0,47.3,128.4,132.9,235.3c0,0,90.1,111.5,206.2,165c0,0,117.7,55,273.5,55c0,0,94.7,0,180.3,-26c0,0,85.5,-27.5,158.9,-80.9L1029.7,867.8c0,0,-71.8,73.3,-151.2,108.5c0,0,-81,35.1,-174.2,35.1c0,0,-126.8,0,-223,-61.1c0,0,-97.8,-61.1,-166.6,-187.9c0,0,-45.8,-79.5,-68.7,-169.6c0,0,-24.5,-90.2,-24.5,-180.3c0,0,0,-152.8,79.5,-232.2c0,0,79.4,-81,229.1,-81c0,0,103.9,0,198.7,33.6c0,0,96.2,33.6,186.3,99.3L880,55C880,55,791.4,16.8,701.3,-1.4c0,0,-91.7,-19.9,-183.4,-19.9Z" 
	id="f2_n"
	transform="scale(0.001,-0.001)" />

	<path d="M403.3,94.7c0,0,137.5,0,227.7,119.2c0,0,91.6,120.7,91.6,305.5c0,0,0,108.5,-48.8,163.5c0,0,-48.9,55,-142.1,55c0,0,-77.9,0,-137.5,-35.1c0,0,-61.1,-36.7,-108.5,-110c0,0,-35.1,-55,-53.5,-125.3c0,0,-19.8,-71.8,-19.8,-148.2c0,0,0,-113,47.3,-168c0,0,47.4,-56.6,143.6,-56.6Zm-16.8,-116c0,0,-146.6,0,-232.2,90.1c0,0,-85.5,90.1,-85.5,247.5c0,0,0,90.1,29,184.8c0,0,30.5,94.7,77.9,158.9c0,0,73.3,99.3,163.5,146.7c0,0,91.6,48.9,206.2,48.9c0,0,143.6,0,230.7,-88.7c0,0,87.1,-90.1,87.1,-232.2c0,0,0,-99.3,-29,-197.1c0,0,-29.1,-99.3,-74.9,-165C759.3,172.6,686,73.3,595.8,26c0,0,-91.6,-47.3,-209.3,-47.3Z" 
	id="f2_3"
	transform="scale(0.001,-0.001)" />

	<path d="M53.5,0L215.4,834.2l136,0L323.9,702.8c0,0,58,73.3,137.5,113c0,0,81,39.8,171.1,39.8c0,0,110,0,169.6,-59.6c0,0,61.1,-61.1,61.1,-168.1c0,0,0,-27.5,-3.1,-58c0,0,-3,-30.6,-9.1,-65.7L753.2,0l-139,0l97.7,498.1c0,0,7.7,35.1,10.7,61.1c0,0,4.6,27.5,4.6,44.3c0,0,0,62.6,-39.7,96.2c0,0,-39.7,35.2,-111.5,35.2c0,0,-110,0,-189.5,-73.4c0,0,-79.4,-73.3,-103.9,-198.6L189.4,0Z" 
	id="f2_b"
	transform="scale(0.001,-0.001)" />

	<path d="M241.4,490.4l491.9,1.5c0,0,3.1,12.3,3.1,24.5c0,0,1.5,12.2,1.5,24.4c0,0,0,91.7,-51.9,143.6c0,0,-53.5,53.5,-145.2,53.5c0,0,-102.3,0,-180.2,-64.1c0,0,-79.5,-64.2,-119.2,-183.4ZM430.8,-21.3c0,0,-174.1,0,-267.3,82.4c0,0,-94.7,82.5,-94.7,235.3c0,0,0,131.4,45.8,242.9c0,0,47.3,113.1,139,200.1c0,0,58.1,55,137.5,85.6c0,0,81,30.6,171.1,30.6c0,0,140.6,0,224.6,-85.6c0,0,84,-85.6,84,-229.2c0,0,0,-33.6,-4.5,-71.8c0,0,-4.6,-39.7,-12.3,-85.5l-638.6,0c0,0,-4.6,-27.5,-6.1,-44.3c0,0,-1.5,-16.8,-1.5,-27.5c0,0,0,-103.9,62.6,-160.4c0,0,64.2,-56.6,180.3,-56.6c0,0,90.1,0,169.6,19.9c0,0,79.4,19.8,148.2,58L742.5,36.7c0,0,-73.3,-29.1,-151.2,-42.7c0,0,-79.5,-15.3,-160.5,-15.3Z" 
	id="f2_j"
	transform="scale(0.001,-0.001)" />

	<path d="M414,-21.3c0,0,-165,0,-255.1,82.4c0,0,-90.1,82.5,-90.1,236.8c0,0,0,129.9,45.8,238.4c0,0,47.3,110,139,197c0,0,64.2,61.1,148.2,91.7c0,0,84,30.6,183.3,30.6c0,0,58.1,0,116.2,-13.8c0,0,58,-13.7,117.6,-39.7L791.4,667.6c0,0,-50.4,35.2,-105.4,52c0,0,-55,18.3,-114.6,18.3c0,0,-65.7,0,-125.3,-22.9c0,0,-59.6,-22.9,-99.3,-65.7c0,0,-64.2,-64.2,-99.3,-151.2c0,0,-35.1,-87.1,-35.1,-180.3c0,0,0,-113.1,55,-168.1c0,0,56.5,-55,172.6,-55c0,0,56.5,0,119.2,16.8c0,0,64.1,16.8,134.4,50.4L667.6,27.5c0,0,-61.1,-26,-123.7,-36.6c0,0,-62.6,-12.2,-129.9,-12.2Z" 
	id="f2_d"
	transform="scale(0.001,-0.001)" />

	<path d="M357.5,0c0,0,-122.2,0,-181.8,47.4c0,0,-59.6,47.3,-59.6,143.6c0,0,0,18.3,1.5,38.2c0,0,3.1,21.4,7.7,45.8l88.6,453.8l-117.6,0l22.9,105.4l113,0l47.4,238.3l136,0L371.3,834.2l273.4,0L624.9,728.8l-275,0L261.3,275c0,0,-4.6,-26,-6.2,-42.8c0,0,-1.5,-16.8,-1.5,-27.5c0,0,0,-47.3,27.5,-68.7c0,0,29,-21.4,93.2,-21.4l137.5,0L488.9,0Z" 
	id="f2_6"
	transform="scale(0.001,-0.001)" />

	<path d="M53.5,0L216.9,834.2l136,0L189.4,0ZM246,985.4l33.6,174.2l136,0L381.9,985.4Z" 
	id="f2_a"
	transform="scale(0.001,-0.001)" />

	<path d="M-27.4,-317.7l0,117.7l35,0c0,0,79.5,0,107,35.1c0,0,29,36.7,29,151.2l0,847.9l137.5,0l0,-847.9c0,0,0,-160.4,-61.1,-232.2c0,0,-61.1,-71.8,-195.6,-71.8Zm171,1303.1l0,174.2l137.5,0l0,-174.2Z" 
	id="f1_1q"
	transform="scale(0.001,-0.001)" />

	<path d="M149,0l0,1113l150,0L299,0Z" 
	id="f1_u"
	transform="scale(0.001,-0.001)" />

	<path d="M149.7,0l0,1113.8l201.7,0l495,-932l0,932l145.1,0L991.5,0L789.9,0l-495,930.4L294.9,0Z" 
	id="f1_11"
	transform="scale(0.001,-0.001)" />

	<path d="M73,363l0,109l616,0l0,-109Z" 
	id="f1_1z"
	transform="scale(0.001,-0.001)" />

	<path d="M328.5,0L50.4,1113.8l151.3,0L436.9,171.1l232.3,942.7l169.6,0L1074,171.1l232.3,942.7l154.3,0L1179.4,0L990,0L756.3,965.6L517.9,0Z" 
	id="f1_1e"
	transform="scale(0.001,-0.001)" />

	<path d="M149.7,0l0,1113.8l224.6,0L658.5,354.4l285.7,759.4l224.6,0L1168.8,0L1020.6,0l0,977.8L733.3,213.9l-151.2,0L294.9,977.8L294.9,0Z" 
	id="f1_1d"
	transform="scale(0.001,-0.001)" />

	<path d="M576,386.5l0,595.9L195.6,386.5ZM576,0l0,261.3l-502.7,0l0,146.6l464.5,705.9l189.4,0l0,-727.3l158.9,0l0,-125.2l-158.9,0L727.2,0Z" 
	id="f1_10"
	transform="scale(0.001,-0.001)" />


</defs>
</svg>