<?xml version="1.0" encoding="UTF-8" standalone="no"?>
<!DOCTYPE svg PUBLIC "-//W3C//DTD SVG 1.1//EN"
"http://www.w3.org/Graphics/SVG/1.1/DTD/svg11.dtd">
<svg viewBox="0 0 1155 1210" version="1.1" xmlns="http://www.w3.org/2000/svg" xmlns:xlink="http://www.w3.org/1999/xlink">
<defs>
<clipPath id="c0_61"><path d="M0.5,1210.5L0.5,0.5l1155,0l0,1210Z" /></clipPath>
<style type="text/css"><![CDATA[
.g1_61{
fill: #FFFFFF;
}
]]></style>
</defs>
<path fill-rule="evenodd" d="M0,0L1155,0l0,1210L0,1210L0,0Z" class="g1_61" />
<path fill-rule="evenodd" d="M0,0L1155,0l0,1210L0,1210L0,0Z" class="g1_61" />
<image x="790" y="1140" width="319" height="55" xlink:href="img/1.png" />
<g clip-path="url(#c0_61)">
<g fill="#626262" >
<use xlink:href="#f0_q" transform="matrix(12,0,0,12,38.5,32.1)" />
<use xlink:href="#f1_15" transform="matrix(12,0,0,12,64.8,33.2)" />
<use xlink:href="#f1_7" transform="matrix(12,0,0,12,77.6,33.2)" />
<use xlink:href="#f1_4" transform="matrix(12,0,0,12,88.7,33.2)" />
<use xlink:href="#f1_g" transform="matrix(12,0,0,12,100.3,33.2)" />
<use xlink:href="#f1_d" transform="matrix(12,0,0,12,109.8,33.2)" />
<use xlink:href="#f1_h" transform="matrix(12,0,0,12,115,33.2)" />
<use xlink:href="#f1_b" transform="matrix(12,0,0,12,126.6,33.2)" />
<use xlink:href="#f1_l" transform="matrix(12,0,0,12,138,33.2)" />
<use xlink:href="#f1_c" transform="matrix(12,0,0,12,151.6,33.2)" />
<use xlink:href="#f1_f" transform="matrix(12,0,0,12,158.6,33.2)" />
<use xlink:href="#f1_b" transform="matrix(12,0,0,12,170.2,33.2)" />
<use xlink:href="#f1_24" transform="matrix(12,0,0,12,187.5,33.2)" />
<use xlink:href="#f1_9" transform="matrix(12,0,0,12,192.5,33.2)" />
<use xlink:href="#f1_l" transform="matrix(12,0,0,12,204.1,33.2)" />
<use xlink:href="#f1_7" transform="matrix(12,0,0,12,211.3,33.2)" />
<use xlink:href="#f1_h" transform="matrix(12,0,0,12,222.4,33.2)" />
<use xlink:href="#f1_i" transform="matrix(12,0,0,12,234.2,33.2)" />
<use xlink:href="#f1_6" transform="matrix(12,0,0,12,245.8,33.2)" />
<use xlink:href="#f1_c" transform="matrix(12,0,0,12,256,33.2)" />
<use xlink:href="#f1_24" transform="matrix(12,0,0,12,263,33.2)" />
<use xlink:href="#f1_c" transform="matrix(12,0,0,12,274,33.2)" />
<use xlink:href="#f1_k" transform="matrix(12,0,0,12,281.2,33.2)" />
<use xlink:href="#f1_m" transform="matrix(12,0,0,12,292.6,33.2)" />
<use xlink:href="#f1_a" transform="matrix(12,0,0,12,304.1,33.2)" />
<use xlink:href="#f1_b" transform="matrix(12,0,0,12,309.3,33.2)" />
<use xlink:href="#f1_k" transform="matrix(12,0,0,12,326.4,33.2)" />
<use xlink:href="#f1_a" transform="matrix(12,0,0,12,337.8,33.2)" />
<use xlink:href="#f1_l" transform="matrix(12,0,0,12,342.8,33.2)" />
<use xlink:href="#f1_b" transform="matrix(12,0,0,12,350.2,33.2)" />
<use xlink:href="#f1_k" transform="matrix(12,0,0,12,361.5,33.2)" />
<use xlink:href="#f1_h" transform="matrix(12,0,0,12,372.8,33.2)" />
<use xlink:href="#f1_r" transform="matrix(12,0,0,12,384.5,33.2)" />
<use xlink:href="#f1_6" transform="matrix(12,0,0,12,401.2,33.2)" />
<use xlink:href="#f1_l" transform="matrix(12,0,0,12,411.4,33.2)" />
<use xlink:href="#f1_b" transform="matrix(12,0,0,12,418.6,33.2)" />
<use xlink:href="#f1_k" transform="matrix(12,0,0,12,430,33.2)" />
<use xlink:href="#f1_c" transform="matrix(12,0,0,12,441.3,33.2)" />
<use xlink:href="#f1_b" transform="matrix(12,0,0,12,448.5,33.2)" />
<use xlink:href="#f1_h" transform="matrix(12,0,0,12,459.8,33.2)" />
<use xlink:href="#f1_1c" transform="matrix(12,0,0,12,471.5,33.2)" />
<use xlink:href="#f1_1g" transform="matrix(12,0,0,12,483.3,33.2)" />
<use xlink:href="#f1_f" transform="matrix(12,0,0,12,494.6,33.2)" />
<use xlink:href="#f1_b" transform="matrix(12,0,0,12,506.2,33.2)" />
<use xlink:href="#f1_l" transform="matrix(12,0,0,12,517.5,33.2)" />
<use xlink:href="#f1_b" transform="matrix(12,0,0,12,524.7,33.2)" />
<use xlink:href="#f1_d" transform="matrix(12,0,0,12,541.9,33.2)" />
<use xlink:href="#f1_g" transform="matrix(12,0,0,12,546.9,33.2)" />
<use xlink:href="#f1_k" transform="matrix(12,0,0,12,562.3,33.2)" />
<use xlink:href="#f1_l" transform="matrix(12,0,0,12,579.6,33.2)" />
<use xlink:href="#f1_b" transform="matrix(12,0,0,12,586.8,33.2)" />
<use xlink:href="#f1_13" transform="matrix(12,0,0,12,598.1,33.2)" />
<use xlink:href="#f1_i" transform="matrix(12,0,0,12,609.8,33.2)" />
<use xlink:href="#f1_d" transform="matrix(12,0,0,12,621.4,33.2)" />
<use xlink:href="#f1_l" transform="matrix(12,0,0,12,626.5,33.2)" />
<use xlink:href="#f1_b" transform="matrix(12,0,0,12,633.6,33.2)" />
<use xlink:href="#f1_8" transform="matrix(12,0,0,12,644.9,33.2)" />
<use xlink:href="#f1_b" transform="matrix(12,0,0,12,662.8,33.2)" />
<use xlink:href="#f1_4" transform="matrix(12,0,0,12,674.1,33.2)" />
<use xlink:href="#f1_c" transform="matrix(12,0,0,12,685.7,33.2)" />
<use xlink:href="#f1_c" transform="matrix(12,0,0,12,698.7,33.2)" />
<use xlink:href="#f1_7" transform="matrix(12,0,0,12,705.9,33.2)" />
<use xlink:href="#f1_d" transform="matrix(12,0,0,12,722.8,33.2)" />
<use xlink:href="#f1_4" transform="matrix(12,0,0,12,728,33.2)" />
<use xlink:href="#f1_g" transform="matrix(12,0,0,12,739.6,33.2)" />
<use xlink:href="#f1_b" transform="matrix(12,0,0,12,749.1,33.2)" />
<use xlink:href="#f1_l" transform="matrix(12,0,0,12,760.4,33.2)" />
<use xlink:href="#f1_c" transform="matrix(12,0,0,12,768.2,33.2)" />
<use xlink:href="#f1_7" transform="matrix(12,0,0,12,781.2,33.2)" />
<use xlink:href="#f1_4" transform="matrix(12,0,0,12,792.3,33.2)" />
<use xlink:href="#f1_b" transform="matrix(12,0,0,12,803.9,33.2)" />
<use xlink:href="#f1_8" transform="matrix(12,0,0,12,821,33.2)" />
<use xlink:href="#f1_7" transform="matrix(12,0,0,12,838.9,33.2)" />
<use xlink:href="#f1_l" transform="matrix(12,0,0,12,850,33.2)" />
<use xlink:href="#f1_b" transform="matrix(12,0,0,12,857.2,33.2)" />
<use xlink:href="#f1_l" transform="matrix(12,0,0,12,874.4,33.2)" />
<use xlink:href="#f1_7" transform="matrix(12,0,0,12,881.5,33.2)" />
<use xlink:href="#f1_12" transform="matrix(12,0,0,12,892.7,33.2)" />
<use xlink:href="#f1_d" transform="matrix(12,0,0,12,913.7,33.2)" />
<use xlink:href="#f1_4" transform="matrix(12,0,0,12,918.7,33.2)" />
<use xlink:href="#f1_c" transform="matrix(12,0,0,12,936.1,33.2)" />
<use xlink:href="#f1_f" transform="matrix(12,0,0,12,943.3,33.2)" />
<use xlink:href="#f1_b" transform="matrix(12,0,0,12,954.9,33.2)" />
<use xlink:href="#f1_c" transform="matrix(12,0,0,12,972,33.2)" />
<use xlink:href="#f1_k" transform="matrix(12,0,0,12,979.2,33.2)" />
<use xlink:href="#f1_m" transform="matrix(12,0,0,12,990.6,33.2)" />
<use xlink:href="#f1_a" transform="matrix(12,0,0,12,1002.1,33.2)" />
<use xlink:href="#f1_b" transform="matrix(12,0,0,12,1007.3,33.2)" />
<use xlink:href="#f1_1c" transform="matrix(12,0,0,12,1018.6,33.2)" />
<use xlink:href="#f0_q" transform="matrix(12,0,0,12,38.5,209.2)" />
<use xlink:href="#f1_1g" transform="matrix(12,0,0,12,64.8,210.4)" />
<use xlink:href="#f1_f" transform="matrix(12,0,0,12,76.1,210.4)" />
<use xlink:href="#f1_b" transform="matrix(12,0,0,12,87.7,210.4)" />
<use xlink:href="#f1_e" transform="matrix(12,0,0,12,106.7,210.4)" />
<use xlink:href="#f1_7" transform="matrix(12,0,0,12,113.2,210.4)" />
<use xlink:href="#f1_a" transform="matrix(12,0,0,12,124.3,210.4)" />
<use xlink:href="#f1_a" transform="matrix(12,0,0,12,129.5,210.4)" />
<use xlink:href="#f1_7" transform="matrix(12,0,0,12,134.5,210.4)" />
<use xlink:href="#f1_12" transform="matrix(12,0,0,12,145.7,210.4)" />
<use xlink:href="#f1_d" transform="matrix(12,0,0,12,160.8,210.4)" />
<use xlink:href="#f1_4" transform="matrix(12,0,0,12,165.8,210.4)" />
<use xlink:href="#f1_x" transform="matrix(12,0,0,12,177.4,210.4)" />
<use xlink:href="#f1_s" transform="matrix(12,0,0,12,196.8,210.4)" />
<use xlink:href="#f1_r" transform="matrix(12,0,0,12,207.8,210.4)" />
<use xlink:href="#f1_c" transform="matrix(12,0,0,12,218.6,210.4)" />
<use xlink:href="#f1_f" transform="matrix(12,0,0,12,225.8,210.4)" />
<use xlink:href="#f1_7" transform="matrix(12,0,0,12,237.4,210.4)" />
<use xlink:href="#f1_4" transform="matrix(12,0,0,12,248.6,210.4)" />
<use xlink:href="#f1_9" transform="matrix(12,0,0,12,267.8,210.4)" />
<use xlink:href="#f1_l" transform="matrix(12,0,0,12,279.3,210.4)" />
<use xlink:href="#f1_7" transform="matrix(12,0,0,12,286.4,210.4)" />
<use xlink:href="#f1_x" transform="matrix(12,0,0,12,297.7,210.4)" />
<use xlink:href="#f1_l" transform="matrix(12,0,0,12,309.3,210.4)" />
<use xlink:href="#f1_k" transform="matrix(12,0,0,12,317.1,210.4)" />
<use xlink:href="#f1_8" transform="matrix(12,0,0,12,328.4,210.4)" />
<use xlink:href="#f1_d" transform="matrix(12,0,0,12,353.9,210.4)" />
<use xlink:href="#f1_g" transform="matrix(12,0,0,12,359.1,210.4)" />
<use xlink:href="#f1_12" transform="matrix(12,0,0,12,376.3,210.4)" />
<use xlink:href="#f1_l" transform="matrix(12,0,0,12,391.3,210.4)" />
<use xlink:href="#f1_d" transform="matrix(12,0,0,12,399.1,210.4)" />
<use xlink:href="#f1_c" transform="matrix(12,0,0,12,404.1,210.4)" />
<use xlink:href="#f1_c" transform="matrix(12,0,0,12,411.3,210.4)" />
<use xlink:href="#f1_b" transform="matrix(12,0,0,12,418.5,210.4)" />
<use xlink:href="#f1_4" transform="matrix(12,0,0,12,429.8,210.4)" />
<use xlink:href="#f1_c" transform="matrix(12,0,0,12,449,210.4)" />
<use xlink:href="#f1_7" transform="matrix(12,0,0,12,456.2,210.4)" />
<use xlink:href="#f1_d" transform="matrix(12,0,0,12,475.1,210.4)" />
<use xlink:href="#f1_4" transform="matrix(12,0,0,12,480.3,210.4)" />
<use xlink:href="#f1_g" transform="matrix(12,0,0,12,491.8,210.4)" />
<use xlink:href="#f1_b" transform="matrix(12,0,0,12,501.2,210.4)" />
<use xlink:href="#f1_l" transform="matrix(12,0,0,12,512.7,210.4)" />
<use xlink:href="#f1_c" transform="matrix(12,0,0,12,520.3,210.4)" />
<use xlink:href="#f1_c" transform="matrix(12,0,0,12,535.3,210.4)" />
<use xlink:href="#f1_f" transform="matrix(12,0,0,12,542.3,210.4)" />
<use xlink:href="#f1_b" transform="matrix(12,0,0,12,553.9,210.4)" />
<use xlink:href="#f1_l" transform="matrix(12,0,0,12,573,210.4)" />
<use xlink:href="#f1_7" transform="matrix(12,0,0,12,580.1,210.4)" />
<use xlink:href="#f1_12" transform="matrix(12,0,0,12,591.3,210.4)" />
<use xlink:href="#f1_c" transform="matrix(12,0,0,12,614,210.4)" />
<use xlink:href="#f1_7" transform="matrix(12,0,0,12,621.2,210.4)" />
<use xlink:href="#f1_c" transform="matrix(12,0,0,12,640,210.4)" />
<use xlink:href="#f1_f" transform="matrix(12,0,0,12,647.2,210.4)" />
<use xlink:href="#f1_b" transform="matrix(12,0,0,12,658.8,210.4)" />
<use xlink:href="#f1_24" transform="matrix(12,0,0,12,677.8,210.4)" />
<use xlink:href="#f1_9" transform="matrix(12,0,0,12,682.9,210.4)" />
<use xlink:href="#f1_l" transform="matrix(12,0,0,12,694.5,210.4)" />
<use xlink:href="#f1_7" transform="matrix(12,0,0,12,701.7,210.4)" />
<use xlink:href="#f1_h" transform="matrix(12,0,0,12,712.8,210.4)" />
<use xlink:href="#f1_i" transform="matrix(12,0,0,12,724.4,210.4)" />
<use xlink:href="#f1_6" transform="matrix(12,0,0,12,736,210.4)" />
<use xlink:href="#f1_c" transform="matrix(12,0,0,12,746.2,210.4)" />
<use xlink:href="#f1_24" transform="matrix(12,0,0,12,753.4,210.4)" />
<use xlink:href="#f1_c" transform="matrix(12,0,0,12,766.2,210.4)" />
<use xlink:href="#f1_k" transform="matrix(12,0,0,12,773.4,210.4)" />
<use xlink:href="#f1_m" transform="matrix(12,0,0,12,784.7,210.4)" />
<use xlink:href="#f1_a" transform="matrix(12,0,0,12,796.3,210.4)" />
<use xlink:href="#f1_b" transform="matrix(12,0,0,12,801.3,210.4)" />
<use xlink:href="#f1_1c" transform="matrix(12,0,0,12,812.8,210.4)" />
<use xlink:href="#f1_1n" transform="matrix(12,0,0,12,826.2,210.4)" />
<use xlink:href="#f1_v" transform="matrix(12,0,0,12,837.8,210.4)" />
<use xlink:href="#f1_b" transform="matrix(12,0,0,12,847.9,210.4)" />
<use xlink:href="#f1_6" transform="matrix(12,0,0,12,859.2,210.4)" />
<use xlink:href="#f1_i" transform="matrix(12,0,0,12,869.6,210.4)" />
<use xlink:href="#f1_c" transform="matrix(12,0,0,12,881,210.4)" />
<use xlink:href="#f1_b" transform="matrix(12,0,0,12,888.2,210.4)" />
<use xlink:href="#f1_c" transform="matrix(12,0,0,12,907.3,210.4)" />
<use xlink:href="#f1_f" transform="matrix(12,0,0,12,914.5,210.4)" />
<use xlink:href="#f1_b" transform="matrix(12,0,0,12,925.9,210.4)" />
<use xlink:href="#f1_9" transform="matrix(12,0,0,12,945,210.4)" />
<use xlink:href="#f1_l" transform="matrix(12,0,0,12,956.4,210.4)" />
<use xlink:href="#f1_7" transform="matrix(12,0,0,12,963.6,210.4)" />
<use xlink:href="#f1_x" transform="matrix(12,0,0,12,974.9,210.4)" />
<use xlink:href="#f1_l" transform="matrix(12,0,0,12,986.5,210.4)" />
<use xlink:href="#f1_k" transform="matrix(12,0,0,12,994.3,210.4)" />
<use xlink:href="#f1_8" transform="matrix(12,0,0,12,1005.6,210.4)" />
<use xlink:href="#f1_k" transform="matrix(12,0,0,12,1031.1,210.4)" />
<use xlink:href="#f1_4" transform="matrix(12,0,0,12,1042.4,210.4)" />
<use xlink:href="#f1_h" transform="matrix(12,0,0,12,1054,210.4)" />
<use xlink:href="#f1_7" transform="matrix(12,0,0,12,64.8,254.7)" />
<use xlink:href="#f1_m" transform="matrix(12,0,0,12,75.9,254.7)" />
<use xlink:href="#f1_g" transform="matrix(12,0,0,12,87.5,254.7)" />
<use xlink:href="#f1_b" transform="matrix(12,0,0,12,97,254.7)" />
<use xlink:href="#f1_l" transform="matrix(12,0,0,12,108.4,254.7)" />
<use xlink:href="#f1_q" transform="matrix(12,0,0,12,116.1,254.7)" />
<use xlink:href="#f1_b" transform="matrix(12,0,0,12,126.9,254.7)" />
<use xlink:href="#f1_d" transform="matrix(12,0,0,12,144,254.7)" />
<use xlink:href="#f1_e" transform="matrix(12,0,0,12,149.2,254.7)" />
<use xlink:href="#f1_c" transform="matrix(12,0,0,12,161.4,254.7)" />
<use xlink:href="#f1_f" transform="matrix(12,0,0,12,168.6,254.7)" />
<use xlink:href="#f1_b" transform="matrix(12,0,0,12,180.2,254.7)" />
<use xlink:href="#f1_l" transform="matrix(12,0,0,12,191.5,254.7)" />
<use xlink:href="#f1_b" transform="matrix(12,0,0,12,198.7,254.7)" />
<use xlink:href="#f1_d" transform="matrix(12,0,0,12,215.9,254.7)" />
<use xlink:href="#f1_g" transform="matrix(12,0,0,12,221,254.7)" />
<use xlink:href="#f1_k" transform="matrix(12,0,0,12,236.4,254.7)" />
<use xlink:href="#f1_4" transform="matrix(12,0,0,12,247.8,254.7)" />
<use xlink:href="#f1_r" transform="matrix(12,0,0,12,259.3,254.7)" />
<use xlink:href="#f1_b" transform="matrix(12,0,0,12,275.9,254.7)" />
<use xlink:href="#f1_l" transform="matrix(12,0,0,12,287.4,254.7)" />
<use xlink:href="#f1_l" transform="matrix(12,0,0,12,294.7,254.7)" />
<use xlink:href="#f1_7" transform="matrix(12,0,0,12,301.9,254.7)" />
<use xlink:href="#f1_l" transform="matrix(12,0,0,12,313,254.7)" />
<use xlink:href="#f1_1c" transform="matrix(12,0,0,12,318.8,254.7)" />
<use xlink:href="#f0_q" transform="matrix(12,0,0,12,38.5,607.8)" />
<use xlink:href="#f1_p" transform="matrix(12,0,0,12,64.8,609)" />
<use xlink:href="#f1_g" transform="matrix(12,0,0,12,78.1,609)" />
<use xlink:href="#f1_b" transform="matrix(12,0,0,12,87.7,609)" />
<use xlink:href="#f1_b" transform="matrix(12,0,0,12,104.9,609)" />
<use xlink:href="#f1_v" transform="matrix(12,0,0,12,115.9,609)" />
<use xlink:href="#f1_6" transform="matrix(12,0,0,12,126.3,609)" />
<use xlink:href="#f1_b" transform="matrix(12,0,0,12,136.5,609)" />
<use xlink:href="#f1_9" transform="matrix(12,0,0,12,148,609)" />
<use xlink:href="#f1_c" transform="matrix(12,0,0,12,159.4,609)" />
<use xlink:href="#f1_d" transform="matrix(12,0,0,12,166.6,609)" />
<use xlink:href="#f1_7" transform="matrix(12,0,0,12,171.8,609)" />
<use xlink:href="#f1_4" transform="matrix(12,0,0,12,182.9,609)" />
<use xlink:href="#f1_f" transform="matrix(12,0,0,12,200.3,609)" />
<use xlink:href="#f1_k" transform="matrix(12,0,0,12,211.8,609)" />
<use xlink:href="#f1_4" transform="matrix(12,0,0,12,223.2,609)" />
<use xlink:href="#f1_h" transform="matrix(12,0,0,12,234.8,609)" />
<use xlink:href="#f1_a" transform="matrix(12,0,0,12,246.4,609)" />
<use xlink:href="#f1_d" transform="matrix(12,0,0,12,251.6,609)" />
<use xlink:href="#f1_4" transform="matrix(12,0,0,12,256.8,609)" />
<use xlink:href="#f1_x" transform="matrix(12,0,0,12,268.2,609)" />
<use xlink:href="#f1_c" transform="matrix(12,0,0,12,285.8,609)" />
<use xlink:href="#f1_7" transform="matrix(12,0,0,12,293,609)" />
<use xlink:href="#f1_f" transform="matrix(12,0,0,12,309.9,609)" />
<use xlink:href="#f1_k" transform="matrix(12,0,0,12,321.5,609)" />
<use xlink:href="#f1_4" transform="matrix(12,0,0,12,333,609)" />
<use xlink:href="#f1_h" transform="matrix(12,0,0,12,344.4,609)" />
<use xlink:href="#f1_a" transform="matrix(12,0,0,12,356.2,609)" />
<use xlink:href="#f1_b" transform="matrix(12,0,0,12,361.4,609)" />
<use xlink:href="#f1_c" transform="matrix(12,0,0,12,378.5,609)" />
<use xlink:href="#f1_f" transform="matrix(12,0,0,12,385.6,609)" />
<use xlink:href="#f1_b" transform="matrix(12,0,0,12,397.3,609)" />
<use xlink:href="#f1_b" transform="matrix(12,0,0,12,414.4,609)" />
<use xlink:href="#f1_l" transform="matrix(12,0,0,12,425.8,609)" />
<use xlink:href="#f1_l" transform="matrix(12,0,0,12,433.1,609)" />
<use xlink:href="#f1_7" transform="matrix(12,0,0,12,440.3,609)" />
<use xlink:href="#f1_l" transform="matrix(12,0,0,12,451.5,609)" />
<use xlink:href="#f1_1i" transform="matrix(12,0,0,12,465,609)" />
<use xlink:href="#f1_d" transform="matrix(12,0,0,12,472.2,609)" />
<use xlink:href="#f1_e" transform="matrix(12,0,0,12,477.2,609)" />
<use xlink:href="#f1_k" transform="matrix(12,0,0,12,489.6,609)" />
<use xlink:href="#f1_4" transform="matrix(12,0,0,12,500.9,609)" />
<use xlink:href="#f1_r" transform="matrix(12,0,0,12,512.5,609)" />
<use xlink:href="#f1_o" transform="matrix(12,0,0,12,523.2,609)" />
<use xlink:href="#f1_k" transform="matrix(12,0,0,12,536.3,609)" />
<use xlink:href="#f1_4" transform="matrix(12,0,0,12,547.6,609)" />
<use xlink:href="#f1_h" transform="matrix(12,0,0,12,559.2,609)" />
<use xlink:href="#f1_h" transform="matrix(12,0,0,12,576.7,609)" />
<use xlink:href="#f1_d" transform="matrix(12,0,0,12,588.5,609)" />
<use xlink:href="#f1_g" transform="matrix(12,0,0,12,593.5,609)" />
<use xlink:href="#f1_9" transform="matrix(12,0,0,12,603.1,609)" />
<use xlink:href="#f1_a" transform="matrix(12,0,0,12,614.6,609)" />
<use xlink:href="#f1_k" transform="matrix(12,0,0,12,619.8,609)" />
<use xlink:href="#f1_r" transform="matrix(12,0,0,12,631.1,609)" />
<use xlink:href="#f1_b" transform="matrix(12,0,0,12,647.7,609)" />
<use xlink:href="#f1_l" transform="matrix(12,0,0,12,659.1,609)" />
<use xlink:href="#f1_l" transform="matrix(12,0,0,12,666.5,609)" />
<use xlink:href="#f1_7" transform="matrix(12,0,0,12,673.7,609)" />
<use xlink:href="#f1_l" transform="matrix(12,0,0,12,684.8,609)" />
<use xlink:href="#f1_8" transform="matrix(12,0,0,12,698.4,609)" />
<use xlink:href="#f1_b" transform="matrix(12,0,0,12,716.1,609)" />
<use xlink:href="#f1_g" transform="matrix(12,0,0,12,727.4,609)" />
<use xlink:href="#f1_g" transform="matrix(12,0,0,12,737,609)" />
<use xlink:href="#f1_k" transform="matrix(12,0,0,12,746.5,609)" />
<use xlink:href="#f1_x" transform="matrix(12,0,0,12,757.9,609)" />
<use xlink:href="#f1_b" transform="matrix(12,0,0,12,769.5,609)" />
<use xlink:href="#f1_k" transform="matrix(12,0,0,12,786.8,609)" />
<use xlink:href="#f1_9" transform="matrix(12,0,0,12,798.2,609)" />
<use xlink:href="#f1_9" transform="matrix(12,0,0,12,809.7,609)" />
<use xlink:href="#f1_l" transform="matrix(12,0,0,12,821.3,609)" />
<use xlink:href="#f1_7" transform="matrix(12,0,0,12,828.5,609)" />
<use xlink:href="#f1_9" transform="matrix(12,0,0,12,839.6,609)" />
<use xlink:href="#f1_l" transform="matrix(12,0,0,12,851.1,609)" />
<use xlink:href="#f1_d" transform="matrix(12,0,0,12,858.8,609)" />
<use xlink:href="#f1_k" transform="matrix(12,0,0,12,863.9,609)" />
<use xlink:href="#f1_c" transform="matrix(12,0,0,12,875.3,609)" />
<use xlink:href="#f1_b" transform="matrix(12,0,0,12,882.5,609)" />
<use xlink:href="#f1_a" transform="matrix(12,0,0,12,893.8,609)" />
<use xlink:href="#f1_r" transform="matrix(12,0,0,12,899,609)" />
<use xlink:href="#f1_1c" transform="matrix(12,0,0,12,906.9,609)" />
</g>
</g>
<image x="228" y="67" width="649" height="108" xlink:href="img/2.png" />
<image x="137" y="311" width="740" height="276" xlink:href="img/3.png" />
<defs>
	<path d="M264.3,297.9c0,0,-42.8,0,-79.4,16.8c0,0,-36.7,16.8,-64.2,44.3c0,0,-29,29.1,-44.3,67.3c0,0,-16.8,38.1,-16.8,82.5c0,0,0,41.2,15.3,77.9c0,0,16.8,38.2,44.3,65.7c0,0,29,27.5,65.7,42.7c0,0,36.6,16.8,79.4,16.8c0,0,42.8,0,81,-15.2c0,0,38.2,-16.8,65.7,-44.3c0,0,29,-27.5,45.8,-64.2c0,0,16.8,-38.2,16.8,-79.4c0,0,0,-44.4,-16.8,-82.5c0,0,-16.8,-38.2,-44.3,-65.7c0,0,-29,-29.1,-67.2,-45.9c0,0,-38.2,-16.8,-81,-16.8Z" 
	id="f0_q"
	transform="scale(0.001,-0.001)" />

	<path d="M629.4,-21.3c0,0,-253.6,0,-398.7,154.2c0,0,-145.1,154.3,-145.1,421.7c0,0,0,268.9,145.1,423.2c0,0,145.1,155.8,398.7,155.8c0,0,99.4,0,188,-26c0,0,88.6,-27.5,166.5,-80.9l0,-158.9c0,0,-76.4,71.8,-162,106.9c0,0,-87,35.2,-184.8,35.2c0,0,-191,0,-291.8,-116.1c0,0,-100.9,-117.7,-100.9,-339.2c0,0,0,-220,100.9,-336.1c0,0,100.8,-117.7,291.8,-117.7c0,0,97.8,0,183.3,35.2c0,0,87.1,35.1,163.5,106.9l0,-157.3c0,0,-79.5,-55,-168.1,-81c0,0,-88.6,-25.9,-186.4,-25.9Z" 
	id="f1_15"
	transform="scale(0.001,-0.001)" />

	<path d="M467.5,94.7c0,0,108.5,0,172.6,85.6c0,0,64.2,87.1,64.2,235.3c0,0,0,149.7,-64.2,235.2c0,0,-64.1,87.1,-172.6,87.1c0,0,-111.5,0,-175.7,-85.5c0,0,-64.2,-85.6,-64.2,-236.8c0,0,0,-149.8,64.2,-235.3c0,0,64.2,-85.6,175.7,-85.6Zm0,-116c0,0,-180.3,0,-281.1,116C186.4,94.7,84,210.8,84,415.6c0,0,0,206.2,100.9,322.3c0,0,102.3,117.7,282.6,117.7c0,0,178.8,0,281.1,-116.2c0,0,102.4,-117.6,102.4,-323.8c0,0,0,-204.8,-102.4,-320.9c0,0,-102.3,-116,-281.1,-116Z" 
	id="f1_7"
	transform="scale(0.001,-0.001)" />

	<path d="M137.5,0l0,834.2l139,0l0,-129.9c0,0,48.9,76.4,114.6,113.1c0,0,67.2,38.2,154.3,38.2c0,0,145.2,0,218.5,-88.7c0,0,73.3,-90.1,73.3,-262.7L837.2,0L699.7,0l0,499.6c0,0,0,117.6,-45.8,175.7c0,0,-45.8,59.6,-139,59.6c0,0,-110,0,-174.2,-70.3c0,0,-64.2,-70.3,-64.2,-192.5L276.5,0Z" 
	id="f1_4"
	transform="scale(0.001,-0.001)" />

	<path d="M375.8,-21.3c0,0,-67.2,0,-140.5,12.2c0,0,-73.4,12.2,-152.8,39.7l0,140.5c0,0,76.4,-39.7,149.7,-58c0,0,73.4,-19.9,146.7,-19.9c0,0,96.2,0,148.2,32.1c0,0,51.9,33.6,51.9,94.7c0,0,0,55,-36.6,84c0,0,-38.2,30.6,-165,58.1l-48.9,12.2c0,0,-126.8,26,-183.4,81c0,0,-56.5,56.5,-56.5,152.8c0,0,0,119.1,82.5,183.3c0,0,84,64.2,238.3,64.2c0,0,74.9,0,142.1,-10.7c0,0,67.3,-12.3,123.8,-35.2l0,-129.8c0,0,-58.1,30.5,-120.7,44.3c0,0,-62.7,15.2,-129.9,15.2c0,0,-102.3,0,-152.8,-30.5c0,0,-50.4,-32.1,-50.4,-94.7c0,0,0,-47.4,35.2,-74.9c0,0,36.6,-27.5,148.2,-51.9l45.8,-10.7c0,0,146.7,-30.6,207.8,-87.1c0,0,62.6,-58.1,62.6,-160.4c0,0,0,-116.1,-91.7,-183.4c0,0,-93.1,-67.1,-253.6,-67.1Z" 
	id="f1_g"
	transform="scale(0.001,-0.001)" />

	<path d="M143,0l0,834l138,0L281,0Zm0,985l0,174l138,0l0,-174Z" 
	id="f1_d"
	transform="scale(0.001,-0.001)" />

	<path d="M458.3,93.2c0,0,110,0,172.7,85.6c0,0,62.6,85.5,62.6,236.8c0,0,0,152.7,-62.6,238.3c0,0,-62.7,85.5,-172.7,85.5c0,0,-108.4,0,-171.1,-85.5c0,0,-62.6,-85.6,-62.6,-238.3c0,0,0,-151.3,62.6,-236.8c0,0,62.7,-85.6,171.1,-85.6ZM424.7,-21.3c0,0,-151.2,0,-245.9,120.6C178.8,99.3,84,220,84,415.6c0,0,0,197,94.8,317.7c0,0,94.7,122.3,245.9,122.3c0,0,93.2,0,158.9,-36.7c0,0,65.7,-36.7,110,-111.5l0,452.2l136,0L829.6,0l-136,0l0,125.3c0,0,-44.3,-74.9,-110,-110c0,0,-65.7,-36.6,-158.9,-36.6Z" 
	id="f1_h"
	transform="scale(0.001,-0.001)" />

	<path d="M230.7,490.4l490.4,1.5c0,0,-1.5,111.6,-62.6,178.8c0,0,-62.7,67.2,-163.5,67.2c0,0,-114.6,0,-183.3,-64.1c0,0,-70.3,-65.7,-81,-183.4ZM516.4,-21.3c0,0,-198.6,0,-314.7,116C201.7,94.7,84,210.8,84,409.4c0,0,0,204.8,110,325.5c0,0,111.6,120.7,299.5,120.7c0,0,168,0,265.8,-108.5c0,0,99.3,-110,99.3,-296.4l0,-67.2l-632.5,0c0,0,9.2,-140.6,85.6,-213.9c0,0,76.4,-74.9,213.9,-74.9c0,0,77.9,0,152.7,18.4c0,0,74.9,19.8,148.2,58l0,-129.8c0,0,-74.8,-30.6,-151.2,-45.8c0,0,-77.9,-16.8,-158.9,-16.8Z" 
	id="f1_b"
	transform="scale(0.001,-0.001)" />

	<path d="M137.5,0l0,834.2l139,0l0,-129.9c0,0,42.8,76.4,111.6,113.1c0,0,70.2,38.2,169.5,38.2c0,0,13.8,0,30.6,-1.6c0,0,16.8,-3,38.2,-6.1l1.5,-142.1c0,0,-24.4,13.8,-50.4,19.9c0,0,-27.5,6.1,-61.1,6.1c0,0,-116.1,0,-177.2,-74.9c0,0,-62.7,-76.3,-62.7,-216.9l0,-440Z" 
	id="f1_l"
	transform="scale(0.001,-0.001)" />

	<path d="M420.1,0c0,0,-158.8,0,-218.4,58.1c0,0,-61.1,59.5,-61.1,216.9l0,453.8l-100.9,0l0,105.4l100.9,0l0,238.3l139,0l0,-238.3l282.6,0l0,-105.4l-282.6,0l0,-453.8c0,0,0,-102.4,27.5,-131.4c0,0,27.5,-29,113,-29l142.1,0L562.2,0Z" 
	id="f1_c"
	transform="scale(0.001,-0.001)" />

	<path d="M137.5,0l0,1159.6l139,0l0,-455.3c0,0,48.9,76.4,114.6,113.1c0,0,67.2,38.2,154.3,38.2c0,0,145.2,0,218.5,-88.7c0,0,73.3,-90.1,73.3,-262.7L837.2,0L699.7,0l0,499.6c0,0,0,117.6,-45.8,175.7c0,0,-45.8,59.6,-139,59.6c0,0,-110,0,-174.2,-70.3c0,0,-64.2,-70.3,-64.2,-192.5L276.5,0Z" 
	id="f1_f"
	transform="scale(0.001,-0.001)" />

	<path d="M146,699l0,414l127,0l0,-414Z" 
	id="f1_24"
	transform="scale(0.001,-0.001)" />

	<path d="M508.8,93.2c0,0,110,0,171.1,85.6c0,0,62.6,85.5,62.6,236.8c0,0,0,152.7,-61.1,238.3c0,0,-62.6,85.5,-172.6,85.5c0,0,-108.5,0,-169.6,-85.5c0,0,-62.7,-85.6,-62.7,-238.3c0,0,0,-151.3,61.1,-236.8c0,0,62.7,-85.6,171.2,-85.6ZM137.5,-317.7l0,1151.9l139,0l0,-126.8c0,0,42.8,74.8,108.5,111.5c0,0,65.7,36.7,157.4,36.7c0,0,152.7,0,247.5,-120.7c0,0,96.2,-122.3,96.2,-319.3c0,0,0,-195.6,-94.7,-316.3c0,0,-96.3,-120.6,-249,-120.6c0,0,-91.7,0,-157.4,35.1c0,0,-65.7,36.6,-108.5,111.5l0,-443Z" 
	id="f1_9"
	transform="scale(0.001,-0.001)" />

	<path d="M421.7,-21.3c0,0,-143.6,0,-218.5,88.5L128.3,328.5l0,505.7l137.5,0l0,-499.6c0,0,0,-119.2,45.9,-178.8c0,0,47.3,-59.5,139,-59.5c0,0,111.5,0,175.7,70.2c0,0,65.7,71.8,65.7,194.1l0,473.6l136,0L828.1,0l-136,0l0,126.8c0,0,-50.4,-74.9,-116.1,-111.5c0,0,-67.2,-36.6,-154.3,-36.6Z" 
	id="f1_i"
	transform="scale(0.001,-0.001)" />

	<path d="M495,-21.3c0,0,-189.4,0,-299.4,117.6C195.6,96.3,84,215.4,84,415.6c0,0,0,204.7,111.6,322.3c0,0,113,117.7,308.6,117.7c0,0,62.6,0,122.2,-13.8c0,0,61.1,-13.7,117.6,-39.7l0,-128.3c0,0,-58,32,-116.1,47.3c0,0,-58,16.8,-119.1,16.8c0,0,-133,0,-206.3,-84c0,0,-74.9,-84,-74.9,-238.3c0,0,0,-152.8,73.4,-236.8c0,0,74.8,-84.1,207.8,-84.1c0,0,61.1,0,119.1,15.3c0,0,58.1,16.8,116.1,48.9L744,30.6c0,0,-56.5,-26,-117.6,-38.1c0,0,-62.6,-13.8,-131.4,-13.8Z" 
	id="f1_6"
	transform="scale(0.001,-0.001)" />

	<path d="M407.9,93.2c0,0,113.1,0,181.8,79.4c0,0,70.3,81,70.3,215.5l0,30.5l-137.5,0c0,0,-166.5,0,-230.7,-36.7c0,0,-64.2,-38.1,-64.2,-129.8c0,0,0,-73.3,47.4,-116.1c0,0,48.9,-42.8,132.9,-42.8ZM371.3,-21.3c0,0,-128.4,0,-203.2,71.7c0,0,-76.4,71.8,-76.4,192.5c0,0,0,140.6,93.2,212.4c0,0,94.7,71.8,282.6,71.8l192.5,0l0,13.7c0,0,0,94.8,-62.6,145.2c0,0,-62.7,51.9,-175.7,51.9c0,0,-71.8,0,-139.1,-16.8c0,0,-67.2,-16.8,-129.8,-51.9l0,126.8c0,0,74.8,30.5,145.1,44.3c0,0,71.8,15.3,139,15.3c0,0,180.3,0,268.9,-93.2c0,0,90.2,-94.8,90.2,-285.7L796,0L660,0l0,126.8c0,0,-47.4,-76.4,-117.6,-111.5c0,0,-70.3,-36.6,-171.1,-36.6Z" 
	id="f1_k"
	transform="scale(0.001,-0.001)" />

	<path d="M508.8,93.2c0,0,110,0,171.1,85.6c0,0,62.6,85.5,62.6,236.8c0,0,0,152.7,-61.1,238.3c0,0,-62.6,85.5,-172.6,85.5c0,0,-108.5,0,-169.6,-85.5c0,0,-62.7,-85.6,-62.7,-238.3c0,0,0,-151.3,61.1,-236.8c0,0,62.7,-85.6,171.2,-85.6ZM542.4,-21.3c0,0,-91.7,0,-157.4,35.1c0,0,-65.7,36.6,-108.5,111.5L276.5,0l-139,0l0,1159.6l139,0l0,-452.2c0,0,42.8,74.8,108.5,111.5c0,0,65.7,36.7,157.4,36.7c0,0,152.7,0,247.5,-120.7c0,0,96.2,-122.3,96.2,-319.3c0,0,0,-195.6,-94.7,-316.3c0,0,-96.3,-120.6,-249,-120.6Z" 
	id="f1_m"
	transform="scale(0.001,-0.001)" />

	<path d="M143,0l0,1159l138,0L281,0Z" 
	id="f1_a"
	transform="scale(0.001,-0.001)" />

	<path d="M120.7,-317.7l0,116.1l79.4,0c0,0,56.6,0,87.1,26c0,0,32.1,27.5,70.3,126.8l24.4,61L44.3,834.2l145.1,0L450.7,181.8L711.9,834.2l146.7,0L490.4,-76.3c0,0,-58,-149.7,-113,-195.5c0,0,-55,-45.9,-148.2,-45.9Z" 
	id="f1_r"
	transform="scale(0.001,-0.001)" />

	<path d="M161,0l0,189l158,0L319,0Z" 
	id="f1_1c"
	transform="scale(0.001,-0.001)" />

	<path d="M389,0l0,985L-3,985l0,128l939,0l0,-128l-396,0L540,0Z" 
	id="f1_1g"
	transform="scale(0.001,-0.001)" />

	<path d="M458.3,93.2c0,0,110,0,172.7,85.6c0,0,62.6,85.5,62.6,236.8c0,0,0,152.7,-62.6,238.3c0,0,-62.7,85.5,-172.7,85.5c0,0,-108.4,0,-171.1,-85.5c0,0,-62.6,-85.6,-62.6,-238.3c0,0,0,-151.3,62.6,-236.8c0,0,62.7,-85.6,171.1,-85.6ZM693.6,-317.7l0,443c0,0,-44.3,-74.9,-110,-110c0,0,-65.7,-36.6,-158.9,-36.6c0,0,-151.2,0,-245.9,120.6C178.8,99.3,84,220,84,415.6c0,0,0,197,94.8,317.7c0,0,94.7,122.3,245.9,122.3c0,0,93.2,0,158.9,-36.7c0,0,65.7,-36.7,110,-111.5l0,126.8l136,0l0,-1151.9Z" 
	id="f1_13"
	transform="scale(0.001,-0.001)" />

	<path d="M137.5,0l0,834.2l139,0l0,-129.9c0,0,45.9,77.9,111.6,114.6c0,0,65.7,36.7,155.8,36.7c0,0,91.7,0,154.3,-45.9c0,0,64.2,-47.3,96.2,-135.9c0,0,50.5,93.1,122.3,137.5c0,0,71.8,44.3,168,44.3c0,0,131.4,0,201.7,-91.7c0,0,71.8,-91.7,71.8,-259.7L1358.2,0l-139,0l0,499.6c0,0,0,119.2,-41.3,177.2c0,0,-42.8,58.1,-129.8,58.1c0,0,-107,0,-168.1,-70.3c0,0,-62.6,-70.3,-62.6,-192.5L817.4,0L678.3,0l0,499.6c0,0,0,120.7,-41.2,177.2c0,0,-42.8,58.1,-131.4,58.1c0,0,-105.4,0,-166.5,-70.3c0,0,-62.7,-71.8,-62.7,-192.5L276.5,0Z" 
	id="f1_8"
	transform="scale(0.001,-0.001)" />

	<path d="M282.6,0L62.6,834.2l137.5,0L372.8,183.3L542.4,834.2l161.9,0L876.9,183.3l171.2,650.9l135.9,0L965.6,0l-162,0L624.9,684.4L444.6,0Z" 
	id="f1_12"
	transform="scale(0.001,-0.001)" />

	<path d="M165,0l0,728.8l-131.4,0l0,105.4l131.4,0l0,58c0,0,0,140.6,64.2,203.2c0,0,65.7,64.2,207.7,64.2l129.9,0l0,-113.1l-131.4,0c0,0,-74.8,0,-102.3,-30.5c0,0,-29.1,-30.6,-29.1,-107l0,-74.8l226.1,0l0,-105.4l-226.1,0L304,0Z" 
	id="f1_e"
	transform="scale(0.001,-0.001)" />

	<path d="M458.3,114.6c0,0,111.6,0,172.7,81c0,0,62.6,82.5,62.6,230.7c0,0,0,149.7,-61.1,230.6c0,0,-62.6,82.5,-174.2,82.5c0,0,-110,0,-171.1,-80.9c0,0,-62.6,-82.5,-62.6,-232.2c0,0,0,-148.2,61.1,-229.2c0,0,62.6,-82.5,172.6,-82.5ZM444.6,-317.7c0,0,-71.8,0,-136,10.7c0,0,-64.2,12.2,-123.7,33.6l0,134.5c0,0,59.5,-33.6,117.6,-48.9c0,0,59.6,-15.3,120.7,-15.3c0,0,136,0,203.2,70.3c0,0,67.2,70.3,67.2,210.7l0,68.8c0,0,-42.8,-74.9,-108.5,-110C585.1,36.7,517.9,0,424.7,0c0,0,-152.8,0,-245.9,116.1c0,0,-94.8,117.7,-94.8,310.2c0,0,0,194,93.2,311.6c0,0,94.7,117.7,247.5,117.7c0,0,93.2,0,158.9,-36.7c0,0,67.2,-36.7,110,-111.5l0,126.8l136,0l0,-731.8c0,0,0,-210.8,-94.7,-314.7c0,0,-94.8,-105.4,-290.3,-105.4Z" 
	id="f1_x"
	transform="scale(0.001,-0.001)" />

	<path d="M488.9,571.4c0,0,105.4,0,161.9,53.5c0,0,58.1,55,58.1,155.8c0,0,0,99.3,-56.5,152.8c0,0,-58.1,55,-163.5,55l-189.5,0l0,-417.1ZM149.7,0l0,1113.8l339.2,0c0,0,187.9,0,282.6,-84.1c0,0,96.3,-85.5,96.3,-249c0,0,0,-165,-94.7,-249c0,0,-96.3,-85.6,-284.2,-85.6l-189.5,0L299.4,0Z" 
	id="f1_s"
	transform="scale(0.001,-0.001)" />

	<path d="M149,0l0,1113l705,0l0,-128l-555,0l0,-329l530,0l0,-126l-530,0l0,-404l567,0L866,0Z" 
	id="f1_1n"
	transform="scale(0.001,-0.001)" />

	<path d="M42.8,0L368.2,436.9L70.3,834.2l161.9,0L453.8,537.8L675.3,834.2l161.9,0L536.3,427.8L854,0L692.1,0L447.6,326.9L204.7,0Z" 
	id="f1_v"
	transform="scale(0.001,-0.001)" />

	<path d="M357.5,0L44.3,834.2l145.1,0L450.7,132.9L711.9,834.2l146.7,0L543.9,0Z" 
	id="f1_q"
	transform="scale(0.001,-0.001)" />

	<path d="M559.2,-21.3c0,0,-210.9,0,-319.3,109.9c0,0,-108.5,111.5,-108.5,328.5l0,696.7l152.8,0l0,-676.9c0,0,0,-180.2,64.1,-258.1c0,0,64.2,-79.5,210.9,-79.5c0,0,143.6,0,207.7,77.9c0,0,65.7,79.5,65.7,259.7l0,676.9l152.8,0l0,-696.7c0,0,0,-217,-108.5,-327c0,0,-108.4,-111.4,-317.7,-111.4Z" 
	id="f1_p"
	transform="scale(0.001,-0.001)" />

	<path d="M352.9,-200c0,0,-111.5,174.1,-166.5,342.1c0,0,-56.5,169.6,-56.5,336.1c0,0,0,166.5,55,334.6c0,0,56.5,169.6,168,345.3l120.7,0c0,0,-100.8,-171.2,-148.2,-339.2c0,0,-48.9,-168.1,-48.9,-340.7c0,0,0,-171.1,48.9,-339.2c0,0,48.9,-169.5,148.2,-339Z" 
	id="f1_1i"
	transform="scale(0.001,-0.001)" />

	<path d="M122.2,-200c0,0,99.3,169.5,146.7,337.5c0,0,48.9,169.6,48.9,340.7c0,0,0,172.6,-47.4,340.7c0,0,-48.9,168,-148.2,339.2l119.2,0c0,0,111.5,-175.7,166.5,-343.8c0,0,56.5,-169.6,56.5,-336.1c0,0,0,-166.5,-55,-334.6c0,0,-56.5,-169.5,-168,-343.6Z" 
	id="f1_o"
	transform="scale(0.001,-0.001)" />


</defs>
</svg>