<?xml version="1.0" encoding="UTF-8" standalone="no"?>
<!DOCTYPE svg PUBLIC "-//W3C//DTD SVG 1.1//EN"
"http://www.w3.org/Graphics/SVG/1.1/DTD/svg11.dtd">
<svg viewBox="0 0 1100 825" version="1.1" xmlns="http://www.w3.org/2000/svg" xmlns:xlink="http://www.w3.org/1999/xlink">
<defs>
<style type="text/css"><![CDATA[
.g2_99{
fill: none;
stroke: #418AB3;
stroke-width: 2;
stroke-linecap: butt;
stroke-linejoin: miter;
stroke-miterlimit: 7;
}
.g1_99{
fill: #FFFFFF;
}
]]></style>
</defs>
<path fill-rule="evenodd" d="M0,0L1100,0l0,825L0,825L0,0Z" class="g1_99" />
<path fill-rule="evenodd" d="M0,0L1100,0l0,825L0,825L0,0Z" class="g1_99" />
<image x="753" y="777" width="303" height="38" xlink:href="img/1.png" />
<path fill-rule="evenodd" d="M906,15.1l0,-0.3l0,-0.3l0,-0.3l0,-0.3l0.1,-0.1l0,-0.4l0.2,-0.3l0.1,-0.3l0,-0.3l0.2,-0.1l0.1,-0.3l0.2,-0.2l0.3,-0.3l0.1,-0.1l0.2,-0.3L907.7,11L908,10.8l0.3,-0.3l0.1,0l0.3,-0.3l0.2,0l0.3,-0.1l0.3,-0.2l0.1,-0.1l0.3,0l0.3,-0.2l0.4,0l0.3,0l0.3,0l0.3,0l167.6,0l0.3,0l0.3,0l0.3,0l0.1,0l0.3,0.2l0.4,0.1l0.3,0l0.3,0.2l0.3,0.1l0.1,0l0.3,0.3l0.2,0.2l0.3,0.1l0.1,0.2l0.3,0.2l0.2,0.3l0.1,0.1l0.2,0.3l0.2,0.2l0.1,0.3l0.2,0.1l0.1,0.3l0.2,0.3l0,0.3l0.1,0.4l0,0.3l0.2,0.1l0,0.3l0,0.3l0,0.3l0.1,22.2l-0.1,0l0,0.3l0,0.3l0,0.3l0,0.3l-0.2,0.3l-0.1,0.2l0,0.3l-0.2,0.3l-0.1,0.3l0,0.1l-0.3,0.3l-0.2,0.3l-0.2,0.2l-0.1,0.1l-0.2,0.4l-0.3,0.1l-0.1,0.2l-0.3,0.3l-0.2,0.1l-0.3,0.2l-0.1,0l-0.3,0.1l-0.3,0.2l-0.3,0.1l-0.4,0l-0.3,0l-0.1,0.2l-0.3,0l-0.3,0l-0.3,0L911.5,42.9l-0.3,0l-0.3,-0.1l-0.3,0l-0.4,0l-0.3,-0.2l-0.3,0l-0.1,-0.1l-0.3,0l-0.3,-0.2l-0.2,-0.1L908.4,42l-0.1,-0.1L908,41.6l-0.3,-0.2l-0.2,-0.1l-0.2,-0.2l-0.1,-0.3l-0.3,-0.2l-0.2,-0.3L906.6,40l-0.2,-0.1l0,-0.3l-0.1,-0.3l-0.2,-0.2l0,-0.3L906,38.5l0,-0.3l0,-0.3l0,-0.3l0,-0.3l0,-22.2Z" class="g1_99" />
<path d="M906,15.1l0,-0.3l0,-0.3l0,-0.3l0,-0.3l0.1,-0.1l0,-0.4l0.2,-0.3l0.1,-0.3l0,-0.3l0.2,-0.1l0.1,-0.3l0.2,-0.2l0.3,-0.3l0.1,-0.1l0.2,-0.3L907.7,11L908,10.8l0.3,-0.3l0.1,0l0.3,-0.3l0.2,0l0.3,-0.1l0.3,-0.2l0.1,-0.1l0.3,0l0.3,-0.2l0.4,0l0.3,0l0.3,0l0.3,0l167.6,0l0.3,0l0.3,0l0.3,0l0.1,0l0.3,0.2l0.4,0.1l0.3,0l0.3,0.2l0.3,0.1l0.1,0l0.3,0.3l0.2,0.2l0.3,0.1l0.1,0.2l0.3,0.2l0.2,0.3l0.1,0.1l0.2,0.3l0.2,0.2l0.1,0.3l0.2,0.1l0.1,0.3l0.2,0.3l0,0.3l0.1,0.4l0,0.3l0.2,0.1l0,0.3l0,0.3l0,0.3l0.1,22.2l-0.1,0l0,0.3l0,0.3l0,0.3l0,0.3l-0.2,0.3l-0.1,0.2l0,0.3l-0.2,0.3l-0.1,0.3l0,0.1l-0.3,0.3l-0.2,0.3l-0.2,0.2l-0.1,0.1l-0.2,0.4l-0.3,0.1l-0.1,0.2l-0.3,0.3l-0.2,0.1l-0.3,0.2l-0.1,0l-0.3,0.1l-0.3,0.2l-0.3,0.1l-0.4,0l-0.3,0l-0.1,0.2l-0.3,0l-0.3,0l-0.3,0L911.5,42.9l-0.3,0l-0.3,-0.1l-0.3,0l-0.4,0l-0.3,-0.2l-0.3,0l-0.1,-0.1l-0.3,0l-0.3,-0.2l-0.2,-0.1L908.4,42l-0.1,-0.1L908,41.6l-0.3,-0.2l-0.2,-0.1l-0.2,-0.2l-0.1,-0.3l-0.3,-0.2l-0.2,-0.3L906.6,40l-0.2,-0.1l0,-0.3l-0.1,-0.3l-0.2,-0.2l0,-0.3L906,38.5l0,-0.3l0,-0.3l0,-0.3l0,-0.3l0,-22.2Z" class="g2_99" />
</svg>