<?xml version="1.0" encoding="UTF-8" standalone="no"?>
<!DOCTYPE svg PUBLIC "-//W3C//DTD SVG 1.1//EN"
"http://www.w3.org/Graphics/SVG/1.1/DTD/svg11.dtd">
<svg viewBox="0 0 1210 1045" version="1.1" xmlns="http://www.w3.org/2000/svg" xmlns:xlink="http://www.w3.org/1999/xlink">
<defs>
<style type="text/css"><![CDATA[
.g3_17{
fill: none;
stroke: #B8C9D9;
stroke-width: 1;
stroke-linecap: butt;
stroke-linejoin: miter;
stroke-miterlimit: 7;
stroke-opacity: 0.9;
}
.g2_17{
fill: #B8C9D9;
fill-opacity: 0.9;
}
.g4_17{
fill: none;
stroke: #418AB3;
stroke-width: 2;
stroke-linecap: butt;
stroke-linejoin: miter;
stroke-miterlimit: 7;
}
.g5_17{
fill: none;
stroke: #0000EE;
stroke-width: 2;
stroke-linecap: butt;
stroke-linejoin: miter;
}
.g1_17{
fill: #FFFFFF;
}
]]></style>
</defs>
<path fill-rule="evenodd" d="M0,0L1210,0l0,1045L0,1045L0,0Z" class="g1_17" />
<path fill-rule="evenodd" d="M0,0L1210,0l0,1045L0,1045L0,0Z" class="g1_17" />
<image x="828" y="984" width="334" height="49" xlink:href="img/1.png" />
<image x="199" y="73" width="650" height="74" xlink:href="shade/1.png" />
<image x="253" y="159" width="650" height="74" xlink:href="shade/2.png" />
<image x="307" y="244" width="650" height="75" xlink:href="shade/3.png" />
<image x="361" y="330" width="650" height="73" xlink:href="shade/4.png" />
<path fill-rule="evenodd" d="M801.2,154.8l10.5,0l0,-25.9l26,0l0,25.9l10.7,0l-23.7,21.4L801.2,154.8Z" class="g2_17" />
<path d="M801.2,154.8l10.5,0l0,-25.9l26,0l0,25.9l10.7,0l-23.7,21.4L801.2,154.8Z" class="g3_17" />
<path fill-rule="evenodd" d="M855.6,240.6l10.5,0l0,-25.9l26,0l0,25.9l10.7,0l-23.7,21.3L855.6,240.6Z" class="g2_17" />
<path d="M855.6,240.6l10.5,0l0,-25.9l26,0l0,25.9l10.7,0l-23.7,21.3L855.6,240.6Z" class="g3_17" />
<path fill-rule="evenodd" d="M909,326.5l10.7,0l0,-26l25.8,0l0,26l10.7,0l-23.5,21.2L909,326.5Z" class="g2_17" />
<path d="M909,326.5l10.7,0l0,-26l25.8,0l0,26l10.7,0l-23.5,21.2L909,326.5Z" class="g3_17" />
<path fill-rule="evenodd" d="M240.5,482.8l0,-0.8l0.1,-0.9l0,-0.8l0.3,-0.7l0.2,-0.8l0.1,-0.8l0.3,-0.7l0.3,-0.8l0.4,-0.8l0.4,-0.6l0.5,-0.7l0.3,-0.6l0.4,-0.6l0.6,-0.7l0.7,-0.6l0.4,-0.4l0.6,-0.6l0.6,-0.5l0.8,-0.5l0.6,-0.4l0.8,-0.3l0.7,-0.3l0.7,-0.3l0.7,-0.3l0.8,-0.3l0.7,-0.2l1,-0.1l0.7,0l0.8,-0.2l0.7,0l698.4,0l0.8,0l0.9,0.2l0.7,0l0.8,0.1l0.8,0.2l0.7,0.3l0.8,0.3l0.8,0.3l0.6,0.3l0.7,0.3l0.6,0.4l0.8,0.5l0.6,0.5l0.6,0.6l0.6,0.4l0.5,0.6l0.6,0.7l0.5,0.6l0.4,0.7l0.3,0.6l0.5,0.6l0.3,0.8l0.3,0.8l0.3,0.7l0.2,0.8l0.3,0.8l0.1,0.7l0,0.8l0.2,0.9l0,0.8l0,61.1l0,0.8l0,0.9l-0.2,0.7l-0.1,0.8l-0.2,0.8l-0.3,0.7l-0.1,0.8l-0.3,0.8l-0.5,0.6l-0.3,0.7l-0.5,0.6l-0.4,0.6l-0.5,0.8l-0.4,0.6l-0.7,0.5l-0.6,0.6l-0.6,0.5l-0.6,0.6l-0.6,0.3l-0.8,0.4l-0.6,0.5l-0.7,0.3l-0.8,0.3l-0.8,0.3l-0.7,0.2l-0.8,0.1l-0.8,0.2l-0.7,0.1l-0.9,0.2l-0.8,0l-698.4,0l-0.7,0l-0.8,0L253.5,559l-1,-0.1l-0.7,-0.2L251,558.4l-0.7,-0.2l-0.7,-0.4l-0.7,-0.3l-0.8,-0.3l-0.6,-0.5l-0.8,-0.4l-0.6,-0.5l-0.6,-0.6l-0.4,-0.5l-0.7,-0.6l-0.6,-0.6l-0.4,-0.6l-0.3,-0.8l-0.5,-0.6l-0.4,-0.7l-0.4,-0.6l-0.3,-0.8l-0.3,-0.8l-0.1,-0.7l-0.2,-0.8l-0.3,-0.8l0,-0.7l-0.1,-0.9l0,-0.8l0,-61.1Z" class="g1_17" />
<path d="M240.5,482.8l0,-0.8l0.1,-0.9l0,-0.8l0.3,-0.7l0.2,-0.8l0.1,-0.8l0.3,-0.7l0.3,-0.8l0.4,-0.8l0.4,-0.6l0.5,-0.7l0.3,-0.6l0.4,-0.6l0.6,-0.7l0.7,-0.6l0.4,-0.4l0.6,-0.6l0.6,-0.5l0.8,-0.5l0.6,-0.4l0.8,-0.3l0.7,-0.3l0.7,-0.3l0.7,-0.3l0.8,-0.3l0.7,-0.2l1,-0.1l0.7,0l0.8,-0.2l0.7,0l698.4,0l0.8,0l0.9,0.2l0.7,0l0.8,0.1l0.8,0.2l0.7,0.3l0.8,0.3l0.8,0.3l0.6,0.3l0.7,0.3l0.6,0.4l0.8,0.5l0.6,0.5l0.6,0.6l0.6,0.4l0.5,0.6l0.6,0.7l0.5,0.6l0.4,0.7l0.3,0.6l0.5,0.6l0.3,0.8l0.3,0.8l0.3,0.7l0.2,0.8l0.3,0.8l0.1,0.7l0,0.8l0.2,0.9l0,0.8l0,61.1l0,0.8l0,0.9l-0.2,0.7l-0.1,0.8l-0.2,0.8l-0.3,0.7l-0.1,0.8l-0.3,0.8l-0.5,0.6l-0.3,0.7l-0.5,0.6l-0.4,0.6l-0.5,0.8l-0.4,0.6l-0.7,0.5l-0.6,0.6l-0.6,0.5l-0.6,0.6l-0.6,0.3l-0.8,0.4l-0.6,0.5l-0.7,0.3l-0.8,0.3l-0.8,0.3l-0.7,0.2l-0.8,0.1l-0.8,0.2l-0.7,0.1l-0.9,0.2l-0.8,0l-698.4,0l-0.7,0l-0.8,0L253.5,559l-1,-0.1l-0.7,-0.2L251,558.4l-0.7,-0.2l-0.7,-0.4l-0.7,-0.3l-0.8,-0.3l-0.6,-0.5l-0.8,-0.4l-0.6,-0.5l-0.6,-0.6l-0.4,-0.5l-0.7,-0.6l-0.6,-0.6l-0.4,-0.6l-0.3,-0.8l-0.5,-0.6l-0.4,-0.7l-0.4,-0.6l-0.3,-0.8l-0.3,-0.8l-0.1,-0.7l-0.2,-0.8l-0.3,-0.8l0,-0.7l-0.1,-0.9l0,-0.8l0,-61.1Z" class="g4_17" />
<path d="M296,539l464,0" class="g5_17" />
</svg>