<?xml version="1.0" encoding="UTF-8" standalone="no"?>
<!DOCTYPE svg PUBLIC "-//W3C//DTD SVG 1.1//EN"
"http://www.w3.org/Graphics/SVG/1.1/DTD/svg11.dtd">
<svg version="1.1" xmlns="http://www.w3.org/2000/svg" xmlns:xlink="http://www.w3.org/1999/xlink">
<defs>
<clipPath id="c0_45"><path d="M0.5,825.5l0,-825l1466,0l0,825Z" /></clipPath>
<clipPath id="c1_45"><path d="M243.4,201.2l-0.9,-0.1l-1,-0.2l-0.9,-0.2l-0.7,-0.1l-1.1,-0.5L237.9,200L237,199.7l-0.8,-0.5l-0.9,-0.6l-0.8,-0.3l-0.7,-0.6L233,197.1l-0.8,-0.6l-0.6,-0.6l-0.8,-0.7l-0.6,-0.7l-0.4,-0.8L229.2,193l-0.5,-0.8l-0.5,-0.9l-0.4,-0.9l-0.2,-1l-0.4,-0.7l-0.3,-0.9l-0.3,-1l-0.2,-0.9l-0.1,-1l0,-1l0,-0.9l0,-72.5l0,-1l0,-1l0.1,-0.9l0.2,-1l0.3,-0.9l0.3,-0.9l0.4,-0.9l0.2,-0.8l0.4,-0.9l0.5,-0.8l0.5,-0.9l0.6,-0.7L230.2,99l0.6,-0.6l0.8,-0.8L232.2,97L233,96.3l0.8,-0.5l0.7,-0.5l0.8,-0.6l0.9,-0.4L237,93.8l0.9,-0.3l0.9,-0.3l1.1,-0.3l0.7,-0.2l0.9,-0.1l1,-0.2l0.9,0l1,-0.1l144.7,0l0.9,0.1l1.1,0l0.8,0.2l1,0.1l1,0.2l0.9,0.3l0.9,0.3l0.8,0.5l0.9,0.3l0.7,0.4l1,0.6l0.7,0.5l0.8,0.5l0.6,0.7l0.8,0.6l0.6,0.8l0.7,0.8l0.5,0.6l0.5,0.7l0.6,0.9l0.3,0.8l0.4,0.9l0.5,0.8l0.3,0.9l0.3,0.9l0.1,0.9l0.2,1.1l0.2,0.8l0,1l0,1l0.1,72.5l-0.1,0.9l0,1l-0.2,1l-0.2,0.9l-0.1,1l-0.3,0.9l-0.3,0.7l-0.5,1l-0.3,0.9l-0.4,0.7l-0.6,1l-0.5,0.7l-0.5,0.8l-0.7,0.7l-0.6,0.7l-0.8,0.6l-0.6,0.6l-0.8,0.6l-0.7,0.6l-1,0.3l-0.7,0.6l-0.9,0.3l-0.8,0.5l-0.9,0.1l-0.9,0.5l-1,0.1l-1,0.2l-0.8,0.2l-1.1,0l-0.9,0.1Z" /></clipPath>
<clipPath id="c2_45"><path d="M616.8,426.3L616,426.1l-0.6,0l-0.9,-0.2l-0.6,-0.1l-0.8,-0.3l-0.8,-0.2L611.7,425l-0.6,-0.4l-0.8,-0.3l-0.6,-0.5L609,423.5L608.4,423l-0.3,-0.6L607.3,422l-0.5,-0.6l-0.3,-0.5l-0.7,-0.8l-0.3,-0.6L605,418.9l-0.3,-0.6l-0.3,-0.8l-0.3,-0.6l-0.3,-0.7l-0.3,-0.8l0,-0.6L603.2,414l0,-0.7L603,412.5l0,-0.8l0,-58l0,-0.8l0.2,-0.7l0,-0.8l0.3,-0.8l0,-0.7l0.3,-0.8l0.3,-0.8l0.3,-0.6l0.3,-0.6l0.3,-0.8l0.5,-0.6l0.3,-0.6l0.7,-0.6l0.3,-0.7l0.5,-0.4l0.8,-0.6l0.3,-0.6l0.6,-0.3l0.7,-0.4l0.6,-0.5l0.8,-0.3l0.6,-0.3l0.6,-0.3l0.8,-0.3l0.8,-0.2l0.6,-0.1l0.9,-0.3l216.8,0l0.7,0.3l0.8,0.1l0.8,0.3l0.6,0.2l0.7,0.3l0.7,0.3l0.7,0.3l0.6,0.5l0.6,0.4l0.7,0.3l0.6,0.6l0.6,0.6l0.4,0.4l0.5,0.7l0.6,0.6l0.3,0.6l0.3,0.6l0.5,0.8l0.4,0.6l0.2,0.6l0.3,1l0.1,0.6l0.2,0.7l0.1,0.8l0,0.8l0.2,0.7l0,0.8l0.2,58l-0.2,0l0,0.8l0,0.8l-0.2,0.7l-0.1,0.6l-0.2,0.8l-0.1,0.8l-0.3,0.7l-0.2,0.6l-0.4,0.8l-0.3,0.6l-0.5,0.6l-0.3,0.6l-0.6,0.6l-0.5,0.7l-0.4,0.6l-0.6,0.4l-0.6,0.6l-0.7,0.2l-0.6,0.6l-0.6,0.5l-0.7,0.3l-0.7,0.1l-0.7,0.5l-0.6,0.3l-0.8,0.1l-0.8,0.3l-0.7,0l-0.8,0.2l-0.7,0.2Z" /></clipPath>
<style type="text/css"><![CDATA[
.g5_45{
fill: none;
stroke: #48A1FA;
stroke-width: 1;
stroke-linecap: butt;
stroke-linejoin: miter;
stroke-miterlimit: 7;
}
.g11_45{
fill: none;
stroke: #000000;
stroke-width: 1;
stroke-linecap: butt;
stroke-linejoin: miter;
}
.g9_45{
fill: none;
stroke: #5B9BD5;
stroke-width: 1;
stroke-linecap: butt;
stroke-linejoin: miter;
}
.g10_45{
fill: none;
stroke: #000000;
stroke-width: 1;
stroke-linecap: butt;
stroke-linejoin: miter;
stroke-miterlimit: 7;
}
.g8_45{
fill: none;
stroke: #5B9BD5;
stroke-width: 1;
stroke-linecap: butt;
stroke-linejoin: miter;
stroke-miterlimit: 7;
}
.g2_45{
fill: none;
stroke: #48A1FA;
stroke-width: 2;
stroke-linecap: butt;
stroke-linejoin: miter;
stroke-miterlimit: 7;
}
.g6_45{
fill: none;
stroke: #48A1FA;
stroke-width: 2;
stroke-linecap: butt;
stroke-linejoin: miter;
}
.g3_45{
fill: none;
stroke: #5B9BD5;
stroke-width: 2;
stroke-linecap: butt;
stroke-linejoin: miter;
}
.g4_45{
fill: #5B9BD5;
}
.g7_45{
fill: #48A1FA;
}
.g1_45{
fill: #FFFFFF;
}
]]></style>
</defs>
<path fill-rule="evenodd" d="M0,0L1466,0l0,825L0,825L0,0Z" class="g1_45" />
<path fill-rule="evenodd" d="M0,0L1466,0l0,825L0,825L0,0Z" class="g1_45" />
<g clip-path="url(#c0_45)">
<g fill="#FFFFFF" >
<use xlink:href="#f0_2" transform="matrix(10.5,0,0,10.5,59.7,801.9)" />
<use xlink:href="#f0_3" transform="matrix(10.5,0,0,10.5,71,801.9)" />
<use xlink:href="#f0_4" transform="matrix(10.5,0,0,10.5,80,801.9)" />
<use xlink:href="#f0_5" transform="matrix(10.5,0,0,10.5,89,801.9)" />
<use xlink:href="#f0_6" transform="matrix(10.5,0,0,10.5,97.1,801.9)" />
<use xlink:href="#f0_7" transform="matrix(10.5,0,0,10.5,102.3,801.9)" />
<use xlink:href="#f0_8" transform="matrix(10.5,0,0,10.5,106,801.9)" />
<use xlink:href="#f0_9" transform="matrix(10.5,0,0,10.5,115,801.9)" />
<use xlink:href="#f0_a" transform="matrix(10.5,0,0,10.5,124,801.9)" />
<use xlink:href="#f0_c" transform="matrix(10.5,0,0,10.5,132.7,801.9)" />
<use xlink:href="#f0_d" transform="matrix(10.5,0,0,10.5,153.5,801.9)" />
<use xlink:href="#f0_e" transform="matrix(10.5,0,0,10.5,162.3,801.9)" />
<use xlink:href="#f0_f" transform="matrix(10.5,0,0,10.5,171,801.9)" />
<use xlink:href="#f0_g" transform="matrix(10.5,0,0,10.5,180,801.9)" />
<use xlink:href="#f0_h" transform="matrix(10.5,0,0,10.5,188.9,801.9)" />
<use xlink:href="#f0_i" transform="matrix(10.5,0,0,10.5,197.6,801.9)" />
<use xlink:href="#f0_j" transform="matrix(10.5,0,0,10.5,202,801.9)" />
<use xlink:href="#f0_k" transform="matrix(10.5,0,0,10.5,211,801.9)" />
<use xlink:href="#f0_3" transform="matrix(10.5,0,0,10.5,215.4,801.9)" />
<use xlink:href="#f0_l" transform="matrix(10.5,0,0,10.5,224.3,801.9)" />
<use xlink:href="#f0_5" transform="matrix(10.5,0,0,10.5,232.2,801.9)" />
<use xlink:href="#f0_l" transform="matrix(10.5,0,0,10.5,240.3,801.9)" />
<use xlink:href="#f0_m" transform="matrix(10.5,0,0,10.5,252.5,801.9)" />
<use xlink:href="#f0_7" transform="matrix(10.5,0,0,10.5,261.4,801.9)" />
<use xlink:href="#f0_n" transform="matrix(10.5,0,0,10.5,265.1,801.9)" />
<use xlink:href="#f0_7" transform="matrix(10.5,0,0,10.5,278.5,801.9)" />
<use xlink:href="#f0_a" transform="matrix(10.5,0,0,10.5,282,801.9)" />
<use xlink:href="#f0_o" transform="matrix(10.5,0,0,10.5,286.4,801.9)" />
<use xlink:href="#f0_p" transform="matrix(10.5,0,0,10.5,295.4,801.9)" />
</g>
</g>
<image x="467" y="285" width="514" height="200" xlink:href="shade/1.png" />
<g clip-path="url(#c0_45)">
<g fill="#FFFFFF" >
<use xlink:href="#f1_2" transform="matrix(14,0,0,14,794.4,457.3)" />
<use xlink:href="#f1_3" transform="matrix(14,0,0,14,807.3,457.3)" />
<use xlink:href="#f1_4" transform="matrix(14,0,0,14,820.1,457.3)" />
<use xlink:href="#f1_5" transform="matrix(14,0,0,14,832.9,457.3)" />
<use xlink:href="#f1_6" transform="matrix(14,0,0,14,845.8,457.3)" />
<use xlink:href="#f1_7" transform="matrix(14,0,0,14,858.6,457.3)" />
<use xlink:href="#f1_9" transform="matrix(14,0,0,14,884.3,457.3)" />
<use xlink:href="#f1_7" transform="matrix(14,0,0,14,897.1,457.3)" />
<use xlink:href="#f1_3" transform="matrix(14,0,0,14,909.9,457.3)" />
<use xlink:href="#f1_a" transform="matrix(14,0,0,14,922.8,457.3)" />
<use xlink:href="#f1_7" transform="matrix(14,0,0,14,935.6,457.3)" />
<use xlink:href="#f1_3" transform="matrix(14,0,0,14,948.4,457.3)" />
</g>
</g>
<image x="467" y="27" width="514" height="203" xlink:href="shade/2.png" />
<path d="M723.9,168.4L618.3,168.2" class="g2_45" />
<g clip-path="url(#c0_45)">
<g fill="#FFFFFF" >
<use xlink:href="#f1_b" transform="matrix(14,0,0,14,620.4,67.7)" />
<use xlink:href="#f1_c" transform="matrix(14,0,0,14,633.3,67.7)" />
<use xlink:href="#f1_d" transform="matrix(14,0,0,14,646.1,67.7)" />
<use xlink:href="#f1_9" transform="matrix(14,0,0,14,658.9,67.7)" />
<use xlink:href="#f1_e" transform="matrix(14,0,0,14,671.8,67.7)" />
<use xlink:href="#f1_c" transform="matrix(14,0,0,14,684.6,67.7)" />
<use xlink:href="#f1_f" transform="matrix(14,0,0,14,710.3,67.7)" />
<use xlink:href="#f1_g" transform="matrix(14,0,0,14,723.1,67.7)" />
<use xlink:href="#f1_h" transform="matrix(14,0,0,14,735.9,67.7)" />
<use xlink:href="#f1_i" transform="matrix(14,0,0,14,748.8,67.7)" />
<use xlink:href="#f1_g" transform="matrix(14,0,0,14,761.6,67.7)" />
<use xlink:href="#f1_7" transform="matrix(14,0,0,14,774.4,67.7)" />
</g>
</g>
<path d="M778,128l-158,0" class="g3_45" />
<path fill-rule="evenodd" d="M787,128.6l-9.1,4.6l3.7,-4.6l-3.7,-4.5l9.1,4.5Z" class="g4_45" />
<image x="789" y="100" width="150" height="107" xlink:href="shade/3.png" />
<path d="M789.4,115l0,-0.7l0,-0.8l0.2,-0.8l0.1,-0.6l0.2,-0.7l0.1,-0.8l0.3,-0.6l0.3,-0.8l0.3,-0.6l0.3,-0.7l0.5,-0.6l0.3,-0.7l0.5,-0.6l0.6,-0.4l0.4,-0.6l0.5,-0.5l0.6,-0.5l0.6,-0.4l0.6,-0.5l0.6,-0.3l0.6,-0.4l0.8,-0.3l0.6,-0.3l0.8,-0.2l0.6,-0.3l0.8,-0.2l0.7,-0.1l0.8,0l0.7,-0.2l0.7,0l120.3,0l0.8,0l0.8,0.2l0.7,0l0.6,0.1l0.8,0.2l0.8,0.3l0.6,0.2l0.8,0.3l0.6,0.3l0.6,0.4l0.7,0.3l0.7,0.5l0.4,0.4l0.6,0.5l0.6,0.5l0.5,0.6l0.4,0.6l0.5,0.4l0.5,0.7l0.3,0.7l0.3,0.6l0.4,0.6L937,110l0.3,0.6l0.1,0.8l0.3,0.7l0,0.6l0.2,0.8l0.2,0.8l0,0.7l0,76.7l0,0.8l-0.2,0.8l0,0.7l-0.2,0.6l-0.1,0.8l-0.3,0.8l-0.2,0.6l-0.3,0.7l-0.3,0.7l-0.4,0.6l-0.3,0.7l-0.5,0.6l-0.5,0.5l-0.4,0.6l-0.5,0.6l-0.6,0.5l-0.6,0.4l-0.4,0.5l-0.7,0.5l-0.7,0.3l-0.6,0.3l-0.6,0.4l-0.8,0.2l-0.6,0.3l-0.8,0.1l-0.8,0.3l-0.6,0l-0.7,0.2l-0.8,0.1l-0.8,0l-120.3,0l-0.7,0l-0.7,-0.1l-0.8,0l-0.7,-0.2l-0.8,-0.1l-0.6,-0.3L798.4,205l-0.6,-0.3L797,204.4L796.4,204l-0.6,-0.3l-0.6,-0.5l-0.6,-0.5L794,202.3l-0.5,-0.5l-0.4,-0.6l-0.6,-0.5L792,200.1l-0.3,-0.6l-0.5,-0.6l-0.3,-0.7l-0.3,-0.7l-0.3,-0.7L790,196.2l-0.1,-0.8l-0.2,-0.8L789.6,194l-0.2,-0.7l0,-0.8l0,-0.8l0,-76.7Z" class="g5_45" />
<g clip-path="url(#c0_45)">
<g fill="#000000" >
<use xlink:href="#f1_b" transform="matrix(14,0,0,14,799.5,136.3)" />
<use xlink:href="#f1_3" transform="matrix(14,0,0,14,812.3,136.3)" />
<use xlink:href="#f1_j" transform="matrix(14,0,0,14,825.2,136.3)" />
<use xlink:href="#f1_5" transform="matrix(14,0,0,14,838,136.3)" />
<use xlink:href="#f1_7" transform="matrix(14,0,0,14,850.8,136.3)" />
<use xlink:href="#f1_k" transform="matrix(14,0,0,14,863.7,136.3)" />
<use xlink:href="#f1_l" transform="matrix(14,0,0,14,876.5,136.3)" />
<use xlink:href="#f1_3" transform="matrix(14,0,0,14,889.3,136.3)" />
<use xlink:href="#f1_4" transform="matrix(14,0,0,14,902.2,136.3)" />
<use xlink:href="#f1_6" transform="matrix(14,0,0,14,915,136.3)" />
<use xlink:href="#f1_m" transform="matrix(14,0,0,14,805.9,161.9)" />
<use xlink:href="#f1_n" transform="matrix(14,0,0,14,818.7,161.9)" />
<use xlink:href="#f1_4" transform="matrix(14,0,0,14,831.6,161.9)" />
<use xlink:href="#f1_n" transform="matrix(14,0,0,14,844.4,161.9)" />
<use xlink:href="#f1_7" transform="matrix(14,0,0,14,857.2,161.9)" />
<use xlink:href="#f1_o" transform="matrix(14,0,0,14,870.1,161.9)" />
<use xlink:href="#f1_7" transform="matrix(14,0,0,14,882.9,161.9)" />
<use xlink:href="#f1_g" transform="matrix(14,0,0,14,895.7,161.9)" />
<use xlink:href="#f1_n" transform="matrix(14,0,0,14,908.6,161.9)" />
<use xlink:href="#f1_7" transform="matrix(14,0,0,14,812.3,187.6)" />
<use xlink:href="#f1_p" transform="matrix(14,0,0,14,825.2,187.6)" />
<use xlink:href="#f1_7" transform="matrix(14,0,0,14,838,187.6)" />
<use xlink:href="#f1_5" transform="matrix(14,0,0,14,850.8,187.6)" />
<use xlink:href="#f1_l" transform="matrix(14,0,0,14,863.7,187.6)" />
<use xlink:href="#f1_n" transform="matrix(14,0,0,14,876.5,187.6)" />
<use xlink:href="#f1_j" transform="matrix(14,0,0,14,889.3,187.6)" />
<use xlink:href="#f1_3" transform="matrix(14,0,0,14,902.2,187.6)" />
</g>
</g>
<path d="M725,169l0,162" class="g6_45" />
<path fill-rule="evenodd" d="M725.5,339.5l-4.5,-9l4.5,3.6l4.6,-3.6l-4.6,9Z" class="g7_45" />
<g clip-path="url(#c0_45)">
<g fill="#FFFFFF" >
<use xlink:href="#f1_b" transform="matrix(14,0,0,14,637.5,100.8)" />
<use xlink:href="#f1_3" transform="matrix(14,0,0,14,650.4,100.8)" />
<use xlink:href="#f1_j" transform="matrix(14,0,0,14,663.2,100.8)" />
<use xlink:href="#f1_5" transform="matrix(14,0,0,14,676,100.8)" />
<use xlink:href="#f1_7" transform="matrix(14,0,0,14,688.9,100.8)" />
<use xlink:href="#f1_k" transform="matrix(14,0,0,14,701.7,100.8)" />
<use xlink:href="#f1_l" transform="matrix(14,0,0,14,714.5,100.8)" />
<use xlink:href="#f1_3" transform="matrix(14,0,0,14,727.4,100.8)" />
<use xlink:href="#f1_4" transform="matrix(14,0,0,14,740.2,100.8)" />
<use xlink:href="#f1_6" transform="matrix(14,0,0,14,753,100.8)" />
<use xlink:href="#f1_9" transform="matrix(14,0,0,14,659.5,161.2)" />
<use xlink:href="#f1_e" transform="matrix(14,0,0,14,672.4,161.2)" />
<use xlink:href="#f1_c" transform="matrix(14,0,0,14,685.3,161.2)" />
</g>
</g>
<image x="490" y="106" width="130" height="81" xlink:href="shade/4.png" />
<path d="M490.4,117.5l0,-0.6l0,-0.6l0.2,-0.5l0,-0.6l0.1,-0.5l0.2,-0.6l0.1,-0.4l0.3,-0.6l0.2,-0.5l0.3,-0.5l0.3,-0.6l0.3,-0.4l0.3,-0.3l0.5,-0.5l0.3,-0.5l0.4,-0.3l0.5,-0.4l0.4,-0.3l0.5,-0.3l0.5,-0.3l0.4,-0.3l0.5,-0.3l0.6,-0.2l0.4,-0.1l0.7,-0.2l0.4,-0.2l0.6,-0.1l0.6,0l0.5,-0.2l0.6,0l106.8,0l0.5,0l0.6,0.2l0.6,0l0.4,0.1l0.7,0.2l0.4,0.2l0.6,0.1l0.5,0.3l0.4,0.2l0.6,0.3l0.5,0.3l0.5,0.3l0.4,0.3l0.3,0.4l0.5,0.3l0.4,0.5l0.4,0.5l0.3,0.4l0.3,0.3l0.3,0.6l0.3,0.5l0.3,0.5l0.1,0.6l0.2,0.4l0.1,0.6l0.2,0.5l0.1,0.6l0,0.5l0.2,0.6l0,0.6l0,58.3l0,0.5l0,0.6l-0.2,0.6l0,0.5l-0.1,0.6l-0.2,0.5l-0.3,0.6l-0.1,0.4l-0.2,0.5l-0.3,0.6l-0.3,0.5l-0.3,0.4l-0.4,0.5l-0.4,0.3l-0.3,0.4l-0.4,0.5l-0.5,0.3l-0.4,0.3l-0.5,0.3l-0.5,0.3l-0.4,0.3l-0.6,0.3l-0.5,0.2l-0.4,0.1l-0.6,0.2l-0.7,0.1l-0.4,0.2l-0.6,0l-0.6,0.1l-0.5,0l-106.8,0l-0.6,0l-0.5,0l-0.6,-0.1l-0.6,0l-0.4,-0.2l-0.7,-0.1l-0.4,-0.3l-0.6,-0.2l-0.5,-0.1l-0.4,-0.3l-0.5,-0.3l-0.5,-0.3l-0.4,-0.3l-0.5,-0.5l-0.4,-0.5L493.2,183l-0.5,-0.4l-0.3,-0.5l-0.3,-0.4l-0.3,-0.5l-0.3,-0.5l-0.2,-0.6L491,179.7l-0.1,-0.6l-0.2,-0.5L490.6,178l0,-0.5l-0.2,-0.6l0,-0.6l0,-0.5l0,-58.3Z" class="g8_45" />
<g clip-path="url(#c0_45)">
<g fill="#000000" >
<use xlink:href="#f1_b" transform="matrix(14,0,0,14,503.1,142.4)" />
<use xlink:href="#f1_c" transform="matrix(14,0,0,14,515.9,142.4)" />
<use xlink:href="#f1_d" transform="matrix(14,0,0,14,541.6,142.4)" />
<use xlink:href="#f1_9" transform="matrix(14,0,0,14,554.4,142.4)" />
<use xlink:href="#f1_e" transform="matrix(14,0,0,14,567.3,142.4)" />
<use xlink:href="#f1_c" transform="matrix(14,0,0,14,580.1,142.4)" />
<use xlink:href="#f1_q" transform="matrix(14,0,0,14,522.3,168.1)" />
<use xlink:href="#f1_6" transform="matrix(14,0,0,14,535.2,168.1)" />
<use xlink:href="#f1_j" transform="matrix(14,0,0,14,548.1,168.1)" />
<use xlink:href="#f1_5" transform="matrix(14,0,0,14,560.8,168.1)" />
<use xlink:href="#f1_r" transform="matrix(14,0,0,14,573.7,168.1)" />
</g>
</g>
<image x="226" y="92" width="182" height="111" xlink:href="shade/5.png" />
<g clip-path="url(#c1_45)">
<path d="M226.5,201.5l181,0l0,-109l-181,0l0,109Z" class="g9_45" />
</g>
<path d="M226.3,110.5l0.1,-1.1l0,-0.9l0.2,-0.9l0.1,-1l0.2,-0.9l0.3,-0.9l0.3,-0.9l0.4,-0.9l0.3,-0.8l0.5,-0.9l0.6,-0.8l0.5,-0.7L230.4,99L231,98.2l0.6,-0.6l0.8,-0.7L233,96.3l0.8,-0.7l0.9,-0.4l0.7,-0.5l0.8,-0.4l0.9,-0.5L238,93.5l0.9,-0.3l1,-0.3l0.7,-0.3l0.9,-0.2l1.1,-0.1l0.9,0l0.9,0l144.7,0l1.1,0l0.9,0l0.9,0.1l0.9,0.2l1,0.3l0.9,0.3l0.9,0.3l0.9,0.3l0.8,0.5l0.9,0.4l0.8,0.5l0.7,0.4l0.8,0.7l0.7,0.6l0.7,0.7l0.7,0.6l0.6,0.8l0.5,0.8l0.6,0.7l0.5,0.8l0.4,0.9l0.5,0.8l0.3,0.9l0.3,0.9l0.3,0.9l0.1,0.9l0.4,1l0,0.9l0.1,0.9l0,1.1l0.2,72.5l-0.2,0l0,0.9l0,1l-0.1,0.9l-0.2,0.9l-0.3,0.9l-0.3,0.9l-0.3,0.9l-0.3,1l-0.5,0.7l-0.4,0.9l-0.5,0.8l-0.5,0.8l-0.6,0.7l-0.6,0.8l-0.7,0.8l-0.7,0.6l-0.7,0.6l-0.8,0.4l-0.7,0.7l-0.8,0.4l-0.9,0.5l-0.8,0.4l-0.9,0.3l-0.9,0.3l-0.9,0.3l-1,0.3l-0.9,0.2l-0.9,0.2l-0.9,0l-1.1,0l-144.7,0.1l0,-0.1l-0.9,0l-0.9,0l-1.1,-0.2l-0.9,-0.2l-0.7,-0.3l-1,-0.3L238,199.8l-0.9,-0.3l-0.9,-0.4l-0.8,-0.3l-0.7,-0.6l-0.9,-0.5L233,197.1l-0.6,-0.6l-0.8,-0.6L231,195.1l-0.6,-0.8l-0.6,-0.7l-0.5,-0.8L228.7,192l-0.5,-0.9l-0.3,-0.7l-0.4,-1l-0.3,-0.9l-0.3,-0.9l-0.2,-0.9l-0.1,-0.9l-0.2,-0.9l0,-1L226.3,183l0,-72.5Z" class="g10_45" />
<g clip-path="url(#c0_45)">
<g fill="#000000" >
<use xlink:href="#f1_b" transform="matrix(14,0,0,14,278.4,142.4)" />
<use xlink:href="#f1_c" transform="matrix(14,0,0,14,291.2,142.4)" />
<use xlink:href="#f1_d" transform="matrix(14,0,0,14,304,142.4)" />
<use xlink:href="#f1_9" transform="matrix(14,0,0,14,316.9,142.4)" />
<use xlink:href="#f1_e" transform="matrix(14,0,0,14,329.7,142.4)" />
<use xlink:href="#f1_c" transform="matrix(14,0,0,14,342.5,142.4)" />
<use xlink:href="#f1_q" transform="matrix(14,0,0,14,284.8,168.1)" />
<use xlink:href="#f1_6" transform="matrix(14,0,0,14,297.6,168.1)" />
<use xlink:href="#f1_j" transform="matrix(14,0,0,14,310.4,168.1)" />
<use xlink:href="#f1_5" transform="matrix(14,0,0,14,323.3,168.1)" />
<use xlink:href="#f1_r" transform="matrix(14,0,0,14,336.1,168.1)" />
</g>
</g>
<image x="603" y="339" width="243" height="88" xlink:href="shade/6.png" />
<g clip-path="url(#c2_45)">
<path d="M603.5,426.5l241,0l0,-87l-241,0l0,87Z" class="g11_45" />
</g>
<path d="M603.2,353.5l0,-0.7l0,-0.8l0.1,-0.8l0.2,-0.7l0.1,-0.6l0.2,-0.8l0.3,-0.8l0.3,-0.6l0.3,-0.7l0.5,-0.7l0.3,-0.6l0.4,-0.7l0.5,-0.6l0.4,-0.5l0.6,-0.6l0.5,-0.5l0.6,-0.4l0.6,-0.6l0.6,-0.3l0.6,-0.5l0.8,-0.3l0.6,-0.5l0.8,-0.3l0.6,-0.1l0.8,-0.3l0.7,-0.2l0.8,-0.1l0.8,0l0.7,-0.2l0.8,0L830,339l0.8,0.2l0.8,0l0.7,0l0.6,0.3l1,0.1l0.6,0.2l0.7,0.3l0.6,0.1l0.8,0.5l0.6,0.3l0.6,0.5l0.6,0.3l0.7,0.6l0.6,0.4l0.6,0.5l0.4,0.6l0.6,0.6l0.4,0.5l0.4,0.7l0.5,0.6l0.3,0.7l0.3,0.7l0.3,0.6l0.3,0.8l0.1,0.8l0.3,0.6l0,0.7l0.2,0.8l0.2,0.8l0,0.7l0,58.1l0,0.7l-0.2,0.8l0,0.8l-0.2,0.7l-0.3,0.8l-0.1,0.8l-0.3,0.6l-0.2,0.7l-0.4,0.7l-0.3,0.7l-0.3,0.6l-0.5,0.6l-0.5,0.6l-0.6,0.7l-0.4,0.4l-0.6,0.6l-0.6,0.5l-0.5,0.4l-0.8,0.5l-0.6,0.3l-0.6,0.5l-0.8,0.3l-0.6,0.3l-0.7,0.1l-0.6,0.3l-0.8,0.2l-0.8,0.1l-0.7,0l-0.8,0.2l-0.8,0l-212.3,0.2l0,-0.2l-0.8,0l-0.7,0l-0.8,-0.2l-0.8,-0.1l-0.7,-0.2l-0.8,-0.1l-0.6,-0.3l-0.8,-0.3l-0.6,-0.3l-0.8,-0.3l-0.6,-0.5l-0.6,-0.5l-0.6,-0.4l-0.6,-0.5L607.4,422l-0.6,-0.6l-0.4,-0.7l-0.5,-0.6l-0.4,-0.6l-0.3,-0.6l-0.5,-0.7l-0.3,-0.7l-0.3,-0.7l-0.3,-0.6l-0.2,-0.8l-0.1,-0.8l-0.2,-0.7l-0.1,-0.8l0,-0.8l0,-0.7l0,-58.1Z" class="g5_45" />
<g clip-path="url(#c0_45)">
<g fill="#000000" >
<use xlink:href="#f1_9" transform="matrix(14,0,0,14,640.4,378.4)" />
<use xlink:href="#f1_e" transform="matrix(14,0,0,14,653.3,378.4)" />
<use xlink:href="#f1_c" transform="matrix(14,0,0,14,666.1,378.4)" />
<use xlink:href="#f1_m" transform="matrix(14,0,0,14,691.8,378.4)" />
<use xlink:href="#f1_n" transform="matrix(14,0,0,14,704.6,378.4)" />
<use xlink:href="#f1_4" transform="matrix(14,0,0,14,717.4,378.4)" />
<use xlink:href="#f1_n" transform="matrix(14,0,0,14,730.3,378.4)" />
<use xlink:href="#f1_7" transform="matrix(14,0,0,14,743.1,378.4)" />
<use xlink:href="#f1_o" transform="matrix(14,0,0,14,755.9,378.4)" />
<use xlink:href="#f1_7" transform="matrix(14,0,0,14,768.8,378.4)" />
<use xlink:href="#f1_g" transform="matrix(14,0,0,14,781.6,378.4)" />
<use xlink:href="#f1_n" transform="matrix(14,0,0,14,794.4,378.4)" />
<use xlink:href="#f1_7" transform="matrix(14,0,0,14,672.5,403.9)" />
<use xlink:href="#f1_p" transform="matrix(14,0,0,14,685.4,403.9)" />
<use xlink:href="#f1_7" transform="matrix(14,0,0,14,698.2,403.9)" />
<use xlink:href="#f1_5" transform="matrix(14,0,0,14,711,403.9)" />
<use xlink:href="#f1_l" transform="matrix(14,0,0,14,723.9,403.9)" />
<use xlink:href="#f1_n" transform="matrix(14,0,0,14,736.7,403.9)" />
<use xlink:href="#f1_j" transform="matrix(14,0,0,14,749.5,403.9)" />
<use xlink:href="#f1_3" transform="matrix(14,0,0,14,762.4,403.9)" />
</g>
</g>
<path d="M407,150l47,0" class="g3_45" />
<path fill-rule="evenodd" d="M467.7,150.5l-12.4,6.7l-1.2,-2l8.7,-4.7l-8.7,-4.9l1.2,-2l12.4,6.9Z" class="g4_45" />
<defs>
	<path d="M589.7,-13.7c0,0,-128.3,0,-223,39.7c0,0,-96.3,39.7,-160.4,111.5c0,0,-65.7,73.3,-97.8,172.6c0,0,-32.1,100.9,-32.1,220c0,0,0,122.3,33.6,221.6c0,0,35.1,99.3,99.3,168c0,0,65.7,70.3,160.4,108.5c0,0,96.3,38.2,218.5,38.2c0,0,168.1,0,281.1,-65.7c0,0,113.1,-65.7,165,-195.6L899.9,760.8c0,0,-15.3,36.7,-39.8,70.3c0,0,-25.9,35.2,-64.1,61.1c0,0,-38.2,26,-88.6,41.3c0,0,-52,16.8,-117.7,16.8c0,0,-88.6,0,-157.3,-29c0,0,-70.3,-30.6,-116.1,-85.6c0,0,-47.4,-56.5,-70.3,-132.9c0,0,-24.5,-77.9,-24.5,-172.7c0,0,0,-94.7,26,-172.6c0,0,26,-79.4,73.3,-136c0,0,48.9,-58,117.7,-88.6c0,0,70.3,-32.1,157.3,-32.1c0,0,61.1,0,111.6,15.3c0,0,50.4,16.8,90.1,45.8c0,0,41.3,29.1,73.3,68.8c0,0,32.1,41.2,56.6,88.6l117.6,-58c0,0,-29,-58.1,-70.3,-108.5c0,0,-42.8,-52,-97.8,-88.6c0,0,-56.5,-36.7,-128.3,-56.6c0,0,-71.8,-21.3,-158.9,-21.3Z" 
	id="f0_2"
	transform="scale(0.001,-0.001)" />

	<path d="M418.6,84c0,0,52,0,93.2,13.8c0,0,42.8,15.3,71.8,51.9c0,0,29,36.7,44.3,97.8c0,0,15.3,62.6,15.3,155.8c0,0,0,94.8,-13.8,155.9c0,0,-15.2,61.1,-42.7,97.7c0,0,-27.5,36.7,-67.3,50.5c0,0,-41.2,15.2,-91.6,15.2c0,0,-52,0,-93.2,-15.2c0,0,-41.3,-15.3,-70.3,-52c0,0,-29,-38.2,-44.3,-99.3c0,0,-15.3,-61.1,-15.3,-152.8c0,0,0,-93.2,15.3,-154.3c0,0,16.8,-62.6,45.8,-99.3c0,0,29.1,-36.6,67.3,-50.4c0,0,39.7,-15.3,85.5,-15.3Zm1.5,-97.7c0,0,-84,0,-149.7,24.4c0,0,-67.2,24.4,-113,76.4c0,0,-45.9,51.9,-70.3,129.8c0,0,-24.5,79.5,-24.5,186.4c0,0,0,418.6,362.1,418.6c0,0,94.7,0,162,-25.9c0,0,68.7,-27.5,111.5,-79.5c0,0,44.3,-51.9,65.7,-129.8c0,0,21.4,-77.9,21.4,-183.4c0,0,0,-212.3,-93.2,-314.7c0,0,-93.2,-102.3,-272,-102.3Z" 
	id="f0_3"
	transform="scale(0.001,-0.001)" />

	<path d="M452.2,84c0,0,56.6,0,93.2,21.4c0,0,36.7,21.4,58.1,62.7c0,0,22.9,41.2,30.5,99.3c0,0,9.2,59.5,9.2,135.9c0,0,0,74.9,-7.6,133c0,0,-9.2,58,-30.6,97.7c0,0,-22.9,41.3,-59.6,61.1c0,0,-36.6,21.4,-91.6,21.4c0,0,-44.4,0,-84.1,-12.2c0,0,-39.7,-12.2,-68.7,-47.4c0,0,-30.6,-36.6,-47.4,-99.3c0,0,-16.8,-64.1,-16.8,-165c0,0,0,-85.5,13.8,-143.6c0,0,13.7,-59.6,41.2,-96.2c0,0,27.5,-36.7,67.2,-52c0,0,41.3,-16.8,93.2,-16.8ZM102.4,-316.2l0,957.9c0,0,0,29,0,55c0,0,-1.6,27.5,-1.6,48.9c0,0,-1.5,22.9,-1.5,38.2c0,0,-1.5,15.2,-1.5,22.9l129.8,0c0,0,0,-3.1,1.6,-15.3c0,0,1.5,-13.8,1.5,-32.1c0,0,1.5,-19.9,3.1,-41.2c0,0,1.5,-21.4,1.5,-41.3l3,0c0,0,18.4,38.2,41.3,65.7c0,0,24.4,27.5,55,44.3c0,0,30.5,18.3,68.7,26c0,0,38.2,7.6,84.1,7.6c0,0,84,0,140.5,-29c0,0,58.1,-30.6,91.7,-84c0,0,35.1,-55,50.4,-131.4c0,0,15.3,-76.4,15.3,-169.6c0,0,0,-91.7,-15.3,-169.6c0,0,-15.3,-77.9,-48.9,-132.9c0,0,-35.1,-56.5,-91.7,-87.1c0,0,-58,-30.5,-142,-30.5c0,0,-85.6,0,-149.8,32c0,0,-65.7,32.1,-100.8,107l-3,0c0,0,0,-1.5,0,-13.8c0,0,1.5,-12.2,1.5,-30.5c0,0,0,-18.4,0,-39.7c0,0,1.5,-21.4,1.5,-41.3l0,-316.2Z" 
	id="f0_4"
	transform="scale(0.001,-0.001)" />

	<path d="M142.1,-316.2c0,0,-26,0,-47.4,1.6c0,0,-21.4,1.5,-45.8,6.1l0,100.8c0,0,13.7,-1.5,32.1,-3c0,0,18.3,-1.6,30.5,-1.6c0,0,59.6,0,110,44.3c0,0,50.4,44.3,88.6,140.6L322.4,3.1L3.1,806.7l143.6,0L316.3,360.6c0,0,7.6,-19.9,18.3,-53.5c0,0,12.2,-33.6,22.9,-67.2c0,0,12.2,-33.6,21.4,-59.6c0,0,9.2,-27.5,10.7,-35.2c0,0,1.5,9.2,10.7,32.1c0,0,9.1,24.5,19.8,53.5c0,0,10.7,30.6,21.4,61.1c0,0,10.7,30.6,18.4,53.5L618.8,806.7l142,0L449.2,0c0,0,-27.5,-71.7,-56.6,-129.8c0,0,-30.5,-59.5,-67.2,-100.8c0,0,-36.6,-41.2,-81,-62.6c0,0,-44.3,-23,-102.3,-23Z" 
	id="f0_5"
	transform="scale(0.001,-0.001)" />

	<path d="M105.4,0l0,618.8c0,0,0,24.4,0,50.4c0,0,-1.5,27.5,-1.5,51.9c0,0,-1.5,24.5,-1.5,45.8c0,0,-1.6,23,-1.6,39.8l126.8,0c0,0,0,-16.8,1.6,-38.2c0,0,1.5,-22.9,1.5,-45.9c0,0,1.5,-22.9,1.5,-44.3c0,0,1.6,-21.4,1.6,-36.6l3,0c0,0,13.8,45.8,29,79.4c0,0,16.8,35.2,38.2,56.5c0,0,21.4,21.4,50.4,32.1c0,0,30.6,12.2,73.4,12.2c0,0,16.8,0,32.1,-3c0,0,15.2,-3.1,22.9,-4.6l0,-123.7c0,0,-13.8,4.5,-30.6,6.1c0,0,-18.3,1.5,-41.2,1.5c0,0,-45.9,0,-77.9,-19.9c0,0,-33.7,-21.4,-53.5,-58c0,0,-21.4,-38.2,-30.6,-88.6c0,0,-9.1,-52,-9.1,-111.6L239.9,0Z" 
	id="f0_6"
	transform="scale(0.001,-0.001)" />

	<path d="M100,0l0,806l135,0L235,0Zm0,977l0,129l135,0l0,-129Z" 
	id="f0_7"
	transform="scale(0.001,-0.001)" />

	<path d="M397.2,93.2c0,0,39.7,0,77.9,16.8c0,0,38.2,16.8,68.8,53.5c0,0,30.5,38.2,48.9,96.2c0,0,19.8,59.6,19.8,143.6c0,0,0,84.1,-18.3,143.6c0,0,-18.3,59.6,-47.4,97.8c0,0,-30.5,38.2,-68.7,56.6c0,0,-38.2,18.3,-79.4,18.3c0,0,-50.5,0,-87.1,-18.3c0,0,-38.2,-18.4,-62.7,-56.6c0,0,-24.4,-38.2,-35.1,-97.8c0,0,-12.2,-61.1,-12.2,-143.6c0,0,0,-87,10.7,-146.6c0,0,12.2,-59.6,36.6,-96.3c0,0,24.5,-36.6,61.1,-51.9c0,0,36.7,-15.3,87.1,-15.3Zm10.7,-409.4c0,0,-68.7,0,-122.2,13.8c0,0,-55,15.3,-91.7,41.2c0,0,-38.2,26,-62.6,62.7c0,0,-24.5,36.7,-35.1,81l135.9,19.8c0,0,13.8,-56.5,59.6,-85.5c0,0,45.8,-30.6,120.7,-30.6c0,0,44.3,0,81,12.2c0,0,38.2,12.3,64.1,39.8c0,0,26,29,39.8,73.3c0,0,15.2,45.8,15.2,108.4l0,129.8l-1.5,0c0,0,-15.3,-30.5,-36.7,-58c0,0,-22.9,-29.1,-53.4,-50.4c0,0,-32.1,-21.4,-73.4,-33.7c0,0,-42.7,-12.1,-96.2,-12.1c0,0,-76.4,0,-131.4,24.4c0,0,-55,24.4,-90.1,76.4c0,0,-35.2,51.9,-50.5,128.3c0,0,-16.8,76.4,-16.8,177.2c0,0,0,96.3,15.3,174.2c0,0,16.8,77.9,53.5,131.4c0,0,36.7,55,94.7,82.5c0,0,58.1,29,140.6,29c0,0,85.5,0,148.2,-38.2c0,0,62.6,-39.7,97.7,-113.1l1.6,0c0,0,0,19.9,0,42.8c0,0,1.5,22.9,3,42.8c0,0,1.6,21.4,3.1,35.1c0,0,1.5,15.3,3,18.4l126.8,0c0,0,0,-7.7,0,-22.9c0,0,-1.5,-16.9,-1.5,-38.2c0,0,-1.5,-23,-1.5,-50.5c0,0,-1.5,-27.5,-1.5,-56.5l0,-615.7c0,0,0,-167.9,-82.5,-253.5c0,0,-84.1,-85.6,-255.2,-85.6Z" 
	id="f0_8"
	transform="scale(0.001,-0.001)" />

	<path d="M105.4,0l0,1106.1l134.5,0l0,-287.2c0,0,0,-24.5,0,-48.9c0,0,-1.6,-26,-3.1,-45.8c0,0,-1.5,-21.4,-1.5,-35.2c0,0,-1.5,-15.2,-1.5,-21.4l1.5,0c0,0,22.9,41.3,48.9,70.3c0,0,25.9,29,56.5,47.4c0,0,32.1,18.3,68.7,27.5c0,0,38.2,9.1,84.1,9.1c0,0,77.9,0,126.8,-21.3c0,0,50.4,-21.4,79.4,-58.1c0,0,29.1,-38.2,39.7,-90.1c0,0,10.7,-52,10.7,-114.6L750.1,0L614.2,0l0,510.3c0,0,0,51.9,-6.1,90.1c0,0,-6.2,39.7,-23,65.7c0,0,-18.3,26,-50.4,38.2c0,0,-33.6,13.8,-87.1,13.8c0,0,-47.3,0,-85.5,-16.8c0,0,-38.2,-18.4,-65.7,-48.9c0,0,-27.5,-32.1,-41.3,-76.4c0,0,-15.2,-44.3,-15.2,-100.9L239.9,0Z" 
	id="f0_9"
	transform="scale(0.001,-0.001)" />

	<path d="M276.5,-10.6c0,0,-160.4,0,-160.4,180.2l0,539.3l-93.2,0l0,97.8l97.8,0l39.7,180.2l90.2,0l0,-180.2l148.2,0l0,-97.8l-148.2,0l0,-510.3c0,0,0,-58,18.3,-81c0,0,18.3,-22.9,65.7,-22.9c0,0,19.8,0,38.2,1.6c0,0,18.3,3,39.7,7.6l0,-99.3c0,0,-30.6,-6,-62.6,-10.6c0,0,-32.1,-4.6,-73.4,-4.6Z" 
	id="f0_a"
	transform="scale(0.001,-0.001)" />

	<path d="M670.7,174.2c0,0,51.9,0,96.2,22.9c0,0,44.4,24.4,79.5,61.1c0,0,36.7,38.2,62.6,87.1c0,0,26,50.4,39.8,102.3c0,0,6.1,27.5,10.6,56.6c0,0,6.2,30.5,6.2,51.9c0,0,0,38.2,-12.3,68.8c0,0,-12.2,32,-35.1,53.4c0,0,-24.4,23,-58.1,35.2c0,0,-33.6,12.2,-74.8,12.2c0,0,-64.2,0,-111.5,-30.6c0,0,-48.9,-32,-81,-84c0,0,-33.6,-51.9,-50.4,-116.1c0,0,-16.8,-64.2,-16.8,-129.9c0,0,0,-88.6,35.1,-139c0,0,36.7,-51.9,110,-51.9Zm39.7,-384.9c0,0,-140.5,0,-250.5,42.7c0,0,-110,42.8,-186.4,119.2c0,0,-76.4,76.3,-114.6,181.7c0,0,-39.7,107,-39.7,232.2c0,0,0,103.9,22.9,198.7c0,0,24.4,96.2,67.2,178.7c0,0,44.3,82.5,107,148.2c0,0,64.1,67.2,143.6,114.6c0,0,80.9,48.9,175.7,74.8c0,0,96.2,26,203.2,26c0,0,149.7,0,258.1,-44.3c0,0,110,-44.3,180.3,-117.6c0,0,71.8,-74.9,105.4,-172.7c0,0,35.2,-99.3,35.2,-209.3c0,0,0,-106.9,-24.5,-195.5c0,0,-25.9,-90.2,-68.7,-154.3c0,0,-44.3,-64.2,-105.4,-99.3c0,0,-62.7,-36.7,-134.5,-36.7c0,0,-41.2,0,-70.3,9.2c0,0,-30.5,10.7,-48.8,27.5c0,0,-18.4,18.3,-26,42.7c0,0,-9.2,24.5,-9.2,52c0,0,0,12.2,0,27.5c0,0,1.5,16.8,1.5,24.4l-4.5,0c0,0,-16.8,-33.6,-42.8,-65.7c0,0,-26,-33.6,-59.6,-59.6c0,0,-35.1,-25.9,-79.4,-41.2c0,0,-44.3,-16.8,-96.3,-16.8c0,0,-62.6,0,-108.5,21.4c0,0,-47.3,22.9,-77.9,61.1c0,0,-30.5,38.2,-44.3,90.1c0,0,-15.3,53.5,-15.3,114.6c0,0,0,90.2,26,172.7c0,0,26,82.5,74.9,145.1c0,0,50.4,62.6,119.1,100.8c0,0,68.8,38.2,154.3,38.2c0,0,44.3,0,79.5,-9.1c0,0,36.7,-10.7,64.2,-29.1c0,0,27.5,-18.3,47.3,-42.8c0,0,19.9,-24.4,33.6,-55l4.6,0l29,119.2l116.1,0l-87,-377.3c0,0,-13.8,-62.7,-19.9,-107c0,0,-7.6,-44.3,-7.6,-81c0,0,0,-36.6,15.2,-53.4c0,0,16.8,-16.8,45.9,-16.8c0,0,45.8,0,85.5,29c0,0,39.8,30.5,68.8,84c0,0,30.5,53.5,47.3,123.8c0,0,16.8,71.8,16.8,155.8c0,0,0,96.2,-30.5,178.7c0,0,-32.1,84.1,-91.7,143.7c0,0,-59.6,61.1,-148.2,94.7c0,0,-90.1,35.1,-206.2,35.1c0,0,-99.3,0,-183.4,-24.4c0,0,-85.5,-24.5,-154.3,-67.2c0,0,-68.7,-42.8,-120.7,-102.4c0,0,-51.9,-61.1,-87,-132.9c0,0,-35.2,-71.8,-52,-152.8c0,0,-18.3,-82.5,-18.3,-168.1c0,0,0,-105.4,32.1,-194c0,0,32.1,-88.6,93.2,-151.2c0,0,62.6,-62.6,152.7,-97.7c0,0,90.2,-36.7,207.8,-36.7c0,0,79.5,0,146.7,12.2c0,0,67.2,12.3,123.7,29.1c0,0,58.1,18.3,102.4,39.7c0,0,44.3,21.4,77.9,38.1l41.3,-82.4c0,0,-38.2,-21.4,-88.6,-44.3c0,0,-50.5,-24.5,-111.6,-44.3c0,0,-62.6,-19.9,-134.4,-32.1c0,0,-73.4,-12.2,-157.4,-12.2Z" 
	id="f0_c"
	transform="scale(0.001,-0.001)" />

	<path d="M76.4,0l0,94.7c0,0,38.2,87.1,91.7,152.8c0,0,55,67.2,116.1,120.7c0,0,61.1,55,119.1,100.8c0,0,59.6,45.9,107,91.7c0,0,48.9,47.4,77.9,97.8c0,0,29,50.4,29,114.6c0,0,0,45.8,-12.2,79.4c0,0,-13.7,33.6,-38.2,56.5c0,0,-26,22.9,-61.1,33.6c0,0,-36.7,12.3,-79.4,12.3c0,0,-41.3,0,-76.4,-10.7c0,0,-35.2,-10.7,-62.7,-32.1c0,0,-27.5,-22.9,-44.3,-56.5c0,0,-18.3,-33.7,-22.9,-78L82.5,791.4c0,0,6.1,56.5,30.6,105.4c0,0,24.4,50.4,67.2,87.1c0,0,44.3,38.2,105.4,59.6c0,0,61.1,22.9,140.6,22.9c0,0,77.9,0,139,-18.3c0,0,61.1,-19.9,102.3,-56.6c0,0,42.8,-36.6,65.7,-90.1c0,0,23,-53.5,23,-123.8c0,0,0,-51.9,-18.4,-99.3c0,0,-19.8,-48.9,-51.9,-91.6c0,0,-32.1,-44.3,-73.4,-84.1c0,0,-41.2,-39.7,-87,-77.9c0,0,-45.9,-39.7,-91.7,-76.4c0,0,-47.4,-38.2,-87.1,-76.4c0,0,-41.2,-38.1,-73.3,-76.3c0,0,-32.1,-39.8,-50.4,-82.5l548.4,0L771.5,0Z" 
	id="f0_d"
	transform="scale(0.001,-0.001)" />

	<path d="M423.2,94.7c0,0,53.5,0,96.2,21.4c0,0,42.8,21.4,71.9,71.8c0,0,29,50.4,44.3,132.9c0,0,16.8,84.1,16.8,204.8c0,0,0,125.2,-13.8,207.7c0,0,-15.3,84.1,-44.3,133c0,0,-29,50.4,-71.8,70.2c0,0,-42.8,19.9,-96.2,19.9c0,0,-56.6,0,-99.4,-19.9c0,0,-42.7,-21.4,-71.8,-70.2c0,0,-30.5,-50.5,-45.8,-133c0,0,-15.3,-84,-15.3,-207.7c0,0,0,-120.7,15.3,-203.2c0,0,15.3,-84.1,44.3,-134.5c0,0,30.6,-50.4,73.3,-71.8c0,0,42.8,-21.4,96.3,-21.4ZM421.7,-13.7c0,0,-76.4,0,-142.1,25.9c0,0,-67.2,27.5,-116.1,90.2c0,0,-48.9,64.1,-76.4,166.5c0,0,-27.5,103.9,-27.5,256.7c0,0,0,158.8,27.5,262.7c0,0,27.5,103.9,76.4,165c0,0,50.4,62.7,117.6,87.1c0,0,67.2,26,145.2,26c0,0,76.3,0,142,-24.5c0,0,65.7,-25.9,114.6,-87c0,0,48.9,-62.7,77.9,-166.6c0,0,29.1,-103.9,29.1,-262.7c0,0,0,-151.3,-29.1,-255.2c0,0,-29,-103.9,-77.9,-166.5c0,0,-50.4,-64.2,-117.6,-90.1c0,0,-67.2,-27.5,-143.6,-27.5Z" 
	id="f0_e"
	transform="scale(0.001,-0.001)" />

	<path d="M116.1,0l0,113.1l267.4,0l0,809.7L146.7,753.2l0,126.8l247.5,169.6l123.7,0l0,-936.5l256.7,0L774.6,0Z" 
	id="f0_f"
	transform="scale(0.001,-0.001)" />

	<path d="M438.5,93.2c0,0,47.3,0,85.5,16.8c0,0,39.8,16.8,65.7,47.4c0,0,27.5,32,41.3,77.9c0,0,13.7,45.8,13.7,102.3c0,0,0,53.5,-12.2,97.8c0,0,-13.7,44.3,-39.7,74.9c0,0,-27.5,30.5,-67.2,47.3c0,0,-39.8,16.8,-91.7,16.8c0,0,-36.7,0,-73.3,-10.6c0,0,-38.2,-10.7,-68.8,-33.7c0,0,-30.5,-24.4,-48.9,-64.1c0,0,-19.8,-39.7,-19.8,-96.3c0,0,0,-58,15.2,-108.4c0,0,15.3,-50.5,42.8,-87.1c0,0,29,-38.2,67.2,-59.6c0,0,39.8,-21.4,90.2,-21.4Zm4.6,-106.9c0,0,-93.2,0,-160.5,33.6c0,0,-68.7,35.1,-114.5,100.8c0,0,-45.9,65.7,-68.8,161.9c0,0,-22.9,96.3,-22.9,218.5c0,0,0,139,26,244.5c0,0,25.9,106.9,73.3,177.2c0,0,48.9,71.8,119.2,106.9c0,0,70.2,36.7,157.3,36.7c0,0,55,0,100.9,-10.7c0,0,47.3,-12.2,85.5,-36.7c0,0,38.2,-25.9,67.2,-65.7c0,0,29.1,-41.2,47.4,-100.8L624.9,828.1c0,0,-21.4,68.7,-67.3,97.7c0,0,-45.8,30.6,-106.9,30.6c0,0,-55,0,-99.3,-26c0,0,-44.3,-26,-74.9,-77.9c0,0,-32.1,-51.9,-48.9,-129.9c0,0,-16.8,-77.9,-16.8,-181.8c0,0,36.7,67.3,102.4,102.4c0,0,67.2,35.1,152.8,35.1c0,0,71.8,0,129.8,-22.9c0,0,58.1,-22.9,99.3,-65.7c0,0,41.3,-44.3,64.2,-106.9c0,0,22.9,-62.7,22.9,-139c0,0,0,-79.5,-21.4,-145.2c0,0,-22.9,-67.2,-65.7,-114.6c0,0,-42.7,-47.3,-105.4,-71.8c0,0,-64.1,-25.9,-146.6,-25.9Z" 
	id="f0_g"
	transform="scale(0.001,-0.001)" />

	<path d="M136,-193.9c0,0,33.6,47.3,51.9,96.2c0,0,18.4,50.4,18.4,97.7L140.6,0l0,161.9l145.1,0l0,-125.2c0,0,0,-36.7,-3.1,-68.7c0,0,-3,-33.6,-10.7,-61.1c0,0,-7.6,-29,-18.3,-53.5c0,0,-10.7,-24.4,-26,-47.3Z" 
	id="f0_h"
	transform="scale(0.001,-0.001)" />

	<path d="M140,0l0,1049l142,0L282,0Z" 
	id="f0_i"
	transform="scale(0.001,-0.001)" />

	<path d="M105.4,0l0,634c0,0,0,26,0,53.5c0,0,-1.5,27.5,-1.5,51.9c0,0,-1.5,26,-1.5,42.8c0,0,-1.6,18.4,-1.6,24.5l126.8,0c0,0,0,-4.6,0,-19.9c0,0,1.6,-16.8,3.1,-38.2c0,0,1.5,-21.4,1.5,-42.8c0,0,1.6,-22.9,1.6,-38.2l1.5,0c0,0,19.8,35.2,42.8,64.2c0,0,22.9,29,53.4,47.4c0,0,30.6,19.8,70.3,30.5c0,0,39.7,12.2,91.7,12.2c0,0,67.2,0,116.1,-16.8c0,0,48.9,-16.8,79.4,-50.4c0,0,32.1,-35.1,45.9,-88.6c0,0,15.2,-55,15.2,-128.3L750.1,0L614.2,0l0,510.3c0,0,0,59.6,-7.7,99.3c0,0,-9.1,39.7,-27.5,64.2c0,0,-19.8,24.4,-51.9,33.6c0,0,-32.1,10.7,-79.5,10.7c0,0,-47.3,0,-85.5,-16.8c0,0,-38.2,-16.9,-65.7,-48.9c0,0,-27.5,-32.1,-41.3,-78c0,0,-15.2,-47.3,-15.2,-106.9L239.9,0Z" 
	id="f0_j"
	transform="scale(0.001,-0.001)" />

	<path d="M134.4,0l0,708.9l-113,0l0,97.8l113,0l0,90.1c0,0,0,44.3,7.7,82.5c0,0,9.2,38.2,30.5,65.7c0,0,21.4,27.5,59.6,42.8c0,0,38.2,16.8,99.3,16.8c0,0,22.9,0,48.9,-1.5c0,0,26,-3.1,45.9,-7.7l0,-102.3c0,0,-13.8,3,-29.1,4.5c0,0,-16.8,1.6,-30.5,1.6c0,0,-30.6,0,-48.9,-7.7c0,0,-19.9,-7.6,-30.6,-22.9c0,0,-10.7,-15.3,-13.7,-38.2c0,0,-4.6,-22.9,-4.6,-51.9l0,-71.8l157.4,0l0,-97.8l-157.4,0L268.9,0Z" 
	id="f0_k"
	transform="scale(0.001,-0.001)" />

	<path d="M380.4,-13.7c0,0,-70.3,0,-126.8,9.2c0,0,-56.5,10.6,-97.8,33.5c0,0,-42.7,24.5,-71.8,62.7c0,0,-29,39.7,-42.7,97.7l119.1,23c0,0,16.8,-65.7,70.3,-94.8c0,0,55,-30.5,149.7,-30.5c0,0,42.8,0,79.5,4.6c0,0,36.6,6.1,62.6,19.8c0,0,26,15.3,39.7,39.8c0,0,15.3,24.4,15.3,61.1c0,0,0,36.6,-16.8,59.5c0,0,-18.3,23,-48.9,38.2c0,0,-30.5,16.8,-73.3,27.5c0,0,-44.3,12.3,-96.3,26c0,0,-48.9,13.8,-96.2,29c0,0,-47.4,15.3,-85.6,41.3c0,0,-38.2,26,-62.6,64.2c0,0,-24.5,38.2,-24.5,94.7c0,0,0,110,78,168c0,0,79.4,58.1,230.6,58.1c0,0,133,0,210.9,-45.8c0,0,79.4,-47.4,100.8,-151.3L572.9,606.5c0,0,-6.1,30.6,-24.4,52c0,0,-18.4,21.4,-42.8,33.6c0,0,-26,13.7,-58.1,19.8c0,0,-32,6.2,-65.7,6.2c0,0,-91.6,0,-134.4,-27.5c0,0,-42.8,-27.5,-42.8,-84.1c0,0,0,-33.6,15.3,-53.4c0,0,16.8,-21.4,44.3,-35.2c0,0,29,-15.3,68.8,-26c0,0,41.2,-12.2,90.1,-22.9c0,0,32.1,-9.1,65.7,-18.3c0,0,33.6,-9.2,64.2,-21.4c0,0,32,-13.7,59.5,-30.5c0,0,29.1,-18.4,48.9,-42.8c0,0,21.4,-24.5,33.6,-56.6c0,0,12.3,-33.6,12.3,-77.9c0,0,0,-56.5,-21.4,-100.8c0,0,-21.4,-44.3,-62.7,-73.3c0,0,-42.7,-30.6,-103.9,-45.9c0,0,-61.1,-15.2,-139,-15.2Z" 
	id="f0_l"
	transform="scale(0.001,-0.001)" />

	<path d="M125,0l0,1049l142,0l0,-933l530,0L797,0Z" 
	id="f0_m"
	transform="scale(0.001,-0.001)" />

	<path d="M105.4,0l0,634c0,0,0,26,0,53.5c0,0,-1.5,27.5,-1.5,51.9c0,0,-1.5,26,-1.5,42.8c0,0,-1.6,18.4,-1.6,24.5l126.8,0c0,0,0,-4.6,0,-19.9c0,0,1.6,-16.8,3.1,-38.2c0,0,1.5,-21.4,1.5,-42.8c0,0,1.6,-22.9,1.6,-38.2l1.5,0c0,0,18.3,35.2,38.2,64.2c0,0,21.4,29,48.9,47.4c0,0,29,19.8,64.1,30.5c0,0,36.7,12.2,85.6,12.2c0,0,91.7,0,143.6,-36.6c0,0,53.5,-36.7,74.9,-117.7l3,0c0,0,16.8,35.2,39.7,64.2c0,0,23,29,52,47.4c0,0,30.5,19.8,67.2,30.5c0,0,38.2,12.2,85.6,12.2c0,0,61.1,0,105.4,-16.8c0,0,44.3,-16.8,71.8,-50.4c0,0,29,-35.1,42.8,-88.6c0,0,13.7,-55,13.7,-128.3L1171.8,0L1038.9,0l0,510.3c0,0,0,59.6,-7.6,99.3c0,0,-7.7,39.7,-24.5,64.2c0,0,-18.3,24.4,-45.8,33.6c0,0,-29.1,10.7,-70.3,10.7c0,0,-42.8,0,-76.4,-15.3c0,0,-35.1,-16.8,-58,-47.4c0,0,-24.5,-32.1,-38.2,-79.4c0,0,-13.8,-47.4,-13.8,-108.5L704.3,0L571.4,0l0,510.3c0,0,0,59.6,-6.1,99.3c0,0,-7.7,39.7,-24.5,64.2c0,0,-18.3,24.4,-45.8,33.6c0,0,-29,10.7,-70.3,10.7c0,0,-42.8,0,-76.4,-16.8c0,0,-35.1,-16.9,-59.5,-48.9c0,0,-24.5,-32.1,-36.7,-78c0,0,-13.8,-47.3,-13.8,-106.9L238.3,0Z" 
	id="f0_n"
	transform="scale(0.001,-0.001)" />

	<path d="M641.7,476.7c0,0,-10.7,128.3,-64.2,186.4c0,0,-53.5,59.5,-154.3,59.5c0,0,-33.6,0,-70.3,-10.7c0,0,-36.6,-12.2,-67.2,-39.7c0,0,-32.1,-27.5,-53.5,-74.8c0,0,-22.9,-47.4,-25.9,-120.7ZM430.8,-13.7c0,0,-178.7,0,-271.9,105.4c0,0,-94.7,105.4,-94.7,316.2c0,0,0,113.1,27.5,191c0,0,29,79.4,77.9,128.3c0,0,50.4,50.4,114.6,71.8c0,0,65.7,22.9,140.5,22.9c0,0,102.4,0,169.6,-32c0,0,68.8,-33.6,110,-91.7c0,0,41.3,-58.1,58.1,-136c0,0,18.3,-79.4,18.3,-169.6l0,-18.3l-576,0c0,0,0,-62.6,12.2,-116.1c0,0,13.8,-53.5,41.3,-91.7c0,0,27.5,-39.7,70.3,-59.6c0,0,42.8,-21.3,102.3,-21.3c0,0,87.1,0,139.1,35.1c0,0,53.4,35.1,71.8,88.6L759.3,175.7c0,0,-12.2,-33.6,-35.1,-67.2c0,0,-22.9,-35.2,-61.1,-61.1c0,0,-38.2,-27.5,-94.8,-44.3c0,0,-58,-16.8,-137.5,-16.8Z" 
	id="f0_o"
	transform="scale(0.001,-0.001)" />

	<path d="M394.2,88.6c0,0,53.4,0,93.2,16.8c0,0,41.2,16.8,68.7,55c0,0,27.5,38.2,41.3,99.3c0,0,13.7,62.7,13.7,152.8c0,0,0,85.6,-13.7,145.1c0,0,-13.8,59.6,-41.3,96.3c0,0,-27.5,36.7,-67.2,51.9c0,0,-41.3,16.8,-93.2,16.8c0,0,-48.9,0,-84,-16.8c0,0,-36.7,-18.3,-59.6,-56.5c0,0,-24.5,-38.2,-35.2,-97.8c0,0,-12.2,-61.1,-12.2,-148.2c0,0,0,-84,9.2,-143.6c0,0,10.7,-59.6,33.6,-97.8c0,0,24.4,-38.1,59.6,-55c0,0,36.7,-18.3,87.1,-18.3ZM360.6,-13.7c0,0,-152.8,0,-224.6,100.8c0,0,-73.4,102.3,-73.4,311.7c0,0,0,423.1,298,423.1c0,0,91.6,0,152.7,-33.6c0,0,61.1,-33.6,97.8,-106.9l1.5,0c0,0,0,7.6,0,22.9c0,0,0,16.8,0,33.6c0,0,-1.5,18.4,-1.5,33.6c0,0,0,15.3,0,22.9l0,311.7l134.5,0l0,-941.1c0,0,0,-29,0,-55c0,0,1.5,-27.5,1.5,-48.9c0,0,1.5,-22.9,1.5,-38.2c0,0,1.5,-16.8,1.5,-22.9L621.8,0c0,0,-1.5,6.1,-1.5,19.9c0,0,-1.5,13.7,-3.1,32c0,0,-1.5,18.4,-1.5,38.2c0,0,-1.5,19.9,-1.5,38.2l-3.1,0c0,0,-36.7,-76.4,-97.8,-108.4c0,0,-62.6,-33.6,-152.7,-33.6Z" 
	id="f0_p"
	transform="scale(0.001,-0.001)" />

	<path d="M458.3,175.7c0,0,85.6,0,123.8,88.6c0,0,39.7,90.1,39.7,290.3c0,0,0,201.7,-38.2,290.3c0,0,-39.7,90.1,-125.3,90.1c0,0,-84,0,-122.2,-88.6c0,0,-39.7,-90.1,-39.7,-291.8c0,0,0,-200.2,38.2,-288.8c0,0,39.7,-90.1,123.7,-90.1Zm0,-197c0,0,-192.5,0,-291.8,145.1c0,0,-99.3,146.6,-99.3,430.8c0,0,0,285.7,99.3,432.3c0,0,99.3,146.7,291.8,146.7c0,0,194.1,0,293.4,-146.7c0,0,99.3,-146.6,99.3,-432.3c0,0,0,-284.2,-99.3,-429.3c0,0,-99.3,-146.6,-293.4,-146.6Z" 
	id="f1_2"
	transform="scale(0.001,-0.001)" />

	<path d="M216.9,0l0,834.2l218.5,0l0,-129.9c0,0,32.1,71.8,97.8,111.5c0,0,67.2,39.8,155.8,39.8c0,0,44.3,0,87.1,-10.7c0,0,42.8,-12.3,82.5,-32.1l0,-209.3c0,0,-36.7,33.6,-84,48.9c0,0,-48.9,16.8,-107,16.8c0,0,-68.7,0,-120.7,-22.9c0,0,-51.9,-24.5,-79.4,-71.9c0,0,-18.3,-27.5,-24.4,-67.2c0,0,-7.7,-41.2,-7.7,-123.7L435.4,0Z" 
	id="f1_3"
	transform="scale(0.001,-0.001)" />

	<path d="M426.3,128.3c0,0,87,0,134.4,65.7c0,0,47.4,65.7,47.4,183.4l0,13.7l-87.1,0c0,0,-122.2,0,-169.6,-30.5c0,0,-48.9,-32.1,-48.9,-107c0,0,0,-58,33.6,-91.7c0,0,33.6,-33.6,90.2,-33.6Zm-55,-149.6c0,0,-143.7,0,-223.1,74.8c0,0,-79.4,74.8,-79.4,209.3c0,0,0,146.6,94.7,215.4c0,0,94.7,70.3,293.3,70.3l151.3,0l0,36.6c0,0,0,53.5,-38.2,81c0,0,-38.2,27.5,-113.1,27.5c0,0,-77.9,0,-151.2,-19.8c0,0,-73.4,-19.9,-152.8,-64.2l0,186.4c0,0,71.8,30.5,146.6,44.3c0,0,74.9,15.3,157.4,15.3c0,0,204.7,0,287.2,-82.5c0,0,82.5,-84.1,82.5,-296.4L826.5,0L608.1,0l0,93.2c0,0,-38.2,-56.5,-100.9,-85.6c0,0,-62.6,-28.9,-135.9,-28.9Z" 
	id="f1_4"
	transform="scale(0.001,-0.001)" />

	<path d="M536.3,-21.3c0,0,-194.1,0,-302.5,116c0,0,-108.5,116.1,-108.5,320.9c0,0,0,207.7,108.5,323.8c0,0,110,117.7,304,117.7c0,0,65.7,0,128.3,-15.3c0,0,62.7,-16.8,125.3,-48.9l0,-200.1c0,0,-48.9,41.2,-105.4,62.6c0,0,-56.6,21.4,-117.7,21.4c0,0,-106.9,0,-163.4,-67.2c0,0,-58.1,-68.8,-58.1,-194c0,0,0,-125.3,56.5,-191c0,0,58.1,-67.2,165,-67.2c0,0,62.7,0,117.7,19.8c0,0,55,21.4,105.4,65.7l0,-201.6c0,0,-56.5,-32.1,-119.2,-47.3c0,0,-64.1,-15.3,-135.9,-15.3Z" 
	id="f1_5"
	transform="scale(0.001,-0.001)" />

	<path d="M579,0C579,0,423.2,0,356,79.4c0,0,-68.8,81,-68.8,268.9l0,643.2l-221.5,0l0,168.1l441.5,0l0,-811.3c0,0,0,-99.3,30.6,-140.5c0,0,30.5,-41.3,102.3,-41.3l175.7,0L815.8,0Z" 
	id="f1_6"
	transform="scale(0.001,-0.001)" />

	<path d="M291.8,508.8l343.8,1.5c0,0,0,87.1,-42.8,131.4c0,0,-44.3,44.3,-126.8,44.3c0,0,-76.4,0,-120.7,-45.9c0,0,-44.3,-45.8,-53.5,-131.3ZM499.6,-21.3c0,0,-210.8,0,-320.8,111.4c0,0,-111.6,111.6,-111.6,322.4c0,0,0,204.7,107,323.9c0,0,106.9,119.2,291.8,119.2c0,0,184.8,0,287.2,-110c0,0,103.9,-110,103.9,-310.2l0,-88.6l-566.8,0c0,0,0,-99.3,58,-146.7c0,0,58.1,-48.8,171.1,-48.8c0,0,76.4,0,148.2,21.3c0,0,73.4,21.4,154.3,68.8l0,-201.7c0,0,-76.3,-30.5,-155.8,-45.7c0,0,-79.4,-15.3,-166.5,-15.3Z" 
	id="f1_7"
	transform="scale(0.001,-0.001)" />

	<path d="M426.3,-21.3c0,0,-82.5,0,-165,18.3c0,0,-84.1,19.8,-162,59.5l0,227.7c0,0,88.6,-62.7,171.1,-93.2c0,0,82.5,-32.1,163.5,-32.1c0,0,81,0,125.3,36.7c0,0,44.3,38.2,44.3,103.8c0,0,0,50.5,-29.1,87.1c0,0,-30.5,38.2,-87,59.6l-107,41.3c0,0,-166.5,64.1,-226.1,132.9c0,0,-59.6,70.3,-59.6,187.9c0,0,0,151.2,96.3,238.3c0,0,97.8,87.1,267.3,87.1c0,0,78,0,154.3,-16.8c0,0,76.4,-18.3,151.3,-53.5l0,-213.9c0,0,-70.3,48.9,-143.6,74.9c0,0,-73.4,27.5,-143.6,27.5c0,0,-81,0,-122.3,-32.1c0,0,-42.7,-32.1,-42.7,-93.2c0,0,0,-45.8,30.5,-74.8c0,0,30.6,-30.6,129.9,-67.3l94.7,-36.6c0,0,132.9,-48.9,195.6,-129.9c0,0,64.1,-81,64.1,-204.7c0,0,0,-169.6,-99.3,-252.1c0,0,-99.3,-82.4,-300.9,-82.4Z" 
	id="f1_9"
	transform="scale(0.001,-0.001)" />

	<path d="M323.9,0L59.6,834.2l221.5,0L458.3,183.3L637.1,834.2l221.5,0L594.3,0Z" 
	id="f1_a"
	transform="scale(0.001,-0.001)" />

	<path d="M430.8,601.9c0,0,108.5,0,151.3,35.2c0,0,44.3,36.7,44.3,126.8c0,0,0,91.7,-42.8,126.8c0,0,-44.3,36.7,-152.8,36.7l-90.1,0l0,-325.5ZM120.7,0l0,1113.8l301,0c0,0,230.7,0,331.5,-82.5c0,0,102.4,-82.5,102.4,-267.4c0,0,0,-183.3,-100.9,-265.8c0,0,-102.3,-82.5,-333,-82.5l-81,0L340.7,0Z" 
	id="f1_b"
	transform="scale(0.001,-0.001)" />

	<path d="M166,0l0,1113l220,0l0,-921l472,0L858,0Z" 
	id="f1_c"
	transform="scale(0.001,-0.001)" />

	<path d="M84,-140.5L669.2,1113.8l165,0L249,-140.5Z" 
	id="f1_d"
	transform="scale(0.001,-0.001)" />

	<path d="M458.3,175.7c0,0,85.6,0,123.8,88.6c0,0,39.7,90.1,39.7,290.3c0,0,0,201.7,-38.2,290.3c0,0,-39.7,90.1,-125.3,90.1c0,0,-84,0,-122.2,-88.6c0,0,-39.7,-90.1,-39.7,-291.8c0,0,0,-200.2,38.2,-288.8c0,0,39.7,-90.1,123.7,-90.1ZM655.4,-209.2L488.9,-16.7c0,0,-10.7,-1.5,-16.8,-3.1c0,0,-7.7,-1.5,-15.3,-1.5c0,0,-191,0,-290.3,145.1c0,0,-99.3,146.6,-99.3,430.8c0,0,0,285.7,99.3,432.3c0,0,99.3,146.7,291.8,146.7c0,0,194.1,0,293.4,-146.7c0,0,99.3,-146.6,99.3,-432.3c0,0,0,-195.6,-47.4,-327c0,0,-47.3,-132.9,-136,-190.9L805.1,-96.2l-149.7,-113Z" 
	id="f1_e"
	transform="scale(0.001,-0.001)" />

	<path d="M125,0l0,1113l693,0l0,-194l-473,0l0,-241l428,0l0,-194l-428,0l0,-292l473,0L818,0Z" 
	id="f1_f"
	transform="scale(0.001,-0.001)" />

	<path d="M126.8,0l0,834.2l218.5,0l0,-125.3c0,0,22.9,70.3,77.9,108.5c0,0,56.5,38.2,136,38.2c0,0,117.6,0,177.2,-78c0,0,61.1,-79.4,61.1,-236.8L797.5,0L580.6,0l0,508.8c0,0,0,90.1,-24.5,128.3c0,0,-26,39.7,-84,39.7c0,0,-59.6,0,-93.2,-51.9c0,0,-33.6,-53.5,-33.6,-148.2L345.3,0Z" 
	id="f1_g"
	transform="scale(0.001,-0.001)" />

	<path d="M444.6,183.3c0,0,68.7,0,111.5,67.3c0,0,42.8,67.2,42.8,180.2c0,0,0,111.6,-42.8,178.8c0,0,-42.8,67.2,-111.5,67.2c0,0,-68.8,0,-111.5,-67.2c0,0,-42.8,-67.2,-42.8,-178.8c0,0,0,-113,42.8,-180.2c0,0,42.7,-67.3,111.5,-67.3ZM432.4,-316.2c0,0,-68.8,0,-136,10.7c0,0,-67.2,10.7,-137.5,30.6l0,201.7c0,0,62.6,-35.2,126.8,-50.5c0,0,64.2,-16.8,131.4,-16.8c0,0,93.2,0,137.5,42.8c0,0,44.3,44.3,44.3,134.4l0,90.1c0,0,-32.1,-59.6,-85.6,-88.6c0,0,-53.4,-29,-129.8,-29c0,0,-142.1,0,-226.1,111.5c0,0,-85.6,113.1,-85.6,304c0,0,0,198.6,84,314.7c0,0,85.6,117.7,226.1,117.7c0,0,71.9,0,128.4,-33.6c0,0,56.5,-33.6,88.6,-94.7l0,105.4l218.5,0l0,-771.6c0,0,0,-200,-90.2,-288.6c0,0,-91.6,-90.2,-294.8,-90.2Z" 
	id="f1_h"
	transform="scale(0.001,-0.001)" />

	<path d="M105,0l0,166l273,0l0,501l-215,0l0,167l434,0l0,-668l270,0L867,0ZM378,985l0,255l219,0l0,-255Z" 
	id="f1_i"
	transform="scale(0.001,-0.001)" />

	<path d="M458.3,155.8c0,0,79.5,0,123.8,68.8c0,0,45.8,68.7,45.8,191c0,0,0,123.7,-44.3,192.5c0,0,-45.8,68.7,-125.3,68.7c0,0,-77.9,0,-122.2,-68.7c0,0,-45.8,-68.8,-45.8,-192.5c0,0,0,-122.3,44.3,-191c0,0,45.8,-68.8,123.7,-68.8Zm0,-177.1c0,0,-175.7,0,-281.1,117.6c0,0,-105.4,117.6,-105.4,319.3c0,0,0,203.2,105.4,320.8c0,0,105.4,119.2,281.1,119.2c0,0,177.3,0,282.7,-117.7c0,0,105.4,-119.1,105.4,-322.3c0,0,0,-201.7,-105.4,-319.3c0,0,-105.4,-117.6,-282.7,-117.6Z" 
	id="f1_j"
	transform="scale(0.001,-0.001)" />

	<path d="M436.9,157.4c0,0,70.3,0,111.6,67.2c0,0,41.2,68.7,41.2,189.4c0,0,0,122.3,-41.2,189.5c0,0,-41.3,68.7,-111.6,68.7c0,0,-71.8,0,-111.5,-67.2c0,0,-39.7,-68.7,-39.7,-191c0,0,0,-120.7,39.7,-187.9c0,0,39.7,-68.7,111.5,-68.7ZM368.2,-21.3c0,0,-143.6,0,-223.1,114.5c0,0,-79.4,114.6,-79.4,322.4c0,0,0,212.3,79.4,325.4c0,0,81,114.6,230.7,114.6c0,0,67.3,0,119.2,-35.2c0,0,53.5,-35.1,94.7,-103.9l0,443.1l217,0L806.7,0l-217,0l0,123.8c0,0,-35.1,-73.4,-90.1,-108.5c0,0,-56.5,-36.6,-131.4,-36.6Z" 
	id="f1_k"
	transform="scale(0.001,-0.001)" />

	<path d="M359,-21.3c0,0,-119.1,0,-178.7,77.8c0,0,-61.1,79.5,-61.1,233.8l0,543.9l218.4,0l0,-510.3c0,0,0,-90.1,24.5,-128.3c0,0,26,-38.2,84,-38.2c0,0,59.6,0,91.7,51.9c0,0,33.6,52,33.6,145.1l0,479.8l220,0L791.4,0l-220,0l0,123.8c0,0,-22.9,-70.3,-77.9,-107c0,0,-55,-38.1,-134.5,-38.1Z" 
	id="f1_l"
	transform="scale(0.001,-0.001)" />

	<path d="M455.3,-21.3c0,0,-74.9,0,-154.3,12.2c0,0,-79.5,12.2,-160.4,39.7l0,190.9c0,0,73.3,-41.2,148.2,-62.6c0,0,74.8,-22.9,145.1,-22.9c0,0,76.4,0,116.1,22.9c0,0,39.7,22.9,39.7,64.2c0,0,0,42.7,-27.5,64.1c0,0,-29,22.9,-134.4,48.9l-59.6,13.8c0,0,-125.3,27.5,-183.3,87c0,0,-58.1,61.2,-58.1,163.5c0,0,0,120.7,87.1,187.9c0,0,88.6,67.3,246,67.3c0,0,71.8,0,142,-12.3c0,0,70.3,-12.2,136,-35.1l0,-191c0,0,-59.6,39.7,-125.3,59.6c0,0,-65.7,19.9,-131.3,19.9c0,0,-71.9,0,-108.5,-21.4c0,0,-38.2,-21.4,-38.2,-64.2c0,0,0,-59.6,158.9,-96.2l9.1,-3.1l62.7,-13.7c0,0,119.1,-29.1,174.1,-91.7c0,0,55,-62.6,55,-171.1c0,0,0,-128.4,-84,-192.5c0,0,-84,-64.1,-255.1,-64.1Z" 
	id="f1_m"
	transform="scale(0.001,-0.001)" />

	<path d="M615.7,0c0,0,-187.9,0,-253.6,59.6c0,0,-67.2,59.6,-67.2,223l0,385l-212.4,0l0,166.6l212.4,0l0,238.3l218.4,0l0,-238.3l285.7,0l0,-166.6l-285.7,0l0,-395.7c0,0,0,-56.5,27.5,-80.9c0,0,27.5,-24.5,91.7,-24.5l166.5,0L799,0Z" 
	id="f1_n"
	transform="scale(0.001,-0.001)" />

	<path d="M61.1,0l0,834.2l158.9,0l0,-85.6c0,0,18.3,48.9,58.1,77.9c0,0,41.2,29.1,93.2,29.1c0,0,50.4,0,91.6,-30.6c0,0,42.8,-30.6,50.4,-73.3c0,0,26,51.9,62.7,77.9c0,0,38.2,26,93.2,26c0,0,108.4,0,149.7,-74.9c0,0,41.2,-74.9,41.2,-310.1L860.1,0L681.4,0l0,536.3c0,0,0,93.1,-13.8,123.7c0,0,-13.7,32.1,-51.9,32.1c0,0,-36.7,0,-51.9,-32.1c0,0,-15.3,-32.1,-15.3,-123.7L548.5,0L372.8,0l0,536.3c0,0,0,91.6,-15.3,123.7c0,0,-15.3,32.1,-51.9,32.1c0,0,-38.2,0,-52,-30.6c0,0,-13.7,-32.1,-13.7,-125.2L239.9,0Z" 
	id="f1_o"
	transform="scale(0.001,-0.001)" />

	<path d="M39.7,0L349.9,435.4L64.2,834.2l255.1,0l139,-249.1L598.9,834.2l255.1,0L571.4,435.4L878.5,0L623.3,0l-165,281.1L294.9,0Z" 
	id="f1_p"
	transform="scale(0.001,-0.001)" />

	<path d="M450.7,175.7c0,0,105.4,0,146.7,35.1c0,0,42.7,36.7,42.7,125.3c0,0,0,90.2,-42.7,129.9c0,0,-44.3,39.7,-146.7,39.7l-145.1,0l0,-330Zm0,504.2c0,0,84,0,119.2,29c0,0,35.1,30.5,35.1,99.3c0,0,0,68.7,-35.1,99.3c0,0,-36.7,32.1,-119.2,32.1l-145.1,0l0,-259.7ZM93.2,0l0,1113.8l357.5,0c0,0,186.4,0,279.6,-70.3c0,0,94.7,-70.3,94.7,-210.9c0,0,0,-106.9,-55,-166.5c0,0,-56.5,-61.1,-163.5,-70.3c0,0,128.4,-13.7,192.5,-85.5c0,0,64.2,-73.4,64.2,-204.7c0,0,0,-162,-96.3,-233.8C766.9,71.8,669.2,0,450.7,0Z" 
	id="f1_q"
	transform="scale(0.001,-0.001)" />

	<path d="M128.3,0l0,1159.6l220,0l0,-609.6L609.6,834.2l265.8,0L559.2,522.5L892.2,0L650.8,0L421.7,389.6L348.3,317.8L348.3,0Z" 
	id="f1_r"
	transform="scale(0.001,-0.001)" />


</defs>
</svg>