<?xml version="1.0" encoding="UTF-8" standalone="no"?>
<!DOCTYPE svg PUBLIC "-//W3C//DTD SVG 1.1//EN"
"http://www.w3.org/Graphics/SVG/1.1/DTD/svg11.dtd">
<svg viewBox="0 0 1210 1210" version="1.1" xmlns="http://www.w3.org/2000/svg" xmlns:xlink="http://www.w3.org/1999/xlink">
<defs>
<clipPath id="c0_2"><path d="M0.5,1210.5L0.5,0.5l1210,0l0,1210Z" /></clipPath>
<style type="text/css"><![CDATA[
.g1_2{
fill: #FFFFFF;
}
]]></style>
</defs>
<path fill-rule="evenodd" d="M0,0L1210,0l0,1210L0,1210L0,0Z" class="g1_2" />
<path fill-rule="evenodd" d="M0,0L1210,0l0,1210L0,1210L0,0Z" class="g1_2" />
<g clip-path="url(#c0_2)">
<g fill="#808080" >
<use xlink:href="#f0_3" transform="matrix(12,0,0,12,65.8,23.7)" />
<use xlink:href="#f0_4" transform="matrix(12,0,0,12,77.5,23.7)" />
<use xlink:href="#f1_2" transform="matrix(12,0,0,12,95,23.7)" />
<use xlink:href="#f1_3" transform="matrix(12,0,0,12,101.6,23.7)" />
<use xlink:href="#f1_4" transform="matrix(12,0,0,12,114.6,23.7)" />
<use xlink:href="#f1_5" transform="matrix(12,0,0,12,123.1,23.7)" />
<use xlink:href="#f1_6" transform="matrix(12,0,0,12,132.2,23.7)" />
<use xlink:href="#f1_7" transform="matrix(12,0,0,12,144.7,23.7)" />
<use xlink:href="#f1_8" transform="matrix(12,0,0,12,157.7,23.7)" />
<use xlink:href="#f1_9" transform="matrix(12,0,0,12,170.6,23.7)" />
<use xlink:href="#f1_4" transform="matrix(12,0,0,12,181.5,23.7)" />
<use xlink:href="#f1_a" transform="matrix(12,0,0,12,190,23.7)" />
<use xlink:href="#f1_6" transform="matrix(12,0,0,12,196.2,23.7)" />
<use xlink:href="#f1_3" transform="matrix(12,0,0,12,208.7,23.7)" />
<use xlink:href="#f1_4" transform="matrix(12,0,0,12,228.1,23.7)" />
<use xlink:href="#f1_6" transform="matrix(12,0,0,12,236.6,23.7)" />
<use xlink:href="#f1_c" transform="matrix(12,0,0,12,255.5,23.7)" />
<use xlink:href="#f1_5" transform="matrix(12,0,0,12,268.8,23.7)" />
<use xlink:href="#f1_6" transform="matrix(12,0,0,12,277.8,23.7)" />
<use xlink:href="#f1_d" transform="matrix(12,0,0,12,290.4,23.7)" />
<use xlink:href="#f1_5" transform="matrix(12,0,0,12,303.3,23.7)" />
<use xlink:href="#f1_e" transform="matrix(12,0,0,12,312.4,23.7)" />
<use xlink:href="#f1_f" transform="matrix(12,0,0,12,324.9,23.7)" />
<use xlink:href="#f1_f" transform="matrix(12,0,0,12,343.8,23.7)" />
<use xlink:href="#f1_a" transform="matrix(12,0,0,12,362.9,23.7)" />
<use xlink:href="#f1_3" transform="matrix(12,0,0,12,369,23.7)" />
<use xlink:href="#f1_d" transform="matrix(12,0,0,12,382,23.7)" />
<use xlink:href="#f0_6" transform="matrix(12,0,0,12,120.8,50.1)" />
<use xlink:href="#f0_7" transform="matrix(12,0,0,12,139,50.1)" />
<use xlink:href="#f0_8" transform="matrix(12,0,0,12,150.5,50.1)" />
<use xlink:href="#f0_9" transform="matrix(12,0,0,12,167.1,50.1)" />
<use xlink:href="#f0_a" transform="matrix(12,0,0,12,177.8,50.1)" />
<use xlink:href="#f0_b" transform="matrix(12,0,0,12,185,50.1)" />
<use xlink:href="#f0_c" transform="matrix(12,0,0,12,196.1,50.1)" />
<use xlink:href="#f0_a" transform="matrix(12,0,0,12,207.9,50.1)" />
<use xlink:href="#f0_d" transform="matrix(12,0,0,12,215.5,50.1)" />
<use xlink:href="#f0_e" transform="matrix(12,0,0,12,227,50.1)" />
<use xlink:href="#f0_e" transform="matrix(12,0,0,12,244.7,50.1)" />
<use xlink:href="#f0_f" transform="matrix(12,0,0,12,262.4,50.1)" />
<use xlink:href="#f0_g" transform="matrix(12,0,0,12,267.6,50.1)" />
<use xlink:href="#f0_c" transform="matrix(12,0,0,12,279.2,50.1)" />
<use xlink:href="#f0_9" transform="matrix(12,0,0,12,120.8,76.4)" />
<use xlink:href="#f0_a" transform="matrix(12,0,0,12,131.5,76.4)" />
<use xlink:href="#f0_b" transform="matrix(12,0,0,12,138.6,76.4)" />
<use xlink:href="#f0_c" transform="matrix(12,0,0,12,149.9,76.4)" />
<use xlink:href="#f0_a" transform="matrix(12,0,0,12,161.5,76.4)" />
<use xlink:href="#f0_d" transform="matrix(12,0,0,12,169.2,76.4)" />
<use xlink:href="#f0_e" transform="matrix(12,0,0,12,180.5,76.4)" />
<use xlink:href="#f0_e" transform="matrix(12,0,0,12,198.4,76.4)" />
<use xlink:href="#f0_f" transform="matrix(12,0,0,12,216.1,76.4)" />
<use xlink:href="#f0_g" transform="matrix(12,0,0,12,221.3,76.4)" />
<use xlink:href="#f0_c" transform="matrix(12,0,0,12,232.7,76.4)" />
<use xlink:href="#f0_h" transform="matrix(12,0,0,12,250.3,76.4)" />
<use xlink:href="#f0_f" transform="matrix(12,0,0,12,265.4,76.4)" />
<use xlink:href="#f0_i" transform="matrix(12,0,0,12,270.4,76.4)" />
<use xlink:href="#f0_7" transform="matrix(12,0,0,12,277.6,76.4)" />
<use xlink:href="#f0_j" transform="matrix(12,0,0,12,295.1,76.4)" />
<use xlink:href="#f0_k" transform="matrix(12,0,0,12,306.8,76.4)" />
<use xlink:href="#f0_a" transform="matrix(12,0,0,12,317,76.4)" />
<use xlink:href="#f0_d" transform="matrix(12,0,0,12,324.8,76.4)" />
<use xlink:href="#f0_i" transform="matrix(12,0,0,12,336.1,76.4)" />
<use xlink:href="#f0_k" transform="matrix(12,0,0,12,343.3,76.4)" />
<use xlink:href="#f0_7" transform="matrix(12,0,0,12,353.5,76.4)" />
<use xlink:href="#f0_6" transform="matrix(12,0,0,12,120.8,102.7)" />
<use xlink:href="#f0_7" transform="matrix(12,0,0,12,139,102.7)" />
<use xlink:href="#f0_d" transform="matrix(12,0,0,12,150.5,102.7)" />
<use xlink:href="#f0_i" transform="matrix(12,0,0,12,161.9,102.7)" />
<use xlink:href="#f0_f" transform="matrix(12,0,0,12,174.9,102.7)" />
<use xlink:href="#f0_l" transform="matrix(12,0,0,12,179.9,102.7)" />
<use xlink:href="#f0_m" transform="matrix(12,0,0,12,195.3,102.7)" />
<use xlink:href="#f0_b" transform="matrix(12,0,0,12,208.2,102.7)" />
<use xlink:href="#f0_e" transform="matrix(12,0,0,12,219.4,102.7)" />
<use xlink:href="#f0_n" transform="matrix(12,0,0,12,237.2,102.7)" />
<use xlink:href="#f0_o" transform="matrix(12,0,0,12,248.8,102.7)" />
<use xlink:href="#f0_i" transform="matrix(12,0,0,12,260.2,102.7)" />
<use xlink:href="#f0_p" transform="matrix(12,0,0,12,267.4,102.7)" />
<use xlink:href="#f0_a" transform="matrix(12,0,0,12,278.7,102.7)" />
<use xlink:href="#f0_9" transform="matrix(12,0,0,12,292.3,102.7)" />
<use xlink:href="#f0_a" transform="matrix(12,0,0,12,303,102.7)" />
<use xlink:href="#f0_b" transform="matrix(12,0,0,12,310,102.7)" />
<use xlink:href="#f0_c" transform="matrix(12,0,0,12,321.3,102.7)" />
<use xlink:href="#f0_a" transform="matrix(12,0,0,12,332.9,102.7)" />
<use xlink:href="#f0_d" transform="matrix(12,0,0,12,340.7,102.7)" />
<use xlink:href="#f0_e" transform="matrix(12,0,0,12,352,102.7)" />
<use xlink:href="#f0_q" transform="matrix(12,0,0,12,369.8,102.7)" />
<use xlink:href="#f0_r" transform="matrix(12,0,0,12,65.8,129.1)" />
<use xlink:href="#f0_4" transform="matrix(12,0,0,12,77.5,129.1)" />
<use xlink:href="#f1_g" transform="matrix(12,0,0,12,89.1,129.1)" />
<use xlink:href="#f1_h" transform="matrix(12,0,0,12,103.3,129.1)" />
<use xlink:href="#f1_d" transform="matrix(12,0,0,12,109.2,129.1)" />
<use xlink:href="#f1_6" transform="matrix(12,0,0,12,122.3,129.1)" />
<use xlink:href="#f1_5" transform="matrix(12,0,0,12,134.7,129.1)" />
<use xlink:href="#f1_a" transform="matrix(12,0,0,12,143.7,129.1)" />
<use xlink:href="#f1_4" transform="matrix(12,0,0,12,149.8,129.1)" />
<use xlink:href="#f1_i" transform="matrix(12,0,0,12,158.4,129.1)" />
<use xlink:href="#f1_f" transform="matrix(12,0,0,12,171.4,129.1)" />
<use xlink:href="#f1_j" transform="matrix(12,0,0,12,190.5,129.1)" />
<use xlink:href="#f1_k" transform="matrix(12,0,0,12,203.9,129.1)" />
<use xlink:href="#f1_h" transform="matrix(12,0,0,12,216.2,129.1)" />
<use xlink:href="#f1_6" transform="matrix(12,0,0,12,222.4,129.1)" />
<use xlink:href="#f1_l" transform="matrix(12,0,0,12,234.9,129.1)" />
<use xlink:href="#f1_m" transform="matrix(12,0,0,12,258.1,129.1)" />
<use xlink:href="#f1_i" transform="matrix(12,0,0,12,271.4,129.1)" />
<use xlink:href="#f1_e" transform="matrix(12,0,0,12,284.5,129.1)" />
<use xlink:href="#f1_5" transform="matrix(12,0,0,12,296.9,129.1)" />
<use xlink:href="#f1_4" transform="matrix(12,0,0,12,305.9,129.1)" />
<use xlink:href="#f1_e" transform="matrix(12,0,0,12,320.8,129.1)" />
<use xlink:href="#f1_3" transform="matrix(12,0,0,12,333.3,129.1)" />
<use xlink:href="#f1_7" transform="matrix(12,0,0,12,346.3,129.1)" />
<use xlink:href="#f1_c" transform="matrix(12,0,0,12,365.7,129.1)" />
<use xlink:href="#f1_n" transform="matrix(12,0,0,12,378.8,129.1)" />
<use xlink:href="#f1_o" transform="matrix(12,0,0,12,389.8,129.1)" />
<use xlink:href="#f1_8" transform="matrix(12,0,0,12,402.2,129.1)" />
<use xlink:href="#f1_7" transform="matrix(12,0,0,12,415.2,129.1)" />
<use xlink:href="#f1_6" transform="matrix(12,0,0,12,428.3,129.1)" />
<use xlink:href="#f1_m" transform="matrix(12,0,0,12,447.1,129.1)" />
<use xlink:href="#f1_6" transform="matrix(12,0,0,12,460.5,129.1)" />
<use xlink:href="#f1_7" transform="matrix(12,0,0,12,472.9,129.1)" />
<use xlink:href="#f1_o" transform="matrix(12,0,0,12,485.9,129.1)" />
<use xlink:href="#f0_6" transform="matrix(12,0,0,12,120.8,155.4)" />
<use xlink:href="#f0_7" transform="matrix(12,0,0,12,139,155.4)" />
<use xlink:href="#f0_d" transform="matrix(12,0,0,12,150.5,155.4)" />
<use xlink:href="#f0_i" transform="matrix(12,0,0,12,161.9,155.4)" />
<use xlink:href="#f0_f" transform="matrix(12,0,0,12,174.9,155.4)" />
<use xlink:href="#f0_l" transform="matrix(12,0,0,12,179.9,155.4)" />
<use xlink:href="#f0_d" transform="matrix(12,0,0,12,195.3,155.4)" />
<use xlink:href="#f0_g" transform="matrix(12,0,0,12,206.8,155.4)" />
<use xlink:href="#f0_s" transform="matrix(12,0,0,12,224.2,155.4)" />
<use xlink:href="#f0_t" transform="matrix(12,0,0,12,236.5,155.4)" />
<use xlink:href="#f0_c" transform="matrix(12,0,0,12,241.7,155.4)" />
<use xlink:href="#f0_b" transform="matrix(12,0,0,12,253.5,155.4)" />
<use xlink:href="#f0_a" transform="matrix(12,0,0,12,264.6,155.4)" />
<use xlink:href="#f0_f" transform="matrix(12,0,0,12,272.2,155.4)" />
<use xlink:href="#f0_i" transform="matrix(12,0,0,12,277.4,155.4)" />
<use xlink:href="#f0_7" transform="matrix(12,0,0,12,284.6,155.4)" />
<use xlink:href="#f0_e" transform="matrix(12,0,0,12,296.1,155.4)" />
<use xlink:href="#f0_q" transform="matrix(12,0,0,12,313.9,155.4)" />
<use xlink:href="#f0_u" transform="matrix(12,0,0,12,120.8,181.7)" />
<use xlink:href="#f0_t" transform="matrix(12,0,0,12,131.5,181.7)" />
<use xlink:href="#f0_b" transform="matrix(12,0,0,12,136.6,181.7)" />
<use xlink:href="#f0_h" transform="matrix(12,0,0,12,147.7,181.7)" />
<use xlink:href="#f0_k" transform="matrix(12,0,0,12,162.8,181.7)" />
<use xlink:href="#f0_7" transform="matrix(12,0,0,12,173,181.7)" />
<use xlink:href="#f0_d" transform="matrix(12,0,0,12,184.5,181.7)" />
<use xlink:href="#f0_a" transform="matrix(12,0,0,12,195.9,181.7)" />
<use xlink:href="#f0_i" transform="matrix(12,0,0,12,203.5,181.7)" />
<use xlink:href="#f0_v" transform="matrix(12,0,0,12,120.8,208.1)" />
<use xlink:href="#f0_f" transform="matrix(12,0,0,12,132.8,208.1)" />
<use xlink:href="#f0_l" transform="matrix(12,0,0,12,137.9,208.1)" />
<use xlink:href="#f0_o" transform="matrix(12,0,0,12,147.4,208.1)" />
<use xlink:href="#f0_d" transform="matrix(12,0,0,12,159,208.1)" />
<use xlink:href="#f0_t" transform="matrix(12,0,0,12,170.3,208.1)" />
<use xlink:href="#f0_u" transform="matrix(12,0,0,12,181.3,208.1)" />
<use xlink:href="#f0_t" transform="matrix(12,0,0,12,192,208.1)" />
<use xlink:href="#f0_b" transform="matrix(12,0,0,12,197,208.1)" />
<use xlink:href="#f0_h" transform="matrix(12,0,0,12,208.2,208.1)" />
<use xlink:href="#f0_m" transform="matrix(12,0,0,12,229.1,208.1)" />
<use xlink:href="#f0_7" transform="matrix(12,0,0,12,241.9,208.1)" />
<use xlink:href="#f0_d" transform="matrix(12,0,0,12,253.5,208.1)" />
<use xlink:href="#f0_a" transform="matrix(12,0,0,12,264.8,208.1)" />
<use xlink:href="#f0_i" transform="matrix(12,0,0,12,272.4,208.1)" />
<use xlink:href="#f0_f" transform="matrix(12,0,0,12,279.6,208.1)" />
<use xlink:href="#f0_g" transform="matrix(12,0,0,12,284.8,208.1)" />
<use xlink:href="#f0_c" transform="matrix(12,0,0,12,296.4,208.1)" />
<use xlink:href="#f0_w" transform="matrix(12,0,0,12,313.9,208.1)" />
<use xlink:href="#f0_b" transform="matrix(12,0,0,12,322.2,208.1)" />
<use xlink:href="#f0_b" transform="matrix(12,0,0,12,333.3,208.1)" />
<use xlink:href="#f0_t" transform="matrix(12,0,0,12,344.5,208.1)" />
<use xlink:href="#f0_x" transform="matrix(12,0,0,12,349.6,208.1)" />
<use xlink:href="#f0_y" transform="matrix(12,0,0,12,361.7,208.1)" />
<use xlink:href="#f0_d" transform="matrix(12,0,0,12,373.9,208.1)" />
<use xlink:href="#f0_n" transform="matrix(12,0,0,12,385.3,208.1)" />
<use xlink:href="#f0_i" transform="matrix(12,0,0,12,396.8,208.1)" />
<use xlink:href="#f0_b" transform="matrix(12,0,0,12,404,208.1)" />
<use xlink:href="#f0_a" transform="matrix(12,0,0,12,415.1,208.1)" />
<use xlink:href="#f0_9" transform="matrix(12,0,0,12,120.8,234.4)" />
<use xlink:href="#f0_l" transform="matrix(12,0,0,12,131.5,234.4)" />
<use xlink:href="#f0_p" transform="matrix(12,0,0,12,141,234.4)" />
<use xlink:href="#f0_o" transform="matrix(12,0,0,12,152.3,234.4)" />
<use xlink:href="#f0_z" transform="matrix(12,0,0,12,163.9,234.4)" />
<use xlink:href="#f0_b" transform="matrix(12,0,0,12,175.7,234.4)" />
<use xlink:href="#f0_m" transform="matrix(12,0,0,12,192.6,234.4)" />
<use xlink:href="#f0_b" transform="matrix(12,0,0,12,205.4,234.4)" />
<use xlink:href="#f0_z" transform="matrix(12,0,0,12,216.6,234.4)" />
<use xlink:href="#f0_p" transform="matrix(12,0,0,12,228.3,234.4)" />
<use xlink:href="#f0_10" transform="matrix(12,0,0,12,65.8,260.6)" />
<use xlink:href="#f0_4" transform="matrix(12,0,0,12,77.5,260.6)" />
<use xlink:href="#f1_c" transform="matrix(12,0,0,12,89.1,260.6)" />
<use xlink:href="#f1_p" transform="matrix(12,0,0,12,102.7,260.6)" />
<use xlink:href="#f1_4" transform="matrix(12,0,0,12,114.6,260.6)" />
<use xlink:href="#f1_i" transform="matrix(12,0,0,12,123.1,260.6)" />
<use xlink:href="#f1_6" transform="matrix(12,0,0,12,136.3,260.6)" />
<use xlink:href="#f1_3" transform="matrix(12,0,0,12,148.6,260.6)" />
<use xlink:href="#f1_k" transform="matrix(12,0,0,12,168.2,260.6)" />
<use xlink:href="#f1_8" transform="matrix(12,0,0,12,179.6,260.6)" />
<use xlink:href="#f1_3" transform="matrix(12,0,0,12,192.6,260.6)" />
<use xlink:href="#f1_7" transform="matrix(12,0,0,12,205.6,260.6)" />
<use xlink:href="#f1_e" transform="matrix(12,0,0,12,218.7,260.6)" />
<use xlink:href="#f1_f" transform="matrix(12,0,0,12,231.1,260.6)" />
<use xlink:href="#f1_o" transform="matrix(12,0,0,12,250.1,260.6)" />
<use xlink:href="#f1_3" transform="matrix(12,0,0,12,262.6,260.6)" />
<use xlink:href="#f1_4" transform="matrix(12,0,0,12,275.6,260.6)" />
<use xlink:href="#f1_e" transform="matrix(12,0,0,12,284.3,260.6)" />
<use xlink:href="#f1_h" transform="matrix(12,0,0,12,296.7,260.6)" />
<use xlink:href="#f1_n" transform="matrix(12,0,0,12,302.8,260.6)" />
<use xlink:href="#f0_6" transform="matrix(12,0,0,12,120.8,287.1)" />
<use xlink:href="#f0_7" transform="matrix(12,0,0,12,139,287.1)" />
<use xlink:href="#f0_d" transform="matrix(12,0,0,12,150.5,287.1)" />
<use xlink:href="#f0_i" transform="matrix(12,0,0,12,161.9,287.1)" />
<use xlink:href="#f0_f" transform="matrix(12,0,0,12,174.9,287.1)" />
<use xlink:href="#f0_l" transform="matrix(12,0,0,12,179.9,287.1)" />
<use xlink:href="#f0_d" transform="matrix(12,0,0,12,195.3,287.1)" />
<use xlink:href="#f0_9" transform="matrix(12,0,0,12,212.6,287.1)" />
<use xlink:href="#f0_a" transform="matrix(12,0,0,12,223.3,287.1)" />
<use xlink:href="#f0_b" transform="matrix(12,0,0,12,230.5,287.1)" />
<use xlink:href="#f0_c" transform="matrix(12,0,0,12,241.6,287.1)" />
<use xlink:href="#f0_a" transform="matrix(12,0,0,12,253.4,287.1)" />
<use xlink:href="#f0_d" transform="matrix(12,0,0,12,261,287.1)" />
<use xlink:href="#f0_e" transform="matrix(12,0,0,12,272.3,287.1)" />
<use xlink:href="#f0_e" transform="matrix(12,0,0,12,290.1,287.1)" />
<use xlink:href="#f0_f" transform="matrix(12,0,0,12,307.9,287.1)" />
<use xlink:href="#f0_g" transform="matrix(12,0,0,12,313,287.1)" />
<use xlink:href="#f0_c" transform="matrix(12,0,0,12,324.5,287.1)" />
<use xlink:href="#f0_11" transform="matrix(12,0,0,12,342.2,287.1)" />
<use xlink:href="#f0_d" transform="matrix(12,0,0,12,352.4,287.1)" />
<use xlink:href="#f0_g" transform="matrix(12,0,0,12,363.7,287.1)" />
<use xlink:href="#f0_c" transform="matrix(12,0,0,12,375.3,287.1)" />
<use xlink:href="#f0_o" transform="matrix(12,0,0,12,386.9,287.1)" />
<use xlink:href="#f0_d" transform="matrix(12,0,0,12,398.5,287.1)" />
<use xlink:href="#f0_c" transform="matrix(12,0,0,12,409.8,287.1)" />
<use xlink:href="#f0_p" transform="matrix(12,0,0,12,421.6,287.1)" />
<use xlink:href="#f0_q" transform="matrix(12,0,0,12,433,287.1)" />
<use xlink:href="#f0_9" transform="matrix(12,0,0,12,120.8,313.3)" />
<use xlink:href="#f0_8" transform="matrix(12,0,0,12,131.8,313.3)" />
<use xlink:href="#f0_i" transform="matrix(12,0,0,12,142.7,313.3)" />
<use xlink:href="#f0_7" transform="matrix(12,0,0,12,149.9,313.3)" />
<use xlink:href="#f0_b" transform="matrix(12,0,0,12,161.3,313.3)" />
<use xlink:href="#f0_g" transform="matrix(12,0,0,12,172.5,313.3)" />
<use xlink:href="#f0_12" transform="matrix(12,0,0,12,189.9,313.3)" />
<use xlink:href="#f0_13" transform="matrix(12,0,0,12,205,313.3)" />
<use xlink:href="#f0_g" transform="matrix(12,0,0,12,210.4,313.3)" />
<use xlink:href="#f0_i" transform="matrix(12,0,0,12,221.8,313.3)" />
<use xlink:href="#f0_a" transform="matrix(12,0,0,12,229,313.3)" />
<use xlink:href="#f0_b" transform="matrix(12,0,0,12,236.2,313.3)" />
<use xlink:href="#f0_z" transform="matrix(12,0,0,12,247.3,313.3)" />
<use xlink:href="#f0_o" transform="matrix(12,0,0,12,259.1,313.3)" />
<use xlink:href="#f0_k" transform="matrix(12,0,0,12,270.5,313.3)" />
<use xlink:href="#f0_i" transform="matrix(12,0,0,12,280.9,313.3)" />
<use xlink:href="#f0_f" transform="matrix(12,0,0,12,287.9,313.3)" />
<use xlink:href="#f0_b" transform="matrix(12,0,0,12,293.1,313.3)" />
<use xlink:href="#f0_g" transform="matrix(12,0,0,12,304.3,313.3)" />
<use xlink:href="#f0_d" transform="matrix(12,0,0,12,321.7,313.3)" />
<use xlink:href="#f0_g" transform="matrix(12,0,0,12,333,313.3)" />
<use xlink:href="#f0_z" transform="matrix(12,0,0,12,344.6,313.3)" />
<use xlink:href="#f0_13" transform="matrix(12,0,0,12,362.1,313.3)" />
<use xlink:href="#f0_g" transform="matrix(12,0,0,12,367.5,313.3)" />
<use xlink:href="#f0_l" transform="matrix(12,0,0,12,379.1,313.3)" />
<use xlink:href="#f0_i" transform="matrix(12,0,0,12,388.6,313.3)" />
<use xlink:href="#f0_d" transform="matrix(12,0,0,12,395.8,313.3)" />
<use xlink:href="#f0_t" transform="matrix(12,0,0,12,407,313.3)" />
<use xlink:href="#f0_t" transform="matrix(12,0,0,12,412.2,313.3)" />
<use xlink:href="#f0_d" transform="matrix(12,0,0,12,417.4,313.3)" />
<use xlink:href="#f0_i" transform="matrix(12,0,0,12,428.7,313.3)" />
<use xlink:href="#f0_f" transform="matrix(12,0,0,12,435.9,313.3)" />
<use xlink:href="#f0_b" transform="matrix(12,0,0,12,440.9,313.3)" />
<use xlink:href="#f0_g" transform="matrix(12,0,0,12,452.2,313.3)" />
<use xlink:href="#f0_v" transform="matrix(12,0,0,12,120.8,339.6)" />
<use xlink:href="#f0_d" transform="matrix(12,0,0,12,131.8,339.6)" />
<use xlink:href="#f0_a" transform="matrix(12,0,0,12,143.1,339.6)" />
<use xlink:href="#f0_f" transform="matrix(12,0,0,12,150.9,339.6)" />
<use xlink:href="#f0_d" transform="matrix(12,0,0,12,156,339.6)" />
<use xlink:href="#f0_14" transform="matrix(12,0,0,12,167.4,339.6)" />
<use xlink:href="#f0_t" transform="matrix(12,0,0,12,178.9,339.6)" />
<use xlink:href="#f0_p" transform="matrix(12,0,0,12,184,339.6)" />
<use xlink:href="#f0_l" transform="matrix(12,0,0,12,195.3,339.6)" />
<use xlink:href="#f0_d" transform="matrix(12,0,0,12,210.7,339.6)" />
<use xlink:href="#f0_g" transform="matrix(12,0,0,12,222,339.6)" />
<use xlink:href="#f0_z" transform="matrix(12,0,0,12,233.6,339.6)" />
<use xlink:href="#f0_15" transform="matrix(12,0,0,12,251.2,339.6)" />
<use xlink:href="#f0_d" transform="matrix(12,0,0,12,265.4,339.6)" />
<use xlink:href="#f0_i" transform="matrix(12,0,0,12,276.7,339.6)" />
<use xlink:href="#f0_d" transform="matrix(12,0,0,12,283.9,339.6)" />
<use xlink:href="#f0_w" transform="matrix(12,0,0,12,301.1,339.6)" />
<use xlink:href="#f0_8" transform="matrix(12,0,0,12,309.5,339.6)" />
<use xlink:href="#f0_n" transform="matrix(12,0,0,12,320.3,339.6)" />
<use xlink:href="#f0_p" transform="matrix(12,0,0,12,331.8,339.6)" />
<use xlink:href="#f0_l" transform="matrix(12,0,0,12,343.2,339.6)" />
<use xlink:href="#f0_m" transform="matrix(12,0,0,12,120.8,366.1)" />
<use xlink:href="#f0_b" transform="matrix(12,0,0,12,133.7,366.1)" />
<use xlink:href="#f0_e" transform="matrix(12,0,0,12,144.8,366.1)" />
<use xlink:href="#f0_e" transform="matrix(12,0,0,12,162.5,366.1)" />
<use xlink:href="#f0_p" transform="matrix(12,0,0,12,180.4,366.1)" />
<use xlink:href="#f0_g" transform="matrix(12,0,0,12,191.7,366.1)" />
<use xlink:href="#f0_i" transform="matrix(12,0,0,12,203.3,366.1)" />
<use xlink:href="#f0_l" transform="matrix(12,0,0,12,210.5,366.1)" />
<use xlink:href="#f0_13" transform="matrix(12,0,0,12,120.8,392.3)" />
<use xlink:href="#f0_g" transform="matrix(12,0,0,12,126.2,392.3)" />
<use xlink:href="#f0_n" transform="matrix(12,0,0,12,137.7,392.3)" />
<use xlink:href="#f0_o" transform="matrix(12,0,0,12,149.3,392.3)" />
<use xlink:href="#f0_i" transform="matrix(12,0,0,12,160.9,392.3)" />
<use xlink:href="#f0_u" transform="matrix(12,0,0,12,173.8,392.3)" />
<use xlink:href="#f0_o" transform="matrix(12,0,0,12,183.3,392.3)" />
<use xlink:href="#f0_g" transform="matrix(12,0,0,12,194.9,392.3)" />
<use xlink:href="#f0_k" transform="matrix(12,0,0,12,206.4,392.3)" />
<use xlink:href="#f0_i" transform="matrix(12,0,0,12,216.6,392.3)" />
<use xlink:href="#f0_f" transform="matrix(12,0,0,12,223.8,392.3)" />
<use xlink:href="#f0_b" transform="matrix(12,0,0,12,228.9,392.3)" />
<use xlink:href="#f0_g" transform="matrix(12,0,0,12,240.1,392.3)" />
<use xlink:href="#f0_16" transform="matrix(12,0,0,12,120.8,418.8)" />
<use xlink:href="#f0_n" transform="matrix(12,0,0,12,135.3,418.8)" />
<use xlink:href="#f0_p" transform="matrix(12,0,0,12,146.8,418.8)" />
<use xlink:href="#f0_a" transform="matrix(12,0,0,12,158.2,418.8)" />
<use xlink:href="#f0_d" transform="matrix(12,0,0,12,165.9,418.8)" />
<use xlink:href="#f0_i" transform="matrix(12,0,0,12,177.3,418.8)" />
<use xlink:href="#f0_b" transform="matrix(12,0,0,12,184.3,418.8)" />
<use xlink:href="#f0_a" transform="matrix(12,0,0,12,195.5,418.8)" />
<use xlink:href="#f0_l" transform="matrix(12,0,0,12,203.3,418.8)" />
<use xlink:href="#f0_m" transform="matrix(12,0,0,12,120.8,445)" />
<use xlink:href="#f0_b" transform="matrix(12,0,0,12,133.7,445)" />
<use xlink:href="#f0_z" transform="matrix(12,0,0,12,144.8,445)" />
<use xlink:href="#f0_f" transform="matrix(12,0,0,12,156.6,445)" />
<use xlink:href="#f0_g" transform="matrix(12,0,0,12,161.6,445)" />
<use xlink:href="#f0_c" transform="matrix(12,0,0,12,173.2,445)" />
<use xlink:href="#f0_j" transform="matrix(12,0,0,12,190.8,445)" />
<use xlink:href="#f0_i" transform="matrix(12,0,0,12,202.5,445)" />
<use xlink:href="#f0_d" transform="matrix(12,0,0,12,209.7,445)" />
<use xlink:href="#f0_g" transform="matrix(12,0,0,12,221,445)" />
<use xlink:href="#f0_z" transform="matrix(12,0,0,12,232.6,445)" />
<use xlink:href="#f0_d" transform="matrix(12,0,0,12,244.4,445)" />
<use xlink:href="#f0_a" transform="matrix(12,0,0,12,255.7,445)" />
<use xlink:href="#f0_z" transform="matrix(12,0,0,12,263,445)" />
<use xlink:href="#f0_l" transform="matrix(12,0,0,12,274.7,445)" />
<use xlink:href="#f0_13" transform="matrix(12,0,0,12,120.8,471.3)" />
<use xlink:href="#f0_g" transform="matrix(12,0,0,12,126.2,471.3)" />
<use xlink:href="#f0_i" transform="matrix(12,0,0,12,137.7,471.3)" />
<use xlink:href="#f0_p" transform="matrix(12,0,0,12,144.8,471.3)" />
<use xlink:href="#f0_c" transform="matrix(12,0,0,12,156.1,471.3)" />
<use xlink:href="#f0_a" transform="matrix(12,0,0,12,167.9,471.3)" />
<use xlink:href="#f0_d" transform="matrix(12,0,0,12,175.7,471.3)" />
<use xlink:href="#f0_i" transform="matrix(12,0,0,12,187,471.3)" />
<use xlink:href="#f0_p" transform="matrix(12,0,0,12,194.1,471.3)" />
<use xlink:href="#f0_z" transform="matrix(12,0,0,12,205.4,471.3)" />
<use xlink:href="#f0_15" transform="matrix(12,0,0,12,223,471.3)" />
<use xlink:href="#f0_p" transform="matrix(12,0,0,12,237.2,471.3)" />
<use xlink:href="#f0_17" transform="matrix(12,0,0,12,248.5,471.3)" />
<use xlink:href="#f0_p" transform="matrix(12,0,0,12,259.3,471.3)" />
<use xlink:href="#f0_t" transform="matrix(12,0,0,12,270.8,471.3)" />
<use xlink:href="#f0_b" transform="matrix(12,0,0,12,275.8,471.3)" />
<use xlink:href="#f0_n" transform="matrix(12,0,0,12,286.9,471.3)" />
<use xlink:href="#f0_e" transform="matrix(12,0,0,12,298.6,471.3)" />
<use xlink:href="#f0_p" transform="matrix(12,0,0,12,316.3,471.3)" />
<use xlink:href="#f0_g" transform="matrix(12,0,0,12,327.7,471.3)" />
<use xlink:href="#f0_i" transform="matrix(12,0,0,12,339.2,471.3)" />
<use xlink:href="#f0_18" transform="matrix(12,0,0,12,352.3,471.3)" />
<use xlink:href="#f0_g" transform="matrix(12,0,0,12,363.8,471.3)" />
<use xlink:href="#f0_17" transform="matrix(12,0,0,12,375.4,471.3)" />
<use xlink:href="#f0_f" transform="matrix(12,0,0,12,386.2,471.3)" />
<use xlink:href="#f0_a" transform="matrix(12,0,0,12,391.2,471.3)" />
<use xlink:href="#f0_b" transform="matrix(12,0,0,12,398.4,471.3)" />
<use xlink:href="#f0_g" transform="matrix(12,0,0,12,409.6,471.3)" />
<use xlink:href="#f0_e" transform="matrix(12,0,0,12,421.2,471.3)" />
<use xlink:href="#f0_p" transform="matrix(12,0,0,12,438.9,471.3)" />
<use xlink:href="#f0_g" transform="matrix(12,0,0,12,450.4,471.3)" />
<use xlink:href="#f0_i" transform="matrix(12,0,0,12,461.8,471.3)" />
<use xlink:href="#f0_19" transform="matrix(12,0,0,12,469,471.3)" />
<use xlink:href="#f0_13" transform="matrix(12,0,0,12,476.2,471.3)" />
<use xlink:href="#f0_15" transform="matrix(12,0,0,12,481.4,471.3)" />
<use xlink:href="#f0_18" transform="matrix(12,0,0,12,495.5,471.3)" />
<use xlink:href="#f0_1a" transform="matrix(12,0,0,12,507.1,471.3)" />
<use xlink:href="#f0_1b" transform="matrix(12,0,0,12,65.8,503.9)" />
<use xlink:href="#f0_4" transform="matrix(12,0,0,12,77.5,503.9)" />
<use xlink:href="#f1_m" transform="matrix(12,0,0,12,89.2,503.9)" />
<use xlink:href="#f1_6" transform="matrix(12,0,0,12,102.7,503.9)" />
<use xlink:href="#f1_3" transform="matrix(12,0,0,12,115,503.9)" />
<use xlink:href="#f1_4" transform="matrix(12,0,0,12,128,503.9)" />
<use xlink:href="#f1_5" transform="matrix(12,0,0,12,136.7,503.9)" />
<use xlink:href="#f1_6" transform="matrix(12,0,0,12,145.7,503.9)" />
<use xlink:href="#f1_h" transform="matrix(12,0,0,12,158.1,503.9)" />
<use xlink:href="#f1_q" transform="matrix(12,0,0,12,170.6,503.9)" />
<use xlink:href="#f1_4" transform="matrix(12,0,0,12,183.8,503.9)" />
<use xlink:href="#f1_5" transform="matrix(12,0,0,12,192.5,503.9)" />
<use xlink:href="#f1_8" transform="matrix(12,0,0,12,201.5,503.9)" />
<use xlink:href="#f1_9" transform="matrix(12,0,0,12,214.5,503.9)" />
<use xlink:href="#f1_4" transform="matrix(12,0,0,12,225.3,503.9)" />
<use xlink:href="#f1_8" transform="matrix(12,0,0,12,233.9,503.9)" />
<use xlink:href="#f1_5" transform="matrix(12,0,0,12,246.9,503.9)" />
<use xlink:href="#f1_o" transform="matrix(12,0,0,12,255.9,503.9)" />
<use xlink:href="#f1_n" transform="matrix(12,0,0,12,268.4,503.9)" />
<use xlink:href="#f0_j" transform="matrix(12,0,0,12,120.8,525.9)" />
<use xlink:href="#f0_p" transform="matrix(12,0,0,12,132.5,525.9)" />
<use xlink:href="#f0_t" transform="matrix(12,0,0,12,143.9,525.9)" />
<use xlink:href="#f0_p" transform="matrix(12,0,0,12,148.9,525.9)" />
<use xlink:href="#f0_k" transform="matrix(12,0,0,12,160.4,525.9)" />
<use xlink:href="#f0_i" transform="matrix(12,0,0,12,170.6,525.9)" />
<use xlink:href="#f0_f" transform="matrix(12,0,0,12,177.8,525.9)" />
<use xlink:href="#f0_b" transform="matrix(12,0,0,12,182.8,525.9)" />
<use xlink:href="#f0_g" transform="matrix(12,0,0,12,194,525.9)" />
<use xlink:href="#f0_m" transform="matrix(12,0,0,12,211.5,525.9)" />
<use xlink:href="#f0_b" transform="matrix(12,0,0,12,224.3,525.9)" />
<use xlink:href="#f0_g" transform="matrix(12,0,0,12,235.5,525.9)" />
<use xlink:href="#f0_i" transform="matrix(12,0,0,12,246.9,525.9)" />
<use xlink:href="#f0_a" transform="matrix(12,0,0,12,254.1,525.9)" />
<use xlink:href="#f0_b" transform="matrix(12,0,0,12,261.3,525.9)" />
<use xlink:href="#f0_t" transform="matrix(12,0,0,12,272.4,525.9)" />
<use xlink:href="#f0_j" transform="matrix(12,0,0,12,283.4,525.9)" />
<use xlink:href="#f0_i" transform="matrix(12,0,0,12,295.2,525.9)" />
<use xlink:href="#f0_a" transform="matrix(12,0,0,12,302.4,525.9)" />
<use xlink:href="#f0_o" transform="matrix(12,0,0,12,310,525.9)" />
<use xlink:href="#f0_k" transform="matrix(12,0,0,12,321.6,525.9)" />
<use xlink:href="#f0_i" transform="matrix(12,0,0,12,331.8,525.9)" />
<use xlink:href="#f0_o" transform="matrix(12,0,0,12,339,525.9)" />
<use xlink:href="#f0_a" transform="matrix(12,0,0,12,350.5,525.9)" />
<use xlink:href="#f0_p" transform="matrix(12,0,0,12,357.6,525.9)" />
<use xlink:href="#f0_l" transform="matrix(12,0,0,12,369.1,525.9)" />
<use xlink:href="#f0_11" transform="matrix(12,0,0,12,120.8,547.9)" />
<use xlink:href="#f0_b" transform="matrix(12,0,0,12,130.6,547.9)" />
<use xlink:href="#f0_b" transform="matrix(12,0,0,12,141.9,547.9)" />
<use xlink:href="#f0_n" transform="matrix(12,0,0,12,153.1,547.9)" />
<use xlink:href="#f0_f" transform="matrix(12,0,0,12,164.5,547.9)" />
<use xlink:href="#f0_g" transform="matrix(12,0,0,12,169.7,547.9)" />
<use xlink:href="#f0_c" transform="matrix(12,0,0,12,181.3,547.9)" />
<use xlink:href="#f0_1c" transform="matrix(12,0,0,12,192.9,547.9)" />
<use xlink:href="#f0_13" transform="matrix(12,0,0,12,199.1,547.9)" />
<use xlink:href="#f0_i" transform="matrix(12,0,0,12,204.5,547.9)" />
<use xlink:href="#f0_p" transform="matrix(12,0,0,12,211.7,547.9)" />
<use xlink:href="#f0_a" transform="matrix(12,0,0,12,223,547.9)" />
<use xlink:href="#f0_d" transform="matrix(12,0,0,12,230.8,547.9)" />
<use xlink:href="#f0_i" transform="matrix(12,0,0,12,242,547.9)" />
<use xlink:href="#f0_f" transform="matrix(12,0,0,12,249.2,547.9)" />
<use xlink:href="#f0_17" transform="matrix(12,0,0,12,254.3,547.9)" />
<use xlink:href="#f0_p" transform="matrix(12,0,0,12,265.1,547.9)" />
<use xlink:href="#f0_m" transform="matrix(12,0,0,12,282.3,547.9)" />
<use xlink:href="#f0_b" transform="matrix(12,0,0,12,295.2,547.9)" />
<use xlink:href="#f0_g" transform="matrix(12,0,0,12,306.3,547.9)" />
<use xlink:href="#f0_i" transform="matrix(12,0,0,12,317.9,547.9)" />
<use xlink:href="#f0_a" transform="matrix(12,0,0,12,325.1,547.9)" />
<use xlink:href="#f0_b" transform="matrix(12,0,0,12,332.1,547.9)" />
<use xlink:href="#f0_t" transform="matrix(12,0,0,12,343.4,547.9)" />
<use xlink:href="#f0_j" transform="matrix(12,0,0,12,354.4,547.9)" />
<use xlink:href="#f0_i" transform="matrix(12,0,0,12,366,547.9)" />
<use xlink:href="#f0_a" transform="matrix(12,0,0,12,373.2,547.9)" />
<use xlink:href="#f0_o" transform="matrix(12,0,0,12,380.8,547.9)" />
<use xlink:href="#f0_k" transform="matrix(12,0,0,12,392.4,547.9)" />
<use xlink:href="#f0_i" transform="matrix(12,0,0,12,402.6,547.9)" />
<use xlink:href="#f0_o" transform="matrix(12,0,0,12,409.8,547.9)" />
<use xlink:href="#f0_a" transform="matrix(12,0,0,12,421.4,547.9)" />
<use xlink:href="#f0_p" transform="matrix(12,0,0,12,428.6,547.9)" />
<use xlink:href="#f0_l" transform="matrix(12,0,0,12,439.9,547.9)" />
<use xlink:href="#f0_1d" transform="matrix(12,0,0,12,65.8,569.9)" />
<use xlink:href="#f0_4" transform="matrix(12,0,0,12,77.5,569.9)" />
<use xlink:href="#f1_r" transform="matrix(12,0,0,12,89.8,569.9)" />
<use xlink:href="#f1_e" transform="matrix(12,0,0,12,104.8,569.9)" />
<use xlink:href="#f1_4" transform="matrix(12,0,0,12,117.3,569.9)" />
<use xlink:href="#f1_e" transform="matrix(12,0,0,12,125.9,569.9)" />
<use xlink:href="#f1_q" transform="matrix(12,0,0,12,144.8,569.9)" />
<use xlink:href="#f1_4" transform="matrix(12,0,0,12,157.9,569.9)" />
<use xlink:href="#f1_5" transform="matrix(12,0,0,12,166.5,569.9)" />
<use xlink:href="#f1_8" transform="matrix(12,0,0,12,175.5,569.9)" />
<use xlink:href="#f1_9" transform="matrix(12,0,0,12,188.5,569.9)" />
<use xlink:href="#f1_4" transform="matrix(12,0,0,12,199.3,569.9)" />
<use xlink:href="#f1_8" transform="matrix(12,0,0,12,208,569.9)" />
<use xlink:href="#f1_5" transform="matrix(12,0,0,12,221,569.9)" />
<use xlink:href="#f1_o" transform="matrix(12,0,0,12,230,569.9)" />
<use xlink:href="#f1_n" transform="matrix(12,0,0,12,242.4,569.9)" />
<use xlink:href="#f0_j" transform="matrix(12,0,0,12,120.8,591.7)" />
<use xlink:href="#f0_i" transform="matrix(12,0,0,12,132.5,591.7)" />
<use xlink:href="#f0_a" transform="matrix(12,0,0,12,139.6,591.7)" />
<use xlink:href="#f0_f" transform="matrix(12,0,0,12,147.4,591.7)" />
<use xlink:href="#f0_g" transform="matrix(12,0,0,12,152.5,591.7)" />
<use xlink:href="#f0_c" transform="matrix(12,0,0,12,164.1,591.7)" />
<use xlink:href="#f0_11" transform="matrix(12,0,0,12,120.8,613.7)" />
<use xlink:href="#f0_f" transform="matrix(12,0,0,12,131.1,613.7)" />
<use xlink:href="#f0_l" transform="matrix(12,0,0,12,136.1,613.7)" />
<use xlink:href="#f0_i" transform="matrix(12,0,0,12,145.7,613.7)" />
<use xlink:href="#f0_15" transform="matrix(12,0,0,12,120.8,635.7)" />
<use xlink:href="#f0_f" transform="matrix(12,0,0,12,134.9,635.7)" />
<use xlink:href="#f0_k" transform="matrix(12,0,0,12,140.1,635.7)" />
<use xlink:href="#f0_i" transform="matrix(12,0,0,12,150.3,635.7)" />
<use xlink:href="#f0_f" transform="matrix(12,0,0,12,157.5,635.7)" />
<use xlink:href="#f0_b" transform="matrix(12,0,0,12,162.5,635.7)" />
<use xlink:href="#f0_g" transform="matrix(12,0,0,12,173.7,635.7)" />
<use xlink:href="#f0_d" transform="matrix(12,0,0,12,185.3,635.7)" />
<use xlink:href="#f0_a" transform="matrix(12,0,0,12,196.6,635.7)" />
<use xlink:href="#f0_8" transform="matrix(12,0,0,12,204.3,635.7)" />
<use xlink:href="#f0_d" transform="matrix(12,0,0,12,221,635.7)" />
<use xlink:href="#f0_g" transform="matrix(12,0,0,12,232.3,635.7)" />
<use xlink:href="#f0_z" transform="matrix(12,0,0,12,243.9,635.7)" />
<use xlink:href="#f0_w" transform="matrix(12,0,0,12,261.4,635.7)" />
<use xlink:href="#f0_o" transform="matrix(12,0,0,12,269.8,635.7)" />
<use xlink:href="#f0_n" transform="matrix(12,0,0,12,281.4,635.7)" />
<use xlink:href="#f0_t" transform="matrix(12,0,0,12,292.9,635.7)" />
<use xlink:href="#f0_p" transform="matrix(12,0,0,12,298.1,635.7)" />
<use xlink:href="#f0_j" transform="matrix(12,0,0,12,120.8,657.6)" />
<use xlink:href="#f0_p" transform="matrix(12,0,0,12,132.5,657.6)" />
<use xlink:href="#f0_i" transform="matrix(12,0,0,12,143.9,657.6)" />
<use xlink:href="#f0_1e" transform="matrix(12,0,0,12,65.8,679.6)" />
<use xlink:href="#f0_4" transform="matrix(12,0,0,12,77.3,679.6)" />
<use xlink:href="#f1_k" transform="matrix(12,0,0,12,89.1,679.6)" />
<use xlink:href="#f1_8" transform="matrix(12,0,0,12,100.7,679.6)" />
<use xlink:href="#f1_3" transform="matrix(12,0,0,12,113.7,679.6)" />
<use xlink:href="#f1_9" transform="matrix(12,0,0,12,126.6,679.6)" />
<use xlink:href="#f1_4" transform="matrix(12,0,0,12,137.5,679.6)" />
<use xlink:href="#f1_a" transform="matrix(12,0,0,12,146,679.6)" />
<use xlink:href="#f1_6" transform="matrix(12,0,0,12,152.2,679.6)" />
<use xlink:href="#f1_3" transform="matrix(12,0,0,12,164.5,679.6)" />
<use xlink:href="#f1_n" transform="matrix(12,0,0,12,177.7,679.6)" />
<use xlink:href="#f0_1f" transform="matrix(12,0,0,12,120.8,701.6)" />
<use xlink:href="#f0_o" transform="matrix(12,0,0,12,133.4,701.6)" />
<use xlink:href="#f0_f" transform="matrix(12,0,0,12,145,701.6)" />
<use xlink:href="#f0_t" transform="matrix(12,0,0,12,150,701.6)" />
<use xlink:href="#f0_i" transform="matrix(12,0,0,12,155.2,701.6)" />
<use xlink:href="#f0_1g" transform="matrix(12,0,0,12,162.4,701.6)" />
<use xlink:href="#f0_f" transform="matrix(12,0,0,12,168.9,701.6)" />
<use xlink:href="#f0_g" transform="matrix(12,0,0,12,174.1,701.6)" />
<use xlink:href="#f0_1h" transform="matrix(12,0,0,12,191.5,701.6)" />
<use xlink:href="#f0_o" transform="matrix(12,0,0,12,197.9,701.6)" />
<use xlink:href="#f0_g" transform="matrix(12,0,0,12,209.4,701.6)" />
<use xlink:href="#f0_k" transform="matrix(12,0,0,12,221,701.6)" />
<use xlink:href="#f0_i" transform="matrix(12,0,0,12,231.2,701.6)" />
<use xlink:href="#f0_f" transform="matrix(12,0,0,12,238.4,701.6)" />
<use xlink:href="#f0_b" transform="matrix(12,0,0,12,243.4,701.6)" />
<use xlink:href="#f0_g" transform="matrix(12,0,0,12,254.7,701.6)" />
<use xlink:href="#f0_l" transform="matrix(12,0,0,12,266.2,701.6)" />
<use xlink:href="#f0_1i" transform="matrix(12,0,0,12,120.8,723.6)" />
<use xlink:href="#f0_l" transform="matrix(12,0,0,12,134.1,723.6)" />
<use xlink:href="#f0_p" transform="matrix(12,0,0,12,143.7,723.6)" />
<use xlink:href="#f0_a" transform="matrix(12,0,0,12,155,723.6)" />
<use xlink:href="#f0_1g" transform="matrix(12,0,0,12,161.5,723.6)" />
<use xlink:href="#f0_z" transform="matrix(12,0,0,12,168,723.6)" />
<use xlink:href="#f0_p" transform="matrix(12,0,0,12,179.8,723.6)" />
<use xlink:href="#f0_1j" transform="matrix(12,0,0,12,191.1,723.6)" />
<use xlink:href="#f0_g" transform="matrix(12,0,0,12,202.7,723.6)" />
<use xlink:href="#f0_p" transform="matrix(12,0,0,12,214.3,723.6)" />
<use xlink:href="#f0_z" transform="matrix(12,0,0,12,225.5,723.6)" />
<use xlink:href="#f0_1h" transform="matrix(12,0,0,12,243.1,723.6)" />
<use xlink:href="#f0_o" transform="matrix(12,0,0,12,249.5,723.6)" />
<use xlink:href="#f0_g" transform="matrix(12,0,0,12,261.1,723.6)" />
<use xlink:href="#f0_k" transform="matrix(12,0,0,12,272.6,723.6)" />
<use xlink:href="#f0_i" transform="matrix(12,0,0,12,283,723.6)" />
<use xlink:href="#f0_f" transform="matrix(12,0,0,12,290,723.6)" />
<use xlink:href="#f0_b" transform="matrix(12,0,0,12,295.2,723.6)" />
<use xlink:href="#f0_g" transform="matrix(12,0,0,12,306.3,723.6)" />
<use xlink:href="#f0_l" transform="matrix(12,0,0,12,317.9,723.6)" />
<use xlink:href="#f0_y" transform="matrix(12,0,0,12,120.8,745.4)" />
<use xlink:href="#f0_p" transform="matrix(12,0,0,12,132.8,745.4)" />
<use xlink:href="#f0_k" transform="matrix(12,0,0,12,144.1,745.4)" />
<use xlink:href="#f0_o" transform="matrix(12,0,0,12,154.3,745.4)" />
<use xlink:href="#f0_a" transform="matrix(12,0,0,12,165.9,745.4)" />
<use xlink:href="#f0_l" transform="matrix(12,0,0,12,173.5,745.4)" />
<use xlink:href="#f0_f" transform="matrix(12,0,0,12,183,745.4)" />
<use xlink:href="#f0_b" transform="matrix(12,0,0,12,188.1,745.4)" />
<use xlink:href="#f0_g" transform="matrix(12,0,0,12,199.3,745.4)" />
<use xlink:href="#f0_1k" transform="matrix(12,0,0,12,65.8,765)" />
<use xlink:href="#f0_4" transform="matrix(12,0,0,12,77.5,765)" />
<use xlink:href="#f1_k" transform="matrix(12,0,0,12,89.2,765)" />
<use xlink:href="#f1_a" transform="matrix(12,0,0,12,101.7,765)" />
<use xlink:href="#f1_h" transform="matrix(12,0,0,12,107.8,765)" />
<use xlink:href="#f1_o" transform="matrix(12,0,0,12,113.8,765)" />
<use xlink:href="#f1_s" transform="matrix(12,0,0,12,132.7,765)" />
<use xlink:href="#f1_e" transform="matrix(12,0,0,12,147.8,765)" />
<use xlink:href="#f1_3" transform="matrix(12,0,0,12,160.3,765)" />
<use xlink:href="#f1_7" transform="matrix(12,0,0,12,173.3,765)" />
<use xlink:href="#f1_h" transform="matrix(12,0,0,12,186.3,765)" />
<use xlink:href="#f1_a" transform="matrix(12,0,0,12,192.4,765)" />
<use xlink:href="#f1_3" transform="matrix(12,0,0,12,198.4,765)" />
<use xlink:href="#f1_d" transform="matrix(12,0,0,12,211.5,765)" />
<use xlink:href="#f0_1l" transform="matrix(12,0,0,12,65.8,787)" />
<use xlink:href="#f0_4" transform="matrix(12,0,0,12,77.5,787)" />
<use xlink:href="#f1_t" transform="matrix(12,0,0,12,89.2,787)" />
<use xlink:href="#f1_u" transform="matrix(12,0,0,12,101.7,787)" />
<use xlink:href="#f1_9" transform="matrix(12,0,0,12,113.6,787)" />
<use xlink:href="#f1_o" transform="matrix(12,0,0,12,124.5,787)" />
<use xlink:href="#f1_v" transform="matrix(12,0,0,12,136.9,787)" />
<use xlink:href="#f1_4" transform="matrix(12,0,0,12,149.9,787)" />
<use xlink:href="#f1_a" transform="matrix(12,0,0,12,158.6,787)" />
<use xlink:href="#f1_6" transform="matrix(12,0,0,12,164.5,787)" />
<use xlink:href="#f1_3" transform="matrix(12,0,0,12,177,787)" />
<use xlink:href="#f1_s" transform="matrix(12,0,0,12,196.4,787)" />
<use xlink:href="#f1_e" transform="matrix(12,0,0,12,211.7,787)" />
<use xlink:href="#f1_3" transform="matrix(12,0,0,12,224,787)" />
<use xlink:href="#f1_7" transform="matrix(12,0,0,12,237.2,787)" />
<use xlink:href="#f1_h" transform="matrix(12,0,0,12,250.2,787)" />
<use xlink:href="#f1_a" transform="matrix(12,0,0,12,256.3,787)" />
<use xlink:href="#f1_3" transform="matrix(12,0,0,12,262.2,787)" />
<use xlink:href="#f1_d" transform="matrix(12,0,0,12,275.2,787)" />
<use xlink:href="#f0_1m" transform="matrix(12,0,0,12,65.8,809)" />
<use xlink:href="#f0_4" transform="matrix(12,0,0,12,77.3,809)" />
<use xlink:href="#f1_w" transform="matrix(12,0,0,12,89.1,809)" />
<use xlink:href="#f1_6" transform="matrix(12,0,0,12,107.3,809)" />
<use xlink:href="#f1_7" transform="matrix(12,0,0,12,119.6,809)" />
<use xlink:href="#f1_8" transform="matrix(12,0,0,12,132.8,809)" />
<use xlink:href="#f1_h" transform="matrix(12,0,0,12,145.7,809)" />
<use xlink:href="#f1_o" transform="matrix(12,0,0,12,151.8,809)" />
<use xlink:href="#f1_n" transform="matrix(12,0,0,12,164.2,809)" />
<use xlink:href="#f1_e" transform="matrix(12,0,0,12,181.6,809)" />
<use xlink:href="#f1_3" transform="matrix(12,0,0,12,194.1,809)" />
<use xlink:href="#f1_7" transform="matrix(12,0,0,12,207.1,809)" />
<use xlink:href="#f1_c" transform="matrix(12,0,0,12,226.5,809)" />
<use xlink:href="#f1_e" transform="matrix(12,0,0,12,239.3,809)" />
<use xlink:href="#f1_9" transform="matrix(12,0,0,12,251.8,809)" />
<use xlink:href="#f1_x" transform="matrix(12,0,0,12,262.5,809)" />
<use xlink:href="#f1_e" transform="matrix(12,0,0,12,274.7,809)" />
<use xlink:href="#f1_d" transform="matrix(12,0,0,12,287.1,809)" />
<use xlink:href="#f1_o" transform="matrix(12,0,0,12,300.2,809)" />
<use xlink:href="#f1_n" transform="matrix(12,0,0,12,312.6,809)" />
<use xlink:href="#f0_1n" transform="matrix(12,0,0,12,120.8,830.8)" />
<use xlink:href="#f0_b" transform="matrix(12,0,0,12,136.6,830.8)" />
<use xlink:href="#f0_z" transform="matrix(12,0,0,12,147.7,830.8)" />
<use xlink:href="#f0_o" transform="matrix(12,0,0,12,159.5,830.8)" />
<use xlink:href="#f0_t" transform="matrix(12,0,0,12,170.9,830.8)" />
<use xlink:href="#f0_p" transform="matrix(12,0,0,12,176.1,830.8)" />
<use xlink:href="#f0_l" transform="matrix(12,0,0,12,187.4,830.8)" />
<use xlink:href="#f0_9" transform="matrix(12,0,0,12,120.8,852.8)" />
<use xlink:href="#f0_d" transform="matrix(12,0,0,12,130.9,852.8)" />
<use xlink:href="#f0_k" transform="matrix(12,0,0,12,142.2,852.8)" />
<use xlink:href="#f0_1o" transform="matrix(12,0,0,12,152.4,852.8)" />
<use xlink:href="#f0_d" transform="matrix(12,0,0,12,162.7,852.8)" />
<use xlink:href="#f0_c" transform="matrix(12,0,0,12,174.1,852.8)" />
<use xlink:href="#f0_p" transform="matrix(12,0,0,12,185.9,852.8)" />
<use xlink:href="#f0_l" transform="matrix(12,0,0,12,197.2,852.8)" />
<use xlink:href="#f0_m" transform="matrix(12,0,0,12,120.8,874.8)" />
<use xlink:href="#f0_b" transform="matrix(12,0,0,12,133.5,874.8)" />
<use xlink:href="#f0_e" transform="matrix(12,0,0,12,144.8,874.8)" />
<use xlink:href="#f0_e" transform="matrix(12,0,0,12,162.6,874.8)" />
<use xlink:href="#f0_b" transform="matrix(12,0,0,12,180.4,874.8)" />
<use xlink:href="#f0_g" transform="matrix(12,0,0,12,191.6,874.8)" />
<use xlink:href="#f0_t" transform="matrix(12,0,0,12,203,874.8)" />
<use xlink:href="#f0_8" transform="matrix(12,0,0,12,208.2,874.8)" />
<use xlink:href="#f0_o" transform="matrix(12,0,0,12,224.8,874.8)" />
<use xlink:href="#f0_l" transform="matrix(12,0,0,12,236.4,874.8)" />
<use xlink:href="#f0_p" transform="matrix(12,0,0,12,245.9,874.8)" />
<use xlink:href="#f0_z" transform="matrix(12,0,0,12,257.4,874.8)" />
<use xlink:href="#f0_9" transform="matrix(12,0,0,12,274.9,874.8)" />
<use xlink:href="#f0_8" transform="matrix(12,0,0,12,285.9,874.8)" />
<use xlink:href="#f0_i" transform="matrix(12,0,0,12,296.7,874.8)" />
<use xlink:href="#f0_7" transform="matrix(12,0,0,12,303.8,874.8)" />
<use xlink:href="#f0_b" transform="matrix(12,0,0,12,315.4,874.8)" />
<use xlink:href="#f0_g" transform="matrix(12,0,0,12,326.5,874.8)" />
<use xlink:href="#f0_1n" transform="matrix(12,0,0,12,343.9,874.8)" />
<use xlink:href="#f0_b" transform="matrix(12,0,0,12,359.7,874.8)" />
<use xlink:href="#f0_z" transform="matrix(12,0,0,12,371,874.8)" />
<use xlink:href="#f0_o" transform="matrix(12,0,0,12,382.6,874.8)" />
<use xlink:href="#f0_t" transform="matrix(12,0,0,12,394.2,874.8)" />
<use xlink:href="#f0_p" transform="matrix(12,0,0,12,399.3,874.8)" />
<use xlink:href="#f0_l" transform="matrix(12,0,0,12,410.6,874.8)" />
<use xlink:href="#f0_1n" transform="matrix(12,0,0,12,175.8,896.7)" />
<use xlink:href="#f0_d" transform="matrix(12,0,0,12,191.6,896.7)" />
<use xlink:href="#f0_i" transform="matrix(12,0,0,12,202.9,896.7)" />
<use xlink:href="#f0_7" transform="matrix(12,0,0,12,210.1,896.7)" />
<use xlink:href="#f0_y" transform="matrix(12,0,0,12,175.8,918.7)" />
<use xlink:href="#f0_d" transform="matrix(12,0,0,12,188.1,918.7)" />
<use xlink:href="#f0_g" transform="matrix(12,0,0,12,199.4,918.7)" />
<use xlink:href="#f0_z" transform="matrix(12,0,0,12,211,918.7)" />
<use xlink:href="#f0_b" transform="matrix(12,0,0,12,222.7,918.7)" />
<use xlink:href="#f0_e" transform="matrix(12,0,0,12,233.9,918.7)" />
<use xlink:href="#f0_w" transform="matrix(12,0,0,12,175.8,940.7)" />
<use xlink:href="#f0_f" transform="matrix(12,0,0,12,186.4,940.7)" />
<use xlink:href="#f0_e" transform="matrix(12,0,0,12,191.6,940.7)" />
<use xlink:href="#f0_p" transform="matrix(12,0,0,12,209.3,940.7)" />
<use xlink:href="#f0_y" transform="matrix(12,0,0,12,175.8,962.7)" />
<use xlink:href="#f0_p" transform="matrix(12,0,0,12,187.8,962.7)" />
<use xlink:href="#f0_c" transform="matrix(12,0,0,12,199.1,962.7)" />
<use xlink:href="#f0_o" transform="matrix(12,0,0,12,210.8,962.7)" />
<use xlink:href="#f0_t" transform="matrix(12,0,0,12,222.3,962.7)" />
<use xlink:href="#f0_d" transform="matrix(12,0,0,12,227.4,962.7)" />
<use xlink:href="#f0_a" transform="matrix(12,0,0,12,238.7,962.7)" />
<use xlink:href="#f0_18" transform="matrix(12,0,0,12,252.3,962.7)" />
<use xlink:href="#f0_1p" transform="matrix(12,0,0,12,263.9,962.7)" />
<use xlink:href="#f0_n" transform="matrix(12,0,0,12,274.7,962.7)" />
<use xlink:href="#f0_a" transform="matrix(12,0,0,12,286.2,962.7)" />
<use xlink:href="#f0_p" transform="matrix(12,0,0,12,293.4,962.7)" />
<use xlink:href="#f0_l" transform="matrix(12,0,0,12,304.7,962.7)" />
<use xlink:href="#f0_l" transform="matrix(12,0,0,12,314.3,962.7)" />
<use xlink:href="#f0_f" transform="matrix(12,0,0,12,323.8,962.7)" />
<use xlink:href="#f0_b" transform="matrix(12,0,0,12,328.9,962.7)" />
<use xlink:href="#f0_g" transform="matrix(12,0,0,12,340.1,962.7)" />
<use xlink:href="#f0_l" transform="matrix(12,0,0,12,351.7,962.7)" />
<use xlink:href="#f0_3" transform="matrix(12,0,0,12,65.8,984.5)" />
<use xlink:href="#f0_1q" transform="matrix(12,0,0,12,77.3,984.5)" />
<use xlink:href="#f0_4" transform="matrix(12,0,0,12,89.1,984.5)" />
<use xlink:href="#f1_w" transform="matrix(12,0,0,12,100.8,984.5)" />
<use xlink:href="#f1_6" transform="matrix(12,0,0,12,119,984.5)" />
<use xlink:href="#f1_5" transform="matrix(12,0,0,12,131.4,984.5)" />
<use xlink:href="#f1_o" transform="matrix(12,0,0,12,140.4,984.5)" />
<use xlink:href="#f1_6" transform="matrix(12,0,0,12,159.3,984.5)" />
<use xlink:href="#f1_3" transform="matrix(12,0,0,12,171.7,984.5)" />
<use xlink:href="#f1_r" transform="matrix(12,0,0,12,191.1,984.5)" />
<use xlink:href="#f1_e" transform="matrix(12,0,0,12,206.2,984.5)" />
<use xlink:href="#f1_4" transform="matrix(12,0,0,12,218.6,984.5)" />
<use xlink:href="#f1_e" transform="matrix(12,0,0,12,227.3,984.5)" />
<use xlink:href="#f1_q" transform="matrix(12,0,0,12,246.1,984.5)" />
<use xlink:href="#f1_4" transform="matrix(12,0,0,12,259.3,984.5)" />
<use xlink:href="#f1_5" transform="matrix(12,0,0,12,267.9,984.5)" />
<use xlink:href="#f1_8" transform="matrix(12,0,0,12,276.9,984.5)" />
<use xlink:href="#f1_9" transform="matrix(12,0,0,12,289.9,984.5)" />
<use xlink:href="#f1_4" transform="matrix(12,0,0,12,300.7,984.5)" />
<use xlink:href="#f1_8" transform="matrix(12,0,0,12,309.4,984.5)" />
<use xlink:href="#f1_5" transform="matrix(12,0,0,12,322.4,984.5)" />
<use xlink:href="#f1_o" transform="matrix(12,0,0,12,331.4,984.5)" />
<use xlink:href="#f1_n" transform="matrix(12,0,0,12,343.8,984.5)" />
<use xlink:href="#f0_j" transform="matrix(12,0,0,12,120.8,1006.5)" />
<use xlink:href="#f0_i" transform="matrix(12,0,0,12,132.5,1006.5)" />
<use xlink:href="#f0_a" transform="matrix(12,0,0,12,139.6,1006.5)" />
<use xlink:href="#f0_f" transform="matrix(12,0,0,12,147.4,1006.5)" />
<use xlink:href="#f0_g" transform="matrix(12,0,0,12,152.5,1006.5)" />
<use xlink:href="#f0_c" transform="matrix(12,0,0,12,164.1,1006.5)" />
<use xlink:href="#f0_u" transform="matrix(12,0,0,12,181.6,1006.5)" />
<use xlink:href="#f0_o" transform="matrix(12,0,0,12,191.1,1006.5)" />
<use xlink:href="#f0_g" transform="matrix(12,0,0,12,202.7,1006.5)" />
<use xlink:href="#f0_k" transform="matrix(12,0,0,12,214.3,1006.5)" />
<use xlink:href="#f0_i" transform="matrix(12,0,0,12,224.5,1006.5)" />
<use xlink:href="#f0_f" transform="matrix(12,0,0,12,231.7,1006.5)" />
<use xlink:href="#f0_b" transform="matrix(12,0,0,12,236.8,1006.5)" />
<use xlink:href="#f0_g" transform="matrix(12,0,0,12,247.9,1006.5)" />
<use xlink:href="#f0_l" transform="matrix(12,0,0,12,259.5,1006.5)" />
<use xlink:href="#f0_11" transform="matrix(12,0,0,12,120.8,1028.5)" />
<use xlink:href="#f0_f" transform="matrix(12,0,0,12,131.1,1028.5)" />
<use xlink:href="#f0_l" transform="matrix(12,0,0,12,136.1,1028.5)" />
<use xlink:href="#f0_i" transform="matrix(12,0,0,12,145.7,1028.5)" />
<use xlink:href="#f0_u" transform="matrix(12,0,0,12,158.7,1028.5)" />
<use xlink:href="#f0_o" transform="matrix(12,0,0,12,168.2,1028.5)" />
<use xlink:href="#f0_g" transform="matrix(12,0,0,12,179.8,1028.5)" />
<use xlink:href="#f0_k" transform="matrix(12,0,0,12,191.4,1028.5)" />
<use xlink:href="#f0_i" transform="matrix(12,0,0,12,201.6,1028.5)" />
<use xlink:href="#f0_f" transform="matrix(12,0,0,12,208.8,1028.5)" />
<use xlink:href="#f0_b" transform="matrix(12,0,0,12,213.8,1028.5)" />
<use xlink:href="#f0_g" transform="matrix(12,0,0,12,225,1028.5)" />
<use xlink:href="#f0_l" transform="matrix(12,0,0,12,236.6,1028.5)" />
<use xlink:href="#f0_15" transform="matrix(12,0,0,12,120.8,1050.3)" />
<use xlink:href="#f0_f" transform="matrix(12,0,0,12,134.9,1050.3)" />
<use xlink:href="#f0_k" transform="matrix(12,0,0,12,140.1,1050.3)" />
<use xlink:href="#f0_i" transform="matrix(12,0,0,12,150.3,1050.3)" />
<use xlink:href="#f0_f" transform="matrix(12,0,0,12,157.5,1050.3)" />
<use xlink:href="#f0_b" transform="matrix(12,0,0,12,162.5,1050.3)" />
<use xlink:href="#f0_g" transform="matrix(12,0,0,12,173.7,1050.3)" />
<use xlink:href="#f0_d" transform="matrix(12,0,0,12,185.3,1050.3)" />
<use xlink:href="#f0_a" transform="matrix(12,0,0,12,196.6,1050.3)" />
<use xlink:href="#f0_8" transform="matrix(12,0,0,12,204.3,1050.3)" />
<use xlink:href="#f0_u" transform="matrix(12,0,0,12,221,1050.3)" />
<use xlink:href="#f0_o" transform="matrix(12,0,0,12,230.5,1050.3)" />
<use xlink:href="#f0_g" transform="matrix(12,0,0,12,242.1,1050.3)" />
<use xlink:href="#f0_k" transform="matrix(12,0,0,12,253.7,1050.3)" />
<use xlink:href="#f0_i" transform="matrix(12,0,0,12,263.9,1050.3)" />
<use xlink:href="#f0_f" transform="matrix(12,0,0,12,270.9,1050.3)" />
<use xlink:href="#f0_b" transform="matrix(12,0,0,12,276.1,1050.3)" />
<use xlink:href="#f0_g" transform="matrix(12,0,0,12,287.2,1050.3)" />
<use xlink:href="#f0_l" transform="matrix(12,0,0,12,298.8,1050.3)" />
</g>
</g>
<defs>
	<path d="M189.4,0l0,126.8l246,0l0,849.5L166.5,922.8l0,136l267.4,55l149.7,0l0,-987l246,0L829.6,0Z" 
	id="f0_3"
	transform="scale(0.001,-0.001)" />

	<path d="M161,0l0,189l158,0L319,0Z" 
	id="f0_4"
	transform="scale(0.001,-0.001)" />

	<path d="M139,0l0,1113l287,0L426,0Z" 
	id="f1_2"
	transform="scale(0.001,-0.001)" />

	<path d="M126.8,0l0,834.2l267.4,0l0,-122.3c0,0,61.1,73.4,128.3,108.5c0,0,68.8,35.2,149.7,35.2c0,0,145.2,0,220,-88.7c0,0,74.9,-90.1,74.9,-258.1L967.1,0L699.7,0l0,82.5l0,305.6c0,0,0,108.4,-4.6,149.7c0,0,-6.1,41.2,-18.3,61.1c0,0,-15.3,26,-41.2,39.7c0,0,-27.5,15.3,-62.7,15.3c0,0,-82.5,0,-129.8,-64.2c0,0,-48.9,-65.7,-48.9,-178.7l0,-411Z" 
	id="f1_3"
	transform="scale(0.001,-0.001)" />

	<path d="M443.1,0c0,0,-158.9,0,-224.6,65.7c0,0,-65.7,65.7,-65.7,223.1l0,354.4l-132.9,0l0,191l132.9,0l0,238.3l265.8,0l0,-238.3l276.5,0l0,-191l-276.5,0l0,-354.4c0,0,0,-58.1,22.9,-78c0,0,24.5,-21.4,93.2,-21.4l136,0L670.7,0Z" 
	id="f1_4"
	transform="scale(0.001,-0.001)" />

	<path d="M126.8,0l0,834.2l267.4,0l0,-136c0,0,51.9,81,117.6,119.2c0,0,67.2,38.2,160.4,38.2c0,0,13.8,0,29.1,-1.6c0,0,16.8,-1.5,45.8,-4.6l1.5,-242.9c0,0,-35.1,16.8,-70.3,24.5c0,0,-35.1,7.6,-70.2,7.6c0,0,-102.4,0,-157.4,-65.7c0,0,-56.5,-65.7,-56.5,-189.4L394.2,0Z" 
	id="f1_5"
	transform="scale(0.001,-0.001)" />

	<path d="M525.6,168.1c0,0,87,0,132.9,64.1c0,0,45.8,64.2,45.8,183.4c0,0,0,120.7,-45.8,184.8c0,0,-45.9,64.2,-132.9,64.2c0,0,-88.7,0,-134.5,-64.2c0,0,-47.3,-64.1,-47.3,-184.8c0,0,0,-119.2,45.8,-183.4c0,0,47.3,-64.1,136,-64.1Zm0,-189.4c0,0,-217,0,-339.2,116c0,0,-122.2,116.1,-122.2,320.9c0,0,0,206.2,122.2,322.3c0,0,122.2,117.7,339.2,117.7c0,0,215.4,0,336.1,-116.2c0,0,122.2,-117.6,122.2,-323.8c0,0,0,-204.8,-120.7,-320.9c0,0,-122.2,-116,-337.6,-116Z" 
	id="f1_6"
	transform="scale(0.001,-0.001)" />

	<path d="M519.4,171.1c0,0,85.6,0,131.4,62.7c0,0,45.9,62.6,45.9,181.8c0,0,0,120.7,-45.9,183.3c0,0,-45.8,62.6,-131.4,62.6c0,0,-84,0,-128.3,-62.6c0,0,-45.8,-62.6,-45.8,-183.3c0,0,0,-119.2,44.3,-181.8c0,0,45.8,-62.7,129.8,-62.7ZM420.1,-21.3c0,0,-154.3,0,-253.6,122.1c0,0,-99.3,122.3,-99.3,314.8c0,0,0,194,99.3,316.2c0,0,99.3,123.8,253.6,123.8c0,0,87.1,0,152.8,-35.2c0,0,67.2,-35.1,123.8,-108.5l0,447.7l267.3,0L964,0L696.7,0l0,120.7c0,0,-56.6,-74.9,-122.3,-108.5c0,0,-65.6,-33.5,-154.3,-33.5Z" 
	id="f1_7"
	transform="scale(0.001,-0.001)" />

	<path d="M414,-21.3c0,0,-143.6,0,-218.4,88.5c0,0,-76.4,88.6,-76.4,256.7l0,510.3l267.3,0l0,-82.5c0,0,0,-68.8,0,-171.1c0,0,-1.5,-102.4,-1.5,-136c0,0,0,-100.8,4.6,-145.2c0,0,6.1,-45.8,19.8,-65.6c0,0,15.3,-26,41.3,-39.8c0,0,27.5,-13.7,61.1,-13.7c0,0,84,0,131.4,64.1c0,0,48.9,64.2,48.9,177.3l0,412.5l265.8,0L957.9,0L692.1,0l0,120.7c0,0,-61.1,-73.3,-128.3,-106.9c0,0,-67.3,-35.1,-149.8,-35.1Z" 
	id="f1_8"
	transform="scale(0.001,-0.001)" />

	<path d="M545.4,-21.3c0,0,-226.1,0,-352.9,114.5c0,0,-128.3,116.1,-128.3,322.4c0,0,0,207.7,126.8,323.8c0,0,128.3,116.2,354.4,116.2c0,0,65.7,0,129.9,-12.3c0,0,64.1,-12.2,126.8,-35.1l0,-216.9c0,0,-53.5,36.6,-108.5,55c0,0,-55,18.3,-114.6,18.3c0,0,-111.5,0,-172.6,-65.7c0,0,-62.6,-65.7,-62.6,-183.3c0,0,0,-116.2,61.1,-181.8c0,0,62.6,-65.7,174.1,-65.7c0,0,62.7,0,119.2,18.3c0,0,56.5,19.9,103.9,56.5l0,-218.5c0,0,-62.7,-24.4,-126.8,-35c0,0,-64.2,-10.7,-129.9,-10.7Z" 
	id="f1_9"
	transform="scale(0.001,-0.001)" />

	<path d="M126,0l0,834l268,0L394,0Zm0,942l0,217l268,0l0,-217Z" 
	id="f1_a"
	transform="scale(0.001,-0.001)" />

	<path d="M585.1,594.3c0,0,84.1,0,129.9,39.7c0,0,45.8,41.3,45.8,116.1c0,0,0,74.9,-45.8,114.6c0,0,-45.8,39.7,-129.9,39.7l-158.8,0l0,-310.1ZM139,0l0,1113.8l476.7,0c0,0,212.4,0,325.4,-94.8c0,0,114.6,-94.7,114.6,-268.9c0,0,0,-175.7,-113.1,-270.4c0,0,-114.5,-94.7,-326.9,-94.7l-189.4,0l0,-385Z" 
	id="f1_c"
	transform="scale(0.001,-0.001)" />

	<path d="M519.4,192.5c0,0,84.1,0,129.9,61.1c0,0,47.4,62.7,47.4,172.7c0,0,0,113,-45.9,174.1c0,0,-47.3,61.1,-131.4,61.1c0,0,-82.5,0,-128.3,-61.1c0,0,-45.8,-61.1,-45.8,-174.1c0,0,0,-114.6,44.3,-174.2c0,0,44.3,-59.6,129.8,-59.6ZM469,-328.4c0,0,-79.4,0,-151.2,10.7c0,0,-73.4,12.2,-148.2,36.7l0,209.3c0,0,70.3,-41.3,137.5,-61.1c0,0,67.2,-19.9,136,-19.9c0,0,129.8,0,190.9,58.1c0,0,62.7,58,62.7,178.6l0,56.6c0,0,-56.6,-73.4,-122.3,-107C574.4,33.6,508.8,0,420.1,0c0,0,-152.7,0,-252,119.2c0,0,-100.9,120.7,-100.9,307.1c0,0,0,187.9,99.3,307c0,0,100.9,120.7,253.6,120.7c0,0,88.7,0,154.3,-33.6c0,0,65.7,-35.1,122.3,-110l0,123.8l267.3,0L964,84c0,0,0,-200,-126.8,-305.4c0,0,-126.8,-107,-368.2,-107Z" 
	id="f1_d"
	transform="scale(0.001,-0.001)" />

	<path d="M462.9,155.8c0,0,74.9,0,125.3,53.5c0,0,51.9,53.5,51.9,136l0,30.5l-137.5,0c0,0,-84,0,-125.2,-29c0,0,-42.8,-29,-42.8,-84c0,0,0,-50.4,33.6,-77.9c0,0,33.6,-29.1,94.7,-29.1ZM356,-21.3c0,0,-129.9,0,-210.9,74.8c0,0,-80.9,74.8,-80.9,197.1c0,0,0,146.6,100.8,215.4c0,0,102.4,68.7,317.8,68.7l157.3,0l0,19.9c0,0,0,64.2,-48.8,93.2c0,0,-50.5,29,-155.9,29c0,0,-85.5,0,-158.9,-16.8c0,0,-74.8,-16.8,-139,-51.9l0,204.7c0,0,85.6,19.8,172.6,30.5c0,0,87.1,12.3,172.7,12.3c0,0,226.1,0,326.9,-88.7c0,0,100.9,-90.1,100.9,-290.2L910.6,0L640.1,0l0,123.8c0,0,-53.4,-76.4,-120.7,-110c0,0,-67.2,-35.1,-163.4,-35.1Z" 
	id="f1_e"
	transform="scale(0.001,-0.001)" />

	<path d="M126.8,0l0,834.2l267.4,0l0,-122.3c0,0,50.4,71.9,113,107c0,0,64.2,36.7,140.6,36.7c0,0,87.1,0,152.8,-41.3c0,0,67.2,-42.8,100.8,-117.6c0,0,51.9,76.4,120.7,117.6c0,0,70.3,41.3,154.3,41.3c0,0,143.6,0,218.5,-88.7c0,0,74.8,-90.1,74.8,-258.1L1469.7,0L1202.4,0l0,435.4c0,0,0,9.2,0,19.9c0,0,1.5,10.7,1.5,29c0,0,0,88.6,-26,128.3c0,0,-27.5,41.3,-85.5,41.3c0,0,-74.9,0,-116.1,-62.6c0,0,-42.8,-62.7,-44.4,-181.9L931.9,0L664.6,0l0,435.4c0,0,0,137.5,-24.5,177.2c0,0,-24.4,41.3,-85.5,41.3c0,0,-76.4,0,-117.7,-62.6c0,0,-42.7,-64.2,-42.7,-180.3l0,-411Z" 
	id="f1_f"
	transform="scale(0.001,-0.001)" />

	<path d="M328.5,0L50.4,1113.8l151.3,0L436.9,171.1l232.3,942.7l169.6,0L1074,171.1l232.3,942.7l154.3,0L1179.4,0L990,0L756.3,965.6L517.9,0Z" 
	id="f0_6"
	transform="scale(0.001,-0.001)" />

	<path d="M137.5,0l0,1159.6l139,0l0,-455.3c0,0,48.9,76.4,114.6,113.1c0,0,67.2,38.2,154.3,38.2c0,0,145.2,0,218.5,-88.7c0,0,73.3,-90.1,73.3,-262.7L837.2,0L699.7,0l0,499.6c0,0,0,117.6,-45.8,175.7c0,0,-45.8,59.6,-139,59.6c0,0,-110,0,-174.2,-70.3c0,0,-64.2,-70.3,-64.2,-192.5L276.5,0Z" 
	id="f0_7"
	transform="scale(0.001,-0.001)" />

	<path d="M120.7,-317.7l0,116.1l79.4,0c0,0,56.6,0,87.1,26c0,0,32.1,27.5,70.3,126.8l24.4,61L44.3,834.2l145.1,0L450.7,181.8L711.9,834.2l146.7,0L490.4,-76.3c0,0,-58,-149.7,-113,-195.5c0,0,-55,-45.9,-148.2,-45.9Z" 
	id="f0_8"
	transform="scale(0.001,-0.001)" />

	<path d="M488.9,571.4c0,0,105.4,0,161.9,53.5c0,0,58.1,55,58.1,155.8c0,0,0,99.3,-56.5,152.8c0,0,-58.1,55,-163.5,55l-189.5,0l0,-417.1ZM149.7,0l0,1113.8l339.2,0c0,0,187.9,0,282.6,-84.1c0,0,96.3,-85.5,96.3,-249c0,0,0,-165,-94.7,-249c0,0,-96.3,-85.6,-284.2,-85.6l-189.5,0L299.4,0Z" 
	id="f0_9"
	transform="scale(0.001,-0.001)" />

	<path d="M137.5,0l0,834.2l139,0l0,-129.9c0,0,42.8,76.4,111.6,113.1c0,0,70.2,38.2,169.5,38.2c0,0,13.8,0,30.6,-1.6c0,0,16.8,-3,38.2,-6.1l1.5,-142.1c0,0,-24.4,13.8,-50.4,19.9c0,0,-27.5,6.1,-61.1,6.1c0,0,-116.1,0,-177.2,-74.9c0,0,-62.7,-76.3,-62.7,-216.9l0,-440Z" 
	id="f0_a"
	transform="scale(0.001,-0.001)" />

	<path d="M467.5,94.7c0,0,108.5,0,172.6,85.6c0,0,64.2,87.1,64.2,235.3c0,0,0,149.7,-64.2,235.2c0,0,-64.1,87.1,-172.6,87.1c0,0,-111.5,0,-175.7,-85.5c0,0,-64.2,-85.6,-64.2,-236.8c0,0,0,-149.8,64.2,-235.3c0,0,64.2,-85.6,175.7,-85.6Zm0,-116c0,0,-180.3,0,-281.1,116C186.4,94.7,84,210.8,84,415.6c0,0,0,206.2,100.9,322.3c0,0,102.3,117.7,282.6,117.7c0,0,178.8,0,281.1,-116.2c0,0,102.4,-117.6,102.4,-323.8c0,0,0,-204.8,-102.4,-320.9c0,0,-102.3,-116,-281.1,-116Z" 
	id="f0_b"
	transform="scale(0.001,-0.001)" />

	<path d="M458.3,114.6c0,0,111.6,0,172.7,81c0,0,62.6,82.5,62.6,230.7c0,0,0,149.7,-61.1,230.6c0,0,-62.6,82.5,-174.2,82.5c0,0,-110,0,-171.1,-80.9c0,0,-62.6,-82.5,-62.6,-232.2c0,0,0,-148.2,61.1,-229.2c0,0,62.6,-82.5,172.6,-82.5ZM444.6,-317.7c0,0,-71.8,0,-136,10.7c0,0,-64.2,12.2,-123.7,33.6l0,134.5c0,0,59.5,-33.6,117.6,-48.9c0,0,59.6,-15.3,120.7,-15.3c0,0,136,0,203.2,70.3c0,0,67.2,70.3,67.2,210.7l0,68.8c0,0,-42.8,-74.9,-108.5,-110C585.1,36.7,517.9,0,424.7,0c0,0,-152.8,0,-245.9,116.1c0,0,-94.8,117.7,-94.8,310.2c0,0,0,194,93.2,311.6c0,0,94.7,117.7,247.5,117.7c0,0,93.2,0,158.9,-36.7c0,0,67.2,-36.7,110,-111.5l0,126.8l136,0l0,-731.8c0,0,0,-210.8,-94.7,-314.7c0,0,-94.8,-105.4,-290.3,-105.4Z" 
	id="f0_c"
	transform="scale(0.001,-0.001)" />

	<path d="M407.9,93.2c0,0,113.1,0,181.8,79.4c0,0,70.3,81,70.3,215.5l0,30.5l-137.5,0c0,0,-166.5,0,-230.7,-36.7c0,0,-64.2,-38.1,-64.2,-129.8c0,0,0,-73.3,47.4,-116.1c0,0,48.9,-42.8,132.9,-42.8ZM371.3,-21.3c0,0,-128.4,0,-203.2,71.7c0,0,-76.4,71.8,-76.4,192.5c0,0,0,140.6,93.2,212.4c0,0,94.7,71.8,282.6,71.8l192.5,0l0,13.7c0,0,0,94.8,-62.6,145.2c0,0,-62.7,51.9,-175.7,51.9c0,0,-71.8,0,-139.1,-16.8c0,0,-67.2,-16.8,-129.8,-51.9l0,126.8c0,0,74.8,30.5,145.1,44.3c0,0,71.8,15.3,139,15.3c0,0,180.3,0,268.9,-93.2c0,0,90.2,-94.8,90.2,-285.7L796,0L660,0l0,126.8c0,0,-47.4,-76.4,-117.6,-111.5c0,0,-70.3,-36.6,-171.1,-36.6Z" 
	id="f0_d"
	transform="scale(0.001,-0.001)" />

	<path d="M137.5,0l0,834.2l139,0l0,-129.9c0,0,45.9,77.9,111.6,114.6c0,0,65.7,36.7,155.8,36.7c0,0,91.7,0,154.3,-45.9c0,0,64.2,-47.3,96.2,-135.9c0,0,50.5,93.1,122.3,137.5c0,0,71.8,44.3,168,44.3c0,0,131.4,0,201.7,-91.7c0,0,71.8,-91.7,71.8,-259.7L1358.2,0l-139,0l0,499.6c0,0,0,119.2,-41.3,177.2c0,0,-42.8,58.1,-129.8,58.1c0,0,-107,0,-168.1,-70.3c0,0,-62.6,-70.3,-62.6,-192.5L817.4,0L678.3,0l0,499.6c0,0,0,120.7,-41.2,177.2c0,0,-42.8,58.1,-131.4,58.1c0,0,-105.4,0,-166.5,-70.3c0,0,-62.7,-71.8,-62.7,-192.5L276.5,0Z" 
	id="f0_e"
	transform="scale(0.001,-0.001)" />

	<path d="M143,0l0,834l138,0L281,0Zm0,985l0,174l138,0l0,-174Z" 
	id="f0_f"
	transform="scale(0.001,-0.001)" />

	<path d="M137.5,0l0,834.2l139,0l0,-129.9c0,0,48.9,76.4,114.6,113.1c0,0,67.2,38.2,154.3,38.2c0,0,145.2,0,218.5,-88.7c0,0,73.3,-90.1,73.3,-262.7L837.2,0L699.7,0l0,499.6c0,0,0,117.6,-45.8,175.7c0,0,-45.8,59.6,-139,59.6c0,0,-110,0,-174.2,-70.3c0,0,-64.2,-70.3,-64.2,-192.5L276.5,0Z" 
	id="f0_g"
	transform="scale(0.001,-0.001)" />

	<path d="M282.6,0L62.6,834.2l137.5,0L372.8,183.3L542.4,834.2l161.9,0L876.9,183.3l171.2,650.9l135.9,0L965.6,0l-162,0L624.9,684.4L444.6,0Z" 
	id="f0_h"
	transform="scale(0.001,-0.001)" />

	<path d="M420.1,0c0,0,-158.8,0,-218.4,58.1c0,0,-61.1,59.5,-61.1,216.9l0,453.8l-100.9,0l0,105.4l100.9,0l0,238.3l139,0l0,-238.3l282.6,0l0,-105.4l-282.6,0l0,-453.8c0,0,0,-102.4,27.5,-131.4c0,0,27.5,-29,113,-29l142.1,0L562.2,0Z" 
	id="f0_i"
	transform="scale(0.001,-0.001)" />

	<path d="M456.8,-21.3c0,0,-77.9,0,-166.5,16.8c0,0,-90.2,18.3,-186.4,53.4l0,154.3c0,0,91.7,-50.4,180.3,-76.4c0,0,88.6,-27.5,172.6,-27.5c0,0,129.9,0,200.1,50.4c0,0,70.3,52,70.3,145.2c0,0,0,82.5,-50.4,128.3c0,0,-50.4,47.4,-166.5,70.3l-91.7,16.8c0,0,-168,33.6,-242.9,105.4c0,0,-76.4,71.8,-76.4,200.1c0,0,0,146.7,103.9,232.3c0,0,105.4,85.5,287.2,85.5c0,0,79.5,0,160.4,-13.7c0,0,81,-15.3,166.6,-42.8l0,-148.2c0,0,-85.6,41.2,-162,61.1c0,0,-76.4,21.4,-146.6,21.4c0,0,-123.8,0,-189.5,-47.4c0,0,-67.2,-48.9,-67.2,-137.5c0,0,0,-73.3,44.3,-110c0,0,44.3,-38.2,168,-61.1l90.2,-19.8c0,0,169.6,-32.1,249,-111.6c0,0,81,-80.9,81,-216.9c0,0,0,-162,-108.5,-244.5c0,0,-108.5,-83.9,-319.3,-83.9Z" 
	id="f0_j"
	transform="scale(0.001,-0.001)" />

	<path d="M495,-21.3c0,0,-189.4,0,-299.4,117.6C195.6,96.3,84,215.4,84,415.6c0,0,0,204.7,111.6,322.3c0,0,113,117.7,308.6,117.7c0,0,62.6,0,122.2,-13.8c0,0,61.1,-13.7,117.6,-39.7l0,-128.3c0,0,-58,32,-116.1,47.3c0,0,-58,16.8,-119.1,16.8c0,0,-133,0,-206.3,-84c0,0,-74.9,-84,-74.9,-238.3c0,0,0,-152.8,73.4,-236.8c0,0,74.8,-84.1,207.8,-84.1c0,0,61.1,0,119.1,15.3c0,0,58.1,16.8,116.1,48.9L744,30.6c0,0,-56.5,-26,-117.6,-38.1c0,0,-62.6,-13.8,-131.4,-13.8Z" 
	id="f0_k"
	transform="scale(0.001,-0.001)" />

	<path d="M375.8,-21.3c0,0,-67.2,0,-140.5,12.2c0,0,-73.4,12.2,-152.8,39.7l0,140.5c0,0,76.4,-39.7,149.7,-58c0,0,73.4,-19.9,146.7,-19.9c0,0,96.2,0,148.2,32.1c0,0,51.9,33.6,51.9,94.7c0,0,0,55,-36.6,84c0,0,-38.2,30.6,-165,58.1l-48.9,12.2c0,0,-126.8,26,-183.4,81c0,0,-56.5,56.5,-56.5,152.8c0,0,0,119.1,82.5,183.3c0,0,84,64.2,238.3,64.2c0,0,74.9,0,142.1,-10.7c0,0,67.3,-12.3,123.8,-35.2l0,-129.8c0,0,-58.1,30.5,-120.7,44.3c0,0,-62.7,15.2,-129.9,15.2c0,0,-102.3,0,-152.8,-30.5c0,0,-50.4,-32.1,-50.4,-94.7c0,0,0,-47.4,35.2,-74.9c0,0,36.6,-27.5,148.2,-51.9l45.8,-10.7c0,0,146.7,-30.6,207.8,-87.1c0,0,62.6,-58.1,62.6,-160.4c0,0,0,-116.1,-91.7,-183.4c0,0,-93.1,-67.1,-253.6,-67.1Z" 
	id="f0_l"
	transform="scale(0.001,-0.001)" />

	<path d="M629.4,-21.3c0,0,-253.6,0,-398.7,154.2c0,0,-145.1,154.3,-145.1,421.7c0,0,0,268.9,145.1,423.2c0,0,145.1,155.8,398.7,155.8c0,0,99.4,0,188,-26c0,0,88.6,-27.5,166.5,-80.9l0,-158.9c0,0,-76.4,71.8,-162,106.9c0,0,-87,35.2,-184.8,35.2c0,0,-191,0,-291.8,-116.1c0,0,-100.9,-117.7,-100.9,-339.2c0,0,0,-220,100.9,-336.1c0,0,100.8,-117.7,291.8,-117.7c0,0,97.8,0,183.3,35.2c0,0,87.1,35.1,163.5,106.9l0,-157.3c0,0,-79.5,-55,-168.1,-81c0,0,-88.6,-25.9,-186.4,-25.9Z" 
	id="f0_m"
	transform="scale(0.001,-0.001)" />

	<path d="M508.8,93.2c0,0,110,0,171.1,85.6c0,0,62.6,85.5,62.6,236.8c0,0,0,152.7,-61.1,238.3c0,0,-62.6,85.5,-172.6,85.5c0,0,-108.5,0,-169.6,-85.5c0,0,-62.7,-85.6,-62.7,-238.3c0,0,0,-151.3,61.1,-236.8c0,0,62.7,-85.6,171.2,-85.6ZM137.5,-317.7l0,1151.9l139,0l0,-126.8c0,0,42.8,74.8,108.5,111.5c0,0,65.7,36.7,157.4,36.7c0,0,152.7,0,247.5,-120.7c0,0,96.2,-122.3,96.2,-319.3c0,0,0,-195.6,-94.7,-316.3c0,0,-96.3,-120.6,-249,-120.6c0,0,-91.7,0,-157.4,35.1c0,0,-65.7,36.6,-108.5,111.5l0,-443Z" 
	id="f0_n"
	transform="scale(0.001,-0.001)" />

	<path d="M421.7,-21.3c0,0,-143.6,0,-218.5,88.5L128.3,328.5l0,505.7l137.5,0l0,-499.6c0,0,0,-119.2,45.9,-178.8c0,0,47.3,-59.5,139,-59.5c0,0,111.5,0,175.7,70.2c0,0,65.7,71.8,65.7,194.1l0,473.6l136,0L828.1,0l-136,0l0,126.8c0,0,-50.4,-74.9,-116.1,-111.5c0,0,-67.2,-36.6,-154.3,-36.6Z" 
	id="f0_o"
	transform="scale(0.001,-0.001)" />

	<path d="M230.7,490.4l490.4,1.5c0,0,-1.5,111.6,-62.6,178.8c0,0,-62.7,67.2,-163.5,67.2c0,0,-114.6,0,-183.3,-64.1c0,0,-70.3,-65.7,-81,-183.4ZM516.4,-21.3c0,0,-198.6,0,-314.7,116C201.7,94.7,84,210.8,84,409.4c0,0,0,204.8,110,325.5c0,0,111.6,120.7,299.5,120.7c0,0,168,0,265.8,-108.5c0,0,99.3,-110,99.3,-296.4l0,-67.2l-632.5,0c0,0,9.2,-140.6,85.6,-213.9c0,0,76.4,-74.9,213.9,-74.9c0,0,77.9,0,152.7,18.4c0,0,74.9,19.8,148.2,58l0,-129.8c0,0,-74.8,-30.6,-151.2,-45.8c0,0,-77.9,-16.8,-158.9,-16.8Z" 
	id="f0_p"
	transform="scale(0.001,-0.001)" />

	<path d="M290.3,0l0,189.4l152.8,0L443.1,0Zm4.6,297.9l0,114.6c0,0,0,76.4,21.4,123.8c0,0,21.3,48.8,88.6,113l67.2,67.2c0,0,41.2,39.8,59.6,74.9c0,0,19.8,35.1,19.8,70.3c0,0,0,67.2,-48.9,108.4c0,0,-48.8,41.3,-128.3,41.3c0,0,-59.6,0,-125.3,-26c0,0,-67.2,-27.5,-140.5,-76.4l0,140.6c0,0,70.3,41.2,142.1,62.6c0,0,71.8,21.4,149.7,21.4c0,0,137.5,0,220,-71.8c0,0,82.5,-73.3,82.5,-192.5c0,0,0,-56.5,-26,-106.9c0,0,-27.5,-52,-94.7,-116.1L516.4,582.1c0,0,-35.1,-35.2,-48.9,-53.5c0,0,-15.3,-19.8,-21.4,-39.7c0,0,-3,-15.3,-4.6,-36.7c0,0,-3,-22.9,-3,-62.6l0,-91.7Z" 
	id="f0_q"
	transform="scale(0.001,-0.001)" />

	<path d="M111.5,0l0,126.8c0,0,85.6,88.6,233.8,236.8c0,0,148.2,149.7,186.4,194c0,0,71.8,81,100.8,137.5c0,0,29,56.6,29,110c0,0,0,88.7,-62.6,145.2c0,0,-62.6,56.5,-162,56.5c0,0,-71.8,0,-149.7,-24.4c0,0,-79.4,-26,-168,-74.9l0,151.3c0,0,90.1,36.6,169.6,55c0,0,79.4,19.8,145.1,19.8c0,0,172.6,0,275,-87.1c0,0,103.9,-87.1,103.9,-230.7c0,0,0,-68.7,-26,-129.8c0,0,-26,-62.7,-93.2,-145.2c0,0,-19.8,-22.9,-119.2,-125.2c0,0,-99.3,-103.9,-282.6,-288.8l527.1,0L818.9,0Z" 
	id="f0_r"
	transform="scale(0.001,-0.001)" />

	<path d="M742.5,409.4L591.3,852.5L438.5,409.4ZM6.1,0L418.6,1113.8l343.8,0L1174.9,0L886.1,0L815.8,201.7l-449.1,0L294.9,0Z" 
	id="f1_g"
	transform="scale(0.001,-0.001)" />

	<path d="M126,0l0,1159l268,0L394,0Z" 
	id="f1_h"
	transform="scale(0.001,-0.001)" />

	<path d="M126.8,0l0,1159.6l267.4,0l0,-447.7c0,0,61.1,73.4,128.3,108.5c0,0,68.8,35.2,149.7,35.2c0,0,145.2,0,220,-88.7c0,0,74.9,-90.1,74.9,-258.1L967.1,0L699.7,0l0,82.5l0,304c0,0,0,110,-4.6,151.3c0,0,-6.1,41.2,-18.3,61.1c0,0,-15.3,26,-41.2,39.7c0,0,-27.5,15.3,-62.7,15.3c0,0,-82.5,0,-129.8,-64.2c0,0,-48.9,-65.7,-48.9,-178.7l0,-411Z" 
	id="f1_i"
	transform="scale(0.001,-0.001)" />

	<path d="M81,-216.8L155.8,61.1l0,226.1l267.4,0l0,-226.1L239.9,-216.8Z" 
	id="f1_j"
	transform="scale(0.001,-0.001)" />

	<path d="M139,0l0,1113l776,0l0,-218l-489,0l0,-206l460,0l0,-217l-460,0L426,0Z" 
	id="f1_k"
	transform="scale(0.001,-0.001)" />

	<path d="M273.5,0L53.5,834.2l259.7,0l139,-576l142.1,576l223.1,0l139,-569.9l142.1,569.9l259.7,0L1138.2,0L846.4,0L704.3,572.9L565.3,0Z" 
	id="f1_l"
	transform="scale(0.001,-0.001)" />

	<path d="M678.3,-21.3c0,0,-278,0,-440,154.2c0,0,-163.4,155.9,-163.4,421.7c0,0,0,267.3,161.9,423.2c0,0,163.5,155.8,441.5,155.8c0,0,93.2,0,178.8,-21.4c0,0,87.1,-21.4,165,-62.6l0,-229.2c0,0,-79.5,53.5,-155.8,77.9c0,0,-78,26,-165,26c0,0,-152.8,0,-239.9,-97.8c0,0,-88.6,-97.7,-88.6,-271.9c0,0,0,-172.7,87.1,-270.4c0,0,88.6,-97.8,241.4,-97.8c0,0,87,0,163.4,24.4c0,0,77.9,26,157.4,79.5l0,-229.2c0,0,-77.9,-41.2,-163.5,-61.1c0,0,-87.1,-21.3,-180.3,-21.3Z" 
	id="f1_m"
	transform="scale(0.001,-0.001)" />

	<path d="M444.6,-21.3c0,0,-84,0,-171.1,12.2c0,0,-88.6,12.2,-181.8,39.7l0,201.6c0,0,79.4,-38.2,163.4,-56.5c0,0,84.1,-19.9,169.6,-19.9c0,0,79.5,0,117.7,21.4c0,0,39.7,21.4,39.7,64.2c0,0,0,35.1,-26,51.9c0,0,-27.5,18.4,-110,27.5l-45.8,6.1c0,0,-178.8,23,-250.6,82.5c0,0,-71.8,61.2,-71.8,184.9c0,0,0,132.9,90.2,197.1c0,0,91.6,64.2,279.5,64.2c0,0,74.9,0,155.9,-10.7c0,0,80.9,-12.3,177.2,-36.7l0,-203.2c0,0,-85.6,36.7,-165,53.5c0,0,-81,18.3,-151.3,18.3c0,0,-76.3,0,-113,-18.3c0,0,-36.7,-19.9,-36.7,-58.1c0,0,0,-32.1,27.5,-48.9c0,0,27.5,-18.3,100.9,-25.9l45.8,-7.7c0,0,206.2,-26,276.5,-85.5c0,0,70.3,-59.6,70.3,-186.4c0,0,0,-134.5,-97.8,-200.2c0,0,-99.3,-67.1,-293.3,-67.1Z" 
	id="f1_n"
	transform="scale(0.001,-0.001)" />

	<path d="M687.5,508.8c0,0,0,74.8,-44.3,120.6c0,0,-44.3,47.4,-116.1,47.4c0,0,-77.9,0,-126.8,-42.8c0,0,-48.9,-44.3,-59.6,-125.2ZM542.4,-21.3c0,0,-226.1,0,-351.4,114.5c0,0,-126.8,114.6,-126.8,322.4c0,0,0,204.7,123.7,322.3c0,0,123.8,117.7,340.7,117.7c0,0,197.1,0,314.7,-119.2c0,0,117.7,-119.2,117.7,-317.8l0,-74.8l-623.4,0c0,0,9.2,-94.8,67.3,-140.6c0,0,58,-47.4,163.4,-47.4c0,0,84.1,0,171.1,24.5c0,0,88.7,24.4,183.4,74.8l0,-204.7c0,0,-96.3,-36.6,-191,-53.4c0,0,-94.7,-18.3,-189.4,-18.3Z" 
	id="f1_o"
	transform="scale(0.001,-0.001)" />

	<path d="M727.2,411L521,964L317.8,411ZM10.7,0L436.9,1113.8l169.6,0L1031.3,0L875.4,0L773.1,285.7l-501.2,0L169.6,0Z" 
	id="f0_s"
	transform="scale(0.001,-0.001)" />

	<path d="M143,0l0,1159l138,0L281,0Z" 
	id="f0_t"
	transform="scale(0.001,-0.001)" />

	<path d="M149,0l0,1113l640,0l0,-128l-490,0l0,-327l441,0l0,-127l-441,0L299,0Z" 
	id="f0_u"
	transform="scale(0.001,-0.001)" />

	<path d="M436.9,0L10.7,1113.8l157.4,0L521,175.7l354.4,938.1l155.9,0L606.5,0Z" 
	id="f0_v"
	transform="scale(0.001,-0.001)" />

	<path d="M389,0l0,985L-3,985l0,128l939,0l0,-128l-396,0L540,0Z" 
	id="f0_w"
	transform="scale(0.001,-0.001)" />

	<path d="M178,0l0,189l158,0L336,0Zm0,600l0,189l158,0l0,-189Z" 
	id="f0_x"
	transform="scale(0.001,-0.001)" />

	<path d="M488.9,594.3c0,0,110,0,165,50.4c0,0,55,50.4,55,148.2c0,0,0,97.8,-55,146.7c0,0,-55,48.9,-165,48.9l-189.5,0l0,-394.2ZM149.7,0l0,1113.8l339.2,0c0,0,191,0,284.2,-79.5c0,0,94.7,-81,94.7,-241.4c0,0,0,-105.4,-48.9,-174.1c0,0,-48.9,-70.3,-142.1,-97.8c0,0,48.9,-15.3,94.7,-68.8c0,0,45.9,-55,91.7,-148.2L1017.5,0L855.6,0L711.9,285.7c0,0,-55,111.5,-106.9,148.2c0,0,-51.9,36.7,-140.6,36.7l-165,0L299.4,0Z" 
	id="f0_y"
	transform="scale(0.001,-0.001)" />

	<path d="M458.3,93.2c0,0,110,0,172.7,85.6c0,0,62.6,85.5,62.6,236.8c0,0,0,152.7,-62.6,238.3c0,0,-62.7,85.5,-172.7,85.5c0,0,-108.4,0,-171.1,-85.5c0,0,-62.6,-85.6,-62.6,-238.3c0,0,0,-151.3,62.6,-236.8c0,0,62.7,-85.6,171.1,-85.6ZM424.7,-21.3c0,0,-151.2,0,-245.9,120.6C178.8,99.3,84,220,84,415.6c0,0,0,197,94.8,317.7c0,0,94.7,122.3,245.9,122.3c0,0,93.2,0,158.9,-36.7c0,0,65.7,-36.7,110,-111.5l0,452.2l136,0L829.6,0l-136,0l0,125.3c0,0,-44.3,-74.9,-110,-110c0,0,-65.7,-36.6,-158.9,-36.6Z" 
	id="f0_z"
	transform="scale(0.001,-0.001)" />

	<path d="M412.5,-21.3c0,0,-68.7,0,-143.6,12.2c0,0,-74.9,13.7,-152.8,41.2l0,146.7c0,0,62.7,-36.7,136,-55c0,0,74.8,-19.9,157.3,-19.9c0,0,140.6,0,215.5,56.5c0,0,74.8,56.5,74.8,162c0,0,0,99.3,-68.7,154.3c0,0,-70.3,56.5,-192.5,56.5l-129.9,0l0,123.7l136,0c0,0,110,0,168,44.4c0,0,59.6,44.3,59.6,126.8c0,0,0,87,-59.6,132.9c0,0,-61.1,45.8,-174.1,45.8c0,0,-62.7,0,-132.9,-13.7c0,0,-71.8,-13.8,-155.9,-41.3l0,132.9c0,0,85.6,24.5,160.4,36.7c0,0,74.9,12.2,140.6,12.2c0,0,172.6,0,271.9,-77.9c0,0,100.9,-77.9,100.9,-210.8c0,0,0,-93.2,-53.5,-155.9c0,0,-53.5,-64.1,-151.2,-88.6c0,0,108.4,-24.4,169.5,-96.2c0,0,61.1,-73.4,61.1,-181.8c0,0,0,-163.5,-113,-253.6c0,0,-114.6,-90.1,-323.9,-90.1Z" 
	id="f0_10"
	transform="scale(0.001,-0.001)" />

	<path d="M152.8,-328.4l0,174.2l82.5,0c0,0,68.7,0,99.3,21.4c0,0,30.5,22.9,47.3,77.9l7.7,24.4L18.3,834.2l267.4,0L508.8,267.4L699.7,834.2l267.4,0L615.7,-77.8c0,0,-51.9,-140.6,-122.2,-195.6c0,0,-71.8,-55,-186.4,-55Z" 
	id="f1_p"
	transform="scale(0.001,-0.001)" />

	<path d="M149,0l0,1113l150,0l0,-987l542,0L841,0Z" 
	id="f0_11"
	transform="scale(0.001,-0.001)" />

	<path d="M73,363l0,109l616,0l0,-109Z" 
	id="f0_12"
	transform="scale(0.001,-0.001)" />

	<path d="M149,0l0,1113l150,0L299,0Z" 
	id="f0_13"
	transform="scale(0.001,-0.001)" />

	<path d="M508.8,93.2c0,0,110,0,171.1,85.6c0,0,62.6,85.5,62.6,236.8c0,0,0,152.7,-61.1,238.3c0,0,-62.6,85.5,-172.6,85.5c0,0,-108.5,0,-169.6,-85.5c0,0,-62.7,-85.6,-62.7,-238.3c0,0,0,-151.3,61.1,-236.8c0,0,62.7,-85.6,171.2,-85.6ZM542.4,-21.3c0,0,-91.7,0,-157.4,35.1c0,0,-65.7,36.6,-108.5,111.5L276.5,0l-139,0l0,1159.6l139,0l0,-452.2c0,0,42.8,74.8,108.5,111.5c0,0,65.7,36.7,157.4,36.7c0,0,152.7,0,247.5,-120.7c0,0,96.2,-122.3,96.2,-319.3c0,0,0,-195.6,-94.7,-316.3c0,0,-96.3,-120.6,-249,-120.6Z" 
	id="f0_14"
	transform="scale(0.001,-0.001)" />

	<path d="M481.3,123.8c0,0,230.6,0,337.6,103.8c0,0,106.9,103.9,106.9,330c0,0,0,223.1,-106.9,327c0,0,-107,103.9,-337.6,103.9l-181.9,0l0,-864.7ZM149.7,0l0,1113.8l308.6,0c0,0,323.9,0,475.2,-134.5c0,0,151.2,-136,151.2,-421.7c0,0,0,-288.7,-151.2,-423.2C933.5,134.4,780.7,0,458.3,0Z" 
	id="f0_15"
	transform="scale(0.001,-0.001)" />

	<path d="M601.9,99.3c0,0,163.5,0,258.2,122.2c0,0,96.3,123.8,96.3,333.1c0,0,0,210.8,-94.7,333c0,0,-96.3,123.8,-259.8,123.8c0,0,-165,0,-261.2,-122.2c0,0,-96.3,-123.8,-96.3,-334.6c0,0,0,-209.3,96.3,-331.5c0,0,96.2,-123.8,261.2,-123.8Zm0,-120.6c0,0,-235.2,0,-375.8,155.7c0,0,-140.5,155.9,-140.5,420.2c0,0,0,264.3,140.5,421.7c0,0,140.6,157.3,375.8,157.3c0,0,233.8,0,372.8,-157.3c0,0,140.6,-157.4,140.6,-421.7c0,0,0,-262.8,-139,-418.6c0,0,-140.6,-157.3,-374.4,-157.3Z" 
	id="f0_16"
	transform="scale(0.001,-0.001)" />

	<path d="M357.5,0L44.3,834.2l145.1,0L450.7,132.9L711.9,834.2l146.7,0L543.9,0Z" 
	id="f0_17"
	transform="scale(0.001,-0.001)" />

	<path d="M149,0l0,1113l705,0l0,-128l-555,0l0,-329l530,0l0,-126l-530,0l0,-404l567,0L866,0Z" 
	id="f0_18"
	transform="scale(0.001,-0.001)" />

	<path d="M352.9,-200c0,0,-111.5,174.1,-166.5,342.1c0,0,-56.5,169.6,-56.5,336.1c0,0,0,166.5,55,334.6c0,0,56.5,169.6,168,345.3l120.7,0c0,0,-100.8,-171.2,-148.2,-339.2c0,0,-48.9,-168.1,-48.9,-340.7c0,0,0,-171.1,48.9,-339.2c0,0,48.9,-169.5,148.2,-339Z" 
	id="f0_19"
	transform="scale(0.001,-0.001)" />

	<path d="M122.2,-200c0,0,99.3,169.5,146.7,337.5c0,0,48.9,169.6,48.9,340.7c0,0,0,172.6,-47.4,340.7c0,0,-48.9,168,-148.2,339.2l119.2,0c0,0,111.5,-175.7,166.5,-343.8c0,0,56.5,-169.6,56.5,-336.1c0,0,0,-166.5,-55,-334.6c0,0,-56.5,-169.5,-168,-343.6Z" 
	id="f0_1a"
	transform="scale(0.001,-0.001)" />

	<path d="M576,386.5l0,595.9L195.6,386.5ZM576,0l0,261.3l-502.7,0l0,146.6l464.5,705.9l189.4,0l0,-727.3l158.9,0l0,-125.2l-158.9,0L727.2,0Z" 
	id="f0_1b"
	transform="scale(0.001,-0.001)" />

	<path d="M543.9,-21.3c0,0,-105.4,0,-212.4,19.9c0,0,-106.9,19.7,-212.3,59.5l0,241.3c0,0,105.4,-56.5,204.7,-84c0,0,100.8,-29,192.5,-29c0,0,94.7,0,143.6,30.5c0,0,50.4,32.1,50.4,90.2c0,0,0,51.9,-33.6,79.4c0,0,-33.6,29.1,-136,52l-110,24.4c0,0,-168,35.2,-244.4,113.1c0,0,-77.9,79.4,-77.9,212.3c0,0,0,166.6,106.9,255.2c0,0,108.5,90.1,310.2,90.1c0,0,91.6,0,187.9,-13.7c0,0,97.8,-13.8,201.6,-41.3l0,-236.8c0,0,-91.6,41.3,-178.7,61.1c0,0,-88.6,21.4,-165,21.4c0,0,-103.9,0,-152.8,-27.5c0,0,-48.9,-29,-48.9,-88.6c0,0,0,-44.3,32.1,-68.8c0,0,33.6,-25.9,120.7,-42.7l122.2,-26c0,0,186.4,-36.7,264.3,-113.1c0,0,77.9,-76.3,77.9,-215.4c0,0,0,-184.8,-108.4,-273.4c0,0,-110,-90.1,-334.6,-90.1Z" 
	id="f1_q"
	transform="scale(0.001,-0.001)" />

	<path d="M0,-140.5L386.5,1113.8l126.8,0L126.8,-140.5Z" 
	id="f0_1c"
	transform="scale(0.001,-0.001)" />

	<path d="M411,-21.3c0,0,-70.3,0,-143.6,10.7c0,0,-73.4,12.1,-149.8,36.6l0,151.2c0,0,67.3,-36.6,137.5,-55c0,0,71.8,-18.3,152.8,-18.3c0,0,128.4,0,203.2,67.2c0,0,76.4,68.8,76.4,184.9c0,0,0,117.6,-74.9,184.8c0,0,-76.3,67.3,-204.7,67.3c0,0,-61.1,0,-120.7,-12.3c0,0,-61.1,-13.7,-123.7,-42.7l0,560.7l592.8,0l0,-128.4l-453.8,0l0,-271.9c0,0,32.1,10.7,64.2,15.3c0,0,33.6,6.1,67.2,6.1c0,0,186.4,0,294.9,-100.9c0,0,108.4,-102.3,108.4,-278c0,0,0,-178.8,-111.5,-278.1c0,0,-111.5,-99.2,-314.7,-99.2Z" 
	id="f0_1d"
	transform="scale(0.001,-0.001)" />

	<path d="M530.1,216.9c0,0,175.7,0,267.4,87.1c0,0,93.2,87.1,93.2,253.6c0,0,0,165,-91.7,250.6c0,0,-93.2,87.1,-268.9,87.1l-103.8,0l0,-678.4ZM139,0l0,1113.8l304.1,0c0,0,253.6,0,377.3,-36.7c0,0,123.8,-36.7,212.4,-122.2c0,0,79.4,-76.4,116.1,-174.2c0,0,38.2,-99.3,38.2,-223.1c0,0,0,-126.8,-36.7,-224.5c0,0,-38.2,-99.3,-117.6,-174.2c0,0,-88.6,-87.1,-213.9,-122.2C818.9,36.7,693.6,0,443.1,0Z" 
	id="f1_r"
	transform="scale(0.001,-0.001)" />

	<path d="M504.2,96.3c0,0,100.8,0,160.4,70.2c0,0,59.6,70.3,59.6,189.5c0,0,0,120.7,-59.6,189.4c0,0,-59.6,70.3,-160.4,70.3c0,0,-102.4,0,-160.4,-68.8c0,0,-59.6,-70.2,-59.6,-190.9c0,0,0,-119.2,58,-189.5c0,0,59.6,-70.2,162,-70.2Zm0,-117.6c0,0,-194.1,0,-296.4,146.6c0,0,-102.4,148.2,-102.4,429.3c0,0,0,264.3,125.3,421.7c0,0,125.3,157.3,337.6,157.3c0,0,56.6,0,113.1,-10.7c0,0,58,-12.2,120.7,-35.1l0,-136c0,0,-56.5,26,-113.1,39.7c0,0,-58,15.3,-116.1,15.3c0,0,-148.2,0,-226.1,-100.8c0,0,-79.4,-100.9,-91.7,-304.1c0,0,44.3,64.2,110,97.8c0,0,67.3,35.2,146.7,35.2c0,0,168.1,0,265.8,-100.9c0,0,97.8,-102.3,97.8,-278c0,0,0,-171.1,-100.8,-273.5c0,0,-102.4,-103.8,-270.4,-103.8Z" 
	id="f0_1e"
	transform="scale(0.001,-0.001)" />

	<path d="M540.8,123.8c0,0,122.3,0,180.3,48.8c0,0,59.6,50.5,59.6,154.3c0,0,0,105.5,-58.1,154.4c0,0,-59.5,50.4,-181.8,50.4l-241.4,0l0,-407.9ZM522.5,653.9c0,0,111.5,0,165,41.2c0,0,53.5,41.3,53.5,126.8c0,0,0,84.1,-53.5,125.3c0,0,-53.5,41.3,-165,41.3l-223.1,0l0,-334.6ZM149.7,0l0,1113.8l385,0c0,0,171.1,0,264.3,-71.9c0,0,93.2,-71.8,93.2,-204.7c0,0,0,-102.3,-47.3,-161.9c0,0,-47.4,-61.1,-140.6,-74.9c0,0,111.5,-24.4,172.6,-99.3c0,0,62.7,-76.4,62.7,-189.4c0,0,0,-149.8,-100.8,-230.7C838.8,81,736.4,0,548.5,0Z" 
	id="f0_1f"
	transform="scale(0.001,-0.001)" />

	<path d="M73,355l0,123l403,0l0,-123Z" 
	id="f0_1g"
	transform="scale(0.001,-0.001)" />

	<path d="M165,0l0,728.8l-131.4,0l0,105.4l131.4,0l0,58c0,0,0,140.6,64.2,203.2c0,0,65.7,64.2,207.7,64.2l129.9,0l0,-113.1l-131.4,0c0,0,-74.8,0,-102.3,-30.5c0,0,-29.1,-30.6,-29.1,-107l0,-74.8l226.1,0l0,-105.4l-226.1,0L304,0Z" 
	id="f0_1h"
	transform="scale(0.001,-0.001)" />

	<path d="M559.2,-21.3c0,0,-210.9,0,-319.3,109.9c0,0,-108.5,111.5,-108.5,328.5l0,696.7l152.8,0l0,-676.9c0,0,0,-180.2,64.1,-258.1c0,0,64.2,-79.5,210.9,-79.5c0,0,143.6,0,207.7,77.9c0,0,65.7,79.5,65.7,259.7l0,676.9l152.8,0l0,-696.7c0,0,0,-217,-108.5,-327c0,0,-108.4,-111.4,-317.7,-111.4Z" 
	id="f0_1i"
	transform="scale(0.001,-0.001)" />

	<path d="M679.9,985.4l0,172.7l139,0l0,-172.7ZM165,0l0,728.8l-131.4,0l0,105.4l131.4,0l0,58c0,0,0,137.5,64.2,201.7c0,0,65.7,65.7,198.6,65.7l139,0l0,-113.1l-131.4,0c0,0,-74.8,0,-102.3,-30.5c0,0,-29.1,-30.6,-29.1,-107l0,-74.8l514.9,0L818.9,0l-139,0l0,728.8l-375.9,0L304,0Z" 
	id="f0_1j"
	transform="scale(0.001,-0.001)" />

	<path d="M279.6,0L660,985.4l-534.7,0l0,128.4l715,0l0,-64.2L436.9,0Z" 
	id="f0_1k"
	transform="scale(0.001,-0.001)" />

	<path d="M139,0l0,1113l287,0l0,-424l424,0l0,424l288,0L1138,0L850,0l0,472l-424,0L426,0Z" 
	id="f1_s"
	transform="scale(0.001,-0.001)" />

	<path d="M484.3,96.3c0,0,108.5,0,169.6,58c0,0,62.6,58.1,62.6,158.9c0,0,0,99.3,-61.1,157.4c0,0,-62.6,58,-171.1,58c0,0,-106.9,0,-168,-58c0,0,-62.7,-58.1,-62.7,-157.4c0,0,0,-100.8,61.1,-158.9c0,0,62.7,-58,169.6,-58Zm0,550c0,0,97.8,0,152.8,48.8c0,0,55,48.9,55,134.5c0,0,0,87.1,-55,136c0,0,-55,48.8,-152.8,48.8c0,0,-97.8,0,-151.2,-48.8c0,0,-53.5,-48.9,-53.5,-136c0,0,0,-85.6,53.5,-134.5c0,0,53.4,-48.8,151.2,-48.8Zm0,-667.6c0,0,-183.3,0,-282.6,85.5c0,0,-99.3,87.1,-99.3,249c0,0,0,105.4,61.1,178.7c0,0,61.1,74.9,171.1,100.9c0,0,-97.8,22.9,-151.3,88.6c0,0,-55,67.2,-55,163.5c0,0,0,132.9,94.8,210.8c0,0,96.2,77.9,261.2,77.9c0,0,166.5,0,261.3,-77.9c0,0,94.7,-77.9,94.7,-210.8c0,0,0,-96.3,-53.5,-162c0,0,-55,-67.2,-151.2,-90.1c0,0,110,-26,169.5,-99.3c0,0,61.2,-74.9,61.2,-180.3c0,0,0,-161.9,-97.8,-247.5c0,0,-99.3,-87,-284.2,-87Z" 
	id="f0_1l"
	transform="scale(0.001,-0.001)" />

	<path d="M139,0l0,1113l776,0l0,-218l-489,0l0,-206l460,0l0,-217l-460,0l0,-256l504,0L930,0Z" 
	id="f1_t"
	transform="scale(0.001,-0.001)" />

	<path d="M22.9,0L339.2,426.3L36.7,834.2l282.6,0L490.4,586.7L664.6,834.2l282.6,0L644.7,427.8L961,0L678.3,0L490.4,262.8L305.6,0Z" 
	id="f1_u"
	transform="scale(0.001,-0.001)" />

	<path d="M571.4,171.1c0,0,87.1,0,131.4,62.7c0,0,45.8,62.6,45.8,181.8c0,0,0,120.7,-44.3,183.3c0,0,-45.8,62.6,-132.9,62.6c0,0,-85.6,0,-131.4,-62.6c0,0,-45.8,-64.2,-45.8,-183.3c0,0,0,-117.7,45.8,-180.3c0,0,45.8,-64.2,131.4,-64.2ZM126.8,-317.7l0,1151.9l267.4,0l0,-122.3c0,0,55,73.4,122.2,108.5c0,0,67.2,35.2,154.3,35.2c0,0,155.8,0,253.6,-122.3c0,0,99.3,-123.7,99.3,-317.7c0,0,0,-192.5,-97.8,-314.8c0,0,-99.3,-122.1,-255.1,-122.1c0,0,-87.1,0,-154.3,33.5c0,0,-67.2,35.2,-122.2,108.5l0,-438.4Z" 
	id="f1_v"
	transform="scale(0.001,-0.001)" />

	<path d="M467.5,495c0,0,100.8,0,160.4,68.8c0,0,59.6,70.2,59.6,190.9c0,0,0,119.2,-59.6,189.5c0,0,-59.6,70.2,-160.4,70.2c0,0,-102.4,0,-160.4,-70.2c0,0,-59.6,-70.3,-59.6,-189.5c0,0,0,-120.7,58.1,-189.4c0,0,59.5,-70.3,161.9,-70.3ZM403.3,-21.3c0,0,-56.5,0,-114.5,10.7c0,0,-59.6,10.6,-122.3,33.5l0,136c0,0,56.6,-26,114.6,-39.7c0,0,59.6,-15.3,114.6,-15.3c0,0,149.7,0,227.6,100.8c0,0,79.5,100.9,90.2,304.1c0,0,-42.8,-64.2,-108.5,-97.8c0,0,-67.2,-33.6,-148.2,-33.6c0,0,-166.5,0,-264.3,100.8c0,0,-97.8,100.8,-97.8,276.5c0,0,0,171.1,100.9,275c0,0,102.3,103.9,271.9,103.9c0,0,192.5,0,293.3,-148.2c0,0,102.4,-148.2,102.4,-430.8c0,0,0,-262.8,-123.8,-418.6c0,0,-125.2,-157.3,-336.1,-157.3Z" 
	id="f0_1m"
	transform="scale(0.001,-0.001)" />

	<path d="M139,0l0,1113.8l366.7,0L759.3,516.4l255.1,597.4l363.7,0L1378.1,0L1107.6,0l0,814.3L851,213.9l-183.4,0L412.5,814.3L412.5,0Z" 
	id="f1_w"
	transform="scale(0.001,-0.001)" />

	<path d="M126.8,0l0,1159.6l267.4,0l0,-631L701.3,834.2l311.6,0L603.5,450.7L1045,0L721.1,0L394.2,348.3L394.2,0Z" 
	id="f1_x"
	transform="scale(0.001,-0.001)" />

	<path d="M149.7,0l0,1113.8l224.6,0L658.5,354.4l285.7,759.4l224.6,0L1168.8,0L1020.6,0l0,977.8L733.3,213.9l-151.2,0L294.9,977.8L294.9,0Z" 
	id="f0_1n"
	transform="scale(0.001,-0.001)" />

	<path d="M137.5,0l0,1159.6l139,0l0,-684.5L686,834.2l174.1,0L417.1,444.6L880,0L699.7,0L276.5,407.9L276.5,0Z" 
	id="f0_1o"
	transform="scale(0.001,-0.001)" />

	<path d="M42.8,0L368.2,436.9L70.3,834.2l161.9,0L453.8,537.8L675.3,834.2l161.9,0L536.3,427.8L854,0L692.1,0L447.6,326.9L204.7,0Z" 
	id="f0_1p"
	transform="scale(0.001,-0.001)" />

	<path d="M484.3,96.3c0,0,117.6,0,175.7,114.5c0,0,59.6,114.6,59.6,343.8c0,0,0,230.7,-58.1,345.3c0,0,-59.6,114.5,-177.2,114.5c0,0,-116.1,0,-174.2,-114.5c0,0,-58,-114.6,-58,-345.3c0,0,0,-229.2,58,-343.8c0,0,58.1,-114.5,174.2,-114.5Zm0,-117.6c0,0,-186.4,0,-285.7,146.6c0,0,-99.3,148.2,-99.3,429.3c0,0,0,282.6,99.3,430.8c0,0,99.3,148.2,285.7,148.2c0,0,187.9,0,285.7,-148.2c0,0,99.3,-148.2,99.3,-430.8c0,0,0,-281.1,-97.8,-427.8c0,0,-99.3,-148.1,-287.2,-148.1Z" 
	id="f0_1q"
	transform="scale(0.001,-0.001)" />


</defs>
</svg>