<?xml version="1.0" encoding="UTF-8" standalone="no"?>
<!DOCTYPE svg PUBLIC "-//W3C//DTD SVG 1.1//EN"
"http://www.w3.org/Graphics/SVG/1.1/DTD/svg11.dtd">
<svg viewBox="0 0 1100 825" version="1.1" xmlns="http://www.w3.org/2000/svg" xmlns:xlink="http://www.w3.org/1999/xlink">
<defs>
<style type="text/css"><![CDATA[
.g2_19{
fill: #418AB3;
}
.g4_19{
fill: none;
stroke: #418AB3;
stroke-width: 2;
stroke-linecap: butt;
stroke-linejoin: miter;
stroke-miterlimit: 7;
}
.g3_19{
fill: none;
stroke: #FFFFFF;
stroke-width: 3;
stroke-linecap: butt;
stroke-linejoin: miter;
stroke-miterlimit: 7;
}
.g1_19{
fill: #FFFFFF;
}
]]></style>
</defs>
<path fill-rule="evenodd" d="M0,0L1100,0l0,825L0,825L0,0Z" class="g1_19" />
<path fill-rule="evenodd" d="M0,0L1100,0l0,825L0,825L0,0Z" class="g1_19" />
<image x="753" y="777" width="303" height="38" xlink:href="img/1.png" />
<path fill-rule="evenodd" d="M367,200l365,0l0,36l-365,0l0,-36Z" class="g2_19" />
<path d="M367.5,200.5l365,0l0,36l-365,0l0,-36Z" class="g3_19" />
<path fill-rule="evenodd" d="M367,468l365,0l0,36l-365,0l0,-36Z" class="g2_19" />
<path d="M367.5,468.5l365,0l0,36l-365,0l0,-36Z" class="g3_19" />
<path fill-rule="evenodd" d="M734.7,489.2l43.9,-12.8l-0.5,-1.7L777.9,473l0,-1.5l0.2,-1.7l0.3,-1.7l0.6,-1.7l0.8,-1.5l0.9,-1.7l1.1,-1.5l1.3,-1.5l1.6,-1.6l1.6,-1.5l1.9,-1.5l2,-1.4l2.3,-1.4l2.3,-1.3l2.5,-1.3l2.6,-1.2l2.8,-1.1l3.1,-1.2l2.9,-1l3.2,-1l3.3,-0.9l3.4,-0.7l3.5,-1l3.7,-0.6l3.5,-0.6l3.8,-0.6l3.8,-0.5l3.8,-0.3l3.9,-0.3l3.9,-0.3l4,-0.1l4,0l3.8,0l4,0.1l3.9,0.2l3.9,0.1l3.9,0.5l3.8,0.3l3.9,0.6l3.6,0.5l3.7,0.7l3.5,0.6l3.5,1l3.2,0.7l3.4,0.9l3.1,1.1l3,1.1l2.9,1l2.8,1.3l2.6,1.2l2.4,1.4l2.3,1.3l2.1,1.4l2,1.4l1.9,1.5l1.5,1.4l1.5,1.5l1.2,1.7l1.1,1.5l0.9,1.7l0.6,1.5l0.5,1.7l0.3,1.7l0.1,1.5l-0.1,1.7l-0.3,1.7l-0.5,1.7l-0.6,1.5l-0.9,1.7l-1.1,1.5l-1.2,1.5l-1.5,1.7l-1.5,1.4l-1.9,1.5l-2,1.4l-2.1,1.4l-2.3,1.3l-2.4,1.4l-2.6,1.2l-2.8,1.3l-2.9,1l-3,1.1l-3.1,1.1l-3.2,0.9l-3.4,0.8l-3.5,0.9l-3.5,0.6l-3.7,0.7l-3.6,0.5l-3.9,0.6l-3.8,0.3l-3.8,0.3l-4,0.3l-3.9,0.2l-3.9,0.1l-3.9,0l-4,0l-4,-0.1l-3.9,-0.3l-3.9,-0.3l-3.8,-0.3l-3.8,-0.5l-3.7,-0.6l-3.6,-0.6l-3.7,-0.6L818.6,501l-3.4,-0.8l-3.3,-0.9l-3.1,-0.9l-3,-1.1l-3.1,-1.2L799.9,495l-2.6,-1.2l-2.5,-1.2l-2.3,-1.4l-2.3,-1.4l-2,-1.4l-53.5,0.8Z" class="g1_19" />
<path d="M734.7,489.2l43.9,-12.8l-0.5,-1.7L777.9,473l0,-1.5l0.2,-1.7l0.3,-1.7l0.6,-1.7l0.8,-1.5l0.9,-1.7l1.1,-1.5l1.3,-1.5l1.6,-1.6l1.6,-1.5l1.9,-1.5l2,-1.4l2.3,-1.4l2.3,-1.3l2.5,-1.3l2.6,-1.2l2.8,-1.1l3.1,-1.2l2.9,-1l3.2,-1l3.3,-0.9l3.4,-0.7l3.5,-1l3.7,-0.6l3.5,-0.6l3.8,-0.6l3.8,-0.5l3.8,-0.3l3.9,-0.3l3.9,-0.3l4,-0.1l4,0l3.8,0l4,0.1l3.9,0.2l3.9,0.1l3.9,0.5l3.8,0.3l3.9,0.6l3.6,0.5l3.7,0.7l3.5,0.6l3.5,1l3.2,0.7l3.4,0.9l3.1,1.1l3,1.1l2.9,1l2.8,1.3l2.6,1.2l2.4,1.4l2.3,1.3l2.1,1.4l2,1.4l1.9,1.5l1.5,1.4l1.5,1.5l1.2,1.7l1.1,1.5l0.9,1.7l0.6,1.5l0.5,1.7l0.3,1.7l0.1,1.5l-0.1,1.7l-0.3,1.7l-0.5,1.7l-0.6,1.5l-0.9,1.7l-1.1,1.5l-1.2,1.5l-1.5,1.7l-1.5,1.4l-1.9,1.5l-2,1.4l-2.1,1.4l-2.3,1.3l-2.4,1.4l-2.6,1.2l-2.8,1.3l-2.9,1l-3,1.1l-3.1,1.1l-3.2,0.9l-3.4,0.8l-3.5,0.9l-3.5,0.6l-3.7,0.7l-3.6,0.5l-3.9,0.6l-3.8,0.3l-3.8,0.3l-4,0.3l-3.9,0.2l-3.9,0.1l-3.9,0l-4,0l-4,-0.1l-3.9,-0.3l-3.9,-0.3l-3.8,-0.3l-3.8,-0.5l-3.7,-0.6l-3.6,-0.6l-3.7,-0.6L818.6,501l-3.4,-0.8l-3.3,-0.9l-3.1,-0.9l-3,-1.1l-3.1,-1.2L799.9,495l-2.6,-1.2l-2.5,-1.2l-2.3,-1.4l-2.3,-1.4l-2,-1.4l-53.5,0.8Z" class="g4_19" />
</svg>