<?xml version="1.0" encoding="UTF-8" standalone="no"?>
<!DOCTYPE svg PUBLIC "-//W3C//DTD SVG 1.1//EN"
"http://www.w3.org/Graphics/SVG/1.1/DTD/svg11.dtd">
<svg viewBox="0 0 1210 1045" version="1.1" xmlns="http://www.w3.org/2000/svg" xmlns:xlink="http://www.w3.org/1999/xlink">
<defs>
<style type="text/css"><![CDATA[
.g2_88{
fill: #418AB3;
}
.g3_88{
fill: none;
stroke: #000000;
stroke-width: 1;
stroke-linecap: butt;
stroke-linejoin: miter;
}
.g4_88{
fill: none;
stroke: #418AB3;
stroke-width: 2;
stroke-linecap: butt;
stroke-linejoin: miter;
stroke-miterlimit: 7;
}
.g1_88{
fill: #FFFFFF;
}
]]></style>
</defs>
<path fill-rule="evenodd" d="M0,0L1210,0l0,1045L0,1045L0,0Z" class="g1_88" />
<path fill-rule="evenodd" d="M0,0L1210,0l0,1045L0,1045L0,0Z" class="g1_88" />
<image x="828" y="984" width="334" height="49" xlink:href="img/1.png" />
<path fill-rule="evenodd" d="M77,165l106,0l0,95L77,260l0,-95Z" class="g2_88" />
<path fill-rule="evenodd" d="M183,165l89,0l0,95l-89,0l0,-95Z" class="g2_88" />
<path fill-rule="evenodd" d="M272,165l149,0l0,95l-149,0l0,-95Z" class="g2_88" />
<path fill-rule="evenodd" d="M421,165l110,0l0,95l-110,0l0,-95Z" class="g2_88" />
<path fill-rule="evenodd" d="M531,165l74,0l0,95l-74,0l0,-95Z" class="g2_88" />
<path fill-rule="evenodd" d="M605,165l82,0l0,95l-82,0l0,-95Z" class="g2_88" />
<path fill-rule="evenodd" d="M687,165l101,0l0,95l-101,0l0,-95Z" class="g2_88" />
<path fill-rule="evenodd" d="M788,165l82,0l0,95l-82,0l0,-95Z" class="g2_88" />
<path fill-rule="evenodd" d="M870,165l80,0l0,95l-80,0l0,-95Z" class="g2_88" />
<path fill-rule="evenodd" d="M950,165l101,0l0,95l-101,0l0,-95Z" class="g2_88" />
<path fill-rule="evenodd" d="M1051,165l85,0l0,95l-85,0l0,-95Z" class="g2_88" />
<path d="M77.5,261.5l0,-97" class="g3_88" />
<path d="M182.5,260.5l0,-95" class="g3_88" />
<path d="M77.5,165.5l106,0" class="g3_88" />
<path d="M182.5,260.5l0,-95" class="g3_88" />
<path d="M271.5,260.5l0,-95" class="g3_88" />
<path d="M182.5,165.5l90,0" class="g3_88" />
<path d="M271.5,260.5l0,-95" class="g3_88" />
<path d="M421.5,260.5l0,-95" class="g3_88" />
<path d="M271.5,165.5l151,0" class="g3_88" />
<path d="M421.5,260.5l0,-95" class="g3_88" />
<path d="M531.5,260.5l0,-95" class="g3_88" />
<path d="M421.5,165.5l111,0" class="g3_88" />
<path d="M531.5,260.5l0,-95" class="g3_88" />
<path d="M604.5,260.5l0,-95" class="g3_88" />
<path d="M531.5,165.5l74,0" class="g3_88" />
<path d="M604.5,260.5l0,-95" class="g3_88" />
<path d="M686.5,260.5l0,-95" class="g3_88" />
<path d="M604.5,165.5l84,0" class="g3_88" />
<path d="M686.5,260.5l0,-95" class="g3_88" />
<path d="M787.5,260.5l0,-95" class="g3_88" />
<path d="M686.5,165.5l102,0" class="g3_88" />
<path d="M787.5,260.5l0,-95" class="g3_88" />
<path d="M870.5,260.5l0,-95" class="g3_88" />
<path d="M787.5,165.5l84,0" class="g3_88" />
<path d="M870.5,260.5l0,-95" class="g3_88" />
<path d="M949.5,260.5l0,-95" class="g3_88" />
<path d="M870.5,165.5l81,0" class="g3_88" />
<path d="M949.5,260.5l0,-95" class="g3_88" />
<path d="M1051.5,261.5l0,-97" class="g3_88" />
<path d="M949.5,165.5l103,0" class="g3_88" />
<path d="M1051.5,260.5l0,-95" class="g3_88" />
<path d="M1135.5,261.5l0,-97" class="g3_88" />
<path d="M1051.5,165.5l86,0" class="g3_88" />
<path d="M77.5,323.5l0,-63" class="g3_88" />
<path d="M182.5,322.5l0,-62" class="g3_88" />
<path d="M77.5,261.5l106,0" class="g3_88" />
<path d="M182.5,322.5l0,-62" class="g3_88" />
<path d="M271.5,322.5l0,-62" class="g3_88" />
<path d="M183.5,261.5l89,0" class="g3_88" />
<path d="M271.5,322.5l0,-62" class="g3_88" />
<path d="M421.5,322.5l0,-62" class="g3_88" />
<path d="M272.5,261.5l149,0" class="g3_88" />
<path d="M421.5,322.5l0,-62" class="g3_88" />
<path d="M531.5,322.5l0,-62" class="g3_88" />
<path d="M421.5,261.5l110,0" class="g3_88" />
<path d="M531.5,322.5l0,-62" class="g3_88" />
<path d="M604.5,322.5l0,-62" class="g3_88" />
<path d="M531.5,261.5l74,0" class="g3_88" />
<path d="M604.5,322.5l0,-62" class="g3_88" />
<path d="M686.5,322.5l0,-62" class="g3_88" />
<path d="M605.5,261.5l82,0" class="g3_88" />
<path d="M686.5,322.5l0,-62" class="g3_88" />
<path d="M787.5,322.5l0,-62" class="g3_88" />
<path d="M687.5,261.5l101,0" class="g3_88" />
<path d="M787.5,322.5l0,-62" class="g3_88" />
<path d="M870.5,322.5l0,-62" class="g3_88" />
<path d="M788.5,261.5l82,0" class="g3_88" />
<path d="M870.5,322.5l0,-62" class="g3_88" />
<path d="M949.5,322.5l0,-62" class="g3_88" />
<path d="M870.5,261.5l80,0" class="g3_88" />
<path d="M949.5,322.5l0,-62" class="g3_88" />
<path d="M1051.5,323.5l0,-63" class="g3_88" />
<path d="M950.5,261.5l101,0" class="g3_88" />
<path d="M1051.5,322.5l0,-62" class="g3_88" />
<path d="M1135.5,323.5l0,-63" class="g3_88" />
<path d="M1051.5,261.5l85,0" class="g3_88" />
<path d="M77.5,385.5l0,-63" class="g3_88" />
<path d="M77.5,385.5l106,0" class="g3_88" />
<path d="M182.5,385.5l0,-63" class="g3_88" />
<path d="M77.5,323.5l106,0" class="g3_88" />
<path d="M182.5,385.5l0,-63" class="g3_88" />
<path d="M182.5,385.5l90,0" class="g3_88" />
<path d="M271.5,385.5l0,-63" class="g3_88" />
<path d="M183.5,323.5l89,0" class="g3_88" />
<path d="M271.5,385.5l0,-63" class="g3_88" />
<path d="M271.5,385.5l151,0" class="g3_88" />
<path d="M421.5,385.5l0,-63" class="g3_88" />
<path d="M272.5,323.5l149,0" class="g3_88" />
<path d="M421.5,385.5l0,-63" class="g3_88" />
<path d="M421.5,385.5l111,0" class="g3_88" />
<path d="M531.5,385.5l0,-63" class="g3_88" />
<path d="M421.5,323.5l110,0" class="g3_88" />
<path d="M531.5,385.5l0,-63" class="g3_88" />
<path d="M531.5,385.5l74,0" class="g3_88" />
<path d="M604.5,385.5l0,-63" class="g3_88" />
<path d="M531.5,323.5l74,0" class="g3_88" />
<path d="M604.5,385.5l0,-63" class="g3_88" />
<path d="M604.5,385.5l84,0" class="g3_88" />
<path d="M686.5,385.5l0,-63" class="g3_88" />
<path d="M605.5,323.5l82,0" class="g3_88" />
<path d="M686.5,385.5l0,-63" class="g3_88" />
<path d="M686.5,385.5l102,0" class="g3_88" />
<path d="M787.5,385.5l0,-63" class="g3_88" />
<path d="M687.5,323.5l101,0" class="g3_88" />
<path d="M787.5,385.5l0,-63" class="g3_88" />
<path d="M787.5,385.5l84,0" class="g3_88" />
<path d="M870.5,385.5l0,-63" class="g3_88" />
<path d="M788.5,323.5l82,0" class="g3_88" />
<path d="M870.5,385.5l0,-63" class="g3_88" />
<path d="M870.5,385.5l81,0" class="g3_88" />
<path d="M949.5,385.5l0,-63" class="g3_88" />
<path d="M870.5,323.5l80,0" class="g3_88" />
<path d="M949.5,385.5l0,-63" class="g3_88" />
<path d="M949.5,385.5l103,0" class="g3_88" />
<path d="M1051.5,385.5l0,-63" class="g3_88" />
<path d="M950.5,323.5l101,0" class="g3_88" />
<path d="M1051.5,385.5l0,-63" class="g3_88" />
<path d="M1051.5,385.5l86,0" class="g3_88" />
<path d="M1135.5,385.5l0,-63" class="g3_88" />
<path d="M1051.5,323.5l85,0" class="g3_88" />
<path fill-rule="evenodd" d="M980.8,15.7l0,-0.3l0,-0.3l0,-0.3L981,14.5l0,-0.3l0.1,-0.3l0,-0.3l0.2,-0.3L981.4,13l0.2,-0.3l0.1,-0.2l0.4,-0.3l0.1,-0.3l0.2,-0.1l0.3,-0.3l0.1,-0.2L983.1,11l0.2,-0.2l0.3,-0.1l0.3,-0.2l0.3,-0.1l0.3,-0.2l0.2,-0.1L985,9.9l0.4,0l0.3,-0.1l0.3,0l0.3,0l0.3,-0.2l0.3,0l189.5,0l0.3,0l0.3,0.2l0.3,0l0.3,0l0.3,0.1l0.3,0l0.3,0.2l0.3,0.1l0.3,0.2l0.3,0.1l0.2,0.2l0.3,0.1l0.3,0.4l0.2,0.1l0.3,0.2l0.1,0.3l0.3,0.3l0.2,0.1l0.1,0.3l0.2,0.3l0.1,0.2l0.2,0.3l0.1,0.3l0,0.3l0.2,0.3l0.1,0.3l0,0.3l0,0.3l0,0.3l0,0.3l0.2,24.5l0,0.3l-0.2,0.4l0,0.4l0,0.3l-0.1,0.3l0,0.3l-0.2,0.3l-0.1,0.1l-0.2,0.3l-0.1,0.3l-0.2,0.3l-0.1,0.3l-0.2,0.2l-0.3,0.3l-0.1,0.2l-0.3,0.3l-0.2,0.1l-0.3,0.2l-0.3,0.3l-0.2,0.1l-0.3,0.2l-0.3,0.1l-0.3,0l-0.3,0.2l-0.3,0.1l-0.3,0l-0.3,0l-0.3,0.2l-0.3,0l-0.3,0L986.9,46.4l0,-0.1l-0.3,0l-0.3,0l-0.3,0l-0.3,-0.2l-0.3,0L985,46l-0.3,0l-0.2,-0.2l-0.3,-0.1l-0.3,-0.2l-0.3,-0.1l-0.3,-0.2l-0.2,-0.1l-0.3,-0.3l-0.1,-0.2l-0.3,-0.3l-0.2,-0.1l-0.1,-0.4l-0.4,-0.3l-0.1,-0.3l-0.2,-0.3l-0.1,-0.3l-0.2,-0.1l0,-0.3L981,41.9l0,-0.3l-0.2,-0.3l0,-0.4l0,-0.4l0,-0.3l0,-24.5Z" class="g1_88" />
<path d="M980.8,15.7l0,-0.3l0,-0.3l0,-0.3L981,14.5l0,-0.3l0.1,-0.3l0,-0.3l0.2,-0.3L981.4,13l0.2,-0.3l0.1,-0.2l0.4,-0.3l0.1,-0.3l0.2,-0.1l0.3,-0.3l0.1,-0.2L983.1,11l0.2,-0.2l0.3,-0.1l0.3,-0.2l0.3,-0.1l0.3,-0.2l0.2,-0.1L985,9.9l0.4,0l0.3,-0.1l0.3,0l0.3,0l0.3,-0.2l0.3,0l189.5,0l0.3,0l0.3,0.2l0.3,0l0.3,0l0.3,0.1l0.3,0l0.3,0.2l0.3,0.1l0.3,0.2l0.3,0.1l0.2,0.2l0.3,0.1l0.3,0.4l0.2,0.1l0.3,0.2l0.1,0.3l0.3,0.3l0.2,0.1l0.1,0.3l0.2,0.3l0.1,0.2l0.2,0.3l0.1,0.3l0,0.3l0.2,0.3l0.1,0.3l0,0.3l0,0.3l0,0.3l0,0.3l0.2,24.5l0,0.3l-0.2,0.4l0,0.4l0,0.3l-0.1,0.3l0,0.3l-0.2,0.3l-0.1,0.1l-0.2,0.3l-0.1,0.3l-0.2,0.3l-0.1,0.3l-0.2,0.2l-0.3,0.3l-0.1,0.2l-0.3,0.3l-0.2,0.1l-0.3,0.2l-0.3,0.3l-0.2,0.1l-0.3,0.2l-0.3,0.1l-0.3,0l-0.3,0.2l-0.3,0.1l-0.3,0l-0.3,0l-0.3,0.2l-0.3,0l-0.3,0L986.9,46.4l0,-0.1l-0.3,0l-0.3,0l-0.3,0l-0.3,-0.2l-0.3,0L985,46l-0.3,0l-0.2,-0.2l-0.3,-0.1l-0.3,-0.2l-0.3,-0.1l-0.3,-0.2l-0.2,-0.1l-0.3,-0.3l-0.1,-0.2l-0.3,-0.3l-0.2,-0.1l-0.1,-0.4l-0.4,-0.3l-0.1,-0.3l-0.2,-0.3l-0.1,-0.3l-0.2,-0.1l0,-0.3L981,41.9l0,-0.3l-0.2,-0.3l0,-0.4l0,-0.4l0,-0.3l0,-24.5Z" class="g4_88" />
</svg>