<?xml version="1.0" encoding="UTF-8" standalone="no"?>
<!DOCTYPE svg PUBLIC "-//W3C//DTD SVG 1.1//EN"
"http://www.w3.org/Graphics/SVG/1.1/DTD/svg11.dtd">
<svg viewBox="0 0 1210 1320" version="1.1" xmlns="http://www.w3.org/2000/svg" xmlns:xlink="http://www.w3.org/1999/xlink">
<defs>
<style type="text/css"><![CDATA[
.g2_142{
fill: none;
stroke: #626262;
stroke-width: 2;
stroke-linecap: butt;
stroke-linejoin: miter;
}
.g3_142{
fill: none;
stroke: #418AB3;
stroke-width: 2;
stroke-linecap: butt;
stroke-linejoin: miter;
stroke-miterlimit: 7;
}
.g1_142{
fill: #FFFFFF;
}
]]></style>
</defs>
<path fill-rule="evenodd" d="M0,0L1210,0l0,1320L0,1320L0,0Z" class="g1_142" />
<path fill-rule="evenodd" d="M0,0L1210,0l0,1320L0,1320L0,0Z" class="g1_142" />
<path d="M66,378l350,0" class="g2_142" />
<path d="M66,509l336,0" class="g2_142" />
<path d="M66,641l278,0" class="g2_142" />
<path d="M344,641l6,0" class="g2_142" />
<path d="M66,729l99,0" class="g2_142" />
<image x="641" y="943" width="395" height="212" xlink:href="img/1.png" />
<path fill-rule="evenodd" d="M980.8,21.8l0,-0.3l0,-0.1l0,-0.3l0,-0.2L981,20.6l0,-0.1l0.1,-0.3l0,-0.2l0.2,-0.3l0.1,-0.1l0.2,-0.2l0.1,-0.3l0,-0.2l0.4,-0.1l0.1,-0.2l0.2,-0.1l0.1,-0.2l0.2,-0.1L983,18l0.1,-0.1l0.2,-0.2l0.1,0l0.3,-0.1l0.3,0l0.2,-0.2l0.1,0l0.4,-0.1l0.3,0l0.1,0l0.3,0l192.5,0l0.2,0l0.3,0l0.1,0l0.3,0.1l0.3,0l0.2,0.2l0.1,0l0.4,0.1l0.1,0.2l0.3,0l0.2,0.1l0.1,0.2l0.3,0.1l0.2,0.2l0.1,0.1l0.2,0.2l0.1,0.1l0.2,0.3l0.1,0.2l0,0.2l0.2,0.3L1182,20l0,0.2l0.2,0.3l0,0.1l0.1,0.3l0,0.2l0,0.3l0,0.1l0,0.3l0.2,18.4l0,0.1l0,0.3l0,0.3l-0.2,0.2l0,0.3l0,0.2l-0.1,0.3L1182,42l0,0.2l-0.1,0.3l-0.2,0.1l-0.1,0.2l-0.2,0.3l-0.1,0.1l-0.2,0.2l-0.1,0.1l-0.2,0.2l-0.1,0.1l-0.3,0.2l-0.2,0.2l-0.1,0l-0.3,0.1l-0.2,0.2l-0.3,0l-0.2,0l-0.3,0.1l-0.3,0l-0.1,0l-0.2,0.2l-0.3,0l-192.5,0l-0.3,0l-0.1,0l-0.3,0l-0.4,0l-0.1,-0.2l-0.2,0l-0.3,-0.1l-0.3,0l-0.1,-0.2l-0.2,-0.1L983,44l-0.3,-0.2l-0.2,-0.1l-0.1,-0.2l-0.2,-0.1l-0.1,-0.2l-0.4,-0.1l0,-0.2l-0.1,-0.3l-0.2,-0.1l-0.1,-0.2L981.1,42l0,-0.1L981,41.6l0,-0.2l-0.2,-0.3l0,-0.2l0,-0.3l0,-0.1l0,-0.3l0,-18.4Z" class="g1_142" />
<path d="M980.8,21.8l0,-0.3l0,-0.1l0,-0.3l0,-0.2L981,20.6l0,-0.1l0.1,-0.3l0,-0.2l0.2,-0.3l0.1,-0.1l0.2,-0.2l0.1,-0.3l0,-0.2l0.4,-0.1l0.1,-0.2l0.2,-0.1l0.1,-0.2l0.2,-0.1L983,18l0.1,-0.1l0.2,-0.2l0.1,0l0.3,-0.1l0.3,0l0.2,-0.2l0.1,0l0.4,-0.1l0.3,0l0.1,0l0.3,0l192.5,0l0.2,0l0.3,0l0.1,0l0.3,0.1l0.3,0l0.2,0.2l0.1,0l0.4,0.1l0.1,0.2l0.3,0l0.2,0.1l0.1,0.2l0.3,0.1l0.2,0.2l0.1,0.1l0.2,0.2l0.1,0.1l0.2,0.3l0.1,0.2l0,0.2l0.2,0.3L1182,20l0,0.2l0.2,0.3l0,0.1l0.1,0.3l0,0.2l0,0.3l0,0.1l0,0.3l0.2,18.4l0,0.1l0,0.3l0,0.3l-0.2,0.2l0,0.3l0,0.2l-0.1,0.3L1182,42l0,0.2l-0.1,0.3l-0.2,0.1l-0.1,0.2l-0.2,0.3l-0.1,0.1l-0.2,0.2l-0.1,0.1l-0.2,0.2l-0.1,0.1l-0.3,0.2l-0.2,0.2l-0.1,0l-0.3,0.1l-0.2,0.2l-0.3,0l-0.2,0l-0.3,0.1l-0.3,0l-0.1,0l-0.2,0.2l-0.3,0l-192.5,0l-0.3,0l-0.1,0l-0.3,0l-0.4,0l-0.1,-0.2l-0.2,0l-0.3,-0.1l-0.3,0l-0.1,-0.2l-0.2,-0.1L983,44l-0.3,-0.2l-0.2,-0.1l-0.1,-0.2l-0.2,-0.1l-0.1,-0.2l-0.4,-0.1l0,-0.2l-0.1,-0.3l-0.2,-0.1l-0.1,-0.2L981.1,42l0,-0.1L981,41.6l0,-0.2l-0.2,-0.3l0,-0.2l0,-0.3l0,-0.1l0,-0.3l0,-18.4Z" class="g3_142" />
</svg>