<?xml version="1.0" encoding="UTF-8" standalone="no"?>
<!DOCTYPE svg PUBLIC "-//W3C//DTD SVG 1.1//EN"
"http://www.w3.org/Graphics/SVG/1.1/DTD/svg11.dtd">
<svg viewBox="0 0 1155 1210" version="1.1" xmlns="http://www.w3.org/2000/svg" xmlns:xlink="http://www.w3.org/1999/xlink">
<defs>
<clipPath id="c0_64"><path d="M0.5,1210.5L0.5,0.5l1155,0l0,1210Z" /></clipPath>
<style type="text/css"><![CDATA[
.g1_64{
fill: #FFFFFF;
}
]]></style>
</defs>
<path fill-rule="evenodd" d="M0,0L1155,0l0,1210L0,1210L0,0Z" class="g1_64" />
<path fill-rule="evenodd" d="M0,0L1155,0l0,1210L0,1210L0,0Z" class="g1_64" />
<image x="790" y="1140" width="319" height="55" xlink:href="img/1.png" />
<g clip-path="url(#c0_64)">
<g fill="#000000" >
<use xlink:href="#f0_u" transform="matrix(12,0,0,12,37,33)" />
<use xlink:href="#f0_4" transform="matrix(12,0,0,12,42.3,33)" />
<use xlink:href="#f0_c" transform="matrix(12,0,0,12,59.7,33)" />
<use xlink:href="#f0_f" transform="matrix(12,0,0,12,66.9,33)" />
<use xlink:href="#f0_d" transform="matrix(12,0,0,12,78.4,33)" />
<use xlink:href="#f0_g" transform="matrix(12,0,0,12,83.5,33)" />
<use xlink:href="#f0_8" transform="matrix(12,0,0,12,99,33)" />
<use xlink:href="#f0_7" transform="matrix(12,0,0,12,116.7,33)" />
<use xlink:href="#f0_h" transform="matrix(12,0,0,12,127.8,33)" />
<use xlink:href="#f0_i" transform="matrix(12,0,0,12,139.6,33)" />
<use xlink:href="#f0_a" transform="matrix(12,0,0,12,151.2,33)" />
<use xlink:href="#f0_b" transform="matrix(12,0,0,12,156.2,33)" />
<use xlink:href="#f0_12" transform="matrix(12,0,0,12,173.5,33)" />
<use xlink:href="#f0_b" transform="matrix(12,0,0,12,188.5,33)" />
<use xlink:href="#f0_f" transform="matrix(12,0,0,12,205.7,33)" />
<use xlink:href="#f0_k" transform="matrix(12,0,0,12,217.3,33)" />
<use xlink:href="#f0_q" transform="matrix(12,0,0,12,228.6,33)" />
<use xlink:href="#f0_b" transform="matrix(12,0,0,12,239.4,33)" />
<use xlink:href="#f0_a" transform="matrix(12,0,0,12,256.7,33)" />
<use xlink:href="#f0_b" transform="matrix(12,0,0,12,261.7,33)" />
<use xlink:href="#f0_k" transform="matrix(12,0,0,12,273.2,33)" />
<use xlink:href="#f0_l" transform="matrix(12,0,0,12,284.5,33)" />
<use xlink:href="#f0_4" transform="matrix(12,0,0,12,291.8,33)" />
<use xlink:href="#f0_c" transform="matrix(12,0,0,12,303.4,33)" />
<use xlink:href="#f0_f" transform="matrix(12,0,0,12,316.4,33)" />
<use xlink:href="#f0_7" transform="matrix(12,0,0,12,328,33)" />
<use xlink:href="#f0_12" transform="matrix(12,0,0,12,339.1,33)" />
<use xlink:href="#f0_c" transform="matrix(12,0,0,12,360.1,33)" />
<use xlink:href="#f0_7" transform="matrix(12,0,0,12,367.1,33)" />
<use xlink:href="#f0_n" transform="matrix(12,0,0,12,378.4,33)" />
<use xlink:href="#f1_q" transform="matrix(12,0,0,12,37,90.4)" />
<use xlink:href="#f0_u" transform="matrix(12,0,0,12,63.3,91.5)" />
<use xlink:href="#f0_4" transform="matrix(12,0,0,12,68.6,91.5)" />
<use xlink:href="#f0_c" transform="matrix(12,0,0,12,80.1,91.5)" />
<use xlink:href="#f0_b" transform="matrix(12,0,0,12,87.2,91.5)" />
<use xlink:href="#f0_x" transform="matrix(12,0,0,12,98.5,91.5)" />
<use xlink:href="#f0_l" transform="matrix(12,0,0,12,110.3,91.5)" />
<use xlink:href="#f0_k" transform="matrix(12,0,0,12,118.1,91.5)" />
<use xlink:href="#f0_c" transform="matrix(12,0,0,12,129.4,91.5)" />
<use xlink:href="#f0_b" transform="matrix(12,0,0,12,136.5,91.5)" />
<use xlink:href="#f0_s" transform="matrix(12,0,0,12,153.8,91.5)" />
<use xlink:href="#f0_r" transform="matrix(12,0,0,12,164.8,91.5)" />
<use xlink:href="#f0_c" transform="matrix(12,0,0,12,175.5,91.5)" />
<use xlink:href="#f0_f" transform="matrix(12,0,0,12,182.7,91.5)" />
<use xlink:href="#f0_7" transform="matrix(12,0,0,12,194.3,91.5)" />
<use xlink:href="#f0_4" transform="matrix(12,0,0,12,205.4,91.5)" />
<use xlink:href="#f0_k" transform="matrix(12,0,0,12,222.8,91.5)" />
<use xlink:href="#f0_9" transform="matrix(12,0,0,12,234.3,91.5)" />
<use xlink:href="#f0_9" transform="matrix(12,0,0,12,245.7,91.5)" />
<use xlink:href="#f0_a" transform="matrix(12,0,0,12,257.3,91.5)" />
<use xlink:href="#f0_d" transform="matrix(12,0,0,12,262.4,91.5)" />
<use xlink:href="#f0_6" transform="matrix(12,0,0,12,267.5,91.5)" />
<use xlink:href="#f0_k" transform="matrix(12,0,0,12,277.8,91.5)" />
<use xlink:href="#f0_c" transform="matrix(12,0,0,12,289.2,91.5)" />
<use xlink:href="#f0_d" transform="matrix(12,0,0,12,296.2,91.5)" />
<use xlink:href="#f0_7" transform="matrix(12,0,0,12,301.4,91.5)" />
<use xlink:href="#f0_4" transform="matrix(12,0,0,12,312.5,91.5)" />
<use xlink:href="#f0_12" transform="matrix(12,0,0,12,329.9,91.5)" />
<use xlink:href="#f0_d" transform="matrix(12,0,0,12,344.9,91.5)" />
<use xlink:href="#f0_c" transform="matrix(12,0,0,12,350.1,91.5)" />
<use xlink:href="#f0_f" transform="matrix(12,0,0,12,357.3,91.5)" />
<use xlink:href="#f0_3" transform="matrix(12,0,0,12,374.7,91.5)" />
<use xlink:href="#f0_l" transform="matrix(12,0,0,12,389.2,91.5)" />
<use xlink:href="#f0_k" transform="matrix(12,0,0,12,396.8,91.5)" />
<use xlink:href="#f0_6" transform="matrix(12,0,0,12,408.1,91.5)" />
<use xlink:href="#f0_a" transform="matrix(12,0,0,12,418.5,91.5)" />
<use xlink:href="#f0_b" transform="matrix(12,0,0,12,423.5,91.5)" />
<use xlink:href="#f0_h" transform="matrix(12,0,0,12,440.8,91.5)" />
<use xlink:href="#f0_k" transform="matrix(12,0,0,12,452.5,91.5)" />
<use xlink:href="#f0_c" transform="matrix(12,0,0,12,463.8,91.5)" />
<use xlink:href="#f0_k" transform="matrix(12,0,0,12,471,91.5)" />
<use xlink:href="#f0_m" transform="matrix(12,0,0,12,482.3,91.5)" />
<use xlink:href="#f0_k" transform="matrix(12,0,0,12,493.9,91.5)" />
<use xlink:href="#f0_g" transform="matrix(12,0,0,12,505.2,91.5)" />
<use xlink:href="#f0_b" transform="matrix(12,0,0,12,514.8,91.5)" />
<use xlink:href="#f1_q" transform="matrix(12,0,0,12,37,149)" />
<use xlink:href="#f0_s" transform="matrix(12,0,0,12,63.3,150)" />
<use xlink:href="#f0_b" transform="matrix(12,0,0,12,73.5,150)" />
<use xlink:href="#f0_l" transform="matrix(12,0,0,12,84.9,150)" />
<use xlink:href="#f0_e" transform="matrix(12,0,0,12,92.5,150)" />
<use xlink:href="#f0_7" transform="matrix(12,0,0,12,99,150)" />
<use xlink:href="#f0_l" transform="matrix(12,0,0,12,110.1,150)" />
<use xlink:href="#f0_8" transform="matrix(12,0,0,12,117.4,150)" />
<use xlink:href="#f0_c" transform="matrix(12,0,0,12,141.1,150)" />
<use xlink:href="#f0_f" transform="matrix(12,0,0,12,148.3,150)" />
<use xlink:href="#f0_b" transform="matrix(12,0,0,12,159.8,150)" />
<use xlink:href="#f0_e" transform="matrix(12,0,0,12,177,150)" />
<use xlink:href="#f0_7" transform="matrix(12,0,0,12,183.4,150)" />
<use xlink:href="#f0_a" transform="matrix(12,0,0,12,194.6,150)" />
<use xlink:href="#f0_a" transform="matrix(12,0,0,12,199.7,150)" />
<use xlink:href="#f0_7" transform="matrix(12,0,0,12,204.8,150)" />
<use xlink:href="#f0_12" transform="matrix(12,0,0,12,216.1,150)" />
<use xlink:href="#f0_d" transform="matrix(12,0,0,12,231.1,150)" />
<use xlink:href="#f0_4" transform="matrix(12,0,0,12,236.2,150)" />
<use xlink:href="#f0_x" transform="matrix(12,0,0,12,247.7,150)" />
<use xlink:href="#f0_h" transform="matrix(12,0,0,12,265.2,150)" />
<use xlink:href="#f0_k" transform="matrix(12,0,0,12,277,150)" />
<use xlink:href="#f0_c" transform="matrix(12,0,0,12,288.4,150)" />
<use xlink:href="#f0_k" transform="matrix(12,0,0,12,295.5,150)" />
<use xlink:href="#f0_m" transform="matrix(12,0,0,12,306.9,150)" />
<use xlink:href="#f0_k" transform="matrix(12,0,0,12,318.4,150)" />
<use xlink:href="#f0_g" transform="matrix(12,0,0,12,329.8,150)" />
<use xlink:href="#f0_b" transform="matrix(12,0,0,12,339.3,150)" />
<use xlink:href="#f0_7" transform="matrix(12,0,0,12,356.5,150)" />
<use xlink:href="#f0_9" transform="matrix(12,0,0,12,367.7,150)" />
<use xlink:href="#f0_b" transform="matrix(12,0,0,12,379.3,150)" />
<use xlink:href="#f0_l" transform="matrix(12,0,0,12,390.6,150)" />
<use xlink:href="#f0_k" transform="matrix(12,0,0,12,398.3,150)" />
<use xlink:href="#f0_c" transform="matrix(12,0,0,12,409.6,150)" />
<use xlink:href="#f0_d" transform="matrix(12,0,0,12,416.8,150)" />
<use xlink:href="#f0_7" transform="matrix(12,0,0,12,421.9,150)" />
<use xlink:href="#f0_4" transform="matrix(12,0,0,12,433.2,150)" />
<use xlink:href="#f0_g" transform="matrix(12,0,0,12,444.6,150)" />
<use xlink:href="#f0_e" transform="matrix(12,0,0,12,460,150)" />
<use xlink:href="#f0_l" transform="matrix(12,0,0,12,466.5,150)" />
<use xlink:href="#f0_7" transform="matrix(12,0,0,12,473.6,150)" />
<use xlink:href="#f0_8" transform="matrix(12,0,0,12,484.8,150)" />
<use xlink:href="#f0_s" transform="matrix(12,0,0,12,508.5,150)" />
<use xlink:href="#f0_r" transform="matrix(12,0,0,12,519.5,150)" />
<use xlink:href="#f0_c" transform="matrix(12,0,0,12,530.3,150)" />
<use xlink:href="#f0_f" transform="matrix(12,0,0,12,537.3,150)" />
<use xlink:href="#f0_7" transform="matrix(12,0,0,12,548.9,150)" />
<use xlink:href="#f0_4" transform="matrix(12,0,0,12,560.1,150)" />
<use xlink:href="#f0_k" transform="matrix(12,0,0,12,577.5,150)" />
<use xlink:href="#f0_9" transform="matrix(12,0,0,12,588.9,150)" />
<use xlink:href="#f0_9" transform="matrix(12,0,0,12,600.4,150)" />
<use xlink:href="#f0_a" transform="matrix(12,0,0,12,612,150)" />
<use xlink:href="#f0_d" transform="matrix(12,0,0,12,617,150)" />
<use xlink:href="#f0_6" transform="matrix(12,0,0,12,622.2,150)" />
<use xlink:href="#f0_k" transform="matrix(12,0,0,12,632.4,150)" />
<use xlink:href="#f0_c" transform="matrix(12,0,0,12,643.8,150)" />
<use xlink:href="#f0_d" transform="matrix(12,0,0,12,651,150)" />
<use xlink:href="#f0_7" transform="matrix(12,0,0,12,656.1,150)" />
<use xlink:href="#f0_4" transform="matrix(12,0,0,12,667.2,150)" />
<use xlink:href="#f0_n" transform="matrix(12,0,0,12,678.8,150)" />
<use xlink:href="#f1_q" transform="matrix(12,0,0,12,89.5,200.1)" />
<use xlink:href="#f0_15" transform="matrix(12,0,0,12,115.7,201.2)" />
<use xlink:href="#f0_l" transform="matrix(12,0,0,12,128.5,201.2)" />
<use xlink:href="#f0_b" transform="matrix(12,0,0,12,135.7,201.2)" />
<use xlink:href="#f0_k" transform="matrix(12,0,0,12,147.1,201.2)" />
<use xlink:href="#f0_c" transform="matrix(12,0,0,12,158.4,201.2)" />
<use xlink:href="#f0_b" transform="matrix(12,0,0,12,165.6,201.2)" />
<use xlink:href="#f0_c" transform="matrix(12,0,0,12,182.8,201.2)" />
<use xlink:href="#f0_k" transform="matrix(12,0,0,12,190,201.2)" />
<use xlink:href="#f0_m" transform="matrix(12,0,0,12,201.3,201.2)" />
<use xlink:href="#f0_a" transform="matrix(12,0,0,12,212.9,201.2)" />
<use xlink:href="#f0_b" transform="matrix(12,0,0,12,217.9,201.2)" />
<use xlink:href="#f0_g" transform="matrix(12,0,0,12,229.4,201.2)" />
<use xlink:href="#f1_q" transform="matrix(12,0,0,12,89.5,251.5)" />
<use xlink:href="#f0_u" transform="matrix(12,0,0,12,115.7,252.5)" />
<use xlink:href="#f0_4" transform="matrix(12,0,0,12,121,252.5)" />
<use xlink:href="#f0_g" transform="matrix(12,0,0,12,132.6,252.5)" />
<use xlink:href="#f0_b" transform="matrix(12,0,0,12,142.1,252.5)" />
<use xlink:href="#f0_l" transform="matrix(12,0,0,12,153.5,252.5)" />
<use xlink:href="#f0_c" transform="matrix(12,0,0,12,161.2,252.5)" />
<use xlink:href="#f0_1l" transform="matrix(12,0,0,12,168.3,252.5)" />
<use xlink:href="#f0_p" transform="matrix(12,0,0,12,174.6,252.5)" />
<use xlink:href="#f0_9" transform="matrix(12,0,0,12,187.9,252.5)" />
<use xlink:href="#f0_h" transform="matrix(12,0,0,12,199.5,252.5)" />
<use xlink:href="#f0_k" transform="matrix(12,0,0,12,211.2,252.5)" />
<use xlink:href="#f0_c" transform="matrix(12,0,0,12,222.5,252.5)" />
<use xlink:href="#f0_b" transform="matrix(12,0,0,12,229.7,252.5)" />
<use xlink:href="#f0_1l" transform="matrix(12,0,0,12,241,252.5)" />
<use xlink:href="#f0_16" transform="matrix(12,0,0,12,247.3,252.5)" />
<use xlink:href="#f0_b" transform="matrix(12,0,0,12,261.5,252.5)" />
<use xlink:href="#f0_a" transform="matrix(12,0,0,12,272.8,252.5)" />
<use xlink:href="#f0_b" transform="matrix(12,0,0,12,277.9,252.5)" />
<use xlink:href="#f0_c" transform="matrix(12,0,0,12,289.2,252.5)" />
<use xlink:href="#f0_b" transform="matrix(12,0,0,12,296.4,252.5)" />
<use xlink:href="#f0_l" transform="matrix(12,0,0,12,313.5,252.5)" />
<use xlink:href="#f0_b" transform="matrix(12,0,0,12,320.7,252.5)" />
<use xlink:href="#f0_6" transform="matrix(12,0,0,12,332.1,252.5)" />
<use xlink:href="#f0_7" transform="matrix(12,0,0,12,342.3,252.5)" />
<use xlink:href="#f0_l" transform="matrix(12,0,0,12,353.5,252.5)" />
<use xlink:href="#f0_h" transform="matrix(12,0,0,12,360.8,252.5)" />
<use xlink:href="#f0_g" transform="matrix(12,0,0,12,372.6,252.5)" />
<use xlink:href="#f1_q" transform="matrix(12,0,0,12,89.5,302.7)" />
<use xlink:href="#f0_1u" transform="matrix(12,0,0,12,115.7,303.7)" />
<use xlink:href="#f0_b" transform="matrix(12,0,0,12,127.6,303.7)" />
<use xlink:href="#f0_c" transform="matrix(12,0,0,12,139,303.7)" />
<use xlink:href="#f0_l" transform="matrix(12,0,0,12,146.2,303.7)" />
<use xlink:href="#f0_d" transform="matrix(12,0,0,12,153.8,303.7)" />
<use xlink:href="#f0_b" transform="matrix(12,0,0,12,159,303.7)" />
<use xlink:href="#f0_q" transform="matrix(12,0,0,12,170.3,303.7)" />
<use xlink:href="#f0_b" transform="matrix(12,0,0,12,181.1,303.7)" />
<use xlink:href="#f0_h" transform="matrix(12,0,0,12,198.4,303.7)" />
<use xlink:href="#f0_k" transform="matrix(12,0,0,12,210,303.7)" />
<use xlink:href="#f0_c" transform="matrix(12,0,0,12,221.4,303.7)" />
<use xlink:href="#f0_k" transform="matrix(12,0,0,12,228.6,303.7)" />
<use xlink:href="#f0_e" transform="matrix(12,0,0,12,245.8,303.7)" />
<use xlink:href="#f0_l" transform="matrix(12,0,0,12,252.1,303.7)" />
<use xlink:href="#f0_7" transform="matrix(12,0,0,12,259.3,303.7)" />
<use xlink:href="#f0_8" transform="matrix(12,0,0,12,270.4,303.7)" />
<use xlink:href="#f0_c" transform="matrix(12,0,0,12,294.1,303.7)" />
<use xlink:href="#f0_k" transform="matrix(12,0,0,12,301.3,303.7)" />
<use xlink:href="#f0_m" transform="matrix(12,0,0,12,312.6,303.7)" />
<use xlink:href="#f0_a" transform="matrix(12,0,0,12,324.2,303.7)" />
<use xlink:href="#f0_b" transform="matrix(12,0,0,12,329.3,303.7)" />
<use xlink:href="#f0_g" transform="matrix(12,0,0,12,340.6,303.7)" />
<use xlink:href="#f1_q" transform="matrix(12,0,0,12,37,361.2)" />
<use xlink:href="#f0_18" transform="matrix(12,0,0,12,63.3,362.2)" />
<use xlink:href="#f0_k" transform="matrix(12,0,0,12,77,362.2)" />
<use xlink:href="#f0_4" transform="matrix(12,0,0,12,88.3,362.2)" />
<use xlink:href="#f0_h" transform="matrix(12,0,0,12,99.9,362.2)" />
<use xlink:href="#f0_a" transform="matrix(12,0,0,12,111.7,362.2)" />
<use xlink:href="#f0_b" transform="matrix(12,0,0,12,116.7,362.2)" />
<use xlink:href="#f0_h" transform="matrix(12,0,0,12,133.9,362.2)" />
<use xlink:href="#f0_k" transform="matrix(12,0,0,12,145.7,362.2)" />
<use xlink:href="#f0_c" transform="matrix(12,0,0,12,157,362.2)" />
<use xlink:href="#f0_k" transform="matrix(12,0,0,12,164.2,362.2)" />
<use xlink:href="#f0_m" transform="matrix(12,0,0,12,175.5,362.2)" />
<use xlink:href="#f0_k" transform="matrix(12,0,0,12,187.1,362.2)" />
<use xlink:href="#f0_g" transform="matrix(12,0,0,12,198.4,362.2)" />
<use xlink:href="#f0_b" transform="matrix(12,0,0,12,208,362.2)" />
<use xlink:href="#f0_l" transform="matrix(12,0,0,12,225.2,362.2)" />
<use xlink:href="#f0_b" transform="matrix(12,0,0,12,232.2,362.2)" />
<use xlink:href="#f0_a" transform="matrix(12,0,0,12,243.7,362.2)" />
<use xlink:href="#f0_k" transform="matrix(12,0,0,12,248.7,362.2)" />
<use xlink:href="#f0_c" transform="matrix(12,0,0,12,260.2,362.2)" />
<use xlink:href="#f0_b" transform="matrix(12,0,0,12,267.3,362.2)" />
<use xlink:href="#f0_h" transform="matrix(12,0,0,12,278.6,362.2)" />
<use xlink:href="#f0_b" transform="matrix(12,0,0,12,296.2,362.2)" />
<use xlink:href="#f0_v" transform="matrix(12,0,0,12,307.2,362.2)" />
<use xlink:href="#f0_6" transform="matrix(12,0,0,12,317.7,362.2)" />
<use xlink:href="#f0_b" transform="matrix(12,0,0,12,327.9,362.2)" />
<use xlink:href="#f0_9" transform="matrix(12,0,0,12,339.2,362.2)" />
<use xlink:href="#f0_c" transform="matrix(12,0,0,12,350.8,362.2)" />
<use xlink:href="#f0_d" transform="matrix(12,0,0,12,358,362.2)" />
<use xlink:href="#f0_7" transform="matrix(12,0,0,12,363.1,362.2)" />
<use xlink:href="#f0_4" transform="matrix(12,0,0,12,374.2,362.2)" />
<use xlink:href="#f0_g" transform="matrix(12,0,0,12,385.8,362.2)" />
<use xlink:href="#f0_d" transform="matrix(12,0,0,12,401.2,362.2)" />
<use xlink:href="#f0_4" transform="matrix(12,0,0,12,406.3,362.2)" />
<use xlink:href="#f0_s" transform="matrix(12,0,0,12,423.7,362.2)" />
<use xlink:href="#f0_r" transform="matrix(12,0,0,12,434.7,362.2)" />
<use xlink:href="#f0_c" transform="matrix(12,0,0,12,445.5,362.2)" />
<use xlink:href="#f0_f" transform="matrix(12,0,0,12,452.7,362.2)" />
<use xlink:href="#f0_7" transform="matrix(12,0,0,12,464.3,362.2)" />
<use xlink:href="#f0_4" transform="matrix(12,0,0,12,475.5,362.2)" />
</g>
</g>
<defs>
	<path d="M149,0l0,1113l150,0L299,0Z" 
	id="f0_u"
	transform="scale(0.001,-0.001)" />

	<path d="M137.5,0l0,834.2l139,0l0,-129.9c0,0,48.9,76.4,114.6,113.1c0,0,67.2,38.2,154.3,38.2c0,0,145.2,0,218.5,-88.7c0,0,73.3,-90.1,73.3,-262.7L837.2,0L699.7,0l0,499.6c0,0,0,117.6,-45.8,175.7c0,0,-45.8,59.6,-139,59.6c0,0,-110,0,-174.2,-70.3c0,0,-64.2,-70.3,-64.2,-192.5L276.5,0Z" 
	id="f0_4"
	transform="scale(0.001,-0.001)" />

	<path d="M420.1,0c0,0,-158.8,0,-218.4,58.1c0,0,-61.1,59.5,-61.1,216.9l0,453.8l-100.9,0l0,105.4l100.9,0l0,238.3l139,0l0,-238.3l282.6,0l0,-105.4l-282.6,0l0,-453.8c0,0,0,-102.4,27.5,-131.4c0,0,27.5,-29,113,-29l142.1,0L562.2,0Z" 
	id="f0_c"
	transform="scale(0.001,-0.001)" />

	<path d="M137.5,0l0,1159.6l139,0l0,-455.3c0,0,48.9,76.4,114.6,113.1c0,0,67.2,38.2,154.3,38.2c0,0,145.2,0,218.5,-88.7c0,0,73.3,-90.1,73.3,-262.7L837.2,0L699.7,0l0,499.6c0,0,0,117.6,-45.8,175.7c0,0,-45.8,59.6,-139,59.6c0,0,-110,0,-174.2,-70.3c0,0,-64.2,-70.3,-64.2,-192.5L276.5,0Z" 
	id="f0_f"
	transform="scale(0.001,-0.001)" />

	<path d="M143,0l0,834l138,0L281,0Zm0,985l0,174l138,0l0,-174Z" 
	id="f0_d"
	transform="scale(0.001,-0.001)" />

	<path d="M375.8,-21.3c0,0,-67.2,0,-140.5,12.2c0,0,-73.4,12.2,-152.8,39.7l0,140.5c0,0,76.4,-39.7,149.7,-58c0,0,73.4,-19.9,146.7,-19.9c0,0,96.2,0,148.2,32.1c0,0,51.9,33.6,51.9,94.7c0,0,0,55,-36.6,84c0,0,-38.2,30.6,-165,58.1l-48.9,12.2c0,0,-126.8,26,-183.4,81c0,0,-56.5,56.5,-56.5,152.8c0,0,0,119.1,82.5,183.3c0,0,84,64.2,238.3,64.2c0,0,74.9,0,142.1,-10.7c0,0,67.3,-12.3,123.8,-35.2l0,-129.8c0,0,-58.1,30.5,-120.7,44.3c0,0,-62.7,15.2,-129.9,15.2c0,0,-102.3,0,-152.8,-30.5c0,0,-50.4,-32.1,-50.4,-94.7c0,0,0,-47.4,35.2,-74.9c0,0,36.6,-27.5,148.2,-51.9l45.8,-10.7c0,0,146.7,-30.6,207.8,-87.1c0,0,62.6,-58.1,62.6,-160.4c0,0,0,-116.1,-91.7,-183.4c0,0,-93.1,-67.1,-253.6,-67.1Z" 
	id="f0_g"
	transform="scale(0.001,-0.001)" />

	<path d="M137.5,0l0,834.2l139,0l0,-129.9c0,0,45.9,77.9,111.6,114.6c0,0,65.7,36.7,155.8,36.7c0,0,91.7,0,154.3,-45.9c0,0,64.2,-47.3,96.2,-135.9c0,0,50.5,93.1,122.3,137.5c0,0,71.8,44.3,168,44.3c0,0,131.4,0,201.7,-91.7c0,0,71.8,-91.7,71.8,-259.7L1358.2,0l-139,0l0,499.6c0,0,0,119.2,-41.3,177.2c0,0,-42.8,58.1,-129.8,58.1c0,0,-107,0,-168.1,-70.3c0,0,-62.6,-70.3,-62.6,-192.5L817.4,0L678.3,0l0,499.6c0,0,0,120.7,-41.2,177.2c0,0,-42.8,58.1,-131.4,58.1c0,0,-105.4,0,-166.5,-70.3c0,0,-62.7,-71.8,-62.7,-192.5L276.5,0Z" 
	id="f0_8"
	transform="scale(0.001,-0.001)" />

	<path d="M467.5,94.7c0,0,108.5,0,172.6,85.6c0,0,64.2,87.1,64.2,235.3c0,0,0,149.7,-64.2,235.2c0,0,-64.1,87.1,-172.6,87.1c0,0,-111.5,0,-175.7,-85.5c0,0,-64.2,-85.6,-64.2,-236.8c0,0,0,-149.8,64.2,-235.3c0,0,64.2,-85.6,175.7,-85.6Zm0,-116c0,0,-180.3,0,-281.1,116C186.4,94.7,84,210.8,84,415.6c0,0,0,206.2,100.9,322.3c0,0,102.3,117.7,282.6,117.7c0,0,178.8,0,281.1,-116.2c0,0,102.4,-117.6,102.4,-323.8c0,0,0,-204.8,-102.4,-320.9c0,0,-102.3,-116,-281.1,-116Z" 
	id="f0_7"
	transform="scale(0.001,-0.001)" />

	<path d="M458.3,93.2c0,0,110,0,172.7,85.6c0,0,62.6,85.5,62.6,236.8c0,0,0,152.7,-62.6,238.3c0,0,-62.7,85.5,-172.7,85.5c0,0,-108.4,0,-171.1,-85.5c0,0,-62.6,-85.6,-62.6,-238.3c0,0,0,-151.3,62.6,-236.8c0,0,62.7,-85.6,171.1,-85.6ZM424.7,-21.3c0,0,-151.2,0,-245.9,120.6C178.8,99.3,84,220,84,415.6c0,0,0,197,94.8,317.7c0,0,94.7,122.3,245.9,122.3c0,0,93.2,0,158.9,-36.7c0,0,65.7,-36.7,110,-111.5l0,452.2l136,0L829.6,0l-136,0l0,125.3c0,0,-44.3,-74.9,-110,-110c0,0,-65.7,-36.6,-158.9,-36.6Z" 
	id="f0_h"
	transform="scale(0.001,-0.001)" />

	<path d="M421.7,-21.3c0,0,-143.6,0,-218.5,88.5L128.3,328.5l0,505.7l137.5,0l0,-499.6c0,0,0,-119.2,45.9,-178.8c0,0,47.3,-59.5,139,-59.5c0,0,111.5,0,175.7,70.2c0,0,65.7,71.8,65.7,194.1l0,473.6l136,0L828.1,0l-136,0l0,126.8c0,0,-50.4,-74.9,-116.1,-111.5c0,0,-67.2,-36.6,-154.3,-36.6Z" 
	id="f0_i"
	transform="scale(0.001,-0.001)" />

	<path d="M143,0l0,1159l138,0L281,0Z" 
	id="f0_a"
	transform="scale(0.001,-0.001)" />

	<path d="M230.7,490.4l490.4,1.5c0,0,-1.5,111.6,-62.6,178.8c0,0,-62.7,67.2,-163.5,67.2c0,0,-114.6,0,-183.3,-64.1c0,0,-70.3,-65.7,-81,-183.4ZM516.4,-21.3c0,0,-198.6,0,-314.7,116C201.7,94.7,84,210.8,84,409.4c0,0,0,204.8,110,325.5c0,0,111.6,120.7,299.5,120.7c0,0,168,0,265.8,-108.5c0,0,99.3,-110,99.3,-296.4l0,-67.2l-632.5,0c0,0,9.2,-140.6,85.6,-213.9c0,0,76.4,-74.9,213.9,-74.9c0,0,77.9,0,152.7,18.4c0,0,74.9,19.8,148.2,58l0,-129.8c0,0,-74.8,-30.6,-151.2,-45.8c0,0,-77.9,-16.8,-158.9,-16.8Z" 
	id="f0_b"
	transform="scale(0.001,-0.001)" />

	<path d="M282.6,0L62.6,834.2l137.5,0L372.8,183.3L542.4,834.2l161.9,0L876.9,183.3l171.2,650.9l135.9,0L965.6,0l-162,0L624.9,684.4L444.6,0Z" 
	id="f0_12"
	transform="scale(0.001,-0.001)" />

	<path d="M407.9,93.2c0,0,113.1,0,181.8,79.4c0,0,70.3,81,70.3,215.5l0,30.5l-137.5,0c0,0,-166.5,0,-230.7,-36.7c0,0,-64.2,-38.1,-64.2,-129.8c0,0,0,-73.3,47.4,-116.1c0,0,48.9,-42.8,132.9,-42.8ZM371.3,-21.3c0,0,-128.4,0,-203.2,71.7c0,0,-76.4,71.8,-76.4,192.5c0,0,0,140.6,93.2,212.4c0,0,94.7,71.8,282.6,71.8l192.5,0l0,13.7c0,0,0,94.8,-62.6,145.2c0,0,-62.7,51.9,-175.7,51.9c0,0,-71.8,0,-139.1,-16.8c0,0,-67.2,-16.8,-129.8,-51.9l0,126.8c0,0,74.8,30.5,145.1,44.3c0,0,71.8,15.3,139,15.3c0,0,180.3,0,268.9,-93.2c0,0,90.2,-94.8,90.2,-285.7L796,0L660,0l0,126.8c0,0,-47.4,-76.4,-117.6,-111.5c0,0,-70.3,-36.6,-171.1,-36.6Z" 
	id="f0_k"
	transform="scale(0.001,-0.001)" />

	<path d="M357.5,0L44.3,834.2l145.1,0L450.7,132.9L711.9,834.2l146.7,0L543.9,0Z" 
	id="f0_q"
	transform="scale(0.001,-0.001)" />

	<path d="M137.5,0l0,834.2l139,0l0,-129.9c0,0,42.8,76.4,111.6,113.1c0,0,70.2,38.2,169.5,38.2c0,0,13.8,0,30.6,-1.6c0,0,16.8,-3,38.2,-6.1l1.5,-142.1c0,0,-24.4,13.8,-50.4,19.9c0,0,-27.5,6.1,-61.1,6.1c0,0,-116.1,0,-177.2,-74.9c0,0,-62.7,-76.3,-62.7,-216.9l0,-440Z" 
	id="f0_l"
	transform="scale(0.001,-0.001)" />

	<path d="M178,0l0,189l158,0L336,0Zm0,600l0,189l158,0l0,-189Z" 
	id="f0_n"
	transform="scale(0.001,-0.001)" />

	<path d="M264.3,297.9c0,0,-42.8,0,-79.4,16.8c0,0,-36.7,16.8,-64.2,44.3c0,0,-29,29.1,-44.3,67.3c0,0,-16.8,38.1,-16.8,82.5c0,0,0,41.2,15.3,77.9c0,0,16.8,38.2,44.3,65.7c0,0,29,27.5,65.7,42.7c0,0,36.6,16.8,79.4,16.8c0,0,42.8,0,81,-15.2c0,0,38.2,-16.8,65.7,-44.3c0,0,29,-27.5,45.8,-64.2c0,0,16.8,-38.2,16.8,-79.4c0,0,0,-44.4,-16.8,-82.5c0,0,-16.8,-38.2,-44.3,-65.7c0,0,-29,-29.1,-67.2,-45.9c0,0,-38.2,-16.8,-81,-16.8Z" 
	id="f1_q"
	transform="scale(0.001,-0.001)" />

	<path d="M458.3,114.6c0,0,111.6,0,172.7,81c0,0,62.6,82.5,62.6,230.7c0,0,0,149.7,-61.1,230.6c0,0,-62.6,82.5,-174.2,82.5c0,0,-110,0,-171.1,-80.9c0,0,-62.6,-82.5,-62.6,-232.2c0,0,0,-148.2,61.1,-229.2c0,0,62.6,-82.5,172.6,-82.5ZM444.6,-317.7c0,0,-71.8,0,-136,10.7c0,0,-64.2,12.2,-123.7,33.6l0,134.5c0,0,59.5,-33.6,117.6,-48.9c0,0,59.6,-15.3,120.7,-15.3c0,0,136,0,203.2,70.3c0,0,67.2,70.3,67.2,210.7l0,68.8c0,0,-42.8,-74.9,-108.5,-110C585.1,36.7,517.9,0,424.7,0c0,0,-152.8,0,-245.9,116.1c0,0,-94.8,117.7,-94.8,310.2c0,0,0,194,93.2,311.6c0,0,94.7,117.7,247.5,117.7c0,0,93.2,0,158.9,-36.7c0,0,67.2,-36.7,110,-111.5l0,126.8l136,0l0,-731.8c0,0,0,-210.8,-94.7,-314.7c0,0,-94.8,-105.4,-290.3,-105.4Z" 
	id="f0_x"
	transform="scale(0.001,-0.001)" />

	<path d="M488.9,571.4c0,0,105.4,0,161.9,53.5c0,0,58.1,55,58.1,155.8c0,0,0,99.3,-56.5,152.8c0,0,-58.1,55,-163.5,55l-189.5,0l0,-417.1ZM149.7,0l0,1113.8l339.2,0c0,0,187.9,0,282.6,-84.1c0,0,96.3,-85.5,96.3,-249c0,0,0,-165,-94.7,-249c0,0,-96.3,-85.6,-284.2,-85.6l-189.5,0L299.4,0Z" 
	id="f0_s"
	transform="scale(0.001,-0.001)" />

	<path d="M120.7,-317.7l0,116.1l79.4,0c0,0,56.6,0,87.1,26c0,0,32.1,27.5,70.3,126.8l24.4,61L44.3,834.2l145.1,0L450.7,181.8L711.9,834.2l146.7,0L490.4,-76.3c0,0,-58,-149.7,-113,-195.5c0,0,-55,-45.9,-148.2,-45.9Z" 
	id="f0_r"
	transform="scale(0.001,-0.001)" />

	<path d="M508.8,93.2c0,0,110,0,171.1,85.6c0,0,62.6,85.5,62.6,236.8c0,0,0,152.7,-61.1,238.3c0,0,-62.6,85.5,-172.6,85.5c0,0,-108.5,0,-169.6,-85.5c0,0,-62.7,-85.6,-62.7,-238.3c0,0,0,-151.3,61.1,-236.8c0,0,62.7,-85.6,171.2,-85.6ZM137.5,-317.7l0,1151.9l139,0l0,-126.8c0,0,42.8,74.8,108.5,111.5c0,0,65.7,36.7,157.4,36.7c0,0,152.7,0,247.5,-120.7c0,0,96.2,-122.3,96.2,-319.3c0,0,0,-195.6,-94.7,-316.3c0,0,-96.3,-120.6,-249,-120.6c0,0,-91.7,0,-157.4,35.1c0,0,-65.7,36.6,-108.5,111.5l0,-443Z" 
	id="f0_9"
	transform="scale(0.001,-0.001)" />

	<path d="M495,-21.3c0,0,-189.4,0,-299.4,117.6C195.6,96.3,84,215.4,84,415.6c0,0,0,204.7,111.6,322.3c0,0,113,117.7,308.6,117.7c0,0,62.6,0,122.2,-13.8c0,0,61.1,-13.7,117.6,-39.7l0,-128.3c0,0,-58,32,-116.1,47.3c0,0,-58,16.8,-119.1,16.8c0,0,-133,0,-206.3,-84c0,0,-74.9,-84,-74.9,-238.3c0,0,0,-152.8,73.4,-236.8c0,0,74.8,-84.1,207.8,-84.1c0,0,61.1,0,119.1,15.3c0,0,58.1,16.8,116.1,48.9L744,30.6c0,0,-56.5,-26,-117.6,-38.1c0,0,-62.6,-13.8,-131.4,-13.8Z" 
	id="f0_6"
	transform="scale(0.001,-0.001)" />

	<path d="M601.9,99.3c0,0,163.5,0,258.2,122.2c0,0,96.3,123.8,96.3,333.1c0,0,0,210.8,-94.7,333c0,0,-96.3,123.8,-259.8,123.8c0,0,-165,0,-261.2,-122.2c0,0,-96.3,-123.8,-96.3,-334.6c0,0,0,-209.3,96.3,-331.5c0,0,96.2,-123.8,261.2,-123.8Zm0,-120.6c0,0,-235.2,0,-375.8,155.7c0,0,-140.5,155.9,-140.5,420.2c0,0,0,264.3,140.5,421.7c0,0,140.6,157.3,375.8,157.3c0,0,233.8,0,372.8,-157.3c0,0,140.6,-157.4,140.6,-421.7c0,0,0,-262.8,-139,-418.6c0,0,-140.6,-157.3,-374.4,-157.3Z" 
	id="f0_3"
	transform="scale(0.001,-0.001)" />

	<path d="M508.8,93.2c0,0,110,0,171.1,85.6c0,0,62.6,85.5,62.6,236.8c0,0,0,152.7,-61.1,238.3c0,0,-62.6,85.5,-172.6,85.5c0,0,-108.5,0,-169.6,-85.5c0,0,-62.7,-85.6,-62.7,-238.3c0,0,0,-151.3,61.1,-236.8c0,0,62.7,-85.6,171.2,-85.6ZM542.4,-21.3c0,0,-91.7,0,-157.4,35.1c0,0,-65.7,36.6,-108.5,111.5L276.5,0l-139,0l0,1159.6l139,0l0,-452.2c0,0,42.8,74.8,108.5,111.5c0,0,65.7,36.7,157.4,36.7c0,0,152.7,0,247.5,-120.7c0,0,96.2,-122.3,96.2,-319.3c0,0,0,-195.6,-94.7,-316.3c0,0,-96.3,-120.6,-249,-120.6Z" 
	id="f0_m"
	transform="scale(0.001,-0.001)" />

	<path d="M165,0l0,728.8l-131.4,0l0,105.4l131.4,0l0,58c0,0,0,140.6,64.2,203.2c0,0,65.7,64.2,207.7,64.2l129.9,0l0,-113.1l-131.4,0c0,0,-74.8,0,-102.3,-30.5c0,0,-29.1,-30.6,-29.1,-107l0,-74.8l226.1,0l0,-105.4l-226.1,0L304,0Z" 
	id="f0_e"
	transform="scale(0.001,-0.001)" />

	<path d="M629.4,-21.3c0,0,-253.6,0,-398.7,154.2c0,0,-145.1,154.3,-145.1,421.7c0,0,0,268.9,145.1,423.2c0,0,145.1,155.8,398.7,155.8c0,0,99.4,0,188,-26c0,0,88.6,-27.5,166.5,-80.9l0,-158.9c0,0,-76.4,71.8,-162,106.9c0,0,-87,35.2,-184.8,35.2c0,0,-191,0,-291.8,-116.1c0,0,-100.9,-117.7,-100.9,-339.2c0,0,0,-220,100.9,-336.1c0,0,100.8,-117.7,291.8,-117.7c0,0,97.8,0,183.3,35.2c0,0,87.1,35.1,163.5,106.9l0,-157.3c0,0,-79.5,-55,-168.1,-81c0,0,-88.6,-25.9,-186.4,-25.9Z" 
	id="f0_15"
	transform="scale(0.001,-0.001)" />

	<path d="M0,-140.5L386.5,1113.8l126.8,0L126.8,-140.5Z" 
	id="f0_1l"
	transform="scale(0.001,-0.001)" />

	<path d="M559.2,-21.3c0,0,-210.9,0,-319.3,109.9c0,0,-108.5,111.5,-108.5,328.5l0,696.7l152.8,0l0,-676.9c0,0,0,-180.2,64.1,-258.1c0,0,64.2,-79.5,210.9,-79.5c0,0,143.6,0,207.7,77.9c0,0,65.7,79.5,65.7,259.7l0,676.9l152.8,0l0,-696.7c0,0,0,-217,-108.5,-327c0,0,-108.4,-111.4,-317.7,-111.4Z" 
	id="f0_p"
	transform="scale(0.001,-0.001)" />

	<path d="M481.3,123.8c0,0,230.6,0,337.6,103.8c0,0,106.9,103.9,106.9,330c0,0,0,223.1,-106.9,327c0,0,-107,103.9,-337.6,103.9l-181.9,0l0,-864.7ZM149.7,0l0,1113.8l308.6,0c0,0,323.9,0,475.2,-134.5c0,0,151.2,-136,151.2,-421.7c0,0,0,-288.7,-151.2,-423.2C933.5,134.4,780.7,0,458.3,0Z" 
	id="f0_16"
	transform="scale(0.001,-0.001)" />

	<path d="M488.9,594.3c0,0,110,0,165,50.4c0,0,55,50.4,55,148.2c0,0,0,97.8,-55,146.7c0,0,-55,48.9,-165,48.9l-189.5,0l0,-394.2ZM149.7,0l0,1113.8l339.2,0c0,0,191,0,284.2,-79.5c0,0,94.7,-81,94.7,-241.4c0,0,0,-105.4,-48.9,-174.1c0,0,-48.9,-70.3,-142.1,-97.8c0,0,48.9,-15.3,94.7,-68.8c0,0,45.9,-55,91.7,-148.2L1017.5,0L855.6,0L711.9,285.7c0,0,-55,111.5,-106.9,148.2c0,0,-51.9,36.7,-140.6,36.7l-165,0L299.4,0Z" 
	id="f0_1u"
	transform="scale(0.001,-0.001)" />

	<path d="M149,0l0,1113l150,0l0,-457l548,0l0,457l150,0L997,0L847,0l0,530l-548,0L299,0Z" 
	id="f0_18"
	transform="scale(0.001,-0.001)" />

	<path d="M42.8,0L368.2,436.9L70.3,834.2l161.9,0L453.8,537.8L675.3,834.2l161.9,0L536.3,427.8L854,0L692.1,0L447.6,326.9L204.7,0Z" 
	id="f0_v"
	transform="scale(0.001,-0.001)" />


</defs>
</svg>