<?xml version="1.0" encoding="UTF-8" standalone="no"?>
<!DOCTYPE svg PUBLIC "-//W3C//DTD SVG 1.1//EN"
"http://www.w3.org/Graphics/SVG/1.1/DTD/svg11.dtd">
<svg viewBox="0 0 1100 825" version="1.1" xmlns="http://www.w3.org/2000/svg" xmlns:xlink="http://www.w3.org/1999/xlink">
<defs>
<style type="text/css"><![CDATA[
.g2_11{
fill: none;
stroke: #418AB3;
stroke-width: 2;
stroke-linecap: butt;
stroke-linejoin: miter;
stroke-miterlimit: 7;
}
.g1_11{
fill: #FFFFFF;
}
]]></style>
</defs>
<path fill-rule="evenodd" d="M0,0L1100,0l0,825L0,825L0,0Z" class="g1_11" />
<path fill-rule="evenodd" d="M0,0L1100,0l0,825L0,825L0,0Z" class="g1_11" />
<path fill-rule="evenodd" d="M905.1,19.6l0,-0.4l0.1,-0.3l0,-0.3l0,-0.3L905.4,18l0,-0.3l0.1,-0.1l0.2,-0.3l0,-0.3l0.1,-0.3L906,16.5l0.1,-0.3L906.4,16l0.2,-0.3l0.1,-0.1l0.2,-0.2l0.3,-0.3L907.3,15l0.4,-0.2L908,14.7l0.1,-0.2l0.3,-0.1l0.3,0l0.2,-0.2l0.3,-0.1l0.3,0l0.3,0l0.3,0l0.3,-0.2l0.3,0l167.6,0l0.3,0l0.3,0.2l0.3,0l0.2,0l0.3,0.1l0.3,0l0.3,0.2l0.3,0l0.2,0.1l0.3,0.2l0.3,0.1l0.1,0.2l0.3,0.1l0.2,0.3l0.1,0.2l0.3,0.1l0.2,0.3l0.1,0.2l0.2,0.3l0.1,0.2l0.2,0.3l0.1,0.3l0.2,0.3l0,0.3l0.2,0.1l0,0.3l0,0.3l0.1,0.3l0,0.3l0,0.4l0.2,22.1l-0.2,0l0,0.3l0,0.3l0,0.3l-0.1,0.2l0,0.3l-0.2,0.3l0,0.3l-0.2,0.3l-0.1,0.2l-0.2,0.3l-0.1,0.3l-0.2,0.1l-0.1,0.3l-0.2,0.2l-0.3,0.1l-0.1,0.3l-0.2,0.2l-0.3,0.1l-0.1,0.2l-0.3,0.1l-0.3,0.2l-0.2,0.2l-0.3,0.1l-0.3,0l-0.3,0.2l-0.3,0l-0.2,0l-0.3,0.1l-0.3,0l-0.3,0L910.7,47.4l0,-0.2l-0.3,0l-0.3,0l-0.3,0l-0.3,-0.1l-0.3,0l-0.3,0l-0.2,-0.2l-0.3,-0.1l-0.3,-0.2L908,46.4l-0.3,-0.1l-0.4,-0.2L907.2,46l-0.3,-0.2l-0.2,-0.1l-0.1,-0.3l-0.2,-0.2l-0.3,-0.3L906,44.8l-0.2,-0.3l-0.1,-0.3l0,-0.2l-0.2,-0.3l-0.1,-0.3l0,-0.3l-0.2,-0.2l0,-0.3l0,-0.3L905.1,42l0,-0.3l0,-22.1Z" class="g1_11" />
<path d="M905.1,19.6l0,-0.4l0.1,-0.3l0,-0.3l0,-0.3L905.4,18l0,-0.3l0.1,-0.1l0.2,-0.3l0,-0.3l0.1,-0.3L906,16.5l0.1,-0.3L906.4,16l0.2,-0.3l0.1,-0.1l0.2,-0.2l0.3,-0.3L907.3,15l0.4,-0.2L908,14.7l0.1,-0.2l0.3,-0.1l0.3,0l0.2,-0.2l0.3,-0.1l0.3,0l0.3,0l0.3,0l0.3,-0.2l0.3,0l167.6,0l0.3,0l0.3,0.2l0.3,0l0.2,0l0.3,0.1l0.3,0l0.3,0.2l0.3,0l0.2,0.1l0.3,0.2l0.3,0.1l0.1,0.2l0.3,0.1l0.2,0.3l0.1,0.2l0.3,0.1l0.2,0.3l0.1,0.2l0.2,0.3l0.1,0.2l0.2,0.3l0.1,0.3l0.2,0.3l0,0.3l0.2,0.1l0,0.3l0,0.3l0.1,0.3l0,0.3l0,0.4l0.2,22.1l-0.2,0l0,0.3l0,0.3l0,0.3l-0.1,0.2l0,0.3l-0.2,0.3l0,0.3l-0.2,0.3l-0.1,0.2l-0.2,0.3l-0.1,0.3l-0.2,0.1l-0.1,0.3l-0.2,0.2l-0.3,0.1l-0.1,0.3l-0.2,0.2l-0.3,0.1l-0.1,0.2l-0.3,0.1l-0.3,0.2l-0.2,0.2l-0.3,0.1l-0.3,0l-0.3,0.2l-0.3,0l-0.2,0l-0.3,0.1l-0.3,0l-0.3,0L910.7,47.4l0,-0.2l-0.3,0l-0.3,0l-0.3,0l-0.3,-0.1l-0.3,0l-0.3,0l-0.2,-0.2l-0.3,-0.1l-0.3,-0.2L908,46.4l-0.3,-0.1l-0.4,-0.2L907.2,46l-0.3,-0.2l-0.2,-0.1l-0.1,-0.3l-0.2,-0.2l-0.3,-0.3L906,44.8l-0.2,-0.3l-0.1,-0.3l0,-0.2l-0.2,-0.3l-0.1,-0.3l0,-0.3l-0.2,-0.2l0,-0.3l0,-0.3L905.1,42l0,-0.3l0,-22.1Z" class="g2_11" />
</svg>