<?xml version="1.0" encoding="UTF-8" standalone="no"?>
<!DOCTYPE svg PUBLIC "-//W3C//DTD SVG 1.1//EN"
"http://www.w3.org/Graphics/SVG/1.1/DTD/svg11.dtd">
<svg viewBox="0 0 1210 1210" version="1.1" xmlns="http://www.w3.org/2000/svg" xmlns:xlink="http://www.w3.org/1999/xlink">
<defs>
<style type="text/css"><![CDATA[
.g2_109{
fill: none;
stroke: #0000EE;
stroke-width: 2;
stroke-linecap: butt;
stroke-linejoin: miter;
}
.g3_109{
fill: none;
stroke: #418AB3;
stroke-width: 2;
stroke-linecap: butt;
stroke-linejoin: miter;
stroke-miterlimit: 7;
}
.g1_109{
fill: #FFFFFF;
}
]]></style>
</defs>
<path fill-rule="evenodd" d="M0,0L1210,0l0,1210L0,1210L0,0Z" class="g1_109" />
<path fill-rule="evenodd" d="M0,0L1210,0l0,1210L0,1210L0,0Z" class="g1_109" />
<path d="M206,382l56,0" class="g2_109" />
<path d="M262,382l493,0" class="g2_109" />
<path fill-rule="evenodd" d="M238.3,255.1l0,-0.9l0,-0.9l0.2,-0.9l0.1,-0.8l0.2,-0.9l0.3,-0.8l0.3,-0.9l0.3,-0.7l0.5,-0.8l0.3,-0.8l0.4,-0.7l0.6,-0.8l0.5,-0.8l0.6,-0.6l0.6,-0.6l0.6,-0.6l0.6,-0.6l0.8,-0.5l0.8,-0.6l0.7,-0.4l0.8,-0.3l0.8,-0.5l0.7,-0.3l0.9,-0.3l0.8,-0.3l0.9,-0.2l0.8,-0.1l0.9,-0.2l0.9,0l0.9,0l736.3,0l0.9,0l0.9,0l0.9,0.2l0.8,0.1l0.9,0.2l0.8,0.3l0.9,0.3l0.8,0.3l0.7,0.5l0.8,0.3l0.7,0.4l0.8,0.6l0.8,0.5l0.6,0.6l0.6,0.6l0.6,0.6l0.6,0.6l0.5,0.8l0.4,0.8l0.5,0.7l0.4,0.8l0.5,0.8l0.3,0.7l0.3,0.9l0.2,0.8l0.3,0.9l0.1,0.8l0,0.9l0.2,0.9l0,0.9l0.1,67.1l-0.1,0l0,0.9l0,0.9l-0.2,1l-0.1,0.7l-0.2,0.9l-0.3,0.8l-0.3,0.9l-0.3,0.8l-0.5,0.7l-0.3,0.8l-0.6,0.8l-0.4,0.7l-0.5,0.6l-0.6,0.8l-0.6,0.6l-0.6,0.6l-0.6,0.6l-0.8,0.5l-0.8,0.5l-0.7,0.4l-0.8,0.5l-0.7,0.4l-0.8,0.3l-0.9,0.4l-0.8,0.1l-0.9,0.3l-0.8,0.2l-0.9,0l-0.9,0.1l-0.9,0l-736.3,0.2l0,-0.2l-0.9,0l-0.9,0l-0.9,-0.1l-0.8,-0.2l-0.9,-0.1l-0.8,-0.3L249,337.9l-0.7,-0.3l-0.8,-0.4l-0.8,-0.3L246,336.3l-0.8,-0.5l-0.8,-0.5l-0.6,-0.6l-0.6,-0.6l-0.6,-0.6L242,332.7l-0.5,-0.6l-0.6,-0.7l-0.4,-0.8l-0.3,-0.8l-0.5,-0.7l-0.3,-0.8l-0.3,-0.9l-0.3,-0.8l-0.2,-0.9L238.5,325l-0.2,-1l0,-0.9l0,-0.9l0,-67.1Z" class="g1_109" />
<path d="M238.3,255.1l0,-0.9l0,-0.9l0.2,-0.9l0.1,-0.8l0.2,-0.9l0.3,-0.8l0.3,-0.9l0.3,-0.7l0.5,-0.8l0.3,-0.8l0.4,-0.7l0.6,-0.8l0.5,-0.8l0.6,-0.6l0.6,-0.6l0.6,-0.6l0.6,-0.6l0.8,-0.5l0.8,-0.6l0.7,-0.4l0.8,-0.3l0.8,-0.5l0.7,-0.3l0.9,-0.3l0.8,-0.3l0.9,-0.2l0.8,-0.1l0.9,-0.2l0.9,0l0.9,0l736.3,0l0.9,0l0.9,0l0.9,0.2l0.8,0.1l0.9,0.2l0.8,0.3l0.9,0.3l0.8,0.3l0.7,0.5l0.8,0.3l0.7,0.4l0.8,0.6l0.8,0.5l0.6,0.6l0.6,0.6l0.6,0.6l0.6,0.6l0.5,0.8l0.4,0.8l0.5,0.7l0.4,0.8l0.5,0.8l0.3,0.7l0.3,0.9l0.2,0.8l0.3,0.9l0.1,0.8l0,0.9l0.2,0.9l0,0.9l0.1,67.1l-0.1,0l0,0.9l0,0.9l-0.2,1l-0.1,0.7l-0.2,0.9l-0.3,0.8l-0.3,0.9l-0.3,0.8l-0.5,0.7l-0.3,0.8l-0.6,0.8l-0.4,0.7l-0.5,0.6l-0.6,0.8l-0.6,0.6l-0.6,0.6l-0.6,0.6l-0.8,0.5l-0.8,0.5l-0.7,0.4l-0.8,0.5l-0.7,0.4l-0.8,0.3l-0.9,0.4l-0.8,0.1l-0.9,0.3l-0.8,0.2l-0.9,0l-0.9,0.1l-0.9,0l-736.3,0.2l0,-0.2l-0.9,0l-0.9,0l-0.9,-0.1l-0.8,-0.2l-0.9,-0.1l-0.8,-0.3L249,337.9l-0.7,-0.3l-0.8,-0.4l-0.8,-0.3L246,336.3l-0.8,-0.5l-0.8,-0.5l-0.6,-0.6l-0.6,-0.6l-0.6,-0.6L242,332.7l-0.5,-0.6l-0.6,-0.7l-0.4,-0.8l-0.3,-0.8l-0.5,-0.7l-0.3,-0.8l-0.3,-0.9l-0.3,-0.8l-0.2,-0.9L238.5,325l-0.2,-1l0,-0.9l0,-0.9l0,-67.1Z" class="g3_109" />
<path d="M316,314l471,0" class="g2_109" />
</svg>