<?xml version="1.0" encoding="UTF-8" standalone="no"?>
<!DOCTYPE svg PUBLIC "-//W3C//DTD SVG 1.1//EN"
"http://www.w3.org/Graphics/SVG/1.1/DTD/svg11.dtd">
<svg viewBox="0 0 1210 1210" version="1.1" xmlns="http://www.w3.org/2000/svg" xmlns:xlink="http://www.w3.org/1999/xlink">
<defs>
<style type="text/css"><![CDATA[
.g2_105{
fill: none;
stroke: #418AB3;
stroke-width: 2;
stroke-linecap: butt;
stroke-linejoin: miter;
stroke-miterlimit: 7;
}
.g3_105{
fill: none;
stroke: #0000EE;
stroke-width: 2;
stroke-linecap: butt;
stroke-linejoin: miter;
}
.g1_105{
fill: #FFFFFF;
}
]]></style>
</defs>
<path fill-rule="evenodd" d="M0,0L1210,0l0,1210L0,1210L0,0Z" class="g1_105" />
<path fill-rule="evenodd" d="M0,0L1210,0l0,1210L0,1210L0,0Z" class="g1_105" />
<path fill-rule="evenodd" d="M192.5,161.5l0,-0.8l0.2,-0.7l0,-0.8l0.1,-0.8l0.2,-0.7l0.3,-0.8l0.3,-0.8l0.3,-0.7l0.1,-0.6l0.5,-0.8l0.4,-0.6l0.5,-0.6l0.5,-0.6l0.4,-0.6l0.5,-0.7l0.6,-0.4l0.6,-0.6l0.6,-0.3l0.6,-0.6l0.8,-0.3l0.6,-0.5l0.8,-0.3l0.6,-0.3l0.7,-0.2l0.8,-0.3l0.8,-0.1l0.7,-0.2l0.8,-0.1l0.8,0l0.7,0l717.5,0l0.7,0l0.8,0l0.8,0.1l0.7,0.2l0.8,0.1l0.7,0.3l0.7,0.2l0.7,0.3l0.6,0.4l0.8,0.4l0.6,0.4l0.8,0.5l0.4,0.4l0.6,0.5l0.7,0.4l0.6,0.7l0.4,0.6l0.5,0.6l0.4,0.6l0.3,0.8l0.5,0.6l0.3,0.7l0.3,0.6l0.3,0.8l0.2,0.8l0.1,0.7l0.2,0.8l0.1,0.8l0,0.7l0,0.8l0.2,59.6l0,0.7l-0.2,0.8l0,0.8l-0.1,0.7l-0.2,0.8l-0.3,0.8l-0.1,0.7l-0.3,0.6l-0.5,0.8l-0.3,0.6l-0.5,0.8l-0.4,0.6l-0.5,0.6l-0.4,0.6l-0.6,0.5l-0.5,0.6l-0.6,0.4l-0.6,0.5l-0.6,0.4l-0.8,0.5l-0.6,0.3l-0.8,0.3l-0.7,0.3l-0.7,0.3l-0.7,0.2l-0.8,0.3l-0.7,0.1l-0.8,0l-0.8,0.2l-0.7,0l-717.5,0l-0.7,0l-0.8,0L205,235.7l-0.7,-0.1l-0.8,-0.2l-0.8,-0.3L202,235l-0.6,-0.3l-0.8,-0.3L200,233.9l-0.8,-0.3l-0.6,-0.5L198,232.5l-0.6,-0.4l-0.6,-0.5L196.3,231l-0.4,-0.6l-0.5,-0.6l-0.5,-0.6l-0.4,-0.6L194,227.8L193.9,227l-0.3,-0.6l-0.3,-0.7L193,224.9l-0.2,-0.8l-0.1,-0.7l0,-0.8l-0.2,-0.8l0,-0.7l0,-59.6Z" class="g1_105" />
<path d="M192.5,161.5l0,-0.8l0.2,-0.7l0,-0.8l0.1,-0.8l0.2,-0.7l0.3,-0.8l0.3,-0.8l0.3,-0.7l0.1,-0.6l0.5,-0.8l0.4,-0.6l0.5,-0.6l0.5,-0.6l0.4,-0.6l0.5,-0.7l0.6,-0.4l0.6,-0.6l0.6,-0.3l0.6,-0.6l0.8,-0.3l0.6,-0.5l0.8,-0.3l0.6,-0.3l0.7,-0.2l0.8,-0.3l0.8,-0.1l0.7,-0.2l0.8,-0.1l0.8,0l0.7,0l717.5,0l0.7,0l0.8,0l0.8,0.1l0.7,0.2l0.8,0.1l0.7,0.3l0.7,0.2l0.7,0.3l0.6,0.4l0.8,0.4l0.6,0.4l0.8,0.5l0.4,0.4l0.6,0.5l0.7,0.4l0.6,0.7l0.4,0.6l0.5,0.6l0.4,0.6l0.3,0.8l0.5,0.6l0.3,0.7l0.3,0.6l0.3,0.8l0.2,0.8l0.1,0.7l0.2,0.8l0.1,0.8l0,0.7l0,0.8l0.2,59.6l0,0.7l-0.2,0.8l0,0.8l-0.1,0.7l-0.2,0.8l-0.3,0.8l-0.1,0.7l-0.3,0.6l-0.5,0.8l-0.3,0.6l-0.5,0.8l-0.4,0.6l-0.5,0.6l-0.4,0.6l-0.6,0.5l-0.5,0.6l-0.6,0.4l-0.6,0.5l-0.6,0.4l-0.8,0.5l-0.6,0.3l-0.8,0.3l-0.7,0.3l-0.7,0.3l-0.7,0.2l-0.8,0.3l-0.7,0.1l-0.8,0l-0.8,0.2l-0.7,0l-717.5,0l-0.7,0l-0.8,0L205,235.7l-0.7,-0.1l-0.8,-0.2l-0.8,-0.3L202,235l-0.6,-0.3l-0.8,-0.3L200,233.9l-0.8,-0.3l-0.6,-0.5L198,232.5l-0.6,-0.4l-0.6,-0.5L196.3,231l-0.4,-0.6l-0.5,-0.6l-0.5,-0.6l-0.4,-0.6L194,227.8L193.9,227l-0.3,-0.6l-0.3,-0.7L193,224.9l-0.2,-0.8l-0.1,-0.7l0,-0.8l-0.2,-0.8l0,-0.7l0,-59.6Z" class="g2_105" />
<path d="M269,216l66,0" class="g3_105" />
<path d="M335,216l378,0" class="g3_105" />
<path d="M713,216l6,0" class="g3_105" />
</svg>