<?xml version="1.0" encoding="UTF-8" standalone="no"?>
<!DOCTYPE svg PUBLIC "-//W3C//DTD SVG 1.1//EN"
"http://www.w3.org/Graphics/SVG/1.1/DTD/svg11.dtd">
<svg viewBox="0 0 1210 1210" version="1.1" xmlns="http://www.w3.org/2000/svg" xmlns:xlink="http://www.w3.org/1999/xlink">
<defs>
<style type="text/css"><![CDATA[
.g2_1{
fill: none;
stroke: #418AB3;
stroke-width: 2;
stroke-linecap: butt;
stroke-linejoin: miter;
stroke-miterlimit: 7;
}
.g1_1{
fill: #FFFFFF;
}
]]></style>
</defs>
<path fill-rule="evenodd" d="M0,0L1210,0l0,1210L0,1210L0,0Z" class="g1_1" />
<path fill-rule="evenodd" d="M0,0L1210,0l0,1210L0,1210L0,0Z" class="g1_1" />
<path fill-rule="evenodd" d="M935,25.1l0,-0.3l0,-0.5l0,-0.5l0.2,-0.3l0,-0.4l0.1,-0.3l0.2,-0.5L935.6,22l0.2,-0.3l0.1,-0.5l0.3,-0.3l0.2,-0.3l0.3,-0.3L936.8,20l0.3,-0.3l0.3,-0.3l0.3,-0.2l0.4,-0.3l0.3,-0.3l0.4,-0.1l0.3,-0.2l0.3,-0.1L939.7,18l0.5,-0.1l0.5,-0.2l0.3,0l0.4,-0.1l0.3,0l0.5,0l0.3,0l240.5,0l0.4,0l0.5,0l0.3,0l0.4,0.1l0.3,0l0.5,0.2l0.3,0.1l0.5,0.2l0.3,0.1l0.3,0.2l0.3,0.3l0.3,0.1l0.4,0.3l0.2,0.2l0.3,0.3l0.3,0.3l0.3,0.3l0.2,0.3l0.3,0.3l0.1,0.3l0.2,0.5l0.1,0.3l0.2,0.5l0.1,0.3l0.2,0.3l0.1,0.4l0,0.3l0,0.5l0.2,0.5l0,0.3l0,30.4l0,0.3l0,0.4l-0.2,0.3l0,0.5l-0.1,0.3l-0.2,0.4l0,0.4l-0.1,0.4l-0.2,0.3l-0.3,0.3l-0.1,0.3l-0.3,0.3l-0.2,0.5l-0.3,0.1l-0.3,0.4l-0.1,0.3l-0.4,0.3l-0.3,0.3l-0.4,0.1l-0.3,0.2l-0.3,0.1l-0.3,0.3l-0.5,0l-0.3,0.2l-0.5,0.1l-0.3,0.2l-0.4,0l-0.3,0.1l-0.5,0l-0.4,0l-240.5,0l-0.3,0l-0.5,0l-0.3,0L941,62.8l-0.3,-0.2l-0.5,0l-0.5,-0.1l-0.3,-0.2l-0.3,-0.1L938.8,62l-0.4,-0.3l-0.3,-0.1l-0.4,-0.3L937.4,61l-0.3,-0.2l-0.3,-0.3l-0.1,-0.3l-0.3,-0.3l-0.2,-0.5l-0.3,-0.3l-0.1,-0.3l-0.2,-0.3l-0.1,-0.4l-0.2,-0.4l-0.1,-0.4l0,-0.3L935,56.5l0,-0.3l0,-0.4l0,-0.3l0,-30.4Z" class="g1_1" />
<path d="M935,25.1l0,-0.3l0,-0.5l0,-0.5l0.2,-0.3l0,-0.4l0.1,-0.3l0.2,-0.5L935.6,22l0.2,-0.3l0.1,-0.5l0.3,-0.3l0.2,-0.3l0.3,-0.3L936.8,20l0.3,-0.3l0.3,-0.3l0.3,-0.2l0.4,-0.3l0.3,-0.3l0.4,-0.1l0.3,-0.2l0.3,-0.1L939.7,18l0.5,-0.1l0.5,-0.2l0.3,0l0.4,-0.1l0.3,0l0.5,0l0.3,0l240.5,0l0.4,0l0.5,0l0.3,0l0.4,0.1l0.3,0l0.5,0.2l0.3,0.1l0.5,0.2l0.3,0.1l0.3,0.2l0.3,0.3l0.3,0.1l0.4,0.3l0.2,0.2l0.3,0.3l0.3,0.3l0.3,0.3l0.2,0.3l0.3,0.3l0.1,0.3l0.2,0.5l0.1,0.3l0.2,0.5l0.1,0.3l0.2,0.3l0.1,0.4l0,0.3l0,0.5l0.2,0.5l0,0.3l0,30.4l0,0.3l0,0.4l-0.2,0.3l0,0.5l-0.1,0.3l-0.2,0.4l0,0.4l-0.1,0.4l-0.2,0.3l-0.3,0.3l-0.1,0.3l-0.3,0.3l-0.2,0.5l-0.3,0.1l-0.3,0.4l-0.1,0.3l-0.4,0.3l-0.3,0.3l-0.4,0.1l-0.3,0.2l-0.3,0.1l-0.3,0.3l-0.5,0l-0.3,0.2l-0.5,0.1l-0.3,0.2l-0.4,0l-0.3,0.1l-0.5,0l-0.4,0l-240.5,0l-0.3,0l-0.5,0l-0.3,0L941,62.8l-0.3,-0.2l-0.5,0l-0.5,-0.1l-0.3,-0.2l-0.3,-0.1L938.8,62l-0.4,-0.3l-0.3,-0.1l-0.4,-0.3L937.4,61l-0.3,-0.2l-0.3,-0.3l-0.1,-0.3l-0.3,-0.3l-0.2,-0.5l-0.3,-0.3l-0.1,-0.3l-0.2,-0.3l-0.1,-0.4l-0.2,-0.4l-0.1,-0.4l0,-0.3L935,56.5l0,-0.3l0,-0.4l0,-0.3l0,-30.4Z" class="g2_1" />
</svg>