<?xml version="1.0" encoding="UTF-8" standalone="no"?>
<!DOCTYPE svg PUBLIC "-//W3C//DTD SVG 1.1//EN"
"http://www.w3.org/Graphics/SVG/1.1/DTD/svg11.dtd">
<svg viewBox="0 0 1210 1045" version="1.1" xmlns="http://www.w3.org/2000/svg" xmlns:xlink="http://www.w3.org/1999/xlink">
<defs>
<style type="text/css"><![CDATA[
.g2_89{
fill: #418AB3;
}
.g5_89{
fill: none;
stroke: #FFFFFF;
stroke-width: 1;
stroke-linecap: butt;
stroke-linejoin: miter;
}
.g3_89{
fill: #CEDAE4;
}
.g6_89{
fill: none;
stroke: #418AB3;
stroke-width: 2;
stroke-linecap: butt;
stroke-linejoin: miter;
stroke-miterlimit: 7;
}
.g4_89{
fill: #E8EDF2;
}
.g1_89{
fill: #FFFFFF;
}
]]></style>
</defs>
<path fill-rule="evenodd" d="M0,0L1210,0l0,1045L0,1045L0,0Z" class="g1_89" />
<path fill-rule="evenodd" d="M0,0L1210,0l0,1045L0,1045L0,0Z" class="g1_89" />
<image x="828" y="984" width="334" height="49" xlink:href="img/1.png" />
<path fill-rule="evenodd" d="M220,168l214,0l0,44l-214,0l0,-44Z" class="g2_89" />
<path fill-rule="evenodd" d="M434,168l236,0l0,44l-236,0l0,-44Z" class="g2_89" />
<path fill-rule="evenodd" d="M670,168l320,0l0,44l-320,0l0,-44Z" class="g2_89" />
<path fill-rule="evenodd" d="M220,212l214,0l0,62l-214,0l0,-62Z" class="g2_89" />
<path fill-rule="evenodd" d="M434,212l236,0l0,62l-236,0l0,-62Z" class="g3_89" />
<path fill-rule="evenodd" d="M670,212l320,0l0,198l-320,0l0,-198Z" class="g3_89" />
<path fill-rule="evenodd" d="M220,274l214,0l0,68l-214,0l0,-68Z" class="g2_89" />
<path fill-rule="evenodd" d="M434,274l236,0l0,68l-236,0l0,-68Z" class="g4_89" />
<path fill-rule="evenodd" d="M220,342l214,0l0,68l-214,0l0,-68Z" class="g2_89" />
<path fill-rule="evenodd" d="M434,342l236,0l0,68l-236,0l0,-68Z" class="g3_89" />
<path d="M219.5,213.5l0,-45" class="g5_89" />
<path d="M434.5,212.5l0,-44" class="g5_89" />
<path d="M219.5,169.5l216,0" class="g5_89" />
<path d="M434.5,212.5l0,-44" class="g5_89" />
<path d="M669.5,213.5l0,-45" class="g5_89" />
<path d="M434.5,169.5l236,0" class="g5_89" />
<path d="M669.5,212.5l0,-44" class="g5_89" />
<path d="M989.5,213.5l0,-45" class="g5_89" />
<path d="M669.5,169.5l321,0" class="g5_89" />
<path d="M219.5,275.5l0,-64" class="g5_89" />
<path d="M434.5,275.5l0,-63" class="g5_89" />
<path fill-rule="evenodd" d="M435,212.7l-0.7,2l-213.7,0l-0.6,-2l0.6,-2.2l213.7,0l0.7,2.2Z" class="g1_89" />
<path d="M434.5,274.5l0,-62" class="g5_89" />
<path d="M669.5,275.5l0,-64" class="g5_89" />
<path fill-rule="evenodd" d="M670.1,212.7l-0.6,2l-233.8,0l-0.7,-2l0.7,-2.2l233.8,0l0.6,2.2Z" class="g1_89" />
<path d="M669.5,410.5l0,-198" class="g5_89" />
<path d="M669.5,411.5l321,0" class="g5_89" />
<path d="M989.5,411.5l0,-200" class="g5_89" />
<path fill-rule="evenodd" d="M990,212.7l-0.8,2l-318.5,0l-0.6,-2l0.6,-2.2l318.5,0l0.8,2.2Z" class="g1_89" />
<path d="M219.5,343.5l0,-69" class="g5_89" />
<path d="M434.5,343.5l0,-69" class="g5_89" />
<path d="M220.5,275.5l214,0" class="g5_89" />
<path d="M434.5,342.5l0,-68" class="g5_89" />
<path d="M669.5,343.5l0,-69" class="g5_89" />
<path d="M434.5,275.5l236,0" class="g5_89" />
<path d="M219.5,411.5l0,-69" class="g5_89" />
<path d="M219.5,411.5l216,0" class="g5_89" />
<path d="M434.5,410.5l0,-68" class="g5_89" />
<path d="M220.5,343.5l214,0" class="g5_89" />
<path d="M434.5,410.5l0,-68" class="g5_89" />
<path d="M434.5,411.5l236,0" class="g5_89" />
<path d="M669.5,411.5l0,-69" class="g5_89" />
<path d="M434.5,343.5l236,0" class="g5_89" />
<path fill-rule="evenodd" d="M980.8,10.1l0,-0.3l0,-0.3l0,-0.3L981,8.9l0,-0.3l0.1,-0.3l0,-0.4l0.2,-0.3l0.1,-0.3L981.6,7l0.1,-0.3l0.4,-0.1l0.1,-0.3L982.4,6l0.3,-0.2l0.1,-0.3l0.3,-0.2l0.2,-0.1L983.6,5l0.3,-0.3l0.3,-0.1l0.3,-0.2l0.2,0L985,4.3l0.4,-0.2l0.3,0l0.3,0L986.3,4l0.3,0l0.3,0l189.5,0l0.3,0l0.3,0l0.3,0.1l0.3,0l0.3,0l0.3,0.2l0.3,0.1l0.3,0l0.3,0.3l0.3,0l0.2,0.3l0.3,0.2l0.3,0.1l0.2,0.4l0.3,0.1l0.1,0.2l0.3,0.3l0.2,0.3l0.1,0.3l0.2,0.1l0.1,0.3l0.2,0.3l0.1,0.3l0,0.4l0.2,0.3l0.1,0.3l0,0.3l0,0.3l0,0.3l0,0.3l0.2,24.4l0,0.3l-0.2,0.3l0,0.3l0,0.4l-0.1,0.3l0,0.3l-0.2,0.3l-0.1,0.3l-0.2,0.3l-0.1,0.3l-0.2,0.1l-0.1,0.3l-0.2,0.3l-0.3,0.4l-0.1,0.1l-0.3,0.2l-0.2,0.3l-0.3,0.1l-0.3,0.2l-0.2,0.1l-0.3,0.2l-0.3,0.1l-0.3,0.2l-0.3,0.1l-0.3,0l-0.3,0.2l-0.3,0l-0.3,0l-0.3,0.1l-0.3,0l-189.5,0l-0.3,0l-0.3,0L986,40.5l-0.3,0l-0.3,-0.2l-0.4,0l-0.3,-0.1L984.5,40l-0.3,0l-0.3,-0.1l-0.3,-0.3l-0.3,-0.2l-0.2,-0.1l-0.3,-0.2l-0.1,-0.3l-0.3,-0.1l-0.2,-0.4L982.1,38l-0.4,-0.1l-0.1,-0.3l-0.2,-0.3L981.3,37l-0.2,-0.3l0,-0.3L981,36.1l0,-0.3l-0.2,-0.4l0,-0.3l0,-0.3l0,-0.3l0,-24.4Z" class="g1_89" />
<path d="M980.8,10.1l0,-0.3l0,-0.3l0,-0.3L981,8.9l0,-0.3l0.1,-0.3l0,-0.4l0.2,-0.3l0.1,-0.3L981.6,7l0.1,-0.3l0.4,-0.1l0.1,-0.3L982.4,6l0.3,-0.2l0.1,-0.3l0.3,-0.2l0.2,-0.1L983.6,5l0.3,-0.3l0.3,-0.1l0.3,-0.2l0.2,0L985,4.3l0.4,-0.2l0.3,0l0.3,0L986.3,4l0.3,0l0.3,0l189.5,0l0.3,0l0.3,0l0.3,0.1l0.3,0l0.3,0l0.3,0.2l0.3,0.1l0.3,0l0.3,0.3l0.3,0l0.2,0.3l0.3,0.2l0.3,0.1l0.2,0.4l0.3,0.1l0.1,0.2l0.3,0.3l0.2,0.3l0.1,0.3l0.2,0.1l0.1,0.3l0.2,0.3l0.1,0.3l0,0.4l0.2,0.3l0.1,0.3l0,0.3l0,0.3l0,0.3l0,0.3l0.2,24.4l0,0.3l-0.2,0.3l0,0.3l0,0.4l-0.1,0.3l0,0.3l-0.2,0.3l-0.1,0.3l-0.2,0.3l-0.1,0.3l-0.2,0.1l-0.1,0.3l-0.2,0.3l-0.3,0.4l-0.1,0.1l-0.3,0.2l-0.2,0.3l-0.3,0.1l-0.3,0.2l-0.2,0.1l-0.3,0.2l-0.3,0.1l-0.3,0.2l-0.3,0.1l-0.3,0l-0.3,0.2l-0.3,0l-0.3,0l-0.3,0.1l-0.3,0l-189.5,0l-0.3,0l-0.3,0L986,40.5l-0.3,0l-0.3,-0.2l-0.4,0l-0.3,-0.1L984.5,40l-0.3,0l-0.3,-0.1l-0.3,-0.3l-0.3,-0.2l-0.2,-0.1l-0.3,-0.2l-0.1,-0.3l-0.3,-0.1l-0.2,-0.4L982.1,38l-0.4,-0.1l-0.1,-0.3l-0.2,-0.3L981.3,37l-0.2,-0.3l0,-0.3L981,36.1l0,-0.3l-0.2,-0.4l0,-0.3l0,-0.3l0,-0.3l0,-24.4Z" class="g6_89" />
</svg>