<?xml version="1.0" encoding="UTF-8" standalone="no"?>
<!DOCTYPE svg PUBLIC "-//W3C//DTD SVG 1.1//EN"
"http://www.w3.org/Graphics/SVG/1.1/DTD/svg11.dtd">
<svg viewBox="0 0 1100 825" version="1.1" xmlns="http://www.w3.org/2000/svg" xmlns:xlink="http://www.w3.org/1999/xlink">
<defs>
<style type="text/css"><![CDATA[
.g2_55{
fill: #418AB3;
}
.g4_55{
fill: none;
stroke: #000000;
stroke-width: 2;
stroke-linecap: butt;
stroke-linejoin: miter;
stroke-miterlimit: 7;
}
.g3_55{
fill: none;
stroke: #000000;
stroke-width: 1;
stroke-linecap: butt;
stroke-linejoin: miter;
stroke-miterlimit: 7;
}
.g5_55{
fill: none;
stroke: #0070C0;
stroke-width: 2;
stroke-linecap: butt;
stroke-linejoin: miter;
}
.g1_55{
fill: #FFFFFF;
}
]]></style>
</defs>
<path fill-rule="evenodd" d="M0,0L1100,0l0,825L0,825L0,0Z" class="g1_55" />
<path fill-rule="evenodd" d="M0,0L1100,0l0,825L0,825L0,0Z" class="g1_55" />
<image x="753" y="777" width="303" height="38" xlink:href="img/1.png" />
<path fill-rule="evenodd" d="M812,69l101,0l0,49l-101,0l0,-49Z" class="g2_55" />
<path fill-rule="evenodd" d="M809,187l100,0l0,49l-100,0l0,-49Z" class="g2_55" />
<path d="M859.5,187l0.3,-50" class="g3_55" />
<path fill-rule="evenodd" d="M850.4,136.9l9.9,-17.7l8.9,18.1l-18.8,-0.4Z" class="g1_55" />
<path d="M850.4,136.9l9.9,-17.7l8.9,18.1l-18.8,-0.4Z" class="g4_55" />
<path fill-rule="evenodd" d="M815,307l100,0l0,50l-100,0l0,-50Z" class="g2_55" />
<path fill-rule="evenodd" d="M755,423l101,0l0,49l-101,0l0,-49Z" class="g2_55" />
<path fill-rule="evenodd" d="M831.1,375.2L841,357.3l8.9,18.4l-18.8,-0.5Z" class="g1_55" />
<path d="M831.1,375.2L841,357.3l8.9,18.4l-18.8,-0.5Z" class="g4_55" />
<path d="M840.5,375.5l0,24l-35,0l0,24" class="g3_55" />
<path fill-rule="evenodd" d="M874,423l101,0l0,49l-101,0l0,-49Z" class="g2_55" />
<path fill-rule="evenodd" d="M874.8,374.9l9.9,-17.7l8.9,18.3l-18.8,-0.6Z" class="g1_55" />
<path d="M874.8,374.9l9.9,-17.7l8.9,18.3l-18.8,-0.6Z" class="g4_55" />
<path d="M884.5,375.5l0,24l41,0l0,24" class="g3_55" />
<path fill-rule="evenodd" d="M865,159l64.3,-16.2l0,-1.9l0.2,-2l0.3,-2l0.5,-1.8l0.6,-2l0.7,-2l1,-1.8l1.2,-1.9l1.2,-1.8l1.5,-1.8l1.6,-1.7l1.8,-1.7l2,-1.7l2,-1.5l2.1,-1.5l2.3,-1.6l2.4,-1.4l2.6,-1.2l2.6,-1.3l2.9,-1.1l2.9,-1.1l2.9,-1.1l3.1,-0.9l3.2,-0.9l3.2,-0.8l3.2,-0.6l3.4,-0.6l3.3,-0.4l3.4,-0.3l3.5,-0.3l3.4,-0.3l3.5,0l3.5,0l3.5,0.1l3.4,0.2l3.5,0.3l3.4,0.3l3.3,0.4l3.4,0.6l3.2,0.8l3.2,0.8l3.2,0.7l3.1,0.9l2.9,1.1l2.9,1.1l2.9,1.2l2.6,1.2l2.6,1.4l2.4,1.4l2.3,1.4l2.1,1.5l2,1.7l2,1.6l1.7,1.7l1.7,1.7l1.3,1.8l1.4,1.9l1.1,1.8l0.9,1.8l0.9,1.9l0.6,2l0.5,1.9l0.1,2l0.2,1.9l0,1.9l-0.3,2l-0.3,2l-0.6,1.9l-0.8,1.9l-0.9,1.9l-1.1,1.8l-1.2,1.8L1063,158l-1.5,1.8l-1.7,1.7l-2,1.7l-2,1.5l-2.1,1.5l-2.1,1.5l-2.5,1.4l-2.6,1.4l-2.6,1.4l-2.7,1l-2.9,1.3l-2.9,0.9l-3.1,1.1l-3,0.9l-3.2,0.7l-3.3,0.6l-3.3,0.7l-3.4,0.6l-3.3,0.3l-3.6,0.3l-3.3,0.3l-3.5,0.1l-3.5,0l-3.4,-0.1L992,180.4l-3.5,-0.1L985.1,180l-3.4,-0.6l-3.3,-0.5L975,178.3l-3.2,-0.8l-3,-0.7l-3.2,-1l-2.9,-1l-2.9,-1.1l-3,-1.1l-2.6,-1.2L951.7,170l-2.6,-1.3l-2.3,-1.4l-2.3,-1.5l-2.2,-1.6l-1.8,-1.6l-1.8,-1.7L937,159.2l-1.5,-1.8L865,159Z" class="g1_55" />
<path d="M865,159l64.3,-16.2l0,-1.9l0.2,-2l0.3,-2l0.5,-1.8l0.6,-2l0.7,-2l1,-1.8l1.2,-1.9l1.2,-1.8l1.5,-1.8l1.6,-1.7l1.8,-1.7l2,-1.7l2,-1.5l2.1,-1.5l2.3,-1.6l2.4,-1.4l2.6,-1.2l2.6,-1.3l2.9,-1.1l2.9,-1.1l2.9,-1.1l3.1,-0.9l3.2,-0.9l3.2,-0.8l3.2,-0.6l3.4,-0.6l3.3,-0.4l3.4,-0.3l3.5,-0.3l3.4,-0.3l3.5,0l3.5,0l3.5,0.1l3.4,0.2l3.5,0.3l3.4,0.3l3.3,0.4l3.4,0.6l3.2,0.8l3.2,0.8l3.2,0.7l3.1,0.9l2.9,1.1l2.9,1.1l2.9,1.2l2.6,1.2l2.6,1.4l2.4,1.4l2.3,1.4l2.1,1.5l2,1.7l2,1.6l1.7,1.7l1.7,1.7l1.3,1.8l1.4,1.9l1.1,1.8l0.9,1.8l0.9,1.9l0.6,2l0.5,1.9l0.1,2l0.2,1.9l0,1.9l-0.3,2l-0.3,2l-0.6,1.9l-0.8,1.9l-0.9,1.9l-1.1,1.8l-1.2,1.8L1063,158l-1.5,1.8l-1.7,1.7l-2,1.7l-2,1.5l-2.1,1.5l-2.1,1.5l-2.5,1.4l-2.6,1.4l-2.6,1.4l-2.7,1l-2.9,1.3l-2.9,0.9l-3.1,1.1l-3,0.9l-3.2,0.7l-3.3,0.6l-3.3,0.7l-3.4,0.6l-3.3,0.3l-3.6,0.3l-3.3,0.3l-3.5,0.1l-3.5,0l-3.4,-0.1L992,180.4l-3.5,-0.1L985.1,180l-3.4,-0.6l-3.3,-0.5L975,178.3l-3.2,-0.8l-3,-0.7l-3.2,-1l-2.9,-1l-2.9,-1.1l-3,-1.1l-2.6,-1.2L951.7,170l-2.6,-1.3l-2.3,-1.4l-2.3,-1.5l-2.2,-1.6l-1.8,-1.6l-1.8,-1.7L937,159.2l-1.5,-1.8L865,159Z" class="g4_55" />
<path fill-rule="evenodd" d="M32.2,163.5l0,-0.6l0,-0.6l0.2,-0.7L32.5,161l0,-0.6l0.3,-0.6L33,159.3l0.2,-0.6l0.3,-0.6l0.3,-0.4l0.3,-0.6l0.4,-0.5l0.3,-0.5l0.5,-0.4l0.3,-0.5l0.5,-0.4l0.4,-0.5L37.1,154l0.5,-0.3L38,153.2l0.7,-0.1l0.6,-0.3l0.4,-0.3l0.6,-0.2l0.6,-0.1L41.6,152l0.6,-0.1l0.6,0l0.6,-0.2l0.6,0l622.3,0l0.6,0l0.6,0.2l0.6,0l0.6,0.1l0.6,0.2l0.6,0.1l0.5,0.2l0.6,0.3l0.6,0.3l0.5,0.3l0.4,0.3l0.6,0.3l0.5,0.5l0.5,0.3l0.4,0.4l0.5,0.5l0.3,0.4l0.4,0.5l0.3,0.5l0.3,0.6l0.4,0.4l0.3,0.6l0.1,0.6l0.3,0.5l0.2,0.6l0.1,0.6l0.2,0.6l0,0.7l0,0.6l0,0.6l0.1,47l0,0.6l-0.1,0.7l0,0.6l-0.2,0.6l-0.1,0.6l-0.2,0.6l-0.1,0.6l-0.3,0.5l-0.3,0.6l-0.4,0.4l-0.3,0.6l-0.3,0.5l-0.3,0.5l-0.4,0.6l-0.5,0.3l-0.4,0.4l-0.5,0.5l-0.5,0.3l-0.4,0.3l-0.6,0.5l-0.5,0.3l-0.6,0.1l-0.6,0.3l-0.5,0.2l-0.6,0.1l-0.6,0.2l-0.6,0.1l-0.6,0l-0.6,0.2l-0.6,0L44,222.3l-0.6,0l-0.6,0l-0.6,-0.2l-0.6,0L40.9,222l-0.6,-0.2l-0.6,-0.3l-0.4,-0.1l-0.6,-0.3L38,220.8l-0.4,-0.3l-0.5,-0.3l-0.6,-0.5l-0.4,-0.5l-0.5,-0.3l-0.3,-0.4L34.8,218l-0.3,-0.4l-0.4,-0.7l-0.3,-0.4l-0.3,-0.6l-0.3,-0.5L33,214.8l-0.2,-0.6l-0.3,-0.6l0,-0.6l-0.1,-0.6l-0.2,-0.6l0,-0.7l0,-0.6l0,-47Z" class="g1_55" />
<path d="M32.2,163.5l0,-0.6l0,-0.6l0.2,-0.7L32.5,161l0,-0.6l0.3,-0.6L33,159.3l0.2,-0.6l0.3,-0.6l0.3,-0.4l0.3,-0.6l0.4,-0.5l0.3,-0.5l0.5,-0.4l0.3,-0.5l0.5,-0.4l0.4,-0.5L37.1,154l0.5,-0.3L38,153.2l0.7,-0.1l0.6,-0.3l0.4,-0.3l0.6,-0.2l0.6,-0.1L41.6,152l0.6,-0.1l0.6,0l0.6,-0.2l0.6,0l622.3,0l0.6,0l0.6,0.2l0.6,0l0.6,0.1l0.6,0.2l0.6,0.1l0.5,0.2l0.6,0.3l0.6,0.3l0.5,0.3l0.4,0.3l0.6,0.3l0.5,0.5l0.5,0.3l0.4,0.4l0.5,0.5l0.3,0.4l0.4,0.5l0.3,0.5l0.3,0.6l0.4,0.4l0.3,0.6l0.1,0.6l0.3,0.5l0.2,0.6l0.1,0.6l0.2,0.6l0,0.7l0,0.6l0,0.6l0.1,47l0,0.6l-0.1,0.7l0,0.6l-0.2,0.6l-0.1,0.6l-0.2,0.6l-0.1,0.6l-0.3,0.5l-0.3,0.6l-0.4,0.4l-0.3,0.6l-0.3,0.5l-0.3,0.5l-0.4,0.6l-0.5,0.3l-0.4,0.4l-0.5,0.5l-0.5,0.3l-0.4,0.3l-0.6,0.5l-0.5,0.3l-0.6,0.1l-0.6,0.3l-0.5,0.2l-0.6,0.1l-0.6,0.2l-0.6,0.1l-0.6,0l-0.6,0.2l-0.6,0L44,222.3l-0.6,0l-0.6,0l-0.6,-0.2l-0.6,0L40.9,222l-0.6,-0.2l-0.6,-0.3l-0.4,-0.1l-0.6,-0.3L38,220.8l-0.4,-0.3l-0.5,-0.3l-0.6,-0.5l-0.4,-0.5l-0.5,-0.3l-0.3,-0.4L34.8,218l-0.3,-0.4l-0.4,-0.7l-0.3,-0.4l-0.3,-0.6l-0.3,-0.5L33,214.8l-0.2,-0.6l-0.3,-0.6l0,-0.6l-0.1,-0.6l-0.2,-0.6l0,-0.7l0,-0.6l0,-47Z" class="g4_55" />
<path d="M97,209l406,0" class="g5_55" />
</svg>