<?xml version="1.0" encoding="UTF-8" standalone="no"?>
<!DOCTYPE svg PUBLIC "-//W3C//DTD SVG 1.1//EN"
"http://www.w3.org/Graphics/SVG/1.1/DTD/svg11.dtd">
<svg viewBox="0 0 1210 1210" version="1.1" xmlns="http://www.w3.org/2000/svg" xmlns:xlink="http://www.w3.org/1999/xlink">
<defs>
<style type="text/css"><![CDATA[
.g2_131{
fill: none;
stroke: #418AB3;
stroke-width: 2;
stroke-linecap: butt;
stroke-linejoin: miter;
stroke-miterlimit: 7;
}
.g3_131{
fill: none;
stroke: #0000EE;
stroke-width: 2;
stroke-linecap: butt;
stroke-linejoin: miter;
}
.g1_131{
fill: #FFFFFF;
}
]]></style>
</defs>
<path fill-rule="evenodd" d="M0,0L1210,0l0,1210L0,1210L0,0Z" class="g1_131" />
<path fill-rule="evenodd" d="M0,0L1210,0l0,1210L0,1210L0,0Z" class="g1_131" />
<path fill-rule="evenodd" d="M155.8,564.4l0,-1.3l0.2,-1.3l0.1,-1.3l0.2,-1l0.3,-1.3l0.5,-1.2l0.3,-1.2l0.4,-1.1l0.6,-1l0.6,-1.3l0.7,-0.9l0.6,-1l0.7,-1l0.8,-0.9l0.9,-0.9l0.9,-0.9l0.9,-0.8l1,-0.7l1,-0.6l1.1,-0.8l1.1,-0.6l1,-0.5l1.3,-0.4l1,-0.5l1.3,-0.3l1.2,-0.3l1.2,-0.2l1.2,-0.3l1.2,0l1.3,0l851.1,0l1.2,0l1.2,0l1.3,0.3l1.2,0.2l1.2,0.3l1.2,0.3l1.1,0.5l1.2,0.4l1.1,0.6l1.1,0.5l1,0.8l1.1,0.6l0.9,0.7l0.9,0.8l0.9,0.9l1,0.9l0.7,0.9l0.8,1l0.6,1l0.6,1.1l0.6,1.1l0.6,1l0.5,1.3l0.3,1l0.5,1.2l0.3,1.3l0.1,1l0.2,1.3l0.1,1.3l0,1.3l0.2,94.1l-0.2,0l0,1l-0.1,1.4l-0.2,1.2l-0.1,1.3l-0.3,1l-0.4,1.3l-0.4,1.2l-0.5,1l-0.6,1.1l-0.4,1.1l-0.8,1.1l-0.6,1l-0.8,0.9l-0.7,1l-1,0.9l-0.9,0.9l-0.9,0.8l-0.9,0.7l-1.1,0.6l-1,0.6l-1.1,0.7l-1.1,0.6l-1.2,0.4l-1.1,0.3l-1.2,0.5l-1.2,0.3l-1.2,0.1l-1.3,0.2l-1.2,0.1l-1.2,0L179.4,682l0,-0.2l-1.3,0l-1.2,0l-1.2,-0.3l-1.2,-0.1l-1.2,-0.3L172,680.8l-1,-0.5l-1.3,-0.4l-1,-0.5l-1.1,-0.6L166.5,678l-1,-0.6l-1,-0.7l-0.9,-0.8L162.7,675l-0.9,-0.9l-0.8,-1l-0.7,-0.9l-0.6,-1l-0.7,-1l-0.6,-1l-0.6,-1.3l-0.4,-1l-0.3,-1.2l-0.5,-1.3l-0.3,-1l-0.2,-1.3L156,660.9l-0.2,-1.4l0,-1l0,-94.1Z" class="g1_131" />
<path d="M155.8,564.4l0,-1.3l0.2,-1.3l0.1,-1.3l0.2,-1l0.3,-1.3l0.5,-1.2l0.3,-1.2l0.4,-1.1l0.6,-1l0.6,-1.3l0.7,-0.9l0.6,-1l0.7,-1l0.8,-0.9l0.9,-0.9l0.9,-0.9l0.9,-0.8l1,-0.7l1,-0.6l1.1,-0.8l1.1,-0.6l1,-0.5l1.3,-0.4l1,-0.5l1.3,-0.3l1.2,-0.3l1.2,-0.2l1.2,-0.3l1.2,0l1.3,0l851.1,0l1.2,0l1.2,0l1.3,0.3l1.2,0.2l1.2,0.3l1.2,0.3l1.1,0.5l1.2,0.4l1.1,0.6l1.1,0.5l1,0.8l1.1,0.6l0.9,0.7l0.9,0.8l0.9,0.9l1,0.9l0.7,0.9l0.8,1l0.6,1l0.6,1.1l0.6,1.1l0.6,1l0.5,1.3l0.3,1l0.5,1.2l0.3,1.3l0.1,1l0.2,1.3l0.1,1.3l0,1.3l0.2,94.1l-0.2,0l0,1l-0.1,1.4l-0.2,1.2l-0.1,1.3l-0.3,1l-0.4,1.3l-0.4,1.2l-0.5,1l-0.6,1.1l-0.4,1.1l-0.8,1.1l-0.6,1l-0.8,0.9l-0.7,1l-1,0.9l-0.9,0.9l-0.9,0.8l-0.9,0.7l-1.1,0.6l-1,0.6l-1.1,0.7l-1.1,0.6l-1.2,0.4l-1.1,0.3l-1.2,0.5l-1.2,0.3l-1.2,0.1l-1.3,0.2l-1.2,0.1l-1.2,0L179.4,682l0,-0.2l-1.3,0l-1.2,0l-1.2,-0.3l-1.2,-0.1l-1.2,-0.3L172,680.8l-1,-0.5l-1.3,-0.4l-1,-0.5l-1.1,-0.6L166.5,678l-1,-0.6l-1,-0.7l-0.9,-0.8L162.7,675l-0.9,-0.9l-0.8,-1l-0.7,-0.9l-0.6,-1l-0.7,-1l-0.6,-1l-0.6,-1.3l-0.4,-1l-0.3,-1.2l-0.5,-1.3l-0.3,-1l-0.2,-1.3L156,660.9l-0.2,-1.4l0,-1l0,-94.1Z" class="g2_131" />
<path d="M382,587l443,0" class="g3_131" />
<path d="M355,620l450,0" class="g3_131" />
<path d="M367,653l455,0" class="g3_131" />
<image x="100" y="67" width="429" height="100" xlink:href="img/1.png" />
</svg>