<?xml version="1.0" encoding="UTF-8" standalone="no"?>
<!DOCTYPE svg PUBLIC "-//W3C//DTD SVG 1.1//EN"
"http://www.w3.org/Graphics/SVG/1.1/DTD/svg11.dtd">
<svg viewBox="0 0 1100 825" version="1.1" xmlns="http://www.w3.org/2000/svg" xmlns:xlink="http://www.w3.org/1999/xlink">
<defs>
<style type="text/css"><![CDATA[
.g2_121{
fill: none;
stroke: #000000;
stroke-width: 2;
stroke-linecap: butt;
stroke-linejoin: miter;
}
.g3_121{
fill: none;
stroke: #418AB3;
stroke-width: 2;
stroke-linecap: butt;
stroke-linejoin: miter;
stroke-miterlimit: 7;
}
.g1_121{
fill: #FFFFFF;
}
]]></style>
</defs>
<path fill-rule="evenodd" d="M0,0L1100,0l0,825L0,825L0,0Z" class="g1_121" />
<path fill-rule="evenodd" d="M0,0L1100,0l0,825L0,825L0,0Z" class="g1_121" />
<image x="753" y="777" width="303" height="38" xlink:href="img/1.png" />
<path d="M31,115l44,0" class="g2_121" />
<path fill-rule="evenodd" d="M916.8,8.9l0,-0.3l0,-0.3l0,-0.4L917,7.6l0,-0.3L917,7l0.1,-0.1l0.2,-0.3l0.1,-0.3l0,-0.3l0.3,-0.2l0,-0.3L918,5.3L918.2,5l0.1,-0.1l0.4,-0.2l0.1,-0.3l0.3,-0.1l0.2,-0.2L919.6,4l0.3,-0.2L920,3.7l0.3,0l0.3,-0.2l0.3,-0.1l0.2,0l0.3,0l0.3,0L922,3.2l0.3,0l167.6,0l0.3,0l0.3,0.2l0.3,0l0.3,0l0.3,0.1l0.2,0l0.3,0.2l0.3,0l0.3,0.1l0.2,0.2l0.3,0.1l0.1,0.2l0.3,0.1l0.2,0.3l0.3,0.2L1094,5l0.2,0.3l0.1,0.2l0.4,0.3l0,0.2l0.1,0.3l0.2,0.3l0.1,0.3l0.2,0.1l0,0.3l0,0.3l0.1,0.3l0,0.4l0,0.3l0,0.3l0.2,22.1l0,0.3l-0.2,0.3l0,0.3l0,0.2l-0.1,0.3l0,0.3l-0.2,0.3l-0.1,0.3l0,0.2l-0.2,0.3l-0.1,0.3l-0.4,0.1l-0.1,0.3l-0.2,0.2l-0.1,0.1l-0.3,0.3l-0.2,0.2l-0.3,0.1l-0.1,0.2l-0.3,0.2l-0.2,0.1l-0.3,0.2l-0.3,0.1l-0.3,0l-0.2,0.2l-0.3,0l-0.3,0l-0.3,0.1l-0.3,0l-0.3,0L922.3,36.7l0,-0.2l-0.3,0l-0.3,0l-0.3,0l-0.3,-0.1l-0.2,0l-0.3,0l-0.3,-0.2L920,36.1l-0.1,-0.2l-0.3,-0.1l-0.3,-0.2l-0.2,-0.2l-0.3,-0.1l-0.1,-0.2L918.3,35l-0.1,-0.3L918,34.5l-0.3,-0.3l0,-0.1l-0.3,-0.3l0,-0.3l-0.1,-0.2L917.1,33L917,32.7l0,-0.3l0,-0.2l-0.2,-0.3l0,-0.3l0,-0.3l0,-0.3l0,-22.1Z" class="g1_121" />
<path d="M916.8,8.9l0,-0.3l0,-0.3l0,-0.4L917,7.6l0,-0.3L917,7l0.1,-0.1l0.2,-0.3l0.1,-0.3l0,-0.3l0.3,-0.2l0,-0.3L918,5.3L918.2,5l0.1,-0.1l0.4,-0.2l0.1,-0.3l0.3,-0.1l0.2,-0.2L919.6,4l0.3,-0.2L920,3.7l0.3,0l0.3,-0.2l0.3,-0.1l0.2,0l0.3,0l0.3,0L922,3.2l0.3,0l167.6,0l0.3,0l0.3,0.2l0.3,0l0.3,0l0.3,0.1l0.2,0l0.3,0.2l0.3,0l0.3,0.1l0.2,0.2l0.3,0.1l0.1,0.2l0.3,0.1l0.2,0.3l0.3,0.2L1094,5l0.2,0.3l0.1,0.2l0.4,0.3l0,0.2l0.1,0.3l0.2,0.3l0.1,0.3l0.2,0.1l0,0.3l0,0.3l0.1,0.3l0,0.4l0,0.3l0,0.3l0.2,22.1l0,0.3l-0.2,0.3l0,0.3l0,0.2l-0.1,0.3l0,0.3l-0.2,0.3l-0.1,0.3l0,0.2l-0.2,0.3l-0.1,0.3l-0.4,0.1l-0.1,0.3l-0.2,0.2l-0.1,0.1l-0.3,0.3l-0.2,0.2l-0.3,0.1l-0.1,0.2l-0.3,0.2l-0.2,0.1l-0.3,0.2l-0.3,0.1l-0.3,0l-0.2,0.2l-0.3,0l-0.3,0l-0.3,0.1l-0.3,0l-0.3,0L922.3,36.7l0,-0.2l-0.3,0l-0.3,0l-0.3,0l-0.3,-0.1l-0.2,0l-0.3,0l-0.3,-0.2L920,36.1l-0.1,-0.2l-0.3,-0.1l-0.3,-0.2l-0.2,-0.2l-0.3,-0.1l-0.1,-0.2L918.3,35l-0.1,-0.3L918,34.5l-0.3,-0.3l0,-0.1l-0.3,-0.3l0,-0.3l-0.1,-0.2L917.1,33L917,32.7l0,-0.3l0,-0.2l-0.2,-0.3l0,-0.3l0,-0.3l0,-0.3l0,-22.1Z" class="g3_121" />
</svg>