<?xml version="1.0" encoding="UTF-8" standalone="no"?>
<!DOCTYPE svg PUBLIC "-//W3C//DTD SVG 1.1//EN"
"http://www.w3.org/Graphics/SVG/1.1/DTD/svg11.dtd">
<svg version="1.1" xmlns="http://www.w3.org/2000/svg" xmlns:xlink="http://www.w3.org/1999/xlink">
<defs>
<clipPath id="c0_32"><path d="M0.5,825.5l0,-825l1466,0l0,825Z" /></clipPath>
<clipPath id="c1_32"><path d="M683.5,263.8l-0.6,-0.1l-0.4,-0.2l-0.7,0l-0.4,-0.3l-0.6,-0.1l-0.5,-0.3l-0.4,-0.2l-0.6,-0.3L678.8,262l-0.5,-0.3l-0.4,-0.4l-0.5,-0.2L677,260.6l-0.2,-0.3l-0.5,-0.6l-0.4,-0.3L675.6,259l-0.3,-0.5l0,-0.5l-0.5,-0.6L674.7,257l-0.3,-0.6l-0.2,-0.5l-0.1,-0.8l0,-0.3l-0.2,-0.6l0,-0.6l0,-0.4l0,-42.8l0,-0.6l0,-0.5l0.2,-0.6l0,-0.5l0.1,-0.6l0.2,-0.6l0.3,-0.4l0.1,-0.5l0.5,-0.6l0,-0.5l0.3,-0.4l0.3,-0.5l0.4,-0.4l0.5,-0.5l0.2,-0.5l0.4,-0.3l0.5,-0.3l0.4,-0.4l0.5,-0.3l0.5,-0.3l0.6,-0.2l0.4,-0.3l0.5,-0.2l0.6,-0.3l0.4,-0.1l0.7,-0.2l0.4,0l0.6,-0.1l193,0l0.6,0.1l0.5,0.2l0.6,0.1l0.6,0l0.4,0.3l0.5,0.2l0.6,0.3l0.5,0.2l0.4,0.3l0.5,0.3l0.4,0.4l0.5,0.3l0.5,0.5l0.3,0.3l0.3,0.5l0.3,0.4l0.3,0.5l0.3,0.4l0.3,0.5l0.3,0.6l0.1,0.5l0.2,0.4l0.2,0.6l0.1,0.6l0.3,0.5l0,0.6l0,0.5l0,0.6l0,42.8l0,0.4l0,0.6l0,0.6l-0.3,0.3l-0.1,0.8l0,0.5l-0.4,0.6l-0.1,0.4l-0.3,0.6l-0.2,0.5l-0.1,0.5l-0.6,0.4l-0.3,0.3l-0.3,0.6l-0.3,0.3l-0.5,0.5l-0.5,0.2l-0.4,0.4l-0.5,0.3l-0.4,0.3l-0.5,0.3l-0.6,0.2l-0.5,0.3l-0.4,0.1l-0.6,0.2l-0.6,0.1l-0.5,0.2l-0.6,0l-0.5,0.1Z" /></clipPath>
<clipPath id="c2_32"><path d="M350.2,363.3l0,-0.1l-1.7,0L347.9,363l-0.6,-0.2l-0.5,-0.1l-0.6,-0.2l-0.5,-0.4l-0.4,0l-0.5,-0.3l-0.6,-0.3l-0.4,-0.3l-0.4,-0.3L343,360.4l-0.5,-0.3l-0.3,-0.5L341.8,359l-0.3,-0.3l-0.3,-0.3l-0.4,-0.6l-0.1,-0.5l-0.3,-0.4l-0.3,-0.5l-0.2,-0.6l-0.1,-0.6l-0.2,-0.4l-0.1,-0.7l0,-0.4l0,-0.8l0,-0.4l0,-42.7l0,-0.6l0,-0.6l0,-0.4l0.1,-0.7l0.2,-0.6l0.1,-0.4l0.2,-0.6l0.3,-0.5l0.3,-0.5l0.1,-0.6l0.4,-0.4l0.3,-0.5l0.3,-0.3l0.4,-0.6l0.3,-0.3l0.5,-0.5l0.4,-0.3l0.4,-0.4l0.4,-0.2l0.6,-0.3l0.5,-0.3l0.4,-0.3l0.5,-0.1l0.6,-0.4l0.5,0l0.6,-0.1l0.6,-0.2l192.6,0l0.7,0.2l0.6,0.1l0.4,0l0.5,0.4l0.6,0.3l0.4,0.1l0.5,0.3l0.6,0.3l0.3,0.2l0.5,0.4l0.4,0.5l0.5,0.3l0.3,0.3l0.3,0.6l0.5,0.3l0.3,0.6l0.3,0.5l0.1,0.4l0.3,0.5l0.2,0.6l0.3,0.5l0.3,0.4l0,0.6l0,0.7l0.2,0.4l0,0.6l0,0.6l0,42.7l0,0.4l0,0.8l-0.2,0.4l0,0.7l0,0.4l-0.3,0.6l-0.3,0.5l-0.2,0.6l-0.1,0.4l-0.3,0.5l-0.3,0.5l-0.3,0.4l-0.3,0.3l-0.5,0.6l-0.3,0.5l-0.5,0.3l-0.4,0.2l-0.5,0.6l-0.3,0.3l-0.6,0.3l-0.5,0.1l-0.4,0.2l-0.6,0.4l-0.5,0.2l-0.4,0.1l-0.6,0.2l-0.7,0l-0.3,0.2l-1.3,0l-189.3,0.1Z" /></clipPath>
<clipPath id="c3_32"><path d="M684.6,363.3l0,-0.1l-1.7,0L682.5,363l-0.7,-0.2l-0.4,-0.1l-0.6,-0.2l-0.5,-0.4l-0.4,0l-0.6,-0.3l-0.5,-0.3l-0.5,-0.3l-0.4,-0.3l-0.5,-0.5L677,360.1l-0.2,-0.5L676.3,359l-0.4,-0.3l-0.3,-0.3l-0.3,-0.6l0,-0.5l-0.5,-0.4l-0.1,-0.5l-0.3,-0.6l-0.2,-0.6l-0.1,-0.4l0,-0.7l-0.2,-0.4l0,-0.8l0,-0.4l0,-42.7l0,-0.6l0,-0.6l0.2,-0.4l0,-0.7l0.1,-0.6l0.2,-0.4l0.3,-0.6l0.1,-0.5l0.5,-0.5l0,-0.6l0.3,-0.4l0.3,-0.5l0.4,-0.3l0.5,-0.6l0.2,-0.3l0.4,-0.5l0.5,-0.3l0.4,-0.4l0.5,-0.2l0.5,-0.3l0.6,-0.3l0.4,-0.3l0.5,-0.1l0.6,-0.4l0.4,0l0.7,-0.1l0.4,-0.2l194.2,0l0.5,0.2l0.6,0.1l0.6,0l0.4,0.4l0.5,0.3l0.6,0.1l0.5,0.3l0.4,0.3l0.5,0.2l0.4,0.4l0.5,0.5l0.5,0.3l0.3,0.3l0.3,0.6l0.3,0.3l0.3,0.6l0.3,0.5l0.3,0.4l0.3,0.5l0.1,0.6l0.2,0.5l0.2,0.4l0.1,0.6l0.3,0.7l0,0.4l0,0.6l0,0.6l0,42.7l0,0.4l0,0.8l0,0.4l-0.3,0.7l-0.1,0.4l0,0.6l-0.4,0.5l-0.1,0.6l-0.3,0.4l-0.2,0.5l-0.1,0.5l-0.6,0.4l-0.3,0.3l-0.3,0.6l-0.3,0.5l-0.5,0.3l-0.5,0.2l-0.4,0.6l-0.5,0.3l-0.4,0.3l-0.5,0.1l-0.6,0.2l-0.5,0.4l-0.4,0.2l-0.6,0.1l-0.6,0.2l-0.5,0l-0.6,0.2l-1.1,0l-190.8,0.1Z" /></clipPath>
<style type="text/css"><![CDATA[
.g2_32{
fill: none;
stroke: #000000;
stroke-width: 1;
stroke-linecap: butt;
stroke-linejoin: miter;
stroke-miterlimit: 7;
}
.g3_32{
fill: none;
stroke: #000000;
stroke-width: 1;
stroke-linecap: butt;
stroke-linejoin: miter;
}
.g1_32{
fill: #FFFFFF;
}
]]></style>
</defs>
<path fill-rule="evenodd" d="M0,0L1466,0l0,825L0,825L0,0Z" class="g1_32" />
<path fill-rule="evenodd" d="M0,0L1466,0l0,825L0,825L0,0Z" class="g1_32" />
<g clip-path="url(#c0_32)">
<use 
xlink:href ="#F1_2" 
 transform="matrix(0.0105 , 0, 0 , -0.0105, 59.7 , 801.9)"
fill="#FFFFFF" 
stroke="none" 
 />
<use 
xlink:href ="#F1_3" 
 transform="matrix(0.0105 , 0, 0 , -0.0105, 71 , 801.9)"
fill="#FFFFFF" 
stroke="none" 
 />
<use 
xlink:href ="#F1_4" 
 transform="matrix(0.0105 , 0, 0 , -0.0105, 80 , 801.9)"
fill="#FFFFFF" 
stroke="none" 
 />
<use 
xlink:href ="#F1_5" 
 transform="matrix(0.0105 , 0, 0 , -0.0105, 89 , 801.9)"
fill="#FFFFFF" 
stroke="none" 
 />
<use 
xlink:href ="#F1_6" 
 transform="matrix(0.0105 , 0, 0 , -0.0105, 97.1 , 801.9)"
fill="#FFFFFF" 
stroke="none" 
 />
<use 
xlink:href ="#F1_7" 
 transform="matrix(0.0105 , 0, 0 , -0.0105, 102.3 , 801.9)"
fill="#FFFFFF" 
stroke="none" 
 />
<use 
xlink:href ="#F1_8" 
 transform="matrix(0.0105 , 0, 0 , -0.0105, 106 , 801.9)"
fill="#FFFFFF" 
stroke="none" 
 />
<use 
xlink:href ="#F1_9" 
 transform="matrix(0.0105 , 0, 0 , -0.0105, 115 , 801.9)"
fill="#FFFFFF" 
stroke="none" 
 />
<use 
xlink:href ="#F1_10" 
 transform="matrix(0.0105 , 0, 0 , -0.0105, 124 , 801.9)"
fill="#FFFFFF" 
stroke="none" 
 />
<use 
xlink:href ="#F1_12" 
 transform="matrix(0.0105 , 0, 0 , -0.0105, 132.7 , 801.9)"
fill="#FFFFFF" 
stroke="none" 
 />
<use 
xlink:href ="#F1_13" 
 transform="matrix(0.0105 , 0, 0 , -0.0105, 153.5 , 801.9)"
fill="#FFFFFF" 
stroke="none" 
 />
<use 
xlink:href ="#F1_14" 
 transform="matrix(0.0105 , 0, 0 , -0.0105, 162.3 , 801.9)"
fill="#FFFFFF" 
stroke="none" 
 />
<use 
xlink:href ="#F1_15" 
 transform="matrix(0.0105 , 0, 0 , -0.0105, 171 , 801.9)"
fill="#FFFFFF" 
stroke="none" 
 />
<use 
xlink:href ="#F1_16" 
 transform="matrix(0.0105 , 0, 0 , -0.0105, 180 , 801.9)"
fill="#FFFFFF" 
stroke="none" 
 />
<use 
xlink:href ="#F1_17" 
 transform="matrix(0.0105 , 0, 0 , -0.0105, 188.9 , 801.9)"
fill="#FFFFFF" 
stroke="none" 
 />
<use 
xlink:href ="#F1_18" 
 transform="matrix(0.0105 , 0, 0 , -0.0105, 197.6 , 801.9)"
fill="#FFFFFF" 
stroke="none" 
 />
<use 
xlink:href ="#F1_19" 
 transform="matrix(0.0105 , 0, 0 , -0.0105, 202 , 801.9)"
fill="#FFFFFF" 
stroke="none" 
 />
<use 
xlink:href ="#F1_20" 
 transform="matrix(0.0105 , 0, 0 , -0.0105, 211 , 801.9)"
fill="#FFFFFF" 
stroke="none" 
 />
<use 
xlink:href ="#F1_3" 
 transform="matrix(0.0105 , 0, 0 , -0.0105, 215.4 , 801.9)"
fill="#FFFFFF" 
stroke="none" 
 />
<use 
xlink:href ="#F1_21" 
 transform="matrix(0.0105 , 0, 0 , -0.0105, 224.3 , 801.9)"
fill="#FFFFFF" 
stroke="none" 
 />
<use 
xlink:href ="#F1_5" 
 transform="matrix(0.0105 , 0, 0 , -0.0105, 232.2 , 801.9)"
fill="#FFFFFF" 
stroke="none" 
 />
<use 
xlink:href ="#F1_21" 
 transform="matrix(0.0105 , 0, 0 , -0.0105, 240.3 , 801.9)"
fill="#FFFFFF" 
stroke="none" 
 />
<use 
xlink:href ="#F1_22" 
 transform="matrix(0.0105 , 0, 0 , -0.0105, 252.5 , 801.9)"
fill="#FFFFFF" 
stroke="none" 
 />
<use 
xlink:href ="#F1_7" 
 transform="matrix(0.0105 , 0, 0 , -0.0105, 261.4 , 801.9)"
fill="#FFFFFF" 
stroke="none" 
 />
<use 
xlink:href ="#F1_23" 
 transform="matrix(0.0105 , 0, 0 , -0.0105, 265.1 , 801.9)"
fill="#FFFFFF" 
stroke="none" 
 />
<use 
xlink:href ="#F1_7" 
 transform="matrix(0.0105 , 0, 0 , -0.0105, 278.5 , 801.9)"
fill="#FFFFFF" 
stroke="none" 
 />
<use 
xlink:href ="#F1_10" 
 transform="matrix(0.0105 , 0, 0 , -0.0105, 282 , 801.9)"
fill="#FFFFFF" 
stroke="none" 
 />
<use 
xlink:href ="#F1_24" 
 transform="matrix(0.0105 , 0, 0 , -0.0105, 286.4 , 801.9)"
fill="#FFFFFF" 
stroke="none" 
 />
<use 
xlink:href ="#F1_25" 
 transform="matrix(0.0105 , 0, 0 , -0.0105, 295.4 , 801.9)"
fill="#FFFFFF" 
stroke="none" 
 />
<use 
xlink:href ="#F1_26" 
 transform="matrix(0.012 , 0, 0 , -0.012, 85.9 , 22.8)"
fill="#000000" 
stroke="none" 
 />
<use 
xlink:href ="#F2_58" 
 transform="matrix(0.012 , 0, 0 , -0.012, 113.2 , 23.8)"
fill="#000000" 
stroke="none" 
 />
<use 
xlink:href ="#F3_32" 
 transform="matrix(0.012 , 0, 0 , -0.012, 131.5 , 23.8)"
fill="#000000" 
stroke="none" 
 />
<use 
xlink:href ="#F3_23" 
 transform="matrix(0.012 , 0, 0 , -0.012, 143.5 , 23.8)"
fill="#000000" 
stroke="none" 
 />
<use 
xlink:href ="#F3_12" 
 transform="matrix(0.012 , 0, 0 , -0.012, 149.6 , 23.8)"
fill="#000000" 
stroke="none" 
 />
<use 
xlink:href ="#F3_45" 
 transform="matrix(0.012 , 0, 0 , -0.012, 161.9 , 23.8)"
fill="#000000" 
stroke="none" 
 />
<use 
xlink:href ="#F2_9" 
 transform="matrix(0.012 , 0, 0 , -0.012, 184.7 , 23.8)"
fill="#000000" 
stroke="none" 
 />
<use 
xlink:href ="#F2_11" 
 transform="matrix(0.012 , 0, 0 , -0.012, 189.9 , 23.8)"
fill="#000000" 
stroke="none" 
 />
<use 
xlink:href ="#F2_6" 
 transform="matrix(0.012 , 0, 0 , -0.012, 205.3 , 23.8)"
fill="#000000" 
stroke="none" 
 />
<use 
xlink:href ="#F2_10" 
 transform="matrix(0.012 , 0, 0 , -0.012, 222.4 , 23.8)"
fill="#000000" 
stroke="none" 
 />
<use 
xlink:href ="#F2_6" 
 transform="matrix(0.012 , 0, 0 , -0.012, 234 , 23.8)"
fill="#000000" 
stroke="none" 
 />
<use 
xlink:href ="#F2_8" 
 transform="matrix(0.012 , 0, 0 , -0.012, 245.3 , 23.8)"
fill="#000000" 
stroke="none" 
 />
<use 
xlink:href ="#F2_4" 
 transform="matrix(0.012 , 0, 0 , -0.012, 263.2 , 23.8)"
fill="#000000" 
stroke="none" 
 />
<use 
xlink:href ="#F2_7" 
 transform="matrix(0.012 , 0, 0 , -0.012, 274.5 , 23.8)"
fill="#000000" 
stroke="none" 
 />
<use 
xlink:href ="#F2_6" 
 transform="matrix(0.012 , 0, 0 , -0.012, 292 , 23.8)"
fill="#000000" 
stroke="none" 
 />
<use 
xlink:href ="#F2_10" 
 transform="matrix(0.012 , 0, 0 , -0.012, 303.5 , 23.8)"
fill="#000000" 
stroke="none" 
 />
<use 
xlink:href ="#F2_7" 
 transform="matrix(0.012 , 0, 0 , -0.012, 314.9 , 23.8)"
fill="#000000" 
stroke="none" 
 />
<use 
xlink:href ="#F2_18" 
 transform="matrix(0.012 , 0, 0 , -0.012, 332.6 , 23.8)"
fill="#000000" 
stroke="none" 
 />
<use 
xlink:href ="#F2_6" 
 transform="matrix(0.012 , 0, 0 , -0.012, 343.3 , 23.8)"
fill="#000000" 
stroke="none" 
 />
<use 
xlink:href ="#F2_22" 
 transform="matrix(0.012 , 0, 0 , -0.012, 354.7 , 23.8)"
fill="#000000" 
stroke="none" 
 />
<use 
xlink:href ="#F2_9" 
 transform="matrix(0.012 , 0, 0 , -0.012, 359.8 , 23.8)"
fill="#000000" 
stroke="none" 
 />
<use 
xlink:href ="#F2_7" 
 transform="matrix(0.012 , 0, 0 , -0.012, 364.9 , 23.8)"
fill="#000000" 
stroke="none" 
 />
<use 
xlink:href ="#F2_6" 
 transform="matrix(0.012 , 0, 0 , -0.012, 376.7 , 23.8)"
fill="#000000" 
stroke="none" 
 />
<use 
xlink:href ="#F2_12" 
 transform="matrix(0.012 , 0, 0 , -0.012, 388 , 23.8)"
fill="#000000" 
stroke="none" 
 />
<use 
xlink:href ="#F2_4" 
 transform="matrix(0.012 , 0, 0 , -0.012, 395.2 , 23.8)"
fill="#000000" 
stroke="none" 
 />
<use 
xlink:href ="#F2_7" 
 transform="matrix(0.012 , 0, 0 , -0.012, 406.5 , 23.8)"
fill="#000000" 
stroke="none" 
 />
<use 
xlink:href ="#F2_27" 
 transform="matrix(0.012 , 0, 0 , -0.012, 424 , 23.8)"
fill="#000000" 
stroke="none" 
 />
<use 
xlink:href ="#F2_83" 
 transform="matrix(0.012 , 0, 0 , -0.012, 435.8 , 23.8)"
fill="#000000" 
stroke="none" 
 />
<use 
xlink:href ="#F2_49" 
 transform="matrix(0.012 , 0, 0 , -0.012, 450.3 , 23.8)"
fill="#000000" 
stroke="none" 
 />
<use 
xlink:href ="#F2_31" 
 transform="matrix(0.012 , 0, 0 , -0.012, 466.4 , 23.8)"
fill="#000000" 
stroke="none" 
 />
<use 
xlink:href ="#F2_17" 
 transform="matrix(0.012 , 0, 0 , -0.012, 478 , 23.8)"
fill="#000000" 
stroke="none" 
 />
<use 
xlink:href ="#F2_4" 
 transform="matrix(0.012 , 0, 0 , -0.012, 489.7 , 23.8)"
fill="#000000" 
stroke="none" 
 />
<use 
xlink:href ="#F2_13" 
 transform="matrix(0.012 , 0, 0 , -0.012, 500.9 , 23.8)"
fill="#000000" 
stroke="none" 
 />
<use 
xlink:href ="#F2_19" 
 transform="matrix(0.012 , 0, 0 , -0.012, 508.7 , 23.8)"
fill="#000000" 
stroke="none" 
 />
<use 
xlink:href ="#F2_20" 
 transform="matrix(0.012 , 0, 0 , -0.012, 525.4 , 23.8)"
fill="#000000" 
stroke="none" 
 />
<use 
xlink:href ="#F2_3" 
 transform="matrix(0.012 , 0, 0 , -0.012, 540.5 , 23.8)"
fill="#000000" 
stroke="none" 
 />
<use 
xlink:href ="#F2_9" 
 transform="matrix(0.012 , 0, 0 , -0.012, 551.9 , 23.8)"
fill="#000000" 
stroke="none" 
 />
<use 
xlink:href ="#F2_29" 
 transform="matrix(0.012 , 0, 0 , -0.012, 557.1 , 23.8)"
fill="#000000" 
stroke="none" 
 />
<use 
xlink:href ="#F2_3" 
 transform="matrix(0.012 , 0, 0 , -0.012, 567.3 , 23.8)"
fill="#000000" 
stroke="none" 
 />
<use 
xlink:href ="#F2_9" 
 transform="matrix(0.012 , 0, 0 , -0.012, 584.7 , 23.8)"
fill="#000000" 
stroke="none" 
 />
<use 
xlink:href ="#F2_11" 
 transform="matrix(0.012 , 0, 0 , -0.012, 589.9 , 23.8)"
fill="#000000" 
stroke="none" 
 />
<use 
xlink:href ="#F2_11" 
 transform="matrix(0.012 , 0, 0 , -0.012, 605.2 , 23.8)"
fill="#000000" 
stroke="none" 
 />
<use 
xlink:href ="#F2_12" 
 transform="matrix(0.012 , 0, 0 , -0.012, 614.8 , 23.8)"
fill="#000000" 
stroke="none" 
 />
<use 
xlink:href ="#F2_14" 
 transform="matrix(0.012 , 0, 0 , -0.012, 621.8 , 23.8)"
fill="#000000" 
stroke="none" 
 />
<use 
xlink:href ="#F2_13" 
 transform="matrix(0.012 , 0, 0 , -0.012, 633.1 , 23.8)"
fill="#000000" 
stroke="none" 
 />
<use 
xlink:href ="#F2_4" 
 transform="matrix(0.012 , 0, 0 , -0.012, 640.3 , 23.8)"
fill="#000000" 
stroke="none" 
 />
<use 
xlink:href ="#F2_7" 
 transform="matrix(0.012 , 0, 0 , -0.012, 651.6 , 23.8)"
fill="#000000" 
stroke="none" 
 />
<use 
xlink:href ="#F2_9" 
 transform="matrix(0.012 , 0, 0 , -0.012, 669.2 , 23.8)"
fill="#000000" 
stroke="none" 
 />
<use 
xlink:href ="#F2_10" 
 transform="matrix(0.012 , 0, 0 , -0.012, 674.3 , 23.8)"
fill="#000000" 
stroke="none" 
 />
<use 
xlink:href ="#F2_12" 
 transform="matrix(0.012 , 0, 0 , -0.012, 691.7 , 23.8)"
fill="#000000" 
stroke="none" 
 />
<use 
xlink:href ="#F2_3" 
 transform="matrix(0.012 , 0, 0 , -0.012, 698.7 , 23.8)"
fill="#000000" 
stroke="none" 
 />
<use 
xlink:href ="#F2_4" 
 transform="matrix(0.012 , 0, 0 , -0.012, 710.3 , 23.8)"
fill="#000000" 
stroke="none" 
 />
<use 
xlink:href ="#F3_3" 
 transform="matrix(0.012 , 0, 0 , -0.012, 728.1 , 23.8)"
fill="#000000" 
stroke="none" 
 />
<use 
xlink:href ="#F3_20" 
 transform="matrix(0.012 , 0, 0 , -0.012, 743.7 , 23.8)"
fill="#000000" 
stroke="none" 
 />
<use 
xlink:href ="#F3_17" 
 transform="matrix(0.012 , 0, 0 , -0.012, 752.7 , 23.8)"
fill="#000000" 
stroke="none" 
 />
<use 
xlink:href ="#F3_34" 
 transform="matrix(0.012 , 0, 0 , -0.012, 765.1 , 23.8)"
fill="#000000" 
stroke="none" 
 />
<use 
xlink:href ="#F3_19" 
 transform="matrix(0.012 , 0, 0 , -0.012, 776 , 23.8)"
fill="#000000" 
stroke="none" 
 />
<use 
xlink:href ="#F3_12" 
 transform="matrix(0.012 , 0, 0 , -0.012, 782.1 , 23.8)"
fill="#000000" 
stroke="none" 
 />
<use 
xlink:href ="#F2_7" 
 transform="matrix(0.012 , 0, 0 , -0.012, 800.3 , 23.8)"
fill="#000000" 
stroke="none" 
 />
<use 
xlink:href ="#F2_6" 
 transform="matrix(0.012 , 0, 0 , -0.012, 812 , 23.8)"
fill="#000000" 
stroke="none" 
 />
<use 
xlink:href ="#F2_12" 
 transform="matrix(0.012 , 0, 0 , -0.012, 823.4 , 23.8)"
fill="#000000" 
stroke="none" 
 />
<use 
xlink:href ="#F2_6" 
 transform="matrix(0.012 , 0, 0 , -0.012, 830.6 , 23.8)"
fill="#000000" 
stroke="none" 
 />
<use 
xlink:href ="#F2_7" 
 transform="matrix(0.012 , 0, 0 , -0.012, 847.7 , 23.8)"
fill="#000000" 
stroke="none" 
 />
<use 
xlink:href ="#F2_9" 
 transform="matrix(0.012 , 0, 0 , -0.012, 859.5 , 23.8)"
fill="#000000" 
stroke="none" 
 />
<use 
xlink:href ="#F2_29" 
 transform="matrix(0.012 , 0, 0 , -0.012, 864.7 , 23.8)"
fill="#000000" 
stroke="none" 
 />
<use 
xlink:href ="#F2_12" 
 transform="matrix(0.012 , 0, 0 , -0.012, 874.9 , 23.8)"
fill="#000000" 
stroke="none" 
 />
<use 
xlink:href ="#F2_9" 
 transform="matrix(0.012 , 0, 0 , -0.012, 882.1 , 23.8)"
fill="#000000" 
stroke="none" 
 />
<use 
xlink:href ="#F2_14" 
 transform="matrix(0.012 , 0, 0 , -0.012, 887.1 , 23.8)"
fill="#000000" 
stroke="none" 
 />
<use 
xlink:href ="#F2_10" 
 transform="matrix(0.012 , 0, 0 , -0.012, 898.2 , 23.8)"
fill="#000000" 
stroke="none" 
 />
<use 
xlink:href ="#F2_6" 
 transform="matrix(0.012 , 0, 0 , -0.012, 909.9 , 23.8)"
fill="#000000" 
stroke="none" 
 />
<use 
xlink:href ="#F2_13" 
 transform="matrix(0.012 , 0, 0 , -0.012, 921.1 , 23.8)"
fill="#000000" 
stroke="none" 
 />
<use 
xlink:href ="#F2_19" 
 transform="matrix(0.012 , 0, 0 , -0.012, 928.9 , 23.8)"
fill="#000000" 
stroke="none" 
 />
<use 
xlink:href ="#F2_24" 
 transform="matrix(0.012 , 0, 0 , -0.012, 937 , 23.8)"
fill="#000000" 
stroke="none" 
 />
<use 
xlink:href ="#F1_26" 
 transform="matrix(0.012 , 0, 0 , -0.012, 85.9 , 60)"
fill="#000000" 
stroke="none" 
 />
<use 
xlink:href ="#F3_40" 
 transform="matrix(0.012 , 0, 0 , -0.012, 113.2 , 61.1)"
fill="#000000" 
stroke="none" 
 />
<use 
xlink:href ="#F3_23" 
 transform="matrix(0.012 , 0, 0 , -0.012, 127 , 61.1)"
fill="#000000" 
stroke="none" 
 />
<use 
xlink:href ="#F3_12" 
 transform="matrix(0.012 , 0, 0 , -0.012, 133.1 , 61.1)"
fill="#000000" 
stroke="none" 
 />
<use 
xlink:href ="#F3_45" 
 transform="matrix(0.012 , 0, 0 , -0.012, 145.4 , 61.1)"
fill="#000000" 
stroke="none" 
 />
<use 
xlink:href ="#F3_18" 
 transform="matrix(0.012 , 0, 0 , -0.012, 162.4 , 61.1)"
fill="#000000" 
stroke="none" 
 />
<use 
xlink:href ="#F2_7" 
 transform="matrix(0.012 , 0, 0 , -0.012, 179.2 , 61.1)"
fill="#000000" 
stroke="none" 
 />
<use 
xlink:href ="#F2_14" 
 transform="matrix(0.012 , 0, 0 , -0.012, 191 , 61.1)"
fill="#000000" 
stroke="none" 
 />
<use 
xlink:href ="#F2_10" 
 transform="matrix(0.012 , 0, 0 , -0.012, 208.1 , 61.1)"
fill="#000000" 
stroke="none" 
 />
<use 
xlink:href ="#F2_14" 
 transform="matrix(0.012 , 0, 0 , -0.012, 219.5 , 61.1)"
fill="#000000" 
stroke="none" 
 />
<use 
xlink:href ="#F2_12" 
 transform="matrix(0.012 , 0, 0 , -0.012, 230.8 , 61.1)"
fill="#000000" 
stroke="none" 
 />
<use 
xlink:href ="#F2_29" 
 transform="matrix(0.012 , 0, 0 , -0.012, 243.8 , 61.1)"
fill="#000000" 
stroke="none" 
 />
<use 
xlink:href ="#F2_14" 
 transform="matrix(0.012 , 0, 0 , -0.012, 254 , 61.1)"
fill="#000000" 
stroke="none" 
 />
<use 
xlink:href ="#F2_10" 
 transform="matrix(0.012 , 0, 0 , -0.012, 265.1 , 61.1)"
fill="#000000" 
stroke="none" 
 />
<use 
xlink:href ="#F2_12" 
 transform="matrix(0.012 , 0, 0 , -0.012, 276.7 , 61.1)"
fill="#000000" 
stroke="none" 
 />
<use 
xlink:href ="#F2_6" 
 transform="matrix(0.012 , 0, 0 , -0.012, 283.9 , 61.1)"
fill="#000000" 
stroke="none" 
 />
<use 
xlink:href ="#F2_9" 
 transform="matrix(0.012 , 0, 0 , -0.012, 295.2 , 61.1)"
fill="#000000" 
stroke="none" 
 />
<use 
xlink:href ="#F2_10" 
 transform="matrix(0.012 , 0, 0 , -0.012, 300.4 , 61.1)"
fill="#000000" 
stroke="none" 
 />
<use 
xlink:href ="#F2_6" 
 transform="matrix(0.012 , 0, 0 , -0.012, 317.8 , 61.1)"
fill="#000000" 
stroke="none" 
 />
<use 
xlink:href ="#F2_10" 
 transform="matrix(0.012 , 0, 0 , -0.012, 329.1 , 61.1)"
fill="#000000" 
stroke="none" 
 />
<use 
xlink:href ="#F2_19" 
 transform="matrix(0.012 , 0, 0 , -0.012, 340.7 , 61.1)"
fill="#000000" 
stroke="none" 
 />
<use 
xlink:href ="#F2_7" 
 transform="matrix(0.012 , 0, 0 , -0.012, 357.3 , 61.1)"
fill="#000000" 
stroke="none" 
 />
<use 
xlink:href ="#F2_6" 
 transform="matrix(0.012 , 0, 0 , -0.012, 369.1 , 61.1)"
fill="#000000" 
stroke="none" 
 />
<use 
xlink:href ="#F2_12" 
 transform="matrix(0.012 , 0, 0 , -0.012, 380.3 , 61.1)"
fill="#000000" 
stroke="none" 
 />
<use 
xlink:href ="#F2_6" 
 transform="matrix(0.012 , 0, 0 , -0.012, 387.5 , 61.1)"
fill="#000000" 
stroke="none" 
 />
<use 
xlink:href ="#F2_78" 
 transform="matrix(0.012 , 0, 0 , -0.012, 404.8 , 61.1)"
fill="#000000" 
stroke="none" 
 />
<use 
xlink:href ="#F2_9" 
 transform="matrix(0.012 , 0, 0 , -0.012, 417.1 , 61.1)"
fill="#000000" 
stroke="none" 
 />
<use 
xlink:href ="#F2_12" 
 transform="matrix(0.012 , 0, 0 , -0.012, 422.3 , 61.1)"
fill="#000000" 
stroke="none" 
 />
<use 
xlink:href ="#F2_9" 
 transform="matrix(0.012 , 0, 0 , -0.012, 435.3 , 61.1)"
fill="#000000" 
stroke="none" 
 />
<use 
xlink:href ="#F2_11" 
 transform="matrix(0.012 , 0, 0 , -0.012, 440.5 , 61.1)"
fill="#000000" 
stroke="none" 
 />
<use 
xlink:href ="#F2_43" 
 transform="matrix(0.012 , 0, 0 , -0.012, 455.8 , 61.1)"
fill="#000000" 
stroke="none" 
 />
<use 
xlink:href ="#F2_17" 
 transform="matrix(0.012 , 0, 0 , -0.012, 460.9 , 61.1)"
fill="#000000" 
stroke="none" 
 />
<use 
xlink:href ="#F2_11" 
 transform="matrix(0.012 , 0, 0 , -0.012, 472.5 , 61.1)"
fill="#000000" 
stroke="none" 
 />
<use 
xlink:href ="#F2_12" 
 transform="matrix(0.012 , 0, 0 , -0.012, 482 , 61.1)"
fill="#000000" 
stroke="none" 
 />
<use 
xlink:href ="#F2_6" 
 transform="matrix(0.012 , 0, 0 , -0.012, 495 , 61.1)"
fill="#000000" 
stroke="none" 
 />
<use 
xlink:href ="#F2_11" 
 transform="matrix(0.012 , 0, 0 , -0.012, 512.3 , 61.1)"
fill="#000000" 
stroke="none" 
 />
<use 
xlink:href ="#F2_12" 
 transform="matrix(0.012 , 0, 0 , -0.012, 521.8 , 61.1)"
fill="#000000" 
stroke="none" 
 />
<use 
xlink:href ="#F2_14" 
 transform="matrix(0.012 , 0, 0 , -0.012, 528.9 , 61.1)"
fill="#000000" 
stroke="none" 
 />
<use 
xlink:href ="#F2_13" 
 transform="matrix(0.012 , 0, 0 , -0.012, 540.1 , 61.1)"
fill="#000000" 
stroke="none" 
 />
<use 
xlink:href ="#F2_4" 
 transform="matrix(0.012 , 0, 0 , -0.012, 547.3 , 61.1)"
fill="#000000" 
stroke="none" 
 />
<use 
xlink:href ="#F2_7" 
 transform="matrix(0.012 , 0, 0 , -0.012, 558.7 , 61.1)"
fill="#000000" 
stroke="none" 
 />
<use 
xlink:href ="#F2_31" 
 transform="matrix(0.012 , 0, 0 , -0.012, 576.3 , 61.1)"
fill="#000000" 
stroke="none" 
 />
<use 
xlink:href ="#F2_17" 
 transform="matrix(0.012 , 0, 0 , -0.012, 588 , 61.1)"
fill="#000000" 
stroke="none" 
 />
<use 
xlink:href ="#F2_4" 
 transform="matrix(0.012 , 0, 0 , -0.012, 599.5 , 61.1)"
fill="#000000" 
stroke="none" 
 />
<use 
xlink:href ="#F2_13" 
 transform="matrix(0.012 , 0, 0 , -0.012, 610.9 , 61.1)"
fill="#000000" 
stroke="none" 
 />
<use 
xlink:href ="#F2_19" 
 transform="matrix(0.012 , 0, 0 , -0.012, 618.5 , 61.1)"
fill="#000000" 
stroke="none" 
 />
<use 
xlink:href ="#F2_9" 
 transform="matrix(0.012 , 0, 0 , -0.012, 635.2 , 61.1)"
fill="#000000" 
stroke="none" 
 />
<use 
xlink:href ="#F2_10" 
 transform="matrix(0.012 , 0, 0 , -0.012, 640.4 , 61.1)"
fill="#000000" 
stroke="none" 
 />
<use 
xlink:href ="#F2_12" 
 transform="matrix(0.012 , 0, 0 , -0.012, 657.8 , 61.1)"
fill="#000000" 
stroke="none" 
 />
<use 
xlink:href ="#F2_3" 
 transform="matrix(0.012 , 0, 0 , -0.012, 664.9 , 61.1)"
fill="#000000" 
stroke="none" 
 />
<use 
xlink:href ="#F2_4" 
 transform="matrix(0.012 , 0, 0 , -0.012, 676.4 , 61.1)"
fill="#000000" 
stroke="none" 
 />
<use 
xlink:href ="#F2_7" 
 transform="matrix(0.012 , 0, 0 , -0.012, 693.6 , 61.1)"
fill="#000000" 
stroke="none" 
 />
<use 
xlink:href ="#F2_6" 
 transform="matrix(0.012 , 0, 0 , -0.012, 705.4 , 61.1)"
fill="#000000" 
stroke="none" 
 />
<use 
xlink:href ="#F2_12" 
 transform="matrix(0.012 , 0, 0 , -0.012, 716.7 , 61.1)"
fill="#000000" 
stroke="none" 
 />
<use 
xlink:href ="#F2_6" 
 transform="matrix(0.012 , 0, 0 , -0.012, 723.9 , 61.1)"
fill="#000000" 
stroke="none" 
 />
<use 
xlink:href ="#F2_26" 
 transform="matrix(0.012 , 0, 0 , -0.012, 735.2 , 61.1)"
fill="#000000" 
stroke="none" 
 />
<use 
xlink:href ="#F2_6" 
 transform="matrix(0.012 , 0, 0 , -0.012, 746.8 , 61.1)"
fill="#000000" 
stroke="none" 
 />
<use 
xlink:href ="#F2_11" 
 transform="matrix(0.012 , 0, 0 , -0.012, 758.1 , 61.1)"
fill="#000000" 
stroke="none" 
 />
<use 
xlink:href ="#F2_4" 
 transform="matrix(0.012 , 0, 0 , -0.012, 767.7 , 61.1)"
fill="#000000" 
stroke="none" 
 />
<use 
xlink:href ="#F2_12" 
 transform="matrix(0.012 , 0, 0 , -0.012, 784.9 , 61.1)"
fill="#000000" 
stroke="none" 
 />
<use 
xlink:href ="#F2_3" 
 transform="matrix(0.012 , 0, 0 , -0.012, 791.9 , 61.1)"
fill="#000000" 
stroke="none" 
 />
<use 
xlink:href ="#F2_6" 
 transform="matrix(0.012 , 0, 0 , -0.012, 803.5 , 61.1)"
fill="#000000" 
stroke="none" 
 />
<use 
xlink:href ="#F2_12" 
 transform="matrix(0.012 , 0, 0 , -0.012, 814.8 , 61.1)"
fill="#000000" 
stroke="none" 
 />
<use 
xlink:href ="#F2_29" 
 transform="matrix(0.012 , 0, 0 , -0.012, 828 , 61.1)"
fill="#000000" 
stroke="none" 
 />
<use 
xlink:href ="#F2_6" 
 transform="matrix(0.012 , 0, 0 , -0.012, 838.2 , 61.1)"
fill="#000000" 
stroke="none" 
 />
<use 
xlink:href ="#F2_10" 
 transform="matrix(0.012 , 0, 0 , -0.012, 849.5 , 61.1)"
fill="#000000" 
stroke="none" 
 />
<use 
xlink:href ="#F2_26" 
 transform="matrix(0.012 , 0, 0 , -0.012, 866.9 , 61.1)"
fill="#000000" 
stroke="none" 
 />
<use 
xlink:href ="#F2_4" 
 transform="matrix(0.012 , 0, 0 , -0.012, 878.5 , 61.1)"
fill="#000000" 
stroke="none" 
 />
<use 
xlink:href ="#F2_4" 
 transform="matrix(0.012 , 0, 0 , -0.012, 895.7 , 61.1)"
fill="#000000" 
stroke="none" 
 />
<use 
xlink:href ="#F2_44" 
 transform="matrix(0.012 , 0, 0 , -0.012, 906.7 , 61.1)"
fill="#000000" 
stroke="none" 
 />
<use 
xlink:href ="#F2_4" 
 transform="matrix(0.012 , 0, 0 , -0.012, 916.8 , 61.1)"
fill="#000000" 
stroke="none" 
 />
<use 
xlink:href ="#F2_29" 
 transform="matrix(0.012 , 0, 0 , -0.012, 928.1 , 61.1)"
fill="#000000" 
stroke="none" 
 />
<use 
xlink:href ="#F2_17" 
 transform="matrix(0.012 , 0, 0 , -0.012, 938.3 , 61.1)"
fill="#000000" 
stroke="none" 
 />
<use 
xlink:href ="#F2_12" 
 transform="matrix(0.012 , 0, 0 , -0.012, 949.9 , 61.1)"
fill="#000000" 
stroke="none" 
 />
<use 
xlink:href ="#F2_4" 
 transform="matrix(0.012 , 0, 0 , -0.012, 957.1 , 61.1)"
fill="#000000" 
stroke="none" 
 />
<use 
xlink:href ="#F2_7" 
 transform="matrix(0.012 , 0, 0 , -0.012, 968.4 , 61.1)"
fill="#000000" 
stroke="none" 
 />
<use 
xlink:href ="#F2_20" 
 transform="matrix(0.012 , 0, 0 , -0.012, 986 , 61.1)"
fill="#000000" 
stroke="none" 
 />
<use 
xlink:href ="#F2_3" 
 transform="matrix(0.012 , 0, 0 , -0.012, 1001.1 , 61.1)"
fill="#000000" 
stroke="none" 
 />
<use 
xlink:href ="#F2_4" 
 transform="matrix(0.012 , 0, 0 , -0.012, 1012.5 , 61.1)"
fill="#000000" 
stroke="none" 
 />
<use 
xlink:href ="#F2_10" 
 transform="matrix(0.012 , 0, 0 , -0.012, 1023.8 , 61.1)"
fill="#000000" 
stroke="none" 
 />
<use 
xlink:href ="#F2_29" 
 transform="matrix(0.012 , 0, 0 , -0.012, 1041.4 , 61.1)"
fill="#000000" 
stroke="none" 
 />
<use 
xlink:href ="#F2_6" 
 transform="matrix(0.012 , 0, 0 , -0.012, 1051.6 , 61.1)"
fill="#000000" 
stroke="none" 
 />
<use 
xlink:href ="#F2_22" 
 transform="matrix(0.012 , 0, 0 , -0.012, 1062.9 , 61.1)"
fill="#000000" 
stroke="none" 
 />
<use 
xlink:href ="#F2_22" 
 transform="matrix(0.012 , 0, 0 , -0.012, 1068 , 61.1)"
fill="#000000" 
stroke="none" 
 />
<use 
xlink:href ="#F2_4" 
 transform="matrix(0.012 , 0, 0 , -0.012, 1073.1 , 61.1)"
fill="#000000" 
stroke="none" 
 />
<use 
xlink:href ="#F2_7" 
 transform="matrix(0.012 , 0, 0 , -0.012, 1084.5 , 61.1)"
fill="#000000" 
stroke="none" 
 />
<use 
xlink:href ="#F2_24" 
 transform="matrix(0.012 , 0, 0 , -0.012, 1096.3 , 61.1)"
fill="#000000" 
stroke="none" 
 />
<use 
xlink:href ="#F1_26" 
 transform="matrix(0.012 , 0, 0 , -0.012, 85.9 , 97.3)"
fill="#000000" 
stroke="none" 
 />
<use 
xlink:href ="#F2_25" 
 transform="matrix(0.012 , 0, 0 , -0.012, 113.2 , 98.2)"
fill="#000000" 
stroke="none" 
 />
<use 
xlink:href ="#F2_10" 
 transform="matrix(0.012 , 0, 0 , -0.012, 127.7 , 98.2)"
fill="#000000" 
stroke="none" 
 />
<use 
xlink:href ="#F2_4" 
 transform="matrix(0.012 , 0, 0 , -0.012, 139.3 , 98.2)"
fill="#000000" 
stroke="none" 
 />
<use 
xlink:href ="#F2_29" 
 transform="matrix(0.012 , 0, 0 , -0.012, 156.4 , 98.2)"
fill="#000000" 
stroke="none" 
 />
<use 
xlink:href ="#F2_6" 
 transform="matrix(0.012 , 0, 0 , -0.012, 166.8 , 98.2)"
fill="#000000" 
stroke="none" 
 />
<use 
xlink:href ="#F2_10" 
 transform="matrix(0.012 , 0, 0 , -0.012, 178.1 , 98.2)"
fill="#000000" 
stroke="none" 
 />
<use 
xlink:href ="#F2_12" 
 transform="matrix(0.012 , 0, 0 , -0.012, 195.5 , 98.2)"
fill="#000000" 
stroke="none" 
 />
<use 
xlink:href ="#F2_3" 
 transform="matrix(0.012 , 0, 0 , -0.012, 202.7 , 98.2)"
fill="#000000" 
stroke="none" 
 />
<use 
xlink:href ="#F2_9" 
 transform="matrix(0.012 , 0, 0 , -0.012, 214.3 , 98.2)"
fill="#000000" 
stroke="none" 
 />
<use 
xlink:href ="#F2_10" 
 transform="matrix(0.012 , 0, 0 , -0.012, 219.3 , 98.2)"
fill="#000000" 
stroke="none" 
 />
<use 
xlink:href ="#F2_21" 
 transform="matrix(0.012 , 0, 0 , -0.012, 230.9 , 98.2)"
fill="#000000" 
stroke="none" 
 />
<use 
xlink:href ="#F2_14" 
 transform="matrix(0.012 , 0, 0 , -0.012, 247.4 , 98.2)"
fill="#000000" 
stroke="none" 
 />
<use 
xlink:href ="#F2_16" 
 transform="matrix(0.012 , 0, 0 , -0.012, 258.6 , 98.2)"
fill="#000000" 
stroke="none" 
 />
<use 
xlink:href ="#F2_6" 
 transform="matrix(0.012 , 0, 0 , -0.012, 270.8 , 98.2)"
fill="#000000" 
stroke="none" 
 />
<use 
xlink:href ="#F3_32" 
 transform="matrix(0.012 , 0, 0 , -0.012, 288.1 , 98.2)"
fill="#000000" 
stroke="none" 
 />
<use 
xlink:href ="#F3_23" 
 transform="matrix(0.012 , 0, 0 , -0.012, 300.1 , 98.2)"
fill="#000000" 
stroke="none" 
 />
<use 
xlink:href ="#F3_12" 
 transform="matrix(0.012 , 0, 0 , -0.012, 306.2 , 98.2)"
fill="#000000" 
stroke="none" 
 />
<use 
xlink:href ="#F3_45" 
 transform="matrix(0.012 , 0, 0 , -0.012, 318.5 , 98.2)"
fill="#000000" 
stroke="none" 
 />
<use 
xlink:href ="#F2_6" 
 transform="matrix(0.012 , 0, 0 , -0.012, 341.3 , 98.2)"
fill="#000000" 
stroke="none" 
 />
<use 
xlink:href ="#F2_11" 
 transform="matrix(0.012 , 0, 0 , -0.012, 352.8 , 98.2)"
fill="#000000" 
stroke="none" 
 />
<use 
xlink:href ="#F2_6" 
 transform="matrix(0.012 , 0, 0 , -0.012, 368 , 98.2)"
fill="#000000" 
stroke="none" 
 />
<use 
xlink:href ="#F2_18" 
 transform="matrix(0.012 , 0, 0 , -0.012, 385.3 , 98.2)"
fill="#000000" 
stroke="none" 
 />
<use 
xlink:href ="#F2_9" 
 transform="matrix(0.012 , 0, 0 , -0.012, 396.1 , 98.2)"
fill="#000000" 
stroke="none" 
 />
<use 
xlink:href ="#F2_13" 
 transform="matrix(0.012 , 0, 0 , -0.012, 401.3 , 98.2)"
fill="#000000" 
stroke="none" 
 />
<use 
xlink:href ="#F2_12" 
 transform="matrix(0.012 , 0, 0 , -0.012, 408.9 , 98.2)"
fill="#000000" 
stroke="none" 
 />
<use 
xlink:href ="#F2_17" 
 transform="matrix(0.012 , 0, 0 , -0.012, 416.1 , 98.2)"
fill="#000000" 
stroke="none" 
 />
<use 
xlink:href ="#F2_6" 
 transform="matrix(0.012 , 0, 0 , -0.012, 427.6 , 98.2)"
fill="#000000" 
stroke="none" 
 />
<use 
xlink:href ="#F2_22" 
 transform="matrix(0.012 , 0, 0 , -0.012, 439 , 98.2)"
fill="#000000" 
stroke="none" 
 />
<use 
xlink:href ="#F2_12" 
 transform="matrix(0.012 , 0, 0 , -0.012, 450 , 98.2)"
fill="#000000" 
stroke="none" 
 />
<use 
xlink:href ="#F2_6" 
 transform="matrix(0.012 , 0, 0 , -0.012, 457.2 , 98.2)"
fill="#000000" 
stroke="none" 
 />
<use 
xlink:href ="#F2_26" 
 transform="matrix(0.012 , 0, 0 , -0.012, 468.5 , 98.2)"
fill="#000000" 
stroke="none" 
 />
<use 
xlink:href ="#F2_22" 
 transform="matrix(0.012 , 0, 0 , -0.012, 479.9 , 98.2)"
fill="#000000" 
stroke="none" 
 />
<use 
xlink:href ="#F2_4" 
 transform="matrix(0.012 , 0, 0 , -0.012, 485.1 , 98.2)"
fill="#000000" 
stroke="none" 
 />
<use 
xlink:href ="#F2_14" 
 transform="matrix(0.012 , 0, 0 , -0.012, 502.3 , 98.2)"
fill="#000000" 
stroke="none" 
 />
<use 
xlink:href ="#F2_13" 
 transform="matrix(0.012 , 0, 0 , -0.012, 513.5 , 98.2)"
fill="#000000" 
stroke="none" 
 />
<use 
xlink:href ="#F2_8" 
 transform="matrix(0.012 , 0, 0 , -0.012, 527.1 , 98.2)"
fill="#000000" 
stroke="none" 
 />
<use 
xlink:href ="#F2_6" 
 transform="matrix(0.012 , 0, 0 , -0.012, 544.8 , 98.2)"
fill="#000000" 
stroke="none" 
 />
<use 
xlink:href ="#F2_15" 
 transform="matrix(0.012 , 0, 0 , -0.012, 556.2 , 98.2)"
fill="#000000" 
stroke="none" 
 />
<use 
xlink:href ="#F2_15" 
 transform="matrix(0.012 , 0, 0 , -0.012, 567.7 , 98.2)"
fill="#000000" 
stroke="none" 
 />
<use 
xlink:href ="#F2_9" 
 transform="matrix(0.012 , 0, 0 , -0.012, 579.3 , 98.2)"
fill="#000000" 
stroke="none" 
 />
<use 
xlink:href ="#F2_10" 
 transform="matrix(0.012 , 0, 0 , -0.012, 584.3 , 98.2)"
fill="#000000" 
stroke="none" 
 />
<use 
xlink:href ="#F2_23" 
 transform="matrix(0.012 , 0, 0 , -0.012, 595.9 , 98.2)"
fill="#000000" 
stroke="none" 
 />
<use 
xlink:href ="#F2_14" 
 transform="matrix(0.012 , 0, 0 , -0.012, 613.5 , 98.2)"
fill="#000000" 
stroke="none" 
 />
<use 
xlink:href ="#F2_16" 
 transform="matrix(0.012 , 0, 0 , -0.012, 624.7 , 98.2)"
fill="#000000" 
stroke="none" 
 />
<use 
xlink:href ="#F2_7" 
 transform="matrix(0.012 , 0, 0 , -0.012, 637 , 98.2)"
fill="#000000" 
stroke="none" 
 />
<use 
xlink:href ="#F2_6" 
 transform="matrix(0.012 , 0, 0 , -0.012, 648.8 , 98.2)"
fill="#000000" 
stroke="none" 
 />
<use 
xlink:href ="#F2_12" 
 transform="matrix(0.012 , 0, 0 , -0.012, 660.1 , 98.2)"
fill="#000000" 
stroke="none" 
 />
<use 
xlink:href ="#F2_6" 
 transform="matrix(0.012 , 0, 0 , -0.012, 667.2 , 98.2)"
fill="#000000" 
stroke="none" 
 />
<use 
xlink:href ="#F2_16" 
 transform="matrix(0.012 , 0, 0 , -0.012, 684.5 , 98.2)"
fill="#000000" 
stroke="none" 
 />
<use 
xlink:href ="#F2_13" 
 transform="matrix(0.012 , 0, 0 , -0.012, 690.9 , 98.2)"
fill="#000000" 
stroke="none" 
 />
<use 
xlink:href ="#F2_14" 
 transform="matrix(0.012 , 0, 0 , -0.012, 698.1 , 98.2)"
fill="#000000" 
stroke="none" 
 />
<use 
xlink:href ="#F2_8" 
 transform="matrix(0.012 , 0, 0 , -0.012, 709.2 , 98.2)"
fill="#000000" 
stroke="none" 
 />
<use 
xlink:href ="#F2_14" 
 transform="matrix(0.012 , 0, 0 , -0.012, 732.8 , 98.2)"
fill="#000000" 
stroke="none" 
 />
<use 
xlink:href ="#F2_10" 
 transform="matrix(0.012 , 0, 0 , -0.012, 744.1 , 98.2)"
fill="#000000" 
stroke="none" 
 />
<use 
xlink:href ="#F2_4" 
 transform="matrix(0.012 , 0, 0 , -0.012, 755.5 , 98.2)"
fill="#000000" 
stroke="none" 
 />
<use 
xlink:href ="#F2_14" 
 transform="matrix(0.012 , 0, 0 , -0.012, 772.8 , 98.2)"
fill="#000000" 
stroke="none" 
 />
<use 
xlink:href ="#F2_13" 
 transform="matrix(0.012 , 0, 0 , -0.012, 783.9 , 98.2)"
fill="#000000" 
stroke="none" 
 />
<use 
xlink:href ="#F2_8" 
 transform="matrix(0.012 , 0, 0 , -0.012, 797.5 , 98.2)"
fill="#000000" 
stroke="none" 
 />
<use 
xlink:href ="#F2_14" 
 transform="matrix(0.012 , 0, 0 , -0.012, 815.2 , 98.2)"
fill="#000000" 
stroke="none" 
 />
<use 
xlink:href ="#F2_13" 
 transform="matrix(0.012 , 0, 0 , -0.012, 826.5 , 98.2)"
fill="#000000" 
stroke="none" 
 />
<use 
xlink:href ="#F2_4" 
 transform="matrix(0.012 , 0, 0 , -0.012, 833.5 , 98.2)"
fill="#000000" 
stroke="none" 
 />
<use 
xlink:href ="#F2_12" 
 transform="matrix(0.012 , 0, 0 , -0.012, 850.8 , 98.2)"
fill="#000000" 
stroke="none" 
 />
<use 
xlink:href ="#F2_6" 
 transform="matrix(0.012 , 0, 0 , -0.012, 858 , 98.2)"
fill="#000000" 
stroke="none" 
 />
<use 
xlink:href ="#F2_26" 
 transform="matrix(0.012 , 0, 0 , -0.012, 869.4 , 98.2)"
fill="#000000" 
stroke="none" 
 />
<use 
xlink:href ="#F2_22" 
 transform="matrix(0.012 , 0, 0 , -0.012, 880.9 , 98.2)"
fill="#000000" 
stroke="none" 
 />
<use 
xlink:href ="#F2_4" 
 transform="matrix(0.012 , 0, 0 , -0.012, 886 , 98.2)"
fill="#000000" 
stroke="none" 
 />
<use 
xlink:href ="#F2_11" 
 transform="matrix(0.012 , 0, 0 , -0.012, 897.3 , 98.2)"
fill="#000000" 
stroke="none" 
 />
</g>
<image x="350" y="134" width="557" height="329" xlink:href="img/1.png" />
<image x="341" y="193" width="212" height="65" xlink:href="shade/1.png" />
<path d="M341.3,203.7l0,-0.7l0.2,-0.4l0,-0.6l0.1,-0.5l0.2,-0.6l0.1,-0.5l0.2,-0.6l0.1,-0.4l0.3,-0.6l0.3,-0.5l0.3,-0.5l0.3,-0.4l0.4,-0.5l0.3,-0.4l0.4,-0.3l0.5,-0.5l0.3,-0.3l0.4,-0.5l0.5,-0.3l0.5,-0.3l0.6,-0.1l0.4,-0.3l0.5,-0.2l0.6,-0.1l0.5,-0.3l0.6,0l0.4,-0.2l0.6,-0.1l0.6,0l0.5,0l189.4,0l0.7,0l0.4,0l0.6,0.1l0.5,0.2l0.6,0.1l0.5,0.2l0.6,0.1l0.4,0.2l0.6,0.3l0.5,0.1l0.5,0.3l0.4,0.5l0.5,0.3l0.4,0.3l0.3,0.5l0.5,0.3l0.3,0.4l0.3,0.5l0.3,0.4l0.3,0.5l0.3,0.5l0.3,0.6l0.2,0.4l0.1,0.6l0.2,0.5l0.1,0.6L552,202l0,0.6l0.1,0.4l0,0.7l0,42.7l0,0.6l0,0.5l-0.1,0.6l-0.2,0.5l-0.1,0.6l-0.2,0.4l-0.1,0.6l-0.2,0.5l-0.3,0.6l-0.1,0.5l-0.3,0.4l-0.5,0.5l-0.3,0.5l-0.3,0.4l-0.5,0.3l-0.3,0.5l-0.4,0.3l-0.5,0.3l-0.4,0.3l-0.5,0.3l-0.5,0.3l-0.6,0.3l-0.4,0.2l-0.6,0.1l-0.5,0.2l-0.6,0.1l-0.5,0.2l-0.6,0l-0.4,0.1l-0.7,0l-189.4,0l-0.5,0l-0.6,0L350.3,257l-0.4,0l-0.6,-0.2l-0.5,-0.1l-0.6,-0.3l-0.5,-0.2l-0.4,-0.3l-0.6,-0.2l-0.5,-0.3l-0.5,-0.3l-0.4,-0.4L345,254.4l-0.5,-0.3l-0.4,-0.5l-0.3,-0.4l-0.4,-0.5l-0.3,-0.5l-0.3,-0.4l-0.3,-0.5l-0.3,-0.6l-0.1,-0.5l-0.2,-0.6l-0.1,-0.4l-0.2,-0.6l-0.1,-0.5l0,-0.6L341.3,247l0,-0.6l0,-42.7Z" class="g2_32" />
<g clip-path="url(#c0_32)">
<use 
xlink:href ="#F6_13" 
 transform="matrix(0.014 , 0, 0 , -0.014, 382.3 , 220.8)"
fill="#000000" 
stroke="none" 
 />
<use 
xlink:href ="#F6_14" 
 transform="matrix(0.014 , 0, 0 , -0.014, 390.7 , 220.8)"
fill="#000000" 
stroke="none" 
 />
<use 
xlink:href ="#F6_16" 
 transform="matrix(0.014 , 0, 0 , -0.014, 406.5 , 220.8)"
fill="#000000" 
stroke="none" 
 />
<use 
xlink:href ="#F6_17" 
 transform="matrix(0.014 , 0, 0 , -0.014, 413.7 , 220.8)"
fill="#000000" 
stroke="none" 
 />
<use 
xlink:href ="#F6_18" 
 transform="matrix(0.014 , 0, 0 , -0.014, 424.3 , 220.8)"
fill="#000000" 
stroke="none" 
 />
<use 
xlink:href ="#F6_19" 
 transform="matrix(0.014 , 0, 0 , -0.014, 432.2 , 220.8)"
fill="#000000" 
stroke="none" 
 />
<use 
xlink:href ="#F6_16" 
 transform="matrix(0.014 , 0, 0 , -0.014, 439.4 , 220.8)"
fill="#000000" 
stroke="none" 
 />
<use 
xlink:href ="#F6_20" 
 transform="matrix(0.014 , 0, 0 , -0.014, 446.8 , 220.8)"
fill="#000000" 
stroke="none" 
 />
<use 
xlink:href ="#F6_23" 
 transform="matrix(0.014 , 0, 0 , -0.014, 451.6 , 220.8)"
fill="#000000" 
stroke="none" 
 />
<use 
xlink:href ="#F6_19" 
 transform="matrix(0.014 , 0, 0 , -0.014, 460.7 , 220.8)"
fill="#000000" 
stroke="none" 
 />
<use 
xlink:href ="#F6_24" 
 transform="matrix(0.014 , 0, 0 , -0.014, 472.6 , 220.8)"
fill="#000000" 
stroke="none" 
 />
<use 
xlink:href ="#F6_25" 
 transform="matrix(0.014 , 0, 0 , -0.014, 483.7 , 220.8)"
fill="#000000" 
stroke="none" 
 />
<use 
xlink:href ="#F6_19" 
 transform="matrix(0.014 , 0, 0 , -0.014, 493.8 , 220.8)"
fill="#000000" 
stroke="none" 
 />
<use 
xlink:href ="#F6_25" 
 transform="matrix(0.014 , 0, 0 , -0.014, 500.7 , 220.8)"
fill="#000000" 
stroke="none" 
 />
<use 
xlink:href ="#F6_25" 
 transform="matrix(0.014 , 0, 0 , -0.014, 418.8 , 246.4)"
fill="#000000" 
stroke="none" 
 />
<use 
xlink:href ="#F6_23" 
 transform="matrix(0.014 , 0, 0 , -0.014, 429.1 , 246.4)"
fill="#000000" 
stroke="none" 
 />
<use 
xlink:href ="#F6_23" 
 transform="matrix(0.014 , 0, 0 , -0.014, 438.4 , 246.4)"
fill="#000000" 
stroke="none" 
 />
<use 
xlink:href ="#F6_17" 
 transform="matrix(0.014 , 0, 0 , -0.014, 447.6 , 246.4)"
fill="#000000" 
stroke="none" 
 />
<use 
xlink:href ="#F6_18" 
 transform="matrix(0.014 , 0, 0 , -0.014, 458.1 , 246.4)"
fill="#000000" 
stroke="none" 
 />
<use 
xlink:href ="#F6_18" 
 transform="matrix(0.014 , 0, 0 , -0.014, 466.4 , 246.4)"
fill="#000000" 
stroke="none" 
 />
</g>
<image x="673" y="199" width="213" height="66" xlink:href="shade/2.png" />
<g clip-path="url(#c1_32)">
<path d="M674.5,263.5l212,0l0,-64l-212,0l0,64Z" class="g3_32" />
</g>
<path d="M674.1,210.4l0,-0.6l0,-0.6l0,-0.7l0.1,-0.4l0.2,-0.6l0.1,-0.5l0.2,-0.6l0.3,-0.5l0.1,-0.4l0.3,-0.6l0.3,-0.5L676,204l0.3,-0.3l0.4,-0.5l0.4,-0.5l0.5,-0.4L678,202l0.3,-0.3l0.5,-0.3l0.6,-0.3l0.5,-0.4l0.4,-0.3l0.5,-0.1l0.6,-0.2l0.4,-0.1l0.7,-0.2l0.6,-0.1l0.4,0l0.6,-0.2l0.7,0l190.8,0l0.4,0l0.6,0.2l0.7,0l0.4,0.1l0.6,0.2l0.5,0.1l0.4,0.2l0.6,0.3l0.5,0.1l0.5,0.4l0.6,0.3l0.4,0.3l0.3,0.3l0.5,0.4l0.5,0.3l0.3,0.5l0.4,0.5l0.3,0.3l0.3,0.6l0.3,0.4l0.3,0.5l0.2,0.4l0.3,0.7l0.2,0.4l0.1,0.5l0.2,0.6l0,0.4l0.1,0.7l0,0.6l0,0.6l0.2,42.6l0,0.6l-0.2,0.6l0,0.5l-0.1,0.6l-0.2,0.4l-0.1,0.7l-0.2,0.4l-0.3,0.6l-0.2,0.5l-0.3,0.4l-0.3,0.5l-0.3,0.5l-0.3,0.4l-0.4,0.5l-0.3,0.4l-0.5,0.3l-0.5,0.4l-0.3,0.4l-0.4,0.3l-0.6,0.3l-0.5,0.2l-0.5,0.3l-0.6,0.1l-0.4,0.3l-0.5,0.2l-0.6,0.1l-0.4,0l-0.7,0.2l-0.6,0l-0.4,0l-190.8,0.1l0,-0.1l-0.7,0l-0.6,0l-0.4,-0.2l-0.6,0l-0.7,-0.1l-0.4,-0.2l-0.6,-0.1l-0.5,-0.3l-0.4,-0.2l-0.5,-0.3L678.8,262l-0.5,-0.3L678,261.4l-0.4,-0.5l-0.5,-0.3l-0.4,-0.4l-0.4,-0.5L676,259.3L675.7,259l-0.3,-0.7l-0.3,-0.4L675,257.4L674.7,257l-0.2,-0.6l-0.1,-0.7l-0.2,-0.4l-0.1,-0.6l0,-0.5l0,-0.6l0,-0.6l0,-42.6Z" class="g2_32" />
<g clip-path="url(#c0_32)">
<use 
xlink:href ="#F6_13" 
 transform="matrix(0.014 , 0, 0 , -0.014, 705.5 , 227.5)"
fill="#000000" 
stroke="none" 
 />
<use 
xlink:href ="#F6_14" 
 transform="matrix(0.014 , 0, 0 , -0.014, 713.8 , 227.5)"
fill="#000000" 
stroke="none" 
 />
<use 
xlink:href ="#F6_26" 
 transform="matrix(0.014 , 0, 0 , -0.014, 729.7 , 227.5)"
fill="#000000" 
stroke="none" 
 />
<use 
xlink:href ="#F6_25" 
 transform="matrix(0.014 , 0, 0 , -0.014, 746.7 , 227.5)"
fill="#000000" 
stroke="none" 
 />
<use 
xlink:href ="#F6_27" 
 transform="matrix(0.014 , 0, 0 , -0.014, 757.1 , 227.5)"
fill="#000000" 
stroke="none" 
 />
<use 
xlink:href ="#F6_17" 
 transform="matrix(0.014 , 0, 0 , -0.014, 766.1 , 227.5)"
fill="#000000" 
stroke="none" 
 />
<use 
xlink:href ="#F6_23" 
 transform="matrix(0.014 , 0, 0 , -0.014, 781.5 , 227.5)"
fill="#000000" 
stroke="none" 
 />
<use 
xlink:href ="#F6_14" 
 transform="matrix(0.014 , 0, 0 , -0.014, 790.4 , 227.5)"
fill="#000000" 
stroke="none" 
 />
<use 
xlink:href ="#F6_26" 
 transform="matrix(0.014 , 0, 0 , -0.014, 801.7 , 227.5)"
fill="#000000" 
stroke="none" 
 />
<use 
xlink:href ="#F6_28" 
 transform="matrix(0.014 , 0, 0 , -0.014, 818.6 , 227.5)"
fill="#000000" 
stroke="none" 
 />
<use 
xlink:href ="#F6_29" 
 transform="matrix(0.014 , 0, 0 , -0.014, 830.1 , 227.5)"
fill="#000000" 
stroke="none" 
 />
<use 
xlink:href ="#F6_17" 
 transform="matrix(0.014 , 0, 0 , -0.014, 835 , 227.5)"
fill="#000000" 
stroke="none" 
 />
<use 
xlink:href ="#F6_30" 
 transform="matrix(0.014 , 0, 0 , -0.014, 845.2 , 227.5)"
fill="#000000" 
stroke="none" 
 />
<use 
xlink:href ="#F6_31" 
 transform="matrix(0.014 , 0, 0 , -0.014, 726.5 , 253.2)"
fill="#000000" 
stroke="none" 
 />
<use 
xlink:href ="#F6_32" 
 transform="matrix(0.014 , 0, 0 , -0.014, 737.6 , 253.2)"
fill="#000000" 
stroke="none" 
 />
<use 
xlink:href ="#F6_17" 
 transform="matrix(0.014 , 0, 0 , -0.014, 748.7 , 253.2)"
fill="#000000" 
stroke="none" 
 />
<use 
xlink:href ="#F6_16" 
 transform="matrix(0.014 , 0, 0 , -0.014, 759.4 , 253.2)"
fill="#000000" 
stroke="none" 
 />
<use 
xlink:href ="#F6_20" 
 transform="matrix(0.014 , 0, 0 , -0.014, 766.9 , 253.2)"
fill="#000000" 
stroke="none" 
 />
<use 
xlink:href ="#F6_17" 
 transform="matrix(0.014 , 0, 0 , -0.014, 771.6 , 253.2)"
fill="#000000" 
stroke="none" 
 />
<use 
xlink:href ="#F6_18" 
 transform="matrix(0.014 , 0, 0 , -0.014, 782.3 , 253.2)"
fill="#000000" 
stroke="none" 
 />
<use 
xlink:href ="#F6_17" 
 transform="matrix(0.014 , 0, 0 , -0.014, 795.3 , 253.2)"
fill="#000000" 
stroke="none" 
 />
<use 
xlink:href ="#F6_25" 
 transform="matrix(0.014 , 0, 0 , -0.014, 805.8 , 253.2)"
fill="#000000" 
stroke="none" 
 />
<use 
xlink:href ="#F6_18" 
 transform="matrix(0.014 , 0, 0 , -0.014, 816.3 , 253.2)"
fill="#000000" 
stroke="none" 
 />
<use 
xlink:href ="#F6_33" 
 transform="matrix(0.014 , 0, 0 , -0.014, 824 , 253.2)"
fill="#000000" 
stroke="none" 
 />
</g>
<image x="339" y="299" width="212" height="66" xlink:href="shade/3.png" />
<g clip-path="url(#c2_32)">
<path d="M339.5,363.5l211,0l0,-65l-211,0l0,65Z" class="g3_32" />
</g>
<path d="M339.5,309.7l0,-0.6l0,-0.5l0.1,-0.6l0,-0.5l0.2,-0.6l0.1,-0.4l0.3,-0.6l0.2,-0.5l0.3,-0.6l0.1,-0.5l0.4,-0.4l0.3,-0.5l0.4,-0.4l0.3,-0.5l0.3,-0.5l0.5,-0.3l0.4,-0.3l0.5,-0.4l0.5,-0.3l0.4,-0.3l0.5,-0.2l0.6,-0.3l0.4,-0.1l0.7,-0.4l0.4,-0.1l0.6,-0.2l0.5,0l0.6,-0.1l0.5,0l0.6,0l189.4,0l0.5,0l0.6,0l0.6,0.1l0.5,0.2l0.6,0.1l0.4,0l0.6,0.4l0.5,0.1l0.4,0.3l0.7,0.2l0.4,0.3l0.5,0.4l0.4,0.3l0.3,0.3l0.5,0.5l0.5,0.3l0.3,0.5l0.3,0.4l0.3,0.5l0.3,0.4l0.3,0.5l0.1,0.6l0.3,0.5l0.2,0.6l0.1,0.4l0.2,0.6l0.2,0.5l0,0.6l0,0.5l0,0.6l0.1,42.8l0,0.6l-0.1,0.4l0,0.6l-0.2,0.5l-0.2,0.6l-0.1,0.5l-0.2,0.6l-0.3,0.4l-0.1,0.6l-0.3,0.5l-0.3,0.5l-0.3,0.4l-0.3,0.5l-0.3,0.4l-0.5,0.3l-0.5,0.5l-0.3,0.3l-0.4,0.3l-0.5,0.3l-0.4,0.3l-0.7,0.3l-0.4,0.3l-0.5,0.2l-0.6,0.1l-0.4,0.2l-0.6,0.1l-0.5,0.2l-0.6,0l-0.6,0.2l-0.5,0l-189.4,0l-0.6,0l-0.5,0L348.5,363L348,362.8l-0.6,0L347,362.5l-0.7,-0.1l-0.4,-0.2l-0.6,-0.3l-0.5,-0.3l-0.4,-0.1l-0.5,-0.3l-0.5,-0.5L343,360.4l-0.5,-0.5l-0.3,-0.3l-0.3,-0.4l-0.4,-0.5l-0.3,-0.4l-0.4,-0.5l-0.1,-0.5l-0.3,-0.6l-0.2,-0.4l-0.3,-0.6l-0.1,-0.5l-0.2,-0.6l0,-0.5l-0.1,-0.6l0,-0.4l0,-0.6l0,-42.8Z" class="g2_32" />
<g clip-path="url(#c0_32)">
<use 
xlink:href ="#F6_13" 
 transform="matrix(0.014 , 0, 0 , -0.014, 378.3 , 326.8)"
fill="#000000" 
stroke="none" 
 />
<use 
xlink:href ="#F6_14" 
 transform="matrix(0.014 , 0, 0 , -0.014, 386.5 , 326.8)"
fill="#000000" 
stroke="none" 
 />
<use 
xlink:href ="#F6_28" 
 transform="matrix(0.014 , 0, 0 , -0.014, 402.4 , 326.8)"
fill="#000000" 
stroke="none" 
 />
<use 
xlink:href ="#F6_16" 
 transform="matrix(0.014 , 0, 0 , -0.014, 413.8 , 326.8)"
fill="#000000" 
stroke="none" 
 />
<use 
xlink:href ="#F6_14" 
 transform="matrix(0.014 , 0, 0 , -0.014, 420.9 , 326.8)"
fill="#000000" 
stroke="none" 
 />
<use 
xlink:href ="#F6_34" 
 transform="matrix(0.014 , 0, 0 , -0.014, 431.9 , 326.8)"
fill="#000000" 
stroke="none" 
 />
<use 
xlink:href ="#F6_20" 
 transform="matrix(0.014 , 0, 0 , -0.014, 441.6 , 326.8)"
fill="#000000" 
stroke="none" 
 />
<use 
xlink:href ="#F6_24" 
 transform="matrix(0.014 , 0, 0 , -0.014, 446.4 , 326.8)"
fill="#000000" 
stroke="none" 
 />
<use 
xlink:href ="#F6_17" 
 transform="matrix(0.014 , 0, 0 , -0.014, 457.5 , 326.8)"
fill="#000000" 
stroke="none" 
 />
<use 
xlink:href ="#F6_24" 
 transform="matrix(0.014 , 0, 0 , -0.014, 472.9 , 326.8)"
fill="#000000" 
stroke="none" 
 />
<use 
xlink:href ="#F6_25" 
 transform="matrix(0.014 , 0, 0 , -0.014, 484 , 326.8)"
fill="#000000" 
stroke="none" 
 />
<use 
xlink:href ="#F6_19" 
 transform="matrix(0.014 , 0, 0 , -0.014, 494.1 , 326.8)"
fill="#000000" 
stroke="none" 
 />
<use 
xlink:href ="#F6_25" 
 transform="matrix(0.014 , 0, 0 , -0.014, 501 , 326.8)"
fill="#000000" 
stroke="none" 
 />
<use 
xlink:href ="#F6_20" 
 transform="matrix(0.014 , 0, 0 , -0.014, 383 , 352.5)"
fill="#000000" 
stroke="none" 
 />
<use 
xlink:href ="#F6_35" 
 transform="matrix(0.014 , 0, 0 , -0.014, 387.7 , 352.5)"
fill="#000000" 
stroke="none" 
 />
<use 
xlink:href ="#F6_24" 
 transform="matrix(0.014 , 0, 0 , -0.014, 398.9 , 352.5)"
fill="#000000" 
stroke="none" 
 />
<use 
xlink:href ="#F6_17" 
 transform="matrix(0.014 , 0, 0 , -0.014, 410.2 , 352.5)"
fill="#000000" 
stroke="none" 
 />
<use 
xlink:href ="#F6_28" 
 transform="matrix(0.014 , 0, 0 , -0.014, 420.7 , 352.5)"
fill="#000000" 
stroke="none" 
 />
<use 
xlink:href ="#F6_17" 
 transform="matrix(0.014 , 0, 0 , -0.014, 432.2 , 352.5)"
fill="#000000" 
stroke="none" 
 />
<use 
xlink:href ="#F6_35" 
 transform="matrix(0.014 , 0, 0 , -0.014, 442.7 , 352.5)"
fill="#000000" 
stroke="none" 
 />
<use 
xlink:href ="#F6_24" 
 transform="matrix(0.014 , 0, 0 , -0.014, 453.9 , 352.5)"
fill="#000000" 
stroke="none" 
 />
<use 
xlink:href ="#F6_17" 
 transform="matrix(0.014 , 0, 0 , -0.014, 465.1 , 352.5)"
fill="#000000" 
stroke="none" 
 />
<use 
xlink:href ="#F6_35" 
 transform="matrix(0.014 , 0, 0 , -0.014, 475.7 , 352.5)"
fill="#000000" 
stroke="none" 
 />
<use 
xlink:href ="#F6_23" 
 transform="matrix(0.014 , 0, 0 , -0.014, 486.8 , 352.5)"
fill="#000000" 
stroke="none" 
 />
<use 
xlink:href ="#F6_17" 
 transform="matrix(0.014 , 0, 0 , -0.014, 496 , 352.5)"
fill="#000000" 
stroke="none" 
 />
</g>
<image x="673" y="299" width="213" height="66" xlink:href="shade/4.png" />
<g clip-path="url(#c3_32)">
<path d="M674.5,363.5l212,0l0,-65l-212,0l0,65Z" class="g3_32" />
</g>
<path d="M674.1,309.7l0,-0.6l0,-0.5l0,-0.6l0.1,-0.5l0.2,-0.6l0.1,-0.4l0.2,-0.6l0.3,-0.5l0.1,-0.6l0.3,-0.5l0.3,-0.4l0.3,-0.5l0.3,-0.4l0.4,-0.5l0.4,-0.5l0.5,-0.3l0.4,-0.3l0.3,-0.4l0.5,-0.3l0.6,-0.3l0.5,-0.2l0.4,-0.3l0.5,-0.1l0.6,-0.4l0.4,-0.1l0.7,-0.2l0.6,0l0.4,-0.1l0.6,0l0.7,0l190.8,0l0.4,0l0.6,0l0.7,0.1l0.4,0.2l0.6,0.1l0.5,0l0.4,0.4l0.6,0.1l0.5,0.3l0.5,0.2l0.6,0.3l0.4,0.4l0.3,0.3l0.5,0.3l0.5,0.5l0.3,0.3l0.4,0.5l0.3,0.4l0.3,0.5l0.3,0.4l0.3,0.5l0.2,0.6l0.3,0.5l0.2,0.6l0.1,0.4l0.2,0.6l0,0.5l0.1,0.6l0,0.5l0,0.6l0.2,42.8l0,0.6l-0.2,0.4l0,0.6l-0.1,0.5l-0.2,0.6l-0.1,0.5l-0.2,0.6l-0.3,0.4l-0.2,0.6l-0.3,0.5l-0.3,0.5l-0.3,0.4l-0.3,0.5l-0.4,0.4l-0.3,0.3l-0.5,0.5l-0.5,0.3l-0.3,0.3l-0.4,0.3l-0.6,0.3l-0.5,0.3l-0.5,0.3l-0.6,0.2l-0.4,0.1l-0.5,0.2l-0.6,0.1l-0.4,0.2l-0.7,0l-0.6,0.2l-0.4,0l-190.8,0l-0.7,0l-0.6,0L683.1,363l-0.6,-0.2l-0.7,0l-0.4,-0.3l-0.6,-0.1l-0.5,-0.2l-0.4,-0.3l-0.5,-0.3l-0.6,-0.1l-0.5,-0.3L678,360.7l-0.4,-0.3l-0.5,-0.5l-0.4,-0.3l-0.4,-0.4L676,358.7l-0.3,-0.4l-0.3,-0.5l-0.3,-0.5L675,356.7l-0.3,-0.4l-0.2,-0.6l-0.1,-0.5l-0.2,-0.6l-0.1,-0.5l0,-0.6l0,-0.4l0,-0.6l0,-42.8Z" class="g2_32" />
<g clip-path="url(#c0_32)">
<use 
xlink:href ="#F6_36" 
 transform="matrix(0.014 , 0, 0 , -0.014, 706.8 , 326.8)"
fill="#000000" 
stroke="none" 
 />
<use 
xlink:href ="#F6_16" 
 transform="matrix(0.014 , 0, 0 , -0.014, 717.7 , 326.8)"
fill="#000000" 
stroke="none" 
 />
<use 
xlink:href ="#F6_17" 
 transform="matrix(0.014 , 0, 0 , -0.014, 724.9 , 326.8)"
fill="#000000" 
stroke="none" 
 />
<use 
xlink:href ="#F6_18" 
 transform="matrix(0.014 , 0, 0 , -0.014, 735.6 , 326.8)"
fill="#000000" 
stroke="none" 
 />
<use 
xlink:href ="#F6_17" 
 transform="matrix(0.014 , 0, 0 , -0.014, 743.9 , 326.8)"
fill="#000000" 
stroke="none" 
 />
<use 
xlink:href ="#F6_35" 
 transform="matrix(0.014 , 0, 0 , -0.014, 754.4 , 326.8)"
fill="#000000" 
stroke="none" 
 />
<use 
xlink:href ="#F6_19" 
 transform="matrix(0.014 , 0, 0 , -0.014, 765.2 , 326.8)"
fill="#000000" 
stroke="none" 
 />
<use 
xlink:href ="#F6_37" 
 transform="matrix(0.014 , 0, 0 , -0.014, 777.1 , 326.8)"
fill="#000000" 
stroke="none" 
 />
<use 
xlink:href ="#F6_20" 
 transform="matrix(0.014 , 0, 0 , -0.014, 790.3 , 326.8)"
fill="#000000" 
stroke="none" 
 />
<use 
xlink:href ="#F6_38" 
 transform="matrix(0.014 , 0, 0 , -0.014, 795 , 326.8)"
fill="#000000" 
stroke="none" 
 />
<use 
xlink:href ="#F6_17" 
 transform="matrix(0.014 , 0, 0 , -0.014, 807.1 , 326.8)"
fill="#000000" 
stroke="none" 
 />
<use 
xlink:href ="#F6_16" 
 transform="matrix(0.014 , 0, 0 , -0.014, 817.6 , 326.8)"
fill="#000000" 
stroke="none" 
 />
<use 
xlink:href ="#F6_17" 
 transform="matrix(0.014 , 0, 0 , -0.014, 824.8 , 326.8)"
fill="#000000" 
stroke="none" 
 />
<use 
xlink:href ="#F6_35" 
 transform="matrix(0.014 , 0, 0 , -0.014, 835.5 , 326.8)"
fill="#000000" 
stroke="none" 
 />
<use 
xlink:href ="#F6_19" 
 transform="matrix(0.014 , 0, 0 , -0.014, 846.2 , 326.8)"
fill="#000000" 
stroke="none" 
 />
<use 
xlink:href ="#F6_39" 
 transform="matrix(0.014 , 0, 0 , -0.014, 696.4 , 352.5)"
fill="#000000" 
stroke="none" 
 />
<use 
xlink:href ="#F6_20" 
 transform="matrix(0.014 , 0, 0 , -0.014, 708.4 , 352.5)"
fill="#000000" 
stroke="none" 
 />
<use 
xlink:href ="#F6_17" 
 transform="matrix(0.014 , 0, 0 , -0.014, 713.3 , 352.5)"
fill="#000000" 
stroke="none" 
 />
<use 
xlink:href ="#F6_40" 
 transform="matrix(0.014 , 0, 0 , -0.014, 723.7 , 352.5)"
fill="#000000" 
stroke="none" 
 />
<use 
xlink:href ="#F6_18" 
 transform="matrix(0.014 , 0, 0 , -0.014, 738.8 , 352.5)"
fill="#000000" 
stroke="none" 
 />
<use 
xlink:href ="#F6_14" 
 transform="matrix(0.014 , 0, 0 , -0.014, 751.8 , 352.5)"
fill="#000000" 
stroke="none" 
 />
<use 
xlink:href ="#F6_41" 
 transform="matrix(0.014 , 0, 0 , -0.014, 763 , 352.5)"
fill="#000000" 
stroke="none" 
 />
<use 
xlink:href ="#F6_18" 
 transform="matrix(0.014 , 0, 0 , -0.014, 774.1 , 352.5)"
fill="#000000" 
stroke="none" 
 />
<use 
xlink:href ="#F6_25" 
 transform="matrix(0.014 , 0, 0 , -0.014, 782.4 , 352.5)"
fill="#000000" 
stroke="none" 
 />
<use 
xlink:href ="#F6_26" 
 transform="matrix(0.014 , 0, 0 , -0.014, 792.9 , 352.5)"
fill="#000000" 
stroke="none" 
 />
<use 
xlink:href ="#F6_17" 
 transform="matrix(0.014 , 0, 0 , -0.014, 809.9 , 352.5)"
fill="#000000" 
stroke="none" 
 />
<use 
xlink:href ="#F6_24" 
 transform="matrix(0.014 , 0, 0 , -0.014, 825.3 , 352.5)"
fill="#000000" 
stroke="none" 
 />
<use 
xlink:href ="#F6_25" 
 transform="matrix(0.014 , 0, 0 , -0.014, 836.4 , 352.5)"
fill="#000000" 
stroke="none" 
 />
<use 
xlink:href ="#F6_19" 
 transform="matrix(0.014 , 0, 0 , -0.014, 846.5 , 352.5)"
fill="#000000" 
stroke="none" 
 />
<use 
xlink:href ="#F6_25" 
 transform="matrix(0.014 , 0, 0 , -0.014, 853.3 , 352.5)"
fill="#000000" 
stroke="none" 
 />
</g>
<defs>
	<path d="M589.7,-13.7c0,0,-128.3,0,-223,39.7c0,0,-96.3,39.7,-160.4,111.5c0,0,-65.7,73.3,-97.8,172.6c0,0,-32.1,100.9,-32.1,220c0,0,0,122.3,33.6,221.6c0,0,35.1,99.3,99.3,168c0,0,65.7,70.3,160.4,108.5c0,0,96.3,38.2,218.5,38.2c0,0,168.1,0,281.1,-65.7c0,0,113.1,-65.7,165,-195.6L899.9,760.8c0,0,-15.3,36.7,-39.8,70.3c0,0,-25.9,35.2,-64.1,61.1c0,0,-38.2,26,-88.6,41.3c0,0,-52,16.8,-117.7,16.8c0,0,-88.6,0,-157.3,-29c0,0,-70.3,-30.6,-116.1,-85.6c0,0,-47.4,-56.5,-70.3,-132.9c0,0,-24.5,-77.9,-24.5,-172.7c0,0,0,-94.7,26,-172.6c0,0,26,-79.4,73.3,-136c0,0,48.9,-58,117.7,-88.6c0,0,70.3,-32.1,157.3,-32.1c0,0,61.1,0,111.6,15.3c0,0,50.4,16.8,90.1,45.8c0,0,41.3,29.1,73.3,68.8c0,0,32.1,41.2,56.6,88.6l117.6,-58c0,0,-29,-58.1,-70.3,-108.5c0,0,-42.8,-52,-97.8,-88.6c0,0,-56.5,-36.7,-128.3,-56.6c0,0,-71.8,-21.3,-158.9,-21.3Z" 
	id="F1_2"
	 />

	<path d="M418.6,84c0,0,52,0,93.2,13.8c0,0,42.8,15.3,71.8,51.9c0,0,29,36.7,44.3,97.8c0,0,15.3,62.6,15.3,155.8c0,0,0,94.8,-13.8,155.9c0,0,-15.2,61.1,-42.7,97.7c0,0,-27.5,36.7,-67.3,50.5c0,0,-41.2,15.2,-91.6,15.2c0,0,-52,0,-93.2,-15.2c0,0,-41.3,-15.3,-70.3,-52c0,0,-29,-38.2,-44.3,-99.3c0,0,-15.3,-61.1,-15.3,-152.8c0,0,0,-93.2,15.3,-154.3c0,0,16.8,-62.6,45.8,-99.3c0,0,29.1,-36.6,67.3,-50.4c0,0,39.7,-15.3,85.5,-15.3Zm1.5,-97.7c0,0,-84,0,-149.7,24.4c0,0,-67.2,24.4,-113,76.4c0,0,-45.9,51.9,-70.3,129.8c0,0,-24.5,79.5,-24.5,186.4c0,0,0,418.6,362.1,418.6c0,0,94.7,0,162,-25.9c0,0,68.7,-27.5,111.5,-79.5c0,0,44.3,-51.9,65.7,-129.8c0,0,21.4,-77.9,21.4,-183.4c0,0,0,-212.3,-93.2,-314.7c0,0,-93.2,-102.3,-272,-102.3Z" 
	id="F1_3"
	 />

	<path d="M452.2,84c0,0,56.6,0,93.2,21.4c0,0,36.7,21.4,58.1,62.7c0,0,22.9,41.2,30.5,99.3c0,0,9.2,59.5,9.2,135.9c0,0,0,74.9,-7.6,133c0,0,-9.2,58,-30.6,97.7c0,0,-22.9,41.3,-59.6,61.1c0,0,-36.6,21.4,-91.6,21.4c0,0,-44.4,0,-84.1,-12.2c0,0,-39.7,-12.2,-68.7,-47.4c0,0,-30.6,-36.6,-47.4,-99.3c0,0,-16.8,-64.1,-16.8,-165c0,0,0,-85.5,13.8,-143.6c0,0,13.7,-59.6,41.2,-96.2c0,0,27.5,-36.7,67.2,-52c0,0,41.3,-16.8,93.2,-16.8ZM102.4,-316.2l0,957.9c0,0,0,29,0,55c0,0,-1.6,27.5,-1.6,48.9c0,0,-1.5,22.9,-1.5,38.2c0,0,-1.5,15.2,-1.5,22.9l129.8,0c0,0,0,-3.1,1.6,-15.3c0,0,1.5,-13.8,1.5,-32.1c0,0,1.5,-19.9,3.1,-41.2c0,0,1.5,-21.4,1.5,-41.3l3,0c0,0,18.4,38.2,41.3,65.7c0,0,24.4,27.5,55,44.3c0,0,30.5,18.3,68.7,26c0,0,38.2,7.6,84.1,7.6c0,0,84,0,140.5,-29c0,0,58.1,-30.6,91.7,-84c0,0,35.1,-55,50.4,-131.4c0,0,15.3,-76.4,15.3,-169.6c0,0,0,-91.7,-15.3,-169.6c0,0,-15.3,-77.9,-48.9,-132.9c0,0,-35.1,-56.5,-91.7,-87.1c0,0,-58,-30.5,-142,-30.5c0,0,-85.6,0,-149.8,32c0,0,-65.7,32.1,-100.8,107l-3,0c0,0,0,-1.5,0,-13.8c0,0,1.5,-12.2,1.5,-30.5c0,0,0,-18.4,0,-39.7c0,0,1.5,-21.4,1.5,-41.3l0,-316.2Z" 
	id="F1_4"
	 />

	<path d="M142.1,-316.2c0,0,-26,0,-47.4,1.6c0,0,-21.4,1.5,-45.8,6.1l0,100.8c0,0,13.7,-1.5,32.1,-3c0,0,18.3,-1.6,30.5,-1.6c0,0,59.6,0,110,44.3c0,0,50.4,44.3,88.6,140.6L322.4,3.1L3.1,806.7l143.6,0L316.3,360.6c0,0,7.6,-19.9,18.3,-53.5c0,0,12.2,-33.6,22.9,-67.2c0,0,12.2,-33.6,21.4,-59.6c0,0,9.2,-27.5,10.7,-35.2c0,0,1.5,9.2,10.7,32.1c0,0,9.1,24.5,19.8,53.5c0,0,10.7,30.6,21.4,61.1c0,0,10.7,30.6,18.4,53.5L618.8,806.7l142,0L449.2,0c0,0,-27.5,-71.7,-56.6,-129.8c0,0,-30.5,-59.5,-67.2,-100.8c0,0,-36.6,-41.2,-81,-62.6c0,0,-44.3,-23,-102.3,-23Z" 
	id="F1_5"
	 />

	<path d="M105.4,0l0,618.8c0,0,0,24.4,0,50.4c0,0,-1.5,27.5,-1.5,51.9c0,0,-1.5,24.5,-1.5,45.8c0,0,-1.6,23,-1.6,39.8l126.8,0c0,0,0,-16.8,1.6,-38.2c0,0,1.5,-22.9,1.5,-45.9c0,0,1.5,-22.9,1.5,-44.3c0,0,1.6,-21.4,1.6,-36.6l3,0c0,0,13.8,45.8,29,79.4c0,0,16.8,35.2,38.2,56.5c0,0,21.4,21.4,50.4,32.1c0,0,30.6,12.2,73.4,12.2c0,0,16.8,0,32.1,-3c0,0,15.2,-3.1,22.9,-4.6l0,-123.7c0,0,-13.8,4.5,-30.6,6.1c0,0,-18.3,1.5,-41.2,1.5c0,0,-45.9,0,-77.9,-19.9c0,0,-33.7,-21.4,-53.5,-58c0,0,-21.4,-38.2,-30.6,-88.6c0,0,-9.1,-52,-9.1,-111.6L239.9,0Z" 
	id="F1_6"
	 />

	<path d="M100,0l0,806l135,0L235,0Zm0,977l0,129l135,0l0,-129Z" 
	id="F1_7"
	 />

	<path d="M397.2,93.2c0,0,39.7,0,77.9,16.8c0,0,38.2,16.8,68.8,53.5c0,0,30.5,38.2,48.9,96.2c0,0,19.8,59.6,19.8,143.6c0,0,0,84.1,-18.3,143.6c0,0,-18.3,59.6,-47.4,97.8c0,0,-30.5,38.2,-68.7,56.6c0,0,-38.2,18.3,-79.4,18.3c0,0,-50.5,0,-87.1,-18.3c0,0,-38.2,-18.4,-62.7,-56.6c0,0,-24.4,-38.2,-35.1,-97.8c0,0,-12.2,-61.1,-12.2,-143.6c0,0,0,-87,10.7,-146.6c0,0,12.2,-59.6,36.6,-96.3c0,0,24.5,-36.6,61.1,-51.9c0,0,36.7,-15.3,87.1,-15.3Zm10.7,-409.4c0,0,-68.7,0,-122.2,13.8c0,0,-55,15.3,-91.7,41.2c0,0,-38.2,26,-62.6,62.7c0,0,-24.5,36.7,-35.1,81l135.9,19.8c0,0,13.8,-56.5,59.6,-85.5c0,0,45.8,-30.6,120.7,-30.6c0,0,44.3,0,81,12.2c0,0,38.2,12.3,64.1,39.8c0,0,26,29,39.8,73.3c0,0,15.2,45.8,15.2,108.4l0,129.8l-1.5,0c0,0,-15.3,-30.5,-36.7,-58c0,0,-22.9,-29.1,-53.4,-50.4c0,0,-32.1,-21.4,-73.4,-33.7c0,0,-42.7,-12.1,-96.2,-12.1c0,0,-76.4,0,-131.4,24.4c0,0,-55,24.4,-90.1,76.4c0,0,-35.2,51.9,-50.5,128.3c0,0,-16.8,76.4,-16.8,177.2c0,0,0,96.3,15.3,174.2c0,0,16.8,77.9,53.5,131.4c0,0,36.7,55,94.7,82.5c0,0,58.1,29,140.6,29c0,0,85.5,0,148.2,-38.2c0,0,62.6,-39.7,97.7,-113.1l1.6,0c0,0,0,19.9,0,42.8c0,0,1.5,22.9,3,42.8c0,0,1.6,21.4,3.1,35.1c0,0,1.5,15.3,3,18.4l126.8,0c0,0,0,-7.7,0,-22.9c0,0,-1.5,-16.9,-1.5,-38.2c0,0,-1.5,-23,-1.5,-50.5c0,0,-1.5,-27.5,-1.5,-56.5l0,-615.7c0,0,0,-167.9,-82.5,-253.5c0,0,-84.1,-85.6,-255.2,-85.6Z" 
	id="F1_8"
	 />

	<path d="M105.4,0l0,1106.1l134.5,0l0,-287.2c0,0,0,-24.5,0,-48.9c0,0,-1.6,-26,-3.1,-45.8c0,0,-1.5,-21.4,-1.5,-35.2c0,0,-1.5,-15.2,-1.5,-21.4l1.5,0c0,0,22.9,41.3,48.9,70.3c0,0,25.9,29,56.5,47.4c0,0,32.1,18.3,68.7,27.5c0,0,38.2,9.1,84.1,9.1c0,0,77.9,0,126.8,-21.3c0,0,50.4,-21.4,79.4,-58.1c0,0,29.1,-38.2,39.7,-90.1c0,0,10.7,-52,10.7,-114.6L750.1,0L614.2,0l0,510.3c0,0,0,51.9,-6.1,90.1c0,0,-6.2,39.7,-23,65.7c0,0,-18.3,26,-50.4,38.2c0,0,-33.6,13.8,-87.1,13.8c0,0,-47.3,0,-85.5,-16.8c0,0,-38.2,-18.4,-65.7,-48.9c0,0,-27.5,-32.1,-41.3,-76.4c0,0,-15.2,-44.3,-15.2,-100.9L239.9,0Z" 
	id="F1_9"
	 />

	<path d="M276.5,-10.6c0,0,-160.4,0,-160.4,180.2l0,539.3l-93.2,0l0,97.8l97.8,0l39.7,180.2l90.2,0l0,-180.2l148.2,0l0,-97.8l-148.2,0l0,-510.3c0,0,0,-58,18.3,-81c0,0,18.3,-22.9,65.7,-22.9c0,0,19.8,0,38.2,1.6c0,0,18.3,3,39.7,7.6l0,-99.3c0,0,-30.6,-6,-62.6,-10.6c0,0,-32.1,-4.6,-73.4,-4.6Z" 
	id="F1_10"
	 />

	<path d="M670.7,174.2c0,0,51.9,0,96.2,22.9c0,0,44.4,24.4,79.5,61.1c0,0,36.7,38.2,62.6,87.1c0,0,26,50.4,39.8,102.3c0,0,6.1,27.5,10.6,56.6c0,0,6.2,30.5,6.2,51.9c0,0,0,38.2,-12.3,68.8c0,0,-12.2,32,-35.1,53.4c0,0,-24.4,23,-58.1,35.2c0,0,-33.6,12.2,-74.8,12.2c0,0,-64.2,0,-111.5,-30.6c0,0,-48.9,-32,-81,-84c0,0,-33.6,-51.9,-50.4,-116.1c0,0,-16.8,-64.2,-16.8,-129.9c0,0,0,-88.6,35.1,-139c0,0,36.7,-51.9,110,-51.9Zm39.7,-384.9c0,0,-140.5,0,-250.5,42.7c0,0,-110,42.8,-186.4,119.2c0,0,-76.4,76.3,-114.6,181.7c0,0,-39.7,107,-39.7,232.2c0,0,0,103.9,22.9,198.7c0,0,24.4,96.2,67.2,178.7c0,0,44.3,82.5,107,148.2c0,0,64.1,67.2,143.6,114.6c0,0,80.9,48.9,175.7,74.8c0,0,96.2,26,203.2,26c0,0,149.7,0,258.1,-44.3c0,0,110,-44.3,180.3,-117.6c0,0,71.8,-74.9,105.4,-172.7c0,0,35.2,-99.3,35.2,-209.3c0,0,0,-106.9,-24.5,-195.5c0,0,-25.9,-90.2,-68.7,-154.3c0,0,-44.3,-64.2,-105.4,-99.3c0,0,-62.7,-36.7,-134.5,-36.7c0,0,-41.2,0,-70.3,9.2c0,0,-30.5,10.7,-48.8,27.5c0,0,-18.4,18.3,-26,42.7c0,0,-9.2,24.5,-9.2,52c0,0,0,12.2,0,27.5c0,0,1.5,16.8,1.5,24.4l-4.5,0c0,0,-16.8,-33.6,-42.8,-65.7c0,0,-26,-33.6,-59.6,-59.6c0,0,-35.1,-25.9,-79.4,-41.2c0,0,-44.3,-16.8,-96.3,-16.8c0,0,-62.6,0,-108.5,21.4c0,0,-47.3,22.9,-77.9,61.1c0,0,-30.5,38.2,-44.3,90.1c0,0,-15.3,53.5,-15.3,114.6c0,0,0,90.2,26,172.7c0,0,26,82.5,74.9,145.1c0,0,50.4,62.6,119.1,100.8c0,0,68.8,38.2,154.3,38.2c0,0,44.3,0,79.5,-9.1c0,0,36.7,-10.7,64.2,-29.1c0,0,27.5,-18.3,47.3,-42.8c0,0,19.9,-24.4,33.6,-55l4.6,0l29,119.2l116.1,0l-87,-377.3c0,0,-13.8,-62.7,-19.9,-107c0,0,-7.6,-44.3,-7.6,-81c0,0,0,-36.6,15.2,-53.4c0,0,16.8,-16.8,45.9,-16.8c0,0,45.8,0,85.5,29c0,0,39.8,30.5,68.8,84c0,0,30.5,53.5,47.3,123.8c0,0,16.8,71.8,16.8,155.8c0,0,0,96.2,-30.5,178.7c0,0,-32.1,84.1,-91.7,143.7c0,0,-59.6,61.1,-148.2,94.7c0,0,-90.1,35.1,-206.2,35.1c0,0,-99.3,0,-183.4,-24.4c0,0,-85.5,-24.5,-154.3,-67.2c0,0,-68.7,-42.8,-120.7,-102.4c0,0,-51.9,-61.1,-87,-132.9c0,0,-35.2,-71.8,-52,-152.8c0,0,-18.3,-82.5,-18.3,-168.1c0,0,0,-105.4,32.1,-194c0,0,32.1,-88.6,93.2,-151.2c0,0,62.6,-62.6,152.7,-97.7c0,0,90.2,-36.7,207.8,-36.7c0,0,79.5,0,146.7,12.2c0,0,67.2,12.3,123.7,29.1c0,0,58.1,18.3,102.4,39.7c0,0,44.3,21.4,77.9,38.1l41.3,-82.4c0,0,-38.2,-21.4,-88.6,-44.3c0,0,-50.5,-24.5,-111.6,-44.3c0,0,-62.6,-19.9,-134.4,-32.1c0,0,-73.4,-12.2,-157.4,-12.2Z" 
	id="F1_12"
	 />

	<path d="M76.4,0l0,94.7c0,0,38.2,87.1,91.7,152.8c0,0,55,67.2,116.1,120.7c0,0,61.1,55,119.1,100.8c0,0,59.6,45.9,107,91.7c0,0,48.9,47.4,77.9,97.8c0,0,29,50.4,29,114.6c0,0,0,45.8,-12.2,79.4c0,0,-13.7,33.6,-38.2,56.5c0,0,-26,22.9,-61.1,33.6c0,0,-36.7,12.3,-79.4,12.3c0,0,-41.3,0,-76.4,-10.7c0,0,-35.2,-10.7,-62.7,-32.1c0,0,-27.5,-22.9,-44.3,-56.5c0,0,-18.3,-33.7,-22.9,-78L82.5,791.4c0,0,6.1,56.5,30.6,105.4c0,0,24.4,50.4,67.2,87.1c0,0,44.3,38.2,105.4,59.6c0,0,61.1,22.9,140.6,22.9c0,0,77.9,0,139,-18.3c0,0,61.1,-19.9,102.3,-56.6c0,0,42.8,-36.6,65.7,-90.1c0,0,23,-53.5,23,-123.8c0,0,0,-51.9,-18.4,-99.3c0,0,-19.8,-48.9,-51.9,-91.6c0,0,-32.1,-44.3,-73.4,-84.1c0,0,-41.2,-39.7,-87,-77.9c0,0,-45.9,-39.7,-91.7,-76.4c0,0,-47.4,-38.2,-87.1,-76.4c0,0,-41.2,-38.1,-73.3,-76.3c0,0,-32.1,-39.8,-50.4,-82.5l548.4,0L771.5,0Z" 
	id="F1_13"
	 />

	<path d="M423.2,94.7c0,0,53.5,0,96.2,21.4c0,0,42.8,21.4,71.9,71.8c0,0,29,50.4,44.3,132.9c0,0,16.8,84.1,16.8,204.8c0,0,0,125.2,-13.8,207.7c0,0,-15.3,84.1,-44.3,133c0,0,-29,50.4,-71.8,70.2c0,0,-42.8,19.9,-96.2,19.9c0,0,-56.6,0,-99.4,-19.9c0,0,-42.7,-21.4,-71.8,-70.2c0,0,-30.5,-50.5,-45.8,-133c0,0,-15.3,-84,-15.3,-207.7c0,0,0,-120.7,15.3,-203.2c0,0,15.3,-84.1,44.3,-134.5c0,0,30.6,-50.4,73.3,-71.8c0,0,42.8,-21.4,96.3,-21.4ZM421.7,-13.7c0,0,-76.4,0,-142.1,25.9c0,0,-67.2,27.5,-116.1,90.2c0,0,-48.9,64.1,-76.4,166.5c0,0,-27.5,103.9,-27.5,256.7c0,0,0,158.8,27.5,262.7c0,0,27.5,103.9,76.4,165c0,0,50.4,62.7,117.6,87.1c0,0,67.2,26,145.2,26c0,0,76.3,0,142,-24.5c0,0,65.7,-25.9,114.6,-87c0,0,48.9,-62.7,77.9,-166.6c0,0,29.1,-103.9,29.1,-262.7c0,0,0,-151.3,-29.1,-255.2c0,0,-29,-103.9,-77.9,-166.5c0,0,-50.4,-64.2,-117.6,-90.1c0,0,-67.2,-27.5,-143.6,-27.5Z" 
	id="F1_14"
	 />

	<path d="M116.1,0l0,113.1l267.4,0l0,809.7L146.7,753.2l0,126.8l247.5,169.6l123.7,0l0,-936.5l256.7,0L774.6,0Z" 
	id="F1_15"
	 />

	<path d="M438.5,93.2c0,0,47.3,0,85.5,16.8c0,0,39.8,16.8,65.7,47.4c0,0,27.5,32,41.3,77.9c0,0,13.7,45.8,13.7,102.3c0,0,0,53.5,-12.2,97.8c0,0,-13.7,44.3,-39.7,74.9c0,0,-27.5,30.5,-67.2,47.3c0,0,-39.8,16.8,-91.7,16.8c0,0,-36.7,0,-73.3,-10.6c0,0,-38.2,-10.7,-68.8,-33.7c0,0,-30.5,-24.4,-48.9,-64.1c0,0,-19.8,-39.7,-19.8,-96.3c0,0,0,-58,15.2,-108.4c0,0,15.3,-50.5,42.8,-87.1c0,0,29,-38.2,67.2,-59.6c0,0,39.8,-21.4,90.2,-21.4Zm4.6,-106.9c0,0,-93.2,0,-160.5,33.6c0,0,-68.7,35.1,-114.5,100.8c0,0,-45.9,65.7,-68.8,161.9c0,0,-22.9,96.3,-22.9,218.5c0,0,0,139,26,244.5c0,0,25.9,106.9,73.3,177.2c0,0,48.9,71.8,119.2,106.9c0,0,70.2,36.7,157.3,36.7c0,0,55,0,100.9,-10.7c0,0,47.3,-12.2,85.5,-36.7c0,0,38.2,-25.9,67.2,-65.7c0,0,29.1,-41.2,47.4,-100.8L624.9,828.1c0,0,-21.4,68.7,-67.3,97.7c0,0,-45.8,30.6,-106.9,30.6c0,0,-55,0,-99.3,-26c0,0,-44.3,-26,-74.9,-77.9c0,0,-32.1,-51.9,-48.9,-129.9c0,0,-16.8,-77.9,-16.8,-181.8c0,0,36.7,67.3,102.4,102.4c0,0,67.2,35.1,152.8,35.1c0,0,71.8,0,129.8,-22.9c0,0,58.1,-22.9,99.3,-65.7c0,0,41.3,-44.3,64.2,-106.9c0,0,22.9,-62.7,22.9,-139c0,0,0,-79.5,-21.4,-145.2c0,0,-22.9,-67.2,-65.7,-114.6c0,0,-42.7,-47.3,-105.4,-71.8c0,0,-64.1,-25.9,-146.6,-25.9Z" 
	id="F1_16"
	 />

	<path d="M136,-193.9c0,0,33.6,47.3,51.9,96.2c0,0,18.4,50.4,18.4,97.7L140.6,0l0,161.9l145.1,0l0,-125.2c0,0,0,-36.7,-3.1,-68.7c0,0,-3,-33.6,-10.7,-61.1c0,0,-7.6,-29,-18.3,-53.5c0,0,-10.7,-24.4,-26,-47.3Z" 
	id="F1_17"
	 />

	<path d="M140,0l0,1049l142,0L282,0Z" 
	id="F1_18"
	 />

	<path d="M105.4,0l0,634c0,0,0,26,0,53.5c0,0,-1.5,27.5,-1.5,51.9c0,0,-1.5,26,-1.5,42.8c0,0,-1.6,18.4,-1.6,24.5l126.8,0c0,0,0,-4.6,0,-19.9c0,0,1.6,-16.8,3.1,-38.2c0,0,1.5,-21.4,1.5,-42.8c0,0,1.6,-22.9,1.6,-38.2l1.5,0c0,0,19.8,35.2,42.8,64.2c0,0,22.9,29,53.4,47.4c0,0,30.6,19.8,70.3,30.5c0,0,39.7,12.2,91.7,12.2c0,0,67.2,0,116.1,-16.8c0,0,48.9,-16.8,79.4,-50.4c0,0,32.1,-35.1,45.9,-88.6c0,0,15.2,-55,15.2,-128.3L750.1,0L614.2,0l0,510.3c0,0,0,59.6,-7.7,99.3c0,0,-9.1,39.7,-27.5,64.2c0,0,-19.8,24.4,-51.9,33.6c0,0,-32.1,10.7,-79.5,10.7c0,0,-47.3,0,-85.5,-16.8c0,0,-38.2,-16.9,-65.7,-48.9c0,0,-27.5,-32.1,-41.3,-78c0,0,-15.2,-47.3,-15.2,-106.9L239.9,0Z" 
	id="F1_19"
	 />

	<path d="M134.4,0l0,708.9l-113,0l0,97.8l113,0l0,90.1c0,0,0,44.3,7.7,82.5c0,0,9.2,38.2,30.5,65.7c0,0,21.4,27.5,59.6,42.8c0,0,38.2,16.8,99.3,16.8c0,0,22.9,0,48.9,-1.5c0,0,26,-3.1,45.9,-7.7l0,-102.3c0,0,-13.8,3,-29.1,4.5c0,0,-16.8,1.6,-30.5,1.6c0,0,-30.6,0,-48.9,-7.7c0,0,-19.9,-7.6,-30.6,-22.9c0,0,-10.7,-15.3,-13.7,-38.2c0,0,-4.6,-22.9,-4.6,-51.9l0,-71.8l157.4,0l0,-97.8l-157.4,0L268.9,0Z" 
	id="F1_20"
	 />

	<path d="M380.4,-13.7c0,0,-70.3,0,-126.8,9.2c0,0,-56.5,10.6,-97.8,33.5c0,0,-42.7,24.5,-71.8,62.7c0,0,-29,39.7,-42.7,97.7l119.1,23c0,0,16.8,-65.7,70.3,-94.8c0,0,55,-30.5,149.7,-30.5c0,0,42.8,0,79.5,4.6c0,0,36.6,6.1,62.6,19.8c0,0,26,15.3,39.7,39.8c0,0,15.3,24.4,15.3,61.1c0,0,0,36.6,-16.8,59.5c0,0,-18.3,23,-48.9,38.2c0,0,-30.5,16.8,-73.3,27.5c0,0,-44.3,12.3,-96.3,26c0,0,-48.9,13.8,-96.2,29c0,0,-47.4,15.3,-85.6,41.3c0,0,-38.2,26,-62.6,64.2c0,0,-24.5,38.2,-24.5,94.7c0,0,0,110,78,168c0,0,79.4,58.1,230.6,58.1c0,0,133,0,210.9,-45.8c0,0,79.4,-47.4,100.8,-151.3L572.9,606.5c0,0,-6.1,30.6,-24.4,52c0,0,-18.4,21.4,-42.8,33.6c0,0,-26,13.7,-58.1,19.8c0,0,-32,6.2,-65.7,6.2c0,0,-91.6,0,-134.4,-27.5c0,0,-42.8,-27.5,-42.8,-84.1c0,0,0,-33.6,15.3,-53.4c0,0,16.8,-21.4,44.3,-35.2c0,0,29,-15.3,68.8,-26c0,0,41.2,-12.2,90.1,-22.9c0,0,32.1,-9.1,65.7,-18.3c0,0,33.6,-9.2,64.2,-21.4c0,0,32,-13.7,59.5,-30.5c0,0,29.1,-18.4,48.9,-42.8c0,0,21.4,-24.5,33.6,-56.6c0,0,12.3,-33.6,12.3,-77.9c0,0,0,-56.5,-21.4,-100.8c0,0,-21.4,-44.3,-62.7,-73.3c0,0,-42.7,-30.6,-103.9,-45.9c0,0,-61.1,-15.2,-139,-15.2Z" 
	id="F1_21"
	 />

	<path d="M125,0l0,1049l142,0l0,-933l530,0L797,0Z" 
	id="F1_22"
	 />

	<path d="M105.4,0l0,634c0,0,0,26,0,53.5c0,0,-1.5,27.5,-1.5,51.9c0,0,-1.5,26,-1.5,42.8c0,0,-1.6,18.4,-1.6,24.5l126.8,0c0,0,0,-4.6,0,-19.9c0,0,1.6,-16.8,3.1,-38.2c0,0,1.5,-21.4,1.5,-42.8c0,0,1.6,-22.9,1.6,-38.2l1.5,0c0,0,18.3,35.2,38.2,64.2c0,0,21.4,29,48.9,47.4c0,0,29,19.8,64.1,30.5c0,0,36.7,12.2,85.6,12.2c0,0,91.7,0,143.6,-36.6c0,0,53.5,-36.7,74.9,-117.7l3,0c0,0,16.8,35.2,39.7,64.2c0,0,23,29,52,47.4c0,0,30.5,19.8,67.2,30.5c0,0,38.2,12.2,85.6,12.2c0,0,61.1,0,105.4,-16.8c0,0,44.3,-16.8,71.8,-50.4c0,0,29,-35.1,42.8,-88.6c0,0,13.7,-55,13.7,-128.3L1171.8,0L1038.9,0l0,510.3c0,0,0,59.6,-7.6,99.3c0,0,-7.7,39.7,-24.5,64.2c0,0,-18.3,24.4,-45.8,33.6c0,0,-29.1,10.7,-70.3,10.7c0,0,-42.8,0,-76.4,-15.3c0,0,-35.1,-16.8,-58,-47.4c0,0,-24.5,-32.1,-38.2,-79.4c0,0,-13.8,-47.4,-13.8,-108.5L704.3,0L571.4,0l0,510.3c0,0,0,59.6,-6.1,99.3c0,0,-7.7,39.7,-24.5,64.2c0,0,-18.3,24.4,-45.8,33.6c0,0,-29,10.7,-70.3,10.7c0,0,-42.8,0,-76.4,-16.8c0,0,-35.1,-16.9,-59.5,-48.9c0,0,-24.5,-32.1,-36.7,-78c0,0,-13.8,-47.3,-13.8,-106.9L238.3,0Z" 
	id="F1_23"
	 />

	<path d="M641.7,476.7c0,0,-10.7,128.3,-64.2,186.4c0,0,-53.5,59.5,-154.3,59.5c0,0,-33.6,0,-70.3,-10.7c0,0,-36.6,-12.2,-67.2,-39.7c0,0,-32.1,-27.5,-53.5,-74.8c0,0,-22.9,-47.4,-25.9,-120.7ZM430.8,-13.7c0,0,-178.7,0,-271.9,105.4c0,0,-94.7,105.4,-94.7,316.2c0,0,0,113.1,27.5,191c0,0,29,79.4,77.9,128.3c0,0,50.4,50.4,114.6,71.8c0,0,65.7,22.9,140.5,22.9c0,0,102.4,0,169.6,-32c0,0,68.8,-33.6,110,-91.7c0,0,41.3,-58.1,58.1,-136c0,0,18.3,-79.4,18.3,-169.6l0,-18.3l-576,0c0,0,0,-62.6,12.2,-116.1c0,0,13.8,-53.5,41.3,-91.7c0,0,27.5,-39.7,70.3,-59.6c0,0,42.8,-21.3,102.3,-21.3c0,0,87.1,0,139.1,35.1c0,0,53.4,35.1,71.8,88.6L759.3,175.7c0,0,-12.2,-33.6,-35.1,-67.2c0,0,-22.9,-35.2,-61.1,-61.1c0,0,-38.2,-27.5,-94.8,-44.3c0,0,-58,-16.8,-137.5,-16.8Z" 
	id="F1_24"
	 />

	<path d="M394.2,88.6c0,0,53.4,0,93.2,16.8c0,0,41.2,16.8,68.7,55c0,0,27.5,38.2,41.3,99.3c0,0,13.7,62.7,13.7,152.8c0,0,0,85.6,-13.7,145.1c0,0,-13.8,59.6,-41.3,96.3c0,0,-27.5,36.7,-67.2,51.9c0,0,-41.3,16.8,-93.2,16.8c0,0,-48.9,0,-84,-16.8c0,0,-36.7,-18.3,-59.6,-56.5c0,0,-24.5,-38.2,-35.2,-97.8c0,0,-12.2,-61.1,-12.2,-148.2c0,0,0,-84,9.2,-143.6c0,0,10.7,-59.6,33.6,-97.8c0,0,24.4,-38.1,59.6,-55c0,0,36.7,-18.3,87.1,-18.3ZM360.6,-13.7c0,0,-152.8,0,-224.6,100.8c0,0,-73.4,102.3,-73.4,311.7c0,0,0,423.1,298,423.1c0,0,91.6,0,152.7,-33.6c0,0,61.1,-33.6,97.8,-106.9l1.5,0c0,0,0,7.6,0,22.9c0,0,0,16.8,0,33.6c0,0,-1.5,18.4,-1.5,33.6c0,0,0,15.3,0,22.9l0,311.7l134.5,0l0,-941.1c0,0,0,-29,0,-55c0,0,1.5,-27.5,1.5,-48.9c0,0,1.5,-22.9,1.5,-38.2c0,0,1.5,-16.8,1.5,-22.9L621.8,0c0,0,-1.5,6.1,-1.5,19.9c0,0,-1.5,13.7,-3.1,32c0,0,-1.5,18.4,-1.5,38.2c0,0,-1.5,19.9,-1.5,38.2l-3.1,0c0,0,-36.7,-76.4,-97.8,-108.4c0,0,-62.6,-33.6,-152.7,-33.6Z" 
	id="F1_25"
	 />

	<path d="M264.3,297.9c0,0,-42.8,0,-79.4,16.8c0,0,-36.7,16.8,-64.2,44.3c0,0,-29,29.1,-44.3,67.3c0,0,-16.8,38.1,-16.8,82.5c0,0,0,41.2,15.3,77.9c0,0,16.8,38.2,44.3,65.7c0,0,29,27.5,65.7,42.7c0,0,36.6,16.8,79.4,16.8c0,0,42.8,0,81,-15.2c0,0,38.2,-16.8,65.7,-44.3c0,0,29,-27.5,45.8,-64.2c0,0,16.8,-38.2,16.8,-79.4c0,0,0,-44.4,-16.8,-82.5c0,0,-16.8,-38.2,-44.3,-65.7c0,0,-29,-29.1,-67.2,-45.9c0,0,-38.2,-16.8,-81,-16.8Z" 
	id="F1_26"
	 />

	<path d="M727.2,411L521,964L317.8,411ZM10.7,0L436.9,1113.8l169.6,0L1031.3,0L875.4,0L773.1,285.7l-501.2,0L169.6,0Z" 
	id="F2_58"
	 />

	<path d="M349.9,0L22.9,834.2l265.9,0L498.1,256.7L704.3,834.2l268.9,0L643.2,0Z" 
	id="F3_32"
	 />

	<path d="M126,0l0,834l268,0L394,0Zm0,942l0,217l268,0l0,-217Z" 
	id="F3_23"
	 />

	<path d="M687.5,508.8c0,0,0,74.8,-44.3,120.6c0,0,-44.3,47.4,-116.1,47.4c0,0,-77.9,0,-126.8,-42.8c0,0,-48.9,-44.3,-59.6,-125.2ZM542.4,-21.3c0,0,-226.1,0,-351.4,114.5c0,0,-126.8,114.6,-126.8,322.4c0,0,0,204.7,123.7,322.3c0,0,123.8,117.7,340.7,117.7c0,0,197.1,0,314.7,-119.2c0,0,117.7,-119.2,117.7,-317.8l0,-74.8l-623.4,0c0,0,9.2,-94.8,67.3,-140.6c0,0,58,-47.4,163.4,-47.4c0,0,84.1,0,171.1,24.5c0,0,88.7,24.4,183.4,74.8l0,-204.7c0,0,-96.3,-36.6,-191,-53.4c0,0,-94.7,-18.3,-189.4,-18.3Z" 
	id="F3_12"
	 />

	<path d="M273.5,0L53.5,834.2l259.7,0l139,-576l142.1,576l223.1,0l139,-569.9l142.1,569.9l259.7,0L1138.2,0L846.4,0L704.3,572.9L565.3,0Z" 
	id="F3_45"
	 />

	<path d="M143,0l0,834l138,0L281,0Zm0,985l0,174l138,0l0,-174Z" 
	id="F2_9"
	 />

	<path d="M375.8,-21.3c0,0,-67.2,0,-140.5,12.2c0,0,-73.4,12.2,-152.8,39.7l0,140.5c0,0,76.4,-39.7,149.7,-58c0,0,73.4,-19.9,146.7,-19.9c0,0,96.2,0,148.2,32.1c0,0,51.9,33.6,51.9,94.7c0,0,0,55,-36.6,84c0,0,-38.2,30.6,-165,58.1l-48.9,12.2c0,0,-126.8,26,-183.4,81c0,0,-56.5,56.5,-56.5,152.8c0,0,0,119.1,82.5,183.3c0,0,84,64.2,238.3,64.2c0,0,74.9,0,142.1,-10.7c0,0,67.3,-12.3,123.8,-35.2l0,-129.8c0,0,-58.1,30.5,-120.7,44.3c0,0,-62.7,15.2,-129.9,15.2c0,0,-102.3,0,-152.8,-30.5c0,0,-50.4,-32.1,-50.4,-94.7c0,0,0,-47.4,35.2,-74.9c0,0,36.6,-27.5,148.2,-51.9l45.8,-10.7c0,0,146.7,-30.6,207.8,-87.1c0,0,62.6,-58.1,62.6,-160.4c0,0,0,-116.1,-91.7,-183.4c0,0,-93.1,-67.1,-253.6,-67.1Z" 
	id="F2_11"
	 />

	<path d="M407.9,93.2c0,0,113.1,0,181.8,79.4c0,0,70.3,81,70.3,215.5l0,30.5l-137.5,0c0,0,-166.5,0,-230.7,-36.7c0,0,-64.2,-38.1,-64.2,-129.8c0,0,0,-73.3,47.4,-116.1c0,0,48.9,-42.8,132.9,-42.8ZM371.3,-21.3c0,0,-128.4,0,-203.2,71.7c0,0,-76.4,71.8,-76.4,192.5c0,0,0,140.6,93.2,212.4c0,0,94.7,71.8,282.6,71.8l192.5,0l0,13.7c0,0,0,94.8,-62.6,145.2c0,0,-62.7,51.9,-175.7,51.9c0,0,-71.8,0,-139.1,-16.8c0,0,-67.2,-16.8,-129.8,-51.9l0,126.8c0,0,74.8,30.5,145.1,44.3c0,0,71.8,15.3,139,15.3c0,0,180.3,0,268.9,-93.2c0,0,90.2,-94.8,90.2,-285.7L796,0L660,0l0,126.8c0,0,-47.4,-76.4,-117.6,-111.5c0,0,-70.3,-36.6,-171.1,-36.6Z" 
	id="F2_6"
	 />

	<path d="M137.5,0l0,834.2l139,0l0,-129.9c0,0,48.9,76.4,114.6,113.1c0,0,67.2,38.2,154.3,38.2c0,0,145.2,0,218.5,-88.7c0,0,73.3,-90.1,73.3,-262.7L837.2,0L699.7,0l0,499.6c0,0,0,117.6,-45.8,175.7c0,0,-45.8,59.6,-139,59.6c0,0,-110,0,-174.2,-70.3c0,0,-64.2,-70.3,-64.2,-192.5L276.5,0Z" 
	id="F2_10"
	 />

	<path d="M137.5,0l0,834.2l139,0l0,-129.9c0,0,45.9,77.9,111.6,114.6c0,0,65.7,36.7,155.8,36.7c0,0,91.7,0,154.3,-45.9c0,0,64.2,-47.3,96.2,-135.9c0,0,50.5,93.1,122.3,137.5c0,0,71.8,44.3,168,44.3c0,0,131.4,0,201.7,-91.7c0,0,71.8,-91.7,71.8,-259.7L1358.2,0l-139,0l0,499.6c0,0,0,119.2,-41.3,177.2c0,0,-42.8,58.1,-129.8,58.1c0,0,-107,0,-168.1,-70.3c0,0,-62.6,-70.3,-62.6,-192.5L817.4,0L678.3,0l0,499.6c0,0,0,120.7,-41.2,177.2c0,0,-42.8,58.1,-131.4,58.1c0,0,-105.4,0,-166.5,-70.3c0,0,-62.7,-71.8,-62.7,-192.5L276.5,0Z" 
	id="F2_8"
	 />

	<path d="M230.7,490.4l490.4,1.5c0,0,-1.5,111.6,-62.6,178.8c0,0,-62.7,67.2,-163.5,67.2c0,0,-114.6,0,-183.3,-64.1c0,0,-70.3,-65.7,-81,-183.4ZM516.4,-21.3c0,0,-198.6,0,-314.7,116C201.7,94.7,84,210.8,84,409.4c0,0,0,204.8,110,325.5c0,0,111.6,120.7,299.5,120.7c0,0,168,0,265.8,-108.5c0,0,99.3,-110,99.3,-296.4l0,-67.2l-632.5,0c0,0,9.2,-140.6,85.6,-213.9c0,0,76.4,-74.9,213.9,-74.9c0,0,77.9,0,152.7,18.4c0,0,74.9,19.8,148.2,58l0,-129.8c0,0,-74.8,-30.6,-151.2,-45.8c0,0,-77.9,-16.8,-158.9,-16.8Z" 
	id="F2_4"
	 />

	<path d="M458.3,93.2c0,0,110,0,172.7,85.6c0,0,62.6,85.5,62.6,236.8c0,0,0,152.7,-62.6,238.3c0,0,-62.7,85.5,-172.7,85.5c0,0,-108.4,0,-171.1,-85.5c0,0,-62.6,-85.6,-62.6,-238.3c0,0,0,-151.3,62.6,-236.8c0,0,62.7,-85.6,171.1,-85.6ZM424.7,-21.3c0,0,-151.2,0,-245.9,120.6C178.8,99.3,84,220,84,415.6c0,0,0,197,94.8,317.7c0,0,94.7,122.3,245.9,122.3c0,0,93.2,0,158.9,-36.7c0,0,65.7,-36.7,110,-111.5l0,452.2l136,0L829.6,0l-136,0l0,125.3c0,0,-44.3,-74.9,-110,-110c0,0,-65.7,-36.6,-158.9,-36.6Z" 
	id="F2_7"
	 />

	<path d="M357.5,0L44.3,834.2l145.1,0L450.7,132.9L711.9,834.2l146.7,0L543.9,0Z" 
	id="F2_18"
	 />

	<path d="M143,0l0,1159l138,0L281,0Z" 
	id="F2_22"
	 />

	<path d="M420.1,0c0,0,-158.8,0,-218.4,58.1c0,0,-61.1,59.5,-61.1,216.9l0,453.8l-100.9,0l0,105.4l100.9,0l0,238.3l139,0l0,-238.3l282.6,0l0,-105.4l-282.6,0l0,-453.8c0,0,0,-102.4,27.5,-131.4c0,0,27.5,-29,113,-29l142.1,0L562.2,0Z" 
	id="F2_12"
	 />

	<path d="M456.8,-21.3c0,0,-77.9,0,-166.5,16.8c0,0,-90.2,18.3,-186.4,53.4l0,154.3c0,0,91.7,-50.4,180.3,-76.4c0,0,88.6,-27.5,172.6,-27.5c0,0,129.9,0,200.1,50.4c0,0,70.3,52,70.3,145.2c0,0,0,82.5,-50.4,128.3c0,0,-50.4,47.4,-166.5,70.3l-91.7,16.8c0,0,-168,33.6,-242.9,105.4c0,0,-76.4,71.8,-76.4,200.1c0,0,0,146.7,103.9,232.3c0,0,105.4,85.5,287.2,85.5c0,0,79.5,0,160.4,-13.7c0,0,81,-15.3,166.6,-42.8l0,-148.2c0,0,-85.6,41.2,-162,61.1c0,0,-76.4,21.4,-146.6,21.4c0,0,-123.8,0,-189.5,-47.4c0,0,-67.2,-48.9,-67.2,-137.5c0,0,0,-73.3,44.3,-110c0,0,44.3,-38.2,168,-61.1l90.2,-19.8c0,0,169.6,-32.1,249,-111.6c0,0,81,-80.9,81,-216.9c0,0,0,-162,-108.5,-244.5c0,0,-108.5,-83.9,-319.3,-83.9Z" 
	id="F2_27"
	 />

	<path d="M601.9,99.3c0,0,163.5,0,258.2,122.2c0,0,96.3,123.8,96.3,333.1c0,0,0,210.8,-94.7,333c0,0,-96.3,123.8,-259.8,123.8c0,0,-165,0,-261.2,-122.2c0,0,-96.3,-123.8,-96.3,-334.6c0,0,0,-209.3,96.3,-331.5c0,0,96.2,-123.8,261.2,-123.8ZM828.1,-195.5L664.6,-18.2c0,0,-26,-1.6,-38.2,-1.6c0,0,-13.8,-1.5,-24.5,-1.5c0,0,-235.2,0,-375.8,155.7c0,0,-140.5,157.4,-140.5,420.2c0,0,0,264.3,140.5,421.7c0,0,140.6,157.3,375.8,157.3c0,0,233.8,0,372.8,-157.3c0,0,140.6,-157.4,140.6,-421.7c0,0,0,-194,-77.9,-331.5c0,0,-78,-137.5,-224.6,-203.2l198.6,-215.4Z" 
	id="F2_83"
	 />

	<path d="M149,0l0,1113l150,0l0,-987l542,0L841,0Z" 
	id="F2_49"
	 />

	<path d="M458.3,93.2c0,0,110,0,172.7,85.6c0,0,62.6,85.5,62.6,236.8c0,0,0,152.7,-62.6,238.3c0,0,-62.7,85.5,-172.7,85.5c0,0,-108.4,0,-171.1,-85.5c0,0,-62.6,-85.6,-62.6,-238.3c0,0,0,-151.3,62.6,-236.8c0,0,62.7,-85.6,171.1,-85.6ZM693.6,-317.7l0,443c0,0,-44.3,-74.9,-110,-110c0,0,-65.7,-36.6,-158.9,-36.6c0,0,-151.2,0,-245.9,120.6C178.8,99.3,84,220,84,415.6c0,0,0,197,94.8,317.7c0,0,94.7,122.3,245.9,122.3c0,0,93.2,0,158.9,-36.7c0,0,65.7,-36.7,110,-111.5l0,126.8l136,0l0,-1151.9Z" 
	id="F2_31"
	 />

	<path d="M421.7,-21.3c0,0,-143.6,0,-218.5,88.5L128.3,328.5l0,505.7l137.5,0l0,-499.6c0,0,0,-119.2,45.9,-178.8c0,0,47.3,-59.5,139,-59.5c0,0,111.5,0,175.7,70.2c0,0,65.7,71.8,65.7,194.1l0,473.6l136,0L828.1,0l-136,0l0,126.8c0,0,-50.4,-74.9,-116.1,-111.5c0,0,-67.2,-36.6,-154.3,-36.6Z" 
	id="F2_17"
	 />

	<path d="M137.5,0l0,834.2l139,0l0,-129.9c0,0,42.8,76.4,111.6,113.1c0,0,70.2,38.2,169.5,38.2c0,0,13.8,0,30.6,-1.6c0,0,16.8,-3,38.2,-6.1l1.5,-142.1c0,0,-24.4,13.8,-50.4,19.9c0,0,-27.5,6.1,-61.1,6.1c0,0,-116.1,0,-177.2,-74.9c0,0,-62.7,-76.3,-62.7,-216.9l0,-440Z" 
	id="F2_13"
	 />

	<path d="M120.7,-317.7l0,116.1l79.4,0c0,0,56.6,0,87.1,26c0,0,32.1,27.5,70.3,126.8l24.4,61L44.3,834.2l145.1,0L450.7,181.8L711.9,834.2l146.7,0L490.4,-76.3c0,0,-58,-149.7,-113,-195.5c0,0,-55,-45.9,-148.2,-45.9Z" 
	id="F2_19"
	 />

	<path d="M282.6,0L62.6,834.2l137.5,0L372.8,183.3L542.4,834.2l161.9,0L876.9,183.3l171.2,650.9l135.9,0L965.6,0l-162,0L624.9,684.4L444.6,0Z" 
	id="F2_20"
	 />

	<path d="M137.5,0l0,1159.6l139,0l0,-455.3c0,0,48.9,76.4,114.6,113.1c0,0,67.2,38.2,154.3,38.2c0,0,145.2,0,218.5,-88.7c0,0,73.3,-90.1,73.3,-262.7L837.2,0L699.7,0l0,499.6c0,0,0,117.6,-45.8,175.7c0,0,-45.8,59.6,-139,59.6c0,0,-110,0,-174.2,-70.3c0,0,-64.2,-70.3,-64.2,-192.5L276.5,0Z" 
	id="F2_3"
	 />

	<path d="M495,-21.3c0,0,-189.4,0,-299.4,117.6C195.6,96.3,84,215.4,84,415.6c0,0,0,204.7,111.6,322.3c0,0,113,117.7,308.6,117.7c0,0,62.6,0,122.2,-13.8c0,0,61.1,-13.7,117.6,-39.7l0,-128.3c0,0,-58,32,-116.1,47.3c0,0,-58,16.8,-119.1,16.8c0,0,-133,0,-206.3,-84c0,0,-74.9,-84,-74.9,-238.3c0,0,0,-152.8,73.4,-236.8c0,0,74.8,-84.1,207.8,-84.1c0,0,61.1,0,119.1,15.3c0,0,58.1,16.8,116.1,48.9L744,30.6c0,0,-56.5,-26,-117.6,-38.1c0,0,-62.6,-13.8,-131.4,-13.8Z" 
	id="F2_29"
	 />

	<path d="M467.5,94.7c0,0,108.5,0,172.6,85.6c0,0,64.2,87.1,64.2,235.3c0,0,0,149.7,-64.2,235.2c0,0,-64.1,87.1,-172.6,87.1c0,0,-111.5,0,-175.7,-85.5c0,0,-64.2,-85.6,-64.2,-236.8c0,0,0,-149.8,64.2,-235.3c0,0,64.2,-85.6,175.7,-85.6Zm0,-116c0,0,-180.3,0,-281.1,116C186.4,94.7,84,210.8,84,415.6c0,0,0,206.2,100.9,322.3c0,0,102.3,117.7,282.6,117.7c0,0,178.8,0,281.1,-116.2c0,0,102.4,-117.6,102.4,-323.8c0,0,0,-204.8,-102.4,-320.9c0,0,-102.3,-116,-281.1,-116Z" 
	id="F2_14"
	 />

	<path d="M647.8,186.4c0,0,132.9,0,204.7,96.2c0,0,71.8,97.8,71.8,272c0,0,0,177.2,-71.8,273.5c0,0,-71.8,96.2,-204.7,96.2c0,0,-131.4,0,-203.2,-96.2c0,0,-71.8,-96.3,-71.8,-273.5c0,0,0,-174.2,71.8,-270.4c0,0,71.8,-97.8,203.2,-97.8Zm0,-207.7c0,0,-267.4,0,-420.2,152.7c0,0,-152.7,154.3,-152.7,423.2c0,0,0,271.9,152.7,424.7c0,0,152.8,154.3,420.2,154.3c0,0,268.9,0,420.1,-152.8c0,0,152.8,-154.3,152.8,-426.2c0,0,0,-268.9,-151.3,-421.7c0,0,-152.7,-154.2,-421.6,-154.2Z" 
	id="F3_3"
	 />

	<path d="M126.8,0l0,834.2l267.4,0l0,-136c0,0,51.9,81,117.6,119.2c0,0,67.2,38.2,160.4,38.2c0,0,13.8,0,29.1,-1.6c0,0,16.8,-1.5,45.8,-4.6l1.5,-242.9c0,0,-35.1,16.8,-70.3,24.5c0,0,-35.1,7.6,-70.2,7.6c0,0,-102.4,0,-157.4,-65.7c0,0,-56.5,-65.7,-56.5,-189.4L394.2,0Z" 
	id="F3_20"
	 />

	<path d="M462.9,155.8c0,0,74.9,0,125.3,53.5c0,0,51.9,53.5,51.9,136l0,30.5l-137.5,0c0,0,-84,0,-125.2,-29c0,0,-42.8,-29,-42.8,-84c0,0,0,-50.4,33.6,-77.9c0,0,33.6,-29.1,94.7,-29.1ZM356,-21.3c0,0,-129.9,0,-210.9,74.8c0,0,-80.9,74.8,-80.9,197.1c0,0,0,146.6,100.8,215.4c0,0,102.4,68.7,317.8,68.7l157.3,0l0,19.9c0,0,0,64.2,-48.8,93.2c0,0,-50.5,29,-155.9,29c0,0,-85.5,0,-158.9,-16.8c0,0,-74.8,-16.8,-139,-51.9l0,204.7c0,0,85.6,19.8,172.6,30.5c0,0,87.1,12.3,172.7,12.3c0,0,226.1,0,326.9,-88.7c0,0,100.9,-90.1,100.9,-290.2L910.6,0L640.1,0l0,123.8c0,0,-53.4,-76.4,-120.7,-110c0,0,-67.2,-35.1,-163.4,-35.1Z" 
	id="F3_17"
	 />

	<path d="M545.4,-21.3c0,0,-226.1,0,-352.9,114.5c0,0,-128.3,116.1,-128.3,322.4c0,0,0,207.7,126.8,323.8c0,0,128.3,116.2,354.4,116.2c0,0,65.7,0,129.9,-12.3c0,0,64.1,-12.2,126.8,-35.1l0,-216.9c0,0,-53.5,36.6,-108.5,55c0,0,-55,18.3,-114.6,18.3c0,0,-111.5,0,-172.6,-65.7c0,0,-62.6,-65.7,-62.6,-183.3c0,0,0,-116.2,61.1,-181.8c0,0,62.6,-65.7,174.1,-65.7c0,0,62.7,0,119.2,18.3c0,0,56.5,19.9,103.9,56.5l0,-218.5c0,0,-62.7,-24.4,-126.8,-35c0,0,-64.2,-10.7,-129.9,-10.7Z" 
	id="F3_34"
	 />

	<path d="M126,0l0,1159l268,0L394,0Z" 
	id="F3_19"
	 />

	<path d="M161,0l0,189l158,0L319,0Z" 
	id="F2_24"
	 />

	<path d="M418.6,0L6.1,1113.8l288.8,0L591.3,290.3l294.8,823.5l288.8,0L762.4,0Z" 
	id="F3_40"
	 />

	<path d="M444.6,-21.3c0,0,-84,0,-171.1,12.2c0,0,-88.6,12.2,-181.8,39.7l0,201.6c0,0,79.4,-38.2,163.4,-56.5c0,0,84.1,-19.9,169.6,-19.9c0,0,79.5,0,117.7,21.4c0,0,39.7,21.4,39.7,64.2c0,0,0,35.1,-26,51.9c0,0,-27.5,18.4,-110,27.5l-45.8,6.1c0,0,-178.8,23,-250.6,82.5c0,0,-71.8,61.2,-71.8,184.9c0,0,0,132.9,90.2,197.1c0,0,91.6,64.2,279.5,64.2c0,0,74.9,0,155.9,-10.7c0,0,80.9,-12.3,177.2,-36.7l0,-203.2c0,0,-85.6,36.7,-165,53.5c0,0,-81,18.3,-151.3,18.3c0,0,-76.3,0,-113,-18.3c0,0,-36.7,-19.9,-36.7,-58.1c0,0,0,-32.1,27.5,-48.9c0,0,27.5,-18.3,100.9,-25.9l45.8,-7.7c0,0,206.2,-26,276.5,-85.5c0,0,70.3,-59.6,70.3,-186.4c0,0,0,-134.5,-97.8,-200.2c0,0,-99.3,-67.1,-293.3,-67.1Z" 
	id="F3_18"
	 />

	<path d="M73,355l0,123l403,0l0,-123Z" 
	id="F2_78"
	 />

	<path d="M-27.4,-317.7l0,117.7l35,0c0,0,79.5,0,107,35.1c0,0,29,36.7,29,151.2l0,847.9l137.5,0l0,-847.9c0,0,0,-160.4,-61.1,-232.2c0,0,-61.1,-71.8,-195.6,-71.8Zm171,1303.1l0,174.2l137.5,0l0,-174.2Z" 
	id="F2_43"
	 />

	<path d="M508.8,93.2c0,0,110,0,171.1,85.6c0,0,62.6,85.5,62.6,236.8c0,0,0,152.7,-61.1,238.3c0,0,-62.6,85.5,-172.6,85.5c0,0,-108.5,0,-169.6,-85.5c0,0,-62.7,-85.6,-62.7,-238.3c0,0,0,-151.3,61.1,-236.8c0,0,62.7,-85.6,171.2,-85.6ZM542.4,-21.3c0,0,-91.7,0,-157.4,35.1c0,0,-65.7,36.6,-108.5,111.5L276.5,0l-139,0l0,1159.6l139,0l0,-452.2c0,0,42.8,74.8,108.5,111.5c0,0,65.7,36.7,157.4,36.7c0,0,152.7,0,247.5,-120.7c0,0,96.2,-122.3,96.2,-319.3c0,0,0,-195.6,-94.7,-316.3c0,0,-96.3,-120.6,-249,-120.6Z" 
	id="F2_26"
	 />

	<path d="M42.8,0L368.2,436.9L70.3,834.2l161.9,0L453.8,537.8L675.3,834.2l161.9,0L536.3,427.8L854,0L692.1,0L447.6,326.9L204.7,0Z" 
	id="F2_44"
	 />

	<path d="M601.9,99.3c0,0,163.5,0,258.2,122.2c0,0,96.3,123.8,96.3,333.1c0,0,0,210.8,-94.7,333c0,0,-96.3,123.8,-259.8,123.8c0,0,-165,0,-261.2,-122.2c0,0,-96.3,-123.8,-96.3,-334.6c0,0,0,-209.3,96.3,-331.5c0,0,96.2,-123.8,261.2,-123.8Zm0,-120.6c0,0,-235.2,0,-375.8,155.7c0,0,-140.5,155.9,-140.5,420.2c0,0,0,264.3,140.5,421.7c0,0,140.6,157.3,375.8,157.3c0,0,233.8,0,372.8,-157.3c0,0,140.6,-157.4,140.6,-421.7c0,0,0,-262.8,-139,-418.6c0,0,-140.6,-157.3,-374.4,-157.3Z" 
	id="F2_25"
	 />

	<path d="M137.5,0l0,1159.6l139,0l0,-684.5L686,834.2l174.1,0L417.1,444.6L880,0L699.7,0L276.5,407.9L276.5,0Z" 
	id="F2_21"
	 />

	<path d="M165,0l0,728.8l-131.4,0l0,105.4l131.4,0l0,58c0,0,0,140.6,64.2,203.2c0,0,65.7,64.2,207.7,64.2l129.9,0l0,-113.1l-131.4,0c0,0,-74.8,0,-102.3,-30.5c0,0,-29.1,-30.6,-29.1,-107l0,-74.8l226.1,0l0,-105.4l-226.1,0L304,0Z" 
	id="F2_16"
	 />

	<path d="M508.8,93.2c0,0,110,0,171.1,85.6c0,0,62.6,85.5,62.6,236.8c0,0,0,152.7,-61.1,238.3c0,0,-62.6,85.5,-172.6,85.5c0,0,-108.5,0,-169.6,-85.5c0,0,-62.7,-85.6,-62.7,-238.3c0,0,0,-151.3,61.1,-236.8c0,0,62.7,-85.6,171.2,-85.6ZM137.5,-317.7l0,1151.9l139,0l0,-126.8c0,0,42.8,74.8,108.5,111.5c0,0,65.7,36.7,157.4,36.7c0,0,152.7,0,247.5,-120.7c0,0,96.2,-122.3,96.2,-319.3c0,0,0,-195.6,-94.7,-316.3c0,0,-96.3,-120.6,-249,-120.6c0,0,-91.7,0,-157.4,35.1c0,0,-65.7,36.6,-108.5,111.5l0,-443Z" 
	id="F2_15"
	 />

	<path d="M458.3,114.6c0,0,111.6,0,172.7,81c0,0,62.6,82.5,62.6,230.7c0,0,0,149.7,-61.1,230.6c0,0,-62.6,82.5,-174.2,82.5c0,0,-110,0,-171.1,-80.9c0,0,-62.6,-82.5,-62.6,-232.2c0,0,0,-148.2,61.1,-229.2c0,0,62.6,-82.5,172.6,-82.5ZM444.6,-317.7c0,0,-71.8,0,-136,10.7c0,0,-64.2,12.2,-123.7,33.6l0,134.5c0,0,59.5,-33.6,117.6,-48.9c0,0,59.6,-15.3,120.7,-15.3c0,0,136,0,203.2,70.3c0,0,67.2,70.3,67.2,210.7l0,68.8c0,0,-42.8,-74.9,-108.5,-110C585.1,36.7,517.9,0,424.7,0c0,0,-152.8,0,-245.9,116.1c0,0,-94.8,117.7,-94.8,310.2c0,0,0,194,93.2,311.6c0,0,94.7,117.7,247.5,117.7c0,0,93.2,0,158.9,-36.7c0,0,67.2,-36.7,110,-111.5l0,126.8l136,0l0,-731.8c0,0,0,-210.8,-94.7,-314.7c0,0,-94.8,-105.4,-290.3,-105.4Z" 
	id="F2_23"
	 />

	<path d="M304,0l0,866L16,866l0,113l709,0l0,-113l-285,0L440,0Z" 
	id="F6_13"
	 />

	<path d="M403.3,91.7c0,0,52,0,91.7,16.8c0,0,39.7,18.3,65.7,53.4c0,0,27.5,35.2,39.7,85.6c0,0,13.8,51.9,13.8,116.1c0,0,0,65.7,-12.3,116.1c0,0,-13.7,50.4,-39.7,85.6c0,0,-27.5,35.1,-67.2,53.5c0,0,-39.7,18.3,-91.7,18.3c0,0,-53.4,0,-93.2,-18.3c0,0,-41.2,-18.4,-67.2,-53.5c0,0,-26,-35.2,-39.7,-85.6c0,0,-13.8,-50.4,-13.8,-116.1c0,0,0,-64.2,13.8,-114.6c0,0,13.7,-51.9,39.7,-87.1c0,0,26,-35.1,65.7,-51.9c0,0,41.3,-18.3,94.7,-18.3Zm0,-100.8c0,0,-80.9,0,-145.1,24.4c0,0,-64.2,26,-108.5,74.8c0,0,-45.8,48.9,-70.3,117.7c0,0,-24.4,70.3,-24.4,157.3c0,0,0,85.6,24.4,154.3c0,0,24.5,70.3,68.8,119.2c0,0,45.8,48.9,110,74.9c0,0,64.2,25.9,145.1,25.9c0,0,79.5,0,143.6,-25.9c0,0,64.2,-26,108.5,-74.9c0,0,44.3,-48.9,68.8,-117.6c0,0,24.4,-70.3,24.4,-155.9c0,0,0,-87,-24.4,-155.8c0,0,-24.5,-70.3,-68.8,-119.2c0,0,-44.3,-48.8,-108.5,-73.3c0,0,-64.1,-25.9,-143.6,-25.9Z" 
	id="F6_14"
	 />

	<path d="M96.3,0l0,728.8l76.3,0c0,0,19.9,0,29.1,-7.7c0,0,9.1,-9.2,10.7,-27.5l9.1,-108.5c0,0,32.1,73.4,81,114.6c0,0,50.4,41.3,119.2,41.3c0,0,22.9,0,42.7,-4.6c0,0,21.4,-4.6,38.2,-15.3L491.9,623.3c0,0,-3,-18.3,-21.3,-18.3c0,0,-10.7,0,-29.1,3.1c0,0,-19.8,4.5,-42.7,4.5c0,0,-33.7,0,-58.1,-9.1c0,0,-26,-10.7,-45.8,-30.6c0,0,-21.4,-19.8,-36.7,-47.3c0,0,-16.8,-29.1,-30.6,-65.7L227.6,0Z" 
	id="F6_16"
	 />

	<path d="M586.7,444.6c0,0,0,42.8,-12.3,79.4c0,0,-13.7,38.2,-36.6,64.2c0,0,-24.5,26,-58.1,41.2c0,0,-35.1,15.3,-79.4,15.3c0,0,-91.7,0,-145.2,-53.4c0,0,-53.4,-53.5,-65.7,-146.7ZM404.9,-9.1c0,0,-76.4,0,-140.6,24.4c0,0,-64.2,24.4,-110,73.3c0,0,-47.4,50.4,-73.3,122.2c0,0,-26,73.4,-26,168.1c0,0,0,76.4,22.9,142.1c0,0,24.5,65.7,68.8,114.6c0,0,44.3,48.8,106.9,76.3c0,0,64.2,27.5,145.2,27.5c0,0,65.6,0,120.6,-21.3c0,0,56.6,-21.4,97.8,-62.7c0,0,41.3,-42.8,64.2,-102.3c0,0,22.9,-61.2,22.9,-139.1c0,0,0,-30.5,-6.1,-39.7c0,0,-7.6,-10.7,-26,-10.7l-487.3,0c0,0,1.5,-68.7,18.3,-119.2c0,0,18.3,-51.9,47.4,-85.5c0,0,30.5,-33.6,71.8,-50.4c0,0,42.7,-16.8,93.2,-16.8c0,0,48.8,0,84,10.7c0,0,35.1,10.7,59.6,24.4c0,0,24.4,13.8,41.2,24.5c0,0,18.4,10.6,30.6,10.6c0,0,7.6,0,13.7,-3c0,0,6.1,-3.1,10.7,-9.2l38.2,-48.9c0,0,-26,-29,-58,-48.9c0,0,-33.7,-21.3,-71.8,-35.1c0,0,-38.2,-15.3,-78,-19.8c0,0,-41.2,-6.1,-80.9,-6.1Z" 
	id="F6_17"
	 />

	<path d="M284.2,-10.6c0,0,-73.4,0,-131.4,22.8c0,0,-59.6,24.5,-100.9,64.2l30.6,50.4c0,0,6.1,9.2,13.8,13.8c0,0,7.6,6.1,21.3,6.1c0,0,12.3,0,26,-9.2c0,0,13.8,-10.7,32.1,-22.9c0,0,19.9,-13.8,45.8,-22.9c0,0,27.5,-10.7,67.3,-10.7c0,0,35.1,0,59.5,9.1c0,0,26,10.7,41.3,26c0,0,16.8,16.8,24.4,38.2c0,0,9.2,21.4,9.2,45.8c0,0,0,29.1,-15.3,48.9c0,0,-15.3,19.9,-39.7,33.6c0,0,-24.4,13.8,-56.5,24.5c0,0,-32.1,10.7,-64.2,21.4c0,0,-33.6,12.2,-65.7,25.9c0,0,-32.1,15.3,-56.5,38.2c0,0,-24.5,23,-39.7,55c0,0,-15.3,33.7,-15.3,81c0,0,0,42.8,15.3,81c0,0,16.8,38.2,47.3,67.2c0,0,32.1,29,77.9,45.8c0,0,47.4,16.8,107,16.8c0,0,67.2,0,122.2,-21.3c0,0,56.5,-23,94.7,-62.7l-29,-47.3c0,0,-9.2,-16.8,-27.5,-16.8c0,0,-10.7,0,-22.9,7.6c0,0,-13.8,9.2,-32.1,18.3c0,0,-18.3,9.2,-42.8,16.8c0,0,-26,9.2,-59.6,9.2c0,0,-29,0,-51.9,-7.6c0,0,-22.9,-9.2,-39.7,-23c0,0,-16.8,-13.7,-26,-32c0,0,-9.2,-19.9,-9.2,-41.3c0,0,0,-29,15.3,-47.4c0,0,15.3,-18.3,39.7,-32c0,0,24.5,-13.8,56.6,-24.5c0,0,32,-10.7,64.1,-21.4c0,0,33.6,-12.2,64.2,-25.9c0,0,32.1,-15.3,56.5,-36.7c0,0,24.5,-22.9,39.7,-53.5c0,0,15.3,-30.5,15.3,-74.8c0,0,0,-50.5,-16.8,-93.2c0,0,-18.3,-42.8,-50.4,-73.4c0,0,-33.6,-32.1,-82.5,-48.9c0,0,-48.9,-18.2,-111.5,-18.2Z" 
	id="F6_18"
	 />

	<path d="M310.1,-10.6c0,0,-84,0,-129.8,47.3c0,0,-45.9,48.9,-45.9,139l0,444.6l-82.5,0c0,0,-12.2,0,-19.8,7.6c0,0,-7.7,7.7,-7.7,21.4l0,52L139,716.5l30.6,224.6c0,0,1.5,10.7,9.2,16.8c0,0,9.1,7.7,19.8,7.7l67.2,0l0,-250.6l201.7,0l0,-94.7l-201.7,0l0,-435.4c0,0,0,-45.9,19.9,-67.3c0,0,21.4,-22.9,55,-22.9c0,0,18.3,0,32.1,4.6c0,0,13.7,6.1,22.9,12.2c0,0,10.7,7.7,16.8,12.3c0,0,7.6,4.5,13.8,4.5c0,0,7.6,0,10.6,-1.5c0,0,4.6,-3,7.7,-10.7L484.3,53.5c0,0,-33.6,-30.6,-79.4,-47.4c0,0,-45.9,-16.7,-94.8,-16.7Z" 
	id="F6_19"
	 />

	<path d="M108.5,0l0,728.8l131.4,0L239.9,0Zm64.1,864.7c0,0,-18.3,0,-35.1,7.7c0,0,-16.8,7.6,-29,19.8c0,0,-12.2,12.2,-19.9,29.1c0,0,-7.6,16.8,-7.6,35.1c0,0,0,19.9,7.6,36.7c0,0,7.7,16.8,19.9,29c0,0,12.2,13.7,29,19.8c0,0,16.8,7.7,35.1,7.7c0,0,18.4,0,35.2,-6.1c0,0,16.8,-7.7,29,-19.9c0,0,13.8,-13.7,21.4,-30.5c0,0,7.6,-16.8,7.6,-36.7c0,0,0,-18.3,-7.6,-35.1c0,0,-7.6,-16.9,-19.9,-29.1c0,0,-13.7,-12.2,-30.5,-19.8c0,0,-16.8,-7.7,-35.2,-7.7Z" 
	id="F6_20"
	 />

	<path d="M356,-9.1c0,0,-64.2,0,-119.2,24.4c0,0,-56.5,24.4,-97.8,71.8c0,0,-41.2,48.9,-64.1,117.6c0,0,-24.5,70.3,-24.5,160.4c0,0,0,81,21.4,149.8c0,0,22.9,68.7,64.2,119.1c0,0,41.2,50.4,100.8,77.9c0,0,61.1,27.5,140.6,27.5c0,0,74.8,0,129.8,-24.4c0,0,56.6,-24.4,99.3,-70.3L572.9,597.4c0,0,-6.1,-7.7,-10.7,-12.3c0,0,-6.1,-4.5,-16.8,-4.5c0,0,-10.7,0,-22.9,9.1c0,0,-12.2,9.2,-29,19.9c0,0,-18.4,10.7,-44.3,19.8c0,0,-26,9.2,-64.2,9.2c0,0,-48.9,0,-85.6,-18.3c0,0,-38.1,-19.9,-62.6,-55c0,0,-26,-35.2,-38.2,-85.6c0,0,-13.7,-51.9,-13.7,-114.6c0,0,0,-65.7,13.7,-116.1c0,0,13.8,-51.9,38.2,-87.1c0,0,26,-35.1,61.1,-53.4c0,0,36.7,-18.4,82.5,-18.4c0,0,42.8,0,70.3,10.7c0,0,27.5,12.3,45.8,24.5c0,0,18.4,13.7,30.6,24.4c0,0,13.7,12.2,26,12.2c0,0,15.2,0,24.4,-12.2l38.2,-48.9c0,0,-24.4,-29,-53.5,-48.9c0,0,-29,-21.3,-62.6,-35.1C499.6,16.8,466,1.5,430.8,-3c0,0,-36.6,-6.1,-74.8,-6.1Z" 
	id="F6_23"
	 />

	<path d="M369.7,94.7c0,0,62.7,0,108.5,27.5c0,0,45.8,29.1,85.6,81l0,352.9c0,0,-35.2,47.4,-76.4,65.7c0,0,-41.3,18.3,-91.7,18.3c0,0,-99.3,0,-152.8,-71.8c0,0,-53.5,-71.8,-53.5,-206.2c0,0,0,-71.8,12.3,-122.2c0,0,12.2,-50.5,35.1,-82.5c0,0,22.9,-32.1,56.5,-47.4c0,0,33.6,-15.3,76.4,-15.3ZM326.9,-9.1c0,0,-61.1,0,-111.5,22.9c0,0,-50.4,22.9,-85.5,70.2c0,0,-36.7,47.4,-55,116.1c0,0,-19.9,70.3,-19.9,162c0,0,0,81,19.9,149.7c0,0,21.4,70.3,61.1,120.7c0,0,41.2,50.4,99.3,79.4c0,0,58,29.1,131.4,29.1c0,0,65.7,0,113,-21.4c0,0,47.4,-21.4,84.1,-62.7l0,403.4l131.3,0L695.1,0L615.7,0c0,0,-13.8,0,-22.9,6.1c0,0,-9.2,6.1,-10.7,19.9l-12.2,87.1c0,0,-47.4,-55,-105.5,-88.7c0,0,-59.5,-33.5,-137.5,-33.5Z" 
	id="F6_24"
	 />

	<path d="M305.6,79.4c0,0,33.6,0,61.1,6.2c0,0,27.5,7.6,51.9,19.8c0,0,24.5,12.2,45.8,30.6c0,0,23,18.3,44.4,41.2l0,149.7c0,0,-87.1,-3,-148.2,-13.7c0,0,-61.2,-10.7,-99.3,-29c0,0,-39.8,-18.4,-56.6,-41.3c0,0,-16.8,-24.4,-16.8,-55c0,0,0,-29,9.2,-48.9c0,0,9.2,-19.8,24.4,-32.1c0,0,16.8,-13.7,38.2,-19.8c0,0,21.4,-7.7,45.9,-7.7Zm-39.8,-90c0,0,-42.7,0,-79.4,10.6c0,0,-36.7,10.7,-64.2,35.1c0,0,-27.5,24.5,-42.8,59.6c0,0,-16.8,36.7,-16.8,87.1c0,0,0,42.8,23,82.5c0,0,22.9,39.7,76.3,70.3c0,0,53.5,32.1,137.5,51.9c0,0,85.6,19.9,209.4,22.9l0,56.6c0,0,0,84,-35.2,126.8c0,0,-36.7,42.8,-106.9,42.8c0,0,-45.9,0,-77.9,-10.7c0,0,-32.1,-12.3,-55,-26c0,0,-23,-15.3,-39.8,-26c0,0,-16.8,-12.2,-33.6,-12.2c0,0,-13.7,0,-22.9,6.1c0,0,-10.7,6.1,-15.3,16.8L97.8,626.4c0,0,61.1,58,129.8,85.5c0,0,70.3,29.1,154.3,29.1c0,0,62.7,0,110,-19.9c0,0,47.4,-19.8,79.5,-55c0,0,32.1,-36.7,48.9,-87.1c0,0,16.8,-51.9,16.8,-113l0,-466L579,0c0,0,-19.8,0,-29,4.6c0,0,-10.7,6.1,-15.3,26L517.9,97.8c0,0,-27.5,-26,-55,-45.9c0,0,-27.5,-21.3,-56.5,-35.1c0,0,-30.6,-15.3,-64.2,-21.3c0,0,-35.1,-6.1,-76.4,-6.1Z" 
	id="F6_25"
	 />

	<path d="M108.5,0l0,728.8l77.9,0c0,0,15.3,0,22.9,-6.2c0,0,9.2,-6.1,10.7,-21.3l10.7,-73.4c0,0,21.4,24.5,44.3,44.3c0,0,22.9,21.4,48.9,36.7c0,0,26,15.3,55,22.9c0,0,30.5,7.6,64.2,7.6c0,0,74.8,0,122.2,-39.7c0,0,47.3,-41.2,68.7,-111.5c0,0,15.3,41.2,39.8,68.7c0,0,25.9,29.1,56.5,47.4c0,0,32.1,18.3,67.2,26c0,0,36.7,9.1,74.9,9.1c0,0,119.1,0,183.3,-70.2c0,0,65.7,-71.8,65.7,-204.8L1121.4,0L990,0l0,464.4c0,0,0,84.1,-38.2,126.9c0,0,-38.2,44.3,-111.5,44.3c0,0,-32.1,0,-61.1,-10.7c0,0,-29.1,-10.7,-50.4,-32.1c0,0,-23,-21.4,-35.2,-53.5c0,0,-13.7,-32.1,-13.7,-74.9L679.9,0L548.5,0l0,464.4c0,0,0,87.1,-35.2,128.4c0,0,-36.6,42.8,-106.9,42.8c0,0,-48.9,0,-90.1,-24.5c0,0,-41.3,-24.4,-76.4,-68.7L239.9,0Z" 
	id="F6_26"
	 />

	<path d="M94.7,0l0,1060.3l131.4,0l0,-623.4l29,0c0,0,15.3,0,23,3.1c0,0,9.1,4.6,18.3,16.8l194,246c0,0,10.7,12.2,21.4,18.3c0,0,12.2,7.7,29,7.7l119.2,0L430.8,441.5c0,0,-10.7,-10.7,-19.8,-19.8c0,0,-10.7,-9.2,-22.9,-16.8c0,0,12.2,-9.2,21.3,-19.9c0,0,10.7,-12.2,21.4,-24.4L675.3,0L557.6,0c0,0,-16.8,0,-27.5,4.6c0,0,-12.2,6.1,-21.3,19.8l-200.2,298c0,0,-10.7,15.2,-19.8,19.8c0,0,-9.2,6.1,-29.1,6.1l-33.6,0L226.1,0Z" 
	id="F6_27"
	 />

	<path d="M403.3,90.1c0,0,100.9,0,154.3,71.8c0,0,53.5,73.4,53.5,207.8c0,0,0,70.3,-12.2,120.7c0,0,-12.2,50.4,-35.1,82.5c0,0,-23,33.6,-56.6,47.4c0,0,-35.1,15.3,-77.9,15.3c0,0,-61.1,0,-106.9,-27.5c0,0,-47.4,-29.1,-87.1,-81l0,-351.4c0,0,35.1,-47.4,76.4,-65.7c0,0,41.2,-19.9,91.6,-19.9Zm-299.4,-336l0,974.7l79.4,0c0,0,13.8,0,23,-6.2c0,0,9.1,-6.1,10.6,-21.3l12.3,-84.1c0,0,45.8,55,105.4,88.6c0,0,59.6,35.2,137.5,35.2c0,0,62.6,0,113,-22.9c0,0,50.5,-24.5,85.6,-71.8c0,0,36.7,-47.4,56.5,-116.2c0,0,19.9,-70.2,19.9,-160.4c0,0,0,-80.9,-21.4,-149.7c0,0,-22.9,-70.3,-62.6,-120.7c0,0,-41.3,-51.9,-99.3,-79.4c0,0,-58.1,-29,-131.4,-29c0,0,-65.7,0,-113.1,21.3c0,0,-47.4,21.4,-84,61.1l0,-319.2Z" 
	id="F6_28"
	 />

	<path d="M108,0l0,1060l131,0L239,0Z" 
	id="F6_29"
	 />

	<path d="M16.8,0L242.9,374.3L26,728.8l125.3,0c0,0,15.2,0,21.3,-4.6c0,0,7.7,-6.1,13.8,-15.3L339.2,444.6c0,0,3,7.6,6.1,15.3c0,0,3,9.1,9.1,16.8L481.3,705.8c0,0,7.6,10.7,15.2,16.8c0,0,7.7,6.2,16.8,6.2l120.7,0L415.6,380.4L643.2,0L517.9,0c0,0,-15.3,0,-24.4,7.6c0,0,-9.2,9.2,-15.3,18.4L323.9,302.5c0,0,-6.1,-16.8,-13.8,-29L171.1,26c0,0,-6.1,-10.7,-13.7,-18.4c0,0,-9.2,-7.6,-24.5,-7.6Z" 
	id="F6_30"
	 />

	<path d="M371.3,94.7c0,0,62.6,0,108.4,27.5c0,0,45.9,29.1,85.6,81l0,352.9c0,0,-33.6,45.8,-74.9,64.2c0,0,-42.8,19.8,-93.2,19.8c0,0,-99.3,0,-152.8,-71.8c0,0,-55,-71.8,-55,-206.2c0,0,0,-71.8,12.3,-122.2c0,0,12.2,-50.5,35.1,-82.5c0,0,24.5,-32.1,58.1,-47.4c0,0,33.6,-15.3,76.4,-15.3Zm194,-340.6l0,351.3c0,0,-45.9,-53.5,-103.9,-84c0,0,-58.1,-30.5,-132.9,-30.5c0,0,-62.7,0,-113.1,22.9c0,0,-50.4,22.9,-85.5,70.2c0,0,-36.7,47.4,-55,116.1c0,0,-19.9,70.3,-19.9,162c0,0,0,81,21.4,149.7c0,0,21.4,70.3,61.1,120.7c0,0,41.3,50.4,99.3,79.4c0,0,58.1,29.1,131.4,29.1c0,0,70.3,0,119.2,-24.5c0,0,48.9,-24.4,87,-70.2l9.2,55c0,0,6.1,27.5,35.2,27.5l77.9,0l0,-974.7Z" 
	id="F6_31"
	 />

	<path d="M334.6,-10.6c0,0,-59.6,0,-103.9,18.2c0,0,-45.8,19.9,-76.4,55c0,0,-30.5,36.7,-45.8,87.1c0,0,-15.3,52,-15.3,114.6l0,464.5l129.9,0l0,-464.5c0,0,0,-82.5,36.6,-126.8c0,0,38.2,-45.8,113.1,-45.8c0,0,56.5,0,103.9,25.9c0,0,48.9,27.5,90.1,73.4l0,537.8l131.4,0L698.2,0L618.8,0c0,0,-13.8,0,-23,6.1c0,0,-9.1,6.1,-10.7,19.9l-12.2,77.9c0,0,-45.8,-52,-103.9,-82.5c0,0,-58,-32,-134.4,-32Z" 
	id="F6_32"
	 />

	<path d="M160.4,-245.9L285.7,42.8L7.6,728.8l113.1,0c0,0,16.8,0,26,-7.7c0,0,9.1,-9.2,13.7,-19.8L330,246c0,0,6.1,-16.8,12.2,-32.1c0,0,6.1,-15.3,9.2,-30.6c0,0,4.6,15.3,9.2,30.6c0,0,6.1,16.8,12.2,33.6l165,453.8c0,0,4.6,12.2,15.3,19.8c0,0,10.7,7.7,22.9,7.7l103.9,0L304,-213.8c0,0,-6.1,-15.3,-15.2,-22.9c0,0,-10.7,-9.2,-30.6,-9.2Z" 
	id="F6_33"
	 />

	<path d="M285.7,0L13.8,728.8l108.4,0c0,0,13.8,0,24.5,-7.7c0,0,10.7,-9.2,13.7,-19.8l157.4,-466c0,0,9.1,-26,15.3,-50.4c0,0,7.6,-26,13.7,-50.5c0,0,4.6,24.5,10.7,48.9c0,0,7.6,26,18.3,52l158.9,466c0,0,4.6,12.2,13.8,19.8c0,0,10.7,7.7,22.9,7.7l103.9,0L403.3,0Z" 
	id="F6_34"
	 />

	<path d="M103.9,0l0,728.8l77.9,0c0,0,13.8,0,22.9,-6.2c0,0,9.2,-6.1,10.7,-21.3l10.7,-76.4c0,0,47.4,51.9,105.4,82.5c0,0,58.1,32,134.5,32c0,0,59.6,0,103.9,-19.8c0,0,45.8,-19.9,76.4,-55c0,0,30.5,-36.7,45.8,-87.1c0,0,16.8,-51.9,16.8,-113.1L708.9,0L577.5,0l0,464.4c0,0,0,81,-36.7,125.3c0,0,-36.6,45.9,-113,45.9c0,0,-55,0,-103.9,-26c0,0,-48.9,-26,-88.6,-73.3L235.3,0Z" 
	id="F6_35"
	 />

	<path d="M389.6,472.1c0,0,53.5,0,93.2,15.3c0,0,39.7,15.2,67.2,41.2c0,0,27.5,27.5,41.3,64.2c0,0,13.7,38.2,13.7,82.5c0,0,0,93.2,-51.9,145.1c0,0,-53.5,52,-163.5,52l-145.2,0l0,-400.3ZM108.5,0l0,979.3l281.1,0c0,0,90.1,0,155.8,-21.4c0,0,65.7,-21.4,108.5,-61.1c0,0,44.3,-39.7,65.7,-96.2c0,0,21.4,-56.6,21.4,-125.3c0,0,0,-68.8,-22.9,-125.3c0,0,-23,-56.5,-67.3,-97.8c0,0,-44.3,-41.2,-108.4,-64.1c0,0,-65.7,-23,-152.8,-23l-145.2,0L244.4,0Z" 
	id="F6_36"
	 />

	<path d="M441.5,108.5c0,0,70.3,0,126.8,25.9c0,0,56.6,26,96.3,74.9c0,0,41.2,48.9,62.6,119.2c0,0,21.4,71.8,21.4,160.4c0,0,0,90.1,-21.4,160.4c0,0,-21.4,70.3,-61.1,119.2c0,0,-41.2,50.4,-97.8,74.8c0,0,-56.5,26,-126.8,26l-201.6,0l0,-760.8ZM102.4,0l0,979.3l339.1,0c0,0,99.3,0,181.8,-35.1c0,0,82.5,-35.2,140.6,-99.3c0,0,59.6,-64.2,91.7,-154.3c0,0,33.6,-91.7,33.6,-201.7c0,0,0,-110,-32.1,-200.1c0,0,-33.6,-90.2,-91.7,-154.4c0,0,-59.6,-65.6,-142.1,-99.3C623.3,35.1,540.8,0,441.5,0Z" 
	id="F6_37"
	 />

	<path d="M125.3,0l0,618.8L51.9,629.4c0,0,-15.2,1.6,-24.4,9.2c0,0,-10.7,7.7,-10.7,22.9l0,53.5l108.5,0l0,58.1c0,0,0,62.6,16.8,111.5c0,0,16.8,48.9,47.3,82.5c0,0,32.1,33.6,76.4,50.4c0,0,44.3,18.3,99.3,18.3c0,0,23,0,44.3,-3c0,0,21.4,-4.6,41.3,-12.2l-3.1,-65.7c0,0,-1.5,-16.8,-16.8,-18.4c0,0,-16.8,-1.5,-44.3,-1.5c0,0,-30.5,0,-55,-7.6c0,0,-24.4,-9.2,-42.7,-27.5c0,0,-18.4,-19.9,-27.5,-52c0,0,-9.2,-32.1,-9.2,-77.9l0,-55l302.5,0l0,77.9c0,0,0,62.7,16.8,111.5c0,0,16.8,48.9,47.4,81c0,0,32,33.6,76.3,50.4c0,0,44.3,18.4,99.3,18.4c0,0,45.9,0,87.1,-13.8l-4.6,-65.7c0,0,-1.5,-16.8,-16.8,-18.3c0,0,-16.8,-1.5,-44.3,-1.5c0,0,-30.5,0,-55,-7.7c0,0,-25.9,-9.1,-42.7,-29c0,0,-18.4,-19.9,-27.5,-50.4c0,0,-9.2,-32.1,-9.2,-79.5l0,-73.3l192.5,0l0,-94.7l-187.9,0L686,0L554.6,0l0,620.3l-299.5,0L255.1,0Z" 
	id="F6_38"
	 />

	<path d="M371.3,0L3.1,979.3l110,0c0,0,18.3,0,29,-9.2c0,0,12.2,-9.1,16.8,-21.3L401.8,261.3c0,0,9.2,-23,16.8,-50.5c0,0,9.2,-27.5,15.3,-56.5c0,0,6.1,29,13.7,56.5c0,0,7.7,27.5,16.8,50.5L705.8,947.2c0,0,4.6,12.2,16.8,21.4c0,0,12.3,10.7,29.1,10.7l110,0L493.5,0Z" 
	id="F6_39"
	 />

	<path d="M244.4,0L15.3,728.8l103.9,0c0,0,13.7,0,24.4,-7.7c0,0,10.7,-9.2,13.8,-19.8l129.8,-466c0,0,7.7,-24.5,12.2,-48.9c0,0,6.2,-24.5,10.7,-48.9c0,0,6.2,24.4,12.3,48.9c0,0,7.6,24.4,16.8,50.4L482.8,704.3c0,0,4.6,12.2,13.7,18.3c0,0,10.7,7.7,22.9,7.7l56.6,0c0,0,15.3,0,24.4,-6.1c0,0,9.2,-7.7,13.8,-19.9L756.3,236.8c0,0,7.6,-26,13.7,-50.4c0,0,7.6,-24.5,13.8,-48.9c0,0,7.6,48.9,22.9,99.3L939.6,701.3c0,0,4.6,12.2,13.7,19.8c0,0,9.2,7.7,24.5,7.7l97.8,0L846.4,0L742.5,0c0,0,-18.3,0,-26,24.4L563.8,514.9c0,0,-6.2,18.3,-10.7,35.1c0,0,-4.6,16.8,-7.7,33.6c0,0,-4.6,-16.8,-7.6,-33.6c0,0,-3.1,-18.3,-9.2,-35.1L372.8,24.4c0,0,-7.7,-24.4,-29,-24.4Z" 
	id="F6_40"
	 />

	<path d="M126.8,0l0,618.8L51.9,629.4c0,0,-15.2,1.6,-24.4,9.2c0,0,-10.7,7.7,-10.7,22.9l0,53.5l110,0l0,70.3c0,0,0,62.6,15.3,111.5c0,0,16.8,48.9,47.3,81c0,0,32.1,33.6,76.4,50.4c0,0,45.9,18.3,102.4,18.3c0,0,22.9,0,44.3,-3c0,0,22.9,-4.6,42.8,-10.7l-4.6,-65.7c0,0,-1.5,-16.8,-16.8,-18.3c0,0,-16.8,-3.1,-44.3,-3.1c0,0,-32.1,0,-56.5,-7.6c0,0,-24.5,-9.2,-42.8,-27.5c0,0,-18.4,-19.9,-27.5,-52c0,0,-9.2,-32.1,-9.2,-77.9l0,-65.7l195.6,0l0,-94.7l-192.5,0L256.7,0Z" 
	id="F6_41"
	 />


</defs>
</svg>