<?xml version="1.0" encoding="UTF-8" standalone="no"?>
<!DOCTYPE svg PUBLIC "-//W3C//DTD SVG 1.1//EN"
"http://www.w3.org/Graphics/SVG/1.1/DTD/svg11.dtd">
<svg viewBox="0 0 1210 1210" version="1.1" xmlns="http://www.w3.org/2000/svg" xmlns:xlink="http://www.w3.org/1999/xlink">
<defs>
<style type="text/css"><![CDATA[
.g2_61{
fill: none;
stroke: #418AB3;
stroke-width: 2;
stroke-linecap: butt;
stroke-linejoin: miter;
stroke-miterlimit: 7;
}
.g3_61{
fill: none;
stroke: #0000EE;
stroke-width: 2;
stroke-linecap: butt;
stroke-linejoin: miter;
}
.g1_61{
fill: #FFFFFF;
}
]]></style>
</defs>
<path fill-rule="evenodd" d="M0,0L1210,0l0,1210L0,1210L0,0Z" class="g1_61" />
<path fill-rule="evenodd" d="M0,0L1210,0l0,1210L0,1210L0,0Z" class="g1_61" />
<path fill-rule="evenodd" d="M68.8,402.9l0,-1.6L68.9,400l0.2,-1.4l0.3,-1.4l0.3,-1.4l0.4,-1.3l0.5,-1.4L71,391.9l0.7,-1.4l0.7,-1.2l0.8,-1.2L73.9,387l1,-1.2l0.7,-1.1l1.1,-1.1l1.1,-0.9l1,-0.9L79.9,381l1.2,-0.7l1.2,-1l1.3,-0.6l1.2,-0.6l1.4,-0.4l1.2,-0.6l1.4,-0.4l1.3,-0.3l1.4,-0.3L92.9,376l1.4,-0.2l1.5,0l1018.4,0l1.5,0l1.4,0.2l1.4,0.1l1.4,0.3l1.3,0.3l1.4,0.5l1.2,0.5l1.4,0.4l1.2,0.6l1.3,0.8l1.2,0.8l1.2,0.7l1.1,0.8l1,0.9l1.1,1.1l0.9,0.9l0.9,1.1l1,1.2l0.7,1.1l0.8,1.2l0.6,1.2l0.6,1.4l0.6,1.2l0.5,1.4l0.4,1.3l0.3,1.4l0.2,1.4l0.3,1.4l0,1.3l0.2,1.6l0,108l0,1.4l-0.2,1.3l-0.2,1.6l-0.3,1.3l-0.3,1.4l-0.4,1.2l-0.5,1.4l-0.4,1.4l-0.7,1.2l-0.7,1.2l-0.6,1.3l-0.9,1.2l-0.8,1l-0.9,1.1l-1.1,1.1l-1.1,0.9l-1,0.9l-1.1,0.9l-1.1,0.8l-1.2,0.8l-1.4,0.6l-1.2,0.6l-1.4,0.6l-1.2,0.5l-1.4,0.3l-1.3,0.3l-1.4,0.3l-1.4,0.1l-1.4,0.2l-1.5,0L95.8,537.9l-1.5,0l-1.4,-0.1l-1.4,-0.2l-1.4,-0.3L88.8,537l-1.4,-0.4l-1.2,-0.5l-1.4,-0.5L83.6,535l-1.3,-0.7l-1.2,-0.8l-1.2,-0.8L78.8,532l-1,-0.9L76.7,530l-1.1,-0.9l-0.7,-1.3l-1,-1l-0.7,-1.2l-0.8,-1.3l-0.7,-1.2L71,521.9l-0.4,-1.2l-0.5,-1.4l-0.4,-1.4l-0.3,-1.4l-0.3,-1.3l-0.2,-1.6l-0.1,-1.3l0,-1.4l0,-108Z" class="g1_61" />
<path d="M68.8,402.9l0,-1.6L68.9,400l0.2,-1.4l0.3,-1.4l0.3,-1.4l0.4,-1.3l0.5,-1.4L71,391.9l0.7,-1.4l0.7,-1.2l0.8,-1.2L73.9,387l1,-1.2l0.7,-1.1l1.1,-1.1l1.1,-0.9l1,-0.9L79.9,381l1.2,-0.7l1.2,-1l1.3,-0.6l1.2,-0.6l1.4,-0.4l1.2,-0.6l1.4,-0.4l1.3,-0.3l1.4,-0.3L92.9,376l1.4,-0.2l1.5,0l1018.4,0l1.5,0l1.4,0.2l1.4,0.1l1.4,0.3l1.3,0.3l1.4,0.5l1.2,0.5l1.4,0.4l1.2,0.6l1.3,0.8l1.2,0.8l1.2,0.7l1.1,0.8l1,0.9l1.1,1.1l0.9,0.9l0.9,1.1l1,1.2l0.7,1.1l0.8,1.2l0.6,1.2l0.6,1.4l0.6,1.2l0.5,1.4l0.4,1.3l0.3,1.4l0.2,1.4l0.3,1.4l0,1.3l0.2,1.6l0,108l0,1.4l-0.2,1.3l-0.2,1.6l-0.3,1.3l-0.3,1.4l-0.4,1.2l-0.5,1.4l-0.4,1.4l-0.7,1.2l-0.7,1.2l-0.6,1.3l-0.9,1.2l-0.8,1l-0.9,1.1l-1.1,1.1l-1.1,0.9l-1,0.9l-1.1,0.9l-1.1,0.8l-1.2,0.8l-1.4,0.6l-1.2,0.6l-1.4,0.6l-1.2,0.5l-1.4,0.3l-1.3,0.3l-1.4,0.3l-1.4,0.1l-1.4,0.2l-1.5,0L95.8,537.9l-1.5,0l-1.4,-0.1l-1.4,-0.2l-1.4,-0.3L88.8,537l-1.4,-0.4l-1.2,-0.5l-1.4,-0.5L83.6,535l-1.3,-0.7l-1.2,-0.8l-1.2,-0.8L78.8,532l-1,-0.9L76.7,530l-1.1,-0.9l-0.7,-1.3l-1,-1l-0.7,-1.2l-0.8,-1.3l-0.7,-1.2L71,521.9l-0.4,-1.2l-0.5,-1.4l-0.4,-1.4l-0.3,-1.4l-0.3,-1.3l-0.2,-1.6l-0.1,-1.3l0,-1.4l0,-108Z" class="g2_61" />
<path d="M348,433l65,0" class="g3_61" />
<path d="M413,433l386,0" class="g3_61" />
<path d="M799,433l6,0" class="g3_61" />
<path d="M353,465l463,0" class="g3_61" />
<path d="M408,498l466,0" class="g3_61" />
</svg>