<?xml version="1.0" encoding="UTF-8" standalone="no"?>
<!DOCTYPE svg PUBLIC "-//W3C//DTD SVG 1.1//EN"
"http://www.w3.org/Graphics/SVG/1.1/DTD/svg11.dtd">
<svg viewBox="0 0 1210 1210" version="1.1" xmlns="http://www.w3.org/2000/svg" xmlns:xlink="http://www.w3.org/1999/xlink">
<defs>
<style type="text/css"><![CDATA[
.g2_179{
fill: none;
stroke: #418AB3;
stroke-width: 2;
stroke-linecap: butt;
stroke-linejoin: miter;
stroke-miterlimit: 7;
}
.g3_179{
fill: none;
stroke: #0000EE;
stroke-width: 2;
stroke-linecap: butt;
stroke-linejoin: miter;
}
.g1_179{
fill: #FFFFFF;
}
]]></style>
</defs>
<path fill-rule="evenodd" d="M0,0L1210,0l0,1210L0,1210L0,0Z" class="g1_179" />
<path fill-rule="evenodd" d="M0,0L1210,0l0,1210L0,1210L0,0Z" class="g1_179" />
<path fill-rule="evenodd" d="M137.5,85.6l0,-1.3l0.2,-1l0.1,-1.1L138,81.1l0.3,-1L138.6,79l0.3,-1.1l0.4,-1.1l0.5,-1l0.6,-0.9l0.6,-1L141.6,73l0.6,-0.9L143,71.2l0.8,-0.8l0.7,-0.7l0.9,-0.8l1,-0.6l0.7,-0.6l1.1,-0.6l0.9,-0.6L150.2,66l1.1,-0.5l1,-0.3l0.9,-0.3l1.3,-0.3l1,-0.1l1.1,-0.2l1.1,-0.1l1.2,0l767.5,0l1.1,0l1.1,0.1l1.2,0.2l1.1,0.1l1,0.3l1.1,0.3l1.1,0.3l1.1,0.5l0.9,0.5l1,0.6l1,0.6l0.9,0.6l0.9,0.6l0.8,0.8l0.9,0.7l0.7,0.8l0.6,0.9l0.8,0.9l0.6,0.9l0.6,1l0.5,0.9l0.4,1l0.5,1.1l0.5,1.1l0.3,1.1l0.1,1l0.3,1.1l0,1.1l0.2,1l0,1.3l0.1,85.5l0,1.1l-0.1,1.1l-0.2,1.2l-0.1,1l-0.3,1.1l-0.3,1.1l-0.3,1.1l-0.5,1l-0.5,0.9l-0.6,1.1l-0.6,0.9l-0.6,0.9l-0.6,1l-0.8,0.7l-0.7,0.9l-0.9,0.8l-0.8,0.6l-0.9,0.8l-0.9,0.6l-1,0.6l-1,0.5l-0.9,0.4l-1.1,0.5l-1.1,0.4l-1.1,0.3l-1,0.2l-1.1,0.3l-1.1,0.1l-1.2,0l-1.1,0l-767.5,0.2l-1.2,0l-1.1,-0.2l-1.1,-0.1l-1,-0.2l-1.3,-0.3l-0.9,-0.3l-1,-0.3l-1.1,-0.4l-1.1,-0.5l-0.9,-0.6L147.1,189l-0.7,-0.6l-1,-0.6L144.5,187l-0.7,-0.8L143,185.5l-0.8,-0.9l-0.6,-1L141,182.7l-0.6,-0.9l-0.6,-1.1l-0.5,-0.9l-0.4,-1l-0.3,-1.1l-0.3,-1.1L138,175.5l-0.2,-1l-0.1,-1.1l-0.2,-1.2l0,-1.1l0,-85.5Z" class="g1_179" />
<path d="M137.5,85.6l0,-1.3l0.2,-1l0.1,-1.1L138,81.1l0.3,-1L138.6,79l0.3,-1.1l0.4,-1.1l0.5,-1l0.6,-0.9l0.6,-1L141.6,73l0.6,-0.9L143,71.2l0.8,-0.8l0.7,-0.7l0.9,-0.8l1,-0.6l0.7,-0.6l1.1,-0.6l0.9,-0.6L150.2,66l1.1,-0.5l1,-0.3l0.9,-0.3l1.3,-0.3l1,-0.1l1.1,-0.2l1.1,-0.1l1.2,0l767.5,0l1.1,0l1.1,0.1l1.2,0.2l1.1,0.1l1,0.3l1.1,0.3l1.1,0.3l1.1,0.5l0.9,0.5l1,0.6l1,0.6l0.9,0.6l0.9,0.6l0.8,0.8l0.9,0.7l0.7,0.8l0.6,0.9l0.8,0.9l0.6,0.9l0.6,1l0.5,0.9l0.4,1l0.5,1.1l0.5,1.1l0.3,1.1l0.1,1l0.3,1.1l0,1.1l0.2,1l0,1.3l0.1,85.5l0,1.1l-0.1,1.1l-0.2,1.2l-0.1,1l-0.3,1.1l-0.3,1.1l-0.3,1.1l-0.5,1l-0.5,0.9l-0.6,1.1l-0.6,0.9l-0.6,0.9l-0.6,1l-0.8,0.7l-0.7,0.9l-0.9,0.8l-0.8,0.6l-0.9,0.8l-0.9,0.6l-1,0.6l-1,0.5l-0.9,0.4l-1.1,0.5l-1.1,0.4l-1.1,0.3l-1,0.2l-1.1,0.3l-1.1,0.1l-1.2,0l-1.1,0l-767.5,0.2l-1.2,0l-1.1,-0.2l-1.1,-0.1l-1,-0.2l-1.3,-0.3l-0.9,-0.3l-1,-0.3l-1.1,-0.4l-1.1,-0.5l-0.9,-0.6L147.1,189l-0.7,-0.6l-1,-0.6L144.5,187l-0.7,-0.8L143,185.5l-0.8,-0.9l-0.6,-1L141,182.7l-0.6,-0.9l-0.6,-1.1l-0.5,-0.9l-0.4,-1l-0.3,-1.1l-0.3,-1.1L138,175.5l-0.2,-1l-0.1,-1.1l-0.2,-1.2l0,-1.1l0,-85.5Z" class="g2_179" />
<path d="M280,137l462,0" class="g3_179" />
<path d="M285,170l446,0" class="g3_179" />
</svg>