<?xml version="1.0" encoding="UTF-8" standalone="no"?>
<!DOCTYPE svg PUBLIC "-//W3C//DTD SVG 1.1//EN"
"http://www.w3.org/Graphics/SVG/1.1/DTD/svg11.dtd">
<svg viewBox="0 0 1155 1210" version="1.1" xmlns="http://www.w3.org/2000/svg" xmlns:xlink="http://www.w3.org/1999/xlink">
<defs>
<clipPath id="c0_38"><path d="M0.5,1210.5L0.5,0.5l1155,0l0,1210Z" /></clipPath>
<style type="text/css"><![CDATA[
.g1_38{
fill: #FFFFFF;
}
]]></style>
</defs>
<path fill-rule="evenodd" d="M0,0L1155,0l0,1210L0,1210L0,0Z" class="g1_38" />
<path fill-rule="evenodd" d="M0,0L1155,0l0,1210L0,1210L0,0Z" class="g1_38" />
<image x="790" y="1140" width="319" height="55" xlink:href="img/1.png" />
<g clip-path="url(#c0_38)">
<g fill="#626262" >
<use xlink:href="#f0_q" transform="matrix(12,0,0,12,38.5,41.3)" />
<use xlink:href="#f1_b" transform="matrix(12,0,0,12,64.8,42.3)" />
<use xlink:href="#f1_s" transform="matrix(12,0,0,12,77.2,42.3)" />
<use xlink:href="#f1_b" transform="matrix(12,0,0,12,89.1,42.3)" />
<use xlink:href="#f1_l" transform="matrix(12,0,0,12,101.6,42.3)" />
<use xlink:href="#f1_q" transform="matrix(12,0,0,12,112.4,42.3)" />
<use xlink:href="#f1_8" transform="matrix(12,0,0,12,125.4,42.3)" />
<use xlink:href="#f1_b" transform="matrix(12,0,0,12,133.9,42.3)" />
<use xlink:href="#f1_g" transform="matrix(12,0,0,12,146.5,42.3)" />
<use xlink:href="#f1_7" transform="matrix(12,0,0,12,165.5,42.3)" />
<use xlink:href="#f1_i" transform="matrix(12,0,0,12,177.9,42.3)" />
<use xlink:href="#f1_4" transform="matrix(12,0,0,12,191,42.3)" />
<use xlink:href="#f2_1i" transform="matrix(12,0,0,12,203,42.3)" />
<use xlink:href="#f2_o" transform="matrix(12,0,0,12,210.1,42.3)" />
<use xlink:href="#f2_e" transform="matrix(12,0,0,12,223.2,42.3)" />
<use xlink:href="#f2_i" transform="matrix(12,0,0,12,229.6,42.3)" />
<use xlink:href="#f2_4" transform="matrix(12,0,0,12,241,42.3)" />
<use xlink:href="#f2_6" transform="matrix(12,0,0,12,252.7,42.3)" />
<use xlink:href="#f2_c" transform="matrix(12,0,0,12,262.9,42.3)" />
<use xlink:href="#f2_d" transform="matrix(12,0,0,12,270,42.3)" />
<use xlink:href="#f2_7" transform="matrix(12,0,0,12,275.1,42.3)" />
<use xlink:href="#f2_4" transform="matrix(12,0,0,12,286.4,42.3)" />
<use xlink:href="#f2_7" transform="matrix(12,0,0,12,303.8,42.3)" />
<use xlink:href="#f2_e" transform="matrix(12,0,0,12,314.9,42.3)" />
<use xlink:href="#f2_6" transform="matrix(12,0,0,12,327.2,42.3)" />
<use xlink:href="#f2_i" transform="matrix(12,0,0,12,337.4,42.3)" />
<use xlink:href="#f2_l" transform="matrix(12,0,0,12,349,42.3)" />
<use xlink:href="#f2_g" transform="matrix(12,0,0,12,356.6,42.3)" />
<use xlink:href="#f2_7" transform="matrix(12,0,0,12,366.2,42.3)" />
<use xlink:href="#f2_l" transform="matrix(12,0,0,12,377.4,42.3)" />
<use xlink:href="#f2_7" transform="matrix(12,0,0,12,390.9,42.3)" />
<use xlink:href="#f2_m" transform="matrix(12,0,0,12,402.1,42.3)" />
<use xlink:href="#f2_1q" transform="matrix(12,0,0,12,413.7,42.3)" />
<use xlink:href="#f2_b" transform="matrix(12,0,0,12,418.7,42.3)" />
<use xlink:href="#f2_6" transform="matrix(12,0,0,12,430.2,42.3)" />
<use xlink:href="#f2_c" transform="matrix(12,0,0,12,440.4,42.3)" />
<use xlink:href="#f2_d" transform="matrix(12,0,0,12,453.4,42.3)" />
<use xlink:href="#f2_g" transform="matrix(12,0,0,12,458.5,42.3)" />
<use xlink:href="#f2_i" transform="matrix(12,0,0,12,473.8,42.3)" />
<use xlink:href="#f2_g" transform="matrix(12,0,0,12,485.4,42.3)" />
<use xlink:href="#f2_b" transform="matrix(12,0,0,12,494.9,42.3)" />
<use xlink:href="#f2_h" transform="matrix(12,0,0,12,506.3,42.3)" />
<use xlink:href="#f2_c" transform="matrix(12,0,0,12,523.9,42.3)" />
<use xlink:href="#f2_7" transform="matrix(12,0,0,12,531.1,42.3)" />
<use xlink:href="#f2_b" transform="matrix(12,0,0,12,548.2,42.3)" />
<use xlink:href="#f2_v" transform="matrix(12,0,0,12,559.2,42.3)" />
<use xlink:href="#f2_b" transform="matrix(12,0,0,12,569.1,42.3)" />
<use xlink:href="#f2_6" transform="matrix(12,0,0,12,580.6,42.3)" />
<use xlink:href="#f2_i" transform="matrix(12,0,0,12,590.8,42.3)" />
<use xlink:href="#f2_c" transform="matrix(12,0,0,12,602.4,42.3)" />
<use xlink:href="#f2_b" transform="matrix(12,0,0,12,609.4,42.3)" />
<use xlink:href="#f2_c" transform="matrix(12,0,0,12,626.7,42.3)" />
<use xlink:href="#f2_f" transform="matrix(12,0,0,12,633.8,42.3)" />
<use xlink:href="#f2_b" transform="matrix(12,0,0,12,645.4,42.3)" />
<use xlink:href="#f2_g" transform="matrix(12,0,0,12,662.5,42.3)" />
<use xlink:href="#f2_k" transform="matrix(12,0,0,12,672.2,42.3)" />
<use xlink:href="#f2_8" transform="matrix(12,0,0,12,683.4,42.3)" />
<use xlink:href="#f2_b" transform="matrix(12,0,0,12,701.3,42.3)" />
<use xlink:href="#f2_z" transform="matrix(12,0,0,12,718.5,42.3)" />
<use xlink:href="#f2_20" transform="matrix(12,0,0,12,730.1,42.3)" />
<use xlink:href="#f2_21" transform="matrix(12,0,0,12,744.6,42.3)" />
<use xlink:href="#f2_13" transform="matrix(12,0,0,12,760.8,42.3)" />
<use xlink:href="#f2_i" transform="matrix(12,0,0,12,772.4,42.3)" />
<use xlink:href="#f2_b" transform="matrix(12,0,0,12,784,42.3)" />
<use xlink:href="#f2_l" transform="matrix(12,0,0,12,795.4,42.3)" />
<use xlink:href="#f2_r" transform="matrix(12,0,0,12,803.1,42.3)" />
<use xlink:href="#f2_e" transform="matrix(12,0,0,12,819.7,42.3)" />
<use xlink:href="#f2_7" transform="matrix(12,0,0,12,826.1,42.3)" />
<use xlink:href="#f2_l" transform="matrix(12,0,0,12,837.3,42.3)" />
<use xlink:href="#f2_h" transform="matrix(12,0,0,12,850.9,42.3)" />
<use xlink:href="#f2_d" transform="matrix(12,0,0,12,862.6,42.3)" />
<use xlink:href="#f2_1k" transform="matrix(12,0,0,12,867.7,42.3)" />
<use xlink:href="#f2_b" transform="matrix(12,0,0,12,880.3,42.3)" />
<use xlink:href="#f2_l" transform="matrix(12,0,0,12,891.8,42.3)" />
<use xlink:href="#f2_b" transform="matrix(12,0,0,12,898.8,42.3)" />
<use xlink:href="#f2_4" transform="matrix(12,0,0,12,910.2,42.3)" />
<use xlink:href="#f2_c" transform="matrix(12,0,0,12,921.8,42.3)" />
<use xlink:href="#f2_g" transform="matrix(12,0,0,12,934.8,42.3)" />
<use xlink:href="#f2_b" transform="matrix(12,0,0,12,944.3,42.3)" />
<use xlink:href="#f2_c" transform="matrix(12,0,0,12,955.6,42.3)" />
<use xlink:href="#f2_7" transform="matrix(12,0,0,12,968.7,42.3)" />
<use xlink:href="#f2_e" transform="matrix(12,0,0,12,979.8,42.3)" />
<use xlink:href="#f2_h" transform="matrix(12,0,0,12,992.1,42.3)" />
<use xlink:href="#f2_k" transform="matrix(12,0,0,12,1003.8,42.3)" />
<use xlink:href="#f2_c" transform="matrix(12,0,0,12,1015.3,42.3)" />
<use xlink:href="#f2_k" transform="matrix(12,0,0,12,1022.3,42.3)" />
<use xlink:href="#f2_n" transform="matrix(12,0,0,12,1033.7,42.3)" />
<use xlink:href="#f0_q" transform="matrix(12,0,0,12,38.5,184.9)" />
<use xlink:href="#f2_15" transform="matrix(12,0,0,12,64.8,186.1)" />
<use xlink:href="#f2_7" transform="matrix(12,0,0,12,77.6,186.1)" />
<use xlink:href="#f2_4" transform="matrix(12,0,0,12,88.7,186.1)" />
<use xlink:href="#f2_g" transform="matrix(12,0,0,12,100.3,186.1)" />
<use xlink:href="#f2_d" transform="matrix(12,0,0,12,109.8,186.1)" />
<use xlink:href="#f2_h" transform="matrix(12,0,0,12,115,186.1)" />
<use xlink:href="#f2_b" transform="matrix(12,0,0,12,126.6,186.1)" />
<use xlink:href="#f2_l" transform="matrix(12,0,0,12,138,186.1)" />
<use xlink:href="#f2_k" transform="matrix(12,0,0,12,151.6,186.1)" />
<use xlink:href="#f2_c" transform="matrix(12,0,0,12,168.8,186.1)" />
<use xlink:href="#f2_k" transform="matrix(12,0,0,12,175.9,186.1)" />
<use xlink:href="#f2_m" transform="matrix(12,0,0,12,187.3,186.1)" />
<use xlink:href="#f2_a" transform="matrix(12,0,0,12,198.8,186.1)" />
<use xlink:href="#f2_b" transform="matrix(12,0,0,12,203.9,186.1)" />
<use xlink:href="#f2_24" transform="matrix(12,0,0,12,221.2,186.1)" />
<use xlink:href="#f2_1n" transform="matrix(12,0,0,12,226.2,186.1)" />
<use xlink:href="#f2_8" transform="matrix(12,0,0,12,237.8,186.1)" />
<use xlink:href="#f2_9" transform="matrix(12,0,0,12,255.5,186.1)" />
<use xlink:href="#f2_a" transform="matrix(12,0,0,12,267.1,186.1)" />
<use xlink:href="#f2_7" transform="matrix(12,0,0,12,272.1,186.1)" />
<use xlink:href="#f2_r" transform="matrix(12,0,0,12,283.4,186.1)" />
<use xlink:href="#f2_b" transform="matrix(12,0,0,12,294.1,186.1)" />
<use xlink:href="#f2_b" transform="matrix(12,0,0,12,305.6,186.1)" />
<use xlink:href="#f2_24" transform="matrix(12,0,0,12,316.9,186.1)" />
<use xlink:href="#f2_d" transform="matrix(12,0,0,12,327.8,186.1)" />
<use xlink:href="#f2_4" transform="matrix(12,0,0,12,333,186.1)" />
<use xlink:href="#f2_3" transform="matrix(12,0,0,12,350.4,186.1)" />
<use xlink:href="#f2_l" transform="matrix(12,0,0,12,364.8,186.1)" />
<use xlink:href="#f2_k" transform="matrix(12,0,0,12,372.6,186.1)" />
<use xlink:href="#f2_6" transform="matrix(12,0,0,12,383.9,186.1)" />
<use xlink:href="#f2_a" transform="matrix(12,0,0,12,394.2,186.1)" />
<use xlink:href="#f2_b" transform="matrix(12,0,0,12,399.3,186.1)" />
<use xlink:href="#f2_h" transform="matrix(12,0,0,12,416.5,186.1)" />
<use xlink:href="#f2_k" transform="matrix(12,0,0,12,428.3,186.1)" />
<use xlink:href="#f2_c" transform="matrix(12,0,0,12,439.6,186.1)" />
<use xlink:href="#f2_k" transform="matrix(12,0,0,12,446.8,186.1)" />
<use xlink:href="#f2_m" transform="matrix(12,0,0,12,458,186.1)" />
<use xlink:href="#f2_k" transform="matrix(12,0,0,12,469.7,186.1)" />
<use xlink:href="#f2_g" transform="matrix(12,0,0,12,480.9,186.1)" />
<use xlink:href="#f2_b" transform="matrix(12,0,0,12,490.6,186.1)" />
<use xlink:href="#f2_12" transform="matrix(12,0,0,12,507.7,186.1)" />
<use xlink:href="#f2_d" transform="matrix(12,0,0,12,522.8,186.1)" />
<use xlink:href="#f2_c" transform="matrix(12,0,0,12,527.9,186.1)" />
<use xlink:href="#f2_f" transform="matrix(12,0,0,12,535,186.1)" />
<use xlink:href="#f2_e" transform="matrix(12,0,0,12,552.4,186.1)" />
<use xlink:href="#f2_7" transform="matrix(12,0,0,12,558.9,186.1)" />
<use xlink:href="#f2_a" transform="matrix(12,0,0,12,570.1,186.1)" />
<use xlink:href="#f2_a" transform="matrix(12,0,0,12,575.1,186.1)" />
<use xlink:href="#f2_7" transform="matrix(12,0,0,12,580.3,186.1)" />
<use xlink:href="#f2_12" transform="matrix(12,0,0,12,591.4,186.1)" />
<use xlink:href="#f2_d" transform="matrix(12,0,0,12,606.4,186.1)" />
<use xlink:href="#f2_4" transform="matrix(12,0,0,12,611.6,186.1)" />
<use xlink:href="#f2_x" transform="matrix(12,0,0,12,623,186.1)" />
<use xlink:href="#f2_g" transform="matrix(12,0,0,12,640.7,186.1)" />
<use xlink:href="#f2_9" transform="matrix(12,0,0,12,650.2,186.1)" />
<use xlink:href="#f2_b" transform="matrix(12,0,0,12,661.8,186.1)" />
<use xlink:href="#f2_6" transform="matrix(12,0,0,12,673.1,186.1)" />
<use xlink:href="#f2_d" transform="matrix(12,0,0,12,683.3,186.1)" />
<use xlink:href="#f2_1s" transform="matrix(12,0,0,12,688.5,186.1)" />
<use xlink:href="#f2_6" transform="matrix(12,0,0,12,699.9,186.1)" />
<use xlink:href="#f2_k" transform="matrix(12,0,0,12,710.3,186.1)" />
<use xlink:href="#f2_c" transform="matrix(12,0,0,12,721.6,186.1)" />
<use xlink:href="#f2_d" transform="matrix(12,0,0,12,728.8,186.1)" />
<use xlink:href="#f2_7" transform="matrix(12,0,0,12,734,186.1)" />
<use xlink:href="#f2_4" transform="matrix(12,0,0,12,745.1,186.1)" />
<use xlink:href="#f2_g" transform="matrix(12,0,0,12,756.7,186.1)" />
<use xlink:href="#f2_n" transform="matrix(12,0,0,12,766.2,186.1)" />
<use xlink:href="#f2_1n" transform="matrix(12,0,0,12,93.5,213.3)" />
<use xlink:href="#f2_8" transform="matrix(12,0,0,12,105.1,213.3)" />
<use xlink:href="#f2_9" transform="matrix(12,0,0,12,122.8,213.3)" />
<use xlink:href="#f2_a" transform="matrix(12,0,0,12,134.4,213.3)" />
<use xlink:href="#f2_7" transform="matrix(12,0,0,12,139.5,213.3)" />
<use xlink:href="#f2_r" transform="matrix(12,0,0,12,150.6,213.3)" />
<use xlink:href="#f2_b" transform="matrix(12,0,0,12,161.4,213.3)" />
<use xlink:href="#f2_b" transform="matrix(12,0,0,12,172.9,213.3)" />
<use xlink:href="#f2_1i" transform="matrix(12,0,0,12,190,213.3)" />
<use xlink:href="#f2_b" transform="matrix(12,0,0,12,197.2,213.3)" />
<use xlink:href="#f2_8" transform="matrix(12,0,0,12,208.6,213.3)" />
<use xlink:href="#f2_9" transform="matrix(12,0,0,12,226.3,213.3)" />
<use xlink:href="#f2_a" transform="matrix(12,0,0,12,237.9,213.3)" />
<use xlink:href="#f2_7" transform="matrix(12,0,0,12,243,213.3)" />
<use xlink:href="#f2_r" transform="matrix(12,0,0,12,254.3,213.3)" />
<use xlink:href="#f2_b" transform="matrix(12,0,0,12,265,213.3)" />
<use xlink:href="#f2_b" transform="matrix(12,0,0,12,276.4,213.3)" />
<use xlink:href="#f2_d" transform="matrix(12,0,0,12,287.7,213.3)" />
<use xlink:href="#f2_h" transform="matrix(12,0,0,12,292.9,213.3)" />
<use xlink:href="#f2_11" transform="matrix(12,0,0,12,310.4,213.3)" />
<use xlink:href="#f2_p" transform="matrix(12,0,0,12,324.1,213.3)" />
<use xlink:href="#f2_1d" transform="matrix(12,0,0,12,337.4,213.3)" />
<use xlink:href="#f2_27" transform="matrix(12,0,0,12,353.3,213.3)" />
<use xlink:href="#f2_1n" transform="matrix(12,0,0,12,365.8,213.3)" />
<use xlink:href="#f2_1u" transform="matrix(12,0,0,12,377.4,213.3)" />
<use xlink:href="#f2_j" transform="matrix(12,0,0,12,390.2,213.3)" />
<use xlink:href="#f2_b" transform="matrix(12,0,0,12,402,213.3)" />
<use xlink:href="#f2_8" transform="matrix(12,0,0,12,413.3,213.3)" />
<use xlink:href="#f2_9" transform="matrix(12,0,0,12,431.1,213.3)" />
<use xlink:href="#f2_a" transform="matrix(12,0,0,12,442.6,213.3)" />
<use xlink:href="#f2_7" transform="matrix(12,0,0,12,447.8,213.3)" />
<use xlink:href="#f2_r" transform="matrix(12,0,0,12,458.9,213.3)" />
<use xlink:href="#f2_b" transform="matrix(12,0,0,12,469.7,213.3)" />
<use xlink:href="#f2_b" transform="matrix(12,0,0,12,481,213.3)" />
<use xlink:href="#f2_4" transform="matrix(12,0,0,12,492.5,213.3)" />
<use xlink:href="#f2_k" transform="matrix(12,0,0,12,503.9,213.3)" />
<use xlink:href="#f2_8" transform="matrix(12,0,0,12,515.2,213.3)" />
<use xlink:href="#f2_b" transform="matrix(12,0,0,12,533.1,213.3)" />
<use xlink:href="#f2_1y" transform="matrix(12,0,0,12,550.3,213.3)" />
<use xlink:href="#f2_1h" transform="matrix(12,0,0,12,561.5,213.3)" />
<use xlink:href="#f2_1u" transform="matrix(12,0,0,12,574,213.3)" />
<use xlink:href="#f2_15" transform="matrix(12,0,0,12,585.9,213.3)" />
<use xlink:href="#f2_18" transform="matrix(12,0,0,12,598.7,213.3)" />
<use xlink:href="#f2_1h" transform="matrix(12,0,0,12,612.5,213.3)" />
<use xlink:href="#f2_1u" transform="matrix(12,0,0,12,624.8,213.3)" />
<use xlink:href="#f2_t" transform="matrix(12,0,0,12,637.7,213.3)" />
<use xlink:href="#f2_1i" transform="matrix(12,0,0,12,649.3,213.3)" />
<use xlink:href="#f2_t" transform="matrix(12,0,0,12,656.4,213.3)" />
<use xlink:href="#f2_14" transform="matrix(12,0,0,12,667.9,213.3)" />
<use xlink:href="#f2_o" transform="matrix(12,0,0,12,679.6,213.3)" />
<use xlink:href="#f2_o" transform="matrix(12,0,0,12,686.8,213.3)" />
<use xlink:href="#f0_q" transform="matrix(12,0,0,12,38.5,260)" />
<use xlink:href="#f2_u" transform="matrix(12,0,0,12,64.8,261.3)" />
<use xlink:href="#f2_4" transform="matrix(12,0,0,12,70.1,261.3)" />
<use xlink:href="#f2_g" transform="matrix(12,0,0,12,81.6,261.3)" />
<use xlink:href="#f2_b" transform="matrix(12,0,0,12,91.2,261.3)" />
<use xlink:href="#f2_l" transform="matrix(12,0,0,12,102.5,261.3)" />
<use xlink:href="#f2_c" transform="matrix(12,0,0,12,110.1,261.3)" />
<use xlink:href="#f2_d" transform="matrix(12,0,0,12,117.3,261.3)" />
<use xlink:href="#f2_4" transform="matrix(12,0,0,12,122.5,261.3)" />
<use xlink:href="#f2_x" transform="matrix(12,0,0,12,133.9,261.3)" />
<use xlink:href="#f2_8" transform="matrix(12,0,0,12,151.6,261.3)" />
<use xlink:href="#f2_i" transform="matrix(12,0,0,12,169.4,261.3)" />
<use xlink:href="#f2_a" transform="matrix(12,0,0,12,181,261.3)" />
<use xlink:href="#f2_c" transform="matrix(12,0,0,12,186,261.3)" />
<use xlink:href="#f2_d" transform="matrix(12,0,0,12,193.2,261.3)" />
<use xlink:href="#f2_9" transform="matrix(12,0,0,12,198.4,261.3)" />
<use xlink:href="#f2_a" transform="matrix(12,0,0,12,209.8,261.3)" />
<use xlink:href="#f2_b" transform="matrix(12,0,0,12,215,261.3)" />
<use xlink:href="#f2_l" transform="matrix(12,0,0,12,232.2,261.3)" />
<use xlink:href="#f2_b" transform="matrix(12,0,0,12,239.2,261.3)" />
<use xlink:href="#f2_6" transform="matrix(12,0,0,12,250.7,261.3)" />
<use xlink:href="#f2_7" transform="matrix(12,0,0,12,260.9,261.3)" />
<use xlink:href="#f2_l" transform="matrix(12,0,0,12,272,261.3)" />
<use xlink:href="#f2_h" transform="matrix(12,0,0,12,279.4,261.3)" />
<use xlink:href="#f2_g" transform="matrix(12,0,0,12,291.1,261.3)" />
<use xlink:href="#f2_i" transform="matrix(12,0,0,12,306.5,261.3)" />
<use xlink:href="#f2_g" transform="matrix(12,0,0,12,318,261.3)" />
<use xlink:href="#f2_d" transform="matrix(12,0,0,12,327.6,261.3)" />
<use xlink:href="#f2_4" transform="matrix(12,0,0,12,332.6,261.3)" />
<use xlink:href="#f2_x" transform="matrix(12,0,0,12,344.3,261.3)" />
<use xlink:href="#f1_v" transform="matrix(12,0,0,12,362.1,261.3)" />
<use xlink:href="#f1_e" transform="matrix(12,0,0,12,375.1,261.3)" />
<use xlink:href="#f1_a" transform="matrix(12,0,0,12,387.6,261.3)" />
<use xlink:href="#f1_h" transform="matrix(12,0,0,12,398.6,261.3)" />
<use xlink:href="#f1_8" transform="matrix(12,0,0,12,404.5,261.3)" />
<use xlink:href="#f1_h" transform="matrix(12,0,0,12,413.2,261.3)" />
<use xlink:href="#f1_e" transform="matrix(12,0,0,12,419.3,261.3)" />
<use xlink:href="#f1_i" transform="matrix(12,0,0,12,431.7,261.3)" />
<use xlink:href="#f1_7" transform="matrix(12,0,0,12,444.7,261.3)" />
<use xlink:href="#f1_m" transform="matrix(12,0,0,12,457.2,261.3)" />
<use xlink:href="#f1_9" transform="matrix(12,0,0,12,469.6,261.3)" />
<use xlink:href="#f1_h" transform="matrix(12,0,0,12,482.7,261.3)" />
<use xlink:href="#f1_i" transform="matrix(12,0,0,12,488.7,261.3)" />
<use xlink:href="#f1_r" transform="matrix(12,0,0,12,501.8,261.3)" />
<use xlink:href="#f1_u" transform="matrix(12,0,0,12,521.2,261.3)" />
<use xlink:href="#f1_7" transform="matrix(12,0,0,12,533.1,261.3)" />
<use xlink:href="#f1_d" transform="matrix(12,0,0,12,545.4,261.3)" />
<use xlink:href="#f1_h" transform="matrix(12,0,0,12,554.5,261.3)" />
<use xlink:href="#f1_7" transform="matrix(12,0,0,12,560.6,261.3)" />
<use xlink:href="#f1_9" transform="matrix(12,0,0,12,572.9,261.3)" />
<use xlink:href="#f1_m" transform="matrix(12,0,0,12,585.9,261.3)" />
<use xlink:href="#f1_b" transform="matrix(12,0,0,12,592,261.3)" />
<use xlink:href="#f1_a" transform="matrix(12,0,0,12,604.5,261.3)" />
<use xlink:href="#f2_n" transform="matrix(12,0,0,12,615.7,261.3)" />
<use xlink:href="#f0_q" transform="matrix(12,0,0,12,38.5,595.4)" />
<use xlink:href="#f2_u" transform="matrix(12,0,0,12,64.8,596.4)" />
<use xlink:href="#f2_4" transform="matrix(12,0,0,12,70.1,596.4)" />
<use xlink:href="#f2_g" transform="matrix(12,0,0,12,81.6,596.4)" />
<use xlink:href="#f2_b" transform="matrix(12,0,0,12,91.2,596.4)" />
<use xlink:href="#f2_l" transform="matrix(12,0,0,12,102.5,596.4)" />
<use xlink:href="#f2_c" transform="matrix(12,0,0,12,110.1,596.4)" />
<use xlink:href="#f2_d" transform="matrix(12,0,0,12,117.3,596.4)" />
<use xlink:href="#f2_4" transform="matrix(12,0,0,12,122.5,596.4)" />
<use xlink:href="#f2_x" transform="matrix(12,0,0,12,133.9,596.4)" />
<use xlink:href="#f2_8" transform="matrix(12,0,0,12,151.6,596.4)" />
<use xlink:href="#f2_i" transform="matrix(12,0,0,12,169.4,596.4)" />
<use xlink:href="#f2_a" transform="matrix(12,0,0,12,181,596.4)" />
<use xlink:href="#f2_c" transform="matrix(12,0,0,12,186,596.4)" />
<use xlink:href="#f2_d" transform="matrix(12,0,0,12,193.2,596.4)" />
<use xlink:href="#f2_9" transform="matrix(12,0,0,12,198.4,596.4)" />
<use xlink:href="#f2_a" transform="matrix(12,0,0,12,209.8,596.4)" />
<use xlink:href="#f2_b" transform="matrix(12,0,0,12,215,596.4)" />
<use xlink:href="#f2_l" transform="matrix(12,0,0,12,232.2,596.4)" />
<use xlink:href="#f2_b" transform="matrix(12,0,0,12,239.2,596.4)" />
<use xlink:href="#f2_6" transform="matrix(12,0,0,12,250.7,596.4)" />
<use xlink:href="#f2_7" transform="matrix(12,0,0,12,260.9,596.4)" />
<use xlink:href="#f2_l" transform="matrix(12,0,0,12,272,596.4)" />
<use xlink:href="#f2_h" transform="matrix(12,0,0,12,279.4,596.4)" />
<use xlink:href="#f2_g" transform="matrix(12,0,0,12,291.1,596.4)" />
<use xlink:href="#f2_i" transform="matrix(12,0,0,12,306.5,596.4)" />
<use xlink:href="#f2_g" transform="matrix(12,0,0,12,318,596.4)" />
<use xlink:href="#f2_d" transform="matrix(12,0,0,12,327.6,596.4)" />
<use xlink:href="#f2_4" transform="matrix(12,0,0,12,332.6,596.4)" />
<use xlink:href="#f2_x" transform="matrix(12,0,0,12,344.3,596.4)" />
<use xlink:href="#f1_i" transform="matrix(12,0,0,12,362.1,596.4)" />
<use xlink:href="#f1_7" transform="matrix(12,0,0,12,375.1,596.4)" />
<use xlink:href="#f1_g" transform="matrix(12,0,0,12,387.6,596.4)" />
<use xlink:href="#f1_b" transform="matrix(12,0,0,12,406.7,596.4)" />
<use xlink:href="#f1_r" transform="matrix(12,0,0,12,419,596.4)" />
<use xlink:href="#f1_9" transform="matrix(12,0,0,12,438.4,596.4)" />
<use xlink:href="#f1_h" transform="matrix(12,0,0,12,451.5,596.4)" />
<use xlink:href="#f1_i" transform="matrix(12,0,0,12,457.5,596.4)" />
<use xlink:href="#f1_r" transform="matrix(12,0,0,12,470.5,596.4)" />
<use xlink:href="#f1_u" transform="matrix(12,0,0,12,490,596.4)" />
<use xlink:href="#f1_7" transform="matrix(12,0,0,12,501.9,596.4)" />
<use xlink:href="#f1_d" transform="matrix(12,0,0,12,514.3,596.4)" />
<use xlink:href="#f1_h" transform="matrix(12,0,0,12,523.3,596.4)" />
<use xlink:href="#f1_7" transform="matrix(12,0,0,12,529.4,596.4)" />
<use xlink:href="#f1_9" transform="matrix(12,0,0,12,541.8,596.4)" />
<use xlink:href="#f1_m" transform="matrix(12,0,0,12,554.7,596.4)" />
<use xlink:href="#f1_b" transform="matrix(12,0,0,12,560.8,596.4)" />
<use xlink:href="#f1_a" transform="matrix(12,0,0,12,573.3,596.4)" />
<use xlink:href="#f2_n" transform="matrix(12,0,0,12,584.5,596.4)" />
</g>
</g>
<image x="65" y="85" width="984" height="61" xlink:href="img/2.png" />
<image x="67" y="298" width="979" height="262" xlink:href="img/3.png" />
<image x="65" y="641" width="999" height="343" xlink:href="img/4.png" />
<defs>
	<path d="M264.3,297.9c0,0,-42.8,0,-79.4,16.8c0,0,-36.7,16.8,-64.2,44.3c0,0,-29,29.1,-44.3,67.3c0,0,-16.8,38.1,-16.8,82.5c0,0,0,41.2,15.3,77.9c0,0,16.8,38.2,44.3,65.7c0,0,29,27.5,65.7,42.7c0,0,36.6,16.8,79.4,16.8c0,0,42.8,0,81,-15.2c0,0,38.2,-16.8,65.7,-44.3c0,0,29,-27.5,45.8,-64.2c0,0,16.8,-38.2,16.8,-79.4c0,0,0,-44.4,-16.8,-82.5c0,0,-16.8,-38.2,-44.3,-65.7c0,0,-29,-29.1,-67.2,-45.9c0,0,-38.2,-16.8,-81,-16.8Z" 
	id="f0_q"
	transform="scale(0.001,-0.001)" />

	<path d="M687.5,508.8c0,0,0,74.8,-44.3,120.6c0,0,-44.3,47.4,-116.1,47.4c0,0,-77.9,0,-126.8,-42.8c0,0,-48.9,-44.3,-59.6,-125.2ZM542.4,-21.3c0,0,-226.1,0,-351.4,114.5c0,0,-126.8,114.6,-126.8,322.4c0,0,0,204.7,123.7,322.3c0,0,123.8,117.7,340.7,117.7c0,0,197.1,0,314.7,-119.2c0,0,117.7,-119.2,117.7,-317.8l0,-74.8l-623.4,0c0,0,9.2,-94.8,67.3,-140.6c0,0,58,-47.4,163.4,-47.4c0,0,84.1,0,171.1,24.5c0,0,88.7,24.4,183.4,74.8l0,-204.7c0,0,-96.3,-36.6,-191,-53.4c0,0,-94.7,-18.3,-189.4,-18.3Z" 
	id="f1_b"
	transform="scale(0.001,-0.001)" />

	<path d="M22.9,0L339.2,426.3L36.7,834.2l282.6,0L490.4,586.7L664.6,834.2l282.6,0L644.7,427.8L961,0L678.3,0L490.4,262.8L305.6,0Z" 
	id="f1_s"
	transform="scale(0.001,-0.001)" />

	<path d="M545.4,-21.3c0,0,-226.1,0,-352.9,114.5c0,0,-128.3,116.1,-128.3,322.4c0,0,0,207.7,126.8,323.8c0,0,128.3,116.2,354.4,116.2c0,0,65.7,0,129.9,-12.3c0,0,64.1,-12.2,126.8,-35.1l0,-216.9c0,0,-53.5,36.6,-108.5,55c0,0,-55,18.3,-114.6,18.3c0,0,-111.5,0,-172.6,-65.7c0,0,-62.6,-65.7,-62.6,-183.3c0,0,0,-116.2,61.1,-181.8c0,0,62.6,-65.7,174.1,-65.7c0,0,62.7,0,119.2,18.3c0,0,56.5,19.9,103.9,56.5l0,-218.5c0,0,-62.7,-24.4,-126.8,-35c0,0,-64.2,-10.7,-129.9,-10.7Z" 
	id="f1_l"
	transform="scale(0.001,-0.001)" />

	<path d="M414,-21.3c0,0,-143.6,0,-218.4,88.5c0,0,-76.4,88.6,-76.4,256.7l0,510.3l267.3,0l0,-82.5c0,0,0,-68.8,0,-171.1c0,0,-1.5,-102.4,-1.5,-136c0,0,0,-100.8,4.6,-145.2c0,0,6.1,-45.8,19.8,-65.6c0,0,15.3,-26,41.3,-39.8c0,0,27.5,-13.7,61.1,-13.7c0,0,84,0,131.4,64.1c0,0,48.9,64.2,48.9,177.3l0,412.5l265.8,0L957.9,0L692.1,0l0,120.7c0,0,-61.1,-73.3,-128.3,-106.9c0,0,-67.3,-35.1,-149.8,-35.1Z" 
	id="f1_q"
	transform="scale(0.001,-0.001)" />

	<path d="M443.1,0c0,0,-158.9,0,-224.6,65.7c0,0,-65.7,65.7,-65.7,223.1l0,354.4l-132.9,0l0,191l132.9,0l0,238.3l265.8,0l0,-238.3l276.5,0l0,-191l-276.5,0l0,-354.4c0,0,0,-58.1,22.9,-78c0,0,24.5,-21.4,93.2,-21.4l136,0L670.7,0Z" 
	id="f1_8"
	transform="scale(0.001,-0.001)" />

	<path d="M126.8,0l0,834.2l267.4,0l0,-122.3c0,0,50.4,71.9,113,107c0,0,64.2,36.7,140.6,36.7c0,0,87.1,0,152.8,-41.3c0,0,67.2,-42.8,100.8,-117.6c0,0,51.9,76.4,120.7,117.6c0,0,70.3,41.3,154.3,41.3c0,0,143.6,0,218.5,-88.7c0,0,74.8,-90.1,74.8,-258.1L1469.7,0L1202.4,0l0,435.4c0,0,0,9.2,0,19.9c0,0,1.5,10.7,1.5,29c0,0,0,88.6,-26,128.3c0,0,-27.5,41.3,-85.5,41.3c0,0,-74.9,0,-116.1,-62.6c0,0,-42.8,-62.7,-44.4,-181.9L931.9,0L664.6,0l0,435.4c0,0,0,137.5,-24.5,177.2c0,0,-24.4,41.3,-85.5,41.3c0,0,-76.4,0,-117.7,-62.6c0,0,-42.7,-64.2,-42.7,-180.3l0,-411Z" 
	id="f1_g"
	transform="scale(0.001,-0.001)" />

	<path d="M462.9,155.8c0,0,74.9,0,125.3,53.5c0,0,51.9,53.5,51.9,136l0,30.5l-137.5,0c0,0,-84,0,-125.2,-29c0,0,-42.8,-29,-42.8,-84c0,0,0,-50.4,33.6,-77.9c0,0,33.6,-29.1,94.7,-29.1ZM356,-21.3c0,0,-129.9,0,-210.9,74.8c0,0,-80.9,74.8,-80.9,197.1c0,0,0,146.6,100.8,215.4c0,0,102.4,68.7,317.8,68.7l157.3,0l0,19.9c0,0,0,64.2,-48.8,93.2c0,0,-50.5,29,-155.9,29c0,0,-85.5,0,-158.9,-16.8c0,0,-74.8,-16.8,-139,-51.9l0,204.7c0,0,85.6,19.8,172.6,30.5c0,0,87.1,12.3,172.7,12.3c0,0,226.1,0,326.9,-88.7c0,0,100.9,-90.1,100.9,-290.2L910.6,0L640.1,0l0,123.8c0,0,-53.4,-76.4,-120.7,-110c0,0,-67.2,-35.1,-163.4,-35.1Z" 
	id="f1_7"
	transform="scale(0.001,-0.001)" />

	<path d="M126.8,0l0,834.2l267.4,0l0,-122.3c0,0,61.1,73.4,128.3,108.5c0,0,68.8,35.2,149.7,35.2c0,0,145.2,0,220,-88.7c0,0,74.9,-90.1,74.9,-258.1L967.1,0L699.7,0l0,82.5l0,305.6c0,0,0,108.4,-4.6,149.7c0,0,-6.1,41.2,-18.3,61.1c0,0,-15.3,26,-41.2,39.7c0,0,-27.5,15.3,-62.7,15.3c0,0,-82.5,0,-129.8,-64.2c0,0,-48.9,-65.7,-48.9,-178.7l0,-411Z" 
	id="f1_i"
	transform="scale(0.001,-0.001)" />

	<path d="M152.8,-328.4l0,174.2l82.5,0c0,0,68.7,0,99.3,21.4c0,0,30.5,22.9,47.3,77.9l7.7,24.4L18.3,834.2l267.4,0L508.8,267.4L699.7,834.2l267.4,0L615.7,-77.8c0,0,-51.9,-140.6,-122.2,-195.6c0,0,-71.8,-55,-186.4,-55Z" 
	id="f1_4"
	transform="scale(0.001,-0.001)" />

	<path d="M352.9,-200c0,0,-111.5,174.1,-166.5,342.1c0,0,-56.5,169.6,-56.5,336.1c0,0,0,166.5,55,334.6c0,0,56.5,169.6,168,345.3l120.7,0c0,0,-100.8,-171.2,-148.2,-339.2c0,0,-48.9,-168.1,-48.9,-340.7c0,0,0,-171.1,48.9,-339.2c0,0,48.9,-169.5,148.2,-339Z" 
	id="f2_1i"
	transform="scale(0.001,-0.001)" />

	<path d="M122.2,-200c0,0,99.3,169.5,146.7,337.5c0,0,48.9,169.6,48.9,340.7c0,0,0,172.6,-47.4,340.7c0,0,-48.9,168,-148.2,339.2l119.2,0c0,0,111.5,-175.7,166.5,-343.8c0,0,56.5,-169.6,56.5,-336.1c0,0,0,-166.5,-55,-334.6c0,0,-56.5,-169.5,-168,-343.6Z" 
	id="f2_o"
	transform="scale(0.001,-0.001)" />

	<path d="M165,0l0,728.8l-131.4,0l0,105.4l131.4,0l0,58c0,0,0,140.6,64.2,203.2c0,0,65.7,64.2,207.7,64.2l129.9,0l0,-113.1l-131.4,0c0,0,-74.8,0,-102.3,-30.5c0,0,-29.1,-30.6,-29.1,-107l0,-74.8l226.1,0l0,-105.4l-226.1,0L304,0Z" 
	id="f2_e"
	transform="scale(0.001,-0.001)" />

	<path d="M421.7,-21.3c0,0,-143.6,0,-218.5,88.5L128.3,328.5l0,505.7l137.5,0l0,-499.6c0,0,0,-119.2,45.9,-178.8c0,0,47.3,-59.5,139,-59.5c0,0,111.5,0,175.7,70.2c0,0,65.7,71.8,65.7,194.1l0,473.6l136,0L828.1,0l-136,0l0,126.8c0,0,-50.4,-74.9,-116.1,-111.5c0,0,-67.2,-36.6,-154.3,-36.6Z" 
	id="f2_i"
	transform="scale(0.001,-0.001)" />

	<path d="M137.5,0l0,834.2l139,0l0,-129.9c0,0,48.9,76.4,114.6,113.1c0,0,67.2,38.2,154.3,38.2c0,0,145.2,0,218.5,-88.7c0,0,73.3,-90.1,73.3,-262.7L837.2,0L699.7,0l0,499.6c0,0,0,117.6,-45.8,175.7c0,0,-45.8,59.6,-139,59.6c0,0,-110,0,-174.2,-70.3c0,0,-64.2,-70.3,-64.2,-192.5L276.5,0Z" 
	id="f2_4"
	transform="scale(0.001,-0.001)" />

	<path d="M495,-21.3c0,0,-189.4,0,-299.4,117.6C195.6,96.3,84,215.4,84,415.6c0,0,0,204.7,111.6,322.3c0,0,113,117.7,308.6,117.7c0,0,62.6,0,122.2,-13.8c0,0,61.1,-13.7,117.6,-39.7l0,-128.3c0,0,-58,32,-116.1,47.3c0,0,-58,16.8,-119.1,16.8c0,0,-133,0,-206.3,-84c0,0,-74.9,-84,-74.9,-238.3c0,0,0,-152.8,73.4,-236.8c0,0,74.8,-84.1,207.8,-84.1c0,0,61.1,0,119.1,15.3c0,0,58.1,16.8,116.1,48.9L744,30.6c0,0,-56.5,-26,-117.6,-38.1c0,0,-62.6,-13.8,-131.4,-13.8Z" 
	id="f2_6"
	transform="scale(0.001,-0.001)" />

	<path d="M420.1,0c0,0,-158.8,0,-218.4,58.1c0,0,-61.1,59.5,-61.1,216.9l0,453.8l-100.9,0l0,105.4l100.9,0l0,238.3l139,0l0,-238.3l282.6,0l0,-105.4l-282.6,0l0,-453.8c0,0,0,-102.4,27.5,-131.4c0,0,27.5,-29,113,-29l142.1,0L562.2,0Z" 
	id="f2_c"
	transform="scale(0.001,-0.001)" />

	<path d="M143,0l0,834l138,0L281,0Zm0,985l0,174l138,0l0,-174Z" 
	id="f2_d"
	transform="scale(0.001,-0.001)" />

	<path d="M467.5,94.7c0,0,108.5,0,172.6,85.6c0,0,64.2,87.1,64.2,235.3c0,0,0,149.7,-64.2,235.2c0,0,-64.1,87.1,-172.6,87.1c0,0,-111.5,0,-175.7,-85.5c0,0,-64.2,-85.6,-64.2,-236.8c0,0,0,-149.8,64.2,-235.3c0,0,64.2,-85.6,175.7,-85.6Zm0,-116c0,0,-180.3,0,-281.1,116C186.4,94.7,84,210.8,84,415.6c0,0,0,206.2,100.9,322.3c0,0,102.3,117.7,282.6,117.7c0,0,178.8,0,281.1,-116.2c0,0,102.4,-117.6,102.4,-323.8c0,0,0,-204.8,-102.4,-320.9c0,0,-102.3,-116,-281.1,-116Z" 
	id="f2_7"
	transform="scale(0.001,-0.001)" />

	<path d="M137.5,0l0,834.2l139,0l0,-129.9c0,0,42.8,76.4,111.6,113.1c0,0,70.2,38.2,169.5,38.2c0,0,13.8,0,30.6,-1.6c0,0,16.8,-3,38.2,-6.1l1.5,-142.1c0,0,-24.4,13.8,-50.4,19.9c0,0,-27.5,6.1,-61.1,6.1c0,0,-116.1,0,-177.2,-74.9c0,0,-62.7,-76.3,-62.7,-216.9l0,-440Z" 
	id="f2_l"
	transform="scale(0.001,-0.001)" />

	<path d="M375.8,-21.3c0,0,-67.2,0,-140.5,12.2c0,0,-73.4,12.2,-152.8,39.7l0,140.5c0,0,76.4,-39.7,149.7,-58c0,0,73.4,-19.9,146.7,-19.9c0,0,96.2,0,148.2,32.1c0,0,51.9,33.6,51.9,94.7c0,0,0,55,-36.6,84c0,0,-38.2,30.6,-165,58.1l-48.9,12.2c0,0,-126.8,26,-183.4,81c0,0,-56.5,56.5,-56.5,152.8c0,0,0,119.1,82.5,183.3c0,0,84,64.2,238.3,64.2c0,0,74.9,0,142.1,-10.7c0,0,67.3,-12.3,123.8,-35.2l0,-129.8c0,0,-58.1,30.5,-120.7,44.3c0,0,-62.7,15.2,-129.9,15.2c0,0,-102.3,0,-152.8,-30.5c0,0,-50.4,-32.1,-50.4,-94.7c0,0,0,-47.4,35.2,-74.9c0,0,36.6,-27.5,148.2,-51.9l45.8,-10.7c0,0,146.7,-30.6,207.8,-87.1c0,0,62.6,-58.1,62.6,-160.4c0,0,0,-116.1,-91.7,-183.4c0,0,-93.1,-67.1,-253.6,-67.1Z" 
	id="f2_g"
	transform="scale(0.001,-0.001)" />

	<path d="M508.8,93.2c0,0,110,0,171.1,85.6c0,0,62.6,85.5,62.6,236.8c0,0,0,152.7,-61.1,238.3c0,0,-62.6,85.5,-172.6,85.5c0,0,-108.5,0,-169.6,-85.5c0,0,-62.7,-85.6,-62.7,-238.3c0,0,0,-151.3,61.1,-236.8c0,0,62.7,-85.6,171.2,-85.6ZM542.4,-21.3c0,0,-91.7,0,-157.4,35.1c0,0,-65.7,36.6,-108.5,111.5L276.5,0l-139,0l0,1159.6l139,0l0,-452.2c0,0,42.8,74.8,108.5,111.5c0,0,65.7,36.7,157.4,36.7c0,0,152.7,0,247.5,-120.7c0,0,96.2,-122.3,96.2,-319.3c0,0,0,-195.6,-94.7,-316.3c0,0,-96.3,-120.6,-249,-120.6Z" 
	id="f2_m"
	transform="scale(0.001,-0.001)" />

	<path d="M-27.4,-317.7l0,117.7l35,0c0,0,79.5,0,107,35.1c0,0,29,36.7,29,151.2l0,847.9l137.5,0l0,-847.9c0,0,0,-160.4,-61.1,-232.2c0,0,-61.1,-71.8,-195.6,-71.8Zm171,1303.1l0,174.2l137.5,0l0,-174.2Z" 
	id="f2_1q"
	transform="scale(0.001,-0.001)" />

	<path d="M230.7,490.4l490.4,1.5c0,0,-1.5,111.6,-62.6,178.8c0,0,-62.7,67.2,-163.5,67.2c0,0,-114.6,0,-183.3,-64.1c0,0,-70.3,-65.7,-81,-183.4ZM516.4,-21.3c0,0,-198.6,0,-314.7,116C201.7,94.7,84,210.8,84,409.4c0,0,0,204.8,110,325.5c0,0,111.6,120.7,299.5,120.7c0,0,168,0,265.8,-108.5c0,0,99.3,-110,99.3,-296.4l0,-67.2l-632.5,0c0,0,9.2,-140.6,85.6,-213.9c0,0,76.4,-74.9,213.9,-74.9c0,0,77.9,0,152.7,18.4c0,0,74.9,19.8,148.2,58l0,-129.8c0,0,-74.8,-30.6,-151.2,-45.8c0,0,-77.9,-16.8,-158.9,-16.8Z" 
	id="f2_b"
	transform="scale(0.001,-0.001)" />

	<path d="M458.3,93.2c0,0,110,0,172.7,85.6c0,0,62.6,85.5,62.6,236.8c0,0,0,152.7,-62.6,238.3c0,0,-62.7,85.5,-172.7,85.5c0,0,-108.4,0,-171.1,-85.5c0,0,-62.6,-85.6,-62.6,-238.3c0,0,0,-151.3,62.6,-236.8c0,0,62.7,-85.6,171.1,-85.6ZM424.7,-21.3c0,0,-151.2,0,-245.9,120.6C178.8,99.3,84,220,84,415.6c0,0,0,197,94.8,317.7c0,0,94.7,122.3,245.9,122.3c0,0,93.2,0,158.9,-36.7c0,0,65.7,-36.7,110,-111.5l0,452.2l136,0L829.6,0l-136,0l0,125.3c0,0,-44.3,-74.9,-110,-110c0,0,-65.7,-36.6,-158.9,-36.6Z" 
	id="f2_h"
	transform="scale(0.001,-0.001)" />

	<path d="M42.8,0L368.2,436.9L70.3,834.2l161.9,0L453.8,537.8L675.3,834.2l161.9,0L536.3,427.8L854,0L692.1,0L447.6,326.9L204.7,0Z" 
	id="f2_v"
	transform="scale(0.001,-0.001)" />

	<path d="M137.5,0l0,1159.6l139,0l0,-455.3c0,0,48.9,76.4,114.6,113.1c0,0,67.2,38.2,154.3,38.2c0,0,145.2,0,218.5,-88.7c0,0,73.3,-90.1,73.3,-262.7L837.2,0L699.7,0l0,499.6c0,0,0,117.6,-45.8,175.7c0,0,-45.8,59.6,-139,59.6c0,0,-110,0,-174.2,-70.3c0,0,-64.2,-70.3,-64.2,-192.5L276.5,0Z" 
	id="f2_f"
	transform="scale(0.001,-0.001)" />

	<path d="M407.9,93.2c0,0,113.1,0,181.8,79.4c0,0,70.3,81,70.3,215.5l0,30.5l-137.5,0c0,0,-166.5,0,-230.7,-36.7c0,0,-64.2,-38.1,-64.2,-129.8c0,0,0,-73.3,47.4,-116.1c0,0,48.9,-42.8,132.9,-42.8ZM371.3,-21.3c0,0,-128.4,0,-203.2,71.7c0,0,-76.4,71.8,-76.4,192.5c0,0,0,140.6,93.2,212.4c0,0,94.7,71.8,282.6,71.8l192.5,0l0,13.7c0,0,0,94.8,-62.6,145.2c0,0,-62.7,51.9,-175.7,51.9c0,0,-71.8,0,-139.1,-16.8c0,0,-67.2,-16.8,-129.8,-51.9l0,126.8c0,0,74.8,30.5,145.1,44.3c0,0,71.8,15.3,139,15.3c0,0,180.3,0,268.9,-93.2c0,0,90.2,-94.8,90.2,-285.7L796,0L660,0l0,126.8c0,0,-47.4,-76.4,-117.6,-111.5c0,0,-70.3,-36.6,-171.1,-36.6Z" 
	id="f2_k"
	transform="scale(0.001,-0.001)" />

	<path d="M137.5,0l0,834.2l139,0l0,-129.9c0,0,45.9,77.9,111.6,114.6c0,0,65.7,36.7,155.8,36.7c0,0,91.7,0,154.3,-45.9c0,0,64.2,-47.3,96.2,-135.9c0,0,50.5,93.1,122.3,137.5c0,0,71.8,44.3,168,44.3c0,0,131.4,0,201.7,-91.7c0,0,71.8,-91.7,71.8,-259.7L1358.2,0l-139,0l0,499.6c0,0,0,119.2,-41.3,177.2c0,0,-42.8,58.1,-129.8,58.1c0,0,-107,0,-168.1,-70.3c0,0,-62.6,-70.3,-62.6,-192.5L817.4,0L678.3,0l0,499.6c0,0,0,120.7,-41.2,177.2c0,0,-42.8,58.1,-131.4,58.1c0,0,-105.4,0,-166.5,-70.3c0,0,-62.7,-71.8,-62.7,-192.5L276.5,0Z" 
	id="f2_8"
	transform="scale(0.001,-0.001)" />

	<path d="M456.8,-21.3c0,0,-77.9,0,-166.5,16.8c0,0,-90.2,18.3,-186.4,53.4l0,154.3c0,0,91.7,-50.4,180.3,-76.4c0,0,88.6,-27.5,172.6,-27.5c0,0,129.9,0,200.1,50.4c0,0,70.3,52,70.3,145.2c0,0,0,82.5,-50.4,128.3c0,0,-50.4,47.4,-166.5,70.3l-91.7,16.8c0,0,-168,33.6,-242.9,105.4c0,0,-76.4,71.8,-76.4,200.1c0,0,0,146.7,103.9,232.3c0,0,105.4,85.5,287.2,85.5c0,0,79.5,0,160.4,-13.7c0,0,81,-15.3,166.6,-42.8l0,-148.2c0,0,-85.6,41.2,-162,61.1c0,0,-76.4,21.4,-146.6,21.4c0,0,-123.8,0,-189.5,-47.4c0,0,-67.2,-48.9,-67.2,-137.5c0,0,0,-73.3,44.3,-110c0,0,44.3,-38.2,168,-61.1l90.2,-19.8c0,0,169.6,-32.1,249,-111.6c0,0,81,-80.9,81,-216.9c0,0,0,-162,-108.5,-244.5c0,0,-108.5,-83.9,-319.3,-83.9Z" 
	id="f2_z"
	transform="scale(0.001,-0.001)" />

	<path d="M601.9,99.3c0,0,163.5,0,258.2,122.2c0,0,96.3,123.8,96.3,333.1c0,0,0,210.8,-94.7,333c0,0,-96.3,123.8,-259.8,123.8c0,0,-165,0,-261.2,-122.2c0,0,-96.3,-123.8,-96.3,-334.6c0,0,0,-209.3,96.3,-331.5c0,0,96.2,-123.8,261.2,-123.8ZM828.1,-195.5L664.6,-18.2c0,0,-26,-1.6,-38.2,-1.6c0,0,-13.8,-1.5,-24.5,-1.5c0,0,-235.2,0,-375.8,155.7c0,0,-140.5,157.4,-140.5,420.2c0,0,0,264.3,140.5,421.7c0,0,140.6,157.3,375.8,157.3c0,0,233.8,0,372.8,-157.3c0,0,140.6,-157.4,140.6,-421.7c0,0,0,-194,-77.9,-331.5c0,0,-78,-137.5,-224.6,-203.2l198.6,-215.4Z" 
	id="f2_20"
	transform="scale(0.001,-0.001)" />

	<path d="M149,0l0,1113l150,0l0,-987l542,0L841,0Z" 
	id="f2_21"
	transform="scale(0.001,-0.001)" />

	<path d="M458.3,93.2c0,0,110,0,172.7,85.6c0,0,62.6,85.5,62.6,236.8c0,0,0,152.7,-62.6,238.3c0,0,-62.7,85.5,-172.7,85.5c0,0,-108.4,0,-171.1,-85.5c0,0,-62.6,-85.6,-62.6,-238.3c0,0,0,-151.3,62.6,-236.8c0,0,62.7,-85.6,171.1,-85.6ZM693.6,-317.7l0,443c0,0,-44.3,-74.9,-110,-110c0,0,-65.7,-36.6,-158.9,-36.6c0,0,-151.2,0,-245.9,120.6C178.8,99.3,84,220,84,415.6c0,0,0,197,94.8,317.7c0,0,94.7,122.3,245.9,122.3c0,0,93.2,0,158.9,-36.7c0,0,65.7,-36.7,110,-111.5l0,126.8l136,0l0,-1151.9Z" 
	id="f2_13"
	transform="scale(0.001,-0.001)" />

	<path d="M120.7,-317.7l0,116.1l79.4,0c0,0,56.6,0,87.1,26c0,0,32.1,27.5,70.3,126.8l24.4,61L44.3,834.2l145.1,0L450.7,181.8L711.9,834.2l146.7,0L490.4,-76.3c0,0,-58,-149.7,-113,-195.5c0,0,-55,-45.9,-148.2,-45.9Z" 
	id="f2_r"
	transform="scale(0.001,-0.001)" />

	<path d="M165,0l0,728.8l-131.4,0l0,105.4l131.4,0l0,58c0,0,0,140.6,64.2,203.2c0,0,65.7,64.2,207.7,64.2l129.9,0l0,-113.1l-131.4,0c0,0,-74.8,0,-103.9,-30.5c0,0,-27.5,-30.6,-27.5,-107l0,-74.8l375.9,0l0,58c0,0,0,140.6,64.1,203.2c0,0,65.7,64.2,207.8,64.2l129.9,0l0,-113.1l-131.4,0c0,0,-74.9,0,-102.4,-30.5c0,0,-29,-30.6,-29,-107l0,-74.8l226.1,0l0,-105.4l-226.1,0L818.9,0l-139,0l0,728.8l-375.9,0L304,0Z" 
	id="f2_1k"
	transform="scale(0.001,-0.001)" />

	<path d="M178,0l0,189l158,0L336,0Zm0,600l0,189l158,0l0,-189Z" 
	id="f2_n"
	transform="scale(0.001,-0.001)" />

	<path d="M629.4,-21.3c0,0,-253.6,0,-398.7,154.2c0,0,-145.1,154.3,-145.1,421.7c0,0,0,268.9,145.1,423.2c0,0,145.1,155.8,398.7,155.8c0,0,99.4,0,188,-26c0,0,88.6,-27.5,166.5,-80.9l0,-158.9c0,0,-76.4,71.8,-162,106.9c0,0,-87,35.2,-184.8,35.2c0,0,-191,0,-291.8,-116.1c0,0,-100.9,-117.7,-100.9,-339.2c0,0,0,-220,100.9,-336.1c0,0,100.8,-117.7,291.8,-117.7c0,0,97.8,0,183.3,35.2c0,0,87.1,35.1,163.5,106.9l0,-157.3c0,0,-79.5,-55,-168.1,-81c0,0,-88.6,-25.9,-186.4,-25.9Z" 
	id="f2_15"
	transform="scale(0.001,-0.001)" />

	<path d="M143,0l0,1159l138,0L281,0Z" 
	id="f2_a"
	transform="scale(0.001,-0.001)" />

	<path d="M146,699l0,414l127,0l0,-414Z" 
	id="f2_24"
	transform="scale(0.001,-0.001)" />

	<path d="M149,0l0,1113l705,0l0,-128l-555,0l0,-329l530,0l0,-126l-530,0l0,-404l567,0L866,0Z" 
	id="f2_1n"
	transform="scale(0.001,-0.001)" />

	<path d="M508.8,93.2c0,0,110,0,171.1,85.6c0,0,62.6,85.5,62.6,236.8c0,0,0,152.7,-61.1,238.3c0,0,-62.6,85.5,-172.6,85.5c0,0,-108.5,0,-169.6,-85.5c0,0,-62.7,-85.6,-62.7,-238.3c0,0,0,-151.3,61.1,-236.8c0,0,62.7,-85.6,171.2,-85.6ZM137.5,-317.7l0,1151.9l139,0l0,-126.8c0,0,42.8,74.8,108.5,111.5c0,0,65.7,36.7,157.4,36.7c0,0,152.7,0,247.5,-120.7c0,0,96.2,-122.3,96.2,-319.3c0,0,0,-195.6,-94.7,-316.3c0,0,-96.3,-120.6,-249,-120.6c0,0,-91.7,0,-157.4,35.1c0,0,-65.7,36.6,-108.5,111.5l0,-443Z" 
	id="f2_9"
	transform="scale(0.001,-0.001)" />

	<path d="M601.9,99.3c0,0,163.5,0,258.2,122.2c0,0,96.3,123.8,96.3,333.1c0,0,0,210.8,-94.7,333c0,0,-96.3,123.8,-259.8,123.8c0,0,-165,0,-261.2,-122.2c0,0,-96.3,-123.8,-96.3,-334.6c0,0,0,-209.3,96.3,-331.5c0,0,96.2,-123.8,261.2,-123.8Zm0,-120.6c0,0,-235.2,0,-375.8,155.7c0,0,-140.5,155.9,-140.5,420.2c0,0,0,264.3,140.5,421.7c0,0,140.6,157.3,375.8,157.3c0,0,233.8,0,372.8,-157.3c0,0,140.6,-157.4,140.6,-421.7c0,0,0,-262.8,-139,-418.6c0,0,-140.6,-157.3,-374.4,-157.3Z" 
	id="f2_3"
	transform="scale(0.001,-0.001)" />

	<path d="M282.6,0L62.6,834.2l137.5,0L372.8,183.3L542.4,834.2l161.9,0L876.9,183.3l171.2,650.9l135.9,0L965.6,0l-162,0L624.9,684.4L444.6,0Z" 
	id="f2_12"
	transform="scale(0.001,-0.001)" />

	<path d="M458.3,114.6c0,0,111.6,0,172.7,81c0,0,62.6,82.5,62.6,230.7c0,0,0,149.7,-61.1,230.6c0,0,-62.6,82.5,-174.2,82.5c0,0,-110,0,-171.1,-80.9c0,0,-62.6,-82.5,-62.6,-232.2c0,0,0,-148.2,61.1,-229.2c0,0,62.6,-82.5,172.6,-82.5ZM444.6,-317.7c0,0,-71.8,0,-136,10.7c0,0,-64.2,12.2,-123.7,33.6l0,134.5c0,0,59.5,-33.6,117.6,-48.9c0,0,59.6,-15.3,120.7,-15.3c0,0,136,0,203.2,70.3c0,0,67.2,70.3,67.2,210.7l0,68.8c0,0,-42.8,-74.9,-108.5,-110C585.1,36.7,517.9,0,424.7,0c0,0,-152.8,0,-245.9,116.1c0,0,-94.8,117.7,-94.8,310.2c0,0,0,194,93.2,311.6c0,0,94.7,117.7,247.5,117.7c0,0,93.2,0,158.9,-36.7c0,0,67.2,-36.7,110,-111.5l0,126.8l136,0l0,-731.8c0,0,0,-210.8,-94.7,-314.7c0,0,-94.8,-105.4,-290.3,-105.4Z" 
	id="f2_x"
	transform="scale(0.001,-0.001)" />

	<path d="M679.9,985.4l0,172.7l139,0l0,-172.7ZM165,0l0,728.8l-131.4,0l0,105.4l131.4,0l0,58c0,0,0,137.5,64.2,201.7c0,0,65.7,65.7,198.6,65.7l139,0l0,-113.1l-131.4,0c0,0,-74.8,0,-102.3,-30.5c0,0,-29.1,-30.6,-29.1,-107l0,-74.8l514.9,0L818.9,0l-139,0l0,728.8l-375.9,0L304,0Z" 
	id="f2_1s"
	transform="scale(0.001,-0.001)" />

	<path d="M149.7,0l0,1113.8l201.7,0l495,-932l0,932l145.1,0L991.5,0L789.9,0l-495,930.4L294.9,0Z" 
	id="f2_11"
	transform="scale(0.001,-0.001)" />

	<path d="M559.2,-21.3c0,0,-210.9,0,-319.3,109.9c0,0,-108.5,111.5,-108.5,328.5l0,696.7l152.8,0l0,-676.9c0,0,0,-180.2,64.1,-258.1c0,0,64.2,-79.5,210.9,-79.5c0,0,143.6,0,207.7,77.9c0,0,65.7,79.5,65.7,259.7l0,676.9l152.8,0l0,-696.7c0,0,0,-217,-108.5,-327c0,0,-108.4,-111.4,-317.7,-111.4Z" 
	id="f2_p"
	transform="scale(0.001,-0.001)" />

	<path d="M149.7,0l0,1113.8l224.6,0L658.5,354.4l285.7,759.4l224.6,0L1168.8,0L1020.6,0l0,977.8L733.3,213.9l-151.2,0L294.9,977.8L294.9,0Z" 
	id="f2_1d"
	transform="scale(0.001,-0.001)" />

	<path d="M540.8,123.8c0,0,122.3,0,180.3,48.8c0,0,59.6,50.5,59.6,154.3c0,0,0,105.5,-58.1,154.4c0,0,-59.5,50.4,-181.8,50.4l-241.4,0l0,-407.9ZM522.5,653.9c0,0,111.5,0,165,41.2c0,0,53.5,41.3,53.5,126.8c0,0,0,84.1,-53.5,125.3c0,0,-53.5,41.3,-165,41.3l-223.1,0l0,-334.6ZM149.7,0l0,1113.8l385,0c0,0,171.1,0,264.3,-71.9c0,0,93.2,-71.8,93.2,-204.7c0,0,0,-102.3,-47.3,-161.9c0,0,-47.4,-61.1,-140.6,-74.9c0,0,111.5,-24.4,172.6,-99.3c0,0,62.7,-76.4,62.7,-189.4c0,0,0,-149.8,-100.8,-230.7C838.8,81,736.4,0,548.5,0Z" 
	id="f2_27"
	transform="scale(0.001,-0.001)" />

	<path d="M488.9,594.3c0,0,110,0,165,50.4c0,0,55,50.4,55,148.2c0,0,0,97.8,-55,146.7c0,0,-55,48.9,-165,48.9l-189.5,0l0,-394.2ZM149.7,0l0,1113.8l339.2,0c0,0,191,0,284.2,-79.5c0,0,94.7,-81,94.7,-241.4c0,0,0,-105.4,-48.9,-174.1c0,0,-48.9,-70.3,-142.1,-97.8c0,0,48.9,-15.3,94.7,-68.8c0,0,45.9,-55,91.7,-148.2L1017.5,0L855.6,0L711.9,285.7c0,0,-55,111.5,-106.9,148.2c0,0,-51.9,36.7,-140.6,36.7l-165,0L299.4,0Z" 
	id="f2_1u"
	transform="scale(0.001,-0.001)" />

	<path d="M117.6,-177.1L178.8,61.1l0,128.3l157.3,0l0,-128.3L213.9,-177.1Z" 
	id="f2_j"
	transform="scale(0.001,-0.001)" />

	<path d="M436.9,0L10.7,1113.8l157.4,0L521,175.7l354.4,938.1l155.9,0L606.5,0Z" 
	id="f2_1y"
	transform="scale(0.001,-0.001)" />

	<path d="M727.2,411L521,964L317.8,411ZM10.7,0L436.9,1113.8l169.6,0L1031.3,0L875.4,0L773.1,285.7l-501.2,0L169.6,0Z" 
	id="f2_1h"
	transform="scale(0.001,-0.001)" />

	<path d="M149,0l0,1113l150,0l0,-457l548,0l0,457l150,0L997,0L847,0l0,530l-548,0L299,0Z" 
	id="f2_18"
	transform="scale(0.001,-0.001)" />

	<path d="M111.5,0l0,126.8c0,0,85.6,88.6,233.8,236.8c0,0,148.2,149.7,186.4,194c0,0,71.8,81,100.8,137.5c0,0,29,56.6,29,110c0,0,0,88.7,-62.6,145.2c0,0,-62.6,56.5,-162,56.5c0,0,-71.8,0,-149.7,-24.4c0,0,-79.4,-26,-168,-74.9l0,151.3c0,0,90.1,36.6,169.6,55c0,0,79.4,19.8,145.1,19.8c0,0,172.6,0,275,-87.1c0,0,103.9,-87.1,103.9,-230.7c0,0,0,-68.7,-26,-129.8c0,0,-26,-62.7,-93.2,-145.2c0,0,-19.8,-22.9,-119.2,-125.2c0,0,-99.3,-103.9,-282.6,-288.8l527.1,0L818.9,0Z" 
	id="f2_t"
	transform="scale(0.001,-0.001)" />

	<path d="M411,-21.3c0,0,-70.3,0,-143.6,10.7c0,0,-73.4,12.1,-149.8,36.6l0,151.2c0,0,67.3,-36.6,137.5,-55c0,0,71.8,-18.3,152.8,-18.3c0,0,128.4,0,203.2,67.2c0,0,76.4,68.8,76.4,184.9c0,0,0,117.6,-74.9,184.8c0,0,-76.3,67.3,-204.7,67.3c0,0,-61.1,0,-120.7,-12.3c0,0,-61.1,-13.7,-123.7,-42.7l0,560.7l592.8,0l0,-128.4l-453.8,0l0,-271.9c0,0,32.1,10.7,64.2,15.3c0,0,33.6,6.1,67.2,6.1c0,0,186.4,0,294.9,-100.9c0,0,108.4,-102.3,108.4,-278c0,0,0,-178.8,-111.5,-278.1c0,0,-111.5,-99.2,-314.7,-99.2Z" 
	id="f2_14"
	transform="scale(0.001,-0.001)" />

	<path d="M149,0l0,1113l150,0L299,0Z" 
	id="f2_u"
	transform="scale(0.001,-0.001)" />

	<path d="M571.4,171.1c0,0,87.1,0,131.4,62.7c0,0,45.8,62.6,45.8,181.8c0,0,0,120.7,-44.3,183.3c0,0,-45.8,62.6,-132.9,62.6c0,0,-85.6,0,-131.4,-62.6c0,0,-45.8,-64.2,-45.8,-183.3c0,0,0,-117.7,45.8,-180.3c0,0,45.8,-64.2,131.4,-64.2ZM126.8,-317.7l0,1151.9l267.4,0l0,-122.3c0,0,55,73.4,122.2,108.5c0,0,67.2,35.2,154.3,35.2c0,0,155.8,0,253.6,-122.3c0,0,99.3,-123.7,99.3,-317.7c0,0,0,-192.5,-97.8,-314.8c0,0,-99.3,-122.1,-255.1,-122.1c0,0,-87.1,0,-154.3,33.5c0,0,-67.2,35.2,-122.2,108.5l0,-438.4Z" 
	id="f1_v"
	transform="scale(0.001,-0.001)" />

	<path d="M525.6,168.1c0,0,87,0,132.9,64.1c0,0,45.8,64.2,45.8,183.4c0,0,0,120.7,-45.8,184.8c0,0,-45.9,64.2,-132.9,64.2c0,0,-88.7,0,-134.5,-64.2c0,0,-47.3,-64.1,-47.3,-184.8c0,0,0,-119.2,45.8,-183.4c0,0,47.3,-64.1,136,-64.1Zm0,-189.4c0,0,-217,0,-339.2,116c0,0,-122.2,116.1,-122.2,320.9c0,0,0,206.2,122.2,322.3c0,0,122.2,117.7,339.2,117.7c0,0,215.4,0,336.1,-116.2c0,0,122.2,-117.6,122.2,-323.8c0,0,0,-204.8,-120.7,-320.9c0,0,-122.2,-116,-337.6,-116Z" 
	id="f1_e"
	transform="scale(0.001,-0.001)" />

	<path d="M444.6,-21.3c0,0,-84,0,-171.1,12.2c0,0,-88.6,12.2,-181.8,39.7l0,201.6c0,0,79.4,-38.2,163.4,-56.5c0,0,84.1,-19.9,169.6,-19.9c0,0,79.5,0,117.7,21.4c0,0,39.7,21.4,39.7,64.2c0,0,0,35.1,-26,51.9c0,0,-27.5,18.4,-110,27.5l-45.8,6.1c0,0,-178.8,23,-250.6,82.5c0,0,-71.8,61.2,-71.8,184.9c0,0,0,132.9,90.2,197.1c0,0,91.6,64.2,279.5,64.2c0,0,74.9,0,155.9,-10.7c0,0,80.9,-12.3,177.2,-36.7l0,-203.2c0,0,-85.6,36.7,-165,53.5c0,0,-81,18.3,-151.3,18.3c0,0,-76.3,0,-113,-18.3c0,0,-36.7,-19.9,-36.7,-58.1c0,0,0,-32.1,27.5,-48.9c0,0,27.5,-18.3,100.9,-25.9l45.8,-7.7c0,0,206.2,-26,276.5,-85.5c0,0,70.3,-59.6,70.3,-186.4c0,0,0,-134.5,-97.8,-200.2c0,0,-99.3,-67.1,-293.3,-67.1Z" 
	id="f1_a"
	transform="scale(0.001,-0.001)" />

	<path d="M126,0l0,834l268,0L394,0Zm0,942l0,217l268,0l0,-217Z" 
	id="f1_h"
	transform="scale(0.001,-0.001)" />

	<path d="M126,0l0,1159l268,0L394,0Z" 
	id="f1_m"
	transform="scale(0.001,-0.001)" />

	<path d="M571.4,171.1c0,0,87.1,0,131.4,62.7c0,0,45.8,62.6,45.8,181.8c0,0,0,120.7,-44.3,183.3c0,0,-45.8,62.6,-132.9,62.6c0,0,-85.6,0,-131.4,-62.6c0,0,-45.8,-64.2,-45.8,-183.3c0,0,0,-117.7,45.8,-180.3c0,0,45.8,-64.2,131.4,-64.2ZM670.7,-21.3c0,0,-87.1,0,-154.3,33.5c0,0,-67.2,35.2,-122.2,108.5L394.2,0L126.8,0l0,1159.6l267.4,0l0,-447.7c0,0,55,73.4,122.2,108.5c0,0,67.2,35.2,154.3,35.2c0,0,155.8,0,253.6,-122.3c0,0,99.3,-123.7,99.3,-317.7c0,0,0,-192.5,-97.8,-314.8c0,0,-99.3,-122.1,-255.1,-122.1Z" 
	id="f1_9"
	transform="scale(0.001,-0.001)" />

	<path d="M519.4,171.1c0,0,85.6,0,131.4,62.7c0,0,45.9,62.6,45.9,181.8c0,0,0,120.7,-45.9,183.3c0,0,-45.8,62.6,-131.4,62.6c0,0,-84,0,-128.3,-62.6c0,0,-45.8,-62.6,-45.8,-183.3c0,0,0,-119.2,44.3,-181.8c0,0,45.8,-62.7,129.8,-62.7ZM420.1,-21.3c0,0,-154.3,0,-253.6,122.1c0,0,-99.3,122.3,-99.3,314.8c0,0,0,194,99.3,316.2c0,0,99.3,123.8,253.6,123.8c0,0,87.1,0,152.8,-35.2c0,0,67.2,-35.1,123.8,-108.5l0,447.7l267.3,0L964,0L696.7,0l0,120.7c0,0,-56.6,-74.9,-122.3,-108.5c0,0,-65.6,-33.5,-154.3,-33.5Z" 
	id="f1_r"
	transform="scale(0.001,-0.001)" />

	<path d="M349.9,0L22.9,834.2l265.9,0L498.1,256.7L704.3,834.2l268.9,0L643.2,0Z" 
	id="f1_u"
	transform="scale(0.001,-0.001)" />

	<path d="M126.8,0l0,834.2l267.4,0l0,-136c0,0,51.9,81,117.6,119.2c0,0,67.2,38.2,160.4,38.2c0,0,13.8,0,29.1,-1.6c0,0,16.8,-1.5,45.8,-4.6l1.5,-242.9c0,0,-35.1,16.8,-70.3,24.5c0,0,-35.1,7.6,-70.2,7.6c0,0,-102.4,0,-157.4,-65.7c0,0,-56.5,-65.7,-56.5,-189.4L394.2,0Z" 
	id="f1_d"
	transform="scale(0.001,-0.001)" />


</defs>
</svg>