<?xml version="1.0" encoding="UTF-8" standalone="no"?>
<!DOCTYPE svg PUBLIC "-//W3C//DTD SVG 1.1//EN"
"http://www.w3.org/Graphics/SVG/1.1/DTD/svg11.dtd">
<svg viewBox="0 0 1100 825" version="1.1" xmlns="http://www.w3.org/2000/svg" xmlns:xlink="http://www.w3.org/1999/xlink">
<defs>
<style type="text/css"><![CDATA[
.g2_79{
fill: #D4D4D4;
}
.g3_79{
fill: none;
stroke: #000000;
stroke-width: 2;
stroke-linecap: butt;
stroke-linejoin: miter;
stroke-miterlimit: 7;
}
.g1_79{
fill: #FFFFFF;
}
]]></style>
</defs>
<path fill-rule="evenodd" d="M0,0L1100,0l0,825L0,825L0,0Z" class="g1_79" />
<path fill-rule="evenodd" d="M0,0L1100,0l0,825L0,825L0,0Z" class="g1_79" />
<image x="753" y="777" width="303" height="38" xlink:href="img/1.png" />
<path fill-rule="evenodd" d="M75.5,113.4l715.4,0l0,209.1l-41.8,41.9l-673.6,0l0,-251Z" class="g1_79" />
<path fill-rule="evenodd" d="M749.1,364.4l8.4,-33.5l33.4,-8.4l-41.8,41.9Z" class="g2_79" />
<path d="M749.1,364.4l8.4,-33.5l33.4,-8.4l-41.8,41.9l-673.6,0l0,-251l715.4,0l0,209.1" class="g3_79" />
</svg>