<?xml version="1.0" encoding="UTF-8" standalone="no"?>
<!DOCTYPE svg PUBLIC "-//W3C//DTD SVG 1.1//EN"
"http://www.w3.org/Graphics/SVG/1.1/DTD/svg11.dtd">
<svg viewBox="0 0 1210 1210" version="1.1" xmlns="http://www.w3.org/2000/svg" xmlns:xlink="http://www.w3.org/1999/xlink">
<defs>
<style type="text/css"><![CDATA[
.g2_113{
fill: none;
stroke: #0000EE;
stroke-width: 2;
stroke-linecap: butt;
stroke-linejoin: miter;
}
.g3_113{
fill: none;
stroke: #418AB3;
stroke-width: 2;
stroke-linecap: butt;
stroke-linejoin: miter;
stroke-miterlimit: 7;
}
.g1_113{
fill: #FFFFFF;
}
]]></style>
</defs>
<path fill-rule="evenodd" d="M0,0L1210,0l0,1210L0,1210L0,0Z" class="g1_113" />
<path fill-rule="evenodd" d="M0,0L1210,0l0,1210L0,1210L0,0Z" class="g1_113" />
<path d="M213,914l491,0" class="g2_113" />
<path fill-rule="evenodd" d="M226.9,265.5l0,-0.9l0,-0.9l0.1,-0.9l0.2,-0.9l0.3,-1l0.1,-0.9l0.5,-0.9l0.3,-0.9l0.5,-0.9l0.4,-0.8l0.5,-0.7l0.4,-1l0.6,-0.6l0.7,-0.7l0.6,-0.8l0.7,-0.6l0.8,-0.6l0.8,-0.6l0.7,-0.5l0.8,-0.5l0.8,-0.4l0.9,-0.5l0.9,-0.3l0.9,-0.4l0.9,-0.2l0.9,-0.3l1,-0.1l0.9,-0.2l0.9,0l0.9,0l720,0l1,0l0.9,0l0.9,0.2l1.1,0.1l0.7,0.3l0.9,0.3l1,0.3l0.9,0.3l0.7,0.5l1,0.4l0.7,0.5l0.8,0.5l0.8,0.6l0.7,0.6l0.6,0.7l0.8,0.7l0.6,0.7l0.5,0.8l0.6,0.8l0.4,0.7l0.5,0.8l0.4,0.9l0.3,0.9l0.4,0.9l0.3,0.9l0.3,1l0.1,0.9l0.2,0.9l0,0.9l0,0.9l0.1,72.4l-0.1,0l0,1l0,0.9l-0.2,0.9l-0.1,1.1l-0.3,0.7l-0.3,0.9l-0.4,1l-0.3,0.9L981,346l-0.5,1l-0.4,0.7l-0.5,0.8l-0.6,0.7l-0.6,0.8l-0.8,0.6l-0.6,0.8l-0.7,0.6l-0.8,0.5l-0.8,0.6l-0.7,0.4l-0.8,0.5l-0.9,0.4l-0.9,0.4l-1,0.3l-0.9,0.3l-0.7,0.3l-1.1,0.1l-0.9,0.2l-0.9,0l-1,0l-720,0.1l0,-0.1l-0.9,0l-0.9,0l-0.9,-0.2l-1,-0.1l-0.9,-0.3l-0.9,-0.2l-0.9,-0.4l-0.9,-0.4L236.7,354l-0.8,-0.5l-0.8,-0.4l-0.7,-0.5L233.6,352l-0.8,-0.6l-0.7,-0.6L231.5,350l-0.7,-0.8l-0.6,-0.6l-0.4,-0.7L229.3,347l-0.4,-0.8l-0.5,-0.9l-0.3,-0.9l-0.5,-1l-0.1,-0.9l-0.3,-0.7L227,340.7l-0.1,-0.9l0,-0.9l0,-1l0,-72.4Z" class="g1_113" />
<path d="M226.9,265.5l0,-0.9l0,-0.9l0.1,-0.9l0.2,-0.9l0.3,-1l0.1,-0.9l0.5,-0.9l0.3,-0.9l0.5,-0.9l0.4,-0.8l0.5,-0.7l0.4,-1l0.6,-0.6l0.7,-0.7l0.6,-0.8l0.7,-0.6l0.8,-0.6l0.8,-0.6l0.7,-0.5l0.8,-0.5l0.8,-0.4l0.9,-0.5l0.9,-0.3l0.9,-0.4l0.9,-0.2l0.9,-0.3l1,-0.1l0.9,-0.2l0.9,0l0.9,0l720,0l1,0l0.9,0l0.9,0.2l1.1,0.1l0.7,0.3l0.9,0.3l1,0.3l0.9,0.3l0.7,0.5l1,0.4l0.7,0.5l0.8,0.5l0.8,0.6l0.7,0.6l0.6,0.7l0.8,0.7l0.6,0.7l0.5,0.8l0.6,0.8l0.4,0.7l0.5,0.8l0.4,0.9l0.3,0.9l0.4,0.9l0.3,0.9l0.3,1l0.1,0.9l0.2,0.9l0,0.9l0,0.9l0.1,72.4l-0.1,0l0,1l0,0.9l-0.2,0.9l-0.1,1.1l-0.3,0.7l-0.3,0.9l-0.4,1l-0.3,0.9L981,346l-0.5,1l-0.4,0.7l-0.5,0.8l-0.6,0.7l-0.6,0.8l-0.8,0.6l-0.6,0.8l-0.7,0.6l-0.8,0.5l-0.8,0.6l-0.7,0.4l-0.8,0.5l-0.9,0.4l-0.9,0.4l-1,0.3l-0.9,0.3l-0.7,0.3l-1.1,0.1l-0.9,0.2l-0.9,0l-1,0l-720,0.1l0,-0.1l-0.9,0l-0.9,0l-0.9,-0.2l-1,-0.1l-0.9,-0.3l-0.9,-0.2l-0.9,-0.4l-0.9,-0.4L236.7,354l-0.8,-0.5l-0.8,-0.4l-0.7,-0.5L233.6,352l-0.8,-0.6l-0.7,-0.6L231.5,350l-0.7,-0.8l-0.6,-0.6l-0.4,-0.7L229.3,347l-0.4,-0.8l-0.5,-0.9l-0.3,-0.9l-0.5,-1l-0.1,-0.9l-0.3,-0.7L227,340.7l-0.1,-0.9l0,-0.9l0,-1l0,-72.4Z" class="g3_113" />
<path d="M312,327l460,0" class="g2_113" />
<image x="91" y="375" width="803" height="305" xlink:href="img/1.png" />
</svg>