<?xml version="1.0" encoding="UTF-8" standalone="no"?>
<!DOCTYPE svg PUBLIC "-//W3C//DTD SVG 1.1//EN"
"http://www.w3.org/Graphics/SVG/1.1/DTD/svg11.dtd">
<svg viewBox="0 0 1210 1045" version="1.1" xmlns="http://www.w3.org/2000/svg" xmlns:xlink="http://www.w3.org/1999/xlink">
<defs>
<style type="text/css"><![CDATA[
.g2_74{
fill: #E6E6E6;
}
.g1_74{
fill: #FFFFFF;
}
]]></style>
</defs>
<path fill-rule="evenodd" d="M0,0L1210,0l0,1045L0,1045L0,0Z" class="g1_74" />
<path fill-rule="evenodd" d="M0,0L1210,0l0,1045L0,1045L0,0Z" class="g1_74" />
<image x="828" y="984" width="334" height="49" xlink:href="img/1.png" />
<path fill-rule="evenodd" d="M210,47l902,0l0,88l-902,0l0,-88Z" class="g2_74" />
<path fill-rule="evenodd" d="M209,215l902,0l0,62l-902,0l0,-62Z" class="g2_74" />
<path fill-rule="evenodd" d="M211,320l900,0l0,37l-900,0l0,-37Z" class="g2_74" />
<path fill-rule="evenodd" d="M209,408l902,0l0,37l-902,0l0,-37Z" class="g2_74" />
<path fill-rule="evenodd" d="M211,539l466,0l0,36l-466,0l0,-36Z" class="g2_74" />
</svg>