<?xml version="1.0" encoding="UTF-8" standalone="no"?>
<!DOCTYPE svg PUBLIC "-//W3C//DTD SVG 1.1//EN"
"http://www.w3.org/Graphics/SVG/1.1/DTD/svg11.dtd">
<svg viewBox="0 0 1100 825" version="1.1" xmlns="http://www.w3.org/2000/svg" xmlns:xlink="http://www.w3.org/1999/xlink">
<defs>
<style type="text/css"><![CDATA[
.g3_1{
fill: none;
stroke: #000000;
stroke-width: 1;
stroke-linecap: butt;
stroke-linejoin: miter;
stroke-miterlimit: 7;
}
.g2_1{
fill: none;
stroke: #43729D;
stroke-width: 2;
stroke-linecap: butt;
stroke-linejoin: miter;
stroke-miterlimit: 7;
}
.g7_1{
fill: none;
stroke: #000000;
stroke-width: 2;
stroke-linecap: butt;
stroke-linejoin: miter;
stroke-miterlimit: 7;
}
.g4_1{
fill: #5B9BD5;
}
.g5_1{
fill: none;
stroke: #000000;
stroke-width: 2;
stroke-linecap: butt;
stroke-linejoin: miter;
}
.g8_1{
fill: none;
stroke: #0070C0;
stroke-width: 2;
stroke-linecap: butt;
stroke-linejoin: miter;
}
.g6_1{
}
.g1_1{
fill: #FFFFFF;
}
]]></style>
</defs>
<path fill-rule="evenodd" d="M0,0L1100,0l0,825L0,825L0,0Z" class="g1_1" />
<path fill-rule="evenodd" d="M0,0L1100,0l0,825L0,825L0,0Z" class="g1_1" />
<path fill-rule="evenodd" d="M798.4,296.8l-9.2,9.2l0,-4.6l-10.3,0l0,13.8l4.5,0l-9.1,9.1l-9.2,-9.1l4.6,0l0,-13.8l-10.2,0l0,4.6l-9.2,-9.2l9.2,-9.1l0,4.6l29.7,0l0,-4.6l9.2,9.1Z" class="g1_1" />
<path d="M798.4,296.8l-9.2,9.2l0,-4.6l-10.3,0l0,13.8l4.5,0l-9.1,9.1l-9.2,-9.1l4.6,0l0,-13.8l-10.2,0l0,4.6l-9.2,-9.2l9.2,-9.1l0,4.6l29.7,0l0,-4.6l9.2,9.1Z" class="g2_1" />
<path fill-rule="evenodd" d="M743.9,314.3l90.3,0l-34.3,15.5l-42.4,0l0,19.5l-13.6,6.2l0,-41.2Z" class="g1_1" />
<path d="M743.9,314.3l90.3,0l-34.3,15.5l-42.4,0l0,19.5l-13.6,6.2l0,-41.2Z" class="g2_1" />
<path fill-rule="evenodd" d="M801,199l162,0l0,156l-162,0l0,-156Z" class="g1_1" />
<path d="M801,199l162,0l0,156l-162,0l0,-156Z" class="g2_1" />
<path fill-rule="evenodd" d="M853,173l58,0l0,26l-58,0l0,-26Z" class="g1_1" />
<path d="M853,173l58,0l0,26l-58,0l0,-26Z" class="g2_1" />
<path d="M801.5,277.5l162,0" class="g3_1" />
<path fill-rule="evenodd" d="M801,277l162,0l0,78l-162,0l0,-78Z" class="g4_1" />
<path d="M801,277l162,0l0,78l-162,0l0,-78Z" class="g2_1" />
<path d="M882,153l0,27" class="g5_1" />
<path fill-rule="evenodd" d="M882.7,192.8l-6.8,-12.4l2.1,-1.2l4.7,8.7l4.8,-8.7l2.1,1.2l-6.9,12.4Z" class="g6_1" />
<path d="M750,368l0,26" class="g5_1" />
<path fill-rule="evenodd" d="M750.3,407.2l-6.7,-12.6l2,-1.2l4.7,8.9l4.7,-8.9l2.2,1.2l-6.9,12.6Z" class="g6_1" />
<path fill-rule="evenodd" d="M43.2,129.3l0,-0.8l0,-0.6l0.2,-0.6l0,-0.8l0.1,-0.6l0.3,-0.6L44,124.7l0.3,-0.6l0.3,-0.7l0.3,-0.6l0.3,-0.6l0.3,-0.4L46,121.2l0.4,-0.5l0.5,-0.5l0.5,-0.4L48,119.3l0.4,-0.4L49,118.6l0.5,-0.5l0.6,-0.3l0.6,-0.3l0.6,-0.2L51.9,117l0.7,-0.1l0.7,-0.2l0.6,-0.1l0.6,0l0.8,-0.2l0.6,0l675.1,0l0.7,0l0.7,0.2l0.6,0l0.6,0.1l0.7,0.2L735,117l0.6,0.3l0.6,0.3l0.6,0.2l0.7,0.4l0.4,0.4l0.6,0.3l0.5,0.4l0.4,0.5l0.7,0.4l0.4,0.5l0.5,0.5l0.3,0.6l0.4,0.4l0.3,0.6l0.3,0.6l0.4,0.7l0.3,0.6l0.1,0.6l0.2,0.6l0.1,0.6l0.2,0.8l0,0.6l0.1,0.6l0,0.8l0.2,50.8l-0.2,0l0,0.6l0,0.8l-0.1,0.6l-0.2,0.6l-0.1,0.6l-0.2,0.8l-0.1,0.6l-0.3,0.6l-0.4,0.6l-0.3,0.6l-0.3,0.5l-0.4,0.6l-0.3,0.5l-0.5,0.4l-0.4,0.6l-0.7,0.5l-0.4,0.5l-0.5,0.3l-0.6,0.4l-0.4,0.3l-0.7,0.3l-0.6,0.3l-0.6,0.3l-0.6,0.2l-0.7,0.1l-0.7,0.2l-0.6,0.2l-0.6,0l-0.7,0.1l-0.7,0L55.9,193l0,-0.2l-0.6,0l-0.8,0l-0.6,-0.1l-0.6,0l-0.7,-0.4l-0.7,-0.1L51.3,192l-0.6,-0.3l-0.6,-0.3l-0.6,-0.3L49,190.8l-0.6,-0.4L48,190.1l-0.6,-0.5l-0.5,-0.5l-0.5,-0.4L46,188.1l-0.5,-0.5L45.2,187l-0.3,-0.5l-0.3,-0.6l-0.3,-0.6L44,184.7l-0.2,-0.6l-0.3,-0.8l-0.1,-0.6l0,-0.6l-0.2,-0.6l0,-0.8l0,-0.6l0,-50.8Z" class="g1_1" />
<path d="M43.2,129.3l0,-0.8l0,-0.6l0.2,-0.6l0,-0.8l0.1,-0.6l0.3,-0.6L44,124.7l0.3,-0.6l0.3,-0.7l0.3,-0.6l0.3,-0.6l0.3,-0.4L46,121.2l0.4,-0.5l0.5,-0.5l0.5,-0.4L48,119.3l0.4,-0.4L49,118.6l0.5,-0.5l0.6,-0.3l0.6,-0.3l0.6,-0.2L51.9,117l0.7,-0.1l0.7,-0.2l0.6,-0.1l0.6,0l0.8,-0.2l0.6,0l675.1,0l0.7,0l0.7,0.2l0.6,0l0.6,0.1l0.7,0.2L735,117l0.6,0.3l0.6,0.3l0.6,0.2l0.7,0.4l0.4,0.4l0.6,0.3l0.5,0.4l0.4,0.5l0.7,0.4l0.4,0.5l0.5,0.5l0.3,0.6l0.4,0.4l0.3,0.6l0.3,0.6l0.4,0.7l0.3,0.6l0.1,0.6l0.2,0.6l0.1,0.6l0.2,0.8l0,0.6l0.1,0.6l0,0.8l0.2,50.8l-0.2,0l0,0.6l0,0.8l-0.1,0.6l-0.2,0.6l-0.1,0.6l-0.2,0.8l-0.1,0.6l-0.3,0.6l-0.4,0.6l-0.3,0.6l-0.3,0.5l-0.4,0.6l-0.3,0.5l-0.5,0.4l-0.4,0.6l-0.7,0.5l-0.4,0.5l-0.5,0.3l-0.6,0.4l-0.4,0.3l-0.7,0.3l-0.6,0.3l-0.6,0.3l-0.6,0.2l-0.7,0.1l-0.7,0.2l-0.6,0.2l-0.6,0l-0.7,0.1l-0.7,0L55.9,193l0,-0.2l-0.6,0l-0.8,0l-0.6,-0.1l-0.6,0l-0.7,-0.4l-0.7,-0.1L51.3,192l-0.6,-0.3l-0.6,-0.3l-0.6,-0.3L49,190.8l-0.6,-0.4L48,190.1l-0.6,-0.5l-0.5,-0.5l-0.5,-0.4L46,188.1l-0.5,-0.5L45.2,187l-0.3,-0.5l-0.3,-0.6l-0.3,-0.6L44,184.7l-0.2,-0.6l-0.3,-0.8l-0.1,-0.6l0,-0.6l-0.2,-0.6l0,-0.8l0,-0.6l0,-50.8Z" class="g7_1" />
<path d="M156,177l420,0" class="g8_1" />
</svg>