<?xml version="1.0" encoding="UTF-8" standalone="no"?>
<!DOCTYPE svg PUBLIC "-//W3C//DTD SVG 1.1//EN"
"http://www.w3.org/Graphics/SVG/1.1/DTD/svg11.dtd">
<svg viewBox="0 0 1210 1210" version="1.1" xmlns="http://www.w3.org/2000/svg" xmlns:xlink="http://www.w3.org/1999/xlink">
<defs>
<style type="text/css"><![CDATA[
.g2_155{
fill: none;
stroke: #418AB3;
stroke-width: 2;
stroke-linecap: butt;
stroke-linejoin: miter;
stroke-miterlimit: 7;
}
.g3_155{
fill: none;
stroke: #0000EE;
stroke-width: 2;
stroke-linecap: butt;
stroke-linejoin: miter;
}
.g1_155{
fill: #FFFFFF;
}
]]></style>
</defs>
<path fill-rule="evenodd" d="M0,0L1210,0l0,1210L0,1210L0,0Z" class="g1_155" />
<path fill-rule="evenodd" d="M0,0L1210,0l0,1210L0,1210L0,0Z" class="g1_155" />
<path fill-rule="evenodd" d="M110,87.7l0,-1.2l0.2,-1.3L110.3,84l0.2,-1.2l0.3,-1.2l0.3,-1.2l0.4,-1.3l0.5,-1L112.4,77l0.7,-1.1l0.7,-1l0.6,-1.1l0.8,-0.9L116,72l0.9,-1l0.9,-0.9l0.9,-0.7l0.9,-0.8L120.7,68l1.1,-0.6l1,-0.6l1.1,-0.6L125,65.7l1.2,-0.5l1.2,-0.3l1.2,-0.3l1.3,-0.1l1,-0.2l1.4,-0.1l1.2,0l718.7,0l1.2,0l1.2,0.1l1.3,0.2l1.2,0.1l1.2,0.3l1.2,0.3l1.1,0.5l1.2,0.5l1.1,0.6l1.1,0.6l1,0.6l1.1,0.6l0.9,0.8l0.9,0.7l0.9,0.9l1,1l0.7,0.9l0.8,0.9l0.6,1.1l0.6,1l0.6,1.1l0.6,1.1l0.5,1.2l0.3,1.1l0.5,1.2l0.3,1.2l0.1,1.2l0.2,1.2l0.1,1.3l0,1.2l0.2,94.1l-0.2,0l0,1.2l-0.1,1.2l-0.2,1.3l-0.1,1.2l-0.3,1.1l-0.3,1.2l-0.5,1.2l-0.5,1.1l-0.6,1l-0.4,1.3l-0.8,0.9l-0.6,1.1l-0.8,0.9l-0.7,1l-1,0.8l-0.9,0.9L867,200l-0.9,0.8l-1.1,0.7l-1,0.6l-1.1,0.6l-1.1,0.5l-1.2,0.5l-1.1,0.4l-1.2,0.3l-1.2,0.3l-1.2,0.2l-1.3,0.1l-1.2,0.2l-1.2,0l-718.7,0.1l-1.2,-0.1l-1.4,0l-1,-0.2l-1.3,-0.3l-1.2,-0.3l-1.2,-0.3L125,203.7l-1.1,-0.5l-1.1,-0.5l-1,-0.6l-1.1,-0.6l-1.1,-0.7L118.7,200l-0.9,-0.8l-0.9,-0.7l-0.9,-1l-0.8,-0.9l-0.8,-1l-0.6,-1l-0.7,-1l-0.7,-1.1L112,191.3l-0.5,-1.1L111.1,189l-0.3,-1.1l-0.3,-1.2l-0.2,-1.2l-0.1,-1.3L110,183l0,-1.2l0,-94.1Z" class="g1_155" />
<path d="M110,87.7l0,-1.2l0.2,-1.3L110.3,84l0.2,-1.2l0.3,-1.2l0.3,-1.2l0.4,-1.3l0.5,-1L112.4,77l0.7,-1.1l0.7,-1l0.6,-1.1l0.8,-0.9L116,72l0.9,-1l0.9,-0.9l0.9,-0.7l0.9,-0.8L120.7,68l1.1,-0.6l1,-0.6l1.1,-0.6L125,65.7l1.2,-0.5l1.2,-0.3l1.2,-0.3l1.3,-0.1l1,-0.2l1.4,-0.1l1.2,0l718.7,0l1.2,0l1.2,0.1l1.3,0.2l1.2,0.1l1.2,0.3l1.2,0.3l1.1,0.5l1.2,0.5l1.1,0.6l1.1,0.6l1,0.6l1.1,0.6l0.9,0.8l0.9,0.7l0.9,0.9l1,1l0.7,0.9l0.8,0.9l0.6,1.1l0.6,1l0.6,1.1l0.6,1.1l0.5,1.2l0.3,1.1l0.5,1.2l0.3,1.2l0.1,1.2l0.2,1.2l0.1,1.3l0,1.2l0.2,94.1l-0.2,0l0,1.2l-0.1,1.2l-0.2,1.3l-0.1,1.2l-0.3,1.1l-0.3,1.2l-0.5,1.2l-0.5,1.1l-0.6,1l-0.4,1.3l-0.8,0.9l-0.6,1.1l-0.8,0.9l-0.7,1l-1,0.8l-0.9,0.9L867,200l-0.9,0.8l-1.1,0.7l-1,0.6l-1.1,0.6l-1.1,0.5l-1.2,0.5l-1.1,0.4l-1.2,0.3l-1.2,0.3l-1.2,0.2l-1.3,0.1l-1.2,0.2l-1.2,0l-718.7,0.1l-1.2,-0.1l-1.4,0l-1,-0.2l-1.3,-0.3l-1.2,-0.3l-1.2,-0.3L125,203.7l-1.1,-0.5l-1.1,-0.5l-1,-0.6l-1.1,-0.6l-1.1,-0.7L118.7,200l-0.9,-0.8l-0.9,-0.7l-0.9,-1l-0.8,-0.9l-0.8,-1l-0.6,-1l-0.7,-1l-0.7,-1.1L112,191.3l-0.5,-1.1L111.1,189l-0.3,-1.1l-0.3,-1.2l-0.2,-1.2l-0.1,-1.3L110,183l0,-1.2l0,-94.1Z" class="g2_155" />
<path d="M190,143l453,0" class="g3_155" />
</svg>