<?xml version="1.0" encoding="UTF-8" standalone="no"?>
<!DOCTYPE svg PUBLIC "-//W3C//DTD SVG 1.1//EN"
"http://www.w3.org/Graphics/SVG/1.1/DTD/svg11.dtd">
<svg viewBox="0 0 1210 1045" version="1.1" xmlns="http://www.w3.org/2000/svg" xmlns:xlink="http://www.w3.org/1999/xlink">
<defs>
<style type="text/css"><![CDATA[
.g3_96{
fill: none;
stroke: #418AB3;
stroke-width: 2;
stroke-linecap: butt;
stroke-linejoin: miter;
stroke-miterlimit: 7;
}
.g2_96{
fill: none;
stroke: #418AB3;
stroke-width: 5;
stroke-linecap: butt;
stroke-linejoin: miter;
stroke-miterlimit: 7;
}
.g1_96{
fill: #FFFFFF;
}
]]></style>
</defs>
<path fill-rule="evenodd" d="M0,0L1210,0l0,1045L0,1045L0,0Z" class="g1_96" />
<path fill-rule="evenodd" d="M0,0L1210,0l0,1045L0,1045L0,0Z" class="g1_96" />
<image x="828" y="984" width="334" height="49" xlink:href="img/1.png" />
<path d="M650.5,99.5l0,704" class="g2_96" />
<path fill-rule="evenodd" d="M980.8,11.8l0,-0.3l0,-0.3l0,-0.4L981,10.5l0,-0.3l0.1,-0.3l0,-0.3l0.2,-0.3L981.4,9l0.2,-0.3l0.1,-0.3l0.4,-0.1l0.1,-0.4l0.2,-0.3l0.3,-0.1l0.1,-0.3L983.1,7l0.2,-0.1l0.3,-0.2l0.3,-0.1l0.3,-0.3l0.3,0l0.2,-0.2L985,6l0.4,0l0.3,-0.2l0.3,0l0.3,-0.1l0.3,0l0.3,0l189.5,0l0.3,0l0.3,0l0.3,0.1l0.3,0l0.3,0.2l0.3,0l0.3,0.1l0.3,0.2l0.3,0.1l0.3,0.2l0.2,0.1l0.3,0.2l0.3,0.1l0.2,0.3l0.3,0.2l0.1,0.1l0.3,0.3l0.2,0.4l0.1,0.3l0.2,0.1l0.1,0.3l0.2,0.3l0.1,0.3l0,0.3l0.2,0.3l0.1,0.3l0,0.3l0,0.4l0,0.3l0,0.3l0.2,24.4l0,0.3l-0.2,0.3l0,0.3l0,0.3l-0.1,0.3l0,0.3l-0.2,0.3l-0.1,0.4l-0.2,0.3l-0.1,0.3l-0.2,0.3l-0.1,0.1l-0.2,0.3l-0.3,0.3l-0.1,0.2l-0.3,0.1l-0.2,0.3l-0.3,0.2l-0.3,0.2l-0.2,0.1l-0.3,0.2l-0.3,0.1l-0.3,0.2l-0.3,0.1l-0.3,0l-0.3,0.2l-0.3,0l-0.3,0l-0.3,0.1l-0.3,0l-189.5,0l-0.3,0l-0.3,0L986,42.2l-0.3,0l-0.3,0L985,42l-0.3,-0.1l-0.2,0l-0.3,-0.2l-0.3,-0.1l-0.3,-0.3l-0.3,-0.2l-0.2,-0.2l-0.3,-0.1l-0.1,-0.3l-0.3,-0.2L982.2,40l-0.1,-0.1l-0.4,-0.3l-0.1,-0.3L981.4,39l-0.1,-0.3l-0.2,-0.4l0,-0.3L981,37.7l0,-0.3l-0.2,-0.3l0,-0.3l0,-0.3l0,-0.3l0,-24.4Z" class="g1_96" />
<path d="M980.8,11.8l0,-0.3l0,-0.3l0,-0.4L981,10.5l0,-0.3l0.1,-0.3l0,-0.3l0.2,-0.3L981.4,9l0.2,-0.3l0.1,-0.3l0.4,-0.1l0.1,-0.4l0.2,-0.3l0.3,-0.1l0.1,-0.3L983.1,7l0.2,-0.1l0.3,-0.2l0.3,-0.1l0.3,-0.3l0.3,0l0.2,-0.2L985,6l0.4,0l0.3,-0.2l0.3,0l0.3,-0.1l0.3,0l0.3,0l189.5,0l0.3,0l0.3,0l0.3,0.1l0.3,0l0.3,0.2l0.3,0l0.3,0.1l0.3,0.2l0.3,0.1l0.3,0.2l0.2,0.1l0.3,0.2l0.3,0.1l0.2,0.3l0.3,0.2l0.1,0.1l0.3,0.3l0.2,0.4l0.1,0.3l0.2,0.1l0.1,0.3l0.2,0.3l0.1,0.3l0,0.3l0.2,0.3l0.1,0.3l0,0.3l0,0.4l0,0.3l0,0.3l0.2,24.4l0,0.3l-0.2,0.3l0,0.3l0,0.3l-0.1,0.3l0,0.3l-0.2,0.3l-0.1,0.4l-0.2,0.3l-0.1,0.3l-0.2,0.3l-0.1,0.1l-0.2,0.3l-0.3,0.3l-0.1,0.2l-0.3,0.1l-0.2,0.3l-0.3,0.2l-0.3,0.2l-0.2,0.1l-0.3,0.2l-0.3,0.1l-0.3,0.2l-0.3,0.1l-0.3,0l-0.3,0.2l-0.3,0l-0.3,0l-0.3,0.1l-0.3,0l-189.5,0l-0.3,0l-0.3,0L986,42.2l-0.3,0l-0.3,0L985,42l-0.3,-0.1l-0.2,0l-0.3,-0.2l-0.3,-0.1l-0.3,-0.3l-0.3,-0.2l-0.2,-0.2l-0.3,-0.1l-0.1,-0.3l-0.3,-0.2L982.2,40l-0.1,-0.1l-0.4,-0.3l-0.1,-0.3L981.4,39l-0.1,-0.3l-0.2,-0.4l0,-0.3L981,37.7l0,-0.3l-0.2,-0.3l0,-0.3l0,-0.3l0,-0.3l0,-24.4Z" class="g3_96" />
</svg>