<?xml version="1.0" encoding="UTF-8" standalone="no"?>
<!DOCTYPE svg PUBLIC "-//W3C//DTD SVG 1.1//EN"
"http://www.w3.org/Graphics/SVG/1.1/DTD/svg11.dtd">
<svg viewBox="0 0 1210 1210" version="1.1" xmlns="http://www.w3.org/2000/svg" xmlns:xlink="http://www.w3.org/1999/xlink">
<defs>
<style type="text/css"><![CDATA[
.g2_86{
fill: none;
stroke: #418AB3;
stroke-width: 2;
stroke-linecap: butt;
stroke-linejoin: miter;
stroke-miterlimit: 7;
}
.g1_86{
fill: #FFFFFF;
}
]]></style>
</defs>
<path fill-rule="evenodd" d="M0,0L1210,0l0,1210L0,1210L0,0Z" class="g1_86" />
<path fill-rule="evenodd" d="M0,0L1210,0l0,1210L0,1210L0,0Z" class="g1_86" />
<image x="201" y="146" width="807" height="95" xlink:href="img/1.png" />
<path fill-rule="evenodd" d="M925.8,9l0,-0.1l0,-0.3l0,-0.3l0,-0.2L926,7.8l0,-0.2l0.1,-0.3l0,-0.1l0.2,-0.3l0.1,-0.2l0.2,-0.1l0.1,-0.3l0,-0.2L927.1,6l0.1,-0.2l0.2,-0.1l0.1,-0.2l0.2,-0.2L928,5.2L928.1,5l0.2,-0.1l0.1,0l0.3,-0.2l0.3,0l0.2,-0.1l0.1,0l0.4,-0.2l0.3,0l0.1,0l0.3,0l192.5,0l0.2,0l0.3,0l0.1,0l0.3,0.2l0.3,0l0.2,0.1l0.1,0l0.4,0.2l0.1,0.1l0.3,0l0.2,0.2l0.1,0.1l0.3,0.2l0.2,0.2l0.1,0.1l0.2,0.2l0.1,0.1l0.2,0.3l0.1,0.2l0,0.1l0.2,0.3l0.1,0.2l0,0.1l0.2,0.3l0,0.2l0.1,0.3l0,0.2l0,0.3l0,0.3l0,0.1l0.2,18.3l0,0.4l0,0.1l0,0.3l-0.2,0.2l0,0.3l0,0.1l-0.1,0.3l-0.2,0.2l0,0.1l-0.1,0.3l-0.2,0.2l-0.1,0.1l-0.2,0.3l-0.1,0.2l-0.2,0.2l-0.1,0.1l-0.2,0.2l-0.1,0.1l-0.3,0.2l-0.2,0.1l-0.1,0.2l-0.3,0l-0.2,0.1l-0.3,0l-0.2,0l-0.3,0.2l-0.3,0l-0.1,0l-0.2,0.1l-0.3,0l-192.5,0l-0.3,0l-0.1,0l-0.3,0l-0.4,0l-0.1,-0.1l-0.2,0l-0.3,-0.2l-0.3,0l-0.1,-0.1l-0.2,-0.2L928,31.2l-0.3,0l-0.2,-0.3l-0.1,0l-0.2,-0.3l-0.1,-0.2l-0.4,-0.2l0,-0.1l-0.1,-0.2l-0.2,-0.3l-0.1,-0.1l-0.2,-0.3l0,-0.2L926,28.9l0,-0.3l-0.2,-0.3l0,-0.2l0,-0.3l0,-0.1l0,-0.4L925.8,9Z" class="g1_86" />
<path d="M925.8,9l0,-0.1l0,-0.3l0,-0.3l0,-0.2L926,7.8l0,-0.2l0.1,-0.3l0,-0.1l0.2,-0.3l0.1,-0.2l0.2,-0.1l0.1,-0.3l0,-0.2L927.1,6l0.1,-0.2l0.2,-0.1l0.1,-0.2l0.2,-0.2L928,5.2L928.1,5l0.2,-0.1l0.1,0l0.3,-0.2l0.3,0l0.2,-0.1l0.1,0l0.4,-0.2l0.3,0l0.1,0l0.3,0l192.5,0l0.2,0l0.3,0l0.1,0l0.3,0.2l0.3,0l0.2,0.1l0.1,0l0.4,0.2l0.1,0.1l0.3,0l0.2,0.2l0.1,0.1l0.3,0.2l0.2,0.2l0.1,0.1l0.2,0.2l0.1,0.1l0.2,0.3l0.1,0.2l0,0.1l0.2,0.3l0.1,0.2l0,0.1l0.2,0.3l0,0.2l0.1,0.3l0,0.2l0,0.3l0,0.3l0,0.1l0.2,18.3l0,0.4l0,0.1l0,0.3l-0.2,0.2l0,0.3l0,0.1l-0.1,0.3l-0.2,0.2l0,0.1l-0.1,0.3l-0.2,0.2l-0.1,0.1l-0.2,0.3l-0.1,0.2l-0.2,0.2l-0.1,0.1l-0.2,0.2l-0.1,0.1l-0.3,0.2l-0.2,0.1l-0.1,0.2l-0.3,0l-0.2,0.1l-0.3,0l-0.2,0l-0.3,0.2l-0.3,0l-0.1,0l-0.2,0.1l-0.3,0l-192.5,0l-0.3,0l-0.1,0l-0.3,0l-0.4,0l-0.1,-0.1l-0.2,0l-0.3,-0.2l-0.3,0l-0.1,-0.1l-0.2,-0.2L928,31.2l-0.3,0l-0.2,-0.3l-0.1,0l-0.2,-0.3l-0.1,-0.2l-0.4,-0.2l0,-0.1l-0.1,-0.2l-0.2,-0.3l-0.1,-0.1l-0.2,-0.3l0,-0.2L926,28.9l0,-0.3l-0.2,-0.3l0,-0.2l0,-0.3l0,-0.1l0,-0.4L925.8,9Z" class="g2_86" />
</svg>