<?xml version="1.0" encoding="UTF-8" standalone="no"?>
<!DOCTYPE svg PUBLIC "-//W3C//DTD SVG 1.1//EN"
"http://www.w3.org/Graphics/SVG/1.1/DTD/svg11.dtd">
<svg viewBox="0 0 1210 1045" version="1.1" xmlns="http://www.w3.org/2000/svg" xmlns:xlink="http://www.w3.org/1999/xlink">
<defs>
<style type="text/css"><![CDATA[
.g2_32{
fill: none;
stroke: #418AB3;
stroke-width: 2;
stroke-linecap: butt;
stroke-linejoin: miter;
stroke-miterlimit: 7;
}
.g1_32{
fill: #FFFFFF;
}
]]></style>
</defs>
<path fill-rule="evenodd" d="M0,0L1210,0l0,1045L0,1045L0,0Z" class="g1_32" />
<path fill-rule="evenodd" d="M0,0L1210,0l0,1045L0,1045L0,0Z" class="g1_32" />
<image x="828" y="984" width="334" height="49" xlink:href="img/1.png" />
<path fill-rule="evenodd" d="M199,130l136,0l0,64l-136,0l0,-64Z" class="g1_32" />
<path d="M199,130l136,0l0,64l-136,0l0,-64Z" class="g2_32" />
<path fill-rule="evenodd" d="M522,134l136,0l0,65l-136,0l0,-65Z" class="g1_32" />
<path d="M522,134l136,0l0,65l-136,0l0,-65Z" class="g2_32" />
<path fill-rule="evenodd" d="M876,133l135,0l0,65l-135,0l0,-65Z" class="g1_32" />
<path d="M876,133l135,0l0,65l-135,0l0,-65Z" class="g2_32" />
<path fill-rule="evenodd" d="M378.1,163.9l51.4,-41.1l51.3,41.1L429.5,205L378.1,163.9Z" class="g1_32" />
<path d="M378.1,163.9l51.4,-41.1l51.3,41.1L429.5,205L378.1,163.9Z" class="g2_32" />
<path fill-rule="evenodd" d="M705.2,166.1L767.1,125l62,41.1l-62,41.1L705.2,166.1Z" class="g1_32" />
<path d="M705.2,166.1L767.1,125l62,41.1l-62,41.1L705.2,166.1Z" class="g2_32" />
<path d="M335.5,162.9l42.6,1" class="g2_32" />
<path d="M480.8,163.9l41.7,-2.6" class="g2_32" />
<path d="M658.2,167l47,-0.9" class="g2_32" />
<path d="M828,166l48,0" class="g2_32" />
<path fill-rule="evenodd" d="M980.8,15.3l0,-0.3l0,-0.3l0,-0.3L981,14.1l0,-0.3l0.1,-0.4l0,-0.3l0.2,-0.3l0.1,-0.3l0.2,-0.3l0.1,-0.3l0.4,-0.1l0.1,-0.3l0.2,-0.3L982.7,11l0.1,-0.3l0.3,-0.2l0.2,-0.1l0.3,-0.2l0.3,-0.3l0.3,-0.1l0.3,-0.2l0.2,0L985,9.5l0.4,0l0.3,-0.2l0.3,0l0.3,-0.1l0.3,0l0.3,0l189.5,0l0.3,0l0.3,0l0.3,0.1l0.3,0l0.3,0.2l0.3,0l0.3,0.1l0.3,0l0.3,0.3l0.3,0l0.2,0.3l0.3,0.2l0.3,0.1l0.2,0.3l0.3,0.2l0.1,0.2l0.3,0.3l0.2,0.3l0.1,0.3l0.2,0.1l0.1,0.3l0.2,0.3l0.1,0.3l0,0.3l0.2,0.4l0.1,0.3l0,0.3l0,0.3l0,0.3l0,0.3l0.2,24.4l0,0.3l-0.2,0.3l0,0.3l0,0.3l-0.1,0.4l0,0.3l-0.2,0.3l-0.1,0.3l-0.2,0.3l-0.1,0.3l-0.2,0.1l-0.1,0.3l-0.2,0.3l-0.3,0.3l-0.1,0.2l-0.3,0.2l-0.2,0.3l-0.3,0.1l-0.3,0.2l-0.2,0.1l-0.3,0.2l-0.3,0.1l-0.3,0.2l-0.3,0.1l-0.3,0l-0.3,0.2l-0.3,0l-0.3,0l-0.3,0.1l-0.3,0l-189.5,0l-0.3,0l-0.3,0L986,45.7l-0.3,0l-0.3,-0.2l-0.4,0l-0.3,-0.1l-0.2,0l-0.3,-0.2l-0.3,-0.1l-0.3,-0.3l-0.3,-0.2l-0.2,-0.1l-0.3,-0.2L982.7,44l-0.3,-0.2l-0.2,-0.3l-0.1,-0.3l-0.4,-0.1l-0.1,-0.3l-0.2,-0.3l-0.1,-0.3l-0.2,-0.3l0,-0.3L981,41.3l0,-0.4l-0.2,-0.3l0,-0.3l0,-0.3l0,-0.3l0,-24.4Z" class="g1_32" />
<path d="M980.8,15.3l0,-0.3l0,-0.3l0,-0.3L981,14.1l0,-0.3l0.1,-0.4l0,-0.3l0.2,-0.3l0.1,-0.3l0.2,-0.3l0.1,-0.3l0.4,-0.1l0.1,-0.3l0.2,-0.3L982.7,11l0.1,-0.3l0.3,-0.2l0.2,-0.1l0.3,-0.2l0.3,-0.3l0.3,-0.1l0.3,-0.2l0.2,0L985,9.5l0.4,0l0.3,-0.2l0.3,0l0.3,-0.1l0.3,0l0.3,0l189.5,0l0.3,0l0.3,0l0.3,0.1l0.3,0l0.3,0.2l0.3,0l0.3,0.1l0.3,0l0.3,0.3l0.3,0l0.2,0.3l0.3,0.2l0.3,0.1l0.2,0.3l0.3,0.2l0.1,0.2l0.3,0.3l0.2,0.3l0.1,0.3l0.2,0.1l0.1,0.3l0.2,0.3l0.1,0.3l0,0.3l0.2,0.4l0.1,0.3l0,0.3l0,0.3l0,0.3l0,0.3l0.2,24.4l0,0.3l-0.2,0.3l0,0.3l0,0.3l-0.1,0.4l0,0.3l-0.2,0.3l-0.1,0.3l-0.2,0.3l-0.1,0.3l-0.2,0.1l-0.1,0.3l-0.2,0.3l-0.3,0.3l-0.1,0.2l-0.3,0.2l-0.2,0.3l-0.3,0.1l-0.3,0.2l-0.2,0.1l-0.3,0.2l-0.3,0.1l-0.3,0.2l-0.3,0.1l-0.3,0l-0.3,0.2l-0.3,0l-0.3,0l-0.3,0.1l-0.3,0l-189.5,0l-0.3,0l-0.3,0L986,45.7l-0.3,0l-0.3,-0.2l-0.4,0l-0.3,-0.1l-0.2,0l-0.3,-0.2l-0.3,-0.1l-0.3,-0.3l-0.3,-0.2l-0.2,-0.1l-0.3,-0.2L982.7,44l-0.3,-0.2l-0.2,-0.3l-0.1,-0.3l-0.4,-0.1l-0.1,-0.3l-0.2,-0.3l-0.1,-0.3l-0.2,-0.3l0,-0.3L981,41.3l0,-0.4l-0.2,-0.3l0,-0.3l0,-0.3l0,-0.3l0,-24.4Z" class="g2_32" />
</svg>