<?xml version="1.0" encoding="UTF-8" standalone="no"?>
<!DOCTYPE svg PUBLIC "-//W3C//DTD SVG 1.1//EN"
"http://www.w3.org/Graphics/SVG/1.1/DTD/svg11.dtd">
<svg viewBox="0 0 1100 825" version="1.1" xmlns="http://www.w3.org/2000/svg" xmlns:xlink="http://www.w3.org/1999/xlink">
<defs>
<style type="text/css"><![CDATA[
.g2_3{
fill: none;
stroke: #5B9BD5;
stroke-width: 2;
stroke-linecap: butt;
stroke-linejoin: miter;
stroke-miterlimit: 7;
}
.g1_3{
fill: #FFFFFF;
}
]]></style>
</defs>
<path fill-rule="evenodd" d="M0,0L1100,0l0,825L0,825L0,0Z" class="g1_3" />
<path fill-rule="evenodd" d="M0,0L1100,0l0,825L0,825L0,0Z" class="g1_3" />
<path fill-rule="evenodd" d="M914.7,10.1l0,-0.3l0,-0.2l0,-0.3L914.8,9l0,-0.3l0,-0.3L915,8.1l0.1,-0.2l0.2,-0.3l0.1,-0.3L915.6,7l0.2,-0.1l0.1,-0.3l0.2,-0.2l0.1,-0.1L916.5,6l0.2,-0.2L917,5.7l0.1,-0.2l0.3,-0.2l0.3,-0.1L917.9,5l0.3,0l0.3,-0.1l0.3,-0.2l0.2,0l0.3,0l0.3,-0.1l0.3,0l0.3,0l167.6,0l0.3,0l0.3,0l0.3,0.1l0.3,0l0.3,0l0.2,0.2l0.3,0.1l0.3,0l0.3,0.2l0.1,0.1l0.3,0.2l0.3,0.2l0.2,0.1l0.1,0.2l0.3,0.3l0.2,0.1l0.2,0.3l0.3,0.2l0.1,0.3l0.2,0.1l0,0.3l0.1,0.3l0.2,0.2l0.1,0.3l0,0.3l0,0.3l0.2,0.3l0,0.3l0,0.2l0,0.3l0.1,22.3l0,0.3l-0.1,0.1l0,0.4l0,0.3l-0.2,0.3l0,0.3l-0.1,0.3l0,0.1l-0.2,0.3l-0.1,0.3l-0.2,0.2l-0.1,0.3l-0.3,0.2l-0.2,0.3l-0.2,0.1l-0.3,0.2l-0.1,0.3l-0.2,0.1l-0.3,0.2l-0.3,0.1l-0.1,0.2l-0.3,0.1l-0.3,0l-0.3,0.2l-0.2,0.1l-0.3,0l-0.3,0l-0.3,0l-0.3,0.2l-0.3,0l-167.6,0l-0.3,0l-0.3,0l-0.3,-0.2l-0.3,0l-0.2,0l-0.3,-0.1l-0.3,-0.2l-0.3,0l-0.2,-0.1l-0.3,-0.2L917.1,37L917,36.8l-0.3,-0.1l-0.2,-0.2l-0.3,-0.1l-0.1,-0.3l-0.2,-0.2l-0.1,-0.3l-0.2,-0.2l-0.2,-0.3l-0.1,-0.3l-0.2,-0.3L915,34.4l-0.2,-0.3l0,-0.3l0,-0.3l-0.1,-0.3l0,-0.4l0,-0.1l0,-0.3l0,-22.3Z" class="g1_3" />
<path d="M914.7,10.1l0,-0.3l0,-0.2l0,-0.3L914.8,9l0,-0.3l0,-0.3L915,8.1l0.1,-0.2l0.2,-0.3l0.1,-0.3L915.6,7l0.2,-0.1l0.1,-0.3l0.2,-0.2l0.1,-0.1L916.5,6l0.2,-0.2L917,5.7l0.1,-0.2l0.3,-0.2l0.3,-0.1L917.9,5l0.3,0l0.3,-0.1l0.3,-0.2l0.2,0l0.3,0l0.3,-0.1l0.3,0l0.3,0l167.6,0l0.3,0l0.3,0l0.3,0.1l0.3,0l0.3,0l0.2,0.2l0.3,0.1l0.3,0l0.3,0.2l0.1,0.1l0.3,0.2l0.3,0.2l0.2,0.1l0.1,0.2l0.3,0.3l0.2,0.1l0.2,0.3l0.3,0.2l0.1,0.3l0.2,0.1l0,0.3l0.1,0.3l0.2,0.2l0.1,0.3l0,0.3l0,0.3l0.2,0.3l0,0.3l0,0.2l0,0.3l0.1,22.3l0,0.3l-0.1,0.1l0,0.4l0,0.3l-0.2,0.3l0,0.3l-0.1,0.3l0,0.1l-0.2,0.3l-0.1,0.3l-0.2,0.2l-0.1,0.3l-0.3,0.2l-0.2,0.3l-0.2,0.1l-0.3,0.2l-0.1,0.3l-0.2,0.1l-0.3,0.2l-0.3,0.1l-0.1,0.2l-0.3,0.1l-0.3,0l-0.3,0.2l-0.2,0.1l-0.3,0l-0.3,0l-0.3,0l-0.3,0.2l-0.3,0l-167.6,0l-0.3,0l-0.3,0l-0.3,-0.2l-0.3,0l-0.2,0l-0.3,-0.1l-0.3,-0.2l-0.3,0l-0.2,-0.1l-0.3,-0.2L917.1,37L917,36.8l-0.3,-0.1l-0.2,-0.2l-0.3,-0.1l-0.1,-0.3l-0.2,-0.2l-0.1,-0.3l-0.2,-0.2l-0.2,-0.3l-0.1,-0.3l-0.2,-0.3L915,34.4l-0.2,-0.3l0,-0.3l0,-0.3l-0.1,-0.3l0,-0.4l0,-0.1l0,-0.3l0,-22.3Z" class="g2_3" />
</svg>