<?xml version="1.0" encoding="UTF-8" standalone="no"?>
<!DOCTYPE svg PUBLIC "-//W3C//DTD SVG 1.1//EN"
"http://www.w3.org/Graphics/SVG/1.1/DTD/svg11.dtd">
<svg viewBox="0 0 1466 825" version="1.1" xmlns="http://www.w3.org/2000/svg" xmlns:xlink="http://www.w3.org/1999/xlink">
<defs>
<clipPath id="c0_1"><path d="M0.5,825.5l0,-825l1466,0l0,825Z" /></clipPath>
<style type="text/css"><![CDATA[
.g1_1{
fill: #FFFFFF;
}
]]></style>
</defs>
<path fill-rule="evenodd" d="M0,0L1466,0l0,825L0,825L0,0Z" class="g1_1" />
<path fill-rule="evenodd" d="M0,0L1466,0l0,825L0,825L0,0Z" class="g1_1" />
<image x="162" y="54" width="1143" height="674" xlink:href="img/1.png" />
<g clip-path="url(#c0_1)">
<g fill="#767171" >
<use xlink:href="#f0_2" transform="matrix(11.9,0,0,11.9,111.8,34.7)" />
<use xlink:href="#f0_3" transform="matrix(11.9,0,0,11.9,124.5,34.7)" />
<use xlink:href="#f0_4" transform="matrix(11.9,0,0,11.9,135.9,34.7)" />
<use xlink:href="#f0_5" transform="matrix(11.9,0,0,11.9,141.1,34.7)" />
<use xlink:href="#f0_6" transform="matrix(11.9,0,0,11.9,146.3,34.7)" />
<use xlink:href="#f0_7" transform="matrix(11.9,0,0,11.9,153.3,34.7)" />
<use xlink:href="#f0_4" transform="matrix(11.9,0,0,11.9,159.9,34.7)" />
<use xlink:href="#f0_8" transform="matrix(11.9,0,0,11.9,165.1,34.7)" />
<use xlink:href="#f0_a" transform="matrix(11.9,0,0,11.9,182.4,34.7)" />
<use xlink:href="#f0_3" transform="matrix(11.9,0,0,11.9,188.8,34.7)" />
<use xlink:href="#f0_8" transform="matrix(11.9,0,0,11.9,200.4,34.7)" />
<use xlink:href="#f0_b" transform="matrix(11.9,0,0,11.9,211.9,34.7)" />
<use xlink:href="#f0_6" transform="matrix(11.9,0,0,11.9,222.3,34.7)" />
<use xlink:href="#f0_4" transform="matrix(11.9,0,0,11.9,229.3,34.7)" />
<use xlink:href="#f0_c" transform="matrix(11.9,0,0,11.9,234.5,34.7)" />
<use xlink:href="#f0_8" transform="matrix(11.9,0,0,11.9,245.6,34.7)" />
<use xlink:href="#f0_4" transform="matrix(11.9,0,0,11.9,263,34.7)" />
<use xlink:href="#f0_8" transform="matrix(11.9,0,0,11.9,268.2,34.7)" />
<use xlink:href="#f0_d" transform="matrix(11.9,0,0,11.9,285.6,34.7)" />
<use xlink:href="#f0_e" transform="matrix(11.9,0,0,11.9,296.5,34.7)" />
<use xlink:href="#f0_6" transform="matrix(11.9,0,0,11.9,307.2,34.7)" />
<use xlink:href="#f0_f" transform="matrix(11.9,0,0,11.9,314.4,34.7)" />
<use xlink:href="#f0_c" transform="matrix(11.9,0,0,11.9,326,34.7)" />
<use xlink:href="#f0_8" transform="matrix(11.9,0,0,11.9,337.1,34.7)" />
<use xlink:href="#f0_g" transform="matrix(11.9,0,0,11.9,354.5,34.7)" />
<use xlink:href="#f0_f" transform="matrix(11.9,0,0,11.9,369.6,34.7)" />
<use xlink:href="#f0_4" transform="matrix(11.9,0,0,11.9,381.1,34.7)" />
<use xlink:href="#f0_b" transform="matrix(11.9,0,0,11.9,386.3,34.7)" />
<use xlink:href="#f0_f" transform="matrix(11.9,0,0,11.9,396.5,34.7)" />
<use xlink:href="#f0_h" transform="matrix(11.9,0,0,11.9,413.8,34.7)" />
<use xlink:href="#f0_b" transform="matrix(11.9,0,0,11.9,425.1,34.7)" />
<use xlink:href="#f0_b" transform="matrix(11.9,0,0,11.9,435.5,34.7)" />
<use xlink:href="#f0_i" transform="matrix(11.9,0,0,11.9,445.7,34.7)" />
<use xlink:href="#f0_j" transform="matrix(11.9,0,0,11.9,457,34.7)" />
<use xlink:href="#f0_6" transform="matrix(11.9,0,0,11.9,468.6,34.7)" />
<use xlink:href="#f0_k" transform="matrix(11.9,0,0,11.9,475.8,34.7)" />
<use xlink:href="#f0_h" transform="matrix(11.9,0,0,11.9,491,34.7)" />
<use xlink:href="#f0_8" transform="matrix(11.9,0,0,11.9,502.4,34.7)" />
<use xlink:href="#f0_e" transform="matrix(11.9,0,0,11.9,513.9,34.7)" />
<use xlink:href="#f0_l" transform="matrix(11.9,0,0,11.9,530.7,34.7)" />
<use xlink:href="#f0_h" transform="matrix(11.9,0,0,11.9,542.3,34.7)" />
<use xlink:href="#f0_6" transform="matrix(11.9,0,0,11.9,553.7,34.7)" />
<use xlink:href="#f0_h" transform="matrix(11.9,0,0,11.9,560.7,34.7)" />
<use xlink:href="#f0_k" transform="matrix(11.9,0,0,11.9,578,34.7)" />
<use xlink:href="#f0_6" transform="matrix(11.9,0,0,11.9,587.6,34.7)" />
<use xlink:href="#f0_m" transform="matrix(11.9,0,0,11.9,594.7,34.7)" />
<use xlink:href="#f0_3" transform="matrix(11.9,0,0,11.9,602.3,34.7)" />
<use xlink:href="#f0_b" transform="matrix(11.9,0,0,11.9,613.8,34.7)" />
<use xlink:href="#f0_6" transform="matrix(11.9,0,0,11.9,624.2,34.7)" />
<use xlink:href="#f0_3" transform="matrix(11.9,0,0,11.9,631.2,34.7)" />
<use xlink:href="#f0_m" transform="matrix(11.9,0,0,11.9,642.8,34.7)" />
<use xlink:href="#f0_i" transform="matrix(11.9,0,0,11.9,650,34.7)" />
<use xlink:href="#f0_n" transform="matrix(11.9,0,0,11.9,667.2,34.7)" />
<use xlink:href="#f0_5" transform="matrix(11.9,0,0,11.9,674.2,34.7)" />
<use xlink:href="#f0_4" transform="matrix(11.9,0,0,11.9,679.4,34.7)" />
<use xlink:href="#f0_k" transform="matrix(11.9,0,0,11.9,684.6,34.7)" />
<use xlink:href="#f0_6" transform="matrix(11.9,0,0,11.9,694.1,34.7)" />
<use xlink:href="#f0_o" transform="matrix(11.9,0,0,11.9,701.2,34.7)" />
<use xlink:href="#f0_k" transform="matrix(11.9,0,0,11.9,713,34.7)" />
<use xlink:href="#f0_6" transform="matrix(11.9,0,0,11.9,722.4,34.7)" />
<use xlink:href="#f0_m" transform="matrix(11.9,0,0,11.9,729.6,34.7)" />
<use xlink:href="#f0_4" transform="matrix(11.9,0,0,11.9,737.2,34.7)" />
<use xlink:href="#f0_8" transform="matrix(11.9,0,0,11.9,742.4,34.7)" />
<use xlink:href="#f0_p" transform="matrix(11.9,0,0,11.9,754,34.7)" />
<use xlink:href="#f0_o" transform="matrix(11.9,0,0,11.9,765.6,34.7)" />
<use xlink:href="#f0_6" transform="matrix(11.9,0,0,11.9,777.3,34.7)" />
<use xlink:href="#f0_3" transform="matrix(11.9,0,0,11.9,784.5,34.7)" />
<use xlink:href="#f0_j" transform="matrix(11.9,0,0,11.9,795.9,34.7)" />
<use xlink:href="#f0_5" transform="matrix(11.9,0,0,11.9,807.5,34.7)" />
<use xlink:href="#f0_i" transform="matrix(11.9,0,0,11.9,812.7,34.7)" />
<use xlink:href="#f0_o" transform="matrix(11.9,0,0,11.9,824,34.7)" />
<use xlink:href="#f0_l" transform="matrix(11.9,0,0,11.9,835.7,34.7)" />
<use xlink:href="#f0_4" transform="matrix(11.9,0,0,11.9,847.5,34.7)" />
<use xlink:href="#f0_b" transform="matrix(11.9,0,0,11.9,852.5,34.7)" />
<use xlink:href="#f0_6" transform="matrix(11.9,0,0,11.9,862.7,34.7)" />
<use xlink:href="#f0_4" transform="matrix(11.9,0,0,11.9,869.9,34.7)" />
<use xlink:href="#f0_c" transform="matrix(11.9,0,0,11.9,875.1,34.7)" />
<use xlink:href="#f0_8" transform="matrix(11.9,0,0,11.9,886.2,34.7)" />
<use xlink:href="#f0_h" transform="matrix(11.9,0,0,11.9,897.8,34.7)" />
<use xlink:href="#f0_m" transform="matrix(11.9,0,0,11.9,909.1,34.7)" />
<use xlink:href="#f0_e" transform="matrix(11.9,0,0,11.9,916.7,34.7)" />
<use xlink:href="#f0_h" transform="matrix(11.9,0,0,11.9,933.5,34.7)" />
<use xlink:href="#f0_8" transform="matrix(11.9,0,0,11.9,944.8,34.7)" />
<use xlink:href="#f0_l" transform="matrix(11.9,0,0,11.9,956.4,34.7)" />
<use xlink:href="#f0_k" transform="matrix(11.9,0,0,11.9,973.9,34.7)" />
<use xlink:href="#f0_i" transform="matrix(11.9,0,0,11.9,983.3,34.7)" />
<use xlink:href="#f0_6" transform="matrix(11.9,0,0,11.9,994.8,34.7)" />
<use xlink:href="#f0_q" transform="matrix(11.9,0,0,11.9,1001.9,34.7)" />
<use xlink:href="#f0_h" transform="matrix(11.9,0,0,11.9,1014.9,34.7)" />
<use xlink:href="#f0_8" transform="matrix(11.9,0,0,11.9,1026.2,34.7)" />
<use xlink:href="#f0_l" transform="matrix(11.9,0,0,11.9,1037.8,34.7)" />
<use xlink:href="#f0_m" transform="matrix(11.9,0,0,11.9,1055.3,34.7)" />
<use xlink:href="#f0_i" transform="matrix(11.9,0,0,11.9,1062.5,34.7)" />
<use xlink:href="#f0_6" transform="matrix(11.9,0,0,11.9,1073.8,34.7)" />
<use xlink:href="#f0_3" transform="matrix(11.9,0,0,11.9,1081,34.7)" />
<use xlink:href="#f0_m" transform="matrix(11.9,0,0,11.9,1092.4,34.7)" />
<use xlink:href="#f0_8" transform="matrix(11.9,0,0,11.9,1099.9,34.7)" />
<use xlink:href="#f0_k" transform="matrix(11.9,0,0,11.9,1111.4,34.7)" />
<use xlink:href="#f0_h" transform="matrix(11.9,0,0,11.9,1126.8,34.7)" />
<use xlink:href="#f0_k" transform="matrix(11.9,0,0,11.9,1144,34.7)" />
<use xlink:href="#f0_c" transform="matrix(11.9,0,0,11.9,1153.5,34.7)" />
<use xlink:href="#f0_m" transform="matrix(11.9,0,0,11.9,1164.6,34.7)" />
<use xlink:href="#f0_6" transform="matrix(11.9,0,0,11.9,1172.4,34.7)" />
<use xlink:href="#f0_i" transform="matrix(11.9,0,0,11.9,1179.4,34.7)" />
<use xlink:href="#f0_l" transform="matrix(11.9,0,0,11.9,1190.8,34.7)" />
<use xlink:href="#f0_5" transform="matrix(11.9,0,0,11.9,1208.4,34.7)" />
<use xlink:href="#f0_4" transform="matrix(11.9,0,0,11.9,1213.5,34.7)" />
<use xlink:href="#f0_k" transform="matrix(11.9,0,0,11.9,1218.6,34.7)" />
<use xlink:href="#f0_6" transform="matrix(11.9,0,0,11.9,1228.2,34.7)" />
<use xlink:href="#f0_r" transform="matrix(11.9,0,0,11.9,1235.2,34.7)" />
</g>
</g>
<defs>
	<path d="M540.8,123.8c0,0,122.3,0,180.3,48.8c0,0,59.6,50.5,59.6,154.3c0,0,0,105.5,-58.1,154.4c0,0,-59.5,50.4,-181.8,50.4l-241.4,0l0,-407.9ZM522.5,653.9c0,0,111.5,0,165,41.2c0,0,53.5,41.3,53.5,126.8c0,0,0,84.1,-53.5,125.3c0,0,-53.5,41.3,-165,41.3l-223.1,0l0,-334.6ZM149.7,0l0,1113.8l385,0c0,0,171.1,0,264.3,-71.9c0,0,93.2,-71.8,93.2,-204.7c0,0,0,-102.3,-47.3,-161.9c0,0,-47.4,-61.1,-140.6,-74.9c0,0,111.5,-24.4,172.6,-99.3c0,0,62.7,-76.4,62.7,-189.4c0,0,0,-149.8,-100.8,-230.7C838.8,81,736.4,0,548.5,0Z" 
	id="f0_2"
	transform="scale(0.001,-0.001)" />

	<path d="M421.7,-21.3c0,0,-143.6,0,-218.5,88.5L128.3,328.5l0,505.7l137.5,0l0,-499.6c0,0,0,-119.2,45.9,-178.8c0,0,47.3,-59.5,139,-59.5c0,0,111.5,0,175.7,70.2c0,0,65.7,71.8,65.7,194.1l0,473.6l136,0L828.1,0l-136,0l0,126.8c0,0,-50.4,-74.9,-116.1,-111.5c0,0,-67.2,-36.6,-154.3,-36.6Z" 
	id="f0_3"
	transform="scale(0.001,-0.001)" />

	<path d="M143,0l0,834l138,0L281,0Zm0,985l0,174l138,0l0,-174Z" 
	id="f0_4"
	transform="scale(0.001,-0.001)" />

	<path d="M143,0l0,1159l138,0L281,0Z" 
	id="f0_5"
	transform="scale(0.001,-0.001)" />

	<path d="M420.1,0c0,0,-158.8,0,-218.4,58.1c0,0,-61.1,59.5,-61.1,216.9l0,453.8l-100.9,0l0,105.4l100.9,0l0,238.3l139,0l0,-238.3l282.6,0l0,-105.4l-282.6,0l0,-453.8c0,0,0,-102.4,27.5,-131.4c0,0,27.5,-29,113,-29l142.1,0L562.2,0Z" 
	id="f0_6"
	transform="scale(0.001,-0.001)" />

	<path d="M73,355l0,123l403,0l0,-123Z" 
	id="f0_7"
	transform="scale(0.001,-0.001)" />

	<path d="M137.5,0l0,834.2l139,0l0,-129.9c0,0,48.9,76.4,114.6,113.1c0,0,67.2,38.2,154.3,38.2c0,0,145.2,0,218.5,-88.7c0,0,73.3,-90.1,73.3,-262.7L837.2,0L699.7,0l0,499.6c0,0,0,117.6,-45.8,175.7c0,0,-45.8,59.6,-139,59.6c0,0,-110,0,-174.2,-70.3c0,0,-64.2,-70.3,-64.2,-192.5L276.5,0Z" 
	id="f0_8"
	transform="scale(0.001,-0.001)" />

	<path d="M165,0l0,728.8l-131.4,0l0,105.4l131.4,0l0,58c0,0,0,140.6,64.2,203.2c0,0,65.7,64.2,207.7,64.2l129.9,0l0,-113.1l-131.4,0c0,0,-74.8,0,-102.3,-30.5c0,0,-29.1,-30.6,-29.1,-107l0,-74.8l226.1,0l0,-105.4l-226.1,0L304,0Z" 
	id="f0_a"
	transform="scale(0.001,-0.001)" />

	<path d="M495,-21.3c0,0,-189.4,0,-299.4,117.6C195.6,96.3,84,215.4,84,415.6c0,0,0,204.7,111.6,322.3c0,0,113,117.7,308.6,117.7c0,0,62.6,0,122.2,-13.8c0,0,61.1,-13.7,117.6,-39.7l0,-128.3c0,0,-58,32,-116.1,47.3c0,0,-58,16.8,-119.1,16.8c0,0,-133,0,-206.3,-84c0,0,-74.9,-84,-74.9,-238.3c0,0,0,-152.8,73.4,-236.8c0,0,74.8,-84.1,207.8,-84.1c0,0,61.1,0,119.1,15.3c0,0,58.1,16.8,116.1,48.9L744,30.6c0,0,-56.5,-26,-117.6,-38.1c0,0,-62.6,-13.8,-131.4,-13.8Z" 
	id="f0_b"
	transform="scale(0.001,-0.001)" />

	<path d="M467.5,94.7c0,0,108.5,0,172.6,85.6c0,0,64.2,87.1,64.2,235.3c0,0,0,149.7,-64.2,235.2c0,0,-64.1,87.1,-172.6,87.1c0,0,-111.5,0,-175.7,-85.5c0,0,-64.2,-85.6,-64.2,-236.8c0,0,0,-149.8,64.2,-235.3c0,0,64.2,-85.6,175.7,-85.6Zm0,-116c0,0,-180.3,0,-281.1,116C186.4,94.7,84,210.8,84,415.6c0,0,0,206.2,100.9,322.3c0,0,102.3,117.7,282.6,117.7c0,0,178.8,0,281.1,-116.2c0,0,102.4,-117.6,102.4,-323.8c0,0,0,-204.8,-102.4,-320.9c0,0,-102.3,-116,-281.1,-116Z" 
	id="f0_c"
	transform="scale(0.001,-0.001)" />

	<path d="M488.9,571.4c0,0,105.4,0,161.9,53.5c0,0,58.1,55,58.1,155.8c0,0,0,99.3,-56.5,152.8c0,0,-58.1,55,-163.5,55l-189.5,0l0,-417.1ZM149.7,0l0,1113.8l339.2,0c0,0,187.9,0,282.6,-84.1c0,0,96.3,-85.5,96.3,-249c0,0,0,-165,-94.7,-249c0,0,-96.3,-85.6,-284.2,-85.6l-189.5,0L299.4,0Z" 
	id="f0_d"
	transform="scale(0.001,-0.001)" />

	<path d="M120.7,-317.7l0,116.1l79.4,0c0,0,56.6,0,87.1,26c0,0,32.1,27.5,70.3,126.8l24.4,61L44.3,834.2l145.1,0L450.7,181.8L711.9,834.2l146.7,0L490.4,-76.3c0,0,-58,-149.7,-113,-195.5c0,0,-55,-45.9,-148.2,-45.9Z" 
	id="f0_e"
	transform="scale(0.001,-0.001)" />

	<path d="M137.5,0l0,1159.6l139,0l0,-455.3c0,0,48.9,76.4,114.6,113.1c0,0,67.2,38.2,154.3,38.2c0,0,145.2,0,218.5,-88.7c0,0,73.3,-90.1,73.3,-262.7L837.2,0L699.7,0l0,499.6c0,0,0,117.6,-45.8,175.7c0,0,-45.8,59.6,-139,59.6c0,0,-110,0,-174.2,-70.3c0,0,-64.2,-70.3,-64.2,-192.5L276.5,0Z" 
	id="f0_f"
	transform="scale(0.001,-0.001)" />

	<path d="M282.6,0L62.6,834.2l137.5,0L372.8,183.3L542.4,834.2l161.9,0L876.9,183.3l171.2,650.9l135.9,0L965.6,0l-162,0L624.9,684.4L444.6,0Z" 
	id="f0_g"
	transform="scale(0.001,-0.001)" />

	<path d="M407.9,93.2c0,0,113.1,0,181.8,79.4c0,0,70.3,81,70.3,215.5l0,30.5l-137.5,0c0,0,-166.5,0,-230.7,-36.7c0,0,-64.2,-38.1,-64.2,-129.8c0,0,0,-73.3,47.4,-116.1c0,0,48.9,-42.8,132.9,-42.8ZM371.3,-21.3c0,0,-128.4,0,-203.2,71.7c0,0,-76.4,71.8,-76.4,192.5c0,0,0,140.6,93.2,212.4c0,0,94.7,71.8,282.6,71.8l192.5,0l0,13.7c0,0,0,94.8,-62.6,145.2c0,0,-62.7,51.9,-175.7,51.9c0,0,-71.8,0,-139.1,-16.8c0,0,-67.2,-16.8,-129.8,-51.9l0,126.8c0,0,74.8,30.5,145.1,44.3c0,0,71.8,15.3,139,15.3c0,0,180.3,0,268.9,-93.2c0,0,90.2,-94.8,90.2,-285.7L796,0L660,0l0,126.8c0,0,-47.4,-76.4,-117.6,-111.5c0,0,-70.3,-36.6,-171.1,-36.6Z" 
	id="f0_h"
	transform="scale(0.001,-0.001)" />

	<path d="M230.7,490.4l490.4,1.5c0,0,-1.5,111.6,-62.6,178.8c0,0,-62.7,67.2,-163.5,67.2c0,0,-114.6,0,-183.3,-64.1c0,0,-70.3,-65.7,-81,-183.4ZM516.4,-21.3c0,0,-198.6,0,-314.7,116C201.7,94.7,84,210.8,84,409.4c0,0,0,204.8,110,325.5c0,0,111.6,120.7,299.5,120.7c0,0,168,0,265.8,-108.5c0,0,99.3,-110,99.3,-296.4l0,-67.2l-632.5,0c0,0,9.2,-140.6,85.6,-213.9c0,0,76.4,-74.9,213.9,-74.9c0,0,77.9,0,152.7,18.4c0,0,74.9,19.8,148.2,58l0,-129.8c0,0,-74.8,-30.6,-151.2,-45.8c0,0,-77.9,-16.8,-158.9,-16.8Z" 
	id="f0_i"
	transform="scale(0.001,-0.001)" />

	<path d="M508.8,93.2c0,0,110,0,171.1,85.6c0,0,62.6,85.5,62.6,236.8c0,0,0,152.7,-61.1,238.3c0,0,-62.6,85.5,-172.6,85.5c0,0,-108.5,0,-169.6,-85.5c0,0,-62.7,-85.6,-62.7,-238.3c0,0,0,-151.3,61.1,-236.8c0,0,62.7,-85.6,171.2,-85.6ZM137.5,-317.7l0,1151.9l139,0l0,-126.8c0,0,42.8,74.8,108.5,111.5c0,0,65.7,36.7,157.4,36.7c0,0,152.7,0,247.5,-120.7c0,0,96.2,-122.3,96.2,-319.3c0,0,0,-195.6,-94.7,-316.3c0,0,-96.3,-120.6,-249,-120.6c0,0,-91.7,0,-157.4,35.1c0,0,-65.7,36.6,-108.5,111.5l0,-443Z" 
	id="f0_j"
	transform="scale(0.001,-0.001)" />

	<path d="M375.8,-21.3c0,0,-67.2,0,-140.5,12.2c0,0,-73.4,12.2,-152.8,39.7l0,140.5c0,0,76.4,-39.7,149.7,-58c0,0,73.4,-19.9,146.7,-19.9c0,0,96.2,0,148.2,32.1c0,0,51.9,33.6,51.9,94.7c0,0,0,55,-36.6,84c0,0,-38.2,30.6,-165,58.1l-48.9,12.2c0,0,-126.8,26,-183.4,81c0,0,-56.5,56.5,-56.5,152.8c0,0,0,119.1,82.5,183.3c0,0,84,64.2,238.3,64.2c0,0,74.9,0,142.1,-10.7c0,0,67.3,-12.3,123.8,-35.2l0,-129.8c0,0,-58.1,30.5,-120.7,44.3c0,0,-62.7,15.2,-129.9,15.2c0,0,-102.3,0,-152.8,-30.5c0,0,-50.4,-32.1,-50.4,-94.7c0,0,0,-47.4,35.2,-74.9c0,0,36.6,-27.5,148.2,-51.9l45.8,-10.7c0,0,146.7,-30.6,207.8,-87.1c0,0,62.6,-58.1,62.6,-160.4c0,0,0,-116.1,-91.7,-183.4c0,0,-93.1,-67.1,-253.6,-67.1Z" 
	id="f0_k"
	transform="scale(0.001,-0.001)" />

	<path d="M458.3,93.2c0,0,110,0,172.7,85.6c0,0,62.6,85.5,62.6,236.8c0,0,0,152.7,-62.6,238.3c0,0,-62.7,85.5,-172.7,85.5c0,0,-108.4,0,-171.1,-85.5c0,0,-62.6,-85.6,-62.6,-238.3c0,0,0,-151.3,62.6,-236.8c0,0,62.7,-85.6,171.1,-85.6ZM424.7,-21.3c0,0,-151.2,0,-245.9,120.6C178.8,99.3,84,220,84,415.6c0,0,0,197,94.8,317.7c0,0,94.7,122.3,245.9,122.3c0,0,93.2,0,158.9,-36.7c0,0,65.7,-36.7,110,-111.5l0,452.2l136,0L829.6,0l-136,0l0,125.3c0,0,-44.3,-74.9,-110,-110c0,0,-65.7,-36.6,-158.9,-36.6Z" 
	id="f0_l"
	transform="scale(0.001,-0.001)" />

	<path d="M137.5,0l0,834.2l139,0l0,-129.9c0,0,42.8,76.4,111.6,113.1c0,0,70.2,38.2,169.5,38.2c0,0,13.8,0,30.6,-1.6c0,0,16.8,-3,38.2,-6.1l1.5,-142.1c0,0,-24.4,13.8,-50.4,19.9c0,0,-27.5,6.1,-61.1,6.1c0,0,-116.1,0,-177.2,-74.9c0,0,-62.7,-76.3,-62.7,-216.9l0,-440Z" 
	id="f0_m"
	transform="scale(0.001,-0.001)" />

	<path d="M352.9,-200c0,0,-111.5,174.1,-166.5,342.1c0,0,-56.5,169.6,-56.5,336.1c0,0,0,166.5,55,334.6c0,0,56.5,169.6,168,345.3l120.7,0c0,0,-100.8,-171.2,-148.2,-339.2c0,0,-48.9,-168.1,-48.9,-340.7c0,0,0,-171.1,48.9,-339.2c0,0,48.9,-169.5,148.2,-339Z" 
	id="f0_n"
	transform="scale(0.001,-0.001)" />

	<path d="M117.6,-177.1L178.8,61.1l0,128.3l157.3,0l0,-128.3L213.9,-177.1Z" 
	id="f0_o"
	transform="scale(0.001,-0.001)" />

	<path d="M458.3,114.6c0,0,111.6,0,172.7,81c0,0,62.6,82.5,62.6,230.7c0,0,0,149.7,-61.1,230.6c0,0,-62.6,82.5,-174.2,82.5c0,0,-110,0,-171.1,-80.9c0,0,-62.6,-82.5,-62.6,-232.2c0,0,0,-148.2,61.1,-229.2c0,0,62.6,-82.5,172.6,-82.5ZM444.6,-317.7c0,0,-71.8,0,-136,10.7c0,0,-64.2,12.2,-123.7,33.6l0,134.5c0,0,59.5,-33.6,117.6,-48.9c0,0,59.6,-15.3,120.7,-15.3c0,0,136,0,203.2,70.3c0,0,67.2,70.3,67.2,210.7l0,68.8c0,0,-42.8,-74.9,-108.5,-110C585.1,36.7,517.9,0,424.7,0c0,0,-152.8,0,-245.9,116.1c0,0,-94.8,117.7,-94.8,310.2c0,0,0,194,93.2,311.6c0,0,94.7,117.7,247.5,117.7c0,0,93.2,0,158.9,-36.7c0,0,67.2,-36.7,110,-111.5l0,126.8l136,0l0,-731.8c0,0,0,-210.8,-94.7,-314.7c0,0,-94.8,-105.4,-290.3,-105.4Z" 
	id="f0_p"
	transform="scale(0.001,-0.001)" />

	<path d="M122.2,-200c0,0,99.3,169.5,146.7,337.5c0,0,48.9,169.6,48.9,340.7c0,0,0,172.6,-47.4,340.7c0,0,-48.9,168,-148.2,339.2l119.2,0c0,0,111.5,-175.7,166.5,-343.8c0,0,56.5,-169.6,56.5,-336.1c0,0,0,-166.5,-55,-334.6c0,0,-56.5,-169.5,-168,-343.6Z" 
	id="f0_q"
	transform="scale(0.001,-0.001)" />

	<path d="M161,0l0,189l158,0L319,0Z" 
	id="f0_r"
	transform="scale(0.001,-0.001)" />


</defs>
</svg>