<?xml version="1.0" encoding="UTF-8" standalone="no"?>
<!DOCTYPE svg PUBLIC "-//W3C//DTD SVG 1.1//EN"
"http://www.w3.org/Graphics/SVG/1.1/DTD/svg11.dtd">
<svg viewBox="0 0 1210 1045" version="1.1" xmlns="http://www.w3.org/2000/svg" xmlns:xlink="http://www.w3.org/1999/xlink">
<defs>
<style type="text/css"><![CDATA[
.g2_87{
fill: #418AB3;
}
.g3_87{
fill: none;
stroke: #FFFFFF;
stroke-width: 1;
stroke-linecap: butt;
stroke-linejoin: miter;
}
.g4_87{
fill: none;
stroke: #418AB3;
stroke-width: 2;
stroke-linecap: butt;
stroke-linejoin: miter;
stroke-miterlimit: 7;
}
.g1_87{
fill: #FFFFFF;
}
]]></style>
</defs>
<path fill-rule="evenodd" d="M0,0L1210,0l0,1045L0,1045L0,0Z" class="g1_87" />
<path fill-rule="evenodd" d="M0,0L1210,0l0,1045L0,1045L0,0Z" class="g1_87" />
<image x="828" y="984" width="334" height="49" xlink:href="img/1.png" />
<path fill-rule="evenodd" d="M66,249l1077,0l0,69L66,318l0,-69Z" class="g2_87" />
<path d="M66.5,319.5l0,-71" class="g3_87" />
<path fill-rule="evenodd" d="M1143.4,318.5l0.6,2l-1078,0l0.6,-2l0.6,-1.9l1075.6,0l0.6,1.9Z" class="g1_87" />
<path d="M1142.5,319.5l0,-71" class="g3_87" />
<path d="M66.5,249.5l1077,0" class="g3_87" />
<path fill-rule="evenodd" d="M142,141l609,0l0,42l-609,0l0,-42Z" class="g2_87" />
<path d="M142.5,184.5l0,-44" class="g3_87" />
<path fill-rule="evenodd" d="M751.7,183l0.6,2.2l-610.2,0l0.6,-2.2l0.6,-2l607.8,0l0.6,2Z" class="g1_87" />
<path d="M751.5,184.5l0,-44" class="g3_87" />
<path d="M142.5,141.5l610,0" class="g3_87" />
<path fill-rule="evenodd" d="M980.8,9.6l0,-0.3l0,-0.4l0,-0.3L981,8.3l0,-0.4l0.1,-0.3l0,-0.3L981.3,7l0.1,-0.1l0.2,-0.3l0.1,-0.3L982.1,6l0.1,-0.3l0.2,-0.2l0.3,-0.3L982.8,5l0.3,-0.3l0.2,-0.1l0.3,-0.2l0.3,-0.1l0.3,-0.2L984.5,4l0.2,-0.2l0.3,0l0.4,-0.1l0.3,0L986,3.5l0.3,0l0.3,0l0.3,0l189.5,0l0.3,0l0.3,0l0.3,0l0.3,0.2l0.3,0l0.3,0.1l0.3,0.2l0.3,0l0.3,0.1l0.3,0.2l0.2,0.1l0.3,0.2l0.3,0.3l0.2,0.1l0.3,0.3l0.1,0.2l0.3,0.3l0.2,0.2l0.1,0.3l0.2,0.3l0.1,0.3l0.2,0.1l0.1,0.3l0,0.3l0.2,0.3l0.1,0.4l0,0.3l0,0.3l0,0.4l0,0.3l0.2,24.5l0,0.3l-0.2,0.3l0,0.3l0,0.3l-0.1,0.3l0,0.3l-0.2,0.3l-0.1,0.3l-0.2,0.3l-0.1,0.2l-0.2,0.3l-0.1,0.3l-0.2,0.1l-0.3,0.3l-0.1,0.3l-0.3,0.2l-0.2,0.2l-0.3,0.3l-0.3,0.1l-0.2,0.2l-0.3,0.1l-0.3,0.2l-0.3,0.1l-0.3,0l-0.3,0.2l-0.3,0l-0.3,0.1l-0.3,0l-0.3,0l-0.3,0L986.9,40.2l0,-0.2l-0.3,0l-0.3,0L986,40l-0.3,0l-0.3,-0.1l-0.4,0l-0.3,-0.2l-0.2,-0.1l-0.3,-0.2l-0.3,-0.1l-0.3,-0.2L983.3,39l-0.2,-0.2l-0.3,-0.3l-0.1,-0.2L982.4,38l-0.2,-0.1l-0.1,-0.3l-0.4,-0.3l-0.1,-0.2l-0.2,-0.3l-0.1,-0.3l-0.2,-0.3l0,-0.3L981,35.6l0,-0.3L980.8,35l0,-0.3l0,-0.3l0,-0.3l0,-24.5Z" class="g1_87" />
<path d="M980.8,9.6l0,-0.3l0,-0.4l0,-0.3L981,8.3l0,-0.4l0.1,-0.3l0,-0.3L981.3,7l0.1,-0.1l0.2,-0.3l0.1,-0.3L982.1,6l0.1,-0.3l0.2,-0.2l0.3,-0.3L982.8,5l0.3,-0.3l0.2,-0.1l0.3,-0.2l0.3,-0.1l0.3,-0.2L984.5,4l0.2,-0.2l0.3,0l0.4,-0.1l0.3,0L986,3.5l0.3,0l0.3,0l0.3,0l189.5,0l0.3,0l0.3,0l0.3,0l0.3,0.2l0.3,0l0.3,0.1l0.3,0.2l0.3,0l0.3,0.1l0.3,0.2l0.2,0.1l0.3,0.2l0.3,0.3l0.2,0.1l0.3,0.3l0.1,0.2l0.3,0.3l0.2,0.2l0.1,0.3l0.2,0.3l0.1,0.3l0.2,0.1l0.1,0.3l0,0.3l0.2,0.3l0.1,0.4l0,0.3l0,0.3l0,0.4l0,0.3l0.2,24.5l0,0.3l-0.2,0.3l0,0.3l0,0.3l-0.1,0.3l0,0.3l-0.2,0.3l-0.1,0.3l-0.2,0.3l-0.1,0.2l-0.2,0.3l-0.1,0.3l-0.2,0.1l-0.3,0.3l-0.1,0.3l-0.3,0.2l-0.2,0.2l-0.3,0.3l-0.3,0.1l-0.2,0.2l-0.3,0.1l-0.3,0.2l-0.3,0.1l-0.3,0l-0.3,0.2l-0.3,0l-0.3,0.1l-0.3,0l-0.3,0l-0.3,0L986.9,40.2l0,-0.2l-0.3,0l-0.3,0L986,40l-0.3,0l-0.3,-0.1l-0.4,0l-0.3,-0.2l-0.2,-0.1l-0.3,-0.2l-0.3,-0.1l-0.3,-0.2L983.3,39l-0.2,-0.2l-0.3,-0.3l-0.1,-0.2L982.4,38l-0.2,-0.1l-0.1,-0.3l-0.4,-0.3l-0.1,-0.2l-0.2,-0.3l-0.1,-0.3l-0.2,-0.3l0,-0.3L981,35.6l0,-0.3L980.8,35l0,-0.3l0,-0.3l0,-0.3l0,-24.5Z" class="g4_87" />
</svg>