<?xml version="1.0" encoding="UTF-8" standalone="no"?>
<!DOCTYPE svg PUBLIC "-//W3C//DTD SVG 1.1//EN"
"http://www.w3.org/Graphics/SVG/1.1/DTD/svg11.dtd">
<svg version="1.1" xmlns="http://www.w3.org/2000/svg" xmlns:xlink="http://www.w3.org/1999/xlink">
<defs>
<clipPath id="c0_35"><path d="M0.5,825.5l0,-825l1466,0l0,825Z" /></clipPath>
<style type="text/css"><![CDATA[
.g2_35{
fill: none;
stroke: #5B9BD5;
stroke-width: 2;
stroke-linecap: butt;
stroke-linejoin: miter;
stroke-miterlimit: 7;
}
.g3_35{
fill: none;
stroke: #0563C1;
stroke-width: 2;
stroke-linecap: butt;
stroke-linejoin: miter;
}
.g1_35{
fill: #FFFFFF;
}
]]></style>
</defs>
<path fill-rule="evenodd" d="M0,0L1466,0l0,825L0,825L0,0Z" class="g1_35" />
<path fill-rule="evenodd" d="M0,0L1466,0l0,825L0,825L0,0Z" class="g1_35" />
<g clip-path="url(#c0_35)">
<g fill="#FFFFFF" >
<use xlink:href="#f0_2" transform="matrix(10.5,0,0,10.5,59.7,801.9)" />
<use xlink:href="#f0_3" transform="matrix(10.5,0,0,10.5,71,801.9)" />
<use xlink:href="#f0_4" transform="matrix(10.5,0,0,10.5,80,801.9)" />
<use xlink:href="#f0_5" transform="matrix(10.5,0,0,10.5,89,801.9)" />
<use xlink:href="#f0_6" transform="matrix(10.5,0,0,10.5,97.1,801.9)" />
<use xlink:href="#f0_7" transform="matrix(10.5,0,0,10.5,102.3,801.9)" />
<use xlink:href="#f0_8" transform="matrix(10.5,0,0,10.5,106,801.9)" />
<use xlink:href="#f0_9" transform="matrix(10.5,0,0,10.5,115,801.9)" />
<use xlink:href="#f0_a" transform="matrix(10.5,0,0,10.5,124,801.9)" />
<use xlink:href="#f0_c" transform="matrix(10.5,0,0,10.5,132.7,801.9)" />
<use xlink:href="#f0_d" transform="matrix(10.5,0,0,10.5,153.5,801.9)" />
<use xlink:href="#f0_e" transform="matrix(10.5,0,0,10.5,162.3,801.9)" />
<use xlink:href="#f0_f" transform="matrix(10.5,0,0,10.5,171,801.9)" />
<use xlink:href="#f0_g" transform="matrix(10.5,0,0,10.5,180,801.9)" />
<use xlink:href="#f0_h" transform="matrix(10.5,0,0,10.5,188.9,801.9)" />
<use xlink:href="#f0_i" transform="matrix(10.5,0,0,10.5,197.6,801.9)" />
<use xlink:href="#f0_j" transform="matrix(10.5,0,0,10.5,202,801.9)" />
<use xlink:href="#f0_k" transform="matrix(10.5,0,0,10.5,211,801.9)" />
<use xlink:href="#f0_3" transform="matrix(10.5,0,0,10.5,215.4,801.9)" />
<use xlink:href="#f0_l" transform="matrix(10.5,0,0,10.5,224.3,801.9)" />
<use xlink:href="#f0_5" transform="matrix(10.5,0,0,10.5,232.2,801.9)" />
<use xlink:href="#f0_l" transform="matrix(10.5,0,0,10.5,240.3,801.9)" />
<use xlink:href="#f0_m" transform="matrix(10.5,0,0,10.5,252.5,801.9)" />
<use xlink:href="#f0_7" transform="matrix(10.5,0,0,10.5,261.4,801.9)" />
<use xlink:href="#f0_n" transform="matrix(10.5,0,0,10.5,265.1,801.9)" />
<use xlink:href="#f0_7" transform="matrix(10.5,0,0,10.5,278.5,801.9)" />
<use xlink:href="#f0_a" transform="matrix(10.5,0,0,10.5,282,801.9)" />
<use xlink:href="#f0_o" transform="matrix(10.5,0,0,10.5,286.4,801.9)" />
<use xlink:href="#f0_p" transform="matrix(10.5,0,0,10.5,295.4,801.9)" />
</g>
</g>
<path fill-rule="evenodd" d="M77,3L1178,3l0,140L77,143L77,3Z" class="g1_35" />
<path d="M77,3L1178,3l0,140L77,143L77,3Z" class="g2_35" />
<g clip-path="url(#c0_35)">
<g fill="#000000" >
<use xlink:href="#f1_b" transform="matrix(12,0,0,12,88.2,27.2)" />
<use xlink:href="#f1_c" transform="matrix(12,0,0,12,102.2,27.2)" />
<use xlink:href="#f1_z" transform="matrix(12,0,0,12,114.7,27.2)" />
<use xlink:href="#f1_c" transform="matrix(12,0,0,12,122.7,27.2)" />
<use xlink:href="#f1_k" transform="matrix(12,0,0,12,135.2,27.2)" />
<use xlink:href="#f1_s" transform="matrix(12,0,0,12,150.6,27.2)" />
<use xlink:href="#f1_g" transform="matrix(12,0,0,12,159.1,27.2)" />
<use xlink:href="#f1_12" transform="matrix(12,0,0,12,171.7,27.2)" />
</g>
<g fill="#0563C1" >
<use xlink:href="#f2_3" transform="matrix(12,0,0,12,88.2,67.5)" />
<use xlink:href="#f2_c" transform="matrix(12,0,0,12,99.6,67.5)" />
<use xlink:href="#f2_c" transform="matrix(12,0,0,12,106.8,67.5)" />
<use xlink:href="#f2_f" transform="matrix(12,0,0,12,114,67.5)" />
<use xlink:href="#f2_b" transform="matrix(12,0,0,12,125.4,67.5)" />
<use xlink:href="#f2_11" transform="matrix(12,0,0,12,135,67.5)" />
<use xlink:href="#f2_16" transform="matrix(12,0,0,12,141.3,67.5)" />
<use xlink:href="#f2_16" transform="matrix(12,0,0,12,147.4,67.5)" />
<use xlink:href="#f2_k" transform="matrix(12,0,0,12,153.7,67.5)" />
<use xlink:href="#f2_k" transform="matrix(12,0,0,12,168.8,67.5)" />
<use xlink:href="#f2_k" transform="matrix(12,0,0,12,183.7,67.5)" />
<use xlink:href="#f2_o" transform="matrix(12,0,0,12,196.9,67.5)" />
<use xlink:href="#f2_j" transform="matrix(12,0,0,12,202.8,67.5)" />
<use xlink:href="#f2_e" transform="matrix(12,0,0,12,213.7,67.5)" />
<use xlink:href="#f2_h" transform="matrix(12,0,0,12,224.8,67.5)" />
<use xlink:href="#f2_c" transform="matrix(12,0,0,12,236.3,67.5)" />
<use xlink:href="#f2_h" transform="matrix(12,0,0,12,243.5,67.5)" />
<use xlink:href="#f2_q" transform="matrix(12,0,0,12,255.1,67.5)" />
<use xlink:href="#f2_4" transform="matrix(12,0,0,12,266.5,67.5)" />
<use xlink:href="#f2_o" transform="matrix(12,0,0,12,278,67.5)" />
<use xlink:href="#f2_t" transform="matrix(12,0,0,12,283.8,67.5)" />
<use xlink:href="#f2_e" transform="matrix(12,0,0,12,294,67.5)" />
<use xlink:href="#f2_8" transform="matrix(12,0,0,12,305.3,67.5)" />
<use xlink:href="#f2_16" transform="matrix(12,0,0,12,323,67.5)" />
<use xlink:href="#f2_k" transform="matrix(12,0,0,12,329.3,67.5)" />
<use xlink:href="#f2_6" transform="matrix(12,0,0,12,344.2,67.5)" />
<use xlink:href="#f2_c" transform="matrix(12,0,0,12,355.7,67.5)" />
<use xlink:href="#f2_t" transform="matrix(12,0,0,12,362.7,67.5)" />
<use xlink:href="#f2_3" transform="matrix(12,0,0,12,373.1,67.5)" />
<use xlink:href="#f2_x" transform="matrix(12,0,0,12,384.5,67.5)" />
<use xlink:href="#f2_i" transform="matrix(12,0,0,12,394.3,67.5)" />
<use xlink:href="#f2_1l" transform="matrix(12,0,0,12,405.1,67.5)" />
<use xlink:href="#f2_20" transform="matrix(12,0,0,12,420.7,67.5)" />
<use xlink:href="#f2_2" transform="matrix(12,0,0,12,429.8,67.5)" />
<use xlink:href="#f2_1o" transform="matrix(12,0,0,12,441.1,67.5)" />
<use xlink:href="#f2_i" transform="matrix(12,0,0,12,452.6,67.5)" />
<use xlink:href="#f2_1v" transform="matrix(12,0,0,12,463.4,67.5)" />
<use xlink:href="#f2_29" transform="matrix(12,0,0,12,476,67.5)" />
<use xlink:href="#f2_l" transform="matrix(12,0,0,12,488.5,67.5)" />
<use xlink:href="#f2_1x" transform="matrix(12,0,0,12,499,67.5)" />
<use xlink:href="#f2_1q" transform="matrix(12,0,0,12,517.2,67.5)" />
<use xlink:href="#f2_2b" transform="matrix(12,0,0,12,526.7,67.5)" />
<use xlink:href="#f2_14" transform="matrix(12,0,0,12,541.2,67.5)" />
</g>
</g>
<path d="M88,69l458,0" class="g3_35" />
<g clip-path="url(#c0_35)">
<g fill="#000000" >
<use xlink:href="#f2_1s" transform="matrix(12,0,0,12,558.5,67.5)" />
<use xlink:href="#f2_1n" transform="matrix(12,0,0,12,565.7,67.5)" />
<use xlink:href="#f2_h" transform="matrix(12,0,0,12,579.8,67.5)" />
<use xlink:href="#f2_d" transform="matrix(12,0,0,12,591.4,67.5)" />
<use xlink:href="#f2_6" transform="matrix(12,0,0,12,599,67.5)" />
<use xlink:href="#f2_c" transform="matrix(12,0,0,12,610.3,67.5)" />
<use xlink:href="#f2_9" transform="matrix(12,0,0,12,617.5,67.5)" />
<use xlink:href="#f2_e" transform="matrix(12,0,0,12,622.7,67.5)" />
<use xlink:href="#f2_a" transform="matrix(12,0,0,12,633.8,67.5)" />
<use xlink:href="#f2_11" transform="matrix(12,0,0,12,645.4,67.5)" />
<use xlink:href="#f2_2c" transform="matrix(12,0,0,12,657.5,67.5)" />
<use xlink:href="#f2_11" transform="matrix(12,0,0,12,669.2,67.5)" />
<use xlink:href="#f2_1b" transform="matrix(12,0,0,12,675.3,67.5)" />
<use xlink:href="#f2_1p" transform="matrix(12,0,0,12,686.9,67.5)" />
<use xlink:href="#f2_1t" transform="matrix(12,0,0,12,698.5,67.5)" />
</g>
<g fill="#0563C1" >
<use xlink:href="#f2_3" transform="matrix(12,0,0,12,88.2,107.9)" />
<use xlink:href="#f2_c" transform="matrix(12,0,0,12,99.6,107.9)" />
<use xlink:href="#f2_c" transform="matrix(12,0,0,12,106.8,107.9)" />
<use xlink:href="#f2_f" transform="matrix(12,0,0,12,114,107.9)" />
<use xlink:href="#f2_11" transform="matrix(12,0,0,12,125.4,107.9)" />
<use xlink:href="#f2_16" transform="matrix(12,0,0,12,131.7,107.9)" />
<use xlink:href="#f2_16" transform="matrix(12,0,0,12,137.9,107.9)" />
<use xlink:href="#f2_k" transform="matrix(12,0,0,12,144.2,107.9)" />
<use xlink:href="#f2_k" transform="matrix(12,0,0,12,159.2,107.9)" />
<use xlink:href="#f2_k" transform="matrix(12,0,0,12,174.3,107.9)" />
<use xlink:href="#f2_o" transform="matrix(12,0,0,12,187.4,107.9)" />
<use xlink:href="#f2_c" transform="matrix(12,0,0,12,193.2,107.9)" />
<use xlink:href="#f2_4" transform="matrix(12,0,0,12,200.4,107.9)" />
<use xlink:href="#f2_t" transform="matrix(12,0,0,12,211.9,107.9)" />
<use xlink:href="#f2_3" transform="matrix(12,0,0,12,222.1,107.9)" />
<use xlink:href="#f2_e" transform="matrix(12,0,0,12,233.5,107.9)" />
<use xlink:href="#f2_a" transform="matrix(12,0,0,12,244.8,107.9)" />
<use xlink:href="#f2_c" transform="matrix(12,0,0,12,256.3,107.9)" />
<use xlink:href="#f2_3" transform="matrix(12,0,0,12,263.5,107.9)" />
<use xlink:href="#f2_4" transform="matrix(12,0,0,12,275.1,107.9)" />
<use xlink:href="#f2_a" transform="matrix(12,0,0,12,286.4,107.9)" />
<use xlink:href="#f2_4" transform="matrix(12,0,0,12,298,107.9)" />
<use xlink:href="#f2_c" transform="matrix(12,0,0,12,309.3,107.9)" />
<use xlink:href="#f2_o" transform="matrix(12,0,0,12,316.5,107.9)" />
<use xlink:href="#f2_t" transform="matrix(12,0,0,12,322.3,107.9)" />
<use xlink:href="#f2_e" transform="matrix(12,0,0,12,332.5,107.9)" />
<use xlink:href="#f2_8" transform="matrix(12,0,0,12,343.8,107.9)" />
<use xlink:href="#f2_16" transform="matrix(12,0,0,12,361.5,107.9)" />
<use xlink:href="#f2_e" transform="matrix(12,0,0,12,367.8,107.9)" />
<use xlink:href="#f2_d" transform="matrix(12,0,0,12,378.9,107.9)" />
<use xlink:href="#f2_6" transform="matrix(12,0,0,12,386.5,107.9)" />
<use xlink:href="#f2_t" transform="matrix(12,0,0,12,398,107.9)" />
<use xlink:href="#f2_m" transform="matrix(12,0,0,12,408.2,107.9)" />
<use xlink:href="#f2_4" transform="matrix(12,0,0,12,413.3,107.9)" />
<use xlink:href="#f2_16" transform="matrix(12,0,0,12,424.6,107.9)" />
<use xlink:href="#f2_i" transform="matrix(12,0,0,12,430.9,107.9)" />
<use xlink:href="#f2_9" transform="matrix(12,0,0,12,441.6,107.9)" />
<use xlink:href="#f2_4" transform="matrix(12,0,0,12,446.8,107.9)" />
<use xlink:href="#f2_k" transform="matrix(12,0,0,12,458,107.9)" />
<use xlink:href="#f2_b" transform="matrix(12,0,0,12,473.2,107.9)" />
<use xlink:href="#f2_o" transform="matrix(12,0,0,12,482.6,107.9)" />
<use xlink:href="#f2_f" transform="matrix(12,0,0,12,488.6,107.9)" />
<use xlink:href="#f2_3" transform="matrix(12,0,0,12,500,107.9)" />
<use xlink:href="#f2_f" transform="matrix(12,0,0,12,511.6,107.9)" />
</g>
</g>
<path d="M88,109l435,0" class="g3_35" />
<defs>
	<path d="M589.7,-13.7c0,0,-128.3,0,-223,39.7c0,0,-96.3,39.7,-160.4,111.5c0,0,-65.7,73.3,-97.8,172.6c0,0,-32.1,100.9,-32.1,220c0,0,0,122.3,33.6,221.6c0,0,35.1,99.3,99.3,168c0,0,65.7,70.3,160.4,108.5c0,0,96.3,38.2,218.5,38.2c0,0,168.1,0,281.1,-65.7c0,0,113.1,-65.7,165,-195.6L899.9,760.8c0,0,-15.3,36.7,-39.8,70.3c0,0,-25.9,35.2,-64.1,61.1c0,0,-38.2,26,-88.6,41.3c0,0,-52,16.8,-117.7,16.8c0,0,-88.6,0,-157.3,-29c0,0,-70.3,-30.6,-116.1,-85.6c0,0,-47.4,-56.5,-70.3,-132.9c0,0,-24.5,-77.9,-24.5,-172.7c0,0,0,-94.7,26,-172.6c0,0,26,-79.4,73.3,-136c0,0,48.9,-58,117.7,-88.6c0,0,70.3,-32.1,157.3,-32.1c0,0,61.1,0,111.6,15.3c0,0,50.4,16.8,90.1,45.8c0,0,41.3,29.1,73.3,68.8c0,0,32.1,41.2,56.6,88.6l117.6,-58c0,0,-29,-58.1,-70.3,-108.5c0,0,-42.8,-52,-97.8,-88.6c0,0,-56.5,-36.7,-128.3,-56.6c0,0,-71.8,-21.3,-158.9,-21.3Z" 
	id="f0_2"
	transform="scale(0.001,-0.001)" />

	<path d="M418.6,84c0,0,52,0,93.2,13.8c0,0,42.8,15.3,71.8,51.9c0,0,29,36.7,44.3,97.8c0,0,15.3,62.6,15.3,155.8c0,0,0,94.8,-13.8,155.9c0,0,-15.2,61.1,-42.7,97.7c0,0,-27.5,36.7,-67.3,50.5c0,0,-41.2,15.2,-91.6,15.2c0,0,-52,0,-93.2,-15.2c0,0,-41.3,-15.3,-70.3,-52c0,0,-29,-38.2,-44.3,-99.3c0,0,-15.3,-61.1,-15.3,-152.8c0,0,0,-93.2,15.3,-154.3c0,0,16.8,-62.6,45.8,-99.3c0,0,29.1,-36.6,67.3,-50.4c0,0,39.7,-15.3,85.5,-15.3Zm1.5,-97.7c0,0,-84,0,-149.7,24.4c0,0,-67.2,24.4,-113,76.4c0,0,-45.9,51.9,-70.3,129.8c0,0,-24.5,79.5,-24.5,186.4c0,0,0,418.6,362.1,418.6c0,0,94.7,0,162,-25.9c0,0,68.7,-27.5,111.5,-79.5c0,0,44.3,-51.9,65.7,-129.8c0,0,21.4,-77.9,21.4,-183.4c0,0,0,-212.3,-93.2,-314.7c0,0,-93.2,-102.3,-272,-102.3Z" 
	id="f0_3"
	transform="scale(0.001,-0.001)" />

	<path d="M452.2,84c0,0,56.6,0,93.2,21.4c0,0,36.7,21.4,58.1,62.7c0,0,22.9,41.2,30.5,99.3c0,0,9.2,59.5,9.2,135.9c0,0,0,74.9,-7.6,133c0,0,-9.2,58,-30.6,97.7c0,0,-22.9,41.3,-59.6,61.1c0,0,-36.6,21.4,-91.6,21.4c0,0,-44.4,0,-84.1,-12.2c0,0,-39.7,-12.2,-68.7,-47.4c0,0,-30.6,-36.6,-47.4,-99.3c0,0,-16.8,-64.1,-16.8,-165c0,0,0,-85.5,13.8,-143.6c0,0,13.7,-59.6,41.2,-96.2c0,0,27.5,-36.7,67.2,-52c0,0,41.3,-16.8,93.2,-16.8ZM102.4,-316.2l0,957.9c0,0,0,29,0,55c0,0,-1.6,27.5,-1.6,48.9c0,0,-1.5,22.9,-1.5,38.2c0,0,-1.5,15.2,-1.5,22.9l129.8,0c0,0,0,-3.1,1.6,-15.3c0,0,1.5,-13.8,1.5,-32.1c0,0,1.5,-19.9,3.1,-41.2c0,0,1.5,-21.4,1.5,-41.3l3,0c0,0,18.4,38.2,41.3,65.7c0,0,24.4,27.5,55,44.3c0,0,30.5,18.3,68.7,26c0,0,38.2,7.6,84.1,7.6c0,0,84,0,140.5,-29c0,0,58.1,-30.6,91.7,-84c0,0,35.1,-55,50.4,-131.4c0,0,15.3,-76.4,15.3,-169.6c0,0,0,-91.7,-15.3,-169.6c0,0,-15.3,-77.9,-48.9,-132.9c0,0,-35.1,-56.5,-91.7,-87.1c0,0,-58,-30.5,-142,-30.5c0,0,-85.6,0,-149.8,32c0,0,-65.7,32.1,-100.8,107l-3,0c0,0,0,-1.5,0,-13.8c0,0,1.5,-12.2,1.5,-30.5c0,0,0,-18.4,0,-39.7c0,0,1.5,-21.4,1.5,-41.3l0,-316.2Z" 
	id="f0_4"
	transform="scale(0.001,-0.001)" />

	<path d="M142.1,-316.2c0,0,-26,0,-47.4,1.6c0,0,-21.4,1.5,-45.8,6.1l0,100.8c0,0,13.7,-1.5,32.1,-3c0,0,18.3,-1.6,30.5,-1.6c0,0,59.6,0,110,44.3c0,0,50.4,44.3,88.6,140.6L322.4,3.1L3.1,806.7l143.6,0L316.3,360.6c0,0,7.6,-19.9,18.3,-53.5c0,0,12.2,-33.6,22.9,-67.2c0,0,12.2,-33.6,21.4,-59.6c0,0,9.2,-27.5,10.7,-35.2c0,0,1.5,9.2,10.7,32.1c0,0,9.1,24.5,19.8,53.5c0,0,10.7,30.6,21.4,61.1c0,0,10.7,30.6,18.4,53.5L618.8,806.7l142,0L449.2,0c0,0,-27.5,-71.7,-56.6,-129.8c0,0,-30.5,-59.5,-67.2,-100.8c0,0,-36.6,-41.2,-81,-62.6c0,0,-44.3,-23,-102.3,-23Z" 
	id="f0_5"
	transform="scale(0.001,-0.001)" />

	<path d="M105.4,0l0,618.8c0,0,0,24.4,0,50.4c0,0,-1.5,27.5,-1.5,51.9c0,0,-1.5,24.5,-1.5,45.8c0,0,-1.6,23,-1.6,39.8l126.8,0c0,0,0,-16.8,1.6,-38.2c0,0,1.5,-22.9,1.5,-45.9c0,0,1.5,-22.9,1.5,-44.3c0,0,1.6,-21.4,1.6,-36.6l3,0c0,0,13.8,45.8,29,79.4c0,0,16.8,35.2,38.2,56.5c0,0,21.4,21.4,50.4,32.1c0,0,30.6,12.2,73.4,12.2c0,0,16.8,0,32.1,-3c0,0,15.2,-3.1,22.9,-4.6l0,-123.7c0,0,-13.8,4.5,-30.6,6.1c0,0,-18.3,1.5,-41.2,1.5c0,0,-45.9,0,-77.9,-19.9c0,0,-33.7,-21.4,-53.5,-58c0,0,-21.4,-38.2,-30.6,-88.6c0,0,-9.1,-52,-9.1,-111.6L239.9,0Z" 
	id="f0_6"
	transform="scale(0.001,-0.001)" />

	<path d="M100,0l0,806l135,0L235,0Zm0,977l0,129l135,0l0,-129Z" 
	id="f0_7"
	transform="scale(0.001,-0.001)" />

	<path d="M397.2,93.2c0,0,39.7,0,77.9,16.8c0,0,38.2,16.8,68.8,53.5c0,0,30.5,38.2,48.9,96.2c0,0,19.8,59.6,19.8,143.6c0,0,0,84.1,-18.3,143.6c0,0,-18.3,59.6,-47.4,97.8c0,0,-30.5,38.2,-68.7,56.6c0,0,-38.2,18.3,-79.4,18.3c0,0,-50.5,0,-87.1,-18.3c0,0,-38.2,-18.4,-62.7,-56.6c0,0,-24.4,-38.2,-35.1,-97.8c0,0,-12.2,-61.1,-12.2,-143.6c0,0,0,-87,10.7,-146.6c0,0,12.2,-59.6,36.6,-96.3c0,0,24.5,-36.6,61.1,-51.9c0,0,36.7,-15.3,87.1,-15.3Zm10.7,-409.4c0,0,-68.7,0,-122.2,13.8c0,0,-55,15.3,-91.7,41.2c0,0,-38.2,26,-62.6,62.7c0,0,-24.5,36.7,-35.1,81l135.9,19.8c0,0,13.8,-56.5,59.6,-85.5c0,0,45.8,-30.6,120.7,-30.6c0,0,44.3,0,81,12.2c0,0,38.2,12.3,64.1,39.8c0,0,26,29,39.8,73.3c0,0,15.2,45.8,15.2,108.4l0,129.8l-1.5,0c0,0,-15.3,-30.5,-36.7,-58c0,0,-22.9,-29.1,-53.4,-50.4c0,0,-32.1,-21.4,-73.4,-33.7c0,0,-42.7,-12.1,-96.2,-12.1c0,0,-76.4,0,-131.4,24.4c0,0,-55,24.4,-90.1,76.4c0,0,-35.2,51.9,-50.5,128.3c0,0,-16.8,76.4,-16.8,177.2c0,0,0,96.3,15.3,174.2c0,0,16.8,77.9,53.5,131.4c0,0,36.7,55,94.7,82.5c0,0,58.1,29,140.6,29c0,0,85.5,0,148.2,-38.2c0,0,62.6,-39.7,97.7,-113.1l1.6,0c0,0,0,19.9,0,42.8c0,0,1.5,22.9,3,42.8c0,0,1.6,21.4,3.1,35.1c0,0,1.5,15.3,3,18.4l126.8,0c0,0,0,-7.7,0,-22.9c0,0,-1.5,-16.9,-1.5,-38.2c0,0,-1.5,-23,-1.5,-50.5c0,0,-1.5,-27.5,-1.5,-56.5l0,-615.7c0,0,0,-167.9,-82.5,-253.5c0,0,-84.1,-85.6,-255.2,-85.6Z" 
	id="f0_8"
	transform="scale(0.001,-0.001)" />

	<path d="M105.4,0l0,1106.1l134.5,0l0,-287.2c0,0,0,-24.5,0,-48.9c0,0,-1.6,-26,-3.1,-45.8c0,0,-1.5,-21.4,-1.5,-35.2c0,0,-1.5,-15.2,-1.5,-21.4l1.5,0c0,0,22.9,41.3,48.9,70.3c0,0,25.9,29,56.5,47.4c0,0,32.1,18.3,68.7,27.5c0,0,38.2,9.1,84.1,9.1c0,0,77.9,0,126.8,-21.3c0,0,50.4,-21.4,79.4,-58.1c0,0,29.1,-38.2,39.7,-90.1c0,0,10.7,-52,10.7,-114.6L750.1,0L614.2,0l0,510.3c0,0,0,51.9,-6.1,90.1c0,0,-6.2,39.7,-23,65.7c0,0,-18.3,26,-50.4,38.2c0,0,-33.6,13.8,-87.1,13.8c0,0,-47.3,0,-85.5,-16.8c0,0,-38.2,-18.4,-65.7,-48.9c0,0,-27.5,-32.1,-41.3,-76.4c0,0,-15.2,-44.3,-15.2,-100.9L239.9,0Z" 
	id="f0_9"
	transform="scale(0.001,-0.001)" />

	<path d="M276.5,-10.6c0,0,-160.4,0,-160.4,180.2l0,539.3l-93.2,0l0,97.8l97.8,0l39.7,180.2l90.2,0l0,-180.2l148.2,0l0,-97.8l-148.2,0l0,-510.3c0,0,0,-58,18.3,-81c0,0,18.3,-22.9,65.7,-22.9c0,0,19.8,0,38.2,1.6c0,0,18.3,3,39.7,7.6l0,-99.3c0,0,-30.6,-6,-62.6,-10.6c0,0,-32.1,-4.6,-73.4,-4.6Z" 
	id="f0_a"
	transform="scale(0.001,-0.001)" />

	<path d="M670.7,174.2c0,0,51.9,0,96.2,22.9c0,0,44.4,24.4,79.5,61.1c0,0,36.7,38.2,62.6,87.1c0,0,26,50.4,39.8,102.3c0,0,6.1,27.5,10.6,56.6c0,0,6.2,30.5,6.2,51.9c0,0,0,38.2,-12.3,68.8c0,0,-12.2,32,-35.1,53.4c0,0,-24.4,23,-58.1,35.2c0,0,-33.6,12.2,-74.8,12.2c0,0,-64.2,0,-111.5,-30.6c0,0,-48.9,-32,-81,-84c0,0,-33.6,-51.9,-50.4,-116.1c0,0,-16.8,-64.2,-16.8,-129.9c0,0,0,-88.6,35.1,-139c0,0,36.7,-51.9,110,-51.9Zm39.7,-384.9c0,0,-140.5,0,-250.5,42.7c0,0,-110,42.8,-186.4,119.2c0,0,-76.4,76.3,-114.6,181.7c0,0,-39.7,107,-39.7,232.2c0,0,0,103.9,22.9,198.7c0,0,24.4,96.2,67.2,178.7c0,0,44.3,82.5,107,148.2c0,0,64.1,67.2,143.6,114.6c0,0,80.9,48.9,175.7,74.8c0,0,96.2,26,203.2,26c0,0,149.7,0,258.1,-44.3c0,0,110,-44.3,180.3,-117.6c0,0,71.8,-74.9,105.4,-172.7c0,0,35.2,-99.3,35.2,-209.3c0,0,0,-106.9,-24.5,-195.5c0,0,-25.9,-90.2,-68.7,-154.3c0,0,-44.3,-64.2,-105.4,-99.3c0,0,-62.7,-36.7,-134.5,-36.7c0,0,-41.2,0,-70.3,9.2c0,0,-30.5,10.7,-48.8,27.5c0,0,-18.4,18.3,-26,42.7c0,0,-9.2,24.5,-9.2,52c0,0,0,12.2,0,27.5c0,0,1.5,16.8,1.5,24.4l-4.5,0c0,0,-16.8,-33.6,-42.8,-65.7c0,0,-26,-33.6,-59.6,-59.6c0,0,-35.1,-25.9,-79.4,-41.2c0,0,-44.3,-16.8,-96.3,-16.8c0,0,-62.6,0,-108.5,21.4c0,0,-47.3,22.9,-77.9,61.1c0,0,-30.5,38.2,-44.3,90.1c0,0,-15.3,53.5,-15.3,114.6c0,0,0,90.2,26,172.7c0,0,26,82.5,74.9,145.1c0,0,50.4,62.6,119.1,100.8c0,0,68.8,38.2,154.3,38.2c0,0,44.3,0,79.5,-9.1c0,0,36.7,-10.7,64.2,-29.1c0,0,27.5,-18.3,47.3,-42.8c0,0,19.9,-24.4,33.6,-55l4.6,0l29,119.2l116.1,0l-87,-377.3c0,0,-13.8,-62.7,-19.9,-107c0,0,-7.6,-44.3,-7.6,-81c0,0,0,-36.6,15.2,-53.4c0,0,16.8,-16.8,45.9,-16.8c0,0,45.8,0,85.5,29c0,0,39.8,30.5,68.8,84c0,0,30.5,53.5,47.3,123.8c0,0,16.8,71.8,16.8,155.8c0,0,0,96.2,-30.5,178.7c0,0,-32.1,84.1,-91.7,143.7c0,0,-59.6,61.1,-148.2,94.7c0,0,-90.1,35.1,-206.2,35.1c0,0,-99.3,0,-183.4,-24.4c0,0,-85.5,-24.5,-154.3,-67.2c0,0,-68.7,-42.8,-120.7,-102.4c0,0,-51.9,-61.1,-87,-132.9c0,0,-35.2,-71.8,-52,-152.8c0,0,-18.3,-82.5,-18.3,-168.1c0,0,0,-105.4,32.1,-194c0,0,32.1,-88.6,93.2,-151.2c0,0,62.6,-62.6,152.7,-97.7c0,0,90.2,-36.7,207.8,-36.7c0,0,79.5,0,146.7,12.2c0,0,67.2,12.3,123.7,29.1c0,0,58.1,18.3,102.4,39.7c0,0,44.3,21.4,77.9,38.1l41.3,-82.4c0,0,-38.2,-21.4,-88.6,-44.3c0,0,-50.5,-24.5,-111.6,-44.3c0,0,-62.6,-19.9,-134.4,-32.1c0,0,-73.4,-12.2,-157.4,-12.2Z" 
	id="f0_c"
	transform="scale(0.001,-0.001)" />

	<path d="M76.4,0l0,94.7c0,0,38.2,87.1,91.7,152.8c0,0,55,67.2,116.1,120.7c0,0,61.1,55,119.1,100.8c0,0,59.6,45.9,107,91.7c0,0,48.9,47.4,77.9,97.8c0,0,29,50.4,29,114.6c0,0,0,45.8,-12.2,79.4c0,0,-13.7,33.6,-38.2,56.5c0,0,-26,22.9,-61.1,33.6c0,0,-36.7,12.3,-79.4,12.3c0,0,-41.3,0,-76.4,-10.7c0,0,-35.2,-10.7,-62.7,-32.1c0,0,-27.5,-22.9,-44.3,-56.5c0,0,-18.3,-33.7,-22.9,-78L82.5,791.4c0,0,6.1,56.5,30.6,105.4c0,0,24.4,50.4,67.2,87.1c0,0,44.3,38.2,105.4,59.6c0,0,61.1,22.9,140.6,22.9c0,0,77.9,0,139,-18.3c0,0,61.1,-19.9,102.3,-56.6c0,0,42.8,-36.6,65.7,-90.1c0,0,23,-53.5,23,-123.8c0,0,0,-51.9,-18.4,-99.3c0,0,-19.8,-48.9,-51.9,-91.6c0,0,-32.1,-44.3,-73.4,-84.1c0,0,-41.2,-39.7,-87,-77.9c0,0,-45.9,-39.7,-91.7,-76.4c0,0,-47.4,-38.2,-87.1,-76.4c0,0,-41.2,-38.1,-73.3,-76.3c0,0,-32.1,-39.8,-50.4,-82.5l548.4,0L771.5,0Z" 
	id="f0_d"
	transform="scale(0.001,-0.001)" />

	<path d="M423.2,94.7c0,0,53.5,0,96.2,21.4c0,0,42.8,21.4,71.9,71.8c0,0,29,50.4,44.3,132.9c0,0,16.8,84.1,16.8,204.8c0,0,0,125.2,-13.8,207.7c0,0,-15.3,84.1,-44.3,133c0,0,-29,50.4,-71.8,70.2c0,0,-42.8,19.9,-96.2,19.9c0,0,-56.6,0,-99.4,-19.9c0,0,-42.7,-21.4,-71.8,-70.2c0,0,-30.5,-50.5,-45.8,-133c0,0,-15.3,-84,-15.3,-207.7c0,0,0,-120.7,15.3,-203.2c0,0,15.3,-84.1,44.3,-134.5c0,0,30.6,-50.4,73.3,-71.8c0,0,42.8,-21.4,96.3,-21.4ZM421.7,-13.7c0,0,-76.4,0,-142.1,25.9c0,0,-67.2,27.5,-116.1,90.2c0,0,-48.9,64.1,-76.4,166.5c0,0,-27.5,103.9,-27.5,256.7c0,0,0,158.8,27.5,262.7c0,0,27.5,103.9,76.4,165c0,0,50.4,62.7,117.6,87.1c0,0,67.2,26,145.2,26c0,0,76.3,0,142,-24.5c0,0,65.7,-25.9,114.6,-87c0,0,48.9,-62.7,77.9,-166.6c0,0,29.1,-103.9,29.1,-262.7c0,0,0,-151.3,-29.1,-255.2c0,0,-29,-103.9,-77.9,-166.5c0,0,-50.4,-64.2,-117.6,-90.1c0,0,-67.2,-27.5,-143.6,-27.5Z" 
	id="f0_e"
	transform="scale(0.001,-0.001)" />

	<path d="M116.1,0l0,113.1l267.4,0l0,809.7L146.7,753.2l0,126.8l247.5,169.6l123.7,0l0,-936.5l256.7,0L774.6,0Z" 
	id="f0_f"
	transform="scale(0.001,-0.001)" />

	<path d="M438.5,93.2c0,0,47.3,0,85.5,16.8c0,0,39.8,16.8,65.7,47.4c0,0,27.5,32,41.3,77.9c0,0,13.7,45.8,13.7,102.3c0,0,0,53.5,-12.2,97.8c0,0,-13.7,44.3,-39.7,74.9c0,0,-27.5,30.5,-67.2,47.3c0,0,-39.8,16.8,-91.7,16.8c0,0,-36.7,0,-73.3,-10.6c0,0,-38.2,-10.7,-68.8,-33.7c0,0,-30.5,-24.4,-48.9,-64.1c0,0,-19.8,-39.7,-19.8,-96.3c0,0,0,-58,15.2,-108.4c0,0,15.3,-50.5,42.8,-87.1c0,0,29,-38.2,67.2,-59.6c0,0,39.8,-21.4,90.2,-21.4Zm4.6,-106.9c0,0,-93.2,0,-160.5,33.6c0,0,-68.7,35.1,-114.5,100.8c0,0,-45.9,65.7,-68.8,161.9c0,0,-22.9,96.3,-22.9,218.5c0,0,0,139,26,244.5c0,0,25.9,106.9,73.3,177.2c0,0,48.9,71.8,119.2,106.9c0,0,70.2,36.7,157.3,36.7c0,0,55,0,100.9,-10.7c0,0,47.3,-12.2,85.5,-36.7c0,0,38.2,-25.9,67.2,-65.7c0,0,29.1,-41.2,47.4,-100.8L624.9,828.1c0,0,-21.4,68.7,-67.3,97.7c0,0,-45.8,30.6,-106.9,30.6c0,0,-55,0,-99.3,-26c0,0,-44.3,-26,-74.9,-77.9c0,0,-32.1,-51.9,-48.9,-129.9c0,0,-16.8,-77.9,-16.8,-181.8c0,0,36.7,67.3,102.4,102.4c0,0,67.2,35.1,152.8,35.1c0,0,71.8,0,129.8,-22.9c0,0,58.1,-22.9,99.3,-65.7c0,0,41.3,-44.3,64.2,-106.9c0,0,22.9,-62.7,22.9,-139c0,0,0,-79.5,-21.4,-145.2c0,0,-22.9,-67.2,-65.7,-114.6c0,0,-42.7,-47.3,-105.4,-71.8c0,0,-64.1,-25.9,-146.6,-25.9Z" 
	id="f0_g"
	transform="scale(0.001,-0.001)" />

	<path d="M136,-193.9c0,0,33.6,47.3,51.9,96.2c0,0,18.4,50.4,18.4,97.7L140.6,0l0,161.9l145.1,0l0,-125.2c0,0,0,-36.7,-3.1,-68.7c0,0,-3,-33.6,-10.7,-61.1c0,0,-7.6,-29,-18.3,-53.5c0,0,-10.7,-24.4,-26,-47.3Z" 
	id="f0_h"
	transform="scale(0.001,-0.001)" />

	<path d="M140,0l0,1049l142,0L282,0Z" 
	id="f0_i"
	transform="scale(0.001,-0.001)" />

	<path d="M105.4,0l0,634c0,0,0,26,0,53.5c0,0,-1.5,27.5,-1.5,51.9c0,0,-1.5,26,-1.5,42.8c0,0,-1.6,18.4,-1.6,24.5l126.8,0c0,0,0,-4.6,0,-19.9c0,0,1.6,-16.8,3.1,-38.2c0,0,1.5,-21.4,1.5,-42.8c0,0,1.6,-22.9,1.6,-38.2l1.5,0c0,0,19.8,35.2,42.8,64.2c0,0,22.9,29,53.4,47.4c0,0,30.6,19.8,70.3,30.5c0,0,39.7,12.2,91.7,12.2c0,0,67.2,0,116.1,-16.8c0,0,48.9,-16.8,79.4,-50.4c0,0,32.1,-35.1,45.9,-88.6c0,0,15.2,-55,15.2,-128.3L750.1,0L614.2,0l0,510.3c0,0,0,59.6,-7.7,99.3c0,0,-9.1,39.7,-27.5,64.2c0,0,-19.8,24.4,-51.9,33.6c0,0,-32.1,10.7,-79.5,10.7c0,0,-47.3,0,-85.5,-16.8c0,0,-38.2,-16.9,-65.7,-48.9c0,0,-27.5,-32.1,-41.3,-78c0,0,-15.2,-47.3,-15.2,-106.9L239.9,0Z" 
	id="f0_j"
	transform="scale(0.001,-0.001)" />

	<path d="M134.4,0l0,708.9l-113,0l0,97.8l113,0l0,90.1c0,0,0,44.3,7.7,82.5c0,0,9.2,38.2,30.5,65.7c0,0,21.4,27.5,59.6,42.8c0,0,38.2,16.8,99.3,16.8c0,0,22.9,0,48.9,-1.5c0,0,26,-3.1,45.9,-7.7l0,-102.3c0,0,-13.8,3,-29.1,4.5c0,0,-16.8,1.6,-30.5,1.6c0,0,-30.6,0,-48.9,-7.7c0,0,-19.9,-7.6,-30.6,-22.9c0,0,-10.7,-15.3,-13.7,-38.2c0,0,-4.6,-22.9,-4.6,-51.9l0,-71.8l157.4,0l0,-97.8l-157.4,0L268.9,0Z" 
	id="f0_k"
	transform="scale(0.001,-0.001)" />

	<path d="M380.4,-13.7c0,0,-70.3,0,-126.8,9.2c0,0,-56.5,10.6,-97.8,33.5c0,0,-42.7,24.5,-71.8,62.7c0,0,-29,39.7,-42.7,97.7l119.1,23c0,0,16.8,-65.7,70.3,-94.8c0,0,55,-30.5,149.7,-30.5c0,0,42.8,0,79.5,4.6c0,0,36.6,6.1,62.6,19.8c0,0,26,15.3,39.7,39.8c0,0,15.3,24.4,15.3,61.1c0,0,0,36.6,-16.8,59.5c0,0,-18.3,23,-48.9,38.2c0,0,-30.5,16.8,-73.3,27.5c0,0,-44.3,12.3,-96.3,26c0,0,-48.9,13.8,-96.2,29c0,0,-47.4,15.3,-85.6,41.3c0,0,-38.2,26,-62.6,64.2c0,0,-24.5,38.2,-24.5,94.7c0,0,0,110,78,168c0,0,79.4,58.1,230.6,58.1c0,0,133,0,210.9,-45.8c0,0,79.4,-47.4,100.8,-151.3L572.9,606.5c0,0,-6.1,30.6,-24.4,52c0,0,-18.4,21.4,-42.8,33.6c0,0,-26,13.7,-58.1,19.8c0,0,-32,6.2,-65.7,6.2c0,0,-91.6,0,-134.4,-27.5c0,0,-42.8,-27.5,-42.8,-84.1c0,0,0,-33.6,15.3,-53.4c0,0,16.8,-21.4,44.3,-35.2c0,0,29,-15.3,68.8,-26c0,0,41.2,-12.2,90.1,-22.9c0,0,32.1,-9.1,65.7,-18.3c0,0,33.6,-9.2,64.2,-21.4c0,0,32,-13.7,59.5,-30.5c0,0,29.1,-18.4,48.9,-42.8c0,0,21.4,-24.5,33.6,-56.6c0,0,12.3,-33.6,12.3,-77.9c0,0,0,-56.5,-21.4,-100.8c0,0,-21.4,-44.3,-62.7,-73.3c0,0,-42.7,-30.6,-103.9,-45.9c0,0,-61.1,-15.2,-139,-15.2Z" 
	id="f0_l"
	transform="scale(0.001,-0.001)" />

	<path d="M125,0l0,1049l142,0l0,-933l530,0L797,0Z" 
	id="f0_m"
	transform="scale(0.001,-0.001)" />

	<path d="M105.4,0l0,634c0,0,0,26,0,53.5c0,0,-1.5,27.5,-1.5,51.9c0,0,-1.5,26,-1.5,42.8c0,0,-1.6,18.4,-1.6,24.5l126.8,0c0,0,0,-4.6,0,-19.9c0,0,1.6,-16.8,3.1,-38.2c0,0,1.5,-21.4,1.5,-42.8c0,0,1.6,-22.9,1.6,-38.2l1.5,0c0,0,18.3,35.2,38.2,64.2c0,0,21.4,29,48.9,47.4c0,0,29,19.8,64.1,30.5c0,0,36.7,12.2,85.6,12.2c0,0,91.7,0,143.6,-36.6c0,0,53.5,-36.7,74.9,-117.7l3,0c0,0,16.8,35.2,39.7,64.2c0,0,23,29,52,47.4c0,0,30.5,19.8,67.2,30.5c0,0,38.2,12.2,85.6,12.2c0,0,61.1,0,105.4,-16.8c0,0,44.3,-16.8,71.8,-50.4c0,0,29,-35.1,42.8,-88.6c0,0,13.7,-55,13.7,-128.3L1171.8,0L1038.9,0l0,510.3c0,0,0,59.6,-7.6,99.3c0,0,-7.7,39.7,-24.5,64.2c0,0,-18.3,24.4,-45.8,33.6c0,0,-29.1,10.7,-70.3,10.7c0,0,-42.8,0,-76.4,-15.3c0,0,-35.1,-16.8,-58,-47.4c0,0,-24.5,-32.1,-38.2,-79.4c0,0,-13.8,-47.4,-13.8,-108.5L704.3,0L571.4,0l0,510.3c0,0,0,59.6,-6.1,99.3c0,0,-7.7,39.7,-24.5,64.2c0,0,-18.3,24.4,-45.8,33.6c0,0,-29,10.7,-70.3,10.7c0,0,-42.8,0,-76.4,-16.8c0,0,-35.1,-16.9,-59.5,-48.9c0,0,-24.5,-32.1,-36.7,-78c0,0,-13.8,-47.3,-13.8,-106.9L238.3,0Z" 
	id="f0_n"
	transform="scale(0.001,-0.001)" />

	<path d="M641.7,476.7c0,0,-10.7,128.3,-64.2,186.4c0,0,-53.5,59.5,-154.3,59.5c0,0,-33.6,0,-70.3,-10.7c0,0,-36.6,-12.2,-67.2,-39.7c0,0,-32.1,-27.5,-53.5,-74.8c0,0,-22.9,-47.4,-25.9,-120.7ZM430.8,-13.7c0,0,-178.7,0,-271.9,105.4c0,0,-94.7,105.4,-94.7,316.2c0,0,0,113.1,27.5,191c0,0,29,79.4,77.9,128.3c0,0,50.4,50.4,114.6,71.8c0,0,65.7,22.9,140.5,22.9c0,0,102.4,0,169.6,-32c0,0,68.8,-33.6,110,-91.7c0,0,41.3,-58.1,58.1,-136c0,0,18.3,-79.4,18.3,-169.6l0,-18.3l-576,0c0,0,0,-62.6,12.2,-116.1c0,0,13.8,-53.5,41.3,-91.7c0,0,27.5,-39.7,70.3,-59.6c0,0,42.8,-21.3,102.3,-21.3c0,0,87.1,0,139.1,35.1c0,0,53.4,35.1,71.8,88.6L759.3,175.7c0,0,-12.2,-33.6,-35.1,-67.2c0,0,-22.9,-35.2,-61.1,-61.1c0,0,-38.2,-27.5,-94.8,-44.3c0,0,-58,-16.8,-137.5,-16.8Z" 
	id="f0_o"
	transform="scale(0.001,-0.001)" />

	<path d="M394.2,88.6c0,0,53.4,0,93.2,16.8c0,0,41.2,16.8,68.7,55c0,0,27.5,38.2,41.3,99.3c0,0,13.7,62.7,13.7,152.8c0,0,0,85.6,-13.7,145.1c0,0,-13.8,59.6,-41.3,96.3c0,0,-27.5,36.7,-67.2,51.9c0,0,-41.3,16.8,-93.2,16.8c0,0,-48.9,0,-84,-16.8c0,0,-36.7,-18.3,-59.6,-56.5c0,0,-24.5,-38.2,-35.2,-97.8c0,0,-12.2,-61.1,-12.2,-148.2c0,0,0,-84,9.2,-143.6c0,0,10.7,-59.6,33.6,-97.8c0,0,24.4,-38.1,59.6,-55c0,0,36.7,-18.3,87.1,-18.3ZM360.6,-13.7c0,0,-152.8,0,-224.6,100.8c0,0,-73.4,102.3,-73.4,311.7c0,0,0,423.1,298,423.1c0,0,91.6,0,152.7,-33.6c0,0,61.1,-33.6,97.8,-106.9l1.5,0c0,0,0,7.6,0,22.9c0,0,0,16.8,0,33.6c0,0,-1.5,18.4,-1.5,33.6c0,0,0,15.3,0,22.9l0,311.7l134.5,0l0,-941.1c0,0,0,-29,0,-55c0,0,1.5,-27.5,1.5,-48.9c0,0,1.5,-22.9,1.5,-38.2c0,0,1.5,-16.8,1.5,-22.9L621.8,0c0,0,-1.5,6.1,-1.5,19.9c0,0,-1.5,13.7,-3.1,32c0,0,-1.5,18.4,-1.5,38.2c0,0,-1.5,19.9,-1.5,38.2l-3.1,0c0,0,-36.7,-76.4,-97.8,-108.4c0,0,-62.6,-33.6,-152.7,-33.6Z" 
	id="f0_p"
	transform="scale(0.001,-0.001)" />

	<path d="M546.9,618.8c0,0,90.2,0,129.9,33.6c0,0,39.7,33.6,39.7,110c0,0,0,76.4,-39.7,108.4c0,0,-39.7,33.6,-129.9,33.6l-120.6,0l0,-285.6ZM139,0l0,1113.8l438.5,0c0,0,220,0,322.4,-73.4c0,0,103.9,-74.8,103.9,-235.3c0,0,0,-110,-53.5,-180.2c0,0,-53.5,-71.8,-160.4,-105.5c0,0,58,-12.2,103.9,-59.5c0,0,47.3,-47.4,94.7,-143.6L1144.3,0L838.8,0l-136,276.5c0,0,-39.7,82.5,-82.5,113.1c0,0,-42.8,30.5,-111.5,30.5l-82.5,0L426.3,0Z" 
	id="f1_b"
	transform="scale(0.001,-0.001)" />

	<path d="M687.5,508.8c0,0,0,74.8,-44.3,120.6c0,0,-44.3,47.4,-116.1,47.4c0,0,-77.9,0,-126.8,-42.8c0,0,-48.9,-44.3,-59.6,-125.2ZM542.4,-21.3c0,0,-226.1,0,-351.4,114.5c0,0,-126.8,114.6,-126.8,322.4c0,0,0,204.7,123.7,322.3c0,0,123.8,117.7,340.7,117.7c0,0,197.1,0,314.7,-119.2c0,0,117.7,-119.2,117.7,-317.8l0,-74.8l-623.4,0c0,0,9.2,-94.8,67.3,-140.6c0,0,58,-47.4,163.4,-47.4c0,0,84.1,0,171.1,24.5c0,0,88.7,24.4,183.4,74.8l0,-204.7c0,0,-96.3,-36.6,-191,-53.4c0,0,-94.7,-18.3,-189.4,-18.3Z" 
	id="f1_c"
	transform="scale(0.001,-0.001)" />

	<path d="M160.4,0l0,643.2L29,643.2l0,191l131.4,0l0,58c0,0,0,137.5,76.4,201.7c0,0,76.4,65.7,236.8,65.7l203.2,0l0,-174.2l-146.7,0c0,0,-56.5,0,-79.4,-19.8c0,0,-22.9,-21.4,-22.9,-73.4l0,-58l229.1,0l0,-191l-229.1,0L427.8,0Z" 
	id="f1_z"
	transform="scale(0.001,-0.001)" />

	<path d="M126.8,0l0,834.2l267.4,0l0,-136c0,0,51.9,81,117.6,119.2c0,0,67.2,38.2,160.4,38.2c0,0,13.8,0,29.1,-1.6c0,0,16.8,-1.5,45.8,-4.6l1.5,-242.9c0,0,-35.1,16.8,-70.3,24.5c0,0,-35.1,7.6,-70.2,7.6c0,0,-102.4,0,-157.4,-65.7c0,0,-56.5,-65.7,-56.5,-189.4L394.2,0Z" 
	id="f1_k"
	transform="scale(0.001,-0.001)" />

	<path d="M443.1,0c0,0,-158.9,0,-224.6,65.7c0,0,-65.7,65.7,-65.7,223.1l0,354.4l-132.9,0l0,191l132.9,0l0,238.3l265.8,0l0,-238.3l276.5,0l0,-191l-276.5,0l0,-354.4c0,0,0,-58.1,22.9,-78c0,0,24.5,-21.4,93.2,-21.4l136,0L670.7,0Z" 
	id="f1_s"
	transform="scale(0.001,-0.001)" />

	<path d="M525.6,168.1c0,0,87,0,132.9,64.1c0,0,45.8,64.2,45.8,183.4c0,0,0,120.7,-45.8,184.8c0,0,-45.9,64.2,-132.9,64.2c0,0,-88.7,0,-134.5,-64.2c0,0,-47.3,-64.1,-47.3,-184.8c0,0,0,-119.2,45.8,-183.4c0,0,47.3,-64.1,136,-64.1Zm0,-189.4c0,0,-217,0,-339.2,116c0,0,-122.2,116.1,-122.2,320.9c0,0,0,206.2,122.2,322.3c0,0,122.2,117.7,339.2,117.7c0,0,215.4,0,336.1,-116.2c0,0,122.2,-117.6,122.2,-323.8c0,0,0,-204.8,-120.7,-320.9c0,0,-122.2,-116,-337.6,-116Z" 
	id="f1_g"
	transform="scale(0.001,-0.001)" />

	<path d="M169,0l0,287l271,0L440,0Zm0,545l0,289l271,0l0,-289Z" 
	id="f1_12"
	transform="scale(0.001,-0.001)" />

	<path d="M137.5,0l0,1159.6l139,0l0,-455.3c0,0,48.9,76.4,114.6,113.1c0,0,67.2,38.2,154.3,38.2c0,0,145.2,0,218.5,-88.7c0,0,73.3,-90.1,73.3,-262.7L837.2,0L699.7,0l0,499.6c0,0,0,117.6,-45.8,175.7c0,0,-45.8,59.6,-139,59.6c0,0,-110,0,-174.2,-70.3c0,0,-64.2,-70.3,-64.2,-192.5L276.5,0Z" 
	id="f2_3"
	transform="scale(0.001,-0.001)" />

	<path d="M420.1,0c0,0,-158.8,0,-218.4,58.1c0,0,-61.1,59.5,-61.1,216.9l0,453.8l-100.9,0l0,105.4l100.9,0l0,238.3l139,0l0,-238.3l282.6,0l0,-105.4l-282.6,0l0,-453.8c0,0,0,-102.4,27.5,-131.4c0,0,27.5,-29,113,-29l142.1,0L562.2,0Z" 
	id="f2_c"
	transform="scale(0.001,-0.001)" />

	<path d="M508.8,93.2c0,0,110,0,171.1,85.6c0,0,62.6,85.5,62.6,236.8c0,0,0,152.7,-61.1,238.3c0,0,-62.6,85.5,-172.6,85.5c0,0,-108.5,0,-169.6,-85.5c0,0,-62.7,-85.6,-62.7,-238.3c0,0,0,-151.3,61.1,-236.8c0,0,62.7,-85.6,171.2,-85.6ZM137.5,-317.7l0,1151.9l139,0l0,-126.8c0,0,42.8,74.8,108.5,111.5c0,0,65.7,36.7,157.4,36.7c0,0,152.7,0,247.5,-120.7c0,0,96.2,-122.3,96.2,-319.3c0,0,0,-195.6,-94.7,-316.3c0,0,-96.3,-120.6,-249,-120.6c0,0,-91.7,0,-157.4,35.1c0,0,-65.7,36.6,-108.5,111.5l0,-443Z" 
	id="f2_f"
	transform="scale(0.001,-0.001)" />

	<path d="M375.8,-21.3c0,0,-67.2,0,-140.5,12.2c0,0,-73.4,12.2,-152.8,39.7l0,140.5c0,0,76.4,-39.7,149.7,-58c0,0,73.4,-19.9,146.7,-19.9c0,0,96.2,0,148.2,32.1c0,0,51.9,33.6,51.9,94.7c0,0,0,55,-36.6,84c0,0,-38.2,30.6,-165,58.1l-48.9,12.2c0,0,-126.8,26,-183.4,81c0,0,-56.5,56.5,-56.5,152.8c0,0,0,119.1,82.5,183.3c0,0,84,64.2,238.3,64.2c0,0,74.9,0,142.1,-10.7c0,0,67.3,-12.3,123.8,-35.2l0,-129.8c0,0,-58.1,30.5,-120.7,44.3c0,0,-62.7,15.2,-129.9,15.2c0,0,-102.3,0,-152.8,-30.5c0,0,-50.4,-32.1,-50.4,-94.7c0,0,0,-47.4,35.2,-74.9c0,0,36.6,-27.5,148.2,-51.9l45.8,-10.7c0,0,146.7,-30.6,207.8,-87.1c0,0,62.6,-58.1,62.6,-160.4c0,0,0,-116.1,-91.7,-183.4c0,0,-93.1,-67.1,-253.6,-67.1Z" 
	id="f2_b"
	transform="scale(0.001,-0.001)" />

	<path d="M178,0l0,189l158,0L336,0Zm0,600l0,189l158,0l0,-189Z" 
	id="f2_11"
	transform="scale(0.001,-0.001)" />

	<path d="M0,-140.5L386.5,1113.8l126.8,0L126.8,-140.5Z" 
	id="f2_16"
	transform="scale(0.001,-0.001)" />

	<path d="M282.6,0L62.6,834.2l137.5,0L372.8,183.3L542.4,834.2l161.9,0L876.9,183.3l171.2,650.9l135.9,0L965.6,0l-162,0L624.9,684.4L444.6,0Z" 
	id="f2_k"
	transform="scale(0.001,-0.001)" />

	<path d="M161,0l0,189l158,0L319,0Z" 
	id="f2_o"
	transform="scale(0.001,-0.001)" />

	<path d="M120.7,-317.7l0,116.1l79.4,0c0,0,56.6,0,87.1,26c0,0,32.1,27.5,70.3,126.8l24.4,61L44.3,834.2l145.1,0L450.7,181.8L711.9,834.2l146.7,0L490.4,-76.3c0,0,-58,-149.7,-113,-195.5c0,0,-55,-45.9,-148.2,-45.9Z" 
	id="f2_j"
	transform="scale(0.001,-0.001)" />

	<path d="M467.5,94.7c0,0,108.5,0,172.6,85.6c0,0,64.2,87.1,64.2,235.3c0,0,0,149.7,-64.2,235.2c0,0,-64.1,87.1,-172.6,87.1c0,0,-111.5,0,-175.7,-85.5c0,0,-64.2,-85.6,-64.2,-236.8c0,0,0,-149.8,64.2,-235.3c0,0,64.2,-85.6,175.7,-85.6Zm0,-116c0,0,-180.3,0,-281.1,116C186.4,94.7,84,210.8,84,415.6c0,0,0,206.2,100.9,322.3c0,0,102.3,117.7,282.6,117.7c0,0,178.8,0,281.1,-116.2c0,0,102.4,-117.6,102.4,-323.8c0,0,0,-204.8,-102.4,-320.9c0,0,-102.3,-116,-281.1,-116Z" 
	id="f2_e"
	transform="scale(0.001,-0.001)" />

	<path d="M421.7,-21.3c0,0,-143.6,0,-218.5,88.5L128.3,328.5l0,505.7l137.5,0l0,-499.6c0,0,0,-119.2,45.9,-178.8c0,0,47.3,-59.5,139,-59.5c0,0,111.5,0,175.7,70.2c0,0,65.7,71.8,65.7,194.1l0,473.6l136,0L828.1,0l-136,0l0,126.8c0,0,-50.4,-74.9,-116.1,-111.5c0,0,-67.2,-36.6,-154.3,-36.6Z" 
	id="f2_h"
	transform="scale(0.001,-0.001)" />

	<path d="M508.8,93.2c0,0,110,0,171.1,85.6c0,0,62.6,85.5,62.6,236.8c0,0,0,152.7,-61.1,238.3c0,0,-62.6,85.5,-172.6,85.5c0,0,-108.5,0,-169.6,-85.5c0,0,-62.7,-85.6,-62.7,-238.3c0,0,0,-151.3,61.1,-236.8c0,0,62.7,-85.6,171.2,-85.6ZM542.4,-21.3c0,0,-91.7,0,-157.4,35.1c0,0,-65.7,36.6,-108.5,111.5L276.5,0l-139,0l0,1159.6l139,0l0,-452.2c0,0,42.8,74.8,108.5,111.5c0,0,65.7,36.7,157.4,36.7c0,0,152.7,0,247.5,-120.7c0,0,96.2,-122.3,96.2,-319.3c0,0,0,-195.6,-94.7,-316.3c0,0,-96.3,-120.6,-249,-120.6Z" 
	id="f2_q"
	transform="scale(0.001,-0.001)" />

	<path d="M230.7,490.4l490.4,1.5c0,0,-1.5,111.6,-62.6,178.8c0,0,-62.7,67.2,-163.5,67.2c0,0,-114.6,0,-183.3,-64.1c0,0,-70.3,-65.7,-81,-183.4ZM516.4,-21.3c0,0,-198.6,0,-314.7,116C201.7,94.7,84,210.8,84,409.4c0,0,0,204.8,110,325.5c0,0,111.6,120.7,299.5,120.7c0,0,168,0,265.8,-108.5c0,0,99.3,-110,99.3,-296.4l0,-67.2l-632.5,0c0,0,9.2,-140.6,85.6,-213.9c0,0,76.4,-74.9,213.9,-74.9c0,0,77.9,0,152.7,18.4c0,0,74.9,19.8,148.2,58l0,-129.8c0,0,-74.8,-30.6,-151.2,-45.8c0,0,-77.9,-16.8,-158.9,-16.8Z" 
	id="f2_4"
	transform="scale(0.001,-0.001)" />

	<path d="M495,-21.3c0,0,-189.4,0,-299.4,117.6C195.6,96.3,84,215.4,84,415.6c0,0,0,204.7,111.6,322.3c0,0,113,117.7,308.6,117.7c0,0,62.6,0,122.2,-13.8c0,0,61.1,-13.7,117.6,-39.7l0,-128.3c0,0,-58,32,-116.1,47.3c0,0,-58,16.8,-119.1,16.8c0,0,-133,0,-206.3,-84c0,0,-74.9,-84,-74.9,-238.3c0,0,0,-152.8,73.4,-236.8c0,0,74.8,-84.1,207.8,-84.1c0,0,61.1,0,119.1,15.3c0,0,58.1,16.8,116.1,48.9L744,30.6c0,0,-56.5,-26,-117.6,-38.1c0,0,-62.6,-13.8,-131.4,-13.8Z" 
	id="f2_t"
	transform="scale(0.001,-0.001)" />

	<path d="M137.5,0l0,834.2l139,0l0,-129.9c0,0,45.9,77.9,111.6,114.6c0,0,65.7,36.7,155.8,36.7c0,0,91.7,0,154.3,-45.9c0,0,64.2,-47.3,96.2,-135.9c0,0,50.5,93.1,122.3,137.5c0,0,71.8,44.3,168,44.3c0,0,131.4,0,201.7,-91.7c0,0,71.8,-91.7,71.8,-259.7L1358.2,0l-139,0l0,499.6c0,0,0,119.2,-41.3,177.2c0,0,-42.8,58.1,-129.8,58.1c0,0,-107,0,-168.1,-70.3c0,0,-62.6,-70.3,-62.6,-192.5L817.4,0L678.3,0l0,499.6c0,0,0,120.7,-41.2,177.2c0,0,-42.8,58.1,-131.4,58.1c0,0,-105.4,0,-166.5,-70.3c0,0,-62.7,-71.8,-62.7,-192.5L276.5,0Z" 
	id="f2_8"
	transform="scale(0.001,-0.001)" />

	<path d="M407.9,93.2c0,0,113.1,0,181.8,79.4c0,0,70.3,81,70.3,215.5l0,30.5l-137.5,0c0,0,-166.5,0,-230.7,-36.7c0,0,-64.2,-38.1,-64.2,-129.8c0,0,0,-73.3,47.4,-116.1c0,0,48.9,-42.8,132.9,-42.8ZM371.3,-21.3c0,0,-128.4,0,-203.2,71.7c0,0,-76.4,71.8,-76.4,192.5c0,0,0,140.6,93.2,212.4c0,0,94.7,71.8,282.6,71.8l192.5,0l0,13.7c0,0,0,94.8,-62.6,145.2c0,0,-62.7,51.9,-175.7,51.9c0,0,-71.8,0,-139.1,-16.8c0,0,-67.2,-16.8,-129.8,-51.9l0,126.8c0,0,74.8,30.5,145.1,44.3c0,0,71.8,15.3,139,15.3c0,0,180.3,0,268.9,-93.2c0,0,90.2,-94.8,90.2,-285.7L796,0L660,0l0,126.8c0,0,-47.4,-76.4,-117.6,-111.5c0,0,-70.3,-36.6,-171.1,-36.6Z" 
	id="f2_6"
	transform="scale(0.001,-0.001)" />

	<path d="M290.3,0l0,189.4l152.8,0L443.1,0Zm4.6,297.9l0,114.6c0,0,0,76.4,21.4,123.8c0,0,21.3,48.8,88.6,113l67.2,67.2c0,0,41.2,39.8,59.6,74.9c0,0,19.8,35.1,19.8,70.3c0,0,0,67.2,-48.9,108.4c0,0,-48.8,41.3,-128.3,41.3c0,0,-59.6,0,-125.3,-26c0,0,-67.2,-27.5,-140.5,-76.4l0,140.6c0,0,70.3,41.2,142.1,62.6c0,0,71.8,21.4,149.7,21.4c0,0,137.5,0,220,-71.8c0,0,82.5,-73.3,82.5,-192.5c0,0,0,-56.5,-26,-106.9c0,0,-27.5,-52,-94.7,-116.1L516.4,582.1c0,0,-35.1,-35.2,-48.9,-53.5c0,0,-15.3,-19.8,-21.4,-39.7c0,0,-3,-15.3,-4.6,-36.7c0,0,-3,-22.9,-3,-62.6l0,-91.7Z" 
	id="f2_x"
	transform="scale(0.001,-0.001)" />

	<path d="M357.5,0L44.3,834.2l145.1,0L450.7,132.9L711.9,834.2l146.7,0L543.9,0Z" 
	id="f2_i"
	transform="scale(0.001,-0.001)" />

	<path d="M160,261l0,127l956,0l0,-127Zm0,307l0,125l956,0l0,-125Z" 
	id="f2_1l"
	transform="scale(0.001,-0.001)" />

	<path d="M-13,-359l0,106l790,0l0,-106Z" 
	id="f2_20"
	transform="scale(0.001,-0.001)" />

	<path d="M389,0l0,985L-3,985l0,128l939,0l0,-128l-396,0L540,0Z" 
	id="f2_2"
	transform="scale(0.001,-0.001)" />

	<path d="M504.2,96.3c0,0,100.8,0,160.4,70.2c0,0,59.6,70.3,59.6,189.5c0,0,0,120.7,-59.6,189.4c0,0,-59.6,70.3,-160.4,70.3c0,0,-102.4,0,-160.4,-68.8c0,0,-59.6,-70.2,-59.6,-190.9c0,0,0,-119.2,58,-189.5c0,0,59.6,-70.2,162,-70.2Zm0,-117.6c0,0,-194.1,0,-296.4,146.6c0,0,-102.4,148.2,-102.4,429.3c0,0,0,264.3,125.3,421.7c0,0,125.3,157.3,337.6,157.3c0,0,56.6,0,113.1,-10.7c0,0,58,-12.2,120.7,-35.1l0,-136c0,0,-56.5,26,-113.1,39.7c0,0,-58,15.3,-116.1,15.3c0,0,-148.2,0,-226.1,-100.8c0,0,-79.4,-100.9,-91.7,-304.1c0,0,44.3,64.2,110,97.8c0,0,67.3,35.2,146.7,35.2c0,0,168.1,0,265.8,-100.9c0,0,97.8,-102.3,97.8,-278c0,0,0,-171.1,-100.8,-273.5c0,0,-102.4,-103.8,-270.4,-103.8Z" 
	id="f2_1o"
	transform="scale(0.001,-0.001)" />

	<path d="M67.2,0l0,114.6L771.5,985.4l-685.9,0l0,128.4l873.8,0l0,-116.2L255.1,126.8l722.7,0L977.8,0Z" 
	id="f2_1v"
	transform="scale(0.001,-0.001)" />

	<path d="M436.9,0L10.7,1113.8l157.4,0L521,175.7l354.4,938.1l155.9,0L606.5,0Z" 
	id="f2_29"
	transform="scale(0.001,-0.001)" />

	<path d="M137.5,0l0,1159.6l139,0l0,-684.5L686,834.2l174.1,0L417.1,444.6L880,0L699.7,0L276.5,407.9L276.5,0Z" 
	id="f2_l"
	transform="scale(0.001,-0.001)" />

	<path d="M328.5,0L50.4,1113.8l151.3,0L436.9,171.1l232.3,942.7l169.6,0L1074,171.1l232.3,942.7l154.3,0L1179.4,0L990,0L756.3,965.6L517.9,0Z" 
	id="f2_1x"
	transform="scale(0.001,-0.001)" />

	<path d="M64.2,0l0,125.3L580.6,725.7L84,725.7l0,108.5l650.9,0l0,-125.3L220,108.5l514.9,0L734.9,0Z" 
	id="f2_1q"
	transform="scale(0.001,-0.001)" />

	<path d="M601.9,99.3c0,0,163.5,0,258.2,122.2c0,0,96.3,123.8,96.3,333.1c0,0,0,210.8,-94.7,333c0,0,-96.3,123.8,-259.8,123.8c0,0,-165,0,-261.2,-122.2c0,0,-96.3,-123.8,-96.3,-334.6c0,0,0,-209.3,96.3,-331.5c0,0,96.2,-123.8,261.2,-123.8ZM828.1,-195.5L664.6,-18.2c0,0,-26,-1.6,-38.2,-1.6c0,0,-13.8,-1.5,-24.5,-1.5c0,0,-235.2,0,-375.8,155.7c0,0,-140.5,157.4,-140.5,420.2c0,0,0,264.3,140.5,421.7c0,0,140.6,157.3,375.8,157.3c0,0,233.8,0,372.8,-157.3c0,0,140.6,-157.4,140.6,-421.7c0,0,0,-194,-77.9,-331.5c0,0,-78,-137.5,-224.6,-203.2l198.6,-215.4Z" 
	id="f2_2b"
	transform="scale(0.001,-0.001)" />

	<path d="M149,0l0,1113l150,0L299,0Z" 
	id="f2_14"
	transform="scale(0.001,-0.001)" />

	<path d="M352.9,-200c0,0,-111.5,174.1,-166.5,342.1c0,0,-56.5,169.6,-56.5,336.1c0,0,0,166.5,55,334.6c0,0,56.5,169.6,168,345.3l120.7,0c0,0,-100.8,-171.2,-148.2,-339.2c0,0,-48.9,-168.1,-48.9,-340.7c0,0,0,-171.1,48.9,-339.2c0,0,48.9,-169.5,148.2,-339Z" 
	id="f2_1s"
	transform="scale(0.001,-0.001)" />

	<path d="M481.3,123.8c0,0,230.6,0,337.6,103.8c0,0,106.9,103.9,106.9,330c0,0,0,223.1,-106.9,327c0,0,-107,103.9,-337.6,103.9l-181.9,0l0,-864.7ZM149.7,0l0,1113.8l308.6,0c0,0,323.9,0,475.2,-134.5c0,0,151.2,-136,151.2,-421.7c0,0,0,-288.7,-151.2,-423.2C933.5,134.4,780.7,0,458.3,0Z" 
	id="f2_1n"
	transform="scale(0.001,-0.001)" />

	<path d="M137.5,0l0,834.2l139,0l0,-129.9c0,0,42.8,76.4,111.6,113.1c0,0,70.2,38.2,169.5,38.2c0,0,13.8,0,30.6,-1.6c0,0,16.8,-3,38.2,-6.1l1.5,-142.1c0,0,-24.4,13.8,-50.4,19.9c0,0,-27.5,6.1,-61.1,6.1c0,0,-116.1,0,-177.2,-74.9c0,0,-62.7,-76.3,-62.7,-216.9l0,-440Z" 
	id="f2_d"
	transform="scale(0.001,-0.001)" />

	<path d="M143,0l0,834l138,0L281,0Zm0,985l0,174l138,0l0,-174Z" 
	id="f2_9"
	transform="scale(0.001,-0.001)" />

	<path d="M137.5,0l0,834.2l139,0l0,-129.9c0,0,48.9,76.4,114.6,113.1c0,0,67.2,38.2,154.3,38.2c0,0,145.2,0,218.5,-88.7c0,0,73.3,-90.1,73.3,-262.7L837.2,0L699.7,0l0,499.6c0,0,0,117.6,-45.8,175.7c0,0,-45.8,59.6,-139,59.6c0,0,-110,0,-174.2,-70.3c0,0,-64.2,-70.3,-64.2,-192.5L276.5,0Z" 
	id="f2_a"
	transform="scale(0.001,-0.001)" />

	<path d="M279.6,0L660,985.4l-534.7,0l0,128.4l715,0l0,-64.2L436.9,0Z" 
	id="f2_2c"
	transform="scale(0.001,-0.001)" />

	<path d="M111.5,0l0,126.8c0,0,85.6,88.6,233.8,236.8c0,0,148.2,149.7,186.4,194c0,0,71.8,81,100.8,137.5c0,0,29,56.6,29,110c0,0,0,88.7,-62.6,145.2c0,0,-62.6,56.5,-162,56.5c0,0,-71.8,0,-149.7,-24.4c0,0,-79.4,-26,-168,-74.9l0,151.3c0,0,90.1,36.6,169.6,55c0,0,79.4,19.8,145.1,19.8c0,0,172.6,0,275,-87.1c0,0,103.9,-87.1,103.9,-230.7c0,0,0,-68.7,-26,-129.8c0,0,-26,-62.7,-93.2,-145.2c0,0,-19.8,-22.9,-119.2,-125.2c0,0,-99.3,-103.9,-282.6,-288.8l527.1,0L818.9,0Z" 
	id="f2_1b"
	transform="scale(0.001,-0.001)" />

	<path d="M467.5,495c0,0,100.8,0,160.4,68.8c0,0,59.6,70.2,59.6,190.9c0,0,0,119.2,-59.6,189.5c0,0,-59.6,70.2,-160.4,70.2c0,0,-102.4,0,-160.4,-70.2c0,0,-59.6,-70.3,-59.6,-189.5c0,0,0,-120.7,58.1,-189.4c0,0,59.5,-70.3,161.9,-70.3ZM403.3,-21.3c0,0,-56.5,0,-114.5,10.7c0,0,-59.6,10.6,-122.3,33.5l0,136c0,0,56.6,-26,114.6,-39.7c0,0,59.6,-15.3,114.6,-15.3c0,0,149.7,0,227.6,100.8c0,0,79.5,100.9,90.2,304.1c0,0,-42.8,-64.2,-108.5,-97.8c0,0,-67.2,-33.6,-148.2,-33.6c0,0,-166.5,0,-264.3,100.8c0,0,-97.8,100.8,-97.8,276.5c0,0,0,171.1,100.9,275c0,0,102.3,103.9,271.9,103.9c0,0,192.5,0,293.3,-148.2c0,0,102.4,-148.2,102.4,-430.8c0,0,0,-262.8,-123.8,-418.6c0,0,-125.2,-157.3,-336.1,-157.3Z" 
	id="f2_1p"
	transform="scale(0.001,-0.001)" />

	<path d="M122.2,-200c0,0,99.3,169.5,146.7,337.5c0,0,48.9,169.6,48.9,340.7c0,0,0,172.6,-47.4,340.7c0,0,-48.9,168,-148.2,339.2l119.2,0c0,0,111.5,-175.7,166.5,-343.8c0,0,56.5,-169.6,56.5,-336.1c0,0,0,-166.5,-55,-334.6c0,0,-56.5,-169.5,-168,-343.6Z" 
	id="f2_1t"
	transform="scale(0.001,-0.001)" />

	<path d="M143,0l0,1159l138,0L281,0Z" 
	id="f2_m"
	transform="scale(0.001,-0.001)" />


</defs>
</svg>