<?xml version="1.0" encoding="UTF-8" standalone="no"?>
<!DOCTYPE svg PUBLIC "-//W3C//DTD SVG 1.1//EN"
"http://www.w3.org/Graphics/SVG/1.1/DTD/svg11.dtd">
<svg viewBox="0 0 1210 1045" version="1.1" xmlns="http://www.w3.org/2000/svg" xmlns:xlink="http://www.w3.org/1999/xlink">
<defs>
<style type="text/css"><![CDATA[
.g3_27{
fill: none;
stroke: #CEDAE4;
stroke-width: 2;
stroke-linecap: butt;
stroke-linejoin: miter;
stroke-miterlimit: 7;
stroke-opacity: 0.9;
}
.g5_27{
fill: none;
stroke: #FFFFFF;
stroke-width: 2;
stroke-linecap: butt;
stroke-linejoin: miter;
stroke-miterlimit: 7;
}
.g2_27{
fill: #CEDAE4;
fill-opacity: 0.9;
}
.g4_27{
fill: #418AB3;
}
.g1_27{
fill: #FFFFFF;
}
]]></style>
</defs>
<path fill-rule="evenodd" d="M0,0L1210,0l0,1045L0,1045L0,0Z" class="g1_27" />
<path fill-rule="evenodd" d="M0,0L1210,0l0,1045L0,1045L0,0Z" class="g1_27" />
<image x="828" y="984" width="334" height="49" xlink:href="img/1.png" />
<path fill-rule="evenodd" d="M381.8,51.8l575,0l0,-33.5l134,133.9l-134,134l0,-33.7l-575,0l0,-200.7Z" class="g2_27" />
<path d="M381.8,51.8l575,0l0,-33.5l134,133.9l-134,134l0,-33.7l-575,0l0,-200.7Z" class="g3_27" />
<path fill-rule="evenodd" d="M112.3,90.3l0,-1.5l0.1,-1.7l0.2,-1.5L112.9,84l0.5,-1.5L113.7,81l0.6,-1.6l0.6,-1.3l0.6,-1.6l0.8,-1.3L117,73.8l0.9,-1.2L119,71.3l0.9,-1.2l1.3,-1.2l1,-1.1l1.2,-1l1.3,-1L126,64.9l1.4,-0.7l1.4,-0.8l1.4,-0.8L131.5,62l1.6,-0.4l1.5,-0.5l1.5,-0.3l1.6,-0.3l1.6,-0.2l1.6,-0.1L142.4,60l210.5,0l1.5,0.2l1.7,0.1l1.6,0.2l1.5,0.3l1.5,0.3l1.5,0.5l1.6,0.6l1.3,0.6l1.6,0.6l1.3,0.8l1.4,0.7l1.2,0.9l1.3,1.1l1.2,0.9l1.2,1.3l1.1,1l1,1.2l1,1.3l0.9,1.3l0.7,1.3l0.8,1.3l0.8,1.6l0.4,1.3l0.6,1.6l0.5,1.5l0.3,1.5l0.3,1.6l0.2,1.5l0.1,1.7l0.2,1.5l0,120.7l0,1.7l-0.2,1.5l-0.3,1.5l-0.1,1.6l-0.5,1.5l-0.5,1.5l-0.6,1.5l-0.4,1.6l-0.8,1.3l-0.8,1.4l-0.7,1.4l-0.9,1.2l-1,1.2l-1,1.3l-1.1,1.2l-1.2,1l-1.2,1.1l-1.3,0.9l-1.2,0.9l-1.4,0.8l-1.3,0.8l-1.6,0.7l-1.3,0.6l-1.6,0.5l-1.5,0.5l-1.5,0.3l-1.5,0.3l-1.6,0.1l-1.7,0.2l-1.5,0.1l-210.5,0l-1.5,0l-1.6,-0.1l-1.6,-0.3l-1.6,-0.2l-1.5,-0.4l-1.5,-0.5l-1.6,-0.5l-1.3,-0.6l-1.4,-0.7l-1.4,-0.6l-1.4,-1l-1.3,-0.9l-1.3,-0.9l-1.2,-1.1l-1,-1l-1.3,-1.2L119,230.1l-1.1,-1.2L117,227.5l-0.7,-1.4l-0.8,-1.4l-0.6,-1.3l-0.6,-1.6l-0.6,-1.5l-0.3,-1.5l-0.5,-1.5l-0.3,-1.6l-0.2,-1.5l-0.1,-1.5l0,-1.7l0,-120.7Z" class="g4_27" />
<path d="M112.3,90.3l0,-1.5l0.1,-1.7l0.2,-1.5L112.9,84l0.5,-1.5L113.7,81l0.6,-1.6l0.6,-1.3l0.6,-1.6l0.8,-1.3L117,73.8l0.9,-1.2L119,71.3l0.9,-1.2l1.3,-1.2l1,-1.1l1.2,-1l1.3,-1L126,64.9l1.4,-0.7l1.4,-0.8l1.4,-0.8L131.5,62l1.6,-0.4l1.5,-0.5l1.5,-0.3l1.6,-0.3l1.6,-0.2l1.6,-0.1L142.4,60l210.5,0l1.5,0.2l1.7,0.1l1.6,0.2l1.5,0.3l1.5,0.3l1.5,0.5l1.6,0.6l1.3,0.6l1.6,0.6l1.3,0.8l1.4,0.7l1.2,0.9l1.3,1.1l1.2,0.9l1.2,1.3l1.1,1l1,1.2l1,1.3l0.9,1.3l0.7,1.3l0.8,1.3l0.8,1.6l0.4,1.3l0.6,1.6l0.5,1.5l0.3,1.5l0.3,1.6l0.2,1.5l0.1,1.7l0.2,1.5l0,120.7l0,1.7l-0.2,1.5l-0.3,1.5l-0.1,1.6l-0.5,1.5l-0.5,1.5l-0.6,1.5l-0.4,1.6l-0.8,1.3l-0.8,1.4l-0.7,1.4l-0.9,1.2l-1,1.2l-1,1.3l-1.1,1.2l-1.2,1l-1.2,1.1l-1.3,0.9l-1.2,0.9l-1.4,0.8l-1.3,0.8l-1.6,0.7l-1.3,0.6l-1.6,0.5l-1.5,0.5l-1.5,0.3l-1.5,0.3l-1.6,0.1l-1.7,0.2l-1.5,0.1l-210.5,0l-1.5,0l-1.6,-0.1l-1.6,-0.3l-1.6,-0.2l-1.5,-0.4l-1.5,-0.5l-1.6,-0.5l-1.3,-0.6l-1.4,-0.7l-1.4,-0.6l-1.4,-1l-1.3,-0.9l-1.3,-0.9l-1.2,-1.1l-1,-1l-1.3,-1.2L119,230.1l-1.1,-1.2L117,227.5l-0.7,-1.4l-0.8,-1.4l-0.6,-1.3l-0.6,-1.6l-0.6,-1.5l-0.3,-1.5l-0.5,-1.5l-0.3,-1.6l-0.2,-1.5l-0.1,-1.5l0,-1.7l0,-120.7Z" class="g5_27" />
<path fill-rule="evenodd" d="M370.6,336.6l603.5,0l0,-29.1l116.7,116.6L974.1,540.8l0,-29.1l-603.5,0l0,-175.1Z" class="g2_27" />
<path d="M370.6,336.6l603.5,0l0,-29.1l116.7,116.6L974.1,540.8l0,-29.1l-603.5,0l0,-175.1Z" class="g3_27" />
<path fill-rule="evenodd" d="M110,366.2l0,-1.7l0.2,-1.5l0.1,-1.5l0.3,-1.6l0.5,-1.3l0.4,-1.6l0.5,-1.5l0.6,-1.4l0.6,-1.3l0.8,-1.6l0.7,-1.2l1,-1.4l0.9,-1l1,-1.3l1.1,-1.2l1.1,-1l1.2,-1l1.2,-0.9l1.2,-0.9l1.4,-0.8l1.4,-0.7l1.4,-0.8l1.5,-0.6l1.4,-0.5l1.5,-0.4l1.5,-0.3l1.6,-0.3l1.5,-0.2l1.5,-0.1l1.5,0l201.2,0l1.6,0l1.7,0.1l1.3,0.2l1.6,0.3l1.5,0.3l1.5,0.4l1.5,0.7l1.4,0.6l1.4,0.6l1.4,0.7l1.3,0.8l1.3,0.9l1.2,0.9l1.2,1l1.1,1l1,1.2l1.1,1.3l0.9,1.2l0.9,1.2l0.8,1.4l0.8,1.4l0.6,1.3l0.6,1.4l0.6,1.5l0.5,1.6l0.3,1.3l0.3,1.6l0.1,1.5l0.2,1.5l0,1.7l0.1,118.7l-0.1,1.5l-0.2,1.6l-0.1,1.5l-0.3,1.5l-0.3,1.6l-0.5,1.5l-0.4,1.4L368,497l-0.7,1.4l-0.6,1.3l-1,1.4l-0.9,1.2l-0.9,1.3l-1.1,1.2l-0.9,1l-1.2,1.1l-1.2,1.1l-1.2,0.9l-1.3,0.9l-1.3,0.8l-1.4,0.7l-1.4,0.7l-1.4,0.6L350,513l-1.5,0.5l-1.5,0.4l-1.6,0.4l-1.3,0.1l-1.7,0.2l-1.6,0l-201.2,0l-1.5,0l-1.5,-0.2l-1.5,-0.1l-1.6,-0.4L132,513.6l-1.5,-0.4l-1.4,-0.6l-1.5,-0.5l-1.4,-0.8l-1.4,-0.7l-1.4,-0.8l-1.2,-0.9L121,508l-1.2,-0.9l-1.1,-1.3l-1.1,-1l-1,-1.2l-0.9,-1.3l-1,-1.2L114,499.7l-0.8,-1.3L112.6,497L112,495.6l-0.5,-1.5l-0.4,-1.5L110.6,491l-0.3,-1.5L110.2,488L110,486.4l0,-1.5l0,-118.7Z" class="g4_27" />
<path d="M110,366.2l0,-1.7l0.2,-1.5l0.1,-1.5l0.3,-1.6l0.5,-1.3l0.4,-1.6l0.5,-1.5l0.6,-1.4l0.6,-1.3l0.8,-1.6l0.7,-1.2l1,-1.4l0.9,-1l1,-1.3l1.1,-1.2l1.1,-1l1.2,-1l1.2,-0.9l1.2,-0.9l1.4,-0.8l1.4,-0.7l1.4,-0.8l1.5,-0.6l1.4,-0.5l1.5,-0.4l1.5,-0.3l1.6,-0.3l1.5,-0.2l1.5,-0.1l1.5,0l201.2,0l1.6,0l1.7,0.1l1.3,0.2l1.6,0.3l1.5,0.3l1.5,0.4l1.5,0.7l1.4,0.6l1.4,0.6l1.4,0.7l1.3,0.8l1.3,0.9l1.2,0.9l1.2,1l1.1,1l1,1.2l1.1,1.3l0.9,1.2l0.9,1.2l0.8,1.4l0.8,1.4l0.6,1.3l0.6,1.4l0.6,1.5l0.5,1.6l0.3,1.3l0.3,1.6l0.1,1.5l0.2,1.5l0,1.7l0.1,118.7l-0.1,1.5l-0.2,1.6l-0.1,1.5l-0.3,1.5l-0.3,1.6l-0.5,1.5l-0.4,1.4L368,497l-0.7,1.4l-0.6,1.3l-1,1.4l-0.9,1.2l-0.9,1.3l-1.1,1.2l-0.9,1l-1.2,1.1l-1.2,1.1l-1.2,0.9l-1.3,0.9l-1.3,0.8l-1.4,0.7l-1.4,0.7l-1.4,0.6L350,513l-1.5,0.5l-1.5,0.4l-1.6,0.4l-1.3,0.1l-1.7,0.2l-1.6,0l-201.2,0l-1.5,0l-1.5,-0.2l-1.5,-0.1l-1.6,-0.4L132,513.6l-1.5,-0.4l-1.4,-0.6l-1.5,-0.5l-1.4,-0.8l-1.4,-0.7l-1.4,-0.8l-1.2,-0.9L121,508l-1.2,-0.9l-1.1,-1.3l-1.1,-1l-1,-1.2l-0.9,-1.3l-1,-1.2L114,499.7l-0.8,-1.3L112.6,497L112,495.6l-0.5,-1.5l-0.4,-1.5L110.6,491l-0.3,-1.5L110.2,488L110,486.4l0,-1.5l0,-118.7Z" class="g5_27" />
</svg>