<?xml version="1.0" encoding="UTF-8" standalone="no"?>
<!DOCTYPE svg PUBLIC "-//W3C//DTD SVG 1.1//EN"
"http://www.w3.org/Graphics/SVG/1.1/DTD/svg11.dtd">
<svg viewBox="0 0 1210 1210" version="1.1" xmlns="http://www.w3.org/2000/svg" xmlns:xlink="http://www.w3.org/1999/xlink">
<defs>
<style type="text/css"><![CDATA[
.g2_3{
fill: none;
stroke: #0000EE;
stroke-width: 2;
stroke-linecap: butt;
stroke-linejoin: miter;
}
.g3_3{
fill: none;
stroke: #418AB3;
stroke-width: 2;
stroke-linecap: butt;
stroke-linejoin: miter;
stroke-miterlimit: 7;
}
.g1_3{
fill: #FFFFFF;
}
]]></style>
</defs>
<path fill-rule="evenodd" d="M0,0L1210,0l0,1210L0,1210L0,0Z" class="g1_3" />
<path fill-rule="evenodd" d="M0,0L1210,0l0,1210L0,1210L0,0Z" class="g1_3" />
<path d="M225,203l240,0" class="g2_3" />
<path d="M225,292l390,0" class="g2_3" />
<path d="M129,587l812,0" class="g2_3" />
<path d="M129,607l420,0" class="g2_3" />
<path fill-rule="evenodd" d="M196.5,392.6l0,-1.3l0.1,-1.4l0.2,-1.4l0.3,-1.4l0.3,-1.2l0.3,-1.4l0.5,-1.2l0.6,-1.4l0.6,-1l0.6,-1.2l0.7,-1.3l0.7,-1l0.9,-1.1l0.9,-1.1l0.9,-1l0.9,-1l1.1,-0.7l1.1,-0.9l1,-0.8l1.3,-0.8l1.2,-0.6l1.2,-0.4l1.2,-0.7l1.2,-0.4l1.4,-0.5l1.2,-0.3l1.4,-0.1l1.4,-0.2l1.4,-0.1l1.3,0l765.2,0l1.2,0l1.4,0.1l1.3,0.2l1.4,0.1l1.2,0.5l1.4,0.3l1.2,0.4l1.2,0.7l1.4,0.6l1.1,0.6l1.2,0.6l1.1,0.8l1.1,0.9l1,0.7l0.9,1.1l1,0.9l0.9,1.1l0.9,1.1l0.7,1l0.7,1.3l0.7,1.2l0.5,1.2l0.6,1.2l0.5,1.2l0.3,1.4l0.3,1.2l0.3,1.4l0.1,1.4l0.2,1.4l0,1.3l0.1,103.9l-0.1,1.2l0,1.4l-0.3,1.4l-0.2,1.4l-0.3,1.3l-0.4,1.3l-0.5,1.2l-0.5,1.4l-0.6,1.2l-0.6,1.1l-0.8,1.2l-0.7,1.1l-0.8,1l-0.9,1.1l-0.9,1.1l-1.1,0.7l-1,0.9l-1.1,1l-1.1,0.7l-1.1,0.6l-1.2,0.8l-1.2,0.5l-1.2,0.6l-1.4,0.4l-1.4,0.3l-1.2,0.3l-1.4,0.3l-1.3,0.2l-1.4,0.1l-1.2,0l-765.2,0.2l-1.3,-0.2l-1.4,0l-1.4,-0.1l-1.4,-0.3l-1.2,-0.3l-1.4,-0.5l-1.2,-0.4l-1.2,-0.5l-1.2,-0.6L209.5,519l-1.3,-0.8l-1,-0.7l-1.1,-0.8L205,515.8l-0.9,-0.9l-0.9,-1.1l-0.9,-0.9l-0.9,-1.1l-0.7,-1.2L200,509.5l-0.6,-1.2l-0.6,-1.2l-0.6,-1.3l-0.5,-1.3l-0.3,-1.3l-0.3,-1.3l-0.3,-1.4l-0.2,-1.4l-0.1,-1.4l0,-1.2l0,-103.9Z" class="g1_3" />
<path d="M196.5,392.6l0,-1.3l0.1,-1.4l0.2,-1.4l0.3,-1.4l0.3,-1.2l0.3,-1.4l0.5,-1.2l0.6,-1.4l0.6,-1l0.6,-1.2l0.7,-1.3l0.7,-1l0.9,-1.1l0.9,-1.1l0.9,-1l0.9,-1l1.1,-0.7l1.1,-0.9l1,-0.8l1.3,-0.8l1.2,-0.6l1.2,-0.4l1.2,-0.7l1.2,-0.4l1.4,-0.5l1.2,-0.3l1.4,-0.1l1.4,-0.2l1.4,-0.1l1.3,0l765.2,0l1.2,0l1.4,0.1l1.3,0.2l1.4,0.1l1.2,0.5l1.4,0.3l1.2,0.4l1.2,0.7l1.4,0.6l1.1,0.6l1.2,0.6l1.1,0.8l1.1,0.9l1,0.7l0.9,1.1l1,0.9l0.9,1.1l0.9,1.1l0.7,1l0.7,1.3l0.7,1.2l0.5,1.2l0.6,1.2l0.5,1.2l0.3,1.4l0.3,1.2l0.3,1.4l0.1,1.4l0.2,1.4l0,1.3l0.1,103.9l-0.1,1.2l0,1.4l-0.3,1.4l-0.2,1.4l-0.3,1.3l-0.4,1.3l-0.5,1.2l-0.5,1.4l-0.6,1.2l-0.6,1.1l-0.8,1.2l-0.7,1.1l-0.8,1l-0.9,1.1l-0.9,1.1l-1.1,0.7l-1,0.9l-1.1,1l-1.1,0.7l-1.1,0.6l-1.2,0.8l-1.2,0.5l-1.2,0.6l-1.4,0.4l-1.4,0.3l-1.2,0.3l-1.4,0.3l-1.3,0.2l-1.4,0.1l-1.2,0l-765.2,0.2l-1.3,-0.2l-1.4,0l-1.4,-0.1l-1.4,-0.3l-1.2,-0.3l-1.4,-0.5l-1.2,-0.4l-1.2,-0.5l-1.2,-0.6L209.5,519l-1.3,-0.8l-1,-0.7l-1.1,-0.8L205,515.8l-0.9,-0.9l-0.9,-1.1l-0.9,-0.9l-0.9,-1.1l-0.7,-1.2L200,509.5l-0.6,-1.2l-0.6,-1.2l-0.6,-1.3l-0.5,-1.3l-0.3,-1.3l-0.3,-1.3l-0.3,-1.4l-0.2,-1.4l-0.1,-1.4l0,-1.2l0,-103.9Z" class="g3_3" />
<path d="M280,437l66,0" class="g2_3" />
<path d="M346,437l424,0" class="g2_3" />
<path d="M770,437l5,0" class="g2_3" />
<path d="M293,503l66,0" class="g2_3" />
<path d="M359,503l386,0" class="g2_3" />
<path d="M745,503l6,0" class="g2_3" />
</svg>