<?xml version="1.0" encoding="UTF-8" standalone="no"?>
<!DOCTYPE svg PUBLIC "-//W3C//DTD SVG 1.1//EN"
"http://www.w3.org/Graphics/SVG/1.1/DTD/svg11.dtd">
<svg viewBox="0 0 1100 825" version="1.1" xmlns="http://www.w3.org/2000/svg" xmlns:xlink="http://www.w3.org/1999/xlink">
<defs>
<style type="text/css"><![CDATA[
.g2_16{
fill: #418AB3;
}
.g1_16{
fill: #FFFFFF;
}
]]></style>
</defs>
<path fill-rule="evenodd" d="M0,0L1100,0l0,825L0,825L0,0Z" class="g1_16" />
<path fill-rule="evenodd" d="M0,0L1100,0l0,825L0,825L0,0Z" class="g1_16" />
<image x="753" y="777" width="303" height="38" xlink:href="img/1.png" />
<path fill-rule="evenodd" d="M730.9,37.9l0,-0.5L731,37l0,-0.5l0.2,-0.4l0,-0.7l0.1,-0.3l0.2,-0.6l0.3,-0.3L732,33.8l0.3,-0.5l0.1,-0.5l0.3,-0.3L733,32.1l0.3,-0.5l0.3,-0.3L733.9,31l0.5,-0.3l0.5,-0.3l0.3,-0.3l0.4,-0.2l0.3,-0.3l0.6,-0.1l0.3,-0.3L737.5,29l0.3,-0.1l0.6,0l0.4,-0.2l0.5,0l0.5,-0.1l0.4,0l5.7,0l22.6,0l43.1,0l0.4,0l0.5,0.1l0.6,0l0.4,0.2L814,29l0.5,0l0.4,0.3l0.5,0.2l0.4,0.1l0.3,0.3l0.5,0.2l0.5,0.3l0.3,0.3l0.4,0.3l0.3,0.3l0.3,0.3l0.3,0.5l0.3,0.4l0.3,0.3l0.4,0.5l0.1,0.5l0.3,0.4l0.2,0.3l0.1,0.6l0.2,0.5l0,0.5l0.1,0.4l0.2,0.5l0,0.4l0,0.5l0,23.4l0,14l0,0.5l0,0.4l0,0.6l-0.2,0.5l-0.1,0.5l-0.2,0.4l-0.1,0.5l-0.2,0.4L820,79.6l-0.3,0.5l-0.4,0.3L819,80.8l-0.1,0.3l-0.5,0.5l-0.3,0.3l-0.3,0.3l-0.3,0.3l-0.4,0.3l-0.5,0.3l-0.3,0.3l-0.5,0.2l-0.4,0.3L814.9,84l-0.4,0.2L814,84.3l-0.5,0l-0.4,0.2l-0.5,0.1l-0.6,0l-0.4,0l-43.1,0l-12.7,28.8L745.9,84.6l-5.7,0l-0.4,0l-0.5,0l-0.5,0l-0.4,-0.1l-0.6,-0.2l-0.3,-0.1L736.8,84l-0.3,-0.1l-0.6,-0.2l-0.3,-0.3l-0.4,-0.1L734.9,83l-0.5,-0.3l-0.5,-0.4L733.6,82l-0.3,-0.4L733,81.3l-0.3,-0.5l-0.3,-0.3l-0.1,-0.4L732,79.6l-0.2,-0.5l-0.3,-0.4l-0.2,-0.5l-0.1,-0.4l0,-0.5L731,76.8l0,-0.4l-0.1,-0.6l0,-0.5l0,-14l0,-23.4Z" class="g2_16" />
<path fill-rule="evenodd" d="M615.7,37l0,-0.5l0,-0.4l0.1,-0.7l0,-0.4L616,34.5l0.2,-0.4l0.1,-0.5l0.2,-0.4l0.3,-0.5l0.1,-0.5l0.3,-0.3l0.3,-0.4l0.3,-0.3l0.3,-0.5l0.3,-0.3l0.4,-0.5l0.4,-0.3l0.3,-0.3L620,29.2l0.4,-0.3l0.3,-0.3l0.5,-0.2l0.5,-0.1l0.4,-0.2L622.6,28L623,27.8l0.5,0l0.6,-0.1l0.5,0l0.4,0l43.2,0l22.5,0l5.7,0l0.4,0l0.5,0l0.4,0.1l0.6,0l0.4,0.2l0.6,0.1l0.4,0.2l0.3,0.1l0.5,0.3l0.4,0.2l0.5,0.3l0.5,0.1l0.3,0.3l0.3,0.5l0.4,0.3l0.3,0.3l0.3,0.5l0.3,0.3l0.4,0.4l0.1,0.3l0.3,0.5l0.2,0.5l0.3,0.4l0.1,0.5l0.2,0.4l0,0.5l0.1,0.4l0,0.7l0,0.4l0,0.5l0.2,23.3l0,14.1l0,0.5l0,0.4l-0.2,0.5l0,0.4l-0.1,0.5l-0.2,0.5l-0.1,0.6l-0.2,0.3l-0.3,0.4L704.5,79l-0.3,0.4l-0.4,0.4l-0.3,0.4l-0.3,0.3L702.9,81l-0.3,0.3l-0.4,0.3l-0.3,0.3l-0.5,0.3l-0.5,0.1l-0.3,0.4l-0.4,0.1L699.7,83l-0.4,0.3l-0.5,0l-0.5,0.1l-0.6,0.2l-0.4,0l-0.5,0l-0.4,0l-5.7,0.1l-16.5,30.7l-6,-30.7l-43.2,0l-0.4,0l-0.5,0l-0.6,-0.1l-0.5,0l-0.4,-0.2l-0.5,-0.1l-0.4,-0.2L621.2,83l-0.5,-0.3l-0.3,-0.2L620,82.2l-0.5,-0.3l-0.3,-0.3l-0.4,-0.3L618.4,81l-0.3,-0.3l-0.3,-0.5l-0.3,-0.3l-0.3,-0.5L616.9,79l-0.1,-0.5l-0.3,-0.3l-0.2,-0.4l-0.1,-0.5L616,76.8l-0.2,-0.6l0,-0.4l-0.1,-0.5l0,-0.4l0,-0.5l0,-14.1l0,-23.3Z" class="g2_16" />
<path fill-rule="evenodd" d="M544.3,148.7l0,-0.4l0.2,-0.4l0,-0.3l0,-0.3l0.2,-0.3l0,-0.3l0.1,-0.3l0.2,-0.3l0.1,-0.4l0.2,-0.3l0.1,-0.3l0.2,-0.1l0.3,-0.3l0.1,-0.3l0.2,-0.2l0.3,-0.1l0.1,-0.3l0.3,-0.2l0.4,-0.1l0.3,-0.3l0.3,0l0.3,-0.4l0.3,0l0.1,-0.1l0.3,-0.2l0.3,0l0.5,0l0.3,-0.1l0.3,0l0.3,0l61.7,0l29.1,0l13.1,0l0.3,0l0.5,0l0.3,0.1l0.3,0l0.3,0l0.3,0.2l0.3,0.1l0.3,0.2l0.3,0.2l0.2,0l0.3,0.3l0.3,0.1l0.3,0.2l0.1,0.3l0.3,0.1l0.2,0.3l0.1,0.2l0.3,0.3l0.2,0.1l0.1,0.3l0.2,0.3l0.2,0.4l0.1,0.3l0.2,0.3l0,0.3l0.1,0.3l0,0.3l0,0.3l0.2,0.4l0,0.4l0,15.4l96.7,35.6L660.8,173.6l0,0.3l0,0.3l0,0.3l-0.2,0.3l0,0.3l-0.1,0.3l-0.2,0.3l-0.1,0.3l0,0.3l-0.4,0.3l-0.1,0.2l-0.2,0.3l-0.1,0.3l-0.2,0.1l-0.3,0.3l-0.3,0.3l-0.1,0.2l-0.3,0.1l-0.3,0.2l-0.2,0.2l-0.3,0.3l-0.3,0l-0.3,0.1l-0.3,0.2l-0.3,0l-0.3,0.1l-0.3,0l-0.3,0.2l-0.3,0l-0.5,0l-13.1,0l-29.1,0l-61.7,0l-0.3,0l-0.3,0l-0.3,0l-0.5,0l-0.3,-0.2l-0.3,-0.1l-0.1,0l-0.3,-0.2l-0.3,-0.1l-0.3,-0.2l-0.3,-0.1l-0.4,-0.4l-0.3,-0.1l-0.1,-0.2l-0.3,-0.3L546,177.7l-0.1,-0.3l-0.3,-0.2l-0.2,-0.3l-0.1,-0.3l-0.2,-0.3L545,176l-0.2,-0.3l-0.1,-0.3l0,-0.3l-0.2,-0.3l0,-0.3l0,-0.3l-0.2,-0.3l0,-0.3l0,-9.5l0,-15.4Z" class="g2_16" />
<path fill-rule="evenodd" d="M841.5,37l0,-0.5l0,-0.4l0.2,-0.7l0,-0.4l0.1,-0.5L842,34.1l0.1,-0.5l0.2,-0.4l0.1,-0.5l0.3,-0.5L843,31.9l0.2,-0.4l0.3,-0.3l0.3,-0.5l0.4,-0.3l0.4,-0.5l0.3,-0.3l0.4,-0.3l0.3,-0.1l0.5,-0.3l0.4,-0.3L847,28.4l0.5,-0.1l0.4,-0.2L848.4,28l0.4,-0.2l0.5,0l0.5,-0.1l0.6,0l0.4,0l10.7,0l30.3,0l60.9,0l0.5,0l0.4,0l0.6,0.1l0.5,0l0.5,0.2l0.4,0.1l0.5,0.2l0.4,0.1l0.5,0.3l0.5,0.2l0.3,0.3l0.4,0.1l0.3,0.3l0.5,0.5l0.3,0.3l0.3,0.3l0.3,0.5l0.3,0.3l0.3,0.4l0.3,0.3l0.2,0.5l0.3,0.5l0.1,0.4l0.2,0.5l0.1,0.4l0,0.5l0.2,0.4l0.1,0.7l0,0.4l0,0.5l0,23.3l0,14.1l0,0.5l0,0.4l0,0.5l-0.1,0.4l-0.2,0.5l-0.1,0.5l-0.2,0.6l-0.1,0.3l-0.2,0.4L960.8,79l-0.1,0.4l-0.3,0.4l-0.3,0.4l-0.3,0.3L959.3,81L959,81.3l-0.3,0.3l-0.5,0.3l-0.4,0.3l-0.3,0.1L957,82.7l-0.5,0.1L956.1,83l-0.5,0.3l-0.4,0l-0.5,0.1l-0.5,0.2l-0.4,0l-0.6,0l-0.5,0l-60.9,0.1l-82.5,52.1L861.5,83.7l-10.7,0l-0.4,0l-0.6,0l-0.5,-0.1l-0.5,0l-0.4,-0.2l-0.5,-0.1l-0.4,-0.2L847,83l-0.5,-0.3l-0.4,-0.2l-0.5,-0.3l-0.3,-0.3l-0.4,-0.3l-0.3,-0.3L844.2,81l-0.4,-0.3l-0.3,-0.5l-0.3,-0.3L843,79.4L842.7,79l-0.3,-0.5l-0.1,-0.3l-0.2,-0.4L842,77.3l-0.2,-0.5l-0.1,-0.6l0,-0.4l-0.2,-0.5l0,-0.4l0,-0.5l0,-14.1l0,-23.3Z" class="g2_16" />
<path fill-rule="evenodd" d="M962,261.1l0,-0.8l0.2,-0.7l0,-0.8l0.1,-0.8l0.2,-0.6l0.3,-0.7l0.2,-0.8l0.3,-0.6l0.3,-0.8l0.4,-0.6l0.3,-0.6l0.5,-0.6l0.4,-0.6l0.5,-0.6l0.5,-0.5l0.6,-0.4l0.6,-0.7l0.6,-0.4l0.6,-0.5l0.6,-0.3l0.6,-0.3l0.6,-0.4l0.8,-0.2l0.8,-0.3l0.6,-0.2l0.7,-0.3l0.8,0l0.8,-0.1l0.7,-0.2l0.7,0l5.6,0l29.6,0l55.2,0l0.8,0.2l0.7,0l0.6,0.1l0.8,0l0.8,0.3l0.7,0.2l0.6,0.3l0.8,0.3l0.6,0.3l0.8,0.3l0.6,0.3l0.6,0.5l0.5,0.4l0.6,0.7l0.6,0.4l0.4,0.5l0.5,0.6l0.5,0.6l0.4,0.6l0.5,0.6l0.3,0.6l0.3,0.8l0.3,0.6l0.1,0.8l0.3,0.7l0.2,0.6l0.2,0.8l0,0.8l0.1,0.7l0,0.8l0.2,0l0,21.4l0,35.7l-0.2,0.6l0,0.8l-0.1,0.8l0,0.7l-0.4,0.8l-0.1,0.6l-0.3,0.8l-0.3,0.6l-0.3,0.8l-0.3,0.6l-0.5,0.6l-0.3,0.6l-0.5,0.6l-0.6,0.6l-0.4,0.5l-0.6,0.6l-0.5,0.4l-0.6,0.5l-0.6,0.5l-0.6,0.3l-0.6,0.3l-0.8,0.4l-0.8,0.2l-0.6,0.3l-0.7,0.1l-0.8,0.3l-0.6,0l-0.8,0.2l-0.7,0.1l-0.8,0l-55.2,0l-29.6,0l-5.6,0l-0.7,0l-0.7,0l-0.8,-0.1l-0.8,-0.2L972.6,332L972,331.8l-0.8,-0.3l-0.8,-0.3l-0.6,-0.3l-0.6,-0.3l-0.6,-0.4L968,329.7l-0.6,-0.5l-0.6,-0.4l-0.6,-0.5l-0.5,-0.6l-0.5,-0.4l-0.4,-0.7L964.3,326L964,325.3l-0.4,-0.6L963.3,324L963,323.3l-0.2,-0.6l-0.3,-0.8l-0.2,-0.8l-0.1,-0.7l0,-0.8L962,318.8l0,-0.6l0,-35.7L843.6,244.9L962,261.1Z" class="g2_16" />
<path fill-rule="evenodd" d="M962,158.4l0,-0.7l0.2,-0.9l0.1,-0.8l0,-0.9l0.4,-0.8l0.1,-0.8l0.3,-0.9l0.3,-0.6l0.5,-0.7l0.3,-0.8l0.4,-0.8l0.5,-0.6l0.5,-0.8l0.6,-0.6l0.6,-0.6l0.6,-0.6l0.6,-0.4l0.8,-0.7l0.6,-0.4l0.7,-0.5l0.7,-0.3l0.9,-0.4l0.6,-0.3l0.9,-0.3L974,143l0.7,-0.2l0.9,-0.1l0.8,-0.2l0.9,0l0.8,-0.1l3.8,0l29.6,0l53.4,0l0.9,0.1l0.7,0l1,0.2l0.7,0.1l0.9,0.2l0.8,0.2l0.8,0.3l0.7,0.3l0.8,0.4l0.8,0.3l0.6,0.5l0.7,0.4l0.6,0.7l0.7,0.4l0.6,0.6l0.6,0.6l0.6,0.6l0.4,0.8l0.5,0.6l0.5,0.8l0.4,0.8l0.3,0.7l0.3,0.8l0.3,0.7l0.2,0.8l0.3,0.8l0.2,0.9l0,0.8l0.1,0.9l0,0.7l0.2,40.2l0,24l-0.2,0.9l0,0.8l-0.1,0.9l-0.2,0.8l-0.2,0.9l-0.3,0.7l-0.3,0.8l-0.3,0.8l-0.3,0.7l-0.4,0.8l-0.3,0.6l-0.7,0.8l-0.4,0.6l-0.6,0.6l-0.5,0.6l-0.6,0.6l-0.8,0.6l-0.6,0.5l-0.6,0.4l-0.7,0.5l-0.8,0.5l-0.8,0.3l-0.7,0.3l-0.8,0.3l-0.8,0.1l-0.9,0.3l-0.7,0l-1,0.2l-0.7,0.1l-0.9,0l-53.4,0l-29.6,0l-3.8,0l-0.8,0l-0.9,0l-0.8,-0.1l-0.9,-0.2L974,238.2l-0.8,-0.3l-0.9,-0.3l-0.6,-0.3L970.8,237l-0.7,-0.5L969.4,236l-0.6,-0.4L968,235.1l-0.6,-0.4l-0.6,-0.6l-0.6,-0.7l-0.6,-0.7l-0.5,-0.6l-0.5,-0.6l-0.4,-0.8l-0.3,-0.8l-0.5,-0.7l-0.3,-0.8l-0.3,-0.8l-0.1,-0.7L962.3,226l0,-0.8l-0.1,-0.9L962,223.5l0,-0.9L867.5,207.8L962,198.6l0,-40.2Z" class="g2_16" />
<path fill-rule="evenodd" d="M543.1,235.6l0,-0.5l0,-0.6l0,-0.6l0.2,-0.5l0.1,-0.6l0.2,-0.4l0.1,-0.6l0.3,-0.5l0.2,-0.6l0.3,-0.5l0.3,-0.4l0.3,-0.5l0.3,-0.4l0.5,-0.5l0.3,-0.5l0.4,-0.3l0.5,-0.4l0.5,-0.3l0.4,-0.3l0.5,-0.3l0.4,-0.3l0.6,-0.2l0.5,-0.1l0.5,-0.4l0.6,-0.1l0.4,-0.2l0.6,0l0.6,-0.1l0.7,0l0.4,0l58.5,0l29.8,0l9,0l0.7,0l0.6,0l0.4,0.1l0.6,0l0.5,0.2l0.6,0.1l0.5,0.4l0.6,0.1L656,226l0.5,0.3l0.4,0.3l0.7,0.3l0.3,0.4l0.4,0.3l0.5,0.3l0.3,0.5l0.4,0.5l0.3,0.4l0.4,0.5l0.3,0.4l0.3,0.5l0.3,0.6l0.1,0.5l0.2,0.6l0.1,0.4l0.2,0.6l0.1,0.5l0,0.6l0,0.6l0,0.5l0.2,27l0,16.2l0,0.6l0,0.6l-0.2,0.5l-0.1,0.6l-0.2,0.5l0,0.6l-0.3,0.4l-0.1,0.6l-0.3,0.5l-0.3,0.5l-0.3,0.4l-0.4,0.6l-0.3,0.3l-0.3,0.5l-0.4,0.5l-0.3,0.3l-0.5,0.4l-0.4,0.3l-0.5,0.3l-0.5,0.3l-0.6,0.3l-0.4,0.4l-0.6,0.1l-0.5,0.2l-0.5,0.1l-0.6,0.2l-0.6,0.1l-0.4,0l-0.6,0.2l-0.7,0l-9,0l11.2,11l-41,-11l-58.5,0l-0.4,0l-0.7,0l-0.6,-0.2l-0.6,0l-0.4,-0.1l-0.6,-0.2L550,288.9l-0.5,-0.1l-0.6,-0.4l-0.4,-0.1L548,288l-0.4,-0.5l-0.5,-0.3l-0.5,-0.3l-0.4,-0.4l-0.3,-0.3l-0.5,-0.5l-0.3,-0.5l-0.3,-0.4l-0.3,-0.5l-0.3,-0.6L544,283.2l-0.3,-0.4l-0.1,-0.6l-0.2,-0.5l-0.1,-0.6l-0.2,-0.6l0,-0.5l0,-0.6l0,-0.6l0,-16.2l0,-27Z" class="g2_16" />
</svg>