<?xml version="1.0" encoding="UTF-8" standalone="no"?>
<!DOCTYPE svg PUBLIC "-//W3C//DTD SVG 1.1//EN"
"http://www.w3.org/Graphics/SVG/1.1/DTD/svg11.dtd">
<svg viewBox="0 0 1210 1045" version="1.1" xmlns="http://www.w3.org/2000/svg" xmlns:xlink="http://www.w3.org/1999/xlink">
<defs>
<style type="text/css"><![CDATA[
.g2_90{
fill: #418AB3;
}
.g5_90{
fill: none;
stroke: #FFFFFF;
stroke-width: 1;
stroke-linecap: butt;
stroke-linejoin: miter;
}
.g3_90{
fill: #CEDAE4;
}
.g6_90{
fill: none;
stroke: #418AB3;
stroke-width: 2;
stroke-linecap: butt;
stroke-linejoin: miter;
stroke-miterlimit: 7;
}
.g4_90{
fill: #E8EDF2;
}
.g1_90{
fill: #FFFFFF;
}
]]></style>
</defs>
<path fill-rule="evenodd" d="M0,0L1210,0l0,1045L0,1045L0,0Z" class="g1_90" />
<path fill-rule="evenodd" d="M0,0L1210,0l0,1045L0,1045L0,0Z" class="g1_90" />
<image x="828" y="984" width="334" height="49" xlink:href="img/1.png" />
<path fill-rule="evenodd" d="M160,154l126,0l0,53l-126,0l0,-53Z" class="g2_90" />
<path fill-rule="evenodd" d="M286,154l144,0l0,53l-144,0l0,-53Z" class="g2_90" />
<path fill-rule="evenodd" d="M430,154l159,0l0,53l-159,0l0,-53Z" class="g2_90" />
<path fill-rule="evenodd" d="M160,207l126,0l0,30l-126,0l0,-30Z" class="g3_90" />
<path fill-rule="evenodd" d="M286,207l144,0l0,30l-144,0l0,-30Z" class="g3_90" />
<path fill-rule="evenodd" d="M430,207l159,0l0,30l-159,0l0,-30Z" class="g3_90" />
<path fill-rule="evenodd" d="M160,237l126,0l0,52l-126,0l0,-52Z" class="g4_90" />
<path fill-rule="evenodd" d="M286,237l144,0l0,52l-144,0l0,-52Z" class="g4_90" />
<path fill-rule="evenodd" d="M430,237l159,0l0,52l-159,0l0,-52Z" class="g4_90" />
<path fill-rule="evenodd" d="M160,289l126,0l0,52l-126,0l0,-52Z" class="g3_90" />
<path fill-rule="evenodd" d="M286,289l144,0l0,52l-144,0l0,-52Z" class="g3_90" />
<path fill-rule="evenodd" d="M430,289l159,0l0,52l-159,0l0,-52Z" class="g3_90" />
<path d="M159.5,208.5l0,-54" class="g5_90" />
<path d="M285.5,207.5l0,-53" class="g5_90" />
<path d="M159.5,155.5l127,0" class="g5_90" />
<path d="M285.5,207.5l0,-53" class="g5_90" />
<path d="M430.5,208.5l0,-54" class="g5_90" />
<path d="M285.5,155.5l146,0" class="g5_90" />
<path d="M430.5,207.5l0,-53" class="g5_90" />
<path d="M588.5,208.5l0,-54" class="g5_90" />
<path d="M430.5,155.5l159,0" class="g5_90" />
<path d="M159.5,237.5l0,-32" class="g5_90" />
<path d="M285.5,237.5l0,-30" class="g5_90" />
<path fill-rule="evenodd" d="M286.3,207l-0.8,2l-124.6,0l-0.8,-2l0.8,-2l124.6,0l0.8,2Z" class="g1_90" />
<path d="M285.5,237.5l0,-30" class="g5_90" />
<path d="M430.5,237.5l0,-32" class="g5_90" />
<path fill-rule="evenodd" d="M430.7,207l-0.6,2l-143.2,0l-0.6,-2l0.6,-2l143.2,0l0.6,2Z" class="g1_90" />
<path d="M430.5,237.5l0,-30" class="g5_90" />
<path d="M588.5,237.5l0,-32" class="g5_90" />
<path fill-rule="evenodd" d="M589.1,207l-0.6,2l-157.2,0l-0.6,-2l0.6,-2l157.2,0l0.6,2Z" class="g1_90" />
<path d="M159.5,290.5l0,-54" class="g5_90" />
<path d="M285.5,289.5l0,-52" class="g5_90" />
<path d="M160.5,237.5l126,0" class="g5_90" />
<path d="M285.5,289.5l0,-52" class="g5_90" />
<path d="M430.5,290.5l0,-54" class="g5_90" />
<path d="M286.5,237.5l144,0" class="g5_90" />
<path d="M430.5,289.5l0,-52" class="g5_90" />
<path d="M588.5,290.5l0,-54" class="g5_90" />
<path d="M430.5,237.5l159,0" class="g5_90" />
<path d="M159.5,342.5l0,-54" class="g5_90" />
<path d="M159.5,342.5l127,0" class="g5_90" />
<path d="M285.5,341.5l0,-52" class="g5_90" />
<path d="M160.5,290.5l126,0" class="g5_90" />
<path d="M285.5,341.5l0,-52" class="g5_90" />
<path d="M285.5,342.5l146,0" class="g5_90" />
<path d="M430.5,342.5l0,-54" class="g5_90" />
<path d="M286.5,290.5l144,0" class="g5_90" />
<path d="M430.5,341.5l0,-52" class="g5_90" />
<path d="M430.5,342.5l159,0" class="g5_90" />
<path d="M588.5,342.5l0,-54" class="g5_90" />
<path d="M430.5,290.5l159,0" class="g5_90" />
<path fill-rule="evenodd" d="M641,183l146,0l0,52l-146,0l0,-52Z" class="g2_90" />
<path fill-rule="evenodd" d="M787,183l166,0l0,52l-166,0l0,-52Z" class="g2_90" />
<path fill-rule="evenodd" d="M953,183l183,0l0,52l-183,0l0,-52Z" class="g2_90" />
<path fill-rule="evenodd" d="M641,235l146,0l0,31l-146,0l0,-31Z" class="g3_90" />
<path fill-rule="evenodd" d="M787,235l166,0l0,31l-166,0l0,-31Z" class="g3_90" />
<path fill-rule="evenodd" d="M953,235l183,0l0,31l-183,0l0,-31Z" class="g3_90" />
<path fill-rule="evenodd" d="M641,266l146,0l0,52l-146,0l0,-52Z" class="g4_90" />
<path fill-rule="evenodd" d="M787,266l166,0l0,52l-166,0l0,-52Z" class="g4_90" />
<path fill-rule="evenodd" d="M953,266l183,0l0,52l-183,0l0,-52Z" class="g4_90" />
<path fill-rule="evenodd" d="M641,318l146,0l0,52l-146,0l0,-52Z" class="g3_90" />
<path fill-rule="evenodd" d="M787,318l166,0l0,52l-166,0l0,-52Z" class="g3_90" />
<path fill-rule="evenodd" d="M953,318l183,0l0,52l-183,0l0,-52Z" class="g3_90" />
<path fill-rule="evenodd" d="M641,370l146,0l0,53l-146,0l0,-53Z" class="g4_90" />
<path fill-rule="evenodd" d="M787,370l166,0l0,53l-166,0l0,-53Z" class="g4_90" />
<path fill-rule="evenodd" d="M953,370l183,0l0,53l-183,0l0,-53Z" class="g4_90" />
<path fill-rule="evenodd" d="M641,423l146,0l0,52l-146,0l0,-52Z" class="g3_90" />
<path fill-rule="evenodd" d="M787,423l166,0l0,52l-166,0l0,-52Z" class="g3_90" />
<path fill-rule="evenodd" d="M953,423l183,0l0,52l-183,0l0,-52Z" class="g3_90" />
<path fill-rule="evenodd" d="M641,475l146,0l0,52l-146,0l0,-52Z" class="g4_90" />
<path fill-rule="evenodd" d="M787,475l166,0l0,52l-166,0l0,-52Z" class="g4_90" />
<path fill-rule="evenodd" d="M953,475l183,0l0,52l-183,0l0,-52Z" class="g4_90" />
<path fill-rule="evenodd" d="M641,527l146,0l0,52l-146,0l0,-52Z" class="g3_90" />
<path fill-rule="evenodd" d="M787,527l166,0l0,52l-166,0l0,-52Z" class="g3_90" />
<path fill-rule="evenodd" d="M953,527l183,0l0,52l-183,0l0,-52Z" class="g3_90" />
<path fill-rule="evenodd" d="M641,579l146,0l0,31l-146,0l0,-31Z" class="g4_90" />
<path fill-rule="evenodd" d="M787,579l166,0l0,31l-166,0l0,-31Z" class="g4_90" />
<path fill-rule="evenodd" d="M953,579l183,0l0,31l-183,0l0,-31Z" class="g4_90" />
<path d="M641.5,237.5l0,-54" class="g5_90" />
<path d="M786.5,235.5l0,-52" class="g5_90" />
<path d="M641.5,184.5l146,0" class="g5_90" />
<path d="M786.5,235.5l0,-52" class="g5_90" />
<path d="M953.5,237.5l0,-54" class="g5_90" />
<path d="M786.5,184.5l168,0" class="g5_90" />
<path d="M953.5,235.5l0,-52" class="g5_90" />
<path d="M1136.5,237.5l0,-54" class="g5_90" />
<path d="M953.5,184.5l184,0" class="g5_90" />
<path d="M641.5,266.5l0,-32" class="g5_90" />
<path d="M786.5,266.5l0,-31" class="g5_90" />
<path fill-rule="evenodd" d="M787.3,235.9l-0.8,2.1l-144.2,0l-0.6,-2.1l0.6,-2l144.2,0l0.8,2Z" class="g1_90" />
<path d="M786.5,266.5l0,-31" class="g5_90" />
<path d="M953.5,266.5l0,-32" class="g5_90" />
<path fill-rule="evenodd" d="M953.9,235.9l-0.7,2.1l-165.3,0l-0.6,-2.1l0.6,-2l165.3,0l0.7,2Z" class="g1_90" />
<path d="M953.5,266.5l0,-31" class="g5_90" />
<path d="M1136.5,266.5l0,-32" class="g5_90" />
<path fill-rule="evenodd" d="M1136.7,235.9l-0.6,2.1l-181.5,0l-0.7,-2.1l0.7,-2l181.5,0l0.6,2Z" class="g1_90" />
<path d="M641.5,319.5l0,-54" class="g5_90" />
<path d="M786.5,318.5l0,-52" class="g5_90" />
<path d="M641.5,266.5l146,0" class="g5_90" />
<path d="M786.5,318.5l0,-52" class="g5_90" />
<path d="M953.5,319.5l0,-54" class="g5_90" />
<path d="M787.5,266.5l166,0" class="g5_90" />
<path d="M953.5,318.5l0,-52" class="g5_90" />
<path d="M1136.5,319.5l0,-54" class="g5_90" />
<path d="M953.5,266.5l183,0" class="g5_90" />
<path d="M641.5,371.5l0,-54" class="g5_90" />
<path d="M786.5,370.5l0,-52" class="g5_90" />
<path d="M641.5,319.5l146,0" class="g5_90" />
<path d="M786.5,370.5l0,-52" class="g5_90" />
<path d="M953.5,371.5l0,-54" class="g5_90" />
<path d="M787.5,319.5l166,0" class="g5_90" />
<path d="M953.5,370.5l0,-52" class="g5_90" />
<path d="M1136.5,371.5l0,-54" class="g5_90" />
<path d="M953.5,319.5l183,0" class="g5_90" />
<path d="M641.5,423.5l0,-53" class="g5_90" />
<path d="M786.5,423.5l0,-53" class="g5_90" />
<path d="M641.5,371.5l146,0" class="g5_90" />
<path d="M786.5,423.5l0,-53" class="g5_90" />
<path d="M953.5,423.5l0,-53" class="g5_90" />
<path d="M787.5,371.5l166,0" class="g5_90" />
<path d="M953.5,423.5l0,-53" class="g5_90" />
<path d="M1136.5,423.5l0,-53" class="g5_90" />
<path d="M953.5,371.5l183,0" class="g5_90" />
<path d="M641.5,475.5l0,-53" class="g5_90" />
<path d="M786.5,475.5l0,-52" class="g5_90" />
<path d="M641.5,423.5l146,0" class="g5_90" />
<path d="M786.5,475.5l0,-52" class="g5_90" />
<path d="M953.5,475.5l0,-53" class="g5_90" />
<path d="M787.5,423.5l166,0" class="g5_90" />
<path d="M953.5,475.5l0,-52" class="g5_90" />
<path d="M1136.5,475.5l0,-53" class="g5_90" />
<path d="M953.5,423.5l183,0" class="g5_90" />
<path d="M641.5,528.5l0,-54" class="g5_90" />
<path d="M786.5,527.5l0,-52" class="g5_90" />
<path d="M641.5,475.5l146,0" class="g5_90" />
<path d="M786.5,527.5l0,-52" class="g5_90" />
<path d="M953.5,528.5l0,-54" class="g5_90" />
<path d="M787.5,475.5l166,0" class="g5_90" />
<path d="M953.5,527.5l0,-52" class="g5_90" />
<path d="M1136.5,528.5l0,-54" class="g5_90" />
<path d="M953.5,475.5l183,0" class="g5_90" />
<path d="M641.5,580.5l0,-54" class="g5_90" />
<path d="M786.5,579.5l0,-52" class="g5_90" />
<path d="M641.5,528.5l146,0" class="g5_90" />
<path d="M786.5,579.5l0,-52" class="g5_90" />
<path d="M953.5,580.5l0,-54" class="g5_90" />
<path d="M787.5,528.5l166,0" class="g5_90" />
<path d="M953.5,579.5l0,-52" class="g5_90" />
<path d="M1136.5,580.5l0,-54" class="g5_90" />
<path d="M953.5,528.5l183,0" class="g5_90" />
<path d="M641.5,610.5l0,-31" class="g5_90" />
<path d="M641.5,610.5l146,0" class="g5_90" />
<path d="M786.5,610.5l0,-31" class="g5_90" />
<path d="M641.5,580.5l146,0" class="g5_90" />
<path d="M786.5,610.5l0,-31" class="g5_90" />
<path d="M786.5,610.5l168,0" class="g5_90" />
<path d="M953.5,610.5l0,-31" class="g5_90" />
<path d="M787.5,580.5l166,0" class="g5_90" />
<path d="M953.5,610.5l0,-31" class="g5_90" />
<path d="M953.5,610.5l184,0" class="g5_90" />
<path d="M1136.5,610.5l0,-31" class="g5_90" />
<path d="M953.5,580.5l183,0" class="g5_90" />
<path fill-rule="evenodd" d="M160,354l140,0l0,56l-140,0l0,-56Z" class="g2_90" />
<path fill-rule="evenodd" d="M300,354l156,0l0,56l-156,0l0,-56Z" class="g2_90" />
<path fill-rule="evenodd" d="M456,354l137,0l0,56l-137,0l0,-56Z" class="g2_90" />
<path fill-rule="evenodd" d="M160,410l140,0l0,55l-140,0l0,-55Z" class="g3_90" />
<path fill-rule="evenodd" d="M300,410l156,0l0,55l-156,0l0,-55Z" class="g3_90" />
<path fill-rule="evenodd" d="M456,410l137,0l0,55l-137,0l0,-55Z" class="g3_90" />
<path fill-rule="evenodd" d="M160,465l140,0l0,54l-140,0l0,-54Z" class="g4_90" />
<path fill-rule="evenodd" d="M300,465l156,0l0,54l-156,0l0,-54Z" class="g4_90" />
<path fill-rule="evenodd" d="M456,465l137,0l0,54l-137,0l0,-54Z" class="g4_90" />
<path d="M159.5,411.5l0,-57" class="g5_90" />
<path d="M300.5,410.5l0,-56" class="g5_90" />
<path d="M159.5,355.5l142,0" class="g5_90" />
<path d="M300.5,410.5l0,-56" class="g5_90" />
<path d="M455.5,411.5l0,-57" class="g5_90" />
<path d="M300.5,355.5l157,0" class="g5_90" />
<path d="M455.5,410.5l0,-56" class="g5_90" />
<path d="M593.5,411.5l0,-57" class="g5_90" />
<path d="M455.5,355.5l139,0" class="g5_90" />
<path d="M159.5,465.5l0,-56" class="g5_90" />
<path d="M300.5,465.5l0,-55" class="g5_90" />
<path fill-rule="evenodd" d="M300.7,410.7l-0.6,2l-139.2,0l-0.8,-2l0.8,-2.2l139.2,0l0.6,2.2Z" class="g1_90" />
<path d="M300.5,465.5l0,-55" class="g5_90" />
<path d="M455.5,465.5l0,-56" class="g5_90" />
<path fill-rule="evenodd" d="M456.5,410.7l-0.8,2l-154.4,0l-0.6,-2l0.6,-2.2l154.4,0l0.8,2.2Z" class="g1_90" />
<path d="M455.5,465.5l0,-55" class="g5_90" />
<path d="M593.5,465.5l0,-56" class="g5_90" />
<path fill-rule="evenodd" d="M594,410.7l-0.8,2l-136.1,0l-0.6,-2l0.6,-2.2l136.1,0l0.8,2.2Z" class="g1_90" />
<path d="M159.5,520.5l0,-56" class="g5_90" />
<path d="M159.5,520.5l142,0" class="g5_90" />
<path d="M300.5,519.5l0,-54" class="g5_90" />
<path d="M160.5,465.5l140,0" class="g5_90" />
<path d="M300.5,519.5l0,-54" class="g5_90" />
<path d="M300.5,520.5l157,0" class="g5_90" />
<path d="M455.5,520.5l0,-56" class="g5_90" />
<path d="M300.5,465.5l156,0" class="g5_90" />
<path d="M455.5,519.5l0,-54" class="g5_90" />
<path d="M455.5,520.5l139,0" class="g5_90" />
<path d="M593.5,520.5l0,-56" class="g5_90" />
<path d="M456.5,465.5l137,0" class="g5_90" />
<path fill-rule="evenodd" d="M160,535l131,0l0,59l-131,0l0,-59Z" class="g2_90" />
<path fill-rule="evenodd" d="M291,535l165,0l0,59l-165,0l0,-59Z" class="g2_90" />
<path fill-rule="evenodd" d="M456,535l137,0l0,59l-137,0l0,-59Z" class="g2_90" />
<path fill-rule="evenodd" d="M160,594l131,0l0,58l-131,0l0,-58Z" class="g3_90" />
<path fill-rule="evenodd" d="M291,594l165,0l0,58l-165,0l0,-58Z" class="g3_90" />
<path fill-rule="evenodd" d="M456,594l137,0l0,58l-137,0l0,-58Z" class="g3_90" />
<path fill-rule="evenodd" d="M160,652l131,0l0,59l-131,0l0,-59Z" class="g4_90" />
<path fill-rule="evenodd" d="M291,652l165,0l0,59l-165,0l0,-59Z" class="g4_90" />
<path fill-rule="evenodd" d="M456,652l137,0l0,59l-137,0l0,-59Z" class="g4_90" />
<path d="M159.5,595.5l0,-60" class="g5_90" />
<path d="M290.5,594.5l0,-59" class="g5_90" />
<path d="M159.5,536.5l133,0" class="g5_90" />
<path d="M290.5,594.5l0,-59" class="g5_90" />
<path d="M455.5,595.5l0,-60" class="g5_90" />
<path d="M290.5,536.5l167,0" class="g5_90" />
<path d="M455.5,594.5l0,-59" class="g5_90" />
<path d="M593.5,595.5l0,-60" class="g5_90" />
<path d="M455.5,536.5l139,0" class="g5_90" />
<path d="M159.5,653.5l0,-61" class="g5_90" />
<path d="M290.5,652.5l0,-58" class="g5_90" />
<path fill-rule="evenodd" d="M291.5,594.3l-0.6,2l-130,0l-0.8,-2l0.8,-2.1l130,0l0.6,2.1Z" class="g1_90" />
<path d="M290.5,652.5l0,-58" class="g5_90" />
<path d="M455.5,653.5l0,-61" class="g5_90" />
<path fill-rule="evenodd" d="M456.5,594.3l-0.6,2l-163.8,0l-0.6,-2l0.6,-2.1l163.8,0l0.6,2.1Z" class="g1_90" />
<path d="M455.5,652.5l0,-58" class="g5_90" />
<path d="M593.5,653.5l0,-61" class="g5_90" />
<path fill-rule="evenodd" d="M594,594.3l-0.6,2l-136.3,0l-0.6,-2l0.6,-2.1l136.3,0l0.6,2.1Z" class="g1_90" />
<path d="M159.5,712.5l0,-60" class="g5_90" />
<path d="M159.5,712.5l133,0" class="g5_90" />
<path d="M290.5,711.5l0,-59" class="g5_90" />
<path d="M160.5,653.5l131,0" class="g5_90" />
<path d="M290.5,711.5l0,-59" class="g5_90" />
<path d="M290.5,712.5l167,0" class="g5_90" />
<path d="M455.5,712.5l0,-60" class="g5_90" />
<path d="M291.5,653.5l165,0" class="g5_90" />
<path d="M455.5,711.5l0,-59" class="g5_90" />
<path d="M455.5,712.5l139,0" class="g5_90" />
<path d="M593.5,712.5l0,-60" class="g5_90" />
<path d="M456.5,653.5l137,0" class="g5_90" />
<path fill-rule="evenodd" d="M980.8,15.3l0,-0.3l0,-0.3l0,-0.3L981,14.1l0,-0.3l0.1,-0.4l0,-0.3l0.2,-0.3l0.1,-0.3l0.2,-0.3l0.1,-0.3l0.4,-0.1l0.1,-0.3l0.2,-0.3L982.7,11l0.1,-0.3l0.3,-0.2l0.2,-0.1l0.3,-0.2l0.3,-0.3l0.3,-0.1l0.3,-0.2l0.2,0L985,9.5l0.4,0l0.3,-0.2l0.3,0l0.3,-0.1l0.3,0l0.3,0l189.5,0l0.3,0l0.3,0l0.3,0.1l0.3,0l0.3,0.2l0.3,0l0.3,0.1l0.3,0l0.3,0.3l0.3,0l0.2,0.3l0.3,0.2l0.3,0.1l0.2,0.3l0.3,0.2l0.1,0.2l0.3,0.3l0.2,0.3l0.1,0.3l0.2,0.1l0.1,0.3l0.2,0.3l0.1,0.3l0,0.3l0.2,0.4l0.1,0.3l0,0.3l0,0.3l0,0.3l0,0.3l0.2,24.4l0,0.3l-0.2,0.3l0,0.3l0,0.3l-0.1,0.4l0,0.3l-0.2,0.3l-0.1,0.3l-0.2,0.3l-0.1,0.3l-0.2,0.1l-0.1,0.3l-0.2,0.3l-0.3,0.3l-0.1,0.2l-0.3,0.2l-0.2,0.3l-0.3,0.1l-0.3,0.2l-0.2,0.1l-0.3,0.2l-0.3,0.1l-0.3,0.2l-0.3,0.1l-0.3,0l-0.3,0.2l-0.3,0l-0.3,0l-0.3,0.1l-0.3,0l-189.5,0l-0.3,0l-0.3,0L986,45.7l-0.3,0l-0.3,-0.2l-0.4,0l-0.3,-0.1l-0.2,0l-0.3,-0.2l-0.3,-0.1l-0.3,-0.3l-0.3,-0.2l-0.2,-0.1l-0.3,-0.2L982.7,44l-0.3,-0.2l-0.2,-0.3l-0.1,-0.3l-0.4,-0.1l-0.1,-0.3l-0.2,-0.3l-0.1,-0.3l-0.2,-0.3l0,-0.3L981,41.3l0,-0.4l-0.2,-0.3l0,-0.3l0,-0.3l0,-0.3l0,-24.4Z" class="g1_90" />
<path d="M980.8,15.3l0,-0.3l0,-0.3l0,-0.3L981,14.1l0,-0.3l0.1,-0.4l0,-0.3l0.2,-0.3l0.1,-0.3l0.2,-0.3l0.1,-0.3l0.4,-0.1l0.1,-0.3l0.2,-0.3L982.7,11l0.1,-0.3l0.3,-0.2l0.2,-0.1l0.3,-0.2l0.3,-0.3l0.3,-0.1l0.3,-0.2l0.2,0L985,9.5l0.4,0l0.3,-0.2l0.3,0l0.3,-0.1l0.3,0l0.3,0l189.5,0l0.3,0l0.3,0l0.3,0.1l0.3,0l0.3,0.2l0.3,0l0.3,0.1l0.3,0l0.3,0.3l0.3,0l0.2,0.3l0.3,0.2l0.3,0.1l0.2,0.3l0.3,0.2l0.1,0.2l0.3,0.3l0.2,0.3l0.1,0.3l0.2,0.1l0.1,0.3l0.2,0.3l0.1,0.3l0,0.3l0.2,0.4l0.1,0.3l0,0.3l0,0.3l0,0.3l0,0.3l0.2,24.4l0,0.3l-0.2,0.3l0,0.3l0,0.3l-0.1,0.4l0,0.3l-0.2,0.3l-0.1,0.3l-0.2,0.3l-0.1,0.3l-0.2,0.1l-0.1,0.3l-0.2,0.3l-0.3,0.3l-0.1,0.2l-0.3,0.2l-0.2,0.3l-0.3,0.1l-0.3,0.2l-0.2,0.1l-0.3,0.2l-0.3,0.1l-0.3,0.2l-0.3,0.1l-0.3,0l-0.3,0.2l-0.3,0l-0.3,0l-0.3,0.1l-0.3,0l-189.5,0l-0.3,0l-0.3,0L986,45.7l-0.3,0l-0.3,-0.2l-0.4,0l-0.3,-0.1l-0.2,0l-0.3,-0.2l-0.3,-0.1l-0.3,-0.3l-0.3,-0.2l-0.2,-0.1l-0.3,-0.2L982.7,44l-0.3,-0.2l-0.2,-0.3l-0.1,-0.3l-0.4,-0.1l-0.1,-0.3l-0.2,-0.3l-0.1,-0.3l-0.2,-0.3l0,-0.3L981,41.3l0,-0.4l-0.2,-0.3l0,-0.3l0,-0.3l0,-0.3l0,-24.4Z" class="g6_90" />
</svg>