<?xml version="1.0" encoding="UTF-8" standalone="no"?>
<!DOCTYPE svg PUBLIC "-//W3C//DTD SVG 1.1//EN"
"http://www.w3.org/Graphics/SVG/1.1/DTD/svg11.dtd">
<svg viewBox="0 0 1210 1210" version="1.1" xmlns="http://www.w3.org/2000/svg" xmlns:xlink="http://www.w3.org/1999/xlink">
<defs>
<style type="text/css"><![CDATA[
.g2_12{
fill: none;
stroke: #0000EE;
stroke-width: 2;
stroke-linecap: butt;
stroke-linejoin: miter;
}
.g3_12{
fill: none;
stroke: #418AB3;
stroke-width: 2;
stroke-linecap: butt;
stroke-linejoin: miter;
stroke-miterlimit: 7;
}
.g1_12{
fill: #FFFFFF;
}
]]></style>
</defs>
<path fill-rule="evenodd" d="M0,0L1210,0l0,1210L0,1210L0,0Z" class="g1_12" />
<path fill-rule="evenodd" d="M0,0L1210,0l0,1210L0,1210L0,0Z" class="g1_12" />
<path d="M274,729l66,0" class="g2_12" />
<path d="M340,729l290,0" class="g2_12" />
<path d="M630,729l6,0" class="g2_12" />
<path fill-rule="evenodd" d="M165,610.3l0,-0.9l0,-0.9l0.2,-0.9l0.1,-0.9l0.3,-0.9l0.2,-0.8l0.3,-0.9l0.3,-0.8l0.4,-0.9l0.5,-0.8l0.5,-0.7l0.4,-0.8l0.6,-0.6l0.6,-0.8l0.6,-0.6l0.7,-0.6l0.7,-0.6l0.6,-0.6l0.8,-0.5l0.8,-0.4l0.7,-0.5l0.9,-0.4l0.8,-0.3l0.9,-0.4l0.8,-0.1l0.9,-0.3l0.9,-0.2l0.9,-0.1l0.9,0l1,0l845.4,0l1,0l0.9,0l0.7,0.1l1,0.2l0.9,0.3l0.7,0.1l0.9,0.4l1,0.4l0.7,0.3l0.8,0.5l0.8,0.4l0.7,0.5l0.6,0.6l0.8,0.6l0.6,0.6l0.6,0.6l0.6,0.8l0.6,0.6l0.5,0.8l0.5,0.7l0.4,1l0.5,0.7l0.3,0.8l0.3,0.9l0.1,0.8l0.3,0.9l0.2,0.9l0.1,0.9l0,0.9l0,0.9l0.2,69.1l-0.2,0.9l0,0.9l-0.1,0.8l-0.2,0.9l-0.1,0.9l-0.3,1l-0.3,0.7l-0.3,0.9l-0.5,0.8l-0.4,0.8l-0.5,0.7l-0.5,0.8l-0.6,0.7l-0.4,0.7l-0.6,0.6l-0.8,0.6l-0.6,0.6l-0.8,0.6l-0.7,0.5l-0.8,0.4l-0.8,0.5l-0.7,0.4l-1,0.3l-0.9,0.3l-0.7,0.2l-0.9,0.3l-1,0.2l-0.7,0.1l-0.9,0l-1,0l-845.4,0.2l-1,0l-0.9,-0.2l-0.9,-0.1l-0.9,-0.2l-0.9,-0.1l-0.8,-0.4L176,695.4l-0.8,-0.3l-0.9,-0.3l-0.7,-0.4l-0.8,-0.5L172,693.3l-0.6,-0.5l-0.7,-0.6L170,691.6l-0.6,-0.7l-0.6,-0.7l-0.6,-0.7l-0.4,-0.8L167.3,688l-0.5,-0.8l-0.4,-0.8l-0.3,-0.9l-0.3,-0.7l-0.2,-1l-0.3,-0.9L165.2,682L165,681.2l0,-0.9l0,-0.9l0,-69.1Z" class="g1_12" />
<path d="M165,610.3l0,-0.9l0,-0.9l0.2,-0.9l0.1,-0.9l0.3,-0.9l0.2,-0.8l0.3,-0.9l0.3,-0.8l0.4,-0.9l0.5,-0.8l0.5,-0.7l0.4,-0.8l0.6,-0.6l0.6,-0.8l0.6,-0.6l0.7,-0.6l0.7,-0.6l0.6,-0.6l0.8,-0.5l0.8,-0.4l0.7,-0.5l0.9,-0.4l0.8,-0.3l0.9,-0.4l0.8,-0.1l0.9,-0.3l0.9,-0.2l0.9,-0.1l0.9,0l1,0l845.4,0l1,0l0.9,0l0.7,0.1l1,0.2l0.9,0.3l0.7,0.1l0.9,0.4l1,0.4l0.7,0.3l0.8,0.5l0.8,0.4l0.7,0.5l0.6,0.6l0.8,0.6l0.6,0.6l0.6,0.6l0.6,0.8l0.6,0.6l0.5,0.8l0.5,0.7l0.4,1l0.5,0.7l0.3,0.8l0.3,0.9l0.1,0.8l0.3,0.9l0.2,0.9l0.1,0.9l0,0.9l0,0.9l0.2,69.1l-0.2,0.9l0,0.9l-0.1,0.8l-0.2,0.9l-0.1,0.9l-0.3,1l-0.3,0.7l-0.3,0.9l-0.5,0.8l-0.4,0.8l-0.5,0.7l-0.5,0.8l-0.6,0.7l-0.4,0.7l-0.6,0.6l-0.8,0.6l-0.6,0.6l-0.8,0.6l-0.7,0.5l-0.8,0.4l-0.8,0.5l-0.7,0.4l-1,0.3l-0.9,0.3l-0.7,0.2l-0.9,0.3l-1,0.2l-0.7,0.1l-0.9,0l-1,0l-845.4,0.2l-1,0l-0.9,-0.2l-0.9,-0.1l-0.9,-0.2l-0.9,-0.1l-0.8,-0.4L176,695.4l-0.8,-0.3l-0.9,-0.3l-0.7,-0.4l-0.8,-0.5L172,693.3l-0.6,-0.5l-0.7,-0.6L170,691.6l-0.6,-0.7l-0.6,-0.7l-0.6,-0.7l-0.4,-0.8L167.3,688l-0.5,-0.8l-0.4,-0.8l-0.3,-0.9l-0.3,-0.7l-0.2,-1l-0.3,-0.9L165.2,682L165,681.2l0,-0.9l0,-0.9l0,-69.1Z" class="g3_12" />
<path d="M290,670l66,0" class="g2_12" />
<path d="M356,670l404,0" class="g2_12" />
<path d="M760,670l6,0" class="g2_12" />
<image x="446" y="155" width="318" height="359" xlink:href="img/1.png" />
</svg>