<?xml version="1.0" encoding="UTF-8" standalone="no"?>
<!DOCTYPE svg PUBLIC "-//W3C//DTD SVG 1.1//EN"
"http://www.w3.org/Graphics/SVG/1.1/DTD/svg11.dtd">
<svg viewBox="0 0 1210 1045" version="1.1" xmlns="http://www.w3.org/2000/svg" xmlns:xlink="http://www.w3.org/1999/xlink">
<defs>
<style type="text/css"><![CDATA[
.g2_51{
fill: none;
stroke: #418AB3;
stroke-width: 2;
stroke-linecap: butt;
stroke-linejoin: miter;
stroke-miterlimit: 7;
}
.g1_51{
fill: #FFFFFF;
}
]]></style>
</defs>
<path fill-rule="evenodd" d="M0,0L1210,0l0,1045L0,1045L0,0Z" class="g1_51" />
<path fill-rule="evenodd" d="M0,0L1210,0l0,1045L0,1045L0,0Z" class="g1_51" />
<image x="828" y="984" width="334" height="49" xlink:href="img/1.png" />
<path fill-rule="evenodd" d="M907.5,25.2l0,-0.3l0,-0.5L907.7,24l0,-0.3l0.1,-0.5L908,22.9l0,-0.4l0.1,-0.3l0.3,-0.5l0.2,-0.3l0.1,-0.3L909,20.6l0.2,-0.3L909.5,20l0.3,-0.3l0.3,-0.1l0.3,-0.4l0.3,-0.3L911,18.8l0.5,-0.3l0.3,-0.2l0.3,-0.1L912.5,18l0.3,-0.1l0.5,-0.2l0.3,0l0.5,-0.1l0.3,0l0.4,0l0.5,0l267.7,0l0.3,0l0.4,0l0.3,0l0.5,0.1l0.4,0l0.3,0.2l0.5,0.1l0.3,0.2l0.5,0.1l0.3,0.2l0.3,0.3l0.3,0.1l0.3,0.3l0.3,0.4l0.3,0.3l0.3,0.3l0.3,0.3l0.2,0.1l0.3,0.5l0.1,0.3l0.3,0.3l0.2,0.5l0.1,0.3l0,0.4l0.2,0.3l0.1,0.5l0,0.3l0.2,0.4l0,0.5l0,0.3l0.2,31.2l0,0.3l-0.2,0.4l0,0.5l-0.2,0.3l0,0.5l-0.1,0.3l-0.2,0.4l-0.1,0.3l-0.2,0.5l-0.1,0.3l-0.3,0.3l-0.2,0.5l-0.3,0.3l-0.3,0.3l-0.1,0.3l-0.3,0.1l-0.4,0.3l-0.4,0.3l-0.3,0.2l-0.3,0.1l-0.3,0.4l-0.5,0.1l-0.3,0.2l-0.5,0.1l-0.3,0.2l-0.4,0L1184,64l-0.3,0l-0.4,0l-0.3,0L915.3,64.2l-0.5,0l-0.4,0L914.1,64l-0.5,0l-0.3,-0.1l-0.5,-0.2l-0.3,-0.1l-0.4,-0.2l-0.3,-0.1l-0.3,-0.2L911,62.9l-0.3,-0.3l-0.3,-0.3l-0.3,-0.1l-0.3,-0.3l-0.3,-0.3l-0.3,-0.3L909,61l-0.3,-0.3l-0.1,-0.5l-0.2,-0.3l-0.3,-0.5L908,59.1l0,-0.3l-0.2,-0.4l-0.1,-0.5l0,-0.3l-0.2,-0.5l0,-0.4l0,-0.3l0,-31.2Z" class="g1_51" />
<path d="M907.5,25.2l0,-0.3l0,-0.5L907.7,24l0,-0.3l0.1,-0.5L908,22.9l0,-0.4l0.1,-0.3l0.3,-0.5l0.2,-0.3l0.1,-0.3L909,20.6l0.2,-0.3L909.5,20l0.3,-0.3l0.3,-0.1l0.3,-0.4l0.3,-0.3L911,18.8l0.5,-0.3l0.3,-0.2l0.3,-0.1L912.5,18l0.3,-0.1l0.5,-0.2l0.3,0l0.5,-0.1l0.3,0l0.4,0l0.5,0l267.7,0l0.3,0l0.4,0l0.3,0l0.5,0.1l0.4,0l0.3,0.2l0.5,0.1l0.3,0.2l0.5,0.1l0.3,0.2l0.3,0.3l0.3,0.1l0.3,0.3l0.3,0.4l0.3,0.3l0.3,0.3l0.3,0.3l0.2,0.1l0.3,0.5l0.1,0.3l0.3,0.3l0.2,0.5l0.1,0.3l0,0.4l0.2,0.3l0.1,0.5l0,0.3l0.2,0.4l0,0.5l0,0.3l0.2,31.2l0,0.3l-0.2,0.4l0,0.5l-0.2,0.3l0,0.5l-0.1,0.3l-0.2,0.4l-0.1,0.3l-0.2,0.5l-0.1,0.3l-0.3,0.3l-0.2,0.5l-0.3,0.3l-0.3,0.3l-0.1,0.3l-0.3,0.1l-0.4,0.3l-0.4,0.3l-0.3,0.2l-0.3,0.1l-0.3,0.4l-0.5,0.1l-0.3,0.2l-0.5,0.1l-0.3,0.2l-0.4,0L1184,64l-0.3,0l-0.4,0l-0.3,0L915.3,64.2l-0.5,0l-0.4,0L914.1,64l-0.5,0l-0.3,-0.1l-0.5,-0.2l-0.3,-0.1l-0.4,-0.2l-0.3,-0.1l-0.3,-0.2L911,62.9l-0.3,-0.3l-0.3,-0.3l-0.3,-0.1l-0.3,-0.3l-0.3,-0.3l-0.3,-0.3L909,61l-0.3,-0.3l-0.1,-0.5l-0.2,-0.3l-0.3,-0.5L908,59.1l0,-0.3l-0.2,-0.4l-0.1,-0.5l0,-0.3l-0.2,-0.5l0,-0.4l0,-0.3l0,-31.2Z" class="g2_51" />
</svg>