<?xml version="1.0" encoding="UTF-8" standalone="no"?>
<!DOCTYPE svg PUBLIC "-//W3C//DTD SVG 1.1//EN"
"http://www.w3.org/Graphics/SVG/1.1/DTD/svg11.dtd">
<svg viewBox="0 0 1100 825" version="1.1" xmlns="http://www.w3.org/2000/svg" xmlns:xlink="http://www.w3.org/1999/xlink">
<defs>
<style type="text/css"><![CDATA[
.g2_117{
fill: none;
stroke: #418AB3;
stroke-width: 2;
stroke-linecap: butt;
stroke-linejoin: miter;
stroke-miterlimit: 7;
}
.g1_117{
fill: #FFFFFF;
}
]]></style>
</defs>
<path fill-rule="evenodd" d="M0,0L1100,0l0,825L0,825L0,0Z" class="g1_117" />
<path fill-rule="evenodd" d="M0,0L1100,0l0,825L0,825L0,0Z" class="g1_117" />
<image x="753" y="777" width="303" height="38" xlink:href="img/1.png" />
<path fill-rule="evenodd" d="M906.1,13.4l0,-0.3l0.2,-0.3l0,-0.3l0,-0.3l0.1,-0.1l0,-0.3l0.2,-0.3l0.1,-0.3l0,-0.4l0.2,-0.1L907,10.4l0.2,-0.2l0.3,-0.3l0.2,-0.3l0.1,-0.1L908,9.3l0.3,-0.1l0.3,-0.3l0.1,0L909,8.6l0.2,0l0.3,-0.2l0.3,-0.1l0.1,-0.2l0.3,0l0.4,-0.2l0.3,0l0.3,0l0.3,0l0.3,0l167.6,0l0.3,0l0.3,0l0.3,0l0.1,0l0.4,0.2l0.3,0.2l0.3,0l0.3,0.1l0.3,0.2l0.1,0l0.3,0.3l0.2,0.1l0.3,0.2l0.1,0.1l0.3,0.2l0.2,0.3l0.2,0.1l0.1,0.3l0.2,0.2l0.1,0.3l0.2,0.1l0.1,0.4l0.2,0.3l0,0.3l0.1,0.3l0,0.3l0.2,0.1l0,0.3l0,0.3l0,0.3l0.1,22.2l-0.1,0l0,0.3l0,0.3l0,0.3l0,0.3l-0.2,0.3l-0.1,0.2l0,0.3l-0.2,0.3l-0.1,0.3l0,0.1l-0.3,0.4l-0.2,0.3l-0.1,0.1l-0.2,0.2l-0.2,0.3l-0.3,0.1l-0.1,0.2l-0.3,0.1l-0.2,0.3l-0.3,0l-0.1,0.2l-0.3,0.1l-0.3,0.2l-0.3,0.1l-0.3,0l-0.4,0l-0.1,0.2l-0.3,0l-0.3,0l-0.3,0L911.8,41.3l-0.3,0l-0.3,-0.2l-0.3,0l-0.3,0l-0.4,-0.2l-0.3,0l-0.1,-0.1l-0.3,-0.2l-0.3,0L909,40.5l-0.3,-0.2l-0.1,-0.1l-0.3,-0.3L908,39.7l-0.2,-0.1l-0.1,-0.2l-0.2,-0.3L907.2,39L907,38.7l-0.1,-0.4l-0.2,-0.1l0,-0.3l-0.1,-0.3l-0.2,-0.2l0,-0.3l-0.1,-0.3l0,-0.3l0,-0.3l-0.2,-0.3l0,-0.3l0,-22.2Z" class="g1_117" />
<path d="M906.1,13.4l0,-0.3l0.2,-0.3l0,-0.3l0,-0.3l0.1,-0.1l0,-0.3l0.2,-0.3l0.1,-0.3l0,-0.4l0.2,-0.1L907,10.4l0.2,-0.2l0.3,-0.3l0.2,-0.3l0.1,-0.1L908,9.3l0.3,-0.1l0.3,-0.3l0.1,0L909,8.6l0.2,0l0.3,-0.2l0.3,-0.1l0.1,-0.2l0.3,0l0.4,-0.2l0.3,0l0.3,0l0.3,0l0.3,0l167.6,0l0.3,0l0.3,0l0.3,0l0.1,0l0.4,0.2l0.3,0.2l0.3,0l0.3,0.1l0.3,0.2l0.1,0l0.3,0.3l0.2,0.1l0.3,0.2l0.1,0.1l0.3,0.2l0.2,0.3l0.2,0.1l0.1,0.3l0.2,0.2l0.1,0.3l0.2,0.1l0.1,0.4l0.2,0.3l0,0.3l0.1,0.3l0,0.3l0.2,0.1l0,0.3l0,0.3l0,0.3l0.1,22.2l-0.1,0l0,0.3l0,0.3l0,0.3l0,0.3l-0.2,0.3l-0.1,0.2l0,0.3l-0.2,0.3l-0.1,0.3l0,0.1l-0.3,0.4l-0.2,0.3l-0.1,0.1l-0.2,0.2l-0.2,0.3l-0.3,0.1l-0.1,0.2l-0.3,0.1l-0.2,0.3l-0.3,0l-0.1,0.2l-0.3,0.1l-0.3,0.2l-0.3,0.1l-0.3,0l-0.4,0l-0.1,0.2l-0.3,0l-0.3,0l-0.3,0L911.8,41.3l-0.3,0l-0.3,-0.2l-0.3,0l-0.3,0l-0.4,-0.2l-0.3,0l-0.1,-0.1l-0.3,-0.2l-0.3,0L909,40.5l-0.3,-0.2l-0.1,-0.1l-0.3,-0.3L908,39.7l-0.2,-0.1l-0.1,-0.2l-0.2,-0.3L907.2,39L907,38.7l-0.1,-0.4l-0.2,-0.1l0,-0.3l-0.1,-0.3l-0.2,-0.2l0,-0.3l-0.1,-0.3l0,-0.3l0,-0.3l-0.2,-0.3l0,-0.3l0,-22.2Z" class="g2_117" />
</svg>