<?xml version="1.0" encoding="UTF-8" standalone="no"?>
<!DOCTYPE svg PUBLIC "-//W3C//DTD SVG 1.1//EN"
"http://www.w3.org/Graphics/SVG/1.1/DTD/svg11.dtd">
<svg viewBox="0 0 1210 1210" version="1.1" xmlns="http://www.w3.org/2000/svg" xmlns:xlink="http://www.w3.org/1999/xlink">
<defs>
<style type="text/css"><![CDATA[
.g2_166{
fill: none;
stroke: #418AB3;
stroke-width: 2;
stroke-linecap: butt;
stroke-linejoin: miter;
stroke-miterlimit: 7;
}
.g3_166{
fill: none;
stroke: #0000EE;
stroke-width: 2;
stroke-linecap: butt;
stroke-linejoin: miter;
}
.g1_166{
fill: #FFFFFF;
}
]]></style>
</defs>
<path fill-rule="evenodd" d="M0,0L1210,0l0,1210L0,1210L0,0Z" class="g1_166" />
<path fill-rule="evenodd" d="M0,0L1210,0l0,1210L0,1210L0,0Z" class="g1_166" />
<path fill-rule="evenodd" d="M165,77.9l0,-1.2l0.2,-1.2l0.1,-1.3l0.2,-1L165.8,72l0.3,-1.1l0.4,-1.2L167,68.6l0.4,-1.1l0.7,-1l0.6,-1.1l0.7,-0.9L170,63.6l1,-1l0.7,-0.9L172.6,61l1,-1l0.9,-0.6l0.9,-0.7l1.1,-0.6l1,-0.7L178.6,57l1.1,-0.5l1.2,-0.4L182,55.8l1.2,-0.3l1,-0.2l1.3,-0.1L186.7,55l1.2,0L952,55l1.2,0l1,0.2l1.3,0.1l1.2,0.2l1.2,0.3l1.1,0.3l1.1,0.4l1.2,0.5l1,0.4l1.1,0.7l0.9,0.6l1.1,0.7l0.9,0.6l0.9,1l1,0.7l0.7,0.9l0.8,1l0.7,0.9l0.7,0.9l0.6,1.1l0.6,1l0.4,1.1l0.6,1.1l0.4,1.2L974,72l0.3,1.2l0.3,1l0.1,1.3l0,1.2l0.2,1.2l0,91.7l0,1.2l-0.2,1.1l-0.1,1.2l-0.3,1.2l-0.2,1.2l-0.4,1.1l-0.4,1.1l-0.4,1.2l-0.6,1.1l-0.5,1l-0.7,1l-0.7,1l-0.7,0.9l-0.8,1l-0.7,0.7l-1,0.9l-0.9,0.8l-0.9,0.8l-1.1,0.6l-0.9,0.6l-1.1,0.6l-1,0.5l-1.2,0.6l-1.1,0.3l-1.1,0.3l-1.2,0.3l-1.2,0.3l-1.3,0.1l-1,0l-1.2,0l-764.1,0.2l-1.2,-0.2l-1.2,0l-1.3,-0.1l-1,-0.3L182,191.7l-1.1,-0.4L179.7,191l-1.1,-0.5l-1.1,-0.6l-1,-0.5l-1.1,-0.6l-0.9,-0.7l-0.9,-0.8l-1,-0.8l-0.9,-0.7L171,184.9l-1,-1L169.4,183l-0.7,-1l-0.6,-1l-0.7,-1L167,178.9l-0.5,-1.1l-0.4,-1.2l-0.3,-1.1l-0.3,-1.2l-0.2,-1.2l-0.1,-1.2L165,170.8l0,-1.2l0,-91.7Z" class="g1_166" />
<path d="M165,77.9l0,-1.2l0.2,-1.2l0.1,-1.3l0.2,-1L165.8,72l0.3,-1.1l0.4,-1.2L167,68.6l0.4,-1.1l0.7,-1l0.6,-1.1l0.7,-0.9L170,63.6l1,-1l0.7,-0.9L172.6,61l1,-1l0.9,-0.6l0.9,-0.7l1.1,-0.6l1,-0.7L178.6,57l1.1,-0.5l1.2,-0.4L182,55.8l1.2,-0.3l1,-0.2l1.3,-0.1L186.7,55l1.2,0L952,55l1.2,0l1,0.2l1.3,0.1l1.2,0.2l1.2,0.3l1.1,0.3l1.1,0.4l1.2,0.5l1,0.4l1.1,0.7l0.9,0.6l1.1,0.7l0.9,0.6l0.9,1l1,0.7l0.7,0.9l0.8,1l0.7,0.9l0.7,0.9l0.6,1.1l0.6,1l0.4,1.1l0.6,1.1l0.4,1.2L974,72l0.3,1.2l0.3,1l0.1,1.3l0,1.2l0.2,1.2l0,91.7l0,1.2l-0.2,1.1l-0.1,1.2l-0.3,1.2l-0.2,1.2l-0.4,1.1l-0.4,1.1l-0.4,1.2l-0.6,1.1l-0.5,1l-0.7,1l-0.7,1l-0.7,0.9l-0.8,1l-0.7,0.7l-1,0.9l-0.9,0.8l-0.9,0.8l-1.1,0.6l-0.9,0.6l-1.1,0.6l-1,0.5l-1.2,0.6l-1.1,0.3l-1.1,0.3l-1.2,0.3l-1.2,0.3l-1.3,0.1l-1,0l-1.2,0l-764.1,0.2l-1.2,-0.2l-1.2,0l-1.3,-0.1l-1,-0.3L182,191.7l-1.1,-0.4L179.7,191l-1.1,-0.5l-1.1,-0.6l-1,-0.5l-1.1,-0.6l-0.9,-0.7l-0.9,-0.8l-1,-0.8l-0.9,-0.7L171,184.9l-1,-1L169.4,183l-0.7,-1l-0.6,-1l-0.7,-1L167,178.9l-0.5,-1.1l-0.4,-1.2l-0.3,-1.1l-0.3,-1.2l-0.2,-1.2l-0.1,-1.2L165,170.8l0,-1.2l0,-91.7Z" class="g2_166" />
<path d="M267,132l458,0" class="g3_166" />
<path d="M322,165l612,0" class="g3_166" />
</svg>