<?xml version="1.0" encoding="UTF-8" standalone="no"?>
<!DOCTYPE svg PUBLIC "-//W3C//DTD SVG 1.1//EN"
"http://www.w3.org/Graphics/SVG/1.1/DTD/svg11.dtd">
<svg viewBox="0 0 1210 1045" version="1.1" xmlns="http://www.w3.org/2000/svg" xmlns:xlink="http://www.w3.org/1999/xlink">
<defs>
<style type="text/css"><![CDATA[
.g2_97{
fill: #418AB3;
}
.g5_97{
fill: none;
stroke: #FFFFFF;
stroke-width: 1;
stroke-linecap: butt;
stroke-linejoin: miter;
}
.g3_97{
fill: #CEDAE4;
}
.g6_97{
fill: none;
stroke: #418AB3;
stroke-width: 2;
stroke-linecap: butt;
stroke-linejoin: miter;
stroke-miterlimit: 7;
}
.g4_97{
fill: #E8EDF2;
}
.g1_97{
fill: #FFFFFF;
}
]]></style>
</defs>
<path fill-rule="evenodd" d="M0,0L1210,0l0,1045L0,1045L0,0Z" class="g1_97" />
<path fill-rule="evenodd" d="M0,0L1210,0l0,1045L0,1045L0,0Z" class="g1_97" />
<image x="828" y="984" width="334" height="49" xlink:href="img/1.png" />
<path fill-rule="evenodd" d="M115,160l130,0l0,52l-130,0l0,-52Z" class="g2_97" />
<path fill-rule="evenodd" d="M245,160l156,0l0,52l-156,0l0,-52Z" class="g2_97" />
<path fill-rule="evenodd" d="M401,160l154,0l0,52l-154,0l0,-52Z" class="g2_97" />
<path fill-rule="evenodd" d="M115,212l130,0l0,31l-130,0l0,-31Z" class="g3_97" />
<path fill-rule="evenodd" d="M245,212l156,0l0,31l-156,0l0,-31Z" class="g3_97" />
<path fill-rule="evenodd" d="M401,212l154,0l0,31l-154,0l0,-31Z" class="g3_97" />
<path fill-rule="evenodd" d="M115,243l130,0l0,52l-130,0l0,-52Z" class="g4_97" />
<path fill-rule="evenodd" d="M245,243l156,0l0,52l-156,0l0,-52Z" class="g4_97" />
<path fill-rule="evenodd" d="M401,243l154,0l0,52l-154,0l0,-52Z" class="g4_97" />
<path fill-rule="evenodd" d="M115,295l130,0l0,52l-130,0l0,-52Z" class="g3_97" />
<path fill-rule="evenodd" d="M245,295l156,0l0,52l-156,0l0,-52Z" class="g3_97" />
<path fill-rule="evenodd" d="M401,295l154,0l0,52l-154,0l0,-52Z" class="g3_97" />
<path fill-rule="evenodd" d="M115,347l130,0l0,53l-130,0l0,-53Z" class="g4_97" />
<path fill-rule="evenodd" d="M245,347l156,0l0,53l-156,0l0,-53Z" class="g4_97" />
<path fill-rule="evenodd" d="M401,347l154,0l0,53l-154,0l0,-53Z" class="g4_97" />
<path fill-rule="evenodd" d="M115,400l130,0l0,52l-130,0l0,-52Z" class="g3_97" />
<path fill-rule="evenodd" d="M245,400l156,0l0,52l-156,0l0,-52Z" class="g3_97" />
<path fill-rule="evenodd" d="M401,400l154,0l0,52l-154,0l0,-52Z" class="g3_97" />
<path fill-rule="evenodd" d="M115,452l130,0l0,52l-130,0l0,-52Z" class="g4_97" />
<path fill-rule="evenodd" d="M245,452l156,0l0,52l-156,0l0,-52Z" class="g4_97" />
<path fill-rule="evenodd" d="M401,452l154,0l0,52l-154,0l0,-52Z" class="g4_97" />
<path fill-rule="evenodd" d="M115,504l130,0l0,52l-130,0l0,-52Z" class="g3_97" />
<path fill-rule="evenodd" d="M245,504l156,0l0,52l-156,0l0,-52Z" class="g3_97" />
<path fill-rule="evenodd" d="M401,504l154,0l0,52l-154,0l0,-52Z" class="g3_97" />
<path fill-rule="evenodd" d="M115,556l130,0l0,31l-130,0l0,-31Z" class="g4_97" />
<path fill-rule="evenodd" d="M245,556l156,0l0,31l-156,0l0,-31Z" class="g4_97" />
<path fill-rule="evenodd" d="M401,556l154,0l0,31l-154,0l0,-31Z" class="g4_97" />
<path d="M115.5,214.5l0,-54" class="g5_97" />
<path d="M244.5,212.5l0,-52" class="g5_97" />
<path d="M115.5,161.5l130,0" class="g5_97" />
<path d="M244.5,212.5l0,-52" class="g5_97" />
<path d="M401.5,214.5l0,-54" class="g5_97" />
<path d="M244.5,161.5l158,0" class="g5_97" />
<path d="M401.5,212.5l0,-52" class="g5_97" />
<path d="M555.5,214.5l0,-54" class="g5_97" />
<path d="M401.5,161.5l155,0" class="g5_97" />
<path d="M115.5,243.5l0,-32" class="g5_97" />
<path d="M244.5,243.5l0,-31" class="g5_97" />
<path fill-rule="evenodd" d="M245.2,213l-0.6,2.1l-128,0L116,213l0.6,-2l128,0l0.6,2Z" class="g1_97" />
<path d="M244.5,243.5l0,-31" class="g5_97" />
<path d="M401.5,243.5l0,-32" class="g5_97" />
<path fill-rule="evenodd" d="M401.7,213l-0.7,2.1l-155,0L245.2,213l0.8,-2l155,0l0.7,2Z" class="g1_97" />
<path d="M401.5,243.5l0,-31" class="g5_97" />
<path d="M555.5,243.5l0,-32" class="g5_97" />
<path fill-rule="evenodd" d="M555.8,213l-0.6,2.1l-152.9,0L401.7,213l0.6,-2l152.9,0l0.6,2Z" class="g1_97" />
<path d="M115.5,296.5l0,-54" class="g5_97" />
<path d="M244.5,295.5l0,-52" class="g5_97" />
<path d="M115.5,243.5l130,0" class="g5_97" />
<path d="M244.5,295.5l0,-52" class="g5_97" />
<path d="M401.5,296.5l0,-54" class="g5_97" />
<path d="M245.5,243.5l156,0" class="g5_97" />
<path d="M401.5,295.5l0,-52" class="g5_97" />
<path d="M555.5,296.5l0,-54" class="g5_97" />
<path d="M401.5,243.5l154,0" class="g5_97" />
<path d="M115.5,348.5l0,-54" class="g5_97" />
<path d="M244.5,347.5l0,-52" class="g5_97" />
<path d="M115.5,296.5l130,0" class="g5_97" />
<path d="M244.5,347.5l0,-52" class="g5_97" />
<path d="M401.5,348.5l0,-54" class="g5_97" />
<path d="M245.5,296.5l156,0" class="g5_97" />
<path d="M401.5,347.5l0,-52" class="g5_97" />
<path d="M555.5,348.5l0,-54" class="g5_97" />
<path d="M401.5,296.5l154,0" class="g5_97" />
<path d="M115.5,400.5l0,-53" class="g5_97" />
<path d="M244.5,400.5l0,-53" class="g5_97" />
<path d="M115.5,348.5l130,0" class="g5_97" />
<path d="M244.5,400.5l0,-53" class="g5_97" />
<path d="M401.5,400.5l0,-53" class="g5_97" />
<path d="M245.5,348.5l156,0" class="g5_97" />
<path d="M401.5,400.5l0,-53" class="g5_97" />
<path d="M555.5,400.5l0,-53" class="g5_97" />
<path d="M401.5,348.5l154,0" class="g5_97" />
<path d="M115.5,452.5l0,-53" class="g5_97" />
<path d="M244.5,452.5l0,-52" class="g5_97" />
<path d="M115.5,400.5l130,0" class="g5_97" />
<path d="M244.5,452.5l0,-52" class="g5_97" />
<path d="M401.5,452.5l0,-53" class="g5_97" />
<path d="M245.5,400.5l156,0" class="g5_97" />
<path d="M401.5,452.5l0,-52" class="g5_97" />
<path d="M555.5,452.5l0,-53" class="g5_97" />
<path d="M401.5,400.5l154,0" class="g5_97" />
<path d="M115.5,505.5l0,-54" class="g5_97" />
<path d="M244.5,504.5l0,-52" class="g5_97" />
<path d="M115.5,452.5l130,0" class="g5_97" />
<path d="M244.5,504.5l0,-52" class="g5_97" />
<path d="M401.5,505.5l0,-54" class="g5_97" />
<path d="M245.5,452.5l156,0" class="g5_97" />
<path d="M401.5,504.5l0,-52" class="g5_97" />
<path d="M555.5,505.5l0,-54" class="g5_97" />
<path d="M401.5,452.5l154,0" class="g5_97" />
<path d="M115.5,557.5l0,-53" class="g5_97" />
<path d="M244.5,556.5l0,-52" class="g5_97" />
<path d="M115.5,505.5l130,0" class="g5_97" />
<path d="M244.5,556.5l0,-52" class="g5_97" />
<path d="M401.5,557.5l0,-53" class="g5_97" />
<path d="M245.5,505.5l156,0" class="g5_97" />
<path d="M401.5,556.5l0,-52" class="g5_97" />
<path d="M555.5,557.5l0,-53" class="g5_97" />
<path d="M401.5,505.5l154,0" class="g5_97" />
<path d="M115.5,587.5l0,-31" class="g5_97" />
<path d="M115.5,587.5l130,0" class="g5_97" />
<path d="M244.5,587.5l0,-31" class="g5_97" />
<path d="M115.5,557.5l130,0" class="g5_97" />
<path d="M244.5,587.5l0,-31" class="g5_97" />
<path d="M244.5,587.5l158,0" class="g5_97" />
<path d="M401.5,587.5l0,-31" class="g5_97" />
<path d="M245.5,557.5l156,0" class="g5_97" />
<path d="M401.5,587.5l0,-31" class="g5_97" />
<path d="M401.5,587.5l155,0" class="g5_97" />
<path d="M555.5,587.5l0,-31" class="g5_97" />
<path d="M401.5,557.5l154,0" class="g5_97" />
<path fill-rule="evenodd" d="M980.8,12.8l0,-0.3l0,-0.3l0,-0.3L981,11.6l0,-0.3L981.1,11l0,-0.3l0.2,-0.3l0.1,-0.3l0.2,-0.3l0.1,-0.3l0.4,-0.2L982.2,9l0.2,-0.1l0.3,-0.3l0.1,-0.3l0.3,-0.2l0.2,-0.2l0.3,-0.1l0.3,-0.2l0.3,-0.3l0.3,0l0.2,-0.1L985,7l0.4,0l0.3,-0.1l0.3,0l0.3,0l0.3,-0.2l0.3,0l189.5,0l0.3,0l0.3,0.2l0.3,0l0.3,0l0.3,0.1l0.3,0l0.3,0.2l0.3,0.1l0.3,0.2l0.3,0.1l0.2,0.2l0.3,0.1l0.3,0.2l0.2,0.3l0.3,0.2l0.1,0.3l0.3,0.1l0.2,0.3l0.1,0.3l0.2,0.2l0.1,0.3l0.2,0.3l0.1,0.3l0,0.3l0.2,0.3l0.1,0.3l0,0.3l0,0.3l0,0.3l0,0.3l0.2,24.5l0,0.3l-0.2,0.3l0,0.3l0,0.3l-0.1,0.3l0,0.3l-0.2,0.3l-0.1,0.3l-0.2,0.3l-0.1,0.3l-0.2,0.3l-0.1,0.2l-0.2,0.3l-0.3,0.3l-0.1,0.2l-0.3,0.3l-0.2,0.1l-0.3,0.2l-0.3,0.1l-0.2,0.2l-0.3,0.1l-0.3,0.2l-0.3,0.1l-0.3,0.2l-0.3,0l-0.3,0.1l-0.3,0l-0.3,0l-0.3,0.2l-0.3,0l-189.5,0l-0.3,0l-0.3,0L986,43.2l-0.3,0l-0.3,0L985,43.1l-0.3,-0.2l-0.2,0l-0.3,-0.1l-0.3,-0.2l-0.3,-0.1l-0.3,-0.3L983.1,42l-0.3,-0.1l-0.1,-0.3l-0.3,-0.2l-0.2,-0.3l-0.1,-0.2l-0.4,-0.3l-0.1,-0.3L981.4,40l-0.1,-0.3l-0.2,-0.1l0,-0.3L981,38.8l0,-0.3l-0.2,-0.3l0,-0.3l0,-0.3l0,-0.3l0,-24.5Z" class="g1_97" />
<path d="M980.8,12.8l0,-0.3l0,-0.3l0,-0.3L981,11.6l0,-0.3L981.1,11l0,-0.3l0.2,-0.3l0.1,-0.3l0.2,-0.3l0.1,-0.3l0.4,-0.2L982.2,9l0.2,-0.1l0.3,-0.3l0.1,-0.3l0.3,-0.2l0.2,-0.2l0.3,-0.1l0.3,-0.2l0.3,-0.3l0.3,0l0.2,-0.1L985,7l0.4,0l0.3,-0.1l0.3,0l0.3,0l0.3,-0.2l0.3,0l189.5,0l0.3,0l0.3,0.2l0.3,0l0.3,0l0.3,0.1l0.3,0l0.3,0.2l0.3,0.1l0.3,0.2l0.3,0.1l0.2,0.2l0.3,0.1l0.3,0.2l0.2,0.3l0.3,0.2l0.1,0.3l0.3,0.1l0.2,0.3l0.1,0.3l0.2,0.2l0.1,0.3l0.2,0.3l0.1,0.3l0,0.3l0.2,0.3l0.1,0.3l0,0.3l0,0.3l0,0.3l0,0.3l0.2,24.5l0,0.3l-0.2,0.3l0,0.3l0,0.3l-0.1,0.3l0,0.3l-0.2,0.3l-0.1,0.3l-0.2,0.3l-0.1,0.3l-0.2,0.3l-0.1,0.2l-0.2,0.3l-0.3,0.3l-0.1,0.2l-0.3,0.3l-0.2,0.1l-0.3,0.2l-0.3,0.1l-0.2,0.2l-0.3,0.1l-0.3,0.2l-0.3,0.1l-0.3,0.2l-0.3,0l-0.3,0.1l-0.3,0l-0.3,0l-0.3,0.2l-0.3,0l-189.5,0l-0.3,0l-0.3,0L986,43.2l-0.3,0l-0.3,0L985,43.1l-0.3,-0.2l-0.2,0l-0.3,-0.1l-0.3,-0.2l-0.3,-0.1l-0.3,-0.3L983.1,42l-0.3,-0.1l-0.1,-0.3l-0.3,-0.2l-0.2,-0.3l-0.1,-0.2l-0.4,-0.3l-0.1,-0.3L981.4,40l-0.1,-0.3l-0.2,-0.1l0,-0.3L981,38.8l0,-0.3l-0.2,-0.3l0,-0.3l0,-0.3l0,-0.3l0,-24.5Z" class="g6_97" />
</svg>