<?xml version="1.0" encoding="UTF-8" standalone="no"?>
<!DOCTYPE svg PUBLIC "-//W3C//DTD SVG 1.1//EN"
"http://www.w3.org/Graphics/SVG/1.1/DTD/svg11.dtd">
<svg viewBox="0 0 1210 1045" version="1.1" xmlns="http://www.w3.org/2000/svg" xmlns:xlink="http://www.w3.org/1999/xlink">
<defs>
<style type="text/css"><![CDATA[
.g2_58{
fill: #418AB3;
}
.g5_58{
fill: none;
stroke: #FFFFFF;
stroke-width: 1;
stroke-linecap: butt;
stroke-linejoin: miter;
}
.g3_58{
fill: #CEDAE4;
}
.g6_58{
fill: none;
stroke: #418AB3;
stroke-width: 2;
stroke-linecap: butt;
stroke-linejoin: miter;
stroke-miterlimit: 7;
}
.g4_58{
fill: #E8EDF2;
}
.g1_58{
fill: #FFFFFF;
}
]]></style>
</defs>
<path fill-rule="evenodd" d="M0,0L1210,0l0,1045L0,1045L0,0Z" class="g1_58" />
<path fill-rule="evenodd" d="M0,0L1210,0l0,1045L0,1045L0,0Z" class="g1_58" />
<image x="828" y="984" width="334" height="49" xlink:href="img/1.png" />
<path fill-rule="evenodd" d="M192,149l162,0l0,49l-162,0l0,-49Z" class="g2_58" />
<path fill-rule="evenodd" d="M354,149l255,0l0,49l-255,0l0,-49Z" class="g2_58" />
<path fill-rule="evenodd" d="M609,149l265,0l0,49l-265,0l0,-49Z" class="g2_58" />
<path fill-rule="evenodd" d="M874,149l143,0l0,49l-143,0l0,-49Z" class="g2_58" />
<path fill-rule="evenodd" d="M192,198l162,0l0,65l-162,0l0,-65Z" class="g3_58" />
<path fill-rule="evenodd" d="M354,198l255,0l0,65l-255,0l0,-65Z" class="g3_58" />
<path fill-rule="evenodd" d="M609,198l265,0l0,65l-265,0l0,-65Z" class="g3_58" />
<path fill-rule="evenodd" d="M874,198l143,0l0,65l-143,0l0,-65Z" class="g3_58" />
<path fill-rule="evenodd" d="M192,263l162,0l0,64l-162,0l0,-64Z" class="g4_58" />
<path fill-rule="evenodd" d="M354,263l255,0l0,64l-255,0l0,-64Z" class="g4_58" />
<path fill-rule="evenodd" d="M609,263l265,0l0,64l-265,0l0,-64Z" class="g4_58" />
<path fill-rule="evenodd" d="M874,263l143,0l0,64l-143,0l0,-64Z" class="g4_58" />
<path fill-rule="evenodd" d="M192,327l162,0l0,35l-162,0l0,-35Z" class="g3_58" />
<path fill-rule="evenodd" d="M354,327l255,0l0,35l-255,0l0,-35Z" class="g3_58" />
<path fill-rule="evenodd" d="M609,327l265,0l0,35l-265,0l0,-35Z" class="g3_58" />
<path fill-rule="evenodd" d="M874,327l143,0l0,35l-143,0l0,-35Z" class="g3_58" />
<path d="M191.5,199.5l0,-51" class="g5_58" />
<path d="M353.5,198.5l0,-49" class="g5_58" />
<path d="M191.5,150.5l163,0" class="g5_58" />
<path d="M353.5,198.5l0,-49" class="g5_58" />
<path d="M608.5,198.5l0,-49" class="g5_58" />
<path d="M353.5,150.5l256,0" class="g5_58" />
<path d="M608.5,198.5l0,-49" class="g5_58" />
<path d="M874.5,199.5l0,-51" class="g5_58" />
<path d="M608.5,150.5l267,0" class="g5_58" />
<path d="M874.5,198.5l0,-49" class="g5_58" />
<path d="M1016.5,199.5l0,-51" class="g5_58" />
<path d="M874.5,150.5l144,0" class="g5_58" />
<path d="M191.5,263.5l0,-66" class="g5_58" />
<path d="M353.5,263.5l0,-65" class="g5_58" />
<path fill-rule="evenodd" d="M354.1,198.5l-0.7,1.9l-160.3,0l-0.6,-1.9l0.6,-2l160.3,0l0.7,2Z" class="g1_58" />
<path d="M353.5,263.5l0,-65" class="g5_58" />
<path d="M608.5,263.5l0,-65" class="g5_58" />
<path fill-rule="evenodd" d="M609.1,198.5l-0.6,1.9l-253.8,0l-0.6,-1.9l0.6,-2l253.8,0l0.6,2Z" class="g1_58" />
<path d="M608.5,263.5l0,-65" class="g5_58" />
<path d="M874.5,263.5l0,-66" class="g5_58" />
<path fill-rule="evenodd" d="M874.8,198.5l-0.6,1.9l-264.3,0l-0.8,-1.9l0.8,-2l264.3,0l0.6,2Z" class="g1_58" />
<path d="M874.5,263.5l0,-65" class="g5_58" />
<path d="M1016.5,263.5l0,-66" class="g5_58" />
<path fill-rule="evenodd" d="M1017.5,198.5l-0.8,1.9l-141.1,0l-0.8,-1.9l0.8,-2l141.1,0l0.8,2Z" class="g1_58" />
<path d="M191.5,328.5l0,-66" class="g5_58" />
<path d="M353.5,327.5l0,-64" class="g5_58" />
<path d="M192.5,263.5l162,0" class="g5_58" />
<path d="M353.5,327.5l0,-64" class="g5_58" />
<path d="M608.5,327.5l0,-64" class="g5_58" />
<path d="M354.5,263.5l255,0" class="g5_58" />
<path d="M608.5,327.5l0,-64" class="g5_58" />
<path d="M874.5,328.5l0,-66" class="g5_58" />
<path d="M609.5,263.5l265,0" class="g5_58" />
<path d="M874.5,327.5l0,-64" class="g5_58" />
<path d="M1016.5,328.5l0,-66" class="g5_58" />
<path d="M874.5,263.5l143,0" class="g5_58" />
<path d="M191.5,363.5l0,-36" class="g5_58" />
<path d="M191.5,363.5l163,0" class="g5_58" />
<path d="M353.5,362.5l0,-35" class="g5_58" />
<path d="M192.5,328.5l162,0" class="g5_58" />
<path d="M353.5,362.5l0,-35" class="g5_58" />
<path d="M353.5,363.5l256,0" class="g5_58" />
<path d="M608.5,362.5l0,-35" class="g5_58" />
<path d="M354.5,328.5l255,0" class="g5_58" />
<path d="M608.5,362.5l0,-35" class="g5_58" />
<path d="M608.5,363.5l267,0" class="g5_58" />
<path d="M874.5,363.5l0,-36" class="g5_58" />
<path d="M609.5,328.5l265,0" class="g5_58" />
<path d="M874.5,362.5l0,-35" class="g5_58" />
<path d="M874.5,363.5l144,0" class="g5_58" />
<path d="M1016.5,363.5l0,-36" class="g5_58" />
<path d="M874.5,328.5l143,0" class="g5_58" />
<path fill-rule="evenodd" d="M980.8,18.6l0,-0.3l0,-0.4l0,-0.3L981,17.3L981,17l0.1,-0.3l0,-0.4L981.3,16l0.1,-0.3l0.2,-0.3l0.1,-0.1L982.1,15l0.1,-0.3l0.2,-0.2l0.3,-0.3l0.1,-0.1l0.3,-0.3l0.2,-0.2l0.3,-0.2l0.3,-0.1l0.3,-0.2L984.5,13l0.2,-0.2l0.3,0l0.4,-0.1l0.3,-0.2l0.3,0l0.3,0l0.3,0l0.3,0l189.5,0l0.3,0l0.3,0l0.3,0l0.3,0l0.3,0.2l0.3,0.1l0.3,0l0.3,0.2l0.3,0.1l0.3,0.2l0.2,0.1l0.3,0.2l0.3,0.3l0.2,0.2l0.3,0.3l0.1,0.1l0.3,0.3l0.2,0.2l0.1,0.3l0.2,0.3l0.1,0.1l0.2,0.3l0.1,0.3l0,0.4l0.2,0.3l0.1,0.3l0,0.3l0,0.3l0,0.4l0,0.3l0.2,24.3l0,0.3l-0.2,0.5l0,0.3l0,0.3l-0.1,0.3l0,0.3l-0.2,0.3l-0.1,0.3l-0.2,0.3l-0.1,0.2l-0.2,0.3l-0.1,0.3l-0.2,0.1l-0.3,0.4l-0.1,0.3l-0.3,0.1l-0.2,0.2l-0.3,0.3l-0.3,0.1l-0.2,0.2l-0.3,0.1l-0.3,0.2l-0.3,0.1l-0.3,0l-0.3,0.2l-0.3,0l-0.3,0.1l-0.3,0l-0.3,0l-0.3,0L986.9,49.2l0,-0.2l-0.3,0l-0.3,0L986,49l-0.3,0l-0.3,-0.1L985,48.7l-0.3,0l-0.2,-0.1l-0.3,-0.2l-0.3,-0.1l-0.3,-0.2L983.3,48l-0.2,-0.2l-0.3,-0.3l-0.1,-0.1l-0.3,-0.3l-0.2,-0.2l-0.1,-0.3l-0.4,-0.3l-0.1,-0.2l-0.2,-0.3l-0.1,-0.3l-0.2,-0.3l0,-0.3L981,44.6l0,-0.3L980.8,44l0,-0.3l0,-0.5l0,-0.3l0,-24.3Z" class="g1_58" />
<path d="M980.8,18.6l0,-0.3l0,-0.4l0,-0.3L981,17.3L981,17l0.1,-0.3l0,-0.4L981.3,16l0.1,-0.3l0.2,-0.3l0.1,-0.1L982.1,15l0.1,-0.3l0.2,-0.2l0.3,-0.3l0.1,-0.1l0.3,-0.3l0.2,-0.2l0.3,-0.2l0.3,-0.1l0.3,-0.2L984.5,13l0.2,-0.2l0.3,0l0.4,-0.1l0.3,-0.2l0.3,0l0.3,0l0.3,0l0.3,0l189.5,0l0.3,0l0.3,0l0.3,0l0.3,0l0.3,0.2l0.3,0.1l0.3,0l0.3,0.2l0.3,0.1l0.3,0.2l0.2,0.1l0.3,0.2l0.3,0.3l0.2,0.2l0.3,0.3l0.1,0.1l0.3,0.3l0.2,0.2l0.1,0.3l0.2,0.3l0.1,0.1l0.2,0.3l0.1,0.3l0,0.4l0.2,0.3l0.1,0.3l0,0.3l0,0.3l0,0.4l0,0.3l0.2,24.3l0,0.3l-0.2,0.5l0,0.3l0,0.3l-0.1,0.3l0,0.3l-0.2,0.3l-0.1,0.3l-0.2,0.3l-0.1,0.2l-0.2,0.3l-0.1,0.3l-0.2,0.1l-0.3,0.4l-0.1,0.3l-0.3,0.1l-0.2,0.2l-0.3,0.3l-0.3,0.1l-0.2,0.2l-0.3,0.1l-0.3,0.2l-0.3,0.1l-0.3,0l-0.3,0.2l-0.3,0l-0.3,0.1l-0.3,0l-0.3,0l-0.3,0L986.9,49.2l0,-0.2l-0.3,0l-0.3,0L986,49l-0.3,0l-0.3,-0.1L985,48.7l-0.3,0l-0.2,-0.1l-0.3,-0.2l-0.3,-0.1l-0.3,-0.2L983.3,48l-0.2,-0.2l-0.3,-0.3l-0.1,-0.1l-0.3,-0.3l-0.2,-0.2l-0.1,-0.3l-0.4,-0.3l-0.1,-0.2l-0.2,-0.3l-0.1,-0.3l-0.2,-0.3l0,-0.3L981,44.6l0,-0.3L980.8,44l0,-0.3l0,-0.5l0,-0.3l0,-24.3Z" class="g6_58" />
</svg>