<?xml version="1.0" encoding="UTF-8" standalone="no"?>
<!DOCTYPE svg PUBLIC "-//W3C//DTD SVG 1.1//EN"
"http://www.w3.org/Graphics/SVG/1.1/DTD/svg11.dtd">
<svg viewBox="0 0 1155 1210" version="1.1" xmlns="http://www.w3.org/2000/svg" xmlns:xlink="http://www.w3.org/1999/xlink">
<defs>
<clipPath id="c0_10"><path d="M0.5,1210.5L0.5,0.5l1155,0l0,1210Z" /></clipPath>
<style type="text/css"><![CDATA[
.g2_10{
fill: none;
stroke: #0000EE;
stroke-width: 2;
stroke-linecap: butt;
stroke-linejoin: miter;
}
.g3_10{
fill: none;
stroke: #418AB3;
stroke-width: 2;
stroke-linecap: butt;
stroke-linejoin: miter;
stroke-miterlimit: 7;
}
.g1_10{
fill: #FFFFFF;
}
]]></style>
</defs>
<path fill-rule="evenodd" d="M0,0L1155,0l0,1210L0,1210L0,0Z" class="g1_10" />
<path fill-rule="evenodd" d="M0,0L1155,0l0,1210L0,1210L0,0Z" class="g1_10" />
<image x="790" y="1140" width="319" height="55" xlink:href="img/1.png" />
<g clip-path="url(#c0_10)">
<g fill="#626262" >
<use xlink:href="#f0_q" transform="matrix(12,0,0,12,47.7,32.1)" />
<use xlink:href="#f1_16" transform="matrix(12,0,0,12,73.9,33.2)" />
<use xlink:href="#f1_7" transform="matrix(12,0,0,12,88,33.2)" />
<use xlink:href="#f1_12" transform="matrix(12,0,0,12,99.2,33.2)" />
<use xlink:href="#f1_4" transform="matrix(12,0,0,12,114.3,33.2)" />
<use xlink:href="#f1_a" transform="matrix(12,0,0,12,125.7,33.2)" />
<use xlink:href="#f1_7" transform="matrix(12,0,0,12,130.9,33.2)" />
<use xlink:href="#f1_k" transform="matrix(12,0,0,12,142,33.2)" />
<use xlink:href="#f1_h" transform="matrix(12,0,0,12,153.5,33.2)" />
<use xlink:href="#f1_k" transform="matrix(12,0,0,12,171,33.2)" />
<use xlink:href="#f1_4" transform="matrix(12,0,0,12,182.3,33.2)" />
<use xlink:href="#f1_h" transform="matrix(12,0,0,12,193.9,33.2)" />
<use xlink:href="#f1_d" transform="matrix(12,0,0,12,211.5,33.2)" />
<use xlink:href="#f1_4" transform="matrix(12,0,0,12,216.7,33.2)" />
<use xlink:href="#f1_g" transform="matrix(12,0,0,12,228.1,33.2)" />
<use xlink:href="#f1_c" transform="matrix(12,0,0,12,237.7,33.2)" />
<use xlink:href="#f1_k" transform="matrix(12,0,0,12,244.9,33.2)" />
<use xlink:href="#f1_a" transform="matrix(12,0,0,12,256.2,33.2)" />
<use xlink:href="#f1_a" transform="matrix(12,0,0,12,261.4,33.2)" />
<use xlink:href="#f1_c" transform="matrix(12,0,0,12,272.3,33.2)" />
<use xlink:href="#f1_f" transform="matrix(12,0,0,12,279.4,33.2)" />
<use xlink:href="#f1_b" transform="matrix(12,0,0,12,291,33.2)" />
<use xlink:href="#f1_l" transform="matrix(12,0,0,12,308.2,33.2)" />
<use xlink:href="#f1_b" transform="matrix(12,0,0,12,315.4,33.2)" />
<use xlink:href="#f1_a" transform="matrix(12,0,0,12,326.7,33.2)" />
<use xlink:href="#f1_b" transform="matrix(12,0,0,12,331.9,33.2)" />
<use xlink:href="#f1_q" transform="matrix(12,0,0,12,343.2,33.2)" />
<use xlink:href="#f1_k" transform="matrix(12,0,0,12,354,33.2)" />
<use xlink:href="#f1_4" transform="matrix(12,0,0,12,365.3,33.2)" />
<use xlink:href="#f1_c" transform="matrix(12,0,0,12,376.9,33.2)" />
<use xlink:href="#f1_q" transform="matrix(12,0,0,12,389.8,33.2)" />
<use xlink:href="#f1_b" transform="matrix(12,0,0,12,400.7,33.2)" />
<use xlink:href="#f1_l" transform="matrix(12,0,0,12,412,33.2)" />
<use xlink:href="#f1_g" transform="matrix(12,0,0,12,419.7,33.2)" />
<use xlink:href="#f1_d" transform="matrix(12,0,0,12,429.2,33.2)" />
<use xlink:href="#f1_7" transform="matrix(12,0,0,12,434.3,33.2)" />
<use xlink:href="#f1_4" transform="matrix(12,0,0,12,445.6,33.2)" />
<use xlink:href="#f1_e" transform="matrix(12,0,0,12,463,33.2)" />
<use xlink:href="#f1_l" transform="matrix(12,0,0,12,469.4,33.2)" />
<use xlink:href="#f1_7" transform="matrix(12,0,0,12,476.6,33.2)" />
<use xlink:href="#f1_8" transform="matrix(12,0,0,12,487.7,33.2)" />
<use xlink:href="#f1_c" transform="matrix(12,0,0,12,511.2,33.2)" />
<use xlink:href="#f1_f" transform="matrix(12,0,0,12,518.4,33.2)" />
<use xlink:href="#f1_b" transform="matrix(12,0,0,12,530,33.2)" />
<use xlink:href="#f1_e" transform="matrix(12,0,0,12,547.3,33.2)" />
<use xlink:href="#f1_7" transform="matrix(12,0,0,12,553.7,33.2)" />
<use xlink:href="#f1_a" transform="matrix(12,0,0,12,564.8,33.2)" />
<use xlink:href="#f1_a" transform="matrix(12,0,0,12,570,33.2)" />
<use xlink:href="#f1_7" transform="matrix(12,0,0,12,575,33.2)" />
<use xlink:href="#f1_12" transform="matrix(12,0,0,12,586.2,33.2)" />
<use xlink:href="#f1_d" transform="matrix(12,0,0,12,601.3,33.2)" />
<use xlink:href="#f1_4" transform="matrix(12,0,0,12,606.3,33.2)" />
<use xlink:href="#f1_x" transform="matrix(12,0,0,12,617.9,33.2)" />
<use xlink:href="#f1_a" transform="matrix(12,0,0,12,635.5,33.2)" />
<use xlink:href="#f1_d" transform="matrix(12,0,0,12,640.7,33.2)" />
<use xlink:href="#f1_4" transform="matrix(12,0,0,12,645.7,33.2)" />
<use xlink:href="#f1_1a" transform="matrix(12,0,0,12,657.3,33.2)" />
<use xlink:href="#f1_n" transform="matrix(12,0,0,12,668,33.2)" />
</g>
<g fill="#0000EE" >
<use xlink:href="#f1_f" transform="matrix(12,0,0,12,77,92.3)" />
<use xlink:href="#f1_c" transform="matrix(12,0,0,12,88.6,92.3)" />
<use xlink:href="#f1_c" transform="matrix(12,0,0,12,95.6,92.3)" />
<use xlink:href="#f1_9" transform="matrix(12,0,0,12,102.8,92.3)" />
<use xlink:href="#f1_g" transform="matrix(12,0,0,12,114.4,92.3)" />
<use xlink:href="#f1_n" transform="matrix(12,0,0,12,123.9,92.3)" />
<use xlink:href="#f1_1l" transform="matrix(12,0,0,12,130.1,92.3)" />
<use xlink:href="#f1_1l" transform="matrix(12,0,0,12,136.4,92.3)" />
<use xlink:href="#f1_9" transform="matrix(12,0,0,12,142.7,92.3)" />
<use xlink:href="#f1_r" transform="matrix(12,0,0,12,154.1,92.3)" />
<use xlink:href="#f1_9" transform="matrix(12,0,0,12,164.9,92.3)" />
<use xlink:href="#f1_d" transform="matrix(12,0,0,12,176.6,92.3)" />
<use xlink:href="#f1_1c" transform="matrix(12,0,0,12,181.6,92.3)" />
<use xlink:href="#f1_9" transform="matrix(12,0,0,12,187.5,92.3)" />
<use xlink:href="#f1_r" transform="matrix(12,0,0,12,199,92.3)" />
<use xlink:href="#f1_c" transform="matrix(12,0,0,12,209.8,92.3)" />
<use xlink:href="#f1_f" transform="matrix(12,0,0,12,217,92.3)" />
<use xlink:href="#f1_7" transform="matrix(12,0,0,12,228.5,92.3)" />
<use xlink:href="#f1_4" transform="matrix(12,0,0,12,239.8,92.3)" />
<use xlink:href="#f1_1c" transform="matrix(12,0,0,12,251.2,92.3)" />
<use xlink:href="#f1_7" transform="matrix(12,0,0,12,257,92.3)" />
<use xlink:href="#f1_l" transform="matrix(12,0,0,12,268.3,92.3)" />
<use xlink:href="#f1_x" transform="matrix(12,0,0,12,275.7,92.3)" />
<use xlink:href="#f1_1l" transform="matrix(12,0,0,12,287.4,92.3)" />
<use xlink:href="#f1_9" transform="matrix(12,0,0,12,293.5,92.3)" />
<use xlink:href="#f1_r" transform="matrix(12,0,0,12,305.1,92.3)" />
<use xlink:href="#f1_9" transform="matrix(12,0,0,12,316,92.3)" />
<use xlink:href="#f1_d" transform="matrix(12,0,0,12,327.4,92.3)" />
<use xlink:href="#f1_1l" transform="matrix(12,0,0,12,332.6,92.3)" />
<use xlink:href="#f1_6" transform="matrix(12,0,0,12,338.8,92.3)" />
<use xlink:href="#f1_v" transform="matrix(12,0,0,12,349,92.3)" />
<use xlink:href="#f1_w" transform="matrix(12,0,0,12,359.9,92.3)" />
<use xlink:href="#f1_3" transform="matrix(12,0,0,12,369.1,92.3)" />
<use xlink:href="#f1_l" transform="matrix(12,0,0,12,383.4,92.3)" />
<use xlink:href="#f1_k" transform="matrix(12,0,0,12,391.2,92.3)" />
<use xlink:href="#f1_6" transform="matrix(12,0,0,12,402.6,92.3)" />
<use xlink:href="#f1_a" transform="matrix(12,0,0,12,412.8,92.3)" />
<use xlink:href="#f1_b" transform="matrix(12,0,0,12,417.9,92.3)" />
<use xlink:href="#f1_1l" transform="matrix(12,0,0,12,429.3,92.3)" />
<use xlink:href="#f1_14" transform="matrix(12,0,0,12,435.6,92.3)" />
<use xlink:href="#f1_1c" transform="matrix(12,0,0,12,447.2,92.3)" />
<use xlink:href="#f1_t" transform="matrix(12,0,0,12,453.1,92.3)" />
<use xlink:href="#f1_1c" transform="matrix(12,0,0,12,464.6,92.3)" />
<use xlink:href="#f1_2" transform="matrix(12,0,0,12,470.5,92.3)" />
</g>
</g>
<path d="M77,94l405,0" class="g2_10" />
<g clip-path="url(#c0_10)">
<g fill="#626262" >
<use xlink:href="#f0_q" transform="matrix(12,0,0,12,47.7,150.2)" />
<use xlink:href="#f1_1e" transform="matrix(12,0,0,12,73.9,151.3)" />
<use xlink:href="#f1_k" transform="matrix(12,0,0,12,90.8,151.3)" />
<use xlink:href="#f1_c" transform="matrix(12,0,0,12,102.2,151.3)" />
<use xlink:href="#f1_6" transform="matrix(12,0,0,12,109.2,151.3)" />
<use xlink:href="#f1_f" transform="matrix(12,0,0,12,119.6,151.3)" />
<use xlink:href="#f1_c" transform="matrix(12,0,0,12,137,151.3)" />
<use xlink:href="#f1_f" transform="matrix(12,0,0,12,144,151.3)" />
<use xlink:href="#f1_d" transform="matrix(12,0,0,12,155.6,151.3)" />
<use xlink:href="#f1_g" transform="matrix(12,0,0,12,160.8,151.3)" />
<use xlink:href="#f1_q" transform="matrix(12,0,0,12,176.1,151.3)" />
<use xlink:href="#f1_d" transform="matrix(12,0,0,12,186.9,151.3)" />
<use xlink:href="#f1_h" transform="matrix(12,0,0,12,192.1,151.3)" />
<use xlink:href="#f1_b" transform="matrix(12,0,0,12,203.8,151.3)" />
<use xlink:href="#f1_7" transform="matrix(12,0,0,12,215.1,151.3)" />
<use xlink:href="#f1_c" transform="matrix(12,0,0,12,232.2,151.3)" />
<use xlink:href="#f1_7" transform="matrix(12,0,0,12,239.4,151.3)" />
<use xlink:href="#f1_1a" transform="matrix(12,0,0,12,256.4,151.3)" />
<use xlink:href="#f1_4" transform="matrix(12,0,0,12,267,151.3)" />
<use xlink:href="#f1_7" transform="matrix(12,0,0,12,278.5,151.3)" />
<use xlink:href="#f1_12" transform="matrix(12,0,0,12,289.8,151.3)" />
<use xlink:href="#f1_c" transform="matrix(12,0,0,12,310.6,151.3)" />
<use xlink:href="#f1_f" transform="matrix(12,0,0,12,317.8,151.3)" />
<use xlink:href="#f1_b" transform="matrix(12,0,0,12,329.4,151.3)" />
<use xlink:href="#f1_g" transform="matrix(12,0,0,12,346.5,151.3)" />
<use xlink:href="#f1_c" transform="matrix(12,0,0,12,356.1,151.3)" />
<use xlink:href="#f1_b" transform="matrix(12,0,0,12,363.3,151.3)" />
<use xlink:href="#f1_9" transform="matrix(12,0,0,12,374.6,151.3)" />
<use xlink:href="#f1_g" transform="matrix(12,0,0,12,386.2,151.3)" />
<use xlink:href="#f1_c" transform="matrix(12,0,0,12,401.5,151.3)" />
<use xlink:href="#f1_7" transform="matrix(12,0,0,12,408.6,151.3)" />
<use xlink:href="#f1_h" transform="matrix(12,0,0,12,425.7,151.3)" />
<use xlink:href="#f1_7" transform="matrix(12,0,0,12,437.5,151.3)" />
<use xlink:href="#f1_12" transform="matrix(12,0,0,12,448.6,151.3)" />
<use xlink:href="#f1_4" transform="matrix(12,0,0,12,463.6,151.3)" />
<use xlink:href="#f1_a" transform="matrix(12,0,0,12,475.2,151.3)" />
<use xlink:href="#f1_7" transform="matrix(12,0,0,12,480.4,151.3)" />
<use xlink:href="#f1_k" transform="matrix(12,0,0,12,491.5,151.3)" />
<use xlink:href="#f1_h" transform="matrix(12,0,0,12,502.8,151.3)" />
<use xlink:href="#f1_k" transform="matrix(12,0,0,12,520.4,151.3)" />
<use xlink:href="#f1_4" transform="matrix(12,0,0,12,531.8,151.3)" />
<use xlink:href="#f1_h" transform="matrix(12,0,0,12,543.3,151.3)" />
<use xlink:href="#f1_d" transform="matrix(12,0,0,12,560.9,151.3)" />
<use xlink:href="#f1_4" transform="matrix(12,0,0,12,566,151.3)" />
<use xlink:href="#f1_g" transform="matrix(12,0,0,12,577.6,151.3)" />
<use xlink:href="#f1_c" transform="matrix(12,0,0,12,587.1,151.3)" />
<use xlink:href="#f1_k" transform="matrix(12,0,0,12,594.3,151.3)" />
<use xlink:href="#f1_a" transform="matrix(12,0,0,12,605.6,151.3)" />
<use xlink:href="#f1_a" transform="matrix(12,0,0,12,610.8,151.3)" />
<use xlink:href="#f1_6" transform="matrix(12,0,0,12,621.7,151.3)" />
<use xlink:href="#f1_v" transform="matrix(12,0,0,12,632,151.3)" />
<use xlink:href="#f1_w" transform="matrix(12,0,0,12,642.8,151.3)" />
<use xlink:href="#f1_3" transform="matrix(12,0,0,12,652,151.3)" />
<use xlink:href="#f1_l" transform="matrix(12,0,0,12,666.5,151.3)" />
<use xlink:href="#f1_k" transform="matrix(12,0,0,12,674.1,151.3)" />
<use xlink:href="#f1_6" transform="matrix(12,0,0,12,685.5,151.3)" />
<use xlink:href="#f1_a" transform="matrix(12,0,0,12,695.7,151.3)" />
<use xlink:href="#f1_b" transform="matrix(12,0,0,12,700.8,151.3)" />
<use xlink:href="#f1_n" transform="matrix(12,0,0,12,712.2,151.3)" />
<use xlink:href="#f0_q" transform="matrix(12,0,0,12,47.7,327.3)" />
<use xlink:href="#f1_1t" transform="matrix(12,0,0,12,73.9,328.3)" />
<use xlink:href="#f1_7" transform="matrix(12,0,0,12,82.5,328.3)" />
<use xlink:href="#f1_i" transform="matrix(12,0,0,12,93.7,328.3)" />
<use xlink:href="#f1_6" transform="matrix(12,0,0,12,111.1,328.3)" />
<use xlink:href="#f1_k" transform="matrix(12,0,0,12,121.4,328.3)" />
<use xlink:href="#f1_4" transform="matrix(12,0,0,12,132.7,328.3)" />
<use xlink:href="#f1_c" transform="matrix(12,0,0,12,150.2,328.3)" />
<use xlink:href="#f1_b" transform="matrix(12,0,0,12,157.3,328.3)" />
<use xlink:href="#f1_g" transform="matrix(12,0,0,12,168.6,328.3)" />
<use xlink:href="#f1_c" transform="matrix(12,0,0,12,178.2,328.3)" />
<use xlink:href="#f1_g" transform="matrix(12,0,0,12,191.2,328.3)" />
<use xlink:href="#f1_i" transform="matrix(12,0,0,12,200.7,328.3)" />
<use xlink:href="#f1_6" transform="matrix(12,0,0,12,212.3,328.3)" />
<use xlink:href="#f1_6" transform="matrix(12,0,0,12,222.5,328.3)" />
<use xlink:href="#f1_b" transform="matrix(12,0,0,12,232.7,328.3)" />
<use xlink:href="#f1_g" transform="matrix(12,0,0,12,244.2,328.3)" />
<use xlink:href="#f1_g" transform="matrix(12,0,0,12,253.7,328.3)" />
<use xlink:href="#f1_e" transform="matrix(12,0,0,12,263.1,328.3)" />
<use xlink:href="#f1_i" transform="matrix(12,0,0,12,269.6,328.3)" />
<use xlink:href="#f1_a" transform="matrix(12,0,0,12,281.2,328.3)" />
<use xlink:href="#f1_d" transform="matrix(12,0,0,12,292.1,328.3)" />
<use xlink:href="#f1_4" transform="matrix(12,0,0,12,297.3,328.3)" />
<use xlink:href="#f1_g" transform="matrix(12,0,0,12,308.8,328.3)" />
<use xlink:href="#f1_c" transform="matrix(12,0,0,12,318.4,328.3)" />
<use xlink:href="#f1_k" transform="matrix(12,0,0,12,325.4,328.3)" />
<use xlink:href="#f1_a" transform="matrix(12,0,0,12,336.8,328.3)" />
<use xlink:href="#f1_a" transform="matrix(12,0,0,12,341.9,328.3)" />
<use xlink:href="#f1_k" transform="matrix(12,0,0,12,347.1,328.3)" />
<use xlink:href="#f1_c" transform="matrix(12,0,0,12,358.3,328.3)" />
<use xlink:href="#f1_d" transform="matrix(12,0,0,12,365.5,328.3)" />
<use xlink:href="#f1_7" transform="matrix(12,0,0,12,370.7,328.3)" />
<use xlink:href="#f1_4" transform="matrix(12,0,0,12,381.9,328.3)" />
<use xlink:href="#f1_7" transform="matrix(12,0,0,12,399.3,328.3)" />
<use xlink:href="#f1_e" transform="matrix(12,0,0,12,410.4,328.3)" />
<use xlink:href="#f1_6" transform="matrix(12,0,0,12,422.8,328.3)" />
<use xlink:href="#f1_v" transform="matrix(12,0,0,12,433,328.3)" />
<use xlink:href="#f1_w" transform="matrix(12,0,0,12,443.8,328.3)" />
<use xlink:href="#f1_3" transform="matrix(12,0,0,12,453,328.3)" />
<use xlink:href="#f1_l" transform="matrix(12,0,0,12,467.3,328.3)" />
<use xlink:href="#f1_k" transform="matrix(12,0,0,12,475.1,328.3)" />
<use xlink:href="#f1_6" transform="matrix(12,0,0,12,486.4,328.3)" />
<use xlink:href="#f1_a" transform="matrix(12,0,0,12,496.8,328.3)" />
<use xlink:href="#f1_b" transform="matrix(12,0,0,12,501.8,328.3)" />
<use xlink:href="#f1_m" transform="matrix(12,0,0,12,519.1,328.3)" />
<use xlink:href="#f1_r" transform="matrix(12,0,0,12,530.7,328.3)" />
<use xlink:href="#f1_b" transform="matrix(12,0,0,12,547.3,328.3)" />
<use xlink:href="#f1_v" transform="matrix(12,0,0,12,558.3,328.3)" />
<use xlink:href="#f1_b" transform="matrix(12,0,0,12,568.4,328.3)" />
<use xlink:href="#f1_6" transform="matrix(12,0,0,12,579.7,328.3)" />
<use xlink:href="#f1_i" transform="matrix(12,0,0,12,589.9,328.3)" />
<use xlink:href="#f1_c" transform="matrix(12,0,0,12,601.5,328.3)" />
<use xlink:href="#f1_d" transform="matrix(12,0,0,12,608.7,328.3)" />
<use xlink:href="#f1_4" transform="matrix(12,0,0,12,613.7,328.3)" />
<use xlink:href="#f1_x" transform="matrix(12,0,0,12,625.3,328.3)" />
<use xlink:href="#f1_e" transform="matrix(12,0,0,12,642.9,328.3)" />
<use xlink:href="#f1_7" transform="matrix(12,0,0,12,649.3,328.3)" />
<use xlink:href="#f1_a" transform="matrix(12,0,0,12,660.5,328.3)" />
<use xlink:href="#f1_a" transform="matrix(12,0,0,12,665.6,328.3)" />
<use xlink:href="#f1_7" transform="matrix(12,0,0,12,670.7,328.3)" />
<use xlink:href="#f1_12" transform="matrix(12,0,0,12,682,328.3)" />
<use xlink:href="#f1_d" transform="matrix(12,0,0,12,696.9,328.3)" />
<use xlink:href="#f1_4" transform="matrix(12,0,0,12,702.1,328.3)" />
<use xlink:href="#f1_x" transform="matrix(12,0,0,12,713.6,328.3)" />
<use xlink:href="#f1_6" transform="matrix(12,0,0,12,731.1,328.3)" />
<use xlink:href="#f1_7" transform="matrix(12,0,0,12,741.5,328.3)" />
<use xlink:href="#f1_8" transform="matrix(12,0,0,12,752.7,328.3)" />
<use xlink:href="#f1_8" transform="matrix(12,0,0,12,770.4,328.3)" />
<use xlink:href="#f1_k" transform="matrix(12,0,0,12,788.2,328.3)" />
<use xlink:href="#f1_4" transform="matrix(12,0,0,12,799.5,328.3)" />
<use xlink:href="#f1_h" transform="matrix(12,0,0,12,811.1,328.3)" />
<use xlink:href="#f1_7" transform="matrix(12,0,0,12,828.7,328.3)" />
<use xlink:href="#f1_4" transform="matrix(12,0,0,12,839.9,328.3)" />
<use xlink:href="#f1_s" transform="matrix(12,0,0,12,857.3,328.3)" />
<use xlink:href="#f1_r" transform="matrix(12,0,0,12,868.3,328.3)" />
<use xlink:href="#f1_c" transform="matrix(12,0,0,12,879.1,328.3)" />
<use xlink:href="#f1_f" transform="matrix(12,0,0,12,886.3,328.3)" />
<use xlink:href="#f1_7" transform="matrix(12,0,0,12,897.8,328.3)" />
<use xlink:href="#f1_4" transform="matrix(12,0,0,12,909,328.3)" />
<use xlink:href="#f1_g" transform="matrix(12,0,0,12,926.4,328.3)" />
<use xlink:href="#f1_f" transform="matrix(12,0,0,12,935.9,328.3)" />
<use xlink:href="#f1_b" transform="matrix(12,0,0,12,947.5,328.3)" />
<use xlink:href="#f1_a" transform="matrix(12,0,0,12,958.8,328.3)" />
<use xlink:href="#f1_a" transform="matrix(12,0,0,12,964,328.3)" />
<use xlink:href="#f1_n" transform="matrix(12,0,0,12,969,328.3)" />
<use xlink:href="#f0_q" transform="matrix(12,0,0,12,47.7,504.3)" />
<use xlink:href="#f2_2" transform="matrix(12,0,0,12,73.9,505.4)" />
<use xlink:href="#f2_3" transform="matrix(12,0,0,12,87.7,505.4)" />
<use xlink:href="#f2_3" transform="matrix(12,0,0,12,104.6,505.4)" />
<use xlink:href="#f2_5" transform="matrix(12,0,0,12,115.9,505.4)" />
<use xlink:href="#f2_6" transform="matrix(12,0,0,12,127.4,505.4)" />
<use xlink:href="#f2_7" transform="matrix(12,0,0,12,134.6,505.4)" />
<use xlink:href="#f2_5" transform="matrix(12,0,0,12,146.2,505.4)" />
<use xlink:href="#f2_6" transform="matrix(12,0,0,12,157.6,505.4)" />
<use xlink:href="#f1_6" transform="matrix(12,0,0,12,170.7,505.4)" />
<use xlink:href="#f1_7" transform="matrix(12,0,0,12,181,505.4)" />
<use xlink:href="#f1_4" transform="matrix(12,0,0,12,192.2,505.4)" />
<use xlink:href="#f1_1s" transform="matrix(12,0,0,12,203.6,505.4)" />
<use xlink:href="#f1_l" transform="matrix(12,0,0,12,215.2,505.4)" />
<use xlink:href="#f1_8" transform="matrix(12,0,0,12,222.6,505.4)" />
<use xlink:href="#f1_g" transform="matrix(12,0,0,12,240.4,505.4)" />
<use xlink:href="#f1_g" transform="matrix(12,0,0,12,255.7,505.4)" />
<use xlink:href="#f1_i" transform="matrix(12,0,0,12,265.3,505.4)" />
<use xlink:href="#f1_6" transform="matrix(12,0,0,12,276.8,505.4)" />
<use xlink:href="#f1_6" transform="matrix(12,0,0,12,287,505.4)" />
<use xlink:href="#f1_b" transform="matrix(12,0,0,12,297.4,505.4)" />
<use xlink:href="#f1_g" transform="matrix(12,0,0,12,308.6,505.4)" />
<use xlink:href="#f1_g" transform="matrix(12,0,0,12,318.1,505.4)" />
<use xlink:href="#f1_e" transform="matrix(12,0,0,12,327.7,505.4)" />
<use xlink:href="#f1_i" transform="matrix(12,0,0,12,334.1,505.4)" />
<use xlink:href="#f1_a" transform="matrix(12,0,0,12,345.6,505.4)" />
<use xlink:href="#f1_d" transform="matrix(12,0,0,12,356.6,505.4)" />
<use xlink:href="#f1_4" transform="matrix(12,0,0,12,361.8,505.4)" />
<use xlink:href="#f1_g" transform="matrix(12,0,0,12,373.4,505.4)" />
<use xlink:href="#f1_c" transform="matrix(12,0,0,12,382.8,505.4)" />
<use xlink:href="#f1_k" transform="matrix(12,0,0,12,390,505.4)" />
<use xlink:href="#f1_a" transform="matrix(12,0,0,12,401.3,505.4)" />
<use xlink:href="#f1_a" transform="matrix(12,0,0,12,406.5,505.4)" />
<use xlink:href="#f1_k" transform="matrix(12,0,0,12,411.5,505.4)" />
<use xlink:href="#f1_c" transform="matrix(12,0,0,12,423,505.4)" />
<use xlink:href="#f1_d" transform="matrix(12,0,0,12,430.2,505.4)" />
<use xlink:href="#f1_7" transform="matrix(12,0,0,12,435.2,505.4)" />
<use xlink:href="#f1_4" transform="matrix(12,0,0,12,446.3,505.4)" />
<use xlink:href="#f1_1c" transform="matrix(12,0,0,12,458,505.4)" />
<use xlink:href="#f1_3" transform="matrix(12,0,0,12,469.7,505.4)" />
<use xlink:href="#f1_c" transform="matrix(12,0,0,12,484.2,505.4)" />
<use xlink:href="#f1_f" transform="matrix(12,0,0,12,491.2,505.4)" />
<use xlink:href="#f1_b" transform="matrix(12,0,0,12,502.8,505.4)" />
<use xlink:href="#f1_l" transform="matrix(12,0,0,12,514.3,505.4)" />
<use xlink:href="#f1_12" transform="matrix(12,0,0,12,521.9,505.4)" />
<use xlink:href="#f1_d" transform="matrix(12,0,0,12,536.9,505.4)" />
<use xlink:href="#f1_g" transform="matrix(12,0,0,12,542,505.4)" />
<use xlink:href="#f1_b" transform="matrix(12,0,0,12,551.5,505.4)" />
<use xlink:href="#f1_j" transform="matrix(12,0,0,12,563,505.4)" />
<use xlink:href="#f1_b" transform="matrix(12,0,0,12,574.7,505.4)" />
<use xlink:href="#f1_l" transform="matrix(12,0,0,12,586,505.4)" />
<use xlink:href="#f1_l" transform="matrix(12,0,0,12,593.3,505.4)" />
<use xlink:href="#f1_7" transform="matrix(12,0,0,12,600.5,505.4)" />
<use xlink:href="#f1_l" transform="matrix(12,0,0,12,611.7,505.4)" />
<use xlink:href="#f1_8" transform="matrix(12,0,0,12,625.2,505.4)" />
<use xlink:href="#f1_b" transform="matrix(12,0,0,12,643,505.4)" />
<use xlink:href="#f1_g" transform="matrix(12,0,0,12,654.3,505.4)" />
<use xlink:href="#f1_g" transform="matrix(12,0,0,12,663.9,505.4)" />
<use xlink:href="#f1_k" transform="matrix(12,0,0,12,673.4,505.4)" />
<use xlink:href="#f1_x" transform="matrix(12,0,0,12,684.8,505.4)" />
<use xlink:href="#f1_b" transform="matrix(12,0,0,12,696.5,505.4)" />
<use xlink:href="#f1_12" transform="matrix(12,0,0,12,713.6,505.4)" />
<use xlink:href="#f1_d" transform="matrix(12,0,0,12,728.8,505.4)" />
<use xlink:href="#f1_a" transform="matrix(12,0,0,12,733.8,505.4)" />
<use xlink:href="#f1_a" transform="matrix(12,0,0,12,739,505.4)" />
<use xlink:href="#f1_m" transform="matrix(12,0,0,12,749.9,505.4)" />
<use xlink:href="#f1_b" transform="matrix(12,0,0,12,761.6,505.4)" />
<use xlink:href="#f1_l" transform="matrix(12,0,0,12,778.7,505.4)" />
<use xlink:href="#f1_b" transform="matrix(12,0,0,12,785.8,505.4)" />
<use xlink:href="#f1_c" transform="matrix(12,0,0,12,797.1,505.4)" />
<use xlink:href="#f1_i" transform="matrix(12,0,0,12,804.3,505.4)" />
<use xlink:href="#f1_l" transform="matrix(12,0,0,12,815.9,505.4)" />
<use xlink:href="#f1_4" transform="matrix(12,0,0,12,823.3,505.4)" />
<use xlink:href="#f1_b" transform="matrix(12,0,0,12,834.7,505.4)" />
<use xlink:href="#f1_h" transform="matrix(12,0,0,12,846.2,505.4)" />
<use xlink:href="#f1_1c" transform="matrix(12,0,0,12,857.9,505.4)" />
<use xlink:href="#f1_11" transform="matrix(12,0,0,12,71.2,564.5)" />
<use xlink:href="#f1_7" transform="matrix(12,0,0,12,84.9,564.5)" />
<use xlink:href="#f1_c" transform="matrix(12,0,0,12,96.1,564.5)" />
<use xlink:href="#f1_b" transform="matrix(12,0,0,12,103.3,564.5)" />
<use xlink:href="#f1_n" transform="matrix(12,0,0,12,114.6,564.5)" />
<use xlink:href="#f1_1u" transform="matrix(12,0,0,12,126.6,564.5)" />
<use xlink:href="#f1_b" transform="matrix(12,0,0,12,138.5,564.5)" />
<use xlink:href="#f1_e" transform="matrix(12,0,0,12,150,564.5)" />
<use xlink:href="#f1_b" transform="matrix(12,0,0,12,156.4,564.5)" />
<use xlink:href="#f1_l" transform="matrix(12,0,0,12,167.7,564.5)" />
<use xlink:href="#f1_c" transform="matrix(12,0,0,12,181.3,564.5)" />
<use xlink:href="#f1_7" transform="matrix(12,0,0,12,188.5,564.5)" />
<use xlink:href="#f1_1d" transform="matrix(12,0,0,12,205.4,564.5)" />
<use xlink:href="#f1_7" transform="matrix(12,0,0,12,221.3,564.5)" />
<use xlink:href="#f1_h" transform="matrix(12,0,0,12,232.4,564.5)" />
<use xlink:href="#f1_i" transform="matrix(12,0,0,12,244,564.5)" />
<use xlink:href="#f1_a" transform="matrix(12,0,0,12,255.6,564.5)" />
<use xlink:href="#f1_b" transform="matrix(12,0,0,12,260.8,564.5)" />
<use xlink:href="#f1_2" transform="matrix(12,0,0,12,272.1,564.5)" />
<use xlink:href="#f1_c" transform="matrix(12,0,0,12,289.5,564.5)" />
<use xlink:href="#f1_7" transform="matrix(12,0,0,12,296.7,564.5)" />
<use xlink:href="#f1_a" transform="matrix(12,0,0,12,313.8,564.5)" />
<use xlink:href="#f1_b" transform="matrix(12,0,0,12,318.8,564.5)" />
<use xlink:href="#f1_k" transform="matrix(12,0,0,12,330.3,564.5)" />
<use xlink:href="#f1_l" transform="matrix(12,0,0,12,341.6,564.5)" />
<use xlink:href="#f1_4" transform="matrix(12,0,0,12,348.9,564.5)" />
<use xlink:href="#f1_f" transform="matrix(12,0,0,12,366.3,564.5)" />
<use xlink:href="#f1_7" transform="matrix(12,0,0,12,377.9,564.5)" />
<use xlink:href="#f1_12" transform="matrix(12,0,0,12,389.1,564.5)" />
<use xlink:href="#f1_c" transform="matrix(12,0,0,12,409.8,564.5)" />
<use xlink:href="#f1_7" transform="matrix(12,0,0,12,417,564.5)" />
<use xlink:href="#f1_b" transform="matrix(12,0,0,12,434.1,564.5)" />
<use xlink:href="#f1_v" transform="matrix(12,0,0,12,445.1,564.5)" />
<use xlink:href="#f1_b" transform="matrix(12,0,0,12,455.2,564.5)" />
<use xlink:href="#f1_6" transform="matrix(12,0,0,12,466.5,564.5)" />
<use xlink:href="#f1_i" transform="matrix(12,0,0,12,476.9,564.5)" />
<use xlink:href="#f1_c" transform="matrix(12,0,0,12,488.4,564.5)" />
<use xlink:href="#f1_b" transform="matrix(12,0,0,12,495.5,564.5)" />
<use xlink:href="#f1_g" transform="matrix(12,0,0,12,512.8,564.5)" />
<use xlink:href="#f1_c" transform="matrix(12,0,0,12,522.2,564.5)" />
<use xlink:href="#f1_k" transform="matrix(12,0,0,12,529.4,564.5)" />
<use xlink:href="#f1_c" transform="matrix(12,0,0,12,540.7,564.5)" />
<use xlink:href="#f1_b" transform="matrix(12,0,0,12,547.9,564.5)" />
<use xlink:href="#f1_8" transform="matrix(12,0,0,12,559.4,564.5)" />
<use xlink:href="#f1_b" transform="matrix(12,0,0,12,577.1,564.5)" />
<use xlink:href="#f1_4" transform="matrix(12,0,0,12,588.4,564.5)" />
<use xlink:href="#f1_c" transform="matrix(12,0,0,12,600,564.5)" />
<use xlink:href="#f1_g" transform="matrix(12,0,0,12,607.2,564.5)" />
<use xlink:href="#f1_i" transform="matrix(12,0,0,12,622.6,564.5)" />
<use xlink:href="#f1_g" transform="matrix(12,0,0,12,634,564.5)" />
<use xlink:href="#f1_d" transform="matrix(12,0,0,12,643.7,564.5)" />
<use xlink:href="#f1_4" transform="matrix(12,0,0,12,648.7,564.5)" />
<use xlink:href="#f1_x" transform="matrix(12,0,0,12,660.3,564.5)" />
<use xlink:href="#f1_s" transform="matrix(12,0,0,12,677.9,564.5)" />
<use xlink:href="#f1_r" transform="matrix(12,0,0,12,688.9,564.5)" />
<use xlink:href="#f1_c" transform="matrix(12,0,0,12,699.7,564.5)" />
<use xlink:href="#f1_f" transform="matrix(12,0,0,12,706.7,564.5)" />
<use xlink:href="#f1_7" transform="matrix(12,0,0,12,718.3,564.5)" />
<use xlink:href="#f1_4" transform="matrix(12,0,0,12,729.5,564.5)" />
<use xlink:href="#f1_g" transform="matrix(12,0,0,12,746.9,564.5)" />
<use xlink:href="#f1_f" transform="matrix(12,0,0,12,756.5,564.5)" />
<use xlink:href="#f1_b" transform="matrix(12,0,0,12,768,564.5)" />
<use xlink:href="#f1_a" transform="matrix(12,0,0,12,779.4,564.5)" />
<use xlink:href="#f1_a" transform="matrix(12,0,0,12,784.4,564.5)" />
<use xlink:href="#f1_1c" transform="matrix(12,0,0,12,789.6,564.5)" />
</g>
</g>
<path fill-rule="evenodd" d="M159,208.2l0,-0.7l0.2,-0.9l0.1,-0.8l0.2,-0.8l0.2,-0.9l0.3,-0.8l0.1,-0.7l0.3,-0.8l0.5,-0.7l0.3,-0.8l0.4,-0.6l0.5,-0.6l0.5,-0.8l0.6,-0.6l0.4,-0.6l0.6,-0.6L165,196l0.6,-0.4l0.6,-0.5l0.8,-0.5l0.8,-0.4l0.6,-0.3l0.7,-0.3l0.9,-0.3l0.8,-0.3l0.8,-0.2l0.7,-0.1l1,0l0.7,-0.2l0.8,0l773.5,0l0.9,0l0.8,0.2l0.7,0l1,0.1l0.7,0.3l0.8,0.2l0.7,0.3l0.8,0.3l0.8,0.3l0.7,0.4l0.6,0.5l0.8,0.5l0.6,0.4l0.6,0.6l0.6,0.5l0.7,0.6l0.4,0.6l0.5,0.8l0.4,0.6l0.5,0.7l0.4,0.7l0.4,0.7l0.3,0.8l0.3,0.7l0.3,0.8l0.1,0.9l0.2,0.8l0,0.8l0.1,0.9l0,0.7l0,62.8l0,0.9l0,0.8l-0.1,0.9l-0.2,0.8l-0.1,0.8l-0.3,0.7l-0.3,0.8l-0.3,0.7l-0.4,0.8l-0.4,0.8l-0.5,0.6l-0.4,0.7l-0.5,0.7l-0.4,0.6l-0.7,0.6l-0.6,0.6l-0.6,0.5l-0.6,0.6l-0.8,0.4l-0.6,0.3l-0.7,0.5l-0.8,0.3l-0.8,0.3l-0.7,0.3l-0.8,0.3l-0.7,0.2l-1,0.1l-0.7,0.2l-0.8,0l-0.9,0l-773.5,0.1l0,-0.1l-0.8,0l-0.7,0l-1,-0.2l-0.7,-0.1l-0.8,-0.2L170,286l-0.9,-0.2l-0.7,-0.3l-0.6,-0.4L167,284.6l-0.8,-0.3l-0.6,-0.4L165,283.3l-0.8,-0.5l-0.6,-0.6l-0.4,-0.6L162.6,281l-0.5,-0.7l-0.5,-0.6L161.2,279l-0.3,-0.8l-0.5,-0.8l-0.3,-0.7L160,275.9l-0.3,-0.7l-0.2,-0.8l-0.2,-0.8l-0.1,-0.9L159,271.9l0,-0.9l0,-62.8Z" class="g1_10" />
<path d="M159,208.2l0,-0.7l0.2,-0.9l0.1,-0.8l0.2,-0.8l0.2,-0.9l0.3,-0.8l0.1,-0.7l0.3,-0.8l0.5,-0.7l0.3,-0.8l0.4,-0.6l0.5,-0.6l0.5,-0.8l0.6,-0.6l0.4,-0.6l0.6,-0.6L165,196l0.6,-0.4l0.6,-0.5l0.8,-0.5l0.8,-0.4l0.6,-0.3l0.7,-0.3l0.9,-0.3l0.8,-0.3l0.8,-0.2l0.7,-0.1l1,0l0.7,-0.2l0.8,0l773.5,0l0.9,0l0.8,0.2l0.7,0l1,0.1l0.7,0.3l0.8,0.2l0.7,0.3l0.8,0.3l0.8,0.3l0.7,0.4l0.6,0.5l0.8,0.5l0.6,0.4l0.6,0.6l0.6,0.5l0.7,0.6l0.4,0.6l0.5,0.8l0.4,0.6l0.5,0.7l0.4,0.7l0.4,0.7l0.3,0.8l0.3,0.7l0.3,0.8l0.1,0.9l0.2,0.8l0,0.8l0.1,0.9l0,0.7l0,62.8l0,0.9l0,0.8l-0.1,0.9l-0.2,0.8l-0.1,0.8l-0.3,0.7l-0.3,0.8l-0.3,0.7l-0.4,0.8l-0.4,0.8l-0.5,0.6l-0.4,0.7l-0.5,0.7l-0.4,0.6l-0.7,0.6l-0.6,0.6l-0.6,0.5l-0.6,0.6l-0.8,0.4l-0.6,0.3l-0.7,0.5l-0.8,0.3l-0.8,0.3l-0.7,0.3l-0.8,0.3l-0.7,0.2l-1,0.1l-0.7,0.2l-0.8,0l-0.9,0l-773.5,0.1l0,-0.1l-0.8,0l-0.7,0l-1,-0.2l-0.7,-0.1l-0.8,-0.2L170,286l-0.9,-0.2l-0.7,-0.3l-0.6,-0.4L167,284.6l-0.8,-0.3l-0.6,-0.4L165,283.3l-0.8,-0.5l-0.6,-0.6l-0.4,-0.6L162.6,281l-0.5,-0.7l-0.5,-0.6L161.2,279l-0.3,-0.8l-0.5,-0.8l-0.3,-0.7L160,275.9l-0.3,-0.7l-0.2,-0.8l-0.2,-0.8l-0.1,-0.9L159,271.9l0,-0.9l0,-62.8Z" class="g3_10" />
<g clip-path="url(#c0_10)">
<g fill="#626262" >
<use xlink:href="#f2_8" transform="matrix(11.5,0,0,11.5,384.8,225.7)" />
<use xlink:href="#f2_9" transform="matrix(11.5,0,0,11.5,397.5,225.7)" />
<use xlink:href="#f2_a" transform="matrix(11.5,0,0,11.5,406.8,225.7)" />
<use xlink:href="#f2_b" transform="matrix(11.5,0,0,11.5,411.6,225.7)" />
<use xlink:href="#f2_c" transform="matrix(11.5,0,0,11.5,422.6,225.7)" />
<use xlink:href="#f2_d" transform="matrix(11.5,0,0,11.5,439.1,225.7)" />
<use xlink:href="#f2_e" transform="matrix(11.5,0,0,11.5,448.5,225.7)" />
<use xlink:href="#f2_f" transform="matrix(11.5,0,0,11.5,458.8,225.7)" />
<use xlink:href="#f2_3" transform="matrix(11.5,0,0,11.5,467.6,225.7)" />
<use xlink:href="#f2_g" transform="matrix(11.5,0,0,11.5,478.3,225.7)" />
<use xlink:href="#f2_h" transform="matrix(11.5,0,0,11.5,485.3,225.7)" />
<use xlink:href="#f2_d" transform="matrix(11.5,0,0,11.5,496,225.7)" />
<use xlink:href="#f2_i" transform="matrix(11.5,0,0,11.5,505.5,225.7)" />
<use xlink:href="#f2_j" transform="matrix(11.5,0,0,11.5,510.4,225.7)" />
<use xlink:href="#f2_k" transform="matrix(11.5,0,0,11.5,526.4,225.7)" />
<use xlink:href="#f2_l" transform="matrix(11.5,0,0,11.5,540.8,225.7)" />
<use xlink:href="#f2_b" transform="matrix(11.5,0,0,11.5,545.8,225.7)" />
<use xlink:href="#f2_6" transform="matrix(11.5,0,0,11.5,556.8,225.7)" />
<use xlink:href="#f2_g" transform="matrix(11.5,0,0,11.5,563.7,225.7)" />
<use xlink:href="#f2_3" transform="matrix(11.5,0,0,11.5,570.9,225.7)" />
<use xlink:href="#f2_m" transform="matrix(11.5,0,0,11.5,581.4,225.7)" />
<use xlink:href="#f2_5" transform="matrix(11.5,0,0,11.5,592.4,225.7)" />
<use xlink:href="#f2_d" transform="matrix(11.5,0,0,11.5,603.4,225.7)" />
<use xlink:href="#f2_6" transform="matrix(11.5,0,0,11.5,613,225.7)" />
<use xlink:href="#f2_a" transform="matrix(11.5,0,0,11.5,619.8,225.7)" />
<use xlink:href="#f2_3" transform="matrix(11.5,0,0,11.5,624.5,225.7)" />
<use xlink:href="#f2_b" transform="matrix(11.5,0,0,11.5,635.2,225.7)" />
<use xlink:href="#f2_h" transform="matrix(11.5,0,0,11.5,651.7,225.7)" />
<use xlink:href="#f2_b" transform="matrix(11.5,0,0,11.5,662.2,225.7)" />
<use xlink:href="#f2_m" transform="matrix(11.5,0,0,11.5,673.2,225.7)" />
<use xlink:href="#f2_9" transform="matrix(11.5,0,0,11.5,689.7,225.7)" />
<use xlink:href="#f2_j" transform="matrix(11.5,0,0,11.5,698.9,225.7)" />
<use xlink:href="#f2_6" transform="matrix(11.5,0,0,11.5,709.6,225.7)" />
<use xlink:href="#f2_5" transform="matrix(11.5,0,0,11.5,716.3,225.7)" />
<use xlink:href="#f2_7" transform="matrix(11.5,0,0,11.5,727.3,225.7)" />
</g>
<g fill="#0000EE" >
<use xlink:href="#f1_f" transform="matrix(11.5,0,0,11.5,272.1,267.7)" />
<use xlink:href="#f1_c" transform="matrix(11.5,0,0,11.5,283.2,267.7)" />
<use xlink:href="#f1_c" transform="matrix(11.5,0,0,11.5,290.1,267.7)" />
<use xlink:href="#f1_9" transform="matrix(11.5,0,0,11.5,296.8,267.7)" />
<use xlink:href="#f1_g" transform="matrix(11.5,0,0,11.5,308,267.7)" />
<use xlink:href="#f1_n" transform="matrix(11.5,0,0,11.5,317.1,267.7)" />
<use xlink:href="#f1_1l" transform="matrix(11.5,0,0,11.5,323.1,267.7)" />
<use xlink:href="#f1_1l" transform="matrix(11.5,0,0,11.5,328.9,267.7)" />
<use xlink:href="#f1_12" transform="matrix(11.5,0,0,11.5,334.7,267.7)" />
<use xlink:href="#f1_12" transform="matrix(11.5,0,0,11.5,349,267.7)" />
<use xlink:href="#f1_12" transform="matrix(11.5,0,0,11.5,363.4,267.7)" />
<use xlink:href="#f1_1c" transform="matrix(11.5,0,0,11.5,375.9,267.7)" />
<use xlink:href="#f1_r" transform="matrix(11.5,0,0,11.5,381.4,267.7)" />
<use xlink:href="#f1_7" transform="matrix(11.5,0,0,11.5,391.8,267.7)" />
<use xlink:href="#f1_i" transform="matrix(11.5,0,0,11.5,402.3,267.7)" />
<use xlink:href="#f1_c" transform="matrix(11.5,0,0,11.5,413.5,267.7)" />
<use xlink:href="#f1_i" transform="matrix(11.5,0,0,11.5,420.3,267.7)" />
<use xlink:href="#f1_m" transform="matrix(11.5,0,0,11.5,431.5,267.7)" />
<use xlink:href="#f1_b" transform="matrix(11.5,0,0,11.5,442.6,267.7)" />
<use xlink:href="#f1_1c" transform="matrix(11.5,0,0,11.5,453.3,267.7)" />
<use xlink:href="#f1_6" transform="matrix(11.5,0,0,11.5,458.8,267.7)" />
<use xlink:href="#f1_7" transform="matrix(11.5,0,0,11.5,468.3,267.7)" />
<use xlink:href="#f1_8" transform="matrix(11.5,0,0,11.5,479,267.7)" />
<use xlink:href="#f1_1l" transform="matrix(11.5,0,0,11.5,495.8,267.7)" />
<use xlink:href="#f1_12" transform="matrix(11.5,0,0,11.5,501.7,267.7)" />
<use xlink:href="#f1_k" transform="matrix(11.5,0,0,11.5,515.9,267.7)" />
<use xlink:href="#f1_c" transform="matrix(11.5,0,0,11.5,526.8,267.7)" />
<use xlink:href="#f1_6" transform="matrix(11.5,0,0,11.5,533.5,267.7)" />
<use xlink:href="#f1_f" transform="matrix(11.5,0,0,11.5,543.1,267.7)" />
<use xlink:href="#f1_1f" transform="matrix(11.5,0,0,11.5,554.3,267.7)" />
<use xlink:href="#f1_q" transform="matrix(11.5,0,0,11.5,563.4,267.7)" />
<use xlink:href="#f1_1v" transform="matrix(11.5,0,0,11.5,573.7,267.7)" />
<use xlink:href="#f1_l" transform="matrix(11.5,0,0,11.5,588.2,267.7)" />
<use xlink:href="#f1_s" transform="matrix(11.5,0,0,11.5,595.5,267.7)" />
<use xlink:href="#f1_e" transform="matrix(11.5,0,0,11.5,605.9,267.7)" />
<use xlink:href="#f1_1w" transform="matrix(11.5,0,0,11.5,612,267.7)" />
<use xlink:href="#f1_1x" transform="matrix(11.5,0,0,11.5,623.3,267.7)" />
<use xlink:href="#f1_1y" transform="matrix(11.5,0,0,11.5,635.2,267.7)" />
<use xlink:href="#f1_8" transform="matrix(11.5,0,0,11.5,647.3,267.7)" />
<use xlink:href="#f1_1t" transform="matrix(11.5,0,0,11.5,664.1,267.7)" />
<use xlink:href="#f1_i" transform="matrix(11.5,0,0,11.5,672.5,267.7)" />
<use xlink:href="#f1_r" transform="matrix(11.5,0,0,11.5,683.6,267.7)" />
<use xlink:href="#f1_x" transform="matrix(11.5,0,0,11.5,693.9,267.7)" />
</g>
</g>
<path d="M272,269l433,0" class="g2_10" />
<g clip-path="url(#c0_10)">
<g fill="#626262" >
<use xlink:href="#f1_1i" transform="matrix(11.5,0,0,11.5,710.9,267.7)" />
<use xlink:href="#f1_16" transform="matrix(11.5,0,0,11.5,717.6,267.7)" />
<use xlink:href="#f1_i" transform="matrix(11.5,0,0,11.5,731,267.7)" />
<use xlink:href="#f1_l" transform="matrix(11.5,0,0,11.5,742.2,267.7)" />
<use xlink:href="#f1_k" transform="matrix(11.5,0,0,11.5,749.5,267.7)" />
<use xlink:href="#f1_c" transform="matrix(11.5,0,0,11.5,760.3,267.7)" />
<use xlink:href="#f1_d" transform="matrix(11.5,0,0,11.5,767,267.7)" />
<use xlink:href="#f1_7" transform="matrix(11.5,0,0,11.5,771.9,267.7)" />
<use xlink:href="#f1_4" transform="matrix(11.5,0,0,11.5,782.6,267.7)" />
<use xlink:href="#f1_n" transform="matrix(11.5,0,0,11.5,793.8,267.7)" />
<use xlink:href="#f1_y" transform="matrix(11.5,0,0,11.5,805,267.7)" />
<use xlink:href="#f1_n" transform="matrix(11.5,0,0,11.5,816.3,267.7)" />
<use xlink:href="#f1_1j" transform="matrix(11.5,0,0,11.5,822.1,267.7)" />
<use xlink:href="#f1_10" transform="matrix(11.5,0,0,11.5,833.1,267.7)" />
</g>
<g fill="#838383" >
<use xlink:href="#f1_o" transform="matrix(11.5,0,0,11.5,844.3,267.7)" />
</g>
</g>
<path fill-rule="evenodd" d="M183.3,396.6l0,-0.8l0,-0.6l0.2,-0.7l0.1,-0.8l0.2,-0.6l0.1,-0.8l0.3,-0.6l0.4,-0.7l0.3,-0.7l0.3,-0.6l0.3,-0.6l0.4,-0.6l0.5,-0.6l0.4,-0.6l0.5,-0.5l0.6,-0.4l0.5,-0.5l0.6,-0.4l0.6,-0.5l0.6,-0.5l0.6,-0.3l0.6,-0.3l0.8,-0.3l0.8,-0.1l0.6,-0.3l0.7,-0.2l0.6,-0.1l0.8,0l0.8,-0.2l0.7,0l260.8,0l0.8,0l0.8,0.2l0.7,0l0.6,0.1l0.8,0.2l0.8,0.3l0.6,0.1l0.6,0.3l0.7,0.3l0.7,0.3l0.6,0.5l0.6,0.5l0.4,0.4l0.6,0.5l0.7,0.4l0.4,0.6l0.5,0.5l0.4,0.6l0.3,0.6l0.5,0.6l0.3,0.6l0.3,0.7l0.3,0.7l0.3,0.6l0.2,0.8l0.1,0.6l0.2,0.8l0.1,0.7l0,0.6l0,0.8l0.2,55.6l-0.2,0l0,0.8l0,0.8l-0.1,0.6l-0.2,0.7l-0.1,0.8l-0.2,0.6l-0.3,0.8l-0.1,0.6l-0.3,0.6l-0.5,0.8l-0.3,0.6l-0.5,0.6l-0.4,0.4l-0.5,0.6L468,462l-0.7,0.6l-0.4,0.5l-0.6,0.4l-0.6,0.3l-0.6,0.5l-0.7,0.3l-0.7,0.3l-0.6,0.3l-0.6,0.2l-0.8,0.3l-0.8,0.1l-0.6,0.2l-0.7,0l-0.8,0.1l-0.8,0l-260.8,0l-0.7,0l-0.8,0L194.9,466l-0.6,-0.2l-0.7,-0.1L193,465.5l-0.8,-0.3l-0.8,-0.3l-0.6,-0.3l-0.6,-0.3l-0.6,-0.5L189,463.5l-0.6,-0.4l-0.5,-0.5l-0.6,-0.4l-0.5,-0.7l-0.4,-0.6l-0.5,-0.4l-0.4,-0.6l-0.3,-0.6l-0.3,-0.7l-0.3,-0.7l-0.4,-0.6l-0.3,-0.8l-0.1,-0.6l-0.2,-0.8l-0.1,-0.7l-0.2,-0.6l0,-0.8l0,-0.8l0,-55.6Z" class="g1_10" />
<path d="M183.3,396.6l0,-0.8l0,-0.6l0.2,-0.7l0.1,-0.8l0.2,-0.6l0.1,-0.8l0.3,-0.6l0.4,-0.7l0.3,-0.7l0.3,-0.6l0.3,-0.6l0.4,-0.6l0.5,-0.6l0.4,-0.6l0.5,-0.5l0.6,-0.4l0.5,-0.5l0.6,-0.4l0.6,-0.5l0.6,-0.5l0.6,-0.3l0.6,-0.3l0.8,-0.3l0.8,-0.1l0.6,-0.3l0.7,-0.2l0.6,-0.1l0.8,0l0.8,-0.2l0.7,0l260.8,0l0.8,0l0.8,0.2l0.7,0l0.6,0.1l0.8,0.2l0.8,0.3l0.6,0.1l0.6,0.3l0.7,0.3l0.7,0.3l0.6,0.5l0.6,0.5l0.4,0.4l0.6,0.5l0.7,0.4l0.4,0.6l0.5,0.5l0.4,0.6l0.3,0.6l0.5,0.6l0.3,0.6l0.3,0.7l0.3,0.7l0.3,0.6l0.2,0.8l0.1,0.6l0.2,0.8l0.1,0.7l0,0.6l0,0.8l0.2,55.6l-0.2,0l0,0.8l0,0.8l-0.1,0.6l-0.2,0.7l-0.1,0.8l-0.2,0.6l-0.3,0.8l-0.1,0.6l-0.3,0.6l-0.5,0.8l-0.3,0.6l-0.5,0.6l-0.4,0.4l-0.5,0.6L468,462l-0.7,0.6l-0.4,0.5l-0.6,0.4l-0.6,0.3l-0.6,0.5l-0.7,0.3l-0.7,0.3l-0.6,0.3l-0.6,0.2l-0.8,0.3l-0.8,0.1l-0.6,0.2l-0.7,0l-0.8,0.1l-0.8,0l-260.8,0l-0.7,0l-0.8,0L194.9,466l-0.6,-0.2l-0.7,-0.1L193,465.5l-0.8,-0.3l-0.8,-0.3l-0.6,-0.3l-0.6,-0.3l-0.6,-0.5L189,463.5l-0.6,-0.4l-0.5,-0.5l-0.6,-0.4l-0.5,-0.7l-0.4,-0.6l-0.5,-0.4l-0.4,-0.6l-0.3,-0.6l-0.3,-0.7l-0.3,-0.7l-0.4,-0.6l-0.3,-0.8l-0.1,-0.6l-0.2,-0.8l-0.1,-0.7l-0.2,-0.6l0,-0.8l0,-0.8l0,-55.6Z" class="g3_10" />
<g clip-path="url(#c0_10)">
<g fill="#626262" >
<use xlink:href="#f3_2" transform="matrix(13.4,0,0,13.4,198.2,412.7)" />
<use xlink:href="#f3_2" transform="matrix(13.4,0,0,13.4,210.5,412.7)" />
<use xlink:href="#f3_2" transform="matrix(13.4,0,0,13.4,222.7,412.7)" />
<use xlink:href="#f3_4" transform="matrix(13.4,0,0,13.4,247.3,412.7)" />
<use xlink:href="#f3_5" transform="matrix(13.4,0,0,13.4,259.5,412.7)" />
<use xlink:href="#f3_6" transform="matrix(13.4,0,0,13.4,271.9,412.7)" />
<use xlink:href="#f3_7" transform="matrix(13.4,0,0,13.4,284.1,412.7)" />
<use xlink:href="#f3_8" transform="matrix(13.4,0,0,13.4,296.3,412.7)" />
<use xlink:href="#f3_9" transform="matrix(13.4,0,0,13.4,308.6,412.7)" />
<use xlink:href="#f3_a" transform="matrix(13.4,0,0,13.4,333.2,412.7)" />
<use xlink:href="#f3_b" transform="matrix(13.4,0,0,13.4,345.4,412.7)" />
<use xlink:href="#f3_c" transform="matrix(13.4,0,0,13.4,357.7,412.7)" />
<use xlink:href="#f3_d" transform="matrix(13.4,0,0,13.4,370,412.7)" />
<use xlink:href="#f3_8" transform="matrix(13.4,0,0,13.4,382.2,412.7)" />
<use xlink:href="#f3_e" transform="matrix(13.4,0,0,13.4,394.4,412.7)" />
<use xlink:href="#f3_a" transform="matrix(13.4,0,0,13.4,406.8,412.7)" />
<use xlink:href="#f3_f" transform="matrix(13.4,0,0,13.4,419,412.7)" />
<use xlink:href="#f3_g" transform="matrix(13.4,0,0,13.4,431.4,412.7)" />
<use xlink:href="#f3_2" transform="matrix(13.4,0,0,13.4,198.2,437.1)" />
<use xlink:href="#f3_2" transform="matrix(13.4,0,0,13.4,210.5,437.1)" />
<use xlink:href="#f3_2" transform="matrix(13.4,0,0,13.4,222.7,437.1)" />
</g>
</g>
<defs>
	<path d="M264.3,297.9c0,0,-42.8,0,-79.4,16.8c0,0,-36.7,16.8,-64.2,44.3c0,0,-29,29.1,-44.3,67.3c0,0,-16.8,38.1,-16.8,82.5c0,0,0,41.2,15.3,77.9c0,0,16.8,38.2,44.3,65.7c0,0,29,27.5,65.7,42.7c0,0,36.6,16.8,79.4,16.8c0,0,42.8,0,81,-15.2c0,0,38.2,-16.8,65.7,-44.3c0,0,29,-27.5,45.8,-64.2c0,0,16.8,-38.2,16.8,-79.4c0,0,0,-44.4,-16.8,-82.5c0,0,-16.8,-38.2,-44.3,-65.7c0,0,-29,-29.1,-67.2,-45.9c0,0,-38.2,-16.8,-81,-16.8Z" 
	id="f0_q"
	transform="scale(0.001,-0.001)" />

	<path d="M481.3,123.8c0,0,230.6,0,337.6,103.8c0,0,106.9,103.9,106.9,330c0,0,0,223.1,-106.9,327c0,0,-107,103.9,-337.6,103.9l-181.9,0l0,-864.7ZM149.7,0l0,1113.8l308.6,0c0,0,323.9,0,475.2,-134.5c0,0,151.2,-136,151.2,-421.7c0,0,0,-288.7,-151.2,-423.2C933.5,134.4,780.7,0,458.3,0Z" 
	id="f1_16"
	transform="scale(0.001,-0.001)" />

	<path d="M467.5,94.7c0,0,108.5,0,172.6,85.6c0,0,64.2,87.1,64.2,235.3c0,0,0,149.7,-64.2,235.2c0,0,-64.1,87.1,-172.6,87.1c0,0,-111.5,0,-175.7,-85.5c0,0,-64.2,-85.6,-64.2,-236.8c0,0,0,-149.8,64.2,-235.3c0,0,64.2,-85.6,175.7,-85.6Zm0,-116c0,0,-180.3,0,-281.1,116C186.4,94.7,84,210.8,84,415.6c0,0,0,206.2,100.9,322.3c0,0,102.3,117.7,282.6,117.7c0,0,178.8,0,281.1,-116.2c0,0,102.4,-117.6,102.4,-323.8c0,0,0,-204.8,-102.4,-320.9c0,0,-102.3,-116,-281.1,-116Z" 
	id="f1_7"
	transform="scale(0.001,-0.001)" />

	<path d="M282.6,0L62.6,834.2l137.5,0L372.8,183.3L542.4,834.2l161.9,0L876.9,183.3l171.2,650.9l135.9,0L965.6,0l-162,0L624.9,684.4L444.6,0Z" 
	id="f1_12"
	transform="scale(0.001,-0.001)" />

	<path d="M137.5,0l0,834.2l139,0l0,-129.9c0,0,48.9,76.4,114.6,113.1c0,0,67.2,38.2,154.3,38.2c0,0,145.2,0,218.5,-88.7c0,0,73.3,-90.1,73.3,-262.7L837.2,0L699.7,0l0,499.6c0,0,0,117.6,-45.8,175.7c0,0,-45.8,59.6,-139,59.6c0,0,-110,0,-174.2,-70.3c0,0,-64.2,-70.3,-64.2,-192.5L276.5,0Z" 
	id="f1_4"
	transform="scale(0.001,-0.001)" />

	<path d="M143,0l0,1159l138,0L281,0Z" 
	id="f1_a"
	transform="scale(0.001,-0.001)" />

	<path d="M407.9,93.2c0,0,113.1,0,181.8,79.4c0,0,70.3,81,70.3,215.5l0,30.5l-137.5,0c0,0,-166.5,0,-230.7,-36.7c0,0,-64.2,-38.1,-64.2,-129.8c0,0,0,-73.3,47.4,-116.1c0,0,48.9,-42.8,132.9,-42.8ZM371.3,-21.3c0,0,-128.4,0,-203.2,71.7c0,0,-76.4,71.8,-76.4,192.5c0,0,0,140.6,93.2,212.4c0,0,94.7,71.8,282.6,71.8l192.5,0l0,13.7c0,0,0,94.8,-62.6,145.2c0,0,-62.7,51.9,-175.7,51.9c0,0,-71.8,0,-139.1,-16.8c0,0,-67.2,-16.8,-129.8,-51.9l0,126.8c0,0,74.8,30.5,145.1,44.3c0,0,71.8,15.3,139,15.3c0,0,180.3,0,268.9,-93.2c0,0,90.2,-94.8,90.2,-285.7L796,0L660,0l0,126.8c0,0,-47.4,-76.4,-117.6,-111.5c0,0,-70.3,-36.6,-171.1,-36.6Z" 
	id="f1_k"
	transform="scale(0.001,-0.001)" />

	<path d="M458.3,93.2c0,0,110,0,172.7,85.6c0,0,62.6,85.5,62.6,236.8c0,0,0,152.7,-62.6,238.3c0,0,-62.7,85.5,-172.7,85.5c0,0,-108.4,0,-171.1,-85.5c0,0,-62.6,-85.6,-62.6,-238.3c0,0,0,-151.3,62.6,-236.8c0,0,62.7,-85.6,171.1,-85.6ZM424.7,-21.3c0,0,-151.2,0,-245.9,120.6C178.8,99.3,84,220,84,415.6c0,0,0,197,94.8,317.7c0,0,94.7,122.3,245.9,122.3c0,0,93.2,0,158.9,-36.7c0,0,65.7,-36.7,110,-111.5l0,452.2l136,0L829.6,0l-136,0l0,125.3c0,0,-44.3,-74.9,-110,-110c0,0,-65.7,-36.6,-158.9,-36.6Z" 
	id="f1_h"
	transform="scale(0.001,-0.001)" />

	<path d="M143,0l0,834l138,0L281,0Zm0,985l0,174l138,0l0,-174Z" 
	id="f1_d"
	transform="scale(0.001,-0.001)" />

	<path d="M375.8,-21.3c0,0,-67.2,0,-140.5,12.2c0,0,-73.4,12.2,-152.8,39.7l0,140.5c0,0,76.4,-39.7,149.7,-58c0,0,73.4,-19.9,146.7,-19.9c0,0,96.2,0,148.2,32.1c0,0,51.9,33.6,51.9,94.7c0,0,0,55,-36.6,84c0,0,-38.2,30.6,-165,58.1l-48.9,12.2c0,0,-126.8,26,-183.4,81c0,0,-56.5,56.5,-56.5,152.8c0,0,0,119.1,82.5,183.3c0,0,84,64.2,238.3,64.2c0,0,74.9,0,142.1,-10.7c0,0,67.3,-12.3,123.8,-35.2l0,-129.8c0,0,-58.1,30.5,-120.7,44.3c0,0,-62.7,15.2,-129.9,15.2c0,0,-102.3,0,-152.8,-30.5c0,0,-50.4,-32.1,-50.4,-94.7c0,0,0,-47.4,35.2,-74.9c0,0,36.6,-27.5,148.2,-51.9l45.8,-10.7c0,0,146.7,-30.6,207.8,-87.1c0,0,62.6,-58.1,62.6,-160.4c0,0,0,-116.1,-91.7,-183.4c0,0,-93.1,-67.1,-253.6,-67.1Z" 
	id="f1_g"
	transform="scale(0.001,-0.001)" />

	<path d="M420.1,0c0,0,-158.8,0,-218.4,58.1c0,0,-61.1,59.5,-61.1,216.9l0,453.8l-100.9,0l0,105.4l100.9,0l0,238.3l139,0l0,-238.3l282.6,0l0,-105.4l-282.6,0l0,-453.8c0,0,0,-102.4,27.5,-131.4c0,0,27.5,-29,113,-29l142.1,0L562.2,0Z" 
	id="f1_c"
	transform="scale(0.001,-0.001)" />

	<path d="M137.5,0l0,1159.6l139,0l0,-455.3c0,0,48.9,76.4,114.6,113.1c0,0,67.2,38.2,154.3,38.2c0,0,145.2,0,218.5,-88.7c0,0,73.3,-90.1,73.3,-262.7L837.2,0L699.7,0l0,499.6c0,0,0,117.6,-45.8,175.7c0,0,-45.8,59.6,-139,59.6c0,0,-110,0,-174.2,-70.3c0,0,-64.2,-70.3,-64.2,-192.5L276.5,0Z" 
	id="f1_f"
	transform="scale(0.001,-0.001)" />

	<path d="M230.7,490.4l490.4,1.5c0,0,-1.5,111.6,-62.6,178.8c0,0,-62.7,67.2,-163.5,67.2c0,0,-114.6,0,-183.3,-64.1c0,0,-70.3,-65.7,-81,-183.4ZM516.4,-21.3c0,0,-198.6,0,-314.7,116C201.7,94.7,84,210.8,84,409.4c0,0,0,204.8,110,325.5c0,0,111.6,120.7,299.5,120.7c0,0,168,0,265.8,-108.5c0,0,99.3,-110,99.3,-296.4l0,-67.2l-632.5,0c0,0,9.2,-140.6,85.6,-213.9c0,0,76.4,-74.9,213.9,-74.9c0,0,77.9,0,152.7,18.4c0,0,74.9,19.8,148.2,58l0,-129.8c0,0,-74.8,-30.6,-151.2,-45.8c0,0,-77.9,-16.8,-158.9,-16.8Z" 
	id="f1_b"
	transform="scale(0.001,-0.001)" />

	<path d="M137.5,0l0,834.2l139,0l0,-129.9c0,0,42.8,76.4,111.6,113.1c0,0,70.2,38.2,169.5,38.2c0,0,13.8,0,30.6,-1.6c0,0,16.8,-3,38.2,-6.1l1.5,-142.1c0,0,-24.4,13.8,-50.4,19.9c0,0,-27.5,6.1,-61.1,6.1c0,0,-116.1,0,-177.2,-74.9c0,0,-62.7,-76.3,-62.7,-216.9l0,-440Z" 
	id="f1_l"
	transform="scale(0.001,-0.001)" />

	<path d="M357.5,0L44.3,834.2l145.1,0L450.7,132.9L711.9,834.2l146.7,0L543.9,0Z" 
	id="f1_q"
	transform="scale(0.001,-0.001)" />

	<path d="M165,0l0,728.8l-131.4,0l0,105.4l131.4,0l0,58c0,0,0,140.6,64.2,203.2c0,0,65.7,64.2,207.7,64.2l129.9,0l0,-113.1l-131.4,0c0,0,-74.8,0,-102.3,-30.5c0,0,-29.1,-30.6,-29.1,-107l0,-74.8l226.1,0l0,-105.4l-226.1,0L304,0Z" 
	id="f1_e"
	transform="scale(0.001,-0.001)" />

	<path d="M137.5,0l0,834.2l139,0l0,-129.9c0,0,45.9,77.9,111.6,114.6c0,0,65.7,36.7,155.8,36.7c0,0,91.7,0,154.3,-45.9c0,0,64.2,-47.3,96.2,-135.9c0,0,50.5,93.1,122.3,137.5c0,0,71.8,44.3,168,44.3c0,0,131.4,0,201.7,-91.7c0,0,71.8,-91.7,71.8,-259.7L1358.2,0l-139,0l0,499.6c0,0,0,119.2,-41.3,177.2c0,0,-42.8,58.1,-129.8,58.1c0,0,-107,0,-168.1,-70.3c0,0,-62.6,-70.3,-62.6,-192.5L817.4,0L678.3,0l0,499.6c0,0,0,120.7,-41.2,177.2c0,0,-42.8,58.1,-131.4,58.1c0,0,-105.4,0,-166.5,-70.3c0,0,-62.7,-71.8,-62.7,-192.5L276.5,0Z" 
	id="f1_8"
	transform="scale(0.001,-0.001)" />

	<path d="M458.3,114.6c0,0,111.6,0,172.7,81c0,0,62.6,82.5,62.6,230.7c0,0,0,149.7,-61.1,230.6c0,0,-62.6,82.5,-174.2,82.5c0,0,-110,0,-171.1,-80.9c0,0,-62.6,-82.5,-62.6,-232.2c0,0,0,-148.2,61.1,-229.2c0,0,62.6,-82.5,172.6,-82.5ZM444.6,-317.7c0,0,-71.8,0,-136,10.7c0,0,-64.2,12.2,-123.7,33.6l0,134.5c0,0,59.5,-33.6,117.6,-48.9c0,0,59.6,-15.3,120.7,-15.3c0,0,136,0,203.2,70.3c0,0,67.2,70.3,67.2,210.7l0,68.8c0,0,-42.8,-74.9,-108.5,-110C585.1,36.7,517.9,0,424.7,0c0,0,-152.8,0,-245.9,116.1c0,0,-94.8,117.7,-94.8,310.2c0,0,0,194,93.2,311.6c0,0,94.7,117.7,247.5,117.7c0,0,93.2,0,158.9,-36.7c0,0,67.2,-36.7,110,-111.5l0,126.8l136,0l0,-731.8c0,0,0,-210.8,-94.7,-314.7c0,0,-94.8,-105.4,-290.3,-105.4Z" 
	id="f1_x"
	transform="scale(0.001,-0.001)" />

	<path d="M137.5,0l0,1159.6l139,0l0,-684.5L686,834.2l174.1,0L417.1,444.6L880,0L699.7,0L276.5,407.9L276.5,0Z" 
	id="f1_1a"
	transform="scale(0.001,-0.001)" />

	<path d="M178,0l0,189l158,0L336,0Zm0,600l0,189l158,0l0,-189Z" 
	id="f1_n"
	transform="scale(0.001,-0.001)" />

	<path d="M508.8,93.2c0,0,110,0,171.1,85.6c0,0,62.6,85.5,62.6,236.8c0,0,0,152.7,-61.1,238.3c0,0,-62.6,85.5,-172.6,85.5c0,0,-108.5,0,-169.6,-85.5c0,0,-62.7,-85.6,-62.7,-238.3c0,0,0,-151.3,61.1,-236.8c0,0,62.7,-85.6,171.2,-85.6ZM137.5,-317.7l0,1151.9l139,0l0,-126.8c0,0,42.8,74.8,108.5,111.5c0,0,65.7,36.7,157.4,36.7c0,0,152.7,0,247.5,-120.7c0,0,96.2,-122.3,96.2,-319.3c0,0,0,-195.6,-94.7,-316.3c0,0,-96.3,-120.6,-249,-120.6c0,0,-91.7,0,-157.4,35.1c0,0,-65.7,36.6,-108.5,111.5l0,-443Z" 
	id="f1_9"
	transform="scale(0.001,-0.001)" />

	<path d="M0,-140.5L386.5,1113.8l126.8,0L126.8,-140.5Z" 
	id="f1_1l"
	transform="scale(0.001,-0.001)" />

	<path d="M120.7,-317.7l0,116.1l79.4,0c0,0,56.6,0,87.1,26c0,0,32.1,27.5,70.3,126.8l24.4,61L44.3,834.2l145.1,0L450.7,181.8L711.9,834.2l146.7,0L490.4,-76.3c0,0,-58,-149.7,-113,-195.5c0,0,-55,-45.9,-148.2,-45.9Z" 
	id="f1_r"
	transform="scale(0.001,-0.001)" />

	<path d="M161,0l0,189l158,0L319,0Z" 
	id="f1_1c"
	transform="scale(0.001,-0.001)" />

	<path d="M495,-21.3c0,0,-189.4,0,-299.4,117.6C195.6,96.3,84,215.4,84,415.6c0,0,0,204.7,111.6,322.3c0,0,113,117.7,308.6,117.7c0,0,62.6,0,122.2,-13.8c0,0,61.1,-13.7,117.6,-39.7l0,-128.3c0,0,-58,32,-116.1,47.3c0,0,-58,16.8,-119.1,16.8c0,0,-133,0,-206.3,-84c0,0,-74.9,-84,-74.9,-238.3c0,0,0,-152.8,73.4,-236.8c0,0,74.8,-84.1,207.8,-84.1c0,0,61.1,0,119.1,15.3c0,0,58.1,16.8,116.1,48.9L744,30.6c0,0,-56.5,-26,-117.6,-38.1c0,0,-62.6,-13.8,-131.4,-13.8Z" 
	id="f1_6"
	transform="scale(0.001,-0.001)" />

	<path d="M42.8,0L368.2,436.9L70.3,834.2l161.9,0L453.8,537.8L675.3,834.2l161.9,0L536.3,427.8L854,0L692.1,0L447.6,326.9L204.7,0Z" 
	id="f1_v"
	transform="scale(0.001,-0.001)" />

	<path d="M-13,-359l0,106l790,0l0,-106Z" 
	id="f1_w"
	transform="scale(0.001,-0.001)" />

	<path d="M601.9,99.3c0,0,163.5,0,258.2,122.2c0,0,96.3,123.8,96.3,333.1c0,0,0,210.8,-94.7,333c0,0,-96.3,123.8,-259.8,123.8c0,0,-165,0,-261.2,-122.2c0,0,-96.3,-123.8,-96.3,-334.6c0,0,0,-209.3,96.3,-331.5c0,0,96.2,-123.8,261.2,-123.8Zm0,-120.6c0,0,-235.2,0,-375.8,155.7c0,0,-140.5,155.9,-140.5,420.2c0,0,0,264.3,140.5,421.7c0,0,140.6,157.3,375.8,157.3c0,0,233.8,0,372.8,-157.3c0,0,140.6,-157.4,140.6,-421.7c0,0,0,-262.8,-139,-418.6c0,0,-140.6,-157.3,-374.4,-157.3Z" 
	id="f1_3"
	transform="scale(0.001,-0.001)" />

	<path d="M411,-21.3c0,0,-70.3,0,-143.6,10.7c0,0,-73.4,12.1,-149.8,36.6l0,151.2c0,0,67.3,-36.6,137.5,-55c0,0,71.8,-18.3,152.8,-18.3c0,0,128.4,0,203.2,67.2c0,0,76.4,68.8,76.4,184.9c0,0,0,117.6,-74.9,184.8c0,0,-76.3,67.3,-204.7,67.3c0,0,-61.1,0,-120.7,-12.3c0,0,-61.1,-13.7,-123.7,-42.7l0,560.7l592.8,0l0,-128.4l-453.8,0l0,-271.9c0,0,32.1,10.7,64.2,15.3c0,0,33.6,6.1,67.2,6.1c0,0,186.4,0,294.9,-100.9c0,0,108.4,-102.3,108.4,-278c0,0,0,-178.8,-111.5,-278.1c0,0,-111.5,-99.2,-314.7,-99.2Z" 
	id="f1_14"
	transform="scale(0.001,-0.001)" />

	<path d="M111.5,0l0,126.8c0,0,85.6,88.6,233.8,236.8c0,0,148.2,149.7,186.4,194c0,0,71.8,81,100.8,137.5c0,0,29,56.6,29,110c0,0,0,88.7,-62.6,145.2c0,0,-62.6,56.5,-162,56.5c0,0,-71.8,0,-149.7,-24.4c0,0,-79.4,-26,-168,-74.9l0,151.3c0,0,90.1,36.6,169.6,55c0,0,79.4,19.8,145.1,19.8c0,0,172.6,0,275,-87.1c0,0,103.9,-87.1,103.9,-230.7c0,0,0,-68.7,-26,-129.8c0,0,-26,-62.7,-93.2,-145.2c0,0,-19.8,-22.9,-119.2,-125.2c0,0,-99.3,-103.9,-282.6,-288.8l527.1,0L818.9,0Z" 
	id="f1_t"
	transform="scale(0.001,-0.001)" />

	<path d="M189.4,0l0,126.8l246,0l0,849.5L166.5,922.8l0,136l267.4,55l149.7,0l0,-987l246,0L829.6,0Z" 
	id="f1_2"
	transform="scale(0.001,-0.001)" />

	<path d="M328.5,0L50.4,1113.8l151.3,0L436.9,171.1l232.3,942.7l169.6,0L1074,171.1l232.3,942.7l154.3,0L1179.4,0L990,0L756.3,965.6L517.9,0Z" 
	id="f1_1e"
	transform="scale(0.001,-0.001)" />

	<path d="M389.6,0l0,530.1l-391,583.7l160.3,0L467.5,655.4l305.6,458.4l161.9,0L540.8,530.1L540.8,0Z" 
	id="f1_1t"
	transform="scale(0.001,-0.001)" />

	<path d="M421.7,-21.3c0,0,-143.6,0,-218.5,88.5L128.3,328.5l0,505.7l137.5,0l0,-499.6c0,0,0,-119.2,45.9,-178.8c0,0,47.3,-59.5,139,-59.5c0,0,111.5,0,175.7,70.2c0,0,65.7,71.8,65.7,194.1l0,473.6l136,0L828.1,0l-136,0l0,126.8c0,0,-50.4,-74.9,-116.1,-111.5c0,0,-67.2,-36.6,-154.3,-36.6Z" 
	id="f1_i"
	transform="scale(0.001,-0.001)" />

	<path d="M508.8,93.2c0,0,110,0,171.1,85.6c0,0,62.6,85.5,62.6,236.8c0,0,0,152.7,-61.1,238.3c0,0,-62.6,85.5,-172.6,85.5c0,0,-108.5,0,-169.6,-85.5c0,0,-62.7,-85.6,-62.7,-238.3c0,0,0,-151.3,61.1,-236.8c0,0,62.7,-85.6,171.2,-85.6ZM542.4,-21.3c0,0,-91.7,0,-157.4,35.1c0,0,-65.7,36.6,-108.5,111.5L276.5,0l-139,0l0,1159.6l139,0l0,-452.2c0,0,42.8,74.8,108.5,111.5c0,0,65.7,36.7,157.4,36.7c0,0,152.7,0,247.5,-120.7c0,0,96.2,-122.3,96.2,-319.3c0,0,0,-195.6,-94.7,-316.3c0,0,-96.3,-120.6,-249,-120.6Z" 
	id="f1_m"
	transform="scale(0.001,-0.001)" />

	<path d="M488.9,571.4c0,0,105.4,0,161.9,53.5c0,0,58.1,55,58.1,155.8c0,0,0,99.3,-56.5,152.8c0,0,-58.1,55,-163.5,55l-189.5,0l0,-417.1ZM149.7,0l0,1113.8l339.2,0c0,0,187.9,0,282.6,-84.1c0,0,96.3,-85.5,96.3,-249c0,0,0,-165,-94.7,-249c0,0,-96.3,-85.6,-284.2,-85.6l-189.5,0L299.4,0Z" 
	id="f1_s"
	transform="scale(0.001,-0.001)" />

	<path d="M39.7,0l217,1113.8l203.2,0l307,-954.9l188,954.9l146.6,0L884.6,0L679.9,0L374.3,959.4L187.9,0Z" 
	id="f2_2"
	transform="scale(0.001,-0.001)" />

	<path d="M403.3,94.7c0,0,137.5,0,227.7,119.2c0,0,91.6,120.7,91.6,305.5c0,0,0,108.5,-48.8,163.5c0,0,-48.9,55,-142.1,55c0,0,-77.9,0,-137.5,-35.1c0,0,-61.1,-36.7,-108.5,-110c0,0,-35.1,-55,-53.5,-125.3c0,0,-19.8,-71.8,-19.8,-148.2c0,0,0,-113,47.3,-168c0,0,47.4,-56.6,143.6,-56.6Zm-16.8,-116c0,0,-146.6,0,-232.2,90.1c0,0,-85.5,90.1,-85.5,247.5c0,0,0,90.1,29,184.8c0,0,30.5,94.7,77.9,158.9c0,0,73.3,99.3,163.5,146.7c0,0,91.6,48.9,206.2,48.9c0,0,143.6,0,230.7,-88.7c0,0,87.1,-90.1,87.1,-232.2c0,0,0,-99.3,-29,-197.1c0,0,-29.1,-99.3,-74.9,-165C759.3,172.6,686,73.3,595.8,26c0,0,-91.6,-47.3,-209.3,-47.3Z" 
	id="f2_3"
	transform="scale(0.001,-0.001)" />

	<path d="M317.8,-21.3c0,0,-108.5,0,-169.6,59.5c0,0,-61.1,59.6,-61.1,166.5c0,0,0,22.9,3,56.6c0,0,4.6,33.6,10.7,68.7l97.8,504.2l139,0L239.9,336.1c0,0,-7.7,-36.7,-10.7,-62.6c0,0,-4.6,-26,-4.6,-44.3c0,0,0,-62.7,38.2,-97.8c0,0,39.7,-35.1,111.5,-35.1c0,0,110,0,189.5,74.8c0,0,80.9,74.9,105.4,201.7l93.2,461.4l135.9,0L736.4,0l-136,0l27.5,129.9c0,0,-58,-71.8,-137.5,-111.6c0,0,-81,-39.6,-172.6,-39.6Z" 
	id="f2_5"
	transform="scale(0.001,-0.001)" />

	<path d="M357.5,0c0,0,-122.2,0,-181.8,47.4c0,0,-59.6,47.3,-59.6,143.6c0,0,0,18.3,1.5,38.2c0,0,3.1,21.4,7.7,45.8l88.6,453.8l-117.6,0l22.9,105.4l113,0l47.4,238.3l136,0L371.3,834.2l273.4,0L624.9,728.8l-275,0L261.3,275c0,0,-4.6,-26,-6.2,-42.8c0,0,-1.5,-16.8,-1.5,-27.5c0,0,0,-47.3,27.5,-68.7c0,0,29,-21.4,93.2,-21.4l137.5,0L488.9,0Z" 
	id="f2_6"
	transform="scale(0.001,-0.001)" />

	<path d="M446.1,93.2c0,0,65.7,0,120.7,30.6c0,0,56.5,30.5,96.3,88.6c0,0,41.2,61.1,67.2,143.6c0,0,27.5,82.5,27.5,157.3c0,0,0,110,-47.4,168.1c0,0,-48.9,58,-139,58c0,0,-61.1,0,-116.1,-30.5c0,0,-55,-32.1,-99.3,-91.7c0,0,-41.3,-58,-67.2,-142.1c0,0,-26,-84,-26,-165c0,0,0,-105.4,47.3,-160.4c0,0,48.9,-56.5,136,-56.5ZM-3,-317.7L220,834.2l136,0L331.5,707.4c0,0,55,73.3,129.9,110c0,0,76.4,38.2,168,38.2c0,0,128.4,0,198.7,-84.1c0,0,70.2,-84,70.2,-235.2c0,0,0,-123.8,-42.7,-235.3c0,0,-44.3,-113.1,-126.8,-203.2c0,0,-56.6,-58.1,-125.3,-88.6c0,0,-68.8,-30.5,-146.7,-30.5c0,0,-88.6,0,-148.2,36.6c0,0,-61.1,36.6,-90.1,110l-87.1,-443Z" 
	id="f2_7"
	transform="scale(0.001,-0.001)" />

	<path d="M679.9,985.4l0,172.7l139,0l0,-172.7ZM165,0l0,728.8l-131.4,0l0,105.4l131.4,0l0,58c0,0,0,137.5,64.2,201.7c0,0,65.7,65.7,198.6,65.7l139,0l0,-113.1l-131.4,0c0,0,-74.8,0,-102.3,-30.5c0,0,-29.1,-30.6,-29.1,-107l0,-74.8l514.9,0L818.9,0l-139,0l0,728.8l-375.9,0L304,0Z" 
	id="f1_1s"
	transform="scale(0.001,-0.001)" />

	<path d="M117.6,-177.1L178.8,61.1l0,128.3l157.3,0l0,-128.3L213.9,-177.1Z" 
	id="f1_j"
	transform="scale(0.001,-0.001)" />

	<path d="M149.7,0l0,1113.8l201.7,0l495,-932l0,932l145.1,0L991.5,0L789.9,0l-495,930.4L294.9,0Z" 
	id="f1_11"
	transform="scale(0.001,-0.001)" />

	<path d="M488.9,594.3c0,0,110,0,165,50.4c0,0,55,50.4,55,148.2c0,0,0,97.8,-55,146.7c0,0,-55,48.9,-165,48.9l-189.5,0l0,-394.2ZM149.7,0l0,1113.8l339.2,0c0,0,191,0,284.2,-79.5c0,0,94.7,-81,94.7,-241.4c0,0,0,-105.4,-48.9,-174.1c0,0,-48.9,-70.3,-142.1,-97.8c0,0,48.9,-15.3,94.7,-68.8c0,0,45.9,-55,91.7,-148.2L1017.5,0L855.6,0L711.9,285.7c0,0,-55,111.5,-106.9,148.2c0,0,-51.9,36.7,-140.6,36.7l-165,0L299.4,0Z" 
	id="f1_1u"
	transform="scale(0.001,-0.001)" />

	<path d="M149.7,0l0,1113.8l224.6,0L658.5,354.4l285.7,759.4l224.6,0L1168.8,0L1020.6,0l0,977.8L733.3,213.9l-151.2,0L294.9,977.8L294.9,0Z" 
	id="f1_1d"
	transform="scale(0.001,-0.001)" />

	<path d="M449.2,-21.3c0,0,-166.6,0,-262.8,82.4c0,0,-97.8,84,-97.8,227.7c0,0,0,27.5,3.1,59.5c0,0,3,32.1,10.7,68.8l132.9,696.7l151.2,0L255.1,436.9c0,0,-7.6,-45.8,-10.7,-74.8c0,0,-3,-30.6,-3,-52c0,0,0,-103.8,56.5,-157.3c0,0,58.1,-53.5,169.6,-53.5c0,0,143.6,0,223.1,79.5c0,0,80.9,79.4,114.5,258.1l131.4,676.9l151.3,0L954.9,417.1c0,0,-44.3,-224.6,-166.6,-331.5c0,0,-123.7,-106.9,-339.1,-106.9Z" 
	id="f2_8"
	transform="scale(0.001,-0.001)" />

	<path d="M317.8,-21.3c0,0,-67.2,0,-140.6,12.2c0,0,-73.3,12.2,-160.4,39.7l26,140.5c0,0,76.4,-38.2,148.2,-58c0,0,73.3,-19.9,140.5,-19.9c0,0,100.9,0,163.5,42.8c0,0,64.2,42.8,64.2,110c0,0,0,71.8,-166.6,114.6l-13.7,4.5l-47.4,12.3c0,0,-103.9,27.5,-152.7,71.8c0,0,-48.9,45.8,-48.9,116.1c0,0,0,132.9,100.8,210.8c0,0,100.8,79.5,273.5,79.5c0,0,67.2,0,131.4,-10.7c0,0,64.1,-12.3,126.8,-35.2l-26,-129.8c0,0,-53.5,30.5,-113.1,44.3c0,0,-61.1,15.2,-125.2,15.2c0,0,-108.5,0,-171.2,-36.6c0,0,-62.6,-36.7,-62.6,-99.3c0,0,0,-74.9,145.1,-114.6c0,0,10.7,-3.1,16.9,-4.6l44.3,-12.2c0,0,135.9,-38.2,181.8,-79.5c0,0,47.3,-42.7,47.3,-114.5c0,0,0,-133,-105.4,-215.5c0,0,-106.9,-83.9,-276.5,-83.9Z" 
	id="f2_9"
	transform="scale(0.001,-0.001)" />

	<path d="M53.5,0L216.9,834.2l136,0L189.4,0ZM246,985.4l33.6,174.2l136,0L381.9,985.4Z" 
	id="f2_a"
	transform="scale(0.001,-0.001)" />

	<path d="M53.5,0L215.4,834.2l136,0L323.9,702.8c0,0,58,73.3,137.5,113c0,0,81,39.8,171.1,39.8c0,0,110,0,169.6,-59.6c0,0,61.1,-61.1,61.1,-168.1c0,0,0,-27.5,-3.1,-58c0,0,-3,-30.6,-9.1,-65.7L753.2,0l-139,0l97.7,498.1c0,0,7.7,35.1,10.7,61.1c0,0,4.6,27.5,4.6,44.3c0,0,0,62.6,-39.7,96.2c0,0,-39.7,35.2,-111.5,35.2c0,0,-110,0,-189.5,-73.4c0,0,-79.4,-73.3,-103.9,-198.6L189.4,0Z" 
	id="f2_b"
	transform="scale(0.001,-0.001)" />

	<path d="M398.8,114.6c0,0,129.8,0,216.9,117.6c0,0,87.1,117.7,87.1,296.4c0,0,0,100.8,-47.4,155.8c0,0,-47.3,55,-136,55c0,0,-53.4,0,-102.3,-21.3c0,0,-50.4,-21.4,-85.6,-59.6c0,0,-56.5,-64.2,-87.1,-151.3c0,0,-32,-87.1,-32,-180.3c0,0,0,-102.3,47.3,-157.3c0,0,48.9,-55,139.1,-55ZM297.9,-317.7c0,0,-71.8,0,-132.9,10.7c0,0,-62.6,12.2,-116.1,33.6l24.4,134.5c0,0,52,-33.6,108.5,-48.9c0,0,56.5,-15.3,120.7,-15.3c0,0,129.9,0,213.9,70.3c0,0,84,71.8,111.5,203.1l10.7,62.6c0,0,-56.5,-65.7,-132.9,-99.3C505.7,33.6,429.3,0,342.2,0c0,0,-126.8,0,-200.1,82.5c0,0,-73.3,84,-73.3,232.2c0,0,0,114.6,44.3,224.6c0,0,44.3,111.5,123.7,197.1c0,0,53.5,58,123.8,88.6c0,0,70.2,30.6,148.2,30.6c0,0,84,0,146.6,-39.8c0,0,62.7,-39.7,93.2,-111.5l22.9,129.9l139.1,0L766.9,102.4c0,0,-39.7,-210.8,-155.8,-314.7c0,0,-116.1,-105.4,-313.2,-105.4Z" 
	id="f2_c"
	transform="scale(0.001,-0.001)" />

	<path d="M414,-21.3c0,0,-165,0,-255.1,82.4c0,0,-90.1,82.5,-90.1,236.8c0,0,0,129.9,45.8,238.4c0,0,47.3,110,139,197c0,0,64.2,61.1,148.2,91.7c0,0,84,30.6,183.3,30.6c0,0,58.1,0,116.2,-13.8c0,0,58,-13.7,117.6,-39.7L791.4,667.6c0,0,-50.4,35.2,-105.4,52c0,0,-55,18.3,-114.6,18.3c0,0,-65.7,0,-125.3,-22.9c0,0,-59.6,-22.9,-99.3,-65.7c0,0,-64.2,-64.2,-99.3,-151.2c0,0,-35.1,-87.1,-35.1,-180.3c0,0,0,-113.1,55,-168.1c0,0,56.5,-55,172.6,-55c0,0,56.5,0,119.2,16.8c0,0,64.1,16.8,134.4,50.4L667.6,27.5c0,0,-61.1,-26,-123.7,-36.6c0,0,-62.6,-12.2,-129.9,-12.2Z" 
	id="f2_d"
	transform="scale(0.001,-0.001)" />

	<path d="M-38.1,0L371.3,440L152.8,834.2l157.3,0l160.5,-301l279.5,301l166.6,0L533.2,424.7L766.9,0L609.6,0L433.9,330L126.8,0Z" 
	id="f2_e"
	transform="scale(0.001,-0.001)" />

	<path d="M-13,-359l0,106l790,0l0,-106Z" 
	id="f2_f"
	transform="scale(0.001,-0.001)" />

	<path d="M53.5,0L216.9,834.2l136,0l-26,-129.9c0,0,55,73.3,129.9,111.5c0,0,76.4,39.8,162,39.8c0,0,22.9,0,44.3,-3.1c0,0,21.3,-3.1,42.7,-9.2L679.9,707.4c0,0,-19.9,12.2,-47.4,18.3c0,0,-27.5,6.1,-58.1,6.1c0,0,-108.4,0,-190.9,-82.5c0,0,-82.5,-84,-108.5,-224.6L189.4,0Z" 
	id="f2_g"
	transform="scale(0.001,-0.001)" />

	<path d="M359,94.7c0,0,113.1,0,195.6,79.5c0,0,84,79.4,111.5,213.9l4.6,30.5l-136,0c0,0,-169.6,0,-250.5,-44.3c0,0,-81,-45.8,-81,-140.5c0,0,0,-65.7,41.2,-102.4c0,0,41.3,-36.7,114.6,-36.7Zm-53.4,-116c0,0,-107,0,-174.2,64.1c0,0,-68.8,65.7,-68.8,168c0,0,0,145.2,116.2,230.7c0,0,116.1,85.6,322.3,85.6l191,0l7.6,36.7c0,0,0,6.1,0,12.2c0,0,1.6,7.6,1.6,22.9c0,0,0,65.7,-53.5,102.4c0,0,-53.5,36.6,-151.3,36.6c0,0,-67.2,0,-137.5,-16.8c0,0,-71.8,-16.8,-145.1,-51.9L236.8,796c0,0,77.9,30.5,151.3,44.3c0,0,74.8,15.3,145.1,15.3c0,0,146.7,0,223.1,-64.2c0,0,77.9,-64.2,77.9,-187.9c0,0,0,-24.5,-3.1,-56.6c0,0,-4.6,-33.6,-10.7,-70.2L727.2,0L589.7,0l24.5,126.8c0,0,-59.6,-74.9,-136,-111.5c0,0,-77.9,-36.6,-172.6,-36.6Z" 
	id="f2_h"
	transform="scale(0.001,-0.001)" />

	<path d="M53.5,0L279.6,1159.6l136,0L189.4,0Z" 
	id="f2_i"
	transform="scale(0.001,-0.001)" />

	<path d="M241.4,490.4l491.9,1.5c0,0,3.1,12.3,3.1,24.5c0,0,1.5,12.2,1.5,24.4c0,0,0,91.7,-51.9,143.6c0,0,-53.5,53.5,-145.2,53.5c0,0,-102.3,0,-180.2,-64.1c0,0,-79.5,-64.2,-119.2,-183.4ZM430.8,-21.3c0,0,-174.1,0,-267.3,82.4c0,0,-94.7,82.5,-94.7,235.3c0,0,0,131.4,45.8,242.9c0,0,47.3,113.1,139,200.1c0,0,58.1,55,137.5,85.6c0,0,81,30.6,171.1,30.6c0,0,140.6,0,224.6,-85.6c0,0,84,-85.6,84,-229.2c0,0,0,-33.6,-4.5,-71.8c0,0,-4.6,-39.7,-12.3,-85.5l-638.6,0c0,0,-4.6,-27.5,-6.1,-44.3c0,0,-1.5,-16.8,-1.5,-27.5c0,0,0,-103.9,62.6,-160.4c0,0,64.2,-56.6,180.3,-56.6c0,0,90.1,0,169.6,19.9c0,0,79.4,19.8,148.2,58L742.5,36.7c0,0,-73.3,-29.1,-151.2,-42.7c0,0,-79.5,-15.3,-160.5,-15.3Z" 
	id="f2_j"
	transform="scale(0.001,-0.001)" />

	<path d="M62.6,363.6L84,472.1l615.7,0L678.3,363.6Z" 
	id="f2_k"
	transform="scale(0.001,-0.001)" />

	<path d="M39.7,0l217,1113.8l152.7,0L191,0Z" 
	id="f2_l"
	transform="scale(0.001,-0.001)" />

	<path d="M395.7,93.2c0,0,64.2,0,119.2,30.6c0,0,55,30.5,96.2,91.6c0,0,44.3,62.7,68.8,143.6c0,0,25.9,82.5,25.9,162c0,0,0,103.9,-48.9,161.9c0,0,-48.8,58.1,-134.4,58.1c0,0,-64.2,0,-119.2,-30.6c0,0,-56.5,-30.5,-96.2,-87.1c0,0,-44.3,-62.6,-68.8,-143.6c0,0,-25.9,-82.5,-25.9,-158.9c0,0,0,-106.9,48.9,-166.5c0,0,48.8,-61.1,134.4,-61.1Zm-55,-114.5c0,0,-125.3,0,-198.6,83.9c0,0,-73.3,85.6,-73.3,233.8c0,0,0,123.7,44.3,235.3c0,0,44.3,113,128.3,201.6c0,0,55,59.6,123.7,90.2c0,0,70.3,32.1,145.2,32.1c0,0,81,0,142.1,-38.2c0,0,62.6,-39.8,96.2,-113.1l88.6,455.3l139.1,0L750.1,0l-139,0l26,125.3c0,0,-55,-73.4,-129.9,-110c0,0,-74.8,-36.6,-166.5,-36.6Z" 
	id="f2_m"
	transform="scale(0.001,-0.001)" />

	<path d="M290.3,0l0,189.4l152.8,0L443.1,0Zm4.6,297.9l0,114.6c0,0,0,76.4,21.4,123.8c0,0,21.3,48.8,88.6,113l67.2,67.2c0,0,41.2,39.8,59.6,74.9c0,0,19.8,35.1,19.8,70.3c0,0,0,67.2,-48.9,108.4c0,0,-48.8,41.3,-128.3,41.3c0,0,-59.6,0,-125.3,-26c0,0,-67.2,-27.5,-140.5,-76.4l0,140.6c0,0,70.3,41.2,142.1,62.6c0,0,71.8,21.4,149.7,21.4c0,0,137.5,0,220,-71.8c0,0,82.5,-73.3,82.5,-192.5c0,0,0,-56.5,-26,-106.9c0,0,-27.5,-52,-94.7,-116.1L516.4,582.1c0,0,-35.1,-35.2,-48.9,-53.5c0,0,-15.3,-19.8,-21.4,-39.7c0,0,-3,-15.3,-4.6,-36.7c0,0,-3,-22.9,-3,-62.6l0,-91.7Z" 
	id="f1_1f"
	transform="scale(0.001,-0.001)" />

	<path d="M160,261l0,127l956,0l0,-127Zm0,307l0,125l956,0l0,-125Z" 
	id="f1_1v"
	transform="scale(0.001,-0.001)" />

	<path d="M149.7,0l0,1113.8l149.7,0l0,-472.1L799,1113.8l194.1,0L441.5,594.3L1032.8,0L834.2,0L299.4,536.3L299.4,0Z" 
	id="f1_1w"
	transform="scale(0.001,-0.001)" />

	<path d="M44.3,0L443.1,594.3L94.7,1113.8l162,0l278,-414.1l278.1,414.1l161.9,0L615.7,577.5L997.6,0L835.7,0L522.5,473.6L207.8,0Z" 
	id="f1_1x"
	transform="scale(0.001,-0.001)" />

	<path d="M436.9,0L10.7,1113.8l157.4,0L521,175.7l354.4,938.1l155.9,0L606.5,0Z" 
	id="f1_1y"
	transform="scale(0.001,-0.001)" />

	<path d="M352.9,-200c0,0,-111.5,174.1,-166.5,342.1c0,0,-56.5,169.6,-56.5,336.1c0,0,0,166.5,55,334.6c0,0,56.5,169.6,168,345.3l120.7,0c0,0,-100.8,-171.2,-148.2,-339.2c0,0,-48.9,-168.1,-48.9,-340.7c0,0,0,-171.1,48.9,-339.2c0,0,48.9,-169.5,148.2,-339Z" 
	id="f1_1i"
	transform="scale(0.001,-0.001)" />

	<path d="M412.5,-21.3c0,0,-68.7,0,-143.6,12.2c0,0,-74.9,13.7,-152.8,41.2l0,146.7c0,0,62.7,-36.7,136,-55c0,0,74.8,-19.9,157.3,-19.9c0,0,140.6,0,215.5,56.5c0,0,74.8,56.5,74.8,162c0,0,0,99.3,-68.7,154.3c0,0,-70.3,56.5,-192.5,56.5l-129.9,0l0,123.7l136,0c0,0,110,0,168,44.4c0,0,59.6,44.3,59.6,126.8c0,0,0,87,-59.6,132.9c0,0,-61.1,45.8,-174.1,45.8c0,0,-62.7,0,-132.9,-13.7c0,0,-71.8,-13.8,-155.9,-41.3l0,132.9c0,0,85.6,24.5,160.4,36.7c0,0,74.9,12.2,140.6,12.2c0,0,172.6,0,271.9,-77.9c0,0,100.9,-77.9,100.9,-210.8c0,0,0,-93.2,-53.5,-155.9c0,0,-53.5,-64.1,-151.2,-88.6c0,0,108.4,-24.4,169.5,-96.2c0,0,61.1,-73.4,61.1,-181.8c0,0,0,-163.5,-113,-253.6c0,0,-114.6,-90.1,-323.9,-90.1Z" 
	id="f1_y"
	transform="scale(0.001,-0.001)" />

	<path d="M484.3,96.3c0,0,117.6,0,175.7,114.5c0,0,59.6,114.6,59.6,343.8c0,0,0,230.7,-58.1,345.3c0,0,-59.6,114.5,-177.2,114.5c0,0,-116.1,0,-174.2,-114.5c0,0,-58,-114.6,-58,-345.3c0,0,0,-229.2,58,-343.8c0,0,58.1,-114.5,174.2,-114.5Zm0,-117.6c0,0,-186.4,0,-285.7,146.6c0,0,-99.3,148.2,-99.3,429.3c0,0,0,282.6,99.3,430.8c0,0,99.3,148.2,285.7,148.2c0,0,187.9,0,285.7,-148.2c0,0,99.3,-148.2,99.3,-430.8c0,0,0,-281.1,-97.8,-427.8c0,0,-99.3,-148.1,-287.2,-148.1Z" 
	id="f1_1j"
	transform="scale(0.001,-0.001)" />

	<path d="M576,386.5l0,595.9L195.6,386.5ZM576,0l0,261.3l-502.7,0l0,146.6l464.5,705.9l189.4,0l0,-727.3l158.9,0l0,-125.2l-158.9,0L727.2,0Z" 
	id="f1_10"
	transform="scale(0.001,-0.001)" />

	<path d="M122.2,-200c0,0,99.3,169.5,146.7,337.5c0,0,48.9,169.6,48.9,340.7c0,0,0,172.6,-47.4,340.7c0,0,-48.9,168,-148.2,339.2l119.2,0c0,0,111.5,-175.7,166.5,-343.8c0,0,56.5,-169.6,56.5,-336.1c0,0,0,-166.5,-55,-334.6c0,0,-56.5,-169.5,-168,-343.6Z" 
	id="f1_o"
	transform="scale(0.001,-0.001)" />

	<path d="M64.2,103.9l0,137.5L699.7,476.7L64.2,716.5l0,136L854,540.8l0,-125.2L64.2,103.9Z" 
	id="f3_2"
	transform="scale(0.001,-0.001)" />

	<path d="M131,0l0,105l273,0l0,623l-215,0l0,106l351,0l0,-729l274,0L814,0ZM404,985l0,174l136,0l0,-174Z" 
	id="f3_4"
	transform="scale(0.001,-0.001)" />

	<path d="M81,0l0,834.2l123.7,0l0,-71.8c0,0,24.5,45.8,61.1,68.7c0,0,38.2,24.5,84.1,24.5c0,0,58,0,94.7,-26c0,0,38.2,-27.5,59.6,-79.5c0,0,24.4,53.5,62.6,79.5c0,0,39.7,26,96.3,26c0,0,99.3,0,140.5,-78c0,0,42.8,-77.9,42.8,-294.8L846.4,0L721.1,0l0,476.7c0,0,0,177.2,-19.8,220c0,0,-19.9,42.7,-71.9,42.7c0,0,-59.5,0,-80.9,-45.8c0,0,-22.9,-45.8,-22.9,-216.9L525.6,0L400.3,0l0,476.7c0,0,0,180.2,-21.4,221.5c0,0,-21.4,41.2,-76.4,41.2c0,0,-55,0,-76.4,-45.8c0,0,-21.4,-45.8,-21.4,-216.9L204.7,0Z" 
	id="f3_5"
	transform="scale(0.001,-0.001)" />

	<path d="M481.3,94.7c0,0,99.3,0,149.7,81c0,0,50.4,81,50.4,239.9c0,0,0,160.4,-50.4,241.3c0,0,-50.4,81,-149.7,81c0,0,-99.4,0,-149.8,-81c0,0,-51.9,-82.5,-51.9,-241.3c0,0,0,-157.4,50.4,-238.4c0,0,51.9,-82.5,151.3,-82.5ZM140.6,-317.7l0,1151.9l139,0l0,-105.4c0,0,33.6,61.1,90.1,93.1c0,0,58.1,33.7,132.9,33.7c0,0,151.3,0,236.8,-117.7c0,0,87.1,-117.6,87.1,-325.4c0,0,0,-203.2,-87.1,-317.8c0,0,-87,-116,-236.8,-116c0,0,-76.3,0,-132.9,32c0,0,-58,32.1,-90.1,93.2l0,-421.6Z" 
	id="f3_6"
	transform="scale(0.001,-0.001)" />

	<path d="M458.3,94.7c0,0,105.5,0,158.9,81c0,0,53.5,81,53.5,239.9c0,0,0,160.4,-53.5,241.3c0,0,-53.4,81,-158.9,81c0,0,-103.9,0,-157.3,-81c0,0,-53.5,-80.9,-53.5,-241.3c0,0,0,-158.9,53.5,-239.9c0,0,53.4,-81,157.3,-81Zm0,-116c0,0,-172.6,0,-264.3,111.4c0,0,-93.2,111.6,-93.2,325.5c0,0,0,213.8,91.7,326.9c0,0,93.2,113.1,265.8,113.1c0,0,174.2,0,265.9,-113.1c0,0,93.2,-113.1,93.2,-326.9c0,0,0,-213.9,-91.7,-325.5c0,0,-91.7,-111.4,-267.4,-111.4Z" 
	id="f3_7"
	transform="scale(0.001,-0.001)" />

	<path d="M268.9,0l0,834.2l139,0l0,-163.5c0,0,33.6,90.1,103.9,137.5c0,0,71.8,47.4,169.6,47.4c0,0,50.4,0,94.7,-12.3c0,0,44.3,-13.7,84,-41.2l0,-139c0,0,-42.7,33.6,-88.6,48.8c0,0,-45.8,16.9,-100.8,16.9c0,0,-128.3,0,-195.6,-81c0,0,-67.2,-81,-67.2,-233.8l0,-414Z" 
	id="f3_8"
	transform="scale(0.001,-0.001)" />

	<path d="M601.9,0c0,0,-155.8,0,-218.4,61.1c0,0,-64.2,62.7,-64.2,213.9l0,453.8l-223,0l0,105.4l223,0l0,238.3l137.5,0l0,-238.3l311.7,0l0,-105.4l-311.7,0l0,-453.8c0,0,0,-93.2,35.1,-129.9c0,0,35.2,-36.6,122.3,-36.6l154.3,0L768.5,0Z" 
	id="f3_9"
	transform="scale(0.001,-0.001)" />

	<path d="M557.6,-21.3c0,0,-194,0,-302.5,116c0,0,-110,116.1,-110,320.9c0,0,0,206.2,108.5,322.3c0,0,110,117.7,304,117.7c0,0,59.6,0,116.2,-15.3c0,0,58,-16.8,117.6,-48.9l0,-145.1c0,0,-55,48.8,-110,70.2c0,0,-55,21.4,-123.8,21.4c0,0,-129.8,0,-198.6,-82.5c0,0,-70.2,-84,-70.2,-239.8c0,0,0,-154.3,70.2,-236.8c0,0,70.3,-84.1,198.6,-84.1c0,0,71.8,0,128.4,21.4c0,0,56.5,21.4,105.4,68.8l0,-143.6c0,0,-56.5,-32.1,-114.6,-47.3c0,0,-58,-15.3,-119.2,-15.3Z" 
	id="f3_a"
	transform="scale(0.001,-0.001)" />

	<path d="M56.5,0l327,435.4L85.6,834.2l151.2,0l221.5,-301l220,301l154.3,0L534.7,435.4L861.7,0L702.8,0L458.3,334.6L215.4,0Z" 
	id="f3_b"
	transform="scale(0.001,-0.001)" />

	<path d="M0,-359l0,60l919,0l0,-60Z" 
	id="f3_c"
	transform="scale(0.001,-0.001)" />

	<path d="M458.3,99.3c0,0,114.6,0,165,105.4c0,0,50.5,105.4,50.5,349.9c0,0,0,246,-50.5,351.4c0,0,-50.4,105.4,-165,105.4c0,0,-113,0,-163.4,-105.4c0,0,-50.5,-105.4,-50.5,-351.4c0,0,0,-244.5,50.5,-349.9c0,0,50.4,-105.4,163.4,-105.4Zm0,-120.6c0,0,-187.9,0,-279.5,142c0,0,-91.7,142.1,-91.7,433.9c0,0,0,291.8,91.7,435.4c0,0,91.6,143.6,279.5,143.6c0,0,189.5,0,281.1,-143.6c0,0,91.7,-143.6,91.7,-435.4c0,0,0,-290.3,-91.7,-432.4c0,0,-91.6,-143.5,-281.1,-143.5Z" 
	id="f3_d"
	transform="scale(0.001,-0.001)" />

	<path d="M407.9,93.2c0,0,113.1,0,177.2,77.9c0,0,65.7,79.5,65.7,217l0,30.5l-174.1,0c0,0,-119.2,0,-180.3,-41.2c0,0,-61.1,-42.8,-61.1,-125.3c0,0,0,-76.4,45.8,-117.7c0,0,45.8,-41.2,126.8,-41.2Zm-29,-114.5c0,0,-128.3,0,-204.7,71.7c0,0,-76.4,71.8,-76.4,192.5c0,0,0,139,93.2,210.9c0,0,94.7,73.3,276.5,73.3l183.3,0l0,21.4c0,0,0,99.3,-50.4,143.6c0,0,-50.4,45.8,-158.9,45.8c0,0,-70.2,0,-142.1,-19.8c0,0,-71.8,-19.9,-140.5,-58.1l0,136c0,0,76.4,30.5,146.7,44.3c0,0,70.2,15.3,135.9,15.3c0,0,102.4,0,175.7,-30.6c0,0,74.9,-30.6,119.2,-93.2c0,0,29,-36.7,41.2,-91.7c0,0,12.3,-55,12.3,-163.4L789.9,0L650.8,0l0,123.8c0,0,-44.3,-74.9,-110,-110c0,0,-67.2,-35.1,-161.9,-35.1Z" 
	id="f3_e"
	transform="scale(0.001,-0.001)" />

	<path d="M597.4,0c0,0,-123.8,0,-191,77.9c0,0,-67.2,79.5,-67.2,224.6l0,757.8l-220,0l0,108.5l357.5,0l0,-866.3c0,0,0,-93.2,33.6,-139c0,0,33.6,-47.4,99.3,-47.4l160.4,0L770,0Z" 
	id="f3_f"
	transform="scale(0.001,-0.001)" />

	<path d="M239.9,490.4l452.2,1.5c0,0,-3.1,120.7,-56.5,183.4c0,0,-55,62.6,-157.4,62.6c0,0,-97.8,0,-161.9,-65.7c0,0,-64.2,-65.7,-76.4,-181.8ZM505.7,-21.3c0,0,-195.6,0,-304,116c0,0,-110,116.1,-110,320.9c0,0,0,200.1,106.9,319.3c0,0,107,120.7,285.7,120.7c0,0,160.4,0,252.1,-108.5c0,0,91.7,-108.5,91.7,-296.4l0,-67.2l-594.3,0l0,-3.1c0,0,0,-137.5,71.8,-210.8c0,0,71.8,-74.9,201.6,-74.9c0,0,64.2,0,136,19.9c0,0,71.8,21.4,152.8,64.2L796,41.3C796,41.3,718.1,9.2,646.3,-6c0,0,-73.4,-15.3,-140.6,-15.3Z" 
	id="f3_g"
	transform="scale(0.001,-0.001)" />


</defs>
</svg>