<?xml version="1.0" encoding="UTF-8" standalone="no"?>
<!DOCTYPE svg PUBLIC "-//W3C//DTD SVG 1.1//EN"
"http://www.w3.org/Graphics/SVG/1.1/DTD/svg11.dtd">
<svg viewBox="0 0 1210 1045" version="1.1" xmlns="http://www.w3.org/2000/svg" xmlns:xlink="http://www.w3.org/1999/xlink">
<defs>
<style type="text/css"><![CDATA[
.g5_45{
fill: none;
stroke: #418AB3;
stroke-width: 1;
stroke-linecap: butt;
stroke-linejoin: miter;
stroke-miterlimit: 7;
}
.g2_45{
fill: none;
stroke: #418AB3;
stroke-width: 2;
stroke-linecap: butt;
stroke-linejoin: miter;
stroke-miterlimit: 7;
}
.g3_45{
fill: #418AB3;
}
.g4_45{
fill: none;
stroke: #FFFFFF;
stroke-width: 2;
stroke-linecap: butt;
stroke-linejoin: miter;
}
.g1_45{
fill: #FFFFFF;
}
]]></style>
</defs>
<path fill-rule="evenodd" d="M0,0L1210,0l0,1045L0,1045L0,0Z" class="g1_45" />
<path fill-rule="evenodd" d="M0,0L1210,0l0,1045L0,1045L0,0Z" class="g1_45" />
<image x="828" y="984" width="334" height="49" xlink:href="img/1.png" />
<path fill-rule="evenodd" d="M435,431l18.9,14.5L472.8,431L435,431Z" class="g1_45" />
<path d="M435,431l18.9,14.5L472.8,431L435,431Z" class="g2_45" />
<path fill-rule="evenodd" d="M440.6,591.7l14.1,-20l14.2,20l-28.3,0Z" class="g1_45" />
<path d="M440.6,591.7l14.1,-20l14.2,20l-28.3,0Z" class="g2_45" />
<path fill-rule="evenodd" d="M810.2,410.2L787,396.2l23.2,-13.9l0,27.9Z" class="g1_45" />
<path d="M810.2,410.2L787,396.2l23.2,-13.9l0,27.9Z" class="g2_45" />
<path fill-rule="evenodd" d="M354,358l198,0l0,73l-198,0l0,-73Z" class="g1_45" />
<path d="M354,358l198,0l0,73l-198,0l0,-73Z" class="g2_45" />
<path fill-rule="evenodd" d="M353,593l198,0l0,72l-198,0l0,-72Z" class="g1_45" />
<path d="M353,593l198,0l0,72l-198,0l0,-72Z" class="g2_45" />
<path fill-rule="evenodd" d="M810,358l198,0l0,73l-198,0l0,-73Z" class="g1_45" />
<path d="M810,358l198,0l0,73l-198,0l0,-73Z" class="g2_45" />
<path fill-rule="evenodd" d="M387.9,513.9l66,-46.2l66.2,46.2l-66.2,46.3l-66,-46.3Z" class="g3_45" />
<path fill-rule="evenodd" d="M622.6,396.3L698,350l75.5,46.3L698,442.6L622.6,396.3Z" class="g3_45" />
<path fill-rule="evenodd" d="M947.1,478.2l0.1,-1.5l0.5,-1.4l0.7,-1.5l1,-1.4l1.2,-1.5l1.5,-1.4l1.8,-1.4l2.2,-1.4l2.3,-1.3l2.6,-1.3l2.9,-1.2l3,-1.2l3.4,-1.2l3.5,-1.1l3.7,-1.1l3.9,-1l4.2,-1l4.2,-0.9l4.6,-0.7l4.6,-0.9l4.8,-0.7l5,-0.6l5,-0.6l5.1,-0.4l5.2,-0.5l5.3,-0.3l5.4,-0.3l5.3,-0.2l5.5,-0.1l5.4,0l5.5,0l5.5,0.1l5.3,0.2l5.4,0.3l5.1,0.3l5.4,0.5l5,0.4l5.1,0.6l4.9,0.6l4.9,0.7l4.5,0.9l4.5,0.7l4.2,0.9l4.3,1l3.8,1l3.9,1.1l3.5,1.1l3.3,1.2l3.1,1.2l2.7,1.2l2.6,1.3l2.5,1.3l2.1,1.4l1.9,1.4l1.3,1.4l1.4,1.5l0.9,1.4l0.8,1.5l0.4,1.4l0.2,1.5l-0.2,1.5l-0.4,1.4l-0.8,1.5l-0.9,1.4l-1.4,1.5l-1.3,1.4l-1.9,1.4l-2.1,1.4l-2.5,1.3l-2.6,1.3l-2.7,1.2l-3.1,1.2l-3.3,1.2l-3.5,1.1l-3.9,1.1l-3.8,1l-4.3,0.9l-4.2,1l-4.5,0.9l-4.5,0.7l-4.9,0.6l-4.9,0.7l-5.1,0.6l-5,0.4l-5.4,0.5l-5.1,0.3l-5.4,0.3l-5.3,0.2l-5.5,0.1l-5.5,0l-5.4,0l-5.5,-0.1l-5.3,-0.2l-5.4,-0.3l-5.3,-0.3l-5.2,-0.5l-5.1,-0.4l-5,-0.6l-5,-0.7L999,502.5l-4.6,-0.8L989.8,501l-4.2,-1l-4.2,-0.9l-3.9,-1L973.8,497l-3.5,-1.1l-3.4,-1.2l-3,-1.2L961,492.3l-2.6,-1.4l-2.3,-1.2l-2.2,-1.4l-1.8,-1.4l-1.5,-1.5L949.4,484l-1,-1.4l-0.7,-1.5l-0.5,-1.5l-0.1,-1.4Z" class="g3_45" />
<path fill-rule="evenodd" d="M502,236.8l0.2,-1.4l0.3,-1.5l0.6,-1.5l0.8,-1.4l1,-1.4l1.3,-1.5l1.5,-1.4l1.7,-1.4l1.9,-1.2l2.2,-1.4l2.3,-1.2l2.6,-1.2l2.7,-1.2L524,218l3.1,-1.1l3.3,-1l3.4,-0.9l3.5,-1l3.7,-0.7l3.8,-0.8l4,-0.8l4.1,-0.6l4.1,-0.6l4.2,-0.4l4.4,-0.5l4.3,-0.3l4.4,-0.3l4.4,-0.2l4.5,-0.1l4.5,0l4.5,0l4.6,0.1l4.4,0.2l4.3,0.3l4.4,0.3l4.3,0.5l4.2,0.4l4.2,0.6l3.9,0.6l4.2,0.8l3.6,0.8l3.9,0.7l3.5,1l3.3,0.9l3.2,1l3.2,1.1l2.9,1.1l2.8,1.2l2.4,1.2l2.5,1.2l2.1,1.4l1.9,1.2l1.8,1.4l1.4,1.4l1.3,1.5l1.1,1.4l0.8,1.4l0.6,1.5l0.3,1.5l0.1,1.4l-0.1,1.5l-0.3,1.6l-0.6,1.3l-0.8,1.6l-1.1,1.3l-1.3,1.4l-1.6,1.4l-1.6,1.4l-1.9,1.3l-2.1,1.3l-2.5,1.3l-2.4,1.3l-2.8,1l-2.9,1.3l-3.2,1l-3.2,0.9l-3.3,1l-3.5,0.9l-3.9,0.9l-3.8,0.8l-4,0.6l-3.9,0.7l-4.2,0.5l-4.2,0.4l-4.3,0.5l-4.4,0.5l-4.5,0.1l-4.4,0.2l-4.4,0.1l-4.5,0.2l0,-0.2l-4.5,0l-4.5,-0.1l-4.4,-0.2l-4.4,-0.3L565.4,264l-4.2,-0.5l-4.3,-0.4l-4.2,-0.6l-3.9,-0.6l-4,-0.6l-3.8,-1l-3.7,-0.7l-3.6,-0.9l-3.4,-1l-3.2,-1L524,255.6l-3,-1.1l-2.6,-1.2l-2.6,-1.2l-2.5,-1.2l-2,-1.3l-1.9,-1.3l-1.7,-1.4l-1.5,-1.4l-1.4,-1.4l-0.9,-1.5l-1,-1.4l-0.6,-1.5L502,238.3l-0.1,-1.5l0.1,0Z" class="g3_45" />
<path fill-rule="evenodd" d="M502.3,312.6l0.2,-1.5l0.4,-1.4l0.7,-1.5l0.9,-1.4l1.2,-1.6l1.5,-1.3l1.7,-1.4l1.8,-1.4l2.3,-1.3l2.5,-1.3l2.6,-1.2l2.9,-1.2l3,-1.2l3.4,-1.1l3.5,-1.1l3.7,-1l3.8,-1l4.1,-0.9l4.1,-0.7l4.3,-1l4.6,-0.6l4.6,-0.6l4.6,-0.6l4.9,-0.5l4.8,-0.4l4.9,-0.3l5.1,-0.3l5,-0.2l5.1,-0.1l5,0l5,0l5.2,0.1l5.1,0.2l4.9,0.3l5,0.3l4.9,0.4l4.7,0.5l4.8,0.6l4.6,0.6l4.4,0.6l4.4,1l4.1,0.7l4.2,0.9l3.8,1l3.6,1l3.6,1.1l3.2,1.1l3.2,1.2l2.7,1.2l2.8,1.2l2.4,1.3l2.2,1.3l1.9,1.4l1.7,1.4l1.6,1.3l1,1.6l0.9,1.4l0.8,1.5l0.3,1.4l0.2,1.5l-0.2,1.5l-0.3,1.4l-0.8,1.5l-0.9,1.4l-1,1.5l-1.6,1.4l-1.7,1.4l-1.9,1.3l-2.2,1.4l-2.4,1.2l-2.8,1.3l-2.9,1.2l-3,1.2l-3.2,1.1l-3.6,1l-3.6,1.1l-4,0.9l-4,0.9l-4.2,1l-4.3,0.7l-4.4,0.6l-4.6,0.6l-4.8,0.7l-4.9,0.4l-4.7,0.5l-5,0.3l-5.1,0.3l-4.9,0.1l-5.2,0.2l-5,0l-5,0l-5.2,-0.2l-4.9,-0.1l-5.1,-0.3l-5,-0.3l-4.7,-0.5l-4.9,-0.4l-4.8,-0.7l-4.6,-0.6l-4.4,-0.7l-4.3,-0.8l-4.2,-0.8l-4,-0.9l-4,-0.9l-3.7,-1.1l-3.5,-1L524,330.3l-3,-1.2l-2.9,-1.2l-2.8,-1.3l-2.4,-1.3L510.7,324l-1.9,-1.3l-1.7,-1.4l-1.6,-1.5l-1,-1.4L503.6,317l-0.8,-1.5L502.5,314l-0.2,-1.4Z" class="g3_45" />
<path fill-rule="evenodd" d="M326.5,266.3l0.1,-1.5l0.5,-1.4l0.6,-1.5l0.9,-1.4l1.2,-1.5l1.4,-1.4l1.7,-1.4l1.8,-1.4l2.3,-1.3l2.3,-1.3l2.8,-1.2l2.7,-1.2l3.1,-1.2l3.2,-1.1l3.5,-1.1l3.7,-1l3.6,-1l4.2,-0.9l3.9,-0.7l4.5,-1l4.2,-0.6l4.6,-0.6l4.6,-0.6l4.7,-0.4l4.9,-0.5l4.9,-0.3l4.9,-0.3l4.9,-0.2l5,-0.1l5.1,0l5,0l4.9,0.1l5.1,0.2l4.8,0.3l4.9,0.3l4.8,0.5l4.7,0.4l4.7,0.6l4.5,0.6l4.4,0.6l4.3,1l4.1,0.7l4,0.9l3.8,1l3.7,1l3.3,1.1l3.2,1.1l3.2,1.2l2.8,1.2l2.6,1.2l2.4,1.3l2.2,1.3l2,1.4l1.6,1.4l1.4,1.4l1.2,1.5l0.9,1.4l0.7,1.5l0.3,1.4l0.1,1.5l-0.1,1.5l-0.3,1.4l-0.8,1.5l-0.9,1.4l-1.1,1.5l-1.5,1.4l-1.7,1.4l-1.8,1.3l-2.2,1.4l-2.4,1.2l-2.6,1.3l-2.9,1.2l-3.1,1.2l-3.2,1.1l-3.3,1.1l-3.7,1l-3.8,0.9l-4,1l-4.1,0.9l-4.3,0.7l-4.4,0.6l-4.6,0.7l-4.6,0.6l-4.7,0.4l-4.8,0.5l-4.9,0.3l-4.8,0.3l-5.1,0.2l-5,0.1l-5.1,0l-4.9,0l-5,-0.1l-5,-0.2l-4.9,-0.3l-4.9,-0.3L392.6,293l-4.7,-0.4L383.3,292l-4.6,-0.7l-4.4,-0.7L370,289.8l-4.1,-0.7l-4,-1l-3.8,-0.9l-3.7,-1l-3.3,-1.1L347.9,284l-3.1,-1.2l-2.9,-1.2l-2.6,-1.3L336.9,279l-2.2,-1.3l-1.8,-1.3L331.2,275l-1.5,-1.5l-1.1,-1.4l-0.9,-1.4l-0.8,-1.5l-0.3,-1.5l-0.1,-1.4Z" class="g3_45" />
<path fill-rule="evenodd" d="M733.8,478.2l0.1,-1.5l0.5,-1.4l0.6,-1.5l0.9,-1.4l1.4,-1.5l1.5,-1.4l1.7,-1.4l2.2,-1.4l2.1,-1.3l2.6,-1.3l2.7,-1.2l3.1,-1.2l3.2,-1.2l3.5,-1.1l3.5,-1.1l4,-1l4,-1l4.3,-0.9l4.2,-0.7l4.6,-0.9l4.7,-0.7l4.8,-0.6l4.9,-0.6l5,-0.4L809,451l5.2,-0.3l5.1,-0.3l5.4,-0.2l5.2,-0.1l5.3,0l5.4,0l5.3,0.1l5.2,0.2l5.2,0.3l5.2,0.3l5.1,0.5l5,0.4l4.9,0.6l4.9,0.6l4.6,0.7l4.5,0.9l4.5,0.7l4.1,0.9l4.1,1l3.8,1l3.7,1.1l3.4,1.1l3.3,1.2l2.9,1.2l2.8,1.2l2.6,1.3l2.3,1.3l2,1.4l1.8,1.4l1.5,1.4l1.2,1.5l1,1.4l0.7,1.5l0.3,1.4l0.2,1.5l-0.2,1.5l-0.3,1.4l-0.7,1.5l-1,1.4l-1.2,1.5l-1.5,1.4l-1.8,1.4l-2,1.4l-2.3,1.3l-2.6,1.3l-2.8,1.2l-3,1.2l-3.2,1.2l-3.4,1.1l-3.7,1.1l-3.9,1l-4,0.9l-4.1,1l-4.5,0.9l-4.5,0.7l-4.6,0.6l-4.9,0.7l-4.9,0.6l-5,0.4l-5.1,0.5l-5.2,0.3l-5.2,0.3l-5.3,0.2l-5.2,0.1l-5.4,0l-5.3,0l-5.4,-0.1L819.3,506l-5.1,-0.3L809,505.4l-5.1,-0.5l-5,-0.4L794,503.9l-4.9,-0.7l-4.6,-0.7l-4.6,-0.8L775.5,501l-4.1,-1l-4.1,-0.9l-3.9,-1L759.8,497l-3.5,-1.1L753,494.7l-2.9,-1.2l-2.9,-1.2l-2.4,-1.4l-2.3,-1.2l-2,-1.4l-1.8,-1.4l-1.5,-1.5L735.9,484L735,482.6l-0.7,-1.5l-0.5,-1.5l-0.2,-1.4l0.2,0Z" class="g3_45" />
<path fill-rule="evenodd" d="M936.8,317l0.2,-1.5l0.4,-1.4l0.7,-1.5l1,-1.4l1.2,-1.5l1.6,-1.4l1.8,-1.4l2,-1.3l2.4,-1.4l2.5,-1.2l2.9,-1.3l3,-1.2l3.3,-1.2l3.5,-1.1l3.8,-1l3.8,-1.1l4.1,-0.9l4.3,-0.9l4.4,-1l4.8,-0.7l4.7,-0.6l4.9,-0.7l4.9,-0.6l5.2,-0.4l5.2,-0.5l5.2,-0.3l5.3,-0.3l5.4,-0.1l5.3,-0.2l5.4,0l5.5,0l5.3,0.2l5.4,0.1l5.3,0.3l5.2,0.3l5.2,0.5l5,0.4l5.1,0.6l4.9,0.7l4.7,0.6l4.6,0.7l4.6,1l4.2,0.9l4.2,0.9l3.8,1.1l3.7,1l3.5,1.1l3.3,1.2l3.1,1.2l2.7,1.3l2.6,1.2l2.5,1.4l2,1.3l1.8,1.4l1.5,1.4l1.2,1.5l1.1,1.4l0.6,1.5l0.5,1.4l0.1,1.5l-0.1,1.5l-0.5,1.4l-0.6,1.5l-1.1,1.4l-1.2,1.5l-1.5,1.4l-1.8,1.4l-2,1.4l-2.5,1.3l-2.6,1.3l-2.7,1.2l-3.1,1.2l-3.3,1.2l-3.5,1.1l-3.7,1.1l-4,1l-4.1,1l-4.3,0.9l-4.4,0.7l-4.6,1l-4.7,0.6l-4.9,0.6l-5.1,0.6l-5,0.5l-5.2,0.4l-5.2,0.3l-5.3,0.3l-5.4,0.2l-5.3,0.1l-5.5,0l-5.4,0l-5.3,-0.1l-5.5,-0.2l-5.2,-0.3l-5.4,-0.3l-5.2,-0.4l-5,-0.5l-5.1,-0.6l-4.8,-0.6l-4.8,-0.8l-4.6,-0.8l-4.4,-0.7L975,338.9l-4.1,-1l-4,-1l-3.6,-1.1l-3.5,-1.1l-3.4,-1.2l-3.1,-1.2l-2.7,-1.2L948,329.7l-2.3,-1.2l-2.1,-1.4l-1.7,-1.4l-1.7,-1.5L939,322.8l-0.9,-1.4l-0.8,-1.5l-0.5,-1.5L936.7,317l0.1,0Z" class="g3_45" />
<path fill-rule="evenodd" d="M924.2,243.1l0.1,-1.6l0.5,-1.3l0.7,-1.6l1.1,-1.3l1.5,-1.6l1.7,-1.3l2,-1.4l2.3,-1.4l2.6,-1.4l2.9,-1.2l3.2,-1.2l3.4,-1.2l3.6,-1.3l4,-1l4.1,-1.1l4.4,-1.1l4.6,-0.9l4.8,-0.9l5,-0.8l5.2,-0.9l5.2,-0.6l5.5,-0.6l5.7,-0.6l5.6,-0.5l5.8,-0.4l5.8,-0.3l6,-0.3l5.9,-0.2l6.1,-0.1l6,0l6.1,0l6,0.1l5.9,0.2l6,0.3l5.9,0.3l5.8,0.4l5.7,0.5l5.7,0.6l5.3,0.6l5.4,0.6l5.1,0.9l4.9,0.8l4.9,0.9l4.6,0.9l4.3,1.1l4.3,1.1l3.8,1l3.6,1.3l3.6,1.2l3.2,1.2l2.9,1.2l2.6,1.4l2.3,1.4l1.9,1.4l1.7,1.3l1.4,1.6l1.1,1.3l0.7,1.6l0.6,1.3l0.2,1.6l-0.2,0l-0.1,1.5l-0.5,1.4l-0.7,1.5l-1.1,1.4l-1.4,1.5l-1.7,1.4l-2.1,1.4l-2.3,1.3l-2.6,1.4l-2.9,1.2l-3,1.2l-3.6,1.3l-3.6,1.2l-4,1.1l-4.1,1l-4.4,1.1l-4.6,0.9l-4.8,0.9l-5,1l-5,0.7l-5.4,0.6l-5.5,0.6l-5.5,0.6l-5.7,0.5l-5.8,0.5l-5.9,0.3l-6,0.3l-5.9,0.1l-6.1,0.2l-6,0l-6,0l-6.1,-0.2l-5.9,-0.1l-6,-0.3l-5.9,-0.3l-5.8,-0.5l-5.7,-0.5l-5.5,-0.6l-5.5,-0.6l-5.4,-0.7l-5,-0.8l-5,-0.8l-4.8,-0.9L962.3,264l-4.4,-1.1l-4.1,-1l-4,-1.1l-3.6,-1.2l-3.6,-1.3l-3,-1.2l-2.9,-1.3l-2.6,-1.3l-2.3,-1.3l-2.1,-1.4L928,250.2l-1.4,-1.3l-1.1,-1.4L924.8,246l-0.5,-1.6l-0.1,-1.3Z" class="g3_45" />
<path fill-rule="evenodd" d="M745.4,284.5l0.2,-1.6l0.3,-1.3l0.6,-1.6l0.7,-1.3l1.3,-1.6l1.3,-1.3l1.6,-1.4L753,273l2.2,-1.4l2.3,-1.2l2.4,-1.4l2.6,-1l2.9,-1.2l3.1,-1.3l3.2,-1l3.3,-1l3.7,-0.9l3.7,-0.9l3.9,-0.9l4,-0.8l4.1,-0.6l4.3,-0.7l4.3,-0.5l4.4,-0.5l4.6,-0.4l4.6,-0.3l4.6,-0.3l4.6,-0.2l4.7,-0.1l4.7,0l4.8,0l4.6,0.1l4.7,0.2l4.6,0.3l4.6,0.3l4.5,0.4l4.5,0.5l4.2,0.5l4.3,0.7l4.2,0.6l3.9,0.8l4,0.9l3.7,0.9l3.5,0.9l3.5,1l3.2,1l3.1,1.3L908,268l2.6,1l2.4,1.4l2.3,1.2l2,1.4l1.8,1.4l1.5,1.4l1.4,1.3l1.1,1.6L924,280l0.6,1.6l0.3,1.3l0.2,1.6l-0.2,1.3l-0.3,1.6l-0.8,1.5l-0.7,1.4l-1.1,1.4l-1.4,1.5l-1.5,1.4l-1.8,1.3l-2,1.3l-2.3,1.3l-2.4,1.3L908,301l-2.9,1.2l-3.1,1.1l-3.4,1l-3.3,1.1l-3.5,0.9l-3.9,0.9l-3.8,0.8l-3.9,0.8l-4.2,0.7l-4.3,0.6l-4.2,0.6l-4.6,0.5l-4.4,0.5l-4.6,0.3l-4.6,0.3l-4.7,0.1l-4.6,0.2l-4.8,0l-4.7,-0.2l-4.7,0L821,312.1L816.4,312l-4.5,-0.3l-4.5,-0.5L803,310.7l-4.4,-0.6l-4.2,-0.6l-4.1,-0.7L786.2,308l-3.8,-0.8l-3.8,-0.9L775,305.2l-3.3,-0.9l-3.2,-1L765.3,302l-2.8,-1l-2.7,-1.2l-2.5,-1.3L755,297.2l-2,-1.4l-1.6,-1.2L749.7,293l-1.2,-1.3l-1.3,-1.4l-0.7,-1.5l-0.6,-1.4l-0.5,-1.6l-0.2,-1.3l0.2,0Z" class="g3_45" />
<path d="M791,293l88,0" class="g4_45" />
<path fill-rule="evenodd" d="M545.9,509.7l0,-1.6l0.3,-1.3l0.4,-1.6l0.8,-1.3l0.9,-1.6l1.2,-1.3l1.3,-1.4l1.5,-1.4l1.7,-1.4l2,-1.2l1.9,-1.4l2.3,-1l2.3,-1.3l2.6,-1l2.8,-1.1l2.9,-1.1l3,-0.9l3.1,-0.9l3.2,-0.9l3.4,-0.8l3.5,-0.6l3.5,-0.8l3.7,-0.4l3.8,-0.5l3.6,-0.4l4,-0.3l3.8,-0.3l4,-0.2l4,-0.1l3.8,0l4,0l3.9,0.1l4,0.2l3.8,0.3l3.8,0.3l3.9,0.4l3.6,0.5l3.7,0.4l3.7,0.8l3.3,0.6l3.4,0.8l3.4,0.9l3,0.9l3.1,0.9l2.9,1l2.6,1.2l2.6,1l2.4,1.3l2.1,1l2.2,1.4l1.8,1.2l1.7,1.4l1.5,1.4L693,501l1.1,1.3l0.9,1.6l0.7,1.3l0.5,1.6l0.5,1.3l0,1.6l0,1.3l-0.5,1.6l-0.5,1.5l-0.7,1.4l-0.9,1.3l-1.1,1.6l-1.4,1.4l-1.5,1.3l-1.7,1.2l-1.8,1.4l-2.2,1.2l-2.1,1.3l-2.4,1.2l-2.6,1.1l-2.8,1l-2.7,1.1l-3.1,0.9l-3,0.9l-3.4,0.8l-3.4,0.8l-3.5,0.7l-3.5,0.6l-3.7,0.6l-3.6,0.5l-3.9,0.5l-3.8,0.3l-3.9,0.3l-3.9,0.1l-3.9,0.2l-4,0l-4,-0.2l-4,0l-3.8,-0.1l-3.9,-0.3l-3.9,-0.3l-3.8,-0.5l-3.6,-0.5l-3.7,-0.6L587,534.7L583.5,534l-3.4,-0.8l-3.4,-0.8l-3,-0.9l-3.1,-1.1l-2.7,-0.9l-2.8,-1l-2.6,-1.3l-2.4,-1l-2.2,-1.3l-2.1,-1.2L554,522.3L552.3,521l-1.5,-1.2l-1.4,-1.4l-1.1,-1.6l-0.9,-1.3l-0.8,-1.6l-0.4,-1.3L545.9,511l-0.2,-1.3l0.2,0Z" class="g3_45" />
<path fill-rule="evenodd" d="M582.8,595.5l0,-1.5l0.4,-1.4l0.6,-1.5l0.6,-1.4l0.9,-1.5l1.2,-1.4l1.2,-1.4l1.6,-1.3l1.6,-1.4l2,-1.2l2,-1.3l2.3,-1.2l2.5,-1.2l2.4,-1.1l2.7,-1l2.9,-1.1l3.1,-0.9l3.1,-0.9l3.2,-1l3.3,-0.7l3.5,-0.6l3.6,-0.6l3.6,-0.6l3.8,-0.5l3.9,-0.5l3.8,-0.3l3.8,-0.3l4,-0.1l3.9,-0.2l3.9,0l3.9,0l4,0.2l4,0.1l3.8,0.3l3.8,0.3l3.8,0.5l3.7,0.5l3.7,0.6l3.6,0.6l3.4,0.6l3.4,0.7l3.3,1l3.1,0.9l3,0.9l2.9,1.1l2.6,1l2.6,1.1l2.5,1.2l2.3,1.2l2,1.3l1.8,1.2l1.7,1.4l1.5,1.3l1.4,1.4l1,1.4l1,1.5l0.7,1.4l0.5,1.5l0.4,1.4l0,1.5l0,1.6l-0.4,1.3l-0.5,1.6l-0.7,1.3l-1,1.6l-1,1.3l-1.4,1.4l-1.5,1.4l-1.7,1.4l-1.8,1.2l-2,1.2l-2.3,1.2l-2.5,1.2l-2.6,1.1l-2.7,1.1l-2.8,1.1l-3,0.9l-3.1,0.9l-3.3,0.8l-3.4,0.9l-3.5,0.6l-3.5,0.6l-3.7,0.6l-3.7,0.5l-3.8,0.4l-3.8,0.3l-4,0.3l-3.8,0.2l-4,0.1l-3.9,0l-4,0l-3.8,-0.1l-4,-0.2l-4,-0.3l-3.8,-0.3l-3.8,-0.4l-3.7,-0.5l-3.6,-0.6l-3.6,-0.6l-3.5,-0.8l-3.3,-0.7l-3.2,-0.8l-3.2,-0.9l-3,-0.9l-2.9,-1.1l-2.7,-1.1l-2.6,-1.1L597.1,612l-2.2,-1.2l-2.1,-1.2l-1.9,-1.4l-1.6,-1.4l-1.6,-1.2l-1.3,-1.4l-1.1,-1.5l-0.9,-1.4L583.6,600l-0.4,-1.6l-0.4,-1.5l-0.1,-1.4l0.1,0Z" class="g3_45" />
<path fill-rule="evenodd" d="M588.5,661.2l0.2,-1.5l0.6,-1.4l0.7,-1.5l1.3,-1.4l1.5,-1.5l1.8,-1.4l2.2,-1.4l2.4,-1.3l2.7,-1.4l3.3,-1.2l3.2,-1.3l3.6,-1.2l4,-1.2l4.3,-1.1l4.4,-1l4.6,-1.1l5,-0.9l5.1,-0.9l5.3,-1l5.5,-0.7l5.7,-0.6l5.8,-0.6l5.9,-0.7l6.2,-0.4L680,634l6.3,-0.3l6.2,-0.3l6.5,-0.1l6.4,-0.2l6.5,0l6.5,0l6.4,0.2l6.4,0.1l6.3,0.3l6.4,0.3l6.1,0.5l6.1,0.4l6,0.7l5.8,0.6l5.6,0.6l5.5,0.7l5.4,1l5.2,0.9l4.8,0.9l4.6,1.1l4.5,1l4.2,1.1l4,1.2l3.7,1.2l3.3,1.3l3.1,1.2l2.7,1.4l2.5,1.3l2.1,1.4l1.9,1.4l1.5,1.5l1.2,1.4l0.8,1.5l0.6,1.4l0.1,1.5l-0.3,1.6l-0.4,1.3l-0.8,1.6l-1.2,1.3l-1.5,1.6l-1.9,1.3l-2.1,1.4l-2.5,1.4l-2.7,1.4l-3.2,1.2l-3.2,1.2l-3.8,1.2l-3.9,1.2l-4.2,1.1l-4.5,1.1l-4.6,1.1l-5,0.9l-5,0.9l-5.4,0.8l-5.5,0.9l-5.6,0.6l-5.8,0.6l-6,0.6L750,688l-6.3,0.4l-6.2,0.3l-6.3,0.3l-6.4,0.2l-6.4,0.1l-6.6,0l-6.4,0L699,689.2L692.5,689l-6.4,-0.3l-6.2,-0.3L673.8,688l-6.2,-0.5l-5.9,-0.6l-5.8,-0.6l-5.7,-0.8l-5.5,-0.7L639.4,684l-5.2,-0.9l-4.9,-0.9l-4.7,-1.1L620.1,680L616,678.9l-4,-1.2l-3.6,-1.2L605,675.3l-3.1,-1.4l-2.7,-1.4l-2.4,-1.2l-2.3,-1.4l-1.9,-1.5L591.3,667L590,665.7l-0.7,-1.6l-0.6,-1.5l-0.2,-1.4Z" class="g3_45" />
<path d="M651,670l121,0" class="g4_45" />
<path fill-rule="evenodd" d="M174.2,621.3l0,-1.5l0.4,-1.4l0.5,-1.5l0.7,-1.4l1,-1.5l1,-1.4l1.4,-1.3l1.5,-1.4l1.7,-1.4l1.8,-1.2l2,-1.2l2.3,-1.3l2.5,-1.2l2.6,-1l2.6,-1.1l2.9,-1.1l3,-0.9l3.1,-0.9l3.3,-0.9l3.4,-0.8l3.4,-0.6l3.6,-0.8l3.7,-0.4l3.7,-0.5l3.8,-0.4l3.8,-0.4l3.8,-0.3l4,-0.1l4,-0.2l3.9,0l3.9,0l3.9,0.2l4,0.1l3.8,0.3l3.8,0.4l3.9,0.4l3.6,0.5l3.8,0.4l3.6,0.8l3.5,0.6l3.3,0.8l3.2,0.9l3.1,0.9l3.1,0.9l2.9,0.9l2.7,1.3l2.5,1l2.4,1.2l2.3,1.3l2,1.2l2,1.2l1.6,1.4l1.6,1.4l1.2,1.3l1.2,1.4l0.9,1.5l0.6,1.4l0.7,1.5l0.3,1.4l0,1.5l0,1.6l-0.3,1.4l-0.7,1.5l-0.6,1.4l-0.9,1.3l-1.2,1.6l-1.2,1.3l-1.6,1.4l-1.6,1.2l-2,1.4l-2,1.2l-2.3,1.2l-2.4,1.3l-2.6,1l-2.6,1.1l-2.9,1.1l-3.1,0.9l-3.1,0.9l-3.3,0.8l-3.2,0.7l-3.5,0.8l-3.7,0.6l-3.7,0.6l-3.6,0.5l-3.9,0.4l-3.8,0.3l-3.8,0.4l-4,0.1l-3.9,0.2l-4,0l-3.8,0l-4,-0.2l-4,-0.1l-3.8,-0.4l-4,-0.3l-3.6,-0.4l-3.9,-0.5L218.8,647l-3.5,-0.6l-3.5,-0.8l-3.4,-0.7l-3.2,-0.8L202,643.2l-2.9,-1.1l-2.9,-0.9l-2.8,-1.1l-2.6,-1l-2.3,-1.3l-2.3,-1.2l-2,-1.2L182.3,634l-1.7,-1.3l-1.5,-1.3l-1.4,-1.3l-1.1,-1.6l-0.9,-1.3l-0.8,-1.6l-0.4,-1.3l-0.3,-1.6L174,621.3l0.2,0Z" class="g3_45" />
<path d="M422.1,294.6l-18.9,64.3" class="g5_45" />
<path d="M527.1,256.8L453.9,358.9" class="g5_45" />
<path d="M530.9,332.4l-26.6,26.5" class="g5_45" />
<path d="M622.6,396.3l-69.5,-1.2" class="g5_45" />
<path d="M812.5,393.7l-54.6,2.5" class="g5_45" />
<path d="M835.2,312.6l41.7,46.3" class="g5_45" />
<path d="M957.9,263.1l-48,95.8" class="g5_45" />
<path d="M967.1,336.9l-20,22" class="g5_45" />
<path d="M835.2,449.9l41.7,-18.6" class="g5_45" />
<path d="M977.6,458.3l-40.8,-27" class="g5_45" />
<path d="M582.8,595.5l-31.4,11" class="g5_45" />
<path d="M588.5,661.2l-37.1,-5.9" class="g5_45" />
<path d="M353.2,629.4l-28.1,-8.1" class="g5_45" />
<path d="M517.5,511.5l26,0" class="g5_45" />
<path d="M453.5,431.5l0,36" class="g5_45" />
<path d="M453.9,560.1l-1.5,33.1" class="g5_45" />
<path d="M574.5,383.5l0,20" class="g5_45" />
<path d="M581.5,383.5l0,20" class="g5_45" />
<path d="M780.5,385.5l0,20" class="g5_45" />
<path d="M438.5,567.5l30,0" class="g5_45" />
<path fill-rule="evenodd" d="M445.3,449.9l0,-0.3l0,-0.1l0,-0.3l0.2,-0.2l0.2,-0.3l0.1,-0.3l0.2,-0.2l0.1,-0.3l0.2,-0.1l0.3,-0.3l0.3,-0.2L447,447l0.3,-0.1l0.3,-0.2l0.3,-0.1l0.5,-0.2l0.3,-0.1l0.5,-0.2l0.4,-0.1l0.3,-0.2l0.5,-0.1l0.4,-0.2l0.5,0l0.5,-0.2l0.4,0l0.5,-0.1l0.4,0l0.7,0l0.4,-0.2l0.5,0l0.4,0l0.6,0.2l0.5,0l0.5,0l0.4,0.1l0.5,0l0.4,0l0.5,0.2l0.4,0.2l0.5,0.1l0.5,0.2l0.3,0l0.4,0.3l0.3,0.1l0.3,0.2l0.5,0.1l0.3,0.2l0.3,0.1l0.3,0.3l0.2,0.2l0.3,0.3l0.1,0.1l0.3,0.3l0,0.2l0.3,0.3l0,0.3l0.2,0.2l0,0.3l0.1,0.1l0,0.3l0,0.3l-0.1,0.3l0,0.2l-0.2,0.3l0,0.2l-0.3,0.3l0,0.3l-0.3,0.1l-0.1,0.3l-0.3,0.2l-0.2,0.1l-0.3,0.3L462,453l-0.3,0.1l-0.5,0.3l-0.3,0.2l-0.3,0.2l-0.4,0.1l-0.3,0.2l-0.5,0.1l-0.5,0.2l-0.4,0l-0.5,0.1l-0.4,0.2l-0.5,0l-0.4,0l-0.7,0.1l-0.4,0l-0.5,0l-0.4,0l-0.5,0l-0.6,-0.1l-0.5,0l-0.4,0l-0.5,0l-0.4,-0.2l-0.5,0l-0.5,-0.1l-0.4,-0.2l-0.5,-0.1l-0.4,0l-0.3,-0.2l-0.5,-0.1l-0.5,-0.4l-0.3,-0.1l-0.3,-0.2L447.3,453L447,452.8l-0.3,-0.3l-0.3,-0.1l-0.1,-0.3L446,451.9l-0.2,-0.3l-0.1,-0.1l-0.2,-0.3l-0.2,-0.4l0,-0.1l-0.1,-0.3l0,-0.2l0,-0.3l0.1,0Z" class="g1_45" />
<path d="M445.3,449.9l0,-0.3l0,-0.1l0,-0.3l0.2,-0.2l0.2,-0.3l0.1,-0.3l0.2,-0.2l0.1,-0.3l0.2,-0.1l0.3,-0.3l0.3,-0.2L447,447l0.3,-0.1l0.3,-0.2l0.3,-0.1l0.5,-0.2l0.3,-0.1l0.5,-0.2l0.4,-0.1l0.3,-0.2l0.5,-0.1l0.4,-0.2l0.5,0l0.5,-0.2l0.4,0l0.5,-0.1l0.4,0l0.7,0l0.4,-0.2l0.5,0l0.4,0l0.6,0.2l0.5,0l0.5,0l0.4,0.1l0.5,0l0.4,0l0.5,0.2l0.4,0.2l0.5,0.1l0.5,0.2l0.3,0l0.4,0.3l0.3,0.1l0.3,0.2l0.5,0.1l0.3,0.2l0.3,0.1l0.3,0.3l0.2,0.2l0.3,0.3l0.1,0.1l0.3,0.3l0,0.2l0.3,0.3l0,0.3l0.2,0.2l0,0.3l0.1,0.1l0,0.3l0,0.3l-0.1,0.3l0,0.2l-0.2,0.3l0,0.2l-0.3,0.3l0,0.3l-0.3,0.1l-0.1,0.3l-0.3,0.2l-0.2,0.1l-0.3,0.3L462,453l-0.3,0.1l-0.5,0.3l-0.3,0.2l-0.3,0.2l-0.4,0.1l-0.3,0.2l-0.5,0.1l-0.5,0.2l-0.4,0l-0.5,0.1l-0.4,0.2l-0.5,0l-0.4,0l-0.7,0.1l-0.4,0l-0.5,0l-0.4,0l-0.5,0l-0.6,-0.1l-0.5,0l-0.4,0l-0.5,0l-0.4,-0.2l-0.5,0l-0.5,-0.1l-0.4,-0.2l-0.5,-0.1l-0.4,0l-0.3,-0.2l-0.5,-0.1l-0.5,-0.4l-0.3,-0.1l-0.3,-0.2L447.3,453L447,452.8l-0.3,-0.3l-0.3,-0.1l-0.1,-0.3L446,451.9l-0.2,-0.3l-0.1,-0.1l-0.2,-0.3l-0.2,-0.4l0,-0.1l-0.1,-0.3l0,-0.2l0,-0.3l0.1,0Z" class="g2_45" />
<path fill-rule="evenodd" d="M980.8,13.1l0,-0.3l0,-0.3l0,-0.3L981,11.9l0,-0.3l0.1,-0.3l0,-0.3l0.2,-0.3l0.1,-0.3l0.2,-0.3l0.1,-0.3l0.4,-0.2l0.1,-0.3l0.2,-0.1l0.3,-0.3l0.1,-0.3l0.3,-0.2l0.2,-0.1l0.3,-0.2l0.3,-0.2l0.3,-0.3l0.3,0l0.2,-0.1L985,7.3l0.4,0l0.3,-0.1l0.3,0L986.3,7l0.3,0l0.3,0l189.5,0l0.3,0l0.3,0l0.3,0.2l0.3,0l0.3,0.1l0.3,0l0.3,0.2l0.3,0.1l0.3,0.2l0.3,0.1l0.2,0.2l0.3,0.2l0.3,0.1l0.2,0.3l0.3,0.2l0.1,0.3l0.3,0.1l0.2,0.3l0.1,0.3l0.2,0.2l0.1,0.3l0.2,0.3L1182,11l0,0.3l0.2,0.3l0.1,0.3l0,0.3l0,0.3l0,0.3l0,0.3l0.2,24.5l0,0.3l-0.2,0.3l0,0.3l0,0.3l-0.1,0.3l0,0.3l-0.2,0.3l-0.1,0.3l-0.2,0.3l-0.1,0.3l-0.2,0.3l-0.1,0.2l-0.2,0.3l-0.3,0.3l-0.1,0.2l-0.3,0.3l-0.2,0.1l-0.3,0.2l-0.3,0.1l-0.2,0.2l-0.3,0.1l-0.3,0.2l-0.3,0.1l-0.3,0.2l-0.3,0l-0.3,0.1l-0.3,0l-0.3,0l-0.3,0.2l-0.3,0l-189.5,0l-0.3,0l-0.3,0L986,43.5l-0.3,0l-0.3,0L985,43.4l-0.3,-0.2l-0.2,0l-0.3,-0.1l-0.3,-0.2l-0.3,-0.3l-0.3,-0.1l-0.2,-0.2l-0.3,-0.1l-0.1,-0.3l-0.3,-0.2l-0.2,-0.3l-0.1,-0.1l-0.4,-0.4l-0.1,-0.3l-0.2,-0.3L981.3,40l-0.2,-0.1l0,-0.3L981,39.1l0,-0.3l-0.2,-0.3l0,-0.3l0,-0.3l0,-0.3l0,-24.5Z" class="g1_45" />
<path d="M980.8,13.1l0,-0.3l0,-0.3l0,-0.3L981,11.9l0,-0.3l0.1,-0.3l0,-0.3l0.2,-0.3l0.1,-0.3l0.2,-0.3l0.1,-0.3l0.4,-0.2l0.1,-0.3l0.2,-0.1l0.3,-0.3l0.1,-0.3l0.3,-0.2l0.2,-0.1l0.3,-0.2l0.3,-0.2l0.3,-0.3l0.3,0l0.2,-0.1L985,7.3l0.4,0l0.3,-0.1l0.3,0L986.3,7l0.3,0l0.3,0l189.5,0l0.3,0l0.3,0l0.3,0.2l0.3,0l0.3,0.1l0.3,0l0.3,0.2l0.3,0.1l0.3,0.2l0.3,0.1l0.2,0.2l0.3,0.2l0.3,0.1l0.2,0.3l0.3,0.2l0.1,0.3l0.3,0.1l0.2,0.3l0.1,0.3l0.2,0.2l0.1,0.3l0.2,0.3L1182,11l0,0.3l0.2,0.3l0.1,0.3l0,0.3l0,0.3l0,0.3l0,0.3l0.2,24.5l0,0.3l-0.2,0.3l0,0.3l0,0.3l-0.1,0.3l0,0.3l-0.2,0.3l-0.1,0.3l-0.2,0.3l-0.1,0.3l-0.2,0.3l-0.1,0.2l-0.2,0.3l-0.3,0.3l-0.1,0.2l-0.3,0.3l-0.2,0.1l-0.3,0.2l-0.3,0.1l-0.2,0.2l-0.3,0.1l-0.3,0.2l-0.3,0.1l-0.3,0.2l-0.3,0l-0.3,0.1l-0.3,0l-0.3,0l-0.3,0.2l-0.3,0l-189.5,0l-0.3,0l-0.3,0L986,43.5l-0.3,0l-0.3,0L985,43.4l-0.3,-0.2l-0.2,0l-0.3,-0.1l-0.3,-0.2l-0.3,-0.3l-0.3,-0.1l-0.2,-0.2l-0.3,-0.1l-0.1,-0.3l-0.3,-0.2l-0.2,-0.3l-0.1,-0.1l-0.4,-0.4l-0.1,-0.3l-0.2,-0.3L981.3,40l-0.2,-0.1l0,-0.3L981,39.1l0,-0.3l-0.2,-0.3l0,-0.3l0,-0.3l0,-0.3l0,-24.5Z" class="g2_45" />
</svg>