<?xml version="1.0" encoding="UTF-8" standalone="no"?>
<!DOCTYPE svg PUBLIC "-//W3C//DTD SVG 1.1//EN"
"http://www.w3.org/Graphics/SVG/1.1/DTD/svg11.dtd">
<svg viewBox="0 0 1210 1210" version="1.1" xmlns="http://www.w3.org/2000/svg" xmlns:xlink="http://www.w3.org/1999/xlink">
<defs>
<style type="text/css"><![CDATA[
.g2_26{
fill: none;
stroke: #418AB3;
stroke-width: 2;
stroke-linecap: butt;
stroke-linejoin: miter;
stroke-miterlimit: 7;
}
.g3_26{
fill: none;
stroke: #0000EE;
stroke-width: 2;
stroke-linecap: butt;
stroke-linejoin: miter;
}
.g1_26{
fill: #FFFFFF;
}
]]></style>
</defs>
<path fill-rule="evenodd" d="M0,0L1210,0l0,1210L0,1210L0,0Z" class="g1_26" />
<path fill-rule="evenodd" d="M0,0L1210,0l0,1210L0,1210L0,0Z" class="g1_26" />
<path fill-rule="evenodd" d="M139.9,194l0.2,-1.5l0.2,-1.5l0.1,-1.6l0.3,-1.5l0.3,-1.4l0.5,-1.5l0.4,-1.4l0.6,-1.5l0.7,-1.4l0.7,-1.2l0.8,-1.4l0.9,-1.2l0.9,-1.2l0.9,-1.1l1.1,-1.2l1.1,-1.1l1.2,-0.9l1.2,-0.9l1.2,-0.9l1.3,-0.8l1.3,-0.7l1.4,-0.7l1.4,-0.6l1.5,-0.4l1.4,-0.5l1.5,-0.3l1.5,-0.3l1.6,-0.1l1.3,-0.2l1.6,0l872,0l1.6,0l1.3,0.2l1.6,0.1l1.5,0.3l1.5,0.3l1.4,0.5l1.5,0.4l1.4,0.6l1.4,0.7l1.3,0.7l1.3,0.8l1.2,0.9l1.2,0.9l1.2,0.9l1.1,1.3l1.1,1l0.9,1.1l0.9,1.2l0.9,1.2l0.8,1.4l0.7,1.2l0.7,1.6l0.6,1.3l0.4,1.4l0.5,1.5l0.3,1.4l0.3,1.5l0.2,1.6l0.1,1.5l0,1.5l0.2,116.1l-0.2,1.6l-0.1,1.3l-0.2,1.6l-0.3,1.5l-0.3,1.5l-0.5,1.4l-0.4,1.5l-0.6,1.4l-0.7,1.4l-0.7,1.4l-0.8,1.2l-0.9,1.2l-0.9,1.2l-0.9,1.2l-1.1,1.1l-1.1,0.9l-1.2,1.1l-1.2,0.9l-1.2,0.9l-1.3,0.8l-1.3,0.8l-1.4,0.6l-1.4,0.6l-1.5,0.4l-1.4,0.5l-1.5,0.3l-1.5,0.3l-1.6,0.2l-1.3,0.1l-1.6,0l-872,0.2L167.4,339l-1.3,-0.1l-1.6,-0.2L163,338.4l-1.5,-0.3l-1.4,-0.5l-1.5,-0.4l-1.4,-0.6L155.8,336l-1.3,-0.8l-1.3,-0.8L152,333.5l-1.2,-0.9l-1.2,-0.9l-1.1,-1.1l-1.1,-1.1l-0.9,-1.2l-0.9,-1.2l-0.9,-1.2l-0.8,-1.2l-0.7,-1.4l-0.7,-1.4l-0.6,-1.4L141.5,319L141,317.6l-0.3,-1.5l-0.3,-1.5L140.3,313l-0.2,-1.3l-0.2,-1.6l0,-116.1Z" class="g1_26" />
<path d="M139.9,194l0.2,-1.5l0.2,-1.5l0.1,-1.6l0.3,-1.5l0.3,-1.4l0.5,-1.5l0.4,-1.4l0.6,-1.5l0.7,-1.4l0.7,-1.2l0.8,-1.4l0.9,-1.2l0.9,-1.2l0.9,-1.1l1.1,-1.2l1.1,-1.1l1.2,-0.9l1.2,-0.9l1.2,-0.9l1.3,-0.8l1.3,-0.7l1.4,-0.7l1.4,-0.6l1.5,-0.4l1.4,-0.5l1.5,-0.3l1.5,-0.3l1.6,-0.1l1.3,-0.2l1.6,0l872,0l1.6,0l1.3,0.2l1.6,0.1l1.5,0.3l1.5,0.3l1.4,0.5l1.5,0.4l1.4,0.6l1.4,0.7l1.3,0.7l1.3,0.8l1.2,0.9l1.2,0.9l1.2,0.9l1.1,1.3l1.1,1l0.9,1.1l0.9,1.2l0.9,1.2l0.8,1.4l0.7,1.2l0.7,1.6l0.6,1.3l0.4,1.4l0.5,1.5l0.3,1.4l0.3,1.5l0.2,1.6l0.1,1.5l0,1.5l0.2,116.1l-0.2,1.6l-0.1,1.3l-0.2,1.6l-0.3,1.5l-0.3,1.5l-0.5,1.4l-0.4,1.5l-0.6,1.4l-0.7,1.4l-0.7,1.4l-0.8,1.2l-0.9,1.2l-0.9,1.2l-0.9,1.2l-1.1,1.1l-1.1,0.9l-1.2,1.1l-1.2,0.9l-1.2,0.9l-1.3,0.8l-1.3,0.8l-1.4,0.6l-1.4,0.6l-1.5,0.4l-1.4,0.5l-1.5,0.3l-1.5,0.3l-1.6,0.2l-1.3,0.1l-1.6,0l-872,0.2L167.4,339l-1.3,-0.1l-1.6,-0.2L163,338.4l-1.5,-0.3l-1.4,-0.5l-1.5,-0.4l-1.4,-0.6L155.8,336l-1.3,-0.8l-1.3,-0.8L152,333.5l-1.2,-0.9l-1.2,-0.9l-1.1,-1.1l-1.1,-1.1l-0.9,-1.2l-0.9,-1.2l-0.9,-1.2l-0.8,-1.2l-0.7,-1.4l-0.7,-1.4l-0.6,-1.4L141.5,319L141,317.6l-0.3,-1.5l-0.3,-1.5L140.3,313l-0.2,-1.3l-0.2,-1.6l0,-116.1Z" class="g2_26" />
<path d="M351,209l66,0" class="g3_26" />
<path d="M417,209l392,0" class="g3_26" />
<path d="M809,209l6,0" class="g3_26" />
<path d="M345,261l65,0" class="g3_26" />
<path d="M410,261l390,0" class="g3_26" />
<path d="M800,261l6,0" class="g3_26" />
<path d="M332,312l47,0" class="g3_26" />
<path d="M379,312l18,0" class="g3_26" />
<path d="M397,312l404,0" class="g3_26" />
<path d="M801,312l6,0" class="g3_26" />
</svg>