<?xml version="1.0" encoding="UTF-8" standalone="no"?>
<!DOCTYPE svg PUBLIC "-//W3C//DTD SVG 1.1//EN"
"http://www.w3.org/Graphics/SVG/1.1/DTD/svg11.dtd">
<svg viewBox="0 0 1210 1045" version="1.1" xmlns="http://www.w3.org/2000/svg" xmlns:xlink="http://www.w3.org/1999/xlink">
<defs>
<clipPath id="c0_8"><path d="M828.7,498.5L791.5,461.4l37.2,-37l0,18.7l300,0l0,36.9l-300,0l0,18.5Z" /></clipPath>
<style type="text/css"><![CDATA[
.g4_8{
fill: none;
stroke: #418AB3;
stroke-width: 3;
stroke-linecap: butt;
stroke-linejoin: miter;
stroke-miterlimit: 7;
}
.g2_8{
fill: none;
stroke: #418AB3;
stroke-width: 5;
stroke-linecap: butt;
stroke-linejoin: miter;
}
.g3_8{
fill: #418AB3;
}
.g7_8{
fill: none;
stroke: #000000;
stroke-width: 2;
stroke-linecap: butt;
stroke-linejoin: miter;
stroke-miterlimit: 7;
}
.g6_8{
fill: none;
stroke: #418AB3;
stroke-width: 2;
stroke-linecap: butt;
stroke-linejoin: miter;
stroke-miterlimit: 7;
}
.g5_8{
fill: none;
stroke: #418AB3;
stroke-width: 1;
stroke-linecap: butt;
stroke-linejoin: round;
}
.g9_8{
fill: none;
stroke: #838383;
stroke-width: 1;
stroke-linecap: butt;
stroke-linejoin: miter;
stroke-miterlimit: 7;
}
.g1_8{
fill: #FFFFFF;
}
.g8_8{
fill: none;
stroke: #000000;
stroke-width: 1;
stroke-linecap: butt;
stroke-linejoin: miter;
}
.g10_8{
fill: none;
stroke: #418AB3;
stroke-width: 1;
stroke-linecap: butt;
stroke-linejoin: miter;
stroke-miterlimit: 7;
}
]]></style>
</defs>
<path fill-rule="evenodd" d="M0,0L1210,0l0,1045L0,1045L0,0Z" class="g1_8" />
<path fill-rule="evenodd" d="M0,0L1210,0l0,1045L0,1045L0,0Z" class="g1_8" />
<image x="828" y="984" width="334" height="49" xlink:href="img/1.png" />
<path d="M592.3,304.9l0.2,43.9" class="g2_8" />
<path fill-rule="evenodd" d="M592.5,361.6l-7.1,-13.7l13.9,0l-6.8,13.7Z" class="g3_8" />
<path d="M421.2,331.5l0,0l0,-0.4l0.2,-0.3l0,-0.5l0,-0.5l0.1,-0.3l0.2,-0.4l0.1,-0.5l0.2,-0.3l0.1,-0.3l0.2,-0.4l0.1,-0.3l0.3,-0.4l0.3,-0.3l0.2,-0.3l0.3,-0.3l0.3,-0.3l0.3,-0.3l0.5,-0.1l0.3,-0.3l0.3,-0.3l0.3,-0.2l0.4,-0.2l0.4,-0.1l0.4,-0.2l0.3,-0.1l0.5,0l0.4,-0.2l0.3,0l0.5,0l0.5,0l135,0l0.3,0l0.5,0l0.4,0l0.3,0.2l0.5,0l0.5,0.1l0.3,0.2l0.3,0.1l0.4,0.2l0.3,0.3l0.3,0.2l0.5,0.3l0.3,0.1l0.3,0.3l0.3,0.3l0.3,0.3l0.2,0.3l0.3,0.3l0.1,0.4l0.3,0.3l0.2,0.4l0.1,0.3l0.2,0.3l0.1,0.5l0.2,0.4l0.1,0.3l0,0.5l0,0.5l0.2,0.3l0,0.4l0,31.3l0,0.5l0,0.5l-0.2,0.3l0,0.4l-0.1,0.3l-0.2,0.5l0,0.4l-0.3,0.4l-0.1,0.3l-0.2,0.4l-0.3,0.3l-0.1,0.3l-0.3,0.3L570,368l-0.3,0.3l-0.3,0.4l-0.3,0.3l-0.3,0.3l-0.5,0.1l-0.3,0.2l-0.3,0.3l-0.4,0.1l-0.3,0.2l-0.3,0.1l-0.5,0l-0.5,0.2l-0.3,0.1l-0.4,0l-0.5,0l-0.3,0l-135,0.2l0,-0.2l-0.5,0l-0.5,0l-0.3,0l-0.4,-0.1l-0.5,0l-0.3,-0.2l-0.4,-0.1L425.9,370l-0.4,-0.1l-0.3,-0.2l-0.3,-0.3l-0.3,-0.1L424.1,369l-0.3,-0.3l-0.3,-0.4L423.2,368L423,367.7l-0.3,-0.3l-0.3,-0.3l-0.1,-0.3l-0.2,-0.4L422,366.1l-0.2,-0.4l-0.1,-0.4l-0.2,-0.5l-0.1,-0.3l0,-0.4l0,-0.3l-0.2,-0.5l0,-0.5l0,-31.3Z" class="g4_8" />
<image x="421" y="364" width="368" height="211" xlink:href="img/2.png" />
<path d="M421.5,364.5l367,0l0,207l-367,0l0,-207Z" class="g5_8" />
<path d="M488.4,177.7l-91.9,0.1" class="g2_8" />
<path fill-rule="evenodd" d="M383.6,177.8L397.4,171l0,13.7l-13.8,-6.9Z" class="g3_8" />
<path d="M64.2,25.2l0,-0.3l0,-0.5l0,-0.3l0.1,-0.3l0,-0.4l0.2,-0.3l0.1,-0.3l0.2,-0.3l0.1,-0.3l0.2,-0.5l0.1,-0.3l0.3,-0.3l0.2,-0.2l0.1,-0.3l0.4,-0.3L66.5,20l0.3,-0.1l0.3,-0.3l0.3,-0.2l0.3,-0.2L68,19.1l0.3,-0.2l0.3,-0.1l0.3,-0.2l0.5,-0.1l0.3,0L70,18.3l0.4,0l0.3,0l0.3,0l136.2,0l0.4,0l0.3,0l0.3,0l0.5,0.2l0.3,0l0.5,0.1l0.3,0.2l0.3,0.1l0.3,0.2l0.3,0.1l0.3,0.2l0.3,0.2l0.3,0.3l0.3,0.3l0.2,0.1l0.3,0.3l0.3,0.3l0.1,0.3l0.2,0.3l0.3,0.3l0.1,0.4l0.2,0.3l0.1,0.3l0,0.3l0.2,0.3l0.1,0.4l0,0.3l0,0.3l0.2,0.5l0,0.3l0,28l0,0.3l0,0.3L214,54.2l0,0.3l-0.1,0.3l0,0.5l-0.2,0.3l-0.1,0.3l-0.2,0.3l-0.1,0.3l-0.2,0.3l-0.3,0.3l-0.1,0.3l-0.3,0.3l-0.3,0.4l-0.2,0.1l-0.3,0.3l-0.3,0.2L211,59l-0.3,0.1l-0.3,0.2l-0.3,0.1l-0.3,0.2l-0.3,0.1l-0.5,0l-0.3,0.2l-0.5,0L207.9,60l-0.3,0l-0.4,0L71,60l-0.3,0l-0.3,0L70,60L69.7,59.9l-0.3,0L68.9,59.7L68.6,59.6L68.3,59.4L68,59.3L67.7,59.1L67.4,59L67.1,58.7L66.8,58.5L66.5,58.4L66.2,58.1L65.8,57.7L65.7,57.4L65.5,57.1L65.2,56.8L65.1,56.5L64.9,56.2L64.8,55.9L64.6,55.6L64.5,55.3L64.3,54.8l0,-0.3L64.2,54.2l0,-0.4l0,-0.3l0,-0.3l0,-28Z" class="g6_8" />
<image x="65" y="60" width="322" height="238" xlink:href="img/3.png" />
<path d="M65.5,60.5l321,0l0,237l-321,0l0,-237Z" class="g5_8" />
<path fill-rule="evenodd" d="M187,328l22,0l0,33l-22,0l0,-33Z" class="g1_8" />
<path fill-rule="evenodd" d="M848,305l268,0l0,76l-268,0l0,-76Z" class="g1_8" />
<path fill-rule="evenodd" d="M319.8,594l0,-0.5l0,-0.6l0.1,-0.4l0.2,-0.5l0,-0.4l0.1,-0.5l0.2,-0.5l0.1,-0.6l0.3,-0.3l0.2,-0.4l0.3,-0.5l0.3,-0.5l0.3,-0.3l0.3,-0.4l0.3,-0.3L323,587l0.3,-0.3l0.4,-0.3l0.3,-0.3l0.5,-0.4l0.5,-0.1l0.4,-0.3l0.5,-0.2l0.4,-0.1l0.5,-0.2l0.4,-0.1l0.5,0l0.5,-0.2l0.6,0l0.4,0l526.2,0l0.5,0l0.6,0l0.4,0.2l0.5,0l0.4,0.1l0.5,0.2l0.5,0.1l0.4,0.2l0.5,0.3l0.4,0.1l0.3,0.4l0.5,0.3l0.5,0.3l0.3,0.3l0.4,0.3l0.3,0.3l0.3,0.4l0.3,0.3l0.3,0.5l0.2,0.5l0.3,0.4l0.2,0.5l0.3,0.4l0,0.5l0.3,0.5l0,0.4l0.1,0.5l0,0.4l0.2,0.6l0,0.5l0,37.9l0,0.4l0,0.5l-0.2,0.5l0,0.6l-0.1,0.4l-0.2,0.5l-0.1,0.4l-0.2,0.5l-0.3,0.5l-0.1,0.4l-0.4,0.3l-0.3,0.5l-0.3,0.4l-0.3,0.4l-0.3,0.3l-0.4,0.3l-0.3,0.4l-0.5,0.3l-0.3,0.2l-0.5,0.3l-0.4,0.1l-0.5,0.3l-0.4,0.2l-0.5,0.1l-0.5,0.2l-0.4,0.2l-0.5,0l-0.4,0.1l-0.6,0l-0.5,0l-526.2,0.2l-0.4,0l-0.6,0l-0.5,-0.2l-0.5,-0.1l-0.4,0l-0.5,-0.2l-0.4,-0.2l-0.5,-0.3L325,640.3l-0.5,-0.2L324,639.8l-0.3,-0.3l-0.4,-0.3L323,638.9l-0.5,-0.3l-0.3,-0.4l-0.3,-0.4l-0.3,-0.4l-0.3,-0.5L321,636.6l-0.2,-0.4l-0.3,-0.5l-0.1,-0.5l-0.2,-0.4l-0.1,-0.5l0,-0.4l-0.2,-0.6l-0.1,-0.5l0,-0.5l0,-0.4l0,-37.9Z" class="g1_8" />
<image x="488" y="66" width="233" height="233" xlink:href="img/4.png" />
<path d="M487,66l233,0l0,232l-233,0L487,66Z" class="g7_8" />
<image x="791" y="424" width="338" height="75" xlink:href="shade/1.png" />
<g clip-path="url(#c0_8)">
<path d="M791.5,498.5l337,0l0,-74l-337,0l0,74Z" class="g8_8" />
</g>
<path d="M828.7,498.5l-37,-37l37,-37.1l0,18.5l300,0l0,37.1l-300,0l0,18.5Z" class="g9_8" />
<path d="M720.3,177.7l84.8,1.4" class="g2_8" />
<path fill-rule="evenodd" d="M818,179.2l-13.9,6.7L804.2,172l13.8,7.2Z" class="g3_8" />
<path fill-rule="evenodd" d="M818.6,51.9l0,-0.3l0,-0.3l0,-0.4l0.1,-0.3l0,-0.3L818.9,50L819,49.5l0.2,-0.3l0.1,-0.3l0.2,-0.3l0.2,-0.3L819.8,48l0.3,-0.3l0.2,-0.3l0.3,-0.2l0.3,-0.3L821,46.7l0.3,-0.3l0.3,-0.1l0.3,-0.2l0.4,-0.3l0.3,0l0.3,-0.3l0.4,0l0.3,-0.1l0.3,0l0.3,-0.2l0.5,0l0.3,0l0.5,0l187,0l0.3,0l0.3,0l0.4,0l0.3,0.2l0.3,0l0.5,0.1l0.3,0.2l0.3,0.1l0.3,0.2l0.3,0.1l0.3,0.2l0.3,0.1l0.3,0.3l0.3,0.2l0.2,0.3l0.3,0.3l0.2,0.2L1018,48l0.1,0.3l0.2,0.3l0.3,0.3l0,0.3l0.3,0.5l0,0.3l0.1,0.3l0,0.3l0.2,0.3l0,0.4l0,0.3l0,0.3l0.1,27.5l0,0.4l0,0.4l-0.1,0.3l0,0.5l-0.2,0.3l0,0.3l-0.1,0.3l-0.2,0.3l-0.1,0.3l-0.2,0.5l-0.1,0.3l-0.3,0.1l-0.2,0.3l-0.3,0.3l-0.2,0.3l-0.3,0.2l-0.3,0.3l-0.3,0.1l-0.3,0.3l-0.3,0.2l-0.3,0.2l-0.3,0.1l-0.3,0.2l-0.3,0l-0.5,0.1l-0.3,0.2l-0.3,0l-0.3,0l-0.4,0.1l-0.3,0l-187,0l-0.5,0l-0.3,0l-0.5,0l-0.3,-0.1l-0.3,0L823.3,86l-0.4,-0.1l-0.3,-0.2l-0.3,-0.1l-0.4,-0.2l-0.3,-0.2l-0.3,-0.1L821,84.8l-0.1,-0.2l-0.3,-0.3L820.3,84l-0.2,-0.1l-0.3,-0.3l-0.1,-0.3L819.5,83l-0.2,-0.3l-0.1,-0.4L819,81.9l-0.1,-0.3l-0.2,-0.3l0,-0.3l-0.1,-0.5l0,-0.3l0,-0.4l0,-0.4l0,-27.5Z" class="g1_8" />
<path d="M818.6,51.9l0,-0.3l0,-0.3l0,-0.4l0.1,-0.3l0,-0.3L818.9,50L819,49.5l0.2,-0.3l0.1,-0.3l0.2,-0.3l0.2,-0.3L819.8,48l0.3,-0.3l0.2,-0.3l0.3,-0.2l0.3,-0.3L821,46.7l0.3,-0.3l0.3,-0.1l0.3,-0.2l0.4,-0.3l0.3,0l0.3,-0.3l0.4,0l0.3,-0.1l0.3,0l0.3,-0.2l0.5,0l0.3,0l0.5,0l187,0l0.3,0l0.3,0l0.4,0l0.3,0.2l0.3,0l0.5,0.1l0.3,0.2l0.3,0.1l0.3,0.2l0.3,0.1l0.3,0.2l0.3,0.1l0.3,0.3l0.3,0.2l0.2,0.3l0.3,0.3l0.2,0.2L1018,48l0.1,0.3l0.2,0.3l0.3,0.3l0,0.3l0.3,0.5l0,0.3l0.1,0.3l0,0.3l0.2,0.3l0,0.4l0,0.3l0,0.3l0.1,27.5l0,0.4l0,0.4l-0.1,0.3l0,0.5l-0.2,0.3l0,0.3l-0.1,0.3l-0.2,0.3l-0.1,0.3l-0.2,0.5l-0.1,0.3l-0.3,0.1l-0.2,0.3l-0.3,0.3l-0.2,0.3l-0.3,0.2l-0.3,0.3l-0.3,0.1l-0.3,0.3l-0.3,0.2l-0.3,0.2l-0.3,0.1l-0.3,0.2l-0.3,0l-0.5,0.1l-0.3,0.2l-0.3,0l-0.3,0l-0.4,0.1l-0.3,0l-187,0l-0.5,0l-0.3,0l-0.5,0l-0.3,-0.1l-0.3,0L823.3,86l-0.4,-0.1l-0.3,-0.2l-0.3,-0.1l-0.4,-0.2l-0.3,-0.2l-0.3,-0.1L821,84.8l-0.1,-0.2l-0.3,-0.3L820.3,84l-0.2,-0.1l-0.3,-0.3l-0.1,-0.3L819.5,83l-0.2,-0.3l-0.1,-0.4L819,81.9l-0.1,-0.3l-0.2,-0.3l0,-0.3l-0.1,-0.5l0,-0.3l0,-0.4l0,-0.4l0,-27.5Z" class="g10_8" />
<image x="819" y="90" width="327" height="208" xlink:href="img/5.png" />
<path d="M819.5,90.5l326,0l0,207l-326,0l0,-207Z" class="g5_8" />
<path fill-rule="evenodd" d="M111,310l230,0l0,77l-230,0l0,-77Z" class="g1_8" />
</svg>