<?xml version="1.0" encoding="UTF-8" standalone="no"?>
<!DOCTYPE svg PUBLIC "-//W3C//DTD SVG 1.1//EN"
"http://www.w3.org/Graphics/SVG/1.1/DTD/svg11.dtd">
<svg viewBox="0 0 1155 1210" version="1.1" xmlns="http://www.w3.org/2000/svg" xmlns:xlink="http://www.w3.org/1999/xlink">
<defs>
<clipPath id="c0_14"><path d="M0.5,1210.5L0.5,0.5l1155,0l0,1210Z" /></clipPath>
<style type="text/css"><![CDATA[
.g2_14{
fill: none;
stroke: #0000EE;
stroke-width: 2;
stroke-linecap: butt;
stroke-linejoin: miter;
}
.g1_14{
fill: #FFFFFF;
}
]]></style>
</defs>
<path fill-rule="evenodd" d="M0,0L1155,0l0,1210L0,1210L0,0Z" class="g1_14" />
<path fill-rule="evenodd" d="M0,0L1155,0l0,1210L0,1210L0,0Z" class="g1_14" />
<image x="790" y="1140" width="319" height="55" xlink:href="img/1.png" />
<g clip-path="url(#c0_14)">
<g fill="#626262" >
<use xlink:href="#f0_1u" transform="matrix(12,0,0,12,47.7,33.2)" />
<use xlink:href="#f0_b" transform="matrix(12,0,0,12,59.6,33.2)" />
<use xlink:href="#f0_e" transform="matrix(12,0,0,12,71,33.2)" />
<use xlink:href="#f0_b" transform="matrix(12,0,0,12,77.4,33.2)" />
<use xlink:href="#f0_l" transform="matrix(12,0,0,12,88.7,33.2)" />
<use xlink:href="#f0_b" transform="matrix(12,0,0,12,95.9,33.2)" />
<use xlink:href="#f0_4" transform="matrix(12,0,0,12,107.2,33.2)" />
<use xlink:href="#f0_6" transform="matrix(12,0,0,12,118.8,33.2)" />
<use xlink:href="#f0_b" transform="matrix(12,0,0,12,129,33.2)" />
<use xlink:href="#f0_21" transform="matrix(12,0,0,12,146.3,33.2)" />
<use xlink:href="#f0_d" transform="matrix(12,0,0,12,156.5,33.2)" />
<use xlink:href="#f0_4" transform="matrix(12,0,0,12,161.5,33.2)" />
<use xlink:href="#f0_1a" transform="matrix(12,0,0,12,173.1,33.2)" />
<use xlink:href="#f0_g" transform="matrix(12,0,0,12,183.8,33.2)" />
<use xlink:href="#f0_n" transform="matrix(12,0,0,12,193.3,33.2)" />
</g>
<g fill="#0000EE" >
<use xlink:href="#f1_q" transform="matrix(12,0,0,12,47.7,91.1)" />
<use xlink:href="#f0_6" transform="matrix(12,0,0,12,73.9,92.3)" />
<use xlink:href="#f0_v" transform="matrix(12,0,0,12,84.2,92.3)" />
<use xlink:href="#f0_w" transform="matrix(12,0,0,12,95,92.3)" />
<use xlink:href="#f0_3" transform="matrix(12,0,0,12,104.2,92.3)" />
<use xlink:href="#f0_l" transform="matrix(12,0,0,12,118.7,92.3)" />
<use xlink:href="#f0_k" transform="matrix(12,0,0,12,126.3,92.3)" />
<use xlink:href="#f0_6" transform="matrix(12,0,0,12,137.6,92.3)" />
<use xlink:href="#f0_a" transform="matrix(12,0,0,12,148,92.3)" />
<use xlink:href="#f0_b" transform="matrix(12,0,0,12,153,92.3)" />
<use xlink:href="#f0_1d" transform="matrix(12,0,0,12,170.2,92.3)" />
<use xlink:href="#f0_7" transform="matrix(12,0,0,12,186,92.3)" />
<use xlink:href="#f0_h" transform="matrix(12,0,0,12,197.1,92.3)" />
<use xlink:href="#f0_i" transform="matrix(12,0,0,12,208.9,92.3)" />
<use xlink:href="#f0_a" transform="matrix(12,0,0,12,220.5,92.3)" />
<use xlink:href="#f0_b" transform="matrix(12,0,0,12,225.5,92.3)" />
</g>
</g>
<path d="M73,94l164,0" class="g2_14" />
<g clip-path="url(#c0_14)">
<g fill="#0000EE" >
<use xlink:href="#f1_q" transform="matrix(12,0,0,12,47.7,150.2)" />
<use xlink:href="#f0_15" transform="matrix(12,0,0,12,73.9,151.3)" />
<use xlink:href="#f0_7" transform="matrix(12,0,0,12,86.8,151.3)" />
<use xlink:href="#f0_4" transform="matrix(12,0,0,12,97.9,151.3)" />
<use xlink:href="#f0_4" transform="matrix(12,0,0,12,109.5,151.3)" />
<use xlink:href="#f0_b" transform="matrix(12,0,0,12,121,151.3)" />
<use xlink:href="#f0_6" transform="matrix(12,0,0,12,132.4,151.3)" />
<use xlink:href="#f0_c" transform="matrix(12,0,0,12,142.6,151.3)" />
<use xlink:href="#f0_d" transform="matrix(12,0,0,12,149.8,151.3)" />
<use xlink:href="#f0_7" transform="matrix(12,0,0,12,154.8,151.3)" />
<use xlink:href="#f0_4" transform="matrix(12,0,0,12,166,151.3)" />
<use xlink:href="#f0_3" transform="matrix(12,0,0,12,183.5,151.3)" />
<use xlink:href="#f0_m" transform="matrix(12,0,0,12,197.9,151.3)" />
<use xlink:href="#f0_1q" transform="matrix(12,0,0,12,209.5,151.3)" />
<use xlink:href="#f0_b" transform="matrix(12,0,0,12,214.5,151.3)" />
<use xlink:href="#f0_6" transform="matrix(12,0,0,12,226,151.3)" />
<use xlink:href="#f0_c" transform="matrix(12,0,0,12,236.2,151.3)" />
</g>
</g>
<path d="M73,153l170,0" class="g2_14" />
<g clip-path="url(#c0_14)">
<g fill="#0000EE" >
<use xlink:href="#f1_q" transform="matrix(12,0,0,12,47.7,209.2)" />
<use xlink:href="#f0_15" transform="matrix(12,0,0,12,73.9,210.4)" />
<use xlink:href="#f0_i" transform="matrix(12,0,0,12,86.8,210.4)" />
<use xlink:href="#f0_l" transform="matrix(12,0,0,12,98.2,210.4)" />
<use xlink:href="#f0_g" transform="matrix(12,0,0,12,106,210.4)" />
<use xlink:href="#f0_7" transform="matrix(12,0,0,12,115.5,210.4)" />
<use xlink:href="#f0_l" transform="matrix(12,0,0,12,126.6,210.4)" />
<use xlink:href="#f0_3" transform="matrix(12,0,0,12,140.2,210.4)" />
<use xlink:href="#f0_m" transform="matrix(12,0,0,12,154.7,210.4)" />
<use xlink:href="#f0_1q" transform="matrix(12,0,0,12,166.3,210.4)" />
<use xlink:href="#f0_b" transform="matrix(12,0,0,12,171.3,210.4)" />
<use xlink:href="#f0_6" transform="matrix(12,0,0,12,182.8,210.4)" />
<use xlink:href="#f0_c" transform="matrix(12,0,0,12,193,210.4)" />
</g>
</g>
<path d="M73,212l127,0" class="g2_14" />
<g clip-path="url(#c0_14)">
<g fill="#0000EE" >
<use xlink:href="#f1_q" transform="matrix(12,0,0,12,47.7,268.1)" />
<use xlink:href="#f0_p" transform="matrix(12,0,0,12,73.9,269.3)" />
<use xlink:href="#f0_g" transform="matrix(12,0,0,12,87.2,269.3)" />
<use xlink:href="#f0_d" transform="matrix(12,0,0,12,96.8,269.3)" />
<use xlink:href="#f0_4" transform="matrix(12,0,0,12,102,269.3)" />
<use xlink:href="#f0_x" transform="matrix(12,0,0,12,113.5,269.3)" />
<use xlink:href="#f0_s" transform="matrix(12,0,0,12,131,269.3)" />
<use xlink:href="#f0_r" transform="matrix(12,0,0,12,142,269.3)" />
<use xlink:href="#f0_c" transform="matrix(12,0,0,12,152.9,269.3)" />
<use xlink:href="#f0_f" transform="matrix(12,0,0,12,160.1,269.3)" />
<use xlink:href="#f0_7" transform="matrix(12,0,0,12,171.5,269.3)" />
<use xlink:href="#f0_4" transform="matrix(12,0,0,12,182.8,269.3)" />
<use xlink:href="#f0_1e" transform="matrix(12,0,0,12,200.2,269.3)" />
<use xlink:href="#f0_d" transform="matrix(12,0,0,12,217.8,269.3)" />
<use xlink:href="#f0_c" transform="matrix(12,0,0,12,222.9,269.3)" />
<use xlink:href="#f0_f" transform="matrix(12,0,0,12,230,269.3)" />
<use xlink:href="#f0_3" transform="matrix(12,0,0,12,247.4,269.3)" />
<use xlink:href="#f0_l" transform="matrix(12,0,0,12,261.9,269.3)" />
<use xlink:href="#f0_k" transform="matrix(12,0,0,12,269.5,269.3)" />
<use xlink:href="#f0_6" transform="matrix(12,0,0,12,280.9,269.3)" />
<use xlink:href="#f0_a" transform="matrix(12,0,0,12,291.2,269.3)" />
<use xlink:href="#f0_b" transform="matrix(12,0,0,12,296.3,269.3)" />
<use xlink:href="#f0_16" transform="matrix(12,0,0,12,313.4,269.3)" />
<use xlink:href="#f0_k" transform="matrix(12,0,0,12,327.6,269.3)" />
<use xlink:href="#f0_c" transform="matrix(12,0,0,12,338.9,269.3)" />
<use xlink:href="#f0_k" transform="matrix(12,0,0,12,346.1,269.3)" />
<use xlink:href="#f0_m" transform="matrix(12,0,0,12,357.4,269.3)" />
<use xlink:href="#f0_k" transform="matrix(12,0,0,12,369,269.3)" />
<use xlink:href="#f0_g" transform="matrix(12,0,0,12,380.3,269.3)" />
<use xlink:href="#f0_b" transform="matrix(12,0,0,12,389.9,269.3)" />
<use xlink:href="#f0_2" transform="matrix(12,0,0,12,407.1,269.3)" />
<use xlink:href="#f0_2" transform="matrix(12,0,0,12,418.6,269.3)" />
<use xlink:href="#f0_x" transform="matrix(12,0,0,12,430.2,269.3)" />
</g>
</g>
<path d="M73,271l369,0" class="g2_14" />
<defs>
	<path d="M488.9,594.3c0,0,110,0,165,50.4c0,0,55,50.4,55,148.2c0,0,0,97.8,-55,146.7c0,0,-55,48.9,-165,48.9l-189.5,0l0,-394.2ZM149.7,0l0,1113.8l339.2,0c0,0,191,0,284.2,-79.5c0,0,94.7,-81,94.7,-241.4c0,0,0,-105.4,-48.9,-174.1c0,0,-48.9,-70.3,-142.1,-97.8c0,0,48.9,-15.3,94.7,-68.8c0,0,45.9,-55,91.7,-148.2L1017.5,0L855.6,0L711.9,285.7c0,0,-55,111.5,-106.9,148.2c0,0,-51.9,36.7,-140.6,36.7l-165,0L299.4,0Z" 
	id="f0_1u"
	transform="scale(0.001,-0.001)" />

	<path d="M230.7,490.4l490.4,1.5c0,0,-1.5,111.6,-62.6,178.8c0,0,-62.7,67.2,-163.5,67.2c0,0,-114.6,0,-183.3,-64.1c0,0,-70.3,-65.7,-81,-183.4ZM516.4,-21.3c0,0,-198.6,0,-314.7,116C201.7,94.7,84,210.8,84,409.4c0,0,0,204.8,110,325.5c0,0,111.6,120.7,299.5,120.7c0,0,168,0,265.8,-108.5c0,0,99.3,-110,99.3,-296.4l0,-67.2l-632.5,0c0,0,9.2,-140.6,85.6,-213.9c0,0,76.4,-74.9,213.9,-74.9c0,0,77.9,0,152.7,18.4c0,0,74.9,19.8,148.2,58l0,-129.8c0,0,-74.8,-30.6,-151.2,-45.8c0,0,-77.9,-16.8,-158.9,-16.8Z" 
	id="f0_b"
	transform="scale(0.001,-0.001)" />

	<path d="M165,0l0,728.8l-131.4,0l0,105.4l131.4,0l0,58c0,0,0,140.6,64.2,203.2c0,0,65.7,64.2,207.7,64.2l129.9,0l0,-113.1l-131.4,0c0,0,-74.8,0,-102.3,-30.5c0,0,-29.1,-30.6,-29.1,-107l0,-74.8l226.1,0l0,-105.4l-226.1,0L304,0Z" 
	id="f0_e"
	transform="scale(0.001,-0.001)" />

	<path d="M137.5,0l0,834.2l139,0l0,-129.9c0,0,42.8,76.4,111.6,113.1c0,0,70.2,38.2,169.5,38.2c0,0,13.8,0,30.6,-1.6c0,0,16.8,-3,38.2,-6.1l1.5,-142.1c0,0,-24.4,13.8,-50.4,19.9c0,0,-27.5,6.1,-61.1,6.1c0,0,-116.1,0,-177.2,-74.9c0,0,-62.7,-76.3,-62.7,-216.9l0,-440Z" 
	id="f0_l"
	transform="scale(0.001,-0.001)" />

	<path d="M137.5,0l0,834.2l139,0l0,-129.9c0,0,48.9,76.4,114.6,113.1c0,0,67.2,38.2,154.3,38.2c0,0,145.2,0,218.5,-88.7c0,0,73.3,-90.1,73.3,-262.7L837.2,0L699.7,0l0,499.6c0,0,0,117.6,-45.8,175.7c0,0,-45.8,59.6,-139,59.6c0,0,-110,0,-174.2,-70.3c0,0,-64.2,-70.3,-64.2,-192.5L276.5,0Z" 
	id="f0_4"
	transform="scale(0.001,-0.001)" />

	<path d="M495,-21.3c0,0,-189.4,0,-299.4,117.6C195.6,96.3,84,215.4,84,415.6c0,0,0,204.7,111.6,322.3c0,0,113,117.7,308.6,117.7c0,0,62.6,0,122.2,-13.8c0,0,61.1,-13.7,117.6,-39.7l0,-128.3c0,0,-58,32,-116.1,47.3c0,0,-58,16.8,-119.1,16.8c0,0,-133,0,-206.3,-84c0,0,-74.9,-84,-74.9,-238.3c0,0,0,-152.8,73.4,-236.8c0,0,74.8,-84.1,207.8,-84.1c0,0,61.1,0,119.1,15.3c0,0,58.1,16.8,116.1,48.9L744,30.6c0,0,-56.5,-26,-117.6,-38.1c0,0,-62.6,-13.8,-131.4,-13.8Z" 
	id="f0_6"
	transform="scale(0.001,-0.001)" />

	<path d="M149,0l0,1113l150,0l0,-987l542,0L841,0Z" 
	id="f0_21"
	transform="scale(0.001,-0.001)" />

	<path d="M143,0l0,834l138,0L281,0Zm0,985l0,174l138,0l0,-174Z" 
	id="f0_d"
	transform="scale(0.001,-0.001)" />

	<path d="M137.5,0l0,1159.6l139,0l0,-684.5L686,834.2l174.1,0L417.1,444.6L880,0L699.7,0L276.5,407.9L276.5,0Z" 
	id="f0_1a"
	transform="scale(0.001,-0.001)" />

	<path d="M375.8,-21.3c0,0,-67.2,0,-140.5,12.2c0,0,-73.4,12.2,-152.8,39.7l0,140.5c0,0,76.4,-39.7,149.7,-58c0,0,73.4,-19.9,146.7,-19.9c0,0,96.2,0,148.2,32.1c0,0,51.9,33.6,51.9,94.7c0,0,0,55,-36.6,84c0,0,-38.2,30.6,-165,58.1l-48.9,12.2c0,0,-126.8,26,-183.4,81c0,0,-56.5,56.5,-56.5,152.8c0,0,0,119.1,82.5,183.3c0,0,84,64.2,238.3,64.2c0,0,74.9,0,142.1,-10.7c0,0,67.3,-12.3,123.8,-35.2l0,-129.8c0,0,-58.1,30.5,-120.7,44.3c0,0,-62.7,15.2,-129.9,15.2c0,0,-102.3,0,-152.8,-30.5c0,0,-50.4,-32.1,-50.4,-94.7c0,0,0,-47.4,35.2,-74.9c0,0,36.6,-27.5,148.2,-51.9l45.8,-10.7c0,0,146.7,-30.6,207.8,-87.1c0,0,62.6,-58.1,62.6,-160.4c0,0,0,-116.1,-91.7,-183.4c0,0,-93.1,-67.1,-253.6,-67.1Z" 
	id="f0_g"
	transform="scale(0.001,-0.001)" />

	<path d="M178,0l0,189l158,0L336,0Zm0,600l0,189l158,0l0,-189Z" 
	id="f0_n"
	transform="scale(0.001,-0.001)" />

	<path d="M264.3,297.9c0,0,-42.8,0,-79.4,16.8c0,0,-36.7,16.8,-64.2,44.3c0,0,-29,29.1,-44.3,67.3c0,0,-16.8,38.1,-16.8,82.5c0,0,0,41.2,15.3,77.9c0,0,16.8,38.2,44.3,65.7c0,0,29,27.5,65.7,42.7c0,0,36.6,16.8,79.4,16.8c0,0,42.8,0,81,-15.2c0,0,38.2,-16.8,65.7,-44.3c0,0,29,-27.5,45.8,-64.2c0,0,16.8,-38.2,16.8,-79.4c0,0,0,-44.4,-16.8,-82.5c0,0,-16.8,-38.2,-44.3,-65.7c0,0,-29,-29.1,-67.2,-45.9c0,0,-38.2,-16.8,-81,-16.8Z" 
	id="f1_q"
	transform="scale(0.001,-0.001)" />

	<path d="M42.8,0L368.2,436.9L70.3,834.2l161.9,0L453.8,537.8L675.3,834.2l161.9,0L536.3,427.8L854,0L692.1,0L447.6,326.9L204.7,0Z" 
	id="f0_v"
	transform="scale(0.001,-0.001)" />

	<path d="M-13,-359l0,106l790,0l0,-106Z" 
	id="f0_w"
	transform="scale(0.001,-0.001)" />

	<path d="M601.9,99.3c0,0,163.5,0,258.2,122.2c0,0,96.3,123.8,96.3,333.1c0,0,0,210.8,-94.7,333c0,0,-96.3,123.8,-259.8,123.8c0,0,-165,0,-261.2,-122.2c0,0,-96.3,-123.8,-96.3,-334.6c0,0,0,-209.3,96.3,-331.5c0,0,96.2,-123.8,261.2,-123.8Zm0,-120.6c0,0,-235.2,0,-375.8,155.7c0,0,-140.5,155.9,-140.5,420.2c0,0,0,264.3,140.5,421.7c0,0,140.6,157.3,375.8,157.3c0,0,233.8,0,372.8,-157.3c0,0,140.6,-157.4,140.6,-421.7c0,0,0,-262.8,-139,-418.6c0,0,-140.6,-157.3,-374.4,-157.3Z" 
	id="f0_3"
	transform="scale(0.001,-0.001)" />

	<path d="M407.9,93.2c0,0,113.1,0,181.8,79.4c0,0,70.3,81,70.3,215.5l0,30.5l-137.5,0c0,0,-166.5,0,-230.7,-36.7c0,0,-64.2,-38.1,-64.2,-129.8c0,0,0,-73.3,47.4,-116.1c0,0,48.9,-42.8,132.9,-42.8ZM371.3,-21.3c0,0,-128.4,0,-203.2,71.7c0,0,-76.4,71.8,-76.4,192.5c0,0,0,140.6,93.2,212.4c0,0,94.7,71.8,282.6,71.8l192.5,0l0,13.7c0,0,0,94.8,-62.6,145.2c0,0,-62.7,51.9,-175.7,51.9c0,0,-71.8,0,-139.1,-16.8c0,0,-67.2,-16.8,-129.8,-51.9l0,126.8c0,0,74.8,30.5,145.1,44.3c0,0,71.8,15.3,139,15.3c0,0,180.3,0,268.9,-93.2c0,0,90.2,-94.8,90.2,-285.7L796,0L660,0l0,126.8c0,0,-47.4,-76.4,-117.6,-111.5c0,0,-70.3,-36.6,-171.1,-36.6Z" 
	id="f0_k"
	transform="scale(0.001,-0.001)" />

	<path d="M143,0l0,1159l138,0L281,0Z" 
	id="f0_a"
	transform="scale(0.001,-0.001)" />

	<path d="M149.7,0l0,1113.8l224.6,0L658.5,354.4l285.7,759.4l224.6,0L1168.8,0L1020.6,0l0,977.8L733.3,213.9l-151.2,0L294.9,977.8L294.9,0Z" 
	id="f0_1d"
	transform="scale(0.001,-0.001)" />

	<path d="M467.5,94.7c0,0,108.5,0,172.6,85.6c0,0,64.2,87.1,64.2,235.3c0,0,0,149.7,-64.2,235.2c0,0,-64.1,87.1,-172.6,87.1c0,0,-111.5,0,-175.7,-85.5c0,0,-64.2,-85.6,-64.2,-236.8c0,0,0,-149.8,64.2,-235.3c0,0,64.2,-85.6,175.7,-85.6Zm0,-116c0,0,-180.3,0,-281.1,116C186.4,94.7,84,210.8,84,415.6c0,0,0,206.2,100.9,322.3c0,0,102.3,117.7,282.6,117.7c0,0,178.8,0,281.1,-116.2c0,0,102.4,-117.6,102.4,-323.8c0,0,0,-204.8,-102.4,-320.9c0,0,-102.3,-116,-281.1,-116Z" 
	id="f0_7"
	transform="scale(0.001,-0.001)" />

	<path d="M458.3,93.2c0,0,110,0,172.7,85.6c0,0,62.6,85.5,62.6,236.8c0,0,0,152.7,-62.6,238.3c0,0,-62.7,85.5,-172.7,85.5c0,0,-108.4,0,-171.1,-85.5c0,0,-62.6,-85.6,-62.6,-238.3c0,0,0,-151.3,62.6,-236.8c0,0,62.7,-85.6,171.1,-85.6ZM424.7,-21.3c0,0,-151.2,0,-245.9,120.6C178.8,99.3,84,220,84,415.6c0,0,0,197,94.8,317.7c0,0,94.7,122.3,245.9,122.3c0,0,93.2,0,158.9,-36.7c0,0,65.7,-36.7,110,-111.5l0,452.2l136,0L829.6,0l-136,0l0,125.3c0,0,-44.3,-74.9,-110,-110c0,0,-65.7,-36.6,-158.9,-36.6Z" 
	id="f0_h"
	transform="scale(0.001,-0.001)" />

	<path d="M421.7,-21.3c0,0,-143.6,0,-218.5,88.5L128.3,328.5l0,505.7l137.5,0l0,-499.6c0,0,0,-119.2,45.9,-178.8c0,0,47.3,-59.5,139,-59.5c0,0,111.5,0,175.7,70.2c0,0,65.7,71.8,65.7,194.1l0,473.6l136,0L828.1,0l-136,0l0,126.8c0,0,-50.4,-74.9,-116.1,-111.5c0,0,-67.2,-36.6,-154.3,-36.6Z" 
	id="f0_i"
	transform="scale(0.001,-0.001)" />

	<path d="M629.4,-21.3c0,0,-253.6,0,-398.7,154.2c0,0,-145.1,154.3,-145.1,421.7c0,0,0,268.9,145.1,423.2c0,0,145.1,155.8,398.7,155.8c0,0,99.4,0,188,-26c0,0,88.6,-27.5,166.5,-80.9l0,-158.9c0,0,-76.4,71.8,-162,106.9c0,0,-87,35.2,-184.8,35.2c0,0,-191,0,-291.8,-116.1c0,0,-100.9,-117.7,-100.9,-339.2c0,0,0,-220,100.9,-336.1c0,0,100.8,-117.7,291.8,-117.7c0,0,97.8,0,183.3,35.2c0,0,87.1,35.1,163.5,106.9l0,-157.3c0,0,-79.5,-55,-168.1,-81c0,0,-88.6,-25.9,-186.4,-25.9Z" 
	id="f0_15"
	transform="scale(0.001,-0.001)" />

	<path d="M420.1,0c0,0,-158.8,0,-218.4,58.1c0,0,-61.1,59.5,-61.1,216.9l0,453.8l-100.9,0l0,105.4l100.9,0l0,238.3l139,0l0,-238.3l282.6,0l0,-105.4l-282.6,0l0,-453.8c0,0,0,-102.4,27.5,-131.4c0,0,27.5,-29,113,-29l142.1,0L562.2,0Z" 
	id="f0_c"
	transform="scale(0.001,-0.001)" />

	<path d="M508.8,93.2c0,0,110,0,171.1,85.6c0,0,62.6,85.5,62.6,236.8c0,0,0,152.7,-61.1,238.3c0,0,-62.6,85.5,-172.6,85.5c0,0,-108.5,0,-169.6,-85.5c0,0,-62.7,-85.6,-62.7,-238.3c0,0,0,-151.3,61.1,-236.8c0,0,62.7,-85.6,171.2,-85.6ZM542.4,-21.3c0,0,-91.7,0,-157.4,35.1c0,0,-65.7,36.6,-108.5,111.5L276.5,0l-139,0l0,1159.6l139,0l0,-452.2c0,0,42.8,74.8,108.5,111.5c0,0,65.7,36.7,157.4,36.7c0,0,152.7,0,247.5,-120.7c0,0,96.2,-122.3,96.2,-319.3c0,0,0,-195.6,-94.7,-316.3c0,0,-96.3,-120.6,-249,-120.6Z" 
	id="f0_m"
	transform="scale(0.001,-0.001)" />

	<path d="M-27.4,-317.7l0,117.7l35,0c0,0,79.5,0,107,35.1c0,0,29,36.7,29,151.2l0,847.9l137.5,0l0,-847.9c0,0,0,-160.4,-61.1,-232.2c0,0,-61.1,-71.8,-195.6,-71.8Zm171,1303.1l0,174.2l137.5,0l0,-174.2Z" 
	id="f0_1q"
	transform="scale(0.001,-0.001)" />

	<path d="M559.2,-21.3c0,0,-210.9,0,-319.3,109.9c0,0,-108.5,111.5,-108.5,328.5l0,696.7l152.8,0l0,-676.9c0,0,0,-180.2,64.1,-258.1c0,0,64.2,-79.5,210.9,-79.5c0,0,143.6,0,207.7,77.9c0,0,65.7,79.5,65.7,259.7l0,676.9l152.8,0l0,-696.7c0,0,0,-217,-108.5,-327c0,0,-108.4,-111.4,-317.7,-111.4Z" 
	id="f0_p"
	transform="scale(0.001,-0.001)" />

	<path d="M458.3,114.6c0,0,111.6,0,172.7,81c0,0,62.6,82.5,62.6,230.7c0,0,0,149.7,-61.1,230.6c0,0,-62.6,82.5,-174.2,82.5c0,0,-110,0,-171.1,-80.9c0,0,-62.6,-82.5,-62.6,-232.2c0,0,0,-148.2,61.1,-229.2c0,0,62.6,-82.5,172.6,-82.5ZM444.6,-317.7c0,0,-71.8,0,-136,10.7c0,0,-64.2,12.2,-123.7,33.6l0,134.5c0,0,59.5,-33.6,117.6,-48.9c0,0,59.6,-15.3,120.7,-15.3c0,0,136,0,203.2,70.3c0,0,67.2,70.3,67.2,210.7l0,68.8c0,0,-42.8,-74.9,-108.5,-110C585.1,36.7,517.9,0,424.7,0c0,0,-152.8,0,-245.9,116.1c0,0,-94.8,117.7,-94.8,310.2c0,0,0,194,93.2,311.6c0,0,94.7,117.7,247.5,117.7c0,0,93.2,0,158.9,-36.7c0,0,67.2,-36.7,110,-111.5l0,126.8l136,0l0,-731.8c0,0,0,-210.8,-94.7,-314.7c0,0,-94.8,-105.4,-290.3,-105.4Z" 
	id="f0_x"
	transform="scale(0.001,-0.001)" />

	<path d="M488.9,571.4c0,0,105.4,0,161.9,53.5c0,0,58.1,55,58.1,155.8c0,0,0,99.3,-56.5,152.8c0,0,-58.1,55,-163.5,55l-189.5,0l0,-417.1ZM149.7,0l0,1113.8l339.2,0c0,0,187.9,0,282.6,-84.1c0,0,96.3,-85.5,96.3,-249c0,0,0,-165,-94.7,-249c0,0,-96.3,-85.6,-284.2,-85.6l-189.5,0L299.4,0Z" 
	id="f0_s"
	transform="scale(0.001,-0.001)" />

	<path d="M120.7,-317.7l0,116.1l79.4,0c0,0,56.6,0,87.1,26c0,0,32.1,27.5,70.3,126.8l24.4,61L44.3,834.2l145.1,0L450.7,181.8L711.9,834.2l146.7,0L490.4,-76.3c0,0,-58,-149.7,-113,-195.5c0,0,-55,-45.9,-148.2,-45.9Z" 
	id="f0_r"
	transform="scale(0.001,-0.001)" />

	<path d="M137.5,0l0,1159.6l139,0l0,-455.3c0,0,48.9,76.4,114.6,113.1c0,0,67.2,38.2,154.3,38.2c0,0,145.2,0,218.5,-88.7c0,0,73.3,-90.1,73.3,-262.7L837.2,0L699.7,0l0,499.6c0,0,0,117.6,-45.8,175.7c0,0,-45.8,59.6,-139,59.6c0,0,-110,0,-174.2,-70.3c0,0,-64.2,-70.3,-64.2,-192.5L276.5,0Z" 
	id="f0_f"
	transform="scale(0.001,-0.001)" />

	<path d="M328.5,0L50.4,1113.8l151.3,0L436.9,171.1l232.3,942.7l169.6,0L1074,171.1l232.3,942.7l154.3,0L1179.4,0L990,0L756.3,965.6L517.9,0Z" 
	id="f0_1e"
	transform="scale(0.001,-0.001)" />

	<path d="M481.3,123.8c0,0,230.6,0,337.6,103.8c0,0,106.9,103.9,106.9,330c0,0,0,223.1,-106.9,327c0,0,-107,103.9,-337.6,103.9l-181.9,0l0,-864.7ZM149.7,0l0,1113.8l308.6,0c0,0,323.9,0,475.2,-134.5c0,0,151.2,-136,151.2,-421.7c0,0,0,-288.7,-151.2,-423.2C933.5,134.4,780.7,0,458.3,0Z" 
	id="f0_16"
	transform="scale(0.001,-0.001)" />

	<path d="M189.4,0l0,126.8l246,0l0,849.5L166.5,922.8l0,136l267.4,55l149.7,0l0,-987l246,0L829.6,0Z" 
	id="f0_2"
	transform="scale(0.001,-0.001)" />


</defs>
</svg>