<?xml version="1.0" encoding="UTF-8" standalone="no"?>
<!DOCTYPE svg PUBLIC "-//W3C//DTD SVG 1.1//EN"
"http://www.w3.org/Graphics/SVG/1.1/DTD/svg11.dtd">
<svg viewBox="0 0 1155 1210" version="1.1" xmlns="http://www.w3.org/2000/svg" xmlns:xlink="http://www.w3.org/1999/xlink">
<defs>
<clipPath id="c0_58"><path d="M0.5,1210.5L0.5,0.5l1155,0l0,1210Z" /></clipPath>
<style type="text/css"><![CDATA[
.g1_58{
fill: #FFFFFF;
}
]]></style>
</defs>
<path fill-rule="evenodd" d="M0,0L1155,0l0,1210L0,1210L0,0Z" class="g1_58" />
<path fill-rule="evenodd" d="M0,0L1155,0l0,1210L0,1210L0,0Z" class="g1_58" />
<image x="790" y="1140" width="319" height="55" xlink:href="img/1.png" />
<g clip-path="url(#c0_58)">
<g fill="#626262" >
<use xlink:href="#f0_q" transform="matrix(12,0,0,12,47.7,32.1)" />
<use xlink:href="#f1_15" transform="matrix(12,0,0,12,73.9,33.2)" />
<use xlink:href="#f1_7" transform="matrix(12,0,0,12,86.8,33.2)" />
<use xlink:href="#f1_4" transform="matrix(12,0,0,12,97.9,33.2)" />
<use xlink:href="#f1_g" transform="matrix(12,0,0,12,109.5,33.2)" />
<use xlink:href="#f1_d" transform="matrix(12,0,0,12,119,33.2)" />
<use xlink:href="#f1_h" transform="matrix(12,0,0,12,124.2,33.2)" />
<use xlink:href="#f1_b" transform="matrix(12,0,0,12,135.9,33.2)" />
<use xlink:href="#f1_l" transform="matrix(12,0,0,12,147.2,33.2)" />
<use xlink:href="#f1_c" transform="matrix(12,0,0,12,160.8,33.2)" />
<use xlink:href="#f1_f" transform="matrix(12,0,0,12,168,33.2)" />
<use xlink:href="#f1_b" transform="matrix(12,0,0,12,179.4,33.2)" />
<use xlink:href="#f1_9" transform="matrix(12,0,0,12,196.7,33.2)" />
<use xlink:href="#f1_l" transform="matrix(12,0,0,12,208.1,33.2)" />
<use xlink:href="#f1_b" transform="matrix(12,0,0,12,215.3,33.2)" />
<use xlink:href="#f1_q" transform="matrix(12,0,0,12,226.8,33.2)" />
<use xlink:href="#f1_d" transform="matrix(12,0,0,12,237.4,33.2)" />
<use xlink:href="#f1_7" transform="matrix(12,0,0,12,242.6,33.2)" />
<use xlink:href="#f1_i" transform="matrix(12,0,0,12,253.8,33.2)" />
<use xlink:href="#f1_g" transform="matrix(12,0,0,12,265.4,33.2)" />
<use xlink:href="#f1_b" transform="matrix(12,0,0,12,280.8,33.2)" />
<use xlink:href="#f1_v" transform="matrix(12,0,0,12,291.8,33.2)" />
<use xlink:href="#f1_k" transform="matrix(12,0,0,12,302.5,33.2)" />
<use xlink:href="#f1_8" transform="matrix(12,0,0,12,313.9,33.2)" />
<use xlink:href="#f1_9" transform="matrix(12,0,0,12,331.6,33.2)" />
<use xlink:href="#f1_a" transform="matrix(12,0,0,12,343.2,33.2)" />
<use xlink:href="#f1_b" transform="matrix(12,0,0,12,348.4,33.2)" />
<use xlink:href="#f1_7" transform="matrix(12,0,0,12,365.5,33.2)" />
<use xlink:href="#f1_e" transform="matrix(12,0,0,12,376.8,33.2)" />
<use xlink:href="#f1_h" transform="matrix(12,0,0,12,389,33.2)" />
<use xlink:href="#f1_b" transform="matrix(12,0,0,12,400.8,33.2)" />
<use xlink:href="#f1_a" transform="matrix(12,0,0,12,412.1,33.2)" />
<use xlink:href="#f1_b" transform="matrix(12,0,0,12,417.3,33.2)" />
<use xlink:href="#f1_c" transform="matrix(12,0,0,12,428.5,33.2)" />
<use xlink:href="#f1_d" transform="matrix(12,0,0,12,435.7,33.2)" />
<use xlink:href="#f1_4" transform="matrix(12,0,0,12,440.8,33.2)" />
<use xlink:href="#f1_x" transform="matrix(12,0,0,12,452.4,33.2)" />
<use xlink:href="#f1_k" transform="matrix(12,0,0,12,469.9,33.2)" />
<use xlink:href="#f1_l" transform="matrix(12,0,0,12,487.2,33.2)" />
<use xlink:href="#f1_b" transform="matrix(12,0,0,12,494.4,33.2)" />
<use xlink:href="#f1_6" transform="matrix(12,0,0,12,505.7,33.2)" />
<use xlink:href="#f1_7" transform="matrix(12,0,0,12,515.9,33.2)" />
<use xlink:href="#f1_l" transform="matrix(12,0,0,12,527.2,33.2)" />
<use xlink:href="#f1_h" transform="matrix(12,0,0,12,534.5,33.2)" />
<use xlink:href="#f1_e" transform="matrix(12,0,0,12,552.1,33.2)" />
<use xlink:href="#f1_7" transform="matrix(12,0,0,12,558.5,33.2)" />
<use xlink:href="#f1_l" transform="matrix(12,0,0,12,569.6,33.2)" />
<use xlink:href="#f1_k" transform="matrix(12,0,0,12,583.2,33.2)" />
<use xlink:href="#f1_g" transform="matrix(12,0,0,12,600.4,33.2)" />
<use xlink:href="#f1_9" transform="matrix(12,0,0,12,609.9,33.2)" />
<use xlink:href="#f1_b" transform="matrix(12,0,0,12,621.5,33.2)" />
<use xlink:href="#f1_6" transform="matrix(12,0,0,12,632.8,33.2)" />
<use xlink:href="#f1_d" transform="matrix(12,0,0,12,643,33.2)" />
<use xlink:href="#f1_1s" transform="matrix(12,0,0,12,648.2,33.2)" />
<use xlink:href="#f1_6" transform="matrix(12,0,0,12,659.7,33.2)" />
<use xlink:href="#f1_g" transform="matrix(12,0,0,12,675.8,33.2)" />
<use xlink:href="#f1_i" transform="matrix(12,0,0,12,685.5,33.2)" />
<use xlink:href="#f1_9" transform="matrix(12,0,0,12,696.9,33.2)" />
<use xlink:href="#f1_9" transform="matrix(12,0,0,12,708.5,33.2)" />
<use xlink:href="#f1_a" transform="matrix(12,0,0,12,720,33.2)" />
<use xlink:href="#f1_d" transform="matrix(12,0,0,12,725.1,33.2)" />
<use xlink:href="#f1_b" transform="matrix(12,0,0,12,730.2,33.2)" />
<use xlink:href="#f1_l" transform="matrix(12,0,0,12,741.6,33.2)" />
<use xlink:href="#f1_1c" transform="matrix(12,0,0,12,747.4,33.2)" />
<use xlink:href="#f1_1e" transform="matrix(12,0,0,12,759.2,33.2)" />
<use xlink:href="#f1_b" transform="matrix(12,0,0,12,776.3,33.2)" />
<use xlink:href="#f1_i" transform="matrix(12,0,0,12,793.5,33.2)" />
<use xlink:href="#f1_g" transform="matrix(12,0,0,12,805,33.2)" />
<use xlink:href="#f1_b" transform="matrix(12,0,0,12,814.5,33.2)" />
<use xlink:href="#f1_c" transform="matrix(12,0,0,12,831.7,33.2)" />
<use xlink:href="#f1_f" transform="matrix(12,0,0,12,838.9,33.2)" />
<use xlink:href="#f1_b" transform="matrix(12,0,0,12,850.5,33.2)" />
<use xlink:href="#f1_e" transform="matrix(12,0,0,12,867.6,33.2)" />
<use xlink:href="#f1_7" transform="matrix(12,0,0,12,874,33.2)" />
<use xlink:href="#f1_a" transform="matrix(12,0,0,12,885.3,33.2)" />
<use xlink:href="#f1_a" transform="matrix(12,0,0,12,890.4,33.2)" />
<use xlink:href="#f1_7" transform="matrix(12,0,0,12,895.5,33.2)" />
<use xlink:href="#f1_12" transform="matrix(12,0,0,12,906.7,33.2)" />
<use xlink:href="#f1_d" transform="matrix(12,0,0,12,921.8,33.2)" />
<use xlink:href="#f1_4" transform="matrix(12,0,0,12,926.8,33.2)" />
<use xlink:href="#f1_x" transform="matrix(12,0,0,12,938.4,33.2)" />
<use xlink:href="#f1_6" transform="matrix(12,0,0,12,956,33.2)" />
<use xlink:href="#f1_7" transform="matrix(12,0,0,12,966.2,33.2)" />
<use xlink:href="#f1_h" transform="matrix(12,0,0,12,977.3,33.2)" />
<use xlink:href="#f1_b" transform="matrix(12,0,0,12,989.1,33.2)" />
<use xlink:href="#f1_n" transform="matrix(12,0,0,12,1000.4,33.2)" />
<use xlink:href="#f0_q" transform="matrix(12,0,0,12,47.7,327.3)" />
<use xlink:href="#f1_1h" transform="matrix(12,0,0,12,73.9,328.3)" />
<use xlink:href="#f1_g" transform="matrix(12,0,0,12,86.5,328.3)" />
<use xlink:href="#f1_g" transform="matrix(12,0,0,12,95.9,328.3)" />
<use xlink:href="#f1_i" transform="matrix(12,0,0,12,105.4,328.3)" />
<use xlink:href="#f1_8" transform="matrix(12,0,0,12,117,328.3)" />
<use xlink:href="#f1_b" transform="matrix(12,0,0,12,134.8,328.3)" />
<use xlink:href="#f1_c" transform="matrix(12,0,0,12,153.8,328.3)" />
<use xlink:href="#f1_f" transform="matrix(12,0,0,12,161,328.3)" />
<use xlink:href="#f1_k" transform="matrix(12,0,0,12,172.5,328.3)" />
<use xlink:href="#f1_c" transform="matrix(12,0,0,12,183.9,328.3)" />
<use xlink:href="#f1_12" transform="matrix(12,0,0,12,198.7,328.3)" />
<use xlink:href="#f1_f" transform="matrix(12,0,0,12,213.7,328.3)" />
<use xlink:href="#f1_d" transform="matrix(12,0,0,12,225.3,328.3)" />
<use xlink:href="#f1_a" transform="matrix(12,0,0,12,230.5,328.3)" />
<use xlink:href="#f1_b" transform="matrix(12,0,0,12,235.5,328.3)" />
<use xlink:href="#f1_12" transform="matrix(12,0,0,12,254.6,328.3)" />
<use xlink:href="#f1_l" transform="matrix(12,0,0,12,269.6,328.3)" />
<use xlink:href="#f1_d" transform="matrix(12,0,0,12,277.3,328.3)" />
<use xlink:href="#f1_c" transform="matrix(12,0,0,12,282.4,328.3)" />
<use xlink:href="#f1_d" transform="matrix(12,0,0,12,289.6,328.3)" />
<use xlink:href="#f1_4" transform="matrix(12,0,0,12,294.7,328.3)" />
<use xlink:href="#f1_x" transform="matrix(12,0,0,12,306.2,328.3)" />
<use xlink:href="#f1_c" transform="matrix(12,0,0,12,325.6,328.3)" />
<use xlink:href="#f1_f" transform="matrix(12,0,0,12,332.8,328.3)" />
<use xlink:href="#f1_b" transform="matrix(12,0,0,12,344.4,328.3)" />
<use xlink:href="#f1_k" transform="matrix(12,0,0,12,363.3,328.3)" />
<use xlink:href="#f1_m" transform="matrix(12,0,0,12,374.7,328.3)" />
<use xlink:href="#f1_7" transform="matrix(12,0,0,12,386.2,328.3)" />
<use xlink:href="#f1_q" transform="matrix(12,0,0,12,397.3,328.3)" />
<use xlink:href="#f1_b" transform="matrix(12,0,0,12,408.2,328.3)" />
<use xlink:href="#f1_13" transform="matrix(12,0,0,12,427.2,328.3)" />
<use xlink:href="#f1_i" transform="matrix(12,0,0,12,439,328.3)" />
<use xlink:href="#f1_b" transform="matrix(12,0,0,12,450.4,328.3)" />
<use xlink:href="#f1_l" transform="matrix(12,0,0,12,461.9,328.3)" />
<use xlink:href="#f1_r" transform="matrix(12,0,0,12,469.5,328.3)" />
<use xlink:href="#f1_12" transform="matrix(12,0,0,12,488,328.3)" />
<use xlink:href="#f1_b" transform="matrix(12,0,0,12,502.9,328.3)" />
<use xlink:href="#f1_8" transform="matrix(12,0,0,12,522,328.3)" />
<use xlink:href="#f1_d" transform="matrix(12,0,0,12,539.7,328.3)" />
<use xlink:href="#f1_g" transform="matrix(12,0,0,12,544.9,328.3)" />
<use xlink:href="#f1_c" transform="matrix(12,0,0,12,554.4,328.3)" />
<use xlink:href="#f1_k" transform="matrix(12,0,0,12,561.6,328.3)" />
<use xlink:href="#f1_1a" transform="matrix(12,0,0,12,572.9,328.3)" />
<use xlink:href="#f1_b" transform="matrix(12,0,0,12,582.8,328.3)" />
<use xlink:href="#f1_4" transform="matrix(12,0,0,12,594.1,328.3)" />
<use xlink:href="#f1_a" transform="matrix(12,0,0,12,605.7,328.3)" />
<use xlink:href="#f1_r" transform="matrix(12,0,0,12,610.9,328.3)" />
<use xlink:href="#f1_8" transform="matrix(12,0,0,12,629.3,328.3)" />
<use xlink:href="#f1_b" transform="matrix(12,0,0,12,647.1,328.3)" />
<use xlink:href="#f1_4" transform="matrix(12,0,0,12,658.4,328.3)" />
<use xlink:href="#f1_c" transform="matrix(12,0,0,12,670,328.3)" />
<use xlink:href="#f1_d" transform="matrix(12,0,0,12,677.1,328.3)" />
<use xlink:href="#f1_7" transform="matrix(12,0,0,12,682.2,328.3)" />
<use xlink:href="#f1_4" transform="matrix(12,0,0,12,693.3,328.3)" />
<use xlink:href="#f1_b" transform="matrix(12,0,0,12,704.9,328.3)" />
<use xlink:href="#f1_h" transform="matrix(12,0,0,12,716.4,328.3)" />
<use xlink:href="#f1_d" transform="matrix(12,0,0,12,735.6,328.3)" />
<use xlink:href="#f1_4" transform="matrix(12,0,0,12,740.8,328.3)" />
<use xlink:href="#f1_6" transform="matrix(12,0,0,12,752.2,328.3)" />
<use xlink:href="#f1_7" transform="matrix(12,0,0,12,762.6,328.3)" />
<use xlink:href="#f1_l" transform="matrix(12,0,0,12,773.8,328.3)" />
<use xlink:href="#f1_l" transform="matrix(12,0,0,12,781.1,328.3)" />
<use xlink:href="#f1_b" transform="matrix(12,0,0,12,788.3,328.3)" />
<use xlink:href="#f1_6" transform="matrix(12,0,0,12,799.6,328.3)" />
<use xlink:href="#f1_c" transform="matrix(12,0,0,12,809.8,328.3)" />
<use xlink:href="#f1_6" transform="matrix(12,0,0,12,824.6,328.3)" />
<use xlink:href="#f1_7" transform="matrix(12,0,0,12,834.8,328.3)" />
<use xlink:href="#f1_a" transform="matrix(12,0,0,12,846,328.3)" />
<use xlink:href="#f1_i" transform="matrix(12,0,0,12,851.1,328.3)" />
<use xlink:href="#f1_8" transform="matrix(12,0,0,12,862.7,328.3)" />
<use xlink:href="#f1_4" transform="matrix(12,0,0,12,880.5,328.3)" />
<use xlink:href="#f1_4" transform="matrix(12,0,0,12,899.7,328.3)" />
<use xlink:href="#f1_k" transform="matrix(12,0,0,12,911.2,328.3)" />
<use xlink:href="#f1_8" transform="matrix(12,0,0,12,922.6,328.3)" />
<use xlink:href="#f1_b" transform="matrix(12,0,0,12,940.3,328.3)" />
</g>
<g fill="#C00000" >
<use xlink:href="#f1_24" transform="matrix(12,0,0,12,960.1,328.3)" />
<use xlink:href="#f1_g" transform="matrix(12,0,0,12,965.1,328.3)" />
<use xlink:href="#f1_i" transform="matrix(12,0,0,12,974.7,328.3)" />
<use xlink:href="#f1_9" transform="matrix(12,0,0,12,986.1,328.3)" />
<use xlink:href="#f1_9" transform="matrix(12,0,0,12,997.7,328.3)" />
<use xlink:href="#f1_a" transform="matrix(12,0,0,12,1009.2,328.3)" />
<use xlink:href="#f1_d" transform="matrix(12,0,0,12,1014.4,328.3)" />
<use xlink:href="#f1_b" transform="matrix(12,0,0,12,1019.5,328.3)" />
<use xlink:href="#f1_l" transform="matrix(12,0,0,12,1030.8,328.3)" />
<use xlink:href="#f1_w" transform="matrix(12,0,0,12,1038.5,328.3)" />
<use xlink:href="#f1_d" transform="matrix(12,0,0,12,1047.6,328.3)" />
<use xlink:href="#f1_h" transform="matrix(12,0,0,12,1052.8,328.3)" />
<use xlink:href="#f1_24" transform="matrix(12,0,0,12,1064.6,328.3)" />
</g>
<g fill="#000000" >
<use xlink:href="#f1_1c" transform="matrix(12,0,0,12,1069.8,328.3)" />
</g>
<g fill="#626262" >
<use xlink:href="#f1_d" transform="matrix(12,0,0,12,73.9,372.8)" />
<use xlink:href="#f1_4" transform="matrix(12,0,0,12,79.1,372.8)" />
<use xlink:href="#f1_g" transform="matrix(12,0,0,12,90.6,372.8)" />
<use xlink:href="#f1_c" transform="matrix(12,0,0,12,100.1,372.8)" />
<use xlink:href="#f1_b" transform="matrix(12,0,0,12,107.2,372.8)" />
<use xlink:href="#f1_k" transform="matrix(12,0,0,12,118.7,372.8)" />
<use xlink:href="#f1_h" transform="matrix(12,0,0,12,130,372.8)" />
<use xlink:href="#f1_7" transform="matrix(12,0,0,12,147.5,372.8)" />
<use xlink:href="#f1_e" transform="matrix(12,0,0,12,158.7,372.8)" />
<use xlink:href="#f1_k" transform="matrix(12,0,0,12,171,372.8)" />
<use xlink:href="#f1_6" transform="matrix(12,0,0,12,182.3,372.8)" />
<use xlink:href="#f1_c" transform="matrix(12,0,0,12,192.5,372.8)" />
<use xlink:href="#f1_i" transform="matrix(12,0,0,12,199.7,372.8)" />
<use xlink:href="#f1_k" transform="matrix(12,0,0,12,211.3,372.8)" />
<use xlink:href="#f1_a" transform="matrix(12,0,0,12,222.6,372.8)" />
<use xlink:href="#f1_6" transform="matrix(12,0,0,12,233.6,372.8)" />
<use xlink:href="#f1_7" transform="matrix(12,0,0,12,244,372.8)" />
<use xlink:href="#f1_a" transform="matrix(12,0,0,12,255.1,372.8)" />
<use xlink:href="#f1_i" transform="matrix(12,0,0,12,260.2,372.8)" />
<use xlink:href="#f1_8" transform="matrix(12,0,0,12,271.8,372.8)" />
<use xlink:href="#f1_4" transform="matrix(12,0,0,12,289.5,372.8)" />
<use xlink:href="#f1_4" transform="matrix(12,0,0,12,306.9,372.8)" />
<use xlink:href="#f1_k" transform="matrix(12,0,0,12,318.5,372.8)" />
<use xlink:href="#f1_8" transform="matrix(12,0,0,12,329.8,372.8)" />
<use xlink:href="#f1_b" transform="matrix(12,0,0,12,347.7,372.8)" />
</g>
<g fill="#C00000" >
<use xlink:href="#f1_24" transform="matrix(12,0,0,12,365.1,372.8)" />
<use xlink:href="#f1_g" transform="matrix(12,0,0,12,370.2,372.8)" />
<use xlink:href="#f1_i" transform="matrix(12,0,0,12,379.8,372.8)" />
<use xlink:href="#f1_9" transform="matrix(12,0,0,12,391.2,372.8)" />
<use xlink:href="#f1_9" transform="matrix(12,0,0,12,402.8,372.8)" />
<use xlink:href="#f1_a" transform="matrix(12,0,0,12,414.3,372.8)" />
<use xlink:href="#f1_d" transform="matrix(12,0,0,12,419.5,372.8)" />
<use xlink:href="#f1_b" transform="matrix(12,0,0,12,424.6,372.8)" />
<use xlink:href="#f1_l" transform="matrix(12,0,0,12,435.9,372.8)" />
<use xlink:href="#f1_d" transform="matrix(12,0,0,12,443.6,372.8)" />
<use xlink:href="#f1_h" transform="matrix(12,0,0,12,448.7,372.8)" />
<use xlink:href="#f1_24" transform="matrix(12,0,0,12,460.5,372.8)" />
</g>
<g fill="#000000" >
<use xlink:href="#f1_1c" transform="matrix(12,0,0,12,465.7,372.8)" />
</g>
<g fill="#626262" >
<use xlink:href="#f1_1e" transform="matrix(12,0,0,12,477.4,372.8)" />
<use xlink:href="#f1_f" transform="matrix(12,0,0,12,495.6,372.8)" />
<use xlink:href="#f1_k" transform="matrix(12,0,0,12,507.2,372.8)" />
<use xlink:href="#f1_c" transform="matrix(12,0,0,12,518.5,372.8)" />
<use xlink:href="#f1_12" transform="matrix(12,0,0,12,531.5,372.8)" />
<use xlink:href="#f1_d" transform="matrix(12,0,0,12,546.6,372.8)" />
<use xlink:href="#f1_a" transform="matrix(12,0,0,12,551.6,372.8)" />
<use xlink:href="#f1_a" transform="matrix(12,0,0,12,556.8,372.8)" />
<use xlink:href="#f1_f" transform="matrix(12,0,0,12,567.8,372.8)" />
<use xlink:href="#f1_k" transform="matrix(12,0,0,12,579.3,372.8)" />
<use xlink:href="#f1_9" transform="matrix(12,0,0,12,590.7,372.8)" />
<use xlink:href="#f1_9" transform="matrix(12,0,0,12,602.2,372.8)" />
<use xlink:href="#f1_b" transform="matrix(12,0,0,12,613.8,372.8)" />
<use xlink:href="#f1_4" transform="matrix(12,0,0,12,625.1,372.8)" />
<use xlink:href="#f1_d" transform="matrix(12,0,0,12,642.5,372.8)" />
<use xlink:href="#f1_4" transform="matrix(12,0,0,12,647.6,372.8)" />
<use xlink:href="#f1_c" transform="matrix(12,0,0,12,665,372.8)" />
<use xlink:href="#f1_f" transform="matrix(12,0,0,12,672.2,372.8)" />
<use xlink:href="#f1_d" transform="matrix(12,0,0,12,683.7,372.8)" />
<use xlink:href="#f1_g" transform="matrix(12,0,0,12,688.9,372.8)" />
<use xlink:href="#f1_g" transform="matrix(12,0,0,12,704.3,372.8)" />
<use xlink:href="#f1_6" transform="matrix(12,0,0,12,713.7,372.8)" />
<use xlink:href="#f1_b" transform="matrix(12,0,0,12,724,372.8)" />
<use xlink:href="#f1_4" transform="matrix(12,0,0,12,735.4,372.8)" />
<use xlink:href="#f1_k" transform="matrix(12,0,0,12,746.9,372.8)" />
<use xlink:href="#f1_l" transform="matrix(12,0,0,12,758.3,372.8)" />
<use xlink:href="#f1_d" transform="matrix(12,0,0,12,765.9,372.8)" />
<use xlink:href="#f1_7" transform="matrix(12,0,0,12,771.1,372.8)" />
<use xlink:href="#f1_1f" transform="matrix(12,0,0,12,782.2,372.8)" />
<use xlink:href="#f0_q" transform="matrix(12,0,0,12,47.7,430.7)" />
<use xlink:href="#f1_1g" transform="matrix(12,0,0,12,73.9,431.8)" />
<use xlink:href="#f1_l" transform="matrix(12,0,0,12,82.5,431.8)" />
<use xlink:href="#f1_r" transform="matrix(12,0,0,12,90.3,431.8)" />
<use xlink:href="#f1_c" transform="matrix(12,0,0,12,106.9,431.8)" />
<use xlink:href="#f1_7" transform="matrix(12,0,0,12,114.1,431.8)" />
<use xlink:href="#f1_b" transform="matrix(12,0,0,12,131.1,431.8)" />
<use xlink:href="#f1_v" transform="matrix(12,0,0,12,142.1,431.8)" />
<use xlink:href="#f1_b" transform="matrix(12,0,0,12,152.2,431.8)" />
<use xlink:href="#f1_6" transform="matrix(12,0,0,12,163.6,431.8)" />
<use xlink:href="#f1_i" transform="matrix(12,0,0,12,173.8,431.8)" />
<use xlink:href="#f1_c" transform="matrix(12,0,0,12,185.4,431.8)" />
<use xlink:href="#f1_b" transform="matrix(12,0,0,12,192.4,431.8)" />
<use xlink:href="#f1_c" transform="matrix(12,0,0,12,209.7,431.8)" />
<use xlink:href="#f1_f" transform="matrix(12,0,0,12,216.9,431.8)" />
<use xlink:href="#f1_d" transform="matrix(12,0,0,12,228.5,431.8)" />
<use xlink:href="#f1_g" transform="matrix(12,0,0,12,233.5,431.8)" />
<use xlink:href="#f1_1c" transform="matrix(12,0,0,12,243,431.8)" />
<use xlink:href="#f1_1t" transform="matrix(12,0,0,12,254.7,431.8)" />
<use xlink:href="#f1_7" transform="matrix(12,0,0,12,263.5,431.8)" />
<use xlink:href="#f1_i" transform="matrix(12,0,0,12,274.6,431.8)" />
<use xlink:href="#f1_12" transform="matrix(12,0,0,12,292,431.8)" />
<use xlink:href="#f1_d" transform="matrix(12,0,0,12,307,431.8)" />
<use xlink:href="#f1_a" transform="matrix(12,0,0,12,312.1,431.8)" />
<use xlink:href="#f1_a" transform="matrix(12,0,0,12,317.3,431.8)" />
<use xlink:href="#f1_x" transform="matrix(12,0,0,12,328.3,431.8)" />
<use xlink:href="#f1_b" transform="matrix(12,0,0,12,339.9,431.8)" />
<use xlink:href="#f1_c" transform="matrix(12,0,0,12,351.3,431.8)" />
<use xlink:href="#f1_c" transform="matrix(12,0,0,12,364.3,431.8)" />
<use xlink:href="#f1_f" transform="matrix(12,0,0,12,371.5,431.8)" />
<use xlink:href="#f1_b" transform="matrix(12,0,0,12,383,431.8)" />
<use xlink:href="#f1_e" transform="matrix(12,0,0,12,400.2,431.8)" />
<use xlink:href="#f1_7" transform="matrix(12,0,0,12,406.6,431.8)" />
<use xlink:href="#f1_a" transform="matrix(12,0,0,12,417.8,431.8)" />
<use xlink:href="#f1_a" transform="matrix(12,0,0,12,422.9,431.8)" />
<use xlink:href="#f1_7" transform="matrix(12,0,0,12,428,431.8)" />
<use xlink:href="#f1_12" transform="matrix(12,0,0,12,439.3,431.8)" />
<use xlink:href="#f1_d" transform="matrix(12,0,0,12,454.3,431.8)" />
<use xlink:href="#f1_4" transform="matrix(12,0,0,12,459.4,431.8)" />
<use xlink:href="#f1_x" transform="matrix(12,0,0,12,470.9,431.8)" />
<use xlink:href="#f1_b" transform="matrix(12,0,0,12,488.4,431.8)" />
<use xlink:href="#f1_v" transform="matrix(12,0,0,12,499.4,431.8)" />
<use xlink:href="#f1_6" transform="matrix(12,0,0,12,510,431.8)" />
<use xlink:href="#f1_b" transform="matrix(12,0,0,12,520.2,431.8)" />
<use xlink:href="#f1_9" transform="matrix(12,0,0,12,531.6,431.8)" />
<use xlink:href="#f1_c" transform="matrix(12,0,0,12,543.1,431.8)" />
<use xlink:href="#f1_d" transform="matrix(12,0,0,12,550.3,431.8)" />
<use xlink:href="#f1_7" transform="matrix(12,0,0,12,555.3,431.8)" />
<use xlink:href="#f1_4" transform="matrix(12,0,0,12,566.6,431.8)" />
<use xlink:href="#f1_12" transform="matrix(12,0,0,12,584,431.8)" />
<use xlink:href="#f1_f" transform="matrix(12,0,0,12,599,431.8)" />
<use xlink:href="#f1_d" transform="matrix(12,0,0,12,610.6,431.8)" />
<use xlink:href="#f1_a" transform="matrix(12,0,0,12,615.6,431.8)" />
<use xlink:href="#f1_b" transform="matrix(12,0,0,12,620.8,431.8)" />
<use xlink:href="#f1_b" transform="matrix(12,0,0,12,638,431.8)" />
<use xlink:href="#f1_v" transform="matrix(12,0,0,12,649,431.8)" />
<use xlink:href="#f1_b" transform="matrix(12,0,0,12,659.1,431.8)" />
<use xlink:href="#f1_6" transform="matrix(12,0,0,12,670.4,431.8)" />
<use xlink:href="#f1_i" transform="matrix(12,0,0,12,680.6,431.8)" />
<use xlink:href="#f1_c" transform="matrix(12,0,0,12,692.2,431.8)" />
<use xlink:href="#f1_d" transform="matrix(12,0,0,12,699.4,431.8)" />
<use xlink:href="#f1_4" transform="matrix(12,0,0,12,704.5,431.8)" />
<use xlink:href="#f1_x" transform="matrix(12,0,0,12,716.1,431.8)" />
<use xlink:href="#f1_c" transform="matrix(12,0,0,12,733.6,431.8)" />
<use xlink:href="#f1_f" transform="matrix(12,0,0,12,740.8,431.8)" />
<use xlink:href="#f1_b" transform="matrix(12,0,0,12,752.3,431.8)" />
<use xlink:href="#f1_13" transform="matrix(12,0,0,12,769.5,431.8)" />
<use xlink:href="#f1_i" transform="matrix(12,0,0,12,781.3,431.8)" />
<use xlink:href="#f1_b" transform="matrix(12,0,0,12,792.9,431.8)" />
<use xlink:href="#f1_l" transform="matrix(12,0,0,12,804.2,431.8)" />
<use xlink:href="#f1_r" transform="matrix(12,0,0,12,812,431.8)" />
<use xlink:href="#f1_n" transform="matrix(12,0,0,12,821.3,431.8)" />
</g>
<g fill="#C00000" >
<use xlink:href="#f2_2" transform="matrix(12,0,0,12,102.7,490.9)" />
<use xlink:href="#f2_3" transform="matrix(12,0,0,12,113.7,490.9)" />
<use xlink:href="#f2_4" transform="matrix(12,0,0,12,124.7,490.9)" />
<use xlink:href="#f2_5" transform="matrix(12,0,0,12,135.7,490.9)" />
<use xlink:href="#f2_6" transform="matrix(12,0,0,12,146.7,490.9)" />
<use xlink:href="#f2_7" transform="matrix(12,0,0,12,157.7,490.9)" />
<use xlink:href="#f2_2" transform="matrix(12,0,0,12,168.7,490.9)" />
<use xlink:href="#f2_8" transform="matrix(12,0,0,12,179.7,490.9)" />
<use xlink:href="#f2_9" transform="matrix(12,0,0,12,190.7,490.9)" />
<use xlink:href="#f2_a" transform="matrix(12,0,0,12,201.7,490.9)" />
<use xlink:href="#f2_b" transform="matrix(12,0,0,12,212.7,490.9)" />
<use xlink:href="#f2_7" transform="matrix(12,0,0,12,223.7,490.9)" />
<use xlink:href="#f2_c" transform="matrix(12,0,0,12,234.7,490.9)" />
<use xlink:href="#f2_7" transform="matrix(12,0,0,12,245.7,490.9)" />
<use xlink:href="#f2_d" transform="matrix(12,0,0,12,256.7,490.9)" />
<use xlink:href="#f2_7" transform="matrix(12,0,0,12,267.7,490.9)" />
<use xlink:href="#f2_e" transform="matrix(12,0,0,12,278.7,490.9)" />
<use xlink:href="#f2_9" transform="matrix(12,0,0,12,289.7,490.9)" />
<use xlink:href="#f2_f" transform="matrix(12,0,0,12,300.7,490.9)" />
<use xlink:href="#f2_6" transform="matrix(12,0,0,12,311.7,490.9)" />
<use xlink:href="#f2_6" transform="matrix(12,0,0,12,322.7,490.9)" />
<use xlink:href="#f2_g" transform="matrix(12,0,0,12,333.7,490.9)" />
<use xlink:href="#f2_6" transform="matrix(12,0,0,12,344.7,490.9)" />
<use xlink:href="#f2_h" transform="matrix(12,0,0,12,355.7,490.9)" />
<use xlink:href="#f2_5" transform="matrix(12,0,0,12,377.7,490.9)" />
<use xlink:href="#f2_j" transform="matrix(12,0,0,12,388.7,490.9)" />
<use xlink:href="#f2_k" transform="matrix(12,0,0,12,399.7,490.9)" />
<use xlink:href="#f2_l" transform="matrix(12,0,0,12,410.7,490.9)" />
<use xlink:href="#f2_m" transform="matrix(12,0,0,12,421.7,490.9)" />
<use xlink:href="#f2_m" transform="matrix(12,0,0,12,432.7,490.9)" />
<use xlink:href="#f2_n" transform="matrix(12,0,0,12,443.7,490.9)" />
<use xlink:href="#f2_m" transform="matrix(12,0,0,12,454.7,490.9)" />
<use xlink:href="#f2_o" transform="matrix(12,0,0,12,465.7,490.9)" />
<use xlink:href="#f2_h" transform="matrix(12,0,0,12,476.7,490.9)" />
<use xlink:href="#f2_p" transform="matrix(12,0,0,12,498.7,490.9)" />
<use xlink:href="#f2_q" transform="matrix(12,0,0,12,509.7,490.9)" />
<use xlink:href="#f2_r" transform="matrix(12,0,0,12,520.7,490.9)" />
<use xlink:href="#f2_s" transform="matrix(12,0,0,12,531.7,490.9)" />
<use xlink:href="#f2_s" transform="matrix(12,0,0,12,542.7,490.9)" />
<use xlink:href="#f2_t" transform="matrix(12,0,0,12,553.7,490.9)" />
<use xlink:href="#f2_u" transform="matrix(12,0,0,12,564.7,490.9)" />
<use xlink:href="#f2_f" transform="matrix(12,0,0,12,575.7,490.9)" />
<use xlink:href="#f2_j" transform="matrix(12,0,0,12,586.7,490.9)" />
<use xlink:href="#f2_4" transform="matrix(12,0,0,12,597.7,490.9)" />
<use xlink:href="#f2_u" transform="matrix(12,0,0,12,608.7,490.9)" />
<use xlink:href="#f2_b" transform="matrix(12,0,0,12,619.7,490.9)" />
<use xlink:href="#f2_p" transform="matrix(12,0,0,12,630.7,490.9)" />
<use xlink:href="#f2_h" transform="matrix(12,0,0,12,641.7,490.9)" />
<use xlink:href="#f2_v" transform="matrix(12,0,0,12,663.7,490.9)" />
<use xlink:href="#f2_w" transform="matrix(12,0,0,12,674.7,490.9)" />
<use xlink:href="#f2_x" transform="matrix(12,0,0,12,685.7,490.9)" />
<use xlink:href="#f2_7" transform="matrix(12,0,0,12,696.7,490.9)" />
<use xlink:href="#f2_8" transform="matrix(12,0,0,12,707.7,490.9)" />
<use xlink:href="#f2_v" transform="matrix(12,0,0,12,718.7,490.9)" />
<use xlink:href="#f2_y" transform="matrix(12,0,0,12,729.7,490.9)" />
<use xlink:href="#f2_v" transform="matrix(12,0,0,12,751.7,490.9)" />
<use xlink:href="#f2_y" transform="matrix(12,0,0,12,762.7,490.9)" />
<use xlink:href="#f2_9" transform="matrix(12,0,0,12,773.7,490.9)" />
<use xlink:href="#f2_w" transform="matrix(12,0,0,12,784.7,490.9)" />
<use xlink:href="#f2_c" transform="matrix(12,0,0,12,795.7,490.9)" />
<use xlink:href="#f2_v" transform="matrix(12,0,0,12,806.7,490.9)" />
<use xlink:href="#f2_z" transform="matrix(12,0,0,12,817.7,490.9)" />
<use xlink:href="#f2_v" transform="matrix(12,0,0,12,828.7,490.9)" />
<use xlink:href="#f2_9" transform="matrix(12,0,0,12,839.7,490.9)" />
<use xlink:href="#f2_6" transform="matrix(12,0,0,12,850.7,490.9)" />
</g>
<g fill="#626262" >
<use xlink:href="#f0_q" transform="matrix(12,0,0,12,47.7,548.8)" />
<use xlink:href="#f1_1g" transform="matrix(12,0,0,12,73.9,549.8)" />
<use xlink:href="#f1_f" transform="matrix(12,0,0,12,85.2,549.8)" />
<use xlink:href="#f1_d" transform="matrix(12,0,0,12,96.8,549.8)" />
<use xlink:href="#f1_g" transform="matrix(12,0,0,12,102,549.8)" />
<use xlink:href="#f1_12" transform="matrix(12,0,0,12,123.8,549.8)" />
<use xlink:href="#f1_d" transform="matrix(12,0,0,12,138.8,549.8)" />
<use xlink:href="#f1_a" transform="matrix(12,0,0,12,144,549.8)" />
<use xlink:href="#f1_a" transform="matrix(12,0,0,12,149.2,549.8)" />
<use xlink:href="#f1_k" transform="matrix(12,0,0,12,166.6,549.8)" />
<use xlink:href="#f1_m" transform="matrix(12,0,0,12,177.9,549.8)" />
<use xlink:href="#f1_l" transform="matrix(12,0,0,12,189.5,549.8)" />
<use xlink:href="#f1_i" transform="matrix(12,0,0,12,197.1,549.8)" />
<use xlink:href="#f1_9" transform="matrix(12,0,0,12,208.7,549.8)" />
<use xlink:href="#f1_c" transform="matrix(12,0,0,12,220.3,549.8)" />
<use xlink:href="#f1_a" transform="matrix(12,0,0,12,227.3,549.8)" />
<use xlink:href="#f1_r" transform="matrix(12,0,0,12,232.5,549.8)" />
<use xlink:href="#f1_c" transform="matrix(12,0,0,12,255.7,549.8)" />
<use xlink:href="#f1_b" transform="matrix(12,0,0,12,262.7,549.8)" />
<use xlink:href="#f1_l" transform="matrix(12,0,0,12,274.1,549.8)" />
<use xlink:href="#f1_8" transform="matrix(12,0,0,12,281.5,549.8)" />
<use xlink:href="#f1_d" transform="matrix(12,0,0,12,299.2,549.8)" />
<use xlink:href="#f1_4" transform="matrix(12,0,0,12,304.4,549.8)" />
<use xlink:href="#f1_k" transform="matrix(12,0,0,12,316,549.8)" />
<use xlink:href="#f1_c" transform="matrix(12,0,0,12,327.3,549.8)" />
<use xlink:href="#f1_b" transform="matrix(12,0,0,12,334.5,549.8)" />
<use xlink:href="#f1_c" transform="matrix(12,0,0,12,358.1,549.8)" />
<use xlink:href="#f1_f" transform="matrix(12,0,0,12,365.3,549.8)" />
<use xlink:href="#f1_b" transform="matrix(12,0,0,12,376.8,549.8)" />
<use xlink:href="#f1_9" transform="matrix(12,0,0,12,400.6,549.8)" />
<use xlink:href="#f1_l" transform="matrix(12,0,0,12,412,549.8)" />
<use xlink:href="#f1_7" transform="matrix(12,0,0,12,419.2,549.8)" />
<use xlink:href="#f1_x" transform="matrix(12,0,0,12,430.3,549.8)" />
<use xlink:href="#f1_l" transform="matrix(12,0,0,12,442.1,549.8)" />
<use xlink:href="#f1_k" transform="matrix(12,0,0,12,449.9,549.8)" />
<use xlink:href="#f1_8" transform="matrix(12,0,0,12,461.2,549.8)" />
<use xlink:href="#f1_k" transform="matrix(12,0,0,12,491.2,549.8)" />
<use xlink:href="#f1_4" transform="matrix(12,0,0,12,502.7,549.8)" />
<use xlink:href="#f1_h" transform="matrix(12,0,0,12,514.1,549.8)" />
<use xlink:href="#f1_c" transform="matrix(12,0,0,12,538.3,549.8)" />
<use xlink:href="#f1_f" transform="matrix(12,0,0,12,545.4,549.8)" />
<use xlink:href="#f1_b" transform="matrix(12,0,0,12,556.9,549.8)" />
<use xlink:href="#f1_e" transform="matrix(12,0,0,12,580.7,549.8)" />
<use xlink:href="#f1_i" transform="matrix(12,0,0,12,587.1,549.8)" />
<use xlink:href="#f1_l" transform="matrix(12,0,0,12,598.6,549.8)" />
<use xlink:href="#f1_c" transform="matrix(12,0,0,12,606.3,549.8)" />
<use xlink:href="#f1_f" transform="matrix(12,0,0,12,613.4,549.8)" />
<use xlink:href="#f1_b" transform="matrix(12,0,0,12,625,549.8)" />
<use xlink:href="#f1_l" transform="matrix(12,0,0,12,636.3,549.8)" />
<use xlink:href="#f1_g" transform="matrix(12,0,0,12,656.4,549.8)" />
<use xlink:href="#f1_c" transform="matrix(12,0,0,12,665.9,549.8)" />
<use xlink:href="#f1_k" transform="matrix(12,0,0,12,673.1,549.8)" />
<use xlink:href="#f1_c" transform="matrix(12,0,0,12,684.4,549.8)" />
<use xlink:href="#f1_b" transform="matrix(12,0,0,12,691.5,549.8)" />
<use xlink:href="#f1_8" transform="matrix(12,0,0,12,703,549.8)" />
<use xlink:href="#f1_b" transform="matrix(12,0,0,12,720.7,549.8)" />
<use xlink:href="#f1_4" transform="matrix(12,0,0,12,732,549.8)" />
<use xlink:href="#f1_c" transform="matrix(12,0,0,12,743.6,549.8)" />
<use xlink:href="#f1_g" transform="matrix(12,0,0,12,750.8,549.8)" />
<use xlink:href="#f1_12" transform="matrix(12,0,0,12,772.6,549.8)" />
<use xlink:href="#f1_d" transform="matrix(12,0,0,12,787.6,549.8)" />
<use xlink:href="#f1_a" transform="matrix(12,0,0,12,792.8,549.8)" />
<use xlink:href="#f1_a" transform="matrix(12,0,0,12,797.9,549.8)" />
<use xlink:href="#f1_4" transform="matrix(12,0,0,12,815.3,549.8)" />
<use xlink:href="#f1_7" transform="matrix(12,0,0,12,826.9,549.8)" />
<use xlink:href="#f1_c" transform="matrix(12,0,0,12,838.1,549.8)" />
<use xlink:href="#f1_x" transform="matrix(12,0,0,12,857.6,549.8)" />
<use xlink:href="#f1_b" transform="matrix(12,0,0,12,869.4,549.8)" />
<use xlink:href="#f1_c" transform="matrix(12,0,0,12,880.7,549.8)" />
<use xlink:href="#f1_b" transform="matrix(12,0,0,12,900.2,549.8)" />
<use xlink:href="#f1_v" transform="matrix(12,0,0,12,911.2,549.8)" />
<use xlink:href="#f1_b" transform="matrix(12,0,0,12,921.3,549.8)" />
<use xlink:href="#f1_6" transform="matrix(12,0,0,12,932.6,549.8)" />
<use xlink:href="#f1_i" transform="matrix(12,0,0,12,942.8,549.8)" />
<use xlink:href="#f1_c" transform="matrix(12,0,0,12,954.4,549.8)" />
<use xlink:href="#f1_b" transform="matrix(12,0,0,12,961.6,549.8)" />
<use xlink:href="#f1_h" transform="matrix(12,0,0,12,972.9,549.8)" />
<use xlink:href="#f1_1c" transform="matrix(12,0,0,12,984.7,549.8)" />
<use xlink:href="#f1_u" transform="matrix(12,0,0,12,1002.8,549.8)" />
<use xlink:href="#f1_4" transform="matrix(12,0,0,12,1008.2,549.8)" />
<use xlink:href="#f1_g" transform="matrix(12,0,0,12,1032,549.8)" />
<use xlink:href="#f1_i" transform="matrix(12,0,0,12,1041.5,549.8)" />
<use xlink:href="#f1_6" transform="matrix(12,0,0,12,1053.1,549.8)" />
<use xlink:href="#f1_f" transform="matrix(12,0,0,12,1063.3,549.8)" />
<use xlink:href="#f1_g" transform="matrix(12,0,0,12,73.9,594.3)" />
<use xlink:href="#f1_6" transform="matrix(12,0,0,12,83.4,594.3)" />
<use xlink:href="#f1_b" transform="matrix(12,0,0,12,93.6,594.3)" />
<use xlink:href="#f1_4" transform="matrix(12,0,0,12,105.1,594.3)" />
<use xlink:href="#f1_k" transform="matrix(12,0,0,12,116.5,594.3)" />
<use xlink:href="#f1_l" transform="matrix(12,0,0,12,128,594.3)" />
<use xlink:href="#f1_d" transform="matrix(12,0,0,12,135.6,594.3)" />
<use xlink:href="#f1_7" transform="matrix(12,0,0,12,140.8,594.3)" />
<use xlink:href="#f1_g" transform="matrix(12,0,0,12,151.9,594.3)" />
<use xlink:href="#f1_j" transform="matrix(12,0,0,12,161.5,594.3)" />
<use xlink:href="#f1_1n" transform="matrix(12,0,0,12,173.1,594.3)" />
<use xlink:href="#f1_v" transform="matrix(12,0,0,12,184.7,594.3)" />
<use xlink:href="#f1_6" transform="matrix(12,0,0,12,195.1,594.3)" />
<use xlink:href="#f1_b" transform="matrix(12,0,0,12,205.5,594.3)" />
<use xlink:href="#f1_9" transform="matrix(12,0,0,12,216.8,594.3)" />
<use xlink:href="#f1_c" transform="matrix(12,0,0,12,228.4,594.3)" />
<use xlink:href="#f1_d" transform="matrix(12,0,0,12,235.4,594.3)" />
<use xlink:href="#f1_7" transform="matrix(12,0,0,12,240.6,594.3)" />
<use xlink:href="#f1_4" transform="matrix(12,0,0,12,251.7,594.3)" />
<use xlink:href="#f1_18" transform="matrix(12,0,0,12,269.2,594.3)" />
<use xlink:href="#f1_k" transform="matrix(12,0,0,12,282.9,594.3)" />
<use xlink:href="#f1_4" transform="matrix(12,0,0,12,294.3,594.3)" />
<use xlink:href="#f1_h" transform="matrix(12,0,0,12,305.8,594.3)" />
<use xlink:href="#f1_a" transform="matrix(12,0,0,12,317.6,594.3)" />
<use xlink:href="#f1_d" transform="matrix(12,0,0,12,322.7,594.3)" />
<use xlink:href="#f1_4" transform="matrix(12,0,0,12,327.8,594.3)" />
<use xlink:href="#f1_x" transform="matrix(12,0,0,12,339.4,594.3)" />
<use xlink:href="#f1_6" transform="matrix(12,0,0,12,356.9,594.3)" />
<use xlink:href="#f1_k" transform="matrix(12,0,0,12,367.1,594.3)" />
<use xlink:href="#f1_4" transform="matrix(12,0,0,12,378.4,594.3)" />
<use xlink:href="#f1_m" transform="matrix(12,0,0,12,395.8,594.3)" />
<use xlink:href="#f1_b" transform="matrix(12,0,0,12,407.4,594.3)" />
<use xlink:href="#f1_i" transform="matrix(12,0,0,12,424.7,594.3)" />
<use xlink:href="#f1_g" transform="matrix(12,0,0,12,436.3,594.3)" />
<use xlink:href="#f1_b" transform="matrix(12,0,0,12,445.8,594.3)" />
<use xlink:href="#f1_h" transform="matrix(12,0,0,12,457.1,594.3)" />
<use xlink:href="#f1_e" transform="matrix(12,0,0,12,474.7,594.3)" />
<use xlink:href="#f1_7" transform="matrix(12,0,0,12,481.2,594.3)" />
<use xlink:href="#f1_l" transform="matrix(12,0,0,12,492.3,594.3)" />
<use xlink:href="#f1_g" transform="matrix(12,0,0,12,505.7,594.3)" />
<use xlink:href="#f1_8" transform="matrix(12,0,0,12,515.4,594.3)" />
<use xlink:href="#f1_7" transform="matrix(12,0,0,12,533.1,594.3)" />
<use xlink:href="#f1_7" transform="matrix(12,0,0,12,544.2,594.3)" />
<use xlink:href="#f1_c" transform="matrix(12,0,0,12,555.5,594.3)" />
<use xlink:href="#f1_f" transform="matrix(12,0,0,12,562.7,594.3)" />
<use xlink:href="#f1_b" transform="matrix(12,0,0,12,580.1,594.3)" />
<use xlink:href="#f1_v" transform="matrix(12,0,0,12,591.1,594.3)" />
<use xlink:href="#f1_d" transform="matrix(12,0,0,12,601.8,594.3)" />
<use xlink:href="#f1_c" transform="matrix(12,0,0,12,607,594.3)" />
<use xlink:href="#f1_e" transform="matrix(12,0,0,12,620,594.3)" />
<use xlink:href="#f1_l" transform="matrix(12,0,0,12,626.4,594.3)" />
<use xlink:href="#f1_7" transform="matrix(12,0,0,12,633.6,594.3)" />
<use xlink:href="#f1_8" transform="matrix(12,0,0,12,644.7,594.3)" />
<use xlink:href="#f1_c" transform="matrix(12,0,0,12,668.4,594.3)" />
<use xlink:href="#f1_f" transform="matrix(12,0,0,12,675.6,594.3)" />
<use xlink:href="#f1_b" transform="matrix(12,0,0,12,687,594.3)" />
<use xlink:href="#f1_9" transform="matrix(12,0,0,12,704.3,594.3)" />
<use xlink:href="#f1_l" transform="matrix(12,0,0,12,715.9,594.3)" />
<use xlink:href="#f1_7" transform="matrix(12,0,0,12,723.1,594.3)" />
<use xlink:href="#f1_x" transform="matrix(12,0,0,12,734.2,594.3)" />
<use xlink:href="#f1_l" transform="matrix(12,0,0,12,746,594.3)" />
<use xlink:href="#f1_k" transform="matrix(12,0,0,12,753.6,594.3)" />
<use xlink:href="#f1_8" transform="matrix(12,0,0,12,764.9,594.3)" />
<use xlink:href="#f1_1c" transform="matrix(12,0,0,12,782.7,594.3)" />
<use xlink:href="#f0_q" transform="matrix(12,0,0,12,47.7,652.2)" />
<use xlink:href="#f1_6" transform="matrix(12,0,0,12,73.9,653.3)" />
<use xlink:href="#f1_v" transform="matrix(12,0,0,12,84.2,653.3)" />
<use xlink:href="#f1_w" transform="matrix(12,0,0,12,95,653.3)" />
<use xlink:href="#f1_3" transform="matrix(12,0,0,12,104.2,653.3)" />
<use xlink:href="#f1_l" transform="matrix(12,0,0,12,118.7,653.3)" />
<use xlink:href="#f1_k" transform="matrix(12,0,0,12,126.3,653.3)" />
<use xlink:href="#f1_6" transform="matrix(12,0,0,12,137.6,653.3)" />
<use xlink:href="#f1_a" transform="matrix(12,0,0,12,148,653.3)" />
<use xlink:href="#f1_b" transform="matrix(12,0,0,12,153,653.3)" />
<use xlink:href="#f1_8" transform="matrix(12,0,0,12,174.5,653.3)" />
<use xlink:href="#f1_7" transform="matrix(12,0,0,12,192.2,653.3)" />
<use xlink:href="#f1_h" transform="matrix(12,0,0,12,203.5,653.3)" />
<use xlink:href="#f1_i" transform="matrix(12,0,0,12,215.1,653.3)" />
<use xlink:href="#f1_a" transform="matrix(12,0,0,12,226.7,653.3)" />
<use xlink:href="#f1_b" transform="matrix(12,0,0,12,231.9,653.3)" />
<use xlink:href="#f1_k" transform="matrix(12,0,0,12,253.3,653.3)" />
<use xlink:href="#f1_a" transform="matrix(12,0,0,12,264.6,653.3)" />
<use xlink:href="#f1_a" transform="matrix(12,0,0,12,269.7,653.3)" />
<use xlink:href="#f1_7" transform="matrix(12,0,0,12,274.9,653.3)" />
<use xlink:href="#f1_12" transform="matrix(12,0,0,12,286,653.3)" />
<use xlink:href="#f1_g" transform="matrix(12,0,0,12,301,653.3)" />
<use xlink:href="#f1_i" transform="matrix(12,0,0,12,320.7,653.3)" />
<use xlink:href="#f1_g" transform="matrix(12,0,0,12,332.2,653.3)" />
<use xlink:href="#f1_c" transform="matrix(12,0,0,12,351.8,653.3)" />
<use xlink:href="#f1_7" transform="matrix(12,0,0,12,359,653.3)" />
<use xlink:href="#f1_e" transform="matrix(12,0,0,12,380.2,653.3)" />
<use xlink:href="#f1_b" transform="matrix(12,0,0,12,386.6,653.3)" />
<use xlink:href="#f1_c" transform="matrix(12,0,0,12,398.1,653.3)" />
<use xlink:href="#f1_6" transform="matrix(12,0,0,12,405.1,653.3)" />
<use xlink:href="#f1_f" transform="matrix(12,0,0,12,415.5,653.3)" />
<use xlink:href="#f1_c" transform="matrix(12,0,0,12,437,653.3)" />
<use xlink:href="#f1_f" transform="matrix(12,0,0,12,444.2,653.3)" />
<use xlink:href="#f1_b" transform="matrix(12,0,0,12,455.8,653.3)" />
<use xlink:href="#f1_h" transform="matrix(12,0,0,12,477.1,653.3)" />
<use xlink:href="#f1_b" transform="matrix(12,0,0,12,488.9,653.3)" />
<use xlink:href="#f1_c" transform="matrix(12,0,0,12,500.2,653.3)" />
<use xlink:href="#f1_k" transform="matrix(12,0,0,12,507.4,653.3)" />
<use xlink:href="#f1_d" transform="matrix(12,0,0,12,518.8,653.3)" />
<use xlink:href="#f1_a" transform="matrix(12,0,0,12,523.9,653.3)" />
<use xlink:href="#f1_g" transform="matrix(12,0,0,12,529,653.3)" />
<use xlink:href="#f1_7" transform="matrix(12,0,0,12,548.7,653.3)" />
<use xlink:href="#f1_e" transform="matrix(12,0,0,12,559.9,653.3)" />
<use xlink:href="#f1_b" transform="matrix(12,0,0,12,576.4,653.3)" />
<use xlink:href="#f1_l" transform="matrix(12,0,0,12,587.6,653.3)" />
<use xlink:href="#f1_l" transform="matrix(12,0,0,12,595,653.3)" />
<use xlink:href="#f1_7" transform="matrix(12,0,0,12,602.2,653.3)" />
<use xlink:href="#f1_l" transform="matrix(12,0,0,12,613.3,653.3)" />
<use xlink:href="#f1_1i" transform="matrix(12,0,0,12,631.1,653.3)" />
<use xlink:href="#f1_b" transform="matrix(12,0,0,12,638.3,653.3)" />
<use xlink:href="#f1_l" transform="matrix(12,0,0,12,649.6,653.3)" />
<use xlink:href="#f1_l" transform="matrix(12,0,0,12,656.9,653.3)" />
<use xlink:href="#f1_7" transform="matrix(12,0,0,12,664.1,653.3)" />
<use xlink:href="#f1_l" transform="matrix(12,0,0,12,675.3,653.3)" />
<use xlink:href="#f1_6" transform="matrix(12,0,0,12,693.1,653.3)" />
<use xlink:href="#f1_7" transform="matrix(12,0,0,12,703.3,653.3)" />
<use xlink:href="#f1_h" transform="matrix(12,0,0,12,714.5,653.3)" />
<use xlink:href="#f1_b" transform="matrix(12,0,0,12,726.2,653.3)" />
<use xlink:href="#f1_k" transform="matrix(12,0,0,12,747.7,653.3)" />
<use xlink:href="#f1_4" transform="matrix(12,0,0,12,759,653.3)" />
<use xlink:href="#f1_h" transform="matrix(12,0,0,12,770.6,653.3)" />
<use xlink:href="#f1_b" transform="matrix(12,0,0,12,792.3,653.3)" />
<use xlink:href="#f1_l" transform="matrix(12,0,0,12,803.7,653.3)" />
<use xlink:href="#f1_l" transform="matrix(12,0,0,12,811.1,653.3)" />
<use xlink:href="#f1_7" transform="matrix(12,0,0,12,818.3,653.3)" />
<use xlink:href="#f1_l" transform="matrix(12,0,0,12,829.4,653.3)" />
<use xlink:href="#f1_8" transform="matrix(12,0,0,12,847.2,653.3)" />
<use xlink:href="#f1_b" transform="matrix(12,0,0,12,865,653.3)" />
<use xlink:href="#f1_g" transform="matrix(12,0,0,12,876.3,653.3)" />
<use xlink:href="#f1_g" transform="matrix(12,0,0,12,885.9,653.3)" />
<use xlink:href="#f1_k" transform="matrix(12,0,0,12,895.4,653.3)" />
<use xlink:href="#f1_x" transform="matrix(12,0,0,12,906.6,653.3)" />
<use xlink:href="#f1_b" transform="matrix(12,0,0,12,918.4,653.3)" />
<use xlink:href="#f1_o" transform="matrix(12,0,0,12,929.8,653.3)" />
<use xlink:href="#f1_x" transform="matrix(12,0,0,12,946.9,653.3)" />
<use xlink:href="#f1_b" transform="matrix(12,0,0,12,958.7,653.3)" />
<use xlink:href="#f1_4" transform="matrix(12,0,0,12,970.1,653.3)" />
<use xlink:href="#f1_b" transform="matrix(12,0,0,12,981.6,653.3)" />
<use xlink:href="#f1_l" transform="matrix(12,0,0,12,993,653.3)" />
<use xlink:href="#f1_k" transform="matrix(12,0,0,12,1000.6,653.3)" />
<use xlink:href="#f1_c" transform="matrix(12,0,0,12,1011.9,653.3)" />
<use xlink:href="#f1_b" transform="matrix(12,0,0,12,1019.1,653.3)" />
<use xlink:href="#f1_h" transform="matrix(12,0,0,12,1030.6,653.3)" />
<use xlink:href="#f1_m" transform="matrix(12,0,0,12,1052.2,653.3)" />
<use xlink:href="#f1_r" transform="matrix(12,0,0,12,1063.8,653.3)" />
<use xlink:href="#f1_3" transform="matrix(12,0,0,12,73.9,697.7)" />
<use xlink:href="#f1_l" transform="matrix(12,0,0,12,88.4,697.7)" />
<use xlink:href="#f1_k" transform="matrix(12,0,0,12,96.1,697.7)" />
<use xlink:href="#f1_6" transform="matrix(12,0,0,12,107.5,697.7)" />
<use xlink:href="#f1_a" transform="matrix(12,0,0,12,117.7,697.7)" />
<use xlink:href="#f1_b" transform="matrix(12,0,0,12,122.8,697.7)" />
<use xlink:href="#f1_1c" transform="matrix(12,0,0,12,134.2,697.7)" />
<use xlink:href="#f1_1g" transform="matrix(12,0,0,12,146,697.7)" />
<use xlink:href="#f1_f" transform="matrix(12,0,0,12,157.3,697.7)" />
<use xlink:href="#f1_b" transform="matrix(12,0,0,12,168.9,697.7)" />
<use xlink:href="#f1_h" transform="matrix(12,0,0,12,186,697.7)" />
<use xlink:href="#f1_b" transform="matrix(12,0,0,12,197.7,697.7)" />
<use xlink:href="#f1_c" transform="matrix(12,0,0,12,209,697.7)" />
<use xlink:href="#f1_k" transform="matrix(12,0,0,12,216.2,697.7)" />
<use xlink:href="#f1_d" transform="matrix(12,0,0,12,227.6,697.7)" />
<use xlink:href="#f1_a" transform="matrix(12,0,0,12,232.7,697.7)" />
<use xlink:href="#f1_g" transform="matrix(12,0,0,12,237.8,697.7)" />
<use xlink:href="#f1_k" transform="matrix(12,0,0,12,253.3,697.7)" />
<use xlink:href="#f1_l" transform="matrix(12,0,0,12,264.6,697.7)" />
<use xlink:href="#f1_b" transform="matrix(12,0,0,12,271.7,697.7)" />
<use xlink:href="#f1_g" transform="matrix(12,0,0,12,289,697.7)" />
<use xlink:href="#f1_c" transform="matrix(12,0,0,12,298.5,697.7)" />
<use xlink:href="#f1_7" transform="matrix(12,0,0,12,305.6,697.7)" />
<use xlink:href="#f1_l" transform="matrix(12,0,0,12,316.8,697.7)" />
<use xlink:href="#f1_b" transform="matrix(12,0,0,12,324,697.7)" />
<use xlink:href="#f1_h" transform="matrix(12,0,0,12,335.3,697.7)" />
<use xlink:href="#f1_d" transform="matrix(12,0,0,12,352.8,697.7)" />
<use xlink:href="#f1_4" transform="matrix(12,0,0,12,358,697.7)" />
<use xlink:href="#f1_16" transform="matrix(12,0,0,12,375.4,697.7)" />
<use xlink:href="#f1_k" transform="matrix(12,0,0,12,389.5,697.7)" />
<use xlink:href="#f1_c" transform="matrix(12,0,0,12,400.9,697.7)" />
<use xlink:href="#f1_k" transform="matrix(12,0,0,12,408.1,697.7)" />
<use xlink:href="#f1_m" transform="matrix(12,0,0,12,419.4,697.7)" />
<use xlink:href="#f1_k" transform="matrix(12,0,0,12,431,697.7)" />
<use xlink:href="#f1_g" transform="matrix(12,0,0,12,442.3,697.7)" />
<use xlink:href="#f1_b" transform="matrix(12,0,0,12,451.8,697.7)" />
<use xlink:href="#f1_1n" transform="matrix(12,0,0,12,463.2,697.7)" />
<use xlink:href="#f1_l" transform="matrix(12,0,0,12,474.8,697.7)" />
<use xlink:href="#f1_l" transform="matrix(12,0,0,12,482.1,697.7)" />
<use xlink:href="#f1_7" transform="matrix(12,0,0,12,489.2,697.7)" />
<use xlink:href="#f1_l" transform="matrix(12,0,0,12,500.3,697.7)" />
<use xlink:href="#f1_6" transform="matrix(12,0,0,12,513.9,697.7)" />
<use xlink:href="#f1_a" transform="matrix(12,0,0,12,524.3,697.7)" />
<use xlink:href="#f1_k" transform="matrix(12,0,0,12,529.3,697.7)" />
<use xlink:href="#f1_g" transform="matrix(12,0,0,12,540.7,697.7)" />
<use xlink:href="#f1_g" transform="matrix(12,0,0,12,550.2,697.7)" />
<use xlink:href="#f1_1c" transform="matrix(12,0,0,12,559.7,697.7)" />
</g>
</g>
<image x="146" y="73" width="857" height="222" xlink:href="img/2.png" />
<defs>
	<path d="M264.3,297.9c0,0,-42.8,0,-79.4,16.8c0,0,-36.7,16.8,-64.2,44.3c0,0,-29,29.1,-44.3,67.3c0,0,-16.8,38.1,-16.8,82.5c0,0,0,41.2,15.3,77.9c0,0,16.8,38.2,44.3,65.7c0,0,29,27.5,65.7,42.7c0,0,36.6,16.8,79.4,16.8c0,0,42.8,0,81,-15.2c0,0,38.2,-16.8,65.7,-44.3c0,0,29,-27.5,45.8,-64.2c0,0,16.8,-38.2,16.8,-79.4c0,0,0,-44.4,-16.8,-82.5c0,0,-16.8,-38.2,-44.3,-65.7c0,0,-29,-29.1,-67.2,-45.9c0,0,-38.2,-16.8,-81,-16.8Z" 
	id="f0_q"
	transform="scale(0.001,-0.001)" />

	<path d="M629.4,-21.3c0,0,-253.6,0,-398.7,154.2c0,0,-145.1,154.3,-145.1,421.7c0,0,0,268.9,145.1,423.2c0,0,145.1,155.8,398.7,155.8c0,0,99.4,0,188,-26c0,0,88.6,-27.5,166.5,-80.9l0,-158.9c0,0,-76.4,71.8,-162,106.9c0,0,-87,35.2,-184.8,35.2c0,0,-191,0,-291.8,-116.1c0,0,-100.9,-117.7,-100.9,-339.2c0,0,0,-220,100.9,-336.1c0,0,100.8,-117.7,291.8,-117.7c0,0,97.8,0,183.3,35.2c0,0,87.1,35.1,163.5,106.9l0,-157.3c0,0,-79.5,-55,-168.1,-81c0,0,-88.6,-25.9,-186.4,-25.9Z" 
	id="f1_15"
	transform="scale(0.001,-0.001)" />

	<path d="M467.5,94.7c0,0,108.5,0,172.6,85.6c0,0,64.2,87.1,64.2,235.3c0,0,0,149.7,-64.2,235.2c0,0,-64.1,87.1,-172.6,87.1c0,0,-111.5,0,-175.7,-85.5c0,0,-64.2,-85.6,-64.2,-236.8c0,0,0,-149.8,64.2,-235.3c0,0,64.2,-85.6,175.7,-85.6Zm0,-116c0,0,-180.3,0,-281.1,116C186.4,94.7,84,210.8,84,415.6c0,0,0,206.2,100.9,322.3c0,0,102.3,117.7,282.6,117.7c0,0,178.8,0,281.1,-116.2c0,0,102.4,-117.6,102.4,-323.8c0,0,0,-204.8,-102.4,-320.9c0,0,-102.3,-116,-281.1,-116Z" 
	id="f1_7"
	transform="scale(0.001,-0.001)" />

	<path d="M137.5,0l0,834.2l139,0l0,-129.9c0,0,48.9,76.4,114.6,113.1c0,0,67.2,38.2,154.3,38.2c0,0,145.2,0,218.5,-88.7c0,0,73.3,-90.1,73.3,-262.7L837.2,0L699.7,0l0,499.6c0,0,0,117.6,-45.8,175.7c0,0,-45.8,59.6,-139,59.6c0,0,-110,0,-174.2,-70.3c0,0,-64.2,-70.3,-64.2,-192.5L276.5,0Z" 
	id="f1_4"
	transform="scale(0.001,-0.001)" />

	<path d="M375.8,-21.3c0,0,-67.2,0,-140.5,12.2c0,0,-73.4,12.2,-152.8,39.7l0,140.5c0,0,76.4,-39.7,149.7,-58c0,0,73.4,-19.9,146.7,-19.9c0,0,96.2,0,148.2,32.1c0,0,51.9,33.6,51.9,94.7c0,0,0,55,-36.6,84c0,0,-38.2,30.6,-165,58.1l-48.9,12.2c0,0,-126.8,26,-183.4,81c0,0,-56.5,56.5,-56.5,152.8c0,0,0,119.1,82.5,183.3c0,0,84,64.2,238.3,64.2c0,0,74.9,0,142.1,-10.7c0,0,67.3,-12.3,123.8,-35.2l0,-129.8c0,0,-58.1,30.5,-120.7,44.3c0,0,-62.7,15.2,-129.9,15.2c0,0,-102.3,0,-152.8,-30.5c0,0,-50.4,-32.1,-50.4,-94.7c0,0,0,-47.4,35.2,-74.9c0,0,36.6,-27.5,148.2,-51.9l45.8,-10.7c0,0,146.7,-30.6,207.8,-87.1c0,0,62.6,-58.1,62.6,-160.4c0,0,0,-116.1,-91.7,-183.4c0,0,-93.1,-67.1,-253.6,-67.1Z" 
	id="f1_g"
	transform="scale(0.001,-0.001)" />

	<path d="M143,0l0,834l138,0L281,0Zm0,985l0,174l138,0l0,-174Z" 
	id="f1_d"
	transform="scale(0.001,-0.001)" />

	<path d="M458.3,93.2c0,0,110,0,172.7,85.6c0,0,62.6,85.5,62.6,236.8c0,0,0,152.7,-62.6,238.3c0,0,-62.7,85.5,-172.7,85.5c0,0,-108.4,0,-171.1,-85.5c0,0,-62.6,-85.6,-62.6,-238.3c0,0,0,-151.3,62.6,-236.8c0,0,62.7,-85.6,171.1,-85.6ZM424.7,-21.3c0,0,-151.2,0,-245.9,120.6C178.8,99.3,84,220,84,415.6c0,0,0,197,94.8,317.7c0,0,94.7,122.3,245.9,122.3c0,0,93.2,0,158.9,-36.7c0,0,65.7,-36.7,110,-111.5l0,452.2l136,0L829.6,0l-136,0l0,125.3c0,0,-44.3,-74.9,-110,-110c0,0,-65.7,-36.6,-158.9,-36.6Z" 
	id="f1_h"
	transform="scale(0.001,-0.001)" />

	<path d="M230.7,490.4l490.4,1.5c0,0,-1.5,111.6,-62.6,178.8c0,0,-62.7,67.2,-163.5,67.2c0,0,-114.6,0,-183.3,-64.1c0,0,-70.3,-65.7,-81,-183.4ZM516.4,-21.3c0,0,-198.6,0,-314.7,116C201.7,94.7,84,210.8,84,409.4c0,0,0,204.8,110,325.5c0,0,111.6,120.7,299.5,120.7c0,0,168,0,265.8,-108.5c0,0,99.3,-110,99.3,-296.4l0,-67.2l-632.5,0c0,0,9.2,-140.6,85.6,-213.9c0,0,76.4,-74.9,213.9,-74.9c0,0,77.9,0,152.7,18.4c0,0,74.9,19.8,148.2,58l0,-129.8c0,0,-74.8,-30.6,-151.2,-45.8c0,0,-77.9,-16.8,-158.9,-16.8Z" 
	id="f1_b"
	transform="scale(0.001,-0.001)" />

	<path d="M137.5,0l0,834.2l139,0l0,-129.9c0,0,42.8,76.4,111.6,113.1c0,0,70.2,38.2,169.5,38.2c0,0,13.8,0,30.6,-1.6c0,0,16.8,-3,38.2,-6.1l1.5,-142.1c0,0,-24.4,13.8,-50.4,19.9c0,0,-27.5,6.1,-61.1,6.1c0,0,-116.1,0,-177.2,-74.9c0,0,-62.7,-76.3,-62.7,-216.9l0,-440Z" 
	id="f1_l"
	transform="scale(0.001,-0.001)" />

	<path d="M420.1,0c0,0,-158.8,0,-218.4,58.1c0,0,-61.1,59.5,-61.1,216.9l0,453.8l-100.9,0l0,105.4l100.9,0l0,238.3l139,0l0,-238.3l282.6,0l0,-105.4l-282.6,0l0,-453.8c0,0,0,-102.4,27.5,-131.4c0,0,27.5,-29,113,-29l142.1,0L562.2,0Z" 
	id="f1_c"
	transform="scale(0.001,-0.001)" />

	<path d="M137.5,0l0,1159.6l139,0l0,-455.3c0,0,48.9,76.4,114.6,113.1c0,0,67.2,38.2,154.3,38.2c0,0,145.2,0,218.5,-88.7c0,0,73.3,-90.1,73.3,-262.7L837.2,0L699.7,0l0,499.6c0,0,0,117.6,-45.8,175.7c0,0,-45.8,59.6,-139,59.6c0,0,-110,0,-174.2,-70.3c0,0,-64.2,-70.3,-64.2,-192.5L276.5,0Z" 
	id="f1_f"
	transform="scale(0.001,-0.001)" />

	<path d="M508.8,93.2c0,0,110,0,171.1,85.6c0,0,62.6,85.5,62.6,236.8c0,0,0,152.7,-61.1,238.3c0,0,-62.6,85.5,-172.6,85.5c0,0,-108.5,0,-169.6,-85.5c0,0,-62.7,-85.6,-62.7,-238.3c0,0,0,-151.3,61.1,-236.8c0,0,62.7,-85.6,171.2,-85.6ZM137.5,-317.7l0,1151.9l139,0l0,-126.8c0,0,42.8,74.8,108.5,111.5c0,0,65.7,36.7,157.4,36.7c0,0,152.7,0,247.5,-120.7c0,0,96.2,-122.3,96.2,-319.3c0,0,0,-195.6,-94.7,-316.3c0,0,-96.3,-120.6,-249,-120.6c0,0,-91.7,0,-157.4,35.1c0,0,-65.7,36.6,-108.5,111.5l0,-443Z" 
	id="f1_9"
	transform="scale(0.001,-0.001)" />

	<path d="M357.5,0L44.3,834.2l145.1,0L450.7,132.9L711.9,834.2l146.7,0L543.9,0Z" 
	id="f1_q"
	transform="scale(0.001,-0.001)" />

	<path d="M421.7,-21.3c0,0,-143.6,0,-218.5,88.5L128.3,328.5l0,505.7l137.5,0l0,-499.6c0,0,0,-119.2,45.9,-178.8c0,0,47.3,-59.5,139,-59.5c0,0,111.5,0,175.7,70.2c0,0,65.7,71.8,65.7,194.1l0,473.6l136,0L828.1,0l-136,0l0,126.8c0,0,-50.4,-74.9,-116.1,-111.5c0,0,-67.2,-36.6,-154.3,-36.6Z" 
	id="f1_i"
	transform="scale(0.001,-0.001)" />

	<path d="M42.8,0L368.2,436.9L70.3,834.2l161.9,0L453.8,537.8L675.3,834.2l161.9,0L536.3,427.8L854,0L692.1,0L447.6,326.9L204.7,0Z" 
	id="f1_v"
	transform="scale(0.001,-0.001)" />

	<path d="M407.9,93.2c0,0,113.1,0,181.8,79.4c0,0,70.3,81,70.3,215.5l0,30.5l-137.5,0c0,0,-166.5,0,-230.7,-36.7c0,0,-64.2,-38.1,-64.2,-129.8c0,0,0,-73.3,47.4,-116.1c0,0,48.9,-42.8,132.9,-42.8ZM371.3,-21.3c0,0,-128.4,0,-203.2,71.7c0,0,-76.4,71.8,-76.4,192.5c0,0,0,140.6,93.2,212.4c0,0,94.7,71.8,282.6,71.8l192.5,0l0,13.7c0,0,0,94.8,-62.6,145.2c0,0,-62.7,51.9,-175.7,51.9c0,0,-71.8,0,-139.1,-16.8c0,0,-67.2,-16.8,-129.8,-51.9l0,126.8c0,0,74.8,30.5,145.1,44.3c0,0,71.8,15.3,139,15.3c0,0,180.3,0,268.9,-93.2c0,0,90.2,-94.8,90.2,-285.7L796,0L660,0l0,126.8c0,0,-47.4,-76.4,-117.6,-111.5c0,0,-70.3,-36.6,-171.1,-36.6Z" 
	id="f1_k"
	transform="scale(0.001,-0.001)" />

	<path d="M137.5,0l0,834.2l139,0l0,-129.9c0,0,45.9,77.9,111.6,114.6c0,0,65.7,36.7,155.8,36.7c0,0,91.7,0,154.3,-45.9c0,0,64.2,-47.3,96.2,-135.9c0,0,50.5,93.1,122.3,137.5c0,0,71.8,44.3,168,44.3c0,0,131.4,0,201.7,-91.7c0,0,71.8,-91.7,71.8,-259.7L1358.2,0l-139,0l0,499.6c0,0,0,119.2,-41.3,177.2c0,0,-42.8,58.1,-129.8,58.1c0,0,-107,0,-168.1,-70.3c0,0,-62.6,-70.3,-62.6,-192.5L817.4,0L678.3,0l0,499.6c0,0,0,120.7,-41.2,177.2c0,0,-42.8,58.1,-131.4,58.1c0,0,-105.4,0,-166.5,-70.3c0,0,-62.7,-71.8,-62.7,-192.5L276.5,0Z" 
	id="f1_8"
	transform="scale(0.001,-0.001)" />

	<path d="M143,0l0,1159l138,0L281,0Z" 
	id="f1_a"
	transform="scale(0.001,-0.001)" />

	<path d="M165,0l0,728.8l-131.4,0l0,105.4l131.4,0l0,58c0,0,0,140.6,64.2,203.2c0,0,65.7,64.2,207.7,64.2l129.9,0l0,-113.1l-131.4,0c0,0,-74.8,0,-102.3,-30.5c0,0,-29.1,-30.6,-29.1,-107l0,-74.8l226.1,0l0,-105.4l-226.1,0L304,0Z" 
	id="f1_e"
	transform="scale(0.001,-0.001)" />

	<path d="M458.3,114.6c0,0,111.6,0,172.7,81c0,0,62.6,82.5,62.6,230.7c0,0,0,149.7,-61.1,230.6c0,0,-62.6,82.5,-174.2,82.5c0,0,-110,0,-171.1,-80.9c0,0,-62.6,-82.5,-62.6,-232.2c0,0,0,-148.2,61.1,-229.2c0,0,62.6,-82.5,172.6,-82.5ZM444.6,-317.7c0,0,-71.8,0,-136,10.7c0,0,-64.2,12.2,-123.7,33.6l0,134.5c0,0,59.5,-33.6,117.6,-48.9c0,0,59.6,-15.3,120.7,-15.3c0,0,136,0,203.2,70.3c0,0,67.2,70.3,67.2,210.7l0,68.8c0,0,-42.8,-74.9,-108.5,-110C585.1,36.7,517.9,0,424.7,0c0,0,-152.8,0,-245.9,116.1c0,0,-94.8,117.7,-94.8,310.2c0,0,0,194,93.2,311.6c0,0,94.7,117.7,247.5,117.7c0,0,93.2,0,158.9,-36.7c0,0,67.2,-36.7,110,-111.5l0,126.8l136,0l0,-731.8c0,0,0,-210.8,-94.7,-314.7c0,0,-94.8,-105.4,-290.3,-105.4Z" 
	id="f1_x"
	transform="scale(0.001,-0.001)" />

	<path d="M495,-21.3c0,0,-189.4,0,-299.4,117.6C195.6,96.3,84,215.4,84,415.6c0,0,0,204.7,111.6,322.3c0,0,113,117.7,308.6,117.7c0,0,62.6,0,122.2,-13.8c0,0,61.1,-13.7,117.6,-39.7l0,-128.3c0,0,-58,32,-116.1,47.3c0,0,-58,16.8,-119.1,16.8c0,0,-133,0,-206.3,-84c0,0,-74.9,-84,-74.9,-238.3c0,0,0,-152.8,73.4,-236.8c0,0,74.8,-84.1,207.8,-84.1c0,0,61.1,0,119.1,15.3c0,0,58.1,16.8,116.1,48.9L744,30.6c0,0,-56.5,-26,-117.6,-38.1c0,0,-62.6,-13.8,-131.4,-13.8Z" 
	id="f1_6"
	transform="scale(0.001,-0.001)" />

	<path d="M679.9,985.4l0,172.7l139,0l0,-172.7ZM165,0l0,728.8l-131.4,0l0,105.4l131.4,0l0,58c0,0,0,137.5,64.2,201.7c0,0,65.7,65.7,198.6,65.7l139,0l0,-113.1l-131.4,0c0,0,-74.8,0,-102.3,-30.5c0,0,-29.1,-30.6,-29.1,-107l0,-74.8l514.9,0L818.9,0l-139,0l0,728.8l-375.9,0L304,0Z" 
	id="f1_1s"
	transform="scale(0.001,-0.001)" />

	<path d="M161,0l0,189l158,0L319,0Z" 
	id="f1_1c"
	transform="scale(0.001,-0.001)" />

	<path d="M328.5,0L50.4,1113.8l151.3,0L436.9,171.1l232.3,942.7l169.6,0L1074,171.1l232.3,942.7l154.3,0L1179.4,0L990,0L756.3,965.6L517.9,0Z" 
	id="f1_1e"
	transform="scale(0.001,-0.001)" />

	<path d="M282.6,0L62.6,834.2l137.5,0L372.8,183.3L542.4,834.2l161.9,0L876.9,183.3l171.2,650.9l135.9,0L965.6,0l-162,0L624.9,684.4L444.6,0Z" 
	id="f1_12"
	transform="scale(0.001,-0.001)" />

	<path d="M178,0l0,189l158,0L336,0Zm0,600l0,189l158,0l0,-189Z" 
	id="f1_n"
	transform="scale(0.001,-0.001)" />

	<path d="M727.2,411L521,964L317.8,411ZM10.7,0L436.9,1113.8l169.6,0L1031.3,0L875.4,0L773.1,285.7l-501.2,0L169.6,0Z" 
	id="f1_1h"
	transform="scale(0.001,-0.001)" />

	<path d="M508.8,93.2c0,0,110,0,171.1,85.6c0,0,62.6,85.5,62.6,236.8c0,0,0,152.7,-61.1,238.3c0,0,-62.6,85.5,-172.6,85.5c0,0,-108.5,0,-169.6,-85.5c0,0,-62.7,-85.6,-62.7,-238.3c0,0,0,-151.3,61.1,-236.8c0,0,62.7,-85.6,171.2,-85.6ZM542.4,-21.3c0,0,-91.7,0,-157.4,35.1c0,0,-65.7,36.6,-108.5,111.5L276.5,0l-139,0l0,1159.6l139,0l0,-452.2c0,0,42.8,74.8,108.5,111.5c0,0,65.7,36.7,157.4,36.7c0,0,152.7,0,247.5,-120.7c0,0,96.2,-122.3,96.2,-319.3c0,0,0,-195.6,-94.7,-316.3c0,0,-96.3,-120.6,-249,-120.6Z" 
	id="f1_m"
	transform="scale(0.001,-0.001)" />

	<path d="M458.3,93.2c0,0,110,0,172.7,85.6c0,0,62.6,85.5,62.6,236.8c0,0,0,152.7,-62.6,238.3c0,0,-62.7,85.5,-172.7,85.5c0,0,-108.4,0,-171.1,-85.5c0,0,-62.6,-85.6,-62.6,-238.3c0,0,0,-151.3,62.6,-236.8c0,0,62.7,-85.6,171.1,-85.6ZM693.6,-317.7l0,443c0,0,-44.3,-74.9,-110,-110c0,0,-65.7,-36.6,-158.9,-36.6c0,0,-151.2,0,-245.9,120.6C178.8,99.3,84,220,84,415.6c0,0,0,197,94.8,317.7c0,0,94.7,122.3,245.9,122.3c0,0,93.2,0,158.9,-36.7c0,0,65.7,-36.7,110,-111.5l0,126.8l136,0l0,-1151.9Z" 
	id="f1_13"
	transform="scale(0.001,-0.001)" />

	<path d="M120.7,-317.7l0,116.1l79.4,0c0,0,56.6,0,87.1,26c0,0,32.1,27.5,70.3,126.8l24.4,61L44.3,834.2l145.1,0L450.7,181.8L711.9,834.2l146.7,0L490.4,-76.3c0,0,-58,-149.7,-113,-195.5c0,0,-55,-45.9,-148.2,-45.9Z" 
	id="f1_r"
	transform="scale(0.001,-0.001)" />

	<path d="M137.5,0l0,1159.6l139,0l0,-684.5L686,834.2l174.1,0L417.1,444.6L880,0L699.7,0L276.5,407.9L276.5,0Z" 
	id="f1_1a"
	transform="scale(0.001,-0.001)" />

	<path d="M146,699l0,414l127,0l0,-414Z" 
	id="f1_24"
	transform="scale(0.001,-0.001)" />

	<path d="M-13,-359l0,106l790,0l0,-106Z" 
	id="f1_w"
	transform="scale(0.001,-0.001)" />

	<path d="M290.3,0l0,189.4l152.8,0L443.1,0Zm4.6,297.9l0,114.6c0,0,0,76.4,21.4,123.8c0,0,21.3,48.8,88.6,113l67.2,67.2c0,0,41.2,39.8,59.6,74.9c0,0,19.8,35.1,19.8,70.3c0,0,0,67.2,-48.9,108.4c0,0,-48.8,41.3,-128.3,41.3c0,0,-59.6,0,-125.3,-26c0,0,-67.2,-27.5,-140.5,-76.4l0,140.6c0,0,70.3,41.2,142.1,62.6c0,0,71.8,21.4,149.7,21.4c0,0,137.5,0,220,-71.8c0,0,82.5,-73.3,82.5,-192.5c0,0,0,-56.5,-26,-106.9c0,0,-27.5,-52,-94.7,-116.1L516.4,582.1c0,0,-35.1,-35.2,-48.9,-53.5c0,0,-15.3,-19.8,-21.4,-39.7c0,0,-3,-15.3,-4.6,-36.7c0,0,-3,-22.9,-3,-62.6l0,-91.7Z" 
	id="f1_1f"
	transform="scale(0.001,-0.001)" />

	<path d="M389,0l0,985L-3,985l0,128l939,0l0,-128l-396,0L540,0Z" 
	id="f1_1g"
	transform="scale(0.001,-0.001)" />

	<path d="M389.6,0l0,530.1l-391,583.7l160.3,0L467.5,655.4l305.6,458.4l161.9,0L540.8,530.1L540.8,0Z" 
	id="f1_1t"
	transform="scale(0.001,-0.001)" />

	<path d="M536.3,-21.3c0,0,-194.1,0,-302.5,116c0,0,-108.5,116.1,-108.5,320.9c0,0,0,207.7,108.5,323.8c0,0,110,117.7,304,117.7c0,0,65.7,0,128.3,-15.3c0,0,62.7,-16.8,125.3,-48.9l0,-200.1c0,0,-48.9,41.2,-105.4,62.6c0,0,-56.6,21.4,-117.7,21.4c0,0,-106.9,0,-163.4,-67.2c0,0,-58.1,-68.8,-58.1,-194c0,0,0,-125.3,56.5,-191c0,0,58.1,-67.2,165,-67.2c0,0,62.7,0,117.7,19.8c0,0,55,21.4,105.4,65.7l0,-201.6c0,0,-56.5,-32.1,-119.2,-47.3c0,0,-64.1,-15.3,-135.9,-15.3Z" 
	id="f2_2"
	transform="scale(0.001,-0.001)" />

	<path d="M39.7,0L349.9,435.4L64.2,834.2l255.1,0l139,-249.1L598.9,834.2l255.1,0L571.4,435.4L878.5,0L623.3,0l-165,281.1L294.9,0Z" 
	id="f2_3"
	transform="scale(0.001,-0.001)" />

	<path d="M0,-359l0,141l919,0l0,-141Z" 
	id="f2_4"
	transform="scale(0.001,-0.001)" />

	<path d="M458.3,175.7c0,0,85.6,0,123.8,88.6c0,0,39.7,90.1,39.7,290.3c0,0,0,201.7,-38.2,290.3c0,0,-39.7,90.1,-125.3,90.1c0,0,-84,0,-122.2,-88.6c0,0,-39.7,-90.1,-39.7,-291.8c0,0,0,-200.2,38.2,-288.8c0,0,39.7,-90.1,123.7,-90.1Zm0,-197c0,0,-192.5,0,-291.8,145.1c0,0,-99.3,146.6,-99.3,430.8c0,0,0,285.7,99.3,432.3c0,0,99.3,146.7,291.8,146.7c0,0,194.1,0,293.4,-146.7c0,0,99.3,-146.6,99.3,-432.3c0,0,0,-284.2,-99.3,-429.3c0,0,-99.3,-146.6,-293.4,-146.6Z" 
	id="f2_5"
	transform="scale(0.001,-0.001)" />

	<path d="M216.9,0l0,834.2l218.5,0l0,-129.9c0,0,32.1,71.8,97.8,111.5c0,0,67.2,39.8,155.8,39.8c0,0,44.3,0,87.1,-10.7c0,0,42.8,-12.3,82.5,-32.1l0,-209.3c0,0,-36.7,33.6,-84,48.9c0,0,-48.9,16.8,-107,16.8c0,0,-68.7,0,-120.7,-22.9c0,0,-51.9,-24.5,-79.4,-71.9c0,0,-18.3,-27.5,-24.4,-67.2c0,0,-7.7,-41.2,-7.7,-123.7L435.4,0Z" 
	id="f2_6"
	transform="scale(0.001,-0.001)" />

	<path d="M426.3,128.3c0,0,87,0,134.4,65.7c0,0,47.4,65.7,47.4,183.4l0,13.7l-87.1,0c0,0,-122.2,0,-169.6,-30.5c0,0,-48.9,-32.1,-48.9,-107c0,0,0,-58,33.6,-91.7c0,0,33.6,-33.6,90.2,-33.6Zm-55,-149.6c0,0,-143.7,0,-223.1,74.8c0,0,-79.4,74.8,-79.4,209.3c0,0,0,146.6,94.7,215.4c0,0,94.7,70.3,293.3,70.3l151.3,0l0,36.6c0,0,0,53.5,-38.2,81c0,0,-38.2,27.5,-113.1,27.5c0,0,-77.9,0,-151.2,-19.8c0,0,-73.4,-19.9,-152.8,-64.2l0,186.4c0,0,71.8,30.5,146.6,44.3c0,0,74.9,15.3,157.4,15.3c0,0,204.7,0,287.2,-82.5c0,0,82.5,-84.1,82.5,-296.4L826.5,0L608.1,0l0,93.2c0,0,-38.2,-56.5,-100.9,-85.6c0,0,-62.6,-28.9,-135.9,-28.9Z" 
	id="f2_7"
	transform="scale(0.001,-0.001)" />

	<path d="M579,0C579,0,423.2,0,356,79.4c0,0,-68.8,81,-68.8,268.9l0,643.2l-221.5,0l0,168.1l441.5,0l0,-811.3c0,0,0,-99.3,30.6,-140.5c0,0,30.5,-41.3,102.3,-41.3l175.7,0L815.8,0Z" 
	id="f2_8"
	transform="scale(0.001,-0.001)" />

	<path d="M291.8,508.8l343.8,1.5c0,0,0,87.1,-42.8,131.4c0,0,-44.3,44.3,-126.8,44.3c0,0,-76.4,0,-120.7,-45.9c0,0,-44.3,-45.8,-53.5,-131.3ZM499.6,-21.3c0,0,-210.8,0,-320.8,111.4c0,0,-111.6,111.6,-111.6,322.4c0,0,0,204.7,107,323.9c0,0,106.9,119.2,291.8,119.2c0,0,184.8,0,287.2,-110c0,0,103.9,-110,103.9,-310.2l0,-88.6l-566.8,0c0,0,0,-99.3,58,-146.7c0,0,58.1,-48.8,171.1,-48.8c0,0,76.4,0,148.2,21.3c0,0,73.4,21.4,154.3,68.8l0,-201.7c0,0,-76.3,-30.5,-155.8,-45.7c0,0,-79.4,-15.3,-166.5,-15.3Z" 
	id="f2_9"
	transform="scale(0.001,-0.001)" />

	<path d="M334,0l0,273l248,0L582,0Z" 
	id="f2_a"
	transform="scale(0.001,-0.001)" />

	<path d="M380.4,197.1c0,0,129.9,0,184.9,81c0,0,56.5,82.5,56.5,279.5c0,0,0,194.1,-55,275c0,0,-56.5,82.5,-186.4,82.5l-59.6,0l0,-718ZM100.8,0l0,1113.8l236.8,0c0,0,272,0,392.7,-129.9c0,0,120.7,-131.4,120.7,-426.3c0,0,0,-296.3,-120.7,-426.2C730.3,131.4,609.6,0,337.6,0Z" 
	id="f2_b"
	transform="scale(0.001,-0.001)" />

	<path d="M615.7,0c0,0,-187.9,0,-253.6,59.6c0,0,-67.2,59.6,-67.2,223l0,385l-212.4,0l0,166.6l212.4,0l0,238.3l218.4,0l0,-238.3l285.7,0l0,-166.6l-285.7,0l0,-395.7c0,0,0,-56.5,27.5,-80.9c0,0,27.5,-24.5,91.7,-24.5l166.5,0L799,0Z" 
	id="f2_c"
	transform="scale(0.001,-0.001)" />

	<path d="M481.3,157.4c0,0,71.8,0,111.5,67.2c0,0,41.2,68.7,41.2,189.4c0,0,0,122.3,-39.7,189.5c0,0,-41.2,68.7,-113,68.7c0,0,-70.3,0,-111.6,-67.2c0,0,-41.2,-68.7,-41.2,-191c0,0,0,-120.7,41.2,-187.9c0,0,41.3,-68.7,111.6,-68.7ZM550,-21.3c0,0,-74.9,0,-129.9,35.1c0,0,-56.5,36.6,-91.6,110L328.5,0l-217,0l0,1159.6l217,0l0,-443.1c0,0,41.2,68.8,94.7,103.9c0,0,53.5,35.2,119.2,35.2c0,0,149.7,0,229.1,-113.1c0,0,81,-114.6,81,-326.9c0,0,0,-207.8,-79.4,-322.4c0,0,-79.5,-114.5,-223.1,-114.5Z" 
	id="f2_d"
	transform="scale(0.001,-0.001)" />

	<path d="M455.3,-21.3c0,0,-74.9,0,-154.3,12.2c0,0,-79.5,12.2,-160.4,39.7l0,190.9c0,0,73.3,-41.2,148.2,-62.6c0,0,74.8,-22.9,145.1,-22.9c0,0,76.4,0,116.1,22.9c0,0,39.7,22.9,39.7,64.2c0,0,0,42.7,-27.5,64.1c0,0,-29,22.9,-134.4,48.9l-59.6,13.8c0,0,-125.3,27.5,-183.3,87c0,0,-58.1,61.2,-58.1,163.5c0,0,0,120.7,87.1,187.9c0,0,88.6,67.3,246,67.3c0,0,71.8,0,142,-12.3c0,0,70.3,-12.2,136,-35.1l0,-191c0,0,-59.6,39.7,-125.3,59.6c0,0,-65.7,19.9,-131.3,19.9c0,0,-71.9,0,-108.5,-21.4c0,0,-38.2,-21.4,-38.2,-64.2c0,0,0,-59.6,158.9,-96.2l9.1,-3.1l62.7,-13.7c0,0,119.1,-29.1,174.1,-91.7c0,0,55,-62.6,55,-171.1c0,0,0,-128.4,-84,-192.5c0,0,-84,-64.1,-255.1,-64.1Z" 
	id="f2_e"
	transform="scale(0.001,-0.001)" />

	<path d="M125,0l0,1113l693,0l0,-194l-473,0l0,-241l428,0l0,-194l-428,0l0,-292l473,0L818,0Z" 
	id="f2_f"
	transform="scale(0.001,-0.001)" />

	<path d="M458.3,155.8c0,0,79.5,0,123.8,68.8c0,0,45.8,68.7,45.8,191c0,0,0,123.7,-44.3,192.5c0,0,-45.8,68.7,-125.3,68.7c0,0,-77.9,0,-122.2,-68.7c0,0,-45.8,-68.8,-45.8,-192.5c0,0,0,-122.3,44.3,-191c0,0,45.8,-68.8,123.7,-68.8Zm0,-177.1c0,0,-175.7,0,-281.1,117.6c0,0,-105.4,117.6,-105.4,319.3c0,0,0,203.2,105.4,320.8c0,0,105.4,119.2,281.1,119.2c0,0,177.3,0,282.7,-117.7c0,0,105.4,-119.1,105.4,-322.3c0,0,0,-201.7,-105.4,-319.3c0,0,-105.4,-117.6,-282.7,-117.6Z" 
	id="f2_g"
	transform="scale(0.001,-0.001)" />

	<path d="M334,0l0,273l248,0L582,0Zm0,519l0,273l248,0l0,-273Z" 
	id="f2_h"
	transform="scale(0.001,-0.001)" />

	<path d="M421.7,624.9c0,0,90.1,0,129.8,35.1c0,0,39.8,35.1,39.8,116.1c0,0,0,82.5,-38.2,116.1c0,0,-39.8,35.2,-131.4,35.2l-103.9,0l0,-302.5ZM97.8,0l0,1113.8l317.8,0c0,0,215.4,0,308.6,-76.4c0,0,94.7,-76.4,94.7,-247.5c0,0,0,-116.1,-56.5,-183.4c0,0,-56.6,-67.2,-160.5,-80.9c0,0,32.1,-7.7,56.6,-30.6c0,0,24.4,-24.4,59.6,-94.7L919.7,0L676.8,0L542.4,281.1c0,0,-4.6,10.7,-15.3,32.1c0,0,-58.1,126.8,-139,126.8l-70.3,0l0,-440Z" 
	id="f2_j"
	transform="scale(0.001,-0.001)" />

	<path d="M563.8,455.3L458.3,912.1L354.4,455.3ZM24.4,0L323.9,1113.8l270.4,0L893.8,0l-220,0L605,275l-293.3,0L244.4,0Z" 
	id="f2_k"
	transform="scale(0.001,-0.001)" />

	<path d="M223,330l0,216l472,0l0,-216Z" 
	id="f2_l"
	transform="scale(0.001,-0.001)" />

	<path d="M458.3,462.9c0,0,-38.2,0,-64.1,26c0,0,-27.5,26,-27.5,65.7c0,0,0,39.7,25.9,65.7c0,0,27.5,27.5,65.7,27.5c0,0,39.8,0,65.7,-26c0,0,27.5,-27.5,27.5,-67.2c0,0,0,-38.2,-25.9,-64.2c0,0,-27.5,-27.5,-67.3,-27.5Zm0,-299.4c0,0,78,0,111.6,93.2c0,0,35.1,93.2,35.1,297.9c0,0,0,206.2,-33.6,299.4c0,0,-35.1,93.2,-113.1,93.2c0,0,-76.4,0,-110,-93.2c0,0,-35.1,-93.2,-35.1,-299.4c0,0,0,-204.7,33.6,-297.9c0,0,35.1,-93.2,111.5,-93.2Zm0,-184.8c0,0,-183.3,0,-275,143.5c0,0,-91.6,143.6,-91.6,432.4c0,0,0,290.3,91.6,433.9c0,0,91.7,145.1,275,145.1c0,0,184.9,0,276.6,-143.6c0,0,91.6,-145.1,91.6,-435.4c0,0,0,-288.8,-91.6,-432.4c0,0,-91.7,-143.5,-276.6,-143.5Z" 
	id="f2_m"
	transform="scale(0.001,-0.001)" />

	<path d="M440,551.5c0,0,70.3,0,106.9,52c0,0,38.2,51.9,38.2,151.2c0,0,0,97.8,-36.6,148.2c0,0,-38.2,52,-108.5,52c0,0,-71.8,0,-110,-50.5c0,0,-39.7,-51.9,-39.7,-149.7c0,0,0,-97.8,38.2,-149.7c0,0,39.7,-53.5,111.5,-53.5ZM371.3,-28.9c0,0,-53.5,0,-108.5,10.7c0,0,-55,12.2,-111.5,32l0,201.6c0,0,58,-35.1,111.5,-50.4c0,0,55,-16.8,105.4,-16.8c0,0,117.6,0,180.3,79.4c0,0,62.6,79.5,65.7,236.8c0,0,-35.2,-48.8,-88.6,-71.8c0,0,-55,-24.4,-129.9,-24.4c0,0,-149.7,0,-230.7,94.7c0,0,-82.5,94.7,-82.5,268.9c0,0,0,187.9,91.7,288.8c0,0,91.6,102.3,259.7,102.3c0,0,203.2,0,294.9,-136c0,0,93.1,-135.9,93.1,-440c0,0,0,-288.7,-113,-432.3c0,0,-113.1,-143.5,-337.6,-143.5Z" 
	id="f2_n"
	transform="scale(0.001,-0.001)" />

	<path d="M516.4,427.8l0,440L235.3,427.8ZM516.4,0l0,239.9l-441.5,0l0,212.3l423.2,661.6l230.7,0l0,-686l122.2,0l0,-187.9l-122.2,0L728.8,0Z" 
	id="f2_o"
	transform="scale(0.001,-0.001)" />

	<path d="M171,699l0,414l191,0l0,-414Zm382,0l0,414l191,0l0,-414Z" 
	id="f2_p"
	transform="scale(0.001,-0.001)" />

	<path d="M426.3,-21.3c0,0,-82.5,0,-165,18.3c0,0,-84.1,19.8,-162,59.5l0,227.7c0,0,88.6,-62.7,171.1,-93.2c0,0,82.5,-32.1,163.5,-32.1c0,0,81,0,125.3,36.7c0,0,44.3,38.2,44.3,103.8c0,0,0,50.5,-29.1,87.1c0,0,-30.5,38.2,-87,59.6l-107,41.3c0,0,-166.5,64.1,-226.1,132.9c0,0,-59.6,70.3,-59.6,187.9c0,0,0,151.2,96.3,238.3c0,0,97.8,87.1,267.3,87.1c0,0,78,0,154.3,-16.8c0,0,76.4,-18.3,151.3,-53.5l0,-213.9c0,0,-70.3,48.9,-143.6,74.9c0,0,-73.4,27.5,-143.6,27.5c0,0,-81,0,-122.3,-32.1c0,0,-42.7,-32.1,-42.7,-93.2c0,0,0,-45.8,30.5,-74.8c0,0,30.6,-30.6,129.9,-67.3l94.7,-36.6c0,0,132.9,-48.9,195.6,-129.9c0,0,64.1,-81,64.1,-204.7c0,0,0,-169.6,-99.3,-252.1c0,0,-99.3,-82.4,-300.9,-82.4Z" 
	id="f2_q"
	transform="scale(0.001,-0.001)" />

	<path d="M458.3,-21.3c0,0,-198.6,0,-288.7,102.3c0,0,-91.7,102.3,-91.7,330l0,702.8l220,0l0,-759.4c0,0,0,-82.5,42.8,-129.8c0,0,42.8,-47.4,117.6,-47.4c0,0,76.4,0,117.7,47.4c0,0,42.8,47.3,42.8,129.8l0,759.4l220,0l0,-702.8c0,0,0,-227.7,-90.2,-330c0,0,-90.1,-102.3,-290.3,-102.3Z" 
	id="f2_r"
	transform="scale(0.001,-0.001)" />

	<path d="M430.8,601.9c0,0,108.5,0,151.3,35.2c0,0,44.3,36.7,44.3,126.8c0,0,0,91.7,-42.8,126.8c0,0,-44.3,36.7,-152.8,36.7l-90.1,0l0,-325.5ZM120.7,0l0,1113.8l301,0c0,0,230.7,0,331.5,-82.5c0,0,102.4,-82.5,102.4,-267.4c0,0,0,-183.3,-100.9,-265.8c0,0,-102.3,-82.5,-333,-82.5l-81,0L340.7,0Z" 
	id="f2_s"
	transform="scale(0.001,-0.001)" />

	<path d="M166,0l0,1113l220,0l0,-921l472,0L858,0Z" 
	id="f2_t"
	transform="scale(0.001,-0.001)" />

	<path d="M126,0l0,192l223,0l0,727l-223,0l0,194l665,0l0,-194l-222,0l0,-727l222,0L791,0Z" 
	id="f2_u"
	transform="scale(0.001,-0.001)" />

	<path d="M105,0l0,166l273,0l0,501l-215,0l0,167l434,0l0,-668l270,0L867,0ZM378,985l0,255l219,0l0,-255Z" 
	id="f2_v"
	transform="scale(0.001,-0.001)" />

	<path d="M126.8,0l0,834.2l218.5,0l0,-125.3c0,0,22.9,70.3,77.9,108.5c0,0,56.5,38.2,136,38.2c0,0,117.6,0,177.2,-78c0,0,61.1,-79.4,61.1,-236.8L797.5,0L580.6,0l0,508.8c0,0,0,90.1,-24.5,128.3c0,0,-26,39.7,-84,39.7c0,0,-59.6,0,-93.2,-51.9c0,0,-33.6,-53.5,-33.6,-148.2L345.3,0Z" 
	id="f2_w"
	transform="scale(0.001,-0.001)" />

	<path d="M323.9,0L59.6,834.2l221.5,0L458.3,183.3L637.1,834.2l221.5,0L594.3,0Z" 
	id="f2_x"
	transform="scale(0.001,-0.001)" />

	<path d="M436.9,157.4c0,0,70.3,0,111.6,67.2c0,0,41.2,68.7,41.2,189.4c0,0,0,122.3,-41.2,189.5c0,0,-41.3,68.7,-111.6,68.7c0,0,-71.8,0,-111.5,-67.2c0,0,-39.7,-68.7,-39.7,-191c0,0,0,-120.7,39.7,-187.9c0,0,39.7,-68.7,111.5,-68.7ZM368.2,-21.3c0,0,-143.6,0,-223.1,114.5c0,0,-79.4,114.6,-79.4,322.4c0,0,0,212.3,79.4,325.4c0,0,81,114.6,230.7,114.6c0,0,67.3,0,119.2,-35.2c0,0,53.5,-35.1,94.7,-103.9l0,443.1l217,0L806.7,0l-217,0l0,123.8c0,0,-35.1,-73.4,-90.1,-108.5c0,0,-56.5,-36.6,-131.4,-36.6Z" 
	id="f2_y"
	transform="scale(0.001,-0.001)" />

	<path d="M331.5,0l0,667.6l-203.2,0l0,166.6l203.2,0l0,58c0,0,0,151.3,62.7,209.3c0,0,62.6,58.1,233.7,58.1l178.8,0l0,-168.1l-171.1,0c0,0,-48.9,0,-65.7,-16.8c0,0,-18.4,-18.3,-19.9,-67.2l0,-73.3l256.7,0l0,-166.6l-256.7,0L550,0Z" 
	id="f2_z"
	transform="scale(0.001,-0.001)" />

	<path d="M149,0l0,1113l150,0L299,0Z" 
	id="f1_u"
	transform="scale(0.001,-0.001)" />

	<path d="M117.6,-177.1L178.8,61.1l0,128.3l157.3,0l0,-128.3L213.9,-177.1Z" 
	id="f1_j"
	transform="scale(0.001,-0.001)" />

	<path d="M149,0l0,1113l705,0l0,-128l-555,0l0,-329l530,0l0,-126l-530,0l0,-404l567,0L866,0Z" 
	id="f1_1n"
	transform="scale(0.001,-0.001)" />

	<path d="M149,0l0,1113l150,0l0,-457l548,0l0,457l150,0L997,0L847,0l0,530l-548,0L299,0Z" 
	id="f1_18"
	transform="scale(0.001,-0.001)" />

	<path d="M601.9,99.3c0,0,163.5,0,258.2,122.2c0,0,96.3,123.8,96.3,333.1c0,0,0,210.8,-94.7,333c0,0,-96.3,123.8,-259.8,123.8c0,0,-165,0,-261.2,-122.2c0,0,-96.3,-123.8,-96.3,-334.6c0,0,0,-209.3,96.3,-331.5c0,0,96.2,-123.8,261.2,-123.8Zm0,-120.6c0,0,-235.2,0,-375.8,155.7c0,0,-140.5,155.9,-140.5,420.2c0,0,0,264.3,140.5,421.7c0,0,140.6,157.3,375.8,157.3c0,0,233.8,0,372.8,-157.3c0,0,140.6,-157.4,140.6,-421.7c0,0,0,-262.8,-139,-418.6c0,0,-140.6,-157.3,-374.4,-157.3Z" 
	id="f1_3"
	transform="scale(0.001,-0.001)" />

	<path d="M352.9,-200c0,0,-111.5,174.1,-166.5,342.1c0,0,-56.5,169.6,-56.5,336.1c0,0,0,166.5,55,334.6c0,0,56.5,169.6,168,345.3l120.7,0c0,0,-100.8,-171.2,-148.2,-339.2c0,0,-48.9,-168.1,-48.9,-340.7c0,0,0,-171.1,48.9,-339.2c0,0,48.9,-169.5,148.2,-339Z" 
	id="f1_1i"
	transform="scale(0.001,-0.001)" />

	<path d="M122.2,-200c0,0,99.3,169.5,146.7,337.5c0,0,48.9,169.6,48.9,340.7c0,0,0,172.6,-47.4,340.7c0,0,-48.9,168,-148.2,339.2l119.2,0c0,0,111.5,-175.7,166.5,-343.8c0,0,56.5,-169.6,56.5,-336.1c0,0,0,-166.5,-55,-334.6c0,0,-56.5,-169.5,-168,-343.6Z" 
	id="f1_o"
	transform="scale(0.001,-0.001)" />

	<path d="M481.3,123.8c0,0,230.6,0,337.6,103.8c0,0,106.9,103.9,106.9,330c0,0,0,223.1,-106.9,327c0,0,-107,103.9,-337.6,103.9l-181.9,0l0,-864.7ZM149.7,0l0,1113.8l308.6,0c0,0,323.9,0,475.2,-134.5c0,0,151.2,-136,151.2,-421.7c0,0,0,-288.7,-151.2,-423.2C933.5,134.4,780.7,0,458.3,0Z" 
	id="f1_16"
	transform="scale(0.001,-0.001)" />


</defs>
</svg>