<?xml version="1.0" encoding="UTF-8" standalone="no"?>
<!DOCTYPE svg PUBLIC "-//W3C//DTD SVG 1.1//EN"
"http://www.w3.org/Graphics/SVG/1.1/DTD/svg11.dtd">
<svg viewBox="0 0 1210 1045" version="1.1" xmlns="http://www.w3.org/2000/svg" xmlns:xlink="http://www.w3.org/1999/xlink">
<defs>
<style type="text/css"><![CDATA[
.g2_42{
fill: none;
stroke: #418AB3;
stroke-width: 2;
stroke-linecap: butt;
stroke-linejoin: miter;
stroke-miterlimit: 7;
}
.g1_42{
fill: #FFFFFF;
}
]]></style>
</defs>
<path fill-rule="evenodd" d="M0,0L1210,0l0,1045L0,1045L0,0Z" class="g1_42" />
<path fill-rule="evenodd" d="M0,0L1210,0l0,1045L0,1045L0,0Z" class="g1_42" />
<image x="828" y="984" width="334" height="49" xlink:href="img/1.png" />
<path fill-rule="evenodd" d="M898.3,23.1l0,-0.5l0,-0.3l0,-0.5l0.2,-0.3l0.1,-0.4l0,-0.5l0.2,-0.3L898.9,20l0.2,-0.4l0.1,-0.4l0.4,-0.3l0.1,-0.3L900,18.3L900.3,18l0.2,-0.3l0.3,-0.3l0.3,-0.3L901.4,17l0.4,-0.3l0.4,-0.2l0.3,-0.2L902.8,16l0.4,0l0.3,-0.1L904,15.7l0.3,-0.1l0.5,0l0.3,-0.2l0.4,0l0.5,0l277.1,0l0.3,0l0.5,0l0.3,0.2l0.4,0l0.3,0.1l0.5,0.2l0.3,0.1l0.5,0l0.3,0.3l0.3,0.2l0.4,0.2l0.3,0.3l0.3,0.1l0.4,0.3l0.3,0.3l0.1,0.3l0.3,0.3l0.3,0.3l0.2,0.3l0.1,0.3l0.3,0.4L1190,20l0.1,0.3l0,0.3l0.2,0.5l0.1,0.4l0,0.3l0.2,0.5l0,0.3l0,0.5l0.2,30.2l-0.2,0l0,0.5l0,0.3l0,0.4l-0.2,0.3l0,0.5l-0.1,0.5l-0.2,0.3l-0.1,0.3l-0.2,0.4l-0.3,0.3l-0.1,0.3l-0.2,0.3l-0.3,0.4l-0.1,0.3l-0.3,0.3l-0.3,0.3l-0.4,0.1l-0.3,0.3l-0.3,0.3l-0.4,0.2l-0.3,0.1l-0.3,0.2l-0.5,0.1l-0.3,0.2l-0.5,0.2l-0.3,0l-0.4,0.1l-0.3,0l-0.5,0.2l-0.3,0L906,61l-0.5,0l-0.4,0l-0.3,-0.2l-0.5,0L904,60.7l-0.5,-0.2l-0.3,-0.2l-0.4,0L902.5,60l-0.3,-0.1l-0.4,-0.2l-0.4,-0.3l-0.3,-0.1L900.8,59l-0.3,-0.3l-0.2,-0.3L900,58.1l-0.3,-0.4l-0.1,-0.3l-0.4,-0.3l-0.1,-0.3l-0.2,-0.4l-0.1,-0.3l-0.2,-0.3l0,-0.5l-0.1,-0.5l-0.2,-0.3l0,-0.4l0,-0.3l0,-0.5l0,-30.2Z" class="g1_42" />
<path d="M898.3,23.1l0,-0.5l0,-0.3l0,-0.5l0.2,-0.3l0.1,-0.4l0,-0.5l0.2,-0.3L898.9,20l0.2,-0.4l0.1,-0.4l0.4,-0.3l0.1,-0.3L900,18.3L900.3,18l0.2,-0.3l0.3,-0.3l0.3,-0.3L901.4,17l0.4,-0.3l0.4,-0.2l0.3,-0.2L902.8,16l0.4,0l0.3,-0.1L904,15.7l0.3,-0.1l0.5,0l0.3,-0.2l0.4,0l0.5,0l277.1,0l0.3,0l0.5,0l0.3,0.2l0.4,0l0.3,0.1l0.5,0.2l0.3,0.1l0.5,0l0.3,0.3l0.3,0.2l0.4,0.2l0.3,0.3l0.3,0.1l0.4,0.3l0.3,0.3l0.1,0.3l0.3,0.3l0.3,0.3l0.2,0.3l0.1,0.3l0.3,0.4L1190,20l0.1,0.3l0,0.3l0.2,0.5l0.1,0.4l0,0.3l0.2,0.5l0,0.3l0,0.5l0.2,30.2l-0.2,0l0,0.5l0,0.3l0,0.4l-0.2,0.3l0,0.5l-0.1,0.5l-0.2,0.3l-0.1,0.3l-0.2,0.4l-0.3,0.3l-0.1,0.3l-0.2,0.3l-0.3,0.4l-0.1,0.3l-0.3,0.3l-0.3,0.3l-0.4,0.1l-0.3,0.3l-0.3,0.3l-0.4,0.2l-0.3,0.1l-0.3,0.2l-0.5,0.1l-0.3,0.2l-0.5,0.2l-0.3,0l-0.4,0.1l-0.3,0l-0.5,0.2l-0.3,0L906,61l-0.5,0l-0.4,0l-0.3,-0.2l-0.5,0L904,60.7l-0.5,-0.2l-0.3,-0.2l-0.4,0L902.5,60l-0.3,-0.1l-0.4,-0.2l-0.4,-0.3l-0.3,-0.1L900.8,59l-0.3,-0.3l-0.2,-0.3L900,58.1l-0.3,-0.4l-0.1,-0.3l-0.4,-0.3l-0.1,-0.3l-0.2,-0.4l-0.1,-0.3l-0.2,-0.3l0,-0.5l-0.1,-0.5l-0.2,-0.3l0,-0.4l0,-0.3l0,-0.5l0,-30.2Z" class="g2_42" />
</svg>