<?xml version="1.0" encoding="UTF-8" standalone="no"?>
<!DOCTYPE svg PUBLIC "-//W3C//DTD SVG 1.1//EN"
"http://www.w3.org/Graphics/SVG/1.1/DTD/svg11.dtd">
<svg viewBox="0 0 1210 1045" version="1.1" xmlns="http://www.w3.org/2000/svg" xmlns:xlink="http://www.w3.org/1999/xlink">
<defs>
<clipPath id="c0_68"><path d="M381,252.1l-0.3,-0.2l-0.3,0l-0.3,-0.1l-0.3,-0.2l-0.3,0l-0.3,-0.1l-0.3,-0.2l-0.3,-0.1l-0.3,-0.3l-0.2,-0.3l-0.3,0l-0.1,-0.4l-0.3,-0.1l0,-0.3l-0.3,-0.3l-0.3,-0.2L376.6,249l-0.2,-0.3l-0.1,-0.3l0,-0.3l-0.2,-0.3L376,247.5l0,-0.3l-0.2,-0.3l0,-0.5l0,-0.4l0,-0.2l0,-35.9l0,-0.3l0,-0.3l0,-0.3l0.2,-0.3l0,-0.3l0.1,-0.3l0.2,-0.5l0,-0.3l0.1,-0.1l0.2,-0.3l0.2,-0.3l0.3,-0.3l0.3,-0.4l0,-0.1l0.3,-0.3l0.1,-0.2l0.3,-0.3l0.2,-0.3l0.3,0l0.3,-0.1l0.3,-0.2l0.3,-0.1l0.3,-0.2l0.3,-0.1l0.3,0l0.3,-0.2l0.6,0l0.3,-0.1l411.5,0l0.3,0.1l0.7,0l0.3,0.2l0.4,0l0.3,0.1l0.3,0.2l0.3,0.1l0.3,0.2l0.1,0.1l0.3,0l0.3,0.3l0.2,0.3l0.3,0.3l0.3,0.2l0.2,0.3l0.1,0.2l0.2,0.3l0.1,0.3l0.2,0.3l0.1,0.3l0.2,0.3l0.1,0.3l0,0.3l0.3,0.3l0,0.3l0,0.3l0,0.3l0,0.3l0,35.9l0,0.2l0,0.4l0,0.3l0,0.5l0,0.3l-0.3,0.3l-0.1,0.3l0,0.3l-0.2,0.3l-0.1,0.3l-0.3,0l-0.2,0.5l-0.1,0.3l-0.2,0.1l-0.3,0.3l-0.2,0.2l-0.3,0.2l-0.3,0.3l-0.1,0.1l-0.3,0.2l-0.3,0.1l-0.3,0.2l-0.3,0.1l-0.3,0.2l-0.4,0l-0.3,0.1l-0.7,0l-0.3,0.2Z" /></clipPath>
<clipPath id="c1_68"><path d="M421.7,309.4l-0.5,-0.2l-0.6,0l-0.3,-0.1l-0.2,0l-0.4,-0.2l-0.3,-0.3l-0.3,0l-0.3,-0.1l-0.2,-0.2l-0.4,-0.1L418,308l-0.3,-0.3l-0.3,-0.2l-0.2,-0.4l-0.1,-0.2l-0.3,-0.1l-0.2,-0.3l-0.1,-0.3l-0.2,-0.3l-0.1,-0.3L416,305.2l-0.1,-0.3l0,-0.3l-0.2,-0.3l0,-0.3l0,-0.3l-0.1,-0.3l0,-0.3l0,-35.9l0,-0.4l0.1,-0.4l0,-0.3l0,-0.3l0.2,-0.3l0,-0.3l0.1,-0.3l0.2,-0.3l0.1,-0.3l0.2,-0.3l0.1,-0.2l0.2,-0.3l0.3,-0.3l0.1,-0.4l0.2,0l0.3,-0.3l0.3,-0.2l0.2,-0.1l0.4,-0.3l0.2,-0.2l0.3,-0.1l0.3,-0.3l0.7,0l0.2,-0.2l0.3,0l0.3,-0.2l412.7,0l0.3,0.2l0.3,0l0.3,0.2l0.6,0l0.3,0.3l0.3,0.1L836,262l0.3,0.2l0.2,0.1l0.3,0.2l0.4,0.3l0.2,0.4l0.3,0.3l0.1,0.3L838,264l0.1,0.3l0.2,0.3l0.1,0.3l0.4,0.3l0,0.3l0,0.3l0,0.3l0,0.3l0,0.4l0,0.4l0.1,35.9l0,0.3l0,0.3l-0.1,0.3l0,0.3l0,0.3l0,0.3l-0.4,0.3l-0.1,0.4l0,0.3l-0.3,0.3l-0.2,0.3l-0.1,0.1l-0.2,0.3l-0.3,0.2l0,0.3l-0.4,0.3l-0.2,0.1l-0.3,0.4l-0.3,0.1l-0.3,0.2l0,0.1l-0.5,0l-0.3,0.3l-0.3,0l-0.4,0.2l-0.3,0l-0.3,0.1l-1,0l-410.8,0.2Z" /></clipPath>
<style type="text/css"><![CDATA[
.g6_68{
fill-opacity: 0.9;
}
.g12_68{
fill: none;
stroke: #FEC306;
stroke-width: 1;
stroke-linecap: butt;
stroke-linejoin: miter;
stroke-miterlimit: 7;
}
.g2_68{
fill: none;
stroke: #418AB3;
stroke-width: 1;
stroke-linecap: butt;
stroke-linejoin: miter;
stroke-miterlimit: 7;
}
.g3_68{
fill: none;
stroke: #418AB3;
stroke-width: 1;
stroke-linecap: butt;
stroke-linejoin: miter;
}
.g8_68{
fill: #FFFFFF;
fill-opacity: 0.9;
}
.g1_68{
fill: #FFFFFF;
}
.g13_68{
fill: none;
stroke: #418AB3;
stroke-width: 7;
stroke-linecap: butt;
stroke-linejoin: miter;
}
.g9_68{
fill: none;
stroke: #5E5E5E;
stroke-width: 2;
stroke-linecap: butt;
stroke-linejoin: miter;
stroke-miterlimit: 7;
stroke-opacity: 0.9;
}
.g5_68{
fill: none;
stroke: #306684;
stroke-width: 2;
stroke-linecap: butt;
stroke-linejoin: miter;
stroke-miterlimit: 7;
}
.g7_68{
fill: none;
stroke: #CEDAE4;
stroke-width: 2;
stroke-linecap: butt;
stroke-linejoin: miter;
stroke-miterlimit: 7;
stroke-opacity: 0.9;
}
.g4_68{
fill: #418AB3;
}
.g10_68{
fill: none;
stroke: #000000;
stroke-width: 1;
stroke-linecap: butt;
stroke-linejoin: round;
}
.g11_68{
fill: none;
stroke: #000000;
stroke-width: 1;
stroke-linecap: butt;
stroke-linejoin: miter;
}
]]></style>
</defs>
<path fill-rule="evenodd" d="M0,0L1210,0l0,1045L0,1045L0,0Z" class="g1_68" />
<path fill-rule="evenodd" d="M0,0L1210,0l0,1045L0,1045L0,0Z" class="g1_68" />
<image x="828" y="984" width="334" height="49" xlink:href="img/1.png" />
<image x="340" y="146" width="425" height="50" xlink:href="shade/1.png" />
<path d="M340.4,152.6l0,-0.3l0,-0.3l0.1,-0.3l0,-0.3l0,-0.3l0.2,-0.3l0.1,-0.5l0,-0.3l0.4,-0.1l0,-0.3l0.3,-0.3l0.1,-0.3l0.2,-0.3l0.3,-0.2l0.1,-0.3l0.3,-0.2l0.2,-0.3l0.3,-0.1l0.3,-0.2l0.1,-0.1l0.4,-0.2l0.3,-0.1l0.3,-0.2l0.3,-0.1l0.3,0l0.3,-0.2l0.3,0l0.4,0l0.3,-0.1l0.4,0l410.8,0l0.3,0l0.3,0.1l0.3,0l0.3,0l0.3,0.2l0.3,0l0.3,0.1l0.3,0.2l0.3,0.1l0.3,0.2l0.3,0.1l0.2,0.2l0.3,0.1l0.3,0.3l0.2,0.3l0.3,0.2l0.1,0.3l0.2,0.2l0.3,0.3l0.1,0.3l0.2,0.3l0.1,0.3l0,0.3l0.2,0.3l0.1,0.3l0,0.3l0,0.3l0.2,0.3l0,0.3l0,0.3l0.1,35.9l0,0.3l-0.1,0.3l0,0.3l0,0.5l-0.2,0.3l0,0.3l-0.1,0.3l-0.2,0.3l-0.1,0.3l-0.2,0.3l-0.1,0.2l-0.2,0.3l-0.3,0.3l-0.1,0.2l-0.3,0.3l-0.2,0.1l-0.3,0.3l-0.2,0.2l-0.3,0.1l-0.3,0.2l-0.3,0.1l-0.3,0.2l-0.3,0.1l-0.3,0.2l-0.3,0l-0.3,0.1l-0.3,0l-0.3,0l-0.3,0.2l-0.3,0l-410.8,0l-0.4,0l-0.3,0l-0.4,0l-0.3,-0.2l-0.3,0l-0.3,-0.1l-0.3,-0.2l-0.3,0l-0.3,-0.1L343.4,194l-0.1,-0.1L343,193.6l-0.3,-0.2l-0.2,-0.1L342.2,193l-0.1,-0.2l-0.3,-0.3l-0.2,-0.3L341.5,192l-0.3,-0.3l0,-0.3l-0.4,-0.3l0,-0.3l-0.1,-0.3l-0.2,-0.3l0,-0.3l0,-0.3l-0.1,-0.5l0,-0.3l0,-0.3l0,-35.9Z" class="g2_68" />
<image x="375" y="203" width="425" height="49" xlink:href="shade/2.png" />
<g clip-path="url(#c0_68)">
<path d="M375.5,252.5l424,0l0,-49l-424,0l0,49Z" class="g3_68" />
</g>
<path d="M375.8,209.9l0,-0.4l0,-0.3l0.2,-0.4l0,-0.3l0.1,-0.3l0,-0.3l0.2,-0.3l0.1,-0.3l0.2,-0.3l0.2,-0.3l0.1,-0.1l0.2,-0.3l0.1,-0.4l0.3,-0.3l0.2,-0.1l0.3,-0.3l0.1,-0.2l0.3,-0.1l0.3,-0.3l0.3,-0.2l0.3,-0.1l0.2,-0.2l0.3,0l0.5,-0.1l0.3,-0.2l0.3,0l0.1,-0.1l0.5,0l0.3,0l0.3,0l410.8,0l0.3,0l0.3,0l0.3,0l0.3,0.1l0.3,0l0.4,0.2l0.3,0.1l0.3,0.2l0.3,0l0.3,0.3l0.3,0.1l0.1,0.2l0.3,0.1l0.3,0.2l0.2,0.3l0.3,0.1l0.2,0.3l0.3,0.4l0.1,0.3l0.2,0.1l0.1,0.3l0.2,0.3l0.1,0.3l0,0.3l0.2,0.3l0,0.3l0.1,0.3l0,0.4l0,0.3l0,0.4l0.2,35.9l0,0.3l-0.2,0.3l0,0.3l0,0.3l-0.1,0.3l0,0.4l-0.2,0.3l-0.1,0.3l-0.2,0.3l-0.1,0.3l-0.2,0.3l-0.1,0.1l-0.3,0.3l-0.2,0.3l-0.2,0.2l-0.3,0.3l-0.3,0.2l-0.1,0.3l-0.3,0.1l-0.3,0.2l-0.3,0.1l-0.3,0.2l-0.3,0.1l-0.3,0l-0.4,0.2l-0.3,0l-0.3,0.1l-0.3,0l-0.3,0l-0.3,0l-410.8,0.2l-0.3,0l-0.3,-0.2l-0.5,0l-0.1,0l-0.3,-0.1l-0.3,0l-0.5,-0.2l-0.3,-0.1l-0.2,-0.2L379,251.2L378.7,251l-0.3,-0.1l-0.3,-0.2L378,250.4l-0.3,-0.2l-0.2,-0.3l-0.3,-0.3l-0.1,-0.1l-0.2,-0.3l-0.1,-0.3l-0.2,-0.3l-0.2,-0.3L376.3,248l-0.2,-0.3l0,-0.4L376,247l0,-0.3l-0.2,-0.3l0,-0.3l0,-0.3l0,-35.9Z" class="g2_68" />
<image x="415" y="260" width="424" height="50" xlink:href="shade/3.png" />
<g clip-path="url(#c1_68)">
<path d="M415.5,309.5l424,0l0,-49l-424,0l0,49Z" class="g3_68" />
</g>
<path d="M415.7,267.1l0,-0.3l0,-0.4l0.2,-0.3l0,-0.3l0,-0.3l0.1,-0.3l0.2,-0.4l0,-0.3l0.3,-0.2l0,-0.3l0.1,-0.3l0.3,-0.3l0.2,-0.3l0.1,-0.2l0.3,-0.3l0.3,-0.1l0.2,-0.3l0.3,-0.2l0.3,-0.1l0.2,-0.2l0.3,-0.1l0.3,-0.2l0.3,-0.1l0.3,-0.2l0.3,0l0.3,-0.2l0.3,0l0.5,0l0.3,-0.1l0.3,0l410.6,0l0.5,0l0.3,0.1l0.3,0l0.3,0l0.3,0.2l0.3,0l0.3,0.2l0.3,0.1l0.3,0.2l0.3,0.1l0.4,0.2l0.1,0.1l0.3,0.2l0.3,0.3l0.2,0.1l0.3,0.3l0.1,0.3l0.2,0.2l0.1,0.3l0.3,0.3l0,0.3l0.3,0.3l0,0.3l0.2,0.3l0.2,0.3l0,0.3l0,0.3l0.1,0.3l0,0.4l0,0.3l0.2,35.9l0,0.3l-0.2,0.3l0,0.3l0,0.4l-0.1,0.3l0,0.3l-0.2,0.3l-0.2,0.4l-0.1,0.3l-0.2,0.3l-0.1,0.1l-0.2,0.3l-0.3,0.3l-0.1,0.2l-0.3,0.3l-0.2,0.1l-0.3,0.3l-0.1,0.2l-0.3,0.2l-0.4,0.1l-0.3,0.2l-0.3,0.1l-0.3,0.2l-0.3,0.1l-0.3,0l-0.3,0.2l-0.3,0l-0.3,0l-0.3,0.1l-0.5,0l-410.6,0l-0.3,0l-0.3,0l-0.5,0l-0.3,-0.1l-0.3,0L420,308.9l-0.3,-0.1l-0.3,0l-0.3,-0.2l-0.3,-0.1l-0.2,-0.2L418.3,308L418,307.8l-0.2,-0.1l-0.3,-0.3l-0.3,-0.2l-0.1,-0.3l-0.2,-0.3l-0.3,-0.1l-0.1,-0.3l0,-0.3l-0.3,-0.3l0,-0.4L416,304.9l-0.1,-0.3l0,-0.3l0,-0.3l-0.2,-0.4l0,-0.3l0,-0.3l0,-35.9Z" class="g2_68" />
<path fill-rule="evenodd" d="M446.3,324.3l0,-0.4l0,-0.3l0,-0.3l0.1,-0.3l0,-0.3l0.2,-0.3l0.1,-0.3l0,-0.3l0.2,-0.4l0.1,-0.3l0.2,-0.3l0.3,-0.3l0.1,-0.1l0.2,-0.3l0.3,-0.2l0.1,-0.3l0.4,-0.1l0.3,-0.2l0.3,-0.3l0.1,-0.2l0.3,-0.1l0.3,-0.2l0.3,0l0.3,-0.1l0.3,-0.2l0.4,0l0.3,-0.1l0.3,0l0.3,0l0.4,0l410.7,0l0.5,0l0.3,0l0.3,0l0.3,0.1l0.3,0l0.3,0.2l0.3,0.1l0.3,0l0.3,0.2l0.3,0.1l0.2,0.4l0.3,0.1l0.3,0.2l0.3,0.1l0.1,0.3l0.2,0.2l0.3,0.3l0.1,0.3l0.2,0.1l0.1,0.3l0.2,0.3l0.1,0.4l0.2,0.3l0.2,0.3l0,0.3l0.1,0.3l0,0.3l0.2,0.3l0,0.3l0,0.4l0,35.9l0,0.4l0,0.3l0,0.3l0,0.3l-0.2,0.3l-0.1,0.3l0,0.3l-0.2,0.3l-0.2,0.3l-0.1,0.3l-0.2,0.3l-0.3,0.2l-0.1,0.3l-0.2,0.3l-0.3,0.1l-0.1,0.3l-0.3,0.2l-0.3,0.1l-0.2,0.3l-0.3,0.2l-0.3,0.1l-0.3,0.2l-0.3,0.2l-0.3,0l-0.3,0.1l-0.3,0l-0.3,0.2l-0.3,0l-0.3,0l-0.5,0l-410.7,0.1l-0.4,0l-0.3,-0.1l-0.3,0l-0.3,0l-0.4,-0.2l-0.3,0l-0.3,-0.1l-0.3,-0.2l-0.3,-0.2l-0.3,-0.1l-0.1,-0.2l-0.3,-0.1l-0.3,-0.2l-0.4,-0.3l-0.1,-0.1l-0.3,-0.3l-0.2,-0.3l-0.1,-0.2l-0.3,-0.3L447,363.3L446.9,363l-0.2,-0.3l0,-0.3l-0.1,-0.3l-0.2,-0.3l0,-0.3l-0.1,-0.3l0,-0.3l0,-0.3l0,-0.4l0,-35.9Z" class="g4_68" />
<path d="M446.3,324.3l0,-0.4l0,-0.3l0,-0.3l0.1,-0.3l0,-0.3l0.2,-0.3l0.1,-0.3l0,-0.3l0.2,-0.4l0.1,-0.3l0.2,-0.3l0.3,-0.3l0.1,-0.1l0.2,-0.3l0.3,-0.2l0.1,-0.3l0.4,-0.1l0.3,-0.2l0.3,-0.3l0.1,-0.2l0.3,-0.1l0.3,-0.2l0.3,0l0.3,-0.1l0.3,-0.2l0.4,0l0.3,-0.1l0.3,0l0.3,0l0.4,0l410.7,0l0.5,0l0.3,0l0.3,0l0.3,0.1l0.3,0l0.3,0.2l0.3,0.1l0.3,0l0.3,0.2l0.3,0.1l0.2,0.4l0.3,0.1l0.3,0.2l0.3,0.1l0.1,0.3l0.2,0.2l0.3,0.3l0.1,0.3l0.2,0.1l0.1,0.3l0.2,0.3l0.1,0.4l0.2,0.3l0.2,0.3l0,0.3l0.1,0.3l0,0.3l0.2,0.3l0,0.3l0,0.4l0,35.9l0,0.4l0,0.3l0,0.3l0,0.3l-0.2,0.3l-0.1,0.3l0,0.3l-0.2,0.3l-0.2,0.3l-0.1,0.3l-0.2,0.3l-0.3,0.2l-0.1,0.3l-0.2,0.3l-0.3,0.1l-0.1,0.3l-0.3,0.2l-0.3,0.1l-0.2,0.3l-0.3,0.2l-0.3,0.1l-0.3,0.2l-0.3,0.2l-0.3,0l-0.3,0.1l-0.3,0l-0.3,0.2l-0.3,0l-0.3,0l-0.5,0l-410.7,0.1l-0.4,0l-0.3,-0.1l-0.3,0l-0.3,0l-0.4,-0.2l-0.3,0l-0.3,-0.1l-0.3,-0.2l-0.3,-0.2l-0.3,-0.1l-0.1,-0.2l-0.3,-0.1l-0.3,-0.2l-0.4,-0.3l-0.1,-0.1l-0.3,-0.3l-0.2,-0.3l-0.1,-0.2l-0.3,-0.3L447,363.3L446.9,363l-0.2,-0.3l0,-0.3l-0.1,-0.3l-0.2,-0.3l0,-0.3l-0.1,-0.3l0,-0.3l0,-0.3l0,-0.4l0,-35.9Z" class="g5_68" />
<path fill-rule="evenodd" d="M732.3,200.8l7,0l0,-17.3l17.3,0l0,17.3l7.1,0L748,215L732.3,200.8Z" class="g6_68" />
<path d="M732.3,200.8l7,0l0,-17.3l17.3,0l0,17.3l7.1,0L748,215L732.3,200.8Z" class="g7_68" />
<path fill-rule="evenodd" d="M767.7,258l7,0l0,-17.4l17.3,0l0,17.4l7.2,0l-15.8,14.1L767.7,258Z" class="g8_68" />
<path d="M767.7,258l7,0l0,-17.4l17.3,0l0,17.4l7.2,0l-15.8,14.1L767.7,258Z" class="g9_68" />
<path fill-rule="evenodd" d="M802.5,315.2l7.2,0l0,-17.3l17.3,0l0,17.3l7,0l-15.7,14.2L802.5,315.2Z" class="g8_68" />
<path d="M802.5,315.2l7.2,0l0,-17.3l17.3,0l0,17.3l7,0l-15.7,14.2L802.5,315.2Z" class="g9_68" />
<image x="229" y="441" width="221" height="144" xlink:href="shade/4.png" />
<path d="M229.5,442l219.7,0l0,115.6c-109.9,0,-109.9,44.2,-219.7,19.1l0,-134.7Z" class="g2_68" />
<image x="790" y="414" width="187" height="207" xlink:href="img/2.png" />
<path d="M790.5,414.5l186,0l0,206l-186,0l0,-206Z" class="g10_68" />
<image x="509" y="466" width="221" height="91" xlink:href="shade/5.png" />
<path d="M509.5,555.5l220,0l0,-89l-220,0l0,89Z" class="g11_68" />
<path d="M509.5,466.5l220,0l0,89l-220,0l0,-89Z" class="g12_68" />
<path d="M441.7,385.5l41.2,0.1" class="g13_68" />
<path fill-rule="evenodd" d="M502.2,385.6l-20.6,10.2l0,-20.6l20.6,10.4Z" class="g4_68" />
<path d="M729.5,517.5l41,0" class="g13_68" />
<path fill-rule="evenodd" d="M790,517.6L769.2,528l0,-20.6L790,517.6Z" class="g4_68" />
</svg>