<?xml version="1.0" encoding="UTF-8" standalone="no"?>
<!DOCTYPE svg PUBLIC "-//W3C//DTD SVG 1.1//EN"
"http://www.w3.org/Graphics/SVG/1.1/DTD/svg11.dtd">
<svg viewBox="0 0 1155 1210" version="1.1" xmlns="http://www.w3.org/2000/svg" xmlns:xlink="http://www.w3.org/1999/xlink">
<defs>
<clipPath id="c0_19"><path d="M0.5,1210.5L0.5,0.5l1155,0l0,1210Z" /></clipPath>
<style type="text/css"><![CDATA[
.g1_19{
fill: #FFFFFF;
}
]]></style>
</defs>
<path fill-rule="evenodd" d="M0,0L1155,0l0,1210L0,1210L0,0Z" class="g1_19" />
<path fill-rule="evenodd" d="M0,0L1155,0l0,1210L0,1210L0,0Z" class="g1_19" />
<image x="790" y="1140" width="319" height="55" xlink:href="img/1.png" />
<g clip-path="url(#c0_19)">
<g fill="#626262" >
<use xlink:href="#f0_q" transform="matrix(12,0,0,12,40.2,32.7)" />
<use xlink:href="#f1_2" transform="matrix(12,0,0,12,66.3,33.8)" />
<use xlink:href="#f1_3" transform="matrix(12,0,0,12,78.8,33.8)" />
<use xlink:href="#f1_2" transform="matrix(12,0,0,12,90.7,33.8)" />
<use xlink:href="#f1_4" transform="matrix(12,0,0,12,103.1,33.8)" />
<use xlink:href="#f1_5" transform="matrix(12,0,0,12,113.9,33.8)" />
<use xlink:href="#f1_6" transform="matrix(12,0,0,12,126.9,33.8)" />
<use xlink:href="#f1_2" transform="matrix(12,0,0,12,135.8,33.8)" />
<use xlink:href="#f1_7" transform="matrix(12,0,0,12,148.3,33.8)" />
<use xlink:href="#f1_8" transform="matrix(12,0,0,12,156.6,33.8)" />
<use xlink:href="#f2_e" transform="matrix(12,0,0,12,171.6,33.8)" />
<use xlink:href="#f2_i" transform="matrix(12,0,0,12,178,33.8)" />
<use xlink:href="#f2_4" transform="matrix(12,0,0,12,189.6,33.8)" />
<use xlink:href="#f2_6" transform="matrix(12,0,0,12,201,33.8)" />
<use xlink:href="#f2_c" transform="matrix(12,0,0,12,211.4,33.8)" />
<use xlink:href="#f2_d" transform="matrix(12,0,0,12,218.4,33.8)" />
<use xlink:href="#f2_7" transform="matrix(12,0,0,12,223.6,33.8)" />
<use xlink:href="#f2_4" transform="matrix(12,0,0,12,234.8,33.8)" />
<use xlink:href="#f2_7" transform="matrix(12,0,0,12,252.2,33.8)" />
<use xlink:href="#f2_e" transform="matrix(12,0,0,12,263.3,33.8)" />
<use xlink:href="#f2_6" transform="matrix(12,0,0,12,275.7,33.8)" />
<use xlink:href="#f2_i" transform="matrix(12,0,0,12,285.9,33.8)" />
<use xlink:href="#f2_l" transform="matrix(12,0,0,12,297.4,33.8)" />
<use xlink:href="#f2_g" transform="matrix(12,0,0,12,305.1,33.8)" />
<use xlink:href="#f2_7" transform="matrix(12,0,0,12,314.6,33.8)" />
<use xlink:href="#f2_l" transform="matrix(12,0,0,12,325.8,33.8)" />
<use xlink:href="#f2_7" transform="matrix(12,0,0,12,339.3,33.8)" />
<use xlink:href="#f2_m" transform="matrix(12,0,0,12,350.5,33.8)" />
<use xlink:href="#f2_1q" transform="matrix(12,0,0,12,362.1,33.8)" />
<use xlink:href="#f2_b" transform="matrix(12,0,0,12,367.3,33.8)" />
<use xlink:href="#f2_6" transform="matrix(12,0,0,12,378.6,33.8)" />
<use xlink:href="#f2_c" transform="matrix(12,0,0,12,388.8,33.8)" />
<use xlink:href="#f2_d" transform="matrix(12,0,0,12,401.8,33.8)" />
<use xlink:href="#f2_g" transform="matrix(12,0,0,12,406.9,33.8)" />
<use xlink:href="#f2_i" transform="matrix(12,0,0,12,422.4,33.8)" />
<use xlink:href="#f2_g" transform="matrix(12,0,0,12,433.8,33.8)" />
<use xlink:href="#f2_b" transform="matrix(12,0,0,12,443.4,33.8)" />
<use xlink:href="#f2_h" transform="matrix(12,0,0,12,454.7,33.8)" />
<use xlink:href="#f2_c" transform="matrix(12,0,0,12,472.3,33.8)" />
<use xlink:href="#f2_7" transform="matrix(12,0,0,12,479.5,33.8)" />
<use xlink:href="#f2_b" transform="matrix(12,0,0,12,496.5,33.8)" />
<use xlink:href="#f2_v" transform="matrix(12,0,0,12,507.5,33.8)" />
<use xlink:href="#f2_b" transform="matrix(12,0,0,12,517.6,33.8)" />
<use xlink:href="#f2_6" transform="matrix(12,0,0,12,528.9,33.8)" />
<use xlink:href="#f2_i" transform="matrix(12,0,0,12,539.1,33.8)" />
<use xlink:href="#f2_c" transform="matrix(12,0,0,12,550.7,33.8)" />
<use xlink:href="#f2_b" transform="matrix(12,0,0,12,557.9,33.8)" />
<use xlink:href="#f2_k" transform="matrix(12,0,0,12,575.2,33.8)" />
<use xlink:href="#f2_h" transform="matrix(12,0,0,12,592.3,33.8)" />
<use xlink:href="#f2_k" transform="matrix(12,0,0,12,604,33.8)" />
<use xlink:href="#f2_c" transform="matrix(12,0,0,12,615.5,33.8)" />
<use xlink:href="#f2_k" transform="matrix(12,0,0,12,622.5,33.8)" />
<use xlink:href="#f2_m" transform="matrix(12,0,0,12,633.9,33.8)" />
<use xlink:href="#f2_k" transform="matrix(12,0,0,12,645.5,33.8)" />
<use xlink:href="#f2_g" transform="matrix(12,0,0,12,656.8,33.8)" />
<use xlink:href="#f2_b" transform="matrix(12,0,0,12,666.3,33.8)" />
<use xlink:href="#f2_13" transform="matrix(12,0,0,12,683.5,33.8)" />
<use xlink:href="#f2_i" transform="matrix(12,0,0,12,695.3,33.8)" />
<use xlink:href="#f2_b" transform="matrix(12,0,0,12,706.9,33.8)" />
<use xlink:href="#f2_l" transform="matrix(12,0,0,12,718.2,33.8)" />
<use xlink:href="#f2_r" transform="matrix(12,0,0,12,725.8,33.8)" />
<use xlink:href="#f2_1c" transform="matrix(12,0,0,12,733.9,33.8)" />
<use xlink:href="#f0_q" transform="matrix(12,0,0,12,40.2,150.6)" />
<use xlink:href="#f2_1h" transform="matrix(12,0,0,12,66.3,151.9)" />
<use xlink:href="#f2_a" transform="matrix(12,0,0,12,78.8,151.9)" />
<use xlink:href="#f2_a" transform="matrix(12,0,0,12,83.9,151.9)" />
<use xlink:href="#f2_c" transform="matrix(12,0,0,12,94.9,151.9)" />
<use xlink:href="#f2_f" transform="matrix(12,0,0,12,102,151.9)" />
<use xlink:href="#f2_b" transform="matrix(12,0,0,12,113.6,151.9)" />
<use xlink:href="#f2_l" transform="matrix(12,0,0,12,130.9,151.9)" />
<use xlink:href="#f2_b" transform="matrix(12,0,0,12,137.9,151.9)" />
<use xlink:href="#f2_6" transform="matrix(12,0,0,12,149.3,151.9)" />
<use xlink:href="#f2_7" transform="matrix(12,0,0,12,159.5,151.9)" />
<use xlink:href="#f2_l" transform="matrix(12,0,0,12,170.7,151.9)" />
<use xlink:href="#f2_h" transform="matrix(12,0,0,12,178,151.9)" />
<use xlink:href="#f2_g" transform="matrix(12,0,0,12,189.8,151.9)" />
<use xlink:href="#f2_e" transform="matrix(12,0,0,12,205.2,151.9)" />
<use xlink:href="#f2_b" transform="matrix(12,0,0,12,211.6,151.9)" />
<use xlink:href="#f2_c" transform="matrix(12,0,0,12,222.9,151.9)" />
<use xlink:href="#f2_6" transform="matrix(12,0,0,12,230.1,151.9)" />
<use xlink:href="#f2_f" transform="matrix(12,0,0,12,240.3,151.9)" />
<use xlink:href="#f2_b" transform="matrix(12,0,0,12,251.9,151.9)" />
<use xlink:href="#f2_h" transform="matrix(12,0,0,12,263.2,151.9)" />
<use xlink:href="#f2_m" transform="matrix(12,0,0,12,280.8,151.9)" />
<use xlink:href="#f2_r" transform="matrix(12,0,0,12,292.4,151.9)" />
<use xlink:href="#f2_c" transform="matrix(12,0,0,12,309,151.9)" />
<use xlink:href="#f2_f" transform="matrix(12,0,0,12,316.2,151.9)" />
<use xlink:href="#f2_b" transform="matrix(12,0,0,12,327.8,151.9)" />
<use xlink:href="#f2_13" transform="matrix(12,0,0,12,344.9,151.9)" />
<use xlink:href="#f2_i" transform="matrix(12,0,0,12,356.7,151.9)" />
<use xlink:href="#f2_b" transform="matrix(12,0,0,12,368.3,151.9)" />
<use xlink:href="#f2_l" transform="matrix(12,0,0,12,379.6,151.9)" />
<use xlink:href="#f2_r" transform="matrix(12,0,0,12,387.3,151.9)" />
<use xlink:href="#f2_12" transform="matrix(12,0,0,12,404,151.9)" />
<use xlink:href="#f2_d" transform="matrix(12,0,0,12,419,151.9)" />
<use xlink:href="#f2_a" transform="matrix(12,0,0,12,424.1,151.9)" />
<use xlink:href="#f2_a" transform="matrix(12,0,0,12,429.2,151.9)" />
<use xlink:href="#f2_m" transform="matrix(12,0,0,12,440.2,151.9)" />
<use xlink:href="#f2_b" transform="matrix(12,0,0,12,451.8,151.9)" />
<use xlink:href="#f2_g" transform="matrix(12,0,0,12,469,151.9)" />
<use xlink:href="#f2_c" transform="matrix(12,0,0,12,478.5,151.9)" />
<use xlink:href="#f2_7" transform="matrix(12,0,0,12,485.7,151.9)" />
<use xlink:href="#f2_l" transform="matrix(12,0,0,12,496.8,151.9)" />
<use xlink:href="#f2_b" transform="matrix(12,0,0,12,504,151.9)" />
<use xlink:href="#f2_h" transform="matrix(12,0,0,12,515.3,151.9)" />
<use xlink:href="#f2_d" transform="matrix(12,0,0,12,533,151.9)" />
<use xlink:href="#f2_4" transform="matrix(12,0,0,12,538,151.9)" />
<use xlink:href="#f2_6" transform="matrix(12,0,0,12,555.4,151.9)" />
<use xlink:href="#f2_i" transform="matrix(12,0,0,12,565.7,151.9)" />
<use xlink:href="#f2_l" transform="matrix(12,0,0,12,577.3,151.9)" />
<use xlink:href="#f2_g" transform="matrix(12,0,0,12,585,151.9)" />
<use xlink:href="#f2_7" transform="matrix(12,0,0,12,594.5,151.9)" />
<use xlink:href="#f2_l" transform="matrix(12,0,0,12,605.7,151.9)" />
<use xlink:href="#f2_w" transform="matrix(12,0,0,12,613.4,151.9)" />
<use xlink:href="#f2_7" transform="matrix(12,0,0,12,622.4,151.9)" />
<use xlink:href="#f2_m" transform="matrix(12,0,0,12,633.7,151.9)" />
<use xlink:href="#f2_1q" transform="matrix(12,0,0,12,645.2,151.9)" />
<use xlink:href="#f2_b" transform="matrix(12,0,0,12,650.4,151.9)" />
<use xlink:href="#f2_6" transform="matrix(12,0,0,12,661.7,151.9)" />
<use xlink:href="#f2_c" transform="matrix(12,0,0,12,671.9,151.9)" />
<use xlink:href="#f2_1c" transform="matrix(12,0,0,12,679.1,151.9)" />
<use xlink:href="#f0_q" transform="matrix(12,0,0,12,40.2,209.8)" />
<use xlink:href="#f2_11" transform="matrix(12,0,0,12,66.3,210.8)" />
<use xlink:href="#f2_7" transform="matrix(12,0,0,12,80,210.8)" />
<use xlink:href="#f2_12" transform="matrix(12,0,0,12,91.3,210.8)" />
<use xlink:href="#f2_j" transform="matrix(12,0,0,12,106.3,210.8)" />
<use xlink:href="#f2_f" transform="matrix(12,0,0,12,118.1,210.8)" />
<use xlink:href="#f2_7" transform="matrix(12,0,0,12,129.5,210.8)" />
<use xlink:href="#f2_12" transform="matrix(12,0,0,12,140.8,210.8)" />
<use xlink:href="#f2_6" transform="matrix(12,0,0,12,161.6,210.8)" />
<use xlink:href="#f2_k" transform="matrix(12,0,0,12,171.8,210.8)" />
<use xlink:href="#f2_4" transform="matrix(12,0,0,12,183.3,210.8)" />
<use xlink:href="#f2_12" transform="matrix(12,0,0,12,200.7,210.8)" />
<use xlink:href="#f2_b" transform="matrix(12,0,0,12,215.6,210.8)" />
<use xlink:href="#f2_l" transform="matrix(12,0,0,12,232.9,210.8)" />
<use xlink:href="#f2_b" transform="matrix(12,0,0,12,240.1,210.8)" />
<use xlink:href="#f2_c" transform="matrix(12,0,0,12,251.4,210.8)" />
<use xlink:href="#f2_l" transform="matrix(12,0,0,12,258.6,210.8)" />
<use xlink:href="#f2_d" transform="matrix(12,0,0,12,266.3,210.8)" />
<use xlink:href="#f2_b" transform="matrix(12,0,0,12,271.4,210.8)" />
<use xlink:href="#f2_q" transform="matrix(12,0,0,12,282.8,210.8)" />
<use xlink:href="#f2_b" transform="matrix(12,0,0,12,293.5,210.8)" />
<use xlink:href="#f2_c" transform="matrix(12,0,0,12,310.8,210.8)" />
<use xlink:href="#f2_f" transform="matrix(12,0,0,12,317.9,210.8)" />
<use xlink:href="#f2_b" transform="matrix(12,0,0,12,329.4,210.8)" />
<use xlink:href="#f2_8" transform="matrix(12,0,0,12,340.8,210.8)" />
<use xlink:href="#f2_1f" transform="matrix(12,0,0,12,358.6,210.8)" />
<use xlink:href="#f0_q" transform="matrix(12,0,0,12,40.2,268.7)" />
<use xlink:href="#f2_1e" transform="matrix(12,0,0,12,66.3,270)" />
<use xlink:href="#f2_b" transform="matrix(12,0,0,12,83.4,270)" />
<use xlink:href="#f2_6" transform="matrix(12,0,0,12,100.6,270)" />
<use xlink:href="#f2_k" transform="matrix(12,0,0,12,110.9,270)" />
<use xlink:href="#f2_4" transform="matrix(12,0,0,12,122.1,270)" />
<use xlink:href="#f2_i" transform="matrix(12,0,0,12,139.6,270)" />
<use xlink:href="#f2_g" transform="matrix(12,0,0,12,151.2,270)" />
<use xlink:href="#f2_b" transform="matrix(12,0,0,12,160.6,270)" />
<use xlink:href="#f1_a" transform="matrix(12,0,0,12,178,270)" />
<use xlink:href="#f1_2" transform="matrix(12,0,0,12,186.1,270)" />
<use xlink:href="#f1_6" transform="matrix(12,0,0,12,198.4,270)" />
<use xlink:href="#f1_4" transform="matrix(12,0,0,12,207.3,270)" />
<use xlink:href="#f1_b" transform="matrix(12,0,0,12,218.1,270)" />
<use xlink:href="#f1_c" transform="matrix(12,0,0,12,231.1,270)" />
<use xlink:href="#f1_d" transform="matrix(12,0,0,12,243.3,270)" />
<use xlink:href="#f1_d" transform="matrix(12,0,0,12,249.6,270)" />
<use xlink:href="#f1_7" transform="matrix(12,0,0,12,255.9,270)" />
<use xlink:href="#f1_8" transform="matrix(12,0,0,12,264.3,270)" />
<use xlink:href="#f2_e" transform="matrix(12,0,0,12,279.1,270)" />
<use xlink:href="#f2_i" transform="matrix(12,0,0,12,285.5,270)" />
<use xlink:href="#f2_4" transform="matrix(12,0,0,12,297.1,270)" />
<use xlink:href="#f2_6" transform="matrix(12,0,0,12,308.8,270)" />
<use xlink:href="#f2_c" transform="matrix(12,0,0,12,319,270)" />
<use xlink:href="#f2_d" transform="matrix(12,0,0,12,326.1,270)" />
<use xlink:href="#f2_7" transform="matrix(12,0,0,12,331.2,270)" />
<use xlink:href="#f2_4" transform="matrix(12,0,0,12,342.5,270)" />
<use xlink:href="#f2_c" transform="matrix(12,0,0,12,359.9,270)" />
<use xlink:href="#f2_7" transform="matrix(12,0,0,12,366.9,270)" />
<use xlink:href="#f2_x" transform="matrix(12,0,0,12,384,270)" />
<use xlink:href="#f2_b" transform="matrix(12,0,0,12,395.7,270)" />
<use xlink:href="#f2_c" transform="matrix(12,0,0,12,407,270)" />
<use xlink:href="#f2_c" transform="matrix(12,0,0,12,420,270)" />
<use xlink:href="#f2_f" transform="matrix(12,0,0,12,427.2,270)" />
<use xlink:href="#f2_b" transform="matrix(12,0,0,12,438.8,270)" />
<use xlink:href="#f2_l" transform="matrix(12,0,0,12,455.9,270)" />
<use xlink:href="#f2_b" transform="matrix(12,0,0,12,463.1,270)" />
<use xlink:href="#f2_6" transform="matrix(12,0,0,12,474.6,270)" />
<use xlink:href="#f2_7" transform="matrix(12,0,0,12,484.8,270)" />
<use xlink:href="#f2_l" transform="matrix(12,0,0,12,495.9,270)" />
<use xlink:href="#f2_h" transform="matrix(12,0,0,12,503.2,270)" />
<use xlink:href="#f2_g" transform="matrix(12,0,0,12,515,270)" />
<use xlink:href="#f2_e" transform="matrix(12,0,0,12,530.4,270)" />
<use xlink:href="#f2_l" transform="matrix(12,0,0,12,536.8,270)" />
<use xlink:href="#f2_7" transform="matrix(12,0,0,12,543.9,270)" />
<use xlink:href="#f2_8" transform="matrix(12,0,0,12,555.2,270)" />
<use xlink:href="#f2_c" transform="matrix(12,0,0,12,578.8,270)" />
<use xlink:href="#f2_f" transform="matrix(12,0,0,12,585.8,270)" />
<use xlink:href="#f2_b" transform="matrix(12,0,0,12,597.4,270)" />
<use xlink:href="#f2_6" transform="matrix(12,0,0,12,614.7,270)" />
<use xlink:href="#f2_i" transform="matrix(12,0,0,12,624.9,270)" />
<use xlink:href="#f2_l" transform="matrix(12,0,0,12,636.4,270)" />
<use xlink:href="#f2_g" transform="matrix(12,0,0,12,644.1,270)" />
<use xlink:href="#f2_7" transform="matrix(12,0,0,12,653.6,270)" />
<use xlink:href="#f2_l" transform="matrix(12,0,0,12,664.7,270)" />
<use xlink:href="#f2_7" transform="matrix(12,0,0,12,678.3,270)" />
<use xlink:href="#f2_m" transform="matrix(12,0,0,12,689.6,270)" />
<use xlink:href="#f2_1q" transform="matrix(12,0,0,12,701.1,270)" />
<use xlink:href="#f2_b" transform="matrix(12,0,0,12,706.3,270)" />
<use xlink:href="#f2_6" transform="matrix(12,0,0,12,717.5,270)" />
<use xlink:href="#f2_c" transform="matrix(12,0,0,12,727.8,270)" />
<use xlink:href="#f2_1c" transform="matrix(12,0,0,12,734.9,270)" />
</g>
</g>
<image x="64" y="68" width="875" height="66" xlink:href="img/2.png" />
<image x="78" y="320" width="952" height="439" xlink:href="img/3.png" />
<defs>
	<path d="M264.3,297.9c0,0,-42.8,0,-79.4,16.8c0,0,-36.7,16.8,-64.2,44.3c0,0,-29,29.1,-44.3,67.3c0,0,-16.8,38.1,-16.8,82.5c0,0,0,41.2,15.3,77.9c0,0,16.8,38.2,44.3,65.7c0,0,29,27.5,65.7,42.7c0,0,36.6,16.8,79.4,16.8c0,0,42.8,0,81,-15.2c0,0,38.2,-16.8,65.7,-44.3c0,0,29,-27.5,45.8,-64.2c0,0,16.8,-38.2,16.8,-79.4c0,0,0,-44.4,-16.8,-82.5c0,0,-16.8,-38.2,-44.3,-65.7c0,0,-29,-29.1,-67.2,-45.9c0,0,-38.2,-16.8,-81,-16.8Z" 
	id="f0_q"
	transform="scale(0.001,-0.001)" />

	<path d="M707.4,508.8c0,0,3,9.1,3,18.3c0,0,1.5,10.7,1.5,19.8c0,0,0,59.6,-35.1,94.8c0,0,-36.7,35.1,-97.8,35.1c0,0,-77.9,0,-132.9,-42.8c0,0,-55,-42.7,-84,-125.2ZM462.9,-21.3c0,0,-195.5,0,-301,90.1C161.9,68.8,55,158.9,55,322.4c0,0,0,96.2,33.6,186.4c0,0,33.6,90.1,99.3,163.4c0,0,76.4,90.2,183.4,136c0,0,106.9,47.4,236.8,47.4c0,0,169.5,0,268.8,-90.2c0,0,100.9,-91.6,100.9,-244.4c0,0,0,-29.1,-4.6,-62.7c0,0,-4.6,-33.6,-13.8,-73.3l-7.6,-41.2l-626.4,0c0,0,0,-4.6,0,-13.8c0,0,-1.5,-9.2,-1.5,-12.2c0,0,0,-82.5,48.9,-122.2c0,0,48.9,-39.8,146.6,-39.8c0,0,84.1,0,177.3,24.5c0,0,94.7,26,197.1,74.8L854,48.9c0,0,-97.7,-36.7,-194,-53.4c0,0,-97.8,-16.8,-197.1,-16.8Z" 
	id="f1_2"
	transform="scale(0.001,-0.001)" />

	<path d="M-62.5,0L337.6,426.3L116.1,834.2l276.5,0L516.4,586.7L733.3,834.2l290.3,0L643.2,427.8L876.9,0l-278,0L467.5,262.8L226.1,0Z" 
	id="f1_3"
	transform="scale(0.001,-0.001)" />

	<path d="M466,-21.3c0,0,-197.1,0,-302.5,87c0,0,-107,88.6,-107,252.1c0,0,0,100.8,38.2,197.1c0,0,39.7,96.2,113.1,174.1c0,0,81,84.1,186.4,125.3c0,0,105.4,41.3,241.4,41.3c0,0,64.1,0,126.8,-12.3c0,0,62.6,-12.2,125.2,-35.1L844.9,591.3c0,0,-53.5,35.1,-105.5,53.4c0,0,-53.4,19.9,-103.8,19.9c0,0,-129.9,0,-212.4,-87.1c0,0,-82.5,-88.6,-82.5,-226.1c0,0,0,-87.1,50.4,-134.5c0,0,52,-48.8,146.7,-48.8c0,0,62.6,0,122.2,18.3c0,0,61.1,19.9,114.6,56.5L733.3,24.4c0,0,-65.7,-24.4,-132.9,-35c0,0,-67.2,-10.7,-134.4,-10.7Z" 
	id="f1_4"
	transform="scale(0.001,-0.001)" />

	<path d="M330,-21.3c0,0,-113.1,0,-175.7,59.5c0,0,-62.6,59.6,-62.6,171.1c0,0,0,26,1.5,55c0,0,3.1,29,9.2,59.6l97.7,510.3l268.9,0L383.5,400.3c0,0,-7.7,-42.8,-12.2,-71.8c0,0,-4.6,-30.6,-4.6,-47.4c0,0,0,-47.3,25.9,-73.3c0,0,26,-26,74.9,-26c0,0,82.5,0,142.1,64.2c0,0,59.6,64.1,82.5,177.2l79.4,411l268.9,0L878.5,0L608.1,0L634,122.2c0,0,-68.7,-73.3,-143.6,-108.4c0,0,-76.4,-35.1,-160.4,-35.1Z" 
	id="f1_5"
	transform="scale(0.001,-0.001)" />

	<path d="M366.7,0C366.7,0,246,0,183.3,50.4c0,0,-64.1,50.4,-64.1,145.2c0,0,0,21.3,1.5,44.3c0,0,3.1,24.4,6.1,48.9l68.8,354.4l-131.4,0l36.6,191l133,0l47.3,238.3l267.4,0L504.2,834.2l271.9,0l-38.2,-191l-271.9,0L397.2,290.3c0,0,-3,-12.2,-4.6,-19.9c0,0,-1.5,-9.1,-1.5,-16.8c0,0,0,-33.6,22.9,-48.9c0,0,22.9,-15.3,76.4,-15.3l139,0L591.3,0Z" 
	id="f1_6"
	transform="scale(0.001,-0.001)" />

	<path d="M232.2,-200c0,0,-58,123.7,-85.5,241.3c0,0,-29.1,117.6,-29.1,236.8c0,0,0,220,94.8,438.4c0,0,94.7,220,285.7,441.6l215.4,0c0,0,-172.7,-230.7,-258.2,-456.8c0,0,-85.6,-226.2,-85.6,-453.8c0,0,0,-113.1,19.9,-223.1c0,0,19.8,-111.4,59.6,-224.4Z" 
	id="f1_7"
	transform="scale(0.001,-0.001)" />

	<path d="M-39.6,-200c0,0,171,229,256.5,455.1c0,0,87.1,227.7,87.1,455.3c0,0,0,113.1,-19.8,223.1c0,0,-21.4,111.5,-62.7,224.6l220,0c0,0,56.6,-122.3,84.1,-241.4c0,0,29,-119.2,29,-238.4c0,0,0,-221.5,-93.2,-441.5c0,0,-94.7,-220,-284.2,-436.8Z" 
	id="f1_8"
	transform="scale(0.001,-0.001)" />

	<path d="M165,0l0,728.8l-131.4,0l0,105.4l131.4,0l0,58c0,0,0,140.6,64.2,203.2c0,0,65.7,64.2,207.7,64.2l129.9,0l0,-113.1l-131.4,0c0,0,-74.8,0,-102.3,-30.5c0,0,-29.1,-30.6,-29.1,-107l0,-74.8l226.1,0l0,-105.4l-226.1,0L304,0Z" 
	id="f2_e"
	transform="scale(0.001,-0.001)" />

	<path d="M421.7,-21.3c0,0,-143.6,0,-218.5,88.5L128.3,328.5l0,505.7l137.5,0l0,-499.6c0,0,0,-119.2,45.9,-178.8c0,0,47.3,-59.5,139,-59.5c0,0,111.5,0,175.7,70.2c0,0,65.7,71.8,65.7,194.1l0,473.6l136,0L828.1,0l-136,0l0,126.8c0,0,-50.4,-74.9,-116.1,-111.5c0,0,-67.2,-36.6,-154.3,-36.6Z" 
	id="f2_i"
	transform="scale(0.001,-0.001)" />

	<path d="M137.5,0l0,834.2l139,0l0,-129.9c0,0,48.9,76.4,114.6,113.1c0,0,67.2,38.2,154.3,38.2c0,0,145.2,0,218.5,-88.7c0,0,73.3,-90.1,73.3,-262.7L837.2,0L699.7,0l0,499.6c0,0,0,117.6,-45.8,175.7c0,0,-45.8,59.6,-139,59.6c0,0,-110,0,-174.2,-70.3c0,0,-64.2,-70.3,-64.2,-192.5L276.5,0Z" 
	id="f2_4"
	transform="scale(0.001,-0.001)" />

	<path d="M495,-21.3c0,0,-189.4,0,-299.4,117.6C195.6,96.3,84,215.4,84,415.6c0,0,0,204.7,111.6,322.3c0,0,113,117.7,308.6,117.7c0,0,62.6,0,122.2,-13.8c0,0,61.1,-13.7,117.6,-39.7l0,-128.3c0,0,-58,32,-116.1,47.3c0,0,-58,16.8,-119.1,16.8c0,0,-133,0,-206.3,-84c0,0,-74.9,-84,-74.9,-238.3c0,0,0,-152.8,73.4,-236.8c0,0,74.8,-84.1,207.8,-84.1c0,0,61.1,0,119.1,15.3c0,0,58.1,16.8,116.1,48.9L744,30.6c0,0,-56.5,-26,-117.6,-38.1c0,0,-62.6,-13.8,-131.4,-13.8Z" 
	id="f2_6"
	transform="scale(0.001,-0.001)" />

	<path d="M420.1,0c0,0,-158.8,0,-218.4,58.1c0,0,-61.1,59.5,-61.1,216.9l0,453.8l-100.9,0l0,105.4l100.9,0l0,238.3l139,0l0,-238.3l282.6,0l0,-105.4l-282.6,0l0,-453.8c0,0,0,-102.4,27.5,-131.4c0,0,27.5,-29,113,-29l142.1,0L562.2,0Z" 
	id="f2_c"
	transform="scale(0.001,-0.001)" />

	<path d="M143,0l0,834l138,0L281,0Zm0,985l0,174l138,0l0,-174Z" 
	id="f2_d"
	transform="scale(0.001,-0.001)" />

	<path d="M467.5,94.7c0,0,108.5,0,172.6,85.6c0,0,64.2,87.1,64.2,235.3c0,0,0,149.7,-64.2,235.2c0,0,-64.1,87.1,-172.6,87.1c0,0,-111.5,0,-175.7,-85.5c0,0,-64.2,-85.6,-64.2,-236.8c0,0,0,-149.8,64.2,-235.3c0,0,64.2,-85.6,175.7,-85.6Zm0,-116c0,0,-180.3,0,-281.1,116C186.4,94.7,84,210.8,84,415.6c0,0,0,206.2,100.9,322.3c0,0,102.3,117.7,282.6,117.7c0,0,178.8,0,281.1,-116.2c0,0,102.4,-117.6,102.4,-323.8c0,0,0,-204.8,-102.4,-320.9c0,0,-102.3,-116,-281.1,-116Z" 
	id="f2_7"
	transform="scale(0.001,-0.001)" />

	<path d="M137.5,0l0,834.2l139,0l0,-129.9c0,0,42.8,76.4,111.6,113.1c0,0,70.2,38.2,169.5,38.2c0,0,13.8,0,30.6,-1.6c0,0,16.8,-3,38.2,-6.1l1.5,-142.1c0,0,-24.4,13.8,-50.4,19.9c0,0,-27.5,6.1,-61.1,6.1c0,0,-116.1,0,-177.2,-74.9c0,0,-62.7,-76.3,-62.7,-216.9l0,-440Z" 
	id="f2_l"
	transform="scale(0.001,-0.001)" />

	<path d="M375.8,-21.3c0,0,-67.2,0,-140.5,12.2c0,0,-73.4,12.2,-152.8,39.7l0,140.5c0,0,76.4,-39.7,149.7,-58c0,0,73.4,-19.9,146.7,-19.9c0,0,96.2,0,148.2,32.1c0,0,51.9,33.6,51.9,94.7c0,0,0,55,-36.6,84c0,0,-38.2,30.6,-165,58.1l-48.9,12.2c0,0,-126.8,26,-183.4,81c0,0,-56.5,56.5,-56.5,152.8c0,0,0,119.1,82.5,183.3c0,0,84,64.2,238.3,64.2c0,0,74.9,0,142.1,-10.7c0,0,67.3,-12.3,123.8,-35.2l0,-129.8c0,0,-58.1,30.5,-120.7,44.3c0,0,-62.7,15.2,-129.9,15.2c0,0,-102.3,0,-152.8,-30.5c0,0,-50.4,-32.1,-50.4,-94.7c0,0,0,-47.4,35.2,-74.9c0,0,36.6,-27.5,148.2,-51.9l45.8,-10.7c0,0,146.7,-30.6,207.8,-87.1c0,0,62.6,-58.1,62.6,-160.4c0,0,0,-116.1,-91.7,-183.4c0,0,-93.1,-67.1,-253.6,-67.1Z" 
	id="f2_g"
	transform="scale(0.001,-0.001)" />

	<path d="M508.8,93.2c0,0,110,0,171.1,85.6c0,0,62.6,85.5,62.6,236.8c0,0,0,152.7,-61.1,238.3c0,0,-62.6,85.5,-172.6,85.5c0,0,-108.5,0,-169.6,-85.5c0,0,-62.7,-85.6,-62.7,-238.3c0,0,0,-151.3,61.1,-236.8c0,0,62.7,-85.6,171.2,-85.6ZM542.4,-21.3c0,0,-91.7,0,-157.4,35.1c0,0,-65.7,36.6,-108.5,111.5L276.5,0l-139,0l0,1159.6l139,0l0,-452.2c0,0,42.8,74.8,108.5,111.5c0,0,65.7,36.7,157.4,36.7c0,0,152.7,0,247.5,-120.7c0,0,96.2,-122.3,96.2,-319.3c0,0,0,-195.6,-94.7,-316.3c0,0,-96.3,-120.6,-249,-120.6Z" 
	id="f2_m"
	transform="scale(0.001,-0.001)" />

	<path d="M-27.4,-317.7l0,117.7l35,0c0,0,79.5,0,107,35.1c0,0,29,36.7,29,151.2l0,847.9l137.5,0l0,-847.9c0,0,0,-160.4,-61.1,-232.2c0,0,-61.1,-71.8,-195.6,-71.8Zm171,1303.1l0,174.2l137.5,0l0,-174.2Z" 
	id="f2_1q"
	transform="scale(0.001,-0.001)" />

	<path d="M230.7,490.4l490.4,1.5c0,0,-1.5,111.6,-62.6,178.8c0,0,-62.7,67.2,-163.5,67.2c0,0,-114.6,0,-183.3,-64.1c0,0,-70.3,-65.7,-81,-183.4ZM516.4,-21.3c0,0,-198.6,0,-314.7,116C201.7,94.7,84,210.8,84,409.4c0,0,0,204.8,110,325.5c0,0,111.6,120.7,299.5,120.7c0,0,168,0,265.8,-108.5c0,0,99.3,-110,99.3,-296.4l0,-67.2l-632.5,0c0,0,9.2,-140.6,85.6,-213.9c0,0,76.4,-74.9,213.9,-74.9c0,0,77.9,0,152.7,18.4c0,0,74.9,19.8,148.2,58l0,-129.8c0,0,-74.8,-30.6,-151.2,-45.8c0,0,-77.9,-16.8,-158.9,-16.8Z" 
	id="f2_b"
	transform="scale(0.001,-0.001)" />

	<path d="M458.3,93.2c0,0,110,0,172.7,85.6c0,0,62.6,85.5,62.6,236.8c0,0,0,152.7,-62.6,238.3c0,0,-62.7,85.5,-172.7,85.5c0,0,-108.4,0,-171.1,-85.5c0,0,-62.6,-85.6,-62.6,-238.3c0,0,0,-151.3,62.6,-236.8c0,0,62.7,-85.6,171.1,-85.6ZM424.7,-21.3c0,0,-151.2,0,-245.9,120.6C178.8,99.3,84,220,84,415.6c0,0,0,197,94.8,317.7c0,0,94.7,122.3,245.9,122.3c0,0,93.2,0,158.9,-36.7c0,0,65.7,-36.7,110,-111.5l0,452.2l136,0L829.6,0l-136,0l0,125.3c0,0,-44.3,-74.9,-110,-110c0,0,-65.7,-36.6,-158.9,-36.6Z" 
	id="f2_h"
	transform="scale(0.001,-0.001)" />

	<path d="M42.8,0L368.2,436.9L70.3,834.2l161.9,0L453.8,537.8L675.3,834.2l161.9,0L536.3,427.8L854,0L692.1,0L447.6,326.9L204.7,0Z" 
	id="f2_v"
	transform="scale(0.001,-0.001)" />

	<path d="M407.9,93.2c0,0,113.1,0,181.8,79.4c0,0,70.3,81,70.3,215.5l0,30.5l-137.5,0c0,0,-166.5,0,-230.7,-36.7c0,0,-64.2,-38.1,-64.2,-129.8c0,0,0,-73.3,47.4,-116.1c0,0,48.9,-42.8,132.9,-42.8ZM371.3,-21.3c0,0,-128.4,0,-203.2,71.7c0,0,-76.4,71.8,-76.4,192.5c0,0,0,140.6,93.2,212.4c0,0,94.7,71.8,282.6,71.8l192.5,0l0,13.7c0,0,0,94.8,-62.6,145.2c0,0,-62.7,51.9,-175.7,51.9c0,0,-71.8,0,-139.1,-16.8c0,0,-67.2,-16.8,-129.8,-51.9l0,126.8c0,0,74.8,30.5,145.1,44.3c0,0,71.8,15.3,139,15.3c0,0,180.3,0,268.9,-93.2c0,0,90.2,-94.8,90.2,-285.7L796,0L660,0l0,126.8c0,0,-47.4,-76.4,-117.6,-111.5c0,0,-70.3,-36.6,-171.1,-36.6Z" 
	id="f2_k"
	transform="scale(0.001,-0.001)" />

	<path d="M458.3,93.2c0,0,110,0,172.7,85.6c0,0,62.6,85.5,62.6,236.8c0,0,0,152.7,-62.6,238.3c0,0,-62.7,85.5,-172.7,85.5c0,0,-108.4,0,-171.1,-85.5c0,0,-62.6,-85.6,-62.6,-238.3c0,0,0,-151.3,62.6,-236.8c0,0,62.7,-85.6,171.1,-85.6ZM693.6,-317.7l0,443c0,0,-44.3,-74.9,-110,-110c0,0,-65.7,-36.6,-158.9,-36.6c0,0,-151.2,0,-245.9,120.6C178.8,99.3,84,220,84,415.6c0,0,0,197,94.8,317.7c0,0,94.7,122.3,245.9,122.3c0,0,93.2,0,158.9,-36.7c0,0,65.7,-36.7,110,-111.5l0,126.8l136,0l0,-1151.9Z" 
	id="f2_13"
	transform="scale(0.001,-0.001)" />

	<path d="M120.7,-317.7l0,116.1l79.4,0c0,0,56.6,0,87.1,26c0,0,32.1,27.5,70.3,126.8l24.4,61L44.3,834.2l145.1,0L450.7,181.8L711.9,834.2l146.7,0L490.4,-76.3c0,0,-58,-149.7,-113,-195.5c0,0,-55,-45.9,-148.2,-45.9Z" 
	id="f2_r"
	transform="scale(0.001,-0.001)" />

	<path d="M161,0l0,189l158,0L319,0Z" 
	id="f2_1c"
	transform="scale(0.001,-0.001)" />

	<path d="M727.2,411L521,964L317.8,411ZM10.7,0L436.9,1113.8l169.6,0L1031.3,0L875.4,0L773.1,285.7l-501.2,0L169.6,0Z" 
	id="f2_1h"
	transform="scale(0.001,-0.001)" />

	<path d="M143,0l0,1159l138,0L281,0Z" 
	id="f2_a"
	transform="scale(0.001,-0.001)" />

	<path d="M137.5,0l0,1159.6l139,0l0,-455.3c0,0,48.9,76.4,114.6,113.1c0,0,67.2,38.2,154.3,38.2c0,0,145.2,0,218.5,-88.7c0,0,73.3,-90.1,73.3,-262.7L837.2,0L699.7,0l0,499.6c0,0,0,117.6,-45.8,175.7c0,0,-45.8,59.6,-139,59.6c0,0,-110,0,-174.2,-70.3c0,0,-64.2,-70.3,-64.2,-192.5L276.5,0Z" 
	id="f2_f"
	transform="scale(0.001,-0.001)" />

	<path d="M282.6,0L62.6,834.2l137.5,0L372.8,183.3L542.4,834.2l161.9,0L876.9,183.3l171.2,650.9l135.9,0L965.6,0l-162,0L624.9,684.4L444.6,0Z" 
	id="f2_12"
	transform="scale(0.001,-0.001)" />

	<path d="M-13,-359l0,106l790,0l0,-106Z" 
	id="f2_w"
	transform="scale(0.001,-0.001)" />

	<path d="M149.7,0l0,1113.8l201.7,0l495,-932l0,932l145.1,0L991.5,0L789.9,0l-495,930.4L294.9,0Z" 
	id="f2_11"
	transform="scale(0.001,-0.001)" />

	<path d="M117.6,-177.1L178.8,61.1l0,128.3l157.3,0l0,-128.3L213.9,-177.1Z" 
	id="f2_j"
	transform="scale(0.001,-0.001)" />

	<path d="M357.5,0L44.3,834.2l145.1,0L450.7,132.9L711.9,834.2l146.7,0L543.9,0Z" 
	id="f2_q"
	transform="scale(0.001,-0.001)" />

	<path d="M137.5,0l0,834.2l139,0l0,-129.9c0,0,45.9,77.9,111.6,114.6c0,0,65.7,36.7,155.8,36.7c0,0,91.7,0,154.3,-45.9c0,0,64.2,-47.3,96.2,-135.9c0,0,50.5,93.1,122.3,137.5c0,0,71.8,44.3,168,44.3c0,0,131.4,0,201.7,-91.7c0,0,71.8,-91.7,71.8,-259.7L1358.2,0l-139,0l0,499.6c0,0,0,119.2,-41.3,177.2c0,0,-42.8,58.1,-129.8,58.1c0,0,-107,0,-168.1,-70.3c0,0,-62.6,-70.3,-62.6,-192.5L817.4,0L678.3,0l0,499.6c0,0,0,120.7,-41.2,177.2c0,0,-42.8,58.1,-131.4,58.1c0,0,-105.4,0,-166.5,-70.3c0,0,-62.7,-71.8,-62.7,-192.5L276.5,0Z" 
	id="f2_8"
	transform="scale(0.001,-0.001)" />

	<path d="M290.3,0l0,189.4l152.8,0L443.1,0Zm4.6,297.9l0,114.6c0,0,0,76.4,21.4,123.8c0,0,21.3,48.8,88.6,113l67.2,67.2c0,0,41.2,39.8,59.6,74.9c0,0,19.8,35.1,19.8,70.3c0,0,0,67.2,-48.9,108.4c0,0,-48.8,41.3,-128.3,41.3c0,0,-59.6,0,-125.3,-26c0,0,-67.2,-27.5,-140.5,-76.4l0,140.6c0,0,70.3,41.2,142.1,62.6c0,0,71.8,21.4,149.7,21.4c0,0,137.5,0,220,-71.8c0,0,82.5,-73.3,82.5,-192.5c0,0,0,-56.5,-26,-106.9c0,0,-27.5,-52,-94.7,-116.1L516.4,582.1c0,0,-35.1,-35.2,-48.9,-53.5c0,0,-15.3,-19.8,-21.4,-39.7c0,0,-3,-15.3,-4.6,-36.7c0,0,-3,-22.9,-3,-62.6l0,-91.7Z" 
	id="f2_1f"
	transform="scale(0.001,-0.001)" />

	<path d="M328.5,0L50.4,1113.8l151.3,0L436.9,171.1l232.3,942.7l169.6,0L1074,171.1l232.3,942.7l154.3,0L1179.4,0L990,0L756.3,965.6L517.9,0Z" 
	id="f2_1e"
	transform="scale(0.001,-0.001)" />

	<path d="M82.5,0L207.8,643.2l-132.9,0l38.2,191l131.3,0l10.7,58c0,0,29.1,139.1,116.2,203.2c0,0,87,64.2,247.5,64.2l206.2,0L789.9,985.4l-148.2,0c0,0,-55,0,-81,-19.8c0,0,-26,-21.4,-35.1,-71.8L511.8,834.2l226.1,0l-36.6,-191l-224.6,0L349.9,0Z" 
	id="f1_a"
	transform="scale(0.001,-0.001)" />

	<path d="M45.8,0L271.9,1159.6l268.9,0L452.2,711.9c0,0,74.9,73.4,148.2,108.5c0,0,74.9,35.2,157.4,35.2c0,0,114.6,0,177.2,-61.2c0,0,62.6,-61.1,62.6,-169.5c0,0,0,-24.5,-3,-53.5c0,0,-3.1,-29,-9.2,-62.6L886.1,0L617.2,0l84.1,435.4c0,0,9.1,41.3,13.7,70.3c0,0,6.1,30.6,6.1,47.4c0,0,0,48.8,-26,74.8c0,0,-27.5,26,-76.3,26c0,0,-82.5,0,-142.1,-64.2c0,0,-59.6,-65.7,-82.5,-178.7L314.7,0Z" 
	id="f1_b"
	transform="scale(0.001,-0.001)" />

	<path d="M412.5,155.8c0,0,82.5,0,137.5,48.9c0,0,55,48.9,74.9,140.6l6.1,30.5l-128.4,0c0,0,-100.8,0,-151.2,-30.5c0,0,-52,-32.1,-52,-91.7c0,0,0,-45.8,30.6,-71.8c0,0,30.6,-26,82.5,-26ZM284.2,-21.3c0,0,-119.2,0,-187.9,61c0,0,-70.3,61.1,-70.3,165c0,0,0,160.4,122.2,244.5c0,0,123.7,85.5,357.5,85.5l157.4,0l3,19.9c0,0,1.5,10.7,1.5,15.3c0,0,0,4.5,0,7.6c0,0,0,50.4,-45.8,74.9c0,0,-47.4,24.4,-139,24.4c0,0,-82.5,0,-158.9,-16.8c0,0,-77.9,-16.8,-151.3,-51.9l41.3,204.7c0,0,82.5,19.8,169.6,30.5c0,0,88.6,12.3,183.3,12.3c0,0,184.9,0,275,-64.2c0,0,90.1,-64.2,90.1,-194c0,0,0,-26,-3,-56.6c0,0,-3.1,-30.5,-9.2,-64.1L826.5,0L559.2,0l21.4,123.8c0,0,-65.7,-74.9,-137.5,-110c0,0,-73.4,-35.1,-158.9,-35.1Z" 
	id="f1_c"
	transform="scale(0.001,-0.001)" />

	<path d="M45.8,0L271.9,1159.6l268.9,0L314.7,0Z" 
	id="f1_d"
	transform="scale(0.001,-0.001)" />

	<path d="M458.3,114.6c0,0,111.6,0,172.7,81c0,0,62.6,82.5,62.6,230.7c0,0,0,149.7,-61.1,230.6c0,0,-62.6,82.5,-174.2,82.5c0,0,-110,0,-171.1,-80.9c0,0,-62.6,-82.5,-62.6,-232.2c0,0,0,-148.2,61.1,-229.2c0,0,62.6,-82.5,172.6,-82.5ZM444.6,-317.7c0,0,-71.8,0,-136,10.7c0,0,-64.2,12.2,-123.7,33.6l0,134.5c0,0,59.5,-33.6,117.6,-48.9c0,0,59.6,-15.3,120.7,-15.3c0,0,136,0,203.2,70.3c0,0,67.2,70.3,67.2,210.7l0,68.8c0,0,-42.8,-74.9,-108.5,-110C585.1,36.7,517.9,0,424.7,0c0,0,-152.8,0,-245.9,116.1c0,0,-94.8,117.7,-94.8,310.2c0,0,0,194,93.2,311.6c0,0,94.7,117.7,247.5,117.7c0,0,93.2,0,158.9,-36.7c0,0,67.2,-36.7,110,-111.5l0,126.8l136,0l0,-731.8c0,0,0,-210.8,-94.7,-314.7c0,0,-94.8,-105.4,-290.3,-105.4Z" 
	id="f2_x"
	transform="scale(0.001,-0.001)" />


</defs>
</svg>