<?xml version="1.0" encoding="UTF-8" standalone="no"?>
<!DOCTYPE svg PUBLIC "-//W3C//DTD SVG 1.1//EN"
"http://www.w3.org/Graphics/SVG/1.1/DTD/svg11.dtd">
<svg viewBox="0 0 1210 1045" version="1.1" xmlns="http://www.w3.org/2000/svg" xmlns:xlink="http://www.w3.org/1999/xlink">
<defs>
<style type="text/css"><![CDATA[
.g4_85{
fill: none;
stroke: #418AB3;
stroke-width: 1;
stroke-linecap: butt;
stroke-linejoin: miter;
}
.g3_85{
fill: #418AB3;
fill-opacity: 0.2;
}
.g2_85{
fill: none;
stroke: #626262;
stroke-width: 2;
stroke-linecap: butt;
stroke-linejoin: miter;
}
.g5_85{
fill: #418AB3;
}
.g6_85{
fill: none;
stroke: #418AB3;
stroke-width: 2;
stroke-linecap: butt;
stroke-linejoin: miter;
stroke-miterlimit: 7;
}
.g1_85{
fill: #FFFFFF;
}
]]></style>
</defs>
<path fill-rule="evenodd" d="M0,0L1210,0l0,1045L0,1045L0,0Z" class="g1_85" />
<path fill-rule="evenodd" d="M0,0L1210,0l0,1045L0,1045L0,0Z" class="g1_85" />
<image x="828" y="984" width="334" height="49" xlink:href="img/1.png" />
<path d="M314,205l184,0" class="g2_85" />
<path fill-rule="evenodd" d="M547,179l185,0l0,35l-185,0l0,-35Z" class="g3_85" />
<path fill-rule="evenodd" d="M732,179l184,0l0,35l-184,0l0,-35Z" class="g3_85" />
<path fill-rule="evenodd" d="M547,266l185,0l0,53l-185,0l0,-53Z" class="g3_85" />
<path fill-rule="evenodd" d="M732,266l184,0l0,53l-184,0l0,-53Z" class="g3_85" />
<path d="M264.5,181.5l0,-48" class="g4_85" />
<path d="M546.5,179.5l0,-46" class="g4_85" />
<path d="M264.5,134.5l283,0" class="g4_85" />
<path d="M546.5,179.5l0,-46" class="g4_85" />
<path d="M732.5,181.5l0,-48" class="g4_85" />
<path d="M546.5,134.5l187,0" class="g4_85" />
<path d="M732.5,179.5l0,-46" class="g4_85" />
<path d="M915.5,181.5l0,-48" class="g4_85" />
<path d="M732.5,134.5l184,0" class="g4_85" />
<path d="M264.5,214.5l0,-36" class="g4_85" />
<path d="M546.5,214.5l0,-35" class="g4_85" />
<path fill-rule="evenodd" d="M547.3,179.8l-0.7,1.4l-280.5,0l-0.6,-1.4l0.6,-1.4l280.5,0l0.7,1.4Z" class="g5_85" />
<path d="M546.5,214.5l0,-35" class="g4_85" />
<path d="M732.5,214.5l0,-36" class="g4_85" />
<path fill-rule="evenodd" d="M732.7,179.8l-0.6,1.4l-184.2,0l-0.6,-1.4l0.6,-1.4l184.2,0l0.6,1.4Z" class="g5_85" />
<path d="M732.5,214.5l0,-35" class="g4_85" />
<path d="M915.5,214.5l0,-36" class="g4_85" />
<path fill-rule="evenodd" d="M916.1,179.8l-0.7,1.4l-182.1,0l-0.6,-1.4l0.6,-1.4l182.1,0l0.7,1.4Z" class="g5_85" />
<path d="M264.5,267.5l0,-54" class="g4_85" />
<path d="M546.5,266.5l0,-52" class="g4_85" />
<path d="M265.5,214.5l282,0" class="g4_85" />
<path d="M546.5,266.5l0,-52" class="g4_85" />
<path d="M732.5,267.5l0,-54" class="g4_85" />
<path d="M547.5,214.5l185,0" class="g4_85" />
<path d="M732.5,266.5l0,-52" class="g4_85" />
<path d="M915.5,267.5l0,-54" class="g4_85" />
<path d="M732.5,214.5l184,0" class="g4_85" />
<path d="M264.5,320.5l0,-54" class="g4_85" />
<path d="M546.5,319.5l0,-53" class="g4_85" />
<path d="M265.5,267.5l282,0" class="g4_85" />
<path d="M546.5,319.5l0,-53" class="g4_85" />
<path d="M732.5,320.5l0,-54" class="g4_85" />
<path d="M547.5,267.5l185,0" class="g4_85" />
<path d="M732.5,319.5l0,-53" class="g4_85" />
<path d="M915.5,320.5l0,-54" class="g4_85" />
<path d="M732.5,267.5l184,0" class="g4_85" />
<path d="M264.5,372.5l0,-54" class="g4_85" />
<path d="M264.5,372.5l283,0" class="g4_85" />
<path d="M546.5,372.5l0,-53" class="g4_85" />
<path d="M265.5,320.5l282,0" class="g4_85" />
<path d="M546.5,372.5l0,-53" class="g4_85" />
<path d="M546.5,372.5l187,0" class="g4_85" />
<path d="M732.5,372.5l0,-54" class="g4_85" />
<path d="M547.5,320.5l185,0" class="g4_85" />
<path d="M732.5,372.5l0,-53" class="g4_85" />
<path d="M732.5,372.5l184,0" class="g4_85" />
<path d="M915.5,372.5l0,-54" class="g4_85" />
<path d="M732.5,320.5l184,0" class="g4_85" />
<path fill-rule="evenodd" d="M986.9,15.3l0,-0.3l0.2,-0.3l0,-0.3l0,-0.3l0.2,-0.3l0,-0.4l0.1,-0.3l0.2,-0.3l0.1,-0.3l0.2,-0.3L988,11.9l0.2,-0.1l0.1,-0.3l0.3,-0.3L988.8,11l0.3,-0.3l0.1,-0.2l0.3,-0.1l0.3,-0.2l0.4,-0.3l0.1,-0.1l0.3,-0.2l0.3,0l0.3,-0.1l0.3,0l0.3,-0.2l0.3,0l0.3,-0.1l0.3,0l0.4,0l189.4,0l0.3,0l0.5,0l0.3,0.1l0.3,0l0.1,0.2l0.3,0l0.3,0.1l0.3,0l0.3,0.3l0.4,0l0.3,0.3l0.3,0.2l0.1,0.1l0.3,0.3l0.2,0.2l0.3,0.2l0.1,0.3l0.2,0.3l0.1,0.3l0.3,0.1l0.2,0.3l0.2,0.3l0,0.3l0.1,0.3l0.2,0.4l0,0.3l0,0.3l0.1,0.3l0,0.3l0,0.3l0.2,24.4l-0.2,0l0,0.3l0,0.3l0,0.3l-0.1,0.3l0,0.4l-0.2,0.3l-0.1,0.3l0,0.3l-0.2,0.3l-0.2,0.3l-0.1,0.1l-0.2,0.3l-0.3,0.3l-0.1,0.3l-0.3,0.2l-0.2,0.2l-0.3,0.3l-0.1,0.1l-0.3,0.2l-0.3,0.1l-0.4,0.2l-0.3,0.1l-0.3,0.2l-0.3,0.1l-0.3,0l-0.1,0.2l-0.3,0l-0.3,0l-0.5,0.1l-0.3,0l-189.4,0l-0.4,0l-0.3,0l-0.3,-0.1l-0.3,0l-0.3,-0.2l-0.3,0l-0.3,-0.1l-0.3,0l-0.3,-0.2l-0.1,-0.1l-0.4,-0.3l-0.3,-0.2l-0.3,-0.1l-0.1,-0.2L988.8,44l-0.2,-0.2l-0.3,-0.3l-0.1,-0.3L988,43.1l-0.1,-0.3l-0.2,-0.3l-0.1,-0.3l-0.2,-0.3l-0.1,-0.3l0,-0.3l-0.2,-0.4l0,-0.3l0,-0.3L986.9,40l0,-0.3l0,-24.4Z" class="g1_85" />
<path d="M986.9,15.3l0,-0.3l0.2,-0.3l0,-0.3l0,-0.3l0.2,-0.3l0,-0.4l0.1,-0.3l0.2,-0.3l0.1,-0.3l0.2,-0.3L988,11.9l0.2,-0.1l0.1,-0.3l0.3,-0.3L988.8,11l0.3,-0.3l0.1,-0.2l0.3,-0.1l0.3,-0.2l0.4,-0.3l0.1,-0.1l0.3,-0.2l0.3,0l0.3,-0.1l0.3,0l0.3,-0.2l0.3,0l0.3,-0.1l0.3,0l0.4,0l189.4,0l0.3,0l0.5,0l0.3,0.1l0.3,0l0.1,0.2l0.3,0l0.3,0.1l0.3,0l0.3,0.3l0.4,0l0.3,0.3l0.3,0.2l0.1,0.1l0.3,0.3l0.2,0.2l0.3,0.2l0.1,0.3l0.2,0.3l0.1,0.3l0.3,0.1l0.2,0.3l0.2,0.3l0,0.3l0.1,0.3l0.2,0.4l0,0.3l0,0.3l0.1,0.3l0,0.3l0,0.3l0.2,24.4l-0.2,0l0,0.3l0,0.3l0,0.3l-0.1,0.3l0,0.4l-0.2,0.3l-0.1,0.3l0,0.3l-0.2,0.3l-0.2,0.3l-0.1,0.1l-0.2,0.3l-0.3,0.3l-0.1,0.3l-0.3,0.2l-0.2,0.2l-0.3,0.3l-0.1,0.1l-0.3,0.2l-0.3,0.1l-0.4,0.2l-0.3,0.1l-0.3,0.2l-0.3,0.1l-0.3,0l-0.1,0.2l-0.3,0l-0.3,0l-0.5,0.1l-0.3,0l-189.4,0l-0.4,0l-0.3,0l-0.3,-0.1l-0.3,0l-0.3,-0.2l-0.3,0l-0.3,-0.1l-0.3,0l-0.3,-0.2l-0.1,-0.1l-0.4,-0.3l-0.3,-0.2l-0.3,-0.1l-0.1,-0.2L988.8,44l-0.2,-0.2l-0.3,-0.3l-0.1,-0.3L988,43.1l-0.1,-0.3l-0.2,-0.3l-0.1,-0.3l-0.2,-0.3l-0.1,-0.3l0,-0.3l-0.2,-0.4l0,-0.3l0,-0.3L986.9,40l0,-0.3l0,-24.4Z" class="g6_85" />
</svg>