<?xml version="1.0" encoding="UTF-8" standalone="no"?>
<!DOCTYPE svg PUBLIC "-//W3C//DTD SVG 1.1//EN"
"http://www.w3.org/Graphics/SVG/1.1/DTD/svg11.dtd">
<svg viewBox="0 0 1210 1210" version="1.1" xmlns="http://www.w3.org/2000/svg" xmlns:xlink="http://www.w3.org/1999/xlink">
<defs>
<style type="text/css"><![CDATA[
.g2_71{
fill: none;
stroke: #418AB3;
stroke-width: 2;
stroke-linecap: butt;
stroke-linejoin: miter;
stroke-miterlimit: 7;
}
.g1_71{
fill: #FFFFFF;
}
]]></style>
</defs>
<path fill-rule="evenodd" d="M0,0L1210,0l0,1210L0,1210L0,0Z" class="g1_71" />
<path fill-rule="evenodd" d="M0,0L1210,0l0,1210L0,1210L0,0Z" class="g1_71" />
<path fill-rule="evenodd" d="M916.7,26l0,-0.5l0,-0.4l0.1,-0.3l0,-0.5L917,23.8l0.1,-0.3l0,-0.3l0.2,-0.4l0.1,-0.3l0.3,-0.3l0.2,-0.5l0.3,-0.3l0.1,-0.3l0.4,-0.3L919,20.5l0.3,-0.3L919.6,20l0.3,-0.3l0.3,-0.1l0.3,-0.4l0.3,-0.1l0.5,-0.2l0.3,-0.1L922,18.6l0.3,-0.1l0.3,0l0.5,-0.2l0.4,0l0.3,0l0.5,0l239.3,0l0.4,0l0.5,0l0.3,0l0.4,0.2l0.3,0l0.5,0.1l0.3,0.2l0.5,0.1l0.3,0.2l0.3,0.1l0.3,0.4l0.4,0.1l0.3,0.3l0.4,0.3l0.3,0.2l0.1,0.3l0.3,0.3l0.3,0.3l0.2,0.3l0.1,0.5l0.3,0.3l0.2,0.3l0.1,0.4l0,0.3l0.2,0.5l0.1,0.3l0,0.5l0.2,0.3l0,0.4l0,0.5l0.1,30.4l-0.1,0l0,0.4l0,0.3l0,0.5l-0.2,0.5l0,0.3l-0.1,0.4l-0.2,0.3l-0.1,0.3l-0.2,0.5l-0.3,0.3l-0.1,0.3l-0.2,0.5l-0.3,0.3l-0.3,0.3l-0.1,0.3l-0.3,0.1l-0.4,0.3l-0.3,0.3l-0.3,0.2l-0.4,0.1l-0.3,0.4l-0.3,0.1l-0.5,0.2l-0.3,0l-0.5,0.1l-0.3,0.2l-0.4,0l-0.3,0.1l-0.5,0l-0.4,0L924.3,64.2l0,-0.2l-0.5,0l-0.3,0l-0.4,0l-0.5,-0.1l-0.3,0L922,63.7l-0.4,-0.1l-0.3,-0.2l-0.5,-0.1l-0.3,-0.4l-0.3,-0.1l-0.3,-0.2l-0.3,-0.3L919.3,62L919,61.9l-0.3,-0.3l-0.4,-0.3L918.2,61l-0.3,-0.3l-0.2,-0.5l-0.3,-0.3l-0.1,-0.3l-0.2,-0.5l0,-0.3L917,58.4l-0.2,-0.3l0,-0.5l-0.1,-0.5l0,-0.3l0,-0.4l0,-30.4Z" class="g1_71" />
<path d="M916.7,26l0,-0.5l0,-0.4l0.1,-0.3l0,-0.5L917,23.8l0.1,-0.3l0,-0.3l0.2,-0.4l0.1,-0.3l0.3,-0.3l0.2,-0.5l0.3,-0.3l0.1,-0.3l0.4,-0.3L919,20.5l0.3,-0.3L919.6,20l0.3,-0.3l0.3,-0.1l0.3,-0.4l0.3,-0.1l0.5,-0.2l0.3,-0.1L922,18.6l0.3,-0.1l0.3,0l0.5,-0.2l0.4,0l0.3,0l0.5,0l239.3,0l0.4,0l0.5,0l0.3,0l0.4,0.2l0.3,0l0.5,0.1l0.3,0.2l0.5,0.1l0.3,0.2l0.3,0.1l0.3,0.4l0.4,0.1l0.3,0.3l0.4,0.3l0.3,0.2l0.1,0.3l0.3,0.3l0.3,0.3l0.2,0.3l0.1,0.5l0.3,0.3l0.2,0.3l0.1,0.4l0,0.3l0.2,0.5l0.1,0.3l0,0.5l0.2,0.3l0,0.4l0,0.5l0.1,30.4l-0.1,0l0,0.4l0,0.3l0,0.5l-0.2,0.5l0,0.3l-0.1,0.4l-0.2,0.3l-0.1,0.3l-0.2,0.5l-0.3,0.3l-0.1,0.3l-0.2,0.5l-0.3,0.3l-0.3,0.3l-0.1,0.3l-0.3,0.1l-0.4,0.3l-0.3,0.3l-0.3,0.2l-0.4,0.1l-0.3,0.4l-0.3,0.1l-0.5,0.2l-0.3,0l-0.5,0.1l-0.3,0.2l-0.4,0l-0.3,0.1l-0.5,0l-0.4,0L924.3,64.2l0,-0.2l-0.5,0l-0.3,0l-0.4,0l-0.5,-0.1l-0.3,0L922,63.7l-0.4,-0.1l-0.3,-0.2l-0.5,-0.1l-0.3,-0.4l-0.3,-0.1l-0.3,-0.2l-0.3,-0.3L919.3,62L919,61.9l-0.3,-0.3l-0.4,-0.3L918.2,61l-0.3,-0.3l-0.2,-0.5l-0.3,-0.3l-0.1,-0.3l-0.2,-0.5l0,-0.3L917,58.4l-0.2,-0.3l0,-0.5l-0.1,-0.5l0,-0.3l0,-0.4l0,-30.4Z" class="g2_71" />
</svg>