<?xml version="1.0" encoding="UTF-8" standalone="no"?>
<!DOCTYPE svg PUBLIC "-//W3C//DTD SVG 1.1//EN"
"http://www.w3.org/Graphics/SVG/1.1/DTD/svg11.dtd">
<svg viewBox="0 0 1100 825" version="1.1" xmlns="http://www.w3.org/2000/svg" xmlns:xlink="http://www.w3.org/1999/xlink">
<defs>
<style type="text/css"><![CDATA[
.g3_43{
fill: none;
stroke: #418AB3;
stroke-width: 2;
stroke-linecap: butt;
stroke-linejoin: miter;
stroke-miterlimit: 7;
}
.g2_43{
fill: none;
stroke: #000000;
stroke-width: 1;
stroke-linecap: butt;
stroke-linejoin: round;
}
.g1_43{
fill: #FFFFFF;
}
]]></style>
</defs>
<path fill-rule="evenodd" d="M0,0L1100,0l0,825L0,825L0,0Z" class="g1_43" />
<path fill-rule="evenodd" d="M0,0L1100,0l0,825L0,825L0,0Z" class="g1_43" />
<image x="753" y="777" width="303" height="38" xlink:href="img/1.png" />
<image x="291" y="39" width="324" height="458" xlink:href="img/2.png" />
<path d="M848.5,208.5l-234,0l0,-132l468,0l0,132l-234,0Z" class="g2_43" />
<path fill-rule="evenodd" d="M903.4,23.2l0,-0.3l0,-0.3l0.1,-0.3l0,-0.3l0,-0.3l0.2,-0.3l0.1,-0.2l0,-0.3L904,20.6l0.1,-0.1l0.2,-0.3l0.1,-0.3l0.2,-0.2l0.2,-0.3l0.3,-0.2l0.1,-0.1l0.2,-0.2l0.3,-0.3L906,18.5l0.1,-0.2l0.3,-0.1L906.7,18l0.2,0l0.3,-0.1l0.3,0l0.3,-0.2l0.3,0l0.3,0l0.2,-0.1l0.3,0l167.7,0l0.3,0l0.2,0.1l0.3,0l0.3,0l0.3,0.2l0.3,0l0.3,0.1l0.2,0l0.3,0.2l0.3,0.1l0.1,0.2l0.3,0.1l0.2,0.3l0.3,0.2l0.1,0.1l0.2,0.4l0.3,0.1l0.2,0.2l0.1,0.3l0.2,0.3l0.1,0.1l0.2,0.3l0,0.3l0.1,0.3l0.2,0.2l0,0.3l0,0.3l0,0.3l0.1,0.3l0,0.3l0,22.2l0,0.3l0,0.3l-0.1,0.3l0,0.1l0,0.4l-0.2,0.3l-0.1,0.3l0,0.3l-0.2,0.3l-0.1,0.1l-0.2,0.3l-0.1,0.2l-0.2,0.3l-0.1,0.1l-0.4,0.3l-0.1,0.2l-0.3,0.2l-0.2,0.1l-0.3,0.2l-0.1,0.1l-0.3,0.2l-0.3,0.1l-0.2,0.2l-0.3,0l-0.3,0.1l-0.3,0l-0.3,0.2l-0.3,0l-0.2,0l-0.3,0L908.9,51l0,-0.1l-0.3,0l-0.2,0l-0.3,0l-0.3,0l-0.3,-0.2l-0.3,0l-0.3,-0.1l-0.2,-0.2l-0.3,-0.1l-0.3,0L906,50l-0.3,0l-0.3,-0.3l-0.2,-0.2l-0.1,-0.2L904.8,49l-0.2,-0.1l-0.2,-0.3l-0.1,-0.2l-0.2,-0.3L904,48l-0.2,-0.3l0,-0.3l-0.1,-0.3l-0.2,-0.3l0,-0.2l0,-0.3L903.4,46l0,-0.3l0,-0.3l0,-22.2Z" class="g1_43" />
<path d="M903.4,23.2l0,-0.3l0,-0.3l0.1,-0.3l0,-0.3l0,-0.3l0.2,-0.3l0.1,-0.2l0,-0.3L904,20.6l0.1,-0.1l0.2,-0.3l0.1,-0.3l0.2,-0.2l0.2,-0.3l0.3,-0.2l0.1,-0.1l0.2,-0.2l0.3,-0.3L906,18.5l0.1,-0.2l0.3,-0.1L906.7,18l0.2,0l0.3,-0.1l0.3,0l0.3,-0.2l0.3,0l0.3,0l0.2,-0.1l0.3,0l167.7,0l0.3,0l0.2,0.1l0.3,0l0.3,0l0.3,0.2l0.3,0l0.3,0.1l0.2,0l0.3,0.2l0.3,0.1l0.1,0.2l0.3,0.1l0.2,0.3l0.3,0.2l0.1,0.1l0.2,0.4l0.3,0.1l0.2,0.2l0.1,0.3l0.2,0.3l0.1,0.1l0.2,0.3l0,0.3l0.1,0.3l0.2,0.2l0,0.3l0,0.3l0,0.3l0.1,0.3l0,0.3l0,22.2l0,0.3l0,0.3l-0.1,0.3l0,0.1l0,0.4l-0.2,0.3l-0.1,0.3l0,0.3l-0.2,0.3l-0.1,0.1l-0.2,0.3l-0.1,0.2l-0.2,0.3l-0.1,0.1l-0.4,0.3l-0.1,0.2l-0.3,0.2l-0.2,0.1l-0.3,0.2l-0.1,0.1l-0.3,0.2l-0.3,0.1l-0.2,0.2l-0.3,0l-0.3,0.1l-0.3,0l-0.3,0.2l-0.3,0l-0.2,0l-0.3,0L908.9,51l0,-0.1l-0.3,0l-0.2,0l-0.3,0l-0.3,0l-0.3,-0.2l-0.3,0l-0.3,-0.1l-0.2,-0.2l-0.3,-0.1l-0.3,0L906,50l-0.3,0l-0.3,-0.3l-0.2,-0.2l-0.1,-0.2L904.8,49l-0.2,-0.1l-0.2,-0.3l-0.1,-0.2l-0.2,-0.3L904,48l-0.2,-0.3l0,-0.3l-0.1,-0.3l-0.2,-0.3l0,-0.2l0,-0.3L903.4,46l0,-0.3l0,-0.3l0,-22.2Z" class="g3_43" />
</svg>