<?xml version="1.0" encoding="UTF-8" standalone="no"?>
<!DOCTYPE svg PUBLIC "-//W3C//DTD SVG 1.1//EN"
"http://www.w3.org/Graphics/SVG/1.1/DTD/svg11.dtd">
<svg viewBox="0 0 1210 1045" version="1.1" xmlns="http://www.w3.org/2000/svg" xmlns:xlink="http://www.w3.org/1999/xlink">
<defs>
<clipPath id="c0_3"><path d="M208.1,91.7l-0.6,-0.2L207,91.4l-0.6,-0.2l-0.5,-0.1l-0.6,-0.2l-0.4,-0.3l-0.6,-0.5L203.8,90l-0.5,-0.3l-0.4,-0.3l-0.5,-0.5L202,88.6l-0.3,-0.4l-0.3,-0.5l-0.5,-0.6l-0.3,-0.3l-0.3,-0.5l-0.2,-0.7l-0.3,-0.4l-0.3,-0.4L199.4,84l-0.2,-0.3l-0.1,-0.6l-0.2,-0.6l0,-0.5l-0.1,-0.6l0,-0.6l0,-44.1l0,-0.5l0.1,-0.4l0,-0.7l0.2,-0.6l0.1,-0.6l0.2,-0.4l0.1,-0.7l0.3,-0.4l0.3,-0.5l0.2,-0.6l0.3,-0.4l0.3,-0.5l0.5,-0.5l0.3,-0.4L202,29l0.4,-0.3l0.5,-0.4L203.3,28l0.5,-0.5l0.5,-0.2L204.9,27l0.4,-0.3l0.6,-0.1l0.5,-0.2L207,26.3L207.5,26l0.6,0l0.6,-0.2l359.8,0l0.6,0.2l0.5,0l0.6,0.3l0.4,0.1l0.8,0.2l0.3,0.1l0.6,0.3l0.6,0.3l0.3,0.2l0.5,0.5l0.4,0.3l0.5,0.4l0.5,0.3l0.3,0.5l0.6,0.4l0.1,0.5l0.3,0.5l0.3,0.4l0.3,0.6l0.5,0.5l0,0.4l0.2,0.7l0.1,0.4l0.2,0.6l0.1,0.6l0.2,0.7l0,0.4l0,0.5l0,44.1l0,0.6l0,0.5l-0.2,0.6L578,83.1l0,0.6L577.7,84l-0.2,0.8l0,0.4L577,85.6l-0.1,0.7l-0.3,0.5l-0.5,0.3L576,87.7l-0.6,0.5l-0.3,0.4l-0.5,0.3l-0.2,0.5l-0.7,0.3L573.2,90l-0.3,0.1l-0.6,0.5l-0.6,0.2l-0.3,0.3l-0.8,0.1l-0.4,0.2l-0.6,0.1l-0.5,0.2Z" /></clipPath>
<clipPath id="c1_3"><path d="M208.1,310.1L207.5,310L207,309.8l-0.6,-0.1l-0.5,-0.2l-0.6,-0.3l-0.4,-0.1l-0.6,-0.5l-0.5,-0.1l-0.5,-0.3l-0.4,-0.4l-0.5,-0.4L202,307.1l-0.3,-0.5l-0.3,-0.4l-0.5,-0.6l-0.3,-0.4l-0.3,-0.4L200.1,304l-0.3,-0.3l-0.3,-0.6l-0.1,-0.6L199.2,302l-0.1,-0.4L198.9,301l0,-0.6l-0.1,-0.6l0,-0.5l0,-44.2l0,-0.4l0.1,-0.6l0,-0.5l0.2,-0.6l0.1,-0.6l0.2,-0.5l0.1,-0.6l0.3,-0.4l0.3,-0.7l0.2,-0.4l0.3,-0.5l0.3,-0.4l0.5,-0.5l0.3,-0.4l0.3,-0.5l0.4,-0.5l0.5,-0.3l0.4,-0.3l0.5,-0.4l0.5,-0.2l0.6,-0.3l0.4,-0.3l0.6,-0.1l0.5,-0.3l0.6,0l0.5,-0.4l0.6,0l0.6,-0.1l359.8,0l0.6,0.1l0.5,0l0.6,0.4l0.4,0.1l0.8,0.2l0.3,0.1l0.6,0.3l0.6,0.3l0.3,0.2l0.5,0.4l0.4,0.3l0.5,0.5l0.5,0.3l0.3,0.5l0.6,0.4l0.1,0.5l0.3,0.4l0.3,0.5l0.3,0.4l0.5,0.7l0,0.4l0.2,0.6l0.1,0.5L578,253l0.1,0.6l0.2,0.6l0,0.5l0,0.4l0,44.2l0,0.5l0,0.6l-0.2,0.6l-0.1,0.6l0,0.4l-0.3,0.5l-0.2,0.6l0,0.6L577,304l-0.1,0.8l-0.3,0.4l-0.5,0.4l-0.1,0.6l-0.6,0.4l-0.3,0.3l-0.5,0.5l-0.2,0.4l-0.7,0.4l-0.5,0.3l-0.3,0.1l-0.6,0.3l-0.6,0.3l-0.3,0.3l-0.8,0.2l-0.4,0.1l-0.6,0.2l-0.5,0.1Z" /></clipPath>
<clipPath id="c2_3"><path d="M208.7,237.4l-0.6,-0.1l-0.6,-0.2l-0.5,0l-0.6,-0.3l-0.5,-0.1l-0.6,-0.2l-0.4,-0.3L204.3,236l-0.5,-0.3l-0.5,-0.4L202.9,235l-0.5,-0.3L202,234.2l-0.3,-0.4l-0.3,-0.4l-0.5,-0.6l-0.3,-0.6l-0.3,-0.3l-0.2,-0.4l-0.3,-0.8l-0.3,-0.3l-0.1,-0.6l-0.2,-0.6l-0.1,-0.5l-0.2,-0.4l0,-0.7L198.8,227l0,-0.6l0,-44l0,-0.6l0.1,-0.5l0,-0.6l0.2,-0.6l0.1,-0.4l0.2,-0.6l0.1,-0.5l0.3,-0.6l0.3,-0.5l0.2,-0.6l0.3,-0.4l0.3,-0.5l0.5,-0.5l0.3,-0.4l0.3,-0.5l0.4,-0.4l0.5,-0.2l0.4,-0.4l0.5,-0.3l0.5,-0.4l0.6,-0.3l0.4,-0.1l0.6,-0.3l0.5,-0.2l0.6,-0.1l0.5,-0.2l0.6,-0.1l0.6,0l0.6,-0.2l358.6,0l0.6,0.2l0.6,0l0.5,0.1l0.6,0.2l0.4,0.1l0.8,0.2l0.3,0.3l0.6,0.1l0.6,0.3l0.3,0.4l0.5,0.3l0.4,0.4l0.5,0.2l0.5,0.6l0.3,0.3l0.6,0.4l0.1,0.5l0.3,0.5l0.3,0.4l0.3,0.6l0.5,0.5l0,0.6l0.2,0.5l0.1,0.6l0.2,0.4l0.1,0.6l0.2,0.6l0,0.5l0,0.6l0,44l0,0.6l0,0.6l-0.2,0.7l-0.1,0.4l0,0.5l-0.3,0.6l-0.2,0.6l0,0.3l-0.5,0.8l-0.1,0.4l-0.3,0.3l-0.5,0.6l-0.1,0.5l-0.6,0.5l-0.3,0.4l-0.5,0.3l-0.2,0.5l-0.7,0.3l-0.5,0.3l-0.3,0.3l-0.6,0.3l-0.6,0.3l-0.3,0.2l-0.8,0.1l-0.4,0l-0.6,0.3l-0.5,0.2l-0.6,0.1Z" /></clipPath>
<clipPath id="c3_3"><path d="M208.7,455.9l-0.6,-0.2l-0.6,-0.1L207,455.3l-0.6,0l-0.5,-0.2L205.3,455l-0.4,-0.3l-0.6,-0.3l-0.5,-0.3l-0.5,-0.3l-0.4,-0.4l-0.5,-0.3L202,452.7l-0.3,-0.5l-0.3,-0.4l-0.5,-0.5l-0.3,-0.6l-0.3,-0.3l-0.2,-0.5l-0.3,-0.7l-0.3,-0.3l-0.1,-0.7l-0.2,-0.6l-0.1,-0.4l-0.2,-0.6l0,-0.5l-0.1,-0.6l0,-0.6l0,-44l0,-0.6l0.1,-0.5l0,-0.6l0.2,-0.6l0.1,-0.5l0.2,-0.6l0.1,-0.6l0.3,-0.4l0.3,-0.5l0.2,-0.6l0.3,-0.5l0.3,-0.4l0.5,-0.5l0.3,-0.4l0.3,-0.5l0.4,-0.5l0.5,-0.3l0.4,-0.3l0.5,-0.3l0.5,-0.3l0.6,-0.3l0.4,-0.3l0.6,-0.1l0.5,-0.2l0.6,-0.2l0.5,-0.1l0.6,-0.2l0.6,0l0.6,-0.1l358.6,0l0.6,0.1l0.6,0l0.5,0.2l0.6,0.1l0.4,0.2l0.8,0.2l0.3,0.1l0.6,0.3l0.6,0.3l0.3,0.3l0.5,0.3l0.4,0.3l0.5,0.3l0.5,0.6l0.3,0.4L576,394l0.1,0.5l0.3,0.4l0.3,0.5L577,396l0.5,0.5l0,0.4l0.2,0.6l0.1,0.6l0.2,0.5l0.1,0.6l0.2,0.6l0,0.5l0,0.6l0,44l0,0.6l0,0.5l-0.2,0.6l-0.1,0.6l0,0.4l-0.3,0.6l-0.2,0.7l0,0.3l-0.5,0.7l-0.1,0.5l-0.3,0.3l-0.5,0.6l-0.1,0.5l-0.6,0.4l-0.3,0.5l-0.5,0.3l-0.2,0.4l-0.7,0.4l-0.5,0.3l-0.3,0.3l-0.6,0.3l-0.6,0.1l-0.3,0.3l-0.8,0.2l-0.4,0l-0.6,0.3l-0.5,0.1l-0.6,0l-0.6,0.2Z" /></clipPath>
<clipPath id="c4_3"><path d="M209.8,164.7l0,-0.2l-1.7,0l-0.6,-0.1L207,164.2l-0.6,-0.1l-0.5,-0.2l-0.6,-0.4l-0.4,-0.2l-0.6,-0.1l-0.5,-0.3l-0.5,-0.5l-0.4,-0.5l-0.5,-0.1L202,161.3L201.7,161l-0.3,-0.6l-0.5,-0.3l-0.3,-0.6l-0.3,-0.6l-0.2,-0.3l-0.3,-0.5l-0.3,-0.7l-0.1,-0.5l-0.2,-0.5l-0.1,-0.6l-0.2,-0.4l0,-0.6l-0.1,-0.6l0,-0.7l0,-43.8l0,-0.6l0.1,-0.6l0,-0.6l0.2,-0.5l0.1,-0.6l0.2,-0.5l0.1,-0.6l0.3,-0.6l0.3,-0.4l0.2,-0.5l0.3,-0.5l0.3,-0.6l0.5,-0.4l0.3,-0.5l0.3,-0.3l0.4,-0.5l0.5,-0.3l0.4,-0.3l0.5,-0.4l0.5,-0.3l0.6,-0.2l0.4,-0.3l0.6,-0.3l0.5,-0.1L207,99l0.5,-0.2l0.6,0l0.6,-0.1l359.8,0l0.6,0.1l0.5,0l0.6,0.2l0.4,0.2l0.8,0.1l0.3,0.3l0.6,0.3l0.6,0.2l0.3,0.3l0.5,0.4l0.4,0.3l0.5,0.3l0.5,0.5l0.3,0.3l0.6,0.5l0.1,0.4l0.3,0.6l0.3,0.5l0.3,0.5l0.5,0.4l0,0.6l0.2,0.6l0.1,0.5l0.2,0.6l0.1,0.5l0.2,0.6l0,0.6l0,0.6l0,43.8l0,0.7l0,0.6l-0.2,0.6l-0.1,0.4l0,0.6l-0.3,0.5l-0.2,0.5l0,0.7l-0.5,0.5l-0.1,0.3l-0.3,0.6l-0.5,0.6l-0.1,0.3l-0.6,0.5l-0.3,0.4l-0.5,0.5l-0.2,0.1l-0.7,0.5l-0.5,0.3l-0.3,0.3l-0.6,0.3l-0.6,0.2l-0.3,0.3l-0.8,0.3l-0.4,0.1l-0.6,0l-0.5,0.2l-0.6,0.1l-1.2,0l-357.5,0.2Z" /></clipPath>
<clipPath id="c5_3"><path d="M208.7,383l-0.6,-0.1l-0.6,-0.2l-0.5,0l-0.6,-0.1l-0.5,-0.3l-0.6,-0.4l-0.4,-0.1l-0.6,-0.2l-0.5,-0.3l-0.5,-0.4l-0.4,-0.5l-0.5,-0.1L202,379.8l-0.3,-0.5l-0.3,-0.4l-0.5,-0.5L200.6,378l-0.3,-0.6l-0.2,-0.3l-0.3,-0.7l-0.3,-0.6l-0.1,-0.4l-0.2,-0.5l-0.1,-0.6l-0.2,-0.5l0,-0.6l-0.1,-0.6l0,-0.6l0,-44l0,-0.4l0.1,-0.7l0,-0.6l0.2,-0.6l0.1,-0.4l0.2,-0.6l0.1,-0.5l0.3,-0.6l0.3,-0.5l0.2,-0.7l0.3,-0.3l0.3,-0.5l0.5,-0.5l0.3,-0.4l0.3,-0.5l0.4,-0.3l0.5,-0.3l0.4,-0.4l0.5,-0.4l0.5,-0.3l0.6,-0.3l0.4,-0.1l0.6,-0.3l0.5,-0.2l0.6,-0.1l0.5,-0.2l0.6,-0.1l0.6,0l0.6,-0.2l358.6,0l0.6,0.2l0.6,0l0.5,0.1l0.6,0.2l0.4,0.1l0.8,0.2l0.3,0.3l0.6,0.1l0.6,0.3l0.3,0.3l0.5,0.4l0.4,0.4l0.5,0.3l0.5,0.5l0.3,0.3l0.6,0.4l0.1,0.5l0.3,0.5l0.3,0.3l0.3,0.7l0.5,0.5l0,0.6l0.2,0.5l0.1,0.6l0.2,0.4l0.1,0.6l0.2,0.6l0,0.7l0,0.4l0,44l0,0.6l0,0.6l-0.2,0.6l-0.1,0.5l0,0.6l-0.3,0.5l-0.2,0.4l0,0.6l-0.5,0.7l-0.1,0.3l-0.3,0.6l-0.5,0.4l-0.1,0.5l-0.6,0.4l-0.3,0.5l-0.5,0.3l-0.2,0.3l-0.7,0.5l-0.5,0.3l-0.3,0.3l-0.6,0.3l-0.6,0.1l-0.3,0.4l-0.8,0.1l-0.4,0.2l-0.6,0.1l-0.5,0.2l-0.6,0.1Z" /></clipPath>
<style type="text/css"><![CDATA[
.g7_3{
fill: none;
stroke: #838383;
stroke-width: 1;
stroke-linecap: butt;
stroke-linejoin: miter;
stroke-miterlimit: 7;
}
.g5_3{
fill: none;
stroke: #000000;
stroke-width: 1;
stroke-linecap: butt;
stroke-linejoin: miter;
stroke-miterlimit: 7;
}
.g8_3{
fill: none;
stroke: #838383;
stroke-width: 1;
stroke-linecap: butt;
stroke-linejoin: miter;
}
.g2_3{
fill: #D8E8F1;
}
.g6_3{
fill: none;
stroke: #000000;
stroke-width: 1;
stroke-linecap: butt;
stroke-linejoin: miter;
}
.g4_3{
fill: none;
stroke: #5E5E5E;
stroke-width: 1;
stroke-linecap: butt;
stroke-linejoin: miter;
}
.g3_3{
fill: none;
stroke: #5E5E5E;
stroke-width: 1;
stroke-linecap: butt;
stroke-linejoin: miter;
stroke-miterlimit: 7;
}
.g1_3{
fill: #FFFFFF;
}
]]></style>
</defs>
<path fill-rule="evenodd" d="M0,0L1210,0l0,1045L0,1045L0,0Z" class="g1_3" />
<path fill-rule="evenodd" d="M0,0L1210,0l0,1045L0,1045L0,0Z" class="g1_3" />
<image x="828" y="984" width="334" height="49" xlink:href="img/1.png" />
<path fill-rule="evenodd" d="M632.5,181.7l0,-0.7l0,-0.6l0.2,-0.4l0.1,-0.6l0.2,-0.6l0,-0.5l0.3,-0.6l0.1,-0.5l0.3,-0.4l0.3,-0.6l0.3,-0.5l0.3,-0.5l0.3,-0.4l0.3,-0.5l0.5,-0.4l0.5,-0.3l0.4,-0.5l0.5,-0.3l0.4,-0.3l0.5,-0.3l0.5,-0.3l0.6,-0.3l0.4,-0.2l0.6,-0.1l0.5,-0.2l0.6,-0.1l0.6,-0.2l0.5,-0.1l0.6,0l0.6,0l357.5,0l0.5,0l0.6,0l0.6,0.1l0.6,0.2l0.5,0.1l0.6,0.2l0.6,0.1l0.4,0.2l0.5,0.3l0.6,0.3l0.5,0.3l0.4,0.3l0.5,0.3l0.4,0.5l0.3,0.3l0.5,0.4l0.5,0.5l0.3,0.4l0.3,0.5l0.3,0.5l0.1,0.6l0.3,0.4l0.3,0.5l0.2,0.6l0.1,0.5l0.2,0.6l0.1,0.6l0,0.6l0,0.4l0,0.7l0.2,44l0,0.6l-0.2,0.4l0,0.6l-0.1,0.6l-0.2,0.7l-0.1,0.4l-0.2,0.6l-0.3,0.5l-0.1,0.4l-0.3,0.7l-0.3,0.4l-0.3,0.5l-0.3,0.4l-0.5,0.5l-0.5,0.4l-0.3,0.4l-0.4,0.4l-0.5,0.3l-0.4,0.3l-0.5,0.3l-0.6,0.3l-0.5,0.2l-0.4,0.3l-0.6,0.1l-0.6,0.2l-0.5,0.1l-0.6,0.2l-0.6,0l-0.6,0.2l-0.5,0l-357.5,0l-0.6,0l-0.6,0l-0.5,-0.2l-0.6,-0.2l-0.6,-0.1L640.1,236l-0.6,-0.1l-0.4,-0.2l-0.6,-0.3L638,235.1l-0.5,-0.3l-0.4,-0.3l-0.5,-0.3l-0.4,-0.4l-0.5,-0.4L635.2,233l-0.3,-0.5l-0.3,-0.4l-0.3,-0.5L634,231.2l-0.3,-0.7l-0.3,-0.4l-0.1,-0.5L633,229l0,-0.4l-0.2,-0.7l-0.1,-0.6l-0.2,-0.4l0,-0.6l0,-0.6l0,-44Z" class="g2_3" />
<path d="M632.5,181.7l0,-0.7l0,-0.6l0.2,-0.4l0.1,-0.6l0.2,-0.6l0,-0.5l0.3,-0.6l0.1,-0.5l0.3,-0.4l0.3,-0.6l0.3,-0.5l0.3,-0.5l0.3,-0.4l0.3,-0.5l0.5,-0.4l0.5,-0.3l0.4,-0.5l0.5,-0.3l0.4,-0.3l0.5,-0.3l0.5,-0.3l0.6,-0.3l0.4,-0.2l0.6,-0.1l0.5,-0.2l0.6,-0.1l0.6,-0.2l0.5,-0.1l0.6,0l0.6,0l357.5,0l0.5,0l0.6,0l0.6,0.1l0.6,0.2l0.5,0.1l0.6,0.2l0.6,0.1l0.4,0.2l0.5,0.3l0.6,0.3l0.5,0.3l0.4,0.3l0.5,0.3l0.4,0.5l0.3,0.3l0.5,0.4l0.5,0.5l0.3,0.4l0.3,0.5l0.3,0.5l0.1,0.6l0.3,0.4l0.3,0.5l0.2,0.6l0.1,0.5l0.2,0.6l0.1,0.6l0,0.6l0,0.4l0,0.7l0.2,44l0,0.6l-0.2,0.4l0,0.6l-0.1,0.6l-0.2,0.7l-0.1,0.4l-0.2,0.6l-0.3,0.5l-0.1,0.4l-0.3,0.7l-0.3,0.4l-0.3,0.5l-0.3,0.4l-0.5,0.5l-0.5,0.4l-0.3,0.4l-0.4,0.4l-0.5,0.3l-0.4,0.3l-0.5,0.3l-0.6,0.3l-0.5,0.2l-0.4,0.3l-0.6,0.1l-0.6,0.2l-0.5,0.1l-0.6,0.2l-0.6,0l-0.6,0.2l-0.5,0l-357.5,0l-0.6,0l-0.6,0l-0.5,-0.2l-0.6,-0.2l-0.6,-0.1L640.1,236l-0.6,-0.1l-0.4,-0.2l-0.6,-0.3L638,235.1l-0.5,-0.3l-0.4,-0.3l-0.5,-0.3l-0.4,-0.4l-0.5,-0.4L635.2,233l-0.3,-0.5l-0.3,-0.4l-0.3,-0.5L634,231.2l-0.3,-0.7l-0.3,-0.4l-0.1,-0.5L633,229l0,-0.4l-0.2,-0.7l-0.1,-0.6l-0.2,-0.4l0,-0.6l0,-0.6l0,-44Z" class="g3_3" />
<path fill-rule="evenodd" d="M632.5,326.6l0,-0.6l0,-0.6l0.2,-0.6l0.1,-0.5l0.2,-0.6l0,-0.6l0.3,-0.4l0.1,-0.6l0.3,-0.5l0.3,-0.5l0.3,-0.6l0.3,-0.4l0.3,-0.5l0.3,-0.4l0.5,-0.4l0.5,-0.4l0.4,-0.3l0.5,-0.5l0.4,-0.3L638,317l0.5,-0.1l0.6,-0.3l0.4,-0.3l0.6,-0.2l0.5,-0.2l0.6,-0.1l0.6,-0.2l0.5,0l0.6,0l0.6,0l357.5,0l0.5,0l0.6,0l0.6,0l0.6,0.2l0.5,0.1l0.6,0.2l0.6,0.2l0.4,0.3l0.5,0.3l0.6,0.1l0.5,0.3l0.4,0.3l0.5,0.5l0.4,0.3l0.3,0.4l0.5,0.4l0.5,0.4l0.3,0.5l0.3,0.4l0.3,0.6l0.1,0.5l0.3,0.5l0.3,0.6l0.2,0.4l0.1,0.6l0.2,0.6l0.1,0.5l0,0.6l0,0.6l0,0.6l0.2,43.9l0,0.6l-0.2,0.6l0,0.6l-0.1,0.5l-0.2,0.6l-0.1,0.4l-0.2,0.7l-0.3,0.6l-0.1,0.4l-0.3,0.5l-0.3,0.4l-0.3,0.7l-0.3,0.3l-0.5,0.4l-0.5,0.5l-0.3,0.4l-0.4,0.3l-0.5,0.3l-0.4,0.4l-0.5,0.3l-0.6,0.3l-0.5,0.3l-0.4,0.1l-0.6,0.3l-0.6,0l-0.5,0.2l-0.6,0.1l-0.6,0.2l-0.6,0l-0.5,0l-357.5,0.1l0,-0.1l-0.6,0l-0.6,0l-0.5,-0.2l-0.6,0l-0.6,-0.1L640.1,381l-0.6,-0.1l-0.4,-0.3l-0.6,-0.3L638,380.1l-0.5,-0.3l-0.4,-0.5L636.6,379l-0.4,-0.3l-0.5,-0.4L635.2,378l-0.3,-0.5l-0.3,-0.4l-0.3,-0.7L634,376l-0.3,-0.5l-0.3,-0.4l-0.1,-0.6L633,373.8l0,-0.4l-0.2,-0.6l-0.1,-0.5l-0.2,-0.6l0,-0.6l0,-0.6l0,-43.9Z" class="g2_3" />
<path d="M632.5,326.6l0,-0.6l0,-0.6l0.2,-0.6l0.1,-0.5l0.2,-0.6l0,-0.6l0.3,-0.4l0.1,-0.6l0.3,-0.5l0.3,-0.5l0.3,-0.6l0.3,-0.4l0.3,-0.5l0.3,-0.4l0.5,-0.4l0.5,-0.4l0.4,-0.3l0.5,-0.5l0.4,-0.3L638,317l0.5,-0.1l0.6,-0.3l0.4,-0.3l0.6,-0.2l0.5,-0.2l0.6,-0.1l0.6,-0.2l0.5,0l0.6,0l0.6,0l357.5,0l0.5,0l0.6,0l0.6,0l0.6,0.2l0.5,0.1l0.6,0.2l0.6,0.2l0.4,0.3l0.5,0.3l0.6,0.1l0.5,0.3l0.4,0.3l0.5,0.5l0.4,0.3l0.3,0.4l0.5,0.4l0.5,0.4l0.3,0.5l0.3,0.4l0.3,0.6l0.1,0.5l0.3,0.5l0.3,0.6l0.2,0.4l0.1,0.6l0.2,0.6l0.1,0.5l0,0.6l0,0.6l0,0.6l0.2,43.9l0,0.6l-0.2,0.6l0,0.6l-0.1,0.5l-0.2,0.6l-0.1,0.4l-0.2,0.7l-0.3,0.6l-0.1,0.4l-0.3,0.5l-0.3,0.4l-0.3,0.7l-0.3,0.3l-0.5,0.4l-0.5,0.5l-0.3,0.4l-0.4,0.3l-0.5,0.3l-0.4,0.4l-0.5,0.3l-0.6,0.3l-0.5,0.3l-0.4,0.1l-0.6,0.3l-0.6,0l-0.5,0.2l-0.6,0.1l-0.6,0.2l-0.6,0l-0.5,0l-357.5,0.1l0,-0.1l-0.6,0l-0.6,0l-0.5,-0.2l-0.6,0l-0.6,-0.1L640.1,381l-0.6,-0.1l-0.4,-0.3l-0.6,-0.3L638,380.1l-0.5,-0.3l-0.4,-0.5L636.6,379l-0.4,-0.3l-0.5,-0.4L635.2,378l-0.3,-0.5l-0.3,-0.4l-0.3,-0.7L634,376l-0.3,-0.5l-0.3,-0.4l-0.1,-0.6L633,373.8l0,-0.4l-0.2,-0.6l-0.1,-0.5l-0.2,-0.6l0,-0.6l0,-0.6l0,-43.9Z" class="g3_3" />
<path fill-rule="evenodd" d="M632.5,254.1l0,-0.5l0,-0.6l0.2,-0.6l0.1,-0.6l0.2,-0.5l0,-0.6l0.3,-0.5l0.1,-0.6l0.3,-0.4l0.3,-0.6l0.3,-0.5l0.3,-0.4l0.3,-0.5l0.3,-0.5l0.5,-0.4l0.5,-0.3l0.4,-0.3l0.5,-0.5l0.4,-0.3l0.5,-0.3l0.5,-0.3l0.6,-0.2l0.4,-0.3l0.6,-0.1l0.5,-0.2l0.6,-0.1l0.6,-0.2l0.5,0l0.6,-0.1l0.6,0l357.5,0l0.5,0l0.6,0.1l0.6,0l0.6,0.2l0.5,0.1l0.6,0.2l0.6,0.1l0.4,0.3l0.5,0.2l0.6,0.3l0.5,0.3l0.4,0.3l0.5,0.5l0.4,0.3l0.3,0.4l0.5,0.3l0.5,0.5l0.3,0.5l0.3,0.4l0.3,0.5l0.1,0.6l0.3,0.4l0.3,0.6l0.2,0.5l0.1,0.6l0.2,0.5l0.1,0.6l0,0.6l0,0.6l0,0.5l0.2,44l0,0.6l-0.2,0.4l0,0.7l-0.1,0.6l-0.2,0.6l-0.1,0.4l-0.2,0.6l-0.3,0.5l-0.1,0.6l-0.3,0.5l-0.3,0.4l-0.3,0.5l-0.3,0.4l-0.5,0.5l-0.5,0.5l-0.3,0.3l-0.4,0.4l-0.5,0.3l-0.4,0.3l-0.5,0.3l-0.6,0.3l-0.5,0.4l-0.4,0.1l-0.6,0.2l-0.6,0.1l-0.5,0.2l-0.6,0.1l-0.6,0.2l-0.6,0l-0.5,0l-357.5,0l-0.6,0l-0.6,0l-0.5,-0.2l-0.6,-0.1l-0.6,0l-0.5,-0.2l-0.6,-0.3l-0.4,-0.1l-0.6,-0.4L638,307.5l-0.5,-0.3l-0.4,-0.3l-0.5,-0.3l-0.4,-0.3l-0.5,-0.4l-0.5,-0.5l-0.3,-0.5l-0.3,-0.4L634.3,304L634,303.6l-0.3,-0.5l-0.3,-0.6L633.3,302L633,301.4l0,-0.4l-0.2,-0.6l-0.1,-0.6l-0.2,-0.5l0,-0.6l0,-0.6l0,-44Z" class="g2_3" />
<path d="M632.5,254.1l0,-0.5l0,-0.6l0.2,-0.6l0.1,-0.6l0.2,-0.5l0,-0.6l0.3,-0.5l0.1,-0.6l0.3,-0.4l0.3,-0.6l0.3,-0.5l0.3,-0.4l0.3,-0.5l0.3,-0.5l0.5,-0.4l0.5,-0.3l0.4,-0.3l0.5,-0.5l0.4,-0.3l0.5,-0.3l0.5,-0.3l0.6,-0.2l0.4,-0.3l0.6,-0.1l0.5,-0.2l0.6,-0.1l0.6,-0.2l0.5,0l0.6,-0.1l0.6,0l357.5,0l0.5,0l0.6,0.1l0.6,0l0.6,0.2l0.5,0.1l0.6,0.2l0.6,0.1l0.4,0.3l0.5,0.2l0.6,0.3l0.5,0.3l0.4,0.3l0.5,0.5l0.4,0.3l0.3,0.4l0.5,0.3l0.5,0.5l0.3,0.5l0.3,0.4l0.3,0.5l0.1,0.6l0.3,0.4l0.3,0.6l0.2,0.5l0.1,0.6l0.2,0.5l0.1,0.6l0,0.6l0,0.6l0,0.5l0.2,44l0,0.6l-0.2,0.4l0,0.7l-0.1,0.6l-0.2,0.6l-0.1,0.4l-0.2,0.6l-0.3,0.5l-0.1,0.6l-0.3,0.5l-0.3,0.4l-0.3,0.5l-0.3,0.4l-0.5,0.5l-0.5,0.5l-0.3,0.3l-0.4,0.4l-0.5,0.3l-0.4,0.3l-0.5,0.3l-0.6,0.3l-0.5,0.4l-0.4,0.1l-0.6,0.2l-0.6,0.1l-0.5,0.2l-0.6,0.1l-0.6,0.2l-0.6,0l-0.5,0l-357.5,0l-0.6,0l-0.6,0l-0.5,-0.2l-0.6,-0.1l-0.6,0l-0.5,-0.2l-0.6,-0.3l-0.4,-0.1l-0.6,-0.4L638,307.5l-0.5,-0.3l-0.4,-0.3l-0.5,-0.3l-0.4,-0.3l-0.5,-0.4l-0.5,-0.5l-0.3,-0.5l-0.3,-0.4L634.3,304L634,303.6l-0.3,-0.5l-0.3,-0.6L633.3,302L633,301.4l0,-0.4l-0.2,-0.6l-0.1,-0.6l-0.2,-0.5l0,-0.6l0,-0.6l0,-44Z" class="g3_3" />
<path fill-rule="evenodd" d="M632.5,36.8l0,-0.6l0,-0.6L632.7,35l0.1,-0.5L633,33.9l0,-0.4l0.3,-0.7l0.1,-0.6l0.3,-0.4L634,31.3l0.3,-0.4l0.3,-0.7l0.3,-0.4l0.3,-0.5L635.7,29l0.5,-0.4l0.4,-0.3L637.1,28l0.4,-0.5L638,27.2L638.5,27l0.6,-0.3l0.4,-0.3l0.6,-0.1l0.5,-0.2L641.2,26l0.6,0l0.5,-0.2l0.6,0l0.6,0l357.5,0l0.5,0l0.6,0l0.6,0.2l0.6,0l0.5,0.1l0.6,0.2l0.6,0.1l0.4,0.3l0.5,0.3l0.6,0.2l0.5,0.3l0.4,0.5l0.5,0.3l0.4,0.3l0.3,0.4l0.5,0.3l0.5,0.5l0.3,0.4l0.3,0.7l0.3,0.4l0.1,0.5l0.3,0.4l0.3,0.6l0.2,0.7l0.1,0.4l0.2,0.6l0.1,0.5l0,0.6l0,0.6l0,0.6l0.2,43.9l0,0.6l-0.2,0.6l0,0.6l-0.1,0.5l-0.2,0.6l-0.1,0.4l-0.2,0.6l-0.3,0.6l-0.1,0.5l-0.3,0.5l-0.3,0.4l-0.3,0.6l-0.3,0.3l-0.5,0.5l-0.5,0.5l-0.3,0.4l-0.4,0.3l-0.5,0.3l-0.4,0.3l-0.5,0.3l-0.6,0.3l-0.5,0.4l-0.4,0.1l-0.6,0.3l-0.6,0.2l-0.5,0l-0.6,0.1l-0.6,0.2l-0.6,0l-0.5,0L643.5,91.8l0,-0.1l-0.6,0l-0.6,0l-0.5,0l-0.6,-0.2l-0.6,-0.1l-0.5,-0.2l-0.6,-0.1l-0.4,-0.3l-0.6,-0.4L638,90.3L637.5,90l-0.4,-0.5l-0.5,-0.3l-0.4,-0.3l-0.5,-0.4l-0.5,-0.3l-0.3,-0.5l-0.3,-0.5l-0.3,-0.6L634,86.2l-0.3,-0.5l-0.3,-0.5l-0.1,-0.6L633,84l0,-0.4L632.8,83l-0.1,-0.5l-0.2,-0.6l0,-0.6l0,-0.6l0,-43.9Z" class="g2_3" />
<path d="M632.5,36.8l0,-0.6l0,-0.6L632.7,35l0.1,-0.5L633,33.9l0,-0.4l0.3,-0.7l0.1,-0.6l0.3,-0.4L634,31.3l0.3,-0.4l0.3,-0.7l0.3,-0.4l0.3,-0.5L635.7,29l0.5,-0.4l0.4,-0.3L637.1,28l0.4,-0.5L638,27.2L638.5,27l0.6,-0.3l0.4,-0.3l0.6,-0.1l0.5,-0.2L641.2,26l0.6,0l0.5,-0.2l0.6,0l0.6,0l357.5,0l0.5,0l0.6,0l0.6,0.2l0.6,0l0.5,0.1l0.6,0.2l0.6,0.1l0.4,0.3l0.5,0.3l0.6,0.2l0.5,0.3l0.4,0.5l0.5,0.3l0.4,0.3l0.3,0.4l0.5,0.3l0.5,0.5l0.3,0.4l0.3,0.7l0.3,0.4l0.1,0.5l0.3,0.4l0.3,0.6l0.2,0.7l0.1,0.4l0.2,0.6l0.1,0.5l0,0.6l0,0.6l0,0.6l0.2,43.9l0,0.6l-0.2,0.6l0,0.6l-0.1,0.5l-0.2,0.6l-0.1,0.4l-0.2,0.6l-0.3,0.6l-0.1,0.5l-0.3,0.5l-0.3,0.4l-0.3,0.6l-0.3,0.3l-0.5,0.5l-0.5,0.5l-0.3,0.4l-0.4,0.3l-0.5,0.3l-0.4,0.3l-0.5,0.3l-0.6,0.3l-0.5,0.4l-0.4,0.1l-0.6,0.3l-0.6,0.2l-0.5,0l-0.6,0.1l-0.6,0.2l-0.6,0l-0.5,0L643.5,91.8l0,-0.1l-0.6,0l-0.6,0l-0.5,0l-0.6,-0.2l-0.6,-0.1l-0.5,-0.2l-0.6,-0.1l-0.4,-0.3l-0.6,-0.4L638,90.3L637.5,90l-0.4,-0.5l-0.5,-0.3l-0.4,-0.3l-0.5,-0.4l-0.5,-0.3l-0.3,-0.5l-0.3,-0.5l-0.3,-0.6L634,86.2l-0.3,-0.5l-0.3,-0.5l-0.1,-0.6L633,84l0,-0.4L632.8,83l-0.1,-0.5l-0.2,-0.6l0,-0.6l0,-0.6l0,-43.9Z" class="g3_3" />
<path fill-rule="evenodd" d="M632.5,399.1l0,-0.7l0,-0.6l0.2,-0.4l0.1,-0.6l0.2,-0.6l0,-0.5l0.3,-0.6l0.1,-0.5l0.3,-0.6l0.3,-0.4l0.3,-0.5l0.3,-0.5l0.3,-0.6l0.3,-0.3l0.5,-0.4l0.5,-0.5l0.4,-0.3l0.5,-0.3l0.4,-0.5l0.5,-0.3l0.5,-0.1l0.6,-0.3l0.4,-0.2l0.6,-0.3l0.5,-0.1l0.6,0l0.6,-0.2l0.5,-0.1l0.6,0l0.6,0l357.5,0l0.5,0l0.6,0l0.6,0.1l0.6,0.2l0.5,0l0.6,0.3l0.6,0.1l0.4,0.2l0.5,0.3l0.6,0.1l0.5,0.3l0.4,0.5l0.5,0.3l0.4,0.5l0.3,0.3l0.5,0.4l0.5,0.3l0.3,0.6l0.3,0.5l0.3,0.5l0.1,0.4l0.3,0.6l0.3,0.5l0.2,0.6l0.1,0.5l0.2,0.6l0.1,0.6l0,0.4l0,0.6l0,0.7l0.2,44l0,0.4l-0.2,0.6l0,0.6l-0.1,0.6l-0.2,0.5l-0.1,0.6l-0.2,0.5l-0.3,0.6l-0.1,0.4l-0.3,0.7l-0.3,0.4l-0.3,0.5l-0.3,0.4l-0.5,0.3l-0.5,0.5l-0.3,0.5l-0.4,0.3l-0.5,0.4l-0.4,0.3l-0.5,0.3l-0.6,0.2l-0.5,0.3l-0.4,0.1l-0.6,0.3l-0.6,0.2l-0.5,0.2l-0.6,0l-0.6,0.1l-0.6,0l-0.5,0l-357.5,0.2l-0.6,0l-0.6,-0.2l-0.5,0l-0.6,-0.1l-0.6,-0.2l-0.5,-0.2l-0.6,-0.1L639.1,453l-0.6,-0.2L638,452.5l-0.5,-0.3l-0.4,-0.3l-0.5,-0.4l-0.4,-0.3l-0.5,-0.4l-0.5,-0.4l-0.3,-0.5l-0.3,-0.4L634.3,449L634,448.6l-0.3,-0.7l-0.3,-0.4l-0.1,-0.6L633,446.4l0,-0.6l-0.2,-0.5l-0.1,-0.6l-0.2,-0.6l0,-0.6l0,-0.4l0,-44Z" class="g2_3" />
<path d="M632.5,399.1l0,-0.7l0,-0.6l0.2,-0.4l0.1,-0.6l0.2,-0.6l0,-0.5l0.3,-0.6l0.1,-0.5l0.3,-0.6l0.3,-0.4l0.3,-0.5l0.3,-0.5l0.3,-0.6l0.3,-0.3l0.5,-0.4l0.5,-0.5l0.4,-0.3l0.5,-0.3l0.4,-0.5l0.5,-0.3l0.5,-0.1l0.6,-0.3l0.4,-0.2l0.6,-0.3l0.5,-0.1l0.6,0l0.6,-0.2l0.5,-0.1l0.6,0l0.6,0l357.5,0l0.5,0l0.6,0l0.6,0.1l0.6,0.2l0.5,0l0.6,0.3l0.6,0.1l0.4,0.2l0.5,0.3l0.6,0.1l0.5,0.3l0.4,0.5l0.5,0.3l0.4,0.5l0.3,0.3l0.5,0.4l0.5,0.3l0.3,0.6l0.3,0.5l0.3,0.5l0.1,0.4l0.3,0.6l0.3,0.5l0.2,0.6l0.1,0.5l0.2,0.6l0.1,0.6l0,0.4l0,0.6l0,0.7l0.2,44l0,0.4l-0.2,0.6l0,0.6l-0.1,0.6l-0.2,0.5l-0.1,0.6l-0.2,0.5l-0.3,0.6l-0.1,0.4l-0.3,0.7l-0.3,0.4l-0.3,0.5l-0.3,0.4l-0.5,0.3l-0.5,0.5l-0.3,0.5l-0.4,0.3l-0.5,0.4l-0.4,0.3l-0.5,0.3l-0.6,0.2l-0.5,0.3l-0.4,0.1l-0.6,0.3l-0.6,0.2l-0.5,0.2l-0.6,0l-0.6,0.1l-0.6,0l-0.5,0l-357.5,0.2l-0.6,0l-0.6,-0.2l-0.5,0l-0.6,-0.1l-0.6,-0.2l-0.5,-0.2l-0.6,-0.1L639.1,453l-0.6,-0.2L638,452.5l-0.5,-0.3l-0.4,-0.3l-0.5,-0.4l-0.4,-0.3l-0.5,-0.4l-0.5,-0.4l-0.3,-0.5l-0.3,-0.4L634.3,449L634,448.6l-0.3,-0.7l-0.3,-0.4l-0.1,-0.6L633,446.4l0,-0.6l-0.2,-0.5l-0.1,-0.6l-0.2,-0.6l0,-0.6l0,-0.4l0,-44Z" class="g3_3" />
<path fill-rule="evenodd" d="M632.5,109.2l0,-0.6l0,-0.6l0.2,-0.4l0.1,-0.7l0.2,-0.6l0,-0.4l0.3,-0.6l0.1,-0.5l0.3,-0.6l0.3,-0.5l0.3,-0.4l0.3,-0.5l0.3,-0.4l0.3,-0.5l0.5,-0.5l0.5,-0.4l0.4,-0.3l0.5,-0.3l0.4,-0.3L638,99.8l0.5,-0.3l0.6,-0.3L639.5,99l0.6,-0.3l0.5,-0.2l0.6,0l0.6,-0.1l0.5,-0.2l0.6,0l0.6,0l357.5,0l0.5,0l0.6,0l0.6,0.2l0.6,0.1l0.5,0l0.6,0.3L1005,99l0.4,0.2l0.5,0.3l0.6,0.3l0.5,0.3l0.4,0.3l0.5,0.3l0.4,0.4l0.3,0.3l0.5,0.5l0.5,0.5l0.3,0.4l0.3,0.5l0.3,0.4l0.1,0.5l0.3,0.6l0.3,0.5l0.2,0.6l0.1,0.4l0.2,0.6l0.1,0.7l0,0.6l0,0.4l0,0.6l0.2,44l0,0.5l-0.2,0.6l0,0.6l-0.1,0.6l-0.2,0.5l-0.1,0.6l-0.2,0.5l-0.3,0.6l-0.1,0.4l-0.3,0.6l-0.3,0.5l-0.3,0.5l-0.3,0.4l-0.5,0.5l-0.5,0.3l-0.3,0.4l-0.4,0.3l-0.5,0.5l-0.4,0.3l-0.5,0.3l-0.6,0.2l-0.5,0.3l-0.4,0.3l-0.6,0.1l-0.6,0.2l-0.5,0.1l-0.6,0l-0.6,0.2l-0.6,0l-0.5,0l-357.5,0.1l-0.6,0l-0.6,-0.1l-0.5,0l-0.6,-0.2l-0.6,-0.1l-0.5,-0.2l-0.6,-0.1l-0.4,-0.3L638.5,163L638,162.7l-0.5,-0.3l-0.4,-0.3l-0.5,-0.5l-0.4,-0.3L635.7,161l-0.5,-0.4l-0.3,-0.5l-0.3,-0.4l-0.3,-0.5L634,158.7l-0.3,-0.6l-0.3,-0.4l-0.1,-0.6L633,156.6l0,-0.6l-0.2,-0.5l-0.1,-0.6l-0.2,-0.6l0,-0.6l0,-0.5l0,-44Z" class="g2_3" />
<path d="M632.5,109.2l0,-0.6l0,-0.6l0.2,-0.4l0.1,-0.7l0.2,-0.6l0,-0.4l0.3,-0.6l0.1,-0.5l0.3,-0.6l0.3,-0.5l0.3,-0.4l0.3,-0.5l0.3,-0.4l0.3,-0.5l0.5,-0.5l0.5,-0.4l0.4,-0.3l0.5,-0.3l0.4,-0.3L638,99.8l0.5,-0.3l0.6,-0.3L639.5,99l0.6,-0.3l0.5,-0.2l0.6,0l0.6,-0.1l0.5,-0.2l0.6,0l0.6,0l357.5,0l0.5,0l0.6,0l0.6,0.2l0.6,0.1l0.5,0l0.6,0.3L1005,99l0.4,0.2l0.5,0.3l0.6,0.3l0.5,0.3l0.4,0.3l0.5,0.3l0.4,0.4l0.3,0.3l0.5,0.5l0.5,0.5l0.3,0.4l0.3,0.5l0.3,0.4l0.1,0.5l0.3,0.6l0.3,0.5l0.2,0.6l0.1,0.4l0.2,0.6l0.1,0.7l0,0.6l0,0.4l0,0.6l0.2,44l0,0.5l-0.2,0.6l0,0.6l-0.1,0.6l-0.2,0.5l-0.1,0.6l-0.2,0.5l-0.3,0.6l-0.1,0.4l-0.3,0.6l-0.3,0.5l-0.3,0.5l-0.3,0.4l-0.5,0.5l-0.5,0.3l-0.3,0.4l-0.4,0.3l-0.5,0.5l-0.4,0.3l-0.5,0.3l-0.6,0.2l-0.5,0.3l-0.4,0.3l-0.6,0.1l-0.6,0.2l-0.5,0.1l-0.6,0l-0.6,0.2l-0.6,0l-0.5,0l-357.5,0.1l-0.6,0l-0.6,-0.1l-0.5,0l-0.6,-0.2l-0.6,-0.1l-0.5,-0.2l-0.6,-0.1l-0.4,-0.3L638.5,163L638,162.7l-0.5,-0.3l-0.4,-0.3l-0.5,-0.5l-0.4,-0.3L635.7,161l-0.5,-0.4l-0.3,-0.5l-0.3,-0.4l-0.3,-0.5L634,158.7l-0.3,-0.6l-0.3,-0.4l-0.1,-0.6L633,156.6l0,-0.6l-0.2,-0.5l-0.1,-0.6l-0.2,-0.6l0,-0.6l0,-0.5l0,-44Z" class="g3_3" />
<image x="198" y="25" width="380" height="67" xlink:href="shade/1.png" />
<g clip-path="url(#c0_3)">
<path d="M198.5,91.5l380,0l0,-66l-380,0l0,66Z" class="g4_3" />
</g>
<path d="M198.9,36.8l0,-0.6l0,-0.6L199.1,35l0.1,-0.5l0.2,-0.6l0,-0.4l0.3,-0.7l0.1,-0.6l0.3,-0.4l0.3,-0.5l0.3,-0.4l0.4,-0.7l0.3,-0.4l0.3,-0.5L202.1,29l0.5,-0.4L203,28.3L203.5,28L204,27.5l0.4,-0.3L204.9,27l0.6,-0.3l0.4,-0.3l0.7,-0.1L207,26.1L207.6,26l0.6,0l0.5,-0.2l0.6,0l0.6,0l357.5,0l0.5,0l0.6,0l0.6,0.2l0.6,0l0.5,0.1l0.6,0.2l0.4,0.1l0.6,0.3l0.5,0.3l0.6,0.2l0.5,0.3l0.4,0.5l0.5,0.3l0.5,0.3l0.3,0.4l0.4,0.3l0.5,0.5l0.3,0.4l0.3,0.7l0.3,0.4l0.1,0.5l0.3,0.4l0.4,0.6l0.1,0.7l0.2,0.4l0.1,0.6l0.2,0.5l0,0.6l0,0.6l0,0.6l0.1,43.9l0,0.6l-0.1,0.6l0,0.6L578.1,83L578,83.6L577.8,84l-0.1,0.6l-0.4,0.6l-0.1,0.5l-0.3,0.5l-0.3,0.4l-0.3,0.6L576,87.5L575.5,88l-0.4,0.5l-0.3,0.4l-0.5,0.3l-0.5,0.3l-0.4,0.3l-0.5,0.3l-0.6,0.3l-0.5,0.4l-0.6,0.1l-0.4,0.3l-0.6,0.2l-0.5,0l-0.6,0.1l-0.6,0.2l-0.6,0l-0.5,0L209.9,91.8l0,-0.1l-0.6,0l-0.6,0l-0.5,0l-0.6,-0.2L207,91.4l-0.4,-0.2l-0.7,-0.1l-0.4,-0.3l-0.6,-0.4l-0.5,-0.1L204,90l-0.5,-0.5L203,89.2l-0.4,-0.3l-0.5,-0.4l-0.4,-0.3l-0.3,-0.5l-0.3,-0.5l-0.4,-0.6l-0.3,-0.4l-0.3,-0.5l-0.3,-0.5l-0.1,-0.6L199.4,84l0,-0.4L199.2,83l-0.1,-0.5l-0.2,-0.6l0,-0.6l0,-0.6l0,-43.9Z" class="g5_3" />
<image x="198" y="244" width="380" height="67" xlink:href="shade/2.png" />
<g clip-path="url(#c1_3)">
<path d="M198.5,310.5l380,0l0,-66l-380,0l0,66Z" class="g6_3" />
</g>
<path d="M198.9,255.1l0,-0.4l0,-0.6l0.2,-0.6l0.1,-0.7l0.2,-0.4l0,-0.6l0.3,-0.5l0.1,-0.6l0.3,-0.5l0.3,-0.6l0.3,-0.4l0.4,-0.5l0.3,-0.4l0.3,-0.5l0.4,-0.5l0.5,-0.3l0.4,-0.3l0.5,-0.4L204,246l0.4,-0.3l0.5,-0.3l0.6,-0.2l0.4,-0.3l0.7,-0.1l0.4,-0.2l0.6,-0.2l0.6,-0.1l0.5,0l0.6,-0.2l0.6,0l357.5,0l0.5,0l0.6,0.2l0.6,0l0.6,0.1l0.5,0.2l0.6,0.2l0.4,0.1l0.6,0.3l0.5,0.2l0.6,0.3l0.5,0.3l0.4,0.3l0.5,0.4l0.5,0.3l0.3,0.5l0.4,0.3l0.5,0.5l0.3,0.4l0.3,0.5l0.3,0.4l0.1,0.6l0.3,0.5l0.4,0.6l0.1,0.5l0.2,0.6l0.1,0.4l0.2,0.7l0,0.6l0,0.6l0,0.4l0.1,44l0,0.7l-0.1,0.6l0,0.6l-0.2,0.4L578,302l-0.2,0.5l-0.1,0.6l-0.4,0.5l-0.1,0.6l-0.3,0.4l-0.3,0.5l-0.3,0.5L576,306l-0.5,0.5l-0.4,0.4l-0.3,0.3l-0.5,0.5l-0.5,0.3l-0.4,0.3l-0.5,0.3l-0.6,0.3l-0.5,0.3l-0.6,0.2l-0.4,0.1l-0.6,0.2l-0.5,0.1l-0.6,0.2l-0.6,0.1l-0.6,0l-0.5,0l-357.5,0l-0.6,0l-0.6,0L208.2,310l-0.6,-0.2l-0.6,0l-0.4,-0.1l-0.7,-0.3l-0.4,-0.2l-0.6,-0.3l-0.5,-0.1L204,308.5L203.5,308L203,307.7l-0.4,-0.3l-0.5,-0.5l-0.4,-0.4l-0.3,-0.3l-0.3,-0.6l-0.4,-0.5l-0.3,-0.5l-0.3,-0.4l-0.3,-0.6l-0.1,-0.5l-0.3,-0.6l0,-0.5l-0.2,-0.6L199.1,301l-0.2,-0.6l0,-0.6l0,-0.7l0,-44Z" class="g7_3" />
<image x="198" y="171" width="380" height="67" xlink:href="shade/3.png" />
<g clip-path="url(#c2_3)">
<path d="M198.5,237.5l380,0l0,-66l-380,0l0,66Z" class="g8_3" />
</g>
<path d="M198.9,182.4l0,-0.6l0,-0.6l0.2,-0.5l0.1,-0.6l0.2,-0.6l0,-0.4l0.3,-0.7l0.1,-0.4l0.3,-0.6l0.3,-0.5l0.3,-0.4l0.4,-0.5l0.3,-0.5l0.3,-0.4l0.4,-0.5l0.5,-0.4l0.4,-0.3l0.5,-0.3l0.5,-0.3l0.4,-0.4l0.5,-0.3l0.6,-0.3l0.4,-0.1l0.7,-0.3l0.4,0l0.6,-0.2l0.6,-0.1l0.5,-0.2l0.6,0l0.6,0l357.5,0l0.5,0l0.6,0l0.6,0.2l0.6,0.1l0.5,0.2l0.6,0.1l0.4,0.2l0.6,0.1l0.5,0.3l0.6,0.3l0.5,0.4l0.4,0.3l0.5,0.3l0.5,0.4l0.3,0.3l0.4,0.5l0.5,0.4l0.3,0.5l0.3,0.5l0.3,0.4l0.1,0.5l0.3,0.6l0.4,0.4l0.1,0.7l0.2,0.4l0.1,0.6l0.2,0.6l0,0.6l0,0.5l0,0.6l0.1,44l0,0.5l-0.1,0.6l0,0.6l-0.2,0.6l-0.1,0.5l-0.2,0.6l-0.1,0.4l-0.4,0.6l-0.1,0.5l-0.3,0.6l-0.3,0.5l-0.3,0.4l-0.3,0.5l-0.5,0.5l-0.4,0.3l-0.3,0.4l-0.5,0.5l-0.5,0.3l-0.4,0.3l-0.5,0.3l-0.6,0.1l-0.5,0.3l-0.6,0.4l-0.4,0.1l-0.6,0.2l-0.5,0.1l-0.6,0.2l-0.6,0l-0.6,0l-0.5,0l-357.5,0.1l-0.6,0l-0.6,-0.1l-0.5,0l-0.6,-0.2L207,237l-0.4,-0.2l-0.7,-0.1l-0.4,-0.4l-0.6,-0.1l-0.5,-0.3L204,235.6l-0.5,-0.3L203,235l-0.4,-0.5l-0.5,-0.3l-0.4,-0.4l-0.3,-0.5l-0.3,-0.5l-0.4,-0.4l-0.3,-0.5l-0.3,-0.6l-0.3,-0.5l-0.1,-0.6l-0.3,-0.4l0,-0.6l-0.2,-0.5l-0.1,-0.6l-0.2,-0.6l0,-0.6l0,-0.5l0,-44Z" class="g7_3" />
<image x="198" y="389" width="380" height="67" xlink:href="shade/4.png" />
<g clip-path="url(#c3_3)">
<path d="M198.5,455.5l380,0l0,-66l-380,0l0,66Z" class="g8_3" />
</g>
<path d="M198.9,400.9l0,-0.6l0,-0.6l0.2,-0.6l0.1,-0.5l0.2,-0.6l0,-0.5l0.3,-0.6l0.1,-0.4l0.3,-0.7l0.3,-0.4l0.3,-0.5l0.4,-0.4l0.3,-0.6l0.3,-0.3l0.4,-0.5l0.5,-0.5l0.4,-0.3l0.5,-0.3l0.5,-0.4l0.4,-0.3l0.5,-0.2l0.6,-0.3l0.4,-0.1l0.7,-0.4l0.4,-0.1l0.6,-0.2l0.6,0l0.5,-0.1l0.6,0l0.6,0l357.5,0l0.5,0l0.6,0l0.6,0.1l0.6,0l0.5,0.2l0.6,0.1l0.4,0.4l0.6,0.1l0.5,0.3l0.6,0.2l0.5,0.3l0.4,0.4l0.5,0.3l0.5,0.3l0.3,0.5l0.4,0.5l0.5,0.3l0.3,0.6l0.3,0.4l0.3,0.5l0.1,0.4l0.3,0.7l0.4,0.4l0.1,0.6L578,398l0.1,0.6l0.2,0.5l0,0.6l0,0.6l0,0.6l0.1,43.8l0,0.6l-0.1,0.7l0,0.6l-0.2,0.4l-0.1,0.6l-0.2,0.6l-0.1,0.5l-0.4,0.6l-0.1,0.5l-0.3,0.4l-0.3,0.6l-0.3,0.5l-0.3,0.5l-0.5,0.3l-0.4,0.4l-0.3,0.5l-0.5,0.3l-0.5,0.5l-0.4,0.3l-0.5,0.3l-0.6,0.1l-0.5,0.3l-0.6,0.2l-0.4,0.3l-0.6,0.1l-0.5,0l-0.6,0.2l-0.6,0.1l-0.6,0l-0.5,0l-357.5,0.2l0,-0.2l-0.6,0l-0.6,0l-0.5,0l-0.6,-0.1L207,455.4l-0.4,-0.1l-0.7,-0.2l-0.4,-0.3l-0.6,-0.1l-0.5,-0.3L204,454.1l-0.5,-0.3L203,453.3L202.6,453l-0.5,-0.5l-0.4,-0.3l-0.3,-0.4l-0.3,-0.5l-0.4,-0.5l-0.3,-0.6l-0.3,-0.4l-0.3,-0.5l-0.1,-0.6l-0.3,-0.5l0,-0.6L199.2,447l-0.1,-0.4L198.9,446l0,-0.7l0,-0.6l0,-43.8Z" class="g7_3" />
<image x="198" y="98" width="380" height="68" xlink:href="shade/5.png" />
<g clip-path="url(#c4_3)">
<path d="M198.5,164.5l380,0l0,-66l-380,0l0,66Z" class="g8_3" />
</g>
<path d="M198.9,109.5l0,-0.6l0,-0.4l0.2,-0.6l0.1,-0.6l0.2,-0.7l0,-0.4l0.3,-0.6l0.1,-0.5l0.3,-0.4l0.3,-0.7l0.3,-0.4l0.4,-0.5l0.3,-0.4l0.3,-0.5l0.4,-0.5l0.5,-0.3L203,101l0.5,-0.3l0.5,-0.3l0.4,-0.3l0.5,-0.3l0.6,-0.3l0.4,-0.2l0.7,-0.1L207,99l0.6,-0.2l0.6,-0.1l0.5,-0.2l0.6,0l0.6,0l357.5,0l0.5,0l0.6,0l0.6,0.2l0.6,0.1l0.5,0.2l0.6,0.2l0.4,0.1l0.6,0.2l0.5,0.3l0.6,0.3l0.5,0.3l0.4,0.3l0.5,0.3l0.5,0.4l0.3,0.3l0.4,0.5l0.5,0.5l0.3,0.4l0.3,0.5l0.3,0.4l0.1,0.7l0.3,0.4l0.4,0.5l0.1,0.6l0.2,0.4l0.1,0.7l0.2,0.6l0,0.6l0,0.4l0,0.6l0.1,44l0,0.7l-0.1,0.4l0,0.6l-0.2,0.6l-0.1,0.6l-0.2,0.5l-0.1,0.6l-0.4,0.5l-0.1,0.4l-0.3,0.6l-0.3,0.5l-0.3,0.5l-0.3,0.4l-0.5,0.5l-0.4,0.4l-0.3,0.3l-0.5,0.5l-0.5,0.3l-0.4,0.3l-0.5,0.3l-0.6,0.3l-0.5,0.2l-0.6,0.3l-0.4,0.1l-0.6,0.2l-0.5,0.1l-0.6,0.2l-0.6,0l-0.6,0.1l-0.5,0l-357.5,0l-0.6,0l-0.6,0l-0.5,-0.1l-0.6,-0.2L207,164.1l-0.4,-0.2l-0.7,-0.1l-0.4,-0.2l-0.6,-0.3L204.4,163L204,162.7l-0.5,-0.3L203,162.1l-0.4,-0.5l-0.5,-0.3l-0.4,-0.4l-0.3,-0.5L201.1,160l-0.4,-0.5L200.4,159l-0.3,-0.6L199.8,158l-0.1,-0.5l-0.3,-0.6l0,-0.5l-0.2,-0.6l-0.1,-0.6l-0.2,-0.4l0,-0.6l0,-0.7l0,-44Z" class="g7_3" />
<image x="198" y="316" width="380" height="68" xlink:href="shade/6.png" />
<g clip-path="url(#c5_3)">
<path d="M198.5,383.5l380,0l0,-66l-380,0l0,66Z" class="g8_3" />
</g>
<path d="M198.9,328l0,-0.6l0,-0.6l0.2,-0.5l0.1,-0.6l0.2,-0.6l0,-0.4l0.3,-0.7l0.1,-0.4l0.3,-0.6l0.3,-0.5l0.3,-0.4l0.4,-0.5l0.3,-0.5l0.3,-0.4l0.4,-0.5l0.5,-0.4l0.4,-0.3l0.5,-0.3l0.5,-0.4l0.4,-0.3l0.5,-0.3l0.6,-0.3l0.4,-0.1l0.7,-0.3l0.4,0l0.6,-0.2l0.6,-0.1l0.5,-0.2l0.6,0l0.6,0l357.5,0l0.5,0l0.6,0l0.6,0.2l0.6,0.1l0.5,0.2l0.6,0.1l0.4,0.2l0.6,0.1l0.5,0.3l0.6,0.3l0.5,0.3l0.4,0.4l0.5,0.3l0.5,0.4l0.3,0.3l0.4,0.5l0.5,0.4l0.3,0.5l0.3,0.5l0.3,0.4L577,323l0.3,0.6l0.4,0.4l0.1,0.7l0.2,0.4l0.1,0.6l0.2,0.6l0,0.6l0,0.5l0,0.6l0.1,44l0,0.5l-0.1,0.6l0,0.6l-0.2,0.6l-0.1,0.5l-0.2,0.6l-0.1,0.4l-0.4,0.6l-0.1,0.5l-0.3,0.6l-0.3,0.5l-0.3,0.4l-0.3,0.5l-0.5,0.4l-0.4,0.4l-0.3,0.4l-0.5,0.5l-0.5,0.3l-0.4,0.3l-0.5,0.3l-0.6,0.1l-0.5,0.3l-0.6,0.4l-0.4,0.1l-0.6,0.2l-0.5,0.1l-0.6,0.2l-0.6,0l-0.6,0l-0.5,0L209.9,383l-0.6,0l-0.6,-0.1l-0.5,0l-0.6,-0.2L207,382.6l-0.4,-0.2l-0.7,-0.1l-0.4,-0.4l-0.6,-0.1l-0.5,-0.3L204,381.2l-0.5,-0.3L203,380.6l-0.4,-0.5l-0.5,-0.3l-0.4,-0.5l-0.3,-0.4l-0.3,-0.5L200.7,378l-0.3,-0.5l-0.3,-0.6l-0.3,-0.5l-0.1,-0.6l-0.3,-0.4l0,-0.6l-0.2,-0.5l-0.1,-0.6l-0.2,-0.6l0,-0.6l0,-0.5l0,-44Z" class="g7_3" />
</svg>