<?xml version="1.0" encoding="UTF-8" standalone="no"?>
<!DOCTYPE svg PUBLIC "-//W3C//DTD SVG 1.1//EN"
"http://www.w3.org/Graphics/SVG/1.1/DTD/svg11.dtd">
<svg viewBox="0 0 1155 1210" version="1.1" xmlns="http://www.w3.org/2000/svg" xmlns:xlink="http://www.w3.org/1999/xlink">
<defs>
<clipPath id="c0_60"><path d="M0.5,1210.5L0.5,0.5l1155,0l0,1210Z" /></clipPath>
<style type="text/css"><![CDATA[
.g1_60{
fill: #FFFFFF;
}
]]></style>
</defs>
<path fill-rule="evenodd" d="M0,0L1155,0l0,1210L0,1210L0,0Z" class="g1_60" />
<path fill-rule="evenodd" d="M0,0L1155,0l0,1210L0,1210L0,0Z" class="g1_60" />
<image x="790" y="1140" width="319" height="55" xlink:href="img/1.png" />
<g clip-path="url(#c0_60)">
<g fill="#626262" >
<use xlink:href="#f0_q" transform="matrix(12,0,0,12,47.7,32.1)" />
<use xlink:href="#f1_15" transform="matrix(12,0,0,12,73.9,33.2)" />
<use xlink:href="#f1_7" transform="matrix(12,0,0,12,86.8,33.2)" />
<use xlink:href="#f1_4" transform="matrix(12,0,0,12,97.9,33.2)" />
<use xlink:href="#f1_g" transform="matrix(12,0,0,12,109.5,33.2)" />
<use xlink:href="#f1_d" transform="matrix(12,0,0,12,119,33.2)" />
<use xlink:href="#f1_h" transform="matrix(12,0,0,12,124.2,33.2)" />
<use xlink:href="#f1_b" transform="matrix(12,0,0,12,135.9,33.2)" />
<use xlink:href="#f1_l" transform="matrix(12,0,0,12,147.2,33.2)" />
<use xlink:href="#f1_24" transform="matrix(12,0,0,12,160.8,33.2)" />
<use xlink:href="#f1_i" transform="matrix(12,0,0,12,165.8,33.2)" />
<use xlink:href="#f1_g" transform="matrix(12,0,0,12,177.4,33.2)" />
<use xlink:href="#f1_b" transform="matrix(12,0,0,12,186.9,33.2)" />
<use xlink:href="#f1_l" transform="matrix(12,0,0,12,198.3,33.2)" />
<use xlink:href="#f1_g" transform="matrix(12,0,0,12,205.9,33.2)" />
<use xlink:href="#f1_24" transform="matrix(12,0,0,12,215.4,33.2)" />
<use xlink:href="#f1_c" transform="matrix(12,0,0,12,226.4,33.2)" />
<use xlink:href="#f1_k" transform="matrix(12,0,0,12,233.6,33.2)" />
<use xlink:href="#f1_m" transform="matrix(12,0,0,12,245,33.2)" />
<use xlink:href="#f1_a" transform="matrix(12,0,0,12,256.5,33.2)" />
<use xlink:href="#f1_b" transform="matrix(12,0,0,12,261.7,33.2)" />
<use xlink:href="#f1_k" transform="matrix(12,0,0,12,278.9,33.2)" />
<use xlink:href="#f1_a" transform="matrix(12,0,0,12,290.2,33.2)" />
<use xlink:href="#f1_l" transform="matrix(12,0,0,12,295.4,33.2)" />
<use xlink:href="#f1_b" transform="matrix(12,0,0,12,302.4,33.2)" />
<use xlink:href="#f1_k" transform="matrix(12,0,0,12,313.8,33.2)" />
<use xlink:href="#f1_h" transform="matrix(12,0,0,12,325.1,33.2)" />
<use xlink:href="#f1_r" transform="matrix(12,0,0,12,336.9,33.2)" />
<use xlink:href="#f1_6" transform="matrix(12,0,0,12,353.5,33.2)" />
<use xlink:href="#f1_l" transform="matrix(12,0,0,12,363.7,33.2)" />
<use xlink:href="#f1_b" transform="matrix(12,0,0,12,370.9,33.2)" />
<use xlink:href="#f1_k" transform="matrix(12,0,0,12,382.3,33.2)" />
<use xlink:href="#f1_c" transform="matrix(12,0,0,12,393.6,33.2)" />
<use xlink:href="#f1_b" transform="matrix(12,0,0,12,400.8,33.2)" />
<use xlink:href="#f1_h" transform="matrix(12,0,0,12,412.1,33.2)" />
<use xlink:href="#f1_1c" transform="matrix(12,0,0,12,423.9,33.2)" />
<use xlink:href="#f1_u" transform="matrix(12,0,0,12,435.6,33.2)" />
<use xlink:href="#f1_c" transform="matrix(12,0,0,12,441,33.2)" />
<use xlink:href="#f1_f" transform="matrix(12,0,0,12,454,33.2)" />
<use xlink:href="#f1_k" transform="matrix(12,0,0,12,465.6,33.2)" />
<use xlink:href="#f1_g" transform="matrix(12,0,0,12,476.9,33.2)" />
<use xlink:href="#f1_e" transform="matrix(12,0,0,12,492.3,33.2)" />
<use xlink:href="#f1_7" transform="matrix(12,0,0,12,498.7,33.2)" />
<use xlink:href="#f1_a" transform="matrix(12,0,0,12,509.9,33.2)" />
<use xlink:href="#f1_a" transform="matrix(12,0,0,12,515,33.2)" />
<use xlink:href="#f1_7" transform="matrix(12,0,0,12,520.1,33.2)" />
<use xlink:href="#f1_12" transform="matrix(12,0,0,12,531.2,33.2)" />
<use xlink:href="#f1_d" transform="matrix(12,0,0,12,546.3,33.2)" />
<use xlink:href="#f1_4" transform="matrix(12,0,0,12,551.4,33.2)" />
<use xlink:href="#f1_x" transform="matrix(12,0,0,12,563,33.2)" />
<use xlink:href="#f1_h" transform="matrix(12,0,0,12,580.5,33.2)" />
<use xlink:href="#f1_k" transform="matrix(12,0,0,12,592.3,33.2)" />
<use xlink:href="#f1_c" transform="matrix(12,0,0,12,603.6,33.2)" />
<use xlink:href="#f1_k" transform="matrix(12,0,0,12,610.8,33.2)" />
<use xlink:href="#f1_n" transform="matrix(12,0,0,12,622.1,33.2)" />
<use xlink:href="#f1_1g" transform="matrix(12,0,0,12,47.7,328.3)" />
<use xlink:href="#f1_f" transform="matrix(12,0,0,12,59,328.3)" />
<use xlink:href="#f1_b" transform="matrix(12,0,0,12,70.6,328.3)" />
<use xlink:href="#f1_l" transform="matrix(12,0,0,12,82,328.3)" />
<use xlink:href="#f1_b" transform="matrix(12,0,0,12,89,328.3)" />
<use xlink:href="#f1_d" transform="matrix(12,0,0,12,106.3,328.3)" />
<use xlink:href="#f1_g" transform="matrix(12,0,0,12,111.4,328.3)" />
<use xlink:href="#f1_k" transform="matrix(12,0,0,12,126.9,328.3)" />
<use xlink:href="#f1_l" transform="matrix(12,0,0,12,144,328.3)" />
<use xlink:href="#f1_b" transform="matrix(12,0,0,12,151.2,328.3)" />
<use xlink:href="#f1_13" transform="matrix(12,0,0,12,162.5,328.3)" />
<use xlink:href="#f1_i" transform="matrix(12,0,0,12,174.2,328.3)" />
<use xlink:href="#f1_d" transform="matrix(12,0,0,12,185.8,328.3)" />
<use xlink:href="#f1_l" transform="matrix(12,0,0,12,190.9,328.3)" />
<use xlink:href="#f1_b" transform="matrix(12,0,0,12,198,328.3)" />
<use xlink:href="#f1_8" transform="matrix(12,0,0,12,209.5,328.3)" />
<use xlink:href="#f1_b" transform="matrix(12,0,0,12,227.2,328.3)" />
<use xlink:href="#f1_4" transform="matrix(12,0,0,12,238.5,328.3)" />
<use xlink:href="#f1_c" transform="matrix(12,0,0,12,250.1,328.3)" />
<use xlink:href="#f1_c" transform="matrix(12,0,0,12,263.1,328.3)" />
<use xlink:href="#f1_7" transform="matrix(12,0,0,12,270.3,328.3)" />
<use xlink:href="#f1_h" transform="matrix(12,0,0,12,287.4,328.3)" />
<use xlink:href="#f1_b" transform="matrix(12,0,0,12,299,328.3)" />
<use xlink:href="#f1_a" transform="matrix(12,0,0,12,310.4,328.3)" />
<use xlink:href="#f1_b" transform="matrix(12,0,0,12,315.5,328.3)" />
<use xlink:href="#f1_c" transform="matrix(12,0,0,12,326.9,328.3)" />
<use xlink:href="#f1_b" transform="matrix(12,0,0,12,334.1,328.3)" />
<use xlink:href="#f1_c" transform="matrix(12,0,0,12,351.3,328.3)" />
<use xlink:href="#f1_f" transform="matrix(12,0,0,12,358.3,328.3)" />
<use xlink:href="#f1_b" transform="matrix(12,0,0,12,369.9,328.3)" />
<use xlink:href="#f1_l" transform="matrix(12,0,0,12,387.2,328.3)" />
<use xlink:href="#f1_b" transform="matrix(12,0,0,12,394.2,328.3)" />
<use xlink:href="#f1_6" transform="matrix(12,0,0,12,405.6,328.3)" />
<use xlink:href="#f1_7" transform="matrix(12,0,0,12,415.9,328.3)" />
<use xlink:href="#f1_l" transform="matrix(12,0,0,12,427,328.3)" />
<use xlink:href="#f1_h" transform="matrix(12,0,0,12,434.3,328.3)" />
<use xlink:href="#f1_7" transform="matrix(12,0,0,12,452,328.3)" />
<use xlink:href="#f1_e" transform="matrix(12,0,0,12,463.2,328.3)" />
<use xlink:href="#f1_i" transform="matrix(12,0,0,12,475.4,328.3)" />
<use xlink:href="#f1_g" transform="matrix(12,0,0,12,487,328.3)" />
<use xlink:href="#f1_b" transform="matrix(12,0,0,12,496.5,328.3)" />
<use xlink:href="#f1_l" transform="matrix(12,0,0,12,507.8,328.3)" />
<use xlink:href="#f1_12" transform="matrix(12,0,0,12,521.4,328.3)" />
<use xlink:href="#f1_d" transform="matrix(12,0,0,12,536.5,328.3)" />
<use xlink:href="#f1_c" transform="matrix(12,0,0,12,541.5,328.3)" />
<use xlink:href="#f1_f" transform="matrix(12,0,0,12,548.7,328.3)" />
<use xlink:href="#f1_24" transform="matrix(12,0,0,12,566.1,328.3)" />
<use xlink:href="#f1_i" transform="matrix(12,0,0,12,571.3,328.3)" />
<use xlink:href="#f1_g" transform="matrix(12,0,0,12,582.7,328.3)" />
<use xlink:href="#f1_b" transform="matrix(12,0,0,12,592.3,328.3)" />
<use xlink:href="#f1_l" transform="matrix(12,0,0,12,603.6,328.3)" />
<use xlink:href="#f1_d" transform="matrix(12,0,0,12,611.4,328.3)" />
<use xlink:href="#f1_h" transform="matrix(12,0,0,12,616.5,328.3)" />
<use xlink:href="#f1_24" transform="matrix(12,0,0,12,628.2,328.3)" />
<use xlink:href="#f1_t" transform="matrix(12,0,0,12,639.2,328.3)" />
<use xlink:href="#f1_1c" transform="matrix(12,0,0,12,650.6,328.3)" />
<use xlink:href="#f0_q" transform="matrix(12,0,0,12,47.7,386.2)" />
<use xlink:href="#f1_1g" transform="matrix(12,0,0,12,73.9,387.4)" />
<use xlink:href="#f1_l" transform="matrix(12,0,0,12,82.5,387.4)" />
<use xlink:href="#f1_r" transform="matrix(12,0,0,12,90.3,387.4)" />
<use xlink:href="#f1_c" transform="matrix(12,0,0,12,106.9,387.4)" />
<use xlink:href="#f1_7" transform="matrix(12,0,0,12,114.1,387.4)" />
<use xlink:href="#f1_8" transform="matrix(12,0,0,12,131.1,387.4)" />
<use xlink:href="#f1_b" transform="matrix(12,0,0,12,148.9,387.4)" />
<use xlink:href="#f1_4" transform="matrix(12,0,0,12,160.2,387.4)" />
<use xlink:href="#f1_c" transform="matrix(12,0,0,12,171.8,387.4)" />
<use xlink:href="#f1_d" transform="matrix(12,0,0,12,179,387.4)" />
<use xlink:href="#f1_7" transform="matrix(12,0,0,12,184.1,387.4)" />
<use xlink:href="#f1_4" transform="matrix(12,0,0,12,195.2,387.4)" />
<use xlink:href="#f1_d" transform="matrix(12,0,0,12,212.6,387.4)" />
<use xlink:href="#f1_4" transform="matrix(12,0,0,12,217.8,387.4)" />
<use xlink:href="#f1_6" transform="matrix(12,0,0,12,229.4,387.4)" />
<use xlink:href="#f1_7" transform="matrix(12,0,0,12,239.6,387.4)" />
<use xlink:href="#f1_l" transform="matrix(12,0,0,12,250.8,387.4)" />
<use xlink:href="#f1_l" transform="matrix(12,0,0,12,258.1,387.4)" />
<use xlink:href="#f1_b" transform="matrix(12,0,0,12,265.3,387.4)" />
<use xlink:href="#f1_6" transform="matrix(12,0,0,12,276.6,387.4)" />
<use xlink:href="#f1_c" transform="matrix(12,0,0,12,286.8,387.4)" />
<use xlink:href="#f1_6" transform="matrix(12,0,0,12,299.9,387.4)" />
<use xlink:href="#f1_7" transform="matrix(12,0,0,12,310.1,387.4)" />
<use xlink:href="#f1_a" transform="matrix(12,0,0,12,321.3,387.4)" />
<use xlink:href="#f1_i" transform="matrix(12,0,0,12,326.4,387.4)" />
<use xlink:href="#f1_8" transform="matrix(12,0,0,12,337.9,387.4)" />
<use xlink:href="#f1_4" transform="matrix(12,0,0,12,355.7,387.4)" />
<use xlink:href="#f1_4" transform="matrix(12,0,0,12,373,387.4)" />
<use xlink:href="#f1_k" transform="matrix(12,0,0,12,384.6,387.4)" />
<use xlink:href="#f1_8" transform="matrix(12,0,0,12,395.9,387.4)" />
<use xlink:href="#f1_b" transform="matrix(12,0,0,12,413.8,387.4)" />
<use xlink:href="#f1_1i" transform="matrix(12,0,0,12,425.1,387.4)" />
<use xlink:href="#f1_b" transform="matrix(12,0,0,12,432.2,387.4)" />
<use xlink:href="#f1_1c" transform="matrix(12,0,0,12,443.7,387.4)" />
<use xlink:href="#f1_x" transform="matrix(12,0,0,12,449.5,387.4)" />
<use xlink:href="#f1_1c" transform="matrix(12,0,0,12,461.2,387.4)" />
<use xlink:href="#f1_i" transform="matrix(12,0,0,12,472.9,387.4)" />
<use xlink:href="#f1_g" transform="matrix(12,0,0,12,484.5,387.4)" />
<use xlink:href="#f1_b" transform="matrix(12,0,0,12,493.9,387.4)" />
<use xlink:href="#f1_l" transform="matrix(12,0,0,12,505.4,387.4)" />
<use xlink:href="#f1_w" transform="matrix(12,0,0,12,513,387.4)" />
<use xlink:href="#f1_d" transform="matrix(12,0,0,12,522.2,387.4)" />
<use xlink:href="#f1_h" transform="matrix(12,0,0,12,527.3,387.4)" />
<use xlink:href="#f1_o" transform="matrix(12,0,0,12,539.1,387.4)" />
<use xlink:href="#f1_k" transform="matrix(12,0,0,12,552.1,387.4)" />
<use xlink:href="#f1_4" transform="matrix(12,0,0,12,563.4,387.4)" />
<use xlink:href="#f1_h" transform="matrix(12,0,0,12,575,387.4)" />
<use xlink:href="#f1_7" transform="matrix(12,0,0,12,592.5,387.4)" />
<use xlink:href="#f1_m" transform="matrix(12,0,0,12,603.7,387.4)" />
<use xlink:href="#f1_g" transform="matrix(12,0,0,12,615.3,387.4)" />
<use xlink:href="#f1_b" transform="matrix(12,0,0,12,624.8,387.4)" />
<use xlink:href="#f1_l" transform="matrix(12,0,0,12,636.2,387.4)" />
<use xlink:href="#f1_q" transform="matrix(12,0,0,12,643.8,387.4)" />
<use xlink:href="#f1_b" transform="matrix(12,0,0,12,654.7,387.4)" />
<use xlink:href="#f1_c" transform="matrix(12,0,0,12,671.9,387.4)" />
<use xlink:href="#f1_f" transform="matrix(12,0,0,12,679.1,387.4)" />
<use xlink:href="#f1_b" transform="matrix(12,0,0,12,690.5,387.4)" />
<use xlink:href="#f1_b" transform="matrix(12,0,0,12,707.8,387.4)" />
<use xlink:href="#f1_l" transform="matrix(12,0,0,12,719.1,387.4)" />
<use xlink:href="#f1_l" transform="matrix(12,0,0,12,726.4,387.4)" />
<use xlink:href="#f1_7" transform="matrix(12,0,0,12,733.6,387.4)" />
<use xlink:href="#f1_l" transform="matrix(12,0,0,12,744.8,387.4)" />
<use xlink:href="#f1_1c" transform="matrix(12,0,0,12,750.7,387.4)" />
<use xlink:href="#f0_q" transform="matrix(12,0,0,12,47.7,445.3)" />
<use xlink:href="#f1_p" transform="matrix(12,0,0,12,73.9,446.4)" />
<use xlink:href="#f1_g" transform="matrix(12,0,0,12,87.2,446.4)" />
<use xlink:href="#f1_b" transform="matrix(12,0,0,12,96.8,446.4)" />
<use xlink:href="#f1_b" transform="matrix(12,0,0,12,114.1,446.4)" />
<use xlink:href="#f1_v" transform="matrix(12,0,0,12,125.1,446.4)" />
<use xlink:href="#f1_6" transform="matrix(12,0,0,12,135.5,446.4)" />
<use xlink:href="#f1_b" transform="matrix(12,0,0,12,145.7,446.4)" />
<use xlink:href="#f1_9" transform="matrix(12,0,0,12,157.1,446.4)" />
<use xlink:href="#f1_c" transform="matrix(12,0,0,12,168.6,446.4)" />
<use xlink:href="#f1_d" transform="matrix(12,0,0,12,175.8,446.4)" />
<use xlink:href="#f1_7" transform="matrix(12,0,0,12,180.9,446.4)" />
<use xlink:href="#f1_4" transform="matrix(12,0,0,12,192.1,446.4)" />
<use xlink:href="#f1_f" transform="matrix(12,0,0,12,209.5,446.4)" />
<use xlink:href="#f1_k" transform="matrix(12,0,0,12,220.9,446.4)" />
<use xlink:href="#f1_4" transform="matrix(12,0,0,12,232.4,446.4)" />
<use xlink:href="#f1_h" transform="matrix(12,0,0,12,244,446.4)" />
<use xlink:href="#f1_a" transform="matrix(12,0,0,12,255.6,446.4)" />
<use xlink:href="#f1_d" transform="matrix(12,0,0,12,260.8,446.4)" />
<use xlink:href="#f1_4" transform="matrix(12,0,0,12,265.9,446.4)" />
<use xlink:href="#f1_x" transform="matrix(12,0,0,12,277.4,446.4)" />
<use xlink:href="#f1_c" transform="matrix(12,0,0,12,295,446.4)" />
<use xlink:href="#f1_7" transform="matrix(12,0,0,12,302.1,446.4)" />
<use xlink:href="#f1_f" transform="matrix(12,0,0,12,319.2,446.4)" />
<use xlink:href="#f1_k" transform="matrix(12,0,0,12,330.7,446.4)" />
<use xlink:href="#f1_4" transform="matrix(12,0,0,12,342.1,446.4)" />
<use xlink:href="#f1_h" transform="matrix(12,0,0,12,353.6,446.4)" />
<use xlink:href="#f1_a" transform="matrix(12,0,0,12,365.3,446.4)" />
<use xlink:href="#f1_b" transform="matrix(12,0,0,12,370.5,446.4)" />
<use xlink:href="#f1_c" transform="matrix(12,0,0,12,387.7,446.4)" />
<use xlink:href="#f1_f" transform="matrix(12,0,0,12,394.8,446.4)" />
<use xlink:href="#f1_b" transform="matrix(12,0,0,12,406.4,446.4)" />
<use xlink:href="#f1_b" transform="matrix(12,0,0,12,423.6,446.4)" />
<use xlink:href="#f1_v" transform="matrix(12,0,0,12,434.6,446.4)" />
<use xlink:href="#f1_6" transform="matrix(12,0,0,12,445,446.4)" />
<use xlink:href="#f1_b" transform="matrix(12,0,0,12,455.2,446.4)" />
<use xlink:href="#f1_9" transform="matrix(12,0,0,12,466.6,446.4)" />
<use xlink:href="#f1_c" transform="matrix(12,0,0,12,478.1,446.4)" />
<use xlink:href="#f1_d" transform="matrix(12,0,0,12,485.3,446.4)" />
<use xlink:href="#f1_7" transform="matrix(12,0,0,12,490.5,446.4)" />
<use xlink:href="#f1_4" transform="matrix(12,0,0,12,501.6,446.4)" />
<use xlink:href="#f1_k" transform="matrix(12,0,0,12,519,446.4)" />
<use xlink:href="#f1_9" transform="matrix(12,0,0,12,530.3,446.4)" />
<use xlink:href="#f1_9" transform="matrix(12,0,0,12,541.9,446.4)" />
<use xlink:href="#f1_l" transform="matrix(12,0,0,12,553.5,446.4)" />
<use xlink:href="#f1_7" transform="matrix(12,0,0,12,560.5,446.4)" />
<use xlink:href="#f1_9" transform="matrix(12,0,0,12,571.7,446.4)" />
<use xlink:href="#f1_l" transform="matrix(12,0,0,12,583.3,446.4)" />
<use xlink:href="#f1_d" transform="matrix(12,0,0,12,591.1,446.4)" />
<use xlink:href="#f1_k" transform="matrix(12,0,0,12,596.1,446.4)" />
<use xlink:href="#f1_c" transform="matrix(12,0,0,12,607.6,446.4)" />
<use xlink:href="#f1_b" transform="matrix(12,0,0,12,614.6,446.4)" />
<use xlink:href="#f1_a" transform="matrix(12,0,0,12,626,446.4)" />
<use xlink:href="#f1_r" transform="matrix(12,0,0,12,631.1,446.4)" />
<use xlink:href="#f1_1c" transform="matrix(12,0,0,12,639.2,446.4)" />
<use xlink:href="#f1_16" transform="matrix(12,0,0,12,650.9,446.4)" />
<use xlink:href="#f1_d" transform="matrix(12,0,0,12,665,446.4)" />
<use xlink:href="#f1_g" transform="matrix(12,0,0,12,670.1,446.4)" />
<use xlink:href="#f1_9" transform="matrix(12,0,0,12,679.6,446.4)" />
<use xlink:href="#f1_a" transform="matrix(12,0,0,12,691.2,446.4)" />
<use xlink:href="#f1_k" transform="matrix(12,0,0,12,696.4,446.4)" />
<use xlink:href="#f1_r" transform="matrix(12,0,0,12,707.7,446.4)" />
<use xlink:href="#f1_c" transform="matrix(12,0,0,12,724.3,446.4)" />
<use xlink:href="#f1_f" transform="matrix(12,0,0,12,731.5,446.4)" />
<use xlink:href="#f1_b" transform="matrix(12,0,0,12,743,446.4)" />
<use xlink:href="#f1_b" transform="matrix(12,0,0,12,760.2,446.4)" />
<use xlink:href="#f1_l" transform="matrix(12,0,0,12,771.7,446.4)" />
<use xlink:href="#f1_l" transform="matrix(12,0,0,12,779,446.4)" />
<use xlink:href="#f1_7" transform="matrix(12,0,0,12,786,446.4)" />
<use xlink:href="#f1_l" transform="matrix(12,0,0,12,797.3,446.4)" />
<use xlink:href="#f1_6" transform="matrix(12,0,0,12,810.9,446.4)" />
<use xlink:href="#f1_7" transform="matrix(12,0,0,12,821.1,446.4)" />
<use xlink:href="#f1_h" transform="matrix(12,0,0,12,832.2,446.4)" />
<use xlink:href="#f1_b" transform="matrix(12,0,0,12,844,446.4)" />
<use xlink:href="#f1_k" transform="matrix(12,0,0,12,861.2,446.4)" />
<use xlink:href="#f1_4" transform="matrix(12,0,0,12,872.5,446.4)" />
<use xlink:href="#f1_h" transform="matrix(12,0,0,12,884,446.4)" />
<use xlink:href="#f1_8" transform="matrix(12,0,0,12,901.7,446.4)" />
<use xlink:href="#f1_b" transform="matrix(12,0,0,12,919.4,446.4)" />
<use xlink:href="#f1_g" transform="matrix(12,0,0,12,930.8,446.4)" />
<use xlink:href="#f1_g" transform="matrix(12,0,0,12,940.3,446.4)" />
<use xlink:href="#f1_k" transform="matrix(12,0,0,12,949.8,446.4)" />
<use xlink:href="#f1_x" transform="matrix(12,0,0,12,961.2,446.4)" />
<use xlink:href="#f1_b" transform="matrix(12,0,0,12,972.8,446.4)" />
<use xlink:href="#f1_1c" transform="matrix(12,0,0,12,984.3,446.4)" />
<use xlink:href="#f0_q" transform="matrix(12,0,0,12,47.7,504.3)" />
<use xlink:href="#f1_1g" transform="matrix(12,0,0,12,73.9,505.4)" />
<use xlink:href="#f1_l" transform="matrix(12,0,0,12,82.5,505.4)" />
<use xlink:href="#f1_r" transform="matrix(12,0,0,12,90.3,505.4)" />
<use xlink:href="#f1_c" transform="matrix(12,0,0,12,106.9,505.4)" />
<use xlink:href="#f1_7" transform="matrix(12,0,0,12,114.1,505.4)" />
<use xlink:href="#f1_x" transform="matrix(12,0,0,12,131.1,505.4)" />
<use xlink:href="#f1_d" transform="matrix(12,0,0,12,142.8,505.4)" />
<use xlink:href="#f1_q" transform="matrix(12,0,0,12,148,505.4)" />
<use xlink:href="#f1_b" transform="matrix(12,0,0,12,158.7,505.4)" />
<use xlink:href="#f1_d" transform="matrix(12,0,0,12,175.9,505.4)" />
<use xlink:href="#f1_4" transform="matrix(12,0,0,12,181.1,505.4)" />
<use xlink:href="#f1_6" transform="matrix(12,0,0,12,192.6,505.4)" />
<use xlink:href="#f1_7" transform="matrix(12,0,0,12,202.9,505.4)" />
<use xlink:href="#f1_l" transform="matrix(12,0,0,12,214.1,505.4)" />
<use xlink:href="#f1_l" transform="matrix(12,0,0,12,221.4,505.4)" />
<use xlink:href="#f1_b" transform="matrix(12,0,0,12,228.6,505.4)" />
<use xlink:href="#f1_6" transform="matrix(12,0,0,12,239.9,505.4)" />
<use xlink:href="#f1_c" transform="matrix(12,0,0,12,250.1,505.4)" />
<use xlink:href="#f1_i" transform="matrix(12,0,0,12,263.1,505.4)" />
<use xlink:href="#f1_g" transform="matrix(12,0,0,12,274.7,505.4)" />
<use xlink:href="#f1_b" transform="matrix(12,0,0,12,284.3,505.4)" />
<use xlink:href="#f1_l" transform="matrix(12,0,0,12,295.6,505.4)" />
<use xlink:href="#f1_4" transform="matrix(12,0,0,12,302.9,505.4)" />
<use xlink:href="#f1_k" transform="matrix(12,0,0,12,314.4,505.4)" />
<use xlink:href="#f1_8" transform="matrix(12,0,0,12,325.8,505.4)" />
<use xlink:href="#f1_b" transform="matrix(12,0,0,12,343.6,505.4)" />
<use xlink:href="#f1_e" transform="matrix(12,0,0,12,360.8,505.4)" />
<use xlink:href="#f1_7" transform="matrix(12,0,0,12,367.2,505.4)" />
<use xlink:href="#f1_l" transform="matrix(12,0,0,12,378.4,505.4)" />
<use xlink:href="#f1_6" transform="matrix(12,0,0,12,392,505.4)" />
<use xlink:href="#f1_7" transform="matrix(12,0,0,12,402.2,505.4)" />
<use xlink:href="#f1_4" transform="matrix(12,0,0,12,413.3,505.4)" />
<use xlink:href="#f1_4" transform="matrix(12,0,0,12,424.9,505.4)" />
<use xlink:href="#f1_b" transform="matrix(12,0,0,12,436.5,505.4)" />
<use xlink:href="#f1_6" transform="matrix(12,0,0,12,447.8,505.4)" />
<use xlink:href="#f1_c" transform="matrix(12,0,0,12,458,505.4)" />
<use xlink:href="#f1_d" transform="matrix(12,0,0,12,465.2,505.4)" />
<use xlink:href="#f1_7" transform="matrix(12,0,0,12,470.4,505.4)" />
<use xlink:href="#f1_4" transform="matrix(12,0,0,12,481.5,505.4)" />
<use xlink:href="#f1_g" transform="matrix(12,0,0,12,499,505.4)" />
<use xlink:href="#f1_c" transform="matrix(12,0,0,12,508.4,505.4)" />
<use xlink:href="#f1_l" transform="matrix(12,0,0,12,515.6,505.4)" />
<use xlink:href="#f1_d" transform="matrix(12,0,0,12,523.3,505.4)" />
<use xlink:href="#f1_4" transform="matrix(12,0,0,12,528.4,505.4)" />
<use xlink:href="#f1_x" transform="matrix(12,0,0,12,540,505.4)" />
<use xlink:href="#f1_k" transform="matrix(12,0,0,12,557.6,505.4)" />
<use xlink:href="#f1_4" transform="matrix(12,0,0,12,568.9,505.4)" />
<use xlink:href="#f1_h" transform="matrix(12,0,0,12,580.5,505.4)" />
<use xlink:href="#f1_7" transform="matrix(12,0,0,12,598.1,505.4)" />
<use xlink:href="#f1_m" transform="matrix(12,0,0,12,609.2,505.4)" />
<use xlink:href="#f1_g" transform="matrix(12,0,0,12,620.8,505.4)" />
<use xlink:href="#f1_b" transform="matrix(12,0,0,12,630.3,505.4)" />
<use xlink:href="#f1_l" transform="matrix(12,0,0,12,641.7,505.4)" />
<use xlink:href="#f1_q" transform="matrix(12,0,0,12,649.4,505.4)" />
<use xlink:href="#f1_b" transform="matrix(12,0,0,12,660.2,505.4)" />
<use xlink:href="#f1_c" transform="matrix(12,0,0,12,677.4,505.4)" />
<use xlink:href="#f1_f" transform="matrix(12,0,0,12,684.6,505.4)" />
<use xlink:href="#f1_b" transform="matrix(12,0,0,12,696.1,505.4)" />
<use xlink:href="#f1_b" transform="matrix(12,0,0,12,713.3,505.4)" />
<use xlink:href="#f1_l" transform="matrix(12,0,0,12,724.6,505.4)" />
<use xlink:href="#f1_l" transform="matrix(12,0,0,12,731.9,505.4)" />
<use xlink:href="#f1_7" transform="matrix(12,0,0,12,739.1,505.4)" />
<use xlink:href="#f1_l" transform="matrix(12,0,0,12,750.3,505.4)" />
<use xlink:href="#f1_6" transform="matrix(12,0,0,12,763.9,505.4)" />
<use xlink:href="#f1_7" transform="matrix(12,0,0,12,774.1,505.4)" />
<use xlink:href="#f1_h" transform="matrix(12,0,0,12,785.2,505.4)" />
<use xlink:href="#f1_b" transform="matrix(12,0,0,12,797,505.4)" />
<use xlink:href="#f1_k" transform="matrix(12,0,0,12,814.2,505.4)" />
<use xlink:href="#f1_4" transform="matrix(12,0,0,12,825.5,505.4)" />
<use xlink:href="#f1_h" transform="matrix(12,0,0,12,837.1,505.4)" />
<use xlink:href="#f1_8" transform="matrix(12,0,0,12,854.7,505.4)" />
<use xlink:href="#f1_b" transform="matrix(12,0,0,12,872.5,505.4)" />
<use xlink:href="#f1_g" transform="matrix(12,0,0,12,883.8,505.4)" />
<use xlink:href="#f1_g" transform="matrix(12,0,0,12,893.4,505.4)" />
<use xlink:href="#f1_k" transform="matrix(12,0,0,12,902.9,505.4)" />
<use xlink:href="#f1_x" transform="matrix(12,0,0,12,914.2,505.4)" />
<use xlink:href="#f1_b" transform="matrix(12,0,0,12,926,505.4)" />
<use xlink:href="#f1_1c" transform="matrix(12,0,0,12,937.4,505.4)" />
<use xlink:href="#f0_q" transform="matrix(12,0,0,12,47.7,563.3)" />
<use xlink:href="#f1_s" transform="matrix(12,0,0,12,73.9,564.5)" />
<use xlink:href="#f1_l" transform="matrix(12,0,0,12,84.6,564.5)" />
<use xlink:href="#f1_7" transform="matrix(12,0,0,12,91.7,564.5)" />
<use xlink:href="#f1_q" transform="matrix(12,0,0,12,102.9,564.5)" />
<use xlink:href="#f1_d" transform="matrix(12,0,0,12,113.6,564.5)" />
<use xlink:href="#f1_h" transform="matrix(12,0,0,12,118.8,564.5)" />
<use xlink:href="#f1_b" transform="matrix(12,0,0,12,130.6,564.5)" />
<use xlink:href="#f1_k" transform="matrix(12,0,0,12,147.7,564.5)" />
<use xlink:href="#f1_12" transform="matrix(12,0,0,12,164.9,564.5)" />
<use xlink:href="#f1_l" transform="matrix(12,0,0,12,180,564.5)" />
<use xlink:href="#f1_7" transform="matrix(12,0,0,12,187,564.5)" />
<use xlink:href="#f1_4" transform="matrix(12,0,0,12,198.3,564.5)" />
<use xlink:href="#f1_x" transform="matrix(12,0,0,12,209.8,564.5)" />
<use xlink:href="#f1_c" transform="matrix(12,0,0,12,227.5,564.5)" />
<use xlink:href="#f1_k" transform="matrix(12,0,0,12,234.5,564.5)" />
<use xlink:href="#f1_m" transform="matrix(12,0,0,12,245.9,564.5)" />
<use xlink:href="#f1_a" transform="matrix(12,0,0,12,257.4,564.5)" />
<use xlink:href="#f1_b" transform="matrix(12,0,0,12,262.6,564.5)" />
<use xlink:href="#f1_4" transform="matrix(12,0,0,12,279.8,564.5)" />
<use xlink:href="#f1_k" transform="matrix(12,0,0,12,291.3,564.5)" />
<use xlink:href="#f1_8" transform="matrix(12,0,0,12,302.7,564.5)" />
<use xlink:href="#f1_b" transform="matrix(12,0,0,12,320.4,564.5)" />
<use xlink:href="#f1_12" transform="matrix(12,0,0,12,337.7,564.5)" />
<use xlink:href="#f1_f" transform="matrix(12,0,0,12,352.7,564.5)" />
<use xlink:href="#f1_d" transform="matrix(12,0,0,12,364.3,564.5)" />
<use xlink:href="#f1_a" transform="matrix(12,0,0,12,369.3,564.5)" />
<use xlink:href="#f1_b" transform="matrix(12,0,0,12,374.5,564.5)" />
<use xlink:href="#f1_12" transform="matrix(12,0,0,12,391.7,564.5)" />
<use xlink:href="#f1_l" transform="matrix(12,0,0,12,406.7,564.5)" />
<use xlink:href="#f1_d" transform="matrix(12,0,0,12,414.5,564.5)" />
<use xlink:href="#f1_c" transform="matrix(12,0,0,12,419.5,564.5)" />
<use xlink:href="#f1_d" transform="matrix(12,0,0,12,426.7,564.5)" />
<use xlink:href="#f1_4" transform="matrix(12,0,0,12,431.9,564.5)" />
<use xlink:href="#f1_x" transform="matrix(12,0,0,12,443.3,564.5)" />
<use xlink:href="#f1_c" transform="matrix(12,0,0,12,460.9,564.5)" />
<use xlink:href="#f1_f" transform="matrix(12,0,0,12,468.1,564.5)" />
<use xlink:href="#f1_b" transform="matrix(12,0,0,12,479.7,564.5)" />
<use xlink:href="#f1_13" transform="matrix(12,0,0,12,496.9,564.5)" />
<use xlink:href="#f1_i" transform="matrix(12,0,0,12,508.7,564.5)" />
<use xlink:href="#f1_b" transform="matrix(12,0,0,12,520.1,564.5)" />
<use xlink:href="#f1_l" transform="matrix(12,0,0,12,531.6,564.5)" />
<use xlink:href="#f1_r" transform="matrix(12,0,0,12,539.2,564.5)" />
<use xlink:href="#f1_k" transform="matrix(12,0,0,12,555.8,564.5)" />
<use xlink:href="#f1_4" transform="matrix(12,0,0,12,567.1,564.5)" />
<use xlink:href="#f1_h" transform="matrix(12,0,0,12,578.7,564.5)" />
<use xlink:href="#f1_7" transform="matrix(12,0,0,12,596.3,564.5)" />
<use xlink:href="#f1_m" transform="matrix(12,0,0,12,607.6,564.5)" />
<use xlink:href="#f1_g" transform="matrix(12,0,0,12,619,564.5)" />
<use xlink:href="#f1_b" transform="matrix(12,0,0,12,628.7,564.5)" />
<use xlink:href="#f1_l" transform="matrix(12,0,0,12,639.9,564.5)" />
<use xlink:href="#f1_q" transform="matrix(12,0,0,12,647.6,564.5)" />
<use xlink:href="#f1_b" transform="matrix(12,0,0,12,658.4,564.5)" />
<use xlink:href="#f1_c" transform="matrix(12,0,0,12,675.6,564.5)" />
<use xlink:href="#f1_f" transform="matrix(12,0,0,12,682.8,564.5)" />
<use xlink:href="#f1_b" transform="matrix(12,0,0,12,694.3,564.5)" />
<use xlink:href="#f1_b" transform="matrix(12,0,0,12,711.5,564.5)" />
<use xlink:href="#f1_l" transform="matrix(12,0,0,12,723,564.5)" />
<use xlink:href="#f1_l" transform="matrix(12,0,0,12,730.2,564.5)" />
<use xlink:href="#f1_7" transform="matrix(12,0,0,12,737.4,564.5)" />
<use xlink:href="#f1_l" transform="matrix(12,0,0,12,748.5,564.5)" />
<use xlink:href="#f1_8" transform="matrix(12,0,0,12,762.1,564.5)" />
<use xlink:href="#f1_b" transform="matrix(12,0,0,12,779.9,564.5)" />
<use xlink:href="#f1_g" transform="matrix(12,0,0,12,791.2,564.5)" />
<use xlink:href="#f1_g" transform="matrix(12,0,0,12,800.8,564.5)" />
<use xlink:href="#f1_k" transform="matrix(12,0,0,12,810.3,564.5)" />
<use xlink:href="#f1_x" transform="matrix(12,0,0,12,821.6,564.5)" />
<use xlink:href="#f1_b" transform="matrix(12,0,0,12,833.4,564.5)" />
<use xlink:href="#f1_1c" transform="matrix(12,0,0,12,844.8,564.5)" />
</g>
</g>
<image x="119" y="73" width="850" height="212" xlink:href="img/2.png" />
<defs>
	<path d="M264.3,297.9c0,0,-42.8,0,-79.4,16.8c0,0,-36.7,16.8,-64.2,44.3c0,0,-29,29.1,-44.3,67.3c0,0,-16.8,38.1,-16.8,82.5c0,0,0,41.2,15.3,77.9c0,0,16.8,38.2,44.3,65.7c0,0,29,27.5,65.7,42.7c0,0,36.6,16.8,79.4,16.8c0,0,42.8,0,81,-15.2c0,0,38.2,-16.8,65.7,-44.3c0,0,29,-27.5,45.8,-64.2c0,0,16.8,-38.2,16.8,-79.4c0,0,0,-44.4,-16.8,-82.5c0,0,-16.8,-38.2,-44.3,-65.7c0,0,-29,-29.1,-67.2,-45.9c0,0,-38.2,-16.8,-81,-16.8Z" 
	id="f0_q"
	transform="scale(0.001,-0.001)" />

	<path d="M629.4,-21.3c0,0,-253.6,0,-398.7,154.2c0,0,-145.1,154.3,-145.1,421.7c0,0,0,268.9,145.1,423.2c0,0,145.1,155.8,398.7,155.8c0,0,99.4,0,188,-26c0,0,88.6,-27.5,166.5,-80.9l0,-158.9c0,0,-76.4,71.8,-162,106.9c0,0,-87,35.2,-184.8,35.2c0,0,-191,0,-291.8,-116.1c0,0,-100.9,-117.7,-100.9,-339.2c0,0,0,-220,100.9,-336.1c0,0,100.8,-117.7,291.8,-117.7c0,0,97.8,0,183.3,35.2c0,0,87.1,35.1,163.5,106.9l0,-157.3c0,0,-79.5,-55,-168.1,-81c0,0,-88.6,-25.9,-186.4,-25.9Z" 
	id="f1_15"
	transform="scale(0.001,-0.001)" />

	<path d="M467.5,94.7c0,0,108.5,0,172.6,85.6c0,0,64.2,87.1,64.2,235.3c0,0,0,149.7,-64.2,235.2c0,0,-64.1,87.1,-172.6,87.1c0,0,-111.5,0,-175.7,-85.5c0,0,-64.2,-85.6,-64.2,-236.8c0,0,0,-149.8,64.2,-235.3c0,0,64.2,-85.6,175.7,-85.6Zm0,-116c0,0,-180.3,0,-281.1,116C186.4,94.7,84,210.8,84,415.6c0,0,0,206.2,100.9,322.3c0,0,102.3,117.7,282.6,117.7c0,0,178.8,0,281.1,-116.2c0,0,102.4,-117.6,102.4,-323.8c0,0,0,-204.8,-102.4,-320.9c0,0,-102.3,-116,-281.1,-116Z" 
	id="f1_7"
	transform="scale(0.001,-0.001)" />

	<path d="M137.5,0l0,834.2l139,0l0,-129.9c0,0,48.9,76.4,114.6,113.1c0,0,67.2,38.2,154.3,38.2c0,0,145.2,0,218.5,-88.7c0,0,73.3,-90.1,73.3,-262.7L837.2,0L699.7,0l0,499.6c0,0,0,117.6,-45.8,175.7c0,0,-45.8,59.6,-139,59.6c0,0,-110,0,-174.2,-70.3c0,0,-64.2,-70.3,-64.2,-192.5L276.5,0Z" 
	id="f1_4"
	transform="scale(0.001,-0.001)" />

	<path d="M375.8,-21.3c0,0,-67.2,0,-140.5,12.2c0,0,-73.4,12.2,-152.8,39.7l0,140.5c0,0,76.4,-39.7,149.7,-58c0,0,73.4,-19.9,146.7,-19.9c0,0,96.2,0,148.2,32.1c0,0,51.9,33.6,51.9,94.7c0,0,0,55,-36.6,84c0,0,-38.2,30.6,-165,58.1l-48.9,12.2c0,0,-126.8,26,-183.4,81c0,0,-56.5,56.5,-56.5,152.8c0,0,0,119.1,82.5,183.3c0,0,84,64.2,238.3,64.2c0,0,74.9,0,142.1,-10.7c0,0,67.3,-12.3,123.8,-35.2l0,-129.8c0,0,-58.1,30.5,-120.7,44.3c0,0,-62.7,15.2,-129.9,15.2c0,0,-102.3,0,-152.8,-30.5c0,0,-50.4,-32.1,-50.4,-94.7c0,0,0,-47.4,35.2,-74.9c0,0,36.6,-27.5,148.2,-51.9l45.8,-10.7c0,0,146.7,-30.6,207.8,-87.1c0,0,62.6,-58.1,62.6,-160.4c0,0,0,-116.1,-91.7,-183.4c0,0,-93.1,-67.1,-253.6,-67.1Z" 
	id="f1_g"
	transform="scale(0.001,-0.001)" />

	<path d="M143,0l0,834l138,0L281,0Zm0,985l0,174l138,0l0,-174Z" 
	id="f1_d"
	transform="scale(0.001,-0.001)" />

	<path d="M458.3,93.2c0,0,110,0,172.7,85.6c0,0,62.6,85.5,62.6,236.8c0,0,0,152.7,-62.6,238.3c0,0,-62.7,85.5,-172.7,85.5c0,0,-108.4,0,-171.1,-85.5c0,0,-62.6,-85.6,-62.6,-238.3c0,0,0,-151.3,62.6,-236.8c0,0,62.7,-85.6,171.1,-85.6ZM424.7,-21.3c0,0,-151.2,0,-245.9,120.6C178.8,99.3,84,220,84,415.6c0,0,0,197,94.8,317.7c0,0,94.7,122.3,245.9,122.3c0,0,93.2,0,158.9,-36.7c0,0,65.7,-36.7,110,-111.5l0,452.2l136,0L829.6,0l-136,0l0,125.3c0,0,-44.3,-74.9,-110,-110c0,0,-65.7,-36.6,-158.9,-36.6Z" 
	id="f1_h"
	transform="scale(0.001,-0.001)" />

	<path d="M230.7,490.4l490.4,1.5c0,0,-1.5,111.6,-62.6,178.8c0,0,-62.7,67.2,-163.5,67.2c0,0,-114.6,0,-183.3,-64.1c0,0,-70.3,-65.7,-81,-183.4ZM516.4,-21.3c0,0,-198.6,0,-314.7,116C201.7,94.7,84,210.8,84,409.4c0,0,0,204.8,110,325.5c0,0,111.6,120.7,299.5,120.7c0,0,168,0,265.8,-108.5c0,0,99.3,-110,99.3,-296.4l0,-67.2l-632.5,0c0,0,9.2,-140.6,85.6,-213.9c0,0,76.4,-74.9,213.9,-74.9c0,0,77.9,0,152.7,18.4c0,0,74.9,19.8,148.2,58l0,-129.8c0,0,-74.8,-30.6,-151.2,-45.8c0,0,-77.9,-16.8,-158.9,-16.8Z" 
	id="f1_b"
	transform="scale(0.001,-0.001)" />

	<path d="M137.5,0l0,834.2l139,0l0,-129.9c0,0,42.8,76.4,111.6,113.1c0,0,70.2,38.2,169.5,38.2c0,0,13.8,0,30.6,-1.6c0,0,16.8,-3,38.2,-6.1l1.5,-142.1c0,0,-24.4,13.8,-50.4,19.9c0,0,-27.5,6.1,-61.1,6.1c0,0,-116.1,0,-177.2,-74.9c0,0,-62.7,-76.3,-62.7,-216.9l0,-440Z" 
	id="f1_l"
	transform="scale(0.001,-0.001)" />

	<path d="M146,699l0,414l127,0l0,-414Z" 
	id="f1_24"
	transform="scale(0.001,-0.001)" />

	<path d="M421.7,-21.3c0,0,-143.6,0,-218.5,88.5L128.3,328.5l0,505.7l137.5,0l0,-499.6c0,0,0,-119.2,45.9,-178.8c0,0,47.3,-59.5,139,-59.5c0,0,111.5,0,175.7,70.2c0,0,65.7,71.8,65.7,194.1l0,473.6l136,0L828.1,0l-136,0l0,126.8c0,0,-50.4,-74.9,-116.1,-111.5c0,0,-67.2,-36.6,-154.3,-36.6Z" 
	id="f1_i"
	transform="scale(0.001,-0.001)" />

	<path d="M420.1,0c0,0,-158.8,0,-218.4,58.1c0,0,-61.1,59.5,-61.1,216.9l0,453.8l-100.9,0l0,105.4l100.9,0l0,238.3l139,0l0,-238.3l282.6,0l0,-105.4l-282.6,0l0,-453.8c0,0,0,-102.4,27.5,-131.4c0,0,27.5,-29,113,-29l142.1,0L562.2,0Z" 
	id="f1_c"
	transform="scale(0.001,-0.001)" />

	<path d="M407.9,93.2c0,0,113.1,0,181.8,79.4c0,0,70.3,81,70.3,215.5l0,30.5l-137.5,0c0,0,-166.5,0,-230.7,-36.7c0,0,-64.2,-38.1,-64.2,-129.8c0,0,0,-73.3,47.4,-116.1c0,0,48.9,-42.8,132.9,-42.8ZM371.3,-21.3c0,0,-128.4,0,-203.2,71.7c0,0,-76.4,71.8,-76.4,192.5c0,0,0,140.6,93.2,212.4c0,0,94.7,71.8,282.6,71.8l192.5,0l0,13.7c0,0,0,94.8,-62.6,145.2c0,0,-62.7,51.9,-175.7,51.9c0,0,-71.8,0,-139.1,-16.8c0,0,-67.2,-16.8,-129.8,-51.9l0,126.8c0,0,74.8,30.5,145.1,44.3c0,0,71.8,15.3,139,15.3c0,0,180.3,0,268.9,-93.2c0,0,90.2,-94.8,90.2,-285.7L796,0L660,0l0,126.8c0,0,-47.4,-76.4,-117.6,-111.5c0,0,-70.3,-36.6,-171.1,-36.6Z" 
	id="f1_k"
	transform="scale(0.001,-0.001)" />

	<path d="M508.8,93.2c0,0,110,0,171.1,85.6c0,0,62.6,85.5,62.6,236.8c0,0,0,152.7,-61.1,238.3c0,0,-62.6,85.5,-172.6,85.5c0,0,-108.5,0,-169.6,-85.5c0,0,-62.7,-85.6,-62.7,-238.3c0,0,0,-151.3,61.1,-236.8c0,0,62.7,-85.6,171.2,-85.6ZM542.4,-21.3c0,0,-91.7,0,-157.4,35.1c0,0,-65.7,36.6,-108.5,111.5L276.5,0l-139,0l0,1159.6l139,0l0,-452.2c0,0,42.8,74.8,108.5,111.5c0,0,65.7,36.7,157.4,36.7c0,0,152.7,0,247.5,-120.7c0,0,96.2,-122.3,96.2,-319.3c0,0,0,-195.6,-94.7,-316.3c0,0,-96.3,-120.6,-249,-120.6Z" 
	id="f1_m"
	transform="scale(0.001,-0.001)" />

	<path d="M143,0l0,1159l138,0L281,0Z" 
	id="f1_a"
	transform="scale(0.001,-0.001)" />

	<path d="M120.7,-317.7l0,116.1l79.4,0c0,0,56.6,0,87.1,26c0,0,32.1,27.5,70.3,126.8l24.4,61L44.3,834.2l145.1,0L450.7,181.8L711.9,834.2l146.7,0L490.4,-76.3c0,0,-58,-149.7,-113,-195.5c0,0,-55,-45.9,-148.2,-45.9Z" 
	id="f1_r"
	transform="scale(0.001,-0.001)" />

	<path d="M495,-21.3c0,0,-189.4,0,-299.4,117.6C195.6,96.3,84,215.4,84,415.6c0,0,0,204.7,111.6,322.3c0,0,113,117.7,308.6,117.7c0,0,62.6,0,122.2,-13.8c0,0,61.1,-13.7,117.6,-39.7l0,-128.3c0,0,-58,32,-116.1,47.3c0,0,-58,16.8,-119.1,16.8c0,0,-133,0,-206.3,-84c0,0,-74.9,-84,-74.9,-238.3c0,0,0,-152.8,73.4,-236.8c0,0,74.8,-84.1,207.8,-84.1c0,0,61.1,0,119.1,15.3c0,0,58.1,16.8,116.1,48.9L744,30.6c0,0,-56.5,-26,-117.6,-38.1c0,0,-62.6,-13.8,-131.4,-13.8Z" 
	id="f1_6"
	transform="scale(0.001,-0.001)" />

	<path d="M161,0l0,189l158,0L319,0Z" 
	id="f1_1c"
	transform="scale(0.001,-0.001)" />

	<path d="M149,0l0,1113l150,0L299,0Z" 
	id="f1_u"
	transform="scale(0.001,-0.001)" />

	<path d="M137.5,0l0,1159.6l139,0l0,-455.3c0,0,48.9,76.4,114.6,113.1c0,0,67.2,38.2,154.3,38.2c0,0,145.2,0,218.5,-88.7c0,0,73.3,-90.1,73.3,-262.7L837.2,0L699.7,0l0,499.6c0,0,0,117.6,-45.8,175.7c0,0,-45.8,59.6,-139,59.6c0,0,-110,0,-174.2,-70.3c0,0,-64.2,-70.3,-64.2,-192.5L276.5,0Z" 
	id="f1_f"
	transform="scale(0.001,-0.001)" />

	<path d="M165,0l0,728.8l-131.4,0l0,105.4l131.4,0l0,58c0,0,0,140.6,64.2,203.2c0,0,65.7,64.2,207.7,64.2l129.9,0l0,-113.1l-131.4,0c0,0,-74.8,0,-102.3,-30.5c0,0,-29.1,-30.6,-29.1,-107l0,-74.8l226.1,0l0,-105.4l-226.1,0L304,0Z" 
	id="f1_e"
	transform="scale(0.001,-0.001)" />

	<path d="M282.6,0L62.6,834.2l137.5,0L372.8,183.3L542.4,834.2l161.9,0L876.9,183.3l171.2,650.9l135.9,0L965.6,0l-162,0L624.9,684.4L444.6,0Z" 
	id="f1_12"
	transform="scale(0.001,-0.001)" />

	<path d="M458.3,114.6c0,0,111.6,0,172.7,81c0,0,62.6,82.5,62.6,230.7c0,0,0,149.7,-61.1,230.6c0,0,-62.6,82.5,-174.2,82.5c0,0,-110,0,-171.1,-80.9c0,0,-62.6,-82.5,-62.6,-232.2c0,0,0,-148.2,61.1,-229.2c0,0,62.6,-82.5,172.6,-82.5ZM444.6,-317.7c0,0,-71.8,0,-136,10.7c0,0,-64.2,12.2,-123.7,33.6l0,134.5c0,0,59.5,-33.6,117.6,-48.9c0,0,59.6,-15.3,120.7,-15.3c0,0,136,0,203.2,70.3c0,0,67.2,70.3,67.2,210.7l0,68.8c0,0,-42.8,-74.9,-108.5,-110C585.1,36.7,517.9,0,424.7,0c0,0,-152.8,0,-245.9,116.1c0,0,-94.8,117.7,-94.8,310.2c0,0,0,194,93.2,311.6c0,0,94.7,117.7,247.5,117.7c0,0,93.2,0,158.9,-36.7c0,0,67.2,-36.7,110,-111.5l0,126.8l136,0l0,-731.8c0,0,0,-210.8,-94.7,-314.7c0,0,-94.8,-105.4,-290.3,-105.4Z" 
	id="f1_x"
	transform="scale(0.001,-0.001)" />

	<path d="M178,0l0,189l158,0L336,0Zm0,600l0,189l158,0l0,-189Z" 
	id="f1_n"
	transform="scale(0.001,-0.001)" />

	<path d="M389,0l0,985L-3,985l0,128l939,0l0,-128l-396,0L540,0Z" 
	id="f1_1g"
	transform="scale(0.001,-0.001)" />

	<path d="M458.3,93.2c0,0,110,0,172.7,85.6c0,0,62.6,85.5,62.6,236.8c0,0,0,152.7,-62.6,238.3c0,0,-62.7,85.5,-172.7,85.5c0,0,-108.4,0,-171.1,-85.5c0,0,-62.6,-85.6,-62.6,-238.3c0,0,0,-151.3,62.6,-236.8c0,0,62.7,-85.6,171.1,-85.6ZM693.6,-317.7l0,443c0,0,-44.3,-74.9,-110,-110c0,0,-65.7,-36.6,-158.9,-36.6c0,0,-151.2,0,-245.9,120.6C178.8,99.3,84,220,84,415.6c0,0,0,197,94.8,317.7c0,0,94.7,122.3,245.9,122.3c0,0,93.2,0,158.9,-36.7c0,0,65.7,-36.7,110,-111.5l0,126.8l136,0l0,-1151.9Z" 
	id="f1_13"
	transform="scale(0.001,-0.001)" />

	<path d="M137.5,0l0,834.2l139,0l0,-129.9c0,0,45.9,77.9,111.6,114.6c0,0,65.7,36.7,155.8,36.7c0,0,91.7,0,154.3,-45.9c0,0,64.2,-47.3,96.2,-135.9c0,0,50.5,93.1,122.3,137.5c0,0,71.8,44.3,168,44.3c0,0,131.4,0,201.7,-91.7c0,0,71.8,-91.7,71.8,-259.7L1358.2,0l-139,0l0,499.6c0,0,0,119.2,-41.3,177.2c0,0,-42.8,58.1,-129.8,58.1c0,0,-107,0,-168.1,-70.3c0,0,-62.6,-70.3,-62.6,-192.5L817.4,0L678.3,0l0,499.6c0,0,0,120.7,-41.2,177.2c0,0,-42.8,58.1,-131.4,58.1c0,0,-105.4,0,-166.5,-70.3c0,0,-62.7,-71.8,-62.7,-192.5L276.5,0Z" 
	id="f1_8"
	transform="scale(0.001,-0.001)" />

	<path d="M111.5,0l0,126.8c0,0,85.6,88.6,233.8,236.8c0,0,148.2,149.7,186.4,194c0,0,71.8,81,100.8,137.5c0,0,29,56.6,29,110c0,0,0,88.7,-62.6,145.2c0,0,-62.6,56.5,-162,56.5c0,0,-71.8,0,-149.7,-24.4c0,0,-79.4,-26,-168,-74.9l0,151.3c0,0,90.1,36.6,169.6,55c0,0,79.4,19.8,145.1,19.8c0,0,172.6,0,275,-87.1c0,0,103.9,-87.1,103.9,-230.7c0,0,0,-68.7,-26,-129.8c0,0,-26,-62.7,-93.2,-145.2c0,0,-19.8,-22.9,-119.2,-125.2c0,0,-99.3,-103.9,-282.6,-288.8l527.1,0L818.9,0Z" 
	id="f1_t"
	transform="scale(0.001,-0.001)" />

	<path d="M352.9,-200c0,0,-111.5,174.1,-166.5,342.1c0,0,-56.5,169.6,-56.5,336.1c0,0,0,166.5,55,334.6c0,0,56.5,169.6,168,345.3l120.7,0c0,0,-100.8,-171.2,-148.2,-339.2c0,0,-48.9,-168.1,-48.9,-340.7c0,0,0,-171.1,48.9,-339.2c0,0,48.9,-169.5,148.2,-339Z" 
	id="f1_1i"
	transform="scale(0.001,-0.001)" />

	<path d="M-13,-359l0,106l790,0l0,-106Z" 
	id="f1_w"
	transform="scale(0.001,-0.001)" />

	<path d="M122.2,-200c0,0,99.3,169.5,146.7,337.5c0,0,48.9,169.6,48.9,340.7c0,0,0,172.6,-47.4,340.7c0,0,-48.9,168,-148.2,339.2l119.2,0c0,0,111.5,-175.7,166.5,-343.8c0,0,56.5,-169.6,56.5,-336.1c0,0,0,-166.5,-55,-334.6c0,0,-56.5,-169.5,-168,-343.6Z" 
	id="f1_o"
	transform="scale(0.001,-0.001)" />

	<path d="M357.5,0L44.3,834.2l145.1,0L450.7,132.9L711.9,834.2l146.7,0L543.9,0Z" 
	id="f1_q"
	transform="scale(0.001,-0.001)" />

	<path d="M559.2,-21.3c0,0,-210.9,0,-319.3,109.9c0,0,-108.5,111.5,-108.5,328.5l0,696.7l152.8,0l0,-676.9c0,0,0,-180.2,64.1,-258.1c0,0,64.2,-79.5,210.9,-79.5c0,0,143.6,0,207.7,77.9c0,0,65.7,79.5,65.7,259.7l0,676.9l152.8,0l0,-696.7c0,0,0,-217,-108.5,-327c0,0,-108.4,-111.4,-317.7,-111.4Z" 
	id="f1_p"
	transform="scale(0.001,-0.001)" />

	<path d="M42.8,0L368.2,436.9L70.3,834.2l161.9,0L453.8,537.8L675.3,834.2l161.9,0L536.3,427.8L854,0L692.1,0L447.6,326.9L204.7,0Z" 
	id="f1_v"
	transform="scale(0.001,-0.001)" />

	<path d="M508.8,93.2c0,0,110,0,171.1,85.6c0,0,62.6,85.5,62.6,236.8c0,0,0,152.7,-61.1,238.3c0,0,-62.6,85.5,-172.6,85.5c0,0,-108.5,0,-169.6,-85.5c0,0,-62.7,-85.6,-62.7,-238.3c0,0,0,-151.3,61.1,-236.8c0,0,62.7,-85.6,171.2,-85.6ZM137.5,-317.7l0,1151.9l139,0l0,-126.8c0,0,42.8,74.8,108.5,111.5c0,0,65.7,36.7,157.4,36.7c0,0,152.7,0,247.5,-120.7c0,0,96.2,-122.3,96.2,-319.3c0,0,0,-195.6,-94.7,-316.3c0,0,-96.3,-120.6,-249,-120.6c0,0,-91.7,0,-157.4,35.1c0,0,-65.7,36.6,-108.5,111.5l0,-443Z" 
	id="f1_9"
	transform="scale(0.001,-0.001)" />

	<path d="M481.3,123.8c0,0,230.6,0,337.6,103.8c0,0,106.9,103.9,106.9,330c0,0,0,223.1,-106.9,327c0,0,-107,103.9,-337.6,103.9l-181.9,0l0,-864.7ZM149.7,0l0,1113.8l308.6,0c0,0,323.9,0,475.2,-134.5c0,0,151.2,-136,151.2,-421.7c0,0,0,-288.7,-151.2,-423.2C933.5,134.4,780.7,0,458.3,0Z" 
	id="f1_16"
	transform="scale(0.001,-0.001)" />

	<path d="M488.9,571.4c0,0,105.4,0,161.9,53.5c0,0,58.1,55,58.1,155.8c0,0,0,99.3,-56.5,152.8c0,0,-58.1,55,-163.5,55l-189.5,0l0,-417.1ZM149.7,0l0,1113.8l339.2,0c0,0,187.9,0,282.6,-84.1c0,0,96.3,-85.5,96.3,-249c0,0,0,-165,-94.7,-249c0,0,-96.3,-85.6,-284.2,-85.6l-189.5,0L299.4,0Z" 
	id="f1_s"
	transform="scale(0.001,-0.001)" />


</defs>
</svg>