<?xml version="1.0" encoding="UTF-8" standalone="no"?>
<!DOCTYPE svg PUBLIC "-//W3C//DTD SVG 1.1//EN"
"http://www.w3.org/Graphics/SVG/1.1/DTD/svg11.dtd">
<svg viewBox="0 0 1155 1210" version="1.1" xmlns="http://www.w3.org/2000/svg" xmlns:xlink="http://www.w3.org/1999/xlink">
<defs>
<clipPath id="c0_22"><path d="M0.5,1210.5L0.5,0.5l1155,0l0,1210Z" /></clipPath>
<style type="text/css"><![CDATA[
.g1_22{
fill: #FFFFFF;
}
]]></style>
</defs>
<path fill-rule="evenodd" d="M0,0L1155,0l0,1210L0,1210L0,0Z" class="g1_22" />
<path fill-rule="evenodd" d="M0,0L1155,0l0,1210L0,1210L0,0Z" class="g1_22" />
<image x="790" y="1140" width="319" height="55" xlink:href="img/1.png" />
<g clip-path="url(#c0_22)">
<g fill="#626262" >
<use xlink:href="#f0_z" transform="matrix(11.4,0,0,11.5,47.7,33.2)" />
<use xlink:href="#f0_x" transform="matrix(11.4,0,0,11.5,59.7,33.2)" />
<use xlink:href="#f0_r" transform="matrix(12,0,0,12,78.7,33.2)" />
<use xlink:href="#f0_b" transform="matrix(12,0,0,12,91.7,33.2)" />
<use xlink:href="#f0_a" transform="matrix(12,0,0,12,104,33.2)" />
<use xlink:href="#f0_l" transform="matrix(12,0,0,12,115,33.2)" />
<use xlink:href="#f0_d" transform="matrix(12,0,0,12,125.9,33.2)" />
<use xlink:href="#f0_h" transform="matrix(12,0,0,12,134.9,33.2)" />
<use xlink:href="#f0_v" transform="matrix(12,0,0,12,141,33.2)" />
<use xlink:href="#f0_8" transform="matrix(12,0,0,12,154,33.2)" />
<use xlink:href="#f0_h" transform="matrix(12,0,0,12,162.5,33.2)" />
<use xlink:href="#f0_e" transform="matrix(12,0,0,12,168.6,33.2)" />
<use xlink:href="#f0_i" transform="matrix(12,0,0,12,181,33.2)" />
<use xlink:href="#f1_q" transform="matrix(12,0,0,12,100.2,83.9)" />
<use xlink:href="#f2_1u" transform="matrix(12,0,0,12,126.3,84.9)" />
<use xlink:href="#f2_b" transform="matrix(12,0,0,12,138.3,84.9)" />
<use xlink:href="#f2_c" transform="matrix(12,0,0,12,149.7,84.9)" />
<use xlink:href="#f2_i" transform="matrix(12,0,0,12,156.9,84.9)" />
<use xlink:href="#f2_l" transform="matrix(12,0,0,12,168.3,84.9)" />
<use xlink:href="#f2_4" transform="matrix(12,0,0,12,175.7,84.9)" />
<use xlink:href="#f2_g" transform="matrix(12,0,0,12,187.3,84.9)" />
<use xlink:href="#f2_d" transform="matrix(12,0,0,12,202.7,84.9)" />
<use xlink:href="#f2_4" transform="matrix(12,0,0,12,207.7,84.9)" />
<use xlink:href="#f2_e" transform="matrix(12,0,0,12,219.4,84.9)" />
<use xlink:href="#f2_7" transform="matrix(12,0,0,12,225.8,84.9)" />
<use xlink:href="#f2_l" transform="matrix(12,0,0,12,236.9,84.9)" />
<use xlink:href="#f2_8" transform="matrix(12,0,0,12,244.2,84.9)" />
<use xlink:href="#f2_k" transform="matrix(12,0,0,12,262.1,84.9)" />
<use xlink:href="#f2_c" transform="matrix(12,0,0,12,273.4,84.9)" />
<use xlink:href="#f2_d" transform="matrix(12,0,0,12,280.6,84.9)" />
<use xlink:href="#f2_7" transform="matrix(12,0,0,12,285.6,84.9)" />
<use xlink:href="#f2_4" transform="matrix(12,0,0,12,296.8,84.9)" />
<use xlink:href="#f2_k" transform="matrix(12,0,0,12,314.2,84.9)" />
<use xlink:href="#f2_m" transform="matrix(12,0,0,12,325.6,84.9)" />
<use xlink:href="#f2_7" transform="matrix(12,0,0,12,337.1,84.9)" />
<use xlink:href="#f2_i" transform="matrix(12,0,0,12,348.4,84.9)" />
<use xlink:href="#f2_c" transform="matrix(12,0,0,12,359.8,84.9)" />
<use xlink:href="#f2_c" transform="matrix(12,0,0,12,372.8,84.9)" />
<use xlink:href="#f2_f" transform="matrix(12,0,0,12,380,84.9)" />
<use xlink:href="#f2_b" transform="matrix(12,0,0,12,391.6,84.9)" />
<use xlink:href="#f2_l" transform="matrix(12,0,0,12,408.9,84.9)" />
<use xlink:href="#f2_b" transform="matrix(12,0,0,12,416.1,84.9)" />
<use xlink:href="#f2_c" transform="matrix(12,0,0,12,427.3,84.9)" />
<use xlink:href="#f2_l" transform="matrix(12,0,0,12,434.5,84.9)" />
<use xlink:href="#f2_d" transform="matrix(12,0,0,12,442.2,84.9)" />
<use xlink:href="#f2_b" transform="matrix(12,0,0,12,447.3,84.9)" />
<use xlink:href="#f2_q" transform="matrix(12,0,0,12,458.6,84.9)" />
<use xlink:href="#f2_b" transform="matrix(12,0,0,12,469.5,84.9)" />
<use xlink:href="#f2_h" transform="matrix(12,0,0,12,480.7,84.9)" />
<use xlink:href="#f2_6" transform="matrix(12,0,0,12,498.4,84.9)" />
<use xlink:href="#f2_7" transform="matrix(12,0,0,12,508.7,84.9)" />
<use xlink:href="#f2_a" transform="matrix(12,0,0,12,519.8,84.9)" />
<use xlink:href="#f2_i" transform="matrix(12,0,0,12,525,84.9)" />
<use xlink:href="#f2_8" transform="matrix(12,0,0,12,536.4,84.9)" />
<use xlink:href="#f2_4" transform="matrix(12,0,0,12,554.2,84.9)" />
<use xlink:href="#f2_g" transform="matrix(12,0,0,12,565.8,84.9)" />
<use xlink:href="#f2_d" transform="matrix(12,0,0,12,581.2,84.9)" />
<use xlink:href="#f2_4" transform="matrix(12,0,0,12,586.3,84.9)" />
<use xlink:href="#f2_c" transform="matrix(12,0,0,12,603.6,84.9)" />
<use xlink:href="#f2_f" transform="matrix(12,0,0,12,610.8,84.9)" />
<use xlink:href="#f2_b" transform="matrix(12,0,0,12,622.4,84.9)" />
<use xlink:href="#f2_6" transform="matrix(12,0,0,12,639.6,84.9)" />
<use xlink:href="#f2_i" transform="matrix(12,0,0,12,649.9,84.9)" />
<use xlink:href="#f2_l" transform="matrix(12,0,0,12,661.3,84.9)" />
<use xlink:href="#f2_g" transform="matrix(12,0,0,12,669.1,84.9)" />
<use xlink:href="#f2_7" transform="matrix(12,0,0,12,678.6,84.9)" />
<use xlink:href="#f2_l" transform="matrix(12,0,0,12,689.9,84.9)" />
<use xlink:href="#f2_1c" transform="matrix(12,0,0,12,695.7,84.9)" />
<use xlink:href="#f1_q" transform="matrix(12,0,0,12,100.2,135.7)" />
<use xlink:href="#f2_1u" transform="matrix(12,0,0,12,126.3,136.7)" />
<use xlink:href="#f2_b" transform="matrix(12,0,0,12,138.3,136.7)" />
<use xlink:href="#f2_c" transform="matrix(12,0,0,12,149.7,136.7)" />
<use xlink:href="#f2_i" transform="matrix(12,0,0,12,156.9,136.7)" />
<use xlink:href="#f2_l" transform="matrix(12,0,0,12,168.3,136.7)" />
<use xlink:href="#f2_4" transform="matrix(12,0,0,12,175.7,136.7)" />
<use xlink:href="#f2_g" transform="matrix(12,0,0,12,187.3,136.7)" />
<use xlink:href="#f2_11" transform="matrix(12,0,0,12,202.7,136.7)" />
<use xlink:href="#f2_3" transform="matrix(12,0,0,12,216.4,136.7)" />
<use xlink:href="#f2_11" transform="matrix(12,0,0,12,230.8,136.7)" />
<use xlink:href="#f2_1n" transform="matrix(12,0,0,12,244.7,136.7)" />
<use xlink:href="#f2_k" transform="matrix(12,0,0,12,262.1,136.7)" />
<use xlink:href="#f2_e" transform="matrix(12,0,0,12,273.4,136.7)" />
<use xlink:href="#f2_c" transform="matrix(12,0,0,12,279.3,136.7)" />
<use xlink:href="#f2_b" transform="matrix(12,0,0,12,286.5,136.7)" />
<use xlink:href="#f2_l" transform="matrix(12,0,0,12,297.9,136.7)" />
<use xlink:href="#f2_b" transform="matrix(12,0,0,12,311.5,136.7)" />
<use xlink:href="#f2_v" transform="matrix(12,0,0,12,322.5,136.7)" />
<use xlink:href="#f2_b" transform="matrix(12,0,0,12,332.6,136.7)" />
<use xlink:href="#f2_6" transform="matrix(12,0,0,12,343.9,136.7)" />
<use xlink:href="#f2_i" transform="matrix(12,0,0,12,354.1,136.7)" />
<use xlink:href="#f2_c" transform="matrix(12,0,0,12,365.7,136.7)" />
<use xlink:href="#f2_d" transform="matrix(12,0,0,12,372.7,136.7)" />
<use xlink:href="#f2_7" transform="matrix(12,0,0,12,377.9,136.7)" />
<use xlink:href="#f2_4" transform="matrix(12,0,0,12,389,136.7)" />
<use xlink:href="#f2_7" transform="matrix(12,0,0,12,406.5,136.7)" />
<use xlink:href="#f2_e" transform="matrix(12,0,0,12,417.6,136.7)" />
<use xlink:href="#f2_u" transform="matrix(12,0,0,12,430,136.7)" />
<use xlink:href="#f2_4" transform="matrix(12,0,0,12,435.3,136.7)" />
<use xlink:href="#f2_g" transform="matrix(12,0,0,12,446.8,136.7)" />
<use xlink:href="#f2_b" transform="matrix(12,0,0,12,456.4,136.7)" />
<use xlink:href="#f2_l" transform="matrix(12,0,0,12,467.7,136.7)" />
<use xlink:href="#f2_c" transform="matrix(12,0,0,12,475.5,136.7)" />
<use xlink:href="#f2_1l" transform="matrix(12,0,0,12,482.5,136.7)" />
<use xlink:href="#f2_p" transform="matrix(12,0,0,12,488.7,136.7)" />
<use xlink:href="#f2_9" transform="matrix(12,0,0,12,502.1,136.7)" />
<use xlink:href="#f2_h" transform="matrix(12,0,0,12,513.6,136.7)" />
<use xlink:href="#f2_k" transform="matrix(12,0,0,12,525.4,136.7)" />
<use xlink:href="#f2_c" transform="matrix(12,0,0,12,536.8,136.7)" />
<use xlink:href="#f2_b" transform="matrix(12,0,0,12,543.8,136.7)" />
<use xlink:href="#f2_1l" transform="matrix(12,0,0,12,555.3,136.7)" />
<use xlink:href="#f2_16" transform="matrix(12,0,0,12,561.4,136.7)" />
<use xlink:href="#f2_b" transform="matrix(12,0,0,12,575.6,136.7)" />
<use xlink:href="#f2_a" transform="matrix(12,0,0,12,586.8,136.7)" />
<use xlink:href="#f2_b" transform="matrix(12,0,0,12,592,136.7)" />
<use xlink:href="#f2_c" transform="matrix(12,0,0,12,603.3,136.7)" />
<use xlink:href="#f2_b" transform="matrix(12,0,0,12,610.5,136.7)" />
<use xlink:href="#f2_g" transform="matrix(12,0,0,12,627.7,136.7)" />
<use xlink:href="#f2_c" transform="matrix(12,0,0,12,637.2,136.7)" />
<use xlink:href="#f2_k" transform="matrix(12,0,0,12,644.4,136.7)" />
<use xlink:href="#f2_c" transform="matrix(12,0,0,12,655.7,136.7)" />
<use xlink:href="#f2_b" transform="matrix(12,0,0,12,662.9,136.7)" />
<use xlink:href="#f2_8" transform="matrix(12,0,0,12,674.3,136.7)" />
<use xlink:href="#f2_b" transform="matrix(12,0,0,12,692,136.7)" />
<use xlink:href="#f2_4" transform="matrix(12,0,0,12,703.3,136.7)" />
<use xlink:href="#f2_c" transform="matrix(12,0,0,12,714.9,136.7)" />
<use xlink:href="#f2_g" transform="matrix(12,0,0,12,722.1,136.7)" />
<use xlink:href="#f2_1c" transform="matrix(12,0,0,12,731.6,136.7)" />
</g>
</g>
<image x="77" y="183" width="978" height="626" xlink:href="img/2.png" />
<defs>
	<path d="M120.7,0l0,210.8L527.1,569.9c0,0,53.5,48.9,79.4,94.7c0,0,27.5,47.3,27.5,97.8c0,0,0,79.4,-51.9,126.8c0,0,-53.5,47.3,-140.6,47.3c0,0,-67.2,0,-146.6,-27.5c0,0,-81,-29,-171.1,-85.5l0,244.4c0,0,96.2,32.1,190.9,48.9c0,0,94.7,16.8,186.4,16.8c0,0,198.6,0,310.2,-88.6c0,0,111.5,-88.6,111.5,-246c0,0,0,-90.1,-47.4,-168c0,0,-47.3,-79.5,-198.6,-212.4L440,210.8l488.9,0L928.9,0Z" 
	id="f0_z"
	transform="scale(0.001,-0.001)" />

	<path d="M155,0l0,287l268,0L423,0Z" 
	id="f0_x"
	transform="scale(0.001,-0.001)" />

	<path d="M519.4,171.1c0,0,85.6,0,131.4,62.7c0,0,45.9,62.6,45.9,181.8c0,0,0,120.7,-45.9,183.3c0,0,-45.8,62.6,-131.4,62.6c0,0,-84,0,-128.3,-62.6c0,0,-45.8,-62.6,-45.8,-183.3c0,0,0,-119.2,44.3,-181.8c0,0,45.8,-62.7,129.8,-62.7ZM420.1,-21.3c0,0,-154.3,0,-253.6,122.1c0,0,-99.3,122.3,-99.3,314.8c0,0,0,194,99.3,316.2c0,0,99.3,123.8,253.6,123.8c0,0,87.1,0,152.8,-35.2c0,0,67.2,-35.1,123.8,-108.5l0,447.7l267.3,0L964,0L696.7,0l0,120.7c0,0,-56.6,-74.9,-122.3,-108.5c0,0,-65.6,-33.5,-154.3,-33.5Z" 
	id="f0_r"
	transform="scale(0.001,-0.001)" />

	<path d="M687.5,508.8c0,0,0,74.8,-44.3,120.6c0,0,-44.3,47.4,-116.1,47.4c0,0,-77.9,0,-126.8,-42.8c0,0,-48.9,-44.3,-59.6,-125.2ZM542.4,-21.3c0,0,-226.1,0,-351.4,114.5c0,0,-126.8,114.6,-126.8,322.4c0,0,0,204.7,123.7,322.3c0,0,123.8,117.7,340.7,117.7c0,0,197.1,0,314.7,-119.2c0,0,117.7,-119.2,117.7,-317.8l0,-74.8l-623.4,0c0,0,9.2,-94.8,67.3,-140.6c0,0,58,-47.4,163.4,-47.4c0,0,84.1,0,171.1,24.5c0,0,88.7,24.4,183.4,74.8l0,-204.7c0,0,-96.3,-36.6,-191,-53.4c0,0,-94.7,-18.3,-189.4,-18.3Z" 
	id="f0_b"
	transform="scale(0.001,-0.001)" />

	<path d="M444.6,-21.3c0,0,-84,0,-171.1,12.2c0,0,-88.6,12.2,-181.8,39.7l0,201.6c0,0,79.4,-38.2,163.4,-56.5c0,0,84.1,-19.9,169.6,-19.9c0,0,79.5,0,117.7,21.4c0,0,39.7,21.4,39.7,64.2c0,0,0,35.1,-26,51.9c0,0,-27.5,18.4,-110,27.5l-45.8,6.1c0,0,-178.8,23,-250.6,82.5c0,0,-71.8,61.2,-71.8,184.9c0,0,0,132.9,90.2,197.1c0,0,91.6,64.2,279.5,64.2c0,0,74.9,0,155.9,-10.7c0,0,80.9,-12.3,177.2,-36.7l0,-203.2c0,0,-85.6,36.7,-165,53.5c0,0,-81,18.3,-151.3,18.3c0,0,-76.3,0,-113,-18.3c0,0,-36.7,-19.9,-36.7,-58.1c0,0,0,-32.1,27.5,-48.9c0,0,27.5,-18.3,100.9,-25.9l45.8,-7.7c0,0,206.2,-26,276.5,-85.5c0,0,70.3,-59.6,70.3,-186.4c0,0,0,-134.5,-97.8,-200.2c0,0,-99.3,-67.1,-293.3,-67.1Z" 
	id="f0_a"
	transform="scale(0.001,-0.001)" />

	<path d="M545.4,-21.3c0,0,-226.1,0,-352.9,114.5c0,0,-128.3,116.1,-128.3,322.4c0,0,0,207.7,126.8,323.8c0,0,128.3,116.2,354.4,116.2c0,0,65.7,0,129.9,-12.3c0,0,64.1,-12.2,126.8,-35.1l0,-216.9c0,0,-53.5,36.6,-108.5,55c0,0,-55,18.3,-114.6,18.3c0,0,-111.5,0,-172.6,-65.7c0,0,-62.6,-65.7,-62.6,-183.3c0,0,0,-116.2,61.1,-181.8c0,0,62.6,-65.7,174.1,-65.7c0,0,62.7,0,119.2,18.3c0,0,56.5,19.9,103.9,56.5l0,-218.5c0,0,-62.7,-24.4,-126.8,-35c0,0,-64.2,-10.7,-129.9,-10.7Z" 
	id="f0_l"
	transform="scale(0.001,-0.001)" />

	<path d="M126.8,0l0,834.2l267.4,0l0,-136c0,0,51.9,81,117.6,119.2c0,0,67.2,38.2,160.4,38.2c0,0,13.8,0,29.1,-1.6c0,0,16.8,-1.5,45.8,-4.6l1.5,-242.9c0,0,-35.1,16.8,-70.3,24.5c0,0,-35.1,7.6,-70.2,7.6c0,0,-102.4,0,-157.4,-65.7c0,0,-56.5,-65.7,-56.5,-189.4L394.2,0Z" 
	id="f0_d"
	transform="scale(0.001,-0.001)" />

	<path d="M126,0l0,834l268,0L394,0Zm0,942l0,217l268,0l0,-217Z" 
	id="f0_h"
	transform="scale(0.001,-0.001)" />

	<path d="M571.4,171.1c0,0,87.1,0,131.4,62.7c0,0,45.8,62.6,45.8,181.8c0,0,0,120.7,-44.3,183.3c0,0,-45.8,62.6,-132.9,62.6c0,0,-85.6,0,-131.4,-62.6c0,0,-45.8,-64.2,-45.8,-183.3c0,0,0,-117.7,45.8,-180.3c0,0,45.8,-64.2,131.4,-64.2ZM126.8,-317.7l0,1151.9l267.4,0l0,-122.3c0,0,55,73.4,122.2,108.5c0,0,67.2,35.2,154.3,35.2c0,0,155.8,0,253.6,-122.3c0,0,99.3,-123.7,99.3,-317.7c0,0,0,-192.5,-97.8,-314.8c0,0,-99.3,-122.1,-255.1,-122.1c0,0,-87.1,0,-154.3,33.5c0,0,-67.2,35.2,-122.2,108.5l0,-438.4Z" 
	id="f0_v"
	transform="scale(0.001,-0.001)" />

	<path d="M443.1,0c0,0,-158.9,0,-224.6,65.7c0,0,-65.7,65.7,-65.7,223.1l0,354.4l-132.9,0l0,191l132.9,0l0,238.3l265.8,0l0,-238.3l276.5,0l0,-191l-276.5,0l0,-354.4c0,0,0,-58.1,22.9,-78c0,0,24.5,-21.4,93.2,-21.4l136,0L670.7,0Z" 
	id="f0_8"
	transform="scale(0.001,-0.001)" />

	<path d="M525.6,168.1c0,0,87,0,132.9,64.1c0,0,45.8,64.2,45.8,183.4c0,0,0,120.7,-45.8,184.8c0,0,-45.9,64.2,-132.9,64.2c0,0,-88.7,0,-134.5,-64.2c0,0,-47.3,-64.1,-47.3,-184.8c0,0,0,-119.2,45.8,-183.4c0,0,47.3,-64.1,136,-64.1Zm0,-189.4c0,0,-217,0,-339.2,116c0,0,-122.2,116.1,-122.2,320.9c0,0,0,206.2,122.2,322.3c0,0,122.2,117.7,339.2,117.7c0,0,215.4,0,336.1,-116.2c0,0,122.2,-117.6,122.2,-323.8c0,0,0,-204.8,-120.7,-320.9c0,0,-122.2,-116,-337.6,-116Z" 
	id="f0_e"
	transform="scale(0.001,-0.001)" />

	<path d="M126.8,0l0,834.2l267.4,0l0,-122.3c0,0,61.1,73.4,128.3,108.5c0,0,68.8,35.2,149.7,35.2c0,0,145.2,0,220,-88.7c0,0,74.9,-90.1,74.9,-258.1L967.1,0L699.7,0l0,82.5l0,305.6c0,0,0,108.4,-4.6,149.7c0,0,-6.1,41.2,-18.3,61.1c0,0,-15.3,26,-41.2,39.7c0,0,-27.5,15.3,-62.7,15.3c0,0,-82.5,0,-129.8,-64.2c0,0,-48.9,-65.7,-48.9,-178.7l0,-411Z" 
	id="f0_i"
	transform="scale(0.001,-0.001)" />

	<path d="M264.3,297.9c0,0,-42.8,0,-79.4,16.8c0,0,-36.7,16.8,-64.2,44.3c0,0,-29,29.1,-44.3,67.3c0,0,-16.8,38.1,-16.8,82.5c0,0,0,41.2,15.3,77.9c0,0,16.8,38.2,44.3,65.7c0,0,29,27.5,65.7,42.7c0,0,36.6,16.8,79.4,16.8c0,0,42.8,0,81,-15.2c0,0,38.2,-16.8,65.7,-44.3c0,0,29,-27.5,45.8,-64.2c0,0,16.8,-38.2,16.8,-79.4c0,0,0,-44.4,-16.8,-82.5c0,0,-16.8,-38.2,-44.3,-65.7c0,0,-29,-29.1,-67.2,-45.9c0,0,-38.2,-16.8,-81,-16.8Z" 
	id="f1_q"
	transform="scale(0.001,-0.001)" />

	<path d="M488.9,594.3c0,0,110,0,165,50.4c0,0,55,50.4,55,148.2c0,0,0,97.8,-55,146.7c0,0,-55,48.9,-165,48.9l-189.5,0l0,-394.2ZM149.7,0l0,1113.8l339.2,0c0,0,191,0,284.2,-79.5c0,0,94.7,-81,94.7,-241.4c0,0,0,-105.4,-48.9,-174.1c0,0,-48.9,-70.3,-142.1,-97.8c0,0,48.9,-15.3,94.7,-68.8c0,0,45.9,-55,91.7,-148.2L1017.5,0L855.6,0L711.9,285.7c0,0,-55,111.5,-106.9,148.2c0,0,-51.9,36.7,-140.6,36.7l-165,0L299.4,0Z" 
	id="f2_1u"
	transform="scale(0.001,-0.001)" />

	<path d="M230.7,490.4l490.4,1.5c0,0,-1.5,111.6,-62.6,178.8c0,0,-62.7,67.2,-163.5,67.2c0,0,-114.6,0,-183.3,-64.1c0,0,-70.3,-65.7,-81,-183.4ZM516.4,-21.3c0,0,-198.6,0,-314.7,116C201.7,94.7,84,210.8,84,409.4c0,0,0,204.8,110,325.5c0,0,111.6,120.7,299.5,120.7c0,0,168,0,265.8,-108.5c0,0,99.3,-110,99.3,-296.4l0,-67.2l-632.5,0c0,0,9.2,-140.6,85.6,-213.9c0,0,76.4,-74.9,213.9,-74.9c0,0,77.9,0,152.7,18.4c0,0,74.9,19.8,148.2,58l0,-129.8c0,0,-74.8,-30.6,-151.2,-45.8c0,0,-77.9,-16.8,-158.9,-16.8Z" 
	id="f2_b"
	transform="scale(0.001,-0.001)" />

	<path d="M420.1,0c0,0,-158.8,0,-218.4,58.1c0,0,-61.1,59.5,-61.1,216.9l0,453.8l-100.9,0l0,105.4l100.9,0l0,238.3l139,0l0,-238.3l282.6,0l0,-105.4l-282.6,0l0,-453.8c0,0,0,-102.4,27.5,-131.4c0,0,27.5,-29,113,-29l142.1,0L562.2,0Z" 
	id="f2_c"
	transform="scale(0.001,-0.001)" />

	<path d="M421.7,-21.3c0,0,-143.6,0,-218.5,88.5L128.3,328.5l0,505.7l137.5,0l0,-499.6c0,0,0,-119.2,45.9,-178.8c0,0,47.3,-59.5,139,-59.5c0,0,111.5,0,175.7,70.2c0,0,65.7,71.8,65.7,194.1l0,473.6l136,0L828.1,0l-136,0l0,126.8c0,0,-50.4,-74.9,-116.1,-111.5c0,0,-67.2,-36.6,-154.3,-36.6Z" 
	id="f2_i"
	transform="scale(0.001,-0.001)" />

	<path d="M137.5,0l0,834.2l139,0l0,-129.9c0,0,42.8,76.4,111.6,113.1c0,0,70.2,38.2,169.5,38.2c0,0,13.8,0,30.6,-1.6c0,0,16.8,-3,38.2,-6.1l1.5,-142.1c0,0,-24.4,13.8,-50.4,19.9c0,0,-27.5,6.1,-61.1,6.1c0,0,-116.1,0,-177.2,-74.9c0,0,-62.7,-76.3,-62.7,-216.9l0,-440Z" 
	id="f2_l"
	transform="scale(0.001,-0.001)" />

	<path d="M137.5,0l0,834.2l139,0l0,-129.9c0,0,48.9,76.4,114.6,113.1c0,0,67.2,38.2,154.3,38.2c0,0,145.2,0,218.5,-88.7c0,0,73.3,-90.1,73.3,-262.7L837.2,0L699.7,0l0,499.6c0,0,0,117.6,-45.8,175.7c0,0,-45.8,59.6,-139,59.6c0,0,-110,0,-174.2,-70.3c0,0,-64.2,-70.3,-64.2,-192.5L276.5,0Z" 
	id="f2_4"
	transform="scale(0.001,-0.001)" />

	<path d="M375.8,-21.3c0,0,-67.2,0,-140.5,12.2c0,0,-73.4,12.2,-152.8,39.7l0,140.5c0,0,76.4,-39.7,149.7,-58c0,0,73.4,-19.9,146.7,-19.9c0,0,96.2,0,148.2,32.1c0,0,51.9,33.6,51.9,94.7c0,0,0,55,-36.6,84c0,0,-38.2,30.6,-165,58.1l-48.9,12.2c0,0,-126.8,26,-183.4,81c0,0,-56.5,56.5,-56.5,152.8c0,0,0,119.1,82.5,183.3c0,0,84,64.2,238.3,64.2c0,0,74.9,0,142.1,-10.7c0,0,67.3,-12.3,123.8,-35.2l0,-129.8c0,0,-58.1,30.5,-120.7,44.3c0,0,-62.7,15.2,-129.9,15.2c0,0,-102.3,0,-152.8,-30.5c0,0,-50.4,-32.1,-50.4,-94.7c0,0,0,-47.4,35.2,-74.9c0,0,36.6,-27.5,148.2,-51.9l45.8,-10.7c0,0,146.7,-30.6,207.8,-87.1c0,0,62.6,-58.1,62.6,-160.4c0,0,0,-116.1,-91.7,-183.4c0,0,-93.1,-67.1,-253.6,-67.1Z" 
	id="f2_g"
	transform="scale(0.001,-0.001)" />

	<path d="M143,0l0,834l138,0L281,0Zm0,985l0,174l138,0l0,-174Z" 
	id="f2_d"
	transform="scale(0.001,-0.001)" />

	<path d="M165,0l0,728.8l-131.4,0l0,105.4l131.4,0l0,58c0,0,0,140.6,64.2,203.2c0,0,65.7,64.2,207.7,64.2l129.9,0l0,-113.1l-131.4,0c0,0,-74.8,0,-102.3,-30.5c0,0,-29.1,-30.6,-29.1,-107l0,-74.8l226.1,0l0,-105.4l-226.1,0L304,0Z" 
	id="f2_e"
	transform="scale(0.001,-0.001)" />

	<path d="M467.5,94.7c0,0,108.5,0,172.6,85.6c0,0,64.2,87.1,64.2,235.3c0,0,0,149.7,-64.2,235.2c0,0,-64.1,87.1,-172.6,87.1c0,0,-111.5,0,-175.7,-85.5c0,0,-64.2,-85.6,-64.2,-236.8c0,0,0,-149.8,64.2,-235.3c0,0,64.2,-85.6,175.7,-85.6Zm0,-116c0,0,-180.3,0,-281.1,116C186.4,94.7,84,210.8,84,415.6c0,0,0,206.2,100.9,322.3c0,0,102.3,117.7,282.6,117.7c0,0,178.8,0,281.1,-116.2c0,0,102.4,-117.6,102.4,-323.8c0,0,0,-204.8,-102.4,-320.9c0,0,-102.3,-116,-281.1,-116Z" 
	id="f2_7"
	transform="scale(0.001,-0.001)" />

	<path d="M137.5,0l0,834.2l139,0l0,-129.9c0,0,45.9,77.9,111.6,114.6c0,0,65.7,36.7,155.8,36.7c0,0,91.7,0,154.3,-45.9c0,0,64.2,-47.3,96.2,-135.9c0,0,50.5,93.1,122.3,137.5c0,0,71.8,44.3,168,44.3c0,0,131.4,0,201.7,-91.7c0,0,71.8,-91.7,71.8,-259.7L1358.2,0l-139,0l0,499.6c0,0,0,119.2,-41.3,177.2c0,0,-42.8,58.1,-129.8,58.1c0,0,-107,0,-168.1,-70.3c0,0,-62.6,-70.3,-62.6,-192.5L817.4,0L678.3,0l0,499.6c0,0,0,120.7,-41.2,177.2c0,0,-42.8,58.1,-131.4,58.1c0,0,-105.4,0,-166.5,-70.3c0,0,-62.7,-71.8,-62.7,-192.5L276.5,0Z" 
	id="f2_8"
	transform="scale(0.001,-0.001)" />

	<path d="M407.9,93.2c0,0,113.1,0,181.8,79.4c0,0,70.3,81,70.3,215.5l0,30.5l-137.5,0c0,0,-166.5,0,-230.7,-36.7c0,0,-64.2,-38.1,-64.2,-129.8c0,0,0,-73.3,47.4,-116.1c0,0,48.9,-42.8,132.9,-42.8ZM371.3,-21.3c0,0,-128.4,0,-203.2,71.7c0,0,-76.4,71.8,-76.4,192.5c0,0,0,140.6,93.2,212.4c0,0,94.7,71.8,282.6,71.8l192.5,0l0,13.7c0,0,0,94.8,-62.6,145.2c0,0,-62.7,51.9,-175.7,51.9c0,0,-71.8,0,-139.1,-16.8c0,0,-67.2,-16.8,-129.8,-51.9l0,126.8c0,0,74.8,30.5,145.1,44.3c0,0,71.8,15.3,139,15.3c0,0,180.3,0,268.9,-93.2c0,0,90.2,-94.8,90.2,-285.7L796,0L660,0l0,126.8c0,0,-47.4,-76.4,-117.6,-111.5c0,0,-70.3,-36.6,-171.1,-36.6Z" 
	id="f2_k"
	transform="scale(0.001,-0.001)" />

	<path d="M508.8,93.2c0,0,110,0,171.1,85.6c0,0,62.6,85.5,62.6,236.8c0,0,0,152.7,-61.1,238.3c0,0,-62.6,85.5,-172.6,85.5c0,0,-108.5,0,-169.6,-85.5c0,0,-62.7,-85.6,-62.7,-238.3c0,0,0,-151.3,61.1,-236.8c0,0,62.7,-85.6,171.2,-85.6ZM542.4,-21.3c0,0,-91.7,0,-157.4,35.1c0,0,-65.7,36.6,-108.5,111.5L276.5,0l-139,0l0,1159.6l139,0l0,-452.2c0,0,42.8,74.8,108.5,111.5c0,0,65.7,36.7,157.4,36.7c0,0,152.7,0,247.5,-120.7c0,0,96.2,-122.3,96.2,-319.3c0,0,0,-195.6,-94.7,-316.3c0,0,-96.3,-120.6,-249,-120.6Z" 
	id="f2_m"
	transform="scale(0.001,-0.001)" />

	<path d="M137.5,0l0,1159.6l139,0l0,-455.3c0,0,48.9,76.4,114.6,113.1c0,0,67.2,38.2,154.3,38.2c0,0,145.2,0,218.5,-88.7c0,0,73.3,-90.1,73.3,-262.7L837.2,0L699.7,0l0,499.6c0,0,0,117.6,-45.8,175.7c0,0,-45.8,59.6,-139,59.6c0,0,-110,0,-174.2,-70.3c0,0,-64.2,-70.3,-64.2,-192.5L276.5,0Z" 
	id="f2_f"
	transform="scale(0.001,-0.001)" />

	<path d="M357.5,0L44.3,834.2l145.1,0L450.7,132.9L711.9,834.2l146.7,0L543.9,0Z" 
	id="f2_q"
	transform="scale(0.001,-0.001)" />

	<path d="M458.3,93.2c0,0,110,0,172.7,85.6c0,0,62.6,85.5,62.6,236.8c0,0,0,152.7,-62.6,238.3c0,0,-62.7,85.5,-172.7,85.5c0,0,-108.4,0,-171.1,-85.5c0,0,-62.6,-85.6,-62.6,-238.3c0,0,0,-151.3,62.6,-236.8c0,0,62.7,-85.6,171.1,-85.6ZM424.7,-21.3c0,0,-151.2,0,-245.9,120.6C178.8,99.3,84,220,84,415.6c0,0,0,197,94.8,317.7c0,0,94.7,122.3,245.9,122.3c0,0,93.2,0,158.9,-36.7c0,0,65.7,-36.7,110,-111.5l0,452.2l136,0L829.6,0l-136,0l0,125.3c0,0,-44.3,-74.9,-110,-110c0,0,-65.7,-36.6,-158.9,-36.6Z" 
	id="f2_h"
	transform="scale(0.001,-0.001)" />

	<path d="M495,-21.3c0,0,-189.4,0,-299.4,117.6C195.6,96.3,84,215.4,84,415.6c0,0,0,204.7,111.6,322.3c0,0,113,117.7,308.6,117.7c0,0,62.6,0,122.2,-13.8c0,0,61.1,-13.7,117.6,-39.7l0,-128.3c0,0,-58,32,-116.1,47.3c0,0,-58,16.8,-119.1,16.8c0,0,-133,0,-206.3,-84c0,0,-74.9,-84,-74.9,-238.3c0,0,0,-152.8,73.4,-236.8c0,0,74.8,-84.1,207.8,-84.1c0,0,61.1,0,119.1,15.3c0,0,58.1,16.8,116.1,48.9L744,30.6c0,0,-56.5,-26,-117.6,-38.1c0,0,-62.6,-13.8,-131.4,-13.8Z" 
	id="f2_6"
	transform="scale(0.001,-0.001)" />

	<path d="M143,0l0,1159l138,0L281,0Z" 
	id="f2_a"
	transform="scale(0.001,-0.001)" />

	<path d="M161,0l0,189l158,0L319,0Z" 
	id="f2_1c"
	transform="scale(0.001,-0.001)" />

	<path d="M149.7,0l0,1113.8l201.7,0l495,-932l0,932l145.1,0L991.5,0L789.9,0l-495,930.4L294.9,0Z" 
	id="f2_11"
	transform="scale(0.001,-0.001)" />

	<path d="M601.9,99.3c0,0,163.5,0,258.2,122.2c0,0,96.3,123.8,96.3,333.1c0,0,0,210.8,-94.7,333c0,0,-96.3,123.8,-259.8,123.8c0,0,-165,0,-261.2,-122.2c0,0,-96.3,-123.8,-96.3,-334.6c0,0,0,-209.3,96.3,-331.5c0,0,96.2,-123.8,261.2,-123.8Zm0,-120.6c0,0,-235.2,0,-375.8,155.7c0,0,-140.5,155.9,-140.5,420.2c0,0,0,264.3,140.5,421.7c0,0,140.6,157.3,375.8,157.3c0,0,233.8,0,372.8,-157.3c0,0,140.6,-157.4,140.6,-421.7c0,0,0,-262.8,-139,-418.6c0,0,-140.6,-157.3,-374.4,-157.3Z" 
	id="f2_3"
	transform="scale(0.001,-0.001)" />

	<path d="M149,0l0,1113l705,0l0,-128l-555,0l0,-329l530,0l0,-126l-530,0l0,-404l567,0L866,0Z" 
	id="f2_1n"
	transform="scale(0.001,-0.001)" />

	<path d="M42.8,0L368.2,436.9L70.3,834.2l161.9,0L453.8,537.8L675.3,834.2l161.9,0L536.3,427.8L854,0L692.1,0L447.6,326.9L204.7,0Z" 
	id="f2_v"
	transform="scale(0.001,-0.001)" />

	<path d="M149,0l0,1113l150,0L299,0Z" 
	id="f2_u"
	transform="scale(0.001,-0.001)" />

	<path d="M0,-140.5L386.5,1113.8l126.8,0L126.8,-140.5Z" 
	id="f2_1l"
	transform="scale(0.001,-0.001)" />

	<path d="M559.2,-21.3c0,0,-210.9,0,-319.3,109.9c0,0,-108.5,111.5,-108.5,328.5l0,696.7l152.8,0l0,-676.9c0,0,0,-180.2,64.1,-258.1c0,0,64.2,-79.5,210.9,-79.5c0,0,143.6,0,207.7,77.9c0,0,65.7,79.5,65.7,259.7l0,676.9l152.8,0l0,-696.7c0,0,0,-217,-108.5,-327c0,0,-108.4,-111.4,-317.7,-111.4Z" 
	id="f2_p"
	transform="scale(0.001,-0.001)" />

	<path d="M508.8,93.2c0,0,110,0,171.1,85.6c0,0,62.6,85.5,62.6,236.8c0,0,0,152.7,-61.1,238.3c0,0,-62.6,85.5,-172.6,85.5c0,0,-108.5,0,-169.6,-85.5c0,0,-62.7,-85.6,-62.7,-238.3c0,0,0,-151.3,61.1,-236.8c0,0,62.7,-85.6,171.2,-85.6ZM137.5,-317.7l0,1151.9l139,0l0,-126.8c0,0,42.8,74.8,108.5,111.5c0,0,65.7,36.7,157.4,36.7c0,0,152.7,0,247.5,-120.7c0,0,96.2,-122.3,96.2,-319.3c0,0,0,-195.6,-94.7,-316.3c0,0,-96.3,-120.6,-249,-120.6c0,0,-91.7,0,-157.4,35.1c0,0,-65.7,36.6,-108.5,111.5l0,-443Z" 
	id="f2_9"
	transform="scale(0.001,-0.001)" />

	<path d="M481.3,123.8c0,0,230.6,0,337.6,103.8c0,0,106.9,103.9,106.9,330c0,0,0,223.1,-106.9,327c0,0,-107,103.9,-337.6,103.9l-181.9,0l0,-864.7ZM149.7,0l0,1113.8l308.6,0c0,0,323.9,0,475.2,-134.5c0,0,151.2,-136,151.2,-421.7c0,0,0,-288.7,-151.2,-423.2C933.5,134.4,780.7,0,458.3,0Z" 
	id="f2_16"
	transform="scale(0.001,-0.001)" />


</defs>
</svg>