<?xml version="1.0" encoding="UTF-8" standalone="no"?>
<!DOCTYPE svg PUBLIC "-//W3C//DTD SVG 1.1//EN"
"http://www.w3.org/Graphics/SVG/1.1/DTD/svg11.dtd">
<svg viewBox="0 0 1210 1210" version="1.1" xmlns="http://www.w3.org/2000/svg" xmlns:xlink="http://www.w3.org/1999/xlink">
<defs>
<style type="text/css"><![CDATA[
.g2_82{
fill: none;
stroke: #418AB3;
stroke-width: 2;
stroke-linecap: butt;
stroke-linejoin: miter;
stroke-miterlimit: 7;
}
.g3_82{
fill: none;
stroke: #0000EE;
stroke-width: 2;
stroke-linecap: butt;
stroke-linejoin: miter;
}
.g1_82{
fill: #FFFFFF;
}
]]></style>
</defs>
<path fill-rule="evenodd" d="M0,0L1210,0l0,1210L0,1210L0,0Z" class="g1_82" />
<path fill-rule="evenodd" d="M0,0L1210,0l0,1210L0,1210L0,0Z" class="g1_82" />
<path fill-rule="evenodd" d="M165,496.1l0,-2.3l0.2,-2.3l0.3,-2.3l0.4,-2.1l0.5,-2.3l0.7,-2.2l0.8,-2.3l0.8,-2l1,-2.1l1.1,-2l1.2,-2l1.3,-1.8l1.3,-1.8l1.6,-1.9l1.6,-1.5l1.6,-1.7l1.8,-1.3l1.8,-1.6l1.9,-1.2l1.9,-1.2l2,-1.1L191,456l2,-0.7l2.3,-0.8l2.1,-0.7l2.1,-0.5l2.3,-0.5l2.3,-0.3l2.3,-0.1l2.3,0l792.5,0l2.2,0l2.3,0.1l2.3,0.3l2.3,0.5l2.2,0.6l2.3,0.6l2.1,0.8l2,0.9l2.1,0.9l2,1.1l2,1.2l1.8,1.2l1.9,1.6l1.6,1.3l1.9,1.7l1.5,1.7l1.4,1.7l1.3,1.8l1.4,1.8l1.2,2l1.1,2l0.9,2.1l0.9,2l0.8,2.3l0.8,2.2l0.4,2.3l0.5,2.1l0.1,2.3l0.3,2.3l0,2.3l0.2,175.1l-0.2,2.2l-0.1,2.3l-0.3,2.3l-0.5,2.3l-0.4,2.2l-0.6,2.3l-0.8,2.1l-0.9,2l-1.1,2.1l-1.1,2l-1,2l-1.4,1.8l-1.4,1.9l-1.5,1.6l-1.5,1.9l-1.7,1.5l-1.8,1.4l-1.7,1.3l-2,1.4l-2,1.2l-2,1.1l-2,0.9l-2.1,0.9l-2.1,0.8l-2.3,0.8l-2.2,0.4l-2.3,0.5l-2.3,0.1l-2.3,0.3l-2.2,0L208.7,715l-2.3,-0.2l-2.3,-0.1l-2.3,-0.3l-2.3,-0.5l-2.1,-0.4l-2.1,-0.6L193,712.1l-2,-0.9l-2.2,-0.9l-2,-1.3l-1.9,-1L183,706.6l-1.8,-1.4l-1.8,-1.5l-1.6,-1.5l-1.6,-1.7l-1.6,-1.8L173.3,697L172,695l-1.2,-1.8L169.7,691l-1,-2l-0.8,-2.1l-0.8,-2.1l-0.7,-2.3l-0.5,-2.2L165.5,678l-0.3,-2.3L165,673.4l0,-2.2l0,-175.1Z" class="g1_82" />
<path d="M165,496.1l0,-2.3l0.2,-2.3l0.3,-2.3l0.4,-2.1l0.5,-2.3l0.7,-2.2l0.8,-2.3l0.8,-2l1,-2.1l1.1,-2l1.2,-2l1.3,-1.8l1.3,-1.8l1.6,-1.9l1.6,-1.5l1.6,-1.7l1.8,-1.3l1.8,-1.6l1.9,-1.2l1.9,-1.2l2,-1.1L191,456l2,-0.7l2.3,-0.8l2.1,-0.7l2.1,-0.5l2.3,-0.5l2.3,-0.3l2.3,-0.1l2.3,0l792.5,0l2.2,0l2.3,0.1l2.3,0.3l2.3,0.5l2.2,0.6l2.3,0.6l2.1,0.8l2,0.9l2.1,0.9l2,1.1l2,1.2l1.8,1.2l1.9,1.6l1.6,1.3l1.9,1.7l1.5,1.7l1.4,1.7l1.3,1.8l1.4,1.8l1.2,2l1.1,2l0.9,2.1l0.9,2l0.8,2.3l0.8,2.2l0.4,2.3l0.5,2.1l0.1,2.3l0.3,2.3l0,2.3l0.2,175.1l-0.2,2.2l-0.1,2.3l-0.3,2.3l-0.5,2.3l-0.4,2.2l-0.6,2.3l-0.8,2.1l-0.9,2l-1.1,2.1l-1.1,2l-1,2l-1.4,1.8l-1.4,1.9l-1.5,1.6l-1.5,1.9l-1.7,1.5l-1.8,1.4l-1.7,1.3l-2,1.4l-2,1.2l-2,1.1l-2,0.9l-2.1,0.9l-2.1,0.8l-2.3,0.8l-2.2,0.4l-2.3,0.5l-2.3,0.1l-2.3,0.3l-2.2,0L208.7,715l-2.3,-0.2l-2.3,-0.1l-2.3,-0.3l-2.3,-0.5l-2.1,-0.4l-2.1,-0.6L193,712.1l-2,-0.9l-2.2,-0.9l-2,-1.3l-1.9,-1L183,706.6l-1.8,-1.4l-1.8,-1.5l-1.6,-1.5l-1.6,-1.7l-1.6,-1.8L173.3,697L172,695l-1.2,-1.8L169.7,691l-1,-2l-0.8,-2.1l-0.8,-2.1l-0.7,-2.3l-0.5,-2.2L165.5,678l-0.3,-2.3L165,673.4l0,-2.2l0,-175.1Z" class="g2_82" />
<path d="M304,539l66,0" class="g3_82" />
<path d="M370,539l392,0" class="g3_82" />
<path d="M762,539l6,0" class="g3_82" />
<path d="M304,583l458,0" class="g3_82" />
<path d="M299,689l468,0" class="g3_82" />
<image x="82" y="54" width="815" height="341" xlink:href="img/1.png" />
</svg>