<?xml version="1.0" encoding="UTF-8" standalone="no"?>
<!DOCTYPE svg PUBLIC "-//W3C//DTD SVG 1.1//EN"
"http://www.w3.org/Graphics/SVG/1.1/DTD/svg11.dtd">
<svg viewBox="0 0 1100 825" version="1.1" xmlns="http://www.w3.org/2000/svg" xmlns:xlink="http://www.w3.org/1999/xlink">
<defs>
<style type="text/css"><![CDATA[
.g2_14{
fill: none;
stroke: #418AB3;
stroke-width: 2;
stroke-linecap: butt;
stroke-linejoin: miter;
stroke-miterlimit: 7;
}
.g1_14{
fill: #FFFFFF;
}
]]></style>
</defs>
<path fill-rule="evenodd" d="M0,0L1100,0l0,825L0,825L0,0Z" class="g1_14" />
<path fill-rule="evenodd" d="M0,0L1100,0l0,825L0,825L0,0Z" class="g1_14" />
<path fill-rule="evenodd" d="M910.1,15.3l0,-0.3l0,-0.2l0,-0.3l0.1,-0.3l0,-0.3l0,-0.3l0.2,-0.3l0.2,-0.2l0.1,-0.3l0.2,-0.3L911,12.4l0.2,-0.3l0.1,-0.3l0.2,-0.2l0.1,-0.1l0.3,-0.3L912.1,11l0.3,-0.2l0.1,-0.1l0.3,-0.2l0.4,-0.1l0.1,-0.2l0.3,0l0.3,-0.1l0.3,-0.2l0.2,0l0.3,0L915,9.8l0.3,0l0.3,0l167.6,0l0.3,0l0.3,0l0.3,0.1l0.3,0l0.3,0l0.2,0.2l0.3,0.1l0.3,0l0.3,0.2l0.1,0.1l0.4,0.2l0.3,0.1l0.1,0.2l0.2,0.2l0.3,0.3l0.1,0.1l0.2,0.3l0.1,0.2l0.3,0.3l0,0.1l0.2,0.3l0.1,0.3l0.2,0.2l0.1,0.3l0,0.3l0,0.3l0.2,0.3l0,0.3l0,0.2l0,0.3l0.1,22.3l0,0.3l-0.1,0.1l0,0.3l0,0.4l-0.2,0.3l0,0.3l-0.1,0.3l-0.2,0.3l0,0.1l-0.1,0.3l-0.2,0.2l-0.3,0.3l-0.1,0.1l-0.2,0.4l-0.1,0.1l-0.3,0.2l-0.2,0.3l-0.1,0.1l-0.3,0.2l-0.4,0.1l-0.1,0.2l-0.3,0.1l-0.3,0l-0.3,0.2l-0.2,0.1l-0.3,0l-0.3,0l-0.3,0l-0.3,0.2l-0.3,0l-167.6,0l-0.3,0l-0.3,0l-0.3,-0.2l-0.3,0l-0.2,0l-0.3,-0.1l-0.3,-0.2l-0.3,0l-0.1,-0.1l-0.4,-0.2l-0.3,-0.1L912.4,42l-0.3,-0.1l-0.2,-0.2l-0.3,-0.1l-0.1,-0.3l-0.2,-0.2l-0.1,-0.3L911,40.6l-0.1,-0.3L910.7,40l-0.1,-0.1l-0.2,-0.3l-0.2,-0.3l0,-0.3l0,-0.3l-0.1,-0.4l0,-0.3l0,-0.1l0,-0.3l0,-22.3Z" class="g1_14" />
<path d="M910.1,15.3l0,-0.3l0,-0.2l0,-0.3l0.1,-0.3l0,-0.3l0,-0.3l0.2,-0.3l0.2,-0.2l0.1,-0.3l0.2,-0.3L911,12.4l0.2,-0.3l0.1,-0.3l0.2,-0.2l0.1,-0.1l0.3,-0.3L912.1,11l0.3,-0.2l0.1,-0.1l0.3,-0.2l0.4,-0.1l0.1,-0.2l0.3,0l0.3,-0.1l0.3,-0.2l0.2,0l0.3,0L915,9.8l0.3,0l0.3,0l167.6,0l0.3,0l0.3,0l0.3,0.1l0.3,0l0.3,0l0.2,0.2l0.3,0.1l0.3,0l0.3,0.2l0.1,0.1l0.4,0.2l0.3,0.1l0.1,0.2l0.2,0.2l0.3,0.3l0.1,0.1l0.2,0.3l0.1,0.2l0.3,0.3l0,0.1l0.2,0.3l0.1,0.3l0.2,0.2l0.1,0.3l0,0.3l0,0.3l0.2,0.3l0,0.3l0,0.2l0,0.3l0.1,22.3l0,0.3l-0.1,0.1l0,0.3l0,0.4l-0.2,0.3l0,0.3l-0.1,0.3l-0.2,0.3l0,0.1l-0.1,0.3l-0.2,0.2l-0.3,0.3l-0.1,0.1l-0.2,0.4l-0.1,0.1l-0.3,0.2l-0.2,0.3l-0.1,0.1l-0.3,0.2l-0.4,0.1l-0.1,0.2l-0.3,0.1l-0.3,0l-0.3,0.2l-0.2,0.1l-0.3,0l-0.3,0l-0.3,0l-0.3,0.2l-0.3,0l-167.6,0l-0.3,0l-0.3,0l-0.3,-0.2l-0.3,0l-0.2,0l-0.3,-0.1l-0.3,-0.2l-0.3,0l-0.1,-0.1l-0.4,-0.2l-0.3,-0.1L912.4,42l-0.3,-0.1l-0.2,-0.2l-0.3,-0.1l-0.1,-0.3l-0.2,-0.2l-0.1,-0.3L911,40.6l-0.1,-0.3L910.7,40l-0.1,-0.1l-0.2,-0.3l-0.2,-0.3l0,-0.3l0,-0.3l-0.1,-0.4l0,-0.3l0,-0.1l0,-0.3l0,-22.3Z" class="g2_14" />
</svg>