<?xml version="1.0" encoding="UTF-8" standalone="no"?>
<!DOCTYPE svg PUBLIC "-//W3C//DTD SVG 1.1//EN"
"http://www.w3.org/Graphics/SVG/1.1/DTD/svg11.dtd">
<svg viewBox="0 0 1210 1265" version="1.1" xmlns="http://www.w3.org/2000/svg" xmlns:xlink="http://www.w3.org/1999/xlink">
<defs>
<style type="text/css"><![CDATA[
.g2_157{
fill: none;
stroke: #0000EE;
stroke-width: 2;
stroke-linecap: butt;
stroke-linejoin: miter;
}
.g3_157{
fill: none;
stroke: #418AB3;
stroke-width: 2;
stroke-linecap: butt;
stroke-linejoin: miter;
stroke-miterlimit: 7;
}
.g1_157{
fill: #FFFFFF;
}
]]></style>
</defs>
<path fill-rule="evenodd" d="M0,0L1210,0l0,1265L0,1265L0,0Z" class="g1_157" />
<path fill-rule="evenodd" d="M0,0L1210,0l0,1265L0,1265L0,0Z" class="g1_157" />
<path d="M152,286l33,0" class="g2_157" />
<image x="779" y="166" width="243" height="220" xlink:href="img/1.png" />
<path fill-rule="evenodd" d="M980.8,24.1l0,-0.1l0,-0.3l0,-0.2l0,-0.3L981,23.1l0,-0.3l0.1,-0.2l0,-0.3l0.2,-0.1l0.1,-0.4l0.2,-0.1l0.1,-0.2l0,-0.1l0.4,-0.2l0.1,-0.3l0.2,-0.1l0.1,-0.2l0.2,-0.1l0.3,0l0.1,-0.2l0.2,-0.1L983.4,20l0.3,0L984,19.9l0.2,0l0.1,-0.2l0.4,0l0.3,0l0.1,0l0.3,0l192.5,0l0.2,0l0.3,0l0.1,0l0.3,0l0.3,0.2l0.2,0l0.1,0.1l0.4,0l0.1,0.2l0.3,0.1l0.2,0.2l0.1,0l0.3,0.1l0.2,0.2l0.1,0.1l0.2,0.3l0.1,0.2l0.2,0.1l0.1,0.2l0,0.3l0.2,0.2l0.1,0.3l0,0.1l0.2,0.2l0,0.3l0.1,0.1l0,0.3l0,0.2l0,0.3l0,0.1l0.2,18.5l0,0.2l0,0.3l0,0.1l-0.2,0.3l0,0.2l0,0.3l-0.1,0.2l-0.2,0.3l0,0.1l-0.1,0.2l-0.2,0.3l-0.1,0.1l-0.2,0.2l-0.1,0.1l-0.2,0.3l-0.1,0l-0.2,0.3l-0.1,0l-0.3,0.2l-0.2,0.1l-0.1,0.2l-0.3,0.1l-0.2,0l-0.3,0.2l-0.2,0l-0.3,0.2l-0.3,0l-0.1,0l-0.2,0l-0.3,0L985.4,47.2l-0.3,0L985,47.1l-0.3,0l-0.4,0l-0.1,0L984,46.9l-0.3,0l-0.3,-0.2l-0.1,-0.1l-0.2,0L983,46.4l-0.3,-0.1l-0.2,-0.2L982.4,46l-0.2,-0.2l-0.1,-0.1l-0.4,-0.2l0,-0.3l-0.1,-0.1l-0.2,-0.2l-0.1,-0.3l-0.2,-0.1l0,-0.3L981,44l0,-0.3l-0.2,-0.2l0,-0.3l0,-0.1l0,-0.3l0,-0.2l0,-18.5Z" class="g1_157" />
<path d="M980.8,24.1l0,-0.1l0,-0.3l0,-0.2l0,-0.3L981,23.1l0,-0.3l0.1,-0.2l0,-0.3l0.2,-0.1l0.1,-0.4l0.2,-0.1l0.1,-0.2l0,-0.1l0.4,-0.2l0.1,-0.3l0.2,-0.1l0.1,-0.2l0.2,-0.1l0.3,0l0.1,-0.2l0.2,-0.1L983.4,20l0.3,0L984,19.9l0.2,0l0.1,-0.2l0.4,0l0.3,0l0.1,0l0.3,0l192.5,0l0.2,0l0.3,0l0.1,0l0.3,0l0.3,0.2l0.2,0l0.1,0.1l0.4,0l0.1,0.2l0.3,0.1l0.2,0.2l0.1,0l0.3,0.1l0.2,0.2l0.1,0.1l0.2,0.3l0.1,0.2l0.2,0.1l0.1,0.2l0,0.3l0.2,0.2l0.1,0.3l0,0.1l0.2,0.2l0,0.3l0.1,0.1l0,0.3l0,0.2l0,0.3l0,0.1l0.2,18.5l0,0.2l0,0.3l0,0.1l-0.2,0.3l0,0.2l0,0.3l-0.1,0.2l-0.2,0.3l0,0.1l-0.1,0.2l-0.2,0.3l-0.1,0.1l-0.2,0.2l-0.1,0.1l-0.2,0.3l-0.1,0l-0.2,0.3l-0.1,0l-0.3,0.2l-0.2,0.1l-0.1,0.2l-0.3,0.1l-0.2,0l-0.3,0.2l-0.2,0l-0.3,0.2l-0.3,0l-0.1,0l-0.2,0l-0.3,0L985.4,47.2l-0.3,0L985,47.1l-0.3,0l-0.4,0l-0.1,0L984,46.9l-0.3,0l-0.3,-0.2l-0.1,-0.1l-0.2,0L983,46.4l-0.3,-0.1l-0.2,-0.2L982.4,46l-0.2,-0.2l-0.1,-0.1l-0.4,-0.2l0,-0.3l-0.1,-0.1l-0.2,-0.2l-0.1,-0.3l-0.2,-0.1l0,-0.3L981,44l0,-0.3l-0.2,-0.2l0,-0.3l0,-0.1l0,-0.3l0,-0.2l0,-18.5Z" class="g3_157" />
</svg>