<?xml version="1.0" encoding="UTF-8" standalone="no"?>
<!DOCTYPE svg PUBLIC "-//W3C//DTD SVG 1.1//EN"
"http://www.w3.org/Graphics/SVG/1.1/DTD/svg11.dtd">
<svg viewBox="0 0 1100 825" version="1.1" xmlns="http://www.w3.org/2000/svg" xmlns:xlink="http://www.w3.org/1999/xlink">
<defs>
<style type="text/css"><![CDATA[
.g2_100{
fill: #418AB3;
}
.g4_100{
fill: none;
stroke: #000000;
stroke-width: 2;
stroke-linecap: butt;
stroke-linejoin: miter;
stroke-miterlimit: 7;
}
.g3_100{
fill: none;
stroke: #000000;
stroke-width: 1;
stroke-linecap: butt;
stroke-linejoin: miter;
stroke-miterlimit: 7;
}
.g5_100{
fill: none;
stroke: #000000;
stroke-width: 1;
stroke-linecap: butt;
stroke-linejoin: round;
}
.g1_100{
fill: #FFFFFF;
}
]]></style>
</defs>
<path fill-rule="evenodd" d="M0,0L1100,0l0,825L0,825L0,0Z" class="g1_100" />
<path fill-rule="evenodd" d="M0,0L1100,0l0,825L0,825L0,0Z" class="g1_100" />
<image x="753" y="777" width="303" height="38" xlink:href="img/1.png" />
<path fill-rule="evenodd" d="M262,144l165,0l0,87l-165,0l0,-87Z" class="g2_100" />
<path fill-rule="evenodd" d="M262,315l165,0l0,86l-165,0l0,-86Z" class="g2_100" />
<path d="M262.5,188.5l-58,0l0,-104l140,0l0,60" class="g3_100" />
<path fill-rule="evenodd" d="M330.6,130.8l13.9,-13.9l14.1,13.9l-14.1,14l-13.9,-14Z" class="g1_100" />
<path d="M330.6,130.8l13.9,-13.9l14.1,13.9l-14.1,14l-13.9,-14Z" class="g4_100" />
<path fill-rule="evenodd" d="M330.6,245.1L344.5,231l14.1,14.1L344.5,259L330.6,245.1Z" class="g1_100" />
<path d="M330.6,245.1L344.5,231l14.1,14.1L344.5,259L330.6,245.1Z" class="g4_100" />
<path d="M344.5,258.5l0,59" class="g3_100" />
<path d="M495.5,89.5l550,0l0,55l-550,0l0,-55Z" class="g5_100" />
</svg>