<?xml version="1.0" encoding="UTF-8" standalone="no"?>
<!DOCTYPE svg PUBLIC "-//W3C//DTD SVG 1.1//EN"
"http://www.w3.org/Graphics/SVG/1.1/DTD/svg11.dtd">
<svg viewBox="0 0 1210 1210" version="1.1" xmlns="http://www.w3.org/2000/svg" xmlns:xlink="http://www.w3.org/1999/xlink">
<defs>
<style type="text/css"><![CDATA[
.g2_110{
fill: none;
stroke: #418AB3;
stroke-width: 2;
stroke-linecap: butt;
stroke-linejoin: miter;
stroke-miterlimit: 7;
}
.g3_110{
fill: none;
stroke: #0000EE;
stroke-width: 2;
stroke-linecap: butt;
stroke-linejoin: miter;
}
.g1_110{
fill: #FFFFFF;
}
]]></style>
</defs>
<path fill-rule="evenodd" d="M0,0L1210,0l0,1210L0,1210L0,0Z" class="g1_110" />
<path fill-rule="evenodd" d="M0,0L1210,0l0,1210L0,1210L0,0Z" class="g1_110" />
<path fill-rule="evenodd" d="M210.8,432.2l0,-0.9l0,-0.9l0.2,-0.9l0.1,-0.8l0.2,-0.9l0.3,-0.8l0.3,-0.9l0.3,-0.8l0.5,-0.7l0.3,-0.8l0.4,-0.8l0.6,-0.7l0.5,-0.6l0.6,-0.8l0.6,-0.6l0.6,-0.6l0.6,-0.6l0.8,-0.5l0.8,-0.4l0.7,-0.7l0.8,-0.3l0.8,-0.4l0.7,-0.3l0.9,-0.3l0.8,-0.3l0.9,-0.2l0.8,-0.1l0.9,-0.2l0.9,0l0.9,0l695,0l0.9,0l1,0l0.9,0.2l0.7,0.1l1,0.2l0.9,0.3l0.7,0.3l0.8,0.3l0.8,0.4l0.7,0.3l0.8,0.7l0.8,0.4l0.7,0.5l0.6,0.6l0.6,0.6l0.7,0.6l0.6,0.8l0.4,0.6l0.6,0.7l0.3,0.8l0.5,0.8l0.5,0.7l0.3,0.8l0.3,0.9l0.3,0.8l0.1,0.9l0.2,0.8l0.1,0.9l0,0.9l0,0.9l0.2,67.1l-0.2,0l0,0.9l0,0.9l-0.1,0.9l-0.2,0.8l-0.1,0.9l-0.3,0.8l-0.3,0.9l-0.3,0.8l-0.5,0.7l-0.3,0.8l-0.5,0.7l-0.4,0.8l-0.6,0.8l-0.6,0.6l-0.7,0.6l-0.6,0.6l-0.6,0.6l-0.7,0.5l-0.8,0.4l-0.8,0.5l-0.7,0.5l-0.8,0.4l-0.8,0.3l-0.7,0.3l-0.9,0.2l-1,0.3l-0.7,0.1l-0.9,0l-1,0.2l-0.9,0l-695,0.1l0,-0.1l-0.9,0l-0.9,0l-0.9,-0.2l-0.8,-0.1l-0.9,-0.2l-0.8,-0.3L221.5,515l-0.7,-0.3L220,514.3l-0.8,-0.4l-0.7,-0.6l-0.8,-0.4l-0.8,-0.5l-0.6,-0.6l-0.6,-0.6l-0.6,-0.6L214.5,510L214,509.2l-0.6,-0.8L213,507.7l-0.3,-0.8l-0.5,-0.7l-0.3,-0.8l-0.3,-0.9l-0.3,-0.8l-0.2,-0.9L211,502l-0.2,-0.9l0,-0.9l0,-0.9l0,-67.1Z" class="g1_110" />
<path d="M210.8,432.2l0,-0.9l0,-0.9l0.2,-0.9l0.1,-0.8l0.2,-0.9l0.3,-0.8l0.3,-0.9l0.3,-0.8l0.5,-0.7l0.3,-0.8l0.4,-0.8l0.6,-0.7l0.5,-0.6l0.6,-0.8l0.6,-0.6l0.6,-0.6l0.6,-0.6l0.8,-0.5l0.8,-0.4l0.7,-0.7l0.8,-0.3l0.8,-0.4l0.7,-0.3l0.9,-0.3l0.8,-0.3l0.9,-0.2l0.8,-0.1l0.9,-0.2l0.9,0l0.9,0l695,0l0.9,0l1,0l0.9,0.2l0.7,0.1l1,0.2l0.9,0.3l0.7,0.3l0.8,0.3l0.8,0.4l0.7,0.3l0.8,0.7l0.8,0.4l0.7,0.5l0.6,0.6l0.6,0.6l0.7,0.6l0.6,0.8l0.4,0.6l0.6,0.7l0.3,0.8l0.5,0.8l0.5,0.7l0.3,0.8l0.3,0.9l0.3,0.8l0.1,0.9l0.2,0.8l0.1,0.9l0,0.9l0,0.9l0.2,67.1l-0.2,0l0,0.9l0,0.9l-0.1,0.9l-0.2,0.8l-0.1,0.9l-0.3,0.8l-0.3,0.9l-0.3,0.8l-0.5,0.7l-0.3,0.8l-0.5,0.7l-0.4,0.8l-0.6,0.8l-0.6,0.6l-0.7,0.6l-0.6,0.6l-0.6,0.6l-0.7,0.5l-0.8,0.4l-0.8,0.5l-0.7,0.5l-0.8,0.4l-0.8,0.3l-0.7,0.3l-0.9,0.2l-1,0.3l-0.7,0.1l-0.9,0l-1,0.2l-0.9,0l-695,0.1l0,-0.1l-0.9,0l-0.9,0l-0.9,-0.2l-0.8,-0.1l-0.9,-0.2l-0.8,-0.3L221.5,515l-0.7,-0.3L220,514.3l-0.8,-0.4l-0.7,-0.6l-0.8,-0.4l-0.8,-0.5l-0.6,-0.6l-0.6,-0.6l-0.6,-0.6L214.5,510L214,509.2l-0.6,-0.8L213,507.7l-0.3,-0.8l-0.5,-0.7l-0.3,-0.8l-0.3,-0.9l-0.3,-0.8l-0.2,-0.9L211,502l-0.2,-0.9l0,-0.9l0,-0.9l0,-67.1Z" class="g2_110" />
<path d="M270,491l472,0" class="g3_110" />
</svg>