<?xml version="1.0" encoding="UTF-8" standalone="no"?>
<!DOCTYPE svg PUBLIC "-//W3C//DTD SVG 1.1//EN"
"http://www.w3.org/Graphics/SVG/1.1/DTD/svg11.dtd">
<svg viewBox="0 0 1210 1045" version="1.1" xmlns="http://www.w3.org/2000/svg" xmlns:xlink="http://www.w3.org/1999/xlink">
<defs>
<style type="text/css"><![CDATA[
.g2_24{
fill: none;
stroke: #418AB3;
stroke-width: 2;
stroke-linecap: butt;
stroke-linejoin: miter;
stroke-miterlimit: 7;
}
.g1_24{
fill: #FFFFFF;
}
]]></style>
</defs>
<path fill-rule="evenodd" d="M0,0L1210,0l0,1045L0,1045L0,0Z" class="g1_24" />
<path fill-rule="evenodd" d="M0,0L1210,0l0,1045L0,1045L0,0Z" class="g1_24" />
<image x="828" y="984" width="334" height="49" xlink:href="img/1.png" />
<path fill-rule="evenodd" d="M165.6,110l786.1,0l100.8,100.8l0,504.2l-886.9,0l0,-605Z" class="g1_24" />
<path d="M165.6,110l786.1,0l100.8,100.8l0,504.2l-886.9,0l0,-605Z" class="g2_24" />
<path fill-rule="evenodd" d="M979.8,15.3l0,-0.3l0,-0.3l0,-0.3l0.1,-0.3l0,-0.3l0.2,-0.4l0,-0.3l0.1,-0.3l0.2,-0.3l0.1,-0.3l0.2,-0.3l0.1,-0.1l0.3,-0.3l0.2,-0.3L981.4,11l0.3,-0.3l0.4,-0.2l0.1,-0.1l0.3,-0.2l0.3,-0.3l0.3,-0.1l0.3,-0.2l0.2,0l0.3,-0.1l0.4,0l0.4,-0.2l0.3,0l0.3,-0.1l0.3,0l0.3,0l189.4,0l0.3,0l0.3,0l0.3,0.1l0.3,0l0.3,0.2l0.4,0l0.3,0.1l0.3,0l0.3,0.3l0.3,0l0.1,0.3l0.3,0.2l0.3,0.1l0.2,0.3l0.3,0.2l0.2,0.2l0.3,0.3l0.1,0.3l0.2,0.3l0.1,0.1l0.2,0.3l0.1,0.3l0.2,0.3l0,0.3l0.1,0.4l0,0.3l0.2,0.3l0,0.3l0,0.3l0,0.3l0.1,24.4l0,0.3l-0.1,0.3l0,0.3l0,0.3l-0.2,0.4l0,0.3l-0.1,0.3l-0.2,0.3l-0.1,0.3l-0.2,0.3l-0.1,0.1l-0.2,0.3l-0.1,0.3l-0.3,0.3l-0.2,0.2l-0.3,0.2l-0.2,0.3l-0.3,0.1l-0.3,0.2l-0.1,0.1l-0.3,0.2l-0.3,0.1l-0.3,0.2l-0.3,0.1l-0.4,0l-0.3,0.2l-0.3,0l-0.3,0l-0.3,0.1l-0.3,0l-189.4,0l-0.3,0l-0.3,0L985,45.7l-0.3,0l-0.4,-0.2l-0.4,0l-0.3,-0.1l-0.2,0l-0.3,-0.2l-0.3,-0.1l-0.3,-0.3l-0.3,-0.2l-0.1,-0.1l-0.4,-0.2L981.4,44l-0.1,-0.2l-0.2,-0.3l-0.3,-0.3l-0.1,-0.1l-0.2,-0.3l-0.1,-0.3l-0.2,-0.3l-0.1,-0.3l0,-0.3l-0.2,-0.3l0,-0.4l-0.1,-0.3l0,-0.3l0,-0.3l0,-0.3l0,-24.4Z" class="g1_24" />
<path d="M979.8,15.3l0,-0.3l0,-0.3l0,-0.3l0.1,-0.3l0,-0.3l0.2,-0.4l0,-0.3l0.1,-0.3l0.2,-0.3l0.1,-0.3l0.2,-0.3l0.1,-0.1l0.3,-0.3l0.2,-0.3L981.4,11l0.3,-0.3l0.4,-0.2l0.1,-0.1l0.3,-0.2l0.3,-0.3l0.3,-0.1l0.3,-0.2l0.2,0l0.3,-0.1l0.4,0l0.4,-0.2l0.3,0l0.3,-0.1l0.3,0l0.3,0l189.4,0l0.3,0l0.3,0l0.3,0.1l0.3,0l0.3,0.2l0.4,0l0.3,0.1l0.3,0l0.3,0.3l0.3,0l0.1,0.3l0.3,0.2l0.3,0.1l0.2,0.3l0.3,0.2l0.2,0.2l0.3,0.3l0.1,0.3l0.2,0.3l0.1,0.1l0.2,0.3l0.1,0.3l0.2,0.3l0,0.3l0.1,0.4l0,0.3l0.2,0.3l0,0.3l0,0.3l0,0.3l0.1,24.4l0,0.3l-0.1,0.3l0,0.3l0,0.3l-0.2,0.4l0,0.3l-0.1,0.3l-0.2,0.3l-0.1,0.3l-0.2,0.3l-0.1,0.1l-0.2,0.3l-0.1,0.3l-0.3,0.3l-0.2,0.2l-0.3,0.2l-0.2,0.3l-0.3,0.1l-0.3,0.2l-0.1,0.1l-0.3,0.2l-0.3,0.1l-0.3,0.2l-0.3,0.1l-0.4,0l-0.3,0.2l-0.3,0l-0.3,0l-0.3,0.1l-0.3,0l-189.4,0l-0.3,0l-0.3,0L985,45.7l-0.3,0l-0.4,-0.2l-0.4,0l-0.3,-0.1l-0.2,0l-0.3,-0.2l-0.3,-0.1l-0.3,-0.3l-0.3,-0.2l-0.1,-0.1l-0.4,-0.2L981.4,44l-0.1,-0.2l-0.2,-0.3l-0.3,-0.3l-0.1,-0.1l-0.2,-0.3l-0.1,-0.3l-0.2,-0.3l-0.1,-0.3l0,-0.3l-0.2,-0.3l0,-0.4l-0.1,-0.3l0,-0.3l0,-0.3l0,-0.3l0,-24.4Z" class="g2_24" />
</svg>