<?xml version="1.0" encoding="UTF-8" standalone="no"?>
<!DOCTYPE svg PUBLIC "-//W3C//DTD SVG 1.1//EN"
"http://www.w3.org/Graphics/SVG/1.1/DTD/svg11.dtd">
<svg viewBox="0 0 1210 1210" version="1.1" xmlns="http://www.w3.org/2000/svg" xmlns:xlink="http://www.w3.org/1999/xlink">
<defs>
<style type="text/css"><![CDATA[
.g2_40{
fill: none;
stroke: #418AB3;
stroke-width: 2;
stroke-linecap: butt;
stroke-linejoin: miter;
stroke-miterlimit: 7;
}
.g3_40{
fill: none;
stroke: #0000EE;
stroke-width: 2;
stroke-linecap: butt;
stroke-linejoin: miter;
}
.g1_40{
fill: #FFFFFF;
}
]]></style>
</defs>
<path fill-rule="evenodd" d="M0,0L1210,0l0,1210L0,1210L0,0Z" class="g1_40" />
<path fill-rule="evenodd" d="M0,0L1210,0l0,1210L0,1210L0,0Z" class="g1_40" />
<path fill-rule="evenodd" d="M160.9,126.2l0,-0.9l0,-0.8l0.1,-0.9l0.2,-0.8l0.1,-0.7l0.3,-0.9l0.3,-0.8l0.3,-0.8l0.4,-0.7l0.4,-0.8l0.5,-0.8l0.4,-0.6l0.5,-0.7l0.6,-0.7l0.6,-0.6l0.6,-0.6l0.6,-0.4l0.6,-0.6l0.8,-0.5l0.8,-0.5l0.7,-0.3l0.8,-0.4l0.8,-0.3l0.7,-0.3l0.8,-0.2l0.9,-0.3l0.8,-0.1l0.9,0l0.8,-0.2l0.9,0l837.5,0l0.9,0l0.8,0.2l0.7,0l1,0.1l0.9,0.3l0.7,0.2l0.8,0.3l0.8,0.3l0.7,0.4l0.8,0.3l0.8,0.5l0.6,0.5l0.7,0.6l0.6,0.4l0.7,0.6l0.6,0.6l0.4,0.7l0.6,0.7l0.5,0.6l0.5,0.8l0.3,0.8l0.4,0.7l0.3,0.8l0.3,0.8l0.2,0.9l0.1,0.7l0.2,1l0.1,0.7l0,0.8l0.2,0.9l0,64.8l0,0.9l-0.2,0.8l0,0.9l-0.1,0.7l-0.3,0.9L1030,196l-0.3,0.8l-0.3,0.7l-0.4,0.8l-0.3,0.8l-0.5,0.7l-0.5,0.6l-0.6,0.8l-0.4,0.6l-0.6,0.6l-0.7,0.6l-0.6,0.5l-0.7,0.6l-0.6,0.5l-0.8,0.4l-0.8,0.3l-0.7,0.5l-0.8,0.3l-0.8,0.3l-0.7,0.2l-0.9,0.3l-1,0l-0.7,0.1l-0.8,0.2l-0.9,0l-837.5,0l-0.9,0l-0.8,0L174.5,207l-0.8,-0.1l-0.9,-0.3L172,206.4l-0.7,-0.3l-0.8,-0.3l-0.8,-0.5L169,205l-0.8,-0.4l-0.8,-0.5l-0.6,-0.4L166.2,203l-0.6,-0.6L165,201.8l-0.6,-0.6l-0.5,-0.8l-0.4,-0.6L163,199.1l-0.4,-0.8l-0.4,-0.8l-0.3,-0.7L161.6,196l-0.3,-0.8l-0.1,-0.9L161,193.6l-0.1,-0.9l0,-0.8l0,-0.9l0,-64.8Z" class="g1_40" />
<path d="M160.9,126.2l0,-0.9l0,-0.8l0.1,-0.9l0.2,-0.8l0.1,-0.7l0.3,-0.9l0.3,-0.8l0.3,-0.8l0.4,-0.7l0.4,-0.8l0.5,-0.8l0.4,-0.6l0.5,-0.7l0.6,-0.7l0.6,-0.6l0.6,-0.6l0.6,-0.4l0.6,-0.6l0.8,-0.5l0.8,-0.5l0.7,-0.3l0.8,-0.4l0.8,-0.3l0.7,-0.3l0.8,-0.2l0.9,-0.3l0.8,-0.1l0.9,0l0.8,-0.2l0.9,0l837.5,0l0.9,0l0.8,0.2l0.7,0l1,0.1l0.9,0.3l0.7,0.2l0.8,0.3l0.8,0.3l0.7,0.4l0.8,0.3l0.8,0.5l0.6,0.5l0.7,0.6l0.6,0.4l0.7,0.6l0.6,0.6l0.4,0.7l0.6,0.7l0.5,0.6l0.5,0.8l0.3,0.8l0.4,0.7l0.3,0.8l0.3,0.8l0.2,0.9l0.1,0.7l0.2,1l0.1,0.7l0,0.8l0.2,0.9l0,64.8l0,0.9l-0.2,0.8l0,0.9l-0.1,0.7l-0.3,0.9L1030,196l-0.3,0.8l-0.3,0.7l-0.4,0.8l-0.3,0.8l-0.5,0.7l-0.5,0.6l-0.6,0.8l-0.4,0.6l-0.6,0.6l-0.7,0.6l-0.6,0.5l-0.7,0.6l-0.6,0.5l-0.8,0.4l-0.8,0.3l-0.7,0.5l-0.8,0.3l-0.8,0.3l-0.7,0.2l-0.9,0.3l-1,0l-0.7,0.1l-0.8,0.2l-0.9,0l-837.5,0l-0.9,0l-0.8,0L174.5,207l-0.8,-0.1l-0.9,-0.3L172,206.4l-0.7,-0.3l-0.8,-0.3l-0.8,-0.5L169,205l-0.8,-0.4l-0.8,-0.5l-0.6,-0.4L166.2,203l-0.6,-0.6L165,201.8l-0.6,-0.6l-0.5,-0.8l-0.4,-0.6L163,199.1l-0.4,-0.8l-0.4,-0.8l-0.3,-0.7L161.6,196l-0.3,-0.8l-0.1,-0.9L161,193.6l-0.1,-0.9l0,-0.8l0,-0.9l0,-64.8Z" class="g2_40" />
<path d="M287,184l462,0" class="g3_40" />
</svg>