<?xml version="1.0" encoding="UTF-8" standalone="no"?>
<!DOCTYPE svg PUBLIC "-//W3C//DTD SVG 1.1//EN"
"http://www.w3.org/Graphics/SVG/1.1/DTD/svg11.dtd">
<svg viewBox="0 0 1210 1210" version="1.1" xmlns="http://www.w3.org/2000/svg" xmlns:xlink="http://www.w3.org/1999/xlink">
<defs>
<style type="text/css"><![CDATA[
.g2_145{
fill: none;
stroke: #418AB3;
stroke-width: 2;
stroke-linecap: butt;
stroke-linejoin: miter;
stroke-miterlimit: 7;
}
.g1_145{
fill: #FFFFFF;
}
]]></style>
</defs>
<path fill-rule="evenodd" d="M0,0L1210,0l0,1210L0,1210L0,0Z" class="g1_145" />
<path fill-rule="evenodd" d="M0,0L1210,0l0,1210L0,1210L0,0Z" class="g1_145" />
<path fill-rule="evenodd" d="M880.5,23.5l0,-0.3l0,-0.4l0,-0.5l0.1,-0.5l0.2,-0.4l0,-0.5l0.1,-0.3l0.2,-0.4l0.3,-0.3l0.1,-0.5l0.2,-0.5L882,18.6l0.3,-0.3L882.6,18l0.3,-0.3l0.3,-0.3l0.3,-0.3l0.3,-0.3l0.3,-0.3l0.5,-0.2L885,16l0.3,-0.1l0.5,-0.2l0.5,-0.1l0.3,-0.2l0.4,0l0.5,-0.1l0.4,0l0.5,-0.2l0.5,0l293.3,0l0.5,0l0.4,0.2l0.5,0l0.4,0.1l0.3,0l0.5,0.2l0.4,0.1l0.5,0.2L1186,16l0.5,0.3l0.3,0.4l0.4,0.1l0.3,0.3l0.3,0.3l0.4,0.3l0.3,0.3l0.3,0.3l0.3,0.3l0.1,0.5l0.3,0.3l0.2,0.5l0.1,0.3l0.2,0.4l0.1,0.3l0.2,0.5l0.1,0.4l0,0.5l0.2,0.5l0,0.4l0,0.3l0.2,33.6l-0.2,0l0,0.5l0,0.5l-0.2,0.4l0,0.5l-0.1,0.3l-0.2,0.4l0,0.5l-0.3,0.5l-0.1,0.3l-0.2,0.4l-0.3,0.3l-0.1,0.3l-0.3,0.5l-0.3,0.3l-0.3,0.3l-0.4,0.3l-0.3,0.3l-0.3,0.2l-0.4,0.3l-0.3,0.3l-0.5,0.1l-0.3,0.2l-0.5,0.1l-0.4,0.2l-0.5,0.1l-0.3,0.2l-0.4,0l-0.5,0.1l-0.4,0l-0.5,0l-293.3,0l-0.5,0l-0.5,0l-0.4,0L887,65.4l-0.4,-0.2l-0.3,0l-0.5,-0.3l-0.5,-0.1L885,64.6l-0.4,-0.1l-0.5,-0.3L883.8,64l-0.3,-0.3l-0.3,-0.3l-0.3,-0.3l-0.3,-0.3l-0.3,-0.3L882,62l-0.3,-0.3l-0.2,-0.3L881.4,61l-0.3,-0.3l-0.2,-0.5l-0.1,-0.5l0,-0.4L880.6,59l-0.1,-0.5l0,-0.4l0,-0.5l0,-0.5l0,-33.6Z" class="g1_145" />
<path d="M880.5,23.5l0,-0.3l0,-0.4l0,-0.5l0.1,-0.5l0.2,-0.4l0,-0.5l0.1,-0.3l0.2,-0.4l0.3,-0.3l0.1,-0.5l0.2,-0.5L882,18.6l0.3,-0.3L882.6,18l0.3,-0.3l0.3,-0.3l0.3,-0.3l0.3,-0.3l0.3,-0.3l0.5,-0.2L885,16l0.3,-0.1l0.5,-0.2l0.5,-0.1l0.3,-0.2l0.4,0l0.5,-0.1l0.4,0l0.5,-0.2l0.5,0l293.3,0l0.5,0l0.4,0.2l0.5,0l0.4,0.1l0.3,0l0.5,0.2l0.4,0.1l0.5,0.2L1186,16l0.5,0.3l0.3,0.4l0.4,0.1l0.3,0.3l0.3,0.3l0.4,0.3l0.3,0.3l0.3,0.3l0.3,0.3l0.1,0.5l0.3,0.3l0.2,0.5l0.1,0.3l0.2,0.4l0.1,0.3l0.2,0.5l0.1,0.4l0,0.5l0.2,0.5l0,0.4l0,0.3l0.2,33.6l-0.2,0l0,0.5l0,0.5l-0.2,0.4l0,0.5l-0.1,0.3l-0.2,0.4l0,0.5l-0.3,0.5l-0.1,0.3l-0.2,0.4l-0.3,0.3l-0.1,0.3l-0.3,0.5l-0.3,0.3l-0.3,0.3l-0.4,0.3l-0.3,0.3l-0.3,0.2l-0.4,0.3l-0.3,0.3l-0.5,0.1l-0.3,0.2l-0.5,0.1l-0.4,0.2l-0.5,0.1l-0.3,0.2l-0.4,0l-0.5,0.1l-0.4,0l-0.5,0l-293.3,0l-0.5,0l-0.5,0l-0.4,0L887,65.4l-0.4,-0.2l-0.3,0l-0.5,-0.3l-0.5,-0.1L885,64.6l-0.4,-0.1l-0.5,-0.3L883.8,64l-0.3,-0.3l-0.3,-0.3l-0.3,-0.3l-0.3,-0.3l-0.3,-0.3L882,62l-0.3,-0.3l-0.2,-0.3L881.4,61l-0.3,-0.3l-0.2,-0.5l-0.1,-0.5l0,-0.4L880.6,59l-0.1,-0.5l0,-0.4l0,-0.5l0,-0.5l0,-33.6Z" class="g2_145" />
</svg>