<?xml version="1.0" encoding="UTF-8" standalone="no"?>
<!DOCTYPE svg PUBLIC "-//W3C//DTD SVG 1.1//EN"
"http://www.w3.org/Graphics/SVG/1.1/DTD/svg11.dtd">
<svg viewBox="0 0 1155 1210" version="1.1" xmlns="http://www.w3.org/2000/svg" xmlns:xlink="http://www.w3.org/1999/xlink">
<defs>
<clipPath id="c0_49"><path d="M0.5,1210.5L0.5,0.5l1155,0l0,1210Z" /></clipPath>
<style type="text/css"><![CDATA[
.g2_49{
fill: none;
stroke: #418AB3;
stroke-width: 2;
stroke-linecap: butt;
stroke-linejoin: miter;
stroke-miterlimit: 7;
}
.g1_49{
fill: #FFFFFF;
}
]]></style>
</defs>
<path fill-rule="evenodd" d="M0,0L1155,0l0,1210L0,1210L0,0Z" class="g1_49" />
<path fill-rule="evenodd" d="M0,0L1155,0l0,1210L0,1210L0,0Z" class="g1_49" />
<image x="790" y="1140" width="319" height="55" xlink:href="img/1.png" />
<g clip-path="url(#c0_49)">
<g fill="#626262" >
<use xlink:href="#f0_16" transform="matrix(40,0,0,40,299.6,368.5)" />
<use xlink:href="#f0_1n" transform="matrix(40,0,0,40,346.8,368.5)" />
<use xlink:href="#f0_21" transform="matrix(40,0,0,40,385.4,368.5)" />
<use xlink:href="#f0_1n" transform="matrix(40,0,0,40,419.4,368.5)" />
<use xlink:href="#f0_1g" transform="matrix(40,0,0,40,458.1,368.5)" />
<use xlink:href="#f0_1n" transform="matrix(40,0,0,40,495.3,368.5)" />
<use xlink:href="#f0_3" transform="matrix(40,0,0,40,553.3,368.5)" />
<use xlink:href="#f0_9" transform="matrix(40,0,0,40,601.5,368.5)" />
<use xlink:href="#f0_b" transform="matrix(40,0,0,40,640.2,368.5)" />
<use xlink:href="#f0_l" transform="matrix(40,0,0,40,677.8,368.5)" />
<use xlink:href="#f0_k" transform="matrix(40,0,0,40,702.9,368.5)" />
<use xlink:href="#f0_c" transform="matrix(40,0,0,40,740.2,368.5)" />
<use xlink:href="#f0_d" transform="matrix(40,0,0,40,764.3,368.5)" />
<use xlink:href="#f0_7" transform="matrix(40,0,0,40,781.1,368.5)" />
<use xlink:href="#f0_4" transform="matrix(40,0,0,40,818.4,368.5)" />
<use xlink:href="#f0_z" transform="matrix(32,0,0,32,466,265.7)" />
<use xlink:href="#f0_b" transform="matrix(32,0,0,32,497.1,265.7)" />
<use xlink:href="#f0_6" transform="matrix(32,0,0,32,527.2,265.7)" />
<use xlink:href="#f0_c" transform="matrix(32,0,0,32,554,265.7)" />
<use xlink:href="#f0_d" transform="matrix(32,0,0,32,573.1,265.7)" />
<use xlink:href="#f0_7" transform="matrix(32,0,0,32,586.7,265.7)" />
<use xlink:href="#f0_4" transform="matrix(32,0,0,32,616.7,265.7)" />
<use xlink:href="#f0_17" transform="matrix(32,0,0,32,663.1,265.7)" />
</g>
</g>
<path fill-rule="evenodd" d="M852.5,34.7l0,-0.3l0,-0.5l0.2,-0.3l0,-0.4l0.1,-0.4l0,-0.3L853,32.1l0.1,-0.3l0.2,-0.3l0.3,-0.3l0.1,-0.3l0.2,-0.5L854,30.1l0.3,-0.2l0.3,-0.3l0.3,-0.3L855.2,29l0.4,-0.1l0.3,-0.3l0.3,-0.2l0.3,-0.1l0.3,-0.2L857.2,28l0.3,-0.2l0.3,-0.1l0.5,0l0.3,-0.2l0.5,0l0.3,0l0.4,0l256.5,0l0.5,0l0.3,0l0.5,0l0.3,0.2l0.4,0l0.3,0.1l0.3,0.2l0.5,0.1l0.3,0.2l0.3,0.1l0.3,0.2l0.3,0.3l0.3,0.1l0.3,0.3l0.3,0.3l0.3,0.3l0.2,0.3l0.3,0.4l0.2,0.3l0.3,0.3l0.1,0.3l0.2,0.3l0.1,0.3l0.2,0.4l0,0.3l0.1,0.4l0,0.4l0,0.5l0.2,0.3l0,0.3l0,29.2l0,0.4l0,0.3l-0.2,0.3l0,0.5l-0.1,0.3l0,0.5l-0.2,0.3l-0.1,0.3l-0.2,0.4l-0.1,0.3l-0.3,0.3l-0.2,0.3l-0.3,0.3l-0.2,0.4l-0.3,0.3l-0.3,0.1l-0.3,0.3l-0.3,0.2l-0.3,0.3l-0.3,0.1l-0.3,0.2l-0.3,0.1l-0.5,0.2l-0.3,0.1l-0.3,0.2l-0.4,0l-0.3,0.1l-0.5,0l-0.3,0l-0.5,0L859.8,71.2l-0.4,0L859.1,71l-0.5,0l-0.3,0l-0.5,-0.1l-0.3,-0.2l-0.3,0l-0.4,-0.3l-0.3,0l-0.3,-0.3L855.9,70l-0.3,-0.2l-0.4,-0.3l-0.3,-0.1l-0.3,-0.3l-0.3,-0.3L854,68.4l-0.1,-0.3l-0.2,-0.3l-0.1,-0.3l-0.3,-0.3l-0.2,-0.4L853,66.5l-0.2,-0.3l0,-0.5l-0.1,-0.3l0,-0.5l-0.2,-0.3l0,-0.3l0,-0.4l0,-29.2Z" class="g1_49" />
<path d="M852.5,34.7l0,-0.3l0,-0.5l0.2,-0.3l0,-0.4l0.1,-0.4l0,-0.3L853,32.1l0.1,-0.3l0.2,-0.3l0.3,-0.3l0.1,-0.3l0.2,-0.5L854,30.1l0.3,-0.2l0.3,-0.3l0.3,-0.3L855.2,29l0.4,-0.1l0.3,-0.3l0.3,-0.2l0.3,-0.1l0.3,-0.2L857.2,28l0.3,-0.2l0.3,-0.1l0.5,0l0.3,-0.2l0.5,0l0.3,0l0.4,0l256.5,0l0.5,0l0.3,0l0.5,0l0.3,0.2l0.4,0l0.3,0.1l0.3,0.2l0.5,0.1l0.3,0.2l0.3,0.1l0.3,0.2l0.3,0.3l0.3,0.1l0.3,0.3l0.3,0.3l0.3,0.3l0.2,0.3l0.3,0.4l0.2,0.3l0.3,0.3l0.1,0.3l0.2,0.3l0.1,0.3l0.2,0.4l0,0.3l0.1,0.4l0,0.4l0,0.5l0.2,0.3l0,0.3l0,29.2l0,0.4l0,0.3l-0.2,0.3l0,0.5l-0.1,0.3l0,0.5l-0.2,0.3l-0.1,0.3l-0.2,0.4l-0.1,0.3l-0.3,0.3l-0.2,0.3l-0.3,0.3l-0.2,0.4l-0.3,0.3l-0.3,0.1l-0.3,0.3l-0.3,0.2l-0.3,0.3l-0.3,0.1l-0.3,0.2l-0.3,0.1l-0.5,0.2l-0.3,0.1l-0.3,0.2l-0.4,0l-0.3,0.1l-0.5,0l-0.3,0l-0.5,0L859.8,71.2l-0.4,0L859.1,71l-0.5,0l-0.3,0l-0.5,-0.1l-0.3,-0.2l-0.3,0l-0.4,-0.3l-0.3,0l-0.3,-0.3L855.9,70l-0.3,-0.2l-0.4,-0.3l-0.3,-0.1l-0.3,-0.3l-0.3,-0.3L854,68.4l-0.1,-0.3l-0.2,-0.3l-0.1,-0.3l-0.3,-0.3l-0.2,-0.4L853,66.5l-0.2,-0.3l0,-0.5l-0.1,-0.3l0,-0.5l-0.2,-0.3l0,-0.3l0,-0.4l0,-29.2Z" class="g2_49" />
<g clip-path="url(#c0_49)">
<g fill="#838383" >
<use xlink:href="#f0_16" transform="matrix(13.4,0,0,13.4,875.1,57.4)" />
<use xlink:href="#f0_i" transform="matrix(13.4,0,0,13.4,890.9,57.4)" />
<use xlink:href="#f0_l" transform="matrix(13.4,0,0,13.4,903.7,57.4)" />
<use xlink:href="#f0_k" transform="matrix(13.4,0,0,13.4,912.1,57.4)" />
<use xlink:href="#f0_c" transform="matrix(13.4,0,0,13.4,924.7,57.4)" />
<use xlink:href="#f0_d" transform="matrix(13.4,0,0,13.4,932.8,57.4)" />
<use xlink:href="#f0_7" transform="matrix(13.4,0,0,13.4,938.5,57.4)" />
<use xlink:href="#f0_4" transform="matrix(13.4,0,0,13.4,951,57.4)" />
<use xlink:href="#f0_n" transform="matrix(13.4,0,0,13.4,970.1,57.4)" />
<use xlink:href="#f0_2" transform="matrix(13.4,0,0,13.4,983.4,57.4)" />
<use xlink:href="#f0_f" transform="matrix(13.4,0,0,13.4,1002.8,57.4)" />
<use xlink:href="#f0_l" transform="matrix(13.4,0,0,13.4,1015.6,57.4)" />
<use xlink:href="#f0_2" transform="matrix(13.4,0,0,13.4,1030.4,57.4)" />
<use xlink:href="#f0_14" transform="matrix(13.4,0,0,13.4,1043.4,57.4)" />
<use xlink:href="#f0_8" transform="matrix(13.4,0,0,13.4,1062.8,57.4)" />
<use xlink:href="#f0_d" transform="matrix(13.4,0,0,13.4,1082.5,57.4)" />
<use xlink:href="#f0_4" transform="matrix(13.4,0,0,13.4,1088.1,57.4)" />
</g>
</g>
<defs>
	<path d="M481.3,123.8c0,0,230.6,0,337.6,103.8c0,0,106.9,103.9,106.9,330c0,0,0,223.1,-106.9,327c0,0,-107,103.9,-337.6,103.9l-181.9,0l0,-864.7ZM149.7,0l0,1113.8l308.6,0c0,0,323.9,0,475.2,-134.5c0,0,151.2,-136,151.2,-421.7c0,0,0,-288.7,-151.2,-423.2C933.5,134.4,780.7,0,458.3,0Z" 
	id="f0_16"
	transform="scale(0.001,-0.001)" />

	<path d="M149,0l0,1113l705,0l0,-128l-555,0l0,-329l530,0l0,-126l-530,0l0,-404l567,0L866,0Z" 
	id="f0_1n"
	transform="scale(0.001,-0.001)" />

	<path d="M149,0l0,1113l150,0l0,-987l542,0L841,0Z" 
	id="f0_21"
	transform="scale(0.001,-0.001)" />

	<path d="M389,0l0,985L-3,985l0,128l939,0l0,-128l-396,0L540,0Z" 
	id="f0_1g"
	transform="scale(0.001,-0.001)" />

	<path d="M601.9,99.3c0,0,163.5,0,258.2,122.2c0,0,96.3,123.8,96.3,333.1c0,0,0,210.8,-94.7,333c0,0,-96.3,123.8,-259.8,123.8c0,0,-165,0,-261.2,-122.2c0,0,-96.3,-123.8,-96.3,-334.6c0,0,0,-209.3,96.3,-331.5c0,0,96.2,-123.8,261.2,-123.8Zm0,-120.6c0,0,-235.2,0,-375.8,155.7c0,0,-140.5,155.9,-140.5,420.2c0,0,0,264.3,140.5,421.7c0,0,140.6,157.3,375.8,157.3c0,0,233.8,0,372.8,-157.3c0,0,140.6,-157.4,140.6,-421.7c0,0,0,-262.8,-139,-418.6c0,0,-140.6,-157.3,-374.4,-157.3Z" 
	id="f0_3"
	transform="scale(0.001,-0.001)" />

	<path d="M508.8,93.2c0,0,110,0,171.1,85.6c0,0,62.6,85.5,62.6,236.8c0,0,0,152.7,-61.1,238.3c0,0,-62.6,85.5,-172.6,85.5c0,0,-108.5,0,-169.6,-85.5c0,0,-62.7,-85.6,-62.7,-238.3c0,0,0,-151.3,61.1,-236.8c0,0,62.7,-85.6,171.2,-85.6ZM137.5,-317.7l0,1151.9l139,0l0,-126.8c0,0,42.8,74.8,108.5,111.5c0,0,65.7,36.7,157.4,36.7c0,0,152.7,0,247.5,-120.7c0,0,96.2,-122.3,96.2,-319.3c0,0,0,-195.6,-94.7,-316.3c0,0,-96.3,-120.6,-249,-120.6c0,0,-91.7,0,-157.4,35.1c0,0,-65.7,36.6,-108.5,111.5l0,-443Z" 
	id="f0_9"
	transform="scale(0.001,-0.001)" />

	<path d="M230.7,490.4l490.4,1.5c0,0,-1.5,111.6,-62.6,178.8c0,0,-62.7,67.2,-163.5,67.2c0,0,-114.6,0,-183.3,-64.1c0,0,-70.3,-65.7,-81,-183.4ZM516.4,-21.3c0,0,-198.6,0,-314.7,116C201.7,94.7,84,210.8,84,409.4c0,0,0,204.8,110,325.5c0,0,111.6,120.7,299.5,120.7c0,0,168,0,265.8,-108.5c0,0,99.3,-110,99.3,-296.4l0,-67.2l-632.5,0c0,0,9.2,-140.6,85.6,-213.9c0,0,76.4,-74.9,213.9,-74.9c0,0,77.9,0,152.7,18.4c0,0,74.9,19.8,148.2,58l0,-129.8c0,0,-74.8,-30.6,-151.2,-45.8c0,0,-77.9,-16.8,-158.9,-16.8Z" 
	id="f0_b"
	transform="scale(0.001,-0.001)" />

	<path d="M137.5,0l0,834.2l139,0l0,-129.9c0,0,42.8,76.4,111.6,113.1c0,0,70.2,38.2,169.5,38.2c0,0,13.8,0,30.6,-1.6c0,0,16.8,-3,38.2,-6.1l1.5,-142.1c0,0,-24.4,13.8,-50.4,19.9c0,0,-27.5,6.1,-61.1,6.1c0,0,-116.1,0,-177.2,-74.9c0,0,-62.7,-76.3,-62.7,-216.9l0,-440Z" 
	id="f0_l"
	transform="scale(0.001,-0.001)" />

	<path d="M407.9,93.2c0,0,113.1,0,181.8,79.4c0,0,70.3,81,70.3,215.5l0,30.5l-137.5,0c0,0,-166.5,0,-230.7,-36.7c0,0,-64.2,-38.1,-64.2,-129.8c0,0,0,-73.3,47.4,-116.1c0,0,48.9,-42.8,132.9,-42.8ZM371.3,-21.3c0,0,-128.4,0,-203.2,71.7c0,0,-76.4,71.8,-76.4,192.5c0,0,0,140.6,93.2,212.4c0,0,94.7,71.8,282.6,71.8l192.5,0l0,13.7c0,0,0,94.8,-62.6,145.2c0,0,-62.7,51.9,-175.7,51.9c0,0,-71.8,0,-139.1,-16.8c0,0,-67.2,-16.8,-129.8,-51.9l0,126.8c0,0,74.8,30.5,145.1,44.3c0,0,71.8,15.3,139,15.3c0,0,180.3,0,268.9,-93.2c0,0,90.2,-94.8,90.2,-285.7L796,0L660,0l0,126.8c0,0,-47.4,-76.4,-117.6,-111.5c0,0,-70.3,-36.6,-171.1,-36.6Z" 
	id="f0_k"
	transform="scale(0.001,-0.001)" />

	<path d="M420.1,0c0,0,-158.8,0,-218.4,58.1c0,0,-61.1,59.5,-61.1,216.9l0,453.8l-100.9,0l0,105.4l100.9,0l0,238.3l139,0l0,-238.3l282.6,0l0,-105.4l-282.6,0l0,-453.8c0,0,0,-102.4,27.5,-131.4c0,0,27.5,-29,113,-29l142.1,0L562.2,0Z" 
	id="f0_c"
	transform="scale(0.001,-0.001)" />

	<path d="M143,0l0,834l138,0L281,0Zm0,985l0,174l138,0l0,-174Z" 
	id="f0_d"
	transform="scale(0.001,-0.001)" />

	<path d="M467.5,94.7c0,0,108.5,0,172.6,85.6c0,0,64.2,87.1,64.2,235.3c0,0,0,149.7,-64.2,235.2c0,0,-64.1,87.1,-172.6,87.1c0,0,-111.5,0,-175.7,-85.5c0,0,-64.2,-85.6,-64.2,-236.8c0,0,0,-149.8,64.2,-235.3c0,0,64.2,-85.6,175.7,-85.6Zm0,-116c0,0,-180.3,0,-281.1,116C186.4,94.7,84,210.8,84,415.6c0,0,0,206.2,100.9,322.3c0,0,102.3,117.7,282.6,117.7c0,0,178.8,0,281.1,-116.2c0,0,102.4,-117.6,102.4,-323.8c0,0,0,-204.8,-102.4,-320.9c0,0,-102.3,-116,-281.1,-116Z" 
	id="f0_7"
	transform="scale(0.001,-0.001)" />

	<path d="M137.5,0l0,834.2l139,0l0,-129.9c0,0,48.9,76.4,114.6,113.1c0,0,67.2,38.2,154.3,38.2c0,0,145.2,0,218.5,-88.7c0,0,73.3,-90.1,73.3,-262.7L837.2,0L699.7,0l0,499.6c0,0,0,117.6,-45.8,175.7c0,0,-45.8,59.6,-139,59.6c0,0,-110,0,-174.2,-70.3c0,0,-64.2,-70.3,-64.2,-192.5L276.5,0Z" 
	id="f0_4"
	transform="scale(0.001,-0.001)" />

	<path d="M456.8,-21.3c0,0,-77.9,0,-166.5,16.8c0,0,-90.2,18.3,-186.4,53.4l0,154.3c0,0,91.7,-50.4,180.3,-76.4c0,0,88.6,-27.5,172.6,-27.5c0,0,129.9,0,200.1,50.4c0,0,70.3,52,70.3,145.2c0,0,0,82.5,-50.4,128.3c0,0,-50.4,47.4,-166.5,70.3l-91.7,16.8c0,0,-168,33.6,-242.9,105.4c0,0,-76.4,71.8,-76.4,200.1c0,0,0,146.7,103.9,232.3c0,0,105.4,85.5,287.2,85.5c0,0,79.5,0,160.4,-13.7c0,0,81,-15.3,166.6,-42.8l0,-148.2c0,0,-85.6,41.2,-162,61.1c0,0,-76.4,21.4,-146.6,21.4c0,0,-123.8,0,-189.5,-47.4c0,0,-67.2,-48.9,-67.2,-137.5c0,0,0,-73.3,44.3,-110c0,0,44.3,-38.2,168,-61.1l90.2,-19.8c0,0,169.6,-32.1,249,-111.6c0,0,81,-80.9,81,-216.9c0,0,0,-162,-108.5,-244.5c0,0,-108.5,-83.9,-319.3,-83.9Z" 
	id="f0_z"
	transform="scale(0.001,-0.001)" />

	<path d="M495,-21.3c0,0,-189.4,0,-299.4,117.6C195.6,96.3,84,215.4,84,415.6c0,0,0,204.7,111.6,322.3c0,0,113,117.7,308.6,117.7c0,0,62.6,0,122.2,-13.8c0,0,61.1,-13.7,117.6,-39.7l0,-128.3c0,0,-58,32,-116.1,47.3c0,0,-58,16.8,-119.1,16.8c0,0,-133,0,-206.3,-84c0,0,-74.9,-84,-74.9,-238.3c0,0,0,-152.8,73.4,-236.8c0,0,74.8,-84.1,207.8,-84.1c0,0,61.1,0,119.1,15.3c0,0,58.1,16.8,116.1,48.9L744,30.6c0,0,-56.5,-26,-117.6,-38.1c0,0,-62.6,-13.8,-131.4,-13.8Z" 
	id="f0_6"
	transform="scale(0.001,-0.001)" />

	<path d="M504.2,96.3c0,0,100.8,0,160.4,70.2c0,0,59.6,70.3,59.6,189.5c0,0,0,120.7,-59.6,189.4c0,0,-59.6,70.3,-160.4,70.3c0,0,-102.4,0,-160.4,-68.8c0,0,-59.6,-70.2,-59.6,-190.9c0,0,0,-119.2,58,-189.5c0,0,59.6,-70.2,162,-70.2Zm0,-117.6c0,0,-194.1,0,-296.4,146.6c0,0,-102.4,148.2,-102.4,429.3c0,0,0,264.3,125.3,421.7c0,0,125.3,157.3,337.6,157.3c0,0,56.6,0,113.1,-10.7c0,0,58,-12.2,120.7,-35.1l0,-136c0,0,-56.5,26,-113.1,39.7c0,0,-58,15.3,-116.1,15.3c0,0,-148.2,0,-226.1,-100.8c0,0,-79.4,-100.9,-91.7,-304.1c0,0,44.3,64.2,110,97.8c0,0,67.3,35.2,146.7,35.2c0,0,168.1,0,265.8,-100.9c0,0,97.8,-102.3,97.8,-278c0,0,0,-171.1,-100.8,-273.5c0,0,-102.4,-103.8,-270.4,-103.8Z" 
	id="f0_17"
	transform="scale(0.001,-0.001)" />

	<path d="M421.7,-21.3c0,0,-143.6,0,-218.5,88.5L128.3,328.5l0,505.7l137.5,0l0,-499.6c0,0,0,-119.2,45.9,-178.8c0,0,47.3,-59.5,139,-59.5c0,0,111.5,0,175.7,70.2c0,0,65.7,71.8,65.7,194.1l0,473.6l136,0L828.1,0l-136,0l0,126.8c0,0,-50.4,-74.9,-116.1,-111.5c0,0,-67.2,-36.6,-154.3,-36.6Z" 
	id="f0_i"
	transform="scale(0.001,-0.001)" />

	<path d="M178,0l0,189l158,0L336,0Zm0,600l0,189l158,0l0,-189Z" 
	id="f0_n"
	transform="scale(0.001,-0.001)" />

	<path d="M189.4,0l0,126.8l246,0l0,849.5L166.5,922.8l0,136l267.4,55l149.7,0l0,-987l246,0L829.6,0Z" 
	id="f0_2"
	transform="scale(0.001,-0.001)" />

	<path d="M137.5,0l0,1159.6l139,0l0,-455.3c0,0,48.9,76.4,114.6,113.1c0,0,67.2,38.2,154.3,38.2c0,0,145.2,0,218.5,-88.7c0,0,73.3,-90.1,73.3,-262.7L837.2,0L699.7,0l0,499.6c0,0,0,117.6,-45.8,175.7c0,0,-45.8,59.6,-139,59.6c0,0,-110,0,-174.2,-70.3c0,0,-64.2,-70.3,-64.2,-192.5L276.5,0Z" 
	id="f0_f"
	transform="scale(0.001,-0.001)" />

	<path d="M411,-21.3c0,0,-70.3,0,-143.6,10.7c0,0,-73.4,12.1,-149.8,36.6l0,151.2c0,0,67.3,-36.6,137.5,-55c0,0,71.8,-18.3,152.8,-18.3c0,0,128.4,0,203.2,67.2c0,0,76.4,68.8,76.4,184.9c0,0,0,117.6,-74.9,184.8c0,0,-76.3,67.3,-204.7,67.3c0,0,-61.1,0,-120.7,-12.3c0,0,-61.1,-13.7,-123.7,-42.7l0,560.7l592.8,0l0,-128.4l-453.8,0l0,-271.9c0,0,32.1,10.7,64.2,15.3c0,0,33.6,6.1,67.2,6.1c0,0,186.4,0,294.9,-100.9c0,0,108.4,-102.3,108.4,-278c0,0,0,-178.8,-111.5,-278.1c0,0,-111.5,-99.2,-314.7,-99.2Z" 
	id="f0_14"
	transform="scale(0.001,-0.001)" />

	<path d="M137.5,0l0,834.2l139,0l0,-129.9c0,0,45.9,77.9,111.6,114.6c0,0,65.7,36.7,155.8,36.7c0,0,91.7,0,154.3,-45.9c0,0,64.2,-47.3,96.2,-135.9c0,0,50.5,93.1,122.3,137.5c0,0,71.8,44.3,168,44.3c0,0,131.4,0,201.7,-91.7c0,0,71.8,-91.7,71.8,-259.7L1358.2,0l-139,0l0,499.6c0,0,0,119.2,-41.3,177.2c0,0,-42.8,58.1,-129.8,58.1c0,0,-107,0,-168.1,-70.3c0,0,-62.6,-70.3,-62.6,-192.5L817.4,0L678.3,0l0,499.6c0,0,0,120.7,-41.2,177.2c0,0,-42.8,58.1,-131.4,58.1c0,0,-105.4,0,-166.5,-70.3c0,0,-62.7,-71.8,-62.7,-192.5L276.5,0Z" 
	id="f0_8"
	transform="scale(0.001,-0.001)" />


</defs>
</svg>