<?xml version="1.0" encoding="UTF-8" standalone="no"?>
<!DOCTYPE svg PUBLIC "-//W3C//DTD SVG 1.1//EN"
"http://www.w3.org/Graphics/SVG/1.1/DTD/svg11.dtd">
<svg viewBox="0 0 1155 1210" version="1.1" xmlns="http://www.w3.org/2000/svg" xmlns:xlink="http://www.w3.org/1999/xlink">
<defs>
<clipPath id="c0_39"><path d="M0.5,1210.5L0.5,0.5l1155,0l0,1210Z" /></clipPath>
<style type="text/css"><![CDATA[
.g1_39{
fill: #FFFFFF;
}
]]></style>
</defs>
<path fill-rule="evenodd" d="M0,0L1155,0l0,1210L0,1210L0,0Z" class="g1_39" />
<path fill-rule="evenodd" d="M0,0L1155,0l0,1210L0,1210L0,0Z" class="g1_39" />
<image x="790" y="1140" width="319" height="55" xlink:href="img/1.png" />
<g clip-path="url(#c0_39)">
<g fill="#626262" >
<use xlink:href="#f0_27" transform="matrix(12,0,0,12,38.5,33.2)" />
<use xlink:href="#f0_a" transform="matrix(12,0,0,12,51.2,33.2)" />
<use xlink:href="#f0_7" transform="matrix(12,0,0,12,56.3,33.2)" />
<use xlink:href="#f0_7" transform="matrix(12,0,0,12,67.5,33.2)" />
<use xlink:href="#f0_8" transform="matrix(12,0,0,12,78.6,33.2)" />
<use xlink:href="#f0_1g" transform="matrix(12,0,0,12,106.1,33.2)" />
<use xlink:href="#f0_b" transform="matrix(12,0,0,12,114.4,33.2)" />
<use xlink:href="#f0_6" transform="matrix(12,0,0,12,125.7,33.2)" />
<use xlink:href="#f0_f" transform="matrix(12,0,0,12,135.9,33.2)" />
<use xlink:href="#f0_4" transform="matrix(12,0,0,12,147.5,33.2)" />
<use xlink:href="#f0_7" transform="matrix(12,0,0,12,159.1,33.2)" />
<use xlink:href="#f0_a" transform="matrix(12,0,0,12,170.2,33.2)" />
<use xlink:href="#f0_7" transform="matrix(12,0,0,12,175.3,33.2)" />
<use xlink:href="#f0_x" transform="matrix(12,0,0,12,186.6,33.2)" />
<use xlink:href="#f0_r" transform="matrix(12,0,0,12,198.3,33.2)" />
<use xlink:href="#f0_12" transform="matrix(12,0,0,12,218.8,33.2)" />
<use xlink:href="#f0_k" transform="matrix(12,0,0,12,233.7,33.2)" />
<use xlink:href="#f0_4" transform="matrix(12,0,0,12,245.2,33.2)" />
<use xlink:href="#f0_c" transform="matrix(12,0,0,12,256.6,33.2)" />
<use xlink:href="#f0_g" transform="matrix(12,0,0,12,263.8,33.2)" />
<use xlink:href="#f0_c" transform="matrix(12,0,0,12,283,33.2)" />
<use xlink:href="#f0_7" transform="matrix(12,0,0,12,290.2,33.2)" />
<use xlink:href="#f0_8" transform="matrix(12,0,0,12,311.1,33.2)" />
<use xlink:href="#f0_k" transform="matrix(12,0,0,12,328.9,33.2)" />
<use xlink:href="#f0_d" transform="matrix(12,0,0,12,340.3,33.2)" />
<use xlink:href="#f0_4" transform="matrix(12,0,0,12,345.3,33.2)" />
<use xlink:href="#f0_c" transform="matrix(12,0,0,12,357,33.2)" />
<use xlink:href="#f0_k" transform="matrix(12,0,0,12,364.1,33.2)" />
<use xlink:href="#f0_d" transform="matrix(12,0,0,12,375.4,33.2)" />
<use xlink:href="#f0_4" transform="matrix(12,0,0,12,380.6,33.2)" />
<use xlink:href="#f0_c" transform="matrix(12,0,0,12,401.8,33.2)" />
<use xlink:href="#f0_f" transform="matrix(12,0,0,12,408.8,33.2)" />
<use xlink:href="#f0_b" transform="matrix(12,0,0,12,420.4,33.2)" />
<use xlink:href="#f0_d" transform="matrix(12,0,0,12,431.7,33.2)" />
<use xlink:href="#f0_l" transform="matrix(12,0,0,12,436.9,33.2)" />
<use xlink:href="#f0_b" transform="matrix(12,0,0,12,454.3,33.2)" />
<use xlink:href="#f0_8" transform="matrix(12,0,0,12,465.7,33.2)" />
<use xlink:href="#f0_9" transform="matrix(12,0,0,12,483.5,33.2)" />
<use xlink:href="#f0_a" transform="matrix(12,0,0,12,495.1,33.2)" />
<use xlink:href="#f0_7" transform="matrix(12,0,0,12,500.1,33.2)" />
<use xlink:href="#f0_r" transform="matrix(12,0,0,12,511.2,33.2)" />
<use xlink:href="#f0_b" transform="matrix(12,0,0,12,522.1,33.2)" />
<use xlink:href="#f0_b" transform="matrix(12,0,0,12,533.5,33.2)" />
<use xlink:href="#f0_24" transform="matrix(12,0,0,12,544.8,33.2)" />
<use xlink:href="#f0_g" transform="matrix(12,0,0,12,550,33.2)" />
<use xlink:href="#f0_q" transform="matrix(12,0,0,12,569.2,33.2)" />
<use xlink:href="#f0_b" transform="matrix(12,0,0,12,579.9,33.2)" />
<use xlink:href="#f0_f" transform="matrix(12,0,0,12,591.3,33.2)" />
<use xlink:href="#f0_d" transform="matrix(12,0,0,12,602.9,33.2)" />
<use xlink:href="#f0_6" transform="matrix(12,0,0,12,608,33.2)" />
<use xlink:href="#f0_a" transform="matrix(12,0,0,12,618.2,33.2)" />
<use xlink:href="#f0_b" transform="matrix(12,0,0,12,623.4,33.2)" />
<use xlink:href="#f0_h" transform="matrix(12,0,0,12,644.4,33.2)" />
<use xlink:href="#f0_b" transform="matrix(12,0,0,12,656.2,33.2)" />
<use xlink:href="#f0_c" transform="matrix(12,0,0,12,667.5,33.2)" />
<use xlink:href="#f0_k" transform="matrix(12,0,0,12,674.6,33.2)" />
<use xlink:href="#f0_d" transform="matrix(12,0,0,12,685.9,33.2)" />
<use xlink:href="#f0_a" transform="matrix(12,0,0,12,691.1,33.2)" />
<use xlink:href="#f0_g" transform="matrix(12,0,0,12,696.3,33.2)" />
<use xlink:href="#f0_c" transform="matrix(12,0,0,12,715.4,33.2)" />
<use xlink:href="#f0_7" transform="matrix(12,0,0,12,722.6,33.2)" />
<use xlink:href="#f0_8" transform="matrix(12,0,0,12,743.5,33.2)" />
<use xlink:href="#f0_k" transform="matrix(12,0,0,12,761.2,33.2)" />
<use xlink:href="#f0_1a" transform="matrix(12,0,0,12,772.6,33.2)" />
<use xlink:href="#f0_b" transform="matrix(12,0,0,12,782.4,33.2)" />
<use xlink:href="#f0_9" transform="matrix(12,0,0,12,803.4,33.2)" />
<use xlink:href="#f0_k" transform="matrix(12,0,0,12,815,33.2)" />
<use xlink:href="#f0_l" transform="matrix(12,0,0,12,826.3,33.2)" />
<use xlink:href="#f0_1a" transform="matrix(12,0,0,12,834.1,33.2)" />
<use xlink:href="#f0_d" transform="matrix(12,0,0,12,844.7,33.2)" />
<use xlink:href="#f0_4" transform="matrix(12,0,0,12,849.8,33.2)" />
<use xlink:href="#f0_x" transform="matrix(12,0,0,12,861.3,33.2)" />
<use xlink:href="#f0_e" transform="matrix(12,0,0,12,882.8,33.2)" />
<use xlink:href="#f0_k" transform="matrix(12,0,0,12,889.1,33.2)" />
<use xlink:href="#f0_6" transform="matrix(12,0,0,12,900.5,33.2)" />
<use xlink:href="#f0_d" transform="matrix(12,0,0,12,910.7,33.2)" />
<use xlink:href="#f0_a" transform="matrix(12,0,0,12,915.9,33.2)" />
<use xlink:href="#f0_d" transform="matrix(12,0,0,12,920.9,33.2)" />
<use xlink:href="#f0_c" transform="matrix(12,0,0,12,926.1,33.2)" />
<use xlink:href="#f0_r" transform="matrix(12,0,0,12,933.3,33.2)" />
<use xlink:href="#f0_2b" transform="matrix(12,0,0,12,953.7,33.2)" />
<use xlink:href="#f0_b" transform="matrix(12,0,0,12,965.2,33.2)" />
<use xlink:href="#f0_v" transform="matrix(12,0,0,12,976.2,33.2)" />
<use xlink:href="#f0_d" transform="matrix(12,0,0,12,987,33.2)" />
<use xlink:href="#f0_m" transform="matrix(12,0,0,12,992.2,33.2)" />
<use xlink:href="#f0_a" transform="matrix(12,0,0,12,1003.6,33.2)" />
<use xlink:href="#f0_b" transform="matrix(12,0,0,12,1008.8,33.2)" />
<use xlink:href="#f0_c" transform="matrix(12,0,0,12,1029.9,33.2)" />
<use xlink:href="#f0_7" transform="matrix(12,0,0,12,1037,33.2)" />
<use xlink:href="#f0_c" transform="matrix(12,0,0,12,1057.8,33.2)" />
<use xlink:href="#f0_f" transform="matrix(12,0,0,12,1065,33.2)" />
<use xlink:href="#f0_b" transform="matrix(12,0,0,12,1076.4,33.2)" />
<use xlink:href="#f0_b" transform="matrix(12,0,0,12,38.5,77.6)" />
<use xlink:href="#f0_8" transform="matrix(12,0,0,12,49.8,77.6)" />
<use xlink:href="#f0_9" transform="matrix(12,0,0,12,67.7,77.6)" />
<use xlink:href="#f0_a" transform="matrix(12,0,0,12,79.1,77.6)" />
<use xlink:href="#f0_7" transform="matrix(12,0,0,12,84.3,77.6)" />
<use xlink:href="#f0_r" transform="matrix(12,0,0,12,95.4,77.6)" />
<use xlink:href="#f0_b" transform="matrix(12,0,0,12,106.3,77.6)" />
<use xlink:href="#f0_b" transform="matrix(12,0,0,12,117.6,77.6)" />
<use xlink:href="#f0_g" transform="matrix(12,0,0,12,129,77.6)" />
<use xlink:href="#f0_1c" transform="matrix(12,0,0,12,138.5,77.6)" />
<use xlink:href="#f0_2" transform="matrix(12,0,0,12,38.5,136.7)" />
<use xlink:href="#f0_1c" transform="matrix(12,0,0,12,50.3,136.7)" />
<use xlink:href="#f0_15" transform="matrix(12,0,0,12,66,136.7)" />
<use xlink:href="#f0_l" transform="matrix(12,0,0,12,78.8,136.7)" />
<use xlink:href="#f0_b" transform="matrix(12,0,0,12,86,136.7)" />
<use xlink:href="#f0_k" transform="matrix(12,0,0,12,97.3,136.7)" />
<use xlink:href="#f0_c" transform="matrix(12,0,0,12,108.6,136.7)" />
<use xlink:href="#f0_b" transform="matrix(12,0,0,12,115.8,136.7)" />
<use xlink:href="#f0_c" transform="matrix(12,0,0,12,133,136.7)" />
<use xlink:href="#f0_f" transform="matrix(12,0,0,12,140.2,136.7)" />
<use xlink:href="#f0_b" transform="matrix(12,0,0,12,151.8,136.7)" />
<use xlink:href="#f0_e" transform="matrix(12,0,0,12,168.9,136.7)" />
<use xlink:href="#f0_7" transform="matrix(12,0,0,12,175.3,136.7)" />
<use xlink:href="#f0_a" transform="matrix(12,0,0,12,186.6,136.7)" />
<use xlink:href="#f0_a" transform="matrix(12,0,0,12,191.7,136.7)" />
<use xlink:href="#f0_7" transform="matrix(12,0,0,12,196.8,136.7)" />
<use xlink:href="#f0_12" transform="matrix(12,0,0,12,208,136.7)" />
<use xlink:href="#f0_d" transform="matrix(12,0,0,12,223,136.7)" />
<use xlink:href="#f0_4" transform="matrix(12,0,0,12,228.1,136.7)" />
<use xlink:href="#f0_x" transform="matrix(12,0,0,12,239.7,136.7)" />
<use xlink:href="#f0_1y" transform="matrix(12,0,0,12,257.3,136.7)" />
<use xlink:href="#f0_b" transform="matrix(12,0,0,12,268.3,136.7)" />
<use xlink:href="#f0_f" transform="matrix(12,0,0,12,279.6,136.7)" />
<use xlink:href="#f0_d" transform="matrix(12,0,0,12,291.2,136.7)" />
<use xlink:href="#f0_6" transform="matrix(12,0,0,12,296.2,136.7)" />
<use xlink:href="#f0_a" transform="matrix(12,0,0,12,306.4,136.7)" />
<use xlink:href="#f0_b" transform="matrix(12,0,0,12,311.6,136.7)" />
<use xlink:href="#f0_c" transform="matrix(12,0,0,12,328.8,136.7)" />
<use xlink:href="#f0_k" transform="matrix(12,0,0,12,336,136.7)" />
<use xlink:href="#f0_m" transform="matrix(12,0,0,12,347.3,136.7)" />
<use xlink:href="#f0_a" transform="matrix(12,0,0,12,358.9,136.7)" />
<use xlink:href="#f0_b" transform="matrix(12,0,0,12,364.1,136.7)" />
<use xlink:href="#f0_k" transform="matrix(12,0,0,12,381.2,136.7)" />
<use xlink:href="#f0_g" transform="matrix(12,0,0,12,392.6,136.7)" />
<use xlink:href="#f0_k" transform="matrix(12,0,0,12,408.1,136.7)" />
<use xlink:href="#f0_9" transform="matrix(12,0,0,12,425.2,136.7)" />
<use xlink:href="#f0_k" transform="matrix(12,0,0,12,436.8,136.7)" />
<use xlink:href="#f0_l" transform="matrix(12,0,0,12,448.1,136.7)" />
<use xlink:href="#f0_c" transform="matrix(12,0,0,12,455.8,136.7)" />
<use xlink:href="#f0_7" transform="matrix(12,0,0,12,468.8,136.7)" />
<use xlink:href="#f0_e" transform="matrix(12,0,0,12,480,136.7)" />
<use xlink:href="#f0_c" transform="matrix(12,0,0,12,492.2,136.7)" />
<use xlink:href="#f0_f" transform="matrix(12,0,0,12,499.4,136.7)" />
<use xlink:href="#f0_b" transform="matrix(12,0,0,12,511,136.7)" />
<use xlink:href="#f0_k" transform="matrix(12,0,0,12,528.2,136.7)" />
<use xlink:href="#f0_9" transform="matrix(12,0,0,12,539.5,136.7)" />
<use xlink:href="#f0_9" transform="matrix(12,0,0,12,551.1,136.7)" />
<use xlink:href="#f0_a" transform="matrix(12,0,0,12,562.6,136.7)" />
<use xlink:href="#f0_d" transform="matrix(12,0,0,12,567.8,136.7)" />
<use xlink:href="#f0_6" transform="matrix(12,0,0,12,572.9,136.7)" />
<use xlink:href="#f0_k" transform="matrix(12,0,0,12,583.1,136.7)" />
<use xlink:href="#f0_c" transform="matrix(12,0,0,12,594.4,136.7)" />
<use xlink:href="#f0_d" transform="matrix(12,0,0,12,601.6,136.7)" />
<use xlink:href="#f0_7" transform="matrix(12,0,0,12,606.7,136.7)" />
<use xlink:href="#f0_4" transform="matrix(12,0,0,12,618,136.7)" />
<use xlink:href="#f0_1c" transform="matrix(12,0,0,12,629.4,136.7)" />
<use xlink:href="#f0_z" transform="matrix(12,0,0,12,641.2,136.7)" />
<use xlink:href="#f0_9" transform="matrix(12,0,0,12,652.9,136.7)" />
<use xlink:href="#f0_b" transform="matrix(12,0,0,12,664.4,136.7)" />
<use xlink:href="#f0_6" transform="matrix(12,0,0,12,675.8,136.7)" />
<use xlink:href="#f0_d" transform="matrix(12,0,0,12,686,136.7)" />
<use xlink:href="#f0_1s" transform="matrix(12,0,0,12,691.1,136.7)" />
<use xlink:href="#f0_6" transform="matrix(12,0,0,12,702.7,136.7)" />
<use xlink:href="#f0_k" transform="matrix(12,0,0,12,712.9,136.7)" />
<use xlink:href="#f0_c" transform="matrix(12,0,0,12,724.3,136.7)" />
<use xlink:href="#f0_d" transform="matrix(12,0,0,12,731.5,136.7)" />
<use xlink:href="#f0_7" transform="matrix(12,0,0,12,736.5,136.7)" />
<use xlink:href="#f0_4" transform="matrix(12,0,0,12,747.7,136.7)" />
<use xlink:href="#f0_g" transform="matrix(12,0,0,12,759.3,136.7)" />
<use xlink:href="#f0_k" transform="matrix(12,0,0,12,774.7,136.7)" />
<use xlink:href="#f0_l" transform="matrix(12,0,0,12,786,136.7)" />
<use xlink:href="#f0_b" transform="matrix(12,0,0,12,793.2,136.7)" />
<use xlink:href="#f0_9" transform="matrix(12,0,0,12,810.4,136.7)" />
<use xlink:href="#f0_l" transform="matrix(12,0,0,12,821.9,136.7)" />
<use xlink:href="#f0_7" transform="matrix(12,0,0,12,829.1,136.7)" />
<use xlink:href="#f0_q" transform="matrix(12,0,0,12,840.2,136.7)" />
<use xlink:href="#f0_d" transform="matrix(12,0,0,12,851.1,136.7)" />
<use xlink:href="#f0_h" transform="matrix(12,0,0,12,856.2,136.7)" />
<use xlink:href="#f0_b" transform="matrix(12,0,0,12,868,136.7)" />
<use xlink:href="#f0_h" transform="matrix(12,0,0,12,879.3,136.7)" />
<use xlink:href="#f0_m" transform="matrix(12,0,0,12,896.8,136.7)" />
<use xlink:href="#f0_b" transform="matrix(12,0,0,12,908.4,136.7)" />
<use xlink:href="#f0_a" transform="matrix(12,0,0,12,919.7,136.7)" />
<use xlink:href="#f0_7" transform="matrix(12,0,0,12,924.9,136.7)" />
<use xlink:href="#f0_12" transform="matrix(12,0,0,12,936,136.7)" />
<use xlink:href="#f0_n" transform="matrix(12,0,0,12,949.9,136.7)" />
<use xlink:href="#f0_t" transform="matrix(12,0,0,12,38.5,313.8)" />
<use xlink:href="#f0_1c" transform="matrix(12,0,0,12,50.3,313.8)" />
<use xlink:href="#f0_u" transform="matrix(12,0,0,12,66,313.8)" />
<use xlink:href="#f0_4" transform="matrix(12,0,0,12,71.4,313.8)" />
<use xlink:href="#f0_g" transform="matrix(12,0,0,12,82.8,313.8)" />
<use xlink:href="#f0_b" transform="matrix(12,0,0,12,92.4,313.8)" />
<use xlink:href="#f0_l" transform="matrix(12,0,0,12,103.7,313.8)" />
<use xlink:href="#f0_c" transform="matrix(12,0,0,12,111.5,313.8)" />
<use xlink:href="#f0_c" transform="matrix(12,0,0,12,124.4,313.8)" />
<use xlink:href="#f0_f" transform="matrix(12,0,0,12,131.6,313.8)" />
<use xlink:href="#f0_b" transform="matrix(12,0,0,12,143.1,313.8)" />
<use xlink:href="#f0_e" transform="matrix(12,0,0,12,160.3,313.8)" />
<use xlink:href="#f0_7" transform="matrix(12,0,0,12,166.8,313.8)" />
<use xlink:href="#f0_a" transform="matrix(12,0,0,12,177.9,313.8)" />
<use xlink:href="#f0_a" transform="matrix(12,0,0,12,183.1,313.8)" />
<use xlink:href="#f0_7" transform="matrix(12,0,0,12,188.2,313.8)" />
<use xlink:href="#f0_12" transform="matrix(12,0,0,12,199.4,313.8)" />
<use xlink:href="#f0_d" transform="matrix(12,0,0,12,214.4,313.8)" />
<use xlink:href="#f0_4" transform="matrix(12,0,0,12,219.5,313.8)" />
<use xlink:href="#f0_x" transform="matrix(12,0,0,12,231,313.8)" />
<use xlink:href="#f0_l" transform="matrix(12,0,0,12,248.7,313.8)" />
<use xlink:href="#f0_b" transform="matrix(12,0,0,12,255.7,313.8)" />
<use xlink:href="#f0_6" transform="matrix(12,0,0,12,267.2,313.8)" />
<use xlink:href="#f0_7" transform="matrix(12,0,0,12,277.4,313.8)" />
<use xlink:href="#f0_l" transform="matrix(12,0,0,12,288.5,313.8)" />
<use xlink:href="#f0_h" transform="matrix(12,0,0,12,295.8,313.8)" />
<use xlink:href="#f0_g" transform="matrix(12,0,0,12,307.6,313.8)" />
<use xlink:href="#f0_i" transform="matrix(12,0,0,12,322.9,313.8)" />
<use xlink:href="#f0_g" transform="matrix(12,0,0,12,334.5,313.8)" />
<use xlink:href="#f0_d" transform="matrix(12,0,0,12,344.1,313.8)" />
<use xlink:href="#f0_4" transform="matrix(12,0,0,12,349.1,313.8)" />
<use xlink:href="#f0_x" transform="matrix(12,0,0,12,360.7,313.8)" />
<use xlink:href="#f0_b" transform="matrix(12,0,0,12,378.3,313.8)" />
<use xlink:href="#f0_v" transform="matrix(12,0,0,12,389.3,313.8)" />
<use xlink:href="#f0_b" transform="matrix(12,0,0,12,399.4,313.8)" />
<use xlink:href="#f0_6" transform="matrix(12,0,0,12,410.7,313.8)" />
<use xlink:href="#f0_i" transform="matrix(12,0,0,12,421,313.8)" />
<use xlink:href="#f0_c" transform="matrix(12,0,0,12,432.5,313.8)" />
<use xlink:href="#f0_b" transform="matrix(12,0,0,12,439.7,313.8)" />
<use xlink:href="#f0_8" transform="matrix(12,0,0,12,451,313.8)" />
<use xlink:href="#f0_k" transform="matrix(12,0,0,12,468.8,313.8)" />
<use xlink:href="#f0_4" transform="matrix(12,0,0,12,480.1,313.8)" />
<use xlink:href="#f0_r" transform="matrix(12,0,0,12,491.7,313.8)" />
<use xlink:href="#f0_1i" transform="matrix(12,0,0,12,502.6,313.8)" />
<use xlink:href="#f0_o" transform="matrix(12,0,0,12,509.6,313.8)" />
<use xlink:href="#f0_e" transform="matrix(12,0,0,12,522.7,313.8)" />
<use xlink:href="#f0_i" transform="matrix(12,0,0,12,529.1,313.8)" />
<use xlink:href="#f0_4" transform="matrix(12,0,0,12,540.6,313.8)" />
<use xlink:href="#f0_6" transform="matrix(12,0,0,12,552.2,313.8)" />
<use xlink:href="#f0_c" transform="matrix(12,0,0,12,562.4,313.8)" />
<use xlink:href="#f0_d" transform="matrix(12,0,0,12,569.6,313.8)" />
<use xlink:href="#f0_7" transform="matrix(12,0,0,12,574.6,313.8)" />
<use xlink:href="#f0_4" transform="matrix(12,0,0,12,585.9,313.8)" />
<use xlink:href="#f0_7" transform="matrix(12,0,0,12,603.2,313.8)" />
<use xlink:href="#f0_e" transform="matrix(12,0,0,12,614.5,313.8)" />
<use xlink:href="#f0_6" transform="matrix(12,0,0,12,626.7,313.8)" />
<use xlink:href="#f0_i" transform="matrix(12,0,0,12,636.9,313.8)" />
<use xlink:href="#f0_l" transform="matrix(12,0,0,12,648.5,313.8)" />
<use xlink:href="#f0_g" transform="matrix(12,0,0,12,656.1,313.8)" />
<use xlink:href="#f0_7" transform="matrix(12,0,0,12,665.8,313.8)" />
<use xlink:href="#f0_l" transform="matrix(12,0,0,12,676.9,313.8)" />
<use xlink:href="#f0_1c" transform="matrix(12,0,0,12,682.9,313.8)" />
<use xlink:href="#f0_p" transform="matrix(12,0,0,12,694.5,313.8)" />
<use xlink:href="#f0_g" transform="matrix(12,0,0,12,707.9,313.8)" />
<use xlink:href="#f0_b" transform="matrix(12,0,0,12,717.4,313.8)" />
<use xlink:href="#f0_9" transform="matrix(12,0,0,12,734.6,313.8)" />
<use xlink:href="#f0_7" transform="matrix(12,0,0,12,746.1,313.8)" />
<use xlink:href="#f0_g" transform="matrix(12,0,0,12,757.4,313.8)" />
<use xlink:href="#f0_d" transform="matrix(12,0,0,12,766.9,313.8)" />
<use xlink:href="#f0_c" transform="matrix(12,0,0,12,772,313.8)" />
<use xlink:href="#f0_d" transform="matrix(12,0,0,12,779.1,313.8)" />
<use xlink:href="#f0_7" transform="matrix(12,0,0,12,784.2,313.8)" />
<use xlink:href="#f0_4" transform="matrix(12,0,0,12,795.4,313.8)" />
<use xlink:href="#f0_k" transform="matrix(12,0,0,12,807,313.8)" />
<use xlink:href="#f0_a" transform="matrix(12,0,0,12,818.3,313.8)" />
<use xlink:href="#f0_m" transform="matrix(12,0,0,12,829.3,313.8)" />
<use xlink:href="#f0_d" transform="matrix(12,0,0,12,840.9,313.8)" />
<use xlink:href="#f0_4" transform="matrix(12,0,0,12,846,313.8)" />
<use xlink:href="#f0_h" transform="matrix(12,0,0,12,857.5,313.8)" />
<use xlink:href="#f0_q" transform="matrix(12,0,0,12,875.2,313.8)" />
<use xlink:href="#f0_k" transform="matrix(12,0,0,12,885.9,313.8)" />
<use xlink:href="#f0_l" transform="matrix(12,0,0,12,897.3,313.8)" />
<use xlink:href="#f0_d" transform="matrix(12,0,0,12,904.9,313.8)" />
<use xlink:href="#f0_k" transform="matrix(12,0,0,12,910.1,313.8)" />
<use xlink:href="#f0_m" transform="matrix(12,0,0,12,921.4,313.8)" />
<use xlink:href="#f0_a" transform="matrix(12,0,0,12,932.9,313.8)" />
<use xlink:href="#f0_b" transform="matrix(12,0,0,12,938,313.8)" />
<use xlink:href="#f0_g" transform="matrix(12,0,0,12,949.3,313.8)" />
<use xlink:href="#f0_1c" transform="matrix(12,0,0,12,958.9,313.8)" />
<use xlink:href="#f0_y" transform="matrix(12,0,0,12,38.5,609)" />
<use xlink:href="#f0_1c" transform="matrix(12,0,0,12,50.3,609)" />
<use xlink:href="#f0_u" transform="matrix(12,0,0,12,66,609)" />
<use xlink:href="#f0_4" transform="matrix(12,0,0,12,71.4,609)" />
<use xlink:href="#f0_g" transform="matrix(12,0,0,12,82.8,609)" />
<use xlink:href="#f0_b" transform="matrix(12,0,0,12,92.4,609)" />
<use xlink:href="#f0_l" transform="matrix(12,0,0,12,103.7,609)" />
<use xlink:href="#f0_c" transform="matrix(12,0,0,12,111.5,609)" />
<use xlink:href="#f0_c" transform="matrix(12,0,0,12,124.4,609)" />
<use xlink:href="#f0_12" transform="matrix(12,0,0,12,131.6,609)" />
<use xlink:href="#f0_7" transform="matrix(12,0,0,12,146.6,609)" />
<use xlink:href="#f0_8" transform="matrix(12,0,0,12,163.6,609)" />
<use xlink:href="#f0_7" transform="matrix(12,0,0,12,181.4,609)" />
<use xlink:href="#f0_l" transform="matrix(12,0,0,12,192.6,609)" />
<use xlink:href="#f0_b" transform="matrix(12,0,0,12,199.8,609)" />
<use xlink:href="#f0_l" transform="matrix(12,0,0,12,217,609)" />
<use xlink:href="#f0_7" transform="matrix(12,0,0,12,224,609)" />
<use xlink:href="#f0_12" transform="matrix(12,0,0,12,235.3,609)" />
<use xlink:href="#f0_g" transform="matrix(12,0,0,12,250.3,609)" />
<use xlink:href="#f0_i" transform="matrix(12,0,0,12,265.7,609)" />
<use xlink:href="#f0_g" transform="matrix(12,0,0,12,277.3,609)" />
<use xlink:href="#f0_d" transform="matrix(12,0,0,12,286.8,609)" />
<use xlink:href="#f0_4" transform="matrix(12,0,0,12,292,609)" />
<use xlink:href="#f0_x" transform="matrix(12,0,0,12,303.4,609)" />
<use xlink:href="#f0_4" transform="matrix(12,0,0,12,321,609)" />
<use xlink:href="#f0_k" transform="matrix(12,0,0,12,332.6,609)" />
<use xlink:href="#f0_8" transform="matrix(12,0,0,12,343.9,609)" />
<use xlink:href="#f0_b" transform="matrix(12,0,0,12,361.7,609)" />
<use xlink:href="#f0_h" transform="matrix(12,0,0,12,373,609)" />
<use xlink:href="#f0_m" transform="matrix(12,0,0,12,390.6,609)" />
<use xlink:href="#f0_d" transform="matrix(12,0,0,12,402.2,609)" />
<use xlink:href="#f0_4" transform="matrix(12,0,0,12,407.4,609)" />
<use xlink:href="#f0_h" transform="matrix(12,0,0,12,418.8,609)" />
<use xlink:href="#f0_q" transform="matrix(12,0,0,12,436.4,609)" />
<use xlink:href="#f0_k" transform="matrix(12,0,0,12,447.2,609)" />
<use xlink:href="#f0_l" transform="matrix(12,0,0,12,458.7,609)" />
<use xlink:href="#f0_d" transform="matrix(12,0,0,12,466.3,609)" />
<use xlink:href="#f0_k" transform="matrix(12,0,0,12,471.3,609)" />
<use xlink:href="#f0_m" transform="matrix(12,0,0,12,482.8,609)" />
<use xlink:href="#f0_a" transform="matrix(12,0,0,12,494.4,609)" />
<use xlink:href="#f0_b" transform="matrix(12,0,0,12,499.4,609)" />
<use xlink:href="#f0_g" transform="matrix(12,0,0,12,510.9,609)" />
<use xlink:href="#f0_1i" transform="matrix(12,0,0,12,520.3,609)" />
<use xlink:href="#f0_i" transform="matrix(12,0,0,12,527.5,609)" />
<use xlink:href="#f0_g" transform="matrix(12,0,0,12,539,609)" />
<use xlink:href="#f0_b" transform="matrix(12,0,0,12,548.6,609)" />
<use xlink:href="#f0_b" transform="matrix(12,0,0,12,565.8,609)" />
<use xlink:href="#f0_v" transform="matrix(12,0,0,12,576.8,609)" />
<use xlink:href="#f0_b" transform="matrix(12,0,0,12,586.7,609)" />
<use xlink:href="#f0_6" transform="matrix(12,0,0,12,598.2,609)" />
<use xlink:href="#f0_i" transform="matrix(12,0,0,12,608.4,609)" />
<use xlink:href="#f0_c" transform="matrix(12,0,0,12,620,609)" />
<use xlink:href="#f0_b" transform="matrix(12,0,0,12,627.2,609)" />
<use xlink:href="#f0_8" transform="matrix(12,0,0,12,638.5,609)" />
<use xlink:href="#f0_k" transform="matrix(12,0,0,12,656.2,609)" />
<use xlink:href="#f0_4" transform="matrix(12,0,0,12,667.6,609)" />
<use xlink:href="#f0_r" transform="matrix(12,0,0,12,679.1,609)" />
<use xlink:href="#f0_1i" transform="matrix(12,0,0,12,689.9,609)" />
<use xlink:href="#f0_o" transform="matrix(12,0,0,12,697.1,609)" />
<use xlink:href="#f0_e" transform="matrix(12,0,0,12,710.1,609)" />
<use xlink:href="#f0_i" transform="matrix(12,0,0,12,716.5,609)" />
<use xlink:href="#f0_4" transform="matrix(12,0,0,12,728.1,609)" />
<use xlink:href="#f0_6" transform="matrix(12,0,0,12,739.6,609)" />
<use xlink:href="#f0_c" transform="matrix(12,0,0,12,749.9,609)" />
<use xlink:href="#f0_d" transform="matrix(12,0,0,12,757,609)" />
<use xlink:href="#f0_7" transform="matrix(12,0,0,12,762.1,609)" />
<use xlink:href="#f0_4" transform="matrix(12,0,0,12,773.3,609)" />
<use xlink:href="#f0_o" transform="matrix(12,0,0,12,784.9,609)" />
</g>
<g fill="#595959" >
<use xlink:href="#f0_10" transform="matrix(12,0,0,12,38.5,855.7)" />
<use xlink:href="#f0_1c" transform="matrix(12,0,0,12,50.3,855.7)" />
<use xlink:href="#f0_19" transform="matrix(12,0,0,12,67.8,855.7)" />
<use xlink:href="#f0_b" transform="matrix(12,0,0,12,77.3,855.7)" />
<use xlink:href="#f0_c" transform="matrix(12,0,0,12,88.7,855.7)" />
<use xlink:href="#f0_6" transform="matrix(12,0,0,12,95.9,855.7)" />
<use xlink:href="#f0_f" transform="matrix(12,0,0,12,106.1,855.7)" />
<use xlink:href="#f0_k" transform="matrix(12,0,0,12,123.5,855.7)" />
<use xlink:href="#f0_4" transform="matrix(12,0,0,12,134.8,855.7)" />
<use xlink:href="#f0_h" transform="matrix(12,0,0,12,146.4,855.7)" />
<use xlink:href="#f0_h" transform="matrix(12,0,0,12,164,855.7)" />
<use xlink:href="#f0_d" transform="matrix(12,0,0,12,175.7,855.7)" />
<use xlink:href="#f0_g" transform="matrix(12,0,0,12,180.8,855.7)" />
<use xlink:href="#f0_9" transform="matrix(12,0,0,12,190.4,855.7)" />
<use xlink:href="#f0_a" transform="matrix(12,0,0,12,201.8,855.7)" />
<use xlink:href="#f0_k" transform="matrix(12,0,0,12,207,855.7)" />
<use xlink:href="#f0_r" transform="matrix(12,0,0,12,218.3,855.7)" />
<use xlink:href="#f0_k" transform="matrix(12,0,0,12,234.9,855.7)" />
<use xlink:href="#f0_a" transform="matrix(12,0,0,12,246.4,855.7)" />
<use xlink:href="#f0_a" transform="matrix(12,0,0,12,251.4,855.7)" />
<use xlink:href="#f0_c" transform="matrix(12,0,0,12,262.4,855.7)" />
<use xlink:href="#f0_f" transform="matrix(12,0,0,12,269.6,855.7)" />
<use xlink:href="#f0_b" transform="matrix(12,0,0,12,281.2,855.7)" />
<use xlink:href="#f0_l" transform="matrix(12,0,0,12,298.4,855.7)" />
<use xlink:href="#f0_b" transform="matrix(12,0,0,12,305.6,855.7)" />
<use xlink:href="#f0_6" transform="matrix(12,0,0,12,316.9,855.7)" />
<use xlink:href="#f0_7" transform="matrix(12,0,0,12,327.1,855.7)" />
<use xlink:href="#f0_l" transform="matrix(12,0,0,12,338.3,855.7)" />
<use xlink:href="#f0_h" transform="matrix(12,0,0,12,345.6,855.7)" />
<use xlink:href="#f0_g" transform="matrix(12,0,0,12,357.4,855.7)" />
<use xlink:href="#f0_e" transform="matrix(12,0,0,12,372.8,855.7)" />
<use xlink:href="#f0_l" transform="matrix(12,0,0,12,379.2,855.7)" />
<use xlink:href="#f0_7" transform="matrix(12,0,0,12,386.4,855.7)" />
<use xlink:href="#f0_8" transform="matrix(12,0,0,12,397.5,855.7)" />
<use xlink:href="#f0_1y" transform="matrix(12,0,0,12,421.2,855.7)" />
<use xlink:href="#f0_b" transform="matrix(12,0,0,12,432.2,855.7)" />
<use xlink:href="#f0_f" transform="matrix(12,0,0,12,443.5,855.7)" />
<use xlink:href="#f0_d" transform="matrix(12,0,0,12,455.1,855.7)" />
<use xlink:href="#f0_6" transform="matrix(12,0,0,12,460.1,855.7)" />
<use xlink:href="#f0_a" transform="matrix(12,0,0,12,470.5,855.7)" />
<use xlink:href="#f0_b" transform="matrix(12,0,0,12,475.6,855.7)" />
<use xlink:href="#f0_c" transform="matrix(12,0,0,12,492.8,855.7)" />
<use xlink:href="#f0_k" transform="matrix(12,0,0,12,500,855.7)" />
<use xlink:href="#f0_m" transform="matrix(12,0,0,12,511.3,855.7)" />
<use xlink:href="#f0_a" transform="matrix(12,0,0,12,522.9,855.7)" />
<use xlink:href="#f0_b" transform="matrix(12,0,0,12,527.9,855.7)" />
<use xlink:href="#f0_1c" transform="matrix(11.4,0,0,11.5,539.8,855.7)" />
</g>
</g>
<image x="246" y="174" width="622" height="111" xlink:href="img/2.png" />
<image x="268" y="353" width="512" height="200" xlink:href="img/3.png" />
<image x="287" y="651" width="483" height="137" xlink:href="img/4.png" />
<defs>
	<path d="M540.8,123.8c0,0,122.3,0,180.3,48.8c0,0,59.6,50.5,59.6,154.3c0,0,0,105.5,-58.1,154.4c0,0,-59.5,50.4,-181.8,50.4l-241.4,0l0,-407.9ZM522.5,653.9c0,0,111.5,0,165,41.2c0,0,53.5,41.3,53.5,126.8c0,0,0,84.1,-53.5,125.3c0,0,-53.5,41.3,-165,41.3l-223.1,0l0,-334.6ZM149.7,0l0,1113.8l385,0c0,0,171.1,0,264.3,-71.9c0,0,93.2,-71.8,93.2,-204.7c0,0,0,-102.3,-47.3,-161.9c0,0,-47.4,-61.1,-140.6,-74.9c0,0,111.5,-24.4,172.6,-99.3c0,0,62.7,-76.4,62.7,-189.4c0,0,0,-149.8,-100.8,-230.7C838.8,81,736.4,0,548.5,0Z" 
	id="f0_27"
	transform="scale(0.001,-0.001)" />

	<path d="M143,0l0,1159l138,0L281,0Z" 
	id="f0_a"
	transform="scale(0.001,-0.001)" />

	<path d="M467.5,94.7c0,0,108.5,0,172.6,85.6c0,0,64.2,87.1,64.2,235.3c0,0,0,149.7,-64.2,235.2c0,0,-64.1,87.1,-172.6,87.1c0,0,-111.5,0,-175.7,-85.5c0,0,-64.2,-85.6,-64.2,-236.8c0,0,0,-149.8,64.2,-235.3c0,0,64.2,-85.6,175.7,-85.6Zm0,-116c0,0,-180.3,0,-281.1,116C186.4,94.7,84,210.8,84,415.6c0,0,0,206.2,100.9,322.3c0,0,102.3,117.7,282.6,117.7c0,0,178.8,0,281.1,-116.2c0,0,102.4,-117.6,102.4,-323.8c0,0,0,-204.8,-102.4,-320.9c0,0,-102.3,-116,-281.1,-116Z" 
	id="f0_7"
	transform="scale(0.001,-0.001)" />

	<path d="M137.5,0l0,834.2l139,0l0,-129.9c0,0,45.9,77.9,111.6,114.6c0,0,65.7,36.7,155.8,36.7c0,0,91.7,0,154.3,-45.9c0,0,64.2,-47.3,96.2,-135.9c0,0,50.5,93.1,122.3,137.5c0,0,71.8,44.3,168,44.3c0,0,131.4,0,201.7,-91.7c0,0,71.8,-91.7,71.8,-259.7L1358.2,0l-139,0l0,499.6c0,0,0,119.2,-41.3,177.2c0,0,-42.8,58.1,-129.8,58.1c0,0,-107,0,-168.1,-70.3c0,0,-62.6,-70.3,-62.6,-192.5L817.4,0L678.3,0l0,499.6c0,0,0,120.7,-41.2,177.2c0,0,-42.8,58.1,-131.4,58.1c0,0,-105.4,0,-166.5,-70.3c0,0,-62.7,-71.8,-62.7,-192.5L276.5,0Z" 
	id="f0_8"
	transform="scale(0.001,-0.001)" />

	<path d="M389,0l0,985L-3,985l0,128l939,0l0,-128l-396,0L540,0Z" 
	id="f0_1g"
	transform="scale(0.001,-0.001)" />

	<path d="M230.7,490.4l490.4,1.5c0,0,-1.5,111.6,-62.6,178.8c0,0,-62.7,67.2,-163.5,67.2c0,0,-114.6,0,-183.3,-64.1c0,0,-70.3,-65.7,-81,-183.4ZM516.4,-21.3c0,0,-198.6,0,-314.7,116C201.7,94.7,84,210.8,84,409.4c0,0,0,204.8,110,325.5c0,0,111.6,120.7,299.5,120.7c0,0,168,0,265.8,-108.5c0,0,99.3,-110,99.3,-296.4l0,-67.2l-632.5,0c0,0,9.2,-140.6,85.6,-213.9c0,0,76.4,-74.9,213.9,-74.9c0,0,77.9,0,152.7,18.4c0,0,74.9,19.8,148.2,58l0,-129.8c0,0,-74.8,-30.6,-151.2,-45.8c0,0,-77.9,-16.8,-158.9,-16.8Z" 
	id="f0_b"
	transform="scale(0.001,-0.001)" />

	<path d="M495,-21.3c0,0,-189.4,0,-299.4,117.6C195.6,96.3,84,215.4,84,415.6c0,0,0,204.7,111.6,322.3c0,0,113,117.7,308.6,117.7c0,0,62.6,0,122.2,-13.8c0,0,61.1,-13.7,117.6,-39.7l0,-128.3c0,0,-58,32,-116.1,47.3c0,0,-58,16.8,-119.1,16.8c0,0,-133,0,-206.3,-84c0,0,-74.9,-84,-74.9,-238.3c0,0,0,-152.8,73.4,-236.8c0,0,74.8,-84.1,207.8,-84.1c0,0,61.1,0,119.1,15.3c0,0,58.1,16.8,116.1,48.9L744,30.6c0,0,-56.5,-26,-117.6,-38.1c0,0,-62.6,-13.8,-131.4,-13.8Z" 
	id="f0_6"
	transform="scale(0.001,-0.001)" />

	<path d="M137.5,0l0,1159.6l139,0l0,-455.3c0,0,48.9,76.4,114.6,113.1c0,0,67.2,38.2,154.3,38.2c0,0,145.2,0,218.5,-88.7c0,0,73.3,-90.1,73.3,-262.7L837.2,0L699.7,0l0,499.6c0,0,0,117.6,-45.8,175.7c0,0,-45.8,59.6,-139,59.6c0,0,-110,0,-174.2,-70.3c0,0,-64.2,-70.3,-64.2,-192.5L276.5,0Z" 
	id="f0_f"
	transform="scale(0.001,-0.001)" />

	<path d="M137.5,0l0,834.2l139,0l0,-129.9c0,0,48.9,76.4,114.6,113.1c0,0,67.2,38.2,154.3,38.2c0,0,145.2,0,218.5,-88.7c0,0,73.3,-90.1,73.3,-262.7L837.2,0L699.7,0l0,499.6c0,0,0,117.6,-45.8,175.7c0,0,-45.8,59.6,-139,59.6c0,0,-110,0,-174.2,-70.3c0,0,-64.2,-70.3,-64.2,-192.5L276.5,0Z" 
	id="f0_4"
	transform="scale(0.001,-0.001)" />

	<path d="M458.3,114.6c0,0,111.6,0,172.7,81c0,0,62.6,82.5,62.6,230.7c0,0,0,149.7,-61.1,230.6c0,0,-62.6,82.5,-174.2,82.5c0,0,-110,0,-171.1,-80.9c0,0,-62.6,-82.5,-62.6,-232.2c0,0,0,-148.2,61.1,-229.2c0,0,62.6,-82.5,172.6,-82.5ZM444.6,-317.7c0,0,-71.8,0,-136,10.7c0,0,-64.2,12.2,-123.7,33.6l0,134.5c0,0,59.5,-33.6,117.6,-48.9c0,0,59.6,-15.3,120.7,-15.3c0,0,136,0,203.2,70.3c0,0,67.2,70.3,67.2,210.7l0,68.8c0,0,-42.8,-74.9,-108.5,-110C585.1,36.7,517.9,0,424.7,0c0,0,-152.8,0,-245.9,116.1c0,0,-94.8,117.7,-94.8,310.2c0,0,0,194,93.2,311.6c0,0,94.7,117.7,247.5,117.7c0,0,93.2,0,158.9,-36.7c0,0,67.2,-36.7,110,-111.5l0,126.8l136,0l0,-731.8c0,0,0,-210.8,-94.7,-314.7c0,0,-94.8,-105.4,-290.3,-105.4Z" 
	id="f0_x"
	transform="scale(0.001,-0.001)" />

	<path d="M120.7,-317.7l0,116.1l79.4,0c0,0,56.6,0,87.1,26c0,0,32.1,27.5,70.3,126.8l24.4,61L44.3,834.2l145.1,0L450.7,181.8L711.9,834.2l146.7,0L490.4,-76.3c0,0,-58,-149.7,-113,-195.5c0,0,-55,-45.9,-148.2,-45.9Z" 
	id="f0_r"
	transform="scale(0.001,-0.001)" />

	<path d="M282.6,0L62.6,834.2l137.5,0L372.8,183.3L542.4,834.2l161.9,0L876.9,183.3l171.2,650.9l135.9,0L965.6,0l-162,0L624.9,684.4L444.6,0Z" 
	id="f0_12"
	transform="scale(0.001,-0.001)" />

	<path d="M407.9,93.2c0,0,113.1,0,181.8,79.4c0,0,70.3,81,70.3,215.5l0,30.5l-137.5,0c0,0,-166.5,0,-230.7,-36.7c0,0,-64.2,-38.1,-64.2,-129.8c0,0,0,-73.3,47.4,-116.1c0,0,48.9,-42.8,132.9,-42.8ZM371.3,-21.3c0,0,-128.4,0,-203.2,71.7c0,0,-76.4,71.8,-76.4,192.5c0,0,0,140.6,93.2,212.4c0,0,94.7,71.8,282.6,71.8l192.5,0l0,13.7c0,0,0,94.8,-62.6,145.2c0,0,-62.7,51.9,-175.7,51.9c0,0,-71.8,0,-139.1,-16.8c0,0,-67.2,-16.8,-129.8,-51.9l0,126.8c0,0,74.8,30.5,145.1,44.3c0,0,71.8,15.3,139,15.3c0,0,180.3,0,268.9,-93.2c0,0,90.2,-94.8,90.2,-285.7L796,0L660,0l0,126.8c0,0,-47.4,-76.4,-117.6,-111.5c0,0,-70.3,-36.6,-171.1,-36.6Z" 
	id="f0_k"
	transform="scale(0.001,-0.001)" />

	<path d="M420.1,0c0,0,-158.8,0,-218.4,58.1c0,0,-61.1,59.5,-61.1,216.9l0,453.8l-100.9,0l0,105.4l100.9,0l0,238.3l139,0l0,-238.3l282.6,0l0,-105.4l-282.6,0l0,-453.8c0,0,0,-102.4,27.5,-131.4c0,0,27.5,-29,113,-29l142.1,0L562.2,0Z" 
	id="f0_c"
	transform="scale(0.001,-0.001)" />

	<path d="M375.8,-21.3c0,0,-67.2,0,-140.5,12.2c0,0,-73.4,12.2,-152.8,39.7l0,140.5c0,0,76.4,-39.7,149.7,-58c0,0,73.4,-19.9,146.7,-19.9c0,0,96.2,0,148.2,32.1c0,0,51.9,33.6,51.9,94.7c0,0,0,55,-36.6,84c0,0,-38.2,30.6,-165,58.1l-48.9,12.2c0,0,-126.8,26,-183.4,81c0,0,-56.5,56.5,-56.5,152.8c0,0,0,119.1,82.5,183.3c0,0,84,64.2,238.3,64.2c0,0,74.9,0,142.1,-10.7c0,0,67.3,-12.3,123.8,-35.2l0,-129.8c0,0,-58.1,30.5,-120.7,44.3c0,0,-62.7,15.2,-129.9,15.2c0,0,-102.3,0,-152.8,-30.5c0,0,-50.4,-32.1,-50.4,-94.7c0,0,0,-47.4,35.2,-74.9c0,0,36.6,-27.5,148.2,-51.9l45.8,-10.7c0,0,146.7,-30.6,207.8,-87.1c0,0,62.6,-58.1,62.6,-160.4c0,0,0,-116.1,-91.7,-183.4c0,0,-93.1,-67.1,-253.6,-67.1Z" 
	id="f0_g"
	transform="scale(0.001,-0.001)" />

	<path d="M143,0l0,834l138,0L281,0Zm0,985l0,174l138,0l0,-174Z" 
	id="f0_d"
	transform="scale(0.001,-0.001)" />

	<path d="M137.5,0l0,834.2l139,0l0,-129.9c0,0,42.8,76.4,111.6,113.1c0,0,70.2,38.2,169.5,38.2c0,0,13.8,0,30.6,-1.6c0,0,16.8,-3,38.2,-6.1l1.5,-142.1c0,0,-24.4,13.8,-50.4,19.9c0,0,-27.5,6.1,-61.1,6.1c0,0,-116.1,0,-177.2,-74.9c0,0,-62.7,-76.3,-62.7,-216.9l0,-440Z" 
	id="f0_l"
	transform="scale(0.001,-0.001)" />

	<path d="M508.8,93.2c0,0,110,0,171.1,85.6c0,0,62.6,85.5,62.6,236.8c0,0,0,152.7,-61.1,238.3c0,0,-62.6,85.5,-172.6,85.5c0,0,-108.5,0,-169.6,-85.5c0,0,-62.7,-85.6,-62.7,-238.3c0,0,0,-151.3,61.1,-236.8c0,0,62.7,-85.6,171.2,-85.6ZM137.5,-317.7l0,1151.9l139,0l0,-126.8c0,0,42.8,74.8,108.5,111.5c0,0,65.7,36.7,157.4,36.7c0,0,152.7,0,247.5,-120.7c0,0,96.2,-122.3,96.2,-319.3c0,0,0,-195.6,-94.7,-316.3c0,0,-96.3,-120.6,-249,-120.6c0,0,-91.7,0,-157.4,35.1c0,0,-65.7,36.6,-108.5,111.5l0,-443Z" 
	id="f0_9"
	transform="scale(0.001,-0.001)" />

	<path d="M146,699l0,414l127,0l0,-414Z" 
	id="f0_24"
	transform="scale(0.001,-0.001)" />

	<path d="M357.5,0L44.3,834.2l145.1,0L450.7,132.9L711.9,834.2l146.7,0L543.9,0Z" 
	id="f0_q"
	transform="scale(0.001,-0.001)" />

	<path d="M458.3,93.2c0,0,110,0,172.7,85.6c0,0,62.6,85.5,62.6,236.8c0,0,0,152.7,-62.6,238.3c0,0,-62.7,85.5,-172.7,85.5c0,0,-108.4,0,-171.1,-85.5c0,0,-62.6,-85.6,-62.6,-238.3c0,0,0,-151.3,62.6,-236.8c0,0,62.7,-85.6,171.1,-85.6ZM424.7,-21.3c0,0,-151.2,0,-245.9,120.6C178.8,99.3,84,220,84,415.6c0,0,0,197,94.8,317.7c0,0,94.7,122.3,245.9,122.3c0,0,93.2,0,158.9,-36.7c0,0,65.7,-36.7,110,-111.5l0,452.2l136,0L829.6,0l-136,0l0,125.3c0,0,-44.3,-74.9,-110,-110c0,0,-65.7,-36.6,-158.9,-36.6Z" 
	id="f0_h"
	transform="scale(0.001,-0.001)" />

	<path d="M137.5,0l0,1159.6l139,0l0,-684.5L686,834.2l174.1,0L417.1,444.6L880,0L699.7,0L276.5,407.9L276.5,0Z" 
	id="f0_1a"
	transform="scale(0.001,-0.001)" />

	<path d="M165,0l0,728.8l-131.4,0l0,105.4l131.4,0l0,58c0,0,0,140.6,64.2,203.2c0,0,65.7,64.2,207.7,64.2l129.9,0l0,-113.1l-131.4,0c0,0,-74.8,0,-102.3,-30.5c0,0,-29.1,-30.6,-29.1,-107l0,-74.8l226.1,0l0,-105.4l-226.1,0L304,0Z" 
	id="f0_e"
	transform="scale(0.001,-0.001)" />

	<path d="M165,0l0,728.8l-131.4,0l0,105.4l131.4,0l0,58c0,0,0,140.6,64.2,203.2c0,0,65.7,64.2,207.7,64.2l382,0L818.9,0l-139,0l0,1046.5l-244.5,0c0,0,-74.8,0,-102.3,-30.5c0,0,-29.1,-30.6,-29.1,-107l0,-74.8l226.1,0l0,-105.4l-226.1,0L304,0Z" 
	id="f0_2b"
	transform="scale(0.001,-0.001)" />

	<path d="M42.8,0L368.2,436.9L70.3,834.2l161.9,0L453.8,537.8L675.3,834.2l161.9,0L536.3,427.8L854,0L692.1,0L447.6,326.9L204.7,0Z" 
	id="f0_v"
	transform="scale(0.001,-0.001)" />

	<path d="M508.8,93.2c0,0,110,0,171.1,85.6c0,0,62.6,85.5,62.6,236.8c0,0,0,152.7,-61.1,238.3c0,0,-62.6,85.5,-172.6,85.5c0,0,-108.5,0,-169.6,-85.5c0,0,-62.7,-85.6,-62.7,-238.3c0,0,0,-151.3,61.1,-236.8c0,0,62.7,-85.6,171.2,-85.6ZM542.4,-21.3c0,0,-91.7,0,-157.4,35.1c0,0,-65.7,36.6,-108.5,111.5L276.5,0l-139,0l0,1159.6l139,0l0,-452.2c0,0,42.8,74.8,108.5,111.5c0,0,65.7,36.7,157.4,36.7c0,0,152.7,0,247.5,-120.7c0,0,96.2,-122.3,96.2,-319.3c0,0,0,-195.6,-94.7,-316.3c0,0,-96.3,-120.6,-249,-120.6Z" 
	id="f0_m"
	transform="scale(0.001,-0.001)" />

	<path d="M161,0l0,189l158,0L319,0Z" 
	id="f0_1c"
	transform="scale(0.001,-0.001)" />

	<path d="M189.4,0l0,126.8l246,0l0,849.5L166.5,922.8l0,136l267.4,55l149.7,0l0,-987l246,0L829.6,0Z" 
	id="f0_2"
	transform="scale(0.001,-0.001)" />

	<path d="M629.4,-21.3c0,0,-253.6,0,-398.7,154.2c0,0,-145.1,154.3,-145.1,421.7c0,0,0,268.9,145.1,423.2c0,0,145.1,155.8,398.7,155.8c0,0,99.4,0,188,-26c0,0,88.6,-27.5,166.5,-80.9l0,-158.9c0,0,-76.4,71.8,-162,106.9c0,0,-87,35.2,-184.8,35.2c0,0,-191,0,-291.8,-116.1c0,0,-100.9,-117.7,-100.9,-339.2c0,0,0,-220,100.9,-336.1c0,0,100.8,-117.7,291.8,-117.7c0,0,97.8,0,183.3,35.2c0,0,87.1,35.1,163.5,106.9l0,-157.3c0,0,-79.5,-55,-168.1,-81c0,0,-88.6,-25.9,-186.4,-25.9Z" 
	id="f0_15"
	transform="scale(0.001,-0.001)" />

	<path d="M436.9,0L10.7,1113.8l157.4,0L521,175.7l354.4,938.1l155.9,0L606.5,0Z" 
	id="f0_1y"
	transform="scale(0.001,-0.001)" />

	<path d="M456.8,-21.3c0,0,-77.9,0,-166.5,16.8c0,0,-90.2,18.3,-186.4,53.4l0,154.3c0,0,91.7,-50.4,180.3,-76.4c0,0,88.6,-27.5,172.6,-27.5c0,0,129.9,0,200.1,50.4c0,0,70.3,52,70.3,145.2c0,0,0,82.5,-50.4,128.3c0,0,-50.4,47.4,-166.5,70.3l-91.7,16.8c0,0,-168,33.6,-242.9,105.4c0,0,-76.4,71.8,-76.4,200.1c0,0,0,146.7,103.9,232.3c0,0,105.4,85.5,287.2,85.5c0,0,79.5,0,160.4,-13.7c0,0,81,-15.3,166.6,-42.8l0,-148.2c0,0,-85.6,41.2,-162,61.1c0,0,-76.4,21.4,-146.6,21.4c0,0,-123.8,0,-189.5,-47.4c0,0,-67.2,-48.9,-67.2,-137.5c0,0,0,-73.3,44.3,-110c0,0,44.3,-38.2,168,-61.1l90.2,-19.8c0,0,169.6,-32.1,249,-111.6c0,0,81,-80.9,81,-216.9c0,0,0,-162,-108.5,-244.5c0,0,-108.5,-83.9,-319.3,-83.9Z" 
	id="f0_z"
	transform="scale(0.001,-0.001)" />

	<path d="M679.9,985.4l0,172.7l139,0l0,-172.7ZM165,0l0,728.8l-131.4,0l0,105.4l131.4,0l0,58c0,0,0,137.5,64.2,201.7c0,0,65.7,65.7,198.6,65.7l139,0l0,-113.1l-131.4,0c0,0,-74.8,0,-102.3,-30.5c0,0,-29.1,-30.6,-29.1,-107l0,-74.8l514.9,0L818.9,0l-139,0l0,728.8l-375.9,0L304,0Z" 
	id="f0_1s"
	transform="scale(0.001,-0.001)" />

	<path d="M178,0l0,189l158,0L336,0Zm0,600l0,189l158,0l0,-189Z" 
	id="f0_n"
	transform="scale(0.001,-0.001)" />

	<path d="M111.5,0l0,126.8c0,0,85.6,88.6,233.8,236.8c0,0,148.2,149.7,186.4,194c0,0,71.8,81,100.8,137.5c0,0,29,56.6,29,110c0,0,0,88.7,-62.6,145.2c0,0,-62.6,56.5,-162,56.5c0,0,-71.8,0,-149.7,-24.4c0,0,-79.4,-26,-168,-74.9l0,151.3c0,0,90.1,36.6,169.6,55c0,0,79.4,19.8,145.1,19.8c0,0,172.6,0,275,-87.1c0,0,103.9,-87.1,103.9,-230.7c0,0,0,-68.7,-26,-129.8c0,0,-26,-62.7,-93.2,-145.2c0,0,-19.8,-22.9,-119.2,-125.2c0,0,-99.3,-103.9,-282.6,-288.8l527.1,0L818.9,0Z" 
	id="f0_t"
	transform="scale(0.001,-0.001)" />

	<path d="M149,0l0,1113l150,0L299,0Z" 
	id="f0_u"
	transform="scale(0.001,-0.001)" />

	<path d="M421.7,-21.3c0,0,-143.6,0,-218.5,88.5L128.3,328.5l0,505.7l137.5,0l0,-499.6c0,0,0,-119.2,45.9,-178.8c0,0,47.3,-59.5,139,-59.5c0,0,111.5,0,175.7,70.2c0,0,65.7,71.8,65.7,194.1l0,473.6l136,0L828.1,0l-136,0l0,126.8c0,0,-50.4,-74.9,-116.1,-111.5c0,0,-67.2,-36.6,-154.3,-36.6Z" 
	id="f0_i"
	transform="scale(0.001,-0.001)" />

	<path d="M352.9,-200c0,0,-111.5,174.1,-166.5,342.1c0,0,-56.5,169.6,-56.5,336.1c0,0,0,166.5,55,334.6c0,0,56.5,169.6,168,345.3l120.7,0c0,0,-100.8,-171.2,-148.2,-339.2c0,0,-48.9,-168.1,-48.9,-340.7c0,0,0,-171.1,48.9,-339.2c0,0,48.9,-169.5,148.2,-339Z" 
	id="f0_1i"
	transform="scale(0.001,-0.001)" />

	<path d="M122.2,-200c0,0,99.3,169.5,146.7,337.5c0,0,48.9,169.6,48.9,340.7c0,0,0,172.6,-47.4,340.7c0,0,-48.9,168,-148.2,339.2l119.2,0c0,0,111.5,-175.7,166.5,-343.8c0,0,56.5,-169.6,56.5,-336.1c0,0,0,-166.5,-55,-334.6c0,0,-56.5,-169.5,-168,-343.6Z" 
	id="f0_o"
	transform="scale(0.001,-0.001)" />

	<path d="M559.2,-21.3c0,0,-210.9,0,-319.3,109.9c0,0,-108.5,111.5,-108.5,328.5l0,696.7l152.8,0l0,-676.9c0,0,0,-180.2,64.1,-258.1c0,0,64.2,-79.5,210.9,-79.5c0,0,143.6,0,207.7,77.9c0,0,65.7,79.5,65.7,259.7l0,676.9l152.8,0l0,-696.7c0,0,0,-217,-108.5,-327c0,0,-108.4,-111.4,-317.7,-111.4Z" 
	id="f0_p"
	transform="scale(0.001,-0.001)" />

	<path d="M412.5,-21.3c0,0,-68.7,0,-143.6,12.2c0,0,-74.9,13.7,-152.8,41.2l0,146.7c0,0,62.7,-36.7,136,-55c0,0,74.8,-19.9,157.3,-19.9c0,0,140.6,0,215.5,56.5c0,0,74.8,56.5,74.8,162c0,0,0,99.3,-68.7,154.3c0,0,-70.3,56.5,-192.5,56.5l-129.9,0l0,123.7l136,0c0,0,110,0,168,44.4c0,0,59.6,44.3,59.6,126.8c0,0,0,87,-59.6,132.9c0,0,-61.1,45.8,-174.1,45.8c0,0,-62.7,0,-132.9,-13.7c0,0,-71.8,-13.8,-155.9,-41.3l0,132.9c0,0,85.6,24.5,160.4,36.7c0,0,74.9,12.2,140.6,12.2c0,0,172.6,0,271.9,-77.9c0,0,100.9,-77.9,100.9,-210.8c0,0,0,-93.2,-53.5,-155.9c0,0,-53.5,-64.1,-151.2,-88.6c0,0,108.4,-24.4,169.5,-96.2c0,0,61.1,-73.4,61.1,-181.8c0,0,0,-163.5,-113,-253.6c0,0,-114.6,-90.1,-323.9,-90.1Z" 
	id="f0_y"
	transform="scale(0.001,-0.001)" />

	<path d="M576,386.5l0,595.9L195.6,386.5ZM576,0l0,261.3l-502.7,0l0,146.6l464.5,705.9l189.4,0l0,-727.3l158.9,0l0,-125.2l-158.9,0L727.2,0Z" 
	id="f0_10"
	transform="scale(0.001,-0.001)" />

	<path d="M149,0l0,1113l640,0l0,-128l-490,0l0,-327l441,0l0,-127l-441,0L299,0Z" 
	id="f0_19"
	transform="scale(0.001,-0.001)" />


</defs>
</svg>