<?xml version="1.0" encoding="UTF-8" standalone="no"?>
<!DOCTYPE svg PUBLIC "-//W3C//DTD SVG 1.1//EN"
"http://www.w3.org/Graphics/SVG/1.1/DTD/svg11.dtd">
<svg viewBox="0 0 1100 825" version="1.1" xmlns="http://www.w3.org/2000/svg" xmlns:xlink="http://www.w3.org/1999/xlink">
<defs>
<style type="text/css"><![CDATA[
.g2_93{
fill: #418AB3;
}
.g4_93{
}
.g3_93{
fill: none;
stroke: #000000;
stroke-width: 2;
stroke-linecap: butt;
stroke-linejoin: miter;
}
.g1_93{
fill: #FFFFFF;
}
]]></style>
</defs>
<path fill-rule="evenodd" d="M0,0L1100,0l0,825L0,825L0,0Z" class="g1_93" />
<path fill-rule="evenodd" d="M0,0L1100,0l0,825L0,825L0,0Z" class="g1_93" />
<image x="753" y="777" width="303" height="38" xlink:href="img/1.png" />
<path fill-rule="evenodd" d="M672,111l125,0l0,68l-125,0l0,-68Z" class="g2_93" />
<path fill-rule="evenodd" d="M909,111l126,0l0,68l-126,0l0,-68Z" class="g2_93" />
<path d="M797.8,145.6l99.5,0.1" class="g3_93" />
<path fill-rule="evenodd" d="M909.9,145.7l-12.3,6.8l-1.3,-2l8.8,-4.8l-8.8,-4.8l1.3,-2l12.3,6.8Z" class="g4_93" />
</svg>