<?xml version="1.0" encoding="UTF-8" standalone="no"?>
<!DOCTYPE svg PUBLIC "-//W3C//DTD SVG 1.1//EN"
"http://www.w3.org/Graphics/SVG/1.1/DTD/svg11.dtd">
<svg viewBox="0 0 1100 825" version="1.1" xmlns="http://www.w3.org/2000/svg" xmlns:xlink="http://www.w3.org/1999/xlink">
<defs>
<style type="text/css"><![CDATA[
.g2_119{
fill: none;
stroke: #418AB3;
stroke-width: 2;
stroke-linecap: butt;
stroke-linejoin: miter;
stroke-miterlimit: 7;
}
.g1_119{
fill: #FFFFFF;
}
]]></style>
</defs>
<path fill-rule="evenodd" d="M0,0L1100,0l0,825L0,825L0,0Z" class="g1_119" />
<path fill-rule="evenodd" d="M0,0L1100,0l0,825L0,825L0,0Z" class="g1_119" />
<image x="753" y="777" width="303" height="38" xlink:href="img/1.png" />
<path fill-rule="evenodd" d="M916.1,12.1l0,-0.3l0,-0.3l0.1,-0.3l0,-0.4l0,-0.1l0.2,-0.3l0.1,-0.3l0,-0.3l0.2,-0.2l0.1,-0.3L917,9l0.1,-0.1l0.2,-0.3l0.1,-0.2l0.3,-0.3l0.2,-0.2L918,7.8l0.3,-0.2l0.4,-0.1l0.1,-0.2l0.3,-0.1L919.4,7l0.2,-0.1l0.3,0l0.3,-0.2l0.3,0l0.3,-0.1l0.3,0l0.2,0l0.3,0l167.7,0l0.3,0l0.2,0l0.3,0l0.3,0.1l0.3,0l0.3,0.2l0.3,0l0.1,0.1l0.3,0.2l0.4,0.1l0.1,0.2l0.3,0.1l0.2,0.2l0.3,0.1l0.1,0.4l0.2,0.1l0.3,0.2l0.1,0.3l0.2,0.3l0.1,0.1l0.2,0.3l0.1,0.2l0,0.3l0.2,0.3l0.2,0.3l0,0.3l0,0.2l0,0.3l0.1,0.3l0,0.3l0,22.3l0,0.1l0,0.3l-0.1,0.3l0,0.3l0,0.4l-0.2,0.3l-0.2,0.3l0,0.1l-0.1,0.3l-0.2,0.3l-0.1,0.2l-0.2,0.3l-0.1,0.1l-0.2,0.3l-0.3,0.2l-0.1,0.1l-0.3,0.4l-0.2,0.1l-0.3,0.2l-0.1,0.1l-0.4,0.2l-0.3,0l-0.1,0.1l-0.3,0.2l-0.3,0l-0.3,0.1l-0.3,0l-0.3,0l-0.2,0.2l-0.3,0l-167.7,0l-0.3,0l-0.2,0l-0.3,-0.2l-0.3,0l-0.3,0l-0.3,-0.1l-0.3,-0.2l-0.2,0l-0.3,-0.1l-0.3,-0.2L918.7,39l-0.4,-0.2L918,38.7l-0.1,-0.4l-0.2,-0.1L917.4,38l-0.1,-0.3l-0.2,-0.1L917,37.3l-0.2,-0.2l-0.1,-0.3l-0.2,-0.3l0,-0.1l-0.1,-0.3l-0.2,-0.3l0,-0.4l0,-0.3l-0.1,-0.3l0,-0.3l0,-0.1l0,-22.3Z" class="g1_119" />
<path d="M916.1,12.1l0,-0.3l0,-0.3l0.1,-0.3l0,-0.4l0,-0.1l0.2,-0.3l0.1,-0.3l0,-0.3l0.2,-0.2l0.1,-0.3L917,9l0.1,-0.1l0.2,-0.3l0.1,-0.2l0.3,-0.3l0.2,-0.2L918,7.8l0.3,-0.2l0.4,-0.1l0.1,-0.2l0.3,-0.1L919.4,7l0.2,-0.1l0.3,0l0.3,-0.2l0.3,0l0.3,-0.1l0.3,0l0.2,0l0.3,0l167.7,0l0.3,0l0.2,0l0.3,0l0.3,0.1l0.3,0l0.3,0.2l0.3,0l0.1,0.1l0.3,0.2l0.4,0.1l0.1,0.2l0.3,0.1l0.2,0.2l0.3,0.1l0.1,0.4l0.2,0.1l0.3,0.2l0.1,0.3l0.2,0.3l0.1,0.1l0.2,0.3l0.1,0.2l0,0.3l0.2,0.3l0.2,0.3l0,0.3l0,0.2l0,0.3l0.1,0.3l0,0.3l0,22.3l0,0.1l0,0.3l-0.1,0.3l0,0.3l0,0.4l-0.2,0.3l-0.2,0.3l0,0.1l-0.1,0.3l-0.2,0.3l-0.1,0.2l-0.2,0.3l-0.1,0.1l-0.2,0.3l-0.3,0.2l-0.1,0.1l-0.3,0.4l-0.2,0.1l-0.3,0.2l-0.1,0.1l-0.4,0.2l-0.3,0l-0.1,0.1l-0.3,0.2l-0.3,0l-0.3,0.1l-0.3,0l-0.3,0l-0.2,0.2l-0.3,0l-167.7,0l-0.3,0l-0.2,0l-0.3,-0.2l-0.3,0l-0.3,0l-0.3,-0.1l-0.3,-0.2l-0.2,0l-0.3,-0.1l-0.3,-0.2L918.7,39l-0.4,-0.2L918,38.7l-0.1,-0.4l-0.2,-0.1L917.4,38l-0.1,-0.3l-0.2,-0.1L917,37.3l-0.2,-0.2l-0.1,-0.3l-0.2,-0.3l0,-0.1l-0.1,-0.3l-0.2,-0.3l0,-0.4l0,-0.3l-0.1,-0.3l0,-0.3l0,-0.1l0,-22.3Z" class="g2_119" />
</svg>