<?xml version="1.0" encoding="UTF-8" standalone="no"?>
<!DOCTYPE svg PUBLIC "-//W3C//DTD SVG 1.1//EN"
"http://www.w3.org/Graphics/SVG/1.1/DTD/svg11.dtd">
<svg viewBox="0 0 1100 825" version="1.1" xmlns="http://www.w3.org/2000/svg" xmlns:xlink="http://www.w3.org/1999/xlink">
<defs>
<style type="text/css"><![CDATA[
.g2_89{
fill: none;
stroke: #418AB3;
stroke-width: 2;
stroke-linecap: butt;
stroke-linejoin: miter;
stroke-miterlimit: 7;
}
.g1_89{
fill: #FFFFFF;
}
]]></style>
</defs>
<path fill-rule="evenodd" d="M0,0L1100,0l0,825L0,825L0,0Z" class="g1_89" />
<path fill-rule="evenodd" d="M0,0L1100,0l0,825L0,825L0,0Z" class="g1_89" />
<path fill-rule="evenodd" d="M853.3,19.7l0,-0.3l0,-0.3l0,-0.3l0.1,-0.3l0,-0.3l0.2,-0.3l0,-0.3l0.1,-0.2l0.2,-0.3L854,16.8l0.2,-0.1l0.1,-0.4L854.5,16l0.1,-0.1l0.3,-0.3l0.2,-0.2l0.3,-0.1L855.6,15l0.3,-0.2l0.3,-0.1l0.3,-0.2l0.1,-0.1l0.3,0l0.3,-0.2l0.3,0l0.3,-0.1l0.4,0l0.3,0l0.3,-0.2l0.3,0l220.6,0l0.3,0l0.3,0.2l0.3,0l0.3,0l0.3,0.1l0.3,0l0.2,0.2l0.3,0.1l0.3,0.2l0.3,0l0.1,0.3l0.3,0.1l0.3,0.2l0.2,0.1l0.2,0.2l0.3,0.3l0.1,0.1l0.2,0.3l0.3,0.4l0,0.1l0.3,0.3l0,0.3l0.1,0.3l0.2,0.2l0,0.3l0.1,0.3l0,0.3l0,0.3l0,0.3l0,0.3l0.2,22.9l0,0.3l-0.2,0.3l0,0.3l0,0.3l-0.1,0.4l0,0.3l-0.2,0.3l-0.1,0.3l0,0.3l-0.2,0.1l-0.1,0.3l-0.3,0.3l-0.2,0.2l-0.1,0.1l-0.2,0.4l-0.3,0.1l-0.2,0.3l-0.3,0.2l-0.3,0.1l-0.1,0.2l-0.3,0.1L1082,48l-0.3,0l-0.2,0.1l-0.3,0.2l-0.3,0l-0.3,0l-0.3,0.1l-0.3,0l-0.3,0l-220.6,0l-0.3,0l-0.3,0l-0.3,0l-0.4,-0.1l-0.3,0l-0.3,-0.2l-0.3,0L856.6,48l-0.1,-0.2l-0.3,-0.1l-0.3,-0.2l-0.3,-0.1l-0.2,-0.2l-0.3,-0.1l-0.2,-0.3l-0.3,-0.2l-0.1,-0.3l-0.2,-0.2l-0.1,-0.3L854,45.5l-0.1,-0.1l-0.2,-0.3l-0.1,-0.3l0,-0.3l-0.2,-0.3l0,-0.4l-0.1,-0.3l0,-0.3l0,-0.3l0,-0.3l0,-22.9Z" class="g1_89" />
<path d="M853.3,19.7l0,-0.3l0,-0.3l0,-0.3l0.1,-0.3l0,-0.3l0.2,-0.3l0,-0.3l0.1,-0.2l0.2,-0.3L854,16.8l0.2,-0.1l0.1,-0.4L854.5,16l0.1,-0.1l0.3,-0.3l0.2,-0.2l0.3,-0.1L855.6,15l0.3,-0.2l0.3,-0.1l0.3,-0.2l0.1,-0.1l0.3,0l0.3,-0.2l0.3,0l0.3,-0.1l0.4,0l0.3,0l0.3,-0.2l0.3,0l220.6,0l0.3,0l0.3,0.2l0.3,0l0.3,0l0.3,0.1l0.3,0l0.2,0.2l0.3,0.1l0.3,0.2l0.3,0l0.1,0.3l0.3,0.1l0.3,0.2l0.2,0.1l0.2,0.2l0.3,0.3l0.1,0.1l0.2,0.3l0.3,0.4l0,0.1l0.3,0.3l0,0.3l0.1,0.3l0.2,0.2l0,0.3l0.1,0.3l0,0.3l0,0.3l0,0.3l0,0.3l0.2,22.9l0,0.3l-0.2,0.3l0,0.3l0,0.3l-0.1,0.4l0,0.3l-0.2,0.3l-0.1,0.3l0,0.3l-0.2,0.1l-0.1,0.3l-0.3,0.3l-0.2,0.2l-0.1,0.1l-0.2,0.4l-0.3,0.1l-0.2,0.3l-0.3,0.2l-0.3,0.1l-0.1,0.2l-0.3,0.1L1082,48l-0.3,0l-0.2,0.1l-0.3,0.2l-0.3,0l-0.3,0l-0.3,0.1l-0.3,0l-0.3,0l-220.6,0l-0.3,0l-0.3,0l-0.3,0l-0.4,-0.1l-0.3,0l-0.3,-0.2l-0.3,0L856.6,48l-0.1,-0.2l-0.3,-0.1l-0.3,-0.2l-0.3,-0.1l-0.2,-0.2l-0.3,-0.1l-0.2,-0.3l-0.3,-0.2l-0.1,-0.3l-0.2,-0.2l-0.1,-0.3L854,45.5l-0.1,-0.1l-0.2,-0.3l-0.1,-0.3l0,-0.3l-0.2,-0.3l0,-0.4l-0.1,-0.3l0,-0.3l0,-0.3l0,-0.3l0,-22.9Z" class="g2_89" />
</svg>