<?xml version="1.0" encoding="UTF-8" standalone="no"?>
<!DOCTYPE svg PUBLIC "-//W3C//DTD SVG 1.1//EN"
"http://www.w3.org/Graphics/SVG/1.1/DTD/svg11.dtd">
<svg viewBox="0 0 1210 1210" version="1.1" xmlns="http://www.w3.org/2000/svg" xmlns:xlink="http://www.w3.org/1999/xlink">
<defs>
<style type="text/css"><![CDATA[
.g2_96{
fill: none;
stroke: #418AB3;
stroke-width: 2;
stroke-linecap: butt;
stroke-linejoin: miter;
stroke-miterlimit: 7;
}
.g3_96{
fill: none;
stroke: #0000EE;
stroke-width: 2;
stroke-linecap: butt;
stroke-linejoin: miter;
}
.g1_96{
fill: #FFFFFF;
}
]]></style>
</defs>
<path fill-rule="evenodd" d="M0,0L1210,0l0,1210L0,1210L0,0Z" class="g1_96" />
<path fill-rule="evenodd" d="M0,0L1210,0l0,1210L0,1210L0,0Z" class="g1_96" />
<path fill-rule="evenodd" d="M165,373.2l0,-1l0.2,-0.9l0,-1.1l0.3,-1.1l0.1,-0.9l0.3,-1.1l0.3,-0.9l0.5,-1.1l0.4,-0.7l0.5,-1.1l0.6,-0.8l0.5,-0.9l0.7,-0.7l0.6,-1l0.8,-0.6l0.8,-0.7l0.7,-0.6l0.8,-0.8l0.9,-0.5l0.9,-0.6l0.9,-0.4l1,-0.5l0.9,-0.4l0.9,-0.4l1.1,-0.3l0.9,-0.3l1.1,-0.1l1,-0.2l0.9,0l1.1,0l840.4,0l1.1,0l0.9,0l1.1,0.2l1.1,0.1l0.9,0.3l1.1,0.3l0.9,0.4l1,0.4l1,0.5l0.9,0.4l0.7,0.6l0.9,0.6l0.8,0.7l0.8,0.6l0.7,0.7l0.8,0.8l0.6,0.8l0.6,0.7l0.6,0.9l0.7,1l0.4,0.9l0.5,0.7l0.4,1.1l0.3,0.9l0.3,1.1l0.2,0.9l0.1,1.1l0.3,1.1l0,0.9l0,1l0.2,79.3l-0.2,1.1l0,1.1l-0.1,1l-0.2,1l-0.3,1l-0.3,0.9l-0.3,1.1l-0.4,0.9l-0.3,0.9l-0.6,1l-0.5,0.9l-0.6,0.7l-0.6,1l-0.8,0.7l-0.6,0.8l-0.8,0.7l-0.7,0.7l-1,0.6l-0.9,0.6l-0.7,0.4l-0.9,0.6l-1,0.5l-1,0.3l-0.9,0.5l-1.1,0.1l-0.9,0.3l-1.1,0.2l-1.1,0.1l-0.9,0l-1.1,0.2l-840.4,0l-1.1,0l-0.9,-0.2l-1,0l-1.1,-0.3l-0.9,-0.1l-1.1,-0.3l-0.9,-0.3l-0.9,-0.5l-1,-0.5l-0.9,-0.4L174,469.2l-0.9,-0.5L172.3,468l-0.7,-0.7l-0.8,-0.7L170,465.8l-0.6,-0.7l-0.7,-0.8l-0.5,-0.9l-0.6,-0.9l-0.5,-1l-0.4,-0.9l-0.5,-0.9l-0.3,-0.9l-0.3,-1.1l-0.1,-1l-0.3,-1l0,-1L165,453.6l0,-1.1l0,-79.3Z" class="g1_96" />
<path d="M165,373.2l0,-1l0.2,-0.9l0,-1.1l0.3,-1.1l0.1,-0.9l0.3,-1.1l0.3,-0.9l0.5,-1.1l0.4,-0.7l0.5,-1.1l0.6,-0.8l0.5,-0.9l0.7,-0.7l0.6,-1l0.8,-0.6l0.8,-0.7l0.7,-0.6l0.8,-0.8l0.9,-0.5l0.9,-0.6l0.9,-0.4l1,-0.5l0.9,-0.4l0.9,-0.4l1.1,-0.3l0.9,-0.3l1.1,-0.1l1,-0.2l0.9,0l1.1,0l840.4,0l1.1,0l0.9,0l1.1,0.2l1.1,0.1l0.9,0.3l1.1,0.3l0.9,0.4l1,0.4l1,0.5l0.9,0.4l0.7,0.6l0.9,0.6l0.8,0.7l0.8,0.6l0.7,0.7l0.8,0.8l0.6,0.8l0.6,0.7l0.6,0.9l0.7,1l0.4,0.9l0.5,0.7l0.4,1.1l0.3,0.9l0.3,1.1l0.2,0.9l0.1,1.1l0.3,1.1l0,0.9l0,1l0.2,79.3l-0.2,1.1l0,1.1l-0.1,1l-0.2,1l-0.3,1l-0.3,0.9l-0.3,1.1l-0.4,0.9l-0.3,0.9l-0.6,1l-0.5,0.9l-0.6,0.7l-0.6,1l-0.8,0.7l-0.6,0.8l-0.8,0.7l-0.7,0.7l-1,0.6l-0.9,0.6l-0.7,0.4l-0.9,0.6l-1,0.5l-1,0.3l-0.9,0.5l-1.1,0.1l-0.9,0.3l-1.1,0.2l-1.1,0.1l-0.9,0l-1.1,0.2l-840.4,0l-1.1,0l-0.9,-0.2l-1,0l-1.1,-0.3l-0.9,-0.1l-1.1,-0.3l-0.9,-0.3l-0.9,-0.5l-1,-0.5l-0.9,-0.4L174,469.2l-0.9,-0.5L172.3,468l-0.7,-0.7l-0.8,-0.7L170,465.8l-0.6,-0.7l-0.7,-0.8l-0.5,-0.9l-0.6,-0.9l-0.5,-1l-0.4,-0.9l-0.5,-0.9l-0.3,-0.9l-0.3,-1.1l-0.1,-1l-0.3,-1l0,-1L165,453.6l0,-1.1l0,-79.3Z" class="g2_96" />
<path d="M305,438l66,0" class="g3_96" />
<path d="M371,438l396,0" class="g3_96" />
<image x="91" y="146" width="482" height="104" xlink:href="img/1.png" />
</svg>