<?xml version="1.0" encoding="UTF-8" standalone="no"?>
<!DOCTYPE svg PUBLIC "-//W3C//DTD SVG 1.1//EN"
"http://www.w3.org/Graphics/SVG/1.1/DTD/svg11.dtd">
<svg viewBox="0 0 1100 825" version="1.1" xmlns="http://www.w3.org/2000/svg" xmlns:xlink="http://www.w3.org/1999/xlink">
<defs>
<style type="text/css"><![CDATA[
.g4_33{
fill: none;
stroke: #000000;
stroke-width: 2;
stroke-linecap: butt;
stroke-linejoin: miter;
stroke-miterlimit: 7;
}
.g5_33{
fill: none;
stroke: #0070C0;
stroke-width: 2;
stroke-linecap: butt;
stroke-linejoin: miter;
}
.g2_33{
fill: #D4D4D4;
}
.g3_33{
fill: none;
stroke: #418AB3;
stroke-width: 2;
stroke-linecap: butt;
stroke-linejoin: miter;
stroke-miterlimit: 7;
}
.g1_33{
fill: #FFFFFF;
}
]]></style>
</defs>
<path fill-rule="evenodd" d="M0,0L1100,0l0,825L0,825L0,0Z" class="g1_33" />
<path fill-rule="evenodd" d="M0,0L1100,0l0,825L0,825L0,0Z" class="g1_33" />
<image x="753" y="777" width="303" height="38" xlink:href="img/1.png" />
<path fill-rule="evenodd" d="M737.2,237l348,0l0,337.9L1027.1,633l-289.9,0l0,-396Z" class="g1_33" />
<path fill-rule="evenodd" d="M1027.1,633l11.6,-46.5l46.5,-11.6L1027.1,633Z" class="g2_33" />
<path d="M1027.1,633l11.6,-46.5l46.5,-11.6L1027.1,633l-289.9,0l0,-396l348,0l0,337.9" class="g3_33" />
<path fill-rule="evenodd" d="M31.6,212.2l0,-0.6l0.2,-0.8l0.1,-0.6l0,-0.6L32.1,209l0.1,-0.6l0.3,-0.6l0.3,-0.6L33,206.6l0.3,-0.7l0.5,-0.4l0.3,-0.6l0.4,-0.5L34.8,204l0.5,-0.5L35.7,203l0.7,-0.4l0.4,-0.5l0.5,-0.3l0.6,-0.3l0.6,-0.3L39,200.9l0.6,-0.2l0.6,-0.3l0.6,-0.1l0.8,-0.2L42.2,200l0.6,0l0.6,-0.2l0.6,0l639.4,0l0.6,0l0.6,0.2l0.6,0l0.6,0.1l0.6,0.2l0.6,0.1l0.7,0.3l0.6,0.2l0.6,0.3l0.6,0.3l0.4,0.3l0.7,0.5l0.4,0.3l0.5,0.4l0.4,0.5l0.5,0.5l0.4,0.4l0.5,0.6l0.3,0.5l0.3,0.6l0.3,0.5l0.3,0.6l0.3,0.6l0.2,0.6l0.1,0.6l0.2,0.6l0.1,0.8l0,0.4l0.2,0.8l0,0.6l0.1,49.4l-0.1,0l0,0.7l0,0.6l-0.2,0.6l0,0.7l-0.3,0.6l-0.1,0.6l-0.2,0.6l-0.3,0.6l-0.1,0.6l-0.5,0.6l-0.3,0.5l-0.3,0.6l-0.5,0.4l-0.4,0.5l-0.5,0.5l-0.4,0.4l-0.5,0.5l-0.4,0.4l-0.7,0.3l-0.4,0.4l-0.6,0.3l-0.6,0.3l-0.6,0.3l-0.7,0.1l-0.6,0.2l-0.6,0.1l-0.6,0.2l-0.6,0l-0.6,0.1l-0.6,0L44,273.9l-0.6,0l-0.6,0l-0.6,-0.1l-0.6,-0.2l-0.8,-0.1l-0.6,-0.2l-0.6,-0.1L39,272.9l-0.5,-0.3l-0.6,-0.3l-0.6,-0.4l-0.5,-0.3l-0.4,-0.4l-0.7,-0.3l-0.4,-0.5L34.8,270l-0.3,-0.7l-0.4,-0.4l-0.3,-0.6l-0.5,-0.5L33,267.2l-0.2,-0.6L32.5,266l-0.3,-0.6l-0.1,-0.6l-0.2,-0.6l0,-0.7l-0.1,-0.6l-0.2,-0.6l0,-0.7l0,-49.4Z" class="g1_33" />
<path d="M31.6,212.2l0,-0.6l0.2,-0.8l0.1,-0.6l0,-0.6L32.1,209l0.1,-0.6l0.3,-0.6l0.3,-0.6L33,206.6l0.3,-0.7l0.5,-0.4l0.3,-0.6l0.4,-0.5L34.8,204l0.5,-0.5L35.7,203l0.7,-0.4l0.4,-0.5l0.5,-0.3l0.6,-0.3l0.6,-0.3L39,200.9l0.6,-0.2l0.6,-0.3l0.6,-0.1l0.8,-0.2L42.2,200l0.6,0l0.6,-0.2l0.6,0l639.4,0l0.6,0l0.6,0.2l0.6,0l0.6,0.1l0.6,0.2l0.6,0.1l0.7,0.3l0.6,0.2l0.6,0.3l0.6,0.3l0.4,0.3l0.7,0.5l0.4,0.3l0.5,0.4l0.4,0.5l0.5,0.5l0.4,0.4l0.5,0.6l0.3,0.5l0.3,0.6l0.3,0.5l0.3,0.6l0.3,0.6l0.2,0.6l0.1,0.6l0.2,0.6l0.1,0.8l0,0.4l0.2,0.8l0,0.6l0.1,49.4l-0.1,0l0,0.7l0,0.6l-0.2,0.6l0,0.7l-0.3,0.6l-0.1,0.6l-0.2,0.6l-0.3,0.6l-0.1,0.6l-0.5,0.6l-0.3,0.5l-0.3,0.6l-0.5,0.4l-0.4,0.5l-0.5,0.5l-0.4,0.4l-0.5,0.5l-0.4,0.4l-0.7,0.3l-0.4,0.4l-0.6,0.3l-0.6,0.3l-0.6,0.3l-0.7,0.1l-0.6,0.2l-0.6,0.1l-0.6,0.2l-0.6,0l-0.6,0.1l-0.6,0L44,273.9l-0.6,0l-0.6,0l-0.6,-0.1l-0.6,-0.2l-0.8,-0.1l-0.6,-0.2l-0.6,-0.1L39,272.9l-0.5,-0.3l-0.6,-0.3l-0.6,-0.4l-0.5,-0.3l-0.4,-0.4l-0.7,-0.3l-0.4,-0.5L34.8,270l-0.3,-0.7l-0.4,-0.4l-0.3,-0.6l-0.5,-0.5L33,267.2l-0.2,-0.6L32.5,266l-0.3,-0.6l-0.1,-0.6l-0.2,-0.6l0,-0.7l-0.1,-0.6l-0.2,-0.6l0,-0.7l0,-49.4Z" class="g4_33" />
<path d="M58,259l426,0" class="g5_33" />
</svg>