<?xml version="1.0" encoding="UTF-8" standalone="no"?>
<!DOCTYPE svg PUBLIC "-//W3C//DTD SVG 1.1//EN"
"http://www.w3.org/Graphics/SVG/1.1/DTD/svg11.dtd">
<svg viewBox="0 0 1155 1210" version="1.1" xmlns="http://www.w3.org/2000/svg" xmlns:xlink="http://www.w3.org/1999/xlink">
<defs>
<clipPath id="c0_26"><path d="M0.5,1210.5L0.5,0.5l1155,0l0,1210Z" /></clipPath>
<style type="text/css"><![CDATA[
.g1_26{
fill: #FFFFFF;
}
]]></style>
</defs>
<path fill-rule="evenodd" d="M0,0L1155,0l0,1210L0,1210L0,0Z" class="g1_26" />
<path fill-rule="evenodd" d="M0,0L1155,0l0,1210L0,1210L0,0Z" class="g1_26" />
<image x="790" y="1140" width="319" height="55" xlink:href="img/1.png" />
<g clip-path="url(#c0_26)">
<g fill="#626262" >
<use xlink:href="#f0_q" transform="matrix(11.1,0,0,11.1,29.3,30.6)" />
<use xlink:href="#f1_15" transform="matrix(11.1,0,0,11.1,48.7,31.8)" />
<use xlink:href="#f1_7" transform="matrix(11.1,0,0,11.1,60.6,31.8)" />
<use xlink:href="#f1_4" transform="matrix(11.1,0,0,11.1,71,31.8)" />
<use xlink:href="#f1_g" transform="matrix(11.1,0,0,11.1,81.9,31.8)" />
<use xlink:href="#f1_d" transform="matrix(11.1,0,0,11.1,90.9,31.8)" />
<use xlink:href="#f1_h" transform="matrix(11.1,0,0,11.1,95.7,31.8)" />
<use xlink:href="#f1_b" transform="matrix(11.1,0,0,11.1,106.6,31.8)" />
<use xlink:href="#f1_l" transform="matrix(11.1,0,0,11.1,117,31.8)" />
<use xlink:href="#f1_k" transform="matrix(11.1,0,0,11.1,129.4,31.8)" />
<use xlink:href="#f1_c" transform="matrix(11.1,0,0,11.1,145.3,31.8)" />
<use xlink:href="#f1_k" transform="matrix(11.1,0,0,11.1,152,31.8)" />
<use xlink:href="#f1_m" transform="matrix(11.1,0,0,11.1,162.4,31.8)" />
<use xlink:href="#f1_a" transform="matrix(11.1,0,0,11.1,173.2,31.8)" />
<use xlink:href="#f1_b" transform="matrix(11.1,0,0,11.1,178.1,31.8)" />
<use xlink:href="#f1_23" transform="matrix(11.1,0,0,11.1,194.1,31.8)" />
</g>
<g fill="#000000" >
<use xlink:href="#f1_1n" transform="matrix(11.1,0,0,11.1,202.1,31.8)" />
<use xlink:href="#f1_8" transform="matrix(11.1,0,0,11.1,212.8,31.8)" />
<use xlink:href="#f1_9" transform="matrix(11.1,0,0,11.1,229.5,31.8)" />
<use xlink:href="#f1_a" transform="matrix(11.1,0,0,11.1,240.3,31.8)" />
<use xlink:href="#f1_7" transform="matrix(11.1,0,0,11.1,245.2,31.8)" />
<use xlink:href="#f1_r" transform="matrix(11.1,0,0,11.1,255.7,31.8)" />
<use xlink:href="#f1_b" transform="matrix(11.1,0,0,11.1,265.8,31.8)" />
<use xlink:href="#f1_l" transform="matrix(11.1,0,0,11.1,276.2,31.8)" />
</g>
<g fill="#626262" >
<use xlink:href="#f1_23" transform="matrix(11.1,0,0,11.1,283.3,31.8)" />
<use xlink:href="#f1_d" transform="matrix(11.1,0,0,11.1,296.5,31.8)" />
<use xlink:href="#f1_4" transform="matrix(11.1,0,0,11.1,301.4,31.8)" />
<use xlink:href="#f1_3" transform="matrix(11.1,0,0,11.1,317.7,31.8)" />
<use xlink:href="#f1_l" transform="matrix(11.1,0,0,11.1,331.1,31.8)" />
<use xlink:href="#f1_k" transform="matrix(11.1,0,0,11.1,338.1,31.8)" />
<use xlink:href="#f1_6" transform="matrix(11.1,0,0,11.1,348.5,31.8)" />
<use xlink:href="#f1_a" transform="matrix(11.1,0,0,11.1,357.8,31.8)" />
<use xlink:href="#f1_b" transform="matrix(11.1,0,0,11.1,362.8,31.8)" />
<use xlink:href="#f1_h" transform="matrix(11.1,0,0,11.1,378.7,31.8)" />
<use xlink:href="#f1_k" transform="matrix(11.1,0,0,11.1,389.5,31.8)" />
<use xlink:href="#f1_c" transform="matrix(11.1,0,0,11.1,399.9,31.8)" />
<use xlink:href="#f1_k" transform="matrix(11.1,0,0,11.1,406.5,31.8)" />
<use xlink:href="#f1_m" transform="matrix(11.1,0,0,11.1,417,31.8)" />
<use xlink:href="#f1_k" transform="matrix(11.1,0,0,11.1,427.7,31.8)" />
<use xlink:href="#f1_g" transform="matrix(11.1,0,0,11.1,438.2,31.8)" />
<use xlink:href="#f1_b" transform="matrix(11.1,0,0,11.1,447.3,31.8)" />
<use xlink:href="#f1_1c" transform="matrix(11.1,0,0,11.1,457.6,31.8)" />
<use xlink:href="#f1_z" transform="matrix(11.1,0,0,11.1,468.6,31.8)" />
<use xlink:href="#f1_c" transform="matrix(11.1,0,0,11.1,479.4,31.8)" />
<use xlink:href="#f1_l" transform="matrix(11.1,0,0,11.1,486,31.8)" />
<use xlink:href="#f1_i" transform="matrix(11.1,0,0,11.1,493,31.8)" />
<use xlink:href="#f1_6" transform="matrix(11.1,0,0,11.1,503.8,31.8)" />
<use xlink:href="#f1_c" transform="matrix(11.1,0,0,11.1,513.2,31.8)" />
<use xlink:href="#f1_i" transform="matrix(11.1,0,0,11.1,519.7,31.8)" />
<use xlink:href="#f1_l" transform="matrix(11.1,0,0,11.1,530.6,31.8)" />
<use xlink:href="#f1_b" transform="matrix(11.1,0,0,11.1,537,31.8)" />
<use xlink:href="#f1_k" transform="matrix(11.1,0,0,11.1,552.8,31.8)" />
<use xlink:href="#f1_4" transform="matrix(11.1,0,0,11.1,563.4,31.8)" />
<use xlink:href="#f1_h" transform="matrix(11.1,0,0,11.1,574.1,31.8)" />
<use xlink:href="#f1_g" transform="matrix(11.1,0,0,11.1,590.4,31.8)" />
<use xlink:href="#f1_k" transform="matrix(11.1,0,0,11.1,599.4,31.8)" />
<use xlink:href="#f1_8" transform="matrix(11.1,0,0,11.1,609.8,31.8)" />
<use xlink:href="#f1_9" transform="matrix(11.1,0,0,11.1,626.6,31.8)" />
<use xlink:href="#f1_a" transform="matrix(11.1,0,0,11.1,637.3,31.8)" />
<use xlink:href="#f1_b" transform="matrix(11.1,0,0,11.1,642.3,31.8)" />
<use xlink:href="#f1_h" transform="matrix(11.1,0,0,11.1,658.1,31.8)" />
<use xlink:href="#f1_k" transform="matrix(11.1,0,0,11.1,669,31.8)" />
<use xlink:href="#f1_c" transform="matrix(11.1,0,0,11.1,679.4,31.8)" />
<use xlink:href="#f1_k" transform="matrix(11.1,0,0,11.1,685.9,31.8)" />
<use xlink:href="#f1_e" transform="matrix(11.1,0,0,11.1,701.9,31.8)" />
<use xlink:href="#f1_7" transform="matrix(11.1,0,0,11.1,707.9,31.8)" />
<use xlink:href="#f1_l" transform="matrix(11.1,0,0,11.1,718.4,31.8)" />
<use xlink:href="#f1_c" transform="matrix(11.1,0,0,11.1,730.9,31.8)" />
<use xlink:href="#f1_f" transform="matrix(11.1,0,0,11.1,737.5,31.8)" />
<use xlink:href="#f1_d" transform="matrix(11.1,0,0,11.1,748.3,31.8)" />
<use xlink:href="#f1_g" transform="matrix(11.1,0,0,11.1,753.2,31.8)" />
<use xlink:href="#f1_c" transform="matrix(11.1,0,0,11.1,767.6,31.8)" />
<use xlink:href="#f1_k" transform="matrix(11.1,0,0,11.1,774.2,31.8)" />
<use xlink:href="#f1_m" transform="matrix(11.1,0,0,11.1,784.6,31.8)" />
<use xlink:href="#f1_a" transform="matrix(11.1,0,0,11.1,795.4,31.8)" />
<use xlink:href="#f1_b" transform="matrix(11.1,0,0,11.1,800.4,31.8)" />
<use xlink:href="#f1_d" transform="matrix(11.1,0,0,11.1,816.3,31.8)" />
<use xlink:href="#f1_g" transform="matrix(11.1,0,0,11.1,821.2,31.8)" />
<use xlink:href="#f1_x" transform="matrix(11.1,0,0,11.1,835.7,31.8)" />
<use xlink:href="#f1_d" transform="matrix(11.1,0,0,11.1,846.5,31.8)" />
<use xlink:href="#f1_q" transform="matrix(11.1,0,0,11.1,851.4,31.8)" />
<use xlink:href="#f1_b" transform="matrix(11.1,0,0,11.1,861.4,31.8)" />
<use xlink:href="#f1_4" transform="matrix(11.1,0,0,11.1,872,31.8)" />
<use xlink:href="#f1_m" transform="matrix(11.1,0,0,11.1,888.3,31.8)" />
<use xlink:href="#f1_b" transform="matrix(11.1,0,0,11.1,899,31.8)" />
<use xlink:href="#f1_a" transform="matrix(11.1,0,0,11.1,909.5,31.8)" />
<use xlink:href="#f1_7" transform="matrix(11.1,0,0,11.1,914.4,31.8)" />
<use xlink:href="#f1_12" transform="matrix(11.1,0,0,11.1,924.9,31.8)" />
<use xlink:href="#f1_1c" transform="matrix(11.1,0,0,11.1,937.1,31.8)" />
<use xlink:href="#f0_q" transform="matrix(11.1,0,0,11.1,29.3,82.3)" />
<use xlink:href="#f1_1g" transform="matrix(11.1,0,0,11.1,48.7,83.4)" />
<use xlink:href="#f1_k" transform="matrix(11.1,0,0,11.1,56.2,83.4)" />
<use xlink:href="#f1_m" transform="matrix(11.1,0,0,11.1,66.7,83.4)" />
<use xlink:href="#f1_a" transform="matrix(11.1,0,0,11.1,77.4,83.4)" />
<use xlink:href="#f1_b" transform="matrix(11.1,0,0,11.1,82.5,83.4)" />
<use xlink:href="#f1_z" transform="matrix(11.1,0,0,11.1,98.3,83.4)" />
<use xlink:href="#f1_c" transform="matrix(11.1,0,0,11.1,109.2,83.4)" />
<use xlink:href="#f1_l" transform="matrix(11.1,0,0,11.1,115.7,83.4)" />
<use xlink:href="#f1_i" transform="matrix(11.1,0,0,11.1,122.7,83.4)" />
<use xlink:href="#f1_6" transform="matrix(11.1,0,0,11.1,133.4,83.4)" />
<use xlink:href="#f1_c" transform="matrix(11.1,0,0,11.1,142.9,83.4)" />
<use xlink:href="#f1_i" transform="matrix(11.1,0,0,11.1,149.5,83.4)" />
<use xlink:href="#f1_l" transform="matrix(11.1,0,0,11.1,160.3,83.4)" />
<use xlink:href="#f1_b" transform="matrix(11.1,0,0,11.1,166.7,83.4)" />
<use xlink:href="#f1_n" transform="matrix(11.1,0,0,11.1,177.1,83.4)" />
<use xlink:href="#f1_1e" transform="matrix(12.6,0,0,12.6,29.3,1009.4)" />
<use xlink:href="#f1_l" transform="matrix(12.6,0,0,12.6,47.7,1009.4)" />
<use xlink:href="#f1_d" transform="matrix(12.6,0,0,12.6,55.9,1009.4)" />
<use xlink:href="#f1_c" transform="matrix(12.6,0,0,12.6,61.4,1009.4)" />
<use xlink:href="#f1_b" transform="matrix(12.6,0,0,12.6,69,1009.4)" />
<use xlink:href="#f1_k" transform="matrix(12.6,0,0,12.6,87.3,1009.4)" />
<use xlink:href="#f1_s" transform="matrix(12.6,0,0,12.6,105.4,1009.4)" />
<use xlink:href="#f1_r" transform="matrix(12.6,0,0,12.6,117.2,1009.4)" />
<use xlink:href="#f1_c" transform="matrix(12.6,0,0,12.6,128.8,1009.4)" />
<use xlink:href="#f1_f" transform="matrix(12.6,0,0,12.6,136.4,1009.4)" />
<use xlink:href="#f1_7" transform="matrix(12.6,0,0,12.6,148.7,1009.4)" />
<use xlink:href="#f1_4" transform="matrix(12.6,0,0,12.6,160.8,1009.4)" />
<use xlink:href="#f1_9" transform="matrix(12.6,0,0,12.6,179.4,1009.4)" />
<use xlink:href="#f1_l" transform="matrix(12.6,0,0,12.6,191.7,1009.4)" />
<use xlink:href="#f1_7" transform="matrix(12.6,0,0,12.6,199.5,1009.4)" />
<use xlink:href="#f1_x" transform="matrix(12.6,0,0,12.6,211.4,1009.4)" />
<use xlink:href="#f1_l" transform="matrix(12.6,0,0,12.6,223.8,1009.4)" />
<use xlink:href="#f1_k" transform="matrix(12.6,0,0,12.6,232.2,1009.4)" />
<use xlink:href="#f1_8" transform="matrix(12.6,0,0,12.6,244.1,1009.4)" />
<use xlink:href="#f1_e" transform="matrix(12.6,0,0,12.6,269.1,1009.4)" />
<use xlink:href="#f1_7" transform="matrix(12.6,0,0,12.6,275.8,1009.4)" />
<use xlink:href="#f1_l" transform="matrix(12.6,0,0,12.6,287.7,1009.4)" />
<use xlink:href="#f1_c" transform="matrix(12.6,0,0,12.6,302.2,1009.4)" />
<use xlink:href="#f1_f" transform="matrix(12.6,0,0,12.6,310,1009.4)" />
<use xlink:href="#f1_b" transform="matrix(12.6,0,0,12.6,322.3,1009.4)" />
<use xlink:href="#f1_e" transform="matrix(12.6,0,0,12.6,340.6,1009.4)" />
<use xlink:href="#f1_7" transform="matrix(12.6,0,0,12.6,347.5,1009.4)" />
<use xlink:href="#f1_a" transform="matrix(12.6,0,0,12.6,359.4,1009.4)" />
<use xlink:href="#f1_a" transform="matrix(12.6,0,0,12.6,364.8,1009.4)" />
<use xlink:href="#f1_7" transform="matrix(12.6,0,0,12.6,370.3,1009.4)" />
<use xlink:href="#f1_12" transform="matrix(12.6,0,0,12.6,382.2,1009.4)" />
<use xlink:href="#f1_d" transform="matrix(12.6,0,0,12.6,398.1,1009.4)" />
<use xlink:href="#f1_4" transform="matrix(12.6,0,0,12.6,403.6,1009.4)" />
<use xlink:href="#f1_x" transform="matrix(12.6,0,0,12.6,415.9,1009.4)" />
<use xlink:href="#f1_n" transform="matrix(12.6,0,0,12.6,428.4,1009.4)" />
<use xlink:href="#f1_2" transform="matrix(12.6,0,0,12.6,29.3,1045.6)" />
<use xlink:href="#f1_o" transform="matrix(12.6,0,0,12.6,41.6,1045.6)" />
<use xlink:href="#f1_15" transform="matrix(12.6,0,0,12.6,58.4,1045.6)" />
<use xlink:href="#f1_7" transform="matrix(12.6,0,0,12.6,71.9,1045.6)" />
<use xlink:href="#f1_4" transform="matrix(12.6,0,0,12.6,83.8,1045.6)" />
<use xlink:href="#f1_4" transform="matrix(12.6,0,0,12.6,96.3,1045.6)" />
<use xlink:href="#f1_b" transform="matrix(12.6,0,0,12.6,108.7,1045.6)" />
<use xlink:href="#f1_6" transform="matrix(12.6,0,0,12.6,120.9,1045.6)" />
<use xlink:href="#f1_c" transform="matrix(12.6,0,0,12.6,131.6,1045.6)" />
<use xlink:href="#f1_c" transform="matrix(12.6,0,0,12.6,145.6,1045.6)" />
<use xlink:href="#f1_7" transform="matrix(12.6,0,0,12.6,153.2,1045.6)" />
<use xlink:href="#f1_3" transform="matrix(12.6,0,0,12.6,171.4,1045.6)" />
<use xlink:href="#f1_l" transform="matrix(12.6,0,0,12.6,186.8,1045.6)" />
<use xlink:href="#f1_k" transform="matrix(12.6,0,0,12.6,195,1045.6)" />
<use xlink:href="#f1_6" transform="matrix(12.6,0,0,12.6,206.9,1045.6)" />
<use xlink:href="#f1_a" transform="matrix(12.6,0,0,12.6,217.6,1045.6)" />
<use xlink:href="#f1_b" transform="matrix(12.6,0,0,12.6,223.1,1045.6)" />
<use xlink:href="#f1_h" transform="matrix(12.6,0,0,12.6,241.4,1045.6)" />
<use xlink:href="#f1_k" transform="matrix(12.6,0,0,12.6,253.9,1045.6)" />
<use xlink:href="#f1_c" transform="matrix(12.6,0,0,12.6,265.8,1045.6)" />
<use xlink:href="#f1_k" transform="matrix(12.6,0,0,12.6,273.4,1045.6)" />
<use xlink:href="#f1_m" transform="matrix(12.6,0,0,12.6,285.3,1045.6)" />
<use xlink:href="#f1_k" transform="matrix(12.6,0,0,12.6,297.8,1045.6)" />
<use xlink:href="#f1_g" transform="matrix(12.6,0,0,12.6,309.7,1045.6)" />
<use xlink:href="#f1_b" transform="matrix(12.6,0,0,12.6,319.8,1045.6)" />
<use xlink:href="#f1_t" transform="matrix(12.6,0,0,12.6,29.3,1082)" />
<use xlink:href="#f1_o" transform="matrix(12.6,0,0,12.6,41.6,1082)" />
<use xlink:href="#f1_19" transform="matrix(12.6,0,0,12.6,58.4,1082)" />
<use xlink:href="#f1_b" transform="matrix(12.6,0,0,12.6,68.4,1082)" />
<use xlink:href="#f1_c" transform="matrix(12.6,0,0,12.6,80.7,1082)" />
<use xlink:href="#f1_6" transform="matrix(12.6,0,0,12.6,88.3,1082)" />
<use xlink:href="#f1_f" transform="matrix(12.6,0,0,12.6,99.1,1082)" />
<use xlink:href="#f1_k" transform="matrix(12.6,0,0,12.6,117.7,1082)" />
<use xlink:href="#f1_a" transform="matrix(12.6,0,0,12.6,129.6,1082)" />
<use xlink:href="#f1_a" transform="matrix(12.6,0,0,12.6,135.1,1082)" />
<use xlink:href="#f1_c" transform="matrix(12.6,0,0,12.6,146.8,1082)" />
<use xlink:href="#f1_f" transform="matrix(12.6,0,0,12.6,154.6,1082)" />
<use xlink:href="#f1_b" transform="matrix(12.6,0,0,12.6,166.9,1082)" />
<use xlink:href="#f1_l" transform="matrix(12.6,0,0,12.6,185.2,1082)" />
<use xlink:href="#f1_7" transform="matrix(12.6,0,0,12.6,193,1082)" />
<use xlink:href="#f1_12" transform="matrix(12.6,0,0,12.6,204.8,1082)" />
<use xlink:href="#f1_g" transform="matrix(12.6,0,0,12.6,220.8,1082)" />
<use xlink:href="#f1_e" transform="matrix(12.6,0,0,12.6,237.1,1082)" />
<use xlink:href="#f1_l" transform="matrix(12.6,0,0,12.6,243.8,1082)" />
<use xlink:href="#f1_7" transform="matrix(12.6,0,0,12.6,251.5,1082)" />
<use xlink:href="#f1_8" transform="matrix(12.6,0,0,12.6,263.4,1082)" />
<use xlink:href="#f1_c" transform="matrix(12.6,0,0,12.6,288.5,1082)" />
<use xlink:href="#f1_f" transform="matrix(12.6,0,0,12.6,296.1,1082)" />
<use xlink:href="#f1_b" transform="matrix(12.6,0,0,12.6,308.6,1082)" />
<use xlink:href="#f1_c" transform="matrix(12.6,0,0,12.6,326.9,1082)" />
<use xlink:href="#f1_k" transform="matrix(12.6,0,0,12.6,334.6,1082)" />
<use xlink:href="#f1_m" transform="matrix(12.6,0,0,12.6,346.5,1082)" />
<use xlink:href="#f1_a" transform="matrix(12.6,0,0,12.6,359,1082)" />
<use xlink:href="#f1_b" transform="matrix(12.6,0,0,12.6,364.5,1082)" />
<use xlink:href="#f1_1n" transform="matrix(12.6,0,0,12.6,382.7,1082)" />
<use xlink:href="#f1_8" transform="matrix(12.6,0,0,12.6,394.9,1082)" />
<use xlink:href="#f1_9" transform="matrix(12.6,0,0,12.6,413.9,1082)" />
<use xlink:href="#f1_a" transform="matrix(12.6,0,0,12.6,426.2,1082)" />
<use xlink:href="#f1_7" transform="matrix(12.6,0,0,12.6,431.7,1082)" />
<use xlink:href="#f1_r" transform="matrix(12.6,0,0,12.6,443.6,1082)" />
<use xlink:href="#f1_b" transform="matrix(12.6,0,0,12.6,455.2,1082)" />
<use xlink:href="#f1_l" transform="matrix(12.6,0,0,12.6,467.3,1082)" />
<use xlink:href="#f1_y" transform="matrix(12.6,0,0,12.6,29.3,1118.2)" />
<use xlink:href="#f1_o" transform="matrix(12.6,0,0,12.6,41.6,1118.2)" />
<use xlink:href="#f1_16" transform="matrix(12.6,0,0,12.6,58.4,1118.2)" />
<use xlink:href="#f1_d" transform="matrix(12.6,0,0,12.6,73.3,1118.2)" />
<use xlink:href="#f1_g" transform="matrix(12.6,0,0,12.6,78.8,1118.2)" />
<use xlink:href="#f1_9" transform="matrix(12.6,0,0,12.6,88.9,1118.2)" />
<use xlink:href="#f1_a" transform="matrix(12.6,0,0,12.6,101.2,1118.2)" />
<use xlink:href="#f1_k" transform="matrix(12.6,0,0,12.6,106.7,1118.2)" />
<use xlink:href="#f1_r" transform="matrix(12.6,0,0,12.6,118.6,1118.2)" />
<use xlink:href="#f1_k" transform="matrix(12.6,0,0,12.6,136.3,1118.2)" />
<use xlink:href="#f1_a" transform="matrix(12.6,0,0,12.6,148.4,1118.2)" />
<use xlink:href="#f1_a" transform="matrix(12.6,0,0,12.6,153.8,1118.2)" />
<use xlink:href="#f1_c" transform="matrix(12.6,0,0,12.6,165.6,1118.2)" />
<use xlink:href="#f1_f" transform="matrix(12.6,0,0,12.6,173.2,1118.2)" />
<use xlink:href="#f1_b" transform="matrix(12.6,0,0,12.6,185.5,1118.2)" />
<use xlink:href="#f1_l" transform="matrix(12.6,0,0,12.6,204,1118.2)" />
<use xlink:href="#f1_7" transform="matrix(12.6,0,0,12.6,211.6,1118.2)" />
<use xlink:href="#f1_12" transform="matrix(12.6,0,0,12.6,223.5,1118.2)" />
<use xlink:href="#f1_g" transform="matrix(12.6,0,0,12.6,239.4,1118.2)" />
<use xlink:href="#f1_10" transform="matrix(12.6,0,0,12.6,29.3,1154.5)" />
<use xlink:href="#f1_o" transform="matrix(12.6,0,0,12.6,41.6,1154.5)" />
<use xlink:href="#f1_16" transform="matrix(12.6,0,0,12.6,58.4,1154.5)" />
<use xlink:href="#f1_d" transform="matrix(12.6,0,0,12.6,73.3,1154.5)" />
<use xlink:href="#f1_g" transform="matrix(12.6,0,0,12.6,78.8,1154.5)" />
<use xlink:href="#f1_9" transform="matrix(12.6,0,0,12.6,88.9,1154.5)" />
<use xlink:href="#f1_a" transform="matrix(12.6,0,0,12.6,101.2,1154.5)" />
<use xlink:href="#f1_k" transform="matrix(12.6,0,0,12.6,106.7,1154.5)" />
<use xlink:href="#f1_r" transform="matrix(12.6,0,0,12.6,118.6,1154.5)" />
<use xlink:href="#f1_c" transform="matrix(12.6,0,0,12.6,136.3,1154.5)" />
<use xlink:href="#f1_f" transform="matrix(12.6,0,0,12.6,144.1,1154.5)" />
<use xlink:href="#f1_b" transform="matrix(12.6,0,0,12.6,156.6,1154.5)" />
<use xlink:href="#f1_6" transform="matrix(12.6,0,0,12.6,174.7,1154.5)" />
<use xlink:href="#f1_7" transform="matrix(12.6,0,0,12.6,185.6,1154.5)" />
<use xlink:href="#f1_i" transform="matrix(12.6,0,0,12.6,197.5,1154.5)" />
<use xlink:href="#f1_4" transform="matrix(12.6,0,0,12.6,210,1154.5)" />
<use xlink:href="#f1_c" transform="matrix(12.6,0,0,12.6,222.5,1154.5)" />
<use xlink:href="#f1_7" transform="matrix(12.6,0,0,12.6,236.3,1154.5)" />
<use xlink:href="#f1_e" transform="matrix(12.6,0,0,12.6,248.2,1154.5)" />
<use xlink:href="#f1_l" transform="matrix(12.6,0,0,12.6,261.2,1154.5)" />
<use xlink:href="#f1_7" transform="matrix(12.6,0,0,12.6,268.8,1154.5)" />
<use xlink:href="#f1_12" transform="matrix(12.6,0,0,12.6,280.9,1154.5)" />
<use xlink:href="#f1_g" transform="matrix(12.6,0,0,12.6,296.8,1154.5)" />
<use xlink:href="#f1_e" transform="matrix(12.6,0,0,12.6,313.1,1154.5)" />
<use xlink:href="#f1_b" transform="matrix(12.6,0,0,12.6,319.8,1154.5)" />
<use xlink:href="#f1_c" transform="matrix(12.6,0,0,12.6,331.8,1154.5)" />
<use xlink:href="#f1_6" transform="matrix(12.6,0,0,12.6,339.4,1154.5)" />
<use xlink:href="#f1_f" transform="matrix(12.6,0,0,12.6,350.3,1154.5)" />
<use xlink:href="#f1_b" transform="matrix(12.6,0,0,12.6,362.8,1154.5)" />
<use xlink:href="#f1_h" transform="matrix(12.6,0,0,12.6,374.8,1154.5)" />
<use xlink:href="#f1_14" transform="matrix(12.6,0,0,12.6,29.3,1190.8)" />
<use xlink:href="#f1_o" transform="matrix(12.6,0,0,12.6,41.6,1190.8)" />
<use xlink:href="#f1_16" transform="matrix(12.6,0,0,12.6,58.4,1190.8)" />
<use xlink:href="#f1_d" transform="matrix(12.6,0,0,12.6,73.3,1190.8)" />
<use xlink:href="#f1_g" transform="matrix(12.6,0,0,12.6,78.8,1190.8)" />
<use xlink:href="#f1_9" transform="matrix(12.6,0,0,12.6,88.9,1190.8)" />
<use xlink:href="#f1_a" transform="matrix(12.6,0,0,12.6,101.2,1190.8)" />
<use xlink:href="#f1_k" transform="matrix(12.6,0,0,12.6,106.7,1190.8)" />
<use xlink:href="#f1_r" transform="matrix(12.6,0,0,12.6,118.6,1190.8)" />
<use xlink:href="#f1_c" transform="matrix(12.6,0,0,12.6,136.3,1190.8)" />
<use xlink:href="#f1_f" transform="matrix(12.6,0,0,12.6,144.1,1190.8)" />
<use xlink:href="#f1_b" transform="matrix(12.6,0,0,12.6,156.6,1190.8)" />
<use xlink:href="#f1_h" transform="matrix(12.6,0,0,12.6,174.7,1190.8)" />
<use xlink:href="#f1_b" transform="matrix(12.6,0,0,12.6,187.3,1190.8)" />
<use xlink:href="#f1_g" transform="matrix(12.6,0,0,12.6,199.3,1190.8)" />
<use xlink:href="#f1_6" transform="matrix(12.6,0,0,12.6,209.5,1190.8)" />
<use xlink:href="#f1_l" transform="matrix(12.6,0,0,12.6,220.2,1190.8)" />
<use xlink:href="#f1_d" transform="matrix(12.6,0,0,12.6,228.5,1190.8)" />
<use xlink:href="#f1_9" transform="matrix(12.6,0,0,12.6,233.9,1190.8)" />
<use xlink:href="#f1_c" transform="matrix(12.6,0,0,12.6,246.5,1190.8)" />
<use xlink:href="#f1_d" transform="matrix(12.6,0,0,12.6,254.1,1190.8)" />
<use xlink:href="#f1_7" transform="matrix(12.6,0,0,12.6,259.6,1190.8)" />
<use xlink:href="#f1_4" transform="matrix(12.6,0,0,12.6,271.5,1190.8)" />
<use xlink:href="#f1_7" transform="matrix(12.6,0,0,12.6,290.1,1190.8)" />
<use xlink:href="#f1_e" transform="matrix(12.6,0,0,12.6,302.1,1190.8)" />
<use xlink:href="#f1_k" transform="matrix(12.6,0,0,12.6,315.1,1190.8)" />
<use xlink:href="#f1_a" transform="matrix(12.6,0,0,12.6,327,1190.8)" />
<use xlink:href="#f1_a" transform="matrix(12.6,0,0,12.6,332.5,1190.8)" />
<use xlink:href="#f1_6" transform="matrix(12.6,0,0,12.6,344.2,1190.8)" />
<use xlink:href="#f1_7" transform="matrix(12.6,0,0,12.6,354.9,1190.8)" />
<use xlink:href="#f1_a" transform="matrix(12.6,0,0,12.6,366.8,1190.8)" />
<use xlink:href="#f1_i" transform="matrix(12.6,0,0,12.6,372.3,1190.8)" />
<use xlink:href="#f1_8" transform="matrix(12.6,0,0,12.6,384.8,1190.8)" />
<use xlink:href="#f1_4" transform="matrix(12.6,0,0,12.6,403.7,1190.8)" />
<use xlink:href="#f1_g" transform="matrix(12.6,0,0,12.6,416,1190.8)" />
<use xlink:href="#f1_7" transform="matrix(12.6,0,0,12.6,432.4,1190.8)" />
<use xlink:href="#f1_e" transform="matrix(12.6,0,0,12.6,444.2,1190.8)" />
<use xlink:href="#f1_c" transform="matrix(12.6,0,0,12.6,457.2,1190.8)" />
<use xlink:href="#f1_f" transform="matrix(12.6,0,0,12.6,465,1190.8)" />
<use xlink:href="#f1_b" transform="matrix(12.6,0,0,12.6,477.3,1190.8)" />
<use xlink:href="#f1_c" transform="matrix(12.6,0,0,12.6,495.6,1190.8)" />
<use xlink:href="#f1_k" transform="matrix(12.6,0,0,12.6,503.4,1190.8)" />
<use xlink:href="#f1_m" transform="matrix(12.6,0,0,12.6,515.2,1190.8)" />
<use xlink:href="#f1_a" transform="matrix(12.6,0,0,12.6,527.7,1190.8)" />
<use xlink:href="#f1_b" transform="matrix(12.6,0,0,12.6,533.2,1190.8)" />
<use xlink:href="#f1_17" transform="matrix(12.6,0,0,12.6,29.3,1227.1)" />
<use xlink:href="#f1_o" transform="matrix(12.6,0,0,12.6,41.6,1227.1)" />
<use xlink:href="#f1_15" transform="matrix(12.6,0,0,12.6,58.4,1227.1)" />
<use xlink:href="#f1_a" transform="matrix(12.6,0,0,12.6,71.9,1227.1)" />
<use xlink:href="#f1_7" transform="matrix(12.6,0,0,12.6,77.4,1227.1)" />
<use xlink:href="#f1_g" transform="matrix(12.6,0,0,12.6,89.3,1227.1)" />
<use xlink:href="#f1_b" transform="matrix(12.6,0,0,12.6,99.4,1227.1)" />
<use xlink:href="#f1_c" transform="matrix(12.6,0,0,12.6,117.7,1227.1)" />
<use xlink:href="#f1_f" transform="matrix(12.6,0,0,12.6,125.3,1227.1)" />
<use xlink:href="#f1_b" transform="matrix(12.6,0,0,12.6,137.8,1227.1)" />
<use xlink:href="#f1_6" transform="matrix(12.6,0,0,12.6,156.1,1227.1)" />
<use xlink:href="#f1_7" transform="matrix(12.6,0,0,12.6,166.9,1227.1)" />
<use xlink:href="#f1_4" transform="matrix(12.6,0,0,12.6,178.8,1227.1)" />
<use xlink:href="#f1_4" transform="matrix(12.6,0,0,12.6,191.2,1227.1)" />
<use xlink:href="#f1_b" transform="matrix(12.6,0,0,12.6,203.7,1227.1)" />
<use xlink:href="#f1_6" transform="matrix(12.6,0,0,12.6,215.7,1227.1)" />
<use xlink:href="#f1_c" transform="matrix(12.6,0,0,12.6,226.5,1227.1)" />
<use xlink:href="#f1_d" transform="matrix(12.6,0,0,12.6,234.3,1227.1)" />
<use xlink:href="#f1_7" transform="matrix(12.6,0,0,12.6,239.8,1227.1)" />
<use xlink:href="#f1_4" transform="matrix(12.6,0,0,12.6,251.6,1227.1)" />
</g>
</g>
<image x="86" y="100" width="967" height="533" xlink:href="img/2.png" />
<image x="85" y="650" width="965" height="274" xlink:href="img/3.png" />
<defs>
	<path d="M264.3,297.9c0,0,-42.8,0,-79.4,16.8c0,0,-36.7,16.8,-64.2,44.3c0,0,-29,29.1,-44.3,67.3c0,0,-16.8,38.1,-16.8,82.5c0,0,0,41.2,15.3,77.9c0,0,16.8,38.2,44.3,65.7c0,0,29,27.5,65.7,42.7c0,0,36.6,16.8,79.4,16.8c0,0,42.8,0,81,-15.2c0,0,38.2,-16.8,65.7,-44.3c0,0,29,-27.5,45.8,-64.2c0,0,16.8,-38.2,16.8,-79.4c0,0,0,-44.4,-16.8,-82.5c0,0,-16.8,-38.2,-44.3,-65.7c0,0,-29,-29.1,-67.2,-45.9c0,0,-38.2,-16.8,-81,-16.8Z" 
	id="f0_q"
	transform="scale(0.001,-0.001)" />

	<path d="M629.4,-21.3c0,0,-253.6,0,-398.7,154.2c0,0,-145.1,154.3,-145.1,421.7c0,0,0,268.9,145.1,423.2c0,0,145.1,155.8,398.7,155.8c0,0,99.4,0,188,-26c0,0,88.6,-27.5,166.5,-80.9l0,-158.9c0,0,-76.4,71.8,-162,106.9c0,0,-87,35.2,-184.8,35.2c0,0,-191,0,-291.8,-116.1c0,0,-100.9,-117.7,-100.9,-339.2c0,0,0,-220,100.9,-336.1c0,0,100.8,-117.7,291.8,-117.7c0,0,97.8,0,183.3,35.2c0,0,87.1,35.1,163.5,106.9l0,-157.3c0,0,-79.5,-55,-168.1,-81c0,0,-88.6,-25.9,-186.4,-25.9Z" 
	id="f1_15"
	transform="scale(0.001,-0.001)" />

	<path d="M467.5,94.7c0,0,108.5,0,172.6,85.6c0,0,64.2,87.1,64.2,235.3c0,0,0,149.7,-64.2,235.2c0,0,-64.1,87.1,-172.6,87.1c0,0,-111.5,0,-175.7,-85.5c0,0,-64.2,-85.6,-64.2,-236.8c0,0,0,-149.8,64.2,-235.3c0,0,64.2,-85.6,175.7,-85.6Zm0,-116c0,0,-180.3,0,-281.1,116C186.4,94.7,84,210.8,84,415.6c0,0,0,206.2,100.9,322.3c0,0,102.3,117.7,282.6,117.7c0,0,178.8,0,281.1,-116.2c0,0,102.4,-117.6,102.4,-323.8c0,0,0,-204.8,-102.4,-320.9c0,0,-102.3,-116,-281.1,-116Z" 
	id="f1_7"
	transform="scale(0.001,-0.001)" />

	<path d="M137.5,0l0,834.2l139,0l0,-129.9c0,0,48.9,76.4,114.6,113.1c0,0,67.2,38.2,154.3,38.2c0,0,145.2,0,218.5,-88.7c0,0,73.3,-90.1,73.3,-262.7L837.2,0L699.7,0l0,499.6c0,0,0,117.6,-45.8,175.7c0,0,-45.8,59.6,-139,59.6c0,0,-110,0,-174.2,-70.3c0,0,-64.2,-70.3,-64.2,-192.5L276.5,0Z" 
	id="f1_4"
	transform="scale(0.001,-0.001)" />

	<path d="M375.8,-21.3c0,0,-67.2,0,-140.5,12.2c0,0,-73.4,12.2,-152.8,39.7l0,140.5c0,0,76.4,-39.7,149.7,-58c0,0,73.4,-19.9,146.7,-19.9c0,0,96.2,0,148.2,32.1c0,0,51.9,33.6,51.9,94.7c0,0,0,55,-36.6,84c0,0,-38.2,30.6,-165,58.1l-48.9,12.2c0,0,-126.8,26,-183.4,81c0,0,-56.5,56.5,-56.5,152.8c0,0,0,119.1,82.5,183.3c0,0,84,64.2,238.3,64.2c0,0,74.9,0,142.1,-10.7c0,0,67.3,-12.3,123.8,-35.2l0,-129.8c0,0,-58.1,30.5,-120.7,44.3c0,0,-62.7,15.2,-129.9,15.2c0,0,-102.3,0,-152.8,-30.5c0,0,-50.4,-32.1,-50.4,-94.7c0,0,0,-47.4,35.2,-74.9c0,0,36.6,-27.5,148.2,-51.9l45.8,-10.7c0,0,146.7,-30.6,207.8,-87.1c0,0,62.6,-58.1,62.6,-160.4c0,0,0,-116.1,-91.7,-183.4c0,0,-93.1,-67.1,-253.6,-67.1Z" 
	id="f1_g"
	transform="scale(0.001,-0.001)" />

	<path d="M143,0l0,834l138,0L281,0Zm0,985l0,174l138,0l0,-174Z" 
	id="f1_d"
	transform="scale(0.001,-0.001)" />

	<path d="M458.3,93.2c0,0,110,0,172.7,85.6c0,0,62.6,85.5,62.6,236.8c0,0,0,152.7,-62.6,238.3c0,0,-62.7,85.5,-172.7,85.5c0,0,-108.4,0,-171.1,-85.5c0,0,-62.6,-85.6,-62.6,-238.3c0,0,0,-151.3,62.6,-236.8c0,0,62.7,-85.6,171.1,-85.6ZM424.7,-21.3c0,0,-151.2,0,-245.9,120.6C178.8,99.3,84,220,84,415.6c0,0,0,197,94.8,317.7c0,0,94.7,122.3,245.9,122.3c0,0,93.2,0,158.9,-36.7c0,0,65.7,-36.7,110,-111.5l0,452.2l136,0L829.6,0l-136,0l0,125.3c0,0,-44.3,-74.9,-110,-110c0,0,-65.7,-36.6,-158.9,-36.6Z" 
	id="f1_h"
	transform="scale(0.001,-0.001)" />

	<path d="M230.7,490.4l490.4,1.5c0,0,-1.5,111.6,-62.6,178.8c0,0,-62.7,67.2,-163.5,67.2c0,0,-114.6,0,-183.3,-64.1c0,0,-70.3,-65.7,-81,-183.4ZM516.4,-21.3c0,0,-198.6,0,-314.7,116C201.7,94.7,84,210.8,84,409.4c0,0,0,204.8,110,325.5c0,0,111.6,120.7,299.5,120.7c0,0,168,0,265.8,-108.5c0,0,99.3,-110,99.3,-296.4l0,-67.2l-632.5,0c0,0,9.2,-140.6,85.6,-213.9c0,0,76.4,-74.9,213.9,-74.9c0,0,77.9,0,152.7,18.4c0,0,74.9,19.8,148.2,58l0,-129.8c0,0,-74.8,-30.6,-151.2,-45.8c0,0,-77.9,-16.8,-158.9,-16.8Z" 
	id="f1_b"
	transform="scale(0.001,-0.001)" />

	<path d="M137.5,0l0,834.2l139,0l0,-129.9c0,0,42.8,76.4,111.6,113.1c0,0,70.2,38.2,169.5,38.2c0,0,13.8,0,30.6,-1.6c0,0,16.8,-3,38.2,-6.1l1.5,-142.1c0,0,-24.4,13.8,-50.4,19.9c0,0,-27.5,6.1,-61.1,6.1c0,0,-116.1,0,-177.2,-74.9c0,0,-62.7,-76.3,-62.7,-216.9l0,-440Z" 
	id="f1_l"
	transform="scale(0.001,-0.001)" />

	<path d="M407.9,93.2c0,0,113.1,0,181.8,79.4c0,0,70.3,81,70.3,215.5l0,30.5l-137.5,0c0,0,-166.5,0,-230.7,-36.7c0,0,-64.2,-38.1,-64.2,-129.8c0,0,0,-73.3,47.4,-116.1c0,0,48.9,-42.8,132.9,-42.8ZM371.3,-21.3c0,0,-128.4,0,-203.2,71.7c0,0,-76.4,71.8,-76.4,192.5c0,0,0,140.6,93.2,212.4c0,0,94.7,71.8,282.6,71.8l192.5,0l0,13.7c0,0,0,94.8,-62.6,145.2c0,0,-62.7,51.9,-175.7,51.9c0,0,-71.8,0,-139.1,-16.8c0,0,-67.2,-16.8,-129.8,-51.9l0,126.8c0,0,74.8,30.5,145.1,44.3c0,0,71.8,15.3,139,15.3c0,0,180.3,0,268.9,-93.2c0,0,90.2,-94.8,90.2,-285.7L796,0L660,0l0,126.8c0,0,-47.4,-76.4,-117.6,-111.5c0,0,-70.3,-36.6,-171.1,-36.6Z" 
	id="f1_k"
	transform="scale(0.001,-0.001)" />

	<path d="M420.1,0c0,0,-158.8,0,-218.4,58.1c0,0,-61.1,59.5,-61.1,216.9l0,453.8l-100.9,0l0,105.4l100.9,0l0,238.3l139,0l0,-238.3l282.6,0l0,-105.4l-282.6,0l0,-453.8c0,0,0,-102.4,27.5,-131.4c0,0,27.5,-29,113,-29l142.1,0L562.2,0Z" 
	id="f1_c"
	transform="scale(0.001,-0.001)" />

	<path d="M508.8,93.2c0,0,110,0,171.1,85.6c0,0,62.6,85.5,62.6,236.8c0,0,0,152.7,-61.1,238.3c0,0,-62.6,85.5,-172.6,85.5c0,0,-108.5,0,-169.6,-85.5c0,0,-62.7,-85.6,-62.7,-238.3c0,0,0,-151.3,61.1,-236.8c0,0,62.7,-85.6,171.2,-85.6ZM542.4,-21.3c0,0,-91.7,0,-157.4,35.1c0,0,-65.7,36.6,-108.5,111.5L276.5,0l-139,0l0,1159.6l139,0l0,-452.2c0,0,42.8,74.8,108.5,111.5c0,0,65.7,36.7,157.4,36.7c0,0,152.7,0,247.5,-120.7c0,0,96.2,-122.3,96.2,-319.3c0,0,0,-195.6,-94.7,-316.3c0,0,-96.3,-120.6,-249,-120.6Z" 
	id="f1_m"
	transform="scale(0.001,-0.001)" />

	<path d="M143,0l0,1159l138,0L281,0Z" 
	id="f1_a"
	transform="scale(0.001,-0.001)" />

	<path d="M146,699l0,414l127,0l0,-414Zm281,0l0,414l127,0l0,-414Z" 
	id="f1_23"
	transform="scale(0.001,-0.001)" />

	<path d="M149,0l0,1113l705,0l0,-128l-555,0l0,-329l530,0l0,-126l-530,0l0,-404l567,0L866,0Z" 
	id="f1_1n"
	transform="scale(0.001,-0.001)" />

	<path d="M137.5,0l0,834.2l139,0l0,-129.9c0,0,45.9,77.9,111.6,114.6c0,0,65.7,36.7,155.8,36.7c0,0,91.7,0,154.3,-45.9c0,0,64.2,-47.3,96.2,-135.9c0,0,50.5,93.1,122.3,137.5c0,0,71.8,44.3,168,44.3c0,0,131.4,0,201.7,-91.7c0,0,71.8,-91.7,71.8,-259.7L1358.2,0l-139,0l0,499.6c0,0,0,119.2,-41.3,177.2c0,0,-42.8,58.1,-129.8,58.1c0,0,-107,0,-168.1,-70.3c0,0,-62.6,-70.3,-62.6,-192.5L817.4,0L678.3,0l0,499.6c0,0,0,120.7,-41.2,177.2c0,0,-42.8,58.1,-131.4,58.1c0,0,-105.4,0,-166.5,-70.3c0,0,-62.7,-71.8,-62.7,-192.5L276.5,0Z" 
	id="f1_8"
	transform="scale(0.001,-0.001)" />

	<path d="M508.8,93.2c0,0,110,0,171.1,85.6c0,0,62.6,85.5,62.6,236.8c0,0,0,152.7,-61.1,238.3c0,0,-62.6,85.5,-172.6,85.5c0,0,-108.5,0,-169.6,-85.5c0,0,-62.7,-85.6,-62.7,-238.3c0,0,0,-151.3,61.1,-236.8c0,0,62.7,-85.6,171.2,-85.6ZM137.5,-317.7l0,1151.9l139,0l0,-126.8c0,0,42.8,74.8,108.5,111.5c0,0,65.7,36.7,157.4,36.7c0,0,152.7,0,247.5,-120.7c0,0,96.2,-122.3,96.2,-319.3c0,0,0,-195.6,-94.7,-316.3c0,0,-96.3,-120.6,-249,-120.6c0,0,-91.7,0,-157.4,35.1c0,0,-65.7,36.6,-108.5,111.5l0,-443Z" 
	id="f1_9"
	transform="scale(0.001,-0.001)" />

	<path d="M120.7,-317.7l0,116.1l79.4,0c0,0,56.6,0,87.1,26c0,0,32.1,27.5,70.3,126.8l24.4,61L44.3,834.2l145.1,0L450.7,181.8L711.9,834.2l146.7,0L490.4,-76.3c0,0,-58,-149.7,-113,-195.5c0,0,-55,-45.9,-148.2,-45.9Z" 
	id="f1_r"
	transform="scale(0.001,-0.001)" />

	<path d="M601.9,99.3c0,0,163.5,0,258.2,122.2c0,0,96.3,123.8,96.3,333.1c0,0,0,210.8,-94.7,333c0,0,-96.3,123.8,-259.8,123.8c0,0,-165,0,-261.2,-122.2c0,0,-96.3,-123.8,-96.3,-334.6c0,0,0,-209.3,96.3,-331.5c0,0,96.2,-123.8,261.2,-123.8Zm0,-120.6c0,0,-235.2,0,-375.8,155.7c0,0,-140.5,155.9,-140.5,420.2c0,0,0,264.3,140.5,421.7c0,0,140.6,157.3,375.8,157.3c0,0,233.8,0,372.8,-157.3c0,0,140.6,-157.4,140.6,-421.7c0,0,0,-262.8,-139,-418.6c0,0,-140.6,-157.3,-374.4,-157.3Z" 
	id="f1_3"
	transform="scale(0.001,-0.001)" />

	<path d="M495,-21.3c0,0,-189.4,0,-299.4,117.6C195.6,96.3,84,215.4,84,415.6c0,0,0,204.7,111.6,322.3c0,0,113,117.7,308.6,117.7c0,0,62.6,0,122.2,-13.8c0,0,61.1,-13.7,117.6,-39.7l0,-128.3c0,0,-58,32,-116.1,47.3c0,0,-58,16.8,-119.1,16.8c0,0,-133,0,-206.3,-84c0,0,-74.9,-84,-74.9,-238.3c0,0,0,-152.8,73.4,-236.8c0,0,74.8,-84.1,207.8,-84.1c0,0,61.1,0,119.1,15.3c0,0,58.1,16.8,116.1,48.9L744,30.6c0,0,-56.5,-26,-117.6,-38.1c0,0,-62.6,-13.8,-131.4,-13.8Z" 
	id="f1_6"
	transform="scale(0.001,-0.001)" />

	<path d="M161,0l0,189l158,0L319,0Z" 
	id="f1_1c"
	transform="scale(0.001,-0.001)" />

	<path d="M456.8,-21.3c0,0,-77.9,0,-166.5,16.8c0,0,-90.2,18.3,-186.4,53.4l0,154.3c0,0,91.7,-50.4,180.3,-76.4c0,0,88.6,-27.5,172.6,-27.5c0,0,129.9,0,200.1,50.4c0,0,70.3,52,70.3,145.2c0,0,0,82.5,-50.4,128.3c0,0,-50.4,47.4,-166.5,70.3l-91.7,16.8c0,0,-168,33.6,-242.9,105.4c0,0,-76.4,71.8,-76.4,200.1c0,0,0,146.7,103.9,232.3c0,0,105.4,85.5,287.2,85.5c0,0,79.5,0,160.4,-13.7c0,0,81,-15.3,166.6,-42.8l0,-148.2c0,0,-85.6,41.2,-162,61.1c0,0,-76.4,21.4,-146.6,21.4c0,0,-123.8,0,-189.5,-47.4c0,0,-67.2,-48.9,-67.2,-137.5c0,0,0,-73.3,44.3,-110c0,0,44.3,-38.2,168,-61.1l90.2,-19.8c0,0,169.6,-32.1,249,-111.6c0,0,81,-80.9,81,-216.9c0,0,0,-162,-108.5,-244.5c0,0,-108.5,-83.9,-319.3,-83.9Z" 
	id="f1_z"
	transform="scale(0.001,-0.001)" />

	<path d="M421.7,-21.3c0,0,-143.6,0,-218.5,88.5L128.3,328.5l0,505.7l137.5,0l0,-499.6c0,0,0,-119.2,45.9,-178.8c0,0,47.3,-59.5,139,-59.5c0,0,111.5,0,175.7,70.2c0,0,65.7,71.8,65.7,194.1l0,473.6l136,0L828.1,0l-136,0l0,126.8c0,0,-50.4,-74.9,-116.1,-111.5c0,0,-67.2,-36.6,-154.3,-36.6Z" 
	id="f1_i"
	transform="scale(0.001,-0.001)" />

	<path d="M165,0l0,728.8l-131.4,0l0,105.4l131.4,0l0,58c0,0,0,140.6,64.2,203.2c0,0,65.7,64.2,207.7,64.2l129.9,0l0,-113.1l-131.4,0c0,0,-74.8,0,-102.3,-30.5c0,0,-29.1,-30.6,-29.1,-107l0,-74.8l226.1,0l0,-105.4l-226.1,0L304,0Z" 
	id="f1_e"
	transform="scale(0.001,-0.001)" />

	<path d="M137.5,0l0,1159.6l139,0l0,-455.3c0,0,48.9,76.4,114.6,113.1c0,0,67.2,38.2,154.3,38.2c0,0,145.2,0,218.5,-88.7c0,0,73.3,-90.1,73.3,-262.7L837.2,0L699.7,0l0,499.6c0,0,0,117.6,-45.8,175.7c0,0,-45.8,59.6,-139,59.6c0,0,-110,0,-174.2,-70.3c0,0,-64.2,-70.3,-64.2,-192.5L276.5,0Z" 
	id="f1_f"
	transform="scale(0.001,-0.001)" />

	<path d="M458.3,114.6c0,0,111.6,0,172.7,81c0,0,62.6,82.5,62.6,230.7c0,0,0,149.7,-61.1,230.6c0,0,-62.6,82.5,-174.2,82.5c0,0,-110,0,-171.1,-80.9c0,0,-62.6,-82.5,-62.6,-232.2c0,0,0,-148.2,61.1,-229.2c0,0,62.6,-82.5,172.6,-82.5ZM444.6,-317.7c0,0,-71.8,0,-136,10.7c0,0,-64.2,12.2,-123.7,33.6l0,134.5c0,0,59.5,-33.6,117.6,-48.9c0,0,59.6,-15.3,120.7,-15.3c0,0,136,0,203.2,70.3c0,0,67.2,70.3,67.2,210.7l0,68.8c0,0,-42.8,-74.9,-108.5,-110C585.1,36.7,517.9,0,424.7,0c0,0,-152.8,0,-245.9,116.1c0,0,-94.8,117.7,-94.8,310.2c0,0,0,194,93.2,311.6c0,0,94.7,117.7,247.5,117.7c0,0,93.2,0,158.9,-36.7c0,0,67.2,-36.7,110,-111.5l0,126.8l136,0l0,-731.8c0,0,0,-210.8,-94.7,-314.7c0,0,-94.8,-105.4,-290.3,-105.4Z" 
	id="f1_x"
	transform="scale(0.001,-0.001)" />

	<path d="M357.5,0L44.3,834.2l145.1,0L450.7,132.9L711.9,834.2l146.7,0L543.9,0Z" 
	id="f1_q"
	transform="scale(0.001,-0.001)" />

	<path d="M282.6,0L62.6,834.2l137.5,0L372.8,183.3L542.4,834.2l161.9,0L876.9,183.3l171.2,650.9l135.9,0L965.6,0l-162,0L624.9,684.4L444.6,0Z" 
	id="f1_12"
	transform="scale(0.001,-0.001)" />

	<path d="M389,0l0,985L-3,985l0,128l939,0l0,-128l-396,0L540,0Z" 
	id="f1_1g"
	transform="scale(0.001,-0.001)" />

	<path d="M178,0l0,189l158,0L336,0Zm0,600l0,189l158,0l0,-189Z" 
	id="f1_n"
	transform="scale(0.001,-0.001)" />

	<path d="M328.5,0L50.4,1113.8l151.3,0L436.9,171.1l232.3,942.7l169.6,0L1074,171.1l232.3,942.7l154.3,0L1179.4,0L990,0L756.3,965.6L517.9,0Z" 
	id="f1_1e"
	transform="scale(0.001,-0.001)" />

	<path d="M488.9,571.4c0,0,105.4,0,161.9,53.5c0,0,58.1,55,58.1,155.8c0,0,0,99.3,-56.5,152.8c0,0,-58.1,55,-163.5,55l-189.5,0l0,-417.1ZM149.7,0l0,1113.8l339.2,0c0,0,187.9,0,282.6,-84.1c0,0,96.3,-85.5,96.3,-249c0,0,0,-165,-94.7,-249c0,0,-96.3,-85.6,-284.2,-85.6l-189.5,0L299.4,0Z" 
	id="f1_s"
	transform="scale(0.001,-0.001)" />

	<path d="M189.4,0l0,126.8l246,0l0,849.5L166.5,922.8l0,136l267.4,55l149.7,0l0,-987l246,0L829.6,0Z" 
	id="f1_2"
	transform="scale(0.001,-0.001)" />

	<path d="M122.2,-200c0,0,99.3,169.5,146.7,337.5c0,0,48.9,169.6,48.9,340.7c0,0,0,172.6,-47.4,340.7c0,0,-48.9,168,-148.2,339.2l119.2,0c0,0,111.5,-175.7,166.5,-343.8c0,0,56.5,-169.6,56.5,-336.1c0,0,0,-166.5,-55,-334.6c0,0,-56.5,-169.5,-168,-343.6Z" 
	id="f1_o"
	transform="scale(0.001,-0.001)" />

	<path d="M111.5,0l0,126.8c0,0,85.6,88.6,233.8,236.8c0,0,148.2,149.7,186.4,194c0,0,71.8,81,100.8,137.5c0,0,29,56.6,29,110c0,0,0,88.7,-62.6,145.2c0,0,-62.6,56.5,-162,56.5c0,0,-71.8,0,-149.7,-24.4c0,0,-79.4,-26,-168,-74.9l0,151.3c0,0,90.1,36.6,169.6,55c0,0,79.4,19.8,145.1,19.8c0,0,172.6,0,275,-87.1c0,0,103.9,-87.1,103.9,-230.7c0,0,0,-68.7,-26,-129.8c0,0,-26,-62.7,-93.2,-145.2c0,0,-19.8,-22.9,-119.2,-125.2c0,0,-99.3,-103.9,-282.6,-288.8l527.1,0L818.9,0Z" 
	id="f1_t"
	transform="scale(0.001,-0.001)" />

	<path d="M149,0l0,1113l640,0l0,-128l-490,0l0,-327l441,0l0,-127l-441,0L299,0Z" 
	id="f1_19"
	transform="scale(0.001,-0.001)" />

	<path d="M412.5,-21.3c0,0,-68.7,0,-143.6,12.2c0,0,-74.9,13.7,-152.8,41.2l0,146.7c0,0,62.7,-36.7,136,-55c0,0,74.8,-19.9,157.3,-19.9c0,0,140.6,0,215.5,56.5c0,0,74.8,56.5,74.8,162c0,0,0,99.3,-68.7,154.3c0,0,-70.3,56.5,-192.5,56.5l-129.9,0l0,123.7l136,0c0,0,110,0,168,44.4c0,0,59.6,44.3,59.6,126.8c0,0,0,87,-59.6,132.9c0,0,-61.1,45.8,-174.1,45.8c0,0,-62.7,0,-132.9,-13.7c0,0,-71.8,-13.8,-155.9,-41.3l0,132.9c0,0,85.6,24.5,160.4,36.7c0,0,74.9,12.2,140.6,12.2c0,0,172.6,0,271.9,-77.9c0,0,100.9,-77.9,100.9,-210.8c0,0,0,-93.2,-53.5,-155.9c0,0,-53.5,-64.1,-151.2,-88.6c0,0,108.4,-24.4,169.5,-96.2c0,0,61.1,-73.4,61.1,-181.8c0,0,0,-163.5,-113,-253.6c0,0,-114.6,-90.1,-323.9,-90.1Z" 
	id="f1_y"
	transform="scale(0.001,-0.001)" />

	<path d="M481.3,123.8c0,0,230.6,0,337.6,103.8c0,0,106.9,103.9,106.9,330c0,0,0,223.1,-106.9,327c0,0,-107,103.9,-337.6,103.9l-181.9,0l0,-864.7ZM149.7,0l0,1113.8l308.6,0c0,0,323.9,0,475.2,-134.5c0,0,151.2,-136,151.2,-421.7c0,0,0,-288.7,-151.2,-423.2C933.5,134.4,780.7,0,458.3,0Z" 
	id="f1_16"
	transform="scale(0.001,-0.001)" />

	<path d="M576,386.5l0,595.9L195.6,386.5ZM576,0l0,261.3l-502.7,0l0,146.6l464.5,705.9l189.4,0l0,-727.3l158.9,0l0,-125.2l-158.9,0L727.2,0Z" 
	id="f1_10"
	transform="scale(0.001,-0.001)" />

	<path d="M411,-21.3c0,0,-70.3,0,-143.6,10.7c0,0,-73.4,12.1,-149.8,36.6l0,151.2c0,0,67.3,-36.6,137.5,-55c0,0,71.8,-18.3,152.8,-18.3c0,0,128.4,0,203.2,67.2c0,0,76.4,68.8,76.4,184.9c0,0,0,117.6,-74.9,184.8c0,0,-76.3,67.3,-204.7,67.3c0,0,-61.1,0,-120.7,-12.3c0,0,-61.1,-13.7,-123.7,-42.7l0,560.7l592.8,0l0,-128.4l-453.8,0l0,-271.9c0,0,32.1,10.7,64.2,15.3c0,0,33.6,6.1,67.2,6.1c0,0,186.4,0,294.9,-100.9c0,0,108.4,-102.3,108.4,-278c0,0,0,-178.8,-111.5,-278.1c0,0,-111.5,-99.2,-314.7,-99.2Z" 
	id="f1_14"
	transform="scale(0.001,-0.001)" />

	<path d="M504.2,96.3c0,0,100.8,0,160.4,70.2c0,0,59.6,70.3,59.6,189.5c0,0,0,120.7,-59.6,189.4c0,0,-59.6,70.3,-160.4,70.3c0,0,-102.4,0,-160.4,-68.8c0,0,-59.6,-70.2,-59.6,-190.9c0,0,0,-119.2,58,-189.5c0,0,59.6,-70.2,162,-70.2Zm0,-117.6c0,0,-194.1,0,-296.4,146.6c0,0,-102.4,148.2,-102.4,429.3c0,0,0,264.3,125.3,421.7c0,0,125.3,157.3,337.6,157.3c0,0,56.6,0,113.1,-10.7c0,0,58,-12.2,120.7,-35.1l0,-136c0,0,-56.5,26,-113.1,39.7c0,0,-58,15.3,-116.1,15.3c0,0,-148.2,0,-226.1,-100.8c0,0,-79.4,-100.9,-91.7,-304.1c0,0,44.3,64.2,110,97.8c0,0,67.3,35.2,146.7,35.2c0,0,168.1,0,265.8,-100.9c0,0,97.8,-102.3,97.8,-278c0,0,0,-171.1,-100.8,-273.5c0,0,-102.4,-103.8,-270.4,-103.8Z" 
	id="f1_17"
	transform="scale(0.001,-0.001)" />


</defs>
</svg>