<?xml version="1.0" encoding="UTF-8" standalone="no"?>
<!DOCTYPE svg PUBLIC "-//W3C//DTD SVG 1.1//EN"
"http://www.w3.org/Graphics/SVG/1.1/DTD/svg11.dtd">
<svg viewBox="0 0 1210 1045" version="1.1" xmlns="http://www.w3.org/2000/svg" xmlns:xlink="http://www.w3.org/1999/xlink">
<defs>
<style type="text/css"><![CDATA[
.g2_60{
fill: #418AB3;
}
.g5_60{
fill: none;
stroke: #FFFFFF;
stroke-width: 1;
stroke-linecap: butt;
stroke-linejoin: miter;
}
.g3_60{
fill: #CEDAE4;
}
.g4_60{
fill: #E8EDF2;
}
.g1_60{
fill: #FFFFFF;
}
]]></style>
</defs>
<path fill-rule="evenodd" d="M0,0L1210,0l0,1045L0,1045L0,0Z" class="g1_60" />
<path fill-rule="evenodd" d="M0,0L1210,0l0,1045L0,1045L0,0Z" class="g1_60" />
<image x="828" y="984" width="334" height="49" xlink:href="img/1.png" />
<path fill-rule="evenodd" d="M273,120l159,0l0,52l-159,0l0,-52Z" class="g2_60" />
<path fill-rule="evenodd" d="M432,120l182,0l0,52l-182,0l0,-52Z" class="g2_60" />
<path fill-rule="evenodd" d="M614,120l269,0l0,52l-269,0l0,-52Z" class="g2_60" />
<path fill-rule="evenodd" d="M883,120l126,0l0,52l-126,0l0,-52Z" class="g2_60" />
<path fill-rule="evenodd" d="M273,172l159,0l0,30l-159,0l0,-30Z" class="g3_60" />
<path fill-rule="evenodd" d="M432,172l182,0l0,30l-182,0l0,-30Z" class="g3_60" />
<path fill-rule="evenodd" d="M614,172l269,0l0,30l-269,0l0,-30Z" class="g3_60" />
<path fill-rule="evenodd" d="M883,172l126,0l0,30l-126,0l0,-30Z" class="g3_60" />
<path fill-rule="evenodd" d="M273,202l159,0l0,30l-159,0l0,-30Z" class="g4_60" />
<path fill-rule="evenodd" d="M432,202l182,0l0,30l-182,0l0,-30Z" class="g4_60" />
<path fill-rule="evenodd" d="M614,202l269,0l0,30l-269,0l0,-30Z" class="g4_60" />
<path fill-rule="evenodd" d="M883,202l126,0l0,30l-126,0l0,-30Z" class="g4_60" />
<path fill-rule="evenodd" d="M273,232l159,0l0,31l-159,0l0,-31Z" class="g3_60" />
<path fill-rule="evenodd" d="M432,232l182,0l0,31l-182,0l0,-31Z" class="g3_60" />
<path fill-rule="evenodd" d="M614,232l269,0l0,31l-269,0l0,-31Z" class="g3_60" />
<path fill-rule="evenodd" d="M883,232l126,0l0,31l-126,0l0,-31Z" class="g3_60" />
<path d="M273.5,173.5l0,-54" class="g5_60" />
<path d="M431.5,172.5l0,-52" class="g5_60" />
<path d="M273.5,121.5l159,0" class="g5_60" />
<path d="M431.5,172.5l0,-52" class="g5_60" />
<path d="M614.5,172.5l0,-52" class="g5_60" />
<path d="M431.5,121.5l184,0" class="g5_60" />
<path d="M614.5,172.5l0,-52" class="g5_60" />
<path d="M883.5,173.5l0,-54" class="g5_60" />
<path d="M614.5,121.5l270,0" class="g5_60" />
<path d="M883.5,172.5l0,-52" class="g5_60" />
<path d="M1008.5,173.5l0,-54" class="g5_60" />
<path d="M883.5,121.5l127,0" class="g5_60" />
<path d="M273.5,203.5l0,-32" class="g5_60" />
<path d="M431.5,202.5l0,-30" class="g5_60" />
<path fill-rule="evenodd" d="M432.1,172.5l-0.8,2.1l-156.8,0l-0.6,-2.1l0.6,-2l156.8,0l0.8,2Z" class="g1_60" />
<path d="M431.5,202.5l0,-30" class="g5_60" />
<path d="M614.5,202.5l0,-30" class="g5_60" />
<path fill-rule="evenodd" d="M614.8,172.5l-0.6,2.1l-181.5,0l-0.6,-2.1l0.6,-2l181.5,0l0.6,2Z" class="g1_60" />
<path d="M614.5,202.5l0,-30" class="g5_60" />
<path d="M883.5,203.5l0,-32" class="g5_60" />
<path fill-rule="evenodd" d="M883.8,172.5l-0.6,2.1l-267.8,0l-0.6,-2.1l0.6,-2l267.8,0l0.6,2Z" class="g1_60" />
<path d="M883.5,202.5l0,-30" class="g5_60" />
<path d="M1008.5,203.5l0,-32" class="g5_60" />
<path fill-rule="evenodd" d="M1009.4,172.5l-0.6,2.1l-124.4,0l-0.6,-2.1l0.6,-2l124.4,0l0.6,2Z" class="g1_60" />
<path d="M273.5,233.5l0,-31" class="g5_60" />
<path d="M431.5,232.5l0,-30" class="g5_60" />
<path d="M273.5,203.5l159,0" class="g5_60" />
<path d="M431.5,232.5l0,-30" class="g5_60" />
<path d="M614.5,232.5l0,-30" class="g5_60" />
<path d="M432.5,203.5l182,0" class="g5_60" />
<path d="M614.5,232.5l0,-30" class="g5_60" />
<path d="M883.5,233.5l0,-31" class="g5_60" />
<path d="M614.5,203.5l269,0" class="g5_60" />
<path d="M883.5,232.5l0,-30" class="g5_60" />
<path d="M1008.5,233.5l0,-31" class="g5_60" />
<path d="M883.5,203.5l126,0" class="g5_60" />
<path d="M273.5,263.5l0,-31" class="g5_60" />
<path d="M273.5,263.5l159,0" class="g5_60" />
<path d="M431.5,263.5l0,-31" class="g5_60" />
<path d="M273.5,233.5l159,0" class="g5_60" />
<path d="M431.5,263.5l0,-31" class="g5_60" />
<path d="M431.5,263.5l184,0" class="g5_60" />
<path d="M614.5,263.5l0,-31" class="g5_60" />
<path d="M432.5,233.5l182,0" class="g5_60" />
<path d="M614.5,263.5l0,-31" class="g5_60" />
<path d="M614.5,263.5l270,0" class="g5_60" />
<path d="M883.5,263.5l0,-31" class="g5_60" />
<path d="M614.5,233.5l269,0" class="g5_60" />
<path d="M883.5,263.5l0,-31" class="g5_60" />
<path d="M883.5,263.5l127,0" class="g5_60" />
<path d="M1008.5,263.5l0,-31" class="g5_60" />
<path d="M883.5,233.5l126,0" class="g5_60" />
<path fill-rule="evenodd" d="M403,300l174,0l0,33l-174,0l0,-33Z" class="g2_60" />
<path fill-rule="evenodd" d="M577,300l303,0l0,33l-303,0l0,-33Z" class="g2_60" />
<path fill-rule="evenodd" d="M403,333l174,0l0,35l-174,0l0,-35Z" class="g3_60" />
<path fill-rule="evenodd" d="M577,333l303,0l0,35l-303,0l0,-35Z" class="g3_60" />
<path fill-rule="evenodd" d="M403,368l174,0l0,33l-174,0l0,-33Z" class="g4_60" />
<path fill-rule="evenodd" d="M577,368l303,0l0,33l-303,0l0,-33Z" class="g4_60" />
<path fill-rule="evenodd" d="M403,401l174,0l0,33l-174,0l0,-33Z" class="g3_60" />
<path fill-rule="evenodd" d="M577,401l303,0l0,33l-303,0l0,-33Z" class="g3_60" />
<path fill-rule="evenodd" d="M403,434l174,0l0,33l-174,0l0,-33Z" class="g4_60" />
<path fill-rule="evenodd" d="M577,434l303,0l0,33l-303,0l0,-33Z" class="g4_60" />
<path fill-rule="evenodd" d="M403,467l174,0l0,33l-174,0l0,-33Z" class="g3_60" />
<path fill-rule="evenodd" d="M577,467l303,0l0,33l-303,0l0,-33Z" class="g3_60" />
<path d="M402.5,334.5l0,-35" class="g5_60" />
<path d="M576.5,334.5l0,-35" class="g5_60" />
<path d="M402.5,300.5l176,0" class="g5_60" />
<path d="M576.5,333.5l0,-33" class="g5_60" />
<path d="M879.5,334.5l0,-35" class="g5_60" />
<path d="M576.5,300.5l304,0" class="g5_60" />
<path d="M402.5,369.5l0,-38" class="g5_60" />
<path d="M576.5,369.5l0,-38" class="g5_60" />
<path fill-rule="evenodd" d="M577.5,333.2l-0.8,2l-172.8,0l-0.6,-2l0.6,-2l172.8,0l0.8,2Z" class="g1_60" />
<path d="M576.5,368.5l0,-35" class="g5_60" />
<path d="M879.5,369.5l0,-38" class="g5_60" />
<path fill-rule="evenodd" d="M880,333.2l-0.8,2l-301.1,0l-0.6,-2l0.6,-2l301.1,0l0.8,2Z" class="g1_60" />
<path d="M402.5,402.5l0,-34" class="g5_60" />
<path d="M576.5,402.5l0,-34" class="g5_60" />
<path d="M403.5,369.5l174,0" class="g5_60" />
<path d="M576.5,401.5l0,-33" class="g5_60" />
<path d="M879.5,402.5l0,-34" class="g5_60" />
<path d="M577.5,369.5l303,0" class="g5_60" />
<path d="M402.5,435.5l0,-34" class="g5_60" />
<path d="M576.5,435.5l0,-34" class="g5_60" />
<path d="M403.5,402.5l174,0" class="g5_60" />
<path d="M576.5,434.5l0,-33" class="g5_60" />
<path d="M879.5,435.5l0,-34" class="g5_60" />
<path d="M577.5,402.5l303,0" class="g5_60" />
<path d="M402.5,468.5l0,-34" class="g5_60" />
<path d="M576.5,468.5l0,-34" class="g5_60" />
<path d="M403.5,435.5l174,0" class="g5_60" />
<path d="M576.5,467.5l0,-33" class="g5_60" />
<path d="M879.5,468.5l0,-34" class="g5_60" />
<path d="M577.5,435.5l303,0" class="g5_60" />
<path d="M402.5,501.5l0,-34" class="g5_60" />
<path d="M402.5,501.5l176,0" class="g5_60" />
<path d="M576.5,501.5l0,-34" class="g5_60" />
<path d="M403.5,468.5l174,0" class="g5_60" />
<path d="M576.5,500.5l0,-33" class="g5_60" />
<path d="M576.5,501.5l304,0" class="g5_60" />
<path d="M879.5,501.5l0,-34" class="g5_60" />
<path d="M577.5,468.5l303,0" class="g5_60" />
</svg>