<?xml version="1.0" encoding="UTF-8" standalone="no"?>
<!DOCTYPE svg PUBLIC "-//W3C//DTD SVG 1.1//EN"
"http://www.w3.org/Graphics/SVG/1.1/DTD/svg11.dtd">
<svg viewBox="0 0 1100 825" version="1.1" xmlns="http://www.w3.org/2000/svg" xmlns:xlink="http://www.w3.org/1999/xlink">
<defs>
<style type="text/css"><![CDATA[
.g3_42{
fill: none;
stroke: #418AB3;
stroke-width: 2;
stroke-linecap: butt;
stroke-linejoin: miter;
stroke-miterlimit: 7;
}
.g2_42{
fill: none;
stroke: #000000;
stroke-width: 1;
stroke-linecap: butt;
stroke-linejoin: round;
}
.g1_42{
fill: #FFFFFF;
}
]]></style>
</defs>
<path fill-rule="evenodd" d="M0,0L1100,0l0,825L0,825L0,0Z" class="g1_42" />
<path fill-rule="evenodd" d="M0,0L1100,0l0,825L0,825L0,0Z" class="g1_42" />
<image x="753" y="777" width="303" height="38" xlink:href="img/1.png" />
<path d="M851.5,551.5l-235,0l0,-482l470,0l0,482l-235,0Z" class="g2_42" />
<path fill-rule="evenodd" d="M908.1,18.3l0,-0.3l0,-0.3l0,-0.3l0.2,-0.3l0,-0.1l0,-0.3l0.1,-0.4L908.6,16l0.1,-0.3l0.2,-0.1L909,15.3l0,-0.2l0.3,-0.3l0.2,-0.1l0.1,-0.3l0.3,-0.2l0.2,-0.1l0.3,-0.3l0.2,0l0.3,-0.4l0.3,0l0.1,-0.1l0.3,-0.2L911.9,13l0.3,0l0.2,-0.2l0.3,0l0.3,0l0.3,0l0.3,0l167.6,0l0.3,0l0.3,0l0.3,0l0.3,0l0.3,0.2l0.2,0.1l0.3,0l0.3,0.2l0.3,0.1l0.2,0l0.3,0.4l0.3,0.1l0.1,0.2l0.2,0.1l0.3,0.2l0.1,0.3l0.2,0.1l0.1,0.3l0.3,0.2l0,0.3l0.2,0.1l0.2,0.3l0.1,0.3l0.2,0.4l0,0.3l0,0.3l0.1,0.1l0,0.3l0,0.3l0,0.3l0.2,22.2l0,0.3l-0.2,0.3l0,0.3l0,0.3l-0.1,0.3l0,0.2l-0.2,0.3l-0.1,0.3l0,0.3l-0.2,0.1l-0.2,0.3l-0.3,0.3l-0.1,0.2l-0.2,0.2l-0.1,0.3l-0.3,0.1l-0.2,0.2l-0.1,0.3l-0.3,0.1l-0.3,0.2l-0.2,0l-0.3,0.1l-0.3,0.2l-0.3,0.1l-0.2,0l-0.3,0l-0.3,0.2l-0.3,0l-0.3,0l-0.3,0L913.6,46.1l-0.3,0L913,46l-0.3,0l-0.3,0l-0.2,-0.2l-0.3,0l-0.3,-0.1l-0.3,-0.2l-0.1,0l-0.3,-0.1l-0.3,-0.2l-0.2,-0.1l-0.3,-0.3l-0.2,-0.2l-0.3,-0.1l-0.1,-0.2L909.3,44L909,43.8l0,-0.3l-0.1,-0.3l-0.2,-0.1l-0.1,-0.3l-0.2,-0.3l-0.1,-0.2l0,-0.3l0,-0.3l-0.2,-0.3l0,-0.3l0,-0.3l0,-0.3l0,-22.2Z" class="g1_42" />
<path d="M908.1,18.3l0,-0.3l0,-0.3l0,-0.3l0.2,-0.3l0,-0.1l0,-0.3l0.1,-0.4L908.6,16l0.1,-0.3l0.2,-0.1L909,15.3l0,-0.2l0.3,-0.3l0.2,-0.1l0.1,-0.3l0.3,-0.2l0.2,-0.1l0.3,-0.3l0.2,0l0.3,-0.4l0.3,0l0.1,-0.1l0.3,-0.2L911.9,13l0.3,0l0.2,-0.2l0.3,0l0.3,0l0.3,0l0.3,0l167.6,0l0.3,0l0.3,0l0.3,0l0.3,0l0.3,0.2l0.2,0.1l0.3,0l0.3,0.2l0.3,0.1l0.2,0l0.3,0.4l0.3,0.1l0.1,0.2l0.2,0.1l0.3,0.2l0.1,0.3l0.2,0.1l0.1,0.3l0.3,0.2l0,0.3l0.2,0.1l0.2,0.3l0.1,0.3l0.2,0.4l0,0.3l0,0.3l0.1,0.1l0,0.3l0,0.3l0,0.3l0.2,22.2l0,0.3l-0.2,0.3l0,0.3l0,0.3l-0.1,0.3l0,0.2l-0.2,0.3l-0.1,0.3l0,0.3l-0.2,0.1l-0.2,0.3l-0.3,0.3l-0.1,0.2l-0.2,0.2l-0.1,0.3l-0.3,0.1l-0.2,0.2l-0.1,0.3l-0.3,0.1l-0.3,0.2l-0.2,0l-0.3,0.1l-0.3,0.2l-0.3,0.1l-0.2,0l-0.3,0l-0.3,0.2l-0.3,0l-0.3,0l-0.3,0L913.6,46.1l-0.3,0L913,46l-0.3,0l-0.3,0l-0.2,-0.2l-0.3,0l-0.3,-0.1l-0.3,-0.2l-0.1,0l-0.3,-0.1l-0.3,-0.2l-0.2,-0.1l-0.3,-0.3l-0.2,-0.2l-0.3,-0.1l-0.1,-0.2L909.3,44L909,43.8l0,-0.3l-0.1,-0.3l-0.2,-0.1l-0.1,-0.3l-0.2,-0.3l-0.1,-0.2l0,-0.3l0,-0.3l-0.2,-0.3l0,-0.3l0,-0.3l0,-0.3l0,-22.2Z" class="g3_42" />
</svg>