<?xml version="1.0" encoding="UTF-8" standalone="no"?>
<!DOCTYPE svg PUBLIC "-//W3C//DTD SVG 1.1//EN"
"http://www.w3.org/Graphics/SVG/1.1/DTD/svg11.dtd">
<svg viewBox="0 0 1100 825" version="1.1" xmlns="http://www.w3.org/2000/svg" xmlns:xlink="http://www.w3.org/1999/xlink">
<defs>
<style type="text/css"><![CDATA[
.g5_91{
fill: none;
stroke: #000000;
stroke-width: 1;
stroke-linecap: butt;
stroke-linejoin: miter;
stroke-miterlimit: 7;
}
.g2_91{
fill: none;
stroke: #000000;
stroke-width: 2;
stroke-linecap: butt;
stroke-linejoin: miter;
}
.g4_91{
fill: none;
stroke: #000000;
stroke-width: 2;
stroke-linecap: butt;
stroke-linejoin: miter;
stroke-miterlimit: 7;
}
.g3_91{
fill: #418AB3;
}
.g6_91{
}
.g1_91{
fill: #FFFFFF;
}
]]></style>
</defs>
<path fill-rule="evenodd" d="M0,0L1100,0l0,825L0,825L0,0Z" class="g1_91" />
<path fill-rule="evenodd" d="M0,0L1100,0l0,825L0,825L0,0Z" class="g1_91" />
<image x="753" y="777" width="303" height="38" xlink:href="img/1.png" />
<path d="M44,79l112,0" class="g2_91" />
<path d="M44,313l114,0" class="g2_91" />
<path fill-rule="evenodd" d="M653,87l125,0l0,74l-125,0l0,-74Z" class="g3_91" />
<path fill-rule="evenodd" d="M890,87l125,0l0,74l-125,0l0,-74Z" class="g3_91" />
<path d="M802.5,125.7l-11.9,10l-12,-10l12,-9.9l11.9,9.9Z" class="g4_91" />
<path d="M802.5,125.5l88,0" class="g5_91" />
<path fill-rule="evenodd" d="M654,298l125,0l0,74l-125,0l0,-74Z" class="g3_91" />
<path fill-rule="evenodd" d="M892,301l125,0l0,73l-125,0l0,-73Z" class="g3_91" />
<path fill-rule="evenodd" d="M803.9,337.6l-12.1,10l-11.9,-10l11.9,-9.9l12.1,9.9Z" class="g6_91" />
<path d="M803.9,337.6l-12.1,10l-11.9,-10l11.9,-9.9l12.1,9.9Z" class="g4_91" />
<path d="M803.8,337.5l88.3,0.4" class="g5_91" />
</svg>