<?xml version="1.0" encoding="UTF-8" standalone="no"?>
<!DOCTYPE svg PUBLIC "-//W3C//DTD SVG 1.1//EN"
"http://www.w3.org/Graphics/SVG/1.1/DTD/svg11.dtd">
<svg viewBox="0 0 1210 1045" version="1.1" xmlns="http://www.w3.org/2000/svg" xmlns:xlink="http://www.w3.org/1999/xlink">
<defs>
<style type="text/css"><![CDATA[
.g4_86{
fill: none;
stroke: #000000;
stroke-width: 1;
stroke-linecap: butt;
stroke-linejoin: miter;
}
.g2_86{
fill: #418AB3;
}
.g3_86{
fill: none;
stroke: #626262;
stroke-width: 1;
stroke-linecap: butt;
stroke-linejoin: miter;
}
.g1_86{
fill: #FFFFFF;
}
.g5_86{
fill: none;
stroke: #418AB3;
stroke-width: 2;
stroke-linecap: butt;
stroke-linejoin: miter;
stroke-miterlimit: 7;
}
]]></style>
</defs>
<path fill-rule="evenodd" d="M0,0L1210,0l0,1045L0,1045L0,0Z" class="g1_86" />
<path fill-rule="evenodd" d="M0,0L1210,0l0,1045L0,1045L0,0Z" class="g1_86" />
<image x="828" y="984" width="334" height="49" xlink:href="img/1.png" />
<path fill-rule="evenodd" d="M64,146l91,0l0,89l-91,0l0,-89Z" class="g2_86" />
<path fill-rule="evenodd" d="M155,146l92,0l0,89l-92,0l0,-89Z" class="g2_86" />
<path fill-rule="evenodd" d="M247,146l147,0l0,89l-147,0l0,-89Z" class="g2_86" />
<path fill-rule="evenodd" d="M394,146l100,0l0,89l-100,0l0,-89Z" class="g2_86" />
<path fill-rule="evenodd" d="M494,146l92,0l0,89l-92,0l0,-89Z" class="g2_86" />
<path fill-rule="evenodd" d="M586,146l83,0l0,89l-83,0l0,-89Z" class="g2_86" />
<path fill-rule="evenodd" d="M669,146l98,0l0,89l-98,0l0,-89Z" class="g2_86" />
<path fill-rule="evenodd" d="M767,146l112,0l0,89l-112,0l0,-89Z" class="g2_86" />
<path fill-rule="evenodd" d="M879,146l83,0l0,89l-83,0l0,-89Z" class="g2_86" />
<path fill-rule="evenodd" d="M962,146l101,0l0,89l-101,0l0,-89Z" class="g2_86" />
<path fill-rule="evenodd" d="M1063,146l82,0l0,89l-82,0l0,-89Z" class="g2_86" />
<path d="M258.5,274.5l124,0" class="g3_86" />
<path d="M259.5,331.5l126,0" class="g3_86" />
<path d="M297.5,348.5l42,0" class="g3_86" />
<path d="M63.5,236.5l0,-90" class="g4_86" />
<path d="M155.5,235.5l0,-89" class="g4_86" />
<path d="M63.5,147.5l93,0" class="g4_86" />
<path d="M155.5,235.5l0,-89" class="g4_86" />
<path d="M246.5,235.5l0,-89" class="g4_86" />
<path d="M155.5,147.5l93,0" class="g4_86" />
<path d="M246.5,235.5l0,-89" class="g4_86" />
<path d="M393.5,235.5l0,-89" class="g4_86" />
<path d="M246.5,147.5l148,0" class="g4_86" />
<path d="M393.5,235.5l0,-89" class="g4_86" />
<path d="M494.5,235.5l0,-89" class="g4_86" />
<path d="M393.5,147.5l102,0" class="g4_86" />
<path d="M494.5,235.5l0,-89" class="g4_86" />
<path d="M585.5,235.5l0,-89" class="g4_86" />
<path d="M494.5,147.5l93,0" class="g4_86" />
<path d="M585.5,235.5l0,-89" class="g4_86" />
<path d="M668.5,235.5l0,-89" class="g4_86" />
<path d="M585.5,147.5l84,0" class="g4_86" />
<path d="M668.5,235.5l0,-89" class="g4_86" />
<path d="M766.5,235.5l0,-89" class="g4_86" />
<path d="M668.5,147.5l99,0" class="g4_86" />
<path d="M766.5,235.5l0,-89" class="g4_86" />
<path d="M879.5,235.5l0,-89" class="g4_86" />
<path d="M766.5,147.5l114,0" class="g4_86" />
<path d="M879.5,235.5l0,-89" class="g4_86" />
<path d="M961.5,235.5l0,-89" class="g4_86" />
<path d="M879.5,147.5l83,0" class="g4_86" />
<path d="M961.5,235.5l0,-89" class="g4_86" />
<path d="M1062.5,236.5l0,-90" class="g4_86" />
<path d="M961.5,147.5l102,0" class="g4_86" />
<path d="M1062.5,235.5l0,-89" class="g4_86" />
<path d="M1145.5,236.5l0,-90" class="g4_86" />
<path d="M1062.5,147.5l84,0" class="g4_86" />
<path d="M63.5,301.5l0,-67" class="g4_86" />
<path d="M155.5,301.5l0,-66" class="g4_86" />
<path d="M64.5,236.5l91,0" class="g4_86" />
<path d="M155.5,301.5l0,-66" class="g4_86" />
<path d="M246.5,301.5l0,-66" class="g4_86" />
<path d="M155.5,236.5l92,0" class="g4_86" />
<path d="M246.5,301.5l0,-66" class="g4_86" />
<path d="M393.5,301.5l0,-66" class="g4_86" />
<path d="M247.5,236.5l147,0" class="g4_86" />
<path d="M393.5,301.5l0,-66" class="g4_86" />
<path d="M494.5,301.5l0,-66" class="g4_86" />
<path d="M394.5,236.5l100,0" class="g4_86" />
<path d="M494.5,301.5l0,-66" class="g4_86" />
<path d="M585.5,301.5l0,-66" class="g4_86" />
<path d="M494.5,236.5l92,0" class="g4_86" />
<path d="M585.5,301.5l0,-66" class="g4_86" />
<path d="M668.5,301.5l0,-66" class="g4_86" />
<path d="M586.5,236.5l83,0" class="g4_86" />
<path d="M668.5,301.5l0,-66" class="g4_86" />
<path d="M766.5,301.5l0,-66" class="g4_86" />
<path d="M669.5,236.5l98,0" class="g4_86" />
<path d="M766.5,301.5l0,-66" class="g4_86" />
<path d="M879.5,301.5l0,-66" class="g4_86" />
<path d="M767.5,236.5l112,0" class="g4_86" />
<path d="M879.5,301.5l0,-66" class="g4_86" />
<path d="M961.5,301.5l0,-66" class="g4_86" />
<path d="M879.5,236.5l83,0" class="g4_86" />
<path d="M961.5,301.5l0,-66" class="g4_86" />
<path d="M1062.5,301.5l0,-67" class="g4_86" />
<path d="M962.5,236.5l101,0" class="g4_86" />
<path d="M1062.5,301.5l0,-66" class="g4_86" />
<path d="M1145.5,301.5l0,-67" class="g4_86" />
<path d="M1063.5,236.5l82,0" class="g4_86" />
<path d="M63.5,367.5l0,-67" class="g4_86" />
<path d="M63.5,367.5l93,0" class="g4_86" />
<path d="M155.5,366.5l0,-65" class="g4_86" />
<path d="M64.5,301.5l91,0" class="g4_86" />
<path d="M155.5,366.5l0,-65" class="g4_86" />
<path d="M155.5,367.5l93,0" class="g4_86" />
<path d="M246.5,366.5l0,-65" class="g4_86" />
<path d="M155.5,301.5l92,0" class="g4_86" />
<path d="M246.5,366.5l0,-65" class="g4_86" />
<path d="M246.5,367.5l148,0" class="g4_86" />
<path d="M393.5,366.5l0,-65" class="g4_86" />
<path d="M247.5,301.5l147,0" class="g4_86" />
<path d="M393.5,366.5l0,-65" class="g4_86" />
<path d="M393.5,367.5l102,0" class="g4_86" />
<path d="M494.5,366.5l0,-65" class="g4_86" />
<path d="M394.5,301.5l100,0" class="g4_86" />
<path d="M494.5,366.5l0,-65" class="g4_86" />
<path d="M494.5,367.5l93,0" class="g4_86" />
<path d="M585.5,366.5l0,-65" class="g4_86" />
<path d="M494.5,301.5l92,0" class="g4_86" />
<path d="M585.5,366.5l0,-65" class="g4_86" />
<path d="M585.5,367.5l84,0" class="g4_86" />
<path d="M668.5,366.5l0,-65" class="g4_86" />
<path d="M586.5,301.5l83,0" class="g4_86" />
<path d="M668.5,366.5l0,-65" class="g4_86" />
<path d="M668.5,367.5l99,0" class="g4_86" />
<path d="M766.5,366.5l0,-65" class="g4_86" />
<path d="M669.5,301.5l98,0" class="g4_86" />
<path d="M766.5,366.5l0,-65" class="g4_86" />
<path d="M766.5,367.5l114,0" class="g4_86" />
<path d="M879.5,366.5l0,-65" class="g4_86" />
<path d="M767.5,301.5l112,0" class="g4_86" />
<path d="M879.5,366.5l0,-65" class="g4_86" />
<path d="M879.5,367.5l83,0" class="g4_86" />
<path d="M961.5,366.5l0,-65" class="g4_86" />
<path d="M879.5,301.5l83,0" class="g4_86" />
<path d="M961.5,366.5l0,-65" class="g4_86" />
<path d="M961.5,367.5l102,0" class="g4_86" />
<path d="M1062.5,367.5l0,-67" class="g4_86" />
<path d="M962.5,301.5l101,0" class="g4_86" />
<path d="M1062.5,366.5l0,-65" class="g4_86" />
<path d="M1062.5,367.5l84,0" class="g4_86" />
<path d="M1145.5,367.5l0,-67" class="g4_86" />
<path d="M1063.5,301.5l82,0" class="g4_86" />
<path fill-rule="evenodd" d="M982.1,16.5l0,-0.3l0,-0.3l0,-0.3l0.1,-0.3l0,-0.3l0.2,-0.3l0,-0.3l0.1,-0.3l0.2,-0.3l0.1,-0.4L983,13.1l0.1,-0.3l0.3,-0.1l0.2,-0.3l0.1,-0.2L984,11.9l0.3,-0.1l0.2,-0.2l0.3,-0.1l0.3,-0.3L985.4,11l0.3,-0.2l0.2,0l0.3,-0.1l0.4,-0.2l0.3,0l0.4,0l0.3,-0.1l0.3,0l0.3,0l189.4,0l0.3,0l0.3,0l0.3,0.1l0.3,0l0.3,0l0.3,0.2l0.4,0.1l0.3,0l0.3,0.4l0.3,0l0.1,0.3l0.3,0.1l0.3,0.2l0.2,0.3l0.3,0.1l0.1,0.2l0.3,0.3l0.2,0.1l0.2,0.3l0.1,0.3l0.2,0.4l0.1,0.3l0.2,0.3l0,0.3l0.1,0.3l0.2,0.3l0,0.3l0,0.3l0,0.3l0,0.3l0.1,24.4l0,0.4l-0.1,0.3l0,0.3l0,0.3l-0.2,0.3l0,0.3l-0.1,0.3l-0.2,0.3l-0.1,0.3l-0.2,0.3l-0.1,0.2l-0.2,0.3l-0.2,0.3l-0.3,0.3l-0.1,0.1l-0.3,0.2l-0.2,0.3l-0.3,0.1l-0.3,0.2l-0.1,0.1l-0.3,0.2l-0.3,0.1l-0.3,0.2l-0.4,0.1l-0.3,0l-0.3,0.2l-0.3,0l-0.3,0l-0.3,0.2l-0.3,0l-189.4,0l-0.3,0l-0.3,0l-0.3,-0.2l-0.4,0l-0.3,-0.2l-0.4,0l-0.3,-0.1l-0.2,-0.2l-0.3,0l-0.3,-0.3L984.8,46l-0.3,-0.2l-0.2,-0.1L984,45.5l-0.3,-0.3l-0.1,-0.1l-0.2,-0.3l-0.3,-0.3L983,44.3L982.8,44l-0.1,-0.3l-0.2,-0.3l-0.1,-0.3l0,-0.3l-0.2,-0.3l0,-0.3l-0.1,-0.3l0,-0.3l0,-0.3l0,-0.4l0,-24.4Z" class="g1_86" />
<path d="M982.1,16.5l0,-0.3l0,-0.3l0,-0.3l0.1,-0.3l0,-0.3l0.2,-0.3l0,-0.3l0.1,-0.3l0.2,-0.3l0.1,-0.4L983,13.1l0.1,-0.3l0.3,-0.1l0.2,-0.3l0.1,-0.2L984,11.9l0.3,-0.1l0.2,-0.2l0.3,-0.1l0.3,-0.3L985.4,11l0.3,-0.2l0.2,0l0.3,-0.1l0.4,-0.2l0.3,0l0.4,0l0.3,-0.1l0.3,0l0.3,0l189.4,0l0.3,0l0.3,0l0.3,0.1l0.3,0l0.3,0l0.3,0.2l0.4,0.1l0.3,0l0.3,0.4l0.3,0l0.1,0.3l0.3,0.1l0.3,0.2l0.2,0.3l0.3,0.1l0.1,0.2l0.3,0.3l0.2,0.1l0.2,0.3l0.1,0.3l0.2,0.4l0.1,0.3l0.2,0.3l0,0.3l0.1,0.3l0.2,0.3l0,0.3l0,0.3l0,0.3l0,0.3l0.1,24.4l0,0.4l-0.1,0.3l0,0.3l0,0.3l-0.2,0.3l0,0.3l-0.1,0.3l-0.2,0.3l-0.1,0.3l-0.2,0.3l-0.1,0.2l-0.2,0.3l-0.2,0.3l-0.3,0.3l-0.1,0.1l-0.3,0.2l-0.2,0.3l-0.3,0.1l-0.3,0.2l-0.1,0.1l-0.3,0.2l-0.3,0.1l-0.3,0.2l-0.4,0.1l-0.3,0l-0.3,0.2l-0.3,0l-0.3,0l-0.3,0.2l-0.3,0l-189.4,0l-0.3,0l-0.3,0l-0.3,-0.2l-0.4,0l-0.3,-0.2l-0.4,0l-0.3,-0.1l-0.2,-0.2l-0.3,0l-0.3,-0.3L984.8,46l-0.3,-0.2l-0.2,-0.1L984,45.5l-0.3,-0.3l-0.1,-0.1l-0.2,-0.3l-0.3,-0.3L983,44.3L982.8,44l-0.1,-0.3l-0.2,-0.3l-0.1,-0.3l0,-0.3l-0.2,-0.3l0,-0.3l-0.1,-0.3l0,-0.3l0,-0.3l0,-0.4l0,-24.4Z" class="g5_86" />
</svg>