<?xml version="1.0" encoding="UTF-8" standalone="no"?>
<!DOCTYPE svg PUBLIC "-//W3C//DTD SVG 1.1//EN"
"http://www.w3.org/Graphics/SVG/1.1/DTD/svg11.dtd">
<svg viewBox="0 0 1155 1210" version="1.1" xmlns="http://www.w3.org/2000/svg" xmlns:xlink="http://www.w3.org/1999/xlink">
<defs>
<clipPath id="c0_27"><path d="M0.5,1210.5L0.5,0.5l1155,0l0,1210Z" /></clipPath>
<style type="text/css"><![CDATA[
.g1_27{
fill: #FFFFFF;
}
]]></style>
</defs>
<path fill-rule="evenodd" d="M0,0L1155,0l0,1210L0,1210L0,0Z" class="g1_27" />
<path fill-rule="evenodd" d="M0,0L1155,0l0,1210L0,1210L0,0Z" class="g1_27" />
<image x="790" y="1140" width="319" height="55" xlink:href="img/1.png" />
<g clip-path="url(#c0_27)">
<g fill="#626262" >
<use xlink:href="#f0_u" transform="matrix(12,0,0,12,47.7,33.2)" />
<use xlink:href="#f0_4" transform="matrix(12,0,0,12,53,33.2)" />
<use xlink:href="#f0_e" transform="matrix(12,0,0,12,64.5,33.2)" />
<use xlink:href="#f0_7" transform="matrix(12,0,0,12,71,33.2)" />
<use xlink:href="#f0_1g" transform="matrix(12,0,0,12,82.2,33.2)" />
<use xlink:href="#f0_b" transform="matrix(12,0,0,12,90.4,33.2)" />
<use xlink:href="#f0_6" transform="matrix(12,0,0,12,101.7,33.2)" />
<use xlink:href="#f0_f" transform="matrix(12,0,0,12,111.9,33.2)" />
<use xlink:href="#f0_z" transform="matrix(12,0,0,12,131,33.2)" />
<use xlink:href="#f0_r" transform="matrix(12,0,0,12,142.7,33.2)" />
<use xlink:href="#f0_g" transform="matrix(12,0,0,12,153.6,33.2)" />
<use xlink:href="#f0_c" transform="matrix(12,0,0,12,163.1,33.2)" />
<use xlink:href="#f0_b" transform="matrix(12,0,0,12,170.2,33.2)" />
<use xlink:href="#f0_8" transform="matrix(12,0,0,12,181.5,33.2)" />
<use xlink:href="#f0_g" transform="matrix(12,0,0,12,199.4,33.2)" />
<use xlink:href="#f0_12" transform="matrix(12,0,0,12,216.3,33.2)" />
<use xlink:href="#f0_k" transform="matrix(12,0,0,12,231.4,33.2)" />
<use xlink:href="#f0_4" transform="matrix(12,0,0,12,242.7,33.2)" />
<use xlink:href="#f0_c" transform="matrix(12,0,0,12,254.3,33.2)" />
<use xlink:href="#f0_g" transform="matrix(12,0,0,12,261.4,33.2)" />
<use xlink:href="#f0_c" transform="matrix(12,0,0,12,278.4,33.2)" />
<use xlink:href="#f0_7" transform="matrix(12,0,0,12,285.6,33.2)" />
<use xlink:href="#f0_l" transform="matrix(12,0,0,12,304.2,33.2)" />
<use xlink:href="#f0_b" transform="matrix(12,0,0,12,311.4,33.2)" />
<use xlink:href="#f0_c" transform="matrix(12,0,0,12,322.7,33.2)" />
<use xlink:href="#f0_l" transform="matrix(12,0,0,12,329.9,33.2)" />
<use xlink:href="#f0_d" transform="matrix(12,0,0,12,337.5,33.2)" />
<use xlink:href="#f0_b" transform="matrix(12,0,0,12,342.7,33.2)" />
<use xlink:href="#f0_q" transform="matrix(12,0,0,12,354,33.2)" />
<use xlink:href="#f0_b" transform="matrix(12,0,0,12,364.8,33.2)" />
<use xlink:href="#f0_6" transform="matrix(12,0,0,12,383.6,33.2)" />
<use xlink:href="#f0_b" transform="matrix(12,0,0,12,393.9,33.2)" />
<use xlink:href="#f0_l" transform="matrix(12,0,0,12,405.2,33.2)" />
<use xlink:href="#f0_c" transform="matrix(12,0,0,12,412.9,33.2)" />
<use xlink:href="#f0_k" transform="matrix(12,0,0,12,420.1,33.2)" />
<use xlink:href="#f0_d" transform="matrix(12,0,0,12,431.5,33.2)" />
<use xlink:href="#f0_4" transform="matrix(12,0,0,12,436.5,33.2)" />
<use xlink:href="#f0_d" transform="matrix(12,0,0,12,455.6,33.2)" />
<use xlink:href="#f0_4" transform="matrix(12,0,0,12,460.6,33.2)" />
<use xlink:href="#f0_e" transform="matrix(12,0,0,12,472.2,33.2)" />
<use xlink:href="#f0_7" transform="matrix(12,0,0,12,478.7,33.2)" />
<use xlink:href="#f0_l" transform="matrix(12,0,0,12,489.8,33.2)" />
<use xlink:href="#f0_8" transform="matrix(12,0,0,12,497.1,33.2)" />
<use xlink:href="#f0_k" transform="matrix(12,0,0,12,515,33.2)" />
<use xlink:href="#f0_c" transform="matrix(12,0,0,12,526.3,33.2)" />
<use xlink:href="#f0_d" transform="matrix(12,0,0,12,533.5,33.2)" />
<use xlink:href="#f0_7" transform="matrix(12,0,0,12,538.5,33.2)" />
<use xlink:href="#f0_4" transform="matrix(12,0,0,12,549.7,33.2)" />
<use xlink:href="#f0_l" transform="matrix(12,0,0,12,568.7,33.2)" />
<use xlink:href="#f0_b" transform="matrix(12,0,0,12,575.9,33.2)" />
<use xlink:href="#f0_x" transform="matrix(12,0,0,12,587.2,33.2)" />
<use xlink:href="#f0_k" transform="matrix(12,0,0,12,599,33.2)" />
<use xlink:href="#f0_l" transform="matrix(12,0,0,12,610.3,33.2)" />
<use xlink:href="#f0_h" transform="matrix(12,0,0,12,617.6,33.2)" />
<use xlink:href="#f0_d" transform="matrix(12,0,0,12,629.3,33.2)" />
<use xlink:href="#f0_4" transform="matrix(12,0,0,12,634.5,33.2)" />
<use xlink:href="#f0_x" transform="matrix(12,0,0,12,646,33.2)" />
<use xlink:href="#f0_c" transform="matrix(12,0,0,12,665.2,33.2)" />
<use xlink:href="#f0_f" transform="matrix(12,0,0,12,672.4,33.2)" />
<use xlink:href="#f0_b" transform="matrix(12,0,0,12,683.8,33.2)" />
<use xlink:href="#f0_d" transform="matrix(12,0,0,12,695.3,33.2)" />
<use xlink:href="#f0_l" transform="matrix(12,0,0,12,700.3,33.2)" />
<use xlink:href="#f0_b" transform="matrix(12,0,0,12,715.5,33.2)" />
<use xlink:href="#f0_8" transform="matrix(12,0,0,12,726.8,33.2)" />
<use xlink:href="#f0_9" transform="matrix(12,0,0,12,744.6,33.2)" />
<use xlink:href="#f0_a" transform="matrix(12,0,0,12,756.2,33.2)" />
<use xlink:href="#f0_7" transform="matrix(12,0,0,12,761.3,33.2)" />
<use xlink:href="#f0_r" transform="matrix(12,0,0,12,772.5,33.2)" />
<use xlink:href="#f0_b" transform="matrix(12,0,0,12,783.3,33.2)" />
<use xlink:href="#f0_l" transform="matrix(12,0,0,12,794.6,33.2)" />
<use xlink:href="#f0_g" transform="matrix(12,0,0,12,802.4,33.2)" />
<use xlink:href="#f0_1c" transform="matrix(12,0,0,12,811.9,33.2)" />
<use xlink:href="#f0_18" transform="matrix(12,0,0,12,825.1,33.2)" />
<use xlink:href="#f0_b" transform="matrix(12,0,0,12,838.9,33.2)" />
<use xlink:href="#f0_a" transform="matrix(12,0,0,12,850.3,33.2)" />
<use xlink:href="#f0_9" transform="matrix(12,0,0,12,855.4,33.2)" />
<use xlink:href="#f0_c" transform="matrix(12,0,0,12,874.4,33.2)" />
<use xlink:href="#f0_f" transform="matrix(12,0,0,12,881.6,33.2)" />
<use xlink:href="#f0_b" transform="matrix(12,0,0,12,893.1,33.2)" />
<use xlink:href="#f0_8" transform="matrix(12,0,0,12,904.5,33.2)" />
<use xlink:href="#f0_d" transform="matrix(12,0,0,12,929.7,33.2)" />
<use xlink:href="#f0_8" transform="matrix(12,0,0,12,934.9,33.2)" />
<use xlink:href="#f0_9" transform="matrix(12,0,0,12,952.6,33.2)" />
<use xlink:href="#f0_a" transform="matrix(12,0,0,12,964.1,33.2)" />
<use xlink:href="#f0_b" transform="matrix(12,0,0,12,969.2,33.2)" />
<use xlink:href="#f0_8" transform="matrix(12,0,0,12,980.5,33.2)" />
<use xlink:href="#f0_b" transform="matrix(12,0,0,12,998.4,33.2)" />
<use xlink:href="#f0_4" transform="matrix(12,0,0,12,1009.7,33.2)" />
<use xlink:href="#f0_c" transform="matrix(12,0,0,12,1021.3,33.2)" />
<use xlink:href="#f0_c" transform="matrix(12,0,0,12,1035.8,33.2)" />
<use xlink:href="#f0_f" transform="matrix(12,0,0,12,1043,33.2)" />
<use xlink:href="#f0_b" transform="matrix(12,0,0,12,1054.6,33.2)" />
<use xlink:href="#f0_e" transform="matrix(12,0,0,12,47.7,77.6)" />
<use xlink:href="#f0_7" transform="matrix(12,0,0,12,54.1,77.6)" />
<use xlink:href="#f0_a" transform="matrix(12,0,0,12,65.2,77.6)" />
<use xlink:href="#f0_a" transform="matrix(12,0,0,12,70.4,77.6)" />
<use xlink:href="#f0_7" transform="matrix(12,0,0,12,75.4,77.6)" />
<use xlink:href="#f0_12" transform="matrix(12,0,0,12,86.7,77.6)" />
<use xlink:href="#f0_d" transform="matrix(12,0,0,12,101.7,77.6)" />
<use xlink:href="#f0_4" transform="matrix(12,0,0,12,106.9,77.6)" />
<use xlink:href="#f0_x" transform="matrix(12,0,0,12,118.3,77.6)" />
<use xlink:href="#f0_m" transform="matrix(12,0,0,12,135.9,77.6)" />
<use xlink:href="#f0_i" transform="matrix(12,0,0,12,147.5,77.6)" />
<use xlink:href="#f0_g" transform="matrix(12,0,0,12,159.1,77.6)" />
<use xlink:href="#f0_d" transform="matrix(12,0,0,12,168.6,77.6)" />
<use xlink:href="#f0_4" transform="matrix(12,0,0,12,173.8,77.6)" />
<use xlink:href="#f0_b" transform="matrix(12,0,0,12,185.2,77.6)" />
<use xlink:href="#f0_g" transform="matrix(12,0,0,12,196.7,77.6)" />
<use xlink:href="#f0_g" transform="matrix(12,0,0,12,206.1,77.6)" />
<use xlink:href="#f0_l" transform="matrix(12,0,0,12,221.6,77.6)" />
<use xlink:href="#f0_b" transform="matrix(12,0,0,12,228.7,77.6)" />
<use xlink:href="#f0_13" transform="matrix(12,0,0,12,240,77.6)" />
<use xlink:href="#f0_i" transform="matrix(12,0,0,12,251.8,77.6)" />
<use xlink:href="#f0_d" transform="matrix(12,0,0,12,263.4,77.6)" />
<use xlink:href="#f0_l" transform="matrix(12,0,0,12,268.4,77.6)" />
<use xlink:href="#f0_b" transform="matrix(12,0,0,12,275.6,77.6)" />
<use xlink:href="#f0_8" transform="matrix(12,0,0,12,286.9,77.6)" />
<use xlink:href="#f0_b" transform="matrix(12,0,0,12,304.8,77.6)" />
<use xlink:href="#f0_4" transform="matrix(12,0,0,12,316.1,77.6)" />
<use xlink:href="#f0_c" transform="matrix(12,0,0,12,327.7,77.6)" />
<use xlink:href="#f0_g" transform="matrix(12,0,0,12,334.9,77.6)" />
<use xlink:href="#f0_n" transform="matrix(12,0,0,12,344.3,77.6)" />
<use xlink:href="#f0_2" transform="matrix(12,0,0,12,47.7,136.7)" />
<use xlink:href="#f0_o" transform="matrix(12,0,0,12,59.4,136.7)" />
<use xlink:href="#f0_1u" transform="matrix(12,0,0,12,87.1,136.7)" />
<use xlink:href="#f0_b" transform="matrix(12,0,0,12,99,136.7)" />
<use xlink:href="#f0_c" transform="matrix(12,0,0,12,110.3,136.7)" />
<use xlink:href="#f0_l" transform="matrix(12,0,0,12,117.5,136.7)" />
<use xlink:href="#f0_d" transform="matrix(12,0,0,12,125.1,136.7)" />
<use xlink:href="#f0_b" transform="matrix(12,0,0,12,130.3,136.7)" />
<use xlink:href="#f0_q" transform="matrix(12,0,0,12,141.6,136.7)" />
<use xlink:href="#f0_b" transform="matrix(12,0,0,12,152.4,136.7)" />
<use xlink:href="#f0_c" transform="matrix(12,0,0,12,169.7,136.7)" />
<use xlink:href="#f0_f" transform="matrix(12,0,0,12,176.8,136.7)" />
<use xlink:href="#f0_b" transform="matrix(12,0,0,12,188.3,136.7)" />
<use xlink:href="#f0_4" transform="matrix(12,0,0,12,205.6,136.7)" />
<use xlink:href="#f0_k" transform="matrix(12,0,0,12,217.2,136.7)" />
<use xlink:href="#f0_8" transform="matrix(12,0,0,12,228.5,136.7)" />
<use xlink:href="#f0_b" transform="matrix(12,0,0,12,246.3,136.7)" />
<use xlink:href="#f0_k" transform="matrix(12,0,0,12,263.4,136.7)" />
<use xlink:href="#f0_4" transform="matrix(12,0,0,12,274.9,136.7)" />
<use xlink:href="#f0_h" transform="matrix(12,0,0,12,286.3,136.7)" />
<use xlink:href="#f0_b" transform="matrix(12,0,0,12,303.9,136.7)" />
<use xlink:href="#f0_8" transform="matrix(12,0,0,12,315.3,136.7)" />
<use xlink:href="#f0_k" transform="matrix(12,0,0,12,333,136.7)" />
<use xlink:href="#f0_d" transform="matrix(12,0,0,12,344.5,136.7)" />
<use xlink:href="#f0_a" transform="matrix(12,0,0,12,349.5,136.7)" />
<use xlink:href="#f0_d" transform="matrix(12,0,0,12,360.5,136.7)" />
<use xlink:href="#f0_h" transform="matrix(12,0,0,12,365.7,136.7)" />
<use xlink:href="#f0_7" transform="matrix(12,0,0,12,383.2,136.7)" />
<use xlink:href="#f0_e" transform="matrix(12,0,0,12,394.4,136.7)" />
<use xlink:href="#f0_k" transform="matrix(12,0,0,12,406.7,136.7)" />
<use xlink:href="#f0_a" transform="matrix(12,0,0,12,418,136.7)" />
<use xlink:href="#f0_a" transform="matrix(12,0,0,12,423.2,136.7)" />
<use xlink:href="#f0_24" transform="matrix(12,0,0,12,434.2,136.7)" />
<use xlink:href="#f0_u" transform="matrix(12,0,0,12,439.2,136.7)" />
<use xlink:href="#f0_1g" transform="matrix(12,0,0,12,444.6,136.7)" />
<use xlink:href="#f0_24" transform="matrix(12,0,0,12,456,136.7)" />
<use xlink:href="#f0_6" transform="matrix(12,0,0,12,467,136.7)" />
<use xlink:href="#f0_7" transform="matrix(12,0,0,12,477.2,136.7)" />
<use xlink:href="#f0_8" transform="matrix(12,0,0,12,488.3,136.7)" />
<use xlink:href="#f0_9" transform="matrix(12,0,0,12,506.1,136.7)" />
<use xlink:href="#f0_k" transform="matrix(12,0,0,12,517.7,136.7)" />
<use xlink:href="#f0_4" transform="matrix(12,0,0,12,529,136.7)" />
<use xlink:href="#f0_d" transform="matrix(12,0,0,12,540.6,136.7)" />
<use xlink:href="#f0_b" transform="matrix(12,0,0,12,545.6,136.7)" />
<use xlink:href="#f0_g" transform="matrix(12,0,0,12,557,136.7)" />
<use xlink:href="#f0_d" transform="matrix(12,0,0,12,572.5,136.7)" />
<use xlink:href="#f0_4" transform="matrix(12,0,0,12,577.5,136.7)" />
<use xlink:href="#f0_24" transform="matrix(12,0,0,12,594.9,136.7)" />
<use xlink:href="#f0_27" transform="matrix(12,0,0,12,600.1,136.7)" />
<use xlink:href="#f0_k" transform="matrix(12,0,0,12,612.8,136.7)" />
<use xlink:href="#f0_4" transform="matrix(12,0,0,12,624,136.7)" />
<use xlink:href="#f0_x" transform="matrix(12,0,0,12,635.7,136.7)" />
<use xlink:href="#f0_k" transform="matrix(12,0,0,12,647.4,136.7)" />
<use xlink:href="#f0_a" transform="matrix(12,0,0,12,658.7,136.7)" />
<use xlink:href="#f0_7" transform="matrix(12,0,0,12,663.9,136.7)" />
<use xlink:href="#f0_l" transform="matrix(12,0,0,12,675,136.7)" />
<use xlink:href="#f0_b" transform="matrix(12,0,0,12,682.2,136.7)" />
<use xlink:href="#f0_24" transform="matrix(12,0,0,12,693.5,136.7)" />
<use xlink:href="#f0_1c" transform="matrix(12,0,0,12,698.7,136.7)" />
<use xlink:href="#f0_t" transform="matrix(12,0,0,12,47.7,195.7)" />
<use xlink:href="#f0_o" transform="matrix(12,0,0,12,59.4,195.7)" />
<use xlink:href="#f0_1u" transform="matrix(12,0,0,12,87.1,195.7)" />
<use xlink:href="#f0_b" transform="matrix(12,0,0,12,99,195.7)" />
<use xlink:href="#f0_c" transform="matrix(12,0,0,12,110.3,195.7)" />
<use xlink:href="#f0_l" transform="matrix(12,0,0,12,117.5,195.7)" />
<use xlink:href="#f0_d" transform="matrix(12,0,0,12,125.1,195.7)" />
<use xlink:href="#f0_b" transform="matrix(12,0,0,12,130.3,195.7)" />
<use xlink:href="#f0_q" transform="matrix(12,0,0,12,141.6,195.7)" />
<use xlink:href="#f0_b" transform="matrix(12,0,0,12,152.4,195.7)" />
<use xlink:href="#f0_c" transform="matrix(12,0,0,12,176.3,195.7)" />
<use xlink:href="#f0_f" transform="matrix(12,0,0,12,183.4,195.7)" />
<use xlink:href="#f0_b" transform="matrix(12,0,0,12,195,195.7)" />
<use xlink:href="#f0_4" transform="matrix(12,0,0,12,212.5,195.7)" />
<use xlink:href="#f0_k" transform="matrix(12,0,0,12,224.1,195.7)" />
<use xlink:href="#f0_8" transform="matrix(12,0,0,12,235.4,195.7)" />
<use xlink:href="#f0_b" transform="matrix(12,0,0,12,253.3,195.7)" />
<use xlink:href="#f0_j" transform="matrix(12,0,0,12,264.6,195.7)" />
<use xlink:href="#f0_8" transform="matrix(12,0,0,12,276.6,195.7)" />
<use xlink:href="#f0_7" transform="matrix(12,0,0,12,294.5,195.7)" />
<use xlink:href="#f0_m" transform="matrix(12,0,0,12,305.6,195.7)" />
<use xlink:href="#f0_d" transform="matrix(12,0,0,12,317.2,195.7)" />
<use xlink:href="#f0_a" transform="matrix(12,0,0,12,322.3,195.7)" />
<use xlink:href="#f0_b" transform="matrix(12,0,0,12,327.4,195.7)" />
<use xlink:href="#f0_4" transform="matrix(12,0,0,12,345,195.7)" />
<use xlink:href="#f0_i" transform="matrix(12,0,0,12,356.6,195.7)" />
<use xlink:href="#f0_8" transform="matrix(12,0,0,12,368,195.7)" />
<use xlink:href="#f0_m" transform="matrix(12,0,0,12,385.9,195.7)" />
<use xlink:href="#f0_b" transform="matrix(12,0,0,12,397.4,195.7)" />
<use xlink:href="#f0_l" transform="matrix(12,0,0,12,408.8,195.7)" />
<use xlink:href="#f0_k" transform="matrix(12,0,0,12,422.7,195.7)" />
<use xlink:href="#f0_4" transform="matrix(12,0,0,12,434,195.7)" />
<use xlink:href="#f0_h" transform="matrix(12,0,0,12,445.6,195.7)" />
<use xlink:href="#f0_b" transform="matrix(12,0,0,12,463.6,195.7)" />
<use xlink:href="#f0_8" transform="matrix(12,0,0,12,474.9,195.7)" />
<use xlink:href="#f0_k" transform="matrix(12,0,0,12,492.7,195.7)" />
<use xlink:href="#f0_d" transform="matrix(12,0,0,12,504,195.7)" />
<use xlink:href="#f0_a" transform="matrix(12,0,0,12,509.2,195.7)" />
<use xlink:href="#f0_d" transform="matrix(12,0,0,12,520.5,195.7)" />
<use xlink:href="#f0_h" transform="matrix(12,0,0,12,525.7,195.7)" />
<use xlink:href="#f0_7" transform="matrix(12,0,0,12,543.5,195.7)" />
<use xlink:href="#f0_e" transform="matrix(12,0,0,12,554.8,195.7)" />
<use xlink:href="#f0_k" transform="matrix(12,0,0,12,567.5,195.7)" />
<use xlink:href="#f0_a" transform="matrix(12,0,0,12,578.7,195.7)" />
<use xlink:href="#f0_a" transform="matrix(12,0,0,12,583.9,195.7)" />
<use xlink:href="#f0_6" transform="matrix(12,0,0,12,595.2,195.7)" />
<use xlink:href="#f0_7" transform="matrix(12,0,0,12,605.4,195.7)" />
<use xlink:href="#f0_8" transform="matrix(12,0,0,12,616.7,195.7)" />
<use xlink:href="#f0_9" transform="matrix(12,0,0,12,634.4,195.7)" />
<use xlink:href="#f0_k" transform="matrix(12,0,0,12,646,195.7)" />
<use xlink:href="#f0_4" transform="matrix(12,0,0,12,657.3,195.7)" />
<use xlink:href="#f0_d" transform="matrix(12,0,0,12,668.9,195.7)" />
<use xlink:href="#f0_b" transform="matrix(12,0,0,12,674,195.7)" />
<use xlink:href="#f0_g" transform="matrix(12,0,0,12,685.4,195.7)" />
<use xlink:href="#f0_d" transform="matrix(12,0,0,12,701.2,195.7)" />
<use xlink:href="#f0_4" transform="matrix(12,0,0,12,706.3,195.7)" />
<use xlink:href="#f0_k" transform="matrix(12,0,0,12,724,195.7)" />
<use xlink:href="#f0_x" transform="matrix(12,0,0,12,741.6,195.7)" />
<use xlink:href="#f0_d" transform="matrix(12,0,0,12,753.3,195.7)" />
<use xlink:href="#f0_q" transform="matrix(12,0,0,12,758.4,195.7)" />
<use xlink:href="#f0_b" transform="matrix(12,0,0,12,769.2,195.7)" />
<use xlink:href="#f0_4" transform="matrix(12,0,0,12,780.7,195.7)" />
<use xlink:href="#f0_6" transform="matrix(12,0,0,12,798.4,195.7)" />
<use xlink:href="#f0_d" transform="matrix(12,0,0,12,808.6,195.7)" />
<use xlink:href="#f0_c" transform="matrix(12,0,0,12,813.7,195.7)" />
<use xlink:href="#f0_r" transform="matrix(12,0,0,12,820.8,195.7)" />
<use xlink:href="#f0_12" transform="matrix(12,0,0,12,837.9,195.7)" />
<use xlink:href="#f0_f" transform="matrix(12,0,0,12,852.8,195.7)" />
<use xlink:href="#f0_7" transform="matrix(12,0,0,12,864.4,195.7)" />
<use xlink:href="#f0_g" transform="matrix(12,0,0,12,875.6,195.7)" />
<use xlink:href="#f0_b" transform="matrix(12,0,0,12,885.1,195.7)" />
<use xlink:href="#f0_1u" transform="matrix(12,0,0,12,902.6,195.7)" />
<use xlink:href="#f0_b" transform="matrix(12,0,0,12,914.5,195.7)" />
<use xlink:href="#f0_4" transform="matrix(12,0,0,12,925.9,195.7)" />
<use xlink:href="#f0_b" transform="matrix(12,0,0,12,937.4,195.7)" />
<use xlink:href="#f0_12" transform="matrix(12,0,0,12,948.8,195.7)" />
<use xlink:href="#f0_k" transform="matrix(12,0,0,12,963.8,195.7)" />
<use xlink:href="#f0_a" transform="matrix(12,0,0,12,975.3,195.7)" />
<use xlink:href="#f0_z" transform="matrix(12,0,0,12,986.6,195.7)" />
<use xlink:href="#f0_c" transform="matrix(12,0,0,12,998.3,195.7)" />
<use xlink:href="#f0_k" transform="matrix(12,0,0,12,1005.5,195.7)" />
<use xlink:href="#f0_c" transform="matrix(12,0,0,12,1016.8,195.7)" />
<use xlink:href="#f0_i" transform="matrix(12,0,0,12,1024,195.7)" />
<use xlink:href="#f0_g" transform="matrix(12,0,0,12,1035.4,195.7)" />
<use xlink:href="#f0_d" transform="matrix(12,0,0,12,1051.1,195.7)" />
<use xlink:href="#f0_g" transform="matrix(12,0,0,12,1056.3,195.7)" />
<use xlink:href="#f0_24" transform="matrix(12,0,0,12,87.1,240.2)" />
<use xlink:href="#f0_1h" transform="matrix(12,0,0,12,92.1,240.2)" />
<use xlink:href="#f0_6" transform="matrix(12,0,0,12,104.3,240.2)" />
<use xlink:href="#f0_c" transform="matrix(12,0,0,12,114.5,240.2)" />
<use xlink:href="#f0_d" transform="matrix(12,0,0,12,121.7,240.2)" />
<use xlink:href="#f0_q" transform="matrix(12,0,0,12,126.8,240.2)" />
<use xlink:href="#f0_b" transform="matrix(12,0,0,12,137.6,240.2)" />
<use xlink:href="#f0_24" transform="matrix(12,0,0,12,148.9,240.2)" />
<use xlink:href="#f0_1c" transform="matrix(12,0,0,12,154.1,240.2)" />
<use xlink:href="#f0_p" transform="matrix(12,0,0,12,165.8,240.2)" />
<use xlink:href="#f0_g" transform="matrix(12,0,0,12,179.1,240.2)" />
<use xlink:href="#f0_b" transform="matrix(12,0,0,12,188.7,240.2)" />
<use xlink:href="#f0_9" transform="matrix(12,0,0,12,205.8,240.2)" />
<use xlink:href="#f0_7" transform="matrix(12,0,0,12,217.4,240.2)" />
<use xlink:href="#f0_g" transform="matrix(12,0,0,12,228.6,240.2)" />
<use xlink:href="#f0_d" transform="matrix(12,0,0,12,238.2,240.2)" />
<use xlink:href="#f0_c" transform="matrix(12,0,0,12,243.2,240.2)" />
<use xlink:href="#f0_d" transform="matrix(12,0,0,12,250.4,240.2)" />
<use xlink:href="#f0_7" transform="matrix(12,0,0,12,255.6,240.2)" />
<use xlink:href="#f0_4" transform="matrix(12,0,0,12,266.7,240.2)" />
<use xlink:href="#f0_k" transform="matrix(12,0,0,12,278.3,240.2)" />
<use xlink:href="#f0_a" transform="matrix(12,0,0,12,289.6,240.2)" />
<use xlink:href="#f0_m" transform="matrix(12,0,0,12,300.6,240.2)" />
<use xlink:href="#f0_d" transform="matrix(12,0,0,12,312.2,240.2)" />
<use xlink:href="#f0_4" transform="matrix(12,0,0,12,317.3,240.2)" />
<use xlink:href="#f0_h" transform="matrix(12,0,0,12,328.9,240.2)" />
<use xlink:href="#f0_q" transform="matrix(12,0,0,12,346.4,240.2)" />
<use xlink:href="#f0_k" transform="matrix(12,0,0,12,357.3,240.2)" />
<use xlink:href="#f0_l" transform="matrix(12,0,0,12,368.6,240.2)" />
<use xlink:href="#f0_d" transform="matrix(12,0,0,12,376.2,240.2)" />
<use xlink:href="#f0_k" transform="matrix(12,0,0,12,381.4,240.2)" />
<use xlink:href="#f0_m" transform="matrix(12,0,0,12,392.6,240.2)" />
<use xlink:href="#f0_a" transform="matrix(12,0,0,12,404.3,240.2)" />
<use xlink:href="#f0_b" transform="matrix(12,0,0,12,409.4,240.2)" />
<use xlink:href="#f0_g" transform="matrix(12,0,0,12,420.7,240.2)" />
<use xlink:href="#f0_1c" transform="matrix(12,0,0,12,430.2,240.2)" />
<use xlink:href="#f0_1h" transform="matrix(12,0,0,12,441.9,240.2)" />
<use xlink:href="#f0_6" transform="matrix(12,0,0,12,454.2,240.2)" />
<use xlink:href="#f0_6" transform="matrix(12,0,0,12,464.4,240.2)" />
<use xlink:href="#f0_b" transform="matrix(12,0,0,12,474.6,240.2)" />
<use xlink:href="#f0_9" transform="matrix(12,0,0,12,485.9,240.2)" />
<use xlink:href="#f0_c" transform="matrix(12,0,0,12,497.5,240.2)" />
<use xlink:href="#f0_24" transform="matrix(12,0,0,12,510.5,240.2)" />
<use xlink:href="#f0_6" transform="matrix(12,0,0,12,515.7,240.2)" />
<use xlink:href="#f0_d" transform="matrix(12,0,0,12,525.9,240.2)" />
<use xlink:href="#f0_c" transform="matrix(12,0,0,12,531,240.2)" />
<use xlink:href="#f0_r" transform="matrix(12,0,0,12,538.1,240.2)" />
<use xlink:href="#f0_24" transform="matrix(12,0,0,12,548.9,240.2)" />
<use xlink:href="#f0_k" transform="matrix(12,0,0,12,559.9,240.2)" />
<use xlink:href="#f0_g" transform="matrix(12,0,0,12,571.3,240.2)" />
<use xlink:href="#f0_k" transform="matrix(12,0,0,12,586.6,240.2)" />
<use xlink:href="#f0_4" transform="matrix(12,0,0,12,598.1,240.2)" />
<use xlink:href="#f0_d" transform="matrix(12,0,0,12,615.5,240.2)" />
<use xlink:href="#f0_4" transform="matrix(12,0,0,12,620.5,240.2)" />
<use xlink:href="#f0_9" transform="matrix(12,0,0,12,632.1,240.2)" />
<use xlink:href="#f0_i" transform="matrix(12,0,0,12,643.7,240.2)" />
<use xlink:href="#f0_c" transform="matrix(12,0,0,12,655.2,240.2)" />
<use xlink:href="#f0_e" transform="matrix(12,0,0,12,668.2,240.2)" />
<use xlink:href="#f0_l" transform="matrix(12,0,0,12,674.6,240.2)" />
<use xlink:href="#f0_7" transform="matrix(12,0,0,12,681.8,240.2)" />
<use xlink:href="#f0_8" transform="matrix(12,0,0,12,692.9,240.2)" />
<use xlink:href="#f0_i" transform="matrix(12,0,0,12,716.6,240.2)" />
<use xlink:href="#f0_g" transform="matrix(12,0,0,12,728.2,240.2)" />
<use xlink:href="#f0_b" transform="matrix(12,0,0,12,737.7,240.2)" />
<use xlink:href="#f0_l" transform="matrix(12,0,0,12,749,240.2)" />
<use xlink:href="#f0_1c" transform="matrix(12,0,0,12,754.9,240.2)" />
<use xlink:href="#f0_y" transform="matrix(12,0,0,12,47.7,299.1)" />
<use xlink:href="#f0_o" transform="matrix(12,0,0,12,59.4,299.1)" />
<use xlink:href="#f0_1u" transform="matrix(12,0,0,12,87.1,299.1)" />
<use xlink:href="#f0_b" transform="matrix(12,0,0,12,99,299.1)" />
<use xlink:href="#f0_q" transform="matrix(12,0,0,12,110.3,299.1)" />
<use xlink:href="#f0_b" transform="matrix(12,0,0,12,121.1,299.1)" />
<use xlink:href="#f0_l" transform="matrix(12,0,0,12,132.4,299.1)" />
<use xlink:href="#f0_g" transform="matrix(12,0,0,12,140.2,299.1)" />
<use xlink:href="#f0_b" transform="matrix(12,0,0,12,149.7,299.1)" />
<use xlink:href="#f0_c" transform="matrix(12,0,0,12,166.9,299.1)" />
<use xlink:href="#f0_f" transform="matrix(12,0,0,12,174.1,299.1)" />
<use xlink:href="#f0_b" transform="matrix(12,0,0,12,185.6,299.1)" />
<use xlink:href="#f0_7" transform="matrix(12,0,0,12,202.8,299.1)" />
<use xlink:href="#f0_l" transform="matrix(12,0,0,12,214,299.1)" />
<use xlink:href="#f0_h" transform="matrix(12,0,0,12,221.3,299.1)" />
<use xlink:href="#f0_b" transform="matrix(12,0,0,12,233,299.1)" />
<use xlink:href="#f0_l" transform="matrix(12,0,0,12,244.3,299.1)" />
<use xlink:href="#f0_7" transform="matrix(12,0,0,12,257.9,299.1)" />
<use xlink:href="#f0_e" transform="matrix(12,0,0,12,269.2,299.1)" />
<use xlink:href="#f0_9" transform="matrix(12,0,0,12,281.4,299.1)" />
<use xlink:href="#f0_k" transform="matrix(12,0,0,12,292.9,299.1)" />
<use xlink:href="#f0_g" transform="matrix(12,0,0,12,304.3,299.1)" />
<use xlink:href="#f0_g" transform="matrix(12,0,0,12,313.8,299.1)" />
<use xlink:href="#f0_d" transform="matrix(12,0,0,12,323.4,299.1)" />
<use xlink:href="#f0_4" transform="matrix(12,0,0,12,328.5,299.1)" />
<use xlink:href="#f0_x" transform="matrix(12,0,0,12,340.1,299.1)" />
<use xlink:href="#f0_c" transform="matrix(12,0,0,12,357.6,299.1)" />
<use xlink:href="#f0_f" transform="matrix(12,0,0,12,364.8,299.1)" />
<use xlink:href="#f0_b" transform="matrix(12,0,0,12,376.3,299.1)" />
<use xlink:href="#f0_9" transform="matrix(12,0,0,12,393.5,299.1)" />
<use xlink:href="#f0_k" transform="matrix(12,0,0,12,405.1,299.1)" />
<use xlink:href="#f0_l" transform="matrix(12,0,0,12,416.4,299.1)" />
<use xlink:href="#f0_k" transform="matrix(12,0,0,12,424.2,299.1)" />
<use xlink:href="#f0_8" transform="matrix(12,0,0,12,435.5,299.1)" />
<use xlink:href="#f0_b" transform="matrix(12,0,0,12,453.2,299.1)" />
<use xlink:href="#f0_c" transform="matrix(12,0,0,12,464.7,299.1)" />
<use xlink:href="#f0_b" transform="matrix(12,0,0,12,471.8,299.1)" />
<use xlink:href="#f0_l" transform="matrix(12,0,0,12,483.1,299.1)" />
<use xlink:href="#f0_q" transform="matrix(12,0,0,12,496.7,299.1)" />
<use xlink:href="#f0_k" transform="matrix(12,0,0,12,507.5,299.1)" />
<use xlink:href="#f0_a" transform="matrix(12,0,0,12,518.8,299.1)" />
<use xlink:href="#f0_i" transform="matrix(12,0,0,12,524,299.1)" />
<use xlink:href="#f0_b" transform="matrix(12,0,0,12,535.5,299.1)" />
<use xlink:href="#f0_g" transform="matrix(12,0,0,12,546.9,299.1)" />
<use xlink:href="#f0_d" transform="matrix(12,0,0,12,562.2,299.1)" />
<use xlink:href="#f0_4" transform="matrix(12,0,0,12,567.4,299.1)" />
<use xlink:href="#f0_c" transform="matrix(12,0,0,12,584.8,299.1)" />
<use xlink:href="#f0_f" transform="matrix(12,0,0,12,592,299.1)" />
<use xlink:href="#f0_b" transform="matrix(12,0,0,12,603.6,299.1)" />
<use xlink:href="#f0_k" transform="matrix(12,0,0,12,620.7,299.1)" />
<use xlink:href="#f0_m" transform="matrix(12,0,0,12,632.1,299.1)" />
<use xlink:href="#f0_7" transform="matrix(12,0,0,12,643.6,299.1)" />
<use xlink:href="#f0_q" transform="matrix(12,0,0,12,654.9,299.1)" />
<use xlink:href="#f0_b" transform="matrix(12,0,0,12,665.6,299.1)" />
<use xlink:href="#f0_9" transform="matrix(12,0,0,12,682.8,299.1)" />
<use xlink:href="#f0_l" transform="matrix(12,0,0,12,694.4,299.1)" />
<use xlink:href="#f0_7" transform="matrix(12,0,0,12,701.6,299.1)" />
<use xlink:href="#f0_x" transform="matrix(12,0,0,12,712.7,299.1)" />
<use xlink:href="#f0_l" transform="matrix(12,0,0,12,724.5,299.1)" />
<use xlink:href="#f0_k" transform="matrix(12,0,0,12,732.1,299.1)" />
<use xlink:href="#f0_8" transform="matrix(12,0,0,12,743.4,299.1)" />
<use xlink:href="#f0_k" transform="matrix(12,0,0,12,767.1,299.1)" />
<use xlink:href="#f0_4" transform="matrix(12,0,0,12,778.5,299.1)" />
<use xlink:href="#f0_h" transform="matrix(12,0,0,12,790,299.1)" />
<use xlink:href="#f0_7" transform="matrix(12,0,0,12,807.5,299.1)" />
<use xlink:href="#f0_m" transform="matrix(12,0,0,12,818.8,299.1)" />
<use xlink:href="#f0_g" transform="matrix(12,0,0,12,830.3,299.1)" />
<use xlink:href="#f0_b" transform="matrix(12,0,0,12,839.9,299.1)" />
<use xlink:href="#f0_l" transform="matrix(12,0,0,12,851.2,299.1)" />
<use xlink:href="#f0_q" transform="matrix(12,0,0,12,858.8,299.1)" />
<use xlink:href="#f0_b" transform="matrix(12,0,0,12,869.7,299.1)" />
<use xlink:href="#f0_c" transform="matrix(12,0,0,12,886.9,299.1)" />
<use xlink:href="#f0_f" transform="matrix(12,0,0,12,894.1,299.1)" />
<use xlink:href="#f0_b" transform="matrix(12,0,0,12,905.5,299.1)" />
<use xlink:href="#f0_7" transform="matrix(12,0,0,12,922.8,299.1)" />
<use xlink:href="#f0_i" transform="matrix(12,0,0,12,933.9,299.1)" />
<use xlink:href="#f0_c" transform="matrix(12,0,0,12,945.5,299.1)" />
<use xlink:href="#f0_9" transform="matrix(12,0,0,12,952.7,299.1)" />
<use xlink:href="#f0_i" transform="matrix(12,0,0,12,964.2,299.1)" />
<use xlink:href="#f0_c" transform="matrix(12,0,0,12,975.8,299.1)" />
<use xlink:href="#f0_1c" transform="matrix(12,0,0,12,983,299.1)" />
<use xlink:href="#f0_10" transform="matrix(12,0,0,12,47.7,358.3)" />
<use xlink:href="#f0_o" transform="matrix(12,0,0,12,59.4,358.3)" />
<use xlink:href="#f0_u" transform="matrix(12,0,0,12,87.1,358.3)" />
<use xlink:href="#f0_8" transform="matrix(12,0,0,12,92.4,358.3)" />
<use xlink:href="#f0_9" transform="matrix(12,0,0,12,110.2,358.3)" />
<use xlink:href="#f0_a" transform="matrix(12,0,0,12,121.8,358.3)" />
<use xlink:href="#f0_b" transform="matrix(12,0,0,12,126.8,358.3)" />
<use xlink:href="#f0_8" transform="matrix(12,0,0,12,138.3,358.3)" />
<use xlink:href="#f0_b" transform="matrix(12,0,0,12,156,358.3)" />
<use xlink:href="#f0_4" transform="matrix(12,0,0,12,167.3,358.3)" />
<use xlink:href="#f0_c" transform="matrix(12,0,0,12,178.9,358.3)" />
<use xlink:href="#f0_c" transform="matrix(12,0,0,12,191.9,358.3)" />
<use xlink:href="#f0_f" transform="matrix(12,0,0,12,199.1,358.3)" />
<use xlink:href="#f0_b" transform="matrix(12,0,0,12,210.5,358.3)" />
<use xlink:href="#f0_g" transform="matrix(12,0,0,12,227.8,358.3)" />
<use xlink:href="#f0_6" transform="matrix(12,0,0,12,237.4,358.3)" />
<use xlink:href="#f0_b" transform="matrix(12,0,0,12,247.6,358.3)" />
<use xlink:href="#f0_4" transform="matrix(12,0,0,12,258.9,358.3)" />
<use xlink:href="#f0_k" transform="matrix(12,0,0,12,270.5,358.3)" />
<use xlink:href="#f0_l" transform="matrix(12,0,0,12,281.8,358.3)" />
<use xlink:href="#f0_d" transform="matrix(12,0,0,12,289.6,358.3)" />
<use xlink:href="#f0_7" transform="matrix(12,0,0,12,294.6,358.3)" />
<use xlink:href="#f0_d" transform="matrix(12,0,0,12,311.7,358.3)" />
<use xlink:href="#f0_4" transform="matrix(12,0,0,12,316.9,358.3)" />
<use xlink:href="#f0_13" transform="matrix(12,0,0,12,334.3,358.3)" />
<use xlink:href="#f0_i" transform="matrix(12,0,0,12,345.9,358.3)" />
<use xlink:href="#f0_b" transform="matrix(12,0,0,12,357.5,358.3)" />
<use xlink:href="#f0_g" transform="matrix(12,0,0,12,368.8,358.3)" />
<use xlink:href="#f0_c" transform="matrix(12,0,0,12,378.4,358.3)" />
<use xlink:href="#f0_d" transform="matrix(12,0,0,12,385.6,358.3)" />
<use xlink:href="#f0_7" transform="matrix(12,0,0,12,390.6,358.3)" />
<use xlink:href="#f0_4" transform="matrix(12,0,0,12,401.8,358.3)" />
<use xlink:href="#f0_28" transform="matrix(12,0,0,12,413.4,358.3)" />
<use xlink:href="#f0_t" transform="matrix(12,0,0,12,434.6,358.3)" />
<use xlink:href="#f0_i" transform="matrix(12,0,0,12,452,358.3)" />
<use xlink:href="#f0_g" transform="matrix(12,0,0,12,463.6,358.3)" />
<use xlink:href="#f0_d" transform="matrix(12,0,0,12,473.1,358.3)" />
<use xlink:href="#f0_4" transform="matrix(12,0,0,12,478.3,358.3)" />
<use xlink:href="#f0_x" transform="matrix(12,0,0,12,489.7,358.3)" />
<use xlink:href="#f0_4" transform="matrix(12,0,0,12,507.3,358.3)" />
<use xlink:href="#f0_k" transform="matrix(12,0,0,12,518.9,358.3)" />
<use xlink:href="#f0_8" transform="matrix(12,0,0,12,530.2,358.3)" />
<use xlink:href="#f0_b" transform="matrix(12,0,0,12,548,358.3)" />
<use xlink:href="#f0_h" transform="matrix(12,0,0,12,559.3,358.3)" />
<use xlink:href="#f0_m" transform="matrix(12,0,0,12,577,358.3)" />
<use xlink:href="#f0_d" transform="matrix(12,0,0,12,588.5,358.3)" />
<use xlink:href="#f0_4" transform="matrix(12,0,0,12,593.7,358.3)" />
<use xlink:href="#f0_h" transform="matrix(12,0,0,12,605.1,358.3)" />
<use xlink:href="#f0_q" transform="matrix(12,0,0,12,622.7,358.3)" />
<use xlink:href="#f0_k" transform="matrix(12,0,0,12,633.5,358.3)" />
<use xlink:href="#f0_l" transform="matrix(12,0,0,12,644.9,358.3)" />
<use xlink:href="#f0_d" transform="matrix(12,0,0,12,652.6,358.3)" />
<use xlink:href="#f0_k" transform="matrix(12,0,0,12,657.7,358.3)" />
<use xlink:href="#f0_m" transform="matrix(12,0,0,12,669,358.3)" />
<use xlink:href="#f0_a" transform="matrix(12,0,0,12,680.6,358.3)" />
<use xlink:href="#f0_b" transform="matrix(12,0,0,12,685.7,358.3)" />
<use xlink:href="#f0_g" transform="matrix(12,0,0,12,697.1,358.3)" />
<use xlink:href="#f0_1c" transform="matrix(12,0,0,12,706.6,358.3)" />
<use xlink:href="#f0_14" transform="matrix(12,0,0,12,47.7,417.2)" />
<use xlink:href="#f0_o" transform="matrix(12,0,0,12,59.4,417.2)" />
<use xlink:href="#f0_1u" transform="matrix(12,0,0,12,87.1,417.2)" />
<use xlink:href="#f0_b" transform="matrix(12,0,0,12,99,417.2)" />
<use xlink:href="#f0_q" transform="matrix(12,0,0,12,110.3,417.2)" />
<use xlink:href="#f0_b" transform="matrix(12,0,0,12,121.1,417.2)" />
<use xlink:href="#f0_l" transform="matrix(12,0,0,12,132.4,417.2)" />
<use xlink:href="#f0_g" transform="matrix(12,0,0,12,140.2,417.2)" />
<use xlink:href="#f0_b" transform="matrix(12,0,0,12,149.7,417.2)" />
<use xlink:href="#f0_c" transform="matrix(12,0,0,12,167.5,417.2)" />
<use xlink:href="#f0_f" transform="matrix(12,0,0,12,174.7,417.2)" />
<use xlink:href="#f0_b" transform="matrix(12,0,0,12,186.3,417.2)" />
<use xlink:href="#f0_7" transform="matrix(12,0,0,12,204,417.2)" />
<use xlink:href="#f0_l" transform="matrix(12,0,0,12,215.3,417.2)" />
<use xlink:href="#f0_h" transform="matrix(12,0,0,12,222.6,417.2)" />
<use xlink:href="#f0_b" transform="matrix(12,0,0,12,234.2,417.2)" />
<use xlink:href="#f0_l" transform="matrix(12,0,0,12,245.7,417.2)" />
<use xlink:href="#f0_7" transform="matrix(12,0,0,12,259.8,417.2)" />
<use xlink:href="#f0_e" transform="matrix(12,0,0,12,271,417.2)" />
<use xlink:href="#f0_9" transform="matrix(12,0,0,12,283.8,417.2)" />
<use xlink:href="#f0_k" transform="matrix(12,0,0,12,295.4,417.2)" />
<use xlink:href="#f0_g" transform="matrix(12,0,0,12,306.7,417.2)" />
<use xlink:href="#f0_g" transform="matrix(12,0,0,12,316.3,417.2)" />
<use xlink:href="#f0_d" transform="matrix(12,0,0,12,325.8,417.2)" />
<use xlink:href="#f0_4" transform="matrix(12,0,0,12,331,417.2)" />
<use xlink:href="#f0_x" transform="matrix(12,0,0,12,342.4,417.2)" />
<use xlink:href="#f0_7" transform="matrix(12,0,0,12,360.6,417.2)" />
<use xlink:href="#f0_e" transform="matrix(12,0,0,12,371.9,417.2)" />
<use xlink:href="#f0_c" transform="matrix(12,0,0,12,384.7,417.2)" />
<use xlink:href="#f0_f" transform="matrix(12,0,0,12,391.9,417.2)" />
<use xlink:href="#f0_b" transform="matrix(12,0,0,12,403.3,417.2)" />
<use xlink:href="#f0_m" transform="matrix(12,0,0,12,421.2,417.2)" />
<use xlink:href="#f0_d" transform="matrix(12,0,0,12,432.8,417.2)" />
<use xlink:href="#f0_4" transform="matrix(12,0,0,12,437.8,417.2)" />
<use xlink:href="#f0_h" transform="matrix(12,0,0,12,449.4,417.2)" />
<use xlink:href="#f0_q" transform="matrix(12,0,0,12,467.6,417.2)" />
<use xlink:href="#f0_k" transform="matrix(12,0,0,12,478.4,417.2)" />
<use xlink:href="#f0_l" transform="matrix(12,0,0,12,489.7,417.2)" />
<use xlink:href="#f0_d" transform="matrix(12,0,0,12,497.5,417.2)" />
<use xlink:href="#f0_k" transform="matrix(12,0,0,12,502.5,417.2)" />
<use xlink:href="#f0_m" transform="matrix(12,0,0,12,513.9,417.2)" />
<use xlink:href="#f0_a" transform="matrix(12,0,0,12,525.4,417.2)" />
<use xlink:href="#f0_b" transform="matrix(12,0,0,12,530.6,417.2)" />
<use xlink:href="#f0_g" transform="matrix(12,0,0,12,541.9,417.2)" />
<use xlink:href="#f0_d" transform="matrix(12,0,0,12,557.9,417.2)" />
<use xlink:href="#f0_4" transform="matrix(12,0,0,12,562.9,417.2)" />
<use xlink:href="#f0_c" transform="matrix(12,0,0,12,581.1,417.2)" />
<use xlink:href="#f0_f" transform="matrix(12,0,0,12,588.1,417.2)" />
<use xlink:href="#f0_b" transform="matrix(12,0,0,12,599.7,417.2)" />
<use xlink:href="#f0_k" transform="matrix(12,0,0,12,617.5,417.2)" />
<use xlink:href="#f0_m" transform="matrix(12,0,0,12,628.8,417.2)" />
<use xlink:href="#f0_7" transform="matrix(12,0,0,12,640.4,417.2)" />
<use xlink:href="#f0_q" transform="matrix(12,0,0,12,651.6,417.2)" />
<use xlink:href="#f0_b" transform="matrix(12,0,0,12,662.4,417.2)" />
<use xlink:href="#f0_9" transform="matrix(12,0,0,12,680.1,417.2)" />
<use xlink:href="#f0_l" transform="matrix(12,0,0,12,691.7,417.2)" />
<use xlink:href="#f0_7" transform="matrix(12,0,0,12,698.9,417.2)" />
<use xlink:href="#f0_x" transform="matrix(12,0,0,12,710.1,417.2)" />
<use xlink:href="#f0_l" transform="matrix(12,0,0,12,721.8,417.2)" />
<use xlink:href="#f0_k" transform="matrix(12,0,0,12,729.4,417.2)" />
<use xlink:href="#f0_8" transform="matrix(12,0,0,12,740.9,417.2)" />
<use xlink:href="#f0_k" transform="matrix(12,0,0,12,765.1,417.2)" />
<use xlink:href="#f0_4" transform="matrix(12,0,0,12,776.4,417.2)" />
<use xlink:href="#f0_h" transform="matrix(12,0,0,12,787.9,417.2)" />
<use xlink:href="#f0_7" transform="matrix(12,0,0,12,806.2,417.2)" />
<use xlink:href="#f0_m" transform="matrix(12,0,0,12,817.3,417.2)" />
<use xlink:href="#f0_g" transform="matrix(12,0,0,12,828.8,417.2)" />
<use xlink:href="#f0_b" transform="matrix(12,0,0,12,838.4,417.2)" />
<use xlink:href="#f0_l" transform="matrix(12,0,0,12,849.7,417.2)" />
<use xlink:href="#f0_q" transform="matrix(12,0,0,12,857.5,417.2)" />
<use xlink:href="#f0_b" transform="matrix(12,0,0,12,868.2,417.2)" />
<use xlink:href="#f0_c" transform="matrix(12,0,0,12,886,417.2)" />
<use xlink:href="#f0_f" transform="matrix(12,0,0,12,893.2,417.2)" />
<use xlink:href="#f0_b" transform="matrix(12,0,0,12,904.8,417.2)" />
<use xlink:href="#f0_7" transform="matrix(12,0,0,12,922.5,417.2)" />
<use xlink:href="#f0_i" transform="matrix(12,0,0,12,933.6,417.2)" />
<use xlink:href="#f0_c" transform="matrix(12,0,0,12,945.2,417.2)" />
<use xlink:href="#f0_9" transform="matrix(12,0,0,12,952.4,417.2)" />
<use xlink:href="#f0_i" transform="matrix(12,0,0,12,964,417.2)" />
<use xlink:href="#f0_c" transform="matrix(12,0,0,12,975.5,417.2)" />
<use xlink:href="#f0_1c" transform="matrix(12,0,0,12,982.7,417.2)" />
<use xlink:href="#f0_1h" transform="matrix(12,0,0,12,995,417.2)" />
<use xlink:href="#f0_l" transform="matrix(12,0,0,12,1007.4,417.2)" />
<use xlink:href="#f0_b" transform="matrix(12,0,0,12,1014.6,417.2)" />
<use xlink:href="#f0_r" transform="matrix(12,0,0,12,1032.4,417.2)" />
<use xlink:href="#f0_7" transform="matrix(12,0,0,12,1043.3,417.2)" />
<use xlink:href="#f0_i" transform="matrix(12,0,0,12,1054.4,417.2)" />
<use xlink:href="#f0_g" transform="matrix(12,0,0,12,87.1,461.7)" />
<use xlink:href="#f0_c" transform="matrix(12,0,0,12,96.6,461.7)" />
<use xlink:href="#f0_d" transform="matrix(12,0,0,12,103.7,461.7)" />
<use xlink:href="#f0_a" transform="matrix(12,0,0,12,108.9,461.7)" />
<use xlink:href="#f0_a" transform="matrix(12,0,0,12,114,461.7)" />
<use xlink:href="#f0_x" transform="matrix(12,0,0,12,124.9,461.7)" />
<use xlink:href="#f0_b" transform="matrix(12,0,0,12,136.7,461.7)" />
<use xlink:href="#f0_c" transform="matrix(12,0,0,12,148,461.7)" />
<use xlink:href="#f0_c" transform="matrix(12,0,0,12,155.2,461.7)" />
<use xlink:href="#f0_d" transform="matrix(12,0,0,12,162.4,461.7)" />
<use xlink:href="#f0_4" transform="matrix(12,0,0,12,167.4,461.7)" />
<use xlink:href="#f0_x" transform="matrix(12,0,0,12,179,461.7)" />
<use xlink:href="#f0_c" transform="matrix(12,0,0,12,196.6,461.7)" />
<use xlink:href="#f0_f" transform="matrix(12,0,0,12,203.8,461.7)" />
<use xlink:href="#f0_b" transform="matrix(12,0,0,12,215.4,461.7)" />
<use xlink:href="#f0_g" transform="matrix(12,0,0,12,232.5,461.7)" />
<use xlink:href="#f0_k" transform="matrix(12,0,0,12,242.1,461.7)" />
<use xlink:href="#f0_8" transform="matrix(12,0,0,12,253.4,461.7)" />
<use xlink:href="#f0_b" transform="matrix(12,0,0,12,271.2,461.7)" />
<use xlink:href="#f0_l" transform="matrix(12,0,0,12,288.3,461.7)" />
<use xlink:href="#f0_b" transform="matrix(12,0,0,12,295.5,461.7)" />
<use xlink:href="#f0_g" transform="matrix(12,0,0,12,307,461.7)" />
<use xlink:href="#f0_i" transform="matrix(12,0,0,12,316.4,461.7)" />
<use xlink:href="#f0_a" transform="matrix(12,0,0,12,328,461.7)" />
<use xlink:href="#f0_c" transform="matrix(12,0,0,12,333.1,461.7)" />
<use xlink:href="#f0_1f" transform="matrix(12,0,0,12,340.3,461.7)" />
</g>
</g>
<defs>
	<path d="M149,0l0,1113l150,0L299,0Z" 
	id="f0_u"
	transform="scale(0.001,-0.001)" />

	<path d="M137.5,0l0,834.2l139,0l0,-129.9c0,0,48.9,76.4,114.6,113.1c0,0,67.2,38.2,154.3,38.2c0,0,145.2,0,218.5,-88.7c0,0,73.3,-90.1,73.3,-262.7L837.2,0L699.7,0l0,499.6c0,0,0,117.6,-45.8,175.7c0,0,-45.8,59.6,-139,59.6c0,0,-110,0,-174.2,-70.3c0,0,-64.2,-70.3,-64.2,-192.5L276.5,0Z" 
	id="f0_4"
	transform="scale(0.001,-0.001)" />

	<path d="M165,0l0,728.8l-131.4,0l0,105.4l131.4,0l0,58c0,0,0,140.6,64.2,203.2c0,0,65.7,64.2,207.7,64.2l129.9,0l0,-113.1l-131.4,0c0,0,-74.8,0,-102.3,-30.5c0,0,-29.1,-30.6,-29.1,-107l0,-74.8l226.1,0l0,-105.4l-226.1,0L304,0Z" 
	id="f0_e"
	transform="scale(0.001,-0.001)" />

	<path d="M467.5,94.7c0,0,108.5,0,172.6,85.6c0,0,64.2,87.1,64.2,235.3c0,0,0,149.7,-64.2,235.2c0,0,-64.1,87.1,-172.6,87.1c0,0,-111.5,0,-175.7,-85.5c0,0,-64.2,-85.6,-64.2,-236.8c0,0,0,-149.8,64.2,-235.3c0,0,64.2,-85.6,175.7,-85.6Zm0,-116c0,0,-180.3,0,-281.1,116C186.4,94.7,84,210.8,84,415.6c0,0,0,206.2,100.9,322.3c0,0,102.3,117.7,282.6,117.7c0,0,178.8,0,281.1,-116.2c0,0,102.4,-117.6,102.4,-323.8c0,0,0,-204.8,-102.4,-320.9c0,0,-102.3,-116,-281.1,-116Z" 
	id="f0_7"
	transform="scale(0.001,-0.001)" />

	<path d="M389,0l0,985L-3,985l0,128l939,0l0,-128l-396,0L540,0Z" 
	id="f0_1g"
	transform="scale(0.001,-0.001)" />

	<path d="M230.7,490.4l490.4,1.5c0,0,-1.5,111.6,-62.6,178.8c0,0,-62.7,67.2,-163.5,67.2c0,0,-114.6,0,-183.3,-64.1c0,0,-70.3,-65.7,-81,-183.4ZM516.4,-21.3c0,0,-198.6,0,-314.7,116C201.7,94.7,84,210.8,84,409.4c0,0,0,204.8,110,325.5c0,0,111.6,120.7,299.5,120.7c0,0,168,0,265.8,-108.5c0,0,99.3,-110,99.3,-296.4l0,-67.2l-632.5,0c0,0,9.2,-140.6,85.6,-213.9c0,0,76.4,-74.9,213.9,-74.9c0,0,77.9,0,152.7,18.4c0,0,74.9,19.8,148.2,58l0,-129.8c0,0,-74.8,-30.6,-151.2,-45.8c0,0,-77.9,-16.8,-158.9,-16.8Z" 
	id="f0_b"
	transform="scale(0.001,-0.001)" />

	<path d="M495,-21.3c0,0,-189.4,0,-299.4,117.6C195.6,96.3,84,215.4,84,415.6c0,0,0,204.7,111.6,322.3c0,0,113,117.7,308.6,117.7c0,0,62.6,0,122.2,-13.8c0,0,61.1,-13.7,117.6,-39.7l0,-128.3c0,0,-58,32,-116.1,47.3c0,0,-58,16.8,-119.1,16.8c0,0,-133,0,-206.3,-84c0,0,-74.9,-84,-74.9,-238.3c0,0,0,-152.8,73.4,-236.8c0,0,74.8,-84.1,207.8,-84.1c0,0,61.1,0,119.1,15.3c0,0,58.1,16.8,116.1,48.9L744,30.6c0,0,-56.5,-26,-117.6,-38.1c0,0,-62.6,-13.8,-131.4,-13.8Z" 
	id="f0_6"
	transform="scale(0.001,-0.001)" />

	<path d="M137.5,0l0,1159.6l139,0l0,-455.3c0,0,48.9,76.4,114.6,113.1c0,0,67.2,38.2,154.3,38.2c0,0,145.2,0,218.5,-88.7c0,0,73.3,-90.1,73.3,-262.7L837.2,0L699.7,0l0,499.6c0,0,0,117.6,-45.8,175.7c0,0,-45.8,59.6,-139,59.6c0,0,-110,0,-174.2,-70.3c0,0,-64.2,-70.3,-64.2,-192.5L276.5,0Z" 
	id="f0_f"
	transform="scale(0.001,-0.001)" />

	<path d="M456.8,-21.3c0,0,-77.9,0,-166.5,16.8c0,0,-90.2,18.3,-186.4,53.4l0,154.3c0,0,91.7,-50.4,180.3,-76.4c0,0,88.6,-27.5,172.6,-27.5c0,0,129.9,0,200.1,50.4c0,0,70.3,52,70.3,145.2c0,0,0,82.5,-50.4,128.3c0,0,-50.4,47.4,-166.5,70.3l-91.7,16.8c0,0,-168,33.6,-242.9,105.4c0,0,-76.4,71.8,-76.4,200.1c0,0,0,146.7,103.9,232.3c0,0,105.4,85.5,287.2,85.5c0,0,79.5,0,160.4,-13.7c0,0,81,-15.3,166.6,-42.8l0,-148.2c0,0,-85.6,41.2,-162,61.1c0,0,-76.4,21.4,-146.6,21.4c0,0,-123.8,0,-189.5,-47.4c0,0,-67.2,-48.9,-67.2,-137.5c0,0,0,-73.3,44.3,-110c0,0,44.3,-38.2,168,-61.1l90.2,-19.8c0,0,169.6,-32.1,249,-111.6c0,0,81,-80.9,81,-216.9c0,0,0,-162,-108.5,-244.5c0,0,-108.5,-83.9,-319.3,-83.9Z" 
	id="f0_z"
	transform="scale(0.001,-0.001)" />

	<path d="M120.7,-317.7l0,116.1l79.4,0c0,0,56.6,0,87.1,26c0,0,32.1,27.5,70.3,126.8l24.4,61L44.3,834.2l145.1,0L450.7,181.8L711.9,834.2l146.7,0L490.4,-76.3c0,0,-58,-149.7,-113,-195.5c0,0,-55,-45.9,-148.2,-45.9Z" 
	id="f0_r"
	transform="scale(0.001,-0.001)" />

	<path d="M375.8,-21.3c0,0,-67.2,0,-140.5,12.2c0,0,-73.4,12.2,-152.8,39.7l0,140.5c0,0,76.4,-39.7,149.7,-58c0,0,73.4,-19.9,146.7,-19.9c0,0,96.2,0,148.2,32.1c0,0,51.9,33.6,51.9,94.7c0,0,0,55,-36.6,84c0,0,-38.2,30.6,-165,58.1l-48.9,12.2c0,0,-126.8,26,-183.4,81c0,0,-56.5,56.5,-56.5,152.8c0,0,0,119.1,82.5,183.3c0,0,84,64.2,238.3,64.2c0,0,74.9,0,142.1,-10.7c0,0,67.3,-12.3,123.8,-35.2l0,-129.8c0,0,-58.1,30.5,-120.7,44.3c0,0,-62.7,15.2,-129.9,15.2c0,0,-102.3,0,-152.8,-30.5c0,0,-50.4,-32.1,-50.4,-94.7c0,0,0,-47.4,35.2,-74.9c0,0,36.6,-27.5,148.2,-51.9l45.8,-10.7c0,0,146.7,-30.6,207.8,-87.1c0,0,62.6,-58.1,62.6,-160.4c0,0,0,-116.1,-91.7,-183.4c0,0,-93.1,-67.1,-253.6,-67.1Z" 
	id="f0_g"
	transform="scale(0.001,-0.001)" />

	<path d="M420.1,0c0,0,-158.8,0,-218.4,58.1c0,0,-61.1,59.5,-61.1,216.9l0,453.8l-100.9,0l0,105.4l100.9,0l0,238.3l139,0l0,-238.3l282.6,0l0,-105.4l-282.6,0l0,-453.8c0,0,0,-102.4,27.5,-131.4c0,0,27.5,-29,113,-29l142.1,0L562.2,0Z" 
	id="f0_c"
	transform="scale(0.001,-0.001)" />

	<path d="M137.5,0l0,834.2l139,0l0,-129.9c0,0,45.9,77.9,111.6,114.6c0,0,65.7,36.7,155.8,36.7c0,0,91.7,0,154.3,-45.9c0,0,64.2,-47.3,96.2,-135.9c0,0,50.5,93.1,122.3,137.5c0,0,71.8,44.3,168,44.3c0,0,131.4,0,201.7,-91.7c0,0,71.8,-91.7,71.8,-259.7L1358.2,0l-139,0l0,499.6c0,0,0,119.2,-41.3,177.2c0,0,-42.8,58.1,-129.8,58.1c0,0,-107,0,-168.1,-70.3c0,0,-62.6,-70.3,-62.6,-192.5L817.4,0L678.3,0l0,499.6c0,0,0,120.7,-41.2,177.2c0,0,-42.8,58.1,-131.4,58.1c0,0,-105.4,0,-166.5,-70.3c0,0,-62.7,-71.8,-62.7,-192.5L276.5,0Z" 
	id="f0_8"
	transform="scale(0.001,-0.001)" />

	<path d="M282.6,0L62.6,834.2l137.5,0L372.8,183.3L542.4,834.2l161.9,0L876.9,183.3l171.2,650.9l135.9,0L965.6,0l-162,0L624.9,684.4L444.6,0Z" 
	id="f0_12"
	transform="scale(0.001,-0.001)" />

	<path d="M407.9,93.2c0,0,113.1,0,181.8,79.4c0,0,70.3,81,70.3,215.5l0,30.5l-137.5,0c0,0,-166.5,0,-230.7,-36.7c0,0,-64.2,-38.1,-64.2,-129.8c0,0,0,-73.3,47.4,-116.1c0,0,48.9,-42.8,132.9,-42.8ZM371.3,-21.3c0,0,-128.4,0,-203.2,71.7c0,0,-76.4,71.8,-76.4,192.5c0,0,0,140.6,93.2,212.4c0,0,94.7,71.8,282.6,71.8l192.5,0l0,13.7c0,0,0,94.8,-62.6,145.2c0,0,-62.7,51.9,-175.7,51.9c0,0,-71.8,0,-139.1,-16.8c0,0,-67.2,-16.8,-129.8,-51.9l0,126.8c0,0,74.8,30.5,145.1,44.3c0,0,71.8,15.3,139,15.3c0,0,180.3,0,268.9,-93.2c0,0,90.2,-94.8,90.2,-285.7L796,0L660,0l0,126.8c0,0,-47.4,-76.4,-117.6,-111.5c0,0,-70.3,-36.6,-171.1,-36.6Z" 
	id="f0_k"
	transform="scale(0.001,-0.001)" />

	<path d="M137.5,0l0,834.2l139,0l0,-129.9c0,0,42.8,76.4,111.6,113.1c0,0,70.2,38.2,169.5,38.2c0,0,13.8,0,30.6,-1.6c0,0,16.8,-3,38.2,-6.1l1.5,-142.1c0,0,-24.4,13.8,-50.4,19.9c0,0,-27.5,6.1,-61.1,6.1c0,0,-116.1,0,-177.2,-74.9c0,0,-62.7,-76.3,-62.7,-216.9l0,-440Z" 
	id="f0_l"
	transform="scale(0.001,-0.001)" />

	<path d="M143,0l0,834l138,0L281,0Zm0,985l0,174l138,0l0,-174Z" 
	id="f0_d"
	transform="scale(0.001,-0.001)" />

	<path d="M357.5,0L44.3,834.2l145.1,0L450.7,132.9L711.9,834.2l146.7,0L543.9,0Z" 
	id="f0_q"
	transform="scale(0.001,-0.001)" />

	<path d="M458.3,114.6c0,0,111.6,0,172.7,81c0,0,62.6,82.5,62.6,230.7c0,0,0,149.7,-61.1,230.6c0,0,-62.6,82.5,-174.2,82.5c0,0,-110,0,-171.1,-80.9c0,0,-62.6,-82.5,-62.6,-232.2c0,0,0,-148.2,61.1,-229.2c0,0,62.6,-82.5,172.6,-82.5ZM444.6,-317.7c0,0,-71.8,0,-136,10.7c0,0,-64.2,12.2,-123.7,33.6l0,134.5c0,0,59.5,-33.6,117.6,-48.9c0,0,59.6,-15.3,120.7,-15.3c0,0,136,0,203.2,70.3c0,0,67.2,70.3,67.2,210.7l0,68.8c0,0,-42.8,-74.9,-108.5,-110C585.1,36.7,517.9,0,424.7,0c0,0,-152.8,0,-245.9,116.1c0,0,-94.8,117.7,-94.8,310.2c0,0,0,194,93.2,311.6c0,0,94.7,117.7,247.5,117.7c0,0,93.2,0,158.9,-36.7c0,0,67.2,-36.7,110,-111.5l0,126.8l136,0l0,-731.8c0,0,0,-210.8,-94.7,-314.7c0,0,-94.8,-105.4,-290.3,-105.4Z" 
	id="f0_x"
	transform="scale(0.001,-0.001)" />

	<path d="M458.3,93.2c0,0,110,0,172.7,85.6c0,0,62.6,85.5,62.6,236.8c0,0,0,152.7,-62.6,238.3c0,0,-62.7,85.5,-172.7,85.5c0,0,-108.4,0,-171.1,-85.5c0,0,-62.6,-85.6,-62.6,-238.3c0,0,0,-151.3,62.6,-236.8c0,0,62.7,-85.6,171.1,-85.6ZM424.7,-21.3c0,0,-151.2,0,-245.9,120.6C178.8,99.3,84,220,84,415.6c0,0,0,197,94.8,317.7c0,0,94.7,122.3,245.9,122.3c0,0,93.2,0,158.9,-36.7c0,0,65.7,-36.7,110,-111.5l0,452.2l136,0L829.6,0l-136,0l0,125.3c0,0,-44.3,-74.9,-110,-110c0,0,-65.7,-36.6,-158.9,-36.6Z" 
	id="f0_h"
	transform="scale(0.001,-0.001)" />

	<path d="M508.8,93.2c0,0,110,0,171.1,85.6c0,0,62.6,85.5,62.6,236.8c0,0,0,152.7,-61.1,238.3c0,0,-62.6,85.5,-172.6,85.5c0,0,-108.5,0,-169.6,-85.5c0,0,-62.7,-85.6,-62.7,-238.3c0,0,0,-151.3,61.1,-236.8c0,0,62.7,-85.6,171.2,-85.6ZM137.5,-317.7l0,1151.9l139,0l0,-126.8c0,0,42.8,74.8,108.5,111.5c0,0,65.7,36.7,157.4,36.7c0,0,152.7,0,247.5,-120.7c0,0,96.2,-122.3,96.2,-319.3c0,0,0,-195.6,-94.7,-316.3c0,0,-96.3,-120.6,-249,-120.6c0,0,-91.7,0,-157.4,35.1c0,0,-65.7,36.6,-108.5,111.5l0,-443Z" 
	id="f0_9"
	transform="scale(0.001,-0.001)" />

	<path d="M143,0l0,1159l138,0L281,0Z" 
	id="f0_a"
	transform="scale(0.001,-0.001)" />

	<path d="M161,0l0,189l158,0L319,0Z" 
	id="f0_1c"
	transform="scale(0.001,-0.001)" />

	<path d="M149,0l0,1113l150,0l0,-457l548,0l0,457l150,0L997,0L847,0l0,530l-548,0L299,0Z" 
	id="f0_18"
	transform="scale(0.001,-0.001)" />

	<path d="M508.8,93.2c0,0,110,0,171.1,85.6c0,0,62.6,85.5,62.6,236.8c0,0,0,152.7,-61.1,238.3c0,0,-62.6,85.5,-172.6,85.5c0,0,-108.5,0,-169.6,-85.5c0,0,-62.7,-85.6,-62.7,-238.3c0,0,0,-151.3,61.1,-236.8c0,0,62.7,-85.6,171.2,-85.6ZM542.4,-21.3c0,0,-91.7,0,-157.4,35.1c0,0,-65.7,36.6,-108.5,111.5L276.5,0l-139,0l0,1159.6l139,0l0,-452.2c0,0,42.8,74.8,108.5,111.5c0,0,65.7,36.7,157.4,36.7c0,0,152.7,0,247.5,-120.7c0,0,96.2,-122.3,96.2,-319.3c0,0,0,-195.6,-94.7,-316.3c0,0,-96.3,-120.6,-249,-120.6Z" 
	id="f0_m"
	transform="scale(0.001,-0.001)" />

	<path d="M421.7,-21.3c0,0,-143.6,0,-218.5,88.5L128.3,328.5l0,505.7l137.5,0l0,-499.6c0,0,0,-119.2,45.9,-178.8c0,0,47.3,-59.5,139,-59.5c0,0,111.5,0,175.7,70.2c0,0,65.7,71.8,65.7,194.1l0,473.6l136,0L828.1,0l-136,0l0,126.8c0,0,-50.4,-74.9,-116.1,-111.5c0,0,-67.2,-36.6,-154.3,-36.6Z" 
	id="f0_i"
	transform="scale(0.001,-0.001)" />

	<path d="M458.3,93.2c0,0,110,0,172.7,85.6c0,0,62.6,85.5,62.6,236.8c0,0,0,152.7,-62.6,238.3c0,0,-62.7,85.5,-172.7,85.5c0,0,-108.4,0,-171.1,-85.5c0,0,-62.6,-85.6,-62.6,-238.3c0,0,0,-151.3,62.6,-236.8c0,0,62.7,-85.6,171.1,-85.6ZM693.6,-317.7l0,443c0,0,-44.3,-74.9,-110,-110c0,0,-65.7,-36.6,-158.9,-36.6c0,0,-151.2,0,-245.9,120.6C178.8,99.3,84,220,84,415.6c0,0,0,197,94.8,317.7c0,0,94.7,122.3,245.9,122.3c0,0,93.2,0,158.9,-36.7c0,0,65.7,-36.7,110,-111.5l0,126.8l136,0l0,-1151.9Z" 
	id="f0_13"
	transform="scale(0.001,-0.001)" />

	<path d="M178,0l0,189l158,0L336,0Zm0,600l0,189l158,0l0,-189Z" 
	id="f0_n"
	transform="scale(0.001,-0.001)" />

	<path d="M189.4,0l0,126.8l246,0l0,849.5L166.5,922.8l0,136l267.4,55l149.7,0l0,-987l246,0L829.6,0Z" 
	id="f0_2"
	transform="scale(0.001,-0.001)" />

	<path d="M122.2,-200c0,0,99.3,169.5,146.7,337.5c0,0,48.9,169.6,48.9,340.7c0,0,0,172.6,-47.4,340.7c0,0,-48.9,168,-148.2,339.2l119.2,0c0,0,111.5,-175.7,166.5,-343.8c0,0,56.5,-169.6,56.5,-336.1c0,0,0,-166.5,-55,-334.6c0,0,-56.5,-169.5,-168,-343.6Z" 
	id="f0_o"
	transform="scale(0.001,-0.001)" />

	<path d="M488.9,594.3c0,0,110,0,165,50.4c0,0,55,50.4,55,148.2c0,0,0,97.8,-55,146.7c0,0,-55,48.9,-165,48.9l-189.5,0l0,-394.2ZM149.7,0l0,1113.8l339.2,0c0,0,191,0,284.2,-79.5c0,0,94.7,-81,94.7,-241.4c0,0,0,-105.4,-48.9,-174.1c0,0,-48.9,-70.3,-142.1,-97.8c0,0,48.9,-15.3,94.7,-68.8c0,0,45.9,-55,91.7,-148.2L1017.5,0L855.6,0L711.9,285.7c0,0,-55,111.5,-106.9,148.2c0,0,-51.9,36.7,-140.6,36.7l-165,0L299.4,0Z" 
	id="f0_1u"
	transform="scale(0.001,-0.001)" />

	<path d="M146,699l0,414l127,0l0,-414Z" 
	id="f0_24"
	transform="scale(0.001,-0.001)" />

	<path d="M540.8,123.8c0,0,122.3,0,180.3,48.8c0,0,59.6,50.5,59.6,154.3c0,0,0,105.5,-58.1,154.4c0,0,-59.5,50.4,-181.8,50.4l-241.4,0l0,-407.9ZM522.5,653.9c0,0,111.5,0,165,41.2c0,0,53.5,41.3,53.5,126.8c0,0,0,84.1,-53.5,125.3c0,0,-53.5,41.3,-165,41.3l-223.1,0l0,-334.6ZM149.7,0l0,1113.8l385,0c0,0,171.1,0,264.3,-71.9c0,0,93.2,-71.8,93.2,-204.7c0,0,0,-102.3,-47.3,-161.9c0,0,-47.4,-61.1,-140.6,-74.9c0,0,111.5,-24.4,172.6,-99.3c0,0,62.7,-76.4,62.7,-189.4c0,0,0,-149.8,-100.8,-230.7C838.8,81,736.4,0,548.5,0Z" 
	id="f0_27"
	transform="scale(0.001,-0.001)" />

	<path d="M111.5,0l0,126.8c0,0,85.6,88.6,233.8,236.8c0,0,148.2,149.7,186.4,194c0,0,71.8,81,100.8,137.5c0,0,29,56.6,29,110c0,0,0,88.7,-62.6,145.2c0,0,-62.6,56.5,-162,56.5c0,0,-71.8,0,-149.7,-24.4c0,0,-79.4,-26,-168,-74.9l0,151.3c0,0,90.1,36.6,169.6,55c0,0,79.4,19.8,145.1,19.8c0,0,172.6,0,275,-87.1c0,0,103.9,-87.1,103.9,-230.7c0,0,0,-68.7,-26,-129.8c0,0,-26,-62.7,-93.2,-145.2c0,0,-19.8,-22.9,-119.2,-125.2c0,0,-99.3,-103.9,-282.6,-288.8l527.1,0L818.9,0Z" 
	id="f0_t"
	transform="scale(0.001,-0.001)" />

	<path d="M117.6,-177.1L178.8,61.1l0,128.3l157.3,0l0,-128.3L213.9,-177.1Z" 
	id="f0_j"
	transform="scale(0.001,-0.001)" />

	<path d="M727.2,411L521,964L317.8,411ZM10.7,0L436.9,1113.8l169.6,0L1031.3,0L875.4,0L773.1,285.7l-501.2,0L169.6,0Z" 
	id="f0_1h"
	transform="scale(0.001,-0.001)" />

	<path d="M559.2,-21.3c0,0,-210.9,0,-319.3,109.9c0,0,-108.5,111.5,-108.5,328.5l0,696.7l152.8,0l0,-676.9c0,0,0,-180.2,64.1,-258.1c0,0,64.2,-79.5,210.9,-79.5c0,0,143.6,0,207.7,77.9c0,0,65.7,79.5,65.7,259.7l0,676.9l152.8,0l0,-696.7c0,0,0,-217,-108.5,-327c0,0,-108.4,-111.4,-317.7,-111.4Z" 
	id="f0_p"
	transform="scale(0.001,-0.001)" />

	<path d="M412.5,-21.3c0,0,-68.7,0,-143.6,12.2c0,0,-74.9,13.7,-152.8,41.2l0,146.7c0,0,62.7,-36.7,136,-55c0,0,74.8,-19.9,157.3,-19.9c0,0,140.6,0,215.5,56.5c0,0,74.8,56.5,74.8,162c0,0,0,99.3,-68.7,154.3c0,0,-70.3,56.5,-192.5,56.5l-129.9,0l0,123.7l136,0c0,0,110,0,168,44.4c0,0,59.6,44.3,59.6,126.8c0,0,0,87,-59.6,132.9c0,0,-61.1,45.8,-174.1,45.8c0,0,-62.7,0,-132.9,-13.7c0,0,-71.8,-13.8,-155.9,-41.3l0,132.9c0,0,85.6,24.5,160.4,36.7c0,0,74.9,12.2,140.6,12.2c0,0,172.6,0,271.9,-77.9c0,0,100.9,-77.9,100.9,-210.8c0,0,0,-93.2,-53.5,-155.9c0,0,-53.5,-64.1,-151.2,-88.6c0,0,108.4,-24.4,169.5,-96.2c0,0,61.1,-73.4,61.1,-181.8c0,0,0,-163.5,-113,-253.6c0,0,-114.6,-90.1,-323.9,-90.1Z" 
	id="f0_y"
	transform="scale(0.001,-0.001)" />

	<path d="M576,386.5l0,595.9L195.6,386.5ZM576,0l0,261.3l-502.7,0l0,146.6l464.5,705.9l189.4,0l0,-727.3l158.9,0l0,-125.2l-158.9,0L727.2,0Z" 
	id="f0_10"
	transform="scale(0.001,-0.001)" />

	<path d="M719.6,421.7l61.1,249l-216.9,0l-62.7,-249ZM275,0l76.4,308.6l-233.8,0l0,113.1l262.8,0l62.7,249l-241.4,0l0,116.1l270.4,0l74.8,308.6l120.7,0L591.3,786.8l216.9,0l79.4,308.6l119.2,0L928.9,786.8l233.7,0l0,-116.1l-262.7,0l-61.1,-249l238.3,0l0,-113.1l-267.4,0L731.8,0L612.6,0l78,308.6l-218.5,0L394.2,0Z" 
	id="f0_28"
	transform="scale(0.001,-0.001)" />

	<path d="M411,-21.3c0,0,-70.3,0,-143.6,10.7c0,0,-73.4,12.1,-149.8,36.6l0,151.2c0,0,67.3,-36.6,137.5,-55c0,0,71.8,-18.3,152.8,-18.3c0,0,128.4,0,203.2,67.2c0,0,76.4,68.8,76.4,184.9c0,0,0,117.6,-74.9,184.8c0,0,-76.3,67.3,-204.7,67.3c0,0,-61.1,0,-120.7,-12.3c0,0,-61.1,-13.7,-123.7,-42.7l0,560.7l592.8,0l0,-128.4l-453.8,0l0,-271.9c0,0,32.1,10.7,64.2,15.3c0,0,33.6,6.1,67.2,6.1c0,0,186.4,0,294.9,-100.9c0,0,108.4,-102.3,108.4,-278c0,0,0,-178.8,-111.5,-278.1c0,0,-111.5,-99.2,-314.7,-99.2Z" 
	id="f0_14"
	transform="scale(0.001,-0.001)" />

	<path d="M290.3,0l0,189.4l152.8,0L443.1,0Zm4.6,297.9l0,114.6c0,0,0,76.4,21.4,123.8c0,0,21.3,48.8,88.6,113l67.2,67.2c0,0,41.2,39.8,59.6,74.9c0,0,19.8,35.1,19.8,70.3c0,0,0,67.2,-48.9,108.4c0,0,-48.8,41.3,-128.3,41.3c0,0,-59.6,0,-125.3,-26c0,0,-67.2,-27.5,-140.5,-76.4l0,140.6c0,0,70.3,41.2,142.1,62.6c0,0,71.8,21.4,149.7,21.4c0,0,137.5,0,220,-71.8c0,0,82.5,-73.3,82.5,-192.5c0,0,0,-56.5,-26,-106.9c0,0,-27.5,-52,-94.7,-116.1L516.4,582.1c0,0,-35.1,-35.2,-48.9,-53.5c0,0,-15.3,-19.8,-21.4,-39.7c0,0,-3,-15.3,-4.6,-36.7c0,0,-3,-22.9,-3,-62.6l0,-91.7Z" 
	id="f0_1f"
	transform="scale(0.001,-0.001)" />


</defs>
</svg>