<?xml version="1.0" encoding="UTF-8" standalone="no"?>
<!DOCTYPE svg PUBLIC "-//W3C//DTD SVG 1.1//EN"
"http://www.w3.org/Graphics/SVG/1.1/DTD/svg11.dtd">
<svg viewBox="0 0 1210 1045" version="1.1" xmlns="http://www.w3.org/2000/svg" xmlns:xlink="http://www.w3.org/1999/xlink">
<defs>
<style type="text/css"><![CDATA[
.g2_22{
fill: #418AB3;
}
.g5_22{
fill: none;
stroke: #FFFFFF;
stroke-width: 1;
stroke-linecap: butt;
stroke-linejoin: miter;
}
.g3_22{
fill: #CEDAE4;
}
.g4_22{
fill: #E8EDF2;
}
.g1_22{
fill: #FFFFFF;
}
]]></style>
</defs>
<path fill-rule="evenodd" d="M0,0L1210,0l0,1045L0,1045L0,0Z" class="g1_22" />
<path fill-rule="evenodd" d="M0,0L1210,0l0,1045L0,1045L0,0Z" class="g1_22" />
<image x="828" y="984" width="334" height="49" xlink:href="img/1.png" />
<path fill-rule="evenodd" d="M82,18l1045,0l0,30L82,48L82,18Z" class="g2_22" />
<path fill-rule="evenodd" d="M82,48l173,0l0,74L82,122L82,48Z" class="g3_22" />
<path fill-rule="evenodd" d="M255,48l161,0l0,74l-161,0l0,-74Z" class="g3_22" />
<path fill-rule="evenodd" d="M416,48l152,0l0,74l-152,0l0,-74Z" class="g3_22" />
<path fill-rule="evenodd" d="M568,48l208,0l0,74l-208,0l0,-74Z" class="g3_22" />
<path fill-rule="evenodd" d="M776,48l228,0l0,74l-228,0l0,-74Z" class="g3_22" />
<path fill-rule="evenodd" d="M1004,48l123,0l0,74l-123,0l0,-74Z" class="g3_22" />
<path fill-rule="evenodd" d="M82,122l173,0l0,30L82,152l0,-30Z" class="g4_22" />
<path fill-rule="evenodd" d="M255,122l161,0l0,30l-161,0l0,-30Z" class="g4_22" />
<path fill-rule="evenodd" d="M416,122l152,0l0,30l-152,0l0,-30Z" class="g4_22" />
<path fill-rule="evenodd" d="M568,122l208,0l0,30l-208,0l0,-30Z" class="g4_22" />
<path fill-rule="evenodd" d="M776,122l228,0l0,30l-228,0l0,-30Z" class="g4_22" />
<path fill-rule="evenodd" d="M1004,122l123,0l0,30l-123,0l0,-30Z" class="g4_22" />
<path fill-rule="evenodd" d="M82,152l173,0l0,31L82,183l0,-31Z" class="g3_22" />
<path fill-rule="evenodd" d="M255,152l161,0l0,31l-161,0l0,-31Z" class="g3_22" />
<path fill-rule="evenodd" d="M416,152l152,0l0,31l-152,0l0,-31Z" class="g3_22" />
<path fill-rule="evenodd" d="M568,152l208,0l0,31l-208,0l0,-31Z" class="g3_22" />
<path fill-rule="evenodd" d="M776,152l228,0l0,31l-228,0l0,-31Z" class="g3_22" />
<path fill-rule="evenodd" d="M1004,152l123,0l0,31l-123,0l0,-31Z" class="g3_22" />
<path fill-rule="evenodd" d="M82,183l173,0l0,52L82,235l0,-52Z" class="g4_22" />
<path fill-rule="evenodd" d="M255,183l161,0l0,52l-161,0l0,-52Z" class="g4_22" />
<path fill-rule="evenodd" d="M416,183l152,0l0,52l-152,0l0,-52Z" class="g4_22" />
<path fill-rule="evenodd" d="M568,183l208,0l0,52l-208,0l0,-52Z" class="g4_22" />
<path fill-rule="evenodd" d="M776,183l228,0l0,52l-228,0l0,-52Z" class="g4_22" />
<path fill-rule="evenodd" d="M1004,183l123,0l0,52l-123,0l0,-52Z" class="g4_22" />
<path fill-rule="evenodd" d="M82,235l173,0l0,52L82,287l0,-52Z" class="g3_22" />
<path fill-rule="evenodd" d="M255,235l161,0l0,52l-161,0l0,-52Z" class="g3_22" />
<path fill-rule="evenodd" d="M416,235l152,0l0,52l-152,0l0,-52Z" class="g3_22" />
<path fill-rule="evenodd" d="M568,235l208,0l0,52l-208,0l0,-52Z" class="g3_22" />
<path fill-rule="evenodd" d="M776,235l228,0l0,52l-228,0l0,-52Z" class="g3_22" />
<path fill-rule="evenodd" d="M1004,235l123,0l0,52l-123,0l0,-52Z" class="g1_22" />
<path fill-rule="evenodd" d="M82,287l173,0l0,74L82,361l0,-74Z" class="g4_22" />
<path fill-rule="evenodd" d="M255,287l161,0l0,74l-161,0l0,-74Z" class="g4_22" />
<path fill-rule="evenodd" d="M416,287l152,0l0,74l-152,0l0,-74Z" class="g4_22" />
<path fill-rule="evenodd" d="M568,287l208,0l0,74l-208,0l0,-74Z" class="g4_22" />
<path fill-rule="evenodd" d="M776,287l228,0l0,74l-228,0l0,-74Z" class="g4_22" />
<path fill-rule="evenodd" d="M1004,287l123,0l0,74l-123,0l0,-74Z" class="g1_22" />
<path fill-rule="evenodd" d="M82,361l173,0l0,53L82,414l0,-53Z" class="g3_22" />
<path fill-rule="evenodd" d="M255,361l161,0l0,53l-161,0l0,-53Z" class="g3_22" />
<path fill-rule="evenodd" d="M416,361l152,0l0,53l-152,0l0,-53Z" class="g3_22" />
<path fill-rule="evenodd" d="M568,361l208,0l0,53l-208,0l0,-53Z" class="g3_22" />
<path fill-rule="evenodd" d="M776,361l228,0l0,53l-228,0l0,-53Z" class="g3_22" />
<path fill-rule="evenodd" d="M1004,361l123,0l0,53l-123,0l0,-53Z" class="g1_22" />
<path fill-rule="evenodd" d="M82,414l173,0l0,74L82,488l0,-74Z" class="g4_22" />
<path fill-rule="evenodd" d="M255,414l161,0l0,74l-161,0l0,-74Z" class="g4_22" />
<path fill-rule="evenodd" d="M416,414l152,0l0,74l-152,0l0,-74Z" class="g4_22" />
<path fill-rule="evenodd" d="M568,414l208,0l0,74l-208,0l0,-74Z" class="g4_22" />
<path fill-rule="evenodd" d="M776,414l228,0l0,74l-228,0l0,-74Z" class="g4_22" />
<path fill-rule="evenodd" d="M1004,414l123,0l0,74l-123,0l0,-74Z" class="g1_22" />
<path fill-rule="evenodd" d="M82,488l173,0l0,52L82,540l0,-52Z" class="g3_22" />
<path fill-rule="evenodd" d="M255,488l161,0l0,52l-161,0l0,-52Z" class="g3_22" />
<path fill-rule="evenodd" d="M416,488l152,0l0,52l-152,0l0,-52Z" class="g3_22" />
<path fill-rule="evenodd" d="M568,488l208,0l0,52l-208,0l0,-52Z" class="g3_22" />
<path fill-rule="evenodd" d="M776,488l228,0l0,52l-228,0l0,-52Z" class="g1_22" />
<path fill-rule="evenodd" d="M1004,488l123,0l0,52l-123,0l0,-52Z" class="g1_22" />
<path fill-rule="evenodd" d="M82,540l173,0l0,30L82,570l0,-30Z" class="g4_22" />
<path fill-rule="evenodd" d="M255,540l161,0l0,30l-161,0l0,-30Z" class="g1_22" />
<path fill-rule="evenodd" d="M416,540l152,0l0,30l-152,0l0,-30Z" class="g4_22" />
<path fill-rule="evenodd" d="M568,540l208,0l0,30l-208,0l0,-30Z" class="g4_22" />
<path fill-rule="evenodd" d="M776,540l228,0l0,30l-228,0l0,-30Z" class="g1_22" />
<path fill-rule="evenodd" d="M1004,540l123,0l0,30l-123,0l0,-30Z" class="g1_22" />
<path fill-rule="evenodd" d="M82,570l173,0l0,30L82,600l0,-30Z" class="g3_22" />
<path fill-rule="evenodd" d="M255,570l161,0l0,30l-161,0l0,-30Z" class="g1_22" />
<path fill-rule="evenodd" d="M416,570l152,0l0,30l-152,0l0,-30Z" class="g1_22" />
<path fill-rule="evenodd" d="M568,570l208,0l0,30l-208,0l0,-30Z" class="g3_22" />
<path fill-rule="evenodd" d="M776,570l228,0l0,30l-228,0l0,-30Z" class="g1_22" />
<path fill-rule="evenodd" d="M1004,570l123,0l0,30l-123,0l0,-30Z" class="g1_22" />
<path fill-rule="evenodd" d="M82,600l173,0l0,31L82,631l0,-31Z" class="g1_22" />
<path fill-rule="evenodd" d="M255,600l161,0l0,31l-161,0l0,-31Z" class="g1_22" />
<path fill-rule="evenodd" d="M416,600l152,0l0,31l-152,0l0,-31Z" class="g1_22" />
<path fill-rule="evenodd" d="M568,600l208,0l0,31l-208,0l0,-31Z" class="g4_22" />
<path fill-rule="evenodd" d="M776,600l228,0l0,31l-228,0l0,-31Z" class="g1_22" />
<path fill-rule="evenodd" d="M1004,600l123,0l0,31l-123,0l0,-31Z" class="g1_22" />
<path d="M81.5,49.5l0,-32" class="g5_22" />
<path d="M1126.5,49.5l0,-32" class="g5_22" />
<path d="M81.5,18.5l1047,0" class="g5_22" />
<path d="M81.5,123.5l0,-76" class="g5_22" />
<path d="M254.5,122.5l0,-74" class="g5_22" />
<path fill-rule="evenodd" d="M255.4,48.6l-0.6,2l-171.7,0l-0.6,-2l0.6,-2.2l173,0l-0.7,2.2Z" class="g1_22" />
<path d="M254.5,122.5l0,-74" class="g5_22" />
<path d="M415.5,122.5l0,-74" class="g5_22" />
<path fill-rule="evenodd" d="M416.3,48.6l-0.6,2l-159.6,0l-0.7,-2l-0.6,-2.2l162.1,0l-0.6,2.2Z" class="g1_22" />
<path d="M415.5,122.5l0,-74" class="g5_22" />
<path d="M568.5,122.5l0,-74" class="g5_22" />
<path fill-rule="evenodd" d="M568.6,48.6l-0.6,2l-151.1,0l-0.6,-2l-0.6,-2.2l153.7,0l-0.8,2.2Z" class="g1_22" />
<path d="M568.5,122.5l0,-74" class="g5_22" />
<path d="M775.5,122.5l0,-74" class="g5_22" />
<path fill-rule="evenodd" d="M776.3,48.6l-0.6,2l-206.3,0l-0.8,-2L568,46.4l208.9,0l-0.6,2.2Z" class="g1_22" />
<path d="M775.5,122.5l0,-74" class="g5_22" />
<path d="M1004.5,123.5l0,-76" class="g5_22" />
<path fill-rule="evenodd" d="M1005,48.6l-0.6,2l-227.5,0l-0.6,-2l-0.6,-2.2l230,0l-0.7,2.2Z" class="g1_22" />
<path d="M1004.5,122.5l0,-74" class="g5_22" />
<path d="M1126.5,123.5l0,-76" class="g5_22" />
<path fill-rule="evenodd" d="M1127.5,48.6l-0.8,2l-121,0l-0.7,-2l-0.6,-2.2l122.3,0l0.8,2.2Z" class="g1_22" />
<path d="M81.5,153.5l0,-31" class="g5_22" />
<path d="M254.5,152.5l0,-30" class="g5_22" />
<path d="M82.5,123.5l173,0" class="g5_22" />
<path d="M254.5,152.5l0,-30" class="g5_22" />
<path d="M415.5,152.5l0,-30" class="g5_22" />
<path d="M255.5,123.5l161,0" class="g5_22" />
<path d="M415.5,152.5l0,-30" class="g5_22" />
<path d="M568.5,152.5l0,-30" class="g5_22" />
<path d="M416.5,123.5l152,0" class="g5_22" />
<path d="M568.5,152.5l0,-30" class="g5_22" />
<path d="M775.5,152.5l0,-30" class="g5_22" />
<path d="M568.5,123.5l208,0" class="g5_22" />
<path d="M775.5,152.5l0,-30" class="g5_22" />
<path d="M1004.5,153.5l0,-31" class="g5_22" />
<path d="M776.5,123.5l228,0" class="g5_22" />
<path d="M1004.5,152.5l0,-30" class="g5_22" />
<path d="M1126.5,153.5l0,-31" class="g5_22" />
<path d="M1004.5,123.5l123,0" class="g5_22" />
<path d="M81.5,183.5l0,-31" class="g5_22" />
<path d="M254.5,183.5l0,-31" class="g5_22" />
<path d="M82.5,153.5l173,0" class="g5_22" />
<path d="M254.5,183.5l0,-31" class="g5_22" />
<path d="M415.5,183.5l0,-31" class="g5_22" />
<path d="M255.5,153.5l161,0" class="g5_22" />
<path d="M415.5,183.5l0,-31" class="g5_22" />
<path d="M568.5,183.5l0,-31" class="g5_22" />
<path d="M416.5,153.5l152,0" class="g5_22" />
<path d="M568.5,183.5l0,-31" class="g5_22" />
<path d="M775.5,183.5l0,-31" class="g5_22" />
<path d="M568.5,153.5l208,0" class="g5_22" />
<path d="M775.5,183.5l0,-31" class="g5_22" />
<path d="M1004.5,183.5l0,-31" class="g5_22" />
<path d="M776.5,153.5l228,0" class="g5_22" />
<path d="M1004.5,183.5l0,-31" class="g5_22" />
<path d="M1126.5,183.5l0,-31" class="g5_22" />
<path d="M1004.5,153.5l123,0" class="g5_22" />
<path d="M81.5,236.5l0,-54" class="g5_22" />
<path d="M254.5,235.5l0,-52" class="g5_22" />
<path d="M82.5,183.5l173,0" class="g5_22" />
<path d="M254.5,235.5l0,-52" class="g5_22" />
<path d="M415.5,235.5l0,-52" class="g5_22" />
<path d="M255.5,183.5l161,0" class="g5_22" />
<path d="M415.5,235.5l0,-52" class="g5_22" />
<path d="M568.5,235.5l0,-52" class="g5_22" />
<path d="M416.5,183.5l152,0" class="g5_22" />
<path d="M568.5,235.5l0,-52" class="g5_22" />
<path d="M775.5,235.5l0,-52" class="g5_22" />
<path d="M568.5,183.5l208,0" class="g5_22" />
<path d="M775.5,235.5l0,-52" class="g5_22" />
<path d="M1004.5,236.5l0,-54" class="g5_22" />
<path d="M776.5,183.5l228,0" class="g5_22" />
<path d="M1004.5,235.5l0,-52" class="g5_22" />
<path d="M1126.5,236.5l0,-54" class="g5_22" />
<path d="M1004.5,183.5l123,0" class="g5_22" />
<path d="M81.5,288.5l0,-54" class="g5_22" />
<path d="M254.5,287.5l0,-52" class="g5_22" />
<path d="M82.5,236.5l173,0" class="g5_22" />
<path d="M254.5,287.5l0,-52" class="g5_22" />
<path d="M415.5,287.5l0,-52" class="g5_22" />
<path d="M255.5,236.5l161,0" class="g5_22" />
<path d="M415.5,287.5l0,-52" class="g5_22" />
<path d="M568.5,287.5l0,-52" class="g5_22" />
<path d="M416.5,236.5l152,0" class="g5_22" />
<path d="M568.5,287.5l0,-52" class="g5_22" />
<path d="M775.5,287.5l0,-52" class="g5_22" />
<path d="M568.5,236.5l208,0" class="g5_22" />
<path d="M775.5,287.5l0,-52" class="g5_22" />
<path d="M1004.5,288.5l0,-54" class="g5_22" />
<path d="M776.5,236.5l228,0" class="g5_22" />
<path d="M1004.5,287.5l0,-52" class="g5_22" />
<path d="M1126.5,288.5l0,-54" class="g5_22" />
<path d="M1004.5,236.5l123,0" class="g5_22" />
<path d="M81.5,362.5l0,-76" class="g5_22" />
<path d="M254.5,361.5l0,-74" class="g5_22" />
<path d="M82.5,288.5l173,0" class="g5_22" />
<path d="M254.5,361.5l0,-74" class="g5_22" />
<path d="M415.5,361.5l0,-74" class="g5_22" />
<path d="M255.5,288.5l161,0" class="g5_22" />
<path d="M415.5,361.5l0,-74" class="g5_22" />
<path d="M568.5,361.5l0,-74" class="g5_22" />
<path d="M416.5,288.5l152,0" class="g5_22" />
<path d="M568.5,361.5l0,-74" class="g5_22" />
<path d="M775.5,361.5l0,-74" class="g5_22" />
<path d="M568.5,288.5l208,0" class="g5_22" />
<path d="M775.5,361.5l0,-74" class="g5_22" />
<path d="M1004.5,362.5l0,-76" class="g5_22" />
<path d="M776.5,288.5l228,0" class="g5_22" />
<path d="M1004.5,361.5l0,-74" class="g5_22" />
<path d="M1126.5,362.5l0,-76" class="g5_22" />
<path d="M1004.5,288.5l123,0" class="g5_22" />
<path d="M81.5,414.5l0,-53" class="g5_22" />
<path d="M254.5,414.5l0,-53" class="g5_22" />
<path d="M82.5,362.5l173,0" class="g5_22" />
<path d="M254.5,414.5l0,-53" class="g5_22" />
<path d="M415.5,414.5l0,-53" class="g5_22" />
<path d="M255.5,362.5l161,0" class="g5_22" />
<path d="M415.5,414.5l0,-53" class="g5_22" />
<path d="M568.5,414.5l0,-53" class="g5_22" />
<path d="M416.5,362.5l152,0" class="g5_22" />
<path d="M568.5,414.5l0,-53" class="g5_22" />
<path d="M775.5,414.5l0,-53" class="g5_22" />
<path d="M568.5,362.5l208,0" class="g5_22" />
<path d="M775.5,414.5l0,-53" class="g5_22" />
<path d="M1004.5,414.5l0,-53" class="g5_22" />
<path d="M776.5,362.5l228,0" class="g5_22" />
<path d="M1004.5,414.5l0,-53" class="g5_22" />
<path d="M1126.5,414.5l0,-53" class="g5_22" />
<path d="M1004.5,362.5l123,0" class="g5_22" />
<path d="M81.5,488.5l0,-75" class="g5_22" />
<path d="M254.5,488.5l0,-74" class="g5_22" />
<path d="M82.5,414.5l173,0" class="g5_22" />
<path d="M254.5,488.5l0,-74" class="g5_22" />
<path d="M415.5,488.5l0,-74" class="g5_22" />
<path d="M255.5,414.5l161,0" class="g5_22" />
<path d="M415.5,488.5l0,-74" class="g5_22" />
<path d="M568.5,488.5l0,-74" class="g5_22" />
<path d="M416.5,414.5l152,0" class="g5_22" />
<path d="M568.5,488.5l0,-74" class="g5_22" />
<path d="M775.5,488.5l0,-74" class="g5_22" />
<path d="M568.5,414.5l208,0" class="g5_22" />
<path d="M775.5,488.5l0,-74" class="g5_22" />
<path d="M1004.5,488.5l0,-75" class="g5_22" />
<path d="M776.5,414.5l228,0" class="g5_22" />
<path d="M1004.5,488.5l0,-74" class="g5_22" />
<path d="M1126.5,488.5l0,-75" class="g5_22" />
<path d="M1004.5,414.5l123,0" class="g5_22" />
<path d="M81.5,541.5l0,-54" class="g5_22" />
<path d="M254.5,540.5l0,-52" class="g5_22" />
<path d="M82.5,488.5l173,0" class="g5_22" />
<path d="M254.5,540.5l0,-52" class="g5_22" />
<path d="M415.5,540.5l0,-52" class="g5_22" />
<path d="M255.5,488.5l161,0" class="g5_22" />
<path d="M415.5,540.5l0,-52" class="g5_22" />
<path d="M568.5,540.5l0,-52" class="g5_22" />
<path d="M416.5,488.5l152,0" class="g5_22" />
<path d="M568.5,540.5l0,-52" class="g5_22" />
<path d="M775.5,540.5l0,-52" class="g5_22" />
<path d="M568.5,488.5l208,0" class="g5_22" />
<path d="M775.5,540.5l0,-52" class="g5_22" />
<path d="M1004.5,541.5l0,-54" class="g5_22" />
<path d="M776.5,488.5l228,0" class="g5_22" />
<path d="M1004.5,540.5l0,-52" class="g5_22" />
<path d="M1126.5,541.5l0,-54" class="g5_22" />
<path d="M1004.5,488.5l123,0" class="g5_22" />
<path d="M81.5,571.5l0,-32" class="g5_22" />
<path d="M254.5,570.5l0,-30" class="g5_22" />
<path d="M82.5,541.5l173,0" class="g5_22" />
<path d="M254.5,570.5l0,-30" class="g5_22" />
<path d="M415.5,570.5l0,-30" class="g5_22" />
<path d="M255.5,541.5l161,0" class="g5_22" />
<path d="M415.5,570.5l0,-30" class="g5_22" />
<path d="M568.5,570.5l0,-30" class="g5_22" />
<path d="M416.5,541.5l152,0" class="g5_22" />
<path d="M568.5,570.5l0,-30" class="g5_22" />
<path d="M775.5,570.5l0,-30" class="g5_22" />
<path d="M568.5,541.5l208,0" class="g5_22" />
<path d="M775.5,570.5l0,-30" class="g5_22" />
<path d="M1004.5,571.5l0,-32" class="g5_22" />
<path d="M776.5,541.5l228,0" class="g5_22" />
<path d="M1004.5,570.5l0,-30" class="g5_22" />
<path d="M1126.5,571.5l0,-32" class="g5_22" />
<path d="M1004.5,541.5l123,0" class="g5_22" />
<path d="M81.5,601.5l0,-31" class="g5_22" />
<path d="M254.5,600.5l0,-30" class="g5_22" />
<path d="M82.5,571.5l173,0" class="g5_22" />
<path d="M254.5,600.5l0,-30" class="g5_22" />
<path d="M415.5,600.5l0,-30" class="g5_22" />
<path d="M255.5,571.5l161,0" class="g5_22" />
<path d="M415.5,600.5l0,-30" class="g5_22" />
<path d="M568.5,600.5l0,-30" class="g5_22" />
<path d="M416.5,571.5l152,0" class="g5_22" />
<path d="M568.5,600.5l0,-30" class="g5_22" />
<path d="M775.5,600.5l0,-30" class="g5_22" />
<path d="M568.5,571.5l208,0" class="g5_22" />
<path d="M775.5,600.5l0,-30" class="g5_22" />
<path d="M1004.5,601.5l0,-31" class="g5_22" />
<path d="M776.5,571.5l228,0" class="g5_22" />
<path d="M1004.5,600.5l0,-30" class="g5_22" />
<path d="M1126.5,601.5l0,-31" class="g5_22" />
<path d="M1004.5,571.5l123,0" class="g5_22" />
<path d="M81.5,631.5l0,-31" class="g5_22" />
<path d="M81.5,631.5l175,0" class="g5_22" />
<path d="M254.5,631.5l0,-31" class="g5_22" />
<path d="M82.5,601.5l173,0" class="g5_22" />
<path d="M254.5,631.5l0,-31" class="g5_22" />
<path d="M254.5,631.5l162,0" class="g5_22" />
<path d="M415.5,631.5l0,-31" class="g5_22" />
<path d="M255.5,601.5l161,0" class="g5_22" />
<path d="M415.5,631.5l0,-31" class="g5_22" />
<path d="M415.5,631.5l154,0" class="g5_22" />
<path d="M568.5,631.5l0,-31" class="g5_22" />
<path d="M416.5,601.5l152,0" class="g5_22" />
<path d="M568.5,631.5l0,-31" class="g5_22" />
<path d="M568.5,631.5l208,0" class="g5_22" />
<path d="M775.5,631.5l0,-31" class="g5_22" />
<path d="M568.5,601.5l208,0" class="g5_22" />
<path d="M775.5,631.5l0,-31" class="g5_22" />
<path d="M775.5,631.5l230,0" class="g5_22" />
<path d="M1004.5,631.5l0,-31" class="g5_22" />
<path d="M776.5,601.5l228,0" class="g5_22" />
<path d="M1004.5,631.5l0,-31" class="g5_22" />
<path d="M1004.5,631.5l124,0" class="g5_22" />
<path d="M1126.5,631.5l0,-31" class="g5_22" />
<path d="M1004.5,601.5l123,0" class="g5_22" />
</svg>