<?xml version="1.0" encoding="UTF-8" standalone="no"?>
<!DOCTYPE svg PUBLIC "-//W3C//DTD SVG 1.1//EN"
"http://www.w3.org/Graphics/SVG/1.1/DTD/svg11.dtd">
<svg viewBox="0 0 1155 1210" version="1.1" xmlns="http://www.w3.org/2000/svg" xmlns:xlink="http://www.w3.org/1999/xlink">
<defs>
<clipPath id="c0_3"><path d="M0.5,1210.5L0.5,0.5l1155,0l0,1210Z" /></clipPath>
<style type="text/css"><![CDATA[
.g1_3{
fill: #FFFFFF;
}
]]></style>
</defs>
<path fill-rule="evenodd" d="M0,0L1155,0l0,1210L0,1210L0,0Z" class="g1_3" />
<path fill-rule="evenodd" d="M0,0L1155,0l0,1210L0,1210L0,0Z" class="g1_3" />
<image x="790" y="1140" width="319" height="55" xlink:href="img/1.png" />
<g clip-path="url(#c0_3)">
<g fill="#626262" >
<use xlink:href="#f0_z" transform="matrix(12,0,0,12,47.7,33.2)" />
<use xlink:href="#f0_i" transform="matrix(12,0,0,12,59.4,33.2)" />
<use xlink:href="#f0_g" transform="matrix(12,0,0,12,71,33.2)" />
<use xlink:href="#f0_d" transform="matrix(12,0,0,12,80.5,33.2)" />
<use xlink:href="#f0_b" transform="matrix(12,0,0,12,85.5,33.2)" />
<use xlink:href="#f0_d" transform="matrix(12,0,0,12,103.8,33.2)" />
<use xlink:href="#f0_g" transform="matrix(12,0,0,12,109,33.2)" />
<use xlink:href="#f0_c" transform="matrix(12,0,0,12,125.5,33.2)" />
<use xlink:href="#f0_l" transform="matrix(12,0,0,12,132.7,33.2)" />
<use xlink:href="#f0_r" transform="matrix(12,0,0,12,140.3,33.2)" />
<use xlink:href="#f0_d" transform="matrix(12,0,0,12,151.1,33.2)" />
<use xlink:href="#f0_4" transform="matrix(12,0,0,12,156.3,33.2)" />
<use xlink:href="#f0_x" transform="matrix(12,0,0,12,167.8,33.2)" />
<use xlink:href="#f0_c" transform="matrix(12,0,0,12,186.4,33.2)" />
<use xlink:href="#f0_7" transform="matrix(12,0,0,12,193.6,33.2)" />
<use xlink:href="#f0_k" transform="matrix(12,0,0,12,211.7,33.2)" />
<use xlink:href="#f0_6" transform="matrix(12,0,0,12,223,33.2)" />
<use xlink:href="#f0_6" transform="matrix(12,0,0,12,233.2,33.2)" />
<use xlink:href="#f0_b" transform="matrix(12,0,0,12,243.6,33.2)" />
<use xlink:href="#f0_g" transform="matrix(12,0,0,12,254.9,33.2)" />
<use xlink:href="#f0_g" transform="matrix(12,0,0,12,264.5,33.2)" />
<use xlink:href="#f0_19" transform="matrix(12,0,0,12,280.8,33.2)" />
<use xlink:href="#f0_k" transform="matrix(12,0,0,12,289.7,33.2)" />
<use xlink:href="#f0_6" transform="matrix(12,0,0,12,301,33.2)" />
<use xlink:href="#f0_b" transform="matrix(12,0,0,12,311.4,33.2)" />
<use xlink:href="#f0_m" transform="matrix(12,0,0,12,322.6,33.2)" />
<use xlink:href="#f0_7" transform="matrix(12,0,0,12,334.1,33.2)" />
<use xlink:href="#f0_7" transform="matrix(12,0,0,12,345.4,33.2)" />
<use xlink:href="#f0_1a" transform="matrix(12,0,0,12,356.5,33.2)" />
<use xlink:href="#f0_c" transform="matrix(12,0,0,12,374.1,33.2)" />
<use xlink:href="#f0_7" transform="matrix(12,0,0,12,381.3,33.2)" />
<use xlink:href="#f0_6" transform="matrix(12,0,0,12,399.3,33.2)" />
<use xlink:href="#f0_7" transform="matrix(12,0,0,12,409.7,33.2)" />
<use xlink:href="#f0_4" transform="matrix(12,0,0,12,420.8,33.2)" />
<use xlink:href="#f0_q" transform="matrix(12,0,0,12,432.3,33.2)" />
<use xlink:href="#f0_b" transform="matrix(12,0,0,12,443.1,33.2)" />
<use xlink:href="#f0_r" transform="matrix(12,0,0,12,454.5,33.2)" />
<use xlink:href="#f0_m" transform="matrix(12,0,0,12,472.2,33.2)" />
<use xlink:href="#f0_d" transform="matrix(12,0,0,12,483.8,33.2)" />
<use xlink:href="#f0_l" transform="matrix(12,0,0,12,488.9,33.2)" />
<use xlink:href="#f0_c" transform="matrix(12,0,0,12,496.7,33.2)" />
<use xlink:href="#f0_f" transform="matrix(12,0,0,12,503.7,33.2)" />
<use xlink:href="#f0_h" transform="matrix(12,0,0,12,515.3,33.2)" />
<use xlink:href="#f0_k" transform="matrix(12,0,0,12,527,33.2)" />
<use xlink:href="#f0_r" transform="matrix(12,0,0,12,538.3,33.2)" />
<use xlink:href="#f0_12" transform="matrix(12,0,0,12,556,33.2)" />
<use xlink:href="#f0_d" transform="matrix(12,0,0,12,571.1,33.2)" />
<use xlink:href="#f0_g" transform="matrix(12,0,0,12,576.2,33.2)" />
<use xlink:href="#f0_f" transform="matrix(12,0,0,12,585.8,33.2)" />
<use xlink:href="#f0_b" transform="matrix(12,0,0,12,597.4,33.2)" />
<use xlink:href="#f0_g" transform="matrix(12,0,0,12,608.7,33.2)" />
<use xlink:href="#f0_c" transform="matrix(12,0,0,12,625.1,33.2)" />
<use xlink:href="#f0_7" transform="matrix(12,0,0,12,632.3,33.2)" />
<use xlink:href="#f0_f" transform="matrix(12,0,0,12,650.3,33.2)" />
<use xlink:href="#f0_b" transform="matrix(12,0,0,12,661.9,33.2)" />
<use xlink:href="#f0_l" transform="matrix(12,0,0,12,673.2,33.2)" />
<use xlink:href="#f0_e" transform="matrix(12,0,0,12,687.9,33.2)" />
<use xlink:href="#f0_l" transform="matrix(12,0,0,12,694.3,33.2)" />
<use xlink:href="#f0_d" transform="matrix(12,0,0,12,701.9,33.2)" />
<use xlink:href="#f0_b" transform="matrix(12,0,0,12,707.1,33.2)" />
<use xlink:href="#f0_4" transform="matrix(12,0,0,12,718.4,33.2)" />
<use xlink:href="#f0_h" transform="matrix(12,0,0,12,730,33.2)" />
<use xlink:href="#f0_1b" transform="matrix(12,0,0,12,748.6,33.2)" />
<use xlink:href="#f0_i" transform="matrix(12,0,0,12,753.9,33.2)" />
<use xlink:href="#f0_a" transform="matrix(12,0,0,12,765.5,33.2)" />
<use xlink:href="#f0_d" transform="matrix(12,0,0,12,770.6,33.2)" />
<use xlink:href="#f0_b" transform="matrix(12,0,0,12,775.8,33.2)" />
<use xlink:href="#f0_1c" transform="matrix(12,0,0,12,787.1,33.2)" />
<use xlink:href="#f0_1d" transform="matrix(12,0,0,12,799.8,33.2)" />
<use xlink:href="#f0_d" transform="matrix(12,0,0,12,815.6,33.2)" />
<use xlink:href="#f0_g" transform="matrix(12,0,0,12,820.7,33.2)" />
<use xlink:href="#f0_c" transform="matrix(12,0,0,12,830.2,33.2)" />
<use xlink:href="#f0_k" transform="matrix(12,0,0,12,837.4,33.2)" />
<use xlink:href="#f0_1a" transform="matrix(12,0,0,12,848.7,33.2)" />
<use xlink:href="#f0_b" transform="matrix(12,0,0,12,858.6,33.2)" />
<use xlink:href="#f0_4" transform="matrix(12,0,0,12,870.1,33.2)" />
<use xlink:href="#f0_a" transform="matrix(12,0,0,12,881.5,33.2)" />
<use xlink:href="#f0_r" transform="matrix(12,0,0,12,886.7,33.2)" />
<use xlink:href="#f0_g" transform="matrix(12,0,0,12,904.4,33.2)" />
<use xlink:href="#f0_f" transform="matrix(12,0,0,12,913.9,33.2)" />
<use xlink:href="#f0_b" transform="matrix(12,0,0,12,925.5,33.2)" />
<use xlink:href="#f0_b" transform="matrix(12,0,0,12,943.6,33.2)" />
<use xlink:href="#f0_4" transform="matrix(12,0,0,12,955.1,33.2)" />
<use xlink:href="#f0_c" transform="matrix(12,0,0,12,966.5,33.2)" />
<use xlink:href="#f0_b" transform="matrix(12,0,0,12,973.7,33.2)" />
<use xlink:href="#f0_l" transform="matrix(12,0,0,12,985.2,33.2)" />
<use xlink:href="#f0_g" transform="matrix(12,0,0,12,992.8,33.2)" />
<use xlink:href="#f0_12" transform="matrix(12,0,0,12,1009.3,33.2)" />
<use xlink:href="#f0_l" transform="matrix(12,0,0,12,1024.2,33.2)" />
<use xlink:href="#f0_7" transform="matrix(12,0,0,12,1031.4,33.2)" />
<use xlink:href="#f0_4" transform="matrix(12,0,0,12,1042.6,33.2)" />
<use xlink:href="#f0_x" transform="matrix(12,0,0,12,1054.2,33.2)" />
<use xlink:href="#f0_9" transform="matrix(12,0,0,12,47.7,77.6)" />
<use xlink:href="#f0_k" transform="matrix(12,0,0,12,59.3,77.6)" />
<use xlink:href="#f0_g" transform="matrix(12,0,0,12,70.6,77.6)" />
<use xlink:href="#f0_g" transform="matrix(12,0,0,12,80,77.6)" />
<use xlink:href="#f0_12" transform="matrix(12,0,0,12,89.7,77.6)" />
<use xlink:href="#f0_7" transform="matrix(12,0,0,12,104.6,77.6)" />
<use xlink:href="#f0_l" transform="matrix(12,0,0,12,115.9,77.6)" />
<use xlink:href="#f0_h" transform="matrix(12,0,0,12,123.1,77.6)" />
<use xlink:href="#f0_1c" transform="matrix(12,0,0,12,134.9,77.6)" />
<use xlink:href="#f0_u" transform="matrix(12,0,0,12,146.6,77.6)" />
<use xlink:href="#f0_8" transform="matrix(12,0,0,12,152,77.6)" />
<use xlink:href="#f0_8" transform="matrix(12,0,0,12,169.7,77.6)" />
<use xlink:href="#f0_b" transform="matrix(12,0,0,12,187.6,77.6)" />
<use xlink:href="#f0_h" transform="matrix(12,0,0,12,198.8,77.6)" />
<use xlink:href="#f0_d" transform="matrix(12,0,0,12,210.6,77.6)" />
<use xlink:href="#f0_k" transform="matrix(12,0,0,12,215.8,77.6)" />
<use xlink:href="#f0_c" transform="matrix(12,0,0,12,227.1,77.6)" />
<use xlink:href="#f0_b" transform="matrix(12,0,0,12,234.2,77.6)" />
<use xlink:href="#f0_a" transform="matrix(12,0,0,12,245.5,77.6)" />
<use xlink:href="#f0_r" transform="matrix(12,0,0,12,250.7,77.6)" />
<use xlink:href="#f0_g" transform="matrix(12,0,0,12,267.3,77.6)" />
<use xlink:href="#f0_f" transform="matrix(12,0,0,12,276.8,77.6)" />
<use xlink:href="#f0_b" transform="matrix(12,0,0,12,288.4,77.6)" />
<use xlink:href="#f0_12" transform="matrix(12,0,0,12,305.7,77.6)" />
<use xlink:href="#f0_k" transform="matrix(12,0,0,12,320.6,77.6)" />
<use xlink:href="#f0_g" transform="matrix(12,0,0,12,331.9,77.6)" />
<use xlink:href="#f0_d" transform="matrix(12,0,0,12,347.3,77.6)" />
<use xlink:href="#f0_4" transform="matrix(12,0,0,12,352.5,77.6)" />
<use xlink:href="#f0_c" transform="matrix(12,0,0,12,364.1,77.6)" />
<use xlink:href="#f0_d" transform="matrix(12,0,0,12,371.1,77.6)" />
<use xlink:href="#f0_8" transform="matrix(12,0,0,12,376.3,77.6)" />
<use xlink:href="#f0_k" transform="matrix(12,0,0,12,394,77.6)" />
<use xlink:href="#f0_c" transform="matrix(12,0,0,12,405.5,77.6)" />
<use xlink:href="#f0_b" transform="matrix(12,0,0,12,412.7,77.6)" />
<use xlink:href="#f0_h" transform="matrix(12,0,0,12,424,77.6)" />
<use xlink:href="#f0_m" transform="matrix(12,0,0,12,441.5,77.6)" />
<use xlink:href="#f0_r" transform="matrix(12,0,0,12,453.1,77.6)" />
<use xlink:href="#f0_19" transform="matrix(12,0,0,12,469.8,77.6)" />
<use xlink:href="#f0_k" transform="matrix(12,0,0,12,478.6,77.6)" />
<use xlink:href="#f0_6" transform="matrix(12,0,0,12,489.9,77.6)" />
<use xlink:href="#f0_b" transform="matrix(12,0,0,12,500.1,77.6)" />
<use xlink:href="#f0_m" transform="matrix(12,0,0,12,511.6,77.6)" />
<use xlink:href="#f0_7" transform="matrix(12,0,0,12,523,77.6)" />
<use xlink:href="#f0_7" transform="matrix(12,0,0,12,534.2,77.6)" />
<use xlink:href="#f0_1a" transform="matrix(12,0,0,12,545.5,77.6)" />
<use xlink:href="#f0_c" transform="matrix(12,0,0,12,561.9,77.6)" />
<use xlink:href="#f0_f" transform="matrix(12,0,0,12,569,77.6)" />
<use xlink:href="#f0_k" transform="matrix(12,0,0,12,580.6,77.6)" />
<use xlink:href="#f0_c" transform="matrix(12,0,0,12,591.9,77.6)" />
<use xlink:href="#f0_c" transform="matrix(12,0,0,12,605,77.6)" />
<use xlink:href="#f0_f" transform="matrix(12,0,0,12,612,77.6)" />
<use xlink:href="#f0_b" transform="matrix(12,0,0,12,623.6,77.6)" />
<use xlink:href="#f0_9" transform="matrix(12,0,0,12,640.8,77.6)" />
<use xlink:href="#f0_k" transform="matrix(12,0,0,12,652.3,77.6)" />
<use xlink:href="#f0_g" transform="matrix(12,0,0,12,663.7,77.6)" />
<use xlink:href="#f0_g" transform="matrix(12,0,0,12,673.2,77.6)" />
<use xlink:href="#f0_12" transform="matrix(12,0,0,12,682.8,77.6)" />
<use xlink:href="#f0_7" transform="matrix(12,0,0,12,697.8,77.6)" />
<use xlink:href="#f0_l" transform="matrix(12,0,0,12,709,77.6)" />
<use xlink:href="#f0_h" transform="matrix(12,0,0,12,716.3,77.6)" />
<use xlink:href="#f0_g" transform="matrix(12,0,0,12,733.8,77.6)" />
<use xlink:href="#f0_f" transform="matrix(12,0,0,12,743.5,77.6)" />
<use xlink:href="#f0_b" transform="matrix(12,0,0,12,754.9,77.6)" />
<use xlink:href="#f0_f" transform="matrix(12,0,0,12,772.2,77.6)" />
<use xlink:href="#f0_k" transform="matrix(12,0,0,12,783.8,77.6)" />
<use xlink:href="#f0_g" transform="matrix(12,0,0,12,795.1,77.6)" />
<use xlink:href="#f0_b" transform="matrix(12,0,0,12,810.5,77.6)" />
<use xlink:href="#f0_4" transform="matrix(12,0,0,12,821.8,77.6)" />
<use xlink:href="#f0_c" transform="matrix(12,0,0,12,833.4,77.6)" />
<use xlink:href="#f0_b" transform="matrix(12,0,0,12,840.6,77.6)" />
<use xlink:href="#f0_l" transform="matrix(12,0,0,12,851.9,77.6)" />
<use xlink:href="#f0_b" transform="matrix(12,0,0,12,859,77.6)" />
<use xlink:href="#f0_h" transform="matrix(12,0,0,12,870.3,77.6)" />
<use xlink:href="#f0_d" transform="matrix(12,0,0,12,887.9,77.6)" />
<use xlink:href="#f0_g" transform="matrix(12,0,0,12,893.1,77.6)" />
<use xlink:href="#f0_4" transform="matrix(12,0,0,12,908.5,77.6)" />
<use xlink:href="#f0_7" transform="matrix(12,0,0,12,919.9,77.6)" />
<use xlink:href="#f0_c" transform="matrix(12,0,0,12,931.2,77.6)" />
<use xlink:href="#f0_6" transform="matrix(12,0,0,12,944.2,77.6)" />
<use xlink:href="#f0_7" transform="matrix(12,0,0,12,954.4,77.6)" />
<use xlink:href="#f0_l" transform="matrix(12,0,0,12,965.6,77.6)" />
<use xlink:href="#f0_l" transform="matrix(12,0,0,12,972.9,77.6)" />
<use xlink:href="#f0_b" transform="matrix(12,0,0,12,980.1,77.6)" />
<use xlink:href="#f0_6" transform="matrix(12,0,0,12,991.4,77.6)" />
<use xlink:href="#f0_c" transform="matrix(12,0,0,12,1001.8,77.6)" />
<use xlink:href="#f0_1c" transform="matrix(12,0,0,12,1008.8,77.6)" />
<use xlink:href="#f1_q" transform="matrix(12,0,0,12,47.7,135.5)" />
<use xlink:href="#f0_1e" transform="matrix(12,0,0,12,73.9,136.7)" />
<use xlink:href="#f0_f" transform="matrix(12,0,0,12,92.1,136.7)" />
<use xlink:href="#f0_r" transform="matrix(12,0,0,12,103.6,136.7)" />
<use xlink:href="#f0_h" transform="matrix(12,0,0,12,120.2,136.7)" />
<use xlink:href="#f0_7" transform="matrix(12,0,0,12,132,136.7)" />
<use xlink:href="#f0_r" transform="matrix(12,0,0,12,149.1,136.7)" />
<use xlink:href="#f0_7" transform="matrix(12,0,0,12,159.9,136.7)" />
<use xlink:href="#f0_i" transform="matrix(12,0,0,12,171,136.7)" />
<use xlink:href="#f0_c" transform="matrix(12,0,0,12,188.4,136.7)" />
<use xlink:href="#f0_f" transform="matrix(12,0,0,12,195.6,136.7)" />
<use xlink:href="#f0_d" transform="matrix(12,0,0,12,207.1,136.7)" />
<use xlink:href="#f0_4" transform="matrix(12,0,0,12,212.3,136.7)" />
<use xlink:href="#f0_1a" transform="matrix(12,0,0,12,223.9,136.7)" />
<use xlink:href="#f0_c" transform="matrix(12,0,0,12,240.3,136.7)" />
<use xlink:href="#f0_f" transform="matrix(12,0,0,12,247.4,136.7)" />
<use xlink:href="#f0_d" transform="matrix(12,0,0,12,259,136.7)" />
<use xlink:href="#f0_g" transform="matrix(12,0,0,12,264,136.7)" />
<use xlink:href="#f0_f" transform="matrix(12,0,0,12,279.4,136.7)" />
<use xlink:href="#f0_k" transform="matrix(12,0,0,12,291,136.7)" />
<use xlink:href="#f0_9" transform="matrix(12,0,0,12,302.3,136.7)" />
<use xlink:href="#f0_9" transform="matrix(12,0,0,12,313.9,136.7)" />
<use xlink:href="#f0_b" transform="matrix(12,0,0,12,325.4,136.7)" />
<use xlink:href="#f0_4" transform="matrix(12,0,0,12,336.8,136.7)" />
<use xlink:href="#f0_b" transform="matrix(12,0,0,12,348.4,136.7)" />
<use xlink:href="#f0_h" transform="matrix(12,0,0,12,359.7,136.7)" />
<use xlink:href="#f0_1f" transform="matrix(12,0,0,12,371.5,136.7)" />
<use xlink:href="#f1_q" transform="matrix(12,0,0,12,47.7,194.6)" />
<use xlink:href="#f0_1e" transform="matrix(12,0,0,12,73.9,195.7)" />
<use xlink:href="#f0_f" transform="matrix(12,0,0,12,92.1,195.7)" />
<use xlink:href="#f0_b" transform="matrix(12,0,0,12,103.6,195.7)" />
<use xlink:href="#f0_l" transform="matrix(12,0,0,12,115,195.7)" />
<use xlink:href="#f0_b" transform="matrix(12,0,0,12,122,195.7)" />
<use xlink:href="#f0_k" transform="matrix(12,0,0,12,139.3,195.7)" />
<use xlink:href="#f0_l" transform="matrix(12,0,0,12,150.7,195.7)" />
<use xlink:href="#f0_b" transform="matrix(12,0,0,12,157.9,195.7)" />
<use xlink:href="#f0_c" transform="matrix(12,0,0,12,175,195.7)" />
<use xlink:href="#f0_f" transform="matrix(12,0,0,12,182.2,195.7)" />
<use xlink:href="#f0_b" transform="matrix(12,0,0,12,193.8,195.7)" />
<use xlink:href="#f0_i" transform="matrix(12,0,0,12,211,195.7)" />
<use xlink:href="#f0_g" transform="matrix(12,0,0,12,222.5,195.7)" />
<use xlink:href="#f0_b" transform="matrix(12,0,0,12,232,195.7)" />
<use xlink:href="#f0_l" transform="matrix(12,0,0,12,243.4,195.7)" />
<use xlink:href="#f0_4" transform="matrix(12,0,0,12,250.8,195.7)" />
<use xlink:href="#f0_k" transform="matrix(12,0,0,12,262.4,195.7)" />
<use xlink:href="#f0_8" transform="matrix(12,0,0,12,273.6,195.7)" />
<use xlink:href="#f0_b" transform="matrix(12,0,0,12,291.4,195.7)" />
<use xlink:href="#f0_k" transform="matrix(12,0,0,12,308.6,195.7)" />
<use xlink:href="#f0_4" transform="matrix(12,0,0,12,319.9,195.7)" />
<use xlink:href="#f0_h" transform="matrix(12,0,0,12,331.5,195.7)" />
<use xlink:href="#f0_9" transform="matrix(12,0,0,12,349.1,195.7)" />
<use xlink:href="#f0_k" transform="matrix(12,0,0,12,360.7,195.7)" />
<use xlink:href="#f0_g" transform="matrix(12,0,0,12,372,195.7)" />
<use xlink:href="#f0_g" transform="matrix(12,0,0,12,381.6,195.7)" />
<use xlink:href="#f0_12" transform="matrix(12,0,0,12,391.1,195.7)" />
<use xlink:href="#f0_7" transform="matrix(12,0,0,12,406.1,195.7)" />
<use xlink:href="#f0_l" transform="matrix(12,0,0,12,417.3,195.7)" />
<use xlink:href="#f0_h" transform="matrix(12,0,0,12,424.7,195.7)" />
<use xlink:href="#f0_e" transform="matrix(12,0,0,12,442.2,195.7)" />
<use xlink:href="#f0_7" transform="matrix(12,0,0,12,448.7,195.7)" />
<use xlink:href="#f0_l" transform="matrix(12,0,0,12,459.8,195.7)" />
<use xlink:href="#f0_19" transform="matrix(12,0,0,12,473.4,195.7)" />
<use xlink:href="#f0_k" transform="matrix(12,0,0,12,482.2,195.7)" />
<use xlink:href="#f0_6" transform="matrix(12,0,0,12,493.5,195.7)" />
<use xlink:href="#f0_b" transform="matrix(12,0,0,12,503.7,195.7)" />
<use xlink:href="#f0_m" transform="matrix(12,0,0,12,515.2,195.7)" />
<use xlink:href="#f0_7" transform="matrix(12,0,0,12,526.6,195.7)" />
<use xlink:href="#f0_7" transform="matrix(12,0,0,12,537.8,195.7)" />
<use xlink:href="#f0_1a" transform="matrix(12,0,0,12,548.9,195.7)" />
<use xlink:href="#f0_a" transform="matrix(12,0,0,12,565.4,195.7)" />
<use xlink:href="#f0_7" transform="matrix(12,0,0,12,570.6,195.7)" />
<use xlink:href="#f0_x" transform="matrix(12,0,0,12,581.7,195.7)" />
<use xlink:href="#f0_d" transform="matrix(12,0,0,12,593.5,195.7)" />
<use xlink:href="#f0_4" transform="matrix(12,0,0,12,598.6,195.7)" />
<use xlink:href="#f0_g" transform="matrix(12,0,0,12,616,195.7)" />
<use xlink:href="#f0_c" transform="matrix(12,0,0,12,625.5,195.7)" />
<use xlink:href="#f0_7" transform="matrix(12,0,0,12,632.7,195.7)" />
<use xlink:href="#f0_l" transform="matrix(12,0,0,12,643.9,195.7)" />
<use xlink:href="#f0_b" transform="matrix(12,0,0,12,651,195.7)" />
<use xlink:href="#f0_h" transform="matrix(12,0,0,12,662.3,195.7)" />
<use xlink:href="#f0_1f" transform="matrix(12,0,0,12,674.1,195.7)" />
<use xlink:href="#f1_q" transform="matrix(12,0,0,12,47.7,253.6)" />
<use xlink:href="#f0_18" transform="matrix(12,0,0,12,73.9,254.7)" />
<use xlink:href="#f0_7" transform="matrix(12,0,0,12,87.7,254.7)" />
<use xlink:href="#f0_12" transform="matrix(12,0,0,12,98.8,254.7)" />
<use xlink:href="#f0_h" transform="matrix(12,0,0,12,119.8,254.7)" />
<use xlink:href="#f0_7" transform="matrix(12,0,0,12,131.5,254.7)" />
<use xlink:href="#f0_b" transform="matrix(12,0,0,12,142.7,254.7)" />
<use xlink:href="#f0_g" transform="matrix(12,0,0,12,154,254.7)" />
<use xlink:href="#f0_19" transform="matrix(12,0,0,12,169.4,254.7)" />
<use xlink:href="#f0_k" transform="matrix(12,0,0,12,178.2,254.7)" />
<use xlink:href="#f0_6" transform="matrix(12,0,0,12,189.5,254.7)" />
<use xlink:href="#f0_b" transform="matrix(12,0,0,12,199.7,254.7)" />
<use xlink:href="#f0_m" transform="matrix(12,0,0,12,211.2,254.7)" />
<use xlink:href="#f0_7" transform="matrix(12,0,0,12,222.6,254.7)" />
<use xlink:href="#f0_7" transform="matrix(12,0,0,12,233.9,254.7)" />
<use xlink:href="#f0_1a" transform="matrix(12,0,0,12,245.1,254.7)" />
<use xlink:href="#f0_1a" transform="matrix(12,0,0,12,261.5,254.7)" />
<use xlink:href="#f0_4" transform="matrix(12,0,0,12,272.1,254.7)" />
<use xlink:href="#f0_7" transform="matrix(12,0,0,12,283.7,254.7)" />
<use xlink:href="#f0_12" transform="matrix(12,0,0,12,294.8,254.7)" />
<use xlink:href="#f0_c" transform="matrix(12,0,0,12,315.8,254.7)" />
<use xlink:href="#f0_f" transform="matrix(12,0,0,12,322.9,254.7)" />
<use xlink:href="#f0_k" transform="matrix(12,0,0,12,334.4,254.7)" />
<use xlink:href="#f0_c" transform="matrix(12,0,0,12,345.8,254.7)" />
<use xlink:href="#f0_z" transform="matrix(12,0,0,12,358.8,254.7)" />
<use xlink:href="#f0_i" transform="matrix(12,0,0,12,370.6,254.7)" />
<use xlink:href="#f0_g" transform="matrix(12,0,0,12,382,254.7)" />
<use xlink:href="#f0_d" transform="matrix(12,0,0,12,391.6,254.7)" />
<use xlink:href="#f0_b" transform="matrix(12,0,0,12,396.7,254.7)" />
<use xlink:href="#f0_b" transform="matrix(12,0,0,12,413.9,254.7)" />
<use xlink:href="#f0_4" transform="matrix(12,0,0,12,425.4,254.7)" />
<use xlink:href="#f0_c" transform="matrix(12,0,0,12,436.8,254.7)" />
<use xlink:href="#f0_b" transform="matrix(12,0,0,12,444,254.7)" />
<use xlink:href="#f0_l" transform="matrix(12,0,0,12,455.3,254.7)" />
<use xlink:href="#f0_b" transform="matrix(12,0,0,12,462.5,254.7)" />
<use xlink:href="#f0_h" transform="matrix(12,0,0,12,473.8,254.7)" />
<use xlink:href="#f0_k" transform="matrix(12,0,0,12,491.5,254.7)" />
<use xlink:href="#f0_12" transform="matrix(12,0,0,12,508.7,254.7)" />
<use xlink:href="#f0_l" transform="matrix(12,0,0,12,523.7,254.7)" />
<use xlink:href="#f0_7" transform="matrix(12,0,0,12,530.9,254.7)" />
<use xlink:href="#f0_4" transform="matrix(12,0,0,12,542,254.7)" />
<use xlink:href="#f0_x" transform="matrix(12,0,0,12,553.6,254.7)" />
<use xlink:href="#f0_9" transform="matrix(12,0,0,12,571.2,254.7)" />
<use xlink:href="#f0_k" transform="matrix(12,0,0,12,582.6,254.7)" />
<use xlink:href="#f0_g" transform="matrix(12,0,0,12,594.1,254.7)" />
<use xlink:href="#f0_g" transform="matrix(12,0,0,12,603.5,254.7)" />
<use xlink:href="#f0_12" transform="matrix(12,0,0,12,613.1,254.7)" />
<use xlink:href="#f0_7" transform="matrix(12,0,0,12,628.1,254.7)" />
<use xlink:href="#f0_l" transform="matrix(12,0,0,12,639.3,254.7)" />
<use xlink:href="#f0_h" transform="matrix(12,0,0,12,646.6,254.7)" />
<use xlink:href="#f0_1f" transform="matrix(12,0,0,12,658.4,254.7)" />
<use xlink:href="#f0_16" transform="matrix(12,0,0,12,47.7,313.8)" />
<use xlink:href="#f0_d" transform="matrix(12,0,0,12,61.9,313.8)" />
<use xlink:href="#f0_g" transform="matrix(12,0,0,12,66.9,313.8)" />
<use xlink:href="#f0_6" transform="matrix(12,0,0,12,76.5,313.8)" />
<use xlink:href="#f0_i" transform="matrix(12,0,0,12,86.7,313.8)" />
<use xlink:href="#f0_g" transform="matrix(12,0,0,12,98.2,313.8)" />
<use xlink:href="#f0_g" transform="matrix(12,0,0,12,107.8,313.8)" />
<use xlink:href="#f0_1c" transform="matrix(12,0,0,12,117.3,313.8)" />
</g>
</g>
<defs>
	<path d="M456.8,-21.3c0,0,-77.9,0,-166.5,16.8c0,0,-90.2,18.3,-186.4,53.4l0,154.3c0,0,91.7,-50.4,180.3,-76.4c0,0,88.6,-27.5,172.6,-27.5c0,0,129.9,0,200.1,50.4c0,0,70.3,52,70.3,145.2c0,0,0,82.5,-50.4,128.3c0,0,-50.4,47.4,-166.5,70.3l-91.7,16.8c0,0,-168,33.6,-242.9,105.4c0,0,-76.4,71.8,-76.4,200.1c0,0,0,146.7,103.9,232.3c0,0,105.4,85.5,287.2,85.5c0,0,79.5,0,160.4,-13.7c0,0,81,-15.3,166.6,-42.8l0,-148.2c0,0,-85.6,41.2,-162,61.1c0,0,-76.4,21.4,-146.6,21.4c0,0,-123.8,0,-189.5,-47.4c0,0,-67.2,-48.9,-67.2,-137.5c0,0,0,-73.3,44.3,-110c0,0,44.3,-38.2,168,-61.1l90.2,-19.8c0,0,169.6,-32.1,249,-111.6c0,0,81,-80.9,81,-216.9c0,0,0,-162,-108.5,-244.5c0,0,-108.5,-83.9,-319.3,-83.9Z" 
	id="f0_z"
	transform="scale(0.001,-0.001)" />

	<path d="M421.7,-21.3c0,0,-143.6,0,-218.5,88.5L128.3,328.5l0,505.7l137.5,0l0,-499.6c0,0,0,-119.2,45.9,-178.8c0,0,47.3,-59.5,139,-59.5c0,0,111.5,0,175.7,70.2c0,0,65.7,71.8,65.7,194.1l0,473.6l136,0L828.1,0l-136,0l0,126.8c0,0,-50.4,-74.9,-116.1,-111.5c0,0,-67.2,-36.6,-154.3,-36.6Z" 
	id="f0_i"
	transform="scale(0.001,-0.001)" />

	<path d="M375.8,-21.3c0,0,-67.2,0,-140.5,12.2c0,0,-73.4,12.2,-152.8,39.7l0,140.5c0,0,76.4,-39.7,149.7,-58c0,0,73.4,-19.9,146.7,-19.9c0,0,96.2,0,148.2,32.1c0,0,51.9,33.6,51.9,94.7c0,0,0,55,-36.6,84c0,0,-38.2,30.6,-165,58.1l-48.9,12.2c0,0,-126.8,26,-183.4,81c0,0,-56.5,56.5,-56.5,152.8c0,0,0,119.1,82.5,183.3c0,0,84,64.2,238.3,64.2c0,0,74.9,0,142.1,-10.7c0,0,67.3,-12.3,123.8,-35.2l0,-129.8c0,0,-58.1,30.5,-120.7,44.3c0,0,-62.7,15.2,-129.9,15.2c0,0,-102.3,0,-152.8,-30.5c0,0,-50.4,-32.1,-50.4,-94.7c0,0,0,-47.4,35.2,-74.9c0,0,36.6,-27.5,148.2,-51.9l45.8,-10.7c0,0,146.7,-30.6,207.8,-87.1c0,0,62.6,-58.1,62.6,-160.4c0,0,0,-116.1,-91.7,-183.4c0,0,-93.1,-67.1,-253.6,-67.1Z" 
	id="f0_g"
	transform="scale(0.001,-0.001)" />

	<path d="M143,0l0,834l138,0L281,0Zm0,985l0,174l138,0l0,-174Z" 
	id="f0_d"
	transform="scale(0.001,-0.001)" />

	<path d="M230.7,490.4l490.4,1.5c0,0,-1.5,111.6,-62.6,178.8c0,0,-62.7,67.2,-163.5,67.2c0,0,-114.6,0,-183.3,-64.1c0,0,-70.3,-65.7,-81,-183.4ZM516.4,-21.3c0,0,-198.6,0,-314.7,116C201.7,94.7,84,210.8,84,409.4c0,0,0,204.8,110,325.5c0,0,111.6,120.7,299.5,120.7c0,0,168,0,265.8,-108.5c0,0,99.3,-110,99.3,-296.4l0,-67.2l-632.5,0c0,0,9.2,-140.6,85.6,-213.9c0,0,76.4,-74.9,213.9,-74.9c0,0,77.9,0,152.7,18.4c0,0,74.9,19.8,148.2,58l0,-129.8c0,0,-74.8,-30.6,-151.2,-45.8c0,0,-77.9,-16.8,-158.9,-16.8Z" 
	id="f0_b"
	transform="scale(0.001,-0.001)" />

	<path d="M420.1,0c0,0,-158.8,0,-218.4,58.1c0,0,-61.1,59.5,-61.1,216.9l0,453.8l-100.9,0l0,105.4l100.9,0l0,238.3l139,0l0,-238.3l282.6,0l0,-105.4l-282.6,0l0,-453.8c0,0,0,-102.4,27.5,-131.4c0,0,27.5,-29,113,-29l142.1,0L562.2,0Z" 
	id="f0_c"
	transform="scale(0.001,-0.001)" />

	<path d="M137.5,0l0,834.2l139,0l0,-129.9c0,0,42.8,76.4,111.6,113.1c0,0,70.2,38.2,169.5,38.2c0,0,13.8,0,30.6,-1.6c0,0,16.8,-3,38.2,-6.1l1.5,-142.1c0,0,-24.4,13.8,-50.4,19.9c0,0,-27.5,6.1,-61.1,6.1c0,0,-116.1,0,-177.2,-74.9c0,0,-62.7,-76.3,-62.7,-216.9l0,-440Z" 
	id="f0_l"
	transform="scale(0.001,-0.001)" />

	<path d="M120.7,-317.7l0,116.1l79.4,0c0,0,56.6,0,87.1,26c0,0,32.1,27.5,70.3,126.8l24.4,61L44.3,834.2l145.1,0L450.7,181.8L711.9,834.2l146.7,0L490.4,-76.3c0,0,-58,-149.7,-113,-195.5c0,0,-55,-45.9,-148.2,-45.9Z" 
	id="f0_r"
	transform="scale(0.001,-0.001)" />

	<path d="M137.5,0l0,834.2l139,0l0,-129.9c0,0,48.9,76.4,114.6,113.1c0,0,67.2,38.2,154.3,38.2c0,0,145.2,0,218.5,-88.7c0,0,73.3,-90.1,73.3,-262.7L837.2,0L699.7,0l0,499.6c0,0,0,117.6,-45.8,175.7c0,0,-45.8,59.6,-139,59.6c0,0,-110,0,-174.2,-70.3c0,0,-64.2,-70.3,-64.2,-192.5L276.5,0Z" 
	id="f0_4"
	transform="scale(0.001,-0.001)" />

	<path d="M458.3,114.6c0,0,111.6,0,172.7,81c0,0,62.6,82.5,62.6,230.7c0,0,0,149.7,-61.1,230.6c0,0,-62.6,82.5,-174.2,82.5c0,0,-110,0,-171.1,-80.9c0,0,-62.6,-82.5,-62.6,-232.2c0,0,0,-148.2,61.1,-229.2c0,0,62.6,-82.5,172.6,-82.5ZM444.6,-317.7c0,0,-71.8,0,-136,10.7c0,0,-64.2,12.2,-123.7,33.6l0,134.5c0,0,59.5,-33.6,117.6,-48.9c0,0,59.6,-15.3,120.7,-15.3c0,0,136,0,203.2,70.3c0,0,67.2,70.3,67.2,210.7l0,68.8c0,0,-42.8,-74.9,-108.5,-110C585.1,36.7,517.9,0,424.7,0c0,0,-152.8,0,-245.9,116.1c0,0,-94.8,117.7,-94.8,310.2c0,0,0,194,93.2,311.6c0,0,94.7,117.7,247.5,117.7c0,0,93.2,0,158.9,-36.7c0,0,67.2,-36.7,110,-111.5l0,126.8l136,0l0,-731.8c0,0,0,-210.8,-94.7,-314.7c0,0,-94.8,-105.4,-290.3,-105.4Z" 
	id="f0_x"
	transform="scale(0.001,-0.001)" />

	<path d="M467.5,94.7c0,0,108.5,0,172.6,85.6c0,0,64.2,87.1,64.2,235.3c0,0,0,149.7,-64.2,235.2c0,0,-64.1,87.1,-172.6,87.1c0,0,-111.5,0,-175.7,-85.5c0,0,-64.2,-85.6,-64.2,-236.8c0,0,0,-149.8,64.2,-235.3c0,0,64.2,-85.6,175.7,-85.6Zm0,-116c0,0,-180.3,0,-281.1,116C186.4,94.7,84,210.8,84,415.6c0,0,0,206.2,100.9,322.3c0,0,102.3,117.7,282.6,117.7c0,0,178.8,0,281.1,-116.2c0,0,102.4,-117.6,102.4,-323.8c0,0,0,-204.8,-102.4,-320.9c0,0,-102.3,-116,-281.1,-116Z" 
	id="f0_7"
	transform="scale(0.001,-0.001)" />

	<path d="M407.9,93.2c0,0,113.1,0,181.8,79.4c0,0,70.3,81,70.3,215.5l0,30.5l-137.5,0c0,0,-166.5,0,-230.7,-36.7c0,0,-64.2,-38.1,-64.2,-129.8c0,0,0,-73.3,47.4,-116.1c0,0,48.9,-42.8,132.9,-42.8ZM371.3,-21.3c0,0,-128.4,0,-203.2,71.7c0,0,-76.4,71.8,-76.4,192.5c0,0,0,140.6,93.2,212.4c0,0,94.7,71.8,282.6,71.8l192.5,0l0,13.7c0,0,0,94.8,-62.6,145.2c0,0,-62.7,51.9,-175.7,51.9c0,0,-71.8,0,-139.1,-16.8c0,0,-67.2,-16.8,-129.8,-51.9l0,126.8c0,0,74.8,30.5,145.1,44.3c0,0,71.8,15.3,139,15.3c0,0,180.3,0,268.9,-93.2c0,0,90.2,-94.8,90.2,-285.7L796,0L660,0l0,126.8c0,0,-47.4,-76.4,-117.6,-111.5c0,0,-70.3,-36.6,-171.1,-36.6Z" 
	id="f0_k"
	transform="scale(0.001,-0.001)" />

	<path d="M495,-21.3c0,0,-189.4,0,-299.4,117.6C195.6,96.3,84,215.4,84,415.6c0,0,0,204.7,111.6,322.3c0,0,113,117.7,308.6,117.7c0,0,62.6,0,122.2,-13.8c0,0,61.1,-13.7,117.6,-39.7l0,-128.3c0,0,-58,32,-116.1,47.3c0,0,-58,16.8,-119.1,16.8c0,0,-133,0,-206.3,-84c0,0,-74.9,-84,-74.9,-238.3c0,0,0,-152.8,73.4,-236.8c0,0,74.8,-84.1,207.8,-84.1c0,0,61.1,0,119.1,15.3c0,0,58.1,16.8,116.1,48.9L744,30.6c0,0,-56.5,-26,-117.6,-38.1c0,0,-62.6,-13.8,-131.4,-13.8Z" 
	id="f0_6"
	transform="scale(0.001,-0.001)" />

	<path d="M149,0l0,1113l640,0l0,-128l-490,0l0,-327l441,0l0,-127l-441,0L299,0Z" 
	id="f0_19"
	transform="scale(0.001,-0.001)" />

	<path d="M508.8,93.2c0,0,110,0,171.1,85.6c0,0,62.6,85.5,62.6,236.8c0,0,0,152.7,-61.1,238.3c0,0,-62.6,85.5,-172.6,85.5c0,0,-108.5,0,-169.6,-85.5c0,0,-62.7,-85.6,-62.7,-238.3c0,0,0,-151.3,61.1,-236.8c0,0,62.7,-85.6,171.2,-85.6ZM542.4,-21.3c0,0,-91.7,0,-157.4,35.1c0,0,-65.7,36.6,-108.5,111.5L276.5,0l-139,0l0,1159.6l139,0l0,-452.2c0,0,42.8,74.8,108.5,111.5c0,0,65.7,36.7,157.4,36.7c0,0,152.7,0,247.5,-120.7c0,0,96.2,-122.3,96.2,-319.3c0,0,0,-195.6,-94.7,-316.3c0,0,-96.3,-120.6,-249,-120.6Z" 
	id="f0_m"
	transform="scale(0.001,-0.001)" />

	<path d="M137.5,0l0,1159.6l139,0l0,-684.5L686,834.2l174.1,0L417.1,444.6L880,0L699.7,0L276.5,407.9L276.5,0Z" 
	id="f0_1a"
	transform="scale(0.001,-0.001)" />

	<path d="M357.5,0L44.3,834.2l145.1,0L450.7,132.9L711.9,834.2l146.7,0L543.9,0Z" 
	id="f0_q"
	transform="scale(0.001,-0.001)" />

	<path d="M137.5,0l0,1159.6l139,0l0,-455.3c0,0,48.9,76.4,114.6,113.1c0,0,67.2,38.2,154.3,38.2c0,0,145.2,0,218.5,-88.7c0,0,73.3,-90.1,73.3,-262.7L837.2,0L699.7,0l0,499.6c0,0,0,117.6,-45.8,175.7c0,0,-45.8,59.6,-139,59.6c0,0,-110,0,-174.2,-70.3c0,0,-64.2,-70.3,-64.2,-192.5L276.5,0Z" 
	id="f0_f"
	transform="scale(0.001,-0.001)" />

	<path d="M458.3,93.2c0,0,110,0,172.7,85.6c0,0,62.6,85.5,62.6,236.8c0,0,0,152.7,-62.6,238.3c0,0,-62.7,85.5,-172.7,85.5c0,0,-108.4,0,-171.1,-85.5c0,0,-62.6,-85.6,-62.6,-238.3c0,0,0,-151.3,62.6,-236.8c0,0,62.7,-85.6,171.1,-85.6ZM424.7,-21.3c0,0,-151.2,0,-245.9,120.6C178.8,99.3,84,220,84,415.6c0,0,0,197,94.8,317.7c0,0,94.7,122.3,245.9,122.3c0,0,93.2,0,158.9,-36.7c0,0,65.7,-36.7,110,-111.5l0,452.2l136,0L829.6,0l-136,0l0,125.3c0,0,-44.3,-74.9,-110,-110c0,0,-65.7,-36.6,-158.9,-36.6Z" 
	id="f0_h"
	transform="scale(0.001,-0.001)" />

	<path d="M282.6,0L62.6,834.2l137.5,0L372.8,183.3L542.4,834.2l161.9,0L876.9,183.3l171.2,650.9l135.9,0L965.6,0l-162,0L624.9,684.4L444.6,0Z" 
	id="f0_12"
	transform="scale(0.001,-0.001)" />

	<path d="M165,0l0,728.8l-131.4,0l0,105.4l131.4,0l0,58c0,0,0,140.6,64.2,203.2c0,0,65.7,64.2,207.7,64.2l129.9,0l0,-113.1l-131.4,0c0,0,-74.8,0,-102.3,-30.5c0,0,-29.1,-30.6,-29.1,-107l0,-74.8l226.1,0l0,-105.4l-226.1,0L304,0Z" 
	id="f0_e"
	transform="scale(0.001,-0.001)" />

	<path d="M-77.8,-305.5l0,126.8l47.3,0c0,0,97.7,0,139,56.6c0,0,41.2,56.5,41.2,198.5l0,1037.4l149.7,0l0,-1037.4c0,0,0,-200.1,-76.3,-290.2c0,0,-76.4,-91.7,-244.4,-91.7Z" 
	id="f0_1b"
	transform="scale(0.001,-0.001)" />

	<path d="M143,0l0,1159l138,0L281,0Z" 
	id="f0_a"
	transform="scale(0.001,-0.001)" />

	<path d="M161,0l0,189l158,0L319,0Z" 
	id="f0_1c"
	transform="scale(0.001,-0.001)" />

	<path d="M149.7,0l0,1113.8l224.6,0L658.5,354.4l285.7,759.4l224.6,0L1168.8,0L1020.6,0l0,977.8L733.3,213.9l-151.2,0L294.9,977.8L294.9,0Z" 
	id="f0_1d"
	transform="scale(0.001,-0.001)" />

	<path d="M508.8,93.2c0,0,110,0,171.1,85.6c0,0,62.6,85.5,62.6,236.8c0,0,0,152.7,-61.1,238.3c0,0,-62.6,85.5,-172.6,85.5c0,0,-108.5,0,-169.6,-85.5c0,0,-62.7,-85.6,-62.7,-238.3c0,0,0,-151.3,61.1,-236.8c0,0,62.7,-85.6,171.2,-85.6ZM137.5,-317.7l0,1151.9l139,0l0,-126.8c0,0,42.8,74.8,108.5,111.5c0,0,65.7,36.7,157.4,36.7c0,0,152.7,0,247.5,-120.7c0,0,96.2,-122.3,96.2,-319.3c0,0,0,-195.6,-94.7,-316.3c0,0,-96.3,-120.6,-249,-120.6c0,0,-91.7,0,-157.4,35.1c0,0,-65.7,36.6,-108.5,111.5l0,-443Z" 
	id="f0_9"
	transform="scale(0.001,-0.001)" />

	<path d="M149,0l0,1113l150,0L299,0Z" 
	id="f0_u"
	transform="scale(0.001,-0.001)" />

	<path d="M137.5,0l0,834.2l139,0l0,-129.9c0,0,45.9,77.9,111.6,114.6c0,0,65.7,36.7,155.8,36.7c0,0,91.7,0,154.3,-45.9c0,0,64.2,-47.3,96.2,-135.9c0,0,50.5,93.1,122.3,137.5c0,0,71.8,44.3,168,44.3c0,0,131.4,0,201.7,-91.7c0,0,71.8,-91.7,71.8,-259.7L1358.2,0l-139,0l0,499.6c0,0,0,119.2,-41.3,177.2c0,0,-42.8,58.1,-129.8,58.1c0,0,-107,0,-168.1,-70.3c0,0,-62.6,-70.3,-62.6,-192.5L817.4,0L678.3,0l0,499.6c0,0,0,120.7,-41.2,177.2c0,0,-42.8,58.1,-131.4,58.1c0,0,-105.4,0,-166.5,-70.3c0,0,-62.7,-71.8,-62.7,-192.5L276.5,0Z" 
	id="f0_8"
	transform="scale(0.001,-0.001)" />

	<path d="M264.3,297.9c0,0,-42.8,0,-79.4,16.8c0,0,-36.7,16.8,-64.2,44.3c0,0,-29,29.1,-44.3,67.3c0,0,-16.8,38.1,-16.8,82.5c0,0,0,41.2,15.3,77.9c0,0,16.8,38.2,44.3,65.7c0,0,29,27.5,65.7,42.7c0,0,36.6,16.8,79.4,16.8c0,0,42.8,0,81,-15.2c0,0,38.2,-16.8,65.7,-44.3c0,0,29,-27.5,45.8,-64.2c0,0,16.8,-38.2,16.8,-79.4c0,0,0,-44.4,-16.8,-82.5c0,0,-16.8,-38.2,-44.3,-65.7c0,0,-29,-29.1,-67.2,-45.9c0,0,-38.2,-16.8,-81,-16.8Z" 
	id="f1_q"
	transform="scale(0.001,-0.001)" />

	<path d="M328.5,0L50.4,1113.8l151.3,0L436.9,171.1l232.3,942.7l169.6,0L1074,171.1l232.3,942.7l154.3,0L1179.4,0L990,0L756.3,965.6L517.9,0Z" 
	id="f0_1e"
	transform="scale(0.001,-0.001)" />

	<path d="M290.3,0l0,189.4l152.8,0L443.1,0Zm4.6,297.9l0,114.6c0,0,0,76.4,21.4,123.8c0,0,21.3,48.8,88.6,113l67.2,67.2c0,0,41.2,39.8,59.6,74.9c0,0,19.8,35.1,19.8,70.3c0,0,0,67.2,-48.9,108.4c0,0,-48.8,41.3,-128.3,41.3c0,0,-59.6,0,-125.3,-26c0,0,-67.2,-27.5,-140.5,-76.4l0,140.6c0,0,70.3,41.2,142.1,62.6c0,0,71.8,21.4,149.7,21.4c0,0,137.5,0,220,-71.8c0,0,82.5,-73.3,82.5,-192.5c0,0,0,-56.5,-26,-106.9c0,0,-27.5,-52,-94.7,-116.1L516.4,582.1c0,0,-35.1,-35.2,-48.9,-53.5c0,0,-15.3,-19.8,-21.4,-39.7c0,0,-3,-15.3,-4.6,-36.7c0,0,-3,-22.9,-3,-62.6l0,-91.7Z" 
	id="f0_1f"
	transform="scale(0.001,-0.001)" />

	<path d="M149,0l0,1113l150,0l0,-457l548,0l0,457l150,0L997,0L847,0l0,530l-548,0L299,0Z" 
	id="f0_18"
	transform="scale(0.001,-0.001)" />

	<path d="M481.3,123.8c0,0,230.6,0,337.6,103.8c0,0,106.9,103.9,106.9,330c0,0,0,223.1,-106.9,327c0,0,-107,103.9,-337.6,103.9l-181.9,0l0,-864.7ZM149.7,0l0,1113.8l308.6,0c0,0,323.9,0,475.2,-134.5c0,0,151.2,-136,151.2,-421.7c0,0,0,-288.7,-151.2,-423.2C933.5,134.4,780.7,0,458.3,0Z" 
	id="f0_16"
	transform="scale(0.001,-0.001)" />


</defs>
</svg>