<?xml version="1.0" encoding="UTF-8" standalone="no"?>
<!DOCTYPE svg PUBLIC "-//W3C//DTD SVG 1.1//EN"
"http://www.w3.org/Graphics/SVG/1.1/DTD/svg11.dtd">
<svg viewBox="0 0 1100 825" version="1.1" xmlns="http://www.w3.org/2000/svg" xmlns:xlink="http://www.w3.org/1999/xlink">
<defs>
<style type="text/css"><![CDATA[
.g5_110{
fill: none;
stroke: #000000;
stroke-width: 2;
stroke-linecap: butt;
stroke-linejoin: miter;
stroke-miterlimit: 7;
}
.g2_110{
fill: #418AB3;
}
.g4_110{
}
.g6_110{
fill: none;
stroke: #000000;
stroke-width: 1;
stroke-linecap: butt;
stroke-linejoin: miter;
stroke-miterlimit: 7;
}
.g3_110{
fill: none;
stroke: #306684;
stroke-width: 2;
stroke-linecap: butt;
stroke-linejoin: miter;
stroke-miterlimit: 7;
}
.g7_110{
fill: none;
stroke: #000000;
stroke-width: 1;
stroke-linecap: butt;
stroke-linejoin: miter;
}
.g1_110{
fill: #FFFFFF;
}
]]></style>
</defs>
<path fill-rule="evenodd" d="M0,0L1100,0l0,825L0,825L0,0Z" class="g1_110" />
<path fill-rule="evenodd" d="M0,0L1100,0l0,825L0,825L0,0Z" class="g1_110" />
<image x="753" y="777" width="303" height="38" xlink:href="img/1.png" />
<path fill-rule="evenodd" d="M528,179l132,0l0,75l-132,0l0,-75Z" class="g2_110" />
<path d="M528,179l132,0l0,75l-132,0l0,-75Z" class="g3_110" />
<path fill-rule="evenodd" d="M812,179l132,0l0,75l-132,0l0,-75Z" class="g2_110" />
<path d="M812,179l132,0l0,75l-132,0l0,-75Z" class="g3_110" />
<path fill-rule="evenodd" d="M791.4,217.1l10.7,-9.2l10.8,9.2l-10.8,9.2l-10.7,-9.2Z" class="g4_110" />
<path d="M791.4,217.1l10.7,-9.2l10.8,9.2l-10.8,9.2l-10.7,-9.2Z" class="g5_110" />
<path d="M660.5,217.5l131,0" class="g6_110" />
<path fill-rule="evenodd" d="M266,181l131,0l0,76l-131,0l0,-76Z" class="g2_110" />
<path d="M266,181l131,0l0,76l-131,0l0,-76Z" class="g3_110" />
<path d="M510,219.4l9.3,-7.5l9.5,7.5l-9.5,7.5L510,219.4Z" class="g5_110" />
<path d="M510,219.4L397.5,219.1" class="g6_110" />
<path fill-rule="evenodd" d="M39,181l131,0l0,76L39,257l0,-76Z" class="g2_110" />
<path d="M39,181l131,0l0,76L39,257l0,-76Z" class="g3_110" />
<path fill-rule="evenodd" d="M266,323l131,0l0,76l-131,0l0,-76Z" class="g2_110" />
<path d="M266,323l131,0l0,76l-131,0l0,-76Z" class="g3_110" />
<path fill-rule="evenodd" d="M529,323l132,0l0,76l-132,0l0,-76Z" class="g2_110" />
<path d="M529,323l132,0l0,76l-132,0l0,-76Z" class="g3_110" />
<path d="M529.5,361.5l-124,0" class="g7_110" />
<path fill-rule="evenodd" d="M397.5,361.6l9,-4.6l0,9.2l-9,-4.6Z" class="g4_110" />
<path fill-rule="evenodd" d="M422,371.6l-24.5,-10L422,351.5l0,20.1Z" class="g1_110" />
<path d="M422,371.6l-24.5,-10L422,351.5l0,20.1Z" class="g5_110" />
<path d="M595.5,275.9l-9.1,-10.5l9.1,-10.6l9,10.6l-9,10.5Z" class="g5_110" />
<path d="M595.5,275.5l0,48" class="g6_110" />
<path fill-rule="evenodd" d="M812,323l132,0l0,76l-132,0l0,-76Z" class="g2_110" />
<path d="M812,323l132,0l0,76l-132,0l0,-76Z" class="g3_110" />
<path d="M661.2,361.6l127.3,-0.1" class="g6_110" />
<path fill-rule="evenodd" d="M788.5,351.7l24.4,9.9l-24.4,10l0,-19.9Z" class="g1_110" />
<path d="M788.5,351.7l24.4,9.9l-24.4,10l0,-19.9Z" class="g5_110" />
<path d="M878.6,275.9l-9.1,-10.5l9.1,-10.6l9,10.6l-9,10.5Z" class="g5_110" />
<path d="M878.5,275.5l0,48" class="g6_110" />
<path fill-rule="evenodd" d="M812,27l131,0l0,75l-131,0l0,-75Z" class="g2_110" />
<path d="M812,27l131,0l0,75l-131,0l0,-75Z" class="g3_110" />
<path fill-rule="evenodd" d="M537,27l131,0l0,76l-131,0l0,-76Z" class="g2_110" />
<path d="M537,27l131,0l0,76l-131,0l0,-76Z" class="g3_110" />
<path fill-rule="evenodd" d="M786.8,56.1l24.5,9.7L786.8,75.9l0,-19.8Z" class="g1_110" />
<path d="M786.8,56.1l24.5,9.7L786.8,75.9l0,-19.8Z" class="g5_110" />
<path d="M668.6,65.7l118.1,0.1" class="g6_110" />
<path fill-rule="evenodd" d="M812,438l132,0l0,75l-132,0l0,-75Z" class="g2_110" />
<path d="M812,438l132,0l0,75l-132,0l0,-75Z" class="g3_110" />
<path d="M878.5,417.5l0,21" class="g6_110" />
<path fill-rule="evenodd" d="M867.5,417.5l11.1,-18.1l11,18.1l-22.1,0Z" class="g1_110" />
<path d="M867.5,417.5l11.1,-18.1l11,18.1l-22.1,0Z" class="g5_110" />
<path d="M397.5,525.5l607,0l0,-461l-54,0" class="g6_110" />
<path d="M332.8,417.5l0.1,42.2" class="g6_110" />
<path fill-rule="evenodd" d="M321.6,417.5l11.2,-18.1l11,18.1l-22.2,0Z" class="g1_110" />
<path d="M321.6,417.5l11.2,-18.1l11,18.1l-22.2,0Z" class="g5_110" />
<path fill-rule="evenodd" d="M964.6,76.4L943.9,65.5L964.6,54.8l0,21.6Z" class="g1_110" />
<path d="M964.6,76.4L943.9,65.5L964.6,54.8l0,21.6Z" class="g5_110" />
<path d="M171,219.7l83.5,-0.6" class="g7_110" />
<path fill-rule="evenodd" d="M267.2,218.9L254.8,226l-1.2,-2.2l8.7,-4.7l-8.7,-4.8l1.2,-1.9l12.4,6.5Z" class="g4_110" />
<path d="M331.8,323.7L332,270.3" class="g7_110" />
<path fill-rule="evenodd" d="M332,257.4l6.7,12.6l-2,1.2L332,262.5l-4.9,8.7l-2,-1.2L332,257.4Z" class="g4_110" />
<path d="M878.6,179.4l-0.4,-63.9" class="g7_110" />
<path fill-rule="evenodd" d="M878.2,102.7L885,115l-1.9,1.3l-4.9,-8.7l-4.8,8.8l-2,-1.2l6.8,-12.5Z" class="g4_110" />
<path fill-rule="evenodd" d="M267,459l131,0l0,76l-131,0l0,-76Z" class="g2_110" />
<path d="M267,459l131,0l0,76l-131,0l0,-76Z" class="g3_110" />
</svg>