<?xml version="1.0" encoding="UTF-8" standalone="no"?>
<!DOCTYPE svg PUBLIC "-//W3C//DTD SVG 1.1//EN"
"http://www.w3.org/Graphics/SVG/1.1/DTD/svg11.dtd">
<svg viewBox="0 0 1210 1210" version="1.1" xmlns="http://www.w3.org/2000/svg" xmlns:xlink="http://www.w3.org/1999/xlink">
<defs>
<style type="text/css"><![CDATA[
.g2_31{
fill: none;
stroke: #418AB3;
stroke-width: 2;
stroke-linecap: butt;
stroke-linejoin: miter;
stroke-miterlimit: 7;
}
.g1_31{
fill: #FFFFFF;
}
]]></style>
</defs>
<path fill-rule="evenodd" d="M0,0L1210,0l0,1210L0,1210L0,0Z" class="g1_31" />
<path fill-rule="evenodd" d="M0,0L1210,0l0,1210L0,1210L0,0Z" class="g1_31" />
<path fill-rule="evenodd" d="M971.7,20.3l0,-0.4l0,-0.3l0,-0.4l0.1,-0.3l0,-0.4L972,18.2l0.1,-0.3l0,-0.3l0.3,-0.3L972.6,17l0.1,-0.3l0.2,-0.4L973.2,16l0.1,-0.3l0.4,-0.3l0.1,-0.1l0.3,-0.2l0.3,-0.3l0.3,-0.1L975,14.5l0.3,-0.1l0.3,-0.3l0.3,0l0.4,-0.2l0.3,-0.1l0.4,0l0.3,-0.2l0.3,0l0.3,0l0.5,0l181,0l0.5,0l0.3,0l0.3,0l0.5,0.2l0.3,0l0.3,0.1l0.3,0.2l0.3,0.1l0.3,0.2l0.3,0.1l0.3,0.2l0.3,0.1l0.3,0.3l0.3,0.2l0.2,0.3l0.3,0.1l0.1,0.3l0.3,0.3l0.2,0.4l0.1,0.3l0.2,0.3l0.1,0.3l0.2,0.3l0.1,0.3l0.2,0.3l0,0.4l0.2,0.3l0,0.4l0,0.3l0,0.4l0.1,26.8l-0.1,0l0,0.4l0,0.3l0,0.3l-0.2,0.3l0,0.5l-0.2,0.3l-0.1,0.3l-0.2,0.3l0,0.3l-0.3,0.3l-0.1,0.3l-0.2,0.3l-0.3,0.3l-0.1,0.3l-0.3,0.2l-0.2,0.3l-0.3,0.2l-0.3,0.3l-0.3,0.1l-0.3,0.2l-0.3,0.1l-0.3,0.2l-0.3,0.1l-0.3,0.2l-0.3,0.1l-0.3,0l-0.5,0l-0.3,0.2l-0.3,0l-0.5,0l-181,0.1l0,-0.1l-0.5,0l-0.3,0l-0.3,0L977,53.6l-0.4,0l-0.3,-0.1l-0.4,0l-0.3,-0.2l-0.3,-0.1L975,52.9l-0.3,-0.2l-0.3,-0.1l-0.3,-0.3l-0.3,-0.2l-0.1,-0.2l-0.4,-0.3l-0.1,-0.3L972.9,51l-0.2,-0.3l-0.1,-0.1l-0.2,-0.5l-0.3,-0.3l0,-0.3L972,49.2l-0.2,-0.3l0,-0.5l-0.1,-0.3l0,-0.3l0,-0.3l0,-0.4l0,-26.8Z" class="g1_31" />
<path d="M971.7,20.3l0,-0.4l0,-0.3l0,-0.4l0.1,-0.3l0,-0.4L972,18.2l0.1,-0.3l0,-0.3l0.3,-0.3L972.6,17l0.1,-0.3l0.2,-0.4L973.2,16l0.1,-0.3l0.4,-0.3l0.1,-0.1l0.3,-0.2l0.3,-0.3l0.3,-0.1L975,14.5l0.3,-0.1l0.3,-0.3l0.3,0l0.4,-0.2l0.3,-0.1l0.4,0l0.3,-0.2l0.3,0l0.3,0l0.5,0l181,0l0.5,0l0.3,0l0.3,0l0.5,0.2l0.3,0l0.3,0.1l0.3,0.2l0.3,0.1l0.3,0.2l0.3,0.1l0.3,0.2l0.3,0.1l0.3,0.3l0.3,0.2l0.2,0.3l0.3,0.1l0.1,0.3l0.3,0.3l0.2,0.4l0.1,0.3l0.2,0.3l0.1,0.3l0.2,0.3l0.1,0.3l0.2,0.3l0,0.4l0.2,0.3l0,0.4l0,0.3l0,0.4l0.1,26.8l-0.1,0l0,0.4l0,0.3l0,0.3l-0.2,0.3l0,0.5l-0.2,0.3l-0.1,0.3l-0.2,0.3l0,0.3l-0.3,0.3l-0.1,0.3l-0.2,0.3l-0.3,0.3l-0.1,0.3l-0.3,0.2l-0.2,0.3l-0.3,0.2l-0.3,0.3l-0.3,0.1l-0.3,0.2l-0.3,0.1l-0.3,0.2l-0.3,0.1l-0.3,0.2l-0.3,0.1l-0.3,0l-0.5,0l-0.3,0.2l-0.3,0l-0.5,0l-181,0.1l0,-0.1l-0.5,0l-0.3,0l-0.3,0L977,53.6l-0.4,0l-0.3,-0.1l-0.4,0l-0.3,-0.2l-0.3,-0.1L975,52.9l-0.3,-0.2l-0.3,-0.1l-0.3,-0.3l-0.3,-0.2l-0.1,-0.2l-0.4,-0.3l-0.1,-0.3L972.9,51l-0.2,-0.3l-0.1,-0.1l-0.2,-0.5l-0.3,-0.3l0,-0.3L972,49.2l-0.2,-0.3l0,-0.5l-0.1,-0.3l0,-0.3l0,-0.3l0,-0.4l0,-26.8Z" class="g2_31" />
</svg>