<?xml version="1.0" encoding="UTF-8" standalone="no"?>
<!DOCTYPE svg PUBLIC "-//W3C//DTD SVG 1.1//EN"
"http://www.w3.org/Graphics/SVG/1.1/DTD/svg11.dtd">
<svg viewBox="0 0 1210 1045" version="1.1" xmlns="http://www.w3.org/2000/svg" xmlns:xlink="http://www.w3.org/1999/xlink">
<defs>
<style type="text/css"><![CDATA[
.g5_72{
fill: #464646;
}
.g6_72{
fill: #418AB3;
}
.g4_72{
fill: none;
stroke: #418AB3;
stroke-width: 3;
stroke-linecap: butt;
stroke-linejoin: miter;
stroke-miterlimit: 7;
}
.g7_72{
fill: none;
stroke: #418AB3;
stroke-width: 2;
stroke-linecap: butt;
stroke-linejoin: miter;
stroke-miterlimit: 7;
}
.g3_72{
fill: #2F2F2F;
}
.g2_72{
fill-opacity: 0.3;
}
.g8_72{
fill: none;
stroke: #0000EE;
stroke-width: 2;
stroke-linecap: butt;
stroke-linejoin: miter;
}
.g1_72{
fill: #FFFFFF;
}
]]></style>
</defs>
<path fill-rule="evenodd" d="M0,0L1210,0l0,1045L0,1045L0,0Z" class="g1_72" />
<path fill-rule="evenodd" d="M0,0L1210,0l0,1045L0,1045L0,0Z" class="g1_72" />
<image x="828" y="984" width="334" height="49" xlink:href="img/1.png" />
<path fill-rule="evenodd" d="M127.6,64.3c0,-3.6,3,-6.9,6.8,-6.9l123.8,0c3.8,0,6.9,3.3,6.9,6.9l0,55.2c0,3.6,-3.1,6.8,-6.9,6.8l-123.8,0c-3.8,0,-6.8,-3.2,-6.8,-6.8l0,-55.2Z" class="g2_72" />
<path fill-rule="evenodd" d="M108.2,44.9c0,-3.8,3,-6.9,6.8,-6.9l123.8,0c3.8,0,6.9,3.1,6.9,6.9l0,55c0,3.8,-3.1,6.9,-6.9,6.9l-123.8,0c-3.8,0,-6.8,-3.1,-6.8,-6.9l0,-55Z" class="g3_72" />
<path d="M122.5,111.5l0,73l20,0" class="g4_72" />
<path fill-rule="evenodd" d="M137.5,136.6c0,-3.8,3.4,-6.9,7.3,-6.9l104.4,0c4.1,0,7.5,3.1,7.5,6.9l0,55c0,3.8,-3.4,6.9,-7.5,6.9l-104.4,0c-3.9,0,-7.3,-3.1,-7.3,-6.9l0,-55Z" class="g1_72" />
<path d="M137.5,136.6c0,-3.8,3.4,-6.9,7.3,-6.9l104.4,0c4.1,0,7.5,3.1,7.5,6.9l0,55c0,3.8,-3.4,6.9,-7.5,6.9l-104.4,0c-3.9,0,-7.3,-3.1,-7.3,-6.9l0,-55Z" class="g4_72" />
<path d="M122.5,111.5l0,195l20,0" class="g4_72" />
<path fill-rule="evenodd" d="M137.5,278.1c0,-3.7,3.4,-6.8,7.3,-6.8l104.4,0c4.1,0,7.5,3.1,7.5,6.8l0,55.1c0,3.7,-3.4,6.9,-7.5,6.9l-104.4,0c-3.9,0,-7.3,-3.2,-7.3,-6.9l0,-55.1Z" class="g1_72" />
<path d="M137.5,278.1c0,-3.7,3.4,-6.8,7.3,-6.8l104.4,0c4.1,0,7.5,3.1,7.5,6.8l0,55.1c0,3.7,-3.4,6.9,-7.5,6.9l-104.4,0c-3.9,0,-7.3,-3.2,-7.3,-6.9l0,-55.1Z" class="g4_72" />
<path d="M122.5,111.5l0,318l20,0" class="g4_72" />
<path fill-rule="evenodd" d="M137.5,393.2c0,-3.8,3.4,-6.8,7.3,-6.8l104.4,0c4.1,0,7.5,3,7.5,6.8l0,55c0,3.9,-3.4,6.9,-7.5,6.9l-104.4,0c-3.9,0,-7.3,-3,-7.3,-6.9l0,-55Z" class="g1_72" />
<path d="M137.5,393.2c0,-3.8,3.4,-6.8,7.3,-6.8l104.4,0c4.1,0,7.5,3,7.5,6.8l0,55c0,3.9,-3.4,6.9,-7.5,6.9l-104.4,0c-3.9,0,-7.3,-3,-7.3,-6.9l0,-55Z" class="g4_72" />
<path d="M122.5,111.5l0,440l20,0" class="g4_72" />
<path fill-rule="evenodd" d="M137.5,511.3c0,-3.8,3.4,-6.8,7.3,-6.8l104.4,0c4.1,0,7.5,3,7.5,6.8l0,55c0,3.9,-3.4,6.9,-7.5,6.9l-104.4,0c-3.9,0,-7.3,-3,-7.3,-6.9l0,-55Z" class="g1_72" />
<path d="M137.5,511.3c0,-3.8,3.4,-6.8,7.3,-6.8l104.4,0c4.1,0,7.5,3,7.5,6.8l0,55c0,3.9,-3.4,6.9,-7.5,6.9l-104.4,0c-3.9,0,-7.3,-3,-7.3,-6.9l0,-55Z" class="g4_72" />
<path fill-rule="evenodd" d="M310.9,64.3c0,-3.6,3.1,-6.9,6.9,-6.9l123.7,0c3.8,0,6.9,3.3,6.9,6.9l0,55.2c0,3.6,-3.1,6.8,-6.9,6.8l-123.7,0c-3.8,0,-6.9,-3.2,-6.9,-6.8l0,-55.2Z" class="g2_72" />
<path fill-rule="evenodd" d="M291.5,44.9c0,-3.8,3.1,-6.9,6.9,-6.9l123.7,0c3.8,0,6.9,3.1,6.9,6.9l0,55c0,3.8,-3.1,6.9,-6.9,6.9l-123.7,0c-3.8,0,-6.9,-3.1,-6.9,-6.9l0,-55Z" class="g5_72" />
<path d="M306.5,111.5l0,94l19,0" class="g4_72" />
<path fill-rule="evenodd" d="M320.8,139.5c0,-5.4,4.3,-9.8,9.7,-9.8l100.5,0c5.3,0,9.8,4.4,9.8,9.8l0,77.9c0,5.3,-4.5,9.6,-9.8,9.6l-100.5,0c-5.4,0,-9.7,-4.3,-9.7,-9.6l0,-77.9Z" class="g1_72" />
<path d="M320.8,139.5c0,-5.4,4.3,-9.8,9.7,-9.8l100.5,0c5.3,0,9.8,4.4,9.8,9.8l0,77.9c0,5.3,-4.5,9.6,-9.8,9.6l-100.5,0c-5.4,0,-9.7,-4.3,-9.7,-9.6l0,-77.9Z" class="g4_72" />
<path fill-rule="evenodd" d="M494.2,64.3c0,-3.6,3.1,-6.9,6.9,-6.9l123.8,0c3.8,0,6.8,3.3,6.8,6.9l0,55.2c0,3.6,-3,6.8,-6.8,6.8l-123.8,0c-3.8,0,-6.9,-3.2,-6.9,-6.8l0,-55.2Z" class="g2_72" />
<path fill-rule="evenodd" d="M474.8,44.9c0,-3.8,3.1,-6.9,6.9,-6.9l123.8,0c3.6,0,6.8,3.1,6.8,6.9l0,55c0,3.8,-3.2,6.9,-6.8,6.9l-123.8,0c-3.8,0,-6.9,-3.1,-6.9,-6.9l0,-55Z" class="g6_72" />
<path d="M489.5,111.5l0,73l20,0" class="g4_72" />
<path fill-rule="evenodd" d="M504.2,136.6c0,-3.8,3,-6.9,6.8,-6.9l96.3,0c3.7,0,6.9,3.1,6.9,6.9l0,55c0,3.8,-3.2,6.9,-6.9,6.9l-96.3,0c-3.8,0,-6.8,-3.1,-6.8,-6.9l0,-55Z" class="g1_72" />
<path d="M504.2,136.6c0,-3.8,3,-6.9,6.8,-6.9l96.3,0c3.7,0,6.9,3.1,6.9,6.9l0,55c0,3.8,-3.2,6.9,-6.9,6.9l-96.3,0c-3.8,0,-6.8,-3.1,-6.8,-6.9l0,-55Z" class="g4_72" />
<path d="M489.5,111.5l0,195l20,0" class="g4_72" />
<path fill-rule="evenodd" d="M507.1,273c0,-3.8,3,-6.9,6.7,-6.9l96.2,0c3.9,0,7.1,3.1,7.1,6.9l0,55c0,3.8,-3.2,6.9,-7.1,6.9l-96.2,0c-3.7,0,-6.7,-3.1,-6.7,-6.9l0,-55Z" class="g1_72" />
<path d="M507.1,273c0,-3.8,3,-6.9,6.7,-6.9l96.2,0c3.9,0,7.1,3.1,7.1,6.9l0,55c0,3.8,-3.2,6.9,-7.1,6.9l-96.2,0c-3.7,0,-6.7,-3.1,-6.7,-6.9l0,-55Z" class="g4_72" />
<path d="M489.5,111.5l0,318l20,0" class="g4_72" />
<path fill-rule="evenodd" d="M507.1,392.6c0,-3.8,3,-6.8,6.7,-6.8l96.2,0c3.9,0,7.1,3,7.1,6.8l0,55c0,3.9,-3.2,6.9,-7.1,6.9l-96.2,0c-3.7,0,-6.7,-3,-6.7,-6.9l0,-55Z" class="g1_72" />
<path d="M507.1,392.6c0,-3.8,3,-6.8,6.7,-6.8l96.2,0c3.9,0,7.1,3,7.1,6.8l0,55c0,3.9,-3.2,6.9,-7.1,6.9l-96.2,0c-3.7,0,-6.7,-3,-6.7,-6.9l0,-55Z" class="g4_72" />
<path fill-rule="evenodd" d="M412.5,531.1l0,-1l0.2,-0.9l0,-0.9l0.3,-0.9l0.1,-0.9l0.3,-0.9l0.3,-1l0.3,-0.7l0.5,-0.9l0.4,-0.8l0.5,-0.8l0.5,-0.7l0.6,-0.8l0.6,-0.8l0.6,-0.6l0.8,-0.6l0.6,-0.6l0.7,-0.6l0.8,-0.6l0.8,-0.5l0.9,-0.4l0.7,-0.3l1,-0.5l0.9,-0.3l0.7,-0.2l1,-0.3l1,-0.1l0.9,-0.2l1,0l0.9,0l640.6,0l1,0l1,0l0.9,0.2l0.9,0.1l0.8,0.3l0.9,0.2l0.9,0.5l0.9,0.3l0.8,0.3l0.9,0.4l0.8,0.6l0.7,0.5l0.8,0.6l0.6,0.6l0.8,0.6l0.6,0.6l0.6,0.8l0.6,0.8l0.4,0.7l0.5,0.8l0.5,0.8l0.4,0.9l0.3,0.9l0.3,0.8l0.3,0.9l0.2,0.9l0.1,0.9l0.2,0.9l0.1,0.9l0,1l0,71.3l0,1.1l0,0.7l-0.1,1l-0.2,1l-0.3,0.8l-0.3,0.9l-0.3,0.9l-0.3,0.9l-0.4,0.8l-0.5,0.9l-0.5,0.8l-0.4,0.7l-0.6,0.8l-0.6,0.6l-0.6,0.8l-0.8,0.6l-0.6,0.6l-0.8,0.6l-0.7,0.5l-0.8,0.4l-0.9,0.5l-0.8,0.5l-0.9,0.3l-0.9,0.3l-0.9,0.3l-0.8,0.1l-0.9,0.2l-0.9,0.1l-1,0l-1,0.2l-640.6,0l-0.9,0l-1,-0.2l-0.9,0l-1,-0.1l-1,-0.3l-0.7,-0.3L424,619.1l-1,-0.3l-0.7,-0.5l-0.9,-0.5l-0.8,-0.4l-0.8,-0.5l-0.7,-0.6l-0.6,-0.6l-0.8,-0.6l-0.6,-0.6l-0.6,-0.8l-0.6,-0.8l-0.5,-0.7l-0.5,-0.8l-0.4,-0.9L414,609.7l-0.3,-0.9l-0.3,-0.9l-0.3,-0.8L413,606.2l-0.3,-1l0,-1l-0.2,-0.7l0,-1.1l0,-71.3Z" class="g1_72" />
<path d="M412.5,531.1l0,-1l0.2,-0.9l0,-0.9l0.3,-0.9l0.1,-0.9l0.3,-0.9l0.3,-1l0.3,-0.7l0.5,-0.9l0.4,-0.8l0.5,-0.8l0.5,-0.7l0.6,-0.8l0.6,-0.8l0.6,-0.6l0.8,-0.6l0.6,-0.6l0.7,-0.6l0.8,-0.6l0.8,-0.5l0.9,-0.4l0.7,-0.3l1,-0.5l0.9,-0.3l0.7,-0.2l1,-0.3l1,-0.1l0.9,-0.2l1,0l0.9,0l640.6,0l1,0l1,0l0.9,0.2l0.9,0.1l0.8,0.3l0.9,0.2l0.9,0.5l0.9,0.3l0.8,0.3l0.9,0.4l0.8,0.6l0.7,0.5l0.8,0.6l0.6,0.6l0.8,0.6l0.6,0.6l0.6,0.8l0.6,0.8l0.4,0.7l0.5,0.8l0.5,0.8l0.4,0.9l0.3,0.9l0.3,0.8l0.3,0.9l0.2,0.9l0.1,0.9l0.2,0.9l0.1,0.9l0,1l0,71.3l0,1.1l0,0.7l-0.1,1l-0.2,1l-0.3,0.8l-0.3,0.9l-0.3,0.9l-0.3,0.9l-0.4,0.8l-0.5,0.9l-0.5,0.8l-0.4,0.7l-0.6,0.8l-0.6,0.6l-0.6,0.8l-0.8,0.6l-0.6,0.6l-0.8,0.6l-0.7,0.5l-0.8,0.4l-0.9,0.5l-0.8,0.5l-0.9,0.3l-0.9,0.3l-0.9,0.3l-0.8,0.1l-0.9,0.2l-0.9,0.1l-1,0l-1,0.2l-640.6,0l-0.9,0l-1,-0.2l-0.9,0l-1,-0.1l-1,-0.3l-0.7,-0.3L424,619.1l-1,-0.3l-0.7,-0.5l-0.9,-0.5l-0.8,-0.4l-0.8,-0.5l-0.7,-0.6l-0.6,-0.6l-0.8,-0.6l-0.6,-0.6l-0.6,-0.8l-0.6,-0.8l-0.5,-0.7l-0.5,-0.8l-0.4,-0.9L414,609.7l-0.3,-0.9l-0.3,-0.9l-0.3,-0.8L413,606.2l-0.3,-1l0,-1l-0.2,-0.7l0,-1.1l0,-71.3Z" class="g7_72" />
<path d="M443,592l456,0" class="g8_72" />
</svg>