<?xml version="1.0" encoding="UTF-8" standalone="no"?>
<!DOCTYPE svg PUBLIC "-//W3C//DTD SVG 1.1//EN"
"http://www.w3.org/Graphics/SVG/1.1/DTD/svg11.dtd">
<svg viewBox="0 0 1210 1045" version="1.1" xmlns="http://www.w3.org/2000/svg" xmlns:xlink="http://www.w3.org/1999/xlink">
<defs>
<style type="text/css"><![CDATA[
.g2_62{
fill: #418AB3;
}
.g5_62{
fill: none;
stroke: #FFFFFF;
stroke-width: 1;
stroke-linecap: butt;
stroke-linejoin: miter;
}
.g3_62{
fill: #CEDAE4;
}
.g6_62{
fill: none;
stroke: #418AB3;
stroke-width: 2;
stroke-linecap: butt;
stroke-linejoin: miter;
stroke-miterlimit: 7;
}
.g4_62{
fill: #E8EDF2;
}
.g1_62{
fill: #FFFFFF;
}
]]></style>
</defs>
<path fill-rule="evenodd" d="M0,0L1210,0l0,1045L0,1045L0,0Z" class="g1_62" />
<path fill-rule="evenodd" d="M0,0L1210,0l0,1045L0,1045L0,0Z" class="g1_62" />
<image x="828" y="984" width="334" height="49" xlink:href="img/1.png" />
<path fill-rule="evenodd" d="M226,125l126,0l0,53l-126,0l0,-53Z" class="g2_62" />
<path fill-rule="evenodd" d="M352,125l126,0l0,53l-126,0l0,-53Z" class="g2_62" />
<path fill-rule="evenodd" d="M478,125l126,0l0,53l-126,0l0,-53Z" class="g2_62" />
<path fill-rule="evenodd" d="M604,125l127,0l0,53l-127,0l0,-53Z" class="g2_62" />
<path fill-rule="evenodd" d="M731,125l126,0l0,53l-126,0l0,-53Z" class="g2_62" />
<path fill-rule="evenodd" d="M857,125l126,0l0,53l-126,0l0,-53Z" class="g2_62" />
<path fill-rule="evenodd" d="M226,178l126,0l0,30l-126,0l0,-30Z" class="g3_62" />
<path fill-rule="evenodd" d="M352,178l126,0l0,30l-126,0l0,-30Z" class="g3_62" />
<path fill-rule="evenodd" d="M478,178l126,0l0,30l-126,0l0,-30Z" class="g3_62" />
<path fill-rule="evenodd" d="M604,178l127,0l0,30l-127,0l0,-30Z" class="g3_62" />
<path fill-rule="evenodd" d="M731,178l126,0l0,30l-126,0l0,-30Z" class="g3_62" />
<path fill-rule="evenodd" d="M857,178l126,0l0,30l-126,0l0,-30Z" class="g3_62" />
<path fill-rule="evenodd" d="M226,208l126,0l0,52l-126,0l0,-52Z" class="g4_62" />
<path fill-rule="evenodd" d="M352,208l126,0l0,52l-126,0l0,-52Z" class="g4_62" />
<path fill-rule="evenodd" d="M478,208l126,0l0,52l-126,0l0,-52Z" class="g4_62" />
<path fill-rule="evenodd" d="M604,208l127,0l0,52l-127,0l0,-52Z" class="g4_62" />
<path fill-rule="evenodd" d="M731,208l126,0l0,52l-126,0l0,-52Z" class="g4_62" />
<path fill-rule="evenodd" d="M857,208l126,0l0,52l-126,0l0,-52Z" class="g4_62" />
<path fill-rule="evenodd" d="M226,260l126,0l0,52l-126,0l0,-52Z" class="g3_62" />
<path fill-rule="evenodd" d="M352,260l126,0l0,52l-126,0l0,-52Z" class="g3_62" />
<path fill-rule="evenodd" d="M478,260l126,0l0,52l-126,0l0,-52Z" class="g3_62" />
<path fill-rule="evenodd" d="M604,260l127,0l0,52l-127,0l0,-52Z" class="g3_62" />
<path fill-rule="evenodd" d="M731,260l126,0l0,52l-126,0l0,-52Z" class="g3_62" />
<path fill-rule="evenodd" d="M857,260l126,0l0,52l-126,0l0,-52Z" class="g3_62" />
<path fill-rule="evenodd" d="M226,312l126,0l0,31l-126,0l0,-31Z" class="g4_62" />
<path fill-rule="evenodd" d="M352,312l126,0l0,31l-126,0l0,-31Z" class="g4_62" />
<path fill-rule="evenodd" d="M478,312l126,0l0,31l-126,0l0,-31Z" class="g4_62" />
<path fill-rule="evenodd" d="M604,312l127,0l0,31l-127,0l0,-31Z" class="g4_62" />
<path fill-rule="evenodd" d="M731,312l126,0l0,31l-126,0l0,-31Z" class="g4_62" />
<path fill-rule="evenodd" d="M857,312l126,0l0,31l-126,0l0,-31Z" class="g4_62" />
<path fill-rule="evenodd" d="M226,343l126,0l0,52l-126,0l0,-52Z" class="g3_62" />
<path fill-rule="evenodd" d="M352,343l126,0l0,52l-126,0l0,-52Z" class="g3_62" />
<path fill-rule="evenodd" d="M478,343l126,0l0,52l-126,0l0,-52Z" class="g3_62" />
<path fill-rule="evenodd" d="M604,343l127,0l0,52l-127,0l0,-52Z" class="g3_62" />
<path fill-rule="evenodd" d="M731,343l126,0l0,52l-126,0l0,-52Z" class="g3_62" />
<path fill-rule="evenodd" d="M857,343l126,0l0,52l-126,0l0,-52Z" class="g3_62" />
<path fill-rule="evenodd" d="M226,395l126,0l0,30l-126,0l0,-30Z" class="g4_62" />
<path fill-rule="evenodd" d="M352,395l126,0l0,30l-126,0l0,-30Z" class="g4_62" />
<path fill-rule="evenodd" d="M478,395l126,0l0,30l-126,0l0,-30Z" class="g4_62" />
<path fill-rule="evenodd" d="M604,395l127,0l0,30l-127,0l0,-30Z" class="g4_62" />
<path fill-rule="evenodd" d="M731,395l126,0l0,30l-126,0l0,-30Z" class="g4_62" />
<path fill-rule="evenodd" d="M857,395l126,0l0,30l-126,0l0,-30Z" class="g4_62" />
<path fill-rule="evenodd" d="M226,425l126,0l0,52l-126,0l0,-52Z" class="g3_62" />
<path fill-rule="evenodd" d="M352,425l126,0l0,52l-126,0l0,-52Z" class="g3_62" />
<path fill-rule="evenodd" d="M478,425l126,0l0,52l-126,0l0,-52Z" class="g3_62" />
<path fill-rule="evenodd" d="M604,425l127,0l0,52l-127,0l0,-52Z" class="g3_62" />
<path fill-rule="evenodd" d="M731,425l126,0l0,52l-126,0l0,-52Z" class="g3_62" />
<path fill-rule="evenodd" d="M857,425l126,0l0,52l-126,0l0,-52Z" class="g3_62" />
<path fill-rule="evenodd" d="M226,477l126,0l0,53l-126,0l0,-53Z" class="g4_62" />
<path fill-rule="evenodd" d="M352,477l126,0l0,53l-126,0l0,-53Z" class="g4_62" />
<path fill-rule="evenodd" d="M478,477l126,0l0,53l-126,0l0,-53Z" class="g4_62" />
<path fill-rule="evenodd" d="M604,477l127,0l0,53l-127,0l0,-53Z" class="g4_62" />
<path fill-rule="evenodd" d="M731,477l126,0l0,53l-126,0l0,-53Z" class="g4_62" />
<path fill-rule="evenodd" d="M857,477l126,0l0,53l-126,0l0,-53Z" class="g4_62" />
<path fill-rule="evenodd" d="M226,530l126,0l0,52l-126,0l0,-52Z" class="g3_62" />
<path fill-rule="evenodd" d="M352,530l126,0l0,52l-126,0l0,-52Z" class="g3_62" />
<path fill-rule="evenodd" d="M478,530l126,0l0,52l-126,0l0,-52Z" class="g3_62" />
<path fill-rule="evenodd" d="M604,530l127,0l0,52l-127,0l0,-52Z" class="g3_62" />
<path fill-rule="evenodd" d="M731,530l126,0l0,52l-126,0l0,-52Z" class="g3_62" />
<path fill-rule="evenodd" d="M857,530l126,0l0,52l-126,0l0,-52Z" class="g3_62" />
<path d="M225.5,179.5l0,-54" class="g5_62" />
<path d="M351.5,178.5l0,-53" class="g5_62" />
<path d="M225.5,126.5l128,0" class="g5_62" />
<path d="M351.5,178.5l0,-53" class="g5_62" />
<path d="M478.5,178.5l0,-53" class="g5_62" />
<path d="M351.5,126.5l128,0" class="g5_62" />
<path d="M478.5,178.5l0,-53" class="g5_62" />
<path d="M604.5,178.5l0,-53" class="g5_62" />
<path d="M478.5,126.5l127,0" class="g5_62" />
<path d="M604.5,178.5l0,-53" class="g5_62" />
<path d="M730.5,178.5l0,-53" class="g5_62" />
<path d="M604.5,126.5l127,0" class="g5_62" />
<path d="M730.5,178.5l0,-53" class="g5_62" />
<path d="M856.5,179.5l0,-54" class="g5_62" />
<path d="M730.5,126.5l127,0" class="g5_62" />
<path d="M856.5,178.5l0,-53" class="g5_62" />
<path d="M982.5,179.5l0,-54" class="g5_62" />
<path d="M856.5,126.5l128,0" class="g5_62" />
<path d="M225.5,208.5l0,-32" class="g5_62" />
<path d="M351.5,208.5l0,-30" class="g5_62" />
<path fill-rule="evenodd" d="M352.6,178.1l-0.8,2l-124.8,0l-0.6,-2l0.6,-1.9l124.8,0l0.8,1.9Z" class="g1_62" />
<path d="M351.5,208.5l0,-30" class="g5_62" />
<path d="M478.5,208.5l0,-30" class="g5_62" />
<path fill-rule="evenodd" d="M478.7,178.1l-0.7,2l-124.8,0l-0.6,-2l0.6,-1.9l124.8,0l0.7,1.9Z" class="g1_62" />
<path d="M478.5,208.5l0,-30" class="g5_62" />
<path d="M604.5,208.5l0,-30" class="g5_62" />
<path fill-rule="evenodd" d="M604.8,178.1l-0.6,2l-124.8,0l-0.7,-2l0.7,-1.9l124.8,0l0.6,1.9Z" class="g1_62" />
<path d="M604.5,208.5l0,-30" class="g5_62" />
<path d="M730.5,208.5l0,-30" class="g5_62" />
<path fill-rule="evenodd" d="M731,178.1l-0.6,2l-124.9,0l-0.7,-2l0.7,-1.9l124.9,0l0.6,1.9Z" class="g1_62" />
<path d="M730.5,208.5l0,-30" class="g5_62" />
<path d="M856.5,208.5l0,-32" class="g5_62" />
<path fill-rule="evenodd" d="M857.2,178.1l-0.7,2l-124.8,0l-0.7,-2l0.7,-1.9l124.8,0l0.7,1.9Z" class="g1_62" />
<path d="M856.5,208.5l0,-30" class="g5_62" />
<path d="M982.5,208.5l0,-32" class="g5_62" />
<path fill-rule="evenodd" d="M983.4,178.1l-0.6,2l-125,0l-0.6,-2l0.6,-1.9l125,0l0.6,1.9Z" class="g1_62" />
<path d="M225.5,261.5l0,-54" class="g5_62" />
<path d="M351.5,260.5l0,-52" class="g5_62" />
<path d="M226.5,208.5l126,0" class="g5_62" />
<path d="M351.5,260.5l0,-52" class="g5_62" />
<path d="M478.5,260.5l0,-52" class="g5_62" />
<path d="M352.5,208.5l126,0" class="g5_62" />
<path d="M478.5,260.5l0,-52" class="g5_62" />
<path d="M604.5,260.5l0,-52" class="g5_62" />
<path d="M478.5,208.5l126,0" class="g5_62" />
<path d="M604.5,260.5l0,-52" class="g5_62" />
<path d="M730.5,260.5l0,-52" class="g5_62" />
<path d="M604.5,208.5l127,0" class="g5_62" />
<path d="M730.5,260.5l0,-52" class="g5_62" />
<path d="M856.5,261.5l0,-54" class="g5_62" />
<path d="M731.5,208.5l126,0" class="g5_62" />
<path d="M856.5,260.5l0,-52" class="g5_62" />
<path d="M982.5,261.5l0,-54" class="g5_62" />
<path d="M857.5,208.5l126,0" class="g5_62" />
<path d="M225.5,313.5l0,-53" class="g5_62" />
<path d="M351.5,312.5l0,-52" class="g5_62" />
<path d="M226.5,261.5l126,0" class="g5_62" />
<path d="M351.5,312.5l0,-52" class="g5_62" />
<path d="M478.5,312.5l0,-52" class="g5_62" />
<path d="M352.5,261.5l126,0" class="g5_62" />
<path d="M478.5,312.5l0,-52" class="g5_62" />
<path d="M604.5,312.5l0,-52" class="g5_62" />
<path d="M478.5,261.5l126,0" class="g5_62" />
<path d="M604.5,312.5l0,-52" class="g5_62" />
<path d="M730.5,312.5l0,-52" class="g5_62" />
<path d="M604.5,261.5l127,0" class="g5_62" />
<path d="M730.5,312.5l0,-52" class="g5_62" />
<path d="M856.5,313.5l0,-53" class="g5_62" />
<path d="M731.5,261.5l126,0" class="g5_62" />
<path d="M856.5,312.5l0,-52" class="g5_62" />
<path d="M982.5,313.5l0,-53" class="g5_62" />
<path d="M857.5,261.5l126,0" class="g5_62" />
<path d="M225.5,343.5l0,-31" class="g5_62" />
<path d="M351.5,343.5l0,-31" class="g5_62" />
<path d="M226.5,313.5l126,0" class="g5_62" />
<path d="M351.5,343.5l0,-31" class="g5_62" />
<path d="M478.5,343.5l0,-31" class="g5_62" />
<path d="M352.5,313.5l126,0" class="g5_62" />
<path d="M478.5,343.5l0,-31" class="g5_62" />
<path d="M604.5,343.5l0,-31" class="g5_62" />
<path d="M478.5,313.5l126,0" class="g5_62" />
<path d="M604.5,343.5l0,-31" class="g5_62" />
<path d="M730.5,343.5l0,-31" class="g5_62" />
<path d="M604.5,313.5l127,0" class="g5_62" />
<path d="M730.5,343.5l0,-31" class="g5_62" />
<path d="M856.5,343.5l0,-31" class="g5_62" />
<path d="M731.5,313.5l126,0" class="g5_62" />
<path d="M856.5,343.5l0,-31" class="g5_62" />
<path d="M982.5,343.5l0,-31" class="g5_62" />
<path d="M857.5,313.5l126,0" class="g5_62" />
<path d="M225.5,396.5l0,-54" class="g5_62" />
<path d="M351.5,395.5l0,-52" class="g5_62" />
<path d="M226.5,343.5l126,0" class="g5_62" />
<path d="M351.5,395.5l0,-52" class="g5_62" />
<path d="M478.5,395.5l0,-52" class="g5_62" />
<path d="M352.5,343.5l126,0" class="g5_62" />
<path d="M478.5,395.5l0,-52" class="g5_62" />
<path d="M604.5,395.5l0,-52" class="g5_62" />
<path d="M478.5,343.5l126,0" class="g5_62" />
<path d="M604.5,395.5l0,-52" class="g5_62" />
<path d="M730.5,395.5l0,-52" class="g5_62" />
<path d="M604.5,343.5l127,0" class="g5_62" />
<path d="M730.5,395.5l0,-52" class="g5_62" />
<path d="M856.5,396.5l0,-54" class="g5_62" />
<path d="M731.5,343.5l126,0" class="g5_62" />
<path d="M856.5,395.5l0,-52" class="g5_62" />
<path d="M982.5,396.5l0,-54" class="g5_62" />
<path d="M857.5,343.5l126,0" class="g5_62" />
<path d="M225.5,426.5l0,-32" class="g5_62" />
<path d="M351.5,425.5l0,-30" class="g5_62" />
<path d="M226.5,396.5l126,0" class="g5_62" />
<path d="M351.5,425.5l0,-30" class="g5_62" />
<path d="M478.5,425.5l0,-30" class="g5_62" />
<path d="M352.5,396.5l126,0" class="g5_62" />
<path d="M478.5,425.5l0,-30" class="g5_62" />
<path d="M604.5,425.5l0,-30" class="g5_62" />
<path d="M478.5,396.5l126,0" class="g5_62" />
<path d="M604.5,425.5l0,-30" class="g5_62" />
<path d="M730.5,425.5l0,-30" class="g5_62" />
<path d="M604.5,396.5l127,0" class="g5_62" />
<path d="M730.5,425.5l0,-30" class="g5_62" />
<path d="M856.5,426.5l0,-32" class="g5_62" />
<path d="M731.5,396.5l126,0" class="g5_62" />
<path d="M856.5,425.5l0,-30" class="g5_62" />
<path d="M982.5,426.5l0,-32" class="g5_62" />
<path d="M857.5,396.5l126,0" class="g5_62" />
<path d="M225.5,478.5l0,-53" class="g5_62" />
<path d="M351.5,477.5l0,-52" class="g5_62" />
<path d="M226.5,426.5l126,0" class="g5_62" />
<path d="M351.5,477.5l0,-52" class="g5_62" />
<path d="M478.5,477.5l0,-52" class="g5_62" />
<path d="M352.5,426.5l126,0" class="g5_62" />
<path d="M478.5,477.5l0,-52" class="g5_62" />
<path d="M604.5,477.5l0,-52" class="g5_62" />
<path d="M478.5,426.5l126,0" class="g5_62" />
<path d="M604.5,477.5l0,-52" class="g5_62" />
<path d="M730.5,477.5l0,-52" class="g5_62" />
<path d="M604.5,426.5l127,0" class="g5_62" />
<path d="M730.5,477.5l0,-52" class="g5_62" />
<path d="M856.5,478.5l0,-53" class="g5_62" />
<path d="M731.5,426.5l126,0" class="g5_62" />
<path d="M856.5,477.5l0,-52" class="g5_62" />
<path d="M982.5,478.5l0,-53" class="g5_62" />
<path d="M857.5,426.5l126,0" class="g5_62" />
<path d="M225.5,530.5l0,-53" class="g5_62" />
<path d="M351.5,530.5l0,-53" class="g5_62" />
<path d="M226.5,478.5l126,0" class="g5_62" />
<path d="M351.5,530.5l0,-53" class="g5_62" />
<path d="M478.5,530.5l0,-53" class="g5_62" />
<path d="M352.5,478.5l126,0" class="g5_62" />
<path d="M478.5,530.5l0,-53" class="g5_62" />
<path d="M604.5,530.5l0,-53" class="g5_62" />
<path d="M478.5,478.5l126,0" class="g5_62" />
<path d="M604.5,530.5l0,-53" class="g5_62" />
<path d="M730.5,530.5l0,-53" class="g5_62" />
<path d="M604.5,478.5l127,0" class="g5_62" />
<path d="M730.5,530.5l0,-53" class="g5_62" />
<path d="M856.5,530.5l0,-53" class="g5_62" />
<path d="M731.5,478.5l126,0" class="g5_62" />
<path d="M856.5,530.5l0,-53" class="g5_62" />
<path d="M982.5,530.5l0,-53" class="g5_62" />
<path d="M857.5,478.5l126,0" class="g5_62" />
<path d="M225.5,583.5l0,-54" class="g5_62" />
<path d="M225.5,583.5l128,0" class="g5_62" />
<path d="M351.5,582.5l0,-52" class="g5_62" />
<path d="M226.5,530.5l126,0" class="g5_62" />
<path d="M351.5,582.5l0,-52" class="g5_62" />
<path d="M351.5,583.5l128,0" class="g5_62" />
<path d="M478.5,582.5l0,-52" class="g5_62" />
<path d="M352.5,530.5l126,0" class="g5_62" />
<path d="M478.5,582.5l0,-52" class="g5_62" />
<path d="M478.5,583.5l127,0" class="g5_62" />
<path d="M604.5,582.5l0,-52" class="g5_62" />
<path d="M478.5,530.5l126,0" class="g5_62" />
<path d="M604.5,582.5l0,-52" class="g5_62" />
<path d="M604.5,583.5l127,0" class="g5_62" />
<path d="M730.5,582.5l0,-52" class="g5_62" />
<path d="M604.5,530.5l127,0" class="g5_62" />
<path d="M730.5,582.5l0,-52" class="g5_62" />
<path d="M730.5,583.5l127,0" class="g5_62" />
<path d="M856.5,583.5l0,-54" class="g5_62" />
<path d="M731.5,530.5l126,0" class="g5_62" />
<path d="M856.5,582.5l0,-52" class="g5_62" />
<path d="M856.5,583.5l128,0" class="g5_62" />
<path d="M982.5,583.5l0,-54" class="g5_62" />
<path d="M857.5,530.5l126,0" class="g5_62" />
<path fill-rule="evenodd" d="M980.8,12.8l0,-0.3l0,-0.3l0,-0.3L981,11.6l0,-0.3L981.1,11l0,-0.3l0.2,-0.3l0.1,-0.3l0.2,-0.3l0.1,-0.2l0.4,-0.3L982.2,9l0.2,-0.1l0.3,-0.3l0.1,-0.2l0.3,-0.3l0.2,-0.2l0.3,-0.1l0.3,-0.2l0.3,-0.1l0.3,-0.2l0.2,-0.1L985,7l0.4,0l0.3,-0.1l0.3,0l0.3,0l0.3,0l0.3,0l189.5,0l0.3,0l0.3,0l0.3,0l0.3,0l0.3,0.1l0.3,0l0.3,0.2l0.3,0.1l0.3,0.2l0.3,0.1l0.2,0.2l0.3,0.1l0.3,0.4l0.2,0.1l0.3,0.2l0.1,0.3l0.3,0.3l0.2,0.1l0.1,0.3l0.2,0.3l0.1,0.2l0.2,0.3l0.1,0.3l0,0.3l0.2,0.3l0.1,0.3l0,0.3l0,0.3l0,0.3l0,0.3l0.2,24.5l0,0.3l-0.2,0.4l0,0.3l0,0.4l-0.1,0.3l0,0.3l-0.2,0.3l-0.1,0.3l-0.2,0.1l-0.1,0.3l-0.2,0.3l-0.1,0.3l-0.2,0.2l-0.3,0.3l-0.1,0.2l-0.3,0.3l-0.2,0.1l-0.3,0.2l-0.3,0.3l-0.2,0.1l-0.3,0.2l-0.3,0.1l-0.3,0l-0.3,0.2l-0.3,0.1l-0.3,0l-0.3,0l-0.3,0.2l-0.3,0l-0.3,0L986.9,43.5l0,-0.1l-0.3,0l-0.3,0l-0.3,0l-0.3,-0.2l-0.3,0L985,43.1l-0.3,0l-0.2,-0.2l-0.3,-0.1l-0.3,-0.2l-0.3,-0.1l-0.3,-0.2l-0.2,-0.1l-0.3,-0.3l-0.1,-0.2l-0.3,-0.3l-0.2,-0.1l-0.1,-0.4l-0.4,-0.3l-0.1,-0.3L981.4,40l-0.1,-0.1l-0.2,-0.3l0,-0.3L981,39l0,-0.3l-0.2,-0.4l0,-0.3l0,-0.4l0,-0.3l0,-24.5Z" class="g1_62" />
<path d="M980.8,12.8l0,-0.3l0,-0.3l0,-0.3L981,11.6l0,-0.3L981.1,11l0,-0.3l0.2,-0.3l0.1,-0.3l0.2,-0.3l0.1,-0.2l0.4,-0.3L982.2,9l0.2,-0.1l0.3,-0.3l0.1,-0.2l0.3,-0.3l0.2,-0.2l0.3,-0.1l0.3,-0.2l0.3,-0.1l0.3,-0.2l0.2,-0.1L985,7l0.4,0l0.3,-0.1l0.3,0l0.3,0l0.3,0l0.3,0l189.5,0l0.3,0l0.3,0l0.3,0l0.3,0l0.3,0.1l0.3,0l0.3,0.2l0.3,0.1l0.3,0.2l0.3,0.1l0.2,0.2l0.3,0.1l0.3,0.4l0.2,0.1l0.3,0.2l0.1,0.3l0.3,0.3l0.2,0.1l0.1,0.3l0.2,0.3l0.1,0.2l0.2,0.3l0.1,0.3l0,0.3l0.2,0.3l0.1,0.3l0,0.3l0,0.3l0,0.3l0,0.3l0.2,24.5l0,0.3l-0.2,0.4l0,0.3l0,0.4l-0.1,0.3l0,0.3l-0.2,0.3l-0.1,0.3l-0.2,0.1l-0.1,0.3l-0.2,0.3l-0.1,0.3l-0.2,0.2l-0.3,0.3l-0.1,0.2l-0.3,0.3l-0.2,0.1l-0.3,0.2l-0.3,0.3l-0.2,0.1l-0.3,0.2l-0.3,0.1l-0.3,0l-0.3,0.2l-0.3,0.1l-0.3,0l-0.3,0l-0.3,0.2l-0.3,0l-0.3,0L986.9,43.5l0,-0.1l-0.3,0l-0.3,0l-0.3,0l-0.3,-0.2l-0.3,0L985,43.1l-0.3,0l-0.2,-0.2l-0.3,-0.1l-0.3,-0.2l-0.3,-0.1l-0.3,-0.2l-0.2,-0.1l-0.3,-0.3l-0.1,-0.2l-0.3,-0.3l-0.2,-0.1l-0.1,-0.4l-0.4,-0.3l-0.1,-0.3L981.4,40l-0.1,-0.1l-0.2,-0.3l0,-0.3L981,39l0,-0.3l-0.2,-0.4l0,-0.3l0,-0.4l0,-0.3l0,-24.5Z" class="g6_62" />
</svg>