<?xml version="1.0" encoding="UTF-8" standalone="no"?>
<!DOCTYPE svg PUBLIC "-//W3C//DTD SVG 1.1//EN"
"http://www.w3.org/Graphics/SVG/1.1/DTD/svg11.dtd">
<svg viewBox="0 0 1210 1045" version="1.1" xmlns="http://www.w3.org/2000/svg" xmlns:xlink="http://www.w3.org/1999/xlink">
<defs>
<style type="text/css"><![CDATA[
.g2_33{
fill: none;
stroke: #418AB3;
stroke-width: 2;
stroke-linecap: butt;
stroke-linejoin: miter;
stroke-miterlimit: 7;
}
.g1_33{
fill: #FFFFFF;
}
]]></style>
</defs>
<path fill-rule="evenodd" d="M0,0L1210,0l0,1045L0,1045L0,0Z" class="g1_33" />
<path fill-rule="evenodd" d="M0,0L1210,0l0,1045L0,1045L0,0Z" class="g1_33" />
<image x="828" y="984" width="334" height="49" xlink:href="img/1.png" />
<path fill-rule="evenodd" d="M980.8,9.9l0,-0.3l0,-0.3l0,-0.3L981,8.7l0,-0.3l0.1,-0.3l0,-0.3l0.2,-0.3l0.1,-0.3l0.2,-0.3l0.1,-0.3l0.4,-0.2l0.1,-0.3L982.4,6l0.3,-0.3l0.1,-0.4l0.3,-0.1L983.3,5l0.3,-0.1l0.3,-0.2l0.3,-0.3l0.3,0l0.2,-0.1L985,4.1l0.4,0L985.7,4L986,4l0.3,0l0.3,-0.2l0.3,0l189.5,0l0.3,0L1177,4l0.3,0l0.3,0l0.3,0.1l0.3,0l0.3,0.2l0.3,0.1l0.3,0.2l0.3,0.1l0.2,0.2l0.3,0.1l0.3,0.2l0.2,0.3l0.3,0.2l0.1,0.3l0.3,0.1l0.2,0.3l0.1,0.3l0.2,0.2l0.1,0.3l0.2,0.3l0.1,0.3l0,0.3l0.2,0.3l0.1,0.3l0,0.3l0,0.3l0,0.3l0,0.3l0.2,24.5l0,0.3l-0.2,0.3l0,0.3l0,0.3l-0.1,0.3l0,0.3l-0.2,0.3l-0.1,0.3l-0.2,0.3l-0.1,0.3l-0.2,0.3l-0.1,0.2l-0.2,0.3l-0.3,0.3l-0.1,0.2l-0.3,0.3l-0.2,0.1l-0.3,0.2l-0.3,0.1l-0.2,0.2l-0.3,0.3l-0.3,0l-0.3,0.1l-0.3,0.2l-0.3,0l-0.3,0.1l-0.3,0l-0.3,0l-0.3,0.2l-0.3,0l-189.5,0l-0.3,0l-0.3,0L986,40.3l-0.3,0l-0.3,0L985,40.2L984.7,40l-0.2,0l-0.3,-0.1l-0.3,-0.2l-0.3,-0.1l-0.3,-0.3l-0.2,-0.2L982.8,39l-0.1,-0.3l-0.3,-0.2l-0.2,-0.3L982.1,38l-0.4,-0.3l-0.1,-0.3l-0.2,-0.3l-0.1,-0.3l-0.2,-0.1l0,-0.3L981,35.9l0,-0.3l-0.2,-0.3l0,-0.3l0,-0.3l0,-0.3l0,-24.5Z" class="g1_33" />
<path d="M980.8,9.9l0,-0.3l0,-0.3l0,-0.3L981,8.7l0,-0.3l0.1,-0.3l0,-0.3l0.2,-0.3l0.1,-0.3l0.2,-0.3l0.1,-0.3l0.4,-0.2l0.1,-0.3L982.4,6l0.3,-0.3l0.1,-0.4l0.3,-0.1L983.3,5l0.3,-0.1l0.3,-0.2l0.3,-0.3l0.3,0l0.2,-0.1L985,4.1l0.4,0L985.7,4L986,4l0.3,0l0.3,-0.2l0.3,0l189.5,0l0.3,0L1177,4l0.3,0l0.3,0l0.3,0.1l0.3,0l0.3,0.2l0.3,0.1l0.3,0.2l0.3,0.1l0.2,0.2l0.3,0.1l0.3,0.2l0.2,0.3l0.3,0.2l0.1,0.3l0.3,0.1l0.2,0.3l0.1,0.3l0.2,0.2l0.1,0.3l0.2,0.3l0.1,0.3l0,0.3l0.2,0.3l0.1,0.3l0,0.3l0,0.3l0,0.3l0,0.3l0.2,24.5l0,0.3l-0.2,0.3l0,0.3l0,0.3l-0.1,0.3l0,0.3l-0.2,0.3l-0.1,0.3l-0.2,0.3l-0.1,0.3l-0.2,0.3l-0.1,0.2l-0.2,0.3l-0.3,0.3l-0.1,0.2l-0.3,0.3l-0.2,0.1l-0.3,0.2l-0.3,0.1l-0.2,0.2l-0.3,0.3l-0.3,0l-0.3,0.1l-0.3,0.2l-0.3,0l-0.3,0.1l-0.3,0l-0.3,0l-0.3,0.2l-0.3,0l-189.5,0l-0.3,0l-0.3,0L986,40.3l-0.3,0l-0.3,0L985,40.2L984.7,40l-0.2,0l-0.3,-0.1l-0.3,-0.2l-0.3,-0.1l-0.3,-0.3l-0.2,-0.2L982.8,39l-0.1,-0.3l-0.3,-0.2l-0.2,-0.3L982.1,38l-0.4,-0.3l-0.1,-0.3l-0.2,-0.3l-0.1,-0.3l-0.2,-0.1l0,-0.3L981,35.9l0,-0.3l-0.2,-0.3l0,-0.3l0,-0.3l0,-0.3l0,-24.5Z" class="g2_33" />
</svg>