<?xml version="1.0" encoding="UTF-8" standalone="no"?>
<!DOCTYPE svg PUBLIC "-//W3C//DTD SVG 1.1//EN"
"http://www.w3.org/Graphics/SVG/1.1/DTD/svg11.dtd">
<svg viewBox="0 0 1210 1045" version="1.1" xmlns="http://www.w3.org/2000/svg" xmlns:xlink="http://www.w3.org/1999/xlink">
<defs>
<style type="text/css"><![CDATA[
.g2_107{
fill: none;
stroke: #418AB3;
stroke-width: 2;
stroke-linecap: butt;
stroke-linejoin: miter;
stroke-miterlimit: 7;
}
.g1_107{
fill: #FFFFFF;
}
]]></style>
</defs>
<path fill-rule="evenodd" d="M0,0L1210,0l0,1045L0,1045L0,0Z" class="g1_107" />
<path fill-rule="evenodd" d="M0,0L1210,0l0,1045L0,1045L0,0Z" class="g1_107" />
<image x="828" y="984" width="334" height="49" xlink:href="img/1.png" />
<image x="174" y="128" width="859" height="206" xlink:href="img/2.png" />
<path fill-rule="evenodd" d="M977.6,20.5l0,-0.3l0,-0.5l0,-0.3l0,-0.3l0.2,-0.3l0.1,-0.3l0,-0.3l0.2,-0.3l0.1,-0.3l0.2,-0.3l0.1,-0.2l0.2,-0.3l0.1,-0.3l0.4,-0.2L979.3,16l0.3,-0.1l0.2,-0.3l0.3,-0.2l0.3,-0.1l0.3,-0.2L980.8,15l0.3,-0.2l0.3,-0.1l0.3,0l0.4,-0.2l0.3,-0.1l0.3,0l0.3,0l0.4,0l0.3,0l189.3,0l0.3,0l0.5,0l0.3,0l0.3,0l0.3,0.1l0.3,0.2l0.3,0l0.3,0.1l0.3,0.2l0.2,0.1l0.3,0.2l0.3,0.1l0.1,0.3l0.4,0.2l0.3,0.1l0.1,0.3l0.2,0.4l0.3,0.1l0.1,0.3l0.2,0.3l0.1,0.2l0.2,0.3l0.1,0.3l0,0.3l0.2,0.3l0,0.3l0.1,0.3l0,0.3l0,0.5l0,0.3l0.2,24.3l-0.2,0l0,0.3l0,0.4l0,0.3l0,0.3l-0.1,0.3l-0.2,0.3l0,0.4l-0.1,0.3l-0.2,0.3l-0.1,0.1l-0.2,0.3l-0.1,0.3l-0.3,0.2l-0.2,0.3l-0.1,0.1l-0.3,0.3l-0.4,0.2l-0.1,0.2l-0.3,0.3l-0.3,0.1l-0.2,0.2l-0.3,0.1l-0.3,0.2l-0.3,0l-0.3,0.1l-0.3,0l-0.3,0.2l-0.3,0l-0.5,0l-0.3,0L983.7,51l0,-0.1l-0.3,0l-0.4,0l-0.3,0l-0.3,0l-0.3,-0.2l-0.4,-0.1l-0.3,0l-0.3,-0.2l-0.3,-0.1l-0.1,-0.2L980.4,50l-0.3,-0.2l-0.3,-0.1l-0.2,-0.4l-0.3,-0.1l-0.1,-0.3l-0.4,-0.2l-0.1,-0.3l-0.2,-0.3L978.4,48l-0.2,-0.3l-0.1,-0.3l-0.2,-0.3l0,-0.4l-0.1,-0.3l-0.2,-0.3l0,-0.3l0,-0.3l0,-0.4l0,-0.3l0,-24.3Z" class="g1_107" />
<path d="M977.6,20.5l0,-0.3l0,-0.5l0,-0.3l0,-0.3l0.2,-0.3l0.1,-0.3l0,-0.3l0.2,-0.3l0.1,-0.3l0.2,-0.3l0.1,-0.2l0.2,-0.3l0.1,-0.3l0.4,-0.2L979.3,16l0.3,-0.1l0.2,-0.3l0.3,-0.2l0.3,-0.1l0.3,-0.2L980.8,15l0.3,-0.2l0.3,-0.1l0.3,0l0.4,-0.2l0.3,-0.1l0.3,0l0.3,0l0.4,0l0.3,0l189.3,0l0.3,0l0.5,0l0.3,0l0.3,0l0.3,0.1l0.3,0.2l0.3,0l0.3,0.1l0.3,0.2l0.2,0.1l0.3,0.2l0.3,0.1l0.1,0.3l0.4,0.2l0.3,0.1l0.1,0.3l0.2,0.4l0.3,0.1l0.1,0.3l0.2,0.3l0.1,0.2l0.2,0.3l0.1,0.3l0,0.3l0.2,0.3l0,0.3l0.1,0.3l0,0.3l0,0.5l0,0.3l0.2,24.3l-0.2,0l0,0.3l0,0.4l0,0.3l0,0.3l-0.1,0.3l-0.2,0.3l0,0.4l-0.1,0.3l-0.2,0.3l-0.1,0.1l-0.2,0.3l-0.1,0.3l-0.3,0.2l-0.2,0.3l-0.1,0.1l-0.3,0.3l-0.4,0.2l-0.1,0.2l-0.3,0.3l-0.3,0.1l-0.2,0.2l-0.3,0.1l-0.3,0.2l-0.3,0l-0.3,0.1l-0.3,0l-0.3,0.2l-0.3,0l-0.5,0l-0.3,0L983.7,51l0,-0.1l-0.3,0l-0.4,0l-0.3,0l-0.3,0l-0.3,-0.2l-0.4,-0.1l-0.3,0l-0.3,-0.2l-0.3,-0.1l-0.1,-0.2L980.4,50l-0.3,-0.2l-0.3,-0.1l-0.2,-0.4l-0.3,-0.1l-0.1,-0.3l-0.4,-0.2l-0.1,-0.3l-0.2,-0.3L978.4,48l-0.2,-0.3l-0.1,-0.3l-0.2,-0.3l0,-0.4l-0.1,-0.3l-0.2,-0.3l0,-0.3l0,-0.3l0,-0.4l0,-0.3l0,-24.3Z" class="g2_107" />
</svg>