<?xml version="1.0" encoding="UTF-8" standalone="no"?>
<!DOCTYPE svg PUBLIC "-//W3C//DTD SVG 1.1//EN"
"http://www.w3.org/Graphics/SVG/1.1/DTD/svg11.dtd">
<svg viewBox="0 0 1210 1045" version="1.1" xmlns="http://www.w3.org/2000/svg" xmlns:xlink="http://www.w3.org/1999/xlink">
<defs>
<style type="text/css"><![CDATA[
.g2_59{
fill: #418AB3;
}
.g5_59{
fill: none;
stroke: #FFFFFF;
stroke-width: 1;
stroke-linecap: butt;
stroke-linejoin: miter;
}
.g3_59{
fill: #CEDAE4;
}
.g4_59{
fill: #E8EDF2;
}
.g1_59{
fill: #FFFFFF;
}
]]></style>
</defs>
<path fill-rule="evenodd" d="M0,0L1210,0l0,1045L0,1045L0,0Z" class="g1_59" />
<path fill-rule="evenodd" d="M0,0L1210,0l0,1045L0,1045L0,0Z" class="g1_59" />
<image x="828" y="984" width="334" height="49" xlink:href="img/1.png" />
<path fill-rule="evenodd" d="M205,123l156,0l0,42l-156,0l0,-42Z" class="g2_59" />
<path fill-rule="evenodd" d="M361,123l248,0l0,42l-248,0l0,-42Z" class="g2_59" />
<path fill-rule="evenodd" d="M609,123l267,0l0,42l-267,0l0,-42Z" class="g2_59" />
<path fill-rule="evenodd" d="M876,123l128,0l0,42l-128,0l0,-42Z" class="g2_59" />
<path fill-rule="evenodd" d="M205,165l156,0l0,53l-156,0l0,-53Z" class="g3_59" />
<path fill-rule="evenodd" d="M361,165l248,0l0,53l-248,0l0,-53Z" class="g3_59" />
<path fill-rule="evenodd" d="M609,165l267,0l0,53l-267,0l0,-53Z" class="g3_59" />
<path fill-rule="evenodd" d="M876,165l128,0l0,53l-128,0l0,-53Z" class="g3_59" />
<path fill-rule="evenodd" d="M205,218l156,0l0,52l-156,0l0,-52Z" class="g4_59" />
<path fill-rule="evenodd" d="M361,218l248,0l0,52l-248,0l0,-52Z" class="g4_59" />
<path fill-rule="evenodd" d="M609,218l267,0l0,52l-267,0l0,-52Z" class="g4_59" />
<path fill-rule="evenodd" d="M876,218l128,0l0,52l-128,0l0,-52Z" class="g4_59" />
<path fill-rule="evenodd" d="M205,270l156,0l0,40l-156,0l0,-40Z" class="g3_59" />
<path fill-rule="evenodd" d="M361,270l248,0l0,40l-248,0l0,-40Z" class="g3_59" />
<path fill-rule="evenodd" d="M609,270l267,0l0,40l-267,0l0,-40Z" class="g3_59" />
<path fill-rule="evenodd" d="M876,270l128,0l0,40l-128,0l0,-40Z" class="g3_59" />
<path fill-rule="evenodd" d="M205,310l156,0l0,47l-156,0l0,-47Z" class="g4_59" />
<path fill-rule="evenodd" d="M361,310l248,0l0,47l-248,0l0,-47Z" class="g4_59" />
<path fill-rule="evenodd" d="M609,310l267,0l0,47l-267,0l0,-47Z" class="g4_59" />
<path fill-rule="evenodd" d="M876,310l128,0l0,47l-128,0l0,-47Z" class="g4_59" />
<path fill-rule="evenodd" d="M205,357l156,0l0,46l-156,0l0,-46Z" class="g3_59" />
<path fill-rule="evenodd" d="M361,357l248,0l0,46l-248,0l0,-46Z" class="g3_59" />
<path fill-rule="evenodd" d="M609,357l267,0l0,46l-267,0l0,-46Z" class="g3_59" />
<path fill-rule="evenodd" d="M876,357l128,0l0,46l-128,0l0,-46Z" class="g3_59" />
<path d="M204.5,167.5l0,-44" class="g5_59" />
<path d="M361.5,165.5l0,-42" class="g5_59" />
<path d="M204.5,124.5l158,0" class="g5_59" />
<path d="M361.5,165.5l0,-42" class="g5_59" />
<path d="M608.5,165.5l0,-42" class="g5_59" />
<path d="M361.5,124.5l248,0" class="g5_59" />
<path d="M608.5,165.5l0,-42" class="g5_59" />
<path d="M875.5,167.5l0,-44" class="g5_59" />
<path d="M608.5,124.5l269,0" class="g5_59" />
<path d="M875.5,165.5l0,-42" class="g5_59" />
<path d="M1004.5,167.5l0,-44" class="g5_59" />
<path d="M875.5,124.5l130,0" class="g5_59" />
<path d="M204.5,218.5l0,-54" class="g5_59" />
<path d="M361.5,218.5l0,-53" class="g5_59" />
<path fill-rule="evenodd" d="M361.8,165.8l-0.6,2.1l-155.4,0L205,165.8l0.8,-2l155.4,0l0.6,2Z" class="g1_59" />
<path d="M361.5,218.5l0,-53" class="g5_59" />
<path d="M608.5,218.5l0,-53" class="g5_59" />
<path fill-rule="evenodd" d="M609.1,165.8l-0.7,2.1l-246,0l-0.6,-2.1l0.6,-2l246,0l0.7,2Z" class="g1_59" />
<path d="M608.5,218.5l0,-53" class="g5_59" />
<path d="M875.5,218.5l0,-54" class="g5_59" />
<path fill-rule="evenodd" d="M876.5,165.8l-0.6,2.1l-266.2,0l-0.6,-2.1l0.6,-2l266.2,0l0.6,2Z" class="g1_59" />
<path d="M875.5,218.5l0,-53" class="g5_59" />
<path d="M1004.5,218.5l0,-54" class="g5_59" />
<path fill-rule="evenodd" d="M1004.8,165.8l-0.6,2.1l-127.1,0l-0.6,-2.1l0.6,-2l127.1,0l0.6,2Z" class="g1_59" />
<path d="M204.5,270.5l0,-53" class="g5_59" />
<path d="M361.5,270.5l0,-52" class="g5_59" />
<path d="M205.5,218.5l156,0" class="g5_59" />
<path d="M361.5,270.5l0,-52" class="g5_59" />
<path d="M608.5,270.5l0,-52" class="g5_59" />
<path d="M361.5,218.5l248,0" class="g5_59" />
<path d="M608.5,270.5l0,-52" class="g5_59" />
<path d="M875.5,270.5l0,-53" class="g5_59" />
<path d="M609.5,218.5l267,0" class="g5_59" />
<path d="M875.5,270.5l0,-52" class="g5_59" />
<path d="M1004.5,270.5l0,-53" class="g5_59" />
<path d="M876.5,218.5l128,0" class="g5_59" />
<path d="M204.5,311.5l0,-42" class="g5_59" />
<path d="M361.5,310.5l0,-40" class="g5_59" />
<path d="M205.5,270.5l156,0" class="g5_59" />
<path d="M361.5,310.5l0,-40" class="g5_59" />
<path d="M608.5,310.5l0,-40" class="g5_59" />
<path d="M361.5,270.5l248,0" class="g5_59" />
<path d="M608.5,310.5l0,-40" class="g5_59" />
<path d="M875.5,311.5l0,-42" class="g5_59" />
<path d="M609.5,270.5l267,0" class="g5_59" />
<path d="M875.5,310.5l0,-40" class="g5_59" />
<path d="M1004.5,311.5l0,-42" class="g5_59" />
<path d="M876.5,270.5l128,0" class="g5_59" />
<path d="M204.5,357.5l0,-48" class="g5_59" />
<path d="M361.5,357.5l0,-47" class="g5_59" />
<path d="M205.5,311.5l156,0" class="g5_59" />
<path d="M361.5,357.5l0,-47" class="g5_59" />
<path d="M608.5,357.5l0,-47" class="g5_59" />
<path d="M361.5,311.5l248,0" class="g5_59" />
<path d="M608.5,357.5l0,-47" class="g5_59" />
<path d="M875.5,357.5l0,-48" class="g5_59" />
<path d="M609.5,311.5l267,0" class="g5_59" />
<path d="M875.5,357.5l0,-47" class="g5_59" />
<path d="M1004.5,357.5l0,-48" class="g5_59" />
<path d="M876.5,311.5l128,0" class="g5_59" />
<path d="M204.5,404.5l0,-48" class="g5_59" />
<path d="M204.5,404.5l158,0" class="g5_59" />
<path d="M361.5,403.5l0,-46" class="g5_59" />
<path d="M205.5,357.5l156,0" class="g5_59" />
<path d="M361.5,403.5l0,-46" class="g5_59" />
<path d="M361.5,404.5l248,0" class="g5_59" />
<path d="M608.5,403.5l0,-46" class="g5_59" />
<path d="M361.5,357.5l248,0" class="g5_59" />
<path d="M608.5,403.5l0,-46" class="g5_59" />
<path d="M608.5,404.5l269,0" class="g5_59" />
<path d="M875.5,404.5l0,-48" class="g5_59" />
<path d="M609.5,357.5l267,0" class="g5_59" />
<path d="M875.5,403.5l0,-46" class="g5_59" />
<path d="M875.5,404.5l130,0" class="g5_59" />
<path d="M1004.5,404.5l0,-48" class="g5_59" />
<path d="M876.5,357.5l128,0" class="g5_59" />
</svg>