<?xml version="1.0" encoding="UTF-8" standalone="no"?>
<!DOCTYPE svg PUBLIC "-//W3C//DTD SVG 1.1//EN"
"http://www.w3.org/Graphics/SVG/1.1/DTD/svg11.dtd">
<svg viewBox="0 0 1210 1045" version="1.1" xmlns="http://www.w3.org/2000/svg" xmlns:xlink="http://www.w3.org/1999/xlink">
<defs>
<style type="text/css"><![CDATA[
.g4_78{
fill: none;
stroke: #0000EE;
stroke-width: 2;
stroke-linecap: butt;
stroke-linejoin: miter;
}
.g2_78{
fill: #E6E6E6;
}
.g5_78{
fill: none;
stroke: #418AB3;
stroke-width: 1;
stroke-linecap: butt;
stroke-linejoin: miter;
}
.g3_78{
fill: #418AB3;
fill-opacity: 0.2;
}
.g1_78{
fill: #FFFFFF;
}
]]></style>
</defs>
<path fill-rule="evenodd" d="M0,0L1210,0l0,1045L0,1045L0,0Z" class="g1_78" />
<path fill-rule="evenodd" d="M0,0L1210,0l0,1045L0,1045L0,0Z" class="g1_78" />
<image x="828" y="984" width="334" height="49" xlink:href="img/1.png" />
<path fill-rule="evenodd" d="M169,62l481,0l0,34L169,96l0,-34Z" class="g2_78" />
<path fill-rule="evenodd" d="M169,177l481,0l0,85l-481,0l0,-85Z" class="g2_78" />
<path fill-rule="evenodd" d="M174,370l143,0l0,43l-143,0l0,-43Z" class="g3_78" />
<path fill-rule="evenodd" d="M317,370l718,0l0,43l-718,0l0,-43Z" class="g3_78" />
<path d="M326,400l454,0" class="g4_78" />
<path d="M174.5,319.5l143,0" class="g5_78" />
<path d="M317.5,319.5l718,0" class="g5_78" />
<path d="M174.5,414.5l143,0" class="g5_78" />
<path d="M174.5,371.5l143,0" class="g5_78" />
<path d="M317.5,414.5l718,0" class="g5_78" />
<path d="M317.5,371.5l718,0" class="g5_78" />
</svg>