<?xml version="1.0" encoding="UTF-8" standalone="no"?>
<!DOCTYPE svg PUBLIC "-//W3C//DTD SVG 1.1//EN"
"http://www.w3.org/Graphics/SVG/1.1/DTD/svg11.dtd">
<svg viewBox="0 0 1210 1045" version="1.1" xmlns="http://www.w3.org/2000/svg" xmlns:xlink="http://www.w3.org/1999/xlink">
<defs>
<style type="text/css"><![CDATA[
.g2_2{
fill: none;
stroke: #418AB3;
stroke-width: 2;
stroke-linecap: butt;
stroke-linejoin: miter;
stroke-miterlimit: 7;
}
.g3_2{
fill: none;
stroke: #0000EE;
stroke-width: 2;
stroke-linecap: butt;
stroke-linejoin: miter;
}
.g1_2{
fill: #FFFFFF;
}
]]></style>
</defs>
<path fill-rule="evenodd" d="M0,0L1210,0l0,1045L0,1045L0,0Z" class="g1_2" />
<path fill-rule="evenodd" d="M0,0L1210,0l0,1045L0,1045L0,0Z" class="g1_2" />
<image x="828" y="984" width="334" height="49" xlink:href="img/1.png" />
<path fill-rule="evenodd" d="M204.1,603.8l0,-0.8l0,-0.9l0.2,-0.8l0.1,-0.7l0.2,-0.8l0.3,-0.8l0.1,-0.7l0.3,-0.6l0.3,-0.8l0.5,-0.8l0.5,-0.6l0.4,-0.7l0.5,-0.6l0.4,-0.7l0.6,-0.4l0.7,-0.6l0.6,-0.5l0.6,-0.4l0.6,-0.7l0.6,-0.3l0.8,-0.4l0.7,-0.3l0.6,-0.3l0.8,-0.3l0.8,-0.2L216,589l0.8,-0.2l0.8,-0.1l0.9,0l0.7,0l771.4,0l0.8,0l0.9,0l0.8,0.1l0.7,0.2l0.8,0.1l0.7,0.2l0.8,0.3l0.8,0.3l0.6,0.3l0.8,0.4l0.6,0.5l0.6,0.5l0.7,0.4l0.6,0.5l0.5,0.6l0.6,0.4l0.5,0.7l0.4,0.7l0.5,0.6l0.5,0.6l0.3,0.8l0.4,0.8l0.3,0.6l0.2,0.7l0.3,0.8l0.1,0.8l0.2,0.7l0.1,0.8l0,0.9l0,0.8l0.2,60.6l-0.2,0l0,0.8l0,0.8l-0.1,0.7l-0.2,0.8l-0.1,0.7l-0.2,0.8l-0.3,0.8l-0.3,0.7l-0.3,0.8l-0.4,0.6l-0.5,0.6l-0.5,0.8l-0.4,0.6l-0.5,0.6l-0.6,0.6l-0.5,0.5l-0.6,0.4l-0.7,0.7l-0.6,0.4l-0.6,0.3l-0.8,0.5l-0.6,0.3l-0.8,0.3l-0.8,0.3l-0.7,0.1l-0.8,0.2l-0.7,0.2l-0.8,0.1l-0.9,0.2l-0.8,0l-771.4,0l-0.7,0l-0.9,-0.2l-0.8,0L216,679.3l-0.7,-0.4l-0.8,-0.1l-0.8,-0.3l-0.6,-0.3l-0.7,-0.3l-0.8,-0.3L211,677.1l-0.6,-0.4l-0.6,-0.5l-0.6,-0.6l-0.7,-0.5l-0.6,-0.6l-0.4,-0.6L207,673.3l-0.4,-0.6l-0.5,-0.8l-0.5,-0.6l-0.3,-0.8L205,669.8L204.9,669l-0.3,-0.8l-0.2,-0.7l-0.1,-0.8L204.1,666l0,-0.8l0,-0.8l0,-60.6Z" class="g1_2" />
<path d="M204.1,603.8l0,-0.8l0,-0.9l0.2,-0.8l0.1,-0.7l0.2,-0.8l0.3,-0.8l0.1,-0.7l0.3,-0.6l0.3,-0.8l0.5,-0.8l0.5,-0.6l0.4,-0.7l0.5,-0.6l0.4,-0.7l0.6,-0.4l0.7,-0.6l0.6,-0.5l0.6,-0.4l0.6,-0.7l0.6,-0.3l0.8,-0.4l0.7,-0.3l0.6,-0.3l0.8,-0.3l0.8,-0.2L216,589l0.8,-0.2l0.8,-0.1l0.9,0l0.7,0l771.4,0l0.8,0l0.9,0l0.8,0.1l0.7,0.2l0.8,0.1l0.7,0.2l0.8,0.3l0.8,0.3l0.6,0.3l0.8,0.4l0.6,0.5l0.6,0.5l0.7,0.4l0.6,0.5l0.5,0.6l0.6,0.4l0.5,0.7l0.4,0.7l0.5,0.6l0.5,0.6l0.3,0.8l0.4,0.8l0.3,0.6l0.2,0.7l0.3,0.8l0.1,0.8l0.2,0.7l0.1,0.8l0,0.9l0,0.8l0.2,60.6l-0.2,0l0,0.8l0,0.8l-0.1,0.7l-0.2,0.8l-0.1,0.7l-0.2,0.8l-0.3,0.8l-0.3,0.7l-0.3,0.8l-0.4,0.6l-0.5,0.6l-0.5,0.8l-0.4,0.6l-0.5,0.6l-0.6,0.6l-0.5,0.5l-0.6,0.4l-0.7,0.7l-0.6,0.4l-0.6,0.3l-0.8,0.5l-0.6,0.3l-0.8,0.3l-0.8,0.3l-0.7,0.1l-0.8,0.2l-0.7,0.2l-0.8,0.1l-0.9,0.2l-0.8,0l-771.4,0l-0.7,0l-0.9,-0.2l-0.8,0L216,679.3l-0.7,-0.4l-0.8,-0.1l-0.8,-0.3l-0.6,-0.3l-0.7,-0.3l-0.8,-0.3L211,677.1l-0.6,-0.4l-0.6,-0.5l-0.6,-0.6l-0.7,-0.5l-0.6,-0.6l-0.4,-0.6L207,673.3l-0.4,-0.6l-0.5,-0.8l-0.5,-0.6l-0.3,-0.8L205,669.8L204.9,669l-0.3,-0.8l-0.2,-0.7l-0.1,-0.8L204.1,666l0,-0.8l0,-0.8l0,-60.6Z" class="g2_2" />
<path d="M300,659l450,0" class="g3_2" />
<image x="205" y="100" width="794" height="427" xlink:href="img/2.png" />
</svg>