<?xml version="1.0" encoding="UTF-8" standalone="no"?>
<!DOCTYPE svg PUBLIC "-//W3C//DTD SVG 1.1//EN"
"http://www.w3.org/Graphics/SVG/1.1/DTD/svg11.dtd">
<svg viewBox="0 0 1210 1045" version="1.1" xmlns="http://www.w3.org/2000/svg" xmlns:xlink="http://www.w3.org/1999/xlink">
<defs>
<style type="text/css"><![CDATA[
.g2_29{
fill: none;
stroke: #418AB3;
stroke-width: 2;
stroke-linecap: butt;
stroke-linejoin: miter;
stroke-miterlimit: 7;
}
.g3_29{
fill: none;
stroke: #0000EE;
stroke-width: 2;
stroke-linecap: butt;
stroke-linejoin: miter;
}
.g1_29{
fill: #FFFFFF;
}
]]></style>
</defs>
<path fill-rule="evenodd" d="M0,0L1210,0l0,1045L0,1045L0,0Z" class="g1_29" />
<path fill-rule="evenodd" d="M0,0L1210,0l0,1045L0,1045L0,0Z" class="g1_29" />
<image x="828" y="984" width="334" height="49" xlink:href="img/1.png" />
<path fill-rule="evenodd" d="M212.7,394l0,-0.9l0,-0.9l0.1,-0.9l0.2,-0.8l0.1,-0.9l0.3,-0.8l0.3,-0.9l0.3,-0.8l0.3,-0.7l0.5,-0.9l0.5,-0.7l0.6,-0.7l0.4,-0.8l0.6,-0.6l0.7,-0.6l0.6,-0.6l0.6,-0.6l0.7,-0.6l0.8,-0.5l0.8,-0.5l0.7,-0.4l0.8,-0.3l0.8,-0.3l0.9,-0.3l0.7,-0.3l1,-0.2l0.9,-0.1l0.7,-0.2l1,0l0.9,-0.1l757.9,0l0.9,0.1l0.9,0l0.8,0.2l0.9,0.1l0.8,0.2l0.9,0.3l0.8,0.3l0.9,0.3L995,379l0.8,0.3l0.8,0.5l0.7,0.6l0.6,0.5l0.8,0.6l0.6,0.6l0.6,0.6l0.6,0.8l0.5,0.6l0.5,0.7l0.4,0.8l0.5,0.8l0.3,0.7l0.4,0.8l0.3,0.9l0.2,0.8l0.3,0.9l0.2,0.8l0,0.9l0.1,0.9l0,0.9l0.2,67.4l-0.2,0.9l0,0.9l-0.1,0.9l-0.2,0.8l-0.1,0.9l-0.4,0.8l-0.3,0.9l-0.3,0.8l-0.4,0.7l-0.3,0.8l-0.5,0.8l-0.6,0.7l-0.5,0.6l-0.6,0.8l-0.6,0.6l-0.6,0.6l-0.8,0.6l-0.6,0.5l-0.7,0.4l-0.8,0.7l-0.8,0.3l-0.7,0.4l-0.8,0.3l-0.9,0.3l-0.8,0.3l-0.9,0.2L990,478l-0.8,0.2l-0.9,0l-0.9,0l-757.9,0.1l-0.9,0l-1,-0.1L226.9,478L226,477.9l-1,-0.2l-0.7,-0.3l-0.9,-0.3l-0.8,-0.3l-0.8,-0.3l-0.7,-0.4l-0.8,-0.5l-0.8,-0.5l-0.7,-0.6l-0.6,-0.4l-0.6,-0.6l-0.7,-0.8l-0.6,-0.6l-0.4,-0.8l-0.6,-0.7l-0.5,-0.7L214.3,469L214,468.3l-0.3,-0.8l-0.3,-0.8l-0.3,-0.9L213,464.9l-0.2,-0.8l-0.1,-0.9l0,-0.9l0,-0.9l0,-67.4Z" class="g1_29" />
<path d="M212.7,394l0,-0.9l0,-0.9l0.1,-0.9l0.2,-0.8l0.1,-0.9l0.3,-0.8l0.3,-0.9l0.3,-0.8l0.3,-0.7l0.5,-0.9l0.5,-0.7l0.6,-0.7l0.4,-0.8l0.6,-0.6l0.7,-0.6l0.6,-0.6l0.6,-0.6l0.7,-0.6l0.8,-0.5l0.8,-0.5l0.7,-0.4l0.8,-0.3l0.8,-0.3l0.9,-0.3l0.7,-0.3l1,-0.2l0.9,-0.1l0.7,-0.2l1,0l0.9,-0.1l757.9,0l0.9,0.1l0.9,0l0.8,0.2l0.9,0.1l0.8,0.2l0.9,0.3l0.8,0.3l0.9,0.3L995,379l0.8,0.3l0.8,0.5l0.7,0.6l0.6,0.5l0.8,0.6l0.6,0.6l0.6,0.6l0.6,0.8l0.5,0.6l0.5,0.7l0.4,0.8l0.5,0.8l0.3,0.7l0.4,0.8l0.3,0.9l0.2,0.8l0.3,0.9l0.2,0.8l0,0.9l0.1,0.9l0,0.9l0.2,67.4l-0.2,0.9l0,0.9l-0.1,0.9l-0.2,0.8l-0.1,0.9l-0.4,0.8l-0.3,0.9l-0.3,0.8l-0.4,0.7l-0.3,0.8l-0.5,0.8l-0.6,0.7l-0.5,0.6l-0.6,0.8l-0.6,0.6l-0.6,0.6l-0.8,0.6l-0.6,0.5l-0.7,0.4l-0.8,0.7l-0.8,0.3l-0.7,0.4l-0.8,0.3l-0.9,0.3l-0.8,0.3l-0.9,0.2L990,478l-0.8,0.2l-0.9,0l-0.9,0l-757.9,0.1l-0.9,0l-1,-0.1L226.9,478L226,477.9l-1,-0.2l-0.7,-0.3l-0.9,-0.3l-0.8,-0.3l-0.8,-0.3l-0.7,-0.4l-0.8,-0.5l-0.8,-0.5l-0.7,-0.6l-0.6,-0.4l-0.6,-0.6l-0.7,-0.8l-0.6,-0.6l-0.4,-0.8l-0.6,-0.7l-0.5,-0.7L214.3,469L214,468.3l-0.3,-0.8l-0.3,-0.8l-0.3,-0.9L213,464.9l-0.2,-0.8l-0.1,-0.9l0,-0.9l0,-0.9l0,-67.4Z" class="g2_29" />
<path d="M300,453l458,0" class="g3_29" />
<path fill-rule="evenodd" d="M255,247l190,0l0,69l-190,0l0,-69Z" class="g1_29" />
<path d="M255,247l190,0l0,69l-190,0l0,-69Z" class="g2_29" />
<path fill-rule="evenodd" d="M521.1,281.9l87.4,-48l87.4,48l-87.4,47.9L521.1,281.9Z" class="g1_29" />
<path d="M521.1,281.9l87.4,-48l87.4,48l-87.4,47.9L521.1,281.9Z" class="g2_29" />
<path fill-rule="evenodd" d="M770,280.2l0.2,-1.7l0.3,-1.7l0.6,-1.6l0.7,-1.7l1.3,-1.7l1.2,-1.7l1.7,-1.7l1.6,-1.5l2,-1.5l2.3,-1.6l2.5,-1.3l2.6,-1.6l2.9,-1.3l3,-1.3l3.2,-1.2l3.4,-1.2l3.7,-1.1l3.6,-1l3.8,-1l4,-0.9l4.1,-0.7l4.3,-1l4.3,-0.6l4.4,-0.6l4.5,-0.4l4.5,-0.3l4.6,-0.3l4.6,-0.3l4.7,-0.2l4.8,0l4.6,0l4.7,0.2l4.6,0.3l4.6,0.3l4.5,0.3l4.5,0.4l4.4,0.6l4.3,0.6l4.3,0.8l4.1,0.9l4,0.9l3.8,1l3.6,1l3.7,1.1l3.4,1.2l3.2,1.2l3,1.3l2.9,1.3l2.6,1.6l2.5,1.3l2.3,1.6l2,1.5l1.6,1.5l1.7,1.7l1.2,1.7l1.3,1.7l0.7,1.7l0.6,1.6l0.3,1.7l0.2,1.7l-0.2,1.8l-0.3,1.7l-0.6,1.7l-0.7,1.7l-1.3,1.7l-1.2,1.6l-1.7,1.6l-1.6,1.5l-2,1.7l-2.3,1.3l-2.5,1.6l-2.6,1.3l-2.9,1.4l-3,1.4l-3.2,1.2l-3.4,1.2l-3.7,1.1l-3.6,1.1l-3.8,0.9l-4,0.9l-4.1,0.8l-4.3,0.7l-4.3,0.6l-4.4,0.7l-4.5,0.4l-4.5,0.5l-4.6,0.3l-4.8,0.1l-4.5,0.2l-4.8,0.1l0,-0.1l-4.6,0l-4.7,-0.2l-4.6,-0.1l-4.6,-0.5l-4.5,-0.3l-4.6,-0.4l-4.5,-0.7l-4.2,-0.6l-4.2,-0.7l-4.1,-0.8l-4,-0.9l-3.9,-1.1L803,305.7l-3.5,-1.2l-3.4,-1.1L792.8,302l-2.9,-1.2L787,299.4l-2.6,-1.3l-2.5,-1.6L779.6,295l-2,-1.5L775.8,292l-1.5,-1.7l-1.4,-1.5l-1.1,-1.7l-0.9,-1.9l-0.6,-1.6L770,281.9l-0.2,-1.7l0.2,0Z" class="g1_29" />
<path d="M770,280.2l0.2,-1.7l0.3,-1.7l0.6,-1.6l0.7,-1.7l1.3,-1.7l1.2,-1.7l1.7,-1.7l1.6,-1.5l2,-1.5l2.3,-1.6l2.5,-1.3l2.6,-1.6l2.9,-1.3l3,-1.3l3.2,-1.2l3.4,-1.2l3.7,-1.1l3.6,-1l3.8,-1l4,-0.9l4.1,-0.7l4.3,-1l4.3,-0.6l4.4,-0.6l4.5,-0.4l4.5,-0.3l4.6,-0.3l4.6,-0.3l4.7,-0.2l4.8,0l4.6,0l4.7,0.2l4.6,0.3l4.6,0.3l4.5,0.3l4.5,0.4l4.4,0.6l4.3,0.6l4.3,0.8l4.1,0.9l4,0.9l3.8,1l3.6,1l3.7,1.1l3.4,1.2l3.2,1.2l3,1.3l2.9,1.3l2.6,1.6l2.5,1.3l2.3,1.6l2,1.5l1.6,1.5l1.7,1.7l1.2,1.7l1.3,1.7l0.7,1.7l0.6,1.6l0.3,1.7l0.2,1.7l-0.2,1.8l-0.3,1.7l-0.6,1.7l-0.7,1.7l-1.3,1.7l-1.2,1.6l-1.7,1.6l-1.6,1.5l-2,1.7l-2.3,1.3l-2.5,1.6l-2.6,1.3l-2.9,1.4l-3,1.4l-3.2,1.2l-3.4,1.2l-3.7,1.1l-3.6,1.1l-3.8,0.9l-4,0.9l-4.1,0.8l-4.3,0.7l-4.3,0.6l-4.4,0.7l-4.5,0.4l-4.5,0.5l-4.6,0.3l-4.8,0.1l-4.5,0.2l-4.8,0.1l0,-0.1l-4.6,0l-4.7,-0.2l-4.6,-0.1l-4.6,-0.5l-4.5,-0.3l-4.6,-0.4l-4.5,-0.7l-4.2,-0.6l-4.2,-0.7l-4.1,-0.8l-4,-0.9l-3.9,-1.1L803,305.7l-3.5,-1.2l-3.4,-1.1L792.8,302l-2.9,-1.2L787,299.4l-2.6,-1.3l-2.5,-1.6L779.6,295l-2,-1.5L775.8,292l-1.5,-1.7l-1.4,-1.5l-1.1,-1.7l-0.9,-1.9l-0.6,-1.6L770,281.9l-0.2,-1.7l0.2,0Z" class="g2_29" />
</svg>