<?xml version="1.0" encoding="UTF-8" standalone="no"?>
<!DOCTYPE svg PUBLIC "-//W3C//DTD SVG 1.1//EN"
"http://www.w3.org/Graphics/SVG/1.1/DTD/svg11.dtd">
<svg viewBox="0 0 1210 1210" version="1.1" xmlns="http://www.w3.org/2000/svg" xmlns:xlink="http://www.w3.org/1999/xlink">
<defs>
<style type="text/css"><![CDATA[
.g2_104{
fill: none;
stroke: #418AB3;
stroke-width: 2;
stroke-linecap: butt;
stroke-linejoin: miter;
stroke-miterlimit: 7;
}
.g3_104{
fill: none;
stroke: #0000EE;
stroke-width: 2;
stroke-linecap: butt;
stroke-linejoin: miter;
}
.g1_104{
fill: #FFFFFF;
}
]]></style>
</defs>
<path fill-rule="evenodd" d="M0,0L1210,0l0,1210L0,1210L0,0Z" class="g1_104" />
<path fill-rule="evenodd" d="M0,0L1210,0l0,1210L0,1210L0,0Z" class="g1_104" />
<path fill-rule="evenodd" d="M208.2,81l0.2,-0.9l0,-1l0.1,-0.7l0.2,-0.9l0.1,-1l0.4,-0.7l0.3,-0.9l0.3,-0.8l0.3,-0.8l0.4,-0.7L211,71.8L211.4,71l0.7,-0.6l0.6,-0.7l0.6,-0.6l0.6,-0.7l0.6,-0.6l0.8,-0.4L216,66.9l0.6,-0.4l1,-0.5l0.7,-0.5l0.8,-0.3l0.7,-0.3l1,-0.3l0.7,-0.1l0.9,-0.2l1,-0.1l0.9,0l0.7,0l759,0l0.8,0l0.9,0l0.9,0.1l1,0.2l0.7,0.1l0.9,0.3l0.8,0.3l0.8,0.3l0.7,0.5l0.9,0.5l0.7,0.4l0.7,0.5l0.8,0.4l0.6,0.6l0.6,0.7l0.6,0.6l0.6,0.7l0.5,0.6l0.6,0.8l0.5,0.8l0.3,0.7l0.4,0.8l0.3,0.8l0.3,0.9l0.3,0.7l0.2,1l0.1,0.9l0.2,0.7l0,1l0,0.9l0.1,67l-0.1,1l0,0.9l-0.2,0.9l-0.1,0.8l-0.2,0.9l-0.3,0.7l-0.3,1l-0.3,0.7l-0.4,0.8l-0.3,0.7l-0.5,0.8l-0.5,0.8l-0.6,0.7l-0.6,0.6l-0.6,0.7l-0.6,0.6l-0.6,0.6l-0.8,0.4l-0.7,0.7l-0.7,0.3l-0.9,0.4l-0.7,0.5l-0.8,0.3l-0.8,0.3l-0.9,0.1l-0.7,0.3l-1,0.2l-0.9,0.1l-0.9,0l-0.8,0L225,165l0,-0.2l-0.7,0l-0.9,0l-1,-0.1l-0.9,-0.2l-0.7,-0.1l-1,-0.3l-0.7,-0.3l-0.8,-0.3l-0.7,-0.3l-1,-0.5L216,162.3l-0.7,-0.7l-0.8,-0.4l-0.6,-0.6L213.3,160l-0.6,-0.7l-0.6,-0.6L211.4,158L211,157.2l-0.5,-0.8l-0.4,-0.7l-0.3,-0.8l-0.3,-0.7l-0.3,-1l-0.4,-0.7l-0.1,-0.9l-0.2,-0.8l-0.1,-0.9l0,-0.9l-0.2,-1l0,-67Z" class="g1_104" />
<path d="M208.2,81l0.2,-0.9l0,-1l0.1,-0.7l0.2,-0.9l0.1,-1l0.4,-0.7l0.3,-0.9l0.3,-0.8l0.3,-0.8l0.4,-0.7L211,71.8L211.4,71l0.7,-0.6l0.6,-0.7l0.6,-0.6l0.6,-0.7l0.6,-0.6l0.8,-0.4L216,66.9l0.6,-0.4l1,-0.5l0.7,-0.5l0.8,-0.3l0.7,-0.3l1,-0.3l0.7,-0.1l0.9,-0.2l1,-0.1l0.9,0l0.7,0l759,0l0.8,0l0.9,0l0.9,0.1l1,0.2l0.7,0.1l0.9,0.3l0.8,0.3l0.8,0.3l0.7,0.5l0.9,0.5l0.7,0.4l0.7,0.5l0.8,0.4l0.6,0.6l0.6,0.7l0.6,0.6l0.6,0.7l0.5,0.6l0.6,0.8l0.5,0.8l0.3,0.7l0.4,0.8l0.3,0.8l0.3,0.9l0.3,0.7l0.2,1l0.1,0.9l0.2,0.7l0,1l0,0.9l0.1,67l-0.1,1l0,0.9l-0.2,0.9l-0.1,0.8l-0.2,0.9l-0.3,0.7l-0.3,1l-0.3,0.7l-0.4,0.8l-0.3,0.7l-0.5,0.8l-0.5,0.8l-0.6,0.7l-0.6,0.6l-0.6,0.7l-0.6,0.6l-0.6,0.6l-0.8,0.4l-0.7,0.7l-0.7,0.3l-0.9,0.4l-0.7,0.5l-0.8,0.3l-0.8,0.3l-0.9,0.1l-0.7,0.3l-1,0.2l-0.9,0.1l-0.9,0l-0.8,0L225,165l0,-0.2l-0.7,0l-0.9,0l-1,-0.1l-0.9,-0.2l-0.7,-0.1l-1,-0.3l-0.7,-0.3l-0.8,-0.3l-0.7,-0.3l-1,-0.5L216,162.3l-0.7,-0.7l-0.8,-0.4l-0.6,-0.6L213.3,160l-0.6,-0.7l-0.6,-0.6L211.4,158L211,157.2l-0.5,-0.8l-0.4,-0.7l-0.3,-0.8l-0.3,-0.7l-0.3,-1l-0.4,-0.7l-0.1,-0.9l-0.2,-0.8l-0.1,-0.9l0,-0.9l-0.2,-1l0,-67Z" class="g2_104" />
<path d="M304,140l457,0" class="g3_104" />
<image x="119" y="375" width="702" height="470" xlink:href="img/1.png" />
</svg>