<?xml version="1.0" encoding="UTF-8" standalone="no"?>
<!DOCTYPE svg PUBLIC "-//W3C//DTD SVG 1.1//EN"
"http://www.w3.org/Graphics/SVG/1.1/DTD/svg11.dtd">
<svg viewBox="0 0 1210 1045" version="1.1" xmlns="http://www.w3.org/2000/svg" xmlns:xlink="http://www.w3.org/1999/xlink">
<defs>
<style type="text/css"><![CDATA[
.g2_6{
fill: none;
stroke: #418AB3;
stroke-width: 2;
stroke-linecap: butt;
stroke-linejoin: miter;
stroke-miterlimit: 7;
}
.g1_6{
fill: #FFFFFF;
}
]]></style>
</defs>
<path fill-rule="evenodd" d="M0,0L1210,0l0,1045L0,1045L0,0Z" class="g1_6" />
<path fill-rule="evenodd" d="M0,0L1210,0l0,1045L0,1045L0,0Z" class="g1_6" />
<image x="828" y="984" width="334" height="49" xlink:href="img/1.png" />
<path fill-rule="evenodd" d="M320.8,625.3l0,-0.4l0.2,-0.5l0,-0.5l0.1,-0.4l0,-0.5l0.2,-0.4l0.1,-0.5l0.4,-0.4l0.1,-0.5l0.2,-0.5l0.3,-0.3l0.3,-0.4l0.3,-0.3l0.3,-0.5l0.3,-0.3l0.3,-0.3l0.4,-0.3l0.4,-0.3l0.4,-0.3l0.5,-0.3l0.3,-0.2l0.4,-0.1l0.5,-0.3l0.4,-0.2l0.5,-0.1l0.5,0l0.4,-0.2l0.5,0l0.4,-0.1l0.5,0l568.3,0l0.6,0l0.5,0.1l0.5,0l0.4,0.2l0.5,0l0.4,0.3l0.5,0l0.5,0.3l0.3,0.1l0.4,0.3l0.5,0.2l0.4,0.3l0.3,0.3l0.3,0.3l0.5,0.3l0.3,0.3l0.3,0.5l0.3,0.3l0.2,0.4l0.3,0.3l0.1,0.5l0.3,0.5l0.2,0.4l0.1,0.5l0.2,0.4l0.1,0.5l0,0.4l0.2,0.5l0,0.5l0,0.4l0.2,36.7l0,0.4l-0.2,0.7l0,0.4l-0.2,0.5l0,0.4l-0.3,0.5l0,0.4l-0.3,0.4l-0.1,0.4l-0.3,0.5l-0.2,0.4l-0.3,0.3l-0.3,0.5l-0.3,0.3l-0.3,0.5l-0.3,0.3l-0.5,0.3l-0.3,0.3l-0.4,0.1l-0.3,0.3l-0.5,0.2l-0.4,0.3l-0.5,0.1l-0.5,0.2l-0.4,0.1l-0.5,0l-0.4,0.2l-0.5,0.2l-0.5,0l-0.6,0l-568.3,0l-0.5,0l-0.4,0l-0.5,0L328.2,671l-0.5,-0.2l-0.5,0l-0.4,-0.3l-0.5,-0.1l-0.4,-0.2l-0.3,-0.3l-0.5,-0.1l-0.4,-0.3l-0.4,-0.3l-0.4,-0.3l-0.3,-0.3l-0.3,-0.4L323,667.8l-0.3,-0.3L322.4,667l-0.3,-0.4l-0.2,-0.3l-0.1,-0.5l-0.4,-0.5l-0.1,-0.4l-0.2,-0.5l0,-0.4L321,663.5l0,-0.4l-0.2,-0.7l0,-0.4l0,-36.7Z" class="g1_6" />
<path d="M320.8,625.3l0,-0.4l0.2,-0.5l0,-0.5l0.1,-0.4l0,-0.5l0.2,-0.4l0.1,-0.5l0.4,-0.4l0.1,-0.5l0.2,-0.5l0.3,-0.3l0.3,-0.4l0.3,-0.3l0.3,-0.5l0.3,-0.3l0.3,-0.3l0.4,-0.3l0.4,-0.3l0.4,-0.3l0.5,-0.3l0.3,-0.2l0.4,-0.1l0.5,-0.3l0.4,-0.2l0.5,-0.1l0.5,0l0.4,-0.2l0.5,0l0.4,-0.1l0.5,0l568.3,0l0.6,0l0.5,0.1l0.5,0l0.4,0.2l0.5,0l0.4,0.3l0.5,0l0.5,0.3l0.3,0.1l0.4,0.3l0.5,0.2l0.4,0.3l0.3,0.3l0.3,0.3l0.5,0.3l0.3,0.3l0.3,0.5l0.3,0.3l0.2,0.4l0.3,0.3l0.1,0.5l0.3,0.5l0.2,0.4l0.1,0.5l0.2,0.4l0.1,0.5l0,0.4l0.2,0.5l0,0.5l0,0.4l0.2,36.7l0,0.4l-0.2,0.7l0,0.4l-0.2,0.5l0,0.4l-0.3,0.5l0,0.4l-0.3,0.4l-0.1,0.4l-0.3,0.5l-0.2,0.4l-0.3,0.3l-0.3,0.5l-0.3,0.3l-0.3,0.5l-0.3,0.3l-0.5,0.3l-0.3,0.3l-0.4,0.1l-0.3,0.3l-0.5,0.2l-0.4,0.3l-0.5,0.1l-0.5,0.2l-0.4,0.1l-0.5,0l-0.4,0.2l-0.5,0.2l-0.5,0l-0.6,0l-568.3,0l-0.5,0l-0.4,0l-0.5,0L328.2,671l-0.5,-0.2l-0.5,0l-0.4,-0.3l-0.5,-0.1l-0.4,-0.2l-0.3,-0.3l-0.5,-0.1l-0.4,-0.3l-0.4,-0.3l-0.4,-0.3l-0.3,-0.3l-0.3,-0.4L323,667.8l-0.3,-0.3L322.4,667l-0.3,-0.4l-0.2,-0.3l-0.1,-0.5l-0.4,-0.5l-0.1,-0.4l-0.2,-0.5l0,-0.4L321,663.5l0,-0.4l-0.2,-0.7l0,-0.4l0,-36.7Z" class="g2_6" />
<image x="306" y="330" width="602" height="189" xlink:href="img/2.png" />
</svg>