<?xml version="1.0" encoding="UTF-8" standalone="no"?>
<!DOCTYPE svg PUBLIC "-//W3C//DTD SVG 1.1//EN"
"http://www.w3.org/Graphics/SVG/1.1/DTD/svg11.dtd">
<svg version="1.1" xmlns="http://www.w3.org/2000/svg" xmlns:xlink="http://www.w3.org/1999/xlink">
<defs>
<clipPath id="c0_33"><path d="M0.5,825.5l0,-825l1466,0l0,825Z" /></clipPath>
<style type="text/css"><![CDATA[
.g4_33{
fill: none;
stroke: #0563C1;
stroke-width: 2;
stroke-linecap: butt;
stroke-linejoin: miter;
}
.g3_33{
fill: none;
stroke: #5B9BD5;
stroke-width: 2;
stroke-linecap: butt;
stroke-linejoin: miter;
stroke-miterlimit: 7;
}
.g2_33{
fill: none;
stroke: #48A1FA;
stroke-width: 1;
stroke-linecap: butt;
stroke-linejoin: miter;
stroke-miterlimit: 7;
}
.g1_33{
fill: #FFFFFF;
}
]]></style>
</defs>
<path fill-rule="evenodd" d="M0,0L1466,0l0,825L0,825L0,0Z" class="g1_33" />
<path fill-rule="evenodd" d="M0,0L1466,0l0,825L0,825L0,0Z" class="g1_33" />
<g clip-path="url(#c0_33)">
<use 
xlink:href ="#F6_3" 
 transform="matrix(0.012 , 0, 0 , -0.012, 1338.5 , 729.1)"
fill="#8B8B8B" 
stroke="none" 
 />
<use 
xlink:href ="#F6_3" 
 transform="matrix(0.012 , 0, 0 , -0.012, 1347.7 , 729.1)"
fill="#8B8B8B" 
stroke="none" 
 />
</g>
<image x="334" y="15" width="588" height="350" xlink:href="shade/1.png" />
<path d="M334.5,15.5l586,0l0,349l-586,0l0,-349Z" class="g2_33" />
<g clip-path="url(#c0_33)">
<use 
xlink:href ="#F2_27" 
 transform="matrix(0.012 , 0, 0 , -0.012, 345.3 , 39.4)"
fill="#000000" 
stroke="none" 
 />
<use 
xlink:href ="#F2_19" 
 transform="matrix(0.012 , 0, 0 , -0.012, 357 , 39.4)"
fill="#000000" 
stroke="none" 
 />
<use 
xlink:href ="#F2_10" 
 transform="matrix(0.012 , 0, 0 , -0.012, 367.9 , 39.4)"
fill="#000000" 
stroke="none" 
 />
<use 
xlink:href ="#F2_12" 
 transform="matrix(0.012 , 0, 0 , -0.012, 379.3 , 39.4)"
fill="#000000" 
stroke="none" 
 />
<use 
xlink:href ="#F2_6" 
 transform="matrix(0.012 , 0, 0 , -0.012, 386.5 , 39.4)"
fill="#000000" 
stroke="none" 
 />
<use 
xlink:href ="#F2_44" 
 transform="matrix(0.012 , 0, 0 , -0.012, 397.9 , 39.4)"
fill="#000000" 
stroke="none" 
 />
<use 
xlink:href ="#F2_37" 
 transform="matrix(0.012 , 0, 0 , -0.012, 408.8 , 39.4)"
fill="#000000" 
stroke="none" 
 />
<use 
xlink:href ="#F2_38" 
 transform="matrix(0.012 , 0, 0 , -0.012, 455.3 , 72.4)"
fill="#000000" 
stroke="none" 
 />
<use 
xlink:href ="#F2_53" 
 transform="matrix(0.012 , 0, 0 , -0.012, 468.1 , 72.4)"
fill="#000000" 
stroke="none" 
 />
<use 
xlink:href ="#F2_45" 
 transform="matrix(0.012 , 0, 0 , -0.012, 480.9 , 72.4)"
fill="#000000" 
stroke="none" 
 />
<use 
xlink:href ="#F2_58" 
 transform="matrix(0.012 , 0, 0 , -0.012, 492.5 , 72.4)"
fill="#000000" 
stroke="none" 
 />
<use 
xlink:href ="#F2_2" 
 transform="matrix(0.012 , 0, 0 , -0.012, 503.5 , 72.4)"
fill="#000000" 
stroke="none" 
 />
<use 
xlink:href ="#F2_45" 
 transform="matrix(0.012 , 0, 0 , -0.012, 514.8 , 72.4)"
fill="#000000" 
stroke="none" 
 />
<use 
xlink:href ="#F2_89" 
 transform="matrix(0.012 , 0, 0 , -0.012, 532.2 , 72.4)"
fill="#000000" 
stroke="none" 
 />
<use 
xlink:href ="#F2_25" 
 transform="matrix(0.012 , 0, 0 , -0.012, 539.4 , 72.4)"
fill="#000000" 
stroke="none" 
 />
<use 
xlink:href ="#F2_53" 
 transform="matrix(0.012 , 0, 0 , -0.012, 553.9 , 72.4)"
fill="#000000" 
stroke="none" 
 />
<use 
xlink:href ="#F2_53" 
 transform="matrix(0.012 , 0, 0 , -0.012, 572.5 , 72.4)"
fill="#000000" 
stroke="none" 
 />
<use 
xlink:href ="#F2_45" 
 transform="matrix(0.012 , 0, 0 , -0.012, 585.3 , 72.4)"
fill="#000000" 
stroke="none" 
 />
<use 
xlink:href ="#F2_41" 
 transform="matrix(0.012 , 0, 0 , -0.012, 596.9 , 72.4)"
fill="#000000" 
stroke="none" 
 />
<use 
xlink:href ="#F2_49" 
 transform="matrix(0.012 , 0, 0 , -0.012, 607.9 , 72.4)"
fill="#000000" 
stroke="none" 
 />
<use 
xlink:href ="#F2_58" 
 transform="matrix(0.012 , 0, 0 , -0.012, 618.6 , 72.4)"
fill="#000000" 
stroke="none" 
 />
<use 
xlink:href ="#F2_38" 
 transform="matrix(0.012 , 0, 0 , -0.012, 630.6 , 72.4)"
fill="#000000" 
stroke="none" 
 />
<use 
xlink:href ="#F2_45" 
 transform="matrix(0.012 , 0, 0 , -0.012, 643.4 , 72.4)"
fill="#000000" 
stroke="none" 
 />
<use 
xlink:href ="#F2_90" 
 transform="matrix(0.012 , 0, 0 , -0.012, 654.9 , 72.4)"
fill="#000000" 
stroke="none" 
 />
<use 
xlink:href ="#F2_81" 
 transform="matrix(0.012 , 0, 0 , -0.012, 668 , 72.4)"
fill="#000000" 
stroke="none" 
 />
<use 
xlink:href ="#F2_40" 
 transform="matrix(0.012 , 0, 0 , -0.012, 680.4 , 72.4)"
fill="#000000" 
stroke="none" 
 />
<use 
xlink:href ="#F2_45" 
 transform="matrix(0.012 , 0, 0 , -0.012, 685.7 , 72.4)"
fill="#000000" 
stroke="none" 
 />
<use 
xlink:href ="#F2_69" 
 transform="matrix(0.012 , 0, 0 , -0.012, 697.2 , 72.4)"
fill="#000000" 
stroke="none" 
 />
<use 
xlink:href ="#F2_50" 
 transform="matrix(0.012 , 0, 0 , -0.012, 721.3 , 72.4)"
fill="#000000" 
stroke="none" 
 />
<use 
xlink:href ="#F2_50" 
 transform="matrix(0.012 , 0, 0 , -0.012, 736.6 , 72.4)"
fill="#000000" 
stroke="none" 
 />
<use 
xlink:href ="#F4_45" 
 transform="matrix(0.012 , 0, 0 , -0.012, 752.3 , 72.4)"
fill="#000000" 
stroke="none" 
 />
<use 
xlink:href ="#F4_8" 
 transform="matrix(0.012 , 0, 0 , -0.012, 763.1 , 72.4)"
fill="#000000" 
stroke="none" 
 />
<use 
xlink:href ="#F4_21" 
 transform="matrix(0.012 , 0, 0 , -0.012, 768.3 , 72.4)"
fill="#000000" 
stroke="none" 
 />
<use 
xlink:href ="#F4_39" 
 transform="matrix(0.012 , 0, 0 , -0.012, 779.6 , 72.4)"
fill="#000000" 
stroke="none" 
 />
<use 
xlink:href ="#F4_9" 
 transform="matrix(0.012 , 0, 0 , -0.012, 794.7 , 72.4)"
fill="#000000" 
stroke="none" 
 />
<use 
xlink:href ="#F4_13" 
 transform="matrix(0.012 , 0, 0 , -0.012, 806.1 , 72.4)"
fill="#000000" 
stroke="none" 
 />
<use 
xlink:href ="#F4_46" 
 transform="matrix(0.012 , 0, 0 , -0.012, 817.3 , 72.4)"
fill="#000000" 
stroke="none" 
 />
<use 
xlink:href ="#F4_21" 
 transform="matrix(0.012 , 0, 0 , -0.012, 835.1 , 72.4)"
fill="#000000" 
stroke="none" 
 />
<use 
xlink:href ="#F4_47" 
 transform="matrix(0.012 , 0, 0 , -0.012, 846.4 , 72.4)"
fill="#000000" 
stroke="none" 
 />
<use 
xlink:href ="#F4_47" 
 transform="matrix(0.012 , 0, 0 , -0.012, 861.9 , 72.4)"
fill="#000000" 
stroke="none" 
 />
<use 
xlink:href ="#F2_89" 
 transform="matrix(0.012 , 0, 0 , -0.012, 467 , 105.3)"
fill="#000000" 
stroke="none" 
 />
<use 
xlink:href ="#F2_64" 
 transform="matrix(0.012 , 0, 0 , -0.012, 474.2 , 105.3)"
fill="#000000" 
stroke="none" 
 />
<use 
xlink:href ="#F4_13" 
 transform="matrix(0.012 , 0, 0 , -0.012, 481.4 , 105.3)"
fill="#000000" 
stroke="none" 
 />
<use 
xlink:href ="#F4_33" 
 transform="matrix(0.012 , 0, 0 , -0.012, 492.5 , 105.3)"
fill="#000000" 
stroke="none" 
 />
<use 
xlink:href ="#F4_8" 
 transform="matrix(0.012 , 0, 0 , -0.012, 497.7 , 105.3)"
fill="#000000" 
stroke="none" 
 />
<use 
xlink:href ="#F4_13" 
 transform="matrix(0.012 , 0, 0 , -0.012, 502.8 , 105.3)"
fill="#000000" 
stroke="none" 
 />
<use 
xlink:href ="#F4_5" 
 transform="matrix(0.012 , 0, 0 , -0.012, 513.9 , 105.3)"
fill="#000000" 
stroke="none" 
 />
<use 
xlink:href ="#F2_89" 
 transform="matrix(0.012 , 0, 0 , -0.012, 523.6 , 105.3)"
fill="#000000" 
stroke="none" 
 />
<use 
xlink:href ="#F2_39" 
 transform="matrix(0.012 , 0, 0 , -0.012, 530.7 , 105.3)"
fill="#000000" 
stroke="none" 
 />
<use 
xlink:href ="#F4_13" 
 transform="matrix(0.012 , 0, 0 , -0.012, 542.4 , 105.3)"
fill="#000000" 
stroke="none" 
 />
<use 
xlink:href ="#F4_33" 
 transform="matrix(0.012 , 0, 0 , -0.012, 553.7 , 105.3)"
fill="#000000" 
stroke="none" 
 />
<use 
xlink:href ="#F4_8" 
 transform="matrix(0.012 , 0, 0 , -0.012, 558.7 , 105.3)"
fill="#000000" 
stroke="none" 
 />
<use 
xlink:href ="#F4_13" 
 transform="matrix(0.012 , 0, 0 , -0.012, 563.9 , 105.3)"
fill="#000000" 
stroke="none" 
 />
<use 
xlink:href ="#F4_5" 
 transform="matrix(0.012 , 0, 0 , -0.012, 575 , 105.3)"
fill="#000000" 
stroke="none" 
 />
<use 
xlink:href ="#F2_90" 
 transform="matrix(0.012 , 0, 0 , -0.012, 584.5 , 105.3)"
fill="#000000" 
stroke="none" 
 />
<use 
xlink:href ="#F2_24" 
 transform="matrix(0.012 , 0, 0 , -0.012, 591.7 , 105.3)"
fill="#000000" 
stroke="none" 
 />
<use 
xlink:href ="#F2_24" 
 transform="matrix(0.012 , 0, 0 , -0.012, 597.6 , 105.3)"
fill="#000000" 
stroke="none" 
 />
<use 
xlink:href ="#F2_24" 
 transform="matrix(0.012 , 0, 0 , -0.012, 603.4 , 105.3)"
fill="#000000" 
stroke="none" 
 />
<use 
xlink:href ="#F2_65" 
 transform="matrix(0.012 , 0, 0 , -0.012, 609.4 , 105.3)"
fill="#000000" 
stroke="none" 
 />
<use 
xlink:href ="#F2_90" 
 transform="matrix(0.012 , 0, 0 , -0.012, 616.4 , 105.3)"
fill="#000000" 
stroke="none" 
 />
<use 
xlink:href ="#F2_58" 
 transform="matrix(0.012 , 0, 0 , -0.012, 455.3 , 138.3)"
fill="#000000" 
stroke="none" 
 />
<use 
xlink:href ="#F2_27" 
 transform="matrix(0.012 , 0, 0 , -0.012, 467.8 , 138.3)"
fill="#000000" 
stroke="none" 
 />
<use 
xlink:href ="#F2_50" 
 transform="matrix(0.012 , 0, 0 , -0.012, 485.4 , 138.3)"
fill="#000000" 
stroke="none" 
 />
<use 
xlink:href ="#F2_50" 
 transform="matrix(0.012 , 0, 0 , -0.012, 500.8 , 138.3)"
fill="#000000" 
stroke="none" 
 />
<use 
xlink:href ="#F4_5" 
 transform="matrix(0.012 , 0, 0 , -0.012, 516.2 , 138.3)"
fill="#000000" 
stroke="none" 
 />
<use 
xlink:href ="#F4_12" 
 transform="matrix(0.012 , 0, 0 , -0.012, 525.7 , 138.3)"
fill="#000000" 
stroke="none" 
 />
<use 
xlink:href ="#F4_40" 
 transform="matrix(0.012 , 0, 0 , -0.012, 537.3 , 138.3)"
fill="#000000" 
stroke="none" 
 />
<use 
xlink:href ="#F4_48" 
 transform="matrix(0.012 , 0, 0 , -0.012, 548.8 , 138.3)"
fill="#000000" 
stroke="none" 
 />
<use 
xlink:href ="#F4_12" 
 transform="matrix(0.012 , 0, 0 , -0.012, 560.4 , 138.3)"
fill="#000000" 
stroke="none" 
 />
<use 
xlink:href ="#F4_21" 
 transform="matrix(0.012 , 0, 0 , -0.012, 571.8 , 138.3)"
fill="#000000" 
stroke="none" 
 />
<use 
xlink:href ="#F4_3" 
 transform="matrix(0.012 , 0, 0 , -0.012, 583.3 , 138.3)"
fill="#000000" 
stroke="none" 
 />
<use 
xlink:href ="#F4_49" 
 transform="matrix(0.012 , 0, 0 , -0.012, 590.8 , 138.3)"
fill="#000000" 
stroke="none" 
 />
<use 
xlink:href ="#F4_47" 
 transform="matrix(0.012 , 0, 0 , -0.012, 601.6 , 138.3)"
fill="#000000" 
stroke="none" 
 />
<use 
xlink:href ="#F4_47" 
 transform="matrix(0.012 , 0, 0 , -0.012, 617 , 138.3)"
fill="#000000" 
stroke="none" 
 />
<use 
xlink:href ="#F2_89" 
 transform="matrix(0.012 , 0, 0 , -0.012, 455.3 , 171.1)"
fill="#000000" 
stroke="none" 
 />
<use 
xlink:href ="#F2_69" 
 transform="matrix(0.012 , 0, 0 , -0.012, 462.4 , 171.1)"
fill="#000000" 
stroke="none" 
 />
<use 
xlink:href ="#F2_40" 
 transform="matrix(0.012 , 0, 0 , -0.012, 480.6 , 171.1)"
fill="#000000" 
stroke="none" 
 />
<use 
xlink:href ="#F2_2" 
 transform="matrix(0.012 , 0, 0 , -0.012, 486 , 171.1)"
fill="#000000" 
stroke="none" 
 />
<use 
xlink:href ="#F2_32" 
 transform="matrix(0.012 , 0, 0 , -0.012, 497.3 , 171.1)"
fill="#000000" 
stroke="none" 
 />
<use 
xlink:href ="#F2_38" 
 transform="matrix(0.012 , 0, 0 , -0.012, 516.8 , 171.1)"
fill="#000000" 
stroke="none" 
 />
<use 
xlink:href ="#F2_32" 
 transform="matrix(0.012 , 0, 0 , -0.012, 529.8 , 171.1)"
fill="#000000" 
stroke="none" 
 />
<use 
xlink:href ="#F2_45" 
 transform="matrix(0.012 , 0, 0 , -0.012, 543.4 , 171.1)"
fill="#000000" 
stroke="none" 
 />
<use 
xlink:href ="#F2_38" 
 transform="matrix(0.012 , 0, 0 , -0.012, 555 , 171.1)"
fill="#000000" 
stroke="none" 
 />
<use 
xlink:href ="#F2_85" 
 transform="matrix(0.012 , 0, 0 , -0.012, 567.8 , 171.1)"
fill="#000000" 
stroke="none" 
 />
<use 
xlink:href ="#F2_25" 
 transform="matrix(0.012 , 0, 0 , -0.012, 585.6 , 171.1)"
fill="#000000" 
stroke="none" 
 />
<use 
xlink:href ="#F2_41" 
 transform="matrix(0.012 , 0, 0 , -0.012, 600 , 171.1)"
fill="#000000" 
stroke="none" 
 />
<use 
xlink:href ="#F2_2" 
 transform="matrix(0.012 , 0, 0 , -0.012, 611 , 171.1)"
fill="#000000" 
stroke="none" 
 />
<use 
xlink:href ="#F2_40" 
 transform="matrix(0.012 , 0, 0 , -0.012, 622.4 , 171.1)"
fill="#000000" 
stroke="none" 
 />
<use 
xlink:href ="#F2_25" 
 transform="matrix(0.012 , 0, 0 , -0.012, 627.8 , 171.1)"
fill="#000000" 
stroke="none" 
 />
<use 
xlink:href ="#F2_55" 
 transform="matrix(0.012 , 0, 0 , -0.012, 642.1 , 171.1)"
fill="#000000" 
stroke="none" 
 />
<use 
xlink:href ="#F2_90" 
 transform="matrix(0.012 , 0, 0 , -0.012, 655.9 , 171.1)"
fill="#000000" 
stroke="none" 
 />
<use 
xlink:href ="#F2_89" 
 transform="matrix(0.012 , 0, 0 , -0.012, 455.3 , 204)"
fill="#000000" 
stroke="none" 
 />
<use 
xlink:href ="#F2_69" 
 transform="matrix(0.012 , 0, 0 , -0.012, 462.4 , 204)"
fill="#000000" 
stroke="none" 
 />
<use 
xlink:href ="#F2_40" 
 transform="matrix(0.012 , 0, 0 , -0.012, 480.6 , 204)"
fill="#000000" 
stroke="none" 
 />
<use 
xlink:href ="#F2_2" 
 transform="matrix(0.012 , 0, 0 , -0.012, 486 , 204)"
fill="#000000" 
stroke="none" 
 />
<use 
xlink:href ="#F2_32" 
 transform="matrix(0.012 , 0, 0 , -0.012, 497.3 , 204)"
fill="#000000" 
stroke="none" 
 />
<use 
xlink:href ="#F2_53" 
 transform="matrix(0.012 , 0, 0 , -0.012, 516.8 , 204)"
fill="#000000" 
stroke="none" 
 />
<use 
xlink:href ="#F2_45" 
 transform="matrix(0.012 , 0, 0 , -0.012, 529.8 , 204)"
fill="#000000" 
stroke="none" 
 />
<use 
xlink:href ="#F2_58" 
 transform="matrix(0.012 , 0, 0 , -0.012, 541.2 , 204)"
fill="#000000" 
stroke="none" 
 />
<use 
xlink:href ="#F2_59" 
 transform="matrix(0.012 , 0, 0 , -0.012, 553.8 , 204)"
fill="#000000" 
stroke="none" 
 />
<use 
xlink:href ="#F2_25" 
 transform="matrix(0.012 , 0, 0 , -0.012, 573.8 , 204)"
fill="#000000" 
stroke="none" 
 />
<use 
xlink:href ="#F2_55" 
 transform="matrix(0.012 , 0, 0 , -0.012, 588.1 , 204)"
fill="#000000" 
stroke="none" 
 />
<use 
xlink:href ="#F2_49" 
 transform="matrix(0.012 , 0, 0 , -0.012, 601.9 , 204)"
fill="#000000" 
stroke="none" 
 />
<use 
xlink:href ="#F2_71" 
 transform="matrix(0.012 , 0, 0 , -0.012, 609.6 , 204)"
fill="#000000" 
stroke="none" 
 />
<use 
xlink:href ="#F2_90" 
 transform="matrix(0.012 , 0, 0 , -0.012, 620.8 , 204)"
fill="#000000" 
stroke="none" 
 />
<use 
xlink:href ="#F2_78" 
 transform="matrix(0.012 , 0, 0 , -0.012, 455.3 , 269.8)"
fill="#000000" 
stroke="none" 
 />
<use 
xlink:href ="#F2_78" 
 transform="matrix(0.012 , 0, 0 , -0.012, 461.8 , 269.8)"
fill="#000000" 
stroke="none" 
 />
<use 
xlink:href ="#F2_2" 
 transform="matrix(0.012 , 0, 0 , -0.012, 474.4 , 269.8)"
fill="#000000" 
stroke="none" 
 />
<use 
xlink:href ="#F2_14" 
 transform="matrix(0.012 , 0, 0 , -0.012, 482.6 , 269.8)"
fill="#000000" 
stroke="none" 
 />
<use 
xlink:href ="#F2_13" 
 transform="matrix(0.012 , 0, 0 , -0.012, 499.7 , 269.8)"
fill="#000000" 
stroke="none" 
 />
<use 
xlink:href ="#F2_4" 
 transform="matrix(0.012 , 0, 0 , -0.012, 506.9 , 269.8)"
fill="#000000" 
stroke="none" 
 />
<use 
xlink:href ="#F2_6" 
 transform="matrix(0.012 , 0, 0 , -0.012, 518.2 , 269.8)"
fill="#000000" 
stroke="none" 
 />
<use 
xlink:href ="#F2_7" 
 transform="matrix(0.012 , 0, 0 , -0.012, 529.5 , 269.8)"
fill="#000000" 
stroke="none" 
 />
<use 
xlink:href ="#F2_12" 
 transform="matrix(0.012 , 0, 0 , -0.012, 547.2 , 269.8)"
fill="#000000" 
stroke="none" 
 />
<use 
xlink:href ="#F2_3" 
 transform="matrix(0.012 , 0, 0 , -0.012, 554.2 , 269.8)"
fill="#000000" 
stroke="none" 
 />
<use 
xlink:href ="#F2_4" 
 transform="matrix(0.012 , 0, 0 , -0.012, 565.8 , 269.8)"
fill="#000000" 
stroke="none" 
 />
<use 
xlink:href ="#F2_7" 
 transform="matrix(0.012 , 0, 0 , -0.012, 583 , 269.8)"
fill="#000000" 
stroke="none" 
 />
<use 
xlink:href ="#F2_6" 
 transform="matrix(0.012 , 0, 0 , -0.012, 594.8 , 269.8)"
fill="#000000" 
stroke="none" 
 />
<use 
xlink:href ="#F2_12" 
 transform="matrix(0.012 , 0, 0 , -0.012, 606.1 , 269.8)"
fill="#000000" 
stroke="none" 
 />
<use 
xlink:href ="#F2_6" 
 transform="matrix(0.012 , 0, 0 , -0.012, 613.3 , 269.8)"
fill="#000000" 
stroke="none" 
 />
<use 
xlink:href ="#F2_12" 
 transform="matrix(0.012 , 0, 0 , -0.012, 630.5 , 269.8)"
fill="#000000" 
stroke="none" 
 />
<use 
xlink:href ="#F2_3" 
 transform="matrix(0.012 , 0, 0 , -0.012, 637.5 , 269.8)"
fill="#000000" 
stroke="none" 
 />
<use 
xlink:href ="#F2_13" 
 transform="matrix(0.012 , 0, 0 , -0.012, 649.1 , 269.8)"
fill="#000000" 
stroke="none" 
 />
<use 
xlink:href ="#F2_14" 
 transform="matrix(0.012 , 0, 0 , -0.012, 656.3 , 269.8)"
fill="#000000" 
stroke="none" 
 />
<use 
xlink:href ="#F2_17" 
 transform="matrix(0.012 , 0, 0 , -0.012, 667.4 , 269.8)"
fill="#000000" 
stroke="none" 
 />
<use 
xlink:href ="#F2_23" 
 transform="matrix(0.012 , 0, 0 , -0.012, 679.1 , 269.8)"
fill="#000000" 
stroke="none" 
 />
<use 
xlink:href ="#F2_3" 
 transform="matrix(0.012 , 0, 0 , -0.012, 690.7 , 269.8)"
fill="#000000" 
stroke="none" 
 />
<use 
xlink:href ="#F2_18" 
 transform="matrix(0.012 , 0, 0 , -0.012, 708.1 , 269.8)"
fill="#000000" 
stroke="none" 
 />
<use 
xlink:href ="#F2_9" 
 transform="matrix(0.012 , 0, 0 , -0.012, 718.9 , 269.8)"
fill="#000000" 
stroke="none" 
 />
<use 
xlink:href ="#F2_4" 
 transform="matrix(0.012 , 0, 0 , -0.012, 724.1 , 269.8)"
fill="#000000" 
stroke="none" 
 />
<use 
xlink:href ="#F2_20" 
 transform="matrix(0.012 , 0, 0 , -0.012, 735.4 , 269.8)"
fill="#000000" 
stroke="none" 
 />
<use 
xlink:href ="#F2_27" 
 transform="matrix(0.012 , 0, 0 , -0.012, 455.3 , 302.8)"
fill="#000000" 
stroke="none" 
 />
<use 
xlink:href ="#F2_45" 
 transform="matrix(0.012 , 0, 0 , -0.012, 467 , 302.8)"
fill="#000000" 
stroke="none" 
 />
<use 
xlink:href ="#F2_49" 
 transform="matrix(0.012 , 0, 0 , -0.012, 478.6 , 302.8)"
fill="#000000" 
stroke="none" 
 />
<use 
xlink:href ="#F2_45" 
 transform="matrix(0.012 , 0, 0 , -0.012, 488.8 , 302.8)"
fill="#000000" 
stroke="none" 
 />
<use 
xlink:href ="#F2_38" 
 transform="matrix(0.012 , 0, 0 , -0.012, 500.3 , 302.8)"
fill="#000000" 
stroke="none" 
 />
<use 
xlink:href ="#F2_2" 
 transform="matrix(0.012 , 0, 0 , -0.012, 513.2 , 302.8)"
fill="#000000" 
stroke="none" 
 />
<use 
xlink:href ="#F2_48" 
 transform="matrix(0.012 , 0, 0 , -0.012, 530.4 , 302.8)"
fill="#000000" 
stroke="none" 
 />
<use 
xlink:href ="#F2_52" 
 transform="matrix(0.012 , 0, 0 , -0.012, 545.5 , 302.8)"
fill="#000000" 
stroke="none" 
 />
<use 
xlink:href ="#F2_53" 
 transform="matrix(0.012 , 0, 0 , -0.012, 556 , 302.8)"
fill="#000000" 
stroke="none" 
 />
<use 
xlink:href ="#F2_25" 
 transform="matrix(0.012 , 0, 0 , -0.012, 568.8 , 302.8)"
fill="#000000" 
stroke="none" 
 />
<use 
xlink:href ="#F2_54" 
 transform="matrix(0.012 , 0, 0 , -0.012, 583.3 , 302.8)"
fill="#000000" 
stroke="none" 
 />
<use 
xlink:href ="#F2_50" 
 transform="matrix(0.012 , 0, 0 , -0.012, 605 , 302.8)"
fill="#000000" 
stroke="none" 
 />
<use 
xlink:href ="#F2_50" 
 transform="matrix(0.012 , 0, 0 , -0.012, 620.3 , 302.8)"
fill="#000000" 
stroke="none" 
 />
<use 
xlink:href ="#F4_45" 
 transform="matrix(0.012 , 0, 0 , -0.012, 635.9 , 302.8)"
fill="#000000" 
stroke="none" 
 />
<use 
xlink:href ="#F4_8" 
 transform="matrix(0.012 , 0, 0 , -0.012, 646.7 , 302.8)"
fill="#000000" 
stroke="none" 
 />
<use 
xlink:href ="#F4_21" 
 transform="matrix(0.012 , 0, 0 , -0.012, 651.9 , 302.8)"
fill="#000000" 
stroke="none" 
 />
<use 
xlink:href ="#F4_39" 
 transform="matrix(0.012 , 0, 0 , -0.012, 663.2 , 302.8)"
fill="#000000" 
stroke="none" 
 />
<use 
xlink:href ="#F4_9" 
 transform="matrix(0.012 , 0, 0 , -0.012, 678.3 , 302.8)"
fill="#000000" 
stroke="none" 
 />
<use 
xlink:href ="#F4_13" 
 transform="matrix(0.012 , 0, 0 , -0.012, 689.7 , 302.8)"
fill="#000000" 
stroke="none" 
 />
<use 
xlink:href ="#F4_46" 
 transform="matrix(0.012 , 0, 0 , -0.012, 700.9 , 302.8)"
fill="#000000" 
stroke="none" 
 />
<use 
xlink:href ="#F4_21" 
 transform="matrix(0.012 , 0, 0 , -0.012, 718.7 , 302.8)"
fill="#000000" 
stroke="none" 
 />
<use 
xlink:href ="#F4_47" 
 transform="matrix(0.012 , 0, 0 , -0.012, 730 , 302.8)"
fill="#000000" 
stroke="none" 
 />
<use 
xlink:href ="#F4_47" 
 transform="matrix(0.012 , 0, 0 , -0.012, 745.4 , 302.8)"
fill="#000000" 
stroke="none" 
 />
<use 
xlink:href ="#F2_56" 
 transform="matrix(0.012 , 0, 0 , -0.012, 761 , 302.8)"
fill="#000000" 
stroke="none" 
 />
</g>
<path fill-rule="evenodd" d="M280.3,413.6l0,-0.6l0,-0.7l0,-0.6l0.2,-0.6l0.2,-0.7l0.3,-0.6l0.1,-0.7l0.2,-0.4l0.3,-0.6l0.3,-0.6l0.3,-0.5l0.4,-0.6l0.3,-0.5l0.5,-0.4l0.5,-0.5l0.4,-0.4l0.5,-0.5l0.4,-0.3l0.6,-0.5l0.7,-0.3l0.4,-0.3l0.6,-0.3l0.6,-0.1l0.7,-0.3l0.6,-0.2l0.6,-0.1l0.6,-0.2l0.6,0l0.6,-0.2l0.6,0l670.6,0l0.7,0l0.6,0.2l0.6,0.2l0.7,0l0.6,0.1l0.6,0.2l0.6,0.3l0.6,0.3l0.5,0.1l0.6,0.3l0.6,0.3l0.4,0.5l0.5,0.3l0.5,0.5l0.6,0.4l0.3,0.5l0.4,0.4l0.5,0.5l0.3,0.6l0.3,0.5l0.3,0.6l0.3,0.6l0.2,0.6l0.3,0.5l0.1,0.6l0.2,0.7l0.1,0.6l0,0.6l0.2,0.7l0,0.6l0,48.9l0,0.6l0,0.6l-0.2,0.6l0,0.6l-0.1,0.6l-0.3,0.6l-0.2,0.6l-0.3,0.6L974,468l-0.3,0.4l-0.5,0.6l-0.3,0.5l-0.5,0.4l-0.3,0.7l-0.4,0.4l-0.5,0.5l-0.4,0.3l-0.7,0.4l-0.4,0.3l-0.6,0.3l-0.5,0.4l-0.6,0.3l-0.6,0.3l-0.6,0.1l-0.6,0.2l-0.6,0.1l-0.7,0.2l-0.6,0l-0.6,0.1l-0.7,0l-670.6,0l-0.6,0l-0.6,0l-0.6,0L290,474.4l-0.6,-0.2l-0.6,-0.1l-0.7,-0.3l-0.6,-0.2l-0.6,-0.3L286.5,473l-0.7,-0.3l-0.6,-0.5l-0.4,-0.3l-0.5,-0.4L283.9,471l-0.5,-0.4l-0.5,-0.5l-0.3,-0.5L282.2,469l-0.3,-0.4L281.6,468l-0.3,-0.7l-0.2,-0.6L281,466.1l-0.3,-0.6l-0.2,-0.6l-0.2,-0.6l0,-0.6l0,-0.6l0,-0.6l0,-48.9Z" class="g1_33" />
<path d="M280.3,413.6l0,-0.6l0,-0.7l0,-0.6l0.2,-0.6l0.2,-0.7l0.3,-0.6l0.1,-0.7l0.2,-0.4l0.3,-0.6l0.3,-0.6l0.3,-0.5l0.4,-0.6l0.3,-0.5l0.5,-0.4l0.5,-0.5l0.4,-0.4l0.5,-0.5l0.4,-0.3l0.6,-0.5l0.7,-0.3l0.4,-0.3l0.6,-0.3l0.6,-0.1l0.7,-0.3l0.6,-0.2l0.6,-0.1l0.6,-0.2l0.6,0l0.6,-0.2l0.6,0l670.6,0l0.7,0l0.6,0.2l0.6,0.2l0.7,0l0.6,0.1l0.6,0.2l0.6,0.3l0.6,0.3l0.5,0.1l0.6,0.3l0.6,0.3l0.4,0.5l0.5,0.3l0.5,0.5l0.6,0.4l0.3,0.5l0.4,0.4l0.5,0.5l0.3,0.6l0.3,0.5l0.3,0.6l0.3,0.6l0.2,0.6l0.3,0.5l0.1,0.6l0.2,0.7l0.1,0.6l0,0.6l0.2,0.7l0,0.6l0,48.9l0,0.6l0,0.6l-0.2,0.6l0,0.6l-0.1,0.6l-0.3,0.6l-0.2,0.6l-0.3,0.6L974,468l-0.3,0.4l-0.5,0.6l-0.3,0.5l-0.5,0.4l-0.3,0.7l-0.4,0.4l-0.5,0.5l-0.4,0.3l-0.7,0.4l-0.4,0.3l-0.6,0.3l-0.5,0.4l-0.6,0.3l-0.6,0.3l-0.6,0.1l-0.6,0.2l-0.6,0.1l-0.7,0.2l-0.6,0l-0.6,0.1l-0.7,0l-670.6,0l-0.6,0l-0.6,0l-0.6,0L290,474.4l-0.6,-0.2l-0.6,-0.1l-0.7,-0.3l-0.6,-0.2l-0.6,-0.3L286.5,473l-0.7,-0.3l-0.6,-0.5l-0.4,-0.3l-0.5,-0.4L283.9,471l-0.5,-0.4l-0.5,-0.5l-0.3,-0.5L282.2,469l-0.3,-0.4L281.6,468l-0.3,-0.7l-0.2,-0.6L281,466.1l-0.3,-0.6l-0.2,-0.6l-0.2,-0.6l0,-0.6l0,-0.6l0,-0.6l0,-48.9Z" class="g3_33" />
<g clip-path="url(#c0_33)">
<use 
xlink:href ="#F4_50" 
 transform="matrix(0.012 , 0, 0 , -0.012, 515.2 , 434.3)"
fill="#000000" 
stroke="none" 
 />
<use 
xlink:href ="#F4_8" 
 transform="matrix(0.012 , 0, 0 , -0.012, 527.5 , 434.3)"
fill="#000000" 
stroke="none" 
 />
<use 
xlink:href ="#F4_21" 
 transform="matrix(0.012 , 0, 0 , -0.012, 532.7 , 434.3)"
fill="#000000" 
stroke="none" 
 />
<use 
xlink:href ="#F4_39" 
 transform="matrix(0.012 , 0, 0 , -0.012, 544 , 434.3)"
fill="#000000" 
stroke="none" 
 />
<use 
xlink:href ="#F4_8" 
 transform="matrix(0.012 , 0, 0 , -0.012, 564.9 , 434.3)"
fill="#000000" 
stroke="none" 
 />
<use 
xlink:href ="#F4_9" 
 transform="matrix(0.012 , 0, 0 , -0.012, 570.1 , 434.3)"
fill="#000000" 
stroke="none" 
 />
<use 
xlink:href ="#F4_25" 
 transform="matrix(0.012 , 0, 0 , -0.012, 587.4 , 434.3)"
fill="#000000" 
stroke="none" 
 />
<use 
xlink:href ="#F4_3" 
 transform="matrix(0.012 , 0, 0 , -0.012, 601.9 , 434.3)"
fill="#000000" 
stroke="none" 
 />
<use 
xlink:href ="#F4_13" 
 transform="matrix(0.012 , 0, 0 , -0.012, 609.3 , 434.3)"
fill="#000000" 
stroke="none" 
 />
<use 
xlink:href ="#F4_51" 
 transform="matrix(0.012 , 0, 0 , -0.012, 620.6 , 434.3)"
fill="#000000" 
stroke="none" 
 />
<use 
xlink:href ="#F4_33" 
 transform="matrix(0.012 , 0, 0 , -0.012, 630.7 , 434.3)"
fill="#000000" 
stroke="none" 
 />
<use 
xlink:href ="#F4_21" 
 transform="matrix(0.012 , 0, 0 , -0.012, 635.7 , 434.3)"
fill="#000000" 
stroke="none" 
 />
<use 
xlink:href ="#F4_11" 
 transform="matrix(0.012 , 0, 0 , -0.012, 653 , 434.3)"
fill="#000000" 
stroke="none" 
 />
<use 
xlink:href ="#F4_13" 
 transform="matrix(0.012 , 0, 0 , -0.012, 667.2 , 434.3)"
fill="#000000" 
stroke="none" 
 />
<use 
xlink:href ="#F4_14" 
 transform="matrix(0.012 , 0, 0 , -0.012, 678.3 , 434.3)"
fill="#000000" 
stroke="none" 
 />
<use 
xlink:href ="#F4_13" 
 transform="matrix(0.012 , 0, 0 , -0.012, 685.5 , 434.3)"
fill="#000000" 
stroke="none" 
 />
<use 
xlink:href ="#F4_40" 
 transform="matrix(0.012 , 0, 0 , -0.012, 696.7 , 434.3)"
fill="#000000" 
stroke="none" 
 />
<use 
xlink:href ="#F4_13" 
 transform="matrix(0.012 , 0, 0 , -0.012, 708.1 , 434.3)"
fill="#000000" 
stroke="none" 
 />
<use 
xlink:href ="#F4_5" 
 transform="matrix(0.012 , 0, 0 , -0.012, 719.3 , 434.3)"
fill="#000000" 
stroke="none" 
 />
<use 
xlink:href ="#F4_21" 
 transform="matrix(0.012 , 0, 0 , -0.012, 728.9 , 434.3)"
fill="#000000" 
stroke="none" 
 />
<use 
xlink:href ="#F2_3" 
 transform="matrix(0.012 , 0, 0 , -0.012, 317.3 , 465.5)"
fill="#0563C1" 
stroke="none" 
 />
<use 
xlink:href ="#F2_12" 
 transform="matrix(0.012 , 0, 0 , -0.012, 328.9 , 465.5)"
fill="#0563C1" 
stroke="none" 
 />
<use 
xlink:href ="#F2_12" 
 transform="matrix(0.012 , 0, 0 , -0.012, 336.1 , 465.5)"
fill="#0563C1" 
stroke="none" 
 />
<use 
xlink:href ="#F2_15" 
 transform="matrix(0.012 , 0, 0 , -0.012, 343.1 , 465.5)"
fill="#0563C1" 
stroke="none" 
 />
<use 
xlink:href ="#F2_11" 
 transform="matrix(0.012 , 0, 0 , -0.012, 354.7 , 465.5)"
fill="#0563C1" 
stroke="none" 
 />
<use 
xlink:href ="#F2_37" 
 transform="matrix(0.012 , 0, 0 , -0.012, 364.3 , 465.5)"
fill="#0563C1" 
stroke="none" 
 />
<use 
xlink:href ="#F2_42" 
 transform="matrix(0.012 , 0, 0 , -0.012, 370.4 , 465.5)"
fill="#0563C1" 
stroke="none" 
 />
<use 
xlink:href ="#F2_42" 
 transform="matrix(0.012 , 0, 0 , -0.012, 376.7 , 465.5)"
fill="#0563C1" 
stroke="none" 
 />
<use 
xlink:href ="#F2_20" 
 transform="matrix(0.012 , 0, 0 , -0.012, 383 , 465.5)"
fill="#0563C1" 
stroke="none" 
 />
<use 
xlink:href ="#F2_20" 
 transform="matrix(0.012 , 0, 0 , -0.012, 397.9 , 465.5)"
fill="#0563C1" 
stroke="none" 
 />
<use 
xlink:href ="#F2_20" 
 transform="matrix(0.012 , 0, 0 , -0.012, 413 , 465.5)"
fill="#0563C1" 
stroke="none" 
 />
<use 
xlink:href ="#F2_24" 
 transform="matrix(0.012 , 0, 0 , -0.012, 426.2 , 465.5)"
fill="#0563C1" 
stroke="none" 
 />
<use 
xlink:href ="#F2_19" 
 transform="matrix(0.012 , 0, 0 , -0.012, 432 , 465.5)"
fill="#0563C1" 
stroke="none" 
 />
<use 
xlink:href ="#F2_14" 
 transform="matrix(0.012 , 0, 0 , -0.012, 442.8 , 465.5)"
fill="#0563C1" 
stroke="none" 
 />
<use 
xlink:href ="#F2_17" 
 transform="matrix(0.012 , 0, 0 , -0.012, 454 , 465.5)"
fill="#0563C1" 
stroke="none" 
 />
<use 
xlink:href ="#F2_12" 
 transform="matrix(0.012 , 0, 0 , -0.012, 465.6 , 465.5)"
fill="#0563C1" 
stroke="none" 
 />
<use 
xlink:href ="#F2_17" 
 transform="matrix(0.012 , 0, 0 , -0.012, 472.8 , 465.5)"
fill="#0563C1" 
stroke="none" 
 />
<use 
xlink:href ="#F2_26" 
 transform="matrix(0.012 , 0, 0 , -0.012, 484.4 , 465.5)"
fill="#0563C1" 
stroke="none" 
 />
<use 
xlink:href ="#F2_4" 
 transform="matrix(0.012 , 0, 0 , -0.012, 495.8 , 465.5)"
fill="#0563C1" 
stroke="none" 
 />
<use 
xlink:href ="#F2_24" 
 transform="matrix(0.012 , 0, 0 , -0.012, 507.3 , 465.5)"
fill="#0563C1" 
stroke="none" 
 />
<use 
xlink:href ="#F2_29" 
 transform="matrix(0.012 , 0, 0 , -0.012, 513.1 , 465.5)"
fill="#0563C1" 
stroke="none" 
 />
<use 
xlink:href ="#F2_14" 
 transform="matrix(0.012 , 0, 0 , -0.012, 523.3 , 465.5)"
fill="#0563C1" 
stroke="none" 
 />
<use 
xlink:href ="#F2_8" 
 transform="matrix(0.012 , 0, 0 , -0.012, 534.4 , 465.5)"
fill="#0563C1" 
stroke="none" 
 />
<use 
xlink:href ="#F2_42" 
 transform="matrix(0.012 , 0, 0 , -0.012, 552.3 , 465.5)"
fill="#0563C1" 
stroke="none" 
 />
<use 
xlink:href ="#F2_20" 
 transform="matrix(0.012 , 0, 0 , -0.012, 558.4 , 465.5)"
fill="#0563C1" 
stroke="none" 
 />
<use 
xlink:href ="#F2_6" 
 transform="matrix(0.012 , 0, 0 , -0.012, 573.5 , 465.5)"
fill="#0563C1" 
stroke="none" 
 />
<use 
xlink:href ="#F2_12" 
 transform="matrix(0.012 , 0, 0 , -0.012, 584.8 , 465.5)"
fill="#0563C1" 
stroke="none" 
 />
<use 
xlink:href ="#F2_29" 
 transform="matrix(0.012 , 0, 0 , -0.012, 592 , 465.5)"
fill="#0563C1" 
stroke="none" 
 />
<use 
xlink:href ="#F2_3" 
 transform="matrix(0.012 , 0, 0 , -0.012, 602.2 , 465.5)"
fill="#0563C1" 
stroke="none" 
 />
<use 
xlink:href ="#F2_33" 
 transform="matrix(0.012 , 0, 0 , -0.012, 613.8 , 465.5)"
fill="#0563C1" 
stroke="none" 
 />
<use 
xlink:href ="#F2_18" 
 transform="matrix(0.012 , 0, 0 , -0.012, 623.4 , 465.5)"
fill="#0563C1" 
stroke="none" 
 />
<use 
xlink:href ="#F2_57" 
 transform="matrix(0.012 , 0, 0 , -0.012, 634.3 , 465.5)"
fill="#0563C1" 
stroke="none" 
 />
<use 
xlink:href ="#F2_26" 
 transform="matrix(0.012 , 0, 0 , -0.012, 649.8 , 465.5)"
fill="#0563C1" 
stroke="none" 
 />
<use 
xlink:href ="#F2_25" 
 transform="matrix(0.012 , 0, 0 , -0.012, 661.4 , 465.5)"
fill="#0563C1" 
stroke="none" 
 />
<use 
xlink:href ="#F2_73" 
 transform="matrix(0.012 , 0, 0 , -0.012, 674.6 , 465.5)"
fill="#0563C1" 
stroke="none" 
 />
<use 
xlink:href ="#F2_47" 
 transform="matrix(0.012 , 0, 0 , -0.012, 687.2 , 465.5)"
fill="#0563C1" 
stroke="none" 
 />
<use 
xlink:href ="#F2_41" 
 transform="matrix(0.012 , 0, 0 , -0.012, 698.9 , 465.5)"
fill="#0563C1" 
stroke="none" 
 />
<use 
xlink:href ="#F2_47" 
 transform="matrix(0.012 , 0, 0 , -0.012, 709.9 , 465.5)"
fill="#0563C1" 
stroke="none" 
 />
<use 
xlink:href ="#F2_55" 
 transform="matrix(0.012 , 0, 0 , -0.012, 721.3 , 465.5)"
fill="#0563C1" 
stroke="none" 
 />
<use 
xlink:href ="#F2_52" 
 transform="matrix(0.012 , 0, 0 , -0.012, 735 , 465.5)"
fill="#0563C1" 
stroke="none" 
 />
<use 
xlink:href ="#F2_23" 
 transform="matrix(0.012 , 0, 0 , -0.012, 745.7 , 465.5)"
fill="#0563C1" 
stroke="none" 
 />
<use 
xlink:href ="#F2_60" 
 transform="matrix(0.012 , 0, 0 , -0.012, 757.3 , 465.5)"
fill="#0563C1" 
stroke="none" 
 />
<use 
xlink:href ="#F2_54" 
 transform="matrix(0.012 , 0, 0 , -0.012, 768.9 , 465.5)"
fill="#0563C1" 
stroke="none" 
 />
</g>
<path d="M317,467l467,0" class="g4_33" />
<g clip-path="url(#c0_33)">
<use 
xlink:href ="#F2_64" 
 transform="matrix(0.012 , 0, 0 , -0.012, 790.9 , 465.5)"
fill="#000000" 
stroke="none" 
 />
<use 
xlink:href ="#F2_59" 
 transform="matrix(0.012 , 0, 0 , -0.012, 798.1 , 465.5)"
fill="#000000" 
stroke="none" 
 />
<use 
xlink:href ="#F2_17" 
 transform="matrix(0.012 , 0, 0 , -0.012, 812.1 , 465.5)"
fill="#000000" 
stroke="none" 
 />
<use 
xlink:href ="#F2_13" 
 transform="matrix(0.012 , 0, 0 , -0.012, 823.6 , 465.5)"
fill="#000000" 
stroke="none" 
 />
<use 
xlink:href ="#F2_6" 
 transform="matrix(0.012 , 0, 0 , -0.012, 831.4 , 465.5)"
fill="#000000" 
stroke="none" 
 />
<use 
xlink:href ="#F2_12" 
 transform="matrix(0.012 , 0, 0 , -0.012, 842.8 , 465.5)"
fill="#000000" 
stroke="none" 
 />
<use 
xlink:href ="#F2_9" 
 transform="matrix(0.012 , 0, 0 , -0.012, 849.8 , 465.5)"
fill="#000000" 
stroke="none" 
 />
<use 
xlink:href ="#F2_14" 
 transform="matrix(0.012 , 0, 0 , -0.012, 855 , 465.5)"
fill="#000000" 
stroke="none" 
 />
<use 
xlink:href ="#F2_10" 
 transform="matrix(0.012 , 0, 0 , -0.012, 866.2 , 465.5)"
fill="#000000" 
stroke="none" 
 />
<use 
xlink:href ="#F2_37" 
 transform="matrix(0.012 , 0, 0 , -0.012, 877.8 , 465.5)"
fill="#000000" 
stroke="none" 
 />
<use 
xlink:href ="#F2_61" 
 transform="matrix(0.012 , 0, 0 , -0.012, 889.8 , 465.5)"
fill="#000000" 
stroke="none" 
 />
<use 
xlink:href ="#F2_37" 
 transform="matrix(0.012 , 0, 0 , -0.012, 901.3 , 465.5)"
fill="#000000" 
stroke="none" 
 />
<use 
xlink:href ="#F2_77" 
 transform="matrix(0.012 , 0, 0 , -0.012, 907.5 , 465.5)"
fill="#000000" 
stroke="none" 
 />
<use 
xlink:href ="#F2_46" 
 transform="matrix(0.012 , 0, 0 , -0.012, 919.3 , 465.5)"
fill="#000000" 
stroke="none" 
 />
<use 
xlink:href ="#F2_65" 
 transform="matrix(0.012 , 0, 0 , -0.012, 930.9 , 465.5)"
fill="#000000" 
stroke="none" 
 />
</g>
<defs>
	<path d="M395.7,-9.1c0,0,-76.4,0,-129.9,18.3c0,0,-53.4,18.3,-91.6,51.9c0,0,-38.2,33.6,-62.7,79.5c0,0,-24.4,47.3,-41.2,102.3l53.5,22.9c0,0,15.7,6.8,32.7,6.8c2.8,0,5.7,-0.2,8.5,-0.7c0,0,19.9,-4.5,29,-22.9c0,0,9.2,-19.8,21.4,-45.8c0,0,13.8,-26,35.2,-50.4c0,0,22.9,-24.5,56.5,-41.3c0,0,35.1,-16.8,87.1,-16.8c0,0,48.9,0,85.5,16.8c0,0,36.7,16.8,61.1,42.8c0,0,24.5,26,36.7,58.1c0,0,12.2,33.6,12.2,65.7c0,0,0,38.2,-9.1,70.2c0,0,-9.2,33.6,-36.7,56.6c0,0,-27.5,24.4,-74.9,38.2c0,0,-47.3,13.7,-120.7,13.7l0,90.1c0,0,61.1,0,102.4,12.3c0,0,42.8,13.7,68.7,36.6c0,0,27.5,23,39.8,53.5c0,0,12.2,32.1,12.2,68.8c0,0,0,42.7,-12.2,73.3c0,0,-12.3,30.5,-33.6,50.4c0,0,-23,21.4,-52,32.1c0,0,-30.5,10.7,-67.2,10.7c0,0,-35.1,0,-64.2,-10.7c0,0,-30.5,-12.2,-53.4,-30.6c0,0,-23,-18.3,-38.2,-44.3c0,0,-16.8,-27.5,-26,-59.6c0,0,-4.6,-24.4,-19.9,-32c0,0,-10.6,-5.3,-29.2,-5.3c-3.7,0,-7.7,0.2,-12,0.7L97.8,713.5c0,0,10.7,67.2,36.6,119.1c0,0,27.5,52,68.8,87.1c0,0,41.2,35.2,94.7,52c0,0,53.5,18.3,114.6,18.3c0,0,62.6,0,113.1,-16.8c0,0,51.9,-18.3,88.6,-50.4c0,0,38.2,-33.6,58,-79.5c0,0,21.4,-47.3,21.4,-103.9c0,0,0,-45.8,-10.7,-82.5c0,0,-12.2,-36.6,-33.6,-64.1c0,0,-21.4,-27.5,-51.9,-45.9c0,0,-30.6,-19.8,-68.8,-32c0,0,93.2,-26,139,-84.1c0,0,47.4,-59.5,47.4,-149.7c0,0,0,-67.2,-24.4,-120.7c0,0,-26,-55,-68.8,-93.2c0,0,-44.3,-38.2,-102.4,-56.5c0,0,-58,-19.8,-123.7,-19.8Z" 
	id="F6_3"
	 />

	<path d="M456.8,-21.3c0,0,-77.9,0,-166.5,16.8c0,0,-90.2,18.3,-186.4,53.4l0,154.3c0,0,91.7,-50.4,180.3,-76.4c0,0,88.6,-27.5,172.6,-27.5c0,0,129.9,0,200.1,50.4c0,0,70.3,52,70.3,145.2c0,0,0,82.5,-50.4,128.3c0,0,-50.4,47.4,-166.5,70.3l-91.7,16.8c0,0,-168,33.6,-242.9,105.4c0,0,-76.4,71.8,-76.4,200.1c0,0,0,146.7,103.9,232.3c0,0,105.4,85.5,287.2,85.5c0,0,79.5,0,160.4,-13.7c0,0,81,-15.3,166.6,-42.8l0,-148.2c0,0,-85.6,41.2,-162,61.1c0,0,-76.4,21.4,-146.6,21.4c0,0,-123.8,0,-189.5,-47.4c0,0,-67.2,-48.9,-67.2,-137.5c0,0,0,-73.3,44.3,-110c0,0,44.3,-38.2,168,-61.1l90.2,-19.8c0,0,169.6,-32.1,249,-111.6c0,0,81,-80.9,81,-216.9c0,0,0,-162,-108.5,-244.5c0,0,-108.5,-83.9,-319.3,-83.9Z" 
	id="F2_27"
	 />

	<path d="M120.7,-317.7l0,116.1l79.4,0c0,0,56.6,0,87.1,26c0,0,32.1,27.5,70.3,126.8l24.4,61L44.3,834.2l145.1,0L450.7,181.8L711.9,834.2l146.7,0L490.4,-76.3c0,0,-58,-149.7,-113,-195.5c0,0,-55,-45.9,-148.2,-45.9Z" 
	id="F2_19"
	 />

	<path d="M137.5,0l0,834.2l139,0l0,-129.9c0,0,48.9,76.4,114.6,113.1c0,0,67.2,38.2,154.3,38.2c0,0,145.2,0,218.5,-88.7c0,0,73.3,-90.1,73.3,-262.7L837.2,0L699.7,0l0,499.6c0,0,0,117.6,-45.8,175.7c0,0,-45.8,59.6,-139,59.6c0,0,-110,0,-174.2,-70.3c0,0,-64.2,-70.3,-64.2,-192.5L276.5,0Z" 
	id="F2_10"
	 />

	<path d="M420.1,0c0,0,-158.8,0,-218.4,58.1c0,0,-61.1,59.5,-61.1,216.9l0,453.8l-100.9,0l0,105.4l100.9,0l0,238.3l139,0l0,-238.3l282.6,0l0,-105.4l-282.6,0l0,-453.8c0,0,0,-102.4,27.5,-131.4c0,0,27.5,-29,113,-29l142.1,0L562.2,0Z" 
	id="F2_12"
	 />

	<path d="M407.9,93.2c0,0,113.1,0,181.8,79.4c0,0,70.3,81,70.3,215.5l0,30.5l-137.5,0c0,0,-166.5,0,-230.7,-36.7c0,0,-64.2,-38.1,-64.2,-129.8c0,0,0,-73.3,47.4,-116.1c0,0,48.9,-42.8,132.9,-42.8ZM371.3,-21.3c0,0,-128.4,0,-203.2,71.7c0,0,-76.4,71.8,-76.4,192.5c0,0,0,140.6,93.2,212.4c0,0,94.7,71.8,282.6,71.8l192.5,0l0,13.7c0,0,0,94.8,-62.6,145.2c0,0,-62.7,51.9,-175.7,51.9c0,0,-71.8,0,-139.1,-16.8c0,0,-67.2,-16.8,-129.8,-51.9l0,126.8c0,0,74.8,30.5,145.1,44.3c0,0,71.8,15.3,139,15.3c0,0,180.3,0,268.9,-93.2c0,0,90.2,-94.8,90.2,-285.7L796,0L660,0l0,126.8c0,0,-47.4,-76.4,-117.6,-111.5c0,0,-70.3,-36.6,-171.1,-36.6Z" 
	id="F2_6"
	 />

	<path d="M42.8,0L368.2,436.9L70.3,834.2l161.9,0L453.8,537.8L675.3,834.2l161.9,0L536.3,427.8L854,0L692.1,0L447.6,326.9L204.7,0Z" 
	id="F2_44"
	 />

	<path d="M178,0l0,189l158,0L336,0Zm0,600l0,189l158,0l0,-189Z" 
	id="F2_37"
	 />

	<path d="M629.4,-21.3c0,0,-253.6,0,-398.7,154.2c0,0,-145.1,154.3,-145.1,421.7c0,0,0,268.9,145.1,423.2c0,0,145.1,155.8,398.7,155.8c0,0,99.4,0,188,-26c0,0,88.6,-27.5,166.5,-80.9l0,-158.9c0,0,-76.4,71.8,-162,106.9c0,0,-87,35.2,-184.8,35.2c0,0,-191,0,-291.8,-116.1c0,0,-100.9,-117.7,-100.9,-339.2c0,0,0,-220,100.9,-336.1c0,0,100.8,-117.7,291.8,-117.7c0,0,97.8,0,183.3,35.2c0,0,87.1,35.1,163.5,106.9l0,-157.3c0,0,-79.5,-55,-168.1,-81c0,0,-88.6,-25.9,-186.4,-25.9Z" 
	id="F2_38"
	 />

	<path d="M488.9,594.3c0,0,110,0,165,50.4c0,0,55,50.4,55,148.2c0,0,0,97.8,-55,146.7c0,0,-55,48.9,-165,48.9l-189.5,0l0,-394.2ZM149.7,0l0,1113.8l339.2,0c0,0,191,0,284.2,-79.5c0,0,94.7,-81,94.7,-241.4c0,0,0,-105.4,-48.9,-174.1c0,0,-48.9,-70.3,-142.1,-97.8c0,0,48.9,-15.3,94.7,-68.8c0,0,45.9,-55,91.7,-148.2L1017.5,0L855.6,0L711.9,285.7c0,0,-55,111.5,-106.9,148.2c0,0,-51.9,36.7,-140.6,36.7l-165,0L299.4,0Z" 
	id="F2_53"
	 />

	<path d="M149,0l0,1113l705,0l0,-128l-555,0l0,-329l530,0l0,-126l-530,0l0,-404l567,0L866,0Z" 
	id="F2_45"
	 />

	<path d="M727.2,411L521,964L317.8,411ZM10.7,0L436.9,1113.8l169.6,0L1031.3,0L875.4,0L773.1,285.7l-501.2,0L169.6,0Z" 
	id="F2_58"
	 />

	<path d="M389,0l0,985L-3,985l0,128l939,0l0,-128l-396,0L540,0Z" 
	id="F2_2"
	 />

	<path d="M129,-200l0,1359l317,0l0,-107l-179,0L267,-94l179,0l0,-106Z" 
	id="F2_89"
	 />

	<path d="M601.9,99.3c0,0,163.5,0,258.2,122.2c0,0,96.3,123.8,96.3,333.1c0,0,0,210.8,-94.7,333c0,0,-96.3,123.8,-259.8,123.8c0,0,-165,0,-261.2,-122.2c0,0,-96.3,-123.8,-96.3,-334.6c0,0,0,-209.3,96.3,-331.5c0,0,96.2,-123.8,261.2,-123.8Zm0,-120.6c0,0,-235.2,0,-375.8,155.7c0,0,-140.5,155.9,-140.5,420.2c0,0,0,264.3,140.5,421.7c0,0,140.6,157.3,375.8,157.3c0,0,233.8,0,372.8,-157.3c0,0,140.6,-157.4,140.6,-421.7c0,0,0,-262.8,-139,-418.6c0,0,-140.6,-157.3,-374.4,-157.3Z" 
	id="F2_25"
	 />

	<path d="M488.9,571.4c0,0,105.4,0,161.9,53.5c0,0,58.1,55,58.1,155.8c0,0,0,99.3,-56.5,152.8c0,0,-58.1,55,-163.5,55l-189.5,0l0,-417.1ZM149.7,0l0,1113.8l339.2,0c0,0,187.9,0,282.6,-84.1c0,0,96.3,-85.5,96.3,-249c0,0,0,-165,-94.7,-249c0,0,-96.3,-85.6,-284.2,-85.6l-189.5,0L299.4,0Z" 
	id="F2_41"
	 />

	<path d="M149,0l0,1113l150,0l0,-987l542,0L841,0Z" 
	id="F2_49"
	 />

	<path d="M148,-200l0,106l177,0l0,1146l-177,0l0,107l316,0l0,-1359Z" 
	id="F2_90"
	 />

	<path d="M436.9,0L10.7,1113.8l157.4,0L521,175.7l354.4,938.1l155.9,0L606.5,0Z" 
	id="F2_81"
	 />

	<path d="M149,0l0,1113l150,0L299,0Z" 
	id="F2_40"
	 />

	<path d="M328.5,0L50.4,1113.8l151.3,0L436.9,171.1l232.3,942.7l169.6,0L1074,171.1l232.3,942.7l154.3,0L1179.4,0L990,0L756.3,965.6L517.9,0Z" 
	id="F2_69"
	 />

	<path d="M1116.8,68.8L160.4,415.6l0,125.2l956.4,346.8l0,-135.9L348.3,476.7l768.5,-272l0,-135.9Z" 
	id="F2_50"
	 />

	<path d="M261.3,0L108.5,834.2l145.1,0L377.4,125.3L776.1,834.2l146.7,0L446.1,0Z" 
	id="F4_45"
	 />

	<path d="M53.5,0L216.9,834.2l136,0L189.4,0ZM246,985.4l33.6,174.2l136,0L381.9,985.4Z" 
	id="F4_8"
	 />

	<path d="M241.4,490.4l491.9,1.5c0,0,3.1,12.3,3.1,24.5c0,0,1.5,12.2,1.5,24.4c0,0,0,91.7,-51.9,143.6c0,0,-53.5,53.5,-145.2,53.5c0,0,-102.3,0,-180.2,-64.1c0,0,-79.5,-64.2,-119.2,-183.4ZM430.8,-21.3c0,0,-174.1,0,-267.3,82.4c0,0,-94.7,82.5,-94.7,235.3c0,0,0,131.4,45.8,242.9c0,0,47.3,113.1,139,200.1c0,0,58.1,55,137.5,85.6c0,0,81,30.6,171.1,30.6c0,0,140.6,0,224.6,-85.6c0,0,84,-85.6,84,-229.2c0,0,0,-33.6,-4.5,-71.8c0,0,-4.6,-39.7,-12.3,-85.5l-638.6,0c0,0,-4.6,-27.5,-6.1,-44.3c0,0,-1.5,-16.8,-1.5,-27.5c0,0,0,-103.9,62.6,-160.4c0,0,64.2,-56.6,180.3,-56.6c0,0,90.1,0,169.6,19.9c0,0,79.4,19.8,148.2,58L742.5,36.7c0,0,-73.3,-29.1,-151.2,-42.7c0,0,-79.5,-15.3,-160.5,-15.3Z" 
	id="F4_21"
	 />

	<path d="M186.4,0L128.3,834.2l136,0L299.4,161.9L611.1,834.2l158.9,0L817.4,161.9l296.4,672.3l135.9,0L867.8,0L707.4,0L667.6,692.1L348.3,0Z" 
	id="F4_39"
	 />

	<path d="M53.5,0L215.4,834.2l136,0L323.9,702.8c0,0,58,73.3,137.5,113c0,0,81,39.8,171.1,39.8c0,0,110,0,169.6,-59.6c0,0,61.1,-61.1,61.1,-168.1c0,0,0,-27.5,-3.1,-58c0,0,-3,-30.6,-9.1,-65.7L753.2,0l-139,0l97.7,498.1c0,0,7.7,35.1,10.7,61.1c0,0,4.6,27.5,4.6,44.3c0,0,0,62.6,-39.7,96.2c0,0,-39.7,35.2,-111.5,35.2c0,0,-110,0,-189.5,-73.4c0,0,-79.4,-73.3,-103.9,-198.6L189.4,0Z" 
	id="F4_9"
	 />

	<path d="M359,94.7c0,0,113.1,0,195.6,79.5c0,0,84,79.4,111.5,213.9l4.6,30.5l-136,0c0,0,-169.6,0,-250.5,-44.3c0,0,-81,-45.8,-81,-140.5c0,0,0,-65.7,41.2,-102.4c0,0,41.3,-36.7,114.6,-36.7Zm-53.4,-116c0,0,-107,0,-174.2,64.1c0,0,-68.8,65.7,-68.8,168c0,0,0,145.2,116.2,230.7c0,0,116.1,85.6,322.3,85.6l191,0l7.6,36.7c0,0,0,6.1,0,12.2c0,0,1.6,7.6,1.6,22.9c0,0,0,65.7,-53.5,102.4c0,0,-53.5,36.6,-151.3,36.6c0,0,-67.2,0,-137.5,-16.8c0,0,-71.8,-16.8,-145.1,-51.9L236.8,796c0,0,77.9,30.5,151.3,44.3c0,0,74.8,15.3,145.1,15.3c0,0,146.7,0,223.1,-64.2c0,0,77.9,-64.2,77.9,-187.9c0,0,0,-24.5,-3.1,-56.6c0,0,-4.6,-33.6,-10.7,-70.2L727.2,0L589.7,0l24.5,126.8c0,0,-59.6,-74.9,-136,-111.5c0,0,-77.9,-36.6,-172.6,-36.6Z" 
	id="F4_13"
	 />

	<path d="M53.5,0L216.9,834.2l136,0l-26,-129.9c0,0,56.6,73.3,131.4,111.5c0,0,74.9,39.8,160.5,39.8c0,0,91.6,0,149.7,-47.4c0,0,58,-48.9,70.3,-134.4c0,0,62.6,88.6,145.1,134.4c0,0,82.5,47.4,174.2,47.4c0,0,108.4,0,166.5,-61.2c0,0,58,-62.6,58,-177.2c0,0,0,-24.4,-3,-53.4c0,0,-3.1,-29.1,-9.2,-59.6L1272.6,0L1136.7,0l96.2,499.6c0,0,6.1,32.1,7.7,55c0,0,3,22.9,3,39.7c0,0,0,67.2,-36.7,103.9c0,0,-36.6,36.7,-103.8,36.7c0,0,-100.9,0,-178.8,-74.9c0,0,-77.9,-74.9,-100.8,-194L731.8,0L594.3,0l97.8,499.6c0,0,6.1,27.5,7.6,50.4c0,0,3.1,22.9,3.1,42.8c0,0,0,67.2,-36.7,103.9c0,0,-36.7,38.2,-102.3,38.2c0,0,-102.4,0,-180.3,-74.9c0,0,-77.9,-74.9,-100.9,-194L189.4,0Z" 
	id="F4_46"
	 />

	<path d="M160.4,68.8l0,135.9l768.5,272l-768.5,275l0,135.9L1116.8,540.8l0,-125.2L160.4,68.8Z" 
	id="F4_47"
	 />

	<path d="M352.9,-200c0,0,-111.5,174.1,-166.5,342.1c0,0,-56.5,169.6,-56.5,336.1c0,0,0,166.5,55,334.6c0,0,56.5,169.6,168,345.3l120.7,0c0,0,-100.8,-171.2,-148.2,-339.2c0,0,-48.9,-168.1,-48.9,-340.7c0,0,0,-171.1,48.9,-339.2c0,0,48.9,-169.5,148.2,-339Z" 
	id="F2_64"
	 />

	<path d="M53.5,0L279.6,1159.6l136,0L189.4,0Z" 
	id="F4_33"
	 />

	<path d="M317.8,-21.3c0,0,-67.2,0,-140.6,12.2c0,0,-73.3,12.2,-160.4,39.7l26,140.5c0,0,76.4,-38.2,148.2,-58c0,0,73.3,-19.9,140.5,-19.9c0,0,100.9,0,163.5,42.8c0,0,64.2,42.8,64.2,110c0,0,0,71.8,-166.6,114.6l-13.7,4.5l-47.4,12.3c0,0,-103.9,27.5,-152.7,71.8c0,0,-48.9,45.8,-48.9,116.1c0,0,0,132.9,100.8,210.8c0,0,100.8,79.5,273.5,79.5c0,0,67.2,0,131.4,-10.7c0,0,64.1,-12.3,126.8,-35.2l-26,-129.8c0,0,-53.5,30.5,-113.1,44.3c0,0,-61.1,15.2,-125.2,15.2c0,0,-108.5,0,-171.2,-36.6c0,0,-62.6,-36.7,-62.6,-99.3c0,0,0,-74.9,145.1,-114.6c0,0,10.7,-3.1,16.9,-4.6l44.3,-12.2c0,0,135.9,-38.2,181.8,-79.5c0,0,47.3,-42.7,47.3,-114.5c0,0,0,-133,-105.4,-215.5c0,0,-106.9,-83.9,-276.5,-83.9Z" 
	id="F4_5"
	 />

	<path d="M117.6,-177.1L178.8,61.1l0,128.3l157.3,0l0,-128.3L213.9,-177.1Z" 
	id="F2_39"
	 />

	<path d="M161,0l0,189l158,0L319,0Z" 
	id="F2_24"
	 />

	<path d="M122.2,-200c0,0,99.3,169.5,146.7,337.5c0,0,48.9,169.6,48.9,340.7c0,0,0,172.6,-47.4,340.7c0,0,-48.9,168,-148.2,339.2l119.2,0c0,0,111.5,-175.7,166.5,-343.8c0,0,56.5,-169.6,56.5,-336.1c0,0,0,-166.5,-55,-334.6c0,0,-56.5,-169.5,-168,-343.6Z" 
	id="F2_65"
	 />

	<path d="M317.8,-21.3c0,0,-108.5,0,-169.6,59.5c0,0,-61.1,59.6,-61.1,166.5c0,0,0,22.9,3,56.6c0,0,4.6,33.6,10.7,68.7l97.8,504.2l139,0L239.9,336.1c0,0,-7.7,-36.7,-10.7,-62.6c0,0,-4.6,-26,-4.6,-44.3c0,0,0,-62.7,38.2,-97.8c0,0,39.7,-35.1,111.5,-35.1c0,0,110,0,189.5,74.8c0,0,80.9,74.9,105.4,201.7l93.2,461.4l135.9,0L736.4,0l-136,0l27.5,129.9c0,0,-58,-71.8,-137.5,-111.6c0,0,-81,-39.6,-172.6,-39.6Z" 
	id="F4_12"
	 />

	<path d="M444.6,93.2c0,0,64.2,0,119.2,29c0,0,55,30.6,97.7,90.2c0,0,41.3,61.1,67.3,142c0,0,27.5,81,27.5,154.4c0,0,0,108.4,-48.9,169.5c0,0,-50.5,61.1,-137.5,61.1c0,0,-64.2,0,-119.2,-30.5c0,0,-56.5,-30.6,-97.8,-90.1c0,0,-42.8,-61.2,-67.2,-142.1c0,0,-26,-82.5,-26,-163.5c0,0,0,-103.9,48.9,-161.9c0,0,48.9,-58.1,136,-58.1Zm9.2,-114.5c0,0,-81,0,-140.6,36.6c0,0,-59.6,36.6,-96.3,111.5L191,0L55,0L281.1,1159.6l136,0L328.5,707.4c0,0,51.9,68.7,128.3,108.4c0,0,76.4,39.8,158.9,39.8c0,0,128.3,0,203.2,-87.1c0,0,76.4,-87.1,76.4,-233.8c0,0,0,-122.2,-44.3,-235.3c0,0,-44.3,-113,-125.3,-201.6c0,0,-55,-58.1,-123.8,-88.6c0,0,-70.2,-30.5,-148.1,-30.5Z" 
	id="F4_40"
	 />

	<path d="M391.1,93.2c0,0,129.9,0,221.5,123.7c0,0,91.7,123.8,91.7,301c0,0,0,108.5,-47.4,165c0,0,-47.3,56.5,-135.9,56.5c0,0,-64.2,0,-119.2,-29c0,0,-55,-30.5,-96.2,-88.6c0,0,-44.3,-61.1,-68.8,-143.6c0,0,-24.4,-82.5,-24.4,-160.4c0,0,0,-110,45.8,-166.5c0,0,45.8,-58.1,132.9,-58.1ZM550,-314.6l85.6,439.9c0,0,-55,-73.4,-129.9,-110c0,0,-74.9,-36.6,-165,-36.6c0,0,-126.8,0,-198.6,83.9c0,0,-73.3,85.6,-73.3,235.3c0,0,0,120.7,44.3,233.8c0,0,45.8,113,128.3,201.6c0,0,53.5,59.6,122.2,90.2c0,0,70.3,32.1,146.7,32.1c0,0,93.2,0,152.8,-36.7c0,0,59.5,-36.7,87,-111.5l23,125.2l139,0L689,-314.6Z" 
	id="F4_48"
	 />

	<path d="M53.5,0L216.9,834.2l136,0l-26,-129.9c0,0,55,73.3,129.9,111.5c0,0,76.4,39.8,162,39.8c0,0,22.9,0,44.3,-3.1c0,0,21.3,-3.1,42.7,-9.2L679.9,707.4c0,0,-19.9,12.2,-47.4,18.3c0,0,-27.5,6.1,-58.1,6.1c0,0,-108.4,0,-190.9,-82.5c0,0,-82.5,-84,-108.5,-224.6L189.4,0Z" 
	id="F4_3"
	 />

	<path d="M-36.6,-317.7l22.9,116.1l76.3,0c0,0,58.1,0,97.8,30.6c0,0,41.3,32.1,91.7,122.2l41.2,79.4L108.5,834.2l145.1,0L392.6,194L776.1,834.2l145.2,0L378.9,-76.3c0,0,-96.3,-160.4,-155.8,-200.1c0,0,-61.2,-41.3,-154.3,-41.3Z" 
	id="F4_49"
	 />

	<path d="M149,0l0,1113l150,0l0,-457l548,0l0,457l150,0L997,0L847,0l0,530l-548,0L299,0Z" 
	id="F2_32"
	 />

	<path d="M149.7,0l0,1113.8l149.7,0l0,-472.1L799,1113.8l194.1,0L441.5,594.3L1032.8,0L834.2,0L299.4,536.3L299.4,0Z" 
	id="F2_85"
	 />

	<path d="M149.7,0l0,1113.8l201.7,0l495,-932l0,932l145.1,0L991.5,0L789.9,0l-495,930.4L294.9,0Z" 
	id="F2_55"
	 />

	<path d="M481.3,123.8c0,0,230.6,0,337.6,103.8c0,0,106.9,103.9,106.9,330c0,0,0,223.1,-106.9,327c0,0,-107,103.9,-337.6,103.9l-181.9,0l0,-864.7ZM149.7,0l0,1113.8l308.6,0c0,0,323.9,0,475.2,-134.5c0,0,151.2,-136,151.2,-421.7c0,0,0,-288.7,-151.2,-423.2C933.5,134.4,780.7,0,458.3,0Z" 
	id="F2_59"
	 />

	<path d="M389.6,0l0,530.1l-391,583.7l160.3,0L467.5,655.4l305.6,458.4l161.9,0L540.8,530.1L540.8,0Z" 
	id="F2_71"
	 />

	<path d="M73,355l0,123l403,0l0,-123Z" 
	id="F2_78"
	 />

	<path d="M467.5,94.7c0,0,108.5,0,172.6,85.6c0,0,64.2,87.1,64.2,235.3c0,0,0,149.7,-64.2,235.2c0,0,-64.1,87.1,-172.6,87.1c0,0,-111.5,0,-175.7,-85.5c0,0,-64.2,-85.6,-64.2,-236.8c0,0,0,-149.8,64.2,-235.3c0,0,64.2,-85.6,175.7,-85.6Zm0,-116c0,0,-180.3,0,-281.1,116C186.4,94.7,84,210.8,84,415.6c0,0,0,206.2,100.9,322.3c0,0,102.3,117.7,282.6,117.7c0,0,178.8,0,281.1,-116.2c0,0,102.4,-117.6,102.4,-323.8c0,0,0,-204.8,-102.4,-320.9c0,0,-102.3,-116,-281.1,-116Z" 
	id="F2_14"
	 />

	<path d="M137.5,0l0,834.2l139,0l0,-129.9c0,0,42.8,76.4,111.6,113.1c0,0,70.2,38.2,169.5,38.2c0,0,13.8,0,30.6,-1.6c0,0,16.8,-3,38.2,-6.1l1.5,-142.1c0,0,-24.4,13.8,-50.4,19.9c0,0,-27.5,6.1,-61.1,6.1c0,0,-116.1,0,-177.2,-74.9c0,0,-62.7,-76.3,-62.7,-216.9l0,-440Z" 
	id="F2_13"
	 />

	<path d="M230.7,490.4l490.4,1.5c0,0,-1.5,111.6,-62.6,178.8c0,0,-62.7,67.2,-163.5,67.2c0,0,-114.6,0,-183.3,-64.1c0,0,-70.3,-65.7,-81,-183.4ZM516.4,-21.3c0,0,-198.6,0,-314.7,116C201.7,94.7,84,210.8,84,409.4c0,0,0,204.8,110,325.5c0,0,111.6,120.7,299.5,120.7c0,0,168,0,265.8,-108.5c0,0,99.3,-110,99.3,-296.4l0,-67.2l-632.5,0c0,0,9.2,-140.6,85.6,-213.9c0,0,76.4,-74.9,213.9,-74.9c0,0,77.9,0,152.7,18.4c0,0,74.9,19.8,148.2,58l0,-129.8c0,0,-74.8,-30.6,-151.2,-45.8c0,0,-77.9,-16.8,-158.9,-16.8Z" 
	id="F2_4"
	 />

	<path d="M458.3,93.2c0,0,110,0,172.7,85.6c0,0,62.6,85.5,62.6,236.8c0,0,0,152.7,-62.6,238.3c0,0,-62.7,85.5,-172.7,85.5c0,0,-108.4,0,-171.1,-85.5c0,0,-62.6,-85.6,-62.6,-238.3c0,0,0,-151.3,62.6,-236.8c0,0,62.7,-85.6,171.1,-85.6ZM424.7,-21.3c0,0,-151.2,0,-245.9,120.6C178.8,99.3,84,220,84,415.6c0,0,0,197,94.8,317.7c0,0,94.7,122.3,245.9,122.3c0,0,93.2,0,158.9,-36.7c0,0,65.7,-36.7,110,-111.5l0,452.2l136,0L829.6,0l-136,0l0,125.3c0,0,-44.3,-74.9,-110,-110c0,0,-65.7,-36.6,-158.9,-36.6Z" 
	id="F2_7"
	 />

	<path d="M137.5,0l0,1159.6l139,0l0,-455.3c0,0,48.9,76.4,114.6,113.1c0,0,67.2,38.2,154.3,38.2c0,0,145.2,0,218.5,-88.7c0,0,73.3,-90.1,73.3,-262.7L837.2,0L699.7,0l0,499.6c0,0,0,117.6,-45.8,175.7c0,0,-45.8,59.6,-139,59.6c0,0,-110,0,-174.2,-70.3c0,0,-64.2,-70.3,-64.2,-192.5L276.5,0Z" 
	id="F2_3"
	 />

	<path d="M421.7,-21.3c0,0,-143.6,0,-218.5,88.5L128.3,328.5l0,505.7l137.5,0l0,-499.6c0,0,0,-119.2,45.9,-178.8c0,0,47.3,-59.5,139,-59.5c0,0,111.5,0,175.7,70.2c0,0,65.7,71.8,65.7,194.1l0,473.6l136,0L828.1,0l-136,0l0,126.8c0,0,-50.4,-74.9,-116.1,-111.5c0,0,-67.2,-36.6,-154.3,-36.6Z" 
	id="F2_17"
	 />

	<path d="M458.3,114.6c0,0,111.6,0,172.7,81c0,0,62.6,82.5,62.6,230.7c0,0,0,149.7,-61.1,230.6c0,0,-62.6,82.5,-174.2,82.5c0,0,-110,0,-171.1,-80.9c0,0,-62.6,-82.5,-62.6,-232.2c0,0,0,-148.2,61.1,-229.2c0,0,62.6,-82.5,172.6,-82.5ZM444.6,-317.7c0,0,-71.8,0,-136,10.7c0,0,-64.2,12.2,-123.7,33.6l0,134.5c0,0,59.5,-33.6,117.6,-48.9c0,0,59.6,-15.3,120.7,-15.3c0,0,136,0,203.2,70.3c0,0,67.2,70.3,67.2,210.7l0,68.8c0,0,-42.8,-74.9,-108.5,-110C585.1,36.7,517.9,0,424.7,0c0,0,-152.8,0,-245.9,116.1c0,0,-94.8,117.7,-94.8,310.2c0,0,0,194,93.2,311.6c0,0,94.7,117.7,247.5,117.7c0,0,93.2,0,158.9,-36.7c0,0,67.2,-36.7,110,-111.5l0,126.8l136,0l0,-731.8c0,0,0,-210.8,-94.7,-314.7c0,0,-94.8,-105.4,-290.3,-105.4Z" 
	id="F2_23"
	 />

	<path d="M357.5,0L44.3,834.2l145.1,0L450.7,132.9L711.9,834.2l146.7,0L543.9,0Z" 
	id="F2_18"
	 />

	<path d="M143,0l0,834l138,0L281,0Zm0,985l0,174l138,0l0,-174Z" 
	id="F2_9"
	 />

	<path d="M282.6,0L62.6,834.2l137.5,0L372.8,183.3L542.4,834.2l161.9,0L876.9,183.3l171.2,650.9l135.9,0L965.6,0l-162,0L624.9,684.4L444.6,0Z" 
	id="F2_20"
	 />

	<path d="M339.2,436.9l0,281.2L88.6,566.8L44.3,638.6L313.2,785.3L44.3,928.9l44.3,74.9L339.2,852.5l0,281.1l84,0l0,-281.1l250.6,151.3l44.3,-74.9L449.2,785.3L718.1,638.6L673.8,566.8L423.2,718.1l0,-281.2Z" 
	id="F2_48"
	 />

	<path d="M149,0l0,1113l640,0l0,-128l-490,0l0,-327l441,0l0,-127l-441,0L299,0Z" 
	id="F2_52"
	 />

	<path d="M149.7,0l0,1113.8l224.6,0L658.5,354.4l285.7,759.4l224.6,0L1168.8,0L1020.6,0l0,977.8L733.3,213.9l-151.2,0L294.9,977.8L294.9,0Z" 
	id="F2_54"
	 />

	<path d="M117.6,-177.1L178.8,61.1l0,128.3l157.3,0l0,-128.3L213.9,-177.1Zm61.2,777.5l0,189.5l157.3,0l0,-189.5Z" 
	id="F2_56"
	 />

	<path d="M314.7,0L119.2,1113.8l146.6,0l162,-958l540.8,958l165,0L488.9,0Z" 
	id="F4_50"
	 />

	<path d="M505.7,99.3c0,0,122.2,0,216.9,61.1c0,0,96.3,61.1,165,181.8c0,0,44.3,79.5,68.8,168.1c0,0,24.4,88.6,24.4,177.2c0,0,0,154.3,-74.8,238.3c0,0,-74.9,85.6,-209.3,85.6c0,0,-125.3,0,-220,-59.6c0,0,-94.8,-61.1,-163.5,-184.9c0,0,-45.8,-77.9,-68.8,-165c0,0,-22.9,-88.6,-22.9,-178.7c0,0,0,-154.3,73.4,-238.3c0,0,74.8,-85.6,210.8,-85.6ZM501.1,-21.3c0,0,-206.2,0,-322.3,120.6c0,0,-117.7,122.2,-117.7,333.1c0,0,0,120.7,45.8,245.9c0,0,45.9,126.8,125.3,224.6c0,0,94.7,116.1,210.9,172.7c0,0,117.6,58,256.6,58c0,0,204.7,0,322.4,-120.7c0,0,119.2,-120.7,119.2,-328.5c0,0,0,-128.3,-44.4,-252c0,0,-45.8,-123.8,-129.8,-224.6c0,0,-94.7,-116.1,-209.3,-172.7c0,0,-116.1,-56.4,-256.7,-56.4Z" 
	id="F4_25"
	 />

	<path d="M414,-21.3c0,0,-165,0,-255.1,82.4c0,0,-90.1,82.5,-90.1,236.8c0,0,0,129.9,45.8,238.4c0,0,47.3,110,139,197c0,0,64.2,61.1,148.2,91.7c0,0,84,30.6,183.3,30.6c0,0,58.1,0,116.2,-13.8c0,0,58,-13.7,117.6,-39.7L791.4,667.6c0,0,-50.4,35.2,-105.4,52c0,0,-55,18.3,-114.6,18.3c0,0,-65.7,0,-125.3,-22.9c0,0,-59.6,-22.9,-99.3,-65.7c0,0,-64.2,-64.2,-99.3,-151.2c0,0,-35.1,-87.1,-35.1,-180.3c0,0,0,-113.1,55,-168.1c0,0,56.5,-55,172.6,-55c0,0,56.5,0,119.2,16.8c0,0,64.1,16.8,134.4,50.4L667.6,27.5c0,0,-61.1,-26,-123.7,-36.6c0,0,-62.6,-12.2,-129.9,-12.2Z" 
	id="F4_51"
	 />

	<path d="M412.5,123.8c0,0,253.6,0,392.6,145.1c0,0,139.1,145.1,139.1,409.4c0,0,0,160.5,-90.2,235.3c0,0,-90.1,74.9,-281.1,74.9l-189.4,0L216.9,123.8ZM39.7,0l217,1113.8l323.9,0c0,0,258.2,0,389.5,-110c0,0,133,-110,133,-325.5c0,0,0,-142,-50.5,-273.4c0,0,-50.4,-131.4,-137.5,-221.6c0,0,-88.6,-93.2,-224.5,-137.5C690.6,45.8,553.1,0,366.7,0Z" 
	id="F4_11"
	 />

	<path d="M357.5,0c0,0,-122.2,0,-181.8,47.4c0,0,-59.6,47.3,-59.6,143.6c0,0,0,18.3,1.5,38.2c0,0,3.1,21.4,7.7,45.8l88.6,453.8l-117.6,0l22.9,105.4l113,0l47.4,238.3l136,0L371.3,834.2l273.4,0L624.9,728.8l-275,0L261.3,275c0,0,-4.6,-26,-6.2,-42.8c0,0,-1.5,-16.8,-1.5,-27.5c0,0,0,-47.3,27.5,-68.7c0,0,29,-21.4,93.2,-21.4l137.5,0L488.9,0Z" 
	id="F4_14"
	 />

	<path d="M508.8,93.2c0,0,110,0,171.1,85.6c0,0,62.6,85.5,62.6,236.8c0,0,0,152.7,-61.1,238.3c0,0,-62.6,85.5,-172.6,85.5c0,0,-108.5,0,-169.6,-85.5c0,0,-62.7,-85.6,-62.7,-238.3c0,0,0,-151.3,61.1,-236.8c0,0,62.7,-85.6,171.2,-85.6ZM137.5,-317.7l0,1151.9l139,0l0,-126.8c0,0,42.8,74.8,108.5,111.5c0,0,65.7,36.7,157.4,36.7c0,0,152.7,0,247.5,-120.7c0,0,96.2,-122.3,96.2,-319.3c0,0,0,-195.6,-94.7,-316.3c0,0,-96.3,-120.6,-249,-120.6c0,0,-91.7,0,-157.4,35.1c0,0,-65.7,36.6,-108.5,111.5l0,-443Z" 
	id="F2_15"
	 />

	<path d="M375.8,-21.3c0,0,-67.2,0,-140.5,12.2c0,0,-73.4,12.2,-152.8,39.7l0,140.5c0,0,76.4,-39.7,149.7,-58c0,0,73.4,-19.9,146.7,-19.9c0,0,96.2,0,148.2,32.1c0,0,51.9,33.6,51.9,94.7c0,0,0,55,-36.6,84c0,0,-38.2,30.6,-165,58.1l-48.9,12.2c0,0,-126.8,26,-183.4,81c0,0,-56.5,56.5,-56.5,152.8c0,0,0,119.1,82.5,183.3c0,0,84,64.2,238.3,64.2c0,0,74.9,0,142.1,-10.7c0,0,67.3,-12.3,123.8,-35.2l0,-129.8c0,0,-58.1,30.5,-120.7,44.3c0,0,-62.7,15.2,-129.9,15.2c0,0,-102.3,0,-152.8,-30.5c0,0,-50.4,-32.1,-50.4,-94.7c0,0,0,-47.4,35.2,-74.9c0,0,36.6,-27.5,148.2,-51.9l45.8,-10.7c0,0,146.7,-30.6,207.8,-87.1c0,0,62.6,-58.1,62.6,-160.4c0,0,0,-116.1,-91.7,-183.4c0,0,-93.1,-67.1,-253.6,-67.1Z" 
	id="F2_11"
	 />

	<path d="M0,-140.5L386.5,1113.8l126.8,0L126.8,-140.5Z" 
	id="F2_42"
	 />

	<path d="M508.8,93.2c0,0,110,0,171.1,85.6c0,0,62.6,85.5,62.6,236.8c0,0,0,152.7,-61.1,238.3c0,0,-62.6,85.5,-172.6,85.5c0,0,-108.5,0,-169.6,-85.5c0,0,-62.7,-85.6,-62.7,-238.3c0,0,0,-151.3,61.1,-236.8c0,0,62.7,-85.6,171.2,-85.6ZM542.4,-21.3c0,0,-91.7,0,-157.4,35.1c0,0,-65.7,36.6,-108.5,111.5L276.5,0l-139,0l0,1159.6l139,0l0,-452.2c0,0,42.8,74.8,108.5,111.5c0,0,65.7,36.7,157.4,36.7c0,0,152.7,0,247.5,-120.7c0,0,96.2,-122.3,96.2,-319.3c0,0,0,-195.6,-94.7,-316.3c0,0,-96.3,-120.6,-249,-120.6Z" 
	id="F2_26"
	 />

	<path d="M495,-21.3c0,0,-189.4,0,-299.4,117.6C195.6,96.3,84,215.4,84,415.6c0,0,0,204.7,111.6,322.3c0,0,113,117.7,308.6,117.7c0,0,62.6,0,122.2,-13.8c0,0,61.1,-13.7,117.6,-39.7l0,-128.3c0,0,-58,32,-116.1,47.3c0,0,-58,16.8,-119.1,16.8c0,0,-133,0,-206.3,-84c0,0,-74.9,-84,-74.9,-238.3c0,0,0,-152.8,73.4,-236.8c0,0,74.8,-84.1,207.8,-84.1c0,0,61.1,0,119.1,15.3c0,0,58.1,16.8,116.1,48.9L744,30.6c0,0,-56.5,-26,-117.6,-38.1c0,0,-62.6,-13.8,-131.4,-13.8Z" 
	id="F2_29"
	 />

	<path d="M137.5,0l0,834.2l139,0l0,-129.9c0,0,45.9,77.9,111.6,114.6c0,0,65.7,36.7,155.8,36.7c0,0,91.7,0,154.3,-45.9c0,0,64.2,-47.3,96.2,-135.9c0,0,50.5,93.1,122.3,137.5c0,0,71.8,44.3,168,44.3c0,0,131.4,0,201.7,-91.7c0,0,71.8,-91.7,71.8,-259.7L1358.2,0l-139,0l0,499.6c0,0,0,119.2,-41.3,177.2c0,0,-42.8,58.1,-129.8,58.1c0,0,-107,0,-168.1,-70.3c0,0,-62.6,-70.3,-62.6,-192.5L817.4,0L678.3,0l0,499.6c0,0,0,120.7,-41.2,177.2c0,0,-42.8,58.1,-131.4,58.1c0,0,-105.4,0,-166.5,-70.3c0,0,-62.7,-71.8,-62.7,-192.5L276.5,0Z" 
	id="F2_8"
	 />

	<path d="M290.3,0l0,189.4l152.8,0L443.1,0Zm4.6,297.9l0,114.6c0,0,0,76.4,21.4,123.8c0,0,21.3,48.8,88.6,113l67.2,67.2c0,0,41.2,39.8,59.6,74.9c0,0,19.8,35.1,19.8,70.3c0,0,0,67.2,-48.9,108.4c0,0,-48.8,41.3,-128.3,41.3c0,0,-59.6,0,-125.3,-26c0,0,-67.2,-27.5,-140.5,-76.4l0,140.6c0,0,70.3,41.2,142.1,62.6c0,0,71.8,21.4,149.7,21.4c0,0,137.5,0,220,-71.8c0,0,82.5,-73.3,82.5,-192.5c0,0,0,-56.5,-26,-106.9c0,0,-27.5,-52,-94.7,-116.1L516.4,582.1c0,0,-35.1,-35.2,-48.9,-53.5c0,0,-15.3,-19.8,-21.4,-39.7c0,0,-3,-15.3,-4.6,-36.7c0,0,-3,-22.9,-3,-62.6l0,-91.7Z" 
	id="F2_33"
	 />

	<path d="M160,261l0,127l956,0l0,-127Zm0,307l0,125l956,0l0,-125Z" 
	id="F2_57"
	 />

	<path d="M44.3,0L443.1,594.3L94.7,1113.8l162,0l278,-414.1l278.1,414.1l161.9,0L615.7,577.5L997.6,0L835.7,0L522.5,473.6L207.8,0Z" 
	id="F2_73"
	 />

	<path d="M111.5,0l0,126.8c0,0,85.6,88.6,233.8,236.8c0,0,148.2,149.7,186.4,194c0,0,71.8,81,100.8,137.5c0,0,29,56.6,29,110c0,0,0,88.7,-62.6,145.2c0,0,-62.6,56.5,-162,56.5c0,0,-71.8,0,-149.7,-24.4c0,0,-79.4,-26,-168,-74.9l0,151.3c0,0,90.1,36.6,169.6,55c0,0,79.4,19.8,145.1,19.8c0,0,172.6,0,275,-87.1c0,0,103.9,-87.1,103.9,-230.7c0,0,0,-68.7,-26,-129.8c0,0,-26,-62.7,-93.2,-145.2c0,0,-19.8,-22.9,-119.2,-125.2c0,0,-99.3,-103.9,-282.6,-288.8l527.1,0L818.9,0Z" 
	id="F2_47"
	 />

	<path d="M504.2,96.3c0,0,100.8,0,160.4,70.2c0,0,59.6,70.3,59.6,189.5c0,0,0,120.7,-59.6,189.4c0,0,-59.6,70.3,-160.4,70.3c0,0,-102.4,0,-160.4,-68.8c0,0,-59.6,-70.2,-59.6,-190.9c0,0,0,-119.2,58,-189.5c0,0,59.6,-70.2,162,-70.2Zm0,-117.6c0,0,-194.1,0,-296.4,146.6c0,0,-102.4,148.2,-102.4,429.3c0,0,0,264.3,125.3,421.7c0,0,125.3,157.3,337.6,157.3c0,0,56.6,0,113.1,-10.7c0,0,58,-12.2,120.7,-35.1l0,-136c0,0,-56.5,26,-113.1,39.7c0,0,-58,15.3,-116.1,15.3c0,0,-148.2,0,-226.1,-100.8c0,0,-79.4,-100.9,-91.7,-304.1c0,0,44.3,64.2,110,97.8c0,0,67.3,35.2,146.7,35.2c0,0,168.1,0,265.8,-100.9c0,0,97.8,-102.3,97.8,-278c0,0,0,-171.1,-100.8,-273.5c0,0,-102.4,-103.8,-270.4,-103.8Z" 
	id="F2_60"
	 />

	<path d="M467.5,495c0,0,100.8,0,160.4,68.8c0,0,59.6,70.2,59.6,190.9c0,0,0,119.2,-59.6,189.5c0,0,-59.6,70.2,-160.4,70.2c0,0,-102.4,0,-160.4,-70.2c0,0,-59.6,-70.3,-59.6,-189.5c0,0,0,-120.7,58.1,-189.4c0,0,59.5,-70.3,161.9,-70.3ZM403.3,-21.3c0,0,-56.5,0,-114.5,10.7c0,0,-59.6,10.6,-122.3,33.5l0,136c0,0,56.6,-26,114.6,-39.7c0,0,59.6,-15.3,114.6,-15.3c0,0,149.7,0,227.6,100.8c0,0,79.5,100.9,90.2,304.1c0,0,-42.8,-64.2,-108.5,-97.8c0,0,-67.2,-33.6,-148.2,-33.6c0,0,-166.5,0,-264.3,100.8c0,0,-97.8,100.8,-97.8,276.5c0,0,0,171.1,100.9,275c0,0,102.3,103.9,271.9,103.9c0,0,192.5,0,293.3,-148.2c0,0,102.4,-148.2,102.4,-430.8c0,0,0,-262.8,-123.8,-418.6c0,0,-125.2,-157.3,-336.1,-157.3Z" 
	id="F2_61"
	 />

	<path d="M576,386.5l0,595.9L195.6,386.5ZM576,0l0,261.3l-502.7,0l0,146.6l464.5,705.9l189.4,0l0,-727.3l158.9,0l0,-125.2l-158.9,0L727.2,0Z" 
	id="F2_77"
	 />

	<path d="M189.4,0l0,126.8l246,0l0,849.5L166.5,922.8l0,136l267.4,55l149.7,0l0,-987l246,0L829.6,0Z" 
	id="F2_46"
	 />


</defs>
</svg>