<?xml version="1.0" encoding="UTF-8" standalone="no"?>
<!DOCTYPE svg PUBLIC "-//W3C//DTD SVG 1.1//EN"
"http://www.w3.org/Graphics/SVG/1.1/DTD/svg11.dtd">
<svg viewBox="0 0 1210 1045" version="1.1" xmlns="http://www.w3.org/2000/svg" xmlns:xlink="http://www.w3.org/1999/xlink">
<defs>
<style type="text/css"><![CDATA[
.g3_106{
fill: none;
stroke: #418AB3;
stroke-width: 2;
stroke-linecap: butt;
stroke-linejoin: miter;
stroke-miterlimit: 7;
}
.g2_106{
fill: none;
stroke: #418AB3;
stroke-width: 5;
stroke-linecap: butt;
stroke-linejoin: miter;
stroke-miterlimit: 7;
}
.g1_106{
fill: #FFFFFF;
}
]]></style>
</defs>
<path fill-rule="evenodd" d="M0,0L1210,0l0,1045L0,1045L0,0Z" class="g1_106" />
<path fill-rule="evenodd" d="M0,0L1210,0l0,1045L0,1045L0,0Z" class="g1_106" />
<image x="828" y="984" width="334" height="49" xlink:href="img/1.png" />
<path d="M627.5,91.5l0,714" class="g2_106" />
<path fill-rule="evenodd" d="M990,9.6l0,-0.3L990,9l0.2,-0.3l0,-0.3l0,-0.3l0.1,-0.5l0.2,-0.3l0,-0.1l0.1,-0.3l0.2,-0.3l0.3,-0.3L991.2,6l0.2,-0.2l0.1,-0.3l0.3,-0.2L992,5l0.3,-0.1l0.1,-0.2l0.3,-0.3l0.4,-0.1l0.3,-0.2L993.7,4L994,4l0.1,-0.2l0.5,-0.1l0.3,0l0.3,0l0.3,-0.2l0.3,0l0.3,0l189.5,0l0.3,0l0.3,0l0.3,0.2l0.3,0l0.3,0l0.3,0.1l0.3,0.2l0.3,0l0.3,0.1l0.3,0.2l0.2,0.1l0.3,0.3l0.3,0.2l0.1,0.1l0.3,0.3l0.2,0.2l0.3,0.3l0.1,0.2l0.2,0.3l0.2,0.3l0.1,0.3l0.2,0.3l0.1,0.3l0.2,0.3l0,0.3l0.1,0.3l0,0.3l0,0.3l0.2,0.3l0,0.3l0,24.5l0,0.3l0,0.3l-0.2,0.3l0,0.3l-0.1,0.3l0,0.3l-0.2,0.3l-0.1,0.3l-0.2,0.3l-0.1,0.3l-0.2,0.2l-0.2,0.3l-0.1,0.3L1190,38l-0.2,0.3l-0.3,0.2l-0.1,0.3l-0.3,0.2l-0.3,0.1l-0.2,0.2l-0.3,0.1l-0.3,0.2l-0.3,0.1l-0.3,0.2l-0.3,0l-0.3,0.1l-0.3,0l-0.3,0l-0.3,0l-0.3,0L996.1,40.2l-0.3,0L995.5,40l-0.3,0l-0.3,0l-0.3,-0.1l-0.5,0L994,39.7l-0.3,-0.1l-0.3,0l-0.3,-0.3l-0.4,-0.2L992.4,39l-0.1,-0.2L992,38.7l-0.2,-0.4L991.5,38l-0.1,-0.1l-0.2,-0.3l-0.1,-0.2l-0.3,-0.3l-0.2,-0.3l-0.1,-0.3l0,-0.3l-0.2,-0.3l-0.1,-0.3l0,-0.3l0,-0.3L990,34.7l0,-0.3l0,-0.3L990,9.6Z" class="g1_106" />
<path d="M990,9.6l0,-0.3L990,9l0.2,-0.3l0,-0.3l0,-0.3l0.1,-0.5l0.2,-0.3l0,-0.1l0.1,-0.3l0.2,-0.3l0.3,-0.3L991.2,6l0.2,-0.2l0.1,-0.3l0.3,-0.2L992,5l0.3,-0.1l0.1,-0.2l0.3,-0.3l0.4,-0.1l0.3,-0.2L993.7,4L994,4l0.1,-0.2l0.5,-0.1l0.3,0l0.3,0l0.3,-0.2l0.3,0l0.3,0l189.5,0l0.3,0l0.3,0l0.3,0.2l0.3,0l0.3,0l0.3,0.1l0.3,0.2l0.3,0l0.3,0.1l0.3,0.2l0.2,0.1l0.3,0.3l0.3,0.2l0.1,0.1l0.3,0.3l0.2,0.2l0.3,0.3l0.1,0.2l0.2,0.3l0.2,0.3l0.1,0.3l0.2,0.3l0.1,0.3l0.2,0.3l0,0.3l0.1,0.3l0,0.3l0,0.3l0.2,0.3l0,0.3l0,24.5l0,0.3l0,0.3l-0.2,0.3l0,0.3l-0.1,0.3l0,0.3l-0.2,0.3l-0.1,0.3l-0.2,0.3l-0.1,0.3l-0.2,0.2l-0.2,0.3l-0.1,0.3L1190,38l-0.2,0.3l-0.3,0.2l-0.1,0.3l-0.3,0.2l-0.3,0.1l-0.2,0.2l-0.3,0.1l-0.3,0.2l-0.3,0.1l-0.3,0.2l-0.3,0l-0.3,0.1l-0.3,0l-0.3,0l-0.3,0l-0.3,0L996.1,40.2l-0.3,0L995.5,40l-0.3,0l-0.3,0l-0.3,-0.1l-0.5,0L994,39.7l-0.3,-0.1l-0.3,0l-0.3,-0.3l-0.4,-0.2L992.4,39l-0.1,-0.2L992,38.7l-0.2,-0.4L991.5,38l-0.1,-0.1l-0.2,-0.3l-0.1,-0.2l-0.3,-0.3l-0.2,-0.3l-0.1,-0.3l0,-0.3l-0.2,-0.3l-0.1,-0.3l0,-0.3l0,-0.3L990,34.7l0,-0.3l0,-0.3L990,9.6Z" class="g3_106" />
</svg>