<?xml version="1.0" encoding="UTF-8" standalone="no"?>
<!DOCTYPE svg PUBLIC "-//W3C//DTD SVG 1.1//EN"
"http://www.w3.org/Graphics/SVG/1.1/DTD/svg11.dtd">
<svg viewBox="0 0 1210 1210" version="1.1" xmlns="http://www.w3.org/2000/svg" xmlns:xlink="http://www.w3.org/1999/xlink">
<defs>
<style type="text/css"><![CDATA[
.g2_73{
fill: none;
stroke: #418AB3;
stroke-width: 2;
stroke-linecap: butt;
stroke-linejoin: miter;
stroke-miterlimit: 7;
}
.g3_73{
fill: none;
stroke: #0000EE;
stroke-width: 2;
stroke-linecap: butt;
stroke-linejoin: miter;
}
.g1_73{
fill: #FFFFFF;
}
]]></style>
</defs>
<path fill-rule="evenodd" d="M0,0L1210,0l0,1210L0,1210L0,0Z" class="g1_73" />
<path fill-rule="evenodd" d="M0,0L1210,0l0,1210L0,1210L0,0Z" class="g1_73" />
<path fill-rule="evenodd" d="M165,131.4l0,-1.2l0.2,-1.1l0,-1.1l0.3,-1l0.3,-1.3l0.3,-0.9l0.3,-1l0.4,-1.1l0.5,-1.1l0.5,-0.9l0.6,-1.1l0.6,-0.7l0.7,-1l0.8,-0.9l0.8,-0.7l0.7,-0.8l0.9,-0.8l0.8,-0.6l0.9,-0.6l1.1,-0.6l0.9,-0.6l0.9,-0.5l1.1,-0.4l1.1,-0.3l1,-0.3l1.1,-0.3l1.2,-0.2l1.1,-0.1l1.1,-0.2l1,0l837.4,0l1.1,0l1.1,0.2l1.2,0.1l1,0.2l1.1,0.3l1.1,0.3l1.1,0.3l0.9,0.4l1,0.5l1,0.6l1,0.6l0.9,0.6l1,0.6l0.7,0.8l0.8,0.8l0.7,0.7l0.8,0.9l0.8,1l0.6,0.9l0.4,0.9l0.7,0.9l0.4,1.1l0.5,1.1l0.3,1l0.3,1.1l0.3,1.1l0.1,1l0.2,1.1l0.1,1.1l0,1.2l0.2,85.5l-0.2,1.1l0,1.1l-0.1,1.2l-0.2,1.1l-0.3,1l-0.3,1.1l-0.4,1.1l-0.3,1.1l-0.6,0.9l-0.5,1l-0.6,1l-0.6,0.9l-0.6,0.9l-0.8,0.8l-0.8,0.9l-0.9,0.7l-0.7,0.6l-1,0.8l-0.9,0.6l-0.9,0.6l-1.1,0.5l-0.9,0.4l-1,0.5l-1.1,0.5l-1.1,0.3l-1.1,0.1l-1,0.3l-1.2,0l-1.1,0.2l-1.1,0l-837.4,0.1l-1,0l-1.1,-0.1L183,238l-1.2,-0.1l-1.1,-0.3l-1,-0.3L178.6,237l-1.1,-0.5L176.6,236l-0.9,-0.6l-1.1,-0.6l-0.9,-0.6l-0.8,-0.6L172,232.8l-0.7,-0.7l-0.8,-0.8l-0.8,-0.9L169,229.5l-0.6,-0.9l-0.6,-1l-0.5,-1l-0.5,-0.9l-0.4,-1.1l-0.3,-1.1l-0.3,-1.1l-0.3,-1l-0.3,-1.1l0,-1.1L165,218l0,-1.1l0,-85.5Z" class="g1_73" />
<path d="M165,131.4l0,-1.2l0.2,-1.1l0,-1.1l0.3,-1l0.3,-1.3l0.3,-0.9l0.3,-1l0.4,-1.1l0.5,-1.1l0.5,-0.9l0.6,-1.1l0.6,-0.7l0.7,-1l0.8,-0.9l0.8,-0.7l0.7,-0.8l0.9,-0.8l0.8,-0.6l0.9,-0.6l1.1,-0.6l0.9,-0.6l0.9,-0.5l1.1,-0.4l1.1,-0.3l1,-0.3l1.1,-0.3l1.2,-0.2l1.1,-0.1l1.1,-0.2l1,0l837.4,0l1.1,0l1.1,0.2l1.2,0.1l1,0.2l1.1,0.3l1.1,0.3l1.1,0.3l0.9,0.4l1,0.5l1,0.6l1,0.6l0.9,0.6l1,0.6l0.7,0.8l0.8,0.8l0.7,0.7l0.8,0.9l0.8,1l0.6,0.9l0.4,0.9l0.7,0.9l0.4,1.1l0.5,1.1l0.3,1l0.3,1.1l0.3,1.1l0.1,1l0.2,1.1l0.1,1.1l0,1.2l0.2,85.5l-0.2,1.1l0,1.1l-0.1,1.2l-0.2,1.1l-0.3,1l-0.3,1.1l-0.4,1.1l-0.3,1.1l-0.6,0.9l-0.5,1l-0.6,1l-0.6,0.9l-0.6,0.9l-0.8,0.8l-0.8,0.9l-0.9,0.7l-0.7,0.6l-1,0.8l-0.9,0.6l-0.9,0.6l-1.1,0.5l-0.9,0.4l-1,0.5l-1.1,0.5l-1.1,0.3l-1.1,0.1l-1,0.3l-1.2,0l-1.1,0.2l-1.1,0l-837.4,0.1l-1,0l-1.1,-0.1L183,238l-1.2,-0.1l-1.1,-0.3l-1,-0.3L178.6,237l-1.1,-0.5L176.6,236l-0.9,-0.6l-1.1,-0.6l-0.9,-0.6l-0.8,-0.6L172,232.8l-0.7,-0.7l-0.8,-0.8l-0.8,-0.9L169,229.5l-0.6,-0.9l-0.6,-1l-0.5,-1l-0.5,-0.9l-0.4,-1.1l-0.3,-1.1l-0.3,-1.1l-0.3,-1l-0.3,-1.1l0,-1.1L165,218l0,-1.1l0,-85.5Z" class="g2_73" />
<path d="M295,183l47,0" class="g3_73" />
<path d="M342,183l18,0" class="g3_73" />
<path d="M360,183l400,0" class="g3_73" />
<path d="M760,183l6,0" class="g3_73" />
<path d="M287,216l47,0" class="g3_73" />
<path d="M334,216l18,0" class="g3_73" />
<path d="M352,216l399,0" class="g3_73" />
<path d="M751,216l5,0" class="g3_73" />
<image x="128" y="461" width="794" height="160" xlink:href="img/1.png" />
</svg>