<?xml version="1.0" encoding="UTF-8" standalone="no"?>
<!DOCTYPE svg PUBLIC "-//W3C//DTD SVG 1.1//EN"
"http://www.w3.org/Graphics/SVG/1.1/DTD/svg11.dtd">
<svg viewBox="0 0 1210 1045" version="1.1" xmlns="http://www.w3.org/2000/svg" xmlns:xlink="http://www.w3.org/1999/xlink">
<defs>
<clipPath id="c0_14"><path d="M172.9,194.3l0,-31l0,-0.3l0.2,-0.3l0,-0.3l0,-0.5l0.2,-0.1l0,-0.3l0.1,-0.3l0.2,-0.3l0,-0.5l0.3,-0.1l0.3,-0.2l0,-0.3l0.1,-0.3l0.2,-0.2l0.3,-0.4l0.3,-0.2l0.1,-0.1l0.5,-0.2l0.1,-0.1l0.2,-0.2l0.3,-0.3l0.3,0l0.3,-0.1l0.3,-0.3l0.9,0l0.3,-0.2l213.6,0l0.3,0.2l0.9,0l0.4,0.3l0.3,0.1l0.3,0.2l0.3,0.1l0.3,0.2l0.1,0.1l0.3,0.2l0.2,0.3l0.3,0l0.1,0.4l0.4,0.2l0.1,0.3l0.2,0.3l0.1,0.2l0.2,0.1l0.1,0.5l0.3,0.3l0,0.3l0,0.3l0.2,0.1l0,0.5l0,0.3l0.1,0.3l0,0.3l0,31Z" /></clipPath>
<clipPath id="c1_14"><path d="M172.9,307.4l0,-30.9l0,-0.3l0.2,-0.4l0,-0.3l0,-0.5l0.2,-0.2l0,-0.3l0.1,-0.3l0.2,-0.3l0,-0.4l0.3,-0.2l0.3,-0.1l0,-0.3l0.1,-0.3l0.2,-0.2l0.3,-0.5l0.3,0l0.1,-0.3l0.5,-0.1l0.1,-0.2l0.2,-0.1l0.3,-0.2l0.3,-0.1l0.3,-0.2l0.3,-0.3l1.2,0l0.4,-0.1l212.9,0l0.3,0.1l1.2,0l0.4,0.3l0.3,0.2l0.3,0.1l0.3,0.2l0.3,0.1l0.1,0.2l0.3,0.1l0.2,0.3l0.3,0l0.1,0.5l0.4,0.2l0.1,0.3l0.2,0.3l0.1,0.1l0.2,0.2l0.1,0.4l0.3,0.3l0,0.3l0,0.3l0.2,0.2l0,0.5l0,0.3l0.1,0.4l0,0.3l0,30.9Z" /></clipPath>
<clipPath id="c2_14"><path d="M172.9,420.4l0,-30.8l0,-0.3l0.2,-0.5l0,-0.3l0,-0.4l0.2,-0.2l0,-0.3l0.1,-0.3l0.2,-0.3l0,-0.2l0.3,-0.3l0.3,-0.3l0,-0.3l0.1,-0.3l0.2,-0.1l0.3,-0.5l0.3,0l0.1,-0.2l0.5,-0.3l0.1,-0.1l0.2,-0.2l0.3,-0.1l0.3,-0.2l0.3,-0.1l0.3,-0.3l1.2,0l0.4,-0.2l212.9,0l0.3,0.2l1.2,0l0.4,0.3l0.3,0.1l0.3,0.2l0.3,0.1l0.3,0.2l0.1,0.1l0.3,0.3l0.2,0.2l0.3,0l0.1,0.5l0.4,0.1l0.1,0.3l0.2,0.3l0.1,0.3l0.2,0.3l0.1,0.2l0.3,0.3l0,0.3l0,0.3l0.2,0.2l0,0.4l0,0.3l0.1,0.5l0,0.3l0,30.8Z" /></clipPath>
<style type="text/css"><![CDATA[
.g5_14{
fill: none;
stroke: #A6B727;
stroke-width: 1;
stroke-linecap: butt;
stroke-linejoin: miter;
}
.g4_14{
fill: none;
stroke: #A6B727;
stroke-width: 2;
stroke-linecap: butt;
stroke-linejoin: miter;
stroke-miterlimit: 7;
}
.g2_14{
fill: none;
stroke: #418AB3;
stroke-width: 2;
stroke-linecap: butt;
stroke-linejoin: miter;
stroke-miterlimit: 7;
}
.g3_14{
fill: none;
stroke: #0000EE;
stroke-width: 2;
stroke-linecap: butt;
stroke-linejoin: miter;
}
.g1_14{
fill: #FFFFFF;
}
]]></style>
</defs>
<path fill-rule="evenodd" d="M0,0L1210,0l0,1045L0,1045L0,0Z" class="g1_14" />
<path fill-rule="evenodd" d="M0,0L1210,0l0,1045L0,1045L0,0Z" class="g1_14" />
<image x="828" y="984" width="334" height="49" xlink:href="img/1.png" />
<path fill-rule="evenodd" d="M151.3,534l0,-1.6l0.1,-1.5l0.2,-1.5l0.3,-1.4l0.3,-1.5l0.4,-1.4l0.5,-1.4l0.6,-1.4l0.6,-1.3l0.8,-1.2l0.7,-1.4l0.8,-1.2l0.9,-1.3l0.9,-1l1.1,-1.1l1.1,-1.1l1.2,-0.9l1.1,-0.9l1.3,-0.8l1.3,-0.7l1.2,-0.8l1.4,-0.6l1.3,-0.6l1.4,-0.5l1.5,-0.4l1.4,-0.3l1.5,-0.4l1.4,-0.1l1.5,-0.2l1.6,0l850.6,0l1.4,0l1.5,0.2l1.6,0.1l1.3,0.4l1.6,0.3l1.3,0.4l1.4,0.5l1.4,0.6l1.4,0.6l1.3,0.8l1.3,0.7l1.2,0.8l1.1,0.9l1.2,1.1l1,0.9l1.1,1.1l0.9,1.2l1,1.1l0.7,1.2l0.8,1.4l0.7,1.2l0.7,1.3l0.6,1.4l0.4,1.4l0.5,1.4l0.3,1.5l0.3,1.4l0.1,1.5l0.2,1.5l0,1.6l0.2,113.6l0,1.6l-0.2,1.5l-0.2,1.5l-0.3,1.4l-0.4,1.5l-0.3,1.4l-0.6,1.4l-0.5,1.3l-0.8,1.4l-0.6,1.2l-0.7,1.4l-0.9,1.2l-1,1.1l-0.9,1.2l-1.1,1.1l-1,1.1l-1.1,0.9l-1.2,0.9l-1.2,0.8l-1.3,0.7l-1.3,0.8l-1.4,0.6l-1.4,0.6l-1.4,0.5l-1.3,0.4l-1.6,0.3l-1.3,0.3l-1.6,0.2l-1.5,0.1l-1.4,0l-850.6,0.2L178.1,676l-1.5,0l-1.4,-0.3l-1.5,-0.1l-1.4,-0.5l-1.5,-0.3l-1.4,-0.6l-1.3,-0.4L166.7,673l-1.2,-0.6l-1.3,-0.8l-1.3,-0.9l-1.1,-0.9l-1.2,-0.9l-1.1,-1.1l-1.1,-1.1l-0.9,-1l-0.9,-1.3l-0.8,-1.2L155.1,662l-0.8,-1.4l-0.6,-1.4l-0.6,-1.3l-0.5,-1.4l-0.4,-1.4l-0.3,-1.5l-0.3,-1.4l-0.2,-1.5l-0.1,-1.5l0,-1.6l0,-113.6Z" class="g1_14" />
<path d="M151.3,534l0,-1.6l0.1,-1.5l0.2,-1.5l0.3,-1.4l0.3,-1.5l0.4,-1.4l0.5,-1.4l0.6,-1.4l0.6,-1.3l0.8,-1.2l0.7,-1.4l0.8,-1.2l0.9,-1.3l0.9,-1l1.1,-1.1l1.1,-1.1l1.2,-0.9l1.1,-0.9l1.3,-0.8l1.3,-0.7l1.2,-0.8l1.4,-0.6l1.3,-0.6l1.4,-0.5l1.5,-0.4l1.4,-0.3l1.5,-0.4l1.4,-0.1l1.5,-0.2l1.6,0l850.6,0l1.4,0l1.5,0.2l1.6,0.1l1.3,0.4l1.6,0.3l1.3,0.4l1.4,0.5l1.4,0.6l1.4,0.6l1.3,0.8l1.3,0.7l1.2,0.8l1.1,0.9l1.2,1.1l1,0.9l1.1,1.1l0.9,1.2l1,1.1l0.7,1.2l0.8,1.4l0.7,1.2l0.7,1.3l0.6,1.4l0.4,1.4l0.5,1.4l0.3,1.5l0.3,1.4l0.1,1.5l0.2,1.5l0,1.6l0.2,113.6l0,1.6l-0.2,1.5l-0.2,1.5l-0.3,1.4l-0.4,1.5l-0.3,1.4l-0.6,1.4l-0.5,1.3l-0.8,1.4l-0.6,1.2l-0.7,1.4l-0.9,1.2l-1,1.1l-0.9,1.2l-1.1,1.1l-1,1.1l-1.1,0.9l-1.2,0.9l-1.2,0.8l-1.3,0.7l-1.3,0.8l-1.4,0.6l-1.4,0.6l-1.4,0.5l-1.3,0.4l-1.6,0.3l-1.3,0.3l-1.6,0.2l-1.5,0.1l-1.4,0l-850.6,0.2L178.1,676l-1.5,0l-1.4,-0.3l-1.5,-0.1l-1.4,-0.5l-1.5,-0.3l-1.4,-0.6l-1.3,-0.4L166.7,673l-1.2,-0.6l-1.3,-0.8l-1.3,-0.9l-1.1,-0.9l-1.2,-0.9l-1.1,-1.1l-1.1,-1.1l-0.9,-1l-0.9,-1.3l-0.8,-1.2L155.1,662l-0.8,-1.4l-0.6,-1.4l-0.6,-1.3l-0.5,-1.4l-0.4,-1.4l-0.3,-1.5l-0.3,-1.4l-0.2,-1.5l-0.1,-1.5l0,-1.6l0,-113.6Z" class="g2_14" />
<path d="M293,599l463,0" class="g3_14" />
<path d="M298,643l454,0" class="g3_14" />
<path d="M173,420l863,0" class="g4_14" />
<path d="M173,307l863,0" class="g4_14" />
<path d="M173,194l863,0" class="g4_14" />
<image x="173" y="157" width="225" height="38" xlink:href="shade/1.png" />
<g clip-path="url(#c0_14)">
<path d="M173.5,194.5l224,0l0,-37l-224,0l0,37Z" class="g5_14" />
</g>
<image x="173" y="270" width="225" height="38" xlink:href="shade/2.png" />
<g clip-path="url(#c1_14)">
<path d="M173.5,307.5l224,0l0,-37l-224,0l0,37Z" class="g5_14" />
</g>
<image x="173" y="383" width="225" height="38" xlink:href="shade/3.png" />
<g clip-path="url(#c2_14)">
<path d="M173.5,420.5l224,0l0,-37l-224,0l0,37Z" class="g5_14" />
</g>
</svg>