<?xml version="1.0" encoding="UTF-8" standalone="no"?>
<!DOCTYPE svg PUBLIC "-//W3C//DTD SVG 1.1//EN"
"http://www.w3.org/Graphics/SVG/1.1/DTD/svg11.dtd">
<svg viewBox="0 0 1155 1210" version="1.1" xmlns="http://www.w3.org/2000/svg" xmlns:xlink="http://www.w3.org/1999/xlink">
<defs>
<clipPath id="c0_4"><path d="M0.5,1210.5L0.5,0.5l1155,0l0,1210Z" /></clipPath>
<style type="text/css"><![CDATA[
.g1_4{
fill: #FFFFFF;
}
]]></style>
</defs>
<path fill-rule="evenodd" d="M0,0L1155,0l0,1210L0,1210L0,0Z" class="g1_4" />
<path fill-rule="evenodd" d="M0,0L1155,0l0,1210L0,1210L0,0Z" class="g1_4" />
<image x="790" y="1140" width="319" height="55" xlink:href="img/1.png" />
<g clip-path="url(#c0_4)">
<g fill="#626262" >
<use xlink:href="#f0_q" transform="matrix(12,0,0,12,47.7,33.3)" />
<use xlink:href="#f1_1g" transform="matrix(12,0,0,12,73.9,34.5)" />
<use xlink:href="#f1_f" transform="matrix(12,0,0,12,85.2,34.5)" />
<use xlink:href="#f1_b" transform="matrix(12,0,0,12,96.8,34.5)" />
<use xlink:href="#f1_l" transform="matrix(12,0,0,12,108.1,34.5)" />
<use xlink:href="#f1_b" transform="matrix(12,0,0,12,115.3,34.5)" />
<use xlink:href="#f1_d" transform="matrix(12,0,0,12,133.8,34.5)" />
<use xlink:href="#f1_g" transform="matrix(12,0,0,12,138.8,34.5)" />
<use xlink:href="#f1_g" transform="matrix(12,0,0,12,155.4,34.5)" />
<use xlink:href="#f1_7" transform="matrix(12,0,0,12,165,34.5)" />
<use xlink:href="#f1_8" transform="matrix(12,0,0,12,176.2,34.5)" />
<use xlink:href="#f1_b" transform="matrix(12,0,0,12,193.9,34.5)" />
<use xlink:href="#f1_h" transform="matrix(12,0,0,12,212.4,34.5)" />
<use xlink:href="#f1_k" transform="matrix(12,0,0,12,224.1,34.5)" />
<use xlink:href="#f1_c" transform="matrix(12,0,0,12,235.4,34.5)" />
<use xlink:href="#f1_k" transform="matrix(12,0,0,12,242.6,34.5)" />
<use xlink:href="#f1_m" transform="matrix(12,0,0,12,253.9,34.5)" />
<use xlink:href="#f1_k" transform="matrix(12,0,0,12,265.5,34.5)" />
<use xlink:href="#f1_g" transform="matrix(12,0,0,12,276.8,34.5)" />
<use xlink:href="#f1_b" transform="matrix(12,0,0,12,286.4,34.5)" />
<use xlink:href="#f1_k" transform="matrix(12,0,0,12,304.7,34.5)" />
<use xlink:href="#f1_c" transform="matrix(12,0,0,12,316.1,34.5)" />
<use xlink:href="#f1_c" transform="matrix(12,0,0,12,330.3,34.5)" />
<use xlink:href="#f1_f" transform="matrix(12,0,0,12,337.5,34.5)" />
<use xlink:href="#f1_b" transform="matrix(12,0,0,12,349,34.5)" />
<use xlink:href="#f1_m" transform="matrix(12,0,0,12,367.4,34.5)" />
<use xlink:href="#f1_k" transform="matrix(12,0,0,12,379,34.5)" />
<use xlink:href="#f1_6" transform="matrix(12,0,0,12,390.3,34.5)" />
<use xlink:href="#f1_1a" transform="matrix(12,0,0,12,400.5,34.5)" />
<use xlink:href="#f1_b" transform="matrix(12,0,0,12,418.2,34.5)" />
<use xlink:href="#f1_4" transform="matrix(12,0,0,12,429.6,34.5)" />
<use xlink:href="#f1_h" transform="matrix(12,0,0,12,441.1,34.5)" />
<use xlink:href="#f1_7" transform="matrix(12,0,0,12,460,34.5)" />
<use xlink:href="#f1_e" transform="matrix(12,0,0,12,471.2,34.5)" />
<use xlink:href="#f1_19" transform="matrix(12,0,0,12,484.6,34.5)" />
<use xlink:href="#f1_k" transform="matrix(12,0,0,12,493.4,34.5)" />
<use xlink:href="#f1_6" transform="matrix(12,0,0,12,504.7,34.5)" />
<use xlink:href="#f1_b" transform="matrix(12,0,0,12,515,34.5)" />
<use xlink:href="#f1_m" transform="matrix(12,0,0,12,526.4,34.5)" />
<use xlink:href="#f1_7" transform="matrix(12,0,0,12,537.9,34.5)" />
<use xlink:href="#f1_7" transform="matrix(12,0,0,12,549,34.5)" />
<use xlink:href="#f1_1a" transform="matrix(12,0,0,12,560.3,34.5)" />
<use xlink:href="#f1_k" transform="matrix(12,0,0,12,578,34.5)" />
<use xlink:href="#f1_9" transform="matrix(12,0,0,12,589.3,34.5)" />
<use xlink:href="#f1_9" transform="matrix(12,0,0,12,600.8,34.5)" />
<use xlink:href="#f1_a" transform="matrix(12,0,0,12,612.4,34.5)" />
<use xlink:href="#f1_d" transform="matrix(12,0,0,12,617.5,34.5)" />
<use xlink:href="#f1_6" transform="matrix(12,0,0,12,622.6,34.5)" />
<use xlink:href="#f1_k" transform="matrix(12,0,0,12,632.9,34.5)" />
<use xlink:href="#f1_c" transform="matrix(12,0,0,12,644.2,34.5)" />
<use xlink:href="#f1_d" transform="matrix(12,0,0,12,651.4,34.5)" />
<use xlink:href="#f1_7" transform="matrix(12,0,0,12,656.5,34.5)" />
<use xlink:href="#f1_4" transform="matrix(12,0,0,12,667.6,34.5)" />
<use xlink:href="#f1_12" transform="matrix(12,0,0,12,686.2,34.5)" />
<use xlink:href="#f1_f" transform="matrix(12,0,0,12,701.3,34.5)" />
<use xlink:href="#f1_b" transform="matrix(12,0,0,12,712.8,34.5)" />
<use xlink:href="#f1_l" transform="matrix(12,0,0,12,724.2,34.5)" />
<use xlink:href="#f1_b" transform="matrix(12,0,0,12,731.4,34.5)" />
<use xlink:href="#f1_c" transform="matrix(12,0,0,12,749.7,34.5)" />
<use xlink:href="#f1_f" transform="matrix(12,0,0,12,756.9,34.5)" />
<use xlink:href="#f1_b" transform="matrix(12,0,0,12,768.5,34.5)" />
<use xlink:href="#f1_a" transform="matrix(12,0,0,12,786.8,34.5)" />
<use xlink:href="#f1_7" transform="matrix(12,0,0,12,792,34.5)" />
<use xlink:href="#f1_x" transform="matrix(12,0,0,12,803.1,34.5)" />
<use xlink:href="#f1_d" transform="matrix(12,0,0,12,814.9,34.5)" />
<use xlink:href="#f1_4" transform="matrix(12,0,0,12,820,34.5)" />
<use xlink:href="#f1_6" transform="matrix(12,0,0,12,838.7,34.5)" />
<use xlink:href="#f1_l" transform="matrix(12,0,0,12,848.9,34.5)" />
<use xlink:href="#f1_b" transform="matrix(12,0,0,12,856.1,34.5)" />
<use xlink:href="#f1_h" transform="matrix(12,0,0,12,867.4,34.5)" />
<use xlink:href="#f1_b" transform="matrix(12,0,0,12,879.1,34.5)" />
<use xlink:href="#f1_4" transform="matrix(12,0,0,12,890.4,34.5)" />
<use xlink:href="#f1_c" transform="matrix(12,0,0,12,902,34.5)" />
<use xlink:href="#f1_d" transform="matrix(12,0,0,12,909.2,34.5)" />
<use xlink:href="#f1_k" transform="matrix(12,0,0,12,914.2,34.5)" />
<use xlink:href="#f1_a" transform="matrix(12,0,0,12,925.7,34.5)" />
<use xlink:href="#f1_g" transform="matrix(12,0,0,12,930.7,34.5)" />
<use xlink:href="#f1_e" transform="matrix(12,0,0,12,947.3,34.5)" />
<use xlink:href="#f1_7" transform="matrix(12,0,0,12,953.7,34.5)" />
<use xlink:href="#f1_l" transform="matrix(12,0,0,12,964.9,34.5)" />
<use xlink:href="#f1_z" transform="matrix(12,0,0,12,979.7,34.5)" />
<use xlink:href="#f1_i" transform="matrix(12,0,0,12,991.4,34.5)" />
<use xlink:href="#f1_g" transform="matrix(12,0,0,12,1002.9,34.5)" />
<use xlink:href="#f1_d" transform="matrix(12,0,0,12,1012.5,34.5)" />
<use xlink:href="#f1_b" transform="matrix(12,0,0,12,1017.5,34.5)" />
<use xlink:href="#f1_k" transform="matrix(12,0,0,12,1036,34.5)" />
<use xlink:href="#f1_l" transform="matrix(12,0,0,12,1047.3,34.5)" />
<use xlink:href="#f1_b" transform="matrix(12,0,0,12,1054.4,34.5)" />
<use xlink:href="#f1_g" transform="matrix(12,0,0,12,73.9,78.8)" />
<use xlink:href="#f1_c" transform="matrix(12,0,0,12,83.4,78.8)" />
<use xlink:href="#f1_7" transform="matrix(12,0,0,12,90.6,78.8)" />
<use xlink:href="#f1_l" transform="matrix(12,0,0,12,101.8,78.8)" />
<use xlink:href="#f1_b" transform="matrix(12,0,0,12,108.9,78.8)" />
<use xlink:href="#f1_h" transform="matrix(12,0,0,12,120.2,78.8)" />
<use xlink:href="#f1_1c" transform="matrix(12,0,0,12,132,78.8)" />
<use xlink:href="#f0_q" transform="matrix(12,0,0,12,47.7,136.7)" />
<use xlink:href="#f1_z" transform="matrix(12,0,0,12,73.9,138)" />
<use xlink:href="#f1_i" transform="matrix(12,0,0,12,85.7,138)" />
<use xlink:href="#f1_g" transform="matrix(12,0,0,12,97.2,138)" />
<use xlink:href="#f1_d" transform="matrix(12,0,0,12,106.8,138)" />
<use xlink:href="#f1_b" transform="matrix(12,0,0,12,111.8,138)" />
<use xlink:href="#f1_d" transform="matrix(12,0,0,12,130.7,138)" />
<use xlink:href="#f1_4" transform="matrix(12,0,0,12,135.9,138)" />
<use xlink:href="#f1_c" transform="matrix(12,0,0,12,147.3,138)" />
<use xlink:href="#f1_b" transform="matrix(12,0,0,12,154.5,138)" />
<use xlink:href="#f1_l" transform="matrix(12,0,0,12,165.8,138)" />
<use xlink:href="#f1_k" transform="matrix(12,0,0,12,173.6,138)" />
<use xlink:href="#f1_6" transform="matrix(12,0,0,12,184.9,138)" />
<use xlink:href="#f1_c" transform="matrix(12,0,0,12,195.1,138)" />
<use xlink:href="#f1_g" transform="matrix(12,0,0,12,202.3,138)" />
<use xlink:href="#f1_12" transform="matrix(12,0,0,12,219.3,138)" />
<use xlink:href="#f1_d" transform="matrix(12,0,0,12,234.3,138)" />
<use xlink:href="#f1_c" transform="matrix(12,0,0,12,239.5,138)" />
<use xlink:href="#f1_f" transform="matrix(12,0,0,12,246.5,138)" />
<use xlink:href="#f1_c" transform="matrix(12,0,0,12,265.6,138)" />
<use xlink:href="#f1_f" transform="matrix(12,0,0,12,272.8,138)" />
<use xlink:href="#f1_b" transform="matrix(12,0,0,12,284.4,138)" />
<use xlink:href="#f1_19" transform="matrix(12,0,0,12,303.1,138)" />
<use xlink:href="#f1_k" transform="matrix(12,0,0,12,312,138)" />
<use xlink:href="#f1_6" transform="matrix(12,0,0,12,323.3,138)" />
<use xlink:href="#f1_b" transform="matrix(12,0,0,12,333.5,138)" />
<use xlink:href="#f1_m" transform="matrix(12,0,0,12,344.9,138)" />
<use xlink:href="#f1_7" transform="matrix(12,0,0,12,356.4,138)" />
<use xlink:href="#f1_7" transform="matrix(12,0,0,12,367.7,138)" />
<use xlink:href="#f1_1a" transform="matrix(12,0,0,12,378.8,138)" />
<use xlink:href="#f1_k" transform="matrix(12,0,0,12,397,138)" />
<use xlink:href="#f1_9" transform="matrix(12,0,0,12,408.3,138)" />
<use xlink:href="#f1_9" transform="matrix(12,0,0,12,419.7,138)" />
<use xlink:href="#f1_a" transform="matrix(12,0,0,12,431.4,138)" />
<use xlink:href="#f1_d" transform="matrix(12,0,0,12,436.5,138)" />
<use xlink:href="#f1_6" transform="matrix(12,0,0,12,441.6,138)" />
<use xlink:href="#f1_k" transform="matrix(12,0,0,12,451.9,138)" />
<use xlink:href="#f1_c" transform="matrix(12,0,0,12,463.2,138)" />
<use xlink:href="#f1_d" transform="matrix(12,0,0,12,470.4,138)" />
<use xlink:href="#f1_7" transform="matrix(12,0,0,12,475.5,138)" />
<use xlink:href="#f1_4" transform="matrix(12,0,0,12,486.6,138)" />
<use xlink:href="#f1_c" transform="matrix(12,0,0,12,505.7,138)" />
<use xlink:href="#f1_f" transform="matrix(12,0,0,12,512.9,138)" />
<use xlink:href="#f1_l" transform="matrix(12,0,0,12,524.5,138)" />
<use xlink:href="#f1_7" transform="matrix(12,0,0,12,531.7,138)" />
<use xlink:href="#f1_i" transform="matrix(12,0,0,12,542.8,138)" />
<use xlink:href="#f1_x" transform="matrix(12,0,0,12,554.3,138)" />
<use xlink:href="#f1_f" transform="matrix(12,0,0,12,566,138)" />
<use xlink:href="#f1_k" transform="matrix(12,0,0,12,585.1,138)" />
<use xlink:href="#f1_m" transform="matrix(12,0,0,12,603.8,138)" />
<use xlink:href="#f1_l" transform="matrix(12,0,0,12,615.4,138)" />
<use xlink:href="#f1_7" transform="matrix(12,0,0,12,622.6,138)" />
<use xlink:href="#f1_12" transform="matrix(12,0,0,12,633.8,138)" />
<use xlink:href="#f1_g" transform="matrix(12,0,0,12,648.9,138)" />
<use xlink:href="#f1_b" transform="matrix(12,0,0,12,658.4,138)" />
<use xlink:href="#f1_l" transform="matrix(12,0,0,12,669.6,138)" />
<use xlink:href="#f1_12" transform="matrix(12,0,0,12,684.9,138)" />
<use xlink:href="#f1_f" transform="matrix(12,0,0,12,699.9,138)" />
<use xlink:href="#f1_d" transform="matrix(12,0,0,12,711.5,138)" />
<use xlink:href="#f1_6" transform="matrix(12,0,0,12,716.5,138)" />
<use xlink:href="#f1_f" transform="matrix(12,0,0,12,726.9,138)" />
<use xlink:href="#f1_d" transform="matrix(12,0,0,12,745.8,138)" />
<use xlink:href="#f1_4" transform="matrix(12,0,0,12,751,138)" />
<use xlink:href="#f1_c" transform="matrix(12,0,0,12,762.4,138)" />
<use xlink:href="#f1_b" transform="matrix(12,0,0,12,769.6,138)" />
<use xlink:href="#f1_l" transform="matrix(12,0,0,12,781.1,138)" />
<use xlink:href="#f1_4" transform="matrix(12,0,0,12,788.4,138)" />
<use xlink:href="#f1_k" transform="matrix(12,0,0,12,799.9,138)" />
<use xlink:href="#f1_a" transform="matrix(12,0,0,12,811.3,138)" />
<use xlink:href="#f1_a" transform="matrix(12,0,0,12,816.3,138)" />
<use xlink:href="#f1_r" transform="matrix(12,0,0,12,821.5,138)" />
<use xlink:href="#f1_6" transform="matrix(12,0,0,12,839.8,138)" />
<use xlink:href="#f1_7" transform="matrix(12,0,0,12,850,138)" />
<use xlink:href="#f1_4" transform="matrix(12,0,0,12,861.2,138)" />
<use xlink:href="#f1_4" transform="matrix(12,0,0,12,872.8,138)" />
<use xlink:href="#f1_b" transform="matrix(12,0,0,12,884.2,138)" />
<use xlink:href="#f1_6" transform="matrix(12,0,0,12,895.7,138)" />
<use xlink:href="#f1_c" transform="matrix(12,0,0,12,905.9,138)" />
<use xlink:href="#f1_g" transform="matrix(12,0,0,12,913.1,138)" />
<use xlink:href="#f1_c" transform="matrix(12,0,0,12,930.2,138)" />
<use xlink:href="#f1_7" transform="matrix(12,0,0,12,937.2,138)" />
<use xlink:href="#f1_k" transform="matrix(12,0,0,12,955.8,138)" />
<use xlink:href="#f1_h" transform="matrix(12,0,0,12,974.7,138)" />
<use xlink:href="#f1_k" transform="matrix(12,0,0,12,986.3,138)" />
<use xlink:href="#f1_c" transform="matrix(12,0,0,12,997.7,138)" />
<use xlink:href="#f1_k" transform="matrix(12,0,0,12,1004.9,138)" />
<use xlink:href="#f1_m" transform="matrix(12,0,0,12,1016.2,138)" />
<use xlink:href="#f1_k" transform="matrix(12,0,0,12,1027.8,138)" />
<use xlink:href="#f1_g" transform="matrix(12,0,0,12,1039.1,138)" />
<use xlink:href="#f1_b" transform="matrix(12,0,0,12,1048.7,138)" />
<use xlink:href="#f1_1c" transform="matrix(12,0,0,12,1060,138)" />
<use xlink:href="#f1_1g" transform="matrix(12,0,0,12,73.9,182.4)" />
<use xlink:href="#f1_f" transform="matrix(12,0,0,12,85.2,182.4)" />
<use xlink:href="#f1_b" transform="matrix(12,0,0,12,96.8,182.4)" />
<use xlink:href="#f1_k" transform="matrix(12,0,0,12,120,182.4)" />
<use xlink:href="#f1_9" transform="matrix(12,0,0,12,131.5,182.4)" />
<use xlink:href="#f1_9" transform="matrix(12,0,0,12,142.9,182.4)" />
<use xlink:href="#f1_a" transform="matrix(12,0,0,12,154.5,182.4)" />
<use xlink:href="#f1_d" transform="matrix(12,0,0,12,159.6,182.4)" />
<use xlink:href="#f1_6" transform="matrix(12,0,0,12,164.7,182.4)" />
<use xlink:href="#f1_k" transform="matrix(12,0,0,12,175,182.4)" />
<use xlink:href="#f1_c" transform="matrix(12,0,0,12,186.4,182.4)" />
<use xlink:href="#f1_d" transform="matrix(12,0,0,12,193.4,182.4)" />
<use xlink:href="#f1_7" transform="matrix(12,0,0,12,198.6,182.4)" />
<use xlink:href="#f1_4" transform="matrix(12,0,0,12,209.7,182.4)" />
<use xlink:href="#f1_q" transform="matrix(12,0,0,12,233.2,182.4)" />
<use xlink:href="#f1_k" transform="matrix(12,0,0,12,243.9,182.4)" />
<use xlink:href="#f1_a" transform="matrix(12,0,0,12,255.4,182.4)" />
<use xlink:href="#f1_d" transform="matrix(12,0,0,12,260.4,182.4)" />
<use xlink:href="#f1_h" transform="matrix(12,0,0,12,265.6,182.4)" />
<use xlink:href="#f1_k" transform="matrix(12,0,0,12,277.3,182.4)" />
<use xlink:href="#f1_c" transform="matrix(12,0,0,12,288.6,182.4)" />
<use xlink:href="#f1_b" transform="matrix(12,0,0,12,295.8,182.4)" />
<use xlink:href="#f1_g" transform="matrix(12,0,0,12,307.1,182.4)" />
<use xlink:href="#f1_c" transform="matrix(12,0,0,12,328.5,182.4)" />
<use xlink:href="#f1_f" transform="matrix(12,0,0,12,335.7,182.4)" />
<use xlink:href="#f1_b" transform="matrix(12,0,0,12,347.3,182.4)" />
<use xlink:href="#f1_6" transform="matrix(12,0,0,12,370.4,182.4)" />
<use xlink:href="#f1_l" transform="matrix(12,0,0,12,380.7,182.4)" />
<use xlink:href="#f1_b" transform="matrix(12,0,0,12,387.8,182.4)" />
<use xlink:href="#f1_h" transform="matrix(12,0,0,12,399.3,182.4)" />
<use xlink:href="#f1_b" transform="matrix(12,0,0,12,410.9,182.4)" />
<use xlink:href="#f1_4" transform="matrix(12,0,0,12,422.3,182.4)" />
<use xlink:href="#f1_c" transform="matrix(12,0,0,12,433.8,182.4)" />
<use xlink:href="#f1_d" transform="matrix(12,0,0,12,441,182.4)" />
<use xlink:href="#f1_k" transform="matrix(12,0,0,12,446.1,182.4)" />
<use xlink:href="#f1_a" transform="matrix(12,0,0,12,457.4,182.4)" />
<use xlink:href="#f1_g" transform="matrix(12,0,0,12,462.6,182.4)" />
<use xlink:href="#f1_b" transform="matrix(12,0,0,12,484,182.4)" />
<use xlink:href="#f1_4" transform="matrix(12,0,0,12,495.3,182.4)" />
<use xlink:href="#f1_c" transform="matrix(12,0,0,12,506.9,182.4)" />
<use xlink:href="#f1_b" transform="matrix(12,0,0,12,514.1,182.4)" />
<use xlink:href="#f1_l" transform="matrix(12,0,0,12,525.4,182.4)" />
<use xlink:href="#f1_b" transform="matrix(12,0,0,12,532.6,182.4)" />
<use xlink:href="#f1_h" transform="matrix(12,0,0,12,543.8,182.4)" />
<use xlink:href="#f1_m" transform="matrix(12,0,0,12,567.5,182.4)" />
<use xlink:href="#f1_r" transform="matrix(12,0,0,12,579.1,182.4)" />
<use xlink:href="#f1_z" transform="matrix(12,0,0,12,601.7,182.4)" />
<use xlink:href="#f1_i" transform="matrix(12,0,0,12,613.4,182.4)" />
<use xlink:href="#f1_g" transform="matrix(12,0,0,12,624.9,182.4)" />
<use xlink:href="#f1_d" transform="matrix(12,0,0,12,634.5,182.4)" />
<use xlink:href="#f1_b" transform="matrix(12,0,0,12,639.5,182.4)" />
<use xlink:href="#f1_12" transform="matrix(12,0,0,12,662.9,182.4)" />
<use xlink:href="#f1_d" transform="matrix(12,0,0,12,677.9,182.4)" />
<use xlink:href="#f1_c" transform="matrix(12,0,0,12,683,182.4)" />
<use xlink:href="#f1_f" transform="matrix(12,0,0,12,690.2,182.4)" />
<use xlink:href="#f1_c" transform="matrix(12,0,0,12,713.6,182.4)" />
<use xlink:href="#f1_f" transform="matrix(12,0,0,12,720.6,182.4)" />
<use xlink:href="#f1_b" transform="matrix(12,0,0,12,732.2,182.4)" />
<use xlink:href="#f1_k" transform="matrix(12,0,0,12,755.4,182.4)" />
<use xlink:href="#f1_6" transform="matrix(12,0,0,12,766.7,182.4)" />
<use xlink:href="#f1_c" transform="matrix(12,0,0,12,776.9,182.4)" />
<use xlink:href="#f1_i" transform="matrix(12,0,0,12,784.1,182.4)" />
<use xlink:href="#f1_k" transform="matrix(12,0,0,12,795.7,182.4)" />
<use xlink:href="#f1_a" transform="matrix(12,0,0,12,807,182.4)" />
<use xlink:href="#f1_6" transform="matrix(12,0,0,12,824.1,182.4)" />
<use xlink:href="#f1_l" transform="matrix(12,0,0,12,834.3,182.4)" />
<use xlink:href="#f1_b" transform="matrix(12,0,0,12,841.5,182.4)" />
<use xlink:href="#f1_h" transform="matrix(12,0,0,12,852.7,182.4)" />
<use xlink:href="#f1_b" transform="matrix(12,0,0,12,864.5,182.4)" />
<use xlink:href="#f1_4" transform="matrix(12,0,0,12,875.8,182.4)" />
<use xlink:href="#f1_c" transform="matrix(12,0,0,12,887.4,182.4)" />
<use xlink:href="#f1_d" transform="matrix(12,0,0,12,894.4,182.4)" />
<use xlink:href="#f1_k" transform="matrix(12,0,0,12,899.6,182.4)" />
<use xlink:href="#f1_a" transform="matrix(12,0,0,12,910.9,182.4)" />
<use xlink:href="#f1_g" transform="matrix(12,0,0,12,916,182.4)" />
<use xlink:href="#f1_g" transform="matrix(12,0,0,12,937.4,182.4)" />
<use xlink:href="#f1_c" transform="matrix(12,0,0,12,946.9,182.4)" />
<use xlink:href="#f1_7" transform="matrix(12,0,0,12,954.1,182.4)" />
<use xlink:href="#f1_l" transform="matrix(12,0,0,12,965.2,182.4)" />
<use xlink:href="#f1_b" transform="matrix(12,0,0,12,972.4,182.4)" />
<use xlink:href="#f1_h" transform="matrix(12,0,0,12,983.9,182.4)" />
<use xlink:href="#f1_d" transform="matrix(12,0,0,12,1007.4,182.4)" />
<use xlink:href="#f1_4" transform="matrix(12,0,0,12,1012.4,182.4)" />
<use xlink:href="#f1_c" transform="matrix(12,0,0,12,1035.9,182.4)" />
<use xlink:href="#f1_f" transform="matrix(12,0,0,12,1042.9,182.4)" />
<use xlink:href="#f1_b" transform="matrix(12,0,0,12,1054.5,182.4)" />
<use xlink:href="#f1_h" transform="matrix(12,0,0,12,73.9,226.9)" />
<use xlink:href="#f1_k" transform="matrix(12,0,0,12,85.7,226.9)" />
<use xlink:href="#f1_c" transform="matrix(12,0,0,12,97,226.9)" />
<use xlink:href="#f1_k" transform="matrix(12,0,0,12,104.2,226.9)" />
<use xlink:href="#f1_m" transform="matrix(12,0,0,12,115.5,226.9)" />
<use xlink:href="#f1_k" transform="matrix(12,0,0,12,127.1,226.9)" />
<use xlink:href="#f1_g" transform="matrix(12,0,0,12,138.4,226.9)" />
<use xlink:href="#f1_b" transform="matrix(12,0,0,12,148,226.9)" />
<use xlink:href="#f1_1c" transform="matrix(12,0,0,12,159.3,226.9)" />
<use xlink:href="#f0_q" transform="matrix(12,0,0,12,47.7,284.6)" />
<use xlink:href="#f1_u" transform="matrix(12,0,0,12,73.9,285.8)" />
<use xlink:href="#f1_e" transform="matrix(12,0,0,12,79.3,285.8)" />
<use xlink:href="#f1_c" transform="matrix(12,0,0,12,93.6,285.8)" />
<use xlink:href="#f1_f" transform="matrix(12,0,0,12,100.8,285.8)" />
<use xlink:href="#f1_b" transform="matrix(12,0,0,12,112.4,285.8)" />
<use xlink:href="#f1_r" transform="matrix(12,0,0,12,123.7,285.8)" />
<use xlink:href="#f1_h" transform="matrix(12,0,0,12,142.5,285.8)" />
<use xlink:href="#f1_7" transform="matrix(12,0,0,12,154.2,285.8)" />
<use xlink:href="#f1_4" transform="matrix(12,0,0,12,173.5,285.8)" />
<use xlink:href="#f1_7" transform="matrix(12,0,0,12,184.9,285.8)" />
<use xlink:href="#f1_c" transform="matrix(12,0,0,12,196.1,285.8)" />
<use xlink:href="#f1_8" transform="matrix(12,0,0,12,211.3,285.8)" />
<use xlink:href="#f1_k" transform="matrix(12,0,0,12,229.1,285.8)" />
<use xlink:href="#f1_c" transform="matrix(12,0,0,12,240.4,285.8)" />
<use xlink:href="#f1_6" transform="matrix(12,0,0,12,247.5,285.8)" />
<use xlink:href="#f1_f" transform="matrix(12,0,0,12,257.8,285.8)" />
<use xlink:href="#f1_j" transform="matrix(12,0,0,12,269.4,285.8)" />
<use xlink:href="#f1_19" transform="matrix(12,0,0,12,283.3,285.8)" />
<use xlink:href="#f1_k" transform="matrix(12,0,0,12,292,285.8)" />
<use xlink:href="#f1_6" transform="matrix(12,0,0,12,303.4,285.8)" />
<use xlink:href="#f1_b" transform="matrix(12,0,0,12,313.6,285.8)" />
<use xlink:href="#f1_m" transform="matrix(12,0,0,12,324.9,285.8)" />
<use xlink:href="#f1_7" transform="matrix(12,0,0,12,336.5,285.8)" />
<use xlink:href="#f1_7" transform="matrix(12,0,0,12,347.7,285.8)" />
<use xlink:href="#f1_1a" transform="matrix(12,0,0,12,358.8,285.8)" />
<use xlink:href="#f1_l" transform="matrix(12,0,0,12,377.4,285.8)" />
<use xlink:href="#f1_b" transform="matrix(12,0,0,12,384.6,285.8)" />
<use xlink:href="#f1_c" transform="matrix(12,0,0,12,395.9,285.8)" />
<use xlink:href="#f1_i" transform="matrix(12,0,0,12,403.1,285.8)" />
<use xlink:href="#f1_l" transform="matrix(12,0,0,12,414.7,285.8)" />
<use xlink:href="#f1_4" transform="matrix(12,0,0,12,422,285.8)" />
<use xlink:href="#f1_g" transform="matrix(12,0,0,12,433.5,285.8)" />
<use xlink:href="#f1_12" transform="matrix(12,0,0,12,451,285.8)" />
<use xlink:href="#f1_d" transform="matrix(12,0,0,12,466,285.8)" />
<use xlink:href="#f1_c" transform="matrix(12,0,0,12,471.1,285.8)" />
<use xlink:href="#f1_f" transform="matrix(12,0,0,12,478.3,285.8)" />
<use xlink:href="#f1_k" transform="matrix(12,0,0,12,497.8,285.8)" />
<use xlink:href="#f1_4" transform="matrix(12,0,0,12,509.1,285.8)" />
<use xlink:href="#f1_b" transform="matrix(12,0,0,12,528.7,285.8)" />
<use xlink:href="#f1_l" transform="matrix(12,0,0,12,540,285.8)" />
<use xlink:href="#f1_l" transform="matrix(12,0,0,12,547.4,285.8)" />
<use xlink:href="#f1_7" transform="matrix(12,0,0,12,554.5,285.8)" />
<use xlink:href="#f1_l" transform="matrix(12,0,0,12,565.6,285.8)" />
<use xlink:href="#f1_8" transform="matrix(12,0,0,12,581.3,285.8)" />
<use xlink:href="#f1_b" transform="matrix(12,0,0,12,599.2,285.8)" />
<use xlink:href="#f1_g" transform="matrix(12,0,0,12,610.5,285.8)" />
<use xlink:href="#f1_g" transform="matrix(12,0,0,12,619.9,285.8)" />
<use xlink:href="#f1_k" transform="matrix(12,0,0,12,629.5,285.8)" />
<use xlink:href="#f1_x" transform="matrix(12,0,0,12,640.8,285.8)" />
<use xlink:href="#f1_b" transform="matrix(12,0,0,12,652.6,285.8)" />
<use xlink:href="#f1_d" transform="matrix(12,0,0,12,672,285.8)" />
<use xlink:href="#f1_4" transform="matrix(12,0,0,12,677,285.8)" />
<use xlink:href="#f1_e" transform="matrix(12,0,0,12,688.6,285.8)" />
<use xlink:href="#f1_7" transform="matrix(12,0,0,12,695,285.8)" />
<use xlink:href="#f1_l" transform="matrix(12,0,0,12,706.2,285.8)" />
<use xlink:href="#f1_8" transform="matrix(12,0,0,12,713.5,285.8)" />
<use xlink:href="#f1_d" transform="matrix(12,0,0,12,731.4,285.8)" />
<use xlink:href="#f1_4" transform="matrix(12,0,0,12,736.4,285.8)" />
<use xlink:href="#f1_x" transform="matrix(12,0,0,12,748,285.8)" />
<use xlink:href="#f1_z" transform="matrix(12,0,0,12,767.7,285.8)" />
<use xlink:href="#f1_i" transform="matrix(12,0,0,12,779.3,285.8)" />
<use xlink:href="#f1_g" transform="matrix(12,0,0,12,790.9,285.8)" />
<use xlink:href="#f1_d" transform="matrix(12,0,0,12,800.5,285.8)" />
<use xlink:href="#f1_b" transform="matrix(12,0,0,12,805.5,285.8)" />
<use xlink:href="#f1_c" transform="matrix(12,0,0,12,824.9,285.8)" />
<use xlink:href="#f1_f" transform="matrix(12,0,0,12,832.1,285.8)" />
<use xlink:href="#f1_k" transform="matrix(12,0,0,12,843.5,285.8)" />
<use xlink:href="#f1_c" transform="matrix(12,0,0,12,855,285.8)" />
<use xlink:href="#f1_g" transform="matrix(12,0,0,12,870.1,285.8)" />
<use xlink:href="#f1_f" transform="matrix(12,0,0,12,879.6,285.8)" />
<use xlink:href="#f1_b" transform="matrix(12,0,0,12,891.2,285.8)" />
<use xlink:href="#f1_b" transform="matrix(12,0,0,12,910.4,285.8)" />
<use xlink:href="#f1_4" transform="matrix(12,0,0,12,921.8,285.8)" />
<use xlink:href="#f1_c" transform="matrix(12,0,0,12,933.3,285.8)" />
<use xlink:href="#f1_b" transform="matrix(12,0,0,12,940.5,285.8)" />
<use xlink:href="#f1_l" transform="matrix(12,0,0,12,951.9,285.8)" />
<use xlink:href="#f1_b" transform="matrix(12,0,0,12,958.9,285.8)" />
<use xlink:href="#f1_h" transform="matrix(12,0,0,12,970.4,285.8)" />
<use xlink:href="#f1_k" transform="matrix(12,0,0,12,990,285.8)" />
<use xlink:href="#f1_12" transform="matrix(12,0,0,12,1009.4,285.8)" />
<use xlink:href="#f1_l" transform="matrix(12,0,0,12,1024.4,285.8)" />
<use xlink:href="#f1_7" transform="matrix(12,0,0,12,1031.6,285.8)" />
<use xlink:href="#f1_4" transform="matrix(12,0,0,12,1042.7,285.8)" />
<use xlink:href="#f1_x" transform="matrix(12,0,0,12,1054.3,285.8)" />
<use xlink:href="#f1_9" transform="matrix(12,0,0,12,73.9,330.3)" />
<use xlink:href="#f1_k" transform="matrix(12,0,0,12,85.5,330.3)" />
<use xlink:href="#f1_g" transform="matrix(12,0,0,12,96.8,330.3)" />
<use xlink:href="#f1_g" transform="matrix(12,0,0,12,106.3,330.3)" />
<use xlink:href="#f1_12" transform="matrix(12,0,0,12,115.9,330.3)" />
<use xlink:href="#f1_7" transform="matrix(12,0,0,12,130.9,330.3)" />
<use xlink:href="#f1_l" transform="matrix(12,0,0,12,142.1,330.3)" />
<use xlink:href="#f1_h" transform="matrix(12,0,0,12,149.4,330.3)" />
<use xlink:href="#f1_1c" transform="matrix(12,0,0,12,161.1,330.3)" />
<use xlink:href="#f1_u" transform="matrix(12,0,0,12,172.9,330.3)" />
<use xlink:href="#f1_e" transform="matrix(12,0,0,12,178.2,330.3)" />
<use xlink:href="#f1_c" transform="matrix(12,0,0,12,190.5,330.3)" />
<use xlink:href="#f1_f" transform="matrix(12,0,0,12,197.7,330.3)" />
<use xlink:href="#f1_b" transform="matrix(12,0,0,12,209.1,330.3)" />
<use xlink:href="#f1_r" transform="matrix(12,0,0,12,220.6,330.3)" />
<use xlink:href="#f1_8" transform="matrix(12,0,0,12,237.2,330.3)" />
<use xlink:href="#f1_k" transform="matrix(12,0,0,12,255.1,330.3)" />
<use xlink:href="#f1_c" transform="matrix(12,0,0,12,266.4,330.3)" />
<use xlink:href="#f1_6" transform="matrix(12,0,0,12,273.5,330.3)" />
<use xlink:href="#f1_f" transform="matrix(12,0,0,12,283.8,330.3)" />
<use xlink:href="#f1_j" transform="matrix(12,0,0,12,295.4,330.3)" />
<use xlink:href="#f1_z" transform="matrix(12,0,0,12,307,330.3)" />
<use xlink:href="#f1_i" transform="matrix(12,0,0,12,318.7,330.3)" />
<use xlink:href="#f1_g" transform="matrix(12,0,0,12,330.3,330.3)" />
<use xlink:href="#f1_d" transform="matrix(12,0,0,12,339.8,330.3)" />
<use xlink:href="#f1_b" transform="matrix(12,0,0,12,345,330.3)" />
<use xlink:href="#f1_d" transform="matrix(12,0,0,12,362.1,330.3)" />
<use xlink:href="#f1_g" transform="matrix(12,0,0,12,367.3,330.3)" />
<use xlink:href="#f1_k" transform="matrix(12,0,0,12,382.7,330.3)" />
<use xlink:href="#f1_m" transform="matrix(12,0,0,12,394,330.3)" />
<use xlink:href="#f1_a" transform="matrix(12,0,0,12,405.6,330.3)" />
<use xlink:href="#f1_b" transform="matrix(12,0,0,12,410.7,330.3)" />
<use xlink:href="#f1_c" transform="matrix(12,0,0,12,427.9,330.3)" />
<use xlink:href="#f1_7" transform="matrix(12,0,0,12,435,330.3)" />
<use xlink:href="#f1_a" transform="matrix(12,0,0,12,452.1,330.3)" />
<use xlink:href="#f1_7" transform="matrix(12,0,0,12,457.2,330.3)" />
<use xlink:href="#f1_x" transform="matrix(12,0,0,12,468.3,330.3)" />
<use xlink:href="#f1_d" transform="matrix(12,0,0,12,480.1,330.3)" />
<use xlink:href="#f1_4" transform="matrix(12,0,0,12,485.2,330.3)" />
<use xlink:href="#f1_c" transform="matrix(12,0,0,12,502.7,330.3)" />
<use xlink:href="#f1_7" transform="matrix(12,0,0,12,509.8,330.3)" />
<use xlink:href="#f1_f" transform="matrix(12,0,0,12,526.8,330.3)" />
<use xlink:href="#f1_b" transform="matrix(12,0,0,12,538.4,330.3)" />
<use xlink:href="#f1_l" transform="matrix(12,0,0,12,549.7,330.3)" />
<use xlink:href="#f1_19" transform="matrix(12,0,0,12,563.3,330.3)" />
<use xlink:href="#f1_k" transform="matrix(12,0,0,12,572.1,330.3)" />
<use xlink:href="#f1_6" transform="matrix(12,0,0,12,583.4,330.3)" />
<use xlink:href="#f1_b" transform="matrix(12,0,0,12,593.6,330.3)" />
<use xlink:href="#f1_m" transform="matrix(12,0,0,12,605.1,330.3)" />
<use xlink:href="#f1_7" transform="matrix(12,0,0,12,616.5,330.3)" />
<use xlink:href="#f1_7" transform="matrix(12,0,0,12,627.7,330.3)" />
<use xlink:href="#f1_1a" transform="matrix(12,0,0,12,639,330.3)" />
<use xlink:href="#f1_k" transform="matrix(12,0,0,12,655.5,330.3)" />
<use xlink:href="#f1_6" transform="matrix(12,0,0,12,666.8,330.3)" />
<use xlink:href="#f1_6" transform="matrix(12,0,0,12,677,330.3)" />
<use xlink:href="#f1_7" transform="matrix(12,0,0,12,687.2,330.3)" />
<use xlink:href="#f1_i" transform="matrix(12,0,0,12,698.5,330.3)" />
<use xlink:href="#f1_4" transform="matrix(12,0,0,12,709.9,330.3)" />
<use xlink:href="#f1_c" transform="matrix(12,0,0,12,721.5,330.3)" />
<use xlink:href="#f1_g" transform="matrix(12,0,0,12,734.5,330.3)" />
<use xlink:href="#f1_i" transform="matrix(12,0,0,12,744.1,330.3)" />
<use xlink:href="#f1_6" transform="matrix(12,0,0,12,755.6,330.3)" />
<use xlink:href="#f1_6" transform="matrix(12,0,0,12,765.8,330.3)" />
<use xlink:href="#f1_b" transform="matrix(12,0,0,12,776,330.3)" />
<use xlink:href="#f1_g" transform="matrix(12,0,0,12,787.5,330.3)" />
<use xlink:href="#f1_g" transform="matrix(12,0,0,12,796.9,330.3)" />
<use xlink:href="#f1_e" transform="matrix(12,0,0,12,806.5,330.3)" />
<use xlink:href="#f1_i" transform="matrix(12,0,0,12,813,330.3)" />
<use xlink:href="#f1_a" transform="matrix(12,0,0,12,824.4,330.3)" />
<use xlink:href="#f1_a" transform="matrix(12,0,0,12,829.6,330.3)" />
<use xlink:href="#f1_r" transform="matrix(12,0,0,12,834.6,330.3)" />
<use xlink:href="#f1_1c" transform="matrix(12,0,0,12,842.7,330.3)" />
</g>
</g>
<image x="106" y="357" width="902" height="263" xlink:href="img/2.png" />
<defs>
	<path d="M264.3,297.9c0,0,-42.8,0,-79.4,16.8c0,0,-36.7,16.8,-64.2,44.3c0,0,-29,29.1,-44.3,67.3c0,0,-16.8,38.1,-16.8,82.5c0,0,0,41.2,15.3,77.9c0,0,16.8,38.2,44.3,65.7c0,0,29,27.5,65.7,42.7c0,0,36.6,16.8,79.4,16.8c0,0,42.8,0,81,-15.2c0,0,38.2,-16.8,65.7,-44.3c0,0,29,-27.5,45.8,-64.2c0,0,16.8,-38.2,16.8,-79.4c0,0,0,-44.4,-16.8,-82.5c0,0,-16.8,-38.2,-44.3,-65.7c0,0,-29,-29.1,-67.2,-45.9c0,0,-38.2,-16.8,-81,-16.8Z" 
	id="f0_q"
	transform="scale(0.001,-0.001)" />

	<path d="M389,0l0,985L-3,985l0,128l939,0l0,-128l-396,0L540,0Z" 
	id="f1_1g"
	transform="scale(0.001,-0.001)" />

	<path d="M137.5,0l0,1159.6l139,0l0,-455.3c0,0,48.9,76.4,114.6,113.1c0,0,67.2,38.2,154.3,38.2c0,0,145.2,0,218.5,-88.7c0,0,73.3,-90.1,73.3,-262.7L837.2,0L699.7,0l0,499.6c0,0,0,117.6,-45.8,175.7c0,0,-45.8,59.6,-139,59.6c0,0,-110,0,-174.2,-70.3c0,0,-64.2,-70.3,-64.2,-192.5L276.5,0Z" 
	id="f1_f"
	transform="scale(0.001,-0.001)" />

	<path d="M230.7,490.4l490.4,1.5c0,0,-1.5,111.6,-62.6,178.8c0,0,-62.7,67.2,-163.5,67.2c0,0,-114.6,0,-183.3,-64.1c0,0,-70.3,-65.7,-81,-183.4ZM516.4,-21.3c0,0,-198.6,0,-314.7,116C201.7,94.7,84,210.8,84,409.4c0,0,0,204.8,110,325.5c0,0,111.6,120.7,299.5,120.7c0,0,168,0,265.8,-108.5c0,0,99.3,-110,99.3,-296.4l0,-67.2l-632.5,0c0,0,9.2,-140.6,85.6,-213.9c0,0,76.4,-74.9,213.9,-74.9c0,0,77.9,0,152.7,18.4c0,0,74.9,19.8,148.2,58l0,-129.8c0,0,-74.8,-30.6,-151.2,-45.8c0,0,-77.9,-16.8,-158.9,-16.8Z" 
	id="f1_b"
	transform="scale(0.001,-0.001)" />

	<path d="M137.5,0l0,834.2l139,0l0,-129.9c0,0,42.8,76.4,111.6,113.1c0,0,70.2,38.2,169.5,38.2c0,0,13.8,0,30.6,-1.6c0,0,16.8,-3,38.2,-6.1l1.5,-142.1c0,0,-24.4,13.8,-50.4,19.9c0,0,-27.5,6.1,-61.1,6.1c0,0,-116.1,0,-177.2,-74.9c0,0,-62.7,-76.3,-62.7,-216.9l0,-440Z" 
	id="f1_l"
	transform="scale(0.001,-0.001)" />

	<path d="M143,0l0,834l138,0L281,0Zm0,985l0,174l138,0l0,-174Z" 
	id="f1_d"
	transform="scale(0.001,-0.001)" />

	<path d="M375.8,-21.3c0,0,-67.2,0,-140.5,12.2c0,0,-73.4,12.2,-152.8,39.7l0,140.5c0,0,76.4,-39.7,149.7,-58c0,0,73.4,-19.9,146.7,-19.9c0,0,96.2,0,148.2,32.1c0,0,51.9,33.6,51.9,94.7c0,0,0,55,-36.6,84c0,0,-38.2,30.6,-165,58.1l-48.9,12.2c0,0,-126.8,26,-183.4,81c0,0,-56.5,56.5,-56.5,152.8c0,0,0,119.1,82.5,183.3c0,0,84,64.2,238.3,64.2c0,0,74.9,0,142.1,-10.7c0,0,67.3,-12.3,123.8,-35.2l0,-129.8c0,0,-58.1,30.5,-120.7,44.3c0,0,-62.7,15.2,-129.9,15.2c0,0,-102.3,0,-152.8,-30.5c0,0,-50.4,-32.1,-50.4,-94.7c0,0,0,-47.4,35.2,-74.9c0,0,36.6,-27.5,148.2,-51.9l45.8,-10.7c0,0,146.7,-30.6,207.8,-87.1c0,0,62.6,-58.1,62.6,-160.4c0,0,0,-116.1,-91.7,-183.4c0,0,-93.1,-67.1,-253.6,-67.1Z" 
	id="f1_g"
	transform="scale(0.001,-0.001)" />

	<path d="M467.5,94.7c0,0,108.5,0,172.6,85.6c0,0,64.2,87.1,64.2,235.3c0,0,0,149.7,-64.2,235.2c0,0,-64.1,87.1,-172.6,87.1c0,0,-111.5,0,-175.7,-85.5c0,0,-64.2,-85.6,-64.2,-236.8c0,0,0,-149.8,64.2,-235.3c0,0,64.2,-85.6,175.7,-85.6Zm0,-116c0,0,-180.3,0,-281.1,116C186.4,94.7,84,210.8,84,415.6c0,0,0,206.2,100.9,322.3c0,0,102.3,117.7,282.6,117.7c0,0,178.8,0,281.1,-116.2c0,0,102.4,-117.6,102.4,-323.8c0,0,0,-204.8,-102.4,-320.9c0,0,-102.3,-116,-281.1,-116Z" 
	id="f1_7"
	transform="scale(0.001,-0.001)" />

	<path d="M137.5,0l0,834.2l139,0l0,-129.9c0,0,45.9,77.9,111.6,114.6c0,0,65.7,36.7,155.8,36.7c0,0,91.7,0,154.3,-45.9c0,0,64.2,-47.3,96.2,-135.9c0,0,50.5,93.1,122.3,137.5c0,0,71.8,44.3,168,44.3c0,0,131.4,0,201.7,-91.7c0,0,71.8,-91.7,71.8,-259.7L1358.2,0l-139,0l0,499.6c0,0,0,119.2,-41.3,177.2c0,0,-42.8,58.1,-129.8,58.1c0,0,-107,0,-168.1,-70.3c0,0,-62.6,-70.3,-62.6,-192.5L817.4,0L678.3,0l0,499.6c0,0,0,120.7,-41.2,177.2c0,0,-42.8,58.1,-131.4,58.1c0,0,-105.4,0,-166.5,-70.3c0,0,-62.7,-71.8,-62.7,-192.5L276.5,0Z" 
	id="f1_8"
	transform="scale(0.001,-0.001)" />

	<path d="M458.3,93.2c0,0,110,0,172.7,85.6c0,0,62.6,85.5,62.6,236.8c0,0,0,152.7,-62.6,238.3c0,0,-62.7,85.5,-172.7,85.5c0,0,-108.4,0,-171.1,-85.5c0,0,-62.6,-85.6,-62.6,-238.3c0,0,0,-151.3,62.6,-236.8c0,0,62.7,-85.6,171.1,-85.6ZM424.7,-21.3c0,0,-151.2,0,-245.9,120.6C178.8,99.3,84,220,84,415.6c0,0,0,197,94.8,317.7c0,0,94.7,122.3,245.9,122.3c0,0,93.2,0,158.9,-36.7c0,0,65.7,-36.7,110,-111.5l0,452.2l136,0L829.6,0l-136,0l0,125.3c0,0,-44.3,-74.9,-110,-110c0,0,-65.7,-36.6,-158.9,-36.6Z" 
	id="f1_h"
	transform="scale(0.001,-0.001)" />

	<path d="M407.9,93.2c0,0,113.1,0,181.8,79.4c0,0,70.3,81,70.3,215.5l0,30.5l-137.5,0c0,0,-166.5,0,-230.7,-36.7c0,0,-64.2,-38.1,-64.2,-129.8c0,0,0,-73.3,47.4,-116.1c0,0,48.9,-42.8,132.9,-42.8ZM371.3,-21.3c0,0,-128.4,0,-203.2,71.7c0,0,-76.4,71.8,-76.4,192.5c0,0,0,140.6,93.2,212.4c0,0,94.7,71.8,282.6,71.8l192.5,0l0,13.7c0,0,0,94.8,-62.6,145.2c0,0,-62.7,51.9,-175.7,51.9c0,0,-71.8,0,-139.1,-16.8c0,0,-67.2,-16.8,-129.8,-51.9l0,126.8c0,0,74.8,30.5,145.1,44.3c0,0,71.8,15.3,139,15.3c0,0,180.3,0,268.9,-93.2c0,0,90.2,-94.8,90.2,-285.7L796,0L660,0l0,126.8c0,0,-47.4,-76.4,-117.6,-111.5c0,0,-70.3,-36.6,-171.1,-36.6Z" 
	id="f1_k"
	transform="scale(0.001,-0.001)" />

	<path d="M420.1,0c0,0,-158.8,0,-218.4,58.1c0,0,-61.1,59.5,-61.1,216.9l0,453.8l-100.9,0l0,105.4l100.9,0l0,238.3l139,0l0,-238.3l282.6,0l0,-105.4l-282.6,0l0,-453.8c0,0,0,-102.4,27.5,-131.4c0,0,27.5,-29,113,-29l142.1,0L562.2,0Z" 
	id="f1_c"
	transform="scale(0.001,-0.001)" />

	<path d="M508.8,93.2c0,0,110,0,171.1,85.6c0,0,62.6,85.5,62.6,236.8c0,0,0,152.7,-61.1,238.3c0,0,-62.6,85.5,-172.6,85.5c0,0,-108.5,0,-169.6,-85.5c0,0,-62.7,-85.6,-62.7,-238.3c0,0,0,-151.3,61.1,-236.8c0,0,62.7,-85.6,171.2,-85.6ZM542.4,-21.3c0,0,-91.7,0,-157.4,35.1c0,0,-65.7,36.6,-108.5,111.5L276.5,0l-139,0l0,1159.6l139,0l0,-452.2c0,0,42.8,74.8,108.5,111.5c0,0,65.7,36.7,157.4,36.7c0,0,152.7,0,247.5,-120.7c0,0,96.2,-122.3,96.2,-319.3c0,0,0,-195.6,-94.7,-316.3c0,0,-96.3,-120.6,-249,-120.6Z" 
	id="f1_m"
	transform="scale(0.001,-0.001)" />

	<path d="M495,-21.3c0,0,-189.4,0,-299.4,117.6C195.6,96.3,84,215.4,84,415.6c0,0,0,204.7,111.6,322.3c0,0,113,117.7,308.6,117.7c0,0,62.6,0,122.2,-13.8c0,0,61.1,-13.7,117.6,-39.7l0,-128.3c0,0,-58,32,-116.1,47.3c0,0,-58,16.8,-119.1,16.8c0,0,-133,0,-206.3,-84c0,0,-74.9,-84,-74.9,-238.3c0,0,0,-152.8,73.4,-236.8c0,0,74.8,-84.1,207.8,-84.1c0,0,61.1,0,119.1,15.3c0,0,58.1,16.8,116.1,48.9L744,30.6c0,0,-56.5,-26,-117.6,-38.1c0,0,-62.6,-13.8,-131.4,-13.8Z" 
	id="f1_6"
	transform="scale(0.001,-0.001)" />

	<path d="M137.5,0l0,1159.6l139,0l0,-684.5L686,834.2l174.1,0L417.1,444.6L880,0L699.7,0L276.5,407.9L276.5,0Z" 
	id="f1_1a"
	transform="scale(0.001,-0.001)" />

	<path d="M137.5,0l0,834.2l139,0l0,-129.9c0,0,48.9,76.4,114.6,113.1c0,0,67.2,38.2,154.3,38.2c0,0,145.2,0,218.5,-88.7c0,0,73.3,-90.1,73.3,-262.7L837.2,0L699.7,0l0,499.6c0,0,0,117.6,-45.8,175.7c0,0,-45.8,59.6,-139,59.6c0,0,-110,0,-174.2,-70.3c0,0,-64.2,-70.3,-64.2,-192.5L276.5,0Z" 
	id="f1_4"
	transform="scale(0.001,-0.001)" />

	<path d="M165,0l0,728.8l-131.4,0l0,105.4l131.4,0l0,58c0,0,0,140.6,64.2,203.2c0,0,65.7,64.2,207.7,64.2l129.9,0l0,-113.1l-131.4,0c0,0,-74.8,0,-102.3,-30.5c0,0,-29.1,-30.6,-29.1,-107l0,-74.8l226.1,0l0,-105.4l-226.1,0L304,0Z" 
	id="f1_e"
	transform="scale(0.001,-0.001)" />

	<path d="M149,0l0,1113l640,0l0,-128l-490,0l0,-327l441,0l0,-127l-441,0L299,0Z" 
	id="f1_19"
	transform="scale(0.001,-0.001)" />

	<path d="M508.8,93.2c0,0,110,0,171.1,85.6c0,0,62.6,85.5,62.6,236.8c0,0,0,152.7,-61.1,238.3c0,0,-62.6,85.5,-172.6,85.5c0,0,-108.5,0,-169.6,-85.5c0,0,-62.7,-85.6,-62.7,-238.3c0,0,0,-151.3,61.1,-236.8c0,0,62.7,-85.6,171.2,-85.6ZM137.5,-317.7l0,1151.9l139,0l0,-126.8c0,0,42.8,74.8,108.5,111.5c0,0,65.7,36.7,157.4,36.7c0,0,152.7,0,247.5,-120.7c0,0,96.2,-122.3,96.2,-319.3c0,0,0,-195.6,-94.7,-316.3c0,0,-96.3,-120.6,-249,-120.6c0,0,-91.7,0,-157.4,35.1c0,0,-65.7,36.6,-108.5,111.5l0,-443Z" 
	id="f1_9"
	transform="scale(0.001,-0.001)" />

	<path d="M143,0l0,1159l138,0L281,0Z" 
	id="f1_a"
	transform="scale(0.001,-0.001)" />

	<path d="M282.6,0L62.6,834.2l137.5,0L372.8,183.3L542.4,834.2l161.9,0L876.9,183.3l171.2,650.9l135.9,0L965.6,0l-162,0L624.9,684.4L444.6,0Z" 
	id="f1_12"
	transform="scale(0.001,-0.001)" />

	<path d="M458.3,114.6c0,0,111.6,0,172.7,81c0,0,62.6,82.5,62.6,230.7c0,0,0,149.7,-61.1,230.6c0,0,-62.6,82.5,-174.2,82.5c0,0,-110,0,-171.1,-80.9c0,0,-62.6,-82.5,-62.6,-232.2c0,0,0,-148.2,61.1,-229.2c0,0,62.6,-82.5,172.6,-82.5ZM444.6,-317.7c0,0,-71.8,0,-136,10.7c0,0,-64.2,12.2,-123.7,33.6l0,134.5c0,0,59.5,-33.6,117.6,-48.9c0,0,59.6,-15.3,120.7,-15.3c0,0,136,0,203.2,70.3c0,0,67.2,70.3,67.2,210.7l0,68.8c0,0,-42.8,-74.9,-108.5,-110C585.1,36.7,517.9,0,424.7,0c0,0,-152.8,0,-245.9,116.1c0,0,-94.8,117.7,-94.8,310.2c0,0,0,194,93.2,311.6c0,0,94.7,117.7,247.5,117.7c0,0,93.2,0,158.9,-36.7c0,0,67.2,-36.7,110,-111.5l0,126.8l136,0l0,-731.8c0,0,0,-210.8,-94.7,-314.7c0,0,-94.8,-105.4,-290.3,-105.4Z" 
	id="f1_x"
	transform="scale(0.001,-0.001)" />

	<path d="M456.8,-21.3c0,0,-77.9,0,-166.5,16.8c0,0,-90.2,18.3,-186.4,53.4l0,154.3c0,0,91.7,-50.4,180.3,-76.4c0,0,88.6,-27.5,172.6,-27.5c0,0,129.9,0,200.1,50.4c0,0,70.3,52,70.3,145.2c0,0,0,82.5,-50.4,128.3c0,0,-50.4,47.4,-166.5,70.3l-91.7,16.8c0,0,-168,33.6,-242.9,105.4c0,0,-76.4,71.8,-76.4,200.1c0,0,0,146.7,103.9,232.3c0,0,105.4,85.5,287.2,85.5c0,0,79.5,0,160.4,-13.7c0,0,81,-15.3,166.6,-42.8l0,-148.2c0,0,-85.6,41.2,-162,61.1c0,0,-76.4,21.4,-146.6,21.4c0,0,-123.8,0,-189.5,-47.4c0,0,-67.2,-48.9,-67.2,-137.5c0,0,0,-73.3,44.3,-110c0,0,44.3,-38.2,168,-61.1l90.2,-19.8c0,0,169.6,-32.1,249,-111.6c0,0,81,-80.9,81,-216.9c0,0,0,-162,-108.5,-244.5c0,0,-108.5,-83.9,-319.3,-83.9Z" 
	id="f1_z"
	transform="scale(0.001,-0.001)" />

	<path d="M421.7,-21.3c0,0,-143.6,0,-218.5,88.5L128.3,328.5l0,505.7l137.5,0l0,-499.6c0,0,0,-119.2,45.9,-178.8c0,0,47.3,-59.5,139,-59.5c0,0,111.5,0,175.7,70.2c0,0,65.7,71.8,65.7,194.1l0,473.6l136,0L828.1,0l-136,0l0,126.8c0,0,-50.4,-74.9,-116.1,-111.5c0,0,-67.2,-36.6,-154.3,-36.6Z" 
	id="f1_i"
	transform="scale(0.001,-0.001)" />

	<path d="M161,0l0,189l158,0L319,0Z" 
	id="f1_1c"
	transform="scale(0.001,-0.001)" />

	<path d="M120.7,-317.7l0,116.1l79.4,0c0,0,56.6,0,87.1,26c0,0,32.1,27.5,70.3,126.8l24.4,61L44.3,834.2l145.1,0L450.7,181.8L711.9,834.2l146.7,0L490.4,-76.3c0,0,-58,-149.7,-113,-195.5c0,0,-55,-45.9,-148.2,-45.9Z" 
	id="f1_r"
	transform="scale(0.001,-0.001)" />

	<path d="M357.5,0L44.3,834.2l145.1,0L450.7,132.9L711.9,834.2l146.7,0L543.9,0Z" 
	id="f1_q"
	transform="scale(0.001,-0.001)" />

	<path d="M149,0l0,1113l150,0L299,0Z" 
	id="f1_u"
	transform="scale(0.001,-0.001)" />

	<path d="M117.6,-177.1L178.8,61.1l0,128.3l157.3,0l0,-128.3L213.9,-177.1Z" 
	id="f1_j"
	transform="scale(0.001,-0.001)" />


</defs>
</svg>