<?xml version="1.0" encoding="UTF-8" standalone="no"?>
<!DOCTYPE svg PUBLIC "-//W3C//DTD SVG 1.1//EN"
"http://www.w3.org/Graphics/SVG/1.1/DTD/svg11.dtd">
<svg viewBox="0 0 1100 825" version="1.1" xmlns="http://www.w3.org/2000/svg" xmlns:xlink="http://www.w3.org/1999/xlink">
<defs>
<style type="text/css"><![CDATA[
.g2_114{
fill: none;
stroke: #418AB3;
stroke-width: 2;
stroke-linecap: butt;
stroke-linejoin: miter;
stroke-miterlimit: 7;
}
.g1_114{
fill: #FFFFFF;
}
]]></style>
</defs>
<path fill-rule="evenodd" d="M0,0L1100,0l0,825L0,825L0,0Z" class="g1_114" />
<path fill-rule="evenodd" d="M0,0L1100,0l0,825L0,825L0,0Z" class="g1_114" />
<path fill-rule="evenodd" d="M861.2,12.4l0,-0.3l0,-0.3l0.2,-0.3l0,-0.3l0,-0.4l0.1,-0.3l0.2,-0.3l0,-0.3l0.1,-0.3L862,9.5l0.1,-0.3l0.2,-0.3l0.1,-0.2l0.3,-0.3l0.2,-0.1L863,7.9l0.3,-0.1l0.4,-0.2l0.1,-0.1l0.3,-0.2l0.3,-0.1L864.6,7l0.3,-0.1l0.3,0l0.3,-0.2l0.3,0l0.3,-0.1l0.3,0l0.3,0l0.3,0l220.6,0l0.3,0l0.3,0l0.3,0l0.3,0.1l0.4,0l0.3,0.2l0.3,0l0.3,0.1l0.1,0.2l0.3,0.1l0.3,0.2l0.2,0.1l0.3,0.2l0.1,0.3l0.3,0.2l0.2,0.1l0.2,0.3l0.3,0.2l0.1,0.3l0.2,0.3l0.1,0.1l0.2,0.3l0,0.3l0.1,0.3l0,0.3l0.2,0.4l0,0.3l0,0.3l0.1,0.3l0,0.3l0,22.9l0,0.3l0,0.3l-0.1,0.3l0,0.3l-0.2,0.3l0,0.3l-0.1,0.2l0,0.3l-0.2,0.3l-0.1,0.3l-0.2,0.1l-0.1,0.4l-0.3,0.3l-0.2,0.1l-0.2,0.2l-0.3,0.3l-0.1,0.1l-0.3,0.2l-0.2,0.1l-0.3,0.2l-0.3,0.1l-0.1,0.2l-0.3,0.1l-0.3,0.2l-0.3,0l-0.4,0.1l-0.3,0l-0.3,0l-0.3,0l-0.3,0L867,41.1l-0.3,0l-0.3,-0.2l-0.3,0l-0.3,0l-0.3,-0.1l-0.3,0l-0.3,-0.2l-0.3,0l-0.2,-0.1l-0.3,-0.2l-0.3,-0.1L863.7,40l-0.4,-0.3L863,39.6l-0.1,-0.2l-0.2,-0.3L862.4,39l-0.1,-0.3l-0.2,-0.4L862,38.2l-0.2,-0.3l-0.1,-0.3l0,-0.2l-0.2,-0.3l-0.1,-0.3l0,-0.3l0,-0.3l-0.2,-0.3l0,-0.3l0,-0.3l0,-22.9Z" class="g1_114" />
<path d="M861.2,12.4l0,-0.3l0,-0.3l0.2,-0.3l0,-0.3l0,-0.4l0.1,-0.3l0.2,-0.3l0,-0.3l0.1,-0.3L862,9.5l0.1,-0.3l0.2,-0.3l0.1,-0.2l0.3,-0.3l0.2,-0.1L863,7.9l0.3,-0.1l0.4,-0.2l0.1,-0.1l0.3,-0.2l0.3,-0.1L864.6,7l0.3,-0.1l0.3,0l0.3,-0.2l0.3,0l0.3,-0.1l0.3,0l0.3,0l0.3,0l220.6,0l0.3,0l0.3,0l0.3,0l0.3,0.1l0.4,0l0.3,0.2l0.3,0l0.3,0.1l0.1,0.2l0.3,0.1l0.3,0.2l0.2,0.1l0.3,0.2l0.1,0.3l0.3,0.2l0.2,0.1l0.2,0.3l0.3,0.2l0.1,0.3l0.2,0.3l0.1,0.1l0.2,0.3l0,0.3l0.1,0.3l0,0.3l0.2,0.4l0,0.3l0,0.3l0.1,0.3l0,0.3l0,22.9l0,0.3l0,0.3l-0.1,0.3l0,0.3l-0.2,0.3l0,0.3l-0.1,0.2l0,0.3l-0.2,0.3l-0.1,0.3l-0.2,0.1l-0.1,0.4l-0.3,0.3l-0.2,0.1l-0.2,0.2l-0.3,0.3l-0.1,0.1l-0.3,0.2l-0.2,0.1l-0.3,0.2l-0.3,0.1l-0.1,0.2l-0.3,0.1l-0.3,0.2l-0.3,0l-0.4,0.1l-0.3,0l-0.3,0l-0.3,0l-0.3,0L867,41.1l-0.3,0l-0.3,-0.2l-0.3,0l-0.3,0l-0.3,-0.1l-0.3,0l-0.3,-0.2l-0.3,0l-0.2,-0.1l-0.3,-0.2l-0.3,-0.1L863.7,40l-0.4,-0.3L863,39.6l-0.1,-0.2l-0.2,-0.3L862.4,39l-0.1,-0.3l-0.2,-0.4L862,38.2l-0.2,-0.3l-0.1,-0.3l0,-0.2l-0.2,-0.3l-0.1,-0.3l0,-0.3l0,-0.3l-0.2,-0.3l0,-0.3l0,-0.3l0,-22.9Z" class="g2_114" />
</svg>