<?xml version="1.0" encoding="UTF-8" standalone="no"?>
<!DOCTYPE svg PUBLIC "-//W3C//DTD SVG 1.1//EN"
"http://www.w3.org/Graphics/SVG/1.1/DTD/svg11.dtd">
<svg viewBox="0 0 1100 825" version="1.1" xmlns="http://www.w3.org/2000/svg" xmlns:xlink="http://www.w3.org/1999/xlink">
<defs>
<style type="text/css"><![CDATA[
.g2_25{
fill: none;
stroke: #FEC306;
stroke-width: 1;
stroke-linecap: butt;
stroke-linejoin: miter;
}
.g4_25{
fill: none;
stroke: #418AB3;
stroke-width: 1;
stroke-linecap: butt;
stroke-linejoin: miter;
}
.g3_25{
fill: #FEC306;
}
.g6_25{
fill: none;
stroke: #418AB3;
stroke-width: 1;
stroke-linecap: butt;
stroke-linejoin: miter;
stroke-miterlimit: 7;
}
.g5_25{
fill: #418AB3;
}
.g1_25{
fill: #FFFFFF;
}
]]></style>
</defs>
<path fill-rule="evenodd" d="M0,0L1100,0l0,825L0,825L0,0Z" class="g1_25" />
<path fill-rule="evenodd" d="M0,0L1100,0l0,825L0,825L0,0Z" class="g1_25" />
<image x="753" y="777" width="303" height="38" xlink:href="img/1.png" />
<image x="791" y="30" width="255" height="283" xlink:href="img/2.png" />
<path d="M854.5,344.4l-4.3,-78.6" class="g2_25" />
<path fill-rule="evenodd" d="M849.8,257.4l5,8.7l-9.2,0.7l4.2,-9.4Z" class="g3_25" />
<path d="M1008.5,344.4l-22.3,-33" class="g4_25" />
<path fill-rule="evenodd" d="M981.4,304.3l8.9,5.1l-7.5,5.2l-1.4,-10.3Z" class="g5_25" />
<path d="M1008.6,274.5l0,1.6l0,1.5l0,1.5l0,1.7l-0.1,1.5l0,1.6l0,1.3l-0.2,1.6l0,1.3l0,1.4l-0.1,1.4l0,1.2l-0.2,1.2l0,1.3l-0.1,1l0,1.2l-0.2,1l-0.1,1l0,0.8l-0.2,0.9l-0.1,0.8l-0.2,0.6l-0.1,0.6l0,0.5l-0.2,0.4l-0.1,0.5l-0.2,0.1l-0.2,0.3l-0.1,0.2l-0.2,0l-80.6,0l-0.2,0l-0.1,-0.2l0,-0.3l-0.2,-0.1l-0.1,-0.5L924.6,303l-0.1,-0.5l0,-0.6l-0.2,-0.6l-0.1,-0.8L924,299.6l-0.2,-0.8l0,-1l-0.1,-1l0,-1.2l-0.2,-1l0,-1.3l-0.1,-1.2l-0.2,-1.2l0,-1.4l0,-1.4l-0.1,-1.3l0,-1.6l0,-1.3l-0.2,-1.6l0,-1.5l0,-1.7l0,-1.5l0,-1.5l0,-1.6" class="g6_25" />
<image x="1" y="0" width="792" height="558" xlink:href="img/3.png" />
</svg>