<?xml version="1.0" encoding="UTF-8" standalone="no"?>
<!DOCTYPE svg PUBLIC "-//W3C//DTD SVG 1.1//EN"
"http://www.w3.org/Graphics/SVG/1.1/DTD/svg11.dtd">
<svg viewBox="0 0 1155 1210" version="1.1" xmlns="http://www.w3.org/2000/svg" xmlns:xlink="http://www.w3.org/1999/xlink">
<defs>
<clipPath id="c0_37"><path d="M0.5,1210.5L0.5,0.5l1155,0l0,1210Z" /></clipPath>
<style type="text/css"><![CDATA[
.g1_37{
fill: #FFFFFF;
}
]]></style>
</defs>
<path fill-rule="evenodd" d="M0,0L1155,0l0,1210L0,1210L0,0Z" class="g1_37" />
<path fill-rule="evenodd" d="M0,0L1155,0l0,1210L0,1210L0,0Z" class="g1_37" />
<image x="790" y="1140" width="319" height="55" xlink:href="img/1.png" />
<g clip-path="url(#c0_37)">
<g fill="#626262" >
<use xlink:href="#f0_u" transform="matrix(12,0,0,12,47.7,33.2)" />
<use xlink:href="#f0_4" transform="matrix(12,0,0,12,53,33.2)" />
<use xlink:href="#f0_e" transform="matrix(12,0,0,12,64.5,33.2)" />
<use xlink:href="#f0_7" transform="matrix(12,0,0,12,71,33.2)" />
<use xlink:href="#f0_1g" transform="matrix(12,0,0,12,82.2,33.2)" />
<use xlink:href="#f0_b" transform="matrix(12,0,0,12,90.4,33.2)" />
<use xlink:href="#f0_6" transform="matrix(12,0,0,12,101.7,33.2)" />
<use xlink:href="#f0_f" transform="matrix(12,0,0,12,111.9,33.2)" />
<use xlink:href="#f0_z" transform="matrix(12,0,0,12,129.9,33.2)" />
<use xlink:href="#f0_r" transform="matrix(12,0,0,12,141.7,33.2)" />
<use xlink:href="#f0_g" transform="matrix(12,0,0,12,152.5,33.2)" />
<use xlink:href="#f0_c" transform="matrix(12,0,0,12,162,33.2)" />
<use xlink:href="#f0_b" transform="matrix(12,0,0,12,169.2,33.2)" />
<use xlink:href="#f0_8" transform="matrix(12,0,0,12,180.5,33.2)" />
<use xlink:href="#f0_g" transform="matrix(12,0,0,12,198.3,33.2)" />
<use xlink:href="#f0_d" transform="matrix(12,0,0,12,214.2,33.2)" />
<use xlink:href="#f0_g" transform="matrix(12,0,0,12,219.4,33.2)" />
<use xlink:href="#f0_6" transform="matrix(12,0,0,12,235.3,33.2)" />
<use xlink:href="#f0_l" transform="matrix(12,0,0,12,245.5,33.2)" />
<use xlink:href="#f0_b" transform="matrix(12,0,0,12,252.7,33.2)" />
<use xlink:href="#f0_k" transform="matrix(12,0,0,12,263.9,33.2)" />
<use xlink:href="#f0_c" transform="matrix(12,0,0,12,275.4,33.2)" />
<use xlink:href="#f0_d" transform="matrix(12,0,0,12,282.6,33.2)" />
<use xlink:href="#f0_4" transform="matrix(12,0,0,12,287.6,33.2)" />
<use xlink:href="#f0_x" transform="matrix(12,0,0,12,299.2,33.2)" />
<use xlink:href="#f0_k" transform="matrix(12,0,0,12,317.4,33.2)" />
<use xlink:href="#f0_4" transform="matrix(12,0,0,12,328.7,33.2)" />
<use xlink:href="#f0_7" transform="matrix(12,0,0,12,346.7,33.2)" />
<use xlink:href="#f0_4" transform="matrix(12,0,0,12,357.8,33.2)" />
<use xlink:href="#f0_a" transform="matrix(12,0,0,12,369.4,33.2)" />
<use xlink:href="#f0_d" transform="matrix(12,0,0,12,374.5,33.2)" />
<use xlink:href="#f0_4" transform="matrix(12,0,0,12,379.6,33.2)" />
<use xlink:href="#f0_b" transform="matrix(12,0,0,12,391.2,33.2)" />
<use xlink:href="#f0_k" transform="matrix(12,0,0,12,408.9,33.2)" />
<use xlink:href="#f0_9" transform="matrix(12,0,0,12,420.2,33.2)" />
<use xlink:href="#f0_9" transform="matrix(12,0,0,12,431.8,33.2)" />
<use xlink:href="#f0_a" transform="matrix(12,0,0,12,443.4,33.2)" />
<use xlink:href="#f0_d" transform="matrix(12,0,0,12,448.5,33.2)" />
<use xlink:href="#f0_6" transform="matrix(12,0,0,12,453.6,33.2)" />
<use xlink:href="#f0_k" transform="matrix(12,0,0,12,463.9,33.2)" />
<use xlink:href="#f0_c" transform="matrix(12,0,0,12,475.1,33.2)" />
<use xlink:href="#f0_d" transform="matrix(12,0,0,12,482.3,33.2)" />
<use xlink:href="#f0_7" transform="matrix(12,0,0,12,487.5,33.2)" />
<use xlink:href="#f0_4" transform="matrix(12,0,0,12,498.6,33.2)" />
<use xlink:href="#f0_e" transform="matrix(12,0,0,12,516.7,33.2)" />
<use xlink:href="#f0_7" transform="matrix(12,0,0,12,523.1,33.2)" />
<use xlink:href="#f0_l" transform="matrix(12,0,0,12,534.2,33.2)" />
<use xlink:href="#f0_k" transform="matrix(12,0,0,12,548.2,33.2)" />
<use xlink:href="#f0_i" transform="matrix(12,0,0,12,559.7,33.2)" />
<use xlink:href="#f0_c" transform="matrix(12,0,0,12,571.1,33.2)" />
<use xlink:href="#f0_7" transform="matrix(12,0,0,12,578.3,33.2)" />
<use xlink:href="#f0_8" transform="matrix(12,0,0,12,589.5,33.2)" />
<use xlink:href="#f0_k" transform="matrix(12,0,0,12,607.2,33.2)" />
<use xlink:href="#f0_c" transform="matrix(12,0,0,12,618.6,33.2)" />
<use xlink:href="#f0_d" transform="matrix(12,0,0,12,625.8,33.2)" />
<use xlink:href="#f0_4" transform="matrix(12,0,0,12,630.9,33.2)" />
<use xlink:href="#f0_x" transform="matrix(12,0,0,12,642.5,33.2)" />
<use xlink:href="#f0_c" transform="matrix(12,0,0,12,660.5,33.2)" />
<use xlink:href="#f0_f" transform="matrix(12,0,0,12,667.7,33.2)" />
<use xlink:href="#f0_b" transform="matrix(12,0,0,12,679.3,33.2)" />
<use xlink:href="#f0_c" transform="matrix(12,0,0,12,697,33.2)" />
<use xlink:href="#f0_k" transform="matrix(12,0,0,12,704.1,33.2)" />
<use xlink:href="#f0_g" transform="matrix(12,0,0,12,715.4,33.2)" />
<use xlink:href="#f0_1a" transform="matrix(12,0,0,12,725,33.2)" />
<use xlink:href="#f0_7" transform="matrix(12,0,0,12,742,33.2)" />
<use xlink:href="#f0_e" transform="matrix(12,0,0,12,753.1,33.2)" />
<use xlink:href="#f0_1q" transform="matrix(12,0,0,12,765.9,33.2)" />
<use xlink:href="#f0_7" transform="matrix(12,0,0,12,771.1,33.2)" />
<use xlink:href="#f0_m" transform="matrix(12,0,0,12,782.3,33.2)" />
<use xlink:href="#f0_g" transform="matrix(12,0,0,12,800.1,33.2)" />
<use xlink:href="#f0_b" transform="matrix(12,0,0,12,809.7,33.2)" />
<use xlink:href="#f0_k" transform="matrix(12,0,0,12,821,33.2)" />
<use xlink:href="#f0_l" transform="matrix(12,0,0,12,832.5,33.2)" />
<use xlink:href="#f0_6" transform="matrix(12,0,0,12,839.5,33.2)" />
<use xlink:href="#f0_f" transform="matrix(12,0,0,12,849.9,33.2)" />
<use xlink:href="#f0_m" transform="matrix(12,0,0,12,867.7,33.2)" />
<use xlink:href="#f0_b" transform="matrix(12,0,0,12,879.3,33.2)" />
<use xlink:href="#f0_c" transform="matrix(12,0,0,12,890.6,33.2)" />
<use xlink:href="#f0_12" transform="matrix(12,0,0,12,897.8,33.2)" />
<use xlink:href="#f0_b" transform="matrix(12,0,0,12,912.8,33.2)" />
<use xlink:href="#f0_b" transform="matrix(12,0,0,12,924.2,33.2)" />
<use xlink:href="#f0_4" transform="matrix(12,0,0,12,935.5,33.2)" />
<use xlink:href="#f0_b" transform="matrix(12,0,0,12,953.4,33.2)" />
<use xlink:href="#f0_8" transform="matrix(12,0,0,12,964.8,33.2)" />
<use xlink:href="#f0_9" transform="matrix(12,0,0,12,982.5,33.2)" />
<use xlink:href="#f0_a" transform="matrix(12,0,0,12,994.1,33.2)" />
<use xlink:href="#f0_7" transform="matrix(12,0,0,12,999.2,33.2)" />
<use xlink:href="#f0_r" transform="matrix(12,0,0,12,1010.3,33.2)" />
<use xlink:href="#f0_b" transform="matrix(12,0,0,12,1021.2,33.2)" />
<use xlink:href="#f0_l" transform="matrix(12,0,0,12,1032.6,33.2)" />
<use xlink:href="#f0_k" transform="matrix(12,0,0,12,1046.6,33.2)" />
<use xlink:href="#f0_4" transform="matrix(12,0,0,12,1057.9,33.2)" />
<use xlink:href="#f0_h" transform="matrix(12,0,0,12,1069.5,33.2)" />
<use xlink:href="#f0_1q" transform="matrix(12,0,0,12,1087.5,33.2)" />
<use xlink:href="#f0_7" transform="matrix(12,0,0,12,1092.7,33.2)" />
<use xlink:href="#f0_m" transform="matrix(12,0,0,12,1103.9,33.2)" />
<use xlink:href="#f0_g" transform="matrix(12,0,0,12,47.7,77.6)" />
<use xlink:href="#f0_b" transform="matrix(12,0,0,12,57.1,77.6)" />
<use xlink:href="#f0_b" transform="matrix(12,0,0,12,68.6,77.6)" />
<use xlink:href="#f0_1a" transform="matrix(12,0,0,12,79.9,77.6)" />
<use xlink:href="#f0_b" transform="matrix(12,0,0,12,89.8,77.6)" />
<use xlink:href="#f0_l" transform="matrix(12,0,0,12,101.1,77.6)" />
<use xlink:href="#f0_g" transform="matrix(12,0,0,12,108.9,77.6)" />
<use xlink:href="#f0_1c" transform="matrix(12,0,0,12,118.4,77.6)" />
<use xlink:href="#f0_2" transform="matrix(12,0,0,12,47.7,136.7)" />
<use xlink:href="#f0_1c" transform="matrix(12,0,0,12,59.4,136.7)" />
<use xlink:href="#f0_15" transform="matrix(12,0,0,12,75.2,136.7)" />
<use xlink:href="#f0_l" transform="matrix(12,0,0,12,88,136.7)" />
<use xlink:href="#f0_b" transform="matrix(12,0,0,12,95.2,136.7)" />
<use xlink:href="#f0_k" transform="matrix(12,0,0,12,106.5,136.7)" />
<use xlink:href="#f0_c" transform="matrix(12,0,0,12,117.9,136.7)" />
<use xlink:href="#f0_b" transform="matrix(12,0,0,12,124.9,136.7)" />
<use xlink:href="#f0_k" transform="matrix(12,0,0,12,142.2,136.7)" />
<use xlink:href="#f0_c" transform="matrix(12,0,0,12,159.4,136.7)" />
<use xlink:href="#f0_k" transform="matrix(12,0,0,12,166.6,136.7)" />
<use xlink:href="#f0_m" transform="matrix(12,0,0,12,177.9,136.7)" />
<use xlink:href="#f0_a" transform="matrix(12,0,0,12,189.5,136.7)" />
<use xlink:href="#f0_b" transform="matrix(12,0,0,12,194.6,136.7)" />
<use xlink:href="#f0_24" transform="matrix(12,0,0,12,211.8,136.7)" />
<use xlink:href="#f0_p" transform="matrix(12,0,0,12,217,136.7)" />
<use xlink:href="#f0_g" transform="matrix(12,0,0,12,230.4,136.7)" />
<use xlink:href="#f0_b" transform="matrix(12,0,0,12,239.9,136.7)" />
<use xlink:href="#f0_l" transform="matrix(12,0,0,12,251.2,136.7)" />
<use xlink:href="#f0_g" transform="matrix(12,0,0,12,258.9,136.7)" />
<use xlink:href="#f0_24" transform="matrix(12,0,0,12,268.4,136.7)" />
<use xlink:href="#f0_e" transform="matrix(12,0,0,12,279.4,136.7)" />
<use xlink:href="#f0_l" transform="matrix(12,0,0,12,285.8,136.7)" />
<use xlink:href="#f0_7" transform="matrix(12,0,0,12,293,136.7)" />
<use xlink:href="#f0_8" transform="matrix(12,0,0,12,304.2,136.7)" />
<use xlink:href="#f0_s" transform="matrix(12,0,0,12,327.8,136.7)" />
<use xlink:href="#f0_r" transform="matrix(12,0,0,12,338.8,136.7)" />
<use xlink:href="#f0_c" transform="matrix(12,0,0,12,349.7,136.7)" />
<use xlink:href="#f0_f" transform="matrix(12,0,0,12,356.8,136.7)" />
<use xlink:href="#f0_7" transform="matrix(12,0,0,12,368.3,136.7)" />
<use xlink:href="#f0_4" transform="matrix(12,0,0,12,379.4,136.7)" />
<use xlink:href="#f0_6" transform="matrix(12,0,0,12,396.9,136.7)" />
<use xlink:href="#f0_7" transform="matrix(12,0,0,12,407.2,136.7)" />
<use xlink:href="#f0_h" transform="matrix(12,0,0,12,418.4,136.7)" />
<use xlink:href="#f0_b" transform="matrix(12,0,0,12,430.1,136.7)" />
<use xlink:href="#f0_1c" transform="matrix(12,0,0,12,441.4,136.7)" />
<use xlink:href="#f0_1g" transform="matrix(12,0,0,12,453.2,136.7)" />
<use xlink:href="#f0_f" transform="matrix(12,0,0,12,464.5,136.7)" />
<use xlink:href="#f0_b" transform="matrix(12,0,0,12,476.1,136.7)" />
<use xlink:href="#f0_6" transform="matrix(12,0,0,12,493.2,136.7)" />
<use xlink:href="#f0_7" transform="matrix(12,0,0,12,503.6,136.7)" />
<use xlink:href="#f0_a" transform="matrix(12,0,0,12,514.7,136.7)" />
<use xlink:href="#f0_i" transform="matrix(12,0,0,12,519.7,136.7)" />
<use xlink:href="#f0_8" transform="matrix(12,0,0,12,531.4,136.7)" />
<use xlink:href="#f0_4" transform="matrix(12,0,0,12,549.2,136.7)" />
<use xlink:href="#f0_h" transform="matrix(12,0,0,12,566.6,136.7)" />
<use xlink:href="#f0_b" transform="matrix(12,0,0,12,578.2,136.7)" />
<use xlink:href="#f0_c" transform="matrix(12,0,0,12,589.7,136.7)" />
<use xlink:href="#f0_k" transform="matrix(12,0,0,12,596.7,136.7)" />
<use xlink:href="#f0_d" transform="matrix(12,0,0,12,608.1,136.7)" />
<use xlink:href="#f0_a" transform="matrix(12,0,0,12,613.2,136.7)" />
<use xlink:href="#f0_g" transform="matrix(12,0,0,12,618.3,136.7)" />
<use xlink:href="#f0_k" transform="matrix(12,0,0,12,633.7,136.7)" />
<use xlink:href="#f0_l" transform="matrix(12,0,0,12,645,136.7)" />
<use xlink:href="#f0_b" transform="matrix(12,0,0,12,652.2,136.7)" />
<use xlink:href="#f0_x" transform="matrix(12,0,0,12,669.5,136.7)" />
<use xlink:href="#f0_d" transform="matrix(12,0,0,12,681.2,136.7)" />
<use xlink:href="#f0_q" transform="matrix(12,0,0,12,686.3,136.7)" />
<use xlink:href="#f0_b" transform="matrix(12,0,0,12,697.1,136.7)" />
<use xlink:href="#f0_4" transform="matrix(12,0,0,12,708.5,136.7)" />
<use xlink:href="#f0_m" transform="matrix(12,0,0,12,725.9,136.7)" />
<use xlink:href="#f0_b" transform="matrix(12,0,0,12,737.4,136.7)" />
<use xlink:href="#f0_a" transform="matrix(12,0,0,12,748.8,136.7)" />
<use xlink:href="#f0_7" transform="matrix(12,0,0,12,753.9,136.7)" />
<use xlink:href="#f0_12" transform="matrix(12,0,0,12,765,136.7)" />
<use xlink:href="#f0_n" transform="matrix(12,0,0,12,778.9,136.7)" />
<use xlink:href="#f0_t" transform="matrix(12,0,0,12,47.7,490.9)" />
<use xlink:href="#f0_1c" transform="matrix(12,0,0,12,59.3,490.9)" />
<use xlink:href="#f0_u" transform="matrix(12,0,0,12,76.8,490.9)" />
<use xlink:href="#f0_4" transform="matrix(12,0,0,12,82.2,490.9)" />
<use xlink:href="#f0_g" transform="matrix(12,0,0,12,93.6,490.9)" />
<use xlink:href="#f0_b" transform="matrix(12,0,0,12,103.3,490.9)" />
<use xlink:href="#f0_l" transform="matrix(12,0,0,12,114.5,490.9)" />
<use xlink:href="#f0_c" transform="matrix(12,0,0,12,122.3,490.9)" />
<use xlink:href="#f0_c" transform="matrix(12,0,0,12,135.3,490.9)" />
<use xlink:href="#f0_f" transform="matrix(12,0,0,12,142.5,490.9)" />
<use xlink:href="#f0_b" transform="matrix(12,0,0,12,153.9,490.9)" />
<use xlink:href="#f0_e" transform="matrix(12,0,0,12,171.2,490.9)" />
<use xlink:href="#f0_7" transform="matrix(12,0,0,12,177.6,490.9)" />
<use xlink:href="#f0_a" transform="matrix(12,0,0,12,188.7,490.9)" />
<use xlink:href="#f0_a" transform="matrix(12,0,0,12,193.9,490.9)" />
<use xlink:href="#f0_7" transform="matrix(12,0,0,12,199,490.9)" />
<use xlink:href="#f0_12" transform="matrix(12,0,0,12,210.2,490.9)" />
<use xlink:href="#f0_d" transform="matrix(12,0,0,12,225.2,490.9)" />
<use xlink:href="#f0_4" transform="matrix(12,0,0,12,230.4,490.9)" />
<use xlink:href="#f0_x" transform="matrix(12,0,0,12,241.9,490.9)" />
<use xlink:href="#f0_h" transform="matrix(12,0,0,12,259.4,490.9)" />
<use xlink:href="#f0_k" transform="matrix(12,0,0,12,271.2,490.9)" />
<use xlink:href="#f0_c" transform="matrix(12,0,0,12,282.5,490.9)" />
<use xlink:href="#f0_k" transform="matrix(12,0,0,12,289.6,490.9)" />
<use xlink:href="#f0_d" transform="matrix(12,0,0,12,306.9,490.9)" />
<use xlink:href="#f0_4" transform="matrix(12,0,0,12,312.1,490.9)" />
<use xlink:href="#f0_c" transform="matrix(12,0,0,12,323.5,490.9)" />
<use xlink:href="#f0_7" transform="matrix(12,0,0,12,330.7,490.9)" />
<use xlink:href="#f1_13" transform="matrix(12,0,0,12,348,490.9)" />
<use xlink:href="#f1_a" transform="matrix(12,0,0,12,362.7,490.9)" />
<use xlink:href="#f1_b" transform="matrix(12,0,0,12,373.7,490.9)" />
<use xlink:href="#f1_d" transform="matrix(12,0,0,12,386.1,490.9)" />
<use xlink:href="#f1_a" transform="matrix(12,0,0,12,395.1,490.9)" />
<use xlink:href="#f0_c" transform="matrix(12,0,0,12,411.9,490.9)" />
<use xlink:href="#f0_k" transform="matrix(12,0,0,12,419.1,490.9)" />
<use xlink:href="#f0_m" transform="matrix(12,0,0,12,430.5,490.9)" />
<use xlink:href="#f0_a" transform="matrix(12,0,0,12,442,490.9)" />
<use xlink:href="#f0_b" transform="matrix(12,0,0,12,447.2,490.9)" />
<use xlink:href="#f0_i" transform="matrix(12,0,0,12,464.4,490.9)" />
<use xlink:href="#f0_g" transform="matrix(12,0,0,12,475.8,490.9)" />
<use xlink:href="#f0_d" transform="matrix(12,0,0,12,485.4,490.9)" />
<use xlink:href="#f0_4" transform="matrix(12,0,0,12,490.5,490.9)" />
<use xlink:href="#f0_x" transform="matrix(12,0,0,12,502.1,490.9)" />
<use xlink:href="#f0_6" transform="matrix(12,0,0,12,519.7,490.9)" />
<use xlink:href="#f0_v" transform="matrix(12,0,0,12,529.9,490.9)" />
<use xlink:href="#f0_w" transform="matrix(12,0,0,12,540.7,490.9)" />
<use xlink:href="#f0_3" transform="matrix(12,0,0,12,549.9,490.9)" />
<use xlink:href="#f0_l" transform="matrix(12,0,0,12,564.4,490.9)" />
<use xlink:href="#f0_k" transform="matrix(12,0,0,12,572,490.9)" />
<use xlink:href="#f0_6" transform="matrix(12,0,0,12,583.4,490.9)" />
<use xlink:href="#f0_a" transform="matrix(12,0,0,12,593.7,490.9)" />
<use xlink:href="#f0_b" transform="matrix(12,0,0,12,598.7,490.9)" />
<use xlink:href="#f0_k" transform="matrix(12,0,0,12,615.9,490.9)" />
<use xlink:href="#f0_g" transform="matrix(12,0,0,12,627.4,490.9)" />
<use xlink:href="#f0_9" transform="matrix(12,0,0,12,642.7,490.9)" />
<use xlink:href="#f0_b" transform="matrix(12,0,0,12,654.3,490.9)" />
<use xlink:href="#f0_l" transform="matrix(12,0,0,12,665.7,490.9)" />
<use xlink:href="#f0_c" transform="matrix(12,0,0,12,679.2,490.9)" />
<use xlink:href="#f0_f" transform="matrix(12,0,0,12,686.3,490.9)" />
<use xlink:href="#f0_b" transform="matrix(12,0,0,12,697.9,490.9)" />
<use xlink:href="#f0_g" transform="matrix(12,0,0,12,715.2,490.9)" />
<use xlink:href="#f0_9" transform="matrix(12,0,0,12,724.7,490.9)" />
<use xlink:href="#f0_b" transform="matrix(12,0,0,12,736.1,490.9)" />
<use xlink:href="#f0_6" transform="matrix(12,0,0,12,747.6,490.9)" />
<use xlink:href="#f0_d" transform="matrix(12,0,0,12,757.8,490.9)" />
<use xlink:href="#f0_1s" transform="matrix(12,0,0,12,762.9,490.9)" />
<use xlink:href="#f0_6" transform="matrix(12,0,0,12,774.4,490.9)" />
<use xlink:href="#f0_k" transform="matrix(12,0,0,12,784.6,490.9)" />
<use xlink:href="#f0_c" transform="matrix(12,0,0,12,796.1,490.9)" />
<use xlink:href="#f0_d" transform="matrix(12,0,0,12,803.2,490.9)" />
<use xlink:href="#f0_7" transform="matrix(12,0,0,12,808.3,490.9)" />
<use xlink:href="#f0_4" transform="matrix(12,0,0,12,819.6,490.9)" />
<use xlink:href="#f0_g" transform="matrix(12,0,0,12,831,490.9)" />
<use xlink:href="#f0_9" transform="matrix(12,0,0,12,846.4,490.9)" />
<use xlink:href="#f0_l" transform="matrix(12,0,0,12,858.1,490.9)" />
<use xlink:href="#f0_7" transform="matrix(12,0,0,12,865.1,490.9)" />
<use xlink:href="#f0_q" transform="matrix(12,0,0,12,876.2,490.9)" />
<use xlink:href="#f0_d" transform="matrix(12,0,0,12,887.1,490.9)" />
<use xlink:href="#f0_h" transform="matrix(12,0,0,12,892.2,490.9)" />
<use xlink:href="#f0_b" transform="matrix(12,0,0,12,904,490.9)" />
<use xlink:href="#f0_h" transform="matrix(12,0,0,12,915.3,490.9)" />
<use xlink:href="#f0_m" transform="matrix(12,0,0,12,932.8,490.9)" />
<use xlink:href="#f0_b" transform="matrix(12,0,0,12,944.4,490.9)" />
<use xlink:href="#f0_a" transform="matrix(12,0,0,12,955.7,490.9)" />
<use xlink:href="#f0_7" transform="matrix(12,0,0,12,960.9,490.9)" />
<use xlink:href="#f0_12" transform="matrix(12,0,0,12,972.1,490.9)" />
<use xlink:href="#f0_n" transform="matrix(12,0,0,12,985.9,490.9)" />
<use xlink:href="#f2_q" transform="matrix(12,0,0,12,152.6,818.7)" />
<use xlink:href="#f0_u" transform="matrix(12,0,0,12,178.9,819.8)" />
<use xlink:href="#f0_4" transform="matrix(12,0,0,12,184.3,819.8)" />
<use xlink:href="#f0_g" transform="matrix(12,0,0,12,195.7,819.8)" />
<use xlink:href="#f0_b" transform="matrix(12,0,0,12,205.3,819.8)" />
<use xlink:href="#f0_l" transform="matrix(12,0,0,12,216.6,819.8)" />
<use xlink:href="#f0_c" transform="matrix(12,0,0,12,224.4,819.8)" />
<use xlink:href="#f0_1s" transform="matrix(12,0,0,12,237.3,819.8)" />
<use xlink:href="#f0_l" transform="matrix(12,0,0,12,248.8,819.8)" />
<use xlink:href="#f0_g" transform="matrix(12,0,0,12,256.6,819.8)" />
<use xlink:href="#f0_c" transform="matrix(12,0,0,12,266.1,819.8)" />
<use xlink:href="#f0_l" transform="matrix(12,0,0,12,279.1,819.8)" />
<use xlink:href="#f0_7" transform="matrix(12,0,0,12,286.2,819.8)" />
<use xlink:href="#f0_12" transform="matrix(12,0,0,12,297.4,819.8)" />
<use xlink:href="#f0_i" transform="matrix(12,0,0,12,318.3,819.8)" />
<use xlink:href="#f0_g" transform="matrix(12,0,0,12,329.9,819.8)" />
<use xlink:href="#f0_d" transform="matrix(12,0,0,12,339.4,819.8)" />
<use xlink:href="#f0_4" transform="matrix(12,0,0,12,344.6,819.8)" />
<use xlink:href="#f0_x" transform="matrix(12,0,0,12,356,819.8)" />
<use xlink:href="#f0_f" transform="matrix(12,0,0,12,373.7,819.8)" />
<use xlink:href="#f0_k" transform="matrix(12,0,0,12,385.2,819.8)" />
<use xlink:href="#f0_l" transform="matrix(12,0,0,12,396.6,819.8)" />
<use xlink:href="#f0_h" transform="matrix(12,0,0,12,403.9,819.8)" />
<use xlink:href="#f0_1o" transform="matrix(12,0,0,12,415.5,819.8)" />
<use xlink:href="#f0_6" transform="matrix(12,0,0,12,422.3,819.8)" />
<use xlink:href="#f0_7" transform="matrix(12,0,0,12,432.5,819.8)" />
<use xlink:href="#f0_h" transform="matrix(12,0,0,12,443.6,819.8)" />
<use xlink:href="#f0_b" transform="matrix(12,0,0,12,455.4,819.8)" />
<use xlink:href="#f0_h" transform="matrix(12,0,0,12,466.7,819.8)" />
<use xlink:href="#f0_q" transform="matrix(12,0,0,12,484.2,819.8)" />
<use xlink:href="#f0_k" transform="matrix(12,0,0,12,495.1,819.8)" />
<use xlink:href="#f0_a" transform="matrix(12,0,0,12,506.5,819.8)" />
<use xlink:href="#f0_i" transform="matrix(12,0,0,12,511.5,819.8)" />
<use xlink:href="#f0_b" transform="matrix(12,0,0,12,523.1,819.8)" />
<use xlink:href="#f0_g" transform="matrix(12,0,0,12,534.4,819.8)" />
<use xlink:href="#f0_d" transform="matrix(12,0,0,12,549.9,819.8)" />
<use xlink:href="#f0_4" transform="matrix(12,0,0,12,555,819.8)" />
<use xlink:href="#f0_u" transform="matrix(12,0,0,12,572.4,819.8)" />
<use xlink:href="#f0_11" transform="matrix(12,0,0,12,577.6,819.8)" />
<use xlink:href="#f0_z" transform="matrix(12,0,0,12,591.3,819.8)" />
<use xlink:href="#f0_1n" transform="matrix(12,0,0,12,603.1,819.8)" />
<use xlink:href="#f0_1u" transform="matrix(12,0,0,12,614.7,819.8)" />
<use xlink:href="#f0_1g" transform="matrix(12,0,0,12,626,819.8)" />
<use xlink:href="#f0_13" transform="matrix(12,0,0,12,643.2,819.8)" />
<use xlink:href="#f0_i" transform="matrix(12,0,0,12,655,819.8)" />
<use xlink:href="#f0_b" transform="matrix(12,0,0,12,666.5,819.8)" />
<use xlink:href="#f0_l" transform="matrix(12,0,0,12,677.9,819.8)" />
<use xlink:href="#f0_r" transform="matrix(12,0,0,12,685.5,819.8)" />
<use xlink:href="#f0_1c" transform="matrix(12,0,0,12,693.6,819.8)" />
<use xlink:href="#f2_q" transform="matrix(12,0,0,12,152.6,870.5)" />
<use xlink:href="#f0_u" transform="matrix(12,0,0,12,178.9,871.6)" />
<use xlink:href="#f0_4" transform="matrix(12,0,0,12,184.3,871.6)" />
<use xlink:href="#f0_g" transform="matrix(12,0,0,12,195.7,871.6)" />
<use xlink:href="#f0_b" transform="matrix(12,0,0,12,205.3,871.6)" />
<use xlink:href="#f0_l" transform="matrix(12,0,0,12,216.6,871.6)" />
<use xlink:href="#f0_c" transform="matrix(12,0,0,12,224.4,871.6)" />
<use xlink:href="#f0_g" transform="matrix(12,0,0,12,237.3,871.6)" />
<use xlink:href="#f0_b" transform="matrix(12,0,0,12,246.8,871.6)" />
<use xlink:href="#f0_6" transform="matrix(12,0,0,12,258.3,871.6)" />
<use xlink:href="#f0_7" transform="matrix(12,0,0,12,268.5,871.6)" />
<use xlink:href="#f0_4" transform="matrix(12,0,0,12,279.6,871.6)" />
<use xlink:href="#f0_h" transform="matrix(12,0,0,12,291.2,871.6)" />
<use xlink:href="#f0_l" transform="matrix(12,0,0,12,308.8,871.6)" />
<use xlink:href="#f0_7" transform="matrix(12,0,0,12,316,871.6)" />
<use xlink:href="#f0_12" transform="matrix(12,0,0,12,327.1,871.6)" />
<use xlink:href="#f0_i" transform="matrix(12,0,0,12,347.9,871.6)" />
<use xlink:href="#f0_g" transform="matrix(12,0,0,12,359.5,871.6)" />
<use xlink:href="#f0_d" transform="matrix(12,0,0,12,369.1,871.6)" />
<use xlink:href="#f0_4" transform="matrix(12,0,0,12,374.2,871.6)" />
<use xlink:href="#f0_x" transform="matrix(12,0,0,12,385.8,871.6)" />
<use xlink:href="#f0_9" transform="matrix(12,0,0,12,403.3,871.6)" />
<use xlink:href="#f0_7" transform="matrix(12,0,0,12,414.9,871.6)" />
<use xlink:href="#f0_g" transform="matrix(12,0,0,12,426.1,871.6)" />
<use xlink:href="#f0_d" transform="matrix(12,0,0,12,435.5,871.6)" />
<use xlink:href="#f0_c" transform="matrix(12,0,0,12,440.7,871.6)" />
<use xlink:href="#f0_d" transform="matrix(12,0,0,12,447.9,871.6)" />
<use xlink:href="#f0_7" transform="matrix(12,0,0,12,452.9,871.6)" />
<use xlink:href="#f0_4" transform="matrix(12,0,0,12,464.1,871.6)" />
<use xlink:href="#f0_k" transform="matrix(12,0,0,12,475.7,871.6)" />
<use xlink:href="#f0_a" transform="matrix(12,0,0,12,487,871.6)" />
<use xlink:href="#f0_m" transform="matrix(12,0,0,12,498,871.6)" />
<use xlink:href="#f0_d" transform="matrix(12,0,0,12,509.6,871.6)" />
<use xlink:href="#f0_4" transform="matrix(12,0,0,12,514.7,871.6)" />
<use xlink:href="#f0_h" transform="matrix(12,0,0,12,526.2,871.6)" />
<use xlink:href="#f0_q" transform="matrix(12,0,0,12,543.8,871.6)" />
<use xlink:href="#f0_k" transform="matrix(12,0,0,12,554.6,871.6)" />
<use xlink:href="#f0_l" transform="matrix(12,0,0,12,566,871.6)" />
<use xlink:href="#f0_d" transform="matrix(12,0,0,12,573.7,871.6)" />
<use xlink:href="#f0_k" transform="matrix(12,0,0,12,578.7,871.6)" />
<use xlink:href="#f0_m" transform="matrix(12,0,0,12,590.1,871.6)" />
<use xlink:href="#f0_a" transform="matrix(12,0,0,12,601.7,871.6)" />
<use xlink:href="#f0_b" transform="matrix(12,0,0,12,606.8,871.6)" />
<use xlink:href="#f0_g" transform="matrix(12,0,0,12,618.2,871.6)" />
<use xlink:href="#f0_1c" transform="matrix(12,0,0,12,627.7,871.6)" />
<use xlink:href="#f2_q" transform="matrix(12,0,0,12,152.6,922.2)" />
<use xlink:href="#f0_u" transform="matrix(12,0,0,12,178.9,923.4)" />
<use xlink:href="#f0_4" transform="matrix(12,0,0,12,184.3,923.4)" />
<use xlink:href="#f0_g" transform="matrix(12,0,0,12,195.7,923.4)" />
<use xlink:href="#f0_b" transform="matrix(12,0,0,12,205.3,923.4)" />
<use xlink:href="#f0_l" transform="matrix(12,0,0,12,216.6,923.4)" />
<use xlink:href="#f0_c" transform="matrix(12,0,0,12,224.4,923.4)" />
<use xlink:href="#f0_c" transform="matrix(12,0,0,12,237.3,923.4)" />
<use xlink:href="#f0_f" transform="matrix(12,0,0,12,244.5,923.4)" />
<use xlink:href="#f0_d" transform="matrix(12,0,0,12,256,923.4)" />
<use xlink:href="#f0_l" transform="matrix(12,0,0,12,261.2,923.4)" />
<use xlink:href="#f0_h" transform="matrix(12,0,0,12,268.5,923.4)" />
<use xlink:href="#f0_l" transform="matrix(12,0,0,12,286.1,923.4)" />
<use xlink:href="#f0_7" transform="matrix(12,0,0,12,293.2,923.4)" />
<use xlink:href="#f0_12" transform="matrix(12,0,0,12,304.4,923.4)" />
<use xlink:href="#f0_i" transform="matrix(12,0,0,12,325.3,923.4)" />
<use xlink:href="#f0_g" transform="matrix(12,0,0,12,336.8,923.4)" />
<use xlink:href="#f0_d" transform="matrix(12,0,0,12,346.4,923.4)" />
<use xlink:href="#f0_4" transform="matrix(12,0,0,12,351.4,923.4)" />
<use xlink:href="#f0_x" transform="matrix(12,0,0,12,363,923.4)" />
<use xlink:href="#f0_4" transform="matrix(12,0,0,12,380.6,923.4)" />
<use xlink:href="#f0_k" transform="matrix(12,0,0,12,392.2,923.4)" />
<use xlink:href="#f0_8" transform="matrix(12,0,0,12,403.5,923.4)" />
<use xlink:href="#f0_b" transform="matrix(12,0,0,12,421.3,923.4)" />
<use xlink:href="#f0_h" transform="matrix(12,0,0,12,432.6,923.4)" />
<use xlink:href="#f0_m" transform="matrix(12,0,0,12,450.2,923.4)" />
<use xlink:href="#f0_d" transform="matrix(12,0,0,12,461.8,923.4)" />
<use xlink:href="#f0_4" transform="matrix(12,0,0,12,466.8,923.4)" />
<use xlink:href="#f0_h" transform="matrix(12,0,0,12,478.5,923.4)" />
<use xlink:href="#f0_q" transform="matrix(12,0,0,12,496,923.4)" />
<use xlink:href="#f0_k" transform="matrix(12,0,0,12,506.8,923.4)" />
<use xlink:href="#f0_l" transform="matrix(12,0,0,12,518.1,923.4)" />
<use xlink:href="#f0_d" transform="matrix(12,0,0,12,525.9,923.4)" />
<use xlink:href="#f0_k" transform="matrix(12,0,0,12,531,923.4)" />
<use xlink:href="#f0_m" transform="matrix(12,0,0,12,542.4,923.4)" />
<use xlink:href="#f0_a" transform="matrix(12,0,0,12,553.9,923.4)" />
<use xlink:href="#f0_b" transform="matrix(12,0,0,12,559,923.4)" />
<use xlink:href="#f0_g" transform="matrix(12,0,0,12,570.3,923.4)" />
<use xlink:href="#f0_1c" transform="matrix(12,0,0,12,579.9,923.4)" />
<use xlink:href="#f2_q" transform="matrix(12,0,0,12,152.6,974)" />
<use xlink:href="#f0_1h" transform="matrix(12,0,0,12,178.9,975)" />
<use xlink:href="#f0_6" transform="matrix(12,0,0,12,191,975)" />
<use xlink:href="#f0_6" transform="matrix(12,0,0,12,201.2,975)" />
<use xlink:href="#f0_b" transform="matrix(12,0,0,12,211.6,975)" />
<use xlink:href="#f0_9" transform="matrix(12,0,0,12,222.8,975)" />
<use xlink:href="#f0_c" transform="matrix(12,0,0,12,234.5,975)" />
<use xlink:href="#f0_c" transform="matrix(12,0,0,12,247.4,975)" />
<use xlink:href="#f0_f" transform="matrix(12,0,0,12,254.4,975)" />
<use xlink:href="#f0_b" transform="matrix(12,0,0,12,266,975)" />
<use xlink:href="#f0_q" transform="matrix(12,0,0,12,283.3,975)" />
<use xlink:href="#f0_k" transform="matrix(12,0,0,12,294.1,975)" />
<use xlink:href="#f0_a" transform="matrix(12,0,0,12,305.4,975)" />
<use xlink:href="#f0_i" transform="matrix(12,0,0,12,310.6,975)" />
<use xlink:href="#f0_b" transform="matrix(12,0,0,12,322,975)" />
<use xlink:href="#f0_g" transform="matrix(12,0,0,12,333.5,975)" />
<use xlink:href="#f0_e" transform="matrix(12,0,0,12,348.9,975)" />
<use xlink:href="#f0_7" transform="matrix(12,0,0,12,355.3,975)" />
<use xlink:href="#f0_l" transform="matrix(12,0,0,12,366.5,975)" />
<use xlink:href="#f0_e" transform="matrix(12,0,0,12,380,975)" />
<use xlink:href="#f0_7" transform="matrix(12,0,0,12,386.3,975)" />
<use xlink:href="#f0_i" transform="matrix(12,0,0,12,397.6,975)" />
<use xlink:href="#f0_l" transform="matrix(12,0,0,12,409.1,975)" />
<use xlink:href="#f0_c" transform="matrix(12,0,0,12,416.8,975)" />
<use xlink:href="#f0_f" transform="matrix(12,0,0,12,424,975)" />
<use xlink:href="#f0_l" transform="matrix(12,0,0,12,441.3,975)" />
<use xlink:href="#f0_7" transform="matrix(12,0,0,12,448.5,975)" />
<use xlink:href="#f0_12" transform="matrix(12,0,0,12,459.8,975)" />
<use xlink:href="#f0_e" transform="matrix(12,0,0,12,480.6,975)" />
<use xlink:href="#f0_l" transform="matrix(12,0,0,12,487,975)" />
<use xlink:href="#f0_7" transform="matrix(12,0,0,12,494.2,975)" />
<use xlink:href="#f0_8" transform="matrix(12,0,0,12,505.3,975)" />
<use xlink:href="#f0_i" transform="matrix(12,0,0,12,529,975)" />
<use xlink:href="#f0_g" transform="matrix(12,0,0,12,540.6,975)" />
<use xlink:href="#f0_b" transform="matrix(12,0,0,12,550.1,975)" />
<use xlink:href="#f0_l" transform="matrix(12,0,0,12,561.5,975)" />
<use xlink:href="#f0_k" transform="matrix(12,0,0,12,574.9,975)" />
<use xlink:href="#f0_4" transform="matrix(12,0,0,12,586.4,975)" />
<use xlink:href="#f0_h" transform="matrix(12,0,0,12,597.8,975)" />
<use xlink:href="#f0_d" transform="matrix(12,0,0,12,615.5,975)" />
<use xlink:href="#f0_4" transform="matrix(12,0,0,12,620.6,975)" />
<use xlink:href="#f0_g" transform="matrix(12,0,0,12,632.2,975)" />
<use xlink:href="#f0_b" transform="matrix(12,0,0,12,641.7,975)" />
<use xlink:href="#f0_l" transform="matrix(12,0,0,12,653.1,975)" />
<use xlink:href="#f0_c" transform="matrix(12,0,0,12,660.7,975)" />
<use xlink:href="#f0_i" transform="matrix(12,0,0,12,673.7,975)" />
<use xlink:href="#f0_g" transform="matrix(12,0,0,12,685.3,975)" />
<use xlink:href="#f0_d" transform="matrix(12,0,0,12,694.8,975)" />
<use xlink:href="#f0_4" transform="matrix(12,0,0,12,700,975)" />
<use xlink:href="#f0_x" transform="matrix(12,0,0,12,711.4,975)" />
<use xlink:href="#f0_m" transform="matrix(12,0,0,12,729.1,975)" />
<use xlink:href="#f0_d" transform="matrix(12,0,0,12,740.6,975)" />
<use xlink:href="#f0_4" transform="matrix(12,0,0,12,745.8,975)" />
<use xlink:href="#f0_h" transform="matrix(12,0,0,12,757.2,975)" />
<use xlink:href="#f0_q" transform="matrix(12,0,0,12,774.9,975)" />
<use xlink:href="#f0_k" transform="matrix(12,0,0,12,785.6,975)" />
<use xlink:href="#f0_l" transform="matrix(12,0,0,12,797,975)" />
<use xlink:href="#f0_d" transform="matrix(12,0,0,12,804.7,975)" />
<use xlink:href="#f0_k" transform="matrix(12,0,0,12,809.8,975)" />
<use xlink:href="#f0_m" transform="matrix(12,0,0,12,821.1,975)" />
<use xlink:href="#f0_a" transform="matrix(12,0,0,12,832.7,975)" />
<use xlink:href="#f0_b" transform="matrix(12,0,0,12,837.8,975)" />
<use xlink:href="#f0_g" transform="matrix(12,0,0,12,849.2,975)" />
<use xlink:href="#f0_1c" transform="matrix(12,0,0,12,858.7,975)" />
</g>
<g fill="#595959" >
<use xlink:href="#f2_q" transform="matrix(12,0,0,12,152.6,1025.8)" />
<use xlink:href="#f0_19" transform="matrix(12,0,0,12,178.9,1026.8)" />
<use xlink:href="#f0_b" transform="matrix(12,0,0,12,188.4,1026.8)" />
<use xlink:href="#f0_c" transform="matrix(12,0,0,12,199.8,1026.8)" />
<use xlink:href="#f0_6" transform="matrix(12,0,0,12,207,1026.8)" />
<use xlink:href="#f0_f" transform="matrix(12,0,0,12,217.2,1026.8)" />
<use xlink:href="#f0_k" transform="matrix(12,0,0,12,234.6,1026.8)" />
<use xlink:href="#f0_4" transform="matrix(12,0,0,12,245.9,1026.8)" />
<use xlink:href="#f0_h" transform="matrix(12,0,0,12,257.5,1026.8)" />
<use xlink:href="#f0_h" transform="matrix(12,0,0,12,275.1,1026.8)" />
<use xlink:href="#f0_d" transform="matrix(12,0,0,12,286.8,1026.8)" />
<use xlink:href="#f0_g" transform="matrix(12,0,0,12,291.9,1026.8)" />
<use xlink:href="#f0_9" transform="matrix(12,0,0,12,301.5,1026.8)" />
<use xlink:href="#f0_a" transform="matrix(12,0,0,12,312.9,1026.8)" />
<use xlink:href="#f0_k" transform="matrix(12,0,0,12,318.1,1026.8)" />
<use xlink:href="#f0_r" transform="matrix(12,0,0,12,329.4,1026.8)" />
<use xlink:href="#f0_k" transform="matrix(12,0,0,12,346.2,1026.8)" />
<use xlink:href="#f0_a" transform="matrix(12,0,0,12,357.5,1026.8)" />
<use xlink:href="#f0_a" transform="matrix(12,0,0,12,362.6,1026.8)" />
<use xlink:href="#f0_c" transform="matrix(12,0,0,12,373.6,1026.8)" />
<use xlink:href="#f0_f" transform="matrix(12,0,0,12,380.6,1026.8)" />
<use xlink:href="#f0_b" transform="matrix(12,0,0,12,392.2,1026.8)" />
<use xlink:href="#f0_l" transform="matrix(12,0,0,12,409.5,1026.8)" />
<use xlink:href="#f0_b" transform="matrix(12,0,0,12,416.7,1026.8)" />
<use xlink:href="#f0_6" transform="matrix(12,0,0,12,428,1026.8)" />
<use xlink:href="#f0_7" transform="matrix(12,0,0,12,438.2,1026.8)" />
<use xlink:href="#f0_l" transform="matrix(12,0,0,12,449.3,1026.8)" />
<use xlink:href="#f0_h" transform="matrix(12,0,0,12,456.7,1026.8)" />
<use xlink:href="#f0_g" transform="matrix(12,0,0,12,468.4,1026.8)" />
<use xlink:href="#f0_e" transform="matrix(12,0,0,12,483.8,1026.8)" />
<use xlink:href="#f0_l" transform="matrix(12,0,0,12,490.2,1026.8)" />
<use xlink:href="#f0_7" transform="matrix(12,0,0,12,497.4,1026.8)" />
<use xlink:href="#f0_8" transform="matrix(12,0,0,12,508.6,1026.8)" />
<use xlink:href="#f0_i" transform="matrix(12,0,0,12,532.2,1026.8)" />
<use xlink:href="#f0_g" transform="matrix(12,0,0,12,543.7,1026.8)" />
<use xlink:href="#f0_b" transform="matrix(12,0,0,12,553.3,1026.8)" />
<use xlink:href="#f0_l" transform="matrix(12,0,0,12,564.6,1026.8)" />
<use xlink:href="#f0_g" transform="matrix(12,0,0,12,572.4,1026.8)" />
<use xlink:href="#f0_c" transform="matrix(12,0,0,12,587.7,1026.8)" />
<use xlink:href="#f0_k" transform="matrix(12,0,0,12,594.8,1026.8)" />
<use xlink:href="#f0_m" transform="matrix(12,0,0,12,606.1,1026.8)" />
<use xlink:href="#f0_a" transform="matrix(12,0,0,12,617.7,1026.8)" />
<use xlink:href="#f0_b" transform="matrix(12,0,0,12,622.9,1026.8)" />
<use xlink:href="#f0_1c" transform="matrix(12,0,0,12,634.2,1026.8)" />
</g>
</g>
<image x="145" y="184" width="874" height="265" xlink:href="img/2.png" />
<image x="145" y="522" width="874" height="236" xlink:href="img/3.png" />
<defs>
	<path d="M149,0l0,1113l150,0L299,0Z" 
	id="f0_u"
	transform="scale(0.001,-0.001)" />

	<path d="M137.5,0l0,834.2l139,0l0,-129.9c0,0,48.9,76.4,114.6,113.1c0,0,67.2,38.2,154.3,38.2c0,0,145.2,0,218.5,-88.7c0,0,73.3,-90.1,73.3,-262.7L837.2,0L699.7,0l0,499.6c0,0,0,117.6,-45.8,175.7c0,0,-45.8,59.6,-139,59.6c0,0,-110,0,-174.2,-70.3c0,0,-64.2,-70.3,-64.2,-192.5L276.5,0Z" 
	id="f0_4"
	transform="scale(0.001,-0.001)" />

	<path d="M165,0l0,728.8l-131.4,0l0,105.4l131.4,0l0,58c0,0,0,140.6,64.2,203.2c0,0,65.7,64.2,207.7,64.2l129.9,0l0,-113.1l-131.4,0c0,0,-74.8,0,-102.3,-30.5c0,0,-29.1,-30.6,-29.1,-107l0,-74.8l226.1,0l0,-105.4l-226.1,0L304,0Z" 
	id="f0_e"
	transform="scale(0.001,-0.001)" />

	<path d="M467.5,94.7c0,0,108.5,0,172.6,85.6c0,0,64.2,87.1,64.2,235.3c0,0,0,149.7,-64.2,235.2c0,0,-64.1,87.1,-172.6,87.1c0,0,-111.5,0,-175.7,-85.5c0,0,-64.2,-85.6,-64.2,-236.8c0,0,0,-149.8,64.2,-235.3c0,0,64.2,-85.6,175.7,-85.6Zm0,-116c0,0,-180.3,0,-281.1,116C186.4,94.7,84,210.8,84,415.6c0,0,0,206.2,100.9,322.3c0,0,102.3,117.7,282.6,117.7c0,0,178.8,0,281.1,-116.2c0,0,102.4,-117.6,102.4,-323.8c0,0,0,-204.8,-102.4,-320.9c0,0,-102.3,-116,-281.1,-116Z" 
	id="f0_7"
	transform="scale(0.001,-0.001)" />

	<path d="M389,0l0,985L-3,985l0,128l939,0l0,-128l-396,0L540,0Z" 
	id="f0_1g"
	transform="scale(0.001,-0.001)" />

	<path d="M230.7,490.4l490.4,1.5c0,0,-1.5,111.6,-62.6,178.8c0,0,-62.7,67.2,-163.5,67.2c0,0,-114.6,0,-183.3,-64.1c0,0,-70.3,-65.7,-81,-183.4ZM516.4,-21.3c0,0,-198.6,0,-314.7,116C201.7,94.7,84,210.8,84,409.4c0,0,0,204.8,110,325.5c0,0,111.6,120.7,299.5,120.7c0,0,168,0,265.8,-108.5c0,0,99.3,-110,99.3,-296.4l0,-67.2l-632.5,0c0,0,9.2,-140.6,85.6,-213.9c0,0,76.4,-74.9,213.9,-74.9c0,0,77.9,0,152.7,18.4c0,0,74.9,19.8,148.2,58l0,-129.8c0,0,-74.8,-30.6,-151.2,-45.8c0,0,-77.9,-16.8,-158.9,-16.8Z" 
	id="f0_b"
	transform="scale(0.001,-0.001)" />

	<path d="M495,-21.3c0,0,-189.4,0,-299.4,117.6C195.6,96.3,84,215.4,84,415.6c0,0,0,204.7,111.6,322.3c0,0,113,117.7,308.6,117.7c0,0,62.6,0,122.2,-13.8c0,0,61.1,-13.7,117.6,-39.7l0,-128.3c0,0,-58,32,-116.1,47.3c0,0,-58,16.8,-119.1,16.8c0,0,-133,0,-206.3,-84c0,0,-74.9,-84,-74.9,-238.3c0,0,0,-152.8,73.4,-236.8c0,0,74.8,-84.1,207.8,-84.1c0,0,61.1,0,119.1,15.3c0,0,58.1,16.8,116.1,48.9L744,30.6c0,0,-56.5,-26,-117.6,-38.1c0,0,-62.6,-13.8,-131.4,-13.8Z" 
	id="f0_6"
	transform="scale(0.001,-0.001)" />

	<path d="M137.5,0l0,1159.6l139,0l0,-455.3c0,0,48.9,76.4,114.6,113.1c0,0,67.2,38.2,154.3,38.2c0,0,145.2,0,218.5,-88.7c0,0,73.3,-90.1,73.3,-262.7L837.2,0L699.7,0l0,499.6c0,0,0,117.6,-45.8,175.7c0,0,-45.8,59.6,-139,59.6c0,0,-110,0,-174.2,-70.3c0,0,-64.2,-70.3,-64.2,-192.5L276.5,0Z" 
	id="f0_f"
	transform="scale(0.001,-0.001)" />

	<path d="M456.8,-21.3c0,0,-77.9,0,-166.5,16.8c0,0,-90.2,18.3,-186.4,53.4l0,154.3c0,0,91.7,-50.4,180.3,-76.4c0,0,88.6,-27.5,172.6,-27.5c0,0,129.9,0,200.1,50.4c0,0,70.3,52,70.3,145.2c0,0,0,82.5,-50.4,128.3c0,0,-50.4,47.4,-166.5,70.3l-91.7,16.8c0,0,-168,33.6,-242.9,105.4c0,0,-76.4,71.8,-76.4,200.1c0,0,0,146.7,103.9,232.3c0,0,105.4,85.5,287.2,85.5c0,0,79.5,0,160.4,-13.7c0,0,81,-15.3,166.6,-42.8l0,-148.2c0,0,-85.6,41.2,-162,61.1c0,0,-76.4,21.4,-146.6,21.4c0,0,-123.8,0,-189.5,-47.4c0,0,-67.2,-48.9,-67.2,-137.5c0,0,0,-73.3,44.3,-110c0,0,44.3,-38.2,168,-61.1l90.2,-19.8c0,0,169.6,-32.1,249,-111.6c0,0,81,-80.9,81,-216.9c0,0,0,-162,-108.5,-244.5c0,0,-108.5,-83.9,-319.3,-83.9Z" 
	id="f0_z"
	transform="scale(0.001,-0.001)" />

	<path d="M120.7,-317.7l0,116.1l79.4,0c0,0,56.6,0,87.1,26c0,0,32.1,27.5,70.3,126.8l24.4,61L44.3,834.2l145.1,0L450.7,181.8L711.9,834.2l146.7,0L490.4,-76.3c0,0,-58,-149.7,-113,-195.5c0,0,-55,-45.9,-148.2,-45.9Z" 
	id="f0_r"
	transform="scale(0.001,-0.001)" />

	<path d="M375.8,-21.3c0,0,-67.2,0,-140.5,12.2c0,0,-73.4,12.2,-152.8,39.7l0,140.5c0,0,76.4,-39.7,149.7,-58c0,0,73.4,-19.9,146.7,-19.9c0,0,96.2,0,148.2,32.1c0,0,51.9,33.6,51.9,94.7c0,0,0,55,-36.6,84c0,0,-38.2,30.6,-165,58.1l-48.9,12.2c0,0,-126.8,26,-183.4,81c0,0,-56.5,56.5,-56.5,152.8c0,0,0,119.1,82.5,183.3c0,0,84,64.2,238.3,64.2c0,0,74.9,0,142.1,-10.7c0,0,67.3,-12.3,123.8,-35.2l0,-129.8c0,0,-58.1,30.5,-120.7,44.3c0,0,-62.7,15.2,-129.9,15.2c0,0,-102.3,0,-152.8,-30.5c0,0,-50.4,-32.1,-50.4,-94.7c0,0,0,-47.4,35.2,-74.9c0,0,36.6,-27.5,148.2,-51.9l45.8,-10.7c0,0,146.7,-30.6,207.8,-87.1c0,0,62.6,-58.1,62.6,-160.4c0,0,0,-116.1,-91.7,-183.4c0,0,-93.1,-67.1,-253.6,-67.1Z" 
	id="f0_g"
	transform="scale(0.001,-0.001)" />

	<path d="M420.1,0c0,0,-158.8,0,-218.4,58.1c0,0,-61.1,59.5,-61.1,216.9l0,453.8l-100.9,0l0,105.4l100.9,0l0,238.3l139,0l0,-238.3l282.6,0l0,-105.4l-282.6,0l0,-453.8c0,0,0,-102.4,27.5,-131.4c0,0,27.5,-29,113,-29l142.1,0L562.2,0Z" 
	id="f0_c"
	transform="scale(0.001,-0.001)" />

	<path d="M137.5,0l0,834.2l139,0l0,-129.9c0,0,45.9,77.9,111.6,114.6c0,0,65.7,36.7,155.8,36.7c0,0,91.7,0,154.3,-45.9c0,0,64.2,-47.3,96.2,-135.9c0,0,50.5,93.1,122.3,137.5c0,0,71.8,44.3,168,44.3c0,0,131.4,0,201.7,-91.7c0,0,71.8,-91.7,71.8,-259.7L1358.2,0l-139,0l0,499.6c0,0,0,119.2,-41.3,177.2c0,0,-42.8,58.1,-129.8,58.1c0,0,-107,0,-168.1,-70.3c0,0,-62.6,-70.3,-62.6,-192.5L817.4,0L678.3,0l0,499.6c0,0,0,120.7,-41.2,177.2c0,0,-42.8,58.1,-131.4,58.1c0,0,-105.4,0,-166.5,-70.3c0,0,-62.7,-71.8,-62.7,-192.5L276.5,0Z" 
	id="f0_8"
	transform="scale(0.001,-0.001)" />

	<path d="M143,0l0,834l138,0L281,0Zm0,985l0,174l138,0l0,-174Z" 
	id="f0_d"
	transform="scale(0.001,-0.001)" />

	<path d="M137.5,0l0,834.2l139,0l0,-129.9c0,0,42.8,76.4,111.6,113.1c0,0,70.2,38.2,169.5,38.2c0,0,13.8,0,30.6,-1.6c0,0,16.8,-3,38.2,-6.1l1.5,-142.1c0,0,-24.4,13.8,-50.4,19.9c0,0,-27.5,6.1,-61.1,6.1c0,0,-116.1,0,-177.2,-74.9c0,0,-62.7,-76.3,-62.7,-216.9l0,-440Z" 
	id="f0_l"
	transform="scale(0.001,-0.001)" />

	<path d="M407.9,93.2c0,0,113.1,0,181.8,79.4c0,0,70.3,81,70.3,215.5l0,30.5l-137.5,0c0,0,-166.5,0,-230.7,-36.7c0,0,-64.2,-38.1,-64.2,-129.8c0,0,0,-73.3,47.4,-116.1c0,0,48.9,-42.8,132.9,-42.8ZM371.3,-21.3c0,0,-128.4,0,-203.2,71.7c0,0,-76.4,71.8,-76.4,192.5c0,0,0,140.6,93.2,212.4c0,0,94.7,71.8,282.6,71.8l192.5,0l0,13.7c0,0,0,94.8,-62.6,145.2c0,0,-62.7,51.9,-175.7,51.9c0,0,-71.8,0,-139.1,-16.8c0,0,-67.2,-16.8,-129.8,-51.9l0,126.8c0,0,74.8,30.5,145.1,44.3c0,0,71.8,15.3,139,15.3c0,0,180.3,0,268.9,-93.2c0,0,90.2,-94.8,90.2,-285.7L796,0L660,0l0,126.8c0,0,-47.4,-76.4,-117.6,-111.5c0,0,-70.3,-36.6,-171.1,-36.6Z" 
	id="f0_k"
	transform="scale(0.001,-0.001)" />

	<path d="M458.3,114.6c0,0,111.6,0,172.7,81c0,0,62.6,82.5,62.6,230.7c0,0,0,149.7,-61.1,230.6c0,0,-62.6,82.5,-174.2,82.5c0,0,-110,0,-171.1,-80.9c0,0,-62.6,-82.5,-62.6,-232.2c0,0,0,-148.2,61.1,-229.2c0,0,62.6,-82.5,172.6,-82.5ZM444.6,-317.7c0,0,-71.8,0,-136,10.7c0,0,-64.2,12.2,-123.7,33.6l0,134.5c0,0,59.5,-33.6,117.6,-48.9c0,0,59.6,-15.3,120.7,-15.3c0,0,136,0,203.2,70.3c0,0,67.2,70.3,67.2,210.7l0,68.8c0,0,-42.8,-74.9,-108.5,-110C585.1,36.7,517.9,0,424.7,0c0,0,-152.8,0,-245.9,116.1c0,0,-94.8,117.7,-94.8,310.2c0,0,0,194,93.2,311.6c0,0,94.7,117.7,247.5,117.7c0,0,93.2,0,158.9,-36.7c0,0,67.2,-36.7,110,-111.5l0,126.8l136,0l0,-731.8c0,0,0,-210.8,-94.7,-314.7c0,0,-94.8,-105.4,-290.3,-105.4Z" 
	id="f0_x"
	transform="scale(0.001,-0.001)" />

	<path d="M143,0l0,1159l138,0L281,0Z" 
	id="f0_a"
	transform="scale(0.001,-0.001)" />

	<path d="M508.8,93.2c0,0,110,0,171.1,85.6c0,0,62.6,85.5,62.6,236.8c0,0,0,152.7,-61.1,238.3c0,0,-62.6,85.5,-172.6,85.5c0,0,-108.5,0,-169.6,-85.5c0,0,-62.7,-85.6,-62.7,-238.3c0,0,0,-151.3,61.1,-236.8c0,0,62.7,-85.6,171.2,-85.6ZM137.5,-317.7l0,1151.9l139,0l0,-126.8c0,0,42.8,74.8,108.5,111.5c0,0,65.7,36.7,157.4,36.7c0,0,152.7,0,247.5,-120.7c0,0,96.2,-122.3,96.2,-319.3c0,0,0,-195.6,-94.7,-316.3c0,0,-96.3,-120.6,-249,-120.6c0,0,-91.7,0,-157.4,35.1c0,0,-65.7,36.6,-108.5,111.5l0,-443Z" 
	id="f0_9"
	transform="scale(0.001,-0.001)" />

	<path d="M421.7,-21.3c0,0,-143.6,0,-218.5,88.5L128.3,328.5l0,505.7l137.5,0l0,-499.6c0,0,0,-119.2,45.9,-178.8c0,0,47.3,-59.5,139,-59.5c0,0,111.5,0,175.7,70.2c0,0,65.7,71.8,65.7,194.1l0,473.6l136,0L828.1,0l-136,0l0,126.8c0,0,-50.4,-74.9,-116.1,-111.5c0,0,-67.2,-36.6,-154.3,-36.6Z" 
	id="f0_i"
	transform="scale(0.001,-0.001)" />

	<path d="M137.5,0l0,1159.6l139,0l0,-684.5L686,834.2l174.1,0L417.1,444.6L880,0L699.7,0L276.5,407.9L276.5,0Z" 
	id="f0_1a"
	transform="scale(0.001,-0.001)" />

	<path d="M-27.4,-317.7l0,117.7l35,0c0,0,79.5,0,107,35.1c0,0,29,36.7,29,151.2l0,847.9l137.5,0l0,-847.9c0,0,0,-160.4,-61.1,-232.2c0,0,-61.1,-71.8,-195.6,-71.8Zm171,1303.1l0,174.2l137.5,0l0,-174.2Z" 
	id="f0_1q"
	transform="scale(0.001,-0.001)" />

	<path d="M508.8,93.2c0,0,110,0,171.1,85.6c0,0,62.6,85.5,62.6,236.8c0,0,0,152.7,-61.1,238.3c0,0,-62.6,85.5,-172.6,85.5c0,0,-108.5,0,-169.6,-85.5c0,0,-62.7,-85.6,-62.7,-238.3c0,0,0,-151.3,61.1,-236.8c0,0,62.7,-85.6,171.2,-85.6ZM542.4,-21.3c0,0,-91.7,0,-157.4,35.1c0,0,-65.7,36.6,-108.5,111.5L276.5,0l-139,0l0,1159.6l139,0l0,-452.2c0,0,42.8,74.8,108.5,111.5c0,0,65.7,36.7,157.4,36.7c0,0,152.7,0,247.5,-120.7c0,0,96.2,-122.3,96.2,-319.3c0,0,0,-195.6,-94.7,-316.3c0,0,-96.3,-120.6,-249,-120.6Z" 
	id="f0_m"
	transform="scale(0.001,-0.001)" />

	<path d="M282.6,0L62.6,834.2l137.5,0L372.8,183.3L542.4,834.2l161.9,0L876.9,183.3l171.2,650.9l135.9,0L965.6,0l-162,0L624.9,684.4L444.6,0Z" 
	id="f0_12"
	transform="scale(0.001,-0.001)" />

	<path d="M458.3,93.2c0,0,110,0,172.7,85.6c0,0,62.6,85.5,62.6,236.8c0,0,0,152.7,-62.6,238.3c0,0,-62.7,85.5,-172.7,85.5c0,0,-108.4,0,-171.1,-85.5c0,0,-62.6,-85.6,-62.6,-238.3c0,0,0,-151.3,62.6,-236.8c0,0,62.7,-85.6,171.1,-85.6ZM424.7,-21.3c0,0,-151.2,0,-245.9,120.6C178.8,99.3,84,220,84,415.6c0,0,0,197,94.8,317.7c0,0,94.7,122.3,245.9,122.3c0,0,93.2,0,158.9,-36.7c0,0,65.7,-36.7,110,-111.5l0,452.2l136,0L829.6,0l-136,0l0,125.3c0,0,-44.3,-74.9,-110,-110c0,0,-65.7,-36.6,-158.9,-36.6Z" 
	id="f0_h"
	transform="scale(0.001,-0.001)" />

	<path d="M161,0l0,189l158,0L319,0Z" 
	id="f0_1c"
	transform="scale(0.001,-0.001)" />

	<path d="M189.4,0l0,126.8l246,0l0,849.5L166.5,922.8l0,136l267.4,55l149.7,0l0,-987l246,0L829.6,0Z" 
	id="f0_2"
	transform="scale(0.001,-0.001)" />

	<path d="M629.4,-21.3c0,0,-253.6,0,-398.7,154.2c0,0,-145.1,154.3,-145.1,421.7c0,0,0,268.9,145.1,423.2c0,0,145.1,155.8,398.7,155.8c0,0,99.4,0,188,-26c0,0,88.6,-27.5,166.5,-80.9l0,-158.9c0,0,-76.4,71.8,-162,106.9c0,0,-87,35.2,-184.8,35.2c0,0,-191,0,-291.8,-116.1c0,0,-100.9,-117.7,-100.9,-339.2c0,0,0,-220,100.9,-336.1c0,0,100.8,-117.7,291.8,-117.7c0,0,97.8,0,183.3,35.2c0,0,87.1,35.1,163.5,106.9l0,-157.3c0,0,-79.5,-55,-168.1,-81c0,0,-88.6,-25.9,-186.4,-25.9Z" 
	id="f0_15"
	transform="scale(0.001,-0.001)" />

	<path d="M146,699l0,414l127,0l0,-414Z" 
	id="f0_24"
	transform="scale(0.001,-0.001)" />

	<path d="M559.2,-21.3c0,0,-210.9,0,-319.3,109.9c0,0,-108.5,111.5,-108.5,328.5l0,696.7l152.8,0l0,-676.9c0,0,0,-180.2,64.1,-258.1c0,0,64.2,-79.5,210.9,-79.5c0,0,143.6,0,207.7,77.9c0,0,65.7,79.5,65.7,259.7l0,676.9l152.8,0l0,-696.7c0,0,0,-217,-108.5,-327c0,0,-108.4,-111.4,-317.7,-111.4Z" 
	id="f0_p"
	transform="scale(0.001,-0.001)" />

	<path d="M488.9,571.4c0,0,105.4,0,161.9,53.5c0,0,58.1,55,58.1,155.8c0,0,0,99.3,-56.5,152.8c0,0,-58.1,55,-163.5,55l-189.5,0l0,-417.1ZM149.7,0l0,1113.8l339.2,0c0,0,187.9,0,282.6,-84.1c0,0,96.3,-85.5,96.3,-249c0,0,0,-165,-94.7,-249c0,0,-96.3,-85.6,-284.2,-85.6l-189.5,0L299.4,0Z" 
	id="f0_s"
	transform="scale(0.001,-0.001)" />

	<path d="M357.5,0L44.3,834.2l145.1,0L450.7,132.9L711.9,834.2l146.7,0L543.9,0Z" 
	id="f0_q"
	transform="scale(0.001,-0.001)" />

	<path d="M178,0l0,189l158,0L336,0Zm0,600l0,189l158,0l0,-189Z" 
	id="f0_n"
	transform="scale(0.001,-0.001)" />

	<path d="M111.5,0l0,126.8c0,0,85.6,88.6,233.8,236.8c0,0,148.2,149.7,186.4,194c0,0,71.8,81,100.8,137.5c0,0,29,56.6,29,110c0,0,0,88.7,-62.6,145.2c0,0,-62.6,56.5,-162,56.5c0,0,-71.8,0,-149.7,-24.4c0,0,-79.4,-26,-168,-74.9l0,151.3c0,0,90.1,36.6,169.6,55c0,0,79.4,19.8,145.1,19.8c0,0,172.6,0,275,-87.1c0,0,103.9,-87.1,103.9,-230.7c0,0,0,-68.7,-26,-129.8c0,0,-26,-62.7,-93.2,-145.2c0,0,-19.8,-22.9,-119.2,-125.2c0,0,-99.3,-103.9,-282.6,-288.8l527.1,0L818.9,0Z" 
	id="f0_t"
	transform="scale(0.001,-0.001)" />

	<path d="M618.8,-21.3c0,0,-241.4,0,-360.6,114.5c0,0,-119.2,116.1,-119.2,351.4l0,669.2l287.3,0l0,-669.2c0,0,0,-137.5,44.3,-195.6c0,0,45.8,-59.6,148.2,-59.6c0,0,103.8,0,148.1,58.1c0,0,45.9,59.6,45.9,197.1l0,669.2l287.2,0l0,-669.2c0,0,0,-235.3,-119.2,-349.9c0,0,-119.1,-116,-362,-116Z" 
	id="f1_13"
	transform="scale(0.001,-0.001)" />

	<path d="M444.6,-21.3c0,0,-84,0,-171.1,12.2c0,0,-88.6,12.2,-181.8,39.7l0,201.6c0,0,79.4,-38.2,163.4,-56.5c0,0,84.1,-19.9,169.6,-19.9c0,0,79.5,0,117.7,21.4c0,0,39.7,21.4,39.7,64.2c0,0,0,35.1,-26,51.9c0,0,-27.5,18.4,-110,27.5l-45.8,6.1c0,0,-178.8,23,-250.6,82.5c0,0,-71.8,61.2,-71.8,184.9c0,0,0,132.9,90.2,197.1c0,0,91.6,64.2,279.5,64.2c0,0,74.9,0,155.9,-10.7c0,0,80.9,-12.3,177.2,-36.7l0,-203.2c0,0,-85.6,36.7,-165,53.5c0,0,-81,18.3,-151.3,18.3c0,0,-76.3,0,-113,-18.3c0,0,-36.7,-19.9,-36.7,-58.1c0,0,0,-32.1,27.5,-48.9c0,0,27.5,-18.3,100.9,-25.9l45.8,-7.7c0,0,206.2,-26,276.5,-85.5c0,0,70.3,-59.6,70.3,-186.4c0,0,0,-134.5,-97.8,-200.2c0,0,-99.3,-67.1,-293.3,-67.1Z" 
	id="f1_a"
	transform="scale(0.001,-0.001)" />

	<path d="M687.5,508.8c0,0,0,74.8,-44.3,120.6c0,0,-44.3,47.4,-116.1,47.4c0,0,-77.9,0,-126.8,-42.8c0,0,-48.9,-44.3,-59.6,-125.2ZM542.4,-21.3c0,0,-226.1,0,-351.4,114.5c0,0,-126.8,114.6,-126.8,322.4c0,0,0,204.7,123.7,322.3c0,0,123.8,117.7,340.7,117.7c0,0,197.1,0,314.7,-119.2c0,0,117.7,-119.2,117.7,-317.8l0,-74.8l-623.4,0c0,0,9.2,-94.8,67.3,-140.6c0,0,58,-47.4,163.4,-47.4c0,0,84.1,0,171.1,24.5c0,0,88.7,24.4,183.4,74.8l0,-204.7c0,0,-96.3,-36.6,-191,-53.4c0,0,-94.7,-18.3,-189.4,-18.3Z" 
	id="f1_b"
	transform="scale(0.001,-0.001)" />

	<path d="M126.8,0l0,834.2l267.4,0l0,-136c0,0,51.9,81,117.6,119.2c0,0,67.2,38.2,160.4,38.2c0,0,13.8,0,29.1,-1.6c0,0,16.8,-1.5,45.8,-4.6l1.5,-242.9c0,0,-35.1,16.8,-70.3,24.5c0,0,-35.1,7.6,-70.2,7.6c0,0,-102.4,0,-157.4,-65.7c0,0,-56.5,-65.7,-56.5,-189.4L394.2,0Z" 
	id="f1_d"
	transform="scale(0.001,-0.001)" />

	<path d="M42.8,0L368.2,436.9L70.3,834.2l161.9,0L453.8,537.8L675.3,834.2l161.9,0L536.3,427.8L854,0L692.1,0L447.6,326.9L204.7,0Z" 
	id="f0_v"
	transform="scale(0.001,-0.001)" />

	<path d="M-13,-359l0,106l790,0l0,-106Z" 
	id="f0_w"
	transform="scale(0.001,-0.001)" />

	<path d="M601.9,99.3c0,0,163.5,0,258.2,122.2c0,0,96.3,123.8,96.3,333.1c0,0,0,210.8,-94.7,333c0,0,-96.3,123.8,-259.8,123.8c0,0,-165,0,-261.2,-122.2c0,0,-96.3,-123.8,-96.3,-334.6c0,0,0,-209.3,96.3,-331.5c0,0,96.2,-123.8,261.2,-123.8Zm0,-120.6c0,0,-235.2,0,-375.8,155.7c0,0,-140.5,155.9,-140.5,420.2c0,0,0,264.3,140.5,421.7c0,0,140.6,157.3,375.8,157.3c0,0,233.8,0,372.8,-157.3c0,0,140.6,-157.4,140.6,-421.7c0,0,0,-262.8,-139,-418.6c0,0,-140.6,-157.3,-374.4,-157.3Z" 
	id="f0_3"
	transform="scale(0.001,-0.001)" />

	<path d="M679.9,985.4l0,172.7l139,0l0,-172.7ZM165,0l0,728.8l-131.4,0l0,105.4l131.4,0l0,58c0,0,0,137.5,64.2,201.7c0,0,65.7,65.7,198.6,65.7l139,0l0,-113.1l-131.4,0c0,0,-74.8,0,-102.3,-30.5c0,0,-29.1,-30.6,-29.1,-107l0,-74.8l514.9,0L818.9,0l-139,0l0,728.8l-375.9,0L304,0Z" 
	id="f0_1s"
	transform="scale(0.001,-0.001)" />

	<path d="M264.3,297.9c0,0,-42.8,0,-79.4,16.8c0,0,-36.7,16.8,-64.2,44.3c0,0,-29,29.1,-44.3,67.3c0,0,-16.8,38.1,-16.8,82.5c0,0,0,41.2,15.3,77.9c0,0,16.8,38.2,44.3,65.7c0,0,29,27.5,65.7,42.7c0,0,36.6,16.8,79.4,16.8c0,0,42.8,0,81,-15.2c0,0,38.2,-16.8,65.7,-44.3c0,0,29,-27.5,45.8,-64.2c0,0,16.8,-38.2,16.8,-79.4c0,0,0,-44.4,-16.8,-82.5c0,0,-16.8,-38.2,-44.3,-65.7c0,0,-29,-29.1,-67.2,-45.9c0,0,-38.2,-16.8,-81,-16.8Z" 
	id="f2_q"
	transform="scale(0.001,-0.001)" />

	<path d="M73,355l0,123l403,0l0,-123Z" 
	id="f0_1o"
	transform="scale(0.001,-0.001)" />

	<path d="M149.7,0l0,1113.8l201.7,0l495,-932l0,932l145.1,0L991.5,0L789.9,0l-495,930.4L294.9,0Z" 
	id="f0_11"
	transform="scale(0.001,-0.001)" />

	<path d="M149,0l0,1113l705,0l0,-128l-555,0l0,-329l530,0l0,-126l-530,0l0,-404l567,0L866,0Z" 
	id="f0_1n"
	transform="scale(0.001,-0.001)" />

	<path d="M488.9,594.3c0,0,110,0,165,50.4c0,0,55,50.4,55,148.2c0,0,0,97.8,-55,146.7c0,0,-55,48.9,-165,48.9l-189.5,0l0,-394.2ZM149.7,0l0,1113.8l339.2,0c0,0,191,0,284.2,-79.5c0,0,94.7,-81,94.7,-241.4c0,0,0,-105.4,-48.9,-174.1c0,0,-48.9,-70.3,-142.1,-97.8c0,0,48.9,-15.3,94.7,-68.8c0,0,45.9,-55,91.7,-148.2L1017.5,0L855.6,0L711.9,285.7c0,0,-55,111.5,-106.9,148.2c0,0,-51.9,36.7,-140.6,36.7l-165,0L299.4,0Z" 
	id="f0_1u"
	transform="scale(0.001,-0.001)" />

	<path d="M458.3,93.2c0,0,110,0,172.7,85.6c0,0,62.6,85.5,62.6,236.8c0,0,0,152.7,-62.6,238.3c0,0,-62.7,85.5,-172.7,85.5c0,0,-108.4,0,-171.1,-85.5c0,0,-62.6,-85.6,-62.6,-238.3c0,0,0,-151.3,62.6,-236.8c0,0,62.7,-85.6,171.1,-85.6ZM693.6,-317.7l0,443c0,0,-44.3,-74.9,-110,-110c0,0,-65.7,-36.6,-158.9,-36.6c0,0,-151.2,0,-245.9,120.6C178.8,99.3,84,220,84,415.6c0,0,0,197,94.8,317.7c0,0,94.7,122.3,245.9,122.3c0,0,93.2,0,158.9,-36.7c0,0,65.7,-36.7,110,-111.5l0,126.8l136,0l0,-1151.9Z" 
	id="f0_13"
	transform="scale(0.001,-0.001)" />

	<path d="M727.2,411L521,964L317.8,411ZM10.7,0L436.9,1113.8l169.6,0L1031.3,0L875.4,0L773.1,285.7l-501.2,0L169.6,0Z" 
	id="f0_1h"
	transform="scale(0.001,-0.001)" />

	<path d="M149,0l0,1113l640,0l0,-128l-490,0l0,-327l441,0l0,-127l-441,0L299,0Z" 
	id="f0_19"
	transform="scale(0.001,-0.001)" />


</defs>
</svg>