<?xml version="1.0" encoding="UTF-8" standalone="no"?>
<!DOCTYPE svg PUBLIC "-//W3C//DTD SVG 1.1//EN"
"http://www.w3.org/Graphics/SVG/1.1/DTD/svg11.dtd">
<svg viewBox="0 0 1210 1210" version="1.1" xmlns="http://www.w3.org/2000/svg" xmlns:xlink="http://www.w3.org/1999/xlink">
<defs>
<style type="text/css"><![CDATA[
.g2_177{
fill: none;
stroke: #418AB3;
stroke-width: 2;
stroke-linecap: butt;
stroke-linejoin: miter;
stroke-miterlimit: 7;
}
.g3_177{
fill: none;
stroke: #0000EE;
stroke-width: 2;
stroke-linecap: butt;
stroke-linejoin: miter;
}
.g1_177{
fill: #FFFFFF;
}
]]></style>
</defs>
<path fill-rule="evenodd" d="M0,0L1210,0l0,1210L0,1210L0,0Z" class="g1_177" />
<path fill-rule="evenodd" d="M0,0L1210,0l0,1210L0,1210L0,0Z" class="g1_177" />
<path fill-rule="evenodd" d="M137.5,74.9l0,-1.6l0.2,-1.5l0.1,-1.5l0.3,-1.5l0.5,-1.4l0.3,-1.6l0.6,-1.3l0.4,-1.6l0.8,-1.3l0.8,-1.3L142.2,59L143,57.7l0.9,-1.2l1.1,-1l1.1,-1.3l1,-1l1.1,-0.9l1.2,-1l1.2,-0.9L152,49.7l1.4,-0.8l1.4,-0.6l1.3,-0.6l1.4,-0.5L159,46.7l1.6,-0.3l1.3,-0.3L163.5,46L165,45.8l1.5,0l761.5,0l1.5,0L931,46l1.6,0.1l1.3,0.3l1.6,0.3l1.3,0.5l1.6,0.5l1.3,0.6l1.4,0.6l1.4,0.8l1.2,0.7l1.2,0.9l1.3,1l1.2,0.9l1,1l1.1,1.3l0.9,1l0.9,1.2l1,1.3l0.7,1.3l0.8,1.3l0.6,1.3l0.6,1.6l0.5,1.3l0.4,1.6l0.3,1.4l0.3,1.5l0.2,1.5l0.1,1.5l0,1.6L957,191l-0.2,1.3l0,1.6l-0.3,1.5l-0.3,1.5l-0.3,1.6l-0.4,1.3l-0.5,1.6l-0.6,1.3l-0.6,1.4l-0.8,1.2l-0.7,1.4l-1,1.2l-0.9,1.3l-0.9,1.2l-1.1,1l-1,1l-1.2,1l-1.3,0.9l-1.2,1l-1.2,0.7l-1.4,0.6l-1.4,0.8l-1.3,0.6l-1.6,0.5l-1.3,0.4l-1.6,0.3l-1.3,0.3l-1.6,0.2l-1.5,0.1l-1.5,0L166.5,220l0,-0.2l-1.5,0l-1.5,-0.1l-1.6,-0.2l-1.3,-0.3L159,218.9l-1.5,-0.4L156.1,218l-1.3,-0.6l-1.4,-0.6L152,216l-1.4,-0.7l-1.2,-1l-1.2,-0.9l-1.1,-0.9l-1,-1.1l-1.1,-1l-1.1,-1.2L143,207.9l-0.8,-1.2l-0.7,-1.4l-0.8,-1.2l-0.8,-1.4l-0.4,-1.3l-0.6,-1.6l-0.3,-1.3l-0.5,-1.6l-0.3,-1.5l-0.1,-1.5l-0.2,-1.6l0,-1.3l0,-116.1Z" class="g1_177" />
<path d="M137.5,74.9l0,-1.6l0.2,-1.5l0.1,-1.5l0.3,-1.5l0.5,-1.4l0.3,-1.6l0.6,-1.3l0.4,-1.6l0.8,-1.3l0.8,-1.3L142.2,59L143,57.7l0.9,-1.2l1.1,-1l1.1,-1.3l1,-1l1.1,-0.9l1.2,-1l1.2,-0.9L152,49.7l1.4,-0.8l1.4,-0.6l1.3,-0.6l1.4,-0.5L159,46.7l1.6,-0.3l1.3,-0.3L163.5,46L165,45.8l1.5,0l761.5,0l1.5,0L931,46l1.6,0.1l1.3,0.3l1.6,0.3l1.3,0.5l1.6,0.5l1.3,0.6l1.4,0.6l1.4,0.8l1.2,0.7l1.2,0.9l1.3,1l1.2,0.9l1,1l1.1,1.3l0.9,1l0.9,1.2l1,1.3l0.7,1.3l0.8,1.3l0.6,1.3l0.6,1.6l0.5,1.3l0.4,1.6l0.3,1.4l0.3,1.5l0.2,1.5l0.1,1.5l0,1.6L957,191l-0.2,1.3l0,1.6l-0.3,1.5l-0.3,1.5l-0.3,1.6l-0.4,1.3l-0.5,1.6l-0.6,1.3l-0.6,1.4l-0.8,1.2l-0.7,1.4l-1,1.2l-0.9,1.3l-0.9,1.2l-1.1,1l-1,1l-1.2,1l-1.3,0.9l-1.2,1l-1.2,0.7l-1.4,0.6l-1.4,0.8l-1.3,0.6l-1.6,0.5l-1.3,0.4l-1.6,0.3l-1.3,0.3l-1.6,0.2l-1.5,0.1l-1.5,0L166.5,220l0,-0.2l-1.5,0l-1.5,-0.1l-1.6,-0.2l-1.3,-0.3L159,218.9l-1.5,-0.4L156.1,218l-1.3,-0.6l-1.4,-0.6L152,216l-1.4,-0.7l-1.2,-1l-1.2,-0.9l-1.1,-0.9l-1,-1.1l-1.1,-1l-1.1,-1.2L143,207.9l-0.8,-1.2l-0.7,-1.4l-0.8,-1.2l-0.8,-1.4l-0.4,-1.3l-0.6,-1.6l-0.3,-1.3l-0.5,-1.6l-0.3,-1.5l-0.1,-1.5l-0.2,-1.6l0,-1.3l0,-116.1Z" class="g2_177" />
<path d="M284,125l452,0" class="g3_177" />
<path d="M285,158l456,0" class="g3_177" />
<path d="M294,191l455,0" class="g3_177" />
</svg>