<?xml version="1.0" encoding="UTF-8" standalone="no"?>
<!DOCTYPE svg PUBLIC "-//W3C//DTD SVG 1.1//EN"
"http://www.w3.org/Graphics/SVG/1.1/DTD/svg11.dtd">
<svg viewBox="0 0 1210 1045" version="1.1" xmlns="http://www.w3.org/2000/svg" xmlns:xlink="http://www.w3.org/1999/xlink">
<defs>
<style type="text/css"><![CDATA[
.g5_82{
fill: #A6B727;
}
.g2_82{
fill: #418AB3;
}
.g3_82{
fill: #CEDAE4;
}
.g6_82{
fill: none;
stroke: #FFFFFF;
stroke-width: 1;
stroke-linecap: butt;
stroke-linejoin: miter;
}
.g4_82{
fill: #E8EDF2;
}
.g7_82{
fill: none;
stroke: #418AB3;
stroke-width: 2;
stroke-linecap: butt;
stroke-linejoin: miter;
stroke-miterlimit: 7;
}
.g1_82{
fill: #FFFFFF;
}
]]></style>
</defs>
<path fill-rule="evenodd" d="M0,0L1210,0l0,1045L0,1045L0,0Z" class="g1_82" />
<path fill-rule="evenodd" d="M0,0L1210,0l0,1045L0,1045L0,0Z" class="g1_82" />
<image x="828" y="984" width="334" height="49" xlink:href="img/1.png" />
<path fill-rule="evenodd" d="M174,173l262,0l0,40l-262,0l0,-40Z" class="g2_82" />
<path fill-rule="evenodd" d="M436,173l152,0l0,40l-152,0l0,-40Z" class="g2_82" />
<path fill-rule="evenodd" d="M588,173l88,0l0,40l-88,0l0,-40Z" class="g2_82" />
<path fill-rule="evenodd" d="M676,173l356,0l0,40l-356,0l0,-40Z" class="g2_82" />
<path fill-rule="evenodd" d="M174,213l262,0l0,25l-262,0l0,-25Z" class="g2_82" />
<path fill-rule="evenodd" d="M436,213l152,0l0,25l-152,0l0,-25Z" class="g3_82" />
<path fill-rule="evenodd" d="M588,213l88,0l0,25l-88,0l0,-25Z" class="g3_82" />
<path fill-rule="evenodd" d="M676,213l356,0l0,25l-356,0l0,-25Z" class="g3_82" />
<path fill-rule="evenodd" d="M174,238l262,0l0,26l-262,0l0,-26Z" class="g2_82" />
<path fill-rule="evenodd" d="M436,238l152,0l0,26l-152,0l0,-26Z" class="g4_82" />
<path fill-rule="evenodd" d="M588,238l88,0l0,26l-88,0l0,-26Z" class="g4_82" />
<path fill-rule="evenodd" d="M676,238l356,0l0,26l-356,0l0,-26Z" class="g4_82" />
<path fill-rule="evenodd" d="M174,264l262,0l0,53l-262,0l0,-53Z" class="g2_82" />
<path fill-rule="evenodd" d="M436,264l152,0l0,53l-152,0l0,-53Z" class="g3_82" />
<path fill-rule="evenodd" d="M588,264l88,0l0,53l-88,0l0,-53Z" class="g3_82" />
<path fill-rule="evenodd" d="M676,264l356,0l0,53l-356,0l0,-53Z" class="g3_82" />
<path fill-rule="evenodd" d="M174,317l262,0l0,26l-262,0l0,-26Z" class="g2_82" />
<path fill-rule="evenodd" d="M436,317l152,0l0,26l-152,0l0,-26Z" class="g4_82" />
<path fill-rule="evenodd" d="M588,317l88,0l0,26l-88,0l0,-26Z" class="g4_82" />
<path fill-rule="evenodd" d="M676,317l356,0l0,26l-356,0l0,-26Z" class="g4_82" />
<path fill-rule="evenodd" d="M174,343l262,0l0,25l-262,0l0,-25Z" class="g2_82" />
<path fill-rule="evenodd" d="M436,343l152,0l0,25l-152,0l0,-25Z" class="g3_82" />
<path fill-rule="evenodd" d="M588,343l88,0l0,25l-88,0l0,-25Z" class="g3_82" />
<path fill-rule="evenodd" d="M676,343l356,0l0,25l-356,0l0,-25Z" class="g3_82" />
<path fill-rule="evenodd" d="M174,368l262,0l0,110l-262,0l0,-110Z" class="g5_82" />
<path fill-rule="evenodd" d="M436,368l152,0l0,110l-152,0l0,-110Z" class="g5_82" />
<path fill-rule="evenodd" d="M588,368l88,0l0,110l-88,0l0,-110Z" class="g5_82" />
<path fill-rule="evenodd" d="M676,368l356,0l0,110l-356,0l0,-110Z" class="g5_82" />
<path fill-rule="evenodd" d="M174,478l262,0l0,81l-262,0l0,-81Z" class="g5_82" />
<path fill-rule="evenodd" d="M436,478l152,0l0,81l-152,0l0,-81Z" class="g5_82" />
<path fill-rule="evenodd" d="M588,478l88,0l0,81l-88,0l0,-81Z" class="g5_82" />
<path fill-rule="evenodd" d="M676,478l356,0l0,81l-356,0l0,-81Z" class="g5_82" />
<path fill-rule="evenodd" d="M174,559l262,0l0,53l-262,0l0,-53Z" class="g2_82" />
<path fill-rule="evenodd" d="M436,559l152,0l0,53l-152,0l0,-53Z" class="g4_82" />
<path fill-rule="evenodd" d="M588,559l88,0l0,53l-88,0l0,-53Z" class="g4_82" />
<path fill-rule="evenodd" d="M676,559l356,0l0,53l-356,0l0,-53Z" class="g4_82" />
<path fill-rule="evenodd" d="M174,612l262,0l0,54l-262,0l0,-54Z" class="g2_82" />
<path fill-rule="evenodd" d="M436,612l152,0l0,54l-152,0l0,-54Z" class="g3_82" />
<path fill-rule="evenodd" d="M588,612l88,0l0,54l-88,0l0,-54Z" class="g3_82" />
<path fill-rule="evenodd" d="M676,612l356,0l0,54l-356,0l0,-54Z" class="g3_82" />
<path fill-rule="evenodd" d="M174,666l262,0l0,53l-262,0l0,-53Z" class="g2_82" />
<path fill-rule="evenodd" d="M436,666l152,0l0,53l-152,0l0,-53Z" class="g4_82" />
<path fill-rule="evenodd" d="M588,666l88,0l0,53l-88,0l0,-53Z" class="g4_82" />
<path fill-rule="evenodd" d="M676,666l356,0l0,53l-356,0l0,-53Z" class="g4_82" />
<path fill-rule="evenodd" d="M174,719l262,0l0,41l-262,0l0,-41Z" class="g2_82" />
<path fill-rule="evenodd" d="M436,719l152,0l0,41l-152,0l0,-41Z" class="g3_82" />
<path fill-rule="evenodd" d="M588,719l88,0l0,41l-88,0l0,-41Z" class="g3_82" />
<path fill-rule="evenodd" d="M676,719l356,0l0,41l-356,0l0,-41Z" class="g3_82" />
<path d="M173.5,214.5l0,-42" class="g6_82" />
<path d="M436.5,213.5l0,-40" class="g6_82" />
<path d="M173.5,174.5l264,0" class="g6_82" />
<path d="M436.5,213.5l0,-40" class="g6_82" />
<path d="M587.5,213.5l0,-40" class="g6_82" />
<path d="M436.5,174.5l152,0" class="g6_82" />
<path d="M587.5,213.5l0,-40" class="g6_82" />
<path d="M676.5,214.5l0,-42" class="g6_82" />
<path d="M587.5,174.5l90,0" class="g6_82" />
<path d="M676.5,213.5l0,-40" class="g6_82" />
<path d="M1031.5,214.5l0,-42" class="g6_82" />
<path d="M676.5,174.5l356,0" class="g6_82" />
<path d="M173.5,239.5l0,-27" class="g6_82" />
<path d="M436.5,238.5l0,-25" class="g6_82" />
<path fill-rule="evenodd" d="M436.8,213.4l-0.8,2l-261.1,0l-0.6,-2l0.6,-2.1l261.1,0l0.8,2.1Z" class="g1_82" />
<path d="M436.5,238.5l0,-25" class="g6_82" />
<path d="M587.5,238.5l0,-25" class="g6_82" />
<path fill-rule="evenodd" d="M588,213.4l-0.7,2l-149.9,0l-0.6,-2l0.6,-2.1l149.9,0l0.7,2.1Z" class="g1_82" />
<path d="M587.5,238.5l0,-25" class="g6_82" />
<path d="M676.5,239.5l0,-27" class="g6_82" />
<path fill-rule="evenodd" d="M677,213.4l-0.7,2l-87.6,0l-0.7,-2l0.7,-2.1l87.6,0l0.7,2.1Z" class="g1_82" />
<path d="M676.5,238.5l0,-25" class="g6_82" />
<path d="M1031.5,239.5l0,-27" class="g6_82" />
<path fill-rule="evenodd" d="M1032.3,213.4l-0.6,2l-354.1,0l-0.6,-2l0.6,-2.1l354.1,0l0.6,2.1Z" class="g1_82" />
<path d="M173.5,264.5l0,-26" class="g6_82" />
<path d="M436.5,264.5l0,-26" class="g6_82" />
<path d="M174.5,239.5l262,0" class="g6_82" />
<path d="M436.5,264.5l0,-26" class="g6_82" />
<path d="M587.5,264.5l0,-26" class="g6_82" />
<path d="M436.5,239.5l152,0" class="g6_82" />
<path d="M587.5,264.5l0,-26" class="g6_82" />
<path d="M676.5,264.5l0,-26" class="g6_82" />
<path d="M588.5,239.5l88,0" class="g6_82" />
<path d="M676.5,264.5l0,-26" class="g6_82" />
<path d="M1031.5,264.5l0,-26" class="g6_82" />
<path d="M676.5,239.5l356,0" class="g6_82" />
<path d="M173.5,318.5l0,-55" class="g6_82" />
<path d="M436.5,317.5l0,-53" class="g6_82" />
<path d="M174.5,264.5l262,0" class="g6_82" />
<path d="M436.5,317.5l0,-53" class="g6_82" />
<path d="M587.5,317.5l0,-53" class="g6_82" />
<path d="M436.5,264.5l152,0" class="g6_82" />
<path d="M587.5,317.5l0,-53" class="g6_82" />
<path d="M676.5,318.5l0,-55" class="g6_82" />
<path d="M588.5,264.5l88,0" class="g6_82" />
<path d="M676.5,317.5l0,-53" class="g6_82" />
<path d="M1031.5,318.5l0,-55" class="g6_82" />
<path d="M676.5,264.5l356,0" class="g6_82" />
<path d="M173.5,343.5l0,-26" class="g6_82" />
<path d="M436.5,343.5l0,-26" class="g6_82" />
<path d="M174.5,318.5l262,0" class="g6_82" />
<path d="M436.5,343.5l0,-26" class="g6_82" />
<path d="M587.5,343.5l0,-26" class="g6_82" />
<path d="M436.5,318.5l152,0" class="g6_82" />
<path d="M587.5,343.5l0,-26" class="g6_82" />
<path d="M676.5,343.5l0,-26" class="g6_82" />
<path d="M588.5,318.5l88,0" class="g6_82" />
<path d="M676.5,343.5l0,-26" class="g6_82" />
<path d="M1031.5,343.5l0,-26" class="g6_82" />
<path d="M676.5,318.5l356,0" class="g6_82" />
<path d="M173.5,369.5l0,-27" class="g6_82" />
<path d="M436.5,368.5l0,-25" class="g6_82" />
<path d="M174.5,343.5l262,0" class="g6_82" />
<path d="M436.5,368.5l0,-25" class="g6_82" />
<path d="M587.5,368.5l0,-25" class="g6_82" />
<path d="M436.5,343.5l152,0" class="g6_82" />
<path d="M587.5,368.5l0,-25" class="g6_82" />
<path d="M676.5,369.5l0,-27" class="g6_82" />
<path d="M588.5,343.5l88,0" class="g6_82" />
<path d="M676.5,368.5l0,-25" class="g6_82" />
<path d="M1031.5,369.5l0,-27" class="g6_82" />
<path d="M676.5,343.5l356,0" class="g6_82" />
<path d="M173.5,478.5l0,-110" class="g6_82" />
<path d="M436.5,478.5l0,-110" class="g6_82" />
<path d="M174.5,369.5l262,0" class="g6_82" />
<path d="M436.5,478.5l0,-110" class="g6_82" />
<path d="M587.5,478.5l0,-110" class="g6_82" />
<path d="M436.5,369.5l152,0" class="g6_82" />
<path d="M587.5,478.5l0,-110" class="g6_82" />
<path d="M676.5,478.5l0,-110" class="g6_82" />
<path d="M588.5,369.5l88,0" class="g6_82" />
<path d="M676.5,478.5l0,-110" class="g6_82" />
<path d="M1031.5,478.5l0,-110" class="g6_82" />
<path d="M676.5,369.5l356,0" class="g6_82" />
<path d="M173.5,560.5l0,-83" class="g6_82" />
<path d="M436.5,559.5l0,-81" class="g6_82" />
<path d="M174.5,478.5l262,0" class="g6_82" />
<path d="M436.5,559.5l0,-81" class="g6_82" />
<path d="M587.5,559.5l0,-81" class="g6_82" />
<path d="M436.5,478.5l152,0" class="g6_82" />
<path d="M587.5,559.5l0,-81" class="g6_82" />
<path d="M676.5,560.5l0,-83" class="g6_82" />
<path d="M588.5,478.5l88,0" class="g6_82" />
<path d="M676.5,559.5l0,-81" class="g6_82" />
<path d="M1031.5,560.5l0,-83" class="g6_82" />
<path d="M676.5,478.5l356,0" class="g6_82" />
<path d="M173.5,613.5l0,-55" class="g6_82" />
<path d="M436.5,612.5l0,-53" class="g6_82" />
<path d="M174.5,560.5l262,0" class="g6_82" />
<path d="M436.5,612.5l0,-53" class="g6_82" />
<path d="M587.5,612.5l0,-53" class="g6_82" />
<path d="M436.5,560.5l152,0" class="g6_82" />
<path d="M587.5,612.5l0,-53" class="g6_82" />
<path d="M676.5,613.5l0,-55" class="g6_82" />
<path d="M588.5,560.5l88,0" class="g6_82" />
<path d="M676.5,612.5l0,-53" class="g6_82" />
<path d="M1031.5,613.5l0,-55" class="g6_82" />
<path d="M676.5,560.5l356,0" class="g6_82" />
<path d="M173.5,667.5l0,-55" class="g6_82" />
<path d="M436.5,666.5l0,-54" class="g6_82" />
<path d="M174.5,613.5l262,0" class="g6_82" />
<path d="M436.5,666.5l0,-54" class="g6_82" />
<path d="M587.5,666.5l0,-54" class="g6_82" />
<path d="M436.5,613.5l152,0" class="g6_82" />
<path d="M587.5,666.5l0,-54" class="g6_82" />
<path d="M676.5,667.5l0,-55" class="g6_82" />
<path d="M588.5,613.5l88,0" class="g6_82" />
<path d="M676.5,666.5l0,-54" class="g6_82" />
<path d="M1031.5,667.5l0,-55" class="g6_82" />
<path d="M676.5,613.5l356,0" class="g6_82" />
<path d="M173.5,720.5l0,-55" class="g6_82" />
<path d="M436.5,719.5l0,-53" class="g6_82" />
<path d="M174.5,667.5l262,0" class="g6_82" />
<path d="M436.5,719.5l0,-53" class="g6_82" />
<path d="M587.5,719.5l0,-53" class="g6_82" />
<path d="M436.5,667.5l152,0" class="g6_82" />
<path d="M587.5,719.5l0,-53" class="g6_82" />
<path d="M676.5,720.5l0,-55" class="g6_82" />
<path d="M588.5,667.5l88,0" class="g6_82" />
<path d="M676.5,719.5l0,-53" class="g6_82" />
<path d="M1031.5,720.5l0,-55" class="g6_82" />
<path d="M676.5,667.5l356,0" class="g6_82" />
<path d="M173.5,761.5l0,-42" class="g6_82" />
<path d="M173.5,761.5l264,0" class="g6_82" />
<path d="M436.5,760.5l0,-41" class="g6_82" />
<path d="M174.5,720.5l262,0" class="g6_82" />
<path d="M436.5,760.5l0,-41" class="g6_82" />
<path d="M436.5,761.5l152,0" class="g6_82" />
<path d="M587.5,760.5l0,-41" class="g6_82" />
<path d="M436.5,720.5l152,0" class="g6_82" />
<path d="M587.5,760.5l0,-41" class="g6_82" />
<path d="M587.5,761.5l90,0" class="g6_82" />
<path d="M676.5,761.5l0,-42" class="g6_82" />
<path d="M588.5,720.5l88,0" class="g6_82" />
<path d="M676.5,760.5l0,-41" class="g6_82" />
<path d="M676.5,761.5l356,0" class="g6_82" />
<path d="M1031.5,761.5l0,-42" class="g6_82" />
<path d="M676.5,720.5l356,0" class="g6_82" />
<path fill-rule="evenodd" d="M980.8,18.3l0,-0.3l0,-0.3l0,-0.3L981,17.1l0,-0.3l0.1,-0.3l0,-0.3l0.2,-0.3l0.1,-0.3l0.2,-0.3L981.7,15l0.4,-0.2l0.1,-0.3l0.2,-0.1l0.3,-0.3l0.1,-0.3l0.3,-0.2l0.2,-0.2l0.3,-0.1l0.3,-0.2l0.3,-0.3l0.3,0l0.2,-0.1L985,12.5l0.4,0l0.3,-0.1l0.3,0l0.3,0l0.3,-0.2l0.3,0l189.5,0l0.3,0l0.3,0.2l0.3,0l0.3,0l0.3,0.1l0.3,0l0.3,0.2l0.3,0.1l0.3,0.2l0.3,0.1l0.2,0.2l0.3,0.1l0.3,0.2l0.2,0.3l0.3,0.2l0.1,0.3l0.3,0.1l0.2,0.3l0.1,0.3l0.2,0.2l0.1,0.3l0.2,0.3l0.1,0.3l0,0.3l0.2,0.3l0.1,0.3l0,0.3l0,0.3l0,0.3l0,0.3l0.2,24.5l0,0.3l-0.2,0.3l0,0.3l0,0.3l-0.1,0.3l0,0.3l-0.2,0.3l-0.1,0.3l-0.2,0.3l-0.1,0.3l-0.2,0.3l-0.1,0.2l-0.2,0.3l-0.3,0.3l-0.1,0.2l-0.3,0.3l-0.2,0.1l-0.3,0.2l-0.3,0.1l-0.2,0.2l-0.3,0.1l-0.3,0.2l-0.3,0.1l-0.3,0.2l-0.3,0l-0.3,0.1l-0.3,0l-0.3,0l-0.3,0.2l-0.3,0l-189.5,0l-0.3,0l-0.3,0L986,48.7l-0.3,0l-0.3,0L985,48.6l-0.3,-0.2l-0.2,0l-0.3,-0.1l-0.3,-0.2L983.6,48l-0.3,-0.3l-0.2,-0.2l-0.3,-0.1l-0.1,-0.3l-0.3,-0.2l-0.2,-0.3l-0.1,-0.2l-0.4,-0.3l-0.1,-0.3l-0.2,-0.3l-0.1,-0.3l-0.2,-0.1l0,-0.3L981,44.3L981,44l-0.2,-0.3l0,-0.3l0,-0.3l0,-0.3l0,-24.5Z" class="g1_82" />
<path d="M980.8,18.3l0,-0.3l0,-0.3l0,-0.3L981,17.1l0,-0.3l0.1,-0.3l0,-0.3l0.2,-0.3l0.1,-0.3l0.2,-0.3L981.7,15l0.4,-0.2l0.1,-0.3l0.2,-0.1l0.3,-0.3l0.1,-0.3l0.3,-0.2l0.2,-0.2l0.3,-0.1l0.3,-0.2l0.3,-0.3l0.3,0l0.2,-0.1L985,12.5l0.4,0l0.3,-0.1l0.3,0l0.3,0l0.3,-0.2l0.3,0l189.5,0l0.3,0l0.3,0.2l0.3,0l0.3,0l0.3,0.1l0.3,0l0.3,0.2l0.3,0.1l0.3,0.2l0.3,0.1l0.2,0.2l0.3,0.1l0.3,0.2l0.2,0.3l0.3,0.2l0.1,0.3l0.3,0.1l0.2,0.3l0.1,0.3l0.2,0.2l0.1,0.3l0.2,0.3l0.1,0.3l0,0.3l0.2,0.3l0.1,0.3l0,0.3l0,0.3l0,0.3l0,0.3l0.2,24.5l0,0.3l-0.2,0.3l0,0.3l0,0.3l-0.1,0.3l0,0.3l-0.2,0.3l-0.1,0.3l-0.2,0.3l-0.1,0.3l-0.2,0.3l-0.1,0.2l-0.2,0.3l-0.3,0.3l-0.1,0.2l-0.3,0.3l-0.2,0.1l-0.3,0.2l-0.3,0.1l-0.2,0.2l-0.3,0.1l-0.3,0.2l-0.3,0.1l-0.3,0.2l-0.3,0l-0.3,0.1l-0.3,0l-0.3,0l-0.3,0.2l-0.3,0l-189.5,0l-0.3,0l-0.3,0L986,48.7l-0.3,0l-0.3,0L985,48.6l-0.3,-0.2l-0.2,0l-0.3,-0.1l-0.3,-0.2L983.6,48l-0.3,-0.3l-0.2,-0.2l-0.3,-0.1l-0.1,-0.3l-0.3,-0.2l-0.2,-0.3l-0.1,-0.2l-0.4,-0.3l-0.1,-0.3l-0.2,-0.3l-0.1,-0.3l-0.2,-0.1l0,-0.3L981,44.3L981,44l-0.2,-0.3l0,-0.3l0,-0.3l0,-0.3l0,-24.5Z" class="g7_82" />
</svg>