<?xml version="1.0" encoding="UTF-8" standalone="no"?>
<!DOCTYPE svg PUBLIC "-//W3C//DTD SVG 1.1//EN"
"http://www.w3.org/Graphics/SVG/1.1/DTD/svg11.dtd">
<svg viewBox="0 0 1210 1320" version="1.1" xmlns="http://www.w3.org/2000/svg" xmlns:xlink="http://www.w3.org/1999/xlink">
<defs>
<style type="text/css"><![CDATA[
.g2_112{
fill: none;
stroke: #626262;
stroke-width: 2;
stroke-linecap: butt;
stroke-linejoin: miter;
}
.g3_112{
fill: none;
stroke: #418AB3;
stroke-width: 2;
stroke-linecap: butt;
stroke-linejoin: miter;
stroke-miterlimit: 7;
}
.g1_112{
fill: #FFFFFF;
}
]]></style>
</defs>
<path fill-rule="evenodd" d="M0,0L1210,0l0,1320L0,1320L0,0Z" class="g1_112" />
<path fill-rule="evenodd" d="M0,0L1210,0l0,1320L0,1320L0,0Z" class="g1_112" />
<path d="M65,318l351,0" class="g2_112" />
<path d="M65,465l336,0" class="g2_112" />
<path d="M65,611l279,0" class="g2_112" />
<path d="M344,611l6,0" class="g2_112" />
<path d="M65,709l100,0" class="g2_112" />
<image x="632" y="932" width="391" height="258" xlink:href="img/1.png" />
<path fill-rule="evenodd" d="M980.8,22.9l0,-0.3l0,-0.1l0,-0.3l0,-0.4L981,21.7l0,-0.2l0.1,-0.3l0,-0.3l0.2,-0.1l0.1,-0.2l0.2,-0.1l0.1,-0.3l0,-0.2l0.4,-0.1l0.1,-0.2l0.2,-0.1l0.1,-0.4l0.2,0L983,19.1l0.1,-0.2l0.2,-0.1l0.1,-0.2l0.3,0L984,18.5l0.2,0l0.1,-0.2l0.4,0l0.3,0l0.1,0l0.3,0l192.5,0l0.2,0l0.3,0l0.1,0l0.3,0l0.3,0.2l0.2,0l0.1,0.1l0.4,0l0.1,0.2l0.3,0.1l0.2,0.2l0.1,0.1l0.3,0.2l0.2,0.2l0.1,0.1l0.2,0.2l0.1,0.1l0.2,0.2l0.1,0.3l0,0.1l0.2,0.2l0.1,0.3l0,0.1l0.2,0.3l0,0.2l0.1,0.1l0,0.4l0,0.3l0,0.1l0,0.3l0.2,18.4l0,0.1l0,0.3l0,0.2l-0.2,0.3l0,0.3l0,0.1l-0.1,0.2l-0.2,0.3l0,0.1l-0.1,0.3l-0.2,0.2l-0.1,0.1l-0.2,0.4l-0.1,0.1l-0.2,0.2l-0.1,0.1l-0.2,0.2l-0.1,0.1l-0.3,0.2l-0.2,0l-0.1,0.1l-0.3,0.2l-0.2,0l-0.3,0.1l-0.2,0l-0.3,0.2l-0.3,0l-0.1,0l-0.2,0l-0.3,0L985.4,45.8l-0.3,0l-0.1,0l-0.3,0l-0.4,-0.1l-0.1,0L984,45.5l-0.3,0l-0.3,-0.1l-0.1,0l-0.2,-0.2L983,45.1l-0.3,-0.2l-0.2,-0.1l-0.1,-0.2l-0.2,-0.1l-0.1,-0.2l-0.4,-0.1l0,-0.4l-0.1,-0.1l-0.2,-0.2l-0.1,-0.3l-0.2,-0.1l0,-0.2L981,42.6l0,-0.1l-0.2,-0.3l0,-0.2l0,-0.3l0,-0.1l0,-0.3l0,-18.4Z" class="g1_112" />
<path d="M980.8,22.9l0,-0.3l0,-0.1l0,-0.3l0,-0.4L981,21.7l0,-0.2l0.1,-0.3l0,-0.3l0.2,-0.1l0.1,-0.2l0.2,-0.1l0.1,-0.3l0,-0.2l0.4,-0.1l0.1,-0.2l0.2,-0.1l0.1,-0.4l0.2,0L983,19.1l0.1,-0.2l0.2,-0.1l0.1,-0.2l0.3,0L984,18.5l0.2,0l0.1,-0.2l0.4,0l0.3,0l0.1,0l0.3,0l192.5,0l0.2,0l0.3,0l0.1,0l0.3,0l0.3,0.2l0.2,0l0.1,0.1l0.4,0l0.1,0.2l0.3,0.1l0.2,0.2l0.1,0.1l0.3,0.2l0.2,0.2l0.1,0.1l0.2,0.2l0.1,0.1l0.2,0.2l0.1,0.3l0,0.1l0.2,0.2l0.1,0.3l0,0.1l0.2,0.3l0,0.2l0.1,0.1l0,0.4l0,0.3l0,0.1l0,0.3l0.2,18.4l0,0.1l0,0.3l0,0.2l-0.2,0.3l0,0.3l0,0.1l-0.1,0.2l-0.2,0.3l0,0.1l-0.1,0.3l-0.2,0.2l-0.1,0.1l-0.2,0.4l-0.1,0.1l-0.2,0.2l-0.1,0.1l-0.2,0.2l-0.1,0.1l-0.3,0.2l-0.2,0l-0.1,0.1l-0.3,0.2l-0.2,0l-0.3,0.1l-0.2,0l-0.3,0.2l-0.3,0l-0.1,0l-0.2,0l-0.3,0L985.4,45.8l-0.3,0l-0.1,0l-0.3,0l-0.4,-0.1l-0.1,0L984,45.5l-0.3,0l-0.3,-0.1l-0.1,0l-0.2,-0.2L983,45.1l-0.3,-0.2l-0.2,-0.1l-0.1,-0.2l-0.2,-0.1l-0.1,-0.2l-0.4,-0.1l0,-0.4l-0.1,-0.1l-0.2,-0.2l-0.1,-0.3l-0.2,-0.1l0,-0.2L981,42.6l0,-0.1l-0.2,-0.3l0,-0.2l0,-0.3l0,-0.1l0,-0.3l0,-18.4Z" class="g3_112" />
</svg>