<?xml version="1.0" encoding="UTF-8" standalone="no"?>
<!DOCTYPE svg PUBLIC "-//W3C//DTD SVG 1.1//EN"
"http://www.w3.org/Graphics/SVG/1.1/DTD/svg11.dtd">
<svg viewBox="0 0 1100 825" version="1.1" xmlns="http://www.w3.org/2000/svg" xmlns:xlink="http://www.w3.org/1999/xlink">
<defs>
<style type="text/css"><![CDATA[
.g5_104{
fill: none;
stroke: #418AB3;
stroke-width: 1;
stroke-linecap: butt;
stroke-linejoin: miter;
}
.g2_104{
fill: none;
stroke: #FFFFFF;
stroke-width: 4;
stroke-linecap: butt;
stroke-linejoin: round;
}
.g3_104{
fill: none;
stroke: #000000;
stroke-width: 4;
stroke-linecap: butt;
stroke-linejoin: round;
}
.g4_104{
fill: #418AB3;
}
.g1_104{
fill: #FFFFFF;
}
]]></style>
</defs>
<path fill-rule="evenodd" d="M0,0L1100,0l0,825L0,825L0,0Z" class="g1_104" />
<path fill-rule="evenodd" d="M0,0L1100,0l0,825L0,825L0,0Z" class="g1_104" />
<image x="753" y="777" width="303" height="38" xlink:href="img/1.png" />
<path d="M680,28l284,0" class="g2_104" />
<path d="M675,61l330,0" class="g3_104" />
<path d="M675,261l330,0" class="g3_104" />
<path d="M675,218l330,0" class="g3_104" />
<path d="M675,173l330,0" class="g3_104" />
<path d="M675,106l330,0" class="g3_104" />
<path d="M675,143l330,0" class="g3_104" />
<path d="M675,305l330,0" class="g3_104" />
<path fill-rule="evenodd" d="M83,344l125,0l0,77L83,421l0,-77Z" class="g4_104" />
<path fill-rule="evenodd" d="M343,344l129,0l0,77l-129,0l0,-77Z" class="g4_104" />
<path d="M208.7,383.2L330.5,383" class="g5_104" />
<path fill-rule="evenodd" d="M343.1,382.9l-12.3,6.8l-1.3,-2l8.7,-4.8l-8.7,-4.8l1.3,-2l12.3,6.8Z" class="g4_104" />
</svg>