<?xml version="1.0" encoding="UTF-8" standalone="no"?>
<!DOCTYPE svg PUBLIC "-//W3C//DTD SVG 1.1//EN"
"http://www.w3.org/Graphics/SVG/1.1/DTD/svg11.dtd">
<svg viewBox="0 0 1155 1210" version="1.1" xmlns="http://www.w3.org/2000/svg" xmlns:xlink="http://www.w3.org/1999/xlink">
<defs>
<clipPath id="c0_54"><path d="M0.5,1210.5L0.5,0.5l1155,0l0,1210Z" /></clipPath>
<style type="text/css"><![CDATA[
.g1_54{
fill: #FFFFFF;
}
]]></style>
</defs>
<path fill-rule="evenodd" d="M0,0L1155,0l0,1210L0,1210L0,0Z" class="g1_54" />
<path fill-rule="evenodd" d="M0,0L1155,0l0,1210L0,1210L0,0Z" class="g1_54" />
<image x="790" y="1140" width="319" height="55" xlink:href="img/1.png" />
<g clip-path="url(#c0_54)">
<g fill="#626262" >
<use xlink:href="#f0_15" transform="matrix(11.8,0,0,11.8,38.5,32.8)" />
<use xlink:href="#f0_7" transform="matrix(11.8,0,0,11.8,51.2,32.8)" />
<use xlink:href="#f0_4" transform="matrix(11.8,0,0,11.8,62.2,32.8)" />
<use xlink:href="#f0_g" transform="matrix(11.8,0,0,11.8,73.6,32.8)" />
<use xlink:href="#f0_d" transform="matrix(11.8,0,0,11.8,83.2,32.8)" />
<use xlink:href="#f0_h" transform="matrix(11.8,0,0,11.8,88.2,32.8)" />
<use xlink:href="#f0_b" transform="matrix(11.8,0,0,11.8,99.7,32.8)" />
<use xlink:href="#f0_l" transform="matrix(11.8,0,0,11.8,110.8,32.8)" />
<use xlink:href="#f0_k" transform="matrix(11.8,0,0,11.8,124.4,32.8)" />
<use xlink:href="#f0_g" transform="matrix(11.8,0,0,11.8,141.6,32.8)" />
<use xlink:href="#f0_6" transform="matrix(11.8,0,0,11.8,151.1,32.8)" />
<use xlink:href="#f0_b" transform="matrix(11.8,0,0,11.8,161,32.8)" />
<use xlink:href="#f0_4" transform="matrix(11.8,0,0,11.8,172.1,32.8)" />
<use xlink:href="#f0_k" transform="matrix(11.8,0,0,11.8,183.7,32.8)" />
<use xlink:href="#f0_l" transform="matrix(11.8,0,0,11.8,194.9,32.8)" />
<use xlink:href="#f0_d" transform="matrix(11.8,0,0,11.8,202.3,32.8)" />
<use xlink:href="#f0_7" transform="matrix(11.8,0,0,11.8,207.5,32.8)" />
<use xlink:href="#f0_e" transform="matrix(11.8,0,0,11.8,224.6,32.8)" />
<use xlink:href="#f0_l" transform="matrix(11.8,0,0,11.8,231,32.8)" />
<use xlink:href="#f0_7" transform="matrix(11.8,0,0,11.8,237.9,32.8)" />
<use xlink:href="#f0_8" transform="matrix(11.8,0,0,11.8,248.8,32.8)" />
<use xlink:href="#f0_k" transform="matrix(11.8,0,0,11.8,272.8,32.8)" />
<use xlink:href="#f0_z" transform="matrix(11.8,0,0,11.8,289.9,32.8)" />
<use xlink:href="#f0_c" transform="matrix(11.8,0,0,11.8,301.7,32.8)" />
<use xlink:href="#f0_k" transform="matrix(11.8,0,0,11.8,308.8,32.8)" />
<use xlink:href="#f0_c" transform="matrix(11.8,0,0,11.8,319.9,32.8)" />
<use xlink:href="#f0_b" transform="matrix(11.8,0,0,11.8,327.1,32.8)" />
<use xlink:href="#f0_27" transform="matrix(11.8,0,0,11.8,344.3,32.8)" />
<use xlink:href="#f0_k" transform="matrix(11.8,0,0,11.8,356.9,32.8)" />
<use xlink:href="#f0_4" transform="matrix(11.8,0,0,11.8,368,32.8)" />
<use xlink:href="#f0_1a" transform="matrix(11.8,0,0,11.8,379.4,32.8)" />
<use xlink:href="#f0_d" transform="matrix(11.8,0,0,11.8,390.1,32.8)" />
<use xlink:href="#f0_4" transform="matrix(11.8,0,0,11.8,395.3,32.8)" />
<use xlink:href="#f0_x" transform="matrix(11.8,0,0,11.8,406.7,32.8)" />
<use xlink:href="#f0_7" transform="matrix(11.8,0,0,11.8,424.1,32.8)" />
<use xlink:href="#f0_l" transform="matrix(11.8,0,0,11.8,435.1,32.8)" />
<use xlink:href="#f0_x" transform="matrix(11.8,0,0,11.8,442.3,32.8)" />
<use xlink:href="#f0_k" transform="matrix(11.8,0,0,11.8,453.8,32.8)" />
<use xlink:href="#f0_4" transform="matrix(11.8,0,0,11.8,464.9,32.8)" />
<use xlink:href="#f0_d" transform="matrix(11.8,0,0,11.8,476.3,32.8)" />
<use xlink:href="#f0_29" transform="matrix(11.8,0,0,11.8,481.5,32.8)" />
<use xlink:href="#f0_k" transform="matrix(11.8,0,0,11.8,490.8,32.8)" />
<use xlink:href="#f0_c" transform="matrix(11.8,0,0,11.8,502,32.8)" />
<use xlink:href="#f0_d" transform="matrix(11.8,0,0,11.8,509.1,32.8)" />
<use xlink:href="#f0_7" transform="matrix(11.8,0,0,11.8,514.3,32.8)" />
<use xlink:href="#f0_4" transform="matrix(11.8,0,0,11.8,525.3,32.8)" />
<use xlink:href="#f0_1c" transform="matrix(11.8,0,0,11.8,536.8,32.8)" />
<use xlink:href="#f0_1g" transform="matrix(11.8,0,0,11.8,548.7,32.8)" />
<use xlink:href="#f0_f" transform="matrix(11.8,0,0,11.8,559.9,32.8)" />
<use xlink:href="#f0_b" transform="matrix(11.8,0,0,11.8,571.4,32.8)" />
<use xlink:href="#f0_k" transform="matrix(11.8,0,0,11.8,588.6,32.8)" />
<use xlink:href="#f0_6" transform="matrix(11.8,0,0,11.8,599.8,32.8)" />
<use xlink:href="#f0_6" transform="matrix(11.8,0,0,11.8,609.7,32.8)" />
<use xlink:href="#f0_7" transform="matrix(11.8,0,0,11.8,619.6,32.8)" />
<use xlink:href="#f0_i" transform="matrix(11.8,0,0,11.8,630.6,32.8)" />
<use xlink:href="#f0_4" transform="matrix(11.8,0,0,11.8,641.9,32.8)" />
<use xlink:href="#f0_c" transform="matrix(11.8,0,0,11.8,653.5,32.8)" />
<use xlink:href="#f0_c" transform="matrix(11.8,0,0,11.8,666.7,32.8)" />
<use xlink:href="#f0_k" transform="matrix(11.8,0,0,11.8,673.8,32.8)" />
<use xlink:href="#f0_m" transform="matrix(11.8,0,0,11.8,685,32.8)" />
<use xlink:href="#f0_a" transform="matrix(11.8,0,0,11.8,696.5,32.8)" />
<use xlink:href="#f0_b" transform="matrix(11.8,0,0,11.8,701.7,32.8)" />
<use xlink:href="#f0_d" transform="matrix(11.8,0,0,11.8,718.9,32.8)" />
<use xlink:href="#f0_g" transform="matrix(11.8,0,0,11.8,723.9,32.8)" />
<use xlink:href="#f0_6" transform="matrix(11.8,0,0,11.8,739.6,32.8)" />
<use xlink:href="#f0_l" transform="matrix(11.8,0,0,11.8,749.4,32.8)" />
<use xlink:href="#f0_b" transform="matrix(11.8,0,0,11.8,756.4,32.8)" />
<use xlink:href="#f0_k" transform="matrix(11.8,0,0,11.8,767.6,32.8)" />
<use xlink:href="#f0_c" transform="matrix(11.8,0,0,11.8,778.7,32.8)" />
<use xlink:href="#f0_b" transform="matrix(11.8,0,0,11.8,785.9,32.8)" />
<use xlink:href="#f0_h" transform="matrix(11.8,0,0,11.8,797,32.8)" />
<use xlink:href="#f0_c" transform="matrix(11.8,0,0,11.8,814.4,32.8)" />
<use xlink:href="#f0_7" transform="matrix(11.8,0,0,11.8,821.6,32.8)" />
<use xlink:href="#f0_g" transform="matrix(11.8,0,0,11.8,838.7,32.8)" />
<use xlink:href="#f0_c" transform="matrix(11.8,0,0,11.8,848.1,32.8)" />
<use xlink:href="#f0_7" transform="matrix(11.8,0,0,11.8,855.3,32.8)" />
<use xlink:href="#f0_l" transform="matrix(11.8,0,0,11.8,866.3,32.8)" />
<use xlink:href="#f0_b" transform="matrix(11.8,0,0,11.8,873.3,32.8)" />
<use xlink:href="#f0_c" transform="matrix(11.8,0,0,11.8,890.5,32.8)" />
<use xlink:href="#f0_f" transform="matrix(11.8,0,0,11.8,897.7,32.8)" />
<use xlink:href="#f0_b" transform="matrix(11.8,0,0,11.8,909.1,32.8)" />
<use xlink:href="#f0_k" transform="matrix(11.8,0,0,11.8,926.4,32.8)" />
<use xlink:href="#f0_6" transform="matrix(11.8,0,0,11.8,937.5,32.8)" />
<use xlink:href="#f0_6" transform="matrix(11.8,0,0,11.8,947.4,32.8)" />
<use xlink:href="#f0_7" transform="matrix(11.8,0,0,11.8,957.3,32.8)" />
<use xlink:href="#f0_i" transform="matrix(11.8,0,0,11.8,968.3,32.8)" />
<use xlink:href="#f0_4" transform="matrix(11.8,0,0,11.8,979.6,32.8)" />
<use xlink:href="#f0_c" transform="matrix(11.8,0,0,11.8,991.2,32.8)" />
<use xlink:href="#f0_h" transform="matrix(11.8,0,0,11.8,1004.4,32.8)" />
<use xlink:href="#f0_b" transform="matrix(11.8,0,0,11.8,1015.8,32.8)" />
<use xlink:href="#f0_c" transform="matrix(11.8,0,0,11.8,1026.9,32.8)" />
<use xlink:href="#f0_k" transform="matrix(11.8,0,0,11.8,1034.1,32.8)" />
<use xlink:href="#f0_d" transform="matrix(11.8,0,0,11.8,1045.2,32.8)" />
<use xlink:href="#f0_a" transform="matrix(11.8,0,0,11.8,1050.4,32.8)" />
<use xlink:href="#f0_g" transform="matrix(11.8,0,0,11.8,1055.4,32.8)" />
<use xlink:href="#f0_7" transform="matrix(11.8,0,0,11.8,38.5,76.5)" />
<use xlink:href="#f0_e" transform="matrix(11.8,0,0,11.8,49.5,76.5)" />
<use xlink:href="#f0_k" transform="matrix(11.8,0,0,11.8,63.2,76.5)" />
<use xlink:href="#f0_6" transform="matrix(11.8,0,0,11.8,81.8,76.5)" />
<use xlink:href="#f0_i" transform="matrix(11.8,0,0,11.8,91.7,76.5)" />
<use xlink:href="#f0_g" transform="matrix(11.8,0,0,11.8,103,76.5)" />
<use xlink:href="#f0_c" transform="matrix(11.8,0,0,11.8,112.6,76.5)" />
<use xlink:href="#f0_7" transform="matrix(11.8,0,0,11.8,119.8,76.5)" />
<use xlink:href="#f0_8" transform="matrix(11.8,0,0,11.8,130.8,76.5)" />
<use xlink:href="#f0_b" transform="matrix(11.8,0,0,11.8,148.5,76.5)" />
<use xlink:href="#f0_l" transform="matrix(11.8,0,0,11.8,159.6,76.5)" />
<use xlink:href="#f0_1i" transform="matrix(11.8,0,0,11.8,174.6,76.5)" />
<use xlink:href="#f0_1h" transform="matrix(11.8,0,0,11.8,181.7,76.5)" />
<use xlink:href="#f0_g" transform="matrix(11.8,0,0,11.8,194.1,76.5)" />
<use xlink:href="#f0_g" transform="matrix(11.8,0,0,11.8,203.7,76.5)" />
<use xlink:href="#f0_i" transform="matrix(11.8,0,0,11.8,213.2,76.5)" />
<use xlink:href="#f0_8" transform="matrix(11.8,0,0,11.8,224.6,76.5)" />
<use xlink:href="#f0_b" transform="matrix(11.8,0,0,11.8,242.3,76.5)" />
<use xlink:href="#f0_b" transform="matrix(11.8,0,0,11.8,260.9,76.5)" />
<use xlink:href="#f0_q" transform="matrix(11.8,0,0,11.8,272,76.5)" />
<use xlink:href="#f0_b" transform="matrix(11.8,0,0,11.8,282.9,76.5)" />
<use xlink:href="#f0_l" transform="matrix(11.8,0,0,11.8,294,76.5)" />
<use xlink:href="#f0_r" transform="matrix(11.8,0,0,11.8,301.5,76.5)" />
<use xlink:href="#f0_6" transform="matrix(11.8,0,0,11.8,319.6,76.5)" />
<use xlink:href="#f0_i" transform="matrix(11.8,0,0,11.8,329.6,76.5)" />
<use xlink:href="#f0_g" transform="matrix(11.8,0,0,11.8,341,76.5)" />
<use xlink:href="#f0_c" transform="matrix(11.8,0,0,11.8,350.5,76.5)" />
<use xlink:href="#f0_7" transform="matrix(11.8,0,0,11.8,357.6,76.5)" />
<use xlink:href="#f0_8" transform="matrix(11.8,0,0,11.8,368.6,76.5)" />
<use xlink:href="#f0_b" transform="matrix(11.8,0,0,11.8,386.3,76.5)" />
<use xlink:href="#f0_l" transform="matrix(11.8,0,0,11.8,397.6,76.5)" />
<use xlink:href="#f0_6" transform="matrix(11.8,0,0,11.8,412.4,76.5)" />
<use xlink:href="#f0_k" transform="matrix(11.8,0,0,11.8,422.3,76.5)" />
<use xlink:href="#f0_4" transform="matrix(11.8,0,0,11.8,433.4,76.5)" />
<use xlink:href="#f0_f" transform="matrix(11.8,0,0,11.8,452.3,76.5)" />
<use xlink:href="#f0_k" transform="matrix(11.8,0,0,11.8,463.9,76.5)" />
<use xlink:href="#f0_q" transform="matrix(11.8,0,0,11.8,475.1,76.5)" />
<use xlink:href="#f0_b" transform="matrix(11.8,0,0,11.8,485.9,76.5)" />
<use xlink:href="#f0_7" transform="matrix(11.8,0,0,11.8,504.5,76.5)" />
<use xlink:href="#f0_4" transform="matrix(11.8,0,0,11.8,515.5,76.5)" />
<use xlink:href="#f0_a" transform="matrix(11.8,0,0,11.8,527,76.5)" />
<use xlink:href="#f0_r" transform="matrix(11.8,0,0,11.8,532.1,76.5)" />
<use xlink:href="#f0_7" transform="matrix(11.8,0,0,11.8,550.3,76.5)" />
<use xlink:href="#f0_4" transform="matrix(11.8,0,0,11.8,561.3,76.5)" />
<use xlink:href="#f0_b" transform="matrix(11.8,0,0,11.8,572.9,76.5)" />
<use xlink:href="#f0_k" transform="matrix(11.8,0,0,11.8,591.5,76.5)" />
<use xlink:href="#f0_6" transform="matrix(11.8,0,0,11.8,602.6,76.5)" />
<use xlink:href="#f0_6" transform="matrix(11.8,0,0,11.8,612.5,76.5)" />
<use xlink:href="#f0_7" transform="matrix(11.8,0,0,11.8,622.3,76.5)" />
<use xlink:href="#f0_i" transform="matrix(11.8,0,0,11.8,633.3,76.5)" />
<use xlink:href="#f0_4" transform="matrix(11.8,0,0,11.8,644.8,76.5)" />
<use xlink:href="#f0_c" transform="matrix(11.8,0,0,11.8,656.2,76.5)" />
<use xlink:href="#f0_o" transform="matrix(11.8,0,0,11.8,663.4,76.5)" />
<use xlink:href="#f0_1c" transform="matrix(11.8,0,0,11.8,670.5,76.5)" />
<use xlink:href="#f0_p" transform="matrix(11.8,0,0,11.8,691.1,76.5)" />
<use xlink:href="#f0_g" transform="matrix(11.8,0,0,11.8,704.5,76.5)" />
<use xlink:href="#f0_b" transform="matrix(11.8,0,0,11.8,714,76.5)" />
<use xlink:href="#f0_6" transform="matrix(11.8,0,0,11.8,732.6,76.5)" />
<use xlink:href="#f0_v" transform="matrix(11.8,0,0,11.8,742.5,76.5)" />
<use xlink:href="#f0_w" transform="matrix(11.8,0,0,11.8,753.2,76.5)" />
<use xlink:href="#f0_3" transform="matrix(11.8,0,0,11.8,762.2,76.5)" />
<use xlink:href="#f0_l" transform="matrix(11.8,0,0,11.8,776.7,76.5)" />
<use xlink:href="#f0_k" transform="matrix(11.8,0,0,11.8,784.1,76.5)" />
<use xlink:href="#f0_6" transform="matrix(11.8,0,0,11.8,795.3,76.5)" />
<use xlink:href="#f0_a" transform="matrix(11.8,0,0,11.8,805.2,76.5)" />
<use xlink:href="#f0_b" transform="matrix(11.8,0,0,11.8,810.4,76.5)" />
<use xlink:href="#f0_8" transform="matrix(11.8,0,0,11.8,828.8,76.5)" />
<use xlink:href="#f0_7" transform="matrix(11.8,0,0,11.8,846.5,76.5)" />
<use xlink:href="#f0_h" transform="matrix(11.8,0,0,11.8,857.5,76.5)" />
<use xlink:href="#f0_i" transform="matrix(11.8,0,0,11.8,869,76.5)" />
<use xlink:href="#f0_a" transform="matrix(11.8,0,0,11.8,880.3,76.5)" />
<use xlink:href="#f0_b" transform="matrix(11.8,0,0,11.8,885.4,76.5)" />
<use xlink:href="#f0_c" transform="matrix(11.8,0,0,11.8,903.9,76.5)" />
<use xlink:href="#f0_7" transform="matrix(11.8,0,0,11.8,911.1,76.5)" />
<use xlink:href="#f0_d" transform="matrix(11.8,0,0,11.8,929.5,76.5)" />
<use xlink:href="#f0_8" transform="matrix(11.8,0,0,11.8,934.6,76.5)" />
<use xlink:href="#f0_9" transform="matrix(11.8,0,0,11.8,952.3,76.5)" />
<use xlink:href="#f0_a" transform="matrix(11.8,0,0,11.8,963.8,76.5)" />
<use xlink:href="#f0_b" transform="matrix(11.8,0,0,11.8,969,76.5)" />
<use xlink:href="#f0_8" transform="matrix(11.8,0,0,11.8,980.2,76.5)" />
<use xlink:href="#f0_b" transform="matrix(11.8,0,0,11.8,997.9,76.5)" />
<use xlink:href="#f0_4" transform="matrix(11.8,0,0,11.8,1009,76.5)" />
<use xlink:href="#f0_c" transform="matrix(11.8,0,0,11.8,1020.6,76.5)" />
<use xlink:href="#f0_c" transform="matrix(11.8,0,0,11.8,1035.1,76.5)" />
<use xlink:href="#f0_f" transform="matrix(11.8,0,0,11.8,1042.2,76.5)" />
<use xlink:href="#f0_b" transform="matrix(11.8,0,0,11.8,1053.7,76.5)" />
<use xlink:href="#f0_e" transform="matrix(11.8,0,0,11.8,38.5,120.2)" />
<use xlink:href="#f0_7" transform="matrix(11.8,0,0,11.8,44.9,120.2)" />
<use xlink:href="#f0_a" transform="matrix(11.8,0,0,11.8,55.9,120.2)" />
<use xlink:href="#f0_a" transform="matrix(11.8,0,0,11.8,61.1,120.2)" />
<use xlink:href="#f0_7" transform="matrix(11.8,0,0,11.8,66.1,120.2)" />
<use xlink:href="#f0_12" transform="matrix(11.8,0,0,11.8,77.1,120.2)" />
<use xlink:href="#f0_d" transform="matrix(11.8,0,0,11.8,91.9,120.2)" />
<use xlink:href="#f0_4" transform="matrix(11.8,0,0,11.8,97.1,120.2)" />
<use xlink:href="#f0_x" transform="matrix(11.8,0,0,11.8,108.5,120.2)" />
<use xlink:href="#f0_l" transform="matrix(11.8,0,0,11.8,125.6,120.2)" />
<use xlink:href="#f0_b" transform="matrix(11.8,0,0,11.8,132.7,120.2)" />
<use xlink:href="#f0_13" transform="matrix(11.8,0,0,11.8,143.8,120.2)" />
<use xlink:href="#f0_i" transform="matrix(11.8,0,0,11.8,155.2,120.2)" />
<use xlink:href="#f0_d" transform="matrix(11.8,0,0,11.8,166.6,120.2)" />
<use xlink:href="#f0_l" transform="matrix(11.8,0,0,11.8,171.7,120.2)" />
<use xlink:href="#f0_b" transform="matrix(11.8,0,0,11.8,178.6,120.2)" />
<use xlink:href="#f0_8" transform="matrix(11.8,0,0,11.8,189.7,120.2)" />
<use xlink:href="#f0_b" transform="matrix(11.8,0,0,11.8,207.4,120.2)" />
<use xlink:href="#f0_4" transform="matrix(11.8,0,0,11.8,218.7,120.2)" />
<use xlink:href="#f0_c" transform="matrix(11.8,0,0,11.8,230.2,120.2)" />
<use xlink:href="#f0_g" transform="matrix(11.8,0,0,11.8,237.3,120.2)" />
<use xlink:href="#f0_e" transform="matrix(11.8,0,0,11.8,252.6,120.2)" />
<use xlink:href="#f0_l" transform="matrix(11.8,0,0,11.8,259,120.2)" />
<use xlink:href="#f0_7" transform="matrix(11.8,0,0,11.8,265.9,120.2)" />
<use xlink:href="#f0_8" transform="matrix(11.8,0,0,11.8,276.9,120.2)" />
<use xlink:href="#f0_s" transform="matrix(11.8,0,0,11.8,300.4,120.2)" />
<use xlink:href="#f0_r" transform="matrix(11.8,0,0,11.8,311.2,120.2)" />
<use xlink:href="#f0_c" transform="matrix(11.8,0,0,11.8,322.1,120.2)" />
<use xlink:href="#f0_f" transform="matrix(11.8,0,0,11.8,329.1,120.2)" />
<use xlink:href="#f0_7" transform="matrix(11.8,0,0,11.8,340.7,120.2)" />
<use xlink:href="#f0_4" transform="matrix(11.8,0,0,11.8,351.7,120.2)" />
<use xlink:href="#f0_6" transform="matrix(11.8,0,0,11.8,368.9,120.2)" />
<use xlink:href="#f0_7" transform="matrix(11.8,0,0,11.8,378.9,120.2)" />
<use xlink:href="#f0_h" transform="matrix(11.8,0,0,11.8,389.9,120.2)" />
<use xlink:href="#f0_b" transform="matrix(11.8,0,0,11.8,401.2,120.2)" />
<use xlink:href="#f0_1c" transform="matrix(11.8,0,0,11.8,412.3,120.2)" />
<use xlink:href="#f0_1i" transform="matrix(11.8,0,0,11.8,418.3,120.2)" />
<use xlink:href="#f0_16" transform="matrix(11.8,0,0,11.8,425.3,120.2)" />
<use xlink:href="#f0_7" transform="matrix(11.8,0,0,11.8,439.5,120.2)" />
<use xlink:href="#f0_4" transform="matrix(11.8,0,0,11.8,456.1,120.2)" />
<use xlink:href="#f0_7" transform="matrix(11.8,0,0,11.8,467.7,120.2)" />
<use xlink:href="#f0_c" transform="matrix(11.8,0,0,11.8,478.7,120.2)" />
<use xlink:href="#f0_b" transform="matrix(11.8,0,0,11.8,491.5,120.2)" />
<use xlink:href="#f0_v" transform="matrix(11.8,0,0,11.8,502.2,120.2)" />
<use xlink:href="#f0_b" transform="matrix(11.8,0,0,11.8,512.5,120.2)" />
<use xlink:href="#f0_6" transform="matrix(11.8,0,0,11.8,523.6,120.2)" />
<use xlink:href="#f0_i" transform="matrix(11.8,0,0,11.8,533.4,120.2)" />
<use xlink:href="#f0_c" transform="matrix(11.8,0,0,11.8,544.8,120.2)" />
<use xlink:href="#f0_b" transform="matrix(11.8,0,0,11.8,552,120.2)" />
<use xlink:href="#f0_c" transform="matrix(11.8,0,0,11.8,568.8,120.2)" />
<use xlink:href="#f0_f" transform="matrix(11.8,0,0,11.8,575.9,120.2)" />
<use xlink:href="#f0_b" transform="matrix(11.8,0,0,11.8,587.4,120.2)" />
<use xlink:href="#f0_13" transform="matrix(11.8,0,0,11.8,604.3,120.2)" />
<use xlink:href="#f0_i" transform="matrix(11.8,0,0,11.8,615.6,120.2)" />
<use xlink:href="#f0_b" transform="matrix(11.8,0,0,11.8,627.1,120.2)" />
<use xlink:href="#f0_l" transform="matrix(11.8,0,0,11.8,638.2,120.2)" />
<use xlink:href="#f0_d" transform="matrix(11.8,0,0,11.8,645.7,120.2)" />
<use xlink:href="#f0_b" transform="matrix(11.8,0,0,11.8,650.9,120.2)" />
<use xlink:href="#f0_g" transform="matrix(11.8,0,0,11.8,662,120.2)" />
<use xlink:href="#f0_d" transform="matrix(11.8,0,0,11.8,677.2,120.2)" />
<use xlink:href="#f0_4" transform="matrix(11.8,0,0,11.8,682.3,120.2)" />
<use xlink:href="#f0_h" transform="matrix(11.8,0,0,11.8,699.5,120.2)" />
<use xlink:href="#f0_k" transform="matrix(11.8,0,0,11.8,710.8,120.2)" />
<use xlink:href="#f0_c" transform="matrix(11.8,0,0,11.8,722,120.2)" />
<use xlink:href="#f0_k" transform="matrix(11.8,0,0,11.8,729.1,120.2)" />
<use xlink:href="#f0_m" transform="matrix(11.8,0,0,11.8,740.3,120.2)" />
<use xlink:href="#f0_k" transform="matrix(11.8,0,0,11.8,751.9,120.2)" />
<use xlink:href="#f0_g" transform="matrix(11.8,0,0,11.8,763,120.2)" />
<use xlink:href="#f0_b" transform="matrix(11.8,0,0,11.8,772.6,120.2)" />
<use xlink:href="#f0_h" transform="matrix(11.8,0,0,11.8,789.4,120.2)" />
<use xlink:href="#f0_d" transform="matrix(11.8,0,0,11.8,800.7,120.2)" />
<use xlink:href="#f0_l" transform="matrix(11.8,0,0,11.8,805.9,120.2)" />
<use xlink:href="#f0_b" transform="matrix(11.8,0,0,11.8,812.9,120.2)" />
<use xlink:href="#f0_6" transform="matrix(11.8,0,0,11.8,824.1,120.2)" />
<use xlink:href="#f0_c" transform="matrix(11.8,0,0,11.8,833.8,120.2)" />
<use xlink:href="#f0_a" transform="matrix(11.8,0,0,11.8,841,120.2)" />
<use xlink:href="#f0_r" transform="matrix(11.8,0,0,11.8,846.2,120.2)" />
<use xlink:href="#f0_o" transform="matrix(11.8,0,0,11.8,857,120.2)" />
<use xlink:href="#f0_2" transform="matrix(11.7,0,0,11.7,38.5,176.2)" />
<use xlink:href="#f0_1c" transform="matrix(11.7,0,0,11.7,49.9,176.2)" />
<use xlink:href="#f0_15" transform="matrix(11.8,0,0,11.8,61.6,176.2)" />
<use xlink:href="#f0_l" transform="matrix(11.8,0,0,11.8,74.2,176.2)" />
<use xlink:href="#f0_b" transform="matrix(11.8,0,0,11.8,81.1,176.2)" />
<use xlink:href="#f0_k" transform="matrix(11.8,0,0,11.8,92.4,176.2)" />
<use xlink:href="#f0_c" transform="matrix(11.8,0,0,11.8,103.5,176.2)" />
<use xlink:href="#f0_b" transform="matrix(11.8,0,0,11.8,110.7,176.2)" />
<use xlink:href="#f0_c" transform="matrix(11.8,0,0,11.8,127.5,176.2)" />
<use xlink:href="#f0_f" transform="matrix(11.8,0,0,11.8,134.6,176.2)" />
<use xlink:href="#f0_b" transform="matrix(11.8,0,0,11.8,146.2,176.2)" />
<use xlink:href="#f0_c" transform="matrix(11.8,0,0,11.8,163,176.2)" />
<use xlink:href="#f0_k" transform="matrix(11.8,0,0,11.8,170.2,176.2)" />
<use xlink:href="#f0_m" transform="matrix(11.8,0,0,11.8,181.3,176.2)" />
<use xlink:href="#f0_a" transform="matrix(11.8,0,0,11.8,192.8,176.2)" />
<use xlink:href="#f0_b" transform="matrix(11.8,0,0,11.8,197.9,176.2)" />
<use xlink:href="#f0_24" transform="matrix(11.8,0,0,11.8,214.8,176.2)" />
<use xlink:href="#f0_1h" transform="matrix(11.8,0,0,11.8,219.8,176.2)" />
<use xlink:href="#f0_6" transform="matrix(11.8,0,0,11.8,231.8,176.2)" />
<use xlink:href="#f0_6" transform="matrix(11.8,0,0,11.8,241.8,176.2)" />
<use xlink:href="#f0_7" transform="matrix(11.8,0,0,11.8,251.7,176.2)" />
<use xlink:href="#f0_i" transform="matrix(11.8,0,0,11.8,262.7,176.2)" />
<use xlink:href="#f0_4" transform="matrix(11.8,0,0,11.8,274,176.2)" />
<use xlink:href="#f0_c" transform="matrix(11.8,0,0,11.8,285.6,176.2)" />
<use xlink:href="#f0_24" transform="matrix(11.8,0,0,11.8,292.6,176.2)" />
<use xlink:href="#f0_k" transform="matrix(11.8,0,0,11.8,303.3,176.2)" />
<use xlink:href="#f0_g" transform="matrix(11.8,0,0,11.8,314.4,176.2)" />
<use xlink:href="#f0_9" transform="matrix(11.8,0,0,11.8,329.7,176.2)" />
<use xlink:href="#f0_b" transform="matrix(11.8,0,0,11.8,341.1,176.2)" />
<use xlink:href="#f0_l" transform="matrix(11.8,0,0,11.8,352.4,176.2)" />
<use xlink:href="#f0_m" transform="matrix(11.8,0,0,11.8,365.6,176.2)" />
<use xlink:href="#f0_b" transform="matrix(11.8,0,0,11.8,377.1,176.2)" />
<use xlink:href="#f0_a" transform="matrix(11.8,0,0,11.8,388.3,176.2)" />
<use xlink:href="#f0_7" transform="matrix(11.8,0,0,11.8,393.5,176.2)" />
<use xlink:href="#f0_12" transform="matrix(11.8,0,0,11.8,404.5,176.2)" />
<use xlink:href="#f0_g" transform="matrix(11.8,0,0,11.8,424.9,176.2)" />
<use xlink:href="#f0_9" transform="matrix(11.8,0,0,11.8,434.4,176.2)" />
<use xlink:href="#f0_b" transform="matrix(11.8,0,0,11.8,446,176.2)" />
<use xlink:href="#f0_6" transform="matrix(11.8,0,0,11.8,457.1,176.2)" />
<use xlink:href="#f0_d" transform="matrix(11.8,0,0,11.8,467,176.2)" />
<use xlink:href="#f0_1s" transform="matrix(11.8,0,0,11.8,472,176.2)" />
<use xlink:href="#f0_6" transform="matrix(11.8,0,0,11.8,483.6,176.2)" />
<use xlink:href="#f0_k" transform="matrix(11.8,0,0,11.8,493.6,176.2)" />
<use xlink:href="#f0_c" transform="matrix(11.8,0,0,11.8,504.7,176.2)" />
<use xlink:href="#f0_d" transform="matrix(11.8,0,0,11.8,511.8,176.2)" />
<use xlink:href="#f0_7" transform="matrix(11.8,0,0,11.8,516.9,176.2)" />
<use xlink:href="#f0_4" transform="matrix(11.8,0,0,11.8,527.9,176.2)" />
<use xlink:href="#f0_g" transform="matrix(11.8,0,0,11.8,539.5,176.2)" />
<use xlink:href="#f0_n" transform="matrix(11.8,0,0,11.8,548.9,176.2)" />
<use xlink:href="#f0_t" transform="matrix(11.7,0,0,11.7,38.5,479.6)" />
<use xlink:href="#f0_1c" transform="matrix(11.7,0,0,11.7,49.9,479.6)" />
<use xlink:href="#f0_u" transform="matrix(11.8,0,0,11.8,61.6,479.6)" />
<use xlink:href="#f0_4" transform="matrix(11.8,0,0,11.8,66.9,479.6)" />
<use xlink:href="#f0_g" transform="matrix(11.8,0,0,11.8,78.4,479.6)" />
<use xlink:href="#f0_b" transform="matrix(11.8,0,0,11.8,88,479.6)" />
<use xlink:href="#f0_l" transform="matrix(11.8,0,0,11.8,99.1,479.6)" />
<use xlink:href="#f0_c" transform="matrix(11.8,0,0,11.8,106.6,479.6)" />
<use xlink:href="#f0_c" transform="matrix(11.8,0,0,11.8,119.4,479.6)" />
<use xlink:href="#f0_f" transform="matrix(11.8,0,0,11.8,126.5,479.6)" />
<use xlink:href="#f0_b" transform="matrix(11.8,0,0,11.8,138.1,479.6)" />
<use xlink:href="#f0_e" transform="matrix(11.8,0,0,11.8,154.9,479.6)" />
<use xlink:href="#f0_7" transform="matrix(11.8,0,0,11.8,161.3,479.6)" />
<use xlink:href="#f0_a" transform="matrix(11.8,0,0,11.8,172.3,479.6)" />
<use xlink:href="#f0_a" transform="matrix(11.8,0,0,11.8,177.5,479.6)" />
<use xlink:href="#f0_7" transform="matrix(11.8,0,0,11.8,182.5,479.6)" />
<use xlink:href="#f0_12" transform="matrix(11.8,0,0,11.8,193.5,479.6)" />
<use xlink:href="#f0_d" transform="matrix(11.8,0,0,11.8,208.3,479.6)" />
<use xlink:href="#f0_4" transform="matrix(11.8,0,0,11.8,213.5,479.6)" />
<use xlink:href="#f0_x" transform="matrix(11.8,0,0,11.8,225.1,479.6)" />
<use xlink:href="#f0_l" transform="matrix(11.8,0,0,11.8,242.1,479.6)" />
<use xlink:href="#f0_7" transform="matrix(11.8,0,0,11.8,249.1,479.6)" />
<use xlink:href="#f0_12" transform="matrix(11.8,0,0,11.8,260.1,479.6)" />
<use xlink:href="#f0_g" transform="matrix(11.8,0,0,11.8,274.9,479.6)" />
<use xlink:href="#f0_d" transform="matrix(11.8,0,0,11.8,290.1,479.6)" />
<use xlink:href="#f0_4" transform="matrix(11.8,0,0,11.8,295.2,479.6)" />
<use xlink:href="#f0_c" transform="matrix(11.8,0,0,11.8,312.4,479.6)" />
<use xlink:href="#f0_f" transform="matrix(11.8,0,0,11.8,319.6,479.6)" />
<use xlink:href="#f0_b" transform="matrix(11.8,0,0,11.8,331,479.6)" />
<use xlink:href="#f0_c" transform="matrix(11.8,0,0,11.8,348,479.6)" />
<use xlink:href="#f0_k" transform="matrix(11.8,0,0,11.8,355.1,479.6)" />
<use xlink:href="#f0_m" transform="matrix(11.8,0,0,11.8,366.3,479.6)" />
<use xlink:href="#f0_a" transform="matrix(11.8,0,0,11.8,377.7,479.6)" />
<use xlink:href="#f0_b" transform="matrix(11.8,0,0,11.8,382.9,479.6)" />
<use xlink:href="#f0_n" transform="matrix(11.8,0,0,11.8,394,479.6)" />
<use xlink:href="#f0_y" transform="matrix(11.7,0,0,11.7,38.5,785.9)" />
<use xlink:href="#f0_1c" transform="matrix(11.7,0,0,11.7,49.9,785.9)" />
<use xlink:href="#f0_16" transform="matrix(11.8,0,0,11.8,61.6,785.9)" />
<use xlink:href="#f0_d" transform="matrix(11.8,0,0,11.8,75.6,785.9)" />
<use xlink:href="#f0_g" transform="matrix(11.8,0,0,11.8,80.8,785.9)" />
<use xlink:href="#f0_9" transform="matrix(11.8,0,0,11.8,90.4,785.9)" />
<use xlink:href="#f0_a" transform="matrix(11.8,0,0,11.8,101.8,785.9)" />
<use xlink:href="#f0_k" transform="matrix(11.8,0,0,11.8,107,785.9)" />
<use xlink:href="#f0_r" transform="matrix(11.8,0,0,11.8,118.2,785.9)" />
<use xlink:href="#f0_c" transform="matrix(11.8,0,0,11.8,134.7,785.9)" />
<use xlink:href="#f0_f" transform="matrix(11.8,0,0,11.8,141.8,785.9)" />
<use xlink:href="#f0_b" transform="matrix(11.8,0,0,11.8,153.3,785.9)" />
<use xlink:href="#f0_6" transform="matrix(11.8,0,0,11.8,170.2,785.9)" />
<use xlink:href="#f0_i" transform="matrix(11.8,0,0,11.8,180,785.9)" />
<use xlink:href="#f0_g" transform="matrix(11.8,0,0,11.8,191.4,785.9)" />
<use xlink:href="#f0_c" transform="matrix(11.8,0,0,11.8,200.9,785.9)" />
<use xlink:href="#f0_7" transform="matrix(11.8,0,0,11.8,208,785.9)" />
<use xlink:href="#f0_8" transform="matrix(11.8,0,0,11.8,219,785.9)" />
<use xlink:href="#f0_b" transform="matrix(11.8,0,0,11.8,236.7,785.9)" />
<use xlink:href="#f0_l" transform="matrix(11.8,0,0,11.8,248,785.9)" />
<use xlink:href="#f0_d" transform="matrix(11.8,0,0,11.8,261.1,785.9)" />
<use xlink:href="#f0_h" transform="matrix(11.8,0,0,11.8,266.3,785.9)" />
<use xlink:href="#f0_k" transform="matrix(11.8,0,0,11.8,283.3,785.9)" />
<use xlink:href="#f0_4" transform="matrix(11.8,0,0,11.8,294.5,785.9)" />
<use xlink:href="#f0_h" transform="matrix(11.8,0,0,11.8,306,785.9)" />
<use xlink:href="#f0_k" transform="matrix(11.8,0,0,11.8,323.1,785.9)" />
<use xlink:href="#f0_6" transform="matrix(11.8,0,0,11.8,334.2,785.9)" />
<use xlink:href="#f0_6" transform="matrix(11.8,0,0,11.8,344.1,785.9)" />
<use xlink:href="#f0_7" transform="matrix(11.8,0,0,11.8,354.1,785.9)" />
<use xlink:href="#f0_i" transform="matrix(11.8,0,0,11.8,365,785.9)" />
<use xlink:href="#f0_4" transform="matrix(11.8,0,0,11.8,376.4,785.9)" />
<use xlink:href="#f0_c" transform="matrix(11.8,0,0,11.8,387.9,785.9)" />
<use xlink:href="#f0_m" transform="matrix(11.8,0,0,11.8,400.6,785.9)" />
<use xlink:href="#f0_k" transform="matrix(11.8,0,0,11.8,412.2,785.9)" />
<use xlink:href="#f0_a" transform="matrix(11.8,0,0,11.8,423.4,785.9)" />
<use xlink:href="#f0_k" transform="matrix(11.8,0,0,11.8,428.5,785.9)" />
<use xlink:href="#f0_4" transform="matrix(11.8,0,0,11.8,439.7,785.9)" />
<use xlink:href="#f0_6" transform="matrix(11.8,0,0,11.8,451.3,785.9)" />
<use xlink:href="#f0_b" transform="matrix(11.8,0,0,11.8,461,785.9)" />
<use xlink:href="#f0_7" transform="matrix(11.8,0,0,11.8,478,785.9)" />
<use xlink:href="#f0_e" transform="matrix(11.8,0,0,11.8,489,785.9)" />
<use xlink:href="#f0_c" transform="matrix(11.8,0,0,11.8,501.1,785.9)" />
<use xlink:href="#f0_f" transform="matrix(11.8,0,0,11.8,508.2,785.9)" />
<use xlink:href="#f0_b" transform="matrix(11.8,0,0,11.8,519.8,785.9)" />
<use xlink:href="#f0_6" transform="matrix(11.8,0,0,11.8,536.6,785.9)" />
<use xlink:href="#f0_i" transform="matrix(11.8,0,0,11.8,546.5,785.9)" />
<use xlink:href="#f0_g" transform="matrix(11.8,0,0,11.8,557.8,785.9)" />
<use xlink:href="#f0_c" transform="matrix(11.8,0,0,11.8,567.3,785.9)" />
<use xlink:href="#f0_7" transform="matrix(11.8,0,0,11.8,574.4,785.9)" />
<use xlink:href="#f0_8" transform="matrix(11.8,0,0,11.8,585.4,785.9)" />
<use xlink:href="#f0_b" transform="matrix(11.8,0,0,11.8,603.3,785.9)" />
<use xlink:href="#f0_l" transform="matrix(11.8,0,0,11.8,614.4,785.9)" />
<use xlink:href="#f0_12" transform="matrix(11.8,0,0,11.8,627.6,785.9)" />
<use xlink:href="#f0_d" transform="matrix(11.8,0,0,11.8,642.4,785.9)" />
<use xlink:href="#f0_c" transform="matrix(11.8,0,0,11.8,647.5,785.9)" />
<use xlink:href="#f0_f" transform="matrix(11.8,0,0,11.8,654.7,785.9)" />
<use xlink:href="#f0_8" transform="matrix(11.8,0,0,11.8,671.9,785.9)" />
<use xlink:href="#f0_k" transform="matrix(11.8,0,0,11.8,689.6,785.9)" />
<use xlink:href="#f0_v" transform="matrix(11.8,0,0,11.8,700.8,785.9)" />
<use xlink:href="#f0_d" transform="matrix(11.8,0,0,11.8,711.6,785.9)" />
<use xlink:href="#f0_8" transform="matrix(11.8,0,0,11.8,716.8,785.9)" />
<use xlink:href="#f0_i" transform="matrix(11.8,0,0,11.8,734.5,785.9)" />
<use xlink:href="#f0_8" transform="matrix(11.8,0,0,11.8,745.8,785.9)" />
<use xlink:href="#f0_k" transform="matrix(11.8,0,0,11.8,769.3,785.9)" />
<use xlink:href="#f0_6" transform="matrix(11.8,0,0,11.8,780.4,785.9)" />
<use xlink:href="#f0_6" transform="matrix(11.8,0,0,11.8,790.4,785.9)" />
<use xlink:href="#f0_7" transform="matrix(11.8,0,0,11.8,800.3,785.9)" />
<use xlink:href="#f0_i" transform="matrix(11.8,0,0,11.8,811.3,785.9)" />
<use xlink:href="#f0_4" transform="matrix(11.8,0,0,11.8,822.6,785.9)" />
<use xlink:href="#f0_c" transform="matrix(11.8,0,0,11.8,834.2,785.9)" />
<use xlink:href="#f0_m" transform="matrix(11.8,0,0,11.8,847,785.9)" />
<use xlink:href="#f0_k" transform="matrix(11.8,0,0,11.8,858.4,785.9)" />
<use xlink:href="#f0_a" transform="matrix(11.8,0,0,11.8,869.7,785.9)" />
<use xlink:href="#f0_k" transform="matrix(11.8,0,0,11.8,874.7,785.9)" />
<use xlink:href="#f0_4" transform="matrix(11.8,0,0,11.8,885.9,785.9)" />
<use xlink:href="#f0_6" transform="matrix(11.8,0,0,11.8,897.5,785.9)" />
<use xlink:href="#f0_b" transform="matrix(11.8,0,0,11.8,907.4,785.9)" />
<use xlink:href="#f0_1c" transform="matrix(11.8,0,0,11.8,918.5,785.9)" />
<use xlink:href="#f0_10" transform="matrix(11.7,0,0,11.7,38.5,841.8)" />
<use xlink:href="#f0_1c" transform="matrix(11.7,0,0,11.7,49.9,841.8)" />
<use xlink:href="#f0_19" transform="matrix(11.8,0,0,11.8,67.2,841.8)" />
<use xlink:href="#f0_b" transform="matrix(11.8,0,0,11.8,76.5,841.8)" />
<use xlink:href="#f0_c" transform="matrix(11.8,0,0,11.8,87.8,841.8)" />
<use xlink:href="#f0_6" transform="matrix(11.8,0,0,11.8,94.9,841.8)" />
<use xlink:href="#f0_f" transform="matrix(11.8,0,0,11.8,104.8,841.8)" />
<use xlink:href="#f0_c" transform="matrix(11.8,0,0,11.8,122,841.8)" />
<use xlink:href="#f0_f" transform="matrix(11.8,0,0,11.8,129.2,841.8)" />
<use xlink:href="#f0_b" transform="matrix(11.8,0,0,11.8,140.8,841.8)" />
<use xlink:href="#f0_k" transform="matrix(11.8,0,0,11.8,157.6,841.8)" />
<use xlink:href="#f0_6" transform="matrix(11.8,0,0,11.8,168.7,841.8)" />
<use xlink:href="#f0_6" transform="matrix(11.8,0,0,11.8,178.6,841.8)" />
<use xlink:href="#f0_7" transform="matrix(11.8,0,0,11.8,188.4,841.8)" />
<use xlink:href="#f0_i" transform="matrix(11.8,0,0,11.8,199.4,841.8)" />
<use xlink:href="#f0_4" transform="matrix(11.8,0,0,11.8,210.8,841.8)" />
<use xlink:href="#f0_c" transform="matrix(11.8,0,0,11.8,222.4,841.8)" />
<use xlink:href="#f0_m" transform="matrix(11.8,0,0,11.8,235.3,841.8)" />
<use xlink:href="#f0_k" transform="matrix(11.8,0,0,11.8,246.7,841.8)" />
<use xlink:href="#f0_a" transform="matrix(11.8,0,0,11.8,257.8,841.8)" />
<use xlink:href="#f0_k" transform="matrix(11.8,0,0,11.8,263,841.8)" />
<use xlink:href="#f0_4" transform="matrix(11.8,0,0,11.8,274.2,841.8)" />
<use xlink:href="#f0_6" transform="matrix(11.8,0,0,11.8,285.8,841.8)" />
<use xlink:href="#f0_b" transform="matrix(11.8,0,0,11.8,295.7,841.8)" />
<use xlink:href="#f0_7" transform="matrix(11.8,0,0,11.8,312.5,841.8)" />
<use xlink:href="#f0_e" transform="matrix(11.8,0,0,11.8,323.5,841.8)" />
<use xlink:href="#f0_c" transform="matrix(11.8,0,0,11.8,335.5,841.8)" />
<use xlink:href="#f0_f" transform="matrix(11.8,0,0,11.8,342.7,841.8)" />
<use xlink:href="#f0_b" transform="matrix(11.8,0,0,11.8,354.3,841.8)" />
<use xlink:href="#f0_6" transform="matrix(11.8,0,0,11.8,371.1,841.8)" />
<use xlink:href="#f0_i" transform="matrix(11.8,0,0,11.8,381,841.8)" />
<use xlink:href="#f0_g" transform="matrix(11.8,0,0,11.8,392.3,841.8)" />
<use xlink:href="#f0_c" transform="matrix(11.8,0,0,11.8,401.9,841.8)" />
<use xlink:href="#f0_7" transform="matrix(11.8,0,0,11.8,408.9,841.8)" />
<use xlink:href="#f0_8" transform="matrix(11.8,0,0,11.8,419.9,841.8)" />
<use xlink:href="#f0_b" transform="matrix(11.8,0,0,11.8,437.8,841.8)" />
<use xlink:href="#f0_l" transform="matrix(11.8,0,0,11.8,448.9,841.8)" />
<use xlink:href="#f0_12" transform="matrix(11.8,0,0,11.8,462.1,841.8)" />
<use xlink:href="#f0_d" transform="matrix(11.8,0,0,11.8,477,841.8)" />
<use xlink:href="#f0_c" transform="matrix(11.8,0,0,11.8,482.1,841.8)" />
<use xlink:href="#f0_f" transform="matrix(11.8,0,0,11.8,489.2,841.8)" />
<use xlink:href="#f0_6" transform="matrix(11.8,0,0,11.8,506.5,841.8)" />
<use xlink:href="#f0_i" transform="matrix(11.8,0,0,11.8,516.4,841.8)" />
<use xlink:href="#f0_g" transform="matrix(11.8,0,0,11.8,527.7,841.8)" />
<use xlink:href="#f0_c" transform="matrix(11.8,0,0,11.8,537.1,841.8)" />
<use xlink:href="#f0_7" transform="matrix(11.8,0,0,11.8,544.3,841.8)" />
<use xlink:href="#f0_8" transform="matrix(11.8,0,0,11.8,555.3,841.8)" />
<use xlink:href="#f0_b" transform="matrix(11.8,0,0,11.8,573,841.8)" />
<use xlink:href="#f0_l" transform="matrix(11.8,0,0,11.8,584.3,841.8)" />
<use xlink:href="#f0_d" transform="matrix(11.8,0,0,11.8,597.4,841.8)" />
<use xlink:href="#f0_h" transform="matrix(11.8,0,0,11.8,602.6,841.8)" />
<use xlink:href="#f0_2" transform="matrix(11.8,0,0,11.8,619.5,841.8)" />
<use xlink:href="#f0_1j" transform="matrix(11.8,0,0,11.8,631.1,841.8)" />
<use xlink:href="#f0_t" transform="matrix(11.8,0,0,11.8,642.7,841.8)" />
<use xlink:href="#f0_k" transform="matrix(11.8,0,0,11.8,659.8,841.8)" />
<use xlink:href="#f0_4" transform="matrix(11.8,0,0,11.8,671.1,841.8)" />
<use xlink:href="#f0_h" transform="matrix(11.8,0,0,11.8,682.6,841.8)" />
<use xlink:href="#f0_g" transform="matrix(11.8,0,0,11.8,699.7,841.8)" />
<use xlink:href="#f0_c" transform="matrix(11.8,0,0,11.8,709.1,841.8)" />
<use xlink:href="#f0_7" transform="matrix(11.8,0,0,11.8,716.3,841.8)" />
<use xlink:href="#f0_l" transform="matrix(11.8,0,0,11.8,727.3,841.8)" />
<use xlink:href="#f0_b" transform="matrix(11.8,0,0,11.8,734.3,841.8)" />
<use xlink:href="#f0_d" transform="matrix(11.8,0,0,11.8,751.1,841.8)" />
<use xlink:href="#f0_c" transform="matrix(11.8,0,0,11.8,756.3,841.8)" />
<use xlink:href="#f0_d" transform="matrix(11.8,0,0,11.8,769.1,841.8)" />
<use xlink:href="#f0_4" transform="matrix(11.8,0,0,11.8,774.1,841.8)" />
<use xlink:href="#f0_k" transform="matrix(11.8,0,0,11.8,791.4,841.8)" />
<use xlink:href="#f0_s" transform="matrix(11.8,0,0,11.8,808.2,841.8)" />
<use xlink:href="#f0_r" transform="matrix(11.8,0,0,11.8,819,841.8)" />
<use xlink:href="#f0_c" transform="matrix(11.8,0,0,11.8,829.9,841.8)" />
<use xlink:href="#f0_f" transform="matrix(11.8,0,0,11.8,837,841.8)" />
<use xlink:href="#f0_7" transform="matrix(11.8,0,0,11.8,848.5,841.8)" />
<use xlink:href="#f0_4" transform="matrix(11.8,0,0,11.8,859.5,841.8)" />
<use xlink:href="#f0_q" transform="matrix(11.8,0,0,11.8,876.7,841.8)" />
<use xlink:href="#f0_k" transform="matrix(11.8,0,0,11.8,887.6,841.8)" />
<use xlink:href="#f0_l" transform="matrix(11.8,0,0,11.8,898.7,841.8)" />
<use xlink:href="#f0_d" transform="matrix(11.8,0,0,11.8,906.2,841.8)" />
<use xlink:href="#f0_k" transform="matrix(11.8,0,0,11.8,911.3,841.8)" />
<use xlink:href="#f0_m" transform="matrix(11.8,0,0,11.8,922.5,841.8)" />
<use xlink:href="#f0_a" transform="matrix(11.8,0,0,11.8,934.1,841.8)" />
<use xlink:href="#f0_b" transform="matrix(11.8,0,0,11.8,939.1,841.8)" />
<use xlink:href="#f0_1z" transform="matrix(11.8,0,0,11.8,956,841.8)" />
<use xlink:href="#f0_24" transform="matrix(11.8,0,0,11.8,970.8,841.8)" />
<use xlink:href="#f0_k" transform="matrix(11.8,0,0,11.8,975.9,841.8)" />
<use xlink:href="#f0_6" transform="matrix(11.8,0,0,11.8,987,841.8)" />
<use xlink:href="#f0_6" transform="matrix(11.8,0,0,11.8,996.8,841.8)" />
<use xlink:href="#f0_c" transform="matrix(11.8,0,0,11.8,1006.7,841.8)" />
<use xlink:href="#f0_w" transform="matrix(11.8,0,0,11.8,1013.9,841.8)" />
<use xlink:href="#f0_m" transform="matrix(11.8,0,0,11.8,1022.9,841.8)" />
<use xlink:href="#f0_k" transform="matrix(11.8,0,0,11.8,1034.3,841.8)" />
<use xlink:href="#f0_a" transform="matrix(11.8,0,0,11.8,1045.5,841.8)" />
<use xlink:href="#f0_24" transform="matrix(11.8,0,0,11.8,1050.6,841.8)" />
<use xlink:href="#f0_1c" transform="matrix(11.8,0,0,11.8,1055.7,841.8)" />
<use xlink:href="#f0_14" transform="matrix(11.7,0,0,11.7,38.5,897.7)" />
<use xlink:href="#f0_1c" transform="matrix(11.7,0,0,11.7,49.9,897.7)" />
<use xlink:href="#f0_u" transform="matrix(11.8,0,0,11.8,68.1,897.7)" />
<use xlink:href="#f0_4" transform="matrix(11.8,0,0,11.8,73.5,897.7)" />
<use xlink:href="#f0_6" transform="matrix(11.8,0,0,11.8,84.9,897.7)" />
<use xlink:href="#f0_l" transform="matrix(11.8,0,0,11.8,94.8,897.7)" />
<use xlink:href="#f0_b" transform="matrix(11.8,0,0,11.8,101.9,897.7)" />
<use xlink:href="#f0_8" transform="matrix(11.8,0,0,11.8,113,897.7)" />
<use xlink:href="#f0_b" transform="matrix(11.8,0,0,11.8,130.9,897.7)" />
<use xlink:href="#f0_4" transform="matrix(11.8,0,0,11.8,142,897.7)" />
<use xlink:href="#f0_c" transform="matrix(11.8,0,0,11.8,153.5,897.7)" />
<use xlink:href="#f0_24" transform="matrix(11.8,0,0,11.8,167.2,897.7)" />
<use xlink:href="#f0_k" transform="matrix(11.8,0,0,11.8,172.2,897.7)" />
<use xlink:href="#f0_6" transform="matrix(11.8,0,0,11.8,183.3,897.7)" />
<use xlink:href="#f0_6" transform="matrix(11.8,0,0,11.8,193.3,897.7)" />
<use xlink:href="#f0_c" transform="matrix(11.8,0,0,11.8,203.2,897.7)" />
<use xlink:href="#f0_w" transform="matrix(11.8,0,0,11.8,210.2,897.7)" />
<use xlink:href="#f0_m" transform="matrix(11.8,0,0,11.8,219.2,897.7)" />
<use xlink:href="#f0_k" transform="matrix(11.8,0,0,11.8,230.8,897.7)" />
<use xlink:href="#f0_a" transform="matrix(11.8,0,0,11.8,241.9,897.7)" />
<use xlink:href="#f0_24" transform="matrix(11.8,0,0,11.8,247.1,897.7)" />
<use xlink:href="#f0_12" transform="matrix(11.8,0,0,11.8,258.5,897.7)" />
<use xlink:href="#f0_d" transform="matrix(11.8,0,0,11.8,273.3,897.7)" />
<use xlink:href="#f0_c" transform="matrix(11.8,0,0,11.8,278.5,897.7)" />
<use xlink:href="#f0_f" transform="matrix(11.8,0,0,11.8,285.7,897.7)" />
<use xlink:href="#f0_t" transform="matrix(11.8,0,0,11.8,303.7,897.7)" />
<use xlink:href="#f0_1j" transform="matrix(11.8,0,0,11.8,315.3,897.7)" />
<use xlink:href="#f0_1j" transform="matrix(11.8,0,0,11.8,326.9,897.7)" />
<use xlink:href="#f0_1j" transform="matrix(11.8,0,0,11.8,338.3,897.7)" />
<use xlink:href="#f0_k" transform="matrix(11.8,0,0,11.8,356.5,897.7)" />
<use xlink:href="#f0_4" transform="matrix(11.8,0,0,11.8,367.6,897.7)" />
<use xlink:href="#f0_h" transform="matrix(11.8,0,0,11.8,379.2,897.7)" />
<use xlink:href="#f0_i" transform="matrix(11.8,0,0,11.8,397,897.7)" />
<use xlink:href="#f0_9" transform="matrix(11.8,0,0,11.8,408.3,897.7)" />
<use xlink:href="#f0_h" transform="matrix(11.8,0,0,11.8,419.9,897.7)" />
<use xlink:href="#f0_k" transform="matrix(11.8,0,0,11.8,431.2,897.7)" />
<use xlink:href="#f0_c" transform="matrix(11.8,0,0,11.8,442.4,897.7)" />
<use xlink:href="#f0_b" transform="matrix(11.8,0,0,11.8,449.5,897.7)" />
<use xlink:href="#f0_c" transform="matrix(11.8,0,0,11.8,467.2,897.7)" />
<use xlink:href="#f0_f" transform="matrix(11.8,0,0,11.8,474.4,897.7)" />
<use xlink:href="#f0_b" transform="matrix(11.8,0,0,11.8,486,897.7)" />
<use xlink:href="#f0_24" transform="matrix(11.8,0,0,11.8,503.7,897.7)" />
<use xlink:href="#f0_27" transform="matrix(11.8,0,0,11.8,508.5,897.7)" />
<use xlink:href="#f0_k" transform="matrix(11.8,0,0,11.8,521.1,897.7)" />
<use xlink:href="#f0_a" transform="matrix(11.8,0,0,11.8,532.2,897.7)" />
<use xlink:href="#f0_k" transform="matrix(11.8,0,0,11.8,537.2,897.7)" />
<use xlink:href="#f0_4" transform="matrix(11.8,0,0,11.8,548.5,897.7)" />
<use xlink:href="#f0_6" transform="matrix(11.8,0,0,11.8,560,897.7)" />
<use xlink:href="#f0_b" transform="matrix(11.8,0,0,11.8,569.9,897.7)" />
<use xlink:href="#f0_24" transform="matrix(11.8,0,0,11.8,581,897.7)" />
<use xlink:href="#f0_1s" transform="matrix(11.8,0,0,11.8,592.4,897.7)" />
<use xlink:href="#f0_b" transform="matrix(11.8,0,0,11.8,604,897.7)" />
<use xlink:href="#f0_a" transform="matrix(11.8,0,0,11.8,615.2,897.7)" />
<use xlink:href="#f0_h" transform="matrix(11.8,0,0,11.8,620.3,897.7)" />
<use xlink:href="#f0_7" transform="matrix(11.8,0,0,11.8,638.2,897.7)" />
<use xlink:href="#f0_e" transform="matrix(11.8,0,0,11.8,649.2,897.7)" />
<use xlink:href="#f0_c" transform="matrix(11.8,0,0,11.8,662.1,897.7)" />
<use xlink:href="#f0_f" transform="matrix(11.8,0,0,11.8,669.3,897.7)" />
<use xlink:href="#f0_b" transform="matrix(11.8,0,0,11.8,680.9,897.7)" />
<use xlink:href="#f0_c" transform="matrix(11.8,0,0,11.8,698.6,897.7)" />
<use xlink:href="#f0_k" transform="matrix(11.8,0,0,11.8,705.6,897.7)" />
<use xlink:href="#f0_m" transform="matrix(11.8,0,0,11.8,716.9,897.7)" />
<use xlink:href="#f0_a" transform="matrix(11.8,0,0,11.8,728.3,897.7)" />
<use xlink:href="#f0_b" transform="matrix(11.8,0,0,11.8,733.5,897.7)" />
<use xlink:href="#f0_1i" transform="matrix(11.8,0,0,11.8,751.2,897.7)" />
<use xlink:href="#f0_e" transform="matrix(11.8,0,0,11.8,758.4,897.7)" />
<use xlink:href="#f0_7" transform="matrix(11.8,0,0,11.8,764.8,897.7)" />
<use xlink:href="#f0_l" transform="matrix(11.8,0,0,11.8,775.7,897.7)" />
<use xlink:href="#f0_c" transform="matrix(11.8,0,0,11.8,789.8,897.7)" />
<use xlink:href="#f0_f" transform="matrix(11.8,0,0,11.8,796.8,897.7)" />
<use xlink:href="#f0_k" transform="matrix(11.8,0,0,11.8,808.4,897.7)" />
<use xlink:href="#f0_c" transform="matrix(11.8,0,0,11.8,819.5,897.7)" />
<use xlink:href="#f0_9" transform="matrix(11.8,0,0,11.8,833.2,897.7)" />
<use xlink:href="#f0_k" transform="matrix(11.8,0,0,11.8,844.7,897.7)" />
<use xlink:href="#f0_l" transform="matrix(11.8,0,0,11.8,856,897.7)" />
<use xlink:href="#f0_c" transform="matrix(11.8,0,0,11.8,863.4,897.7)" />
<use xlink:href="#f0_d" transform="matrix(11.8,0,0,11.8,870.6,897.7)" />
<use xlink:href="#f0_6" transform="matrix(11.8,0,0,11.8,875.6,897.7)" />
<use xlink:href="#f0_i" transform="matrix(11.8,0,0,11.8,885.5,897.7)" />
<use xlink:href="#f0_a" transform="matrix(11.8,0,0,11.8,897,897.7)" />
<use xlink:href="#f0_k" transform="matrix(11.8,0,0,11.8,902,897.7)" />
<use xlink:href="#f0_l" transform="matrix(11.8,0,0,11.8,913.1,897.7)" />
<use xlink:href="#f0_6" transform="matrix(11.8,0,0,11.8,927.2,897.7)" />
<use xlink:href="#f0_i" transform="matrix(11.8,0,0,11.8,937.1,897.7)" />
<use xlink:href="#f0_g" transform="matrix(11.8,0,0,11.8,948.5,897.7)" />
<use xlink:href="#f0_c" transform="matrix(11.8,0,0,11.8,958,897.7)" />
<use xlink:href="#f0_7" transform="matrix(11.8,0,0,11.8,965.1,897.7)" />
<use xlink:href="#f0_8" transform="matrix(11.8,0,0,11.8,976.1,897.7)" />
<use xlink:href="#f0_b" transform="matrix(11.8,0,0,11.8,993.8,897.7)" />
<use xlink:href="#f0_l" transform="matrix(11.8,0,0,11.8,1005.1,897.7)" />
<use xlink:href="#f0_o" transform="matrix(11.8,0,0,11.8,1012.6,897.7)" />
<use xlink:href="#f0_12" transform="matrix(11.8,0,0,11.8,1026.2,897.7)" />
<use xlink:href="#f0_d" transform="matrix(11.8,0,0,11.8,1041,897.7)" />
<use xlink:href="#f0_c" transform="matrix(11.8,0,0,11.8,1046.1,897.7)" />
<use xlink:href="#f0_f" transform="matrix(11.8,0,0,11.8,1053.3,897.7)" />
<use xlink:href="#f0_c" transform="matrix(11.8,0,0,11.8,61.6,941.3)" />
<use xlink:href="#f0_f" transform="matrix(11.8,0,0,11.8,68.7,941.3)" />
<use xlink:href="#f0_b" transform="matrix(11.8,0,0,11.8,80.3,941.3)" />
<use xlink:href="#f0_4" transform="matrix(11.8,0,0,11.8,97.1,941.3)" />
<use xlink:href="#f0_b" transform="matrix(11.8,0,0,11.8,108.6,941.3)" />
<use xlink:href="#f0_12" transform="matrix(11.8,0,0,11.8,119.9,941.3)" />
<use xlink:href="#f0_q" transform="matrix(11.8,0,0,11.8,140.3,941.3)" />
<use xlink:href="#f0_k" transform="matrix(11.8,0,0,11.8,151.1,941.3)" />
<use xlink:href="#f0_a" transform="matrix(11.8,0,0,11.8,162.3,941.3)" />
<use xlink:href="#f0_i" transform="matrix(11.8,0,0,11.8,167.5,941.3)" />
<use xlink:href="#f0_b" transform="matrix(11.8,0,0,11.8,178.8,941.3)" />
<use xlink:href="#f0_1c" transform="matrix(11.8,0,0,11.8,189.9,941.3)" />
<use xlink:href="#f0_17" transform="matrix(11.7,0,0,11.7,38.5,997.2)" />
<use xlink:href="#f0_1c" transform="matrix(11.7,0,0,11.7,49.9,997.2)" />
</g>
<g fill="#595959" >
<use xlink:href="#f0_19" transform="matrix(11.8,0,0,11.8,67.2,997.2)" />
<use xlink:href="#f0_b" transform="matrix(11.8,0,0,11.8,76.5,997.2)" />
<use xlink:href="#f0_c" transform="matrix(11.8,0,0,11.8,87.8,997.2)" />
<use xlink:href="#f0_6" transform="matrix(11.8,0,0,11.8,94.9,997.2)" />
<use xlink:href="#f0_f" transform="matrix(11.8,0,0,11.8,104.8,997.2)" />
<use xlink:href="#f0_k" transform="matrix(11.8,0,0,11.8,122,997.2)" />
<use xlink:href="#f0_4" transform="matrix(11.8,0,0,11.8,133.2,997.2)" />
<use xlink:href="#f0_h" transform="matrix(11.8,0,0,11.8,144.8,997.2)" />
<use xlink:href="#f0_7" transform="matrix(11.8,0,0,11.8,161.7,997.2)" />
<use xlink:href="#f0_m" transform="matrix(11.8,0,0,11.8,172.7,997.2)" />
<use xlink:href="#f0_g" transform="matrix(11.8,0,0,11.8,184.3,997.2)" />
<use xlink:href="#f0_b" transform="matrix(11.8,0,0,11.8,193.8,997.2)" />
<use xlink:href="#f0_l" transform="matrix(11.8,0,0,11.8,204.9,997.2)" />
<use xlink:href="#f0_q" transform="matrix(11.8,0,0,11.8,212.5,997.2)" />
<use xlink:href="#f0_b" transform="matrix(11.8,0,0,11.8,223.4,997.2)" />
<use xlink:href="#f0_c" transform="matrix(11.8,0,0,11.8,240.2,997.2)" />
<use xlink:href="#f0_f" transform="matrix(11.8,0,0,11.8,247.3,997.2)" />
<use xlink:href="#f0_b" transform="matrix(11.8,0,0,11.8,258.8,997.2)" />
<use xlink:href="#f0_i" transform="matrix(11.8,0,0,11.8,275.7,997.2)" />
<use xlink:href="#f0_9" transform="matrix(11.8,0,0,11.8,287,997.2)" />
<use xlink:href="#f0_h" transform="matrix(11.8,0,0,11.8,298.6,997.2)" />
<use xlink:href="#f0_k" transform="matrix(11.8,0,0,11.8,309.9,997.2)" />
<use xlink:href="#f0_c" transform="matrix(11.8,0,0,11.8,321.1,997.2)" />
<use xlink:href="#f0_b" transform="matrix(11.8,0,0,11.8,328.2,997.2)" />
<use xlink:href="#f0_h" transform="matrix(11.8,0,0,11.8,339.4,997.2)" />
<use xlink:href="#f0_k" transform="matrix(11.8,0,0,11.8,356.5,997.2)" />
<use xlink:href="#f0_6" transform="matrix(11.8,0,0,11.8,367.6,997.2)" />
<use xlink:href="#f0_6" transform="matrix(11.8,0,0,11.8,377.5,997.2)" />
<use xlink:href="#f0_7" transform="matrix(11.8,0,0,11.8,387.4,997.2)" />
<use xlink:href="#f0_i" transform="matrix(11.8,0,0,11.8,398.4,997.2)" />
<use xlink:href="#f0_4" transform="matrix(11.8,0,0,11.8,409.7,997.2)" />
<use xlink:href="#f0_c" transform="matrix(11.8,0,0,11.8,421.3,997.2)" />
<use xlink:href="#f0_m" transform="matrix(11.8,0,0,11.8,434.1,997.2)" />
<use xlink:href="#f0_k" transform="matrix(11.8,0,0,11.8,445.6,997.2)" />
<use xlink:href="#f0_a" transform="matrix(11.8,0,0,11.8,456.9,997.2)" />
<use xlink:href="#f0_k" transform="matrix(11.8,0,0,11.8,461.9,997.2)" />
<use xlink:href="#f0_4" transform="matrix(11.8,0,0,11.8,473,997.2)" />
<use xlink:href="#f0_6" transform="matrix(11.8,0,0,11.8,484.6,997.2)" />
<use xlink:href="#f0_b" transform="matrix(11.8,0,0,11.8,494.6,997.2)" />
<use xlink:href="#f0_7" transform="matrix(11.8,0,0,11.8,511.4,997.2)" />
<use xlink:href="#f0_e" transform="matrix(11.8,0,0,11.8,522.4,997.2)" />
<use xlink:href="#f0_c" transform="matrix(11.8,0,0,11.8,534.4,997.2)" />
<use xlink:href="#f0_f" transform="matrix(11.8,0,0,11.8,541.6,997.2)" />
<use xlink:href="#f0_b" transform="matrix(11.8,0,0,11.8,553.2,997.2)" />
<use xlink:href="#f0_6" transform="matrix(11.8,0,0,11.8,570,997.2)" />
<use xlink:href="#f0_i" transform="matrix(11.8,0,0,11.8,579.9,997.2)" />
<use xlink:href="#f0_g" transform="matrix(11.8,0,0,11.8,591.3,997.2)" />
<use xlink:href="#f0_c" transform="matrix(11.8,0,0,11.8,600.8,997.2)" />
<use xlink:href="#f0_7" transform="matrix(11.8,0,0,11.8,607.9,997.2)" />
<use xlink:href="#f0_8" transform="matrix(11.8,0,0,11.8,618.9,997.2)" />
<use xlink:href="#f0_b" transform="matrix(11.8,0,0,11.8,636.6,997.2)" />
<use xlink:href="#f0_l" transform="matrix(11.8,0,0,11.8,647.8,997.2)" />
<use xlink:href="#f0_12" transform="matrix(11.8,0,0,11.8,660.9,997.2)" />
<use xlink:href="#f0_d" transform="matrix(11.8,0,0,11.8,675.9,997.2)" />
<use xlink:href="#f0_c" transform="matrix(11.8,0,0,11.8,680.9,997.2)" />
<use xlink:href="#f0_f" transform="matrix(11.8,0,0,11.8,688,997.2)" />
<use xlink:href="#f0_6" transform="matrix(11.8,0,0,11.8,705.3,997.2)" />
<use xlink:href="#f0_i" transform="matrix(11.8,0,0,11.8,715.2,997.2)" />
<use xlink:href="#f0_g" transform="matrix(11.8,0,0,11.8,726.5,997.2)" />
<use xlink:href="#f0_c" transform="matrix(11.8,0,0,11.8,736.1,997.2)" />
<use xlink:href="#f0_7" transform="matrix(11.8,0,0,11.8,743.2,997.2)" />
<use xlink:href="#f0_8" transform="matrix(11.8,0,0,11.8,754.2,997.2)" />
<use xlink:href="#f0_b" transform="matrix(11.8,0,0,11.8,772,997.2)" />
<use xlink:href="#f0_l" transform="matrix(11.8,0,0,11.8,783.2,997.2)" />
<use xlink:href="#f0_d" transform="matrix(11.8,0,0,11.8,796.3,997.2)" />
<use xlink:href="#f0_h" transform="matrix(11.8,0,0,11.8,801.5,997.2)" />
<use xlink:href="#f0_2" transform="matrix(11.8,0,0,11.8,818.5,997.2)" />
<use xlink:href="#f0_1j" transform="matrix(11.8,0,0,11.8,830,997.2)" />
<use xlink:href="#f0_t" transform="matrix(11.8,0,0,11.8,841.6,997.2)" />
<use xlink:href="#f0_1c" transform="matrix(11.8,0,0,11.8,853.1,997.2)" />
<use xlink:href="#f0_22" transform="matrix(11.7,0,0,11.7,38.5,1053.1)" />
<use xlink:href="#f0_1c" transform="matrix(11.7,0,0,11.7,49.9,1053.1)" />
<use xlink:href="#f0_16" transform="matrix(11.8,0,0,11.8,61.6,1053.1)" />
<use xlink:href="#f0_b" transform="matrix(11.8,0,0,11.8,75.6,1053.1)" />
<use xlink:href="#f0_a" transform="matrix(11.8,0,0,11.8,86.9,1053.1)" />
<use xlink:href="#f0_b" transform="matrix(11.8,0,0,11.8,91.9,1053.1)" />
<use xlink:href="#f0_c" transform="matrix(11.8,0,0,11.8,103.1,1053.1)" />
<use xlink:href="#f0_b" transform="matrix(11.8,0,0,11.8,110.2,1053.1)" />
<use xlink:href="#f0_c" transform="matrix(11.8,0,0,11.8,127.2,1053.1)" />
<use xlink:href="#f0_f" transform="matrix(11.8,0,0,11.8,134.3,1053.1)" />
<use xlink:href="#f0_b" transform="matrix(11.8,0,0,11.8,145.8,1053.1)" />
<use xlink:href="#f0_24" transform="matrix(11.8,0,0,11.8,162.7,1053.1)" />
<use xlink:href="#f0_15" transform="matrix(11.8,0,0,11.8,167.6,1053.1)" />
<use xlink:href="#f0_i" transform="matrix(11.8,0,0,11.8,180.2,1053.1)" />
<use xlink:href="#f0_l" transform="matrix(11.8,0,0,11.8,191.5,1053.1)" />
<use xlink:href="#f0_l" transform="matrix(11.8,0,0,11.8,198.7,1053.1)" />
<use xlink:href="#f0_b" transform="matrix(11.8,0,0,11.8,205.7,1053.1)" />
<use xlink:href="#f0_4" transform="matrix(11.8,0,0,11.8,216.9,1053.1)" />
<use xlink:href="#f0_c" transform="matrix(11.8,0,0,11.8,228.3,1053.1)" />
<use xlink:href="#f0_24" transform="matrix(11.8,0,0,11.8,235.5,1053.1)" />
<use xlink:href="#f0_k" transform="matrix(11.8,0,0,11.8,246.2,1053.1)" />
<use xlink:href="#f0_6" transform="matrix(11.8,0,0,11.8,257.3,1053.1)" />
<use xlink:href="#f0_6" transform="matrix(11.8,0,0,11.8,267.2,1053.1)" />
<use xlink:href="#f0_7" transform="matrix(11.8,0,0,11.8,277.1,1053.1)" />
<use xlink:href="#f0_i" transform="matrix(11.8,0,0,11.8,288.1,1053.1)" />
<use xlink:href="#f0_4" transform="matrix(11.8,0,0,11.8,299.4,1053.1)" />
<use xlink:href="#f0_c" transform="matrix(11.8,0,0,11.8,311,1053.1)" />
<use xlink:href="#f0_g" transform="matrix(11.8,0,0,11.8,318.1,1053.1)" />
<use xlink:href="#f0_12" transform="matrix(11.8,0,0,11.8,333.3,1053.1)" />
<use xlink:href="#f0_d" transform="matrix(11.8,0,0,11.8,348.1,1053.1)" />
<use xlink:href="#f0_c" transform="matrix(11.8,0,0,11.8,353.3,1053.1)" />
<use xlink:href="#f0_f" transform="matrix(11.8,0,0,11.8,360.5,1053.1)" />
<use xlink:href="#f0_29" transform="matrix(11.8,0,0,11.8,377.6,1053.1)" />
<use xlink:href="#f0_b" transform="matrix(11.8,0,0,11.8,387,1053.1)" />
<use xlink:href="#f0_l" transform="matrix(11.8,0,0,11.8,398.1,1053.1)" />
<use xlink:href="#f0_7" transform="matrix(11.8,0,0,11.8,405,1053.1)" />
<use xlink:href="#f0_m" transform="matrix(11.8,0,0,11.8,421.7,1053.1)" />
<use xlink:href="#f0_k" transform="matrix(11.8,0,0,11.8,433.3,1053.1)" />
<use xlink:href="#f0_a" transform="matrix(11.8,0,0,11.8,444.4,1053.1)" />
<use xlink:href="#f0_k" transform="matrix(11.8,0,0,11.8,449.6,1053.1)" />
<use xlink:href="#f0_4" transform="matrix(11.8,0,0,11.8,460.7,1053.1)" />
<use xlink:href="#f0_6" transform="matrix(11.8,0,0,11.8,472.3,1053.1)" />
<use xlink:href="#f0_b" transform="matrix(11.8,0,0,11.8,482.1,1053.1)" />
<use xlink:href="#f0_1c" transform="matrix(11.8,0,0,11.8,493.4,1053.1)" />
</g>
</g>
<image x="119" y="210" width="901" height="203" xlink:href="img/2.png" />
<image x="119" y="495" width="901" height="220" xlink:href="img/3.png" />
<defs>
	<path d="M629.4,-21.3c0,0,-253.6,0,-398.7,154.2c0,0,-145.1,154.3,-145.1,421.7c0,0,0,268.9,145.1,423.2c0,0,145.1,155.8,398.7,155.8c0,0,99.4,0,188,-26c0,0,88.6,-27.5,166.5,-80.9l0,-158.9c0,0,-76.4,71.8,-162,106.9c0,0,-87,35.2,-184.8,35.2c0,0,-191,0,-291.8,-116.1c0,0,-100.9,-117.7,-100.9,-339.2c0,0,0,-220,100.9,-336.1c0,0,100.8,-117.7,291.8,-117.7c0,0,97.8,0,183.3,35.2c0,0,87.1,35.1,163.5,106.9l0,-157.3c0,0,-79.5,-55,-168.1,-81c0,0,-88.6,-25.9,-186.4,-25.9Z" 
	id="f0_15"
	transform="scale(0.001,-0.001)" />

	<path d="M467.5,94.7c0,0,108.5,0,172.6,85.6c0,0,64.2,87.1,64.2,235.3c0,0,0,149.7,-64.2,235.2c0,0,-64.1,87.1,-172.6,87.1c0,0,-111.5,0,-175.7,-85.5c0,0,-64.2,-85.6,-64.2,-236.8c0,0,0,-149.8,64.2,-235.3c0,0,64.2,-85.6,175.7,-85.6Zm0,-116c0,0,-180.3,0,-281.1,116C186.4,94.7,84,210.8,84,415.6c0,0,0,206.2,100.9,322.3c0,0,102.3,117.7,282.6,117.7c0,0,178.8,0,281.1,-116.2c0,0,102.4,-117.6,102.4,-323.8c0,0,0,-204.8,-102.4,-320.9c0,0,-102.3,-116,-281.1,-116Z" 
	id="f0_7"
	transform="scale(0.001,-0.001)" />

	<path d="M137.5,0l0,834.2l139,0l0,-129.9c0,0,48.9,76.4,114.6,113.1c0,0,67.2,38.2,154.3,38.2c0,0,145.2,0,218.5,-88.7c0,0,73.3,-90.1,73.3,-262.7L837.2,0L699.7,0l0,499.6c0,0,0,117.6,-45.8,175.7c0,0,-45.8,59.6,-139,59.6c0,0,-110,0,-174.2,-70.3c0,0,-64.2,-70.3,-64.2,-192.5L276.5,0Z" 
	id="f0_4"
	transform="scale(0.001,-0.001)" />

	<path d="M375.8,-21.3c0,0,-67.2,0,-140.5,12.2c0,0,-73.4,12.2,-152.8,39.7l0,140.5c0,0,76.4,-39.7,149.7,-58c0,0,73.4,-19.9,146.7,-19.9c0,0,96.2,0,148.2,32.1c0,0,51.9,33.6,51.9,94.7c0,0,0,55,-36.6,84c0,0,-38.2,30.6,-165,58.1l-48.9,12.2c0,0,-126.8,26,-183.4,81c0,0,-56.5,56.5,-56.5,152.8c0,0,0,119.1,82.5,183.3c0,0,84,64.2,238.3,64.2c0,0,74.9,0,142.1,-10.7c0,0,67.3,-12.3,123.8,-35.2l0,-129.8c0,0,-58.1,30.5,-120.7,44.3c0,0,-62.7,15.2,-129.9,15.2c0,0,-102.3,0,-152.8,-30.5c0,0,-50.4,-32.1,-50.4,-94.7c0,0,0,-47.4,35.2,-74.9c0,0,36.6,-27.5,148.2,-51.9l45.8,-10.7c0,0,146.7,-30.6,207.8,-87.1c0,0,62.6,-58.1,62.6,-160.4c0,0,0,-116.1,-91.7,-183.4c0,0,-93.1,-67.1,-253.6,-67.1Z" 
	id="f0_g"
	transform="scale(0.001,-0.001)" />

	<path d="M143,0l0,834l138,0L281,0Zm0,985l0,174l138,0l0,-174Z" 
	id="f0_d"
	transform="scale(0.001,-0.001)" />

	<path d="M458.3,93.2c0,0,110,0,172.7,85.6c0,0,62.6,85.5,62.6,236.8c0,0,0,152.7,-62.6,238.3c0,0,-62.7,85.5,-172.7,85.5c0,0,-108.4,0,-171.1,-85.5c0,0,-62.6,-85.6,-62.6,-238.3c0,0,0,-151.3,62.6,-236.8c0,0,62.7,-85.6,171.1,-85.6ZM424.7,-21.3c0,0,-151.2,0,-245.9,120.6C178.8,99.3,84,220,84,415.6c0,0,0,197,94.8,317.7c0,0,94.7,122.3,245.9,122.3c0,0,93.2,0,158.9,-36.7c0,0,65.7,-36.7,110,-111.5l0,452.2l136,0L829.6,0l-136,0l0,125.3c0,0,-44.3,-74.9,-110,-110c0,0,-65.7,-36.6,-158.9,-36.6Z" 
	id="f0_h"
	transform="scale(0.001,-0.001)" />

	<path d="M230.7,490.4l490.4,1.5c0,0,-1.5,111.6,-62.6,178.8c0,0,-62.7,67.2,-163.5,67.2c0,0,-114.6,0,-183.3,-64.1c0,0,-70.3,-65.7,-81,-183.4ZM516.4,-21.3c0,0,-198.6,0,-314.7,116C201.7,94.7,84,210.8,84,409.4c0,0,0,204.8,110,325.5c0,0,111.6,120.7,299.5,120.7c0,0,168,0,265.8,-108.5c0,0,99.3,-110,99.3,-296.4l0,-67.2l-632.5,0c0,0,9.2,-140.6,85.6,-213.9c0,0,76.4,-74.9,213.9,-74.9c0,0,77.9,0,152.7,18.4c0,0,74.9,19.8,148.2,58l0,-129.8c0,0,-74.8,-30.6,-151.2,-45.8c0,0,-77.9,-16.8,-158.9,-16.8Z" 
	id="f0_b"
	transform="scale(0.001,-0.001)" />

	<path d="M137.5,0l0,834.2l139,0l0,-129.9c0,0,42.8,76.4,111.6,113.1c0,0,70.2,38.2,169.5,38.2c0,0,13.8,0,30.6,-1.6c0,0,16.8,-3,38.2,-6.1l1.5,-142.1c0,0,-24.4,13.8,-50.4,19.9c0,0,-27.5,6.1,-61.1,6.1c0,0,-116.1,0,-177.2,-74.9c0,0,-62.7,-76.3,-62.7,-216.9l0,-440Z" 
	id="f0_l"
	transform="scale(0.001,-0.001)" />

	<path d="M407.9,93.2c0,0,113.1,0,181.8,79.4c0,0,70.3,81,70.3,215.5l0,30.5l-137.5,0c0,0,-166.5,0,-230.7,-36.7c0,0,-64.2,-38.1,-64.2,-129.8c0,0,0,-73.3,47.4,-116.1c0,0,48.9,-42.8,132.9,-42.8ZM371.3,-21.3c0,0,-128.4,0,-203.2,71.7c0,0,-76.4,71.8,-76.4,192.5c0,0,0,140.6,93.2,212.4c0,0,94.7,71.8,282.6,71.8l192.5,0l0,13.7c0,0,0,94.8,-62.6,145.2c0,0,-62.7,51.9,-175.7,51.9c0,0,-71.8,0,-139.1,-16.8c0,0,-67.2,-16.8,-129.8,-51.9l0,126.8c0,0,74.8,30.5,145.1,44.3c0,0,71.8,15.3,139,15.3c0,0,180.3,0,268.9,-93.2c0,0,90.2,-94.8,90.2,-285.7L796,0L660,0l0,126.8c0,0,-47.4,-76.4,-117.6,-111.5c0,0,-70.3,-36.6,-171.1,-36.6Z" 
	id="f0_k"
	transform="scale(0.001,-0.001)" />

	<path d="M495,-21.3c0,0,-189.4,0,-299.4,117.6C195.6,96.3,84,215.4,84,415.6c0,0,0,204.7,111.6,322.3c0,0,113,117.7,308.6,117.7c0,0,62.6,0,122.2,-13.8c0,0,61.1,-13.7,117.6,-39.7l0,-128.3c0,0,-58,32,-116.1,47.3c0,0,-58,16.8,-119.1,16.8c0,0,-133,0,-206.3,-84c0,0,-74.9,-84,-74.9,-238.3c0,0,0,-152.8,73.4,-236.8c0,0,74.8,-84.1,207.8,-84.1c0,0,61.1,0,119.1,15.3c0,0,58.1,16.8,116.1,48.9L744,30.6c0,0,-56.5,-26,-117.6,-38.1c0,0,-62.6,-13.8,-131.4,-13.8Z" 
	id="f0_6"
	transform="scale(0.001,-0.001)" />

	<path d="M165,0l0,728.8l-131.4,0l0,105.4l131.4,0l0,58c0,0,0,140.6,64.2,203.2c0,0,65.7,64.2,207.7,64.2l129.9,0l0,-113.1l-131.4,0c0,0,-74.8,0,-102.3,-30.5c0,0,-29.1,-30.6,-29.1,-107l0,-74.8l226.1,0l0,-105.4l-226.1,0L304,0Z" 
	id="f0_e"
	transform="scale(0.001,-0.001)" />

	<path d="M137.5,0l0,834.2l139,0l0,-129.9c0,0,45.9,77.9,111.6,114.6c0,0,65.7,36.7,155.8,36.7c0,0,91.7,0,154.3,-45.9c0,0,64.2,-47.3,96.2,-135.9c0,0,50.5,93.1,122.3,137.5c0,0,71.8,44.3,168,44.3c0,0,131.4,0,201.7,-91.7c0,0,71.8,-91.7,71.8,-259.7L1358.2,0l-139,0l0,499.6c0,0,0,119.2,-41.3,177.2c0,0,-42.8,58.1,-129.8,58.1c0,0,-107,0,-168.1,-70.3c0,0,-62.6,-70.3,-62.6,-192.5L817.4,0L678.3,0l0,499.6c0,0,0,120.7,-41.2,177.2c0,0,-42.8,58.1,-131.4,58.1c0,0,-105.4,0,-166.5,-70.3c0,0,-62.7,-71.8,-62.7,-192.5L276.5,0Z" 
	id="f0_8"
	transform="scale(0.001,-0.001)" />

	<path d="M456.8,-21.3c0,0,-77.9,0,-166.5,16.8c0,0,-90.2,18.3,-186.4,53.4l0,154.3c0,0,91.7,-50.4,180.3,-76.4c0,0,88.6,-27.5,172.6,-27.5c0,0,129.9,0,200.1,50.4c0,0,70.3,52,70.3,145.2c0,0,0,82.5,-50.4,128.3c0,0,-50.4,47.4,-166.5,70.3l-91.7,16.8c0,0,-168,33.6,-242.9,105.4c0,0,-76.4,71.8,-76.4,200.1c0,0,0,146.7,103.9,232.3c0,0,105.4,85.5,287.2,85.5c0,0,79.5,0,160.4,-13.7c0,0,81,-15.3,166.6,-42.8l0,-148.2c0,0,-85.6,41.2,-162,61.1c0,0,-76.4,21.4,-146.6,21.4c0,0,-123.8,0,-189.5,-47.4c0,0,-67.2,-48.9,-67.2,-137.5c0,0,0,-73.3,44.3,-110c0,0,44.3,-38.2,168,-61.1l90.2,-19.8c0,0,169.6,-32.1,249,-111.6c0,0,81,-80.9,81,-216.9c0,0,0,-162,-108.5,-244.5c0,0,-108.5,-83.9,-319.3,-83.9Z" 
	id="f0_z"
	transform="scale(0.001,-0.001)" />

	<path d="M420.1,0c0,0,-158.8,0,-218.4,58.1c0,0,-61.1,59.5,-61.1,216.9l0,453.8l-100.9,0l0,105.4l100.9,0l0,238.3l139,0l0,-238.3l282.6,0l0,-105.4l-282.6,0l0,-453.8c0,0,0,-102.4,27.5,-131.4c0,0,27.5,-29,113,-29l142.1,0L562.2,0Z" 
	id="f0_c"
	transform="scale(0.001,-0.001)" />

	<path d="M540.8,123.8c0,0,122.3,0,180.3,48.8c0,0,59.6,50.5,59.6,154.3c0,0,0,105.5,-58.1,154.4c0,0,-59.5,50.4,-181.8,50.4l-241.4,0l0,-407.9ZM522.5,653.9c0,0,111.5,0,165,41.2c0,0,53.5,41.3,53.5,126.8c0,0,0,84.1,-53.5,125.3c0,0,-53.5,41.3,-165,41.3l-223.1,0l0,-334.6ZM149.7,0l0,1113.8l385,0c0,0,171.1,0,264.3,-71.9c0,0,93.2,-71.8,93.2,-204.7c0,0,0,-102.3,-47.3,-161.9c0,0,-47.4,-61.1,-140.6,-74.9c0,0,111.5,-24.4,172.6,-99.3c0,0,62.7,-76.4,62.7,-189.4c0,0,0,-149.8,-100.8,-230.7C838.8,81,736.4,0,548.5,0Z" 
	id="f0_27"
	transform="scale(0.001,-0.001)" />

	<path d="M137.5,0l0,1159.6l139,0l0,-684.5L686,834.2l174.1,0L417.1,444.6L880,0L699.7,0L276.5,407.9L276.5,0Z" 
	id="f0_1a"
	transform="scale(0.001,-0.001)" />

	<path d="M458.3,114.6c0,0,111.6,0,172.7,81c0,0,62.6,82.5,62.6,230.7c0,0,0,149.7,-61.1,230.6c0,0,-62.6,82.5,-174.2,82.5c0,0,-110,0,-171.1,-80.9c0,0,-62.6,-82.5,-62.6,-232.2c0,0,0,-148.2,61.1,-229.2c0,0,62.6,-82.5,172.6,-82.5ZM444.6,-317.7c0,0,-71.8,0,-136,10.7c0,0,-64.2,12.2,-123.7,33.6l0,134.5c0,0,59.5,-33.6,117.6,-48.9c0,0,59.6,-15.3,120.7,-15.3c0,0,136,0,203.2,70.3c0,0,67.2,70.3,67.2,210.7l0,68.8c0,0,-42.8,-74.9,-108.5,-110C585.1,36.7,517.9,0,424.7,0c0,0,-152.8,0,-245.9,116.1c0,0,-94.8,117.7,-94.8,310.2c0,0,0,194,93.2,311.6c0,0,94.7,117.7,247.5,117.7c0,0,93.2,0,158.9,-36.7c0,0,67.2,-36.7,110,-111.5l0,126.8l136,0l0,-731.8c0,0,0,-210.8,-94.7,-314.7c0,0,-94.8,-105.4,-290.3,-105.4Z" 
	id="f0_x"
	transform="scale(0.001,-0.001)" />

	<path d="M64.2,0l0,125.3L580.6,725.7L84,725.7l0,108.5l650.9,0l0,-125.3L220,108.5l514.9,0L734.9,0Z" 
	id="f0_29"
	transform="scale(0.001,-0.001)" />

	<path d="M161,0l0,189l158,0L319,0Z" 
	id="f0_1c"
	transform="scale(0.001,-0.001)" />

	<path d="M389,0l0,985L-3,985l0,128l939,0l0,-128l-396,0L540,0Z" 
	id="f0_1g"
	transform="scale(0.001,-0.001)" />

	<path d="M137.5,0l0,1159.6l139,0l0,-455.3c0,0,48.9,76.4,114.6,113.1c0,0,67.2,38.2,154.3,38.2c0,0,145.2,0,218.5,-88.7c0,0,73.3,-90.1,73.3,-262.7L837.2,0L699.7,0l0,499.6c0,0,0,117.6,-45.8,175.7c0,0,-45.8,59.6,-139,59.6c0,0,-110,0,-174.2,-70.3c0,0,-64.2,-70.3,-64.2,-192.5L276.5,0Z" 
	id="f0_f"
	transform="scale(0.001,-0.001)" />

	<path d="M421.7,-21.3c0,0,-143.6,0,-218.5,88.5L128.3,328.5l0,505.7l137.5,0l0,-499.6c0,0,0,-119.2,45.9,-178.8c0,0,47.3,-59.5,139,-59.5c0,0,111.5,0,175.7,70.2c0,0,65.7,71.8,65.7,194.1l0,473.6l136,0L828.1,0l-136,0l0,126.8c0,0,-50.4,-74.9,-116.1,-111.5c0,0,-67.2,-36.6,-154.3,-36.6Z" 
	id="f0_i"
	transform="scale(0.001,-0.001)" />

	<path d="M508.8,93.2c0,0,110,0,171.1,85.6c0,0,62.6,85.5,62.6,236.8c0,0,0,152.7,-61.1,238.3c0,0,-62.6,85.5,-172.6,85.5c0,0,-108.5,0,-169.6,-85.5c0,0,-62.7,-85.6,-62.7,-238.3c0,0,0,-151.3,61.1,-236.8c0,0,62.7,-85.6,171.2,-85.6ZM542.4,-21.3c0,0,-91.7,0,-157.4,35.1c0,0,-65.7,36.6,-108.5,111.5L276.5,0l-139,0l0,1159.6l139,0l0,-452.2c0,0,42.8,74.8,108.5,111.5c0,0,65.7,36.7,157.4,36.7c0,0,152.7,0,247.5,-120.7c0,0,96.2,-122.3,96.2,-319.3c0,0,0,-195.6,-94.7,-316.3c0,0,-96.3,-120.6,-249,-120.6Z" 
	id="f0_m"
	transform="scale(0.001,-0.001)" />

	<path d="M143,0l0,1159l138,0L281,0Z" 
	id="f0_a"
	transform="scale(0.001,-0.001)" />

	<path d="M352.9,-200c0,0,-111.5,174.1,-166.5,342.1c0,0,-56.5,169.6,-56.5,336.1c0,0,0,166.5,55,334.6c0,0,56.5,169.6,168,345.3l120.7,0c0,0,-100.8,-171.2,-148.2,-339.2c0,0,-48.9,-168.1,-48.9,-340.7c0,0,0,-171.1,48.9,-339.2c0,0,48.9,-169.5,148.2,-339Z" 
	id="f0_1i"
	transform="scale(0.001,-0.001)" />

	<path d="M727.2,411L521,964L317.8,411ZM10.7,0L436.9,1113.8l169.6,0L1031.3,0L875.4,0L773.1,285.7l-501.2,0L169.6,0Z" 
	id="f0_1h"
	transform="scale(0.001,-0.001)" />

	<path d="M357.5,0L44.3,834.2l145.1,0L450.7,132.9L711.9,834.2l146.7,0L543.9,0Z" 
	id="f0_q"
	transform="scale(0.001,-0.001)" />

	<path d="M120.7,-317.7l0,116.1l79.4,0c0,0,56.6,0,87.1,26c0,0,32.1,27.5,70.3,126.8l24.4,61L44.3,834.2l145.1,0L450.7,181.8L711.9,834.2l146.7,0L490.4,-76.3c0,0,-58,-149.7,-113,-195.5c0,0,-55,-45.9,-148.2,-45.9Z" 
	id="f0_r"
	transform="scale(0.001,-0.001)" />

	<path d="M122.2,-200c0,0,99.3,169.5,146.7,337.5c0,0,48.9,169.6,48.9,340.7c0,0,0,172.6,-47.4,340.7c0,0,-48.9,168,-148.2,339.2l119.2,0c0,0,111.5,-175.7,166.5,-343.8c0,0,56.5,-169.6,56.5,-336.1c0,0,0,-166.5,-55,-334.6c0,0,-56.5,-169.5,-168,-343.6Z" 
	id="f0_o"
	transform="scale(0.001,-0.001)" />

	<path d="M559.2,-21.3c0,0,-210.9,0,-319.3,109.9c0,0,-108.5,111.5,-108.5,328.5l0,696.7l152.8,0l0,-676.9c0,0,0,-180.2,64.1,-258.1c0,0,64.2,-79.5,210.9,-79.5c0,0,143.6,0,207.7,77.9c0,0,65.7,79.5,65.7,259.7l0,676.9l152.8,0l0,-696.7c0,0,0,-217,-108.5,-327c0,0,-108.4,-111.4,-317.7,-111.4Z" 
	id="f0_p"
	transform="scale(0.001,-0.001)" />

	<path d="M42.8,0L368.2,436.9L70.3,834.2l161.9,0L453.8,537.8L675.3,834.2l161.9,0L536.3,427.8L854,0L692.1,0L447.6,326.9L204.7,0Z" 
	id="f0_v"
	transform="scale(0.001,-0.001)" />

	<path d="M-13,-359l0,106l790,0l0,-106Z" 
	id="f0_w"
	transform="scale(0.001,-0.001)" />

	<path d="M601.9,99.3c0,0,163.5,0,258.2,122.2c0,0,96.3,123.8,96.3,333.1c0,0,0,210.8,-94.7,333c0,0,-96.3,123.8,-259.8,123.8c0,0,-165,0,-261.2,-122.2c0,0,-96.3,-123.8,-96.3,-334.6c0,0,0,-209.3,96.3,-331.5c0,0,96.2,-123.8,261.2,-123.8Zm0,-120.6c0,0,-235.2,0,-375.8,155.7c0,0,-140.5,155.9,-140.5,420.2c0,0,0,264.3,140.5,421.7c0,0,140.6,157.3,375.8,157.3c0,0,233.8,0,372.8,-157.3c0,0,140.6,-157.4,140.6,-421.7c0,0,0,-262.8,-139,-418.6c0,0,-140.6,-157.3,-374.4,-157.3Z" 
	id="f0_3"
	transform="scale(0.001,-0.001)" />

	<path d="M508.8,93.2c0,0,110,0,171.1,85.6c0,0,62.6,85.5,62.6,236.8c0,0,0,152.7,-61.1,238.3c0,0,-62.6,85.5,-172.6,85.5c0,0,-108.5,0,-169.6,-85.5c0,0,-62.7,-85.6,-62.7,-238.3c0,0,0,-151.3,61.1,-236.8c0,0,62.7,-85.6,171.2,-85.6ZM137.5,-317.7l0,1151.9l139,0l0,-126.8c0,0,42.8,74.8,108.5,111.5c0,0,65.7,36.7,157.4,36.7c0,0,152.7,0,247.5,-120.7c0,0,96.2,-122.3,96.2,-319.3c0,0,0,-195.6,-94.7,-316.3c0,0,-96.3,-120.6,-249,-120.6c0,0,-91.7,0,-157.4,35.1c0,0,-65.7,36.6,-108.5,111.5l0,-443Z" 
	id="f0_9"
	transform="scale(0.001,-0.001)" />

	<path d="M282.6,0L62.6,834.2l137.5,0L372.8,183.3L542.4,834.2l161.9,0L876.9,183.3l171.2,650.9l135.9,0L965.6,0l-162,0L624.9,684.4L444.6,0Z" 
	id="f0_12"
	transform="scale(0.001,-0.001)" />

	<path d="M458.3,93.2c0,0,110,0,172.7,85.6c0,0,62.6,85.5,62.6,236.8c0,0,0,152.7,-62.6,238.3c0,0,-62.7,85.5,-172.7,85.5c0,0,-108.4,0,-171.1,-85.5c0,0,-62.6,-85.6,-62.6,-238.3c0,0,0,-151.3,62.6,-236.8c0,0,62.7,-85.6,171.1,-85.6ZM693.6,-317.7l0,443c0,0,-44.3,-74.9,-110,-110c0,0,-65.7,-36.6,-158.9,-36.6c0,0,-151.2,0,-245.9,120.6C178.8,99.3,84,220,84,415.6c0,0,0,197,94.8,317.7c0,0,94.7,122.3,245.9,122.3c0,0,93.2,0,158.9,-36.7c0,0,65.7,-36.7,110,-111.5l0,126.8l136,0l0,-1151.9Z" 
	id="f0_13"
	transform="scale(0.001,-0.001)" />

	<path d="M488.9,571.4c0,0,105.4,0,161.9,53.5c0,0,58.1,55,58.1,155.8c0,0,0,99.3,-56.5,152.8c0,0,-58.1,55,-163.5,55l-189.5,0l0,-417.1ZM149.7,0l0,1113.8l339.2,0c0,0,187.9,0,282.6,-84.1c0,0,96.3,-85.5,96.3,-249c0,0,0,-165,-94.7,-249c0,0,-96.3,-85.6,-284.2,-85.6l-189.5,0L299.4,0Z" 
	id="f0_s"
	transform="scale(0.001,-0.001)" />

	<path d="M481.3,123.8c0,0,230.6,0,337.6,103.8c0,0,106.9,103.9,106.9,330c0,0,0,223.1,-106.9,327c0,0,-107,103.9,-337.6,103.9l-181.9,0l0,-864.7ZM149.7,0l0,1113.8l308.6,0c0,0,323.9,0,475.2,-134.5c0,0,151.2,-136,151.2,-421.7c0,0,0,-288.7,-151.2,-423.2C933.5,134.4,780.7,0,458.3,0Z" 
	id="f0_16"
	transform="scale(0.001,-0.001)" />

	<path d="M189.4,0l0,126.8l246,0l0,849.5L166.5,922.8l0,136l267.4,55l149.7,0l0,-987l246,0L829.6,0Z" 
	id="f0_2"
	transform="scale(0.001,-0.001)" />

	<path d="M146,699l0,414l127,0l0,-414Z" 
	id="f0_24"
	transform="scale(0.001,-0.001)" />

	<path d="M679.9,985.4l0,172.7l139,0l0,-172.7ZM165,0l0,728.8l-131.4,0l0,105.4l131.4,0l0,58c0,0,0,137.5,64.2,201.7c0,0,65.7,65.7,198.6,65.7l139,0l0,-113.1l-131.4,0c0,0,-74.8,0,-102.3,-30.5c0,0,-29.1,-30.6,-29.1,-107l0,-74.8l514.9,0L818.9,0l-139,0l0,728.8l-375.9,0L304,0Z" 
	id="f0_1s"
	transform="scale(0.001,-0.001)" />

	<path d="M178,0l0,189l158,0L336,0Zm0,600l0,189l158,0l0,-189Z" 
	id="f0_n"
	transform="scale(0.001,-0.001)" />

	<path d="M111.5,0l0,126.8c0,0,85.6,88.6,233.8,236.8c0,0,148.2,149.7,186.4,194c0,0,71.8,81,100.8,137.5c0,0,29,56.6,29,110c0,0,0,88.7,-62.6,145.2c0,0,-62.6,56.5,-162,56.5c0,0,-71.8,0,-149.7,-24.4c0,0,-79.4,-26,-168,-74.9l0,151.3c0,0,90.1,36.6,169.6,55c0,0,79.4,19.8,145.1,19.8c0,0,172.6,0,275,-87.1c0,0,103.9,-87.1,103.9,-230.7c0,0,0,-68.7,-26,-129.8c0,0,-26,-62.7,-93.2,-145.2c0,0,-19.8,-22.9,-119.2,-125.2c0,0,-99.3,-103.9,-282.6,-288.8l527.1,0L818.9,0Z" 
	id="f0_t"
	transform="scale(0.001,-0.001)" />

	<path d="M149,0l0,1113l150,0L299,0Z" 
	id="f0_u"
	transform="scale(0.001,-0.001)" />

	<path d="M412.5,-21.3c0,0,-68.7,0,-143.6,12.2c0,0,-74.9,13.7,-152.8,41.2l0,146.7c0,0,62.7,-36.7,136,-55c0,0,74.8,-19.9,157.3,-19.9c0,0,140.6,0,215.5,56.5c0,0,74.8,56.5,74.8,162c0,0,0,99.3,-68.7,154.3c0,0,-70.3,56.5,-192.5,56.5l-129.9,0l0,123.7l136,0c0,0,110,0,168,44.4c0,0,59.6,44.3,59.6,126.8c0,0,0,87,-59.6,132.9c0,0,-61.1,45.8,-174.1,45.8c0,0,-62.7,0,-132.9,-13.7c0,0,-71.8,-13.8,-155.9,-41.3l0,132.9c0,0,85.6,24.5,160.4,36.7c0,0,74.9,12.2,140.6,12.2c0,0,172.6,0,271.9,-77.9c0,0,100.9,-77.9,100.9,-210.8c0,0,0,-93.2,-53.5,-155.9c0,0,-53.5,-64.1,-151.2,-88.6c0,0,108.4,-24.4,169.5,-96.2c0,0,61.1,-73.4,61.1,-181.8c0,0,0,-163.5,-113,-253.6c0,0,-114.6,-90.1,-323.9,-90.1Z" 
	id="f0_y"
	transform="scale(0.001,-0.001)" />

	<path d="M576,386.5l0,595.9L195.6,386.5ZM576,0l0,261.3l-502.7,0l0,146.6l464.5,705.9l189.4,0l0,-727.3l158.9,0l0,-125.2l-158.9,0L727.2,0Z" 
	id="f0_10"
	transform="scale(0.001,-0.001)" />

	<path d="M149,0l0,1113l640,0l0,-128l-490,0l0,-327l441,0l0,-127l-441,0L299,0Z" 
	id="f0_19"
	transform="scale(0.001,-0.001)" />

	<path d="M484.3,96.3c0,0,117.6,0,175.7,114.5c0,0,59.6,114.6,59.6,343.8c0,0,0,230.7,-58.1,345.3c0,0,-59.6,114.5,-177.2,114.5c0,0,-116.1,0,-174.2,-114.5c0,0,-58,-114.6,-58,-345.3c0,0,0,-229.2,58,-343.8c0,0,58.1,-114.5,174.2,-114.5Zm0,-117.6c0,0,-186.4,0,-285.7,146.6c0,0,-99.3,148.2,-99.3,429.3c0,0,0,282.6,99.3,430.8c0,0,99.3,148.2,285.7,148.2c0,0,187.9,0,285.7,-148.2c0,0,99.3,-148.2,99.3,-430.8c0,0,0,-281.1,-97.8,-427.8c0,0,-99.3,-148.1,-287.2,-148.1Z" 
	id="f0_1j"
	transform="scale(0.001,-0.001)" />

	<path d="M73,363l0,109l616,0l0,-109Z" 
	id="f0_1z"
	transform="scale(0.001,-0.001)" />

	<path d="M411,-21.3c0,0,-70.3,0,-143.6,10.7c0,0,-73.4,12.1,-149.8,36.6l0,151.2c0,0,67.3,-36.6,137.5,-55c0,0,71.8,-18.3,152.8,-18.3c0,0,128.4,0,203.2,67.2c0,0,76.4,68.8,76.4,184.9c0,0,0,117.6,-74.9,184.8c0,0,-76.3,67.3,-204.7,67.3c0,0,-61.1,0,-120.7,-12.3c0,0,-61.1,-13.7,-123.7,-42.7l0,560.7l592.8,0l0,-128.4l-453.8,0l0,-271.9c0,0,32.1,10.7,64.2,15.3c0,0,33.6,6.1,67.2,6.1c0,0,186.4,0,294.9,-100.9c0,0,108.4,-102.3,108.4,-278c0,0,0,-178.8,-111.5,-278.1c0,0,-111.5,-99.2,-314.7,-99.2Z" 
	id="f0_14"
	transform="scale(0.001,-0.001)" />

	<path d="M504.2,96.3c0,0,100.8,0,160.4,70.2c0,0,59.6,70.3,59.6,189.5c0,0,0,120.7,-59.6,189.4c0,0,-59.6,70.3,-160.4,70.3c0,0,-102.4,0,-160.4,-68.8c0,0,-59.6,-70.2,-59.6,-190.9c0,0,0,-119.2,58,-189.5c0,0,59.6,-70.2,162,-70.2Zm0,-117.6c0,0,-194.1,0,-296.4,146.6c0,0,-102.4,148.2,-102.4,429.3c0,0,0,264.3,125.3,421.7c0,0,125.3,157.3,337.6,157.3c0,0,56.6,0,113.1,-10.7c0,0,58,-12.2,120.7,-35.1l0,-136c0,0,-56.5,26,-113.1,39.7c0,0,-58,15.3,-116.1,15.3c0,0,-148.2,0,-226.1,-100.8c0,0,-79.4,-100.9,-91.7,-304.1c0,0,44.3,64.2,110,97.8c0,0,67.3,35.2,146.7,35.2c0,0,168.1,0,265.8,-100.9c0,0,97.8,-102.3,97.8,-278c0,0,0,-171.1,-100.8,-273.5c0,0,-102.4,-103.8,-270.4,-103.8Z" 
	id="f0_17"
	transform="scale(0.001,-0.001)" />

	<path d="M279.6,0L660,985.4l-534.7,0l0,128.4l715,0l0,-64.2L436.9,0Z" 
	id="f0_22"
	transform="scale(0.001,-0.001)" />


</defs>
</svg>