<?xml version="1.0" encoding="UTF-8" standalone="no"?>
<!DOCTYPE svg PUBLIC "-//W3C//DTD SVG 1.1//EN"
"http://www.w3.org/Graphics/SVG/1.1/DTD/svg11.dtd">
<svg viewBox="0 0 1210 1210" version="1.1" xmlns="http://www.w3.org/2000/svg" xmlns:xlink="http://www.w3.org/1999/xlink">
<defs>
<style type="text/css"><![CDATA[
.g2_29{
fill: none;
stroke: #418AB3;
stroke-width: 2;
stroke-linecap: butt;
stroke-linejoin: miter;
stroke-miterlimit: 7;
}
.g1_29{
fill: #FFFFFF;
}
]]></style>
</defs>
<path fill-rule="evenodd" d="M0,0L1210,0l0,1210L0,1210L0,0Z" class="g1_29" />
<path fill-rule="evenodd" d="M0,0L1210,0l0,1210L0,1210L0,0Z" class="g1_29" />
<path fill-rule="evenodd" d="M971.7,13.8l0,-0.4l0,-0.1l0,-0.3l0.1,-0.2l0,-0.3L972,12.4l0,-0.3l0.1,-0.2l0,-0.3l0.2,-0.1l0.1,-0.2L972.6,11l0.1,-0.2l0.2,-0.1L973,10.5l0.2,-0.1l0.1,-0.2l0.2,-0.1l0.3,-0.2L974,9.8l0.1,-0.2l0.3,0l0.2,-0.1l0.3,0L975,9.3l0.3,0l0.2,-0.1l0.3,0l0.1,0l0.4,0l192.5,0l0.3,0l0.1,0l0.3,0l0.2,0.1l0.3,0l0.1,0.2l0.3,0l0.2,0.1l0.1,0l0.3,0.2l0.2,0.1l0.1,0.2l0.4,0.1l0.1,0.2l0.2,0.1l0.1,0.2l0.2,0.1l0.1,0.4l0.2,0.1l0.1,0.2l0.2,0.3l0,0.1l0.1,0.2l0,0.3l0,0.1l0.2,0.3l0,0.2l0,0.3l0.1,0.1l0,0.4l0,18.3l0,0.1l0,0.3l0,0.3l-0.1,0.2l0,0.3l0,0.2l-0.2,0.3l0,0.1l-0.1,0.2l-0.2,0.3l-0.1,0.1l-0.2,0.2l-0.1,0.3l-0.2,0.1l-0.1,0.2l-0.2,0.1l-0.1,0.2l-0.2,0.2l-0.3,0.1l-0.2,0.2l-0.1,0l-0.3,0.1l-0.2,0.2l-0.3,0l-0.1,0l-0.3,0.1l-0.2,0l-0.3,0l-0.1,0.2l-0.3,0l-192.5,0l-0.4,0l-0.1,0l-0.3,0l-0.2,0L975,36.5l-0.1,0l-0.3,-0.1l-0.2,0l-0.3,-0.2L974,36.1l-0.2,-0.2l-0.3,-0.1l-0.2,-0.2l-0.1,-0.2L973,35.3l-0.1,-0.2L972.7,35l-0.1,-0.2l-0.2,-0.3l-0.1,-0.1l-0.2,-0.2l0,-0.3L972,33.8l0,-0.3l-0.2,-0.2l0,-0.3l-0.1,-0.2l0,-0.3l0,-0.1l0,-0.3l0,-18.3Z" class="g1_29" />
<path d="M971.7,13.8l0,-0.4l0,-0.1l0,-0.3l0.1,-0.2l0,-0.3L972,12.4l0,-0.3l0.1,-0.2l0,-0.3l0.2,-0.1l0.1,-0.2L972.6,11l0.1,-0.2l0.2,-0.1L973,10.5l0.2,-0.1l0.1,-0.2l0.2,-0.1l0.3,-0.2L974,9.8l0.1,-0.2l0.3,0l0.2,-0.1l0.3,0L975,9.3l0.3,0l0.2,-0.1l0.3,0l0.1,0l0.4,0l192.5,0l0.3,0l0.1,0l0.3,0l0.2,0.1l0.3,0l0.1,0.2l0.3,0l0.2,0.1l0.1,0l0.3,0.2l0.2,0.1l0.1,0.2l0.4,0.1l0.1,0.2l0.2,0.1l0.1,0.2l0.2,0.1l0.1,0.4l0.2,0.1l0.1,0.2l0.2,0.3l0,0.1l0.1,0.2l0,0.3l0,0.1l0.2,0.3l0,0.2l0,0.3l0.1,0.1l0,0.4l0,18.3l0,0.1l0,0.3l0,0.3l-0.1,0.2l0,0.3l0,0.2l-0.2,0.3l0,0.1l-0.1,0.2l-0.2,0.3l-0.1,0.1l-0.2,0.2l-0.1,0.3l-0.2,0.1l-0.1,0.2l-0.2,0.1l-0.1,0.2l-0.2,0.2l-0.3,0.1l-0.2,0.2l-0.1,0l-0.3,0.1l-0.2,0.2l-0.3,0l-0.1,0l-0.3,0.1l-0.2,0l-0.3,0l-0.1,0.2l-0.3,0l-192.5,0l-0.4,0l-0.1,0l-0.3,0l-0.2,0L975,36.5l-0.1,0l-0.3,-0.1l-0.2,0l-0.3,-0.2L974,36.1l-0.2,-0.2l-0.3,-0.1l-0.2,-0.2l-0.1,-0.2L973,35.3l-0.1,-0.2L972.7,35l-0.1,-0.2l-0.2,-0.3l-0.1,-0.1l-0.2,-0.2l0,-0.3L972,33.8l0,-0.3l-0.2,-0.2l0,-0.3l-0.1,-0.2l0,-0.3l0,-0.1l0,-0.3l0,-18.3Z" class="g2_29" />
</svg>