<?xml version="1.0" encoding="UTF-8" standalone="no"?>
<!DOCTYPE svg PUBLIC "-//W3C//DTD SVG 1.1//EN"
"http://www.w3.org/Graphics/SVG/1.1/DTD/svg11.dtd">
<svg viewBox="0 0 1100 825" version="1.1" xmlns="http://www.w3.org/2000/svg" xmlns:xlink="http://www.w3.org/1999/xlink">
<defs>
<style type="text/css"><![CDATA[
.g2_57{
fill: none;
stroke: #000000;
stroke-width: 2;
stroke-linecap: butt;
stroke-linejoin: miter;
stroke-miterlimit: 7;
}
.g3_57{
fill: none;
stroke: #0070C0;
stroke-width: 2;
stroke-linecap: butt;
stroke-linejoin: miter;
}
.g1_57{
fill: #FFFFFF;
}
]]></style>
</defs>
<path fill-rule="evenodd" d="M0,0L1100,0l0,825L0,825L0,0Z" class="g1_57" />
<path fill-rule="evenodd" d="M0,0L1100,0l0,825L0,825L0,0Z" class="g1_57" />
<image x="753" y="777" width="303" height="38" xlink:href="img/1.png" />
<path fill-rule="evenodd" d="M28.9,226.9l0,-0.8L29,225.5l0,-0.6l0.2,-0.6l0.1,-0.6l0.2,-0.6l0.3,-0.7l0.1,-0.6l0.3,-0.6l0.4,-0.6l0.3,-0.4l0.4,-0.7l0.3,-0.4l0.5,-0.6L32.5,218L33,217.6l0.5,-0.3l0.6,-0.5l0.4,-0.3L35.1,216l0.6,-0.1l0.5,-0.3l0.6,-0.3l0.6,-0.2L38,215l0.7,-0.3l0.6,0L40,214.5l0.6,0l0.7,0l598.5,0l0.6,0l0.7,0l0.6,0.2l0.6,0L643,215l0.7,0.1l0.6,0.2l0.6,0.3l0.4,0.3l0.6,0.3l0.7,0.3l0.4,0.3l0.5,0.5l0.4,0.4l0.6,0.5l0.3,0.4l0.5,0.5l0.5,0.4l0.3,0.7l0.3,0.4l0.3,0.6l0.3,0.6l0.3,0.6l0.1,0.7l0.2,0.6l0.2,0.6l0.1,0.6l0.2,0.6l0,0.6l0,0.8l0.1,49.3l-0.1,0l0,0.6l0,0.6l-0.2,0.7l0,0.7l-0.1,0.6l-0.4,0.6l-0.1,0.7l-0.3,0.6l-0.2,0.6l-0.4,0.4l-0.3,0.6l-0.3,0.5l-0.5,0.6l-0.5,0.5l-0.3,0.4l-0.6,0.5l-0.4,0.4l-0.5,0.4l-0.4,0.3l-0.7,0.4l-0.6,0.3l-0.4,0.2l-0.6,0.3l-0.6,0.1l-0.7,0.3l-0.7,0.2l-0.6,0.1l-0.6,0l-0.7,0l-0.6,0L41.3,288.6l-0.7,0L40,288.4l-0.7,0l-0.6,-0.1L38,288.1L37.4,288l-0.6,-0.3l-0.6,-0.2l-0.5,-0.3l-0.6,-0.3l-0.6,-0.3l-0.4,-0.4l-0.6,-0.4L33,285.4l-0.5,-0.5l-0.4,-0.4L31.6,284l-0.3,-0.4l-0.4,-0.7l-0.3,-0.6l-0.4,-0.4l-0.3,-0.6l-0.1,-0.6L29.5,280l-0.2,-0.6l-0.1,-0.6L29,278.2l0,-0.8l-0.1,-0.6l0,-0.6l0,-49.3Z" class="g1_57" />
<path d="M28.9,226.9l0,-0.8L29,225.5l0,-0.6l0.2,-0.6l0.1,-0.6l0.2,-0.6l0.3,-0.7l0.1,-0.6l0.3,-0.6l0.4,-0.6l0.3,-0.4l0.4,-0.7l0.3,-0.4l0.5,-0.6L32.5,218L33,217.6l0.5,-0.3l0.6,-0.5l0.4,-0.3L35.1,216l0.6,-0.1l0.5,-0.3l0.6,-0.3l0.6,-0.2L38,215l0.7,-0.3l0.6,0L40,214.5l0.6,0l0.7,0l598.5,0l0.6,0l0.7,0l0.6,0.2l0.6,0L643,215l0.7,0.1l0.6,0.2l0.6,0.3l0.4,0.3l0.6,0.3l0.7,0.3l0.4,0.3l0.5,0.5l0.4,0.4l0.6,0.5l0.3,0.4l0.5,0.5l0.5,0.4l0.3,0.7l0.3,0.4l0.3,0.6l0.3,0.6l0.3,0.6l0.1,0.7l0.2,0.6l0.2,0.6l0.1,0.6l0.2,0.6l0,0.6l0,0.8l0.1,49.3l-0.1,0l0,0.6l0,0.6l-0.2,0.7l0,0.7l-0.1,0.6l-0.4,0.6l-0.1,0.7l-0.3,0.6l-0.2,0.6l-0.4,0.4l-0.3,0.6l-0.3,0.5l-0.5,0.6l-0.5,0.5l-0.3,0.4l-0.6,0.5l-0.4,0.4l-0.5,0.4l-0.4,0.3l-0.7,0.4l-0.6,0.3l-0.4,0.2l-0.6,0.3l-0.6,0.1l-0.7,0.3l-0.7,0.2l-0.6,0.1l-0.6,0l-0.7,0l-0.6,0L41.3,288.6l-0.7,0L40,288.4l-0.7,0l-0.6,-0.1L38,288.1L37.4,288l-0.6,-0.3l-0.6,-0.2l-0.5,-0.3l-0.6,-0.3l-0.6,-0.3l-0.4,-0.4l-0.6,-0.4L33,285.4l-0.5,-0.5l-0.4,-0.4L31.6,284l-0.3,-0.4l-0.4,-0.7l-0.3,-0.6l-0.4,-0.4l-0.3,-0.6l-0.1,-0.6L29.5,280l-0.2,-0.6l-0.1,-0.6L29,278.2l0,-0.8l-0.1,-0.6l0,-0.6l0,-49.3Z" class="g2_57" />
<path d="M111,271l368,0" class="g3_57" />
<image x="707" y="29" width="380" height="445" xlink:href="img/2.png" />
</svg>