<?xml version="1.0" encoding="UTF-8" standalone="no"?>
<!DOCTYPE svg PUBLIC "-//W3C//DTD SVG 1.1//EN"
"http://www.w3.org/Graphics/SVG/1.1/DTD/svg11.dtd">
<svg viewBox="0 0 1210 1045" version="1.1" xmlns="http://www.w3.org/2000/svg" xmlns:xlink="http://www.w3.org/1999/xlink">
<defs>
<style type="text/css"><![CDATA[
.g2_43{
fill: none;
stroke: #418AB3;
stroke-width: 2;
stroke-linecap: butt;
stroke-linejoin: miter;
stroke-miterlimit: 7;
}
.g3_43{
fill: none;
stroke: #0000EE;
stroke-width: 2;
stroke-linecap: butt;
stroke-linejoin: miter;
}
.g1_43{
fill: #FFFFFF;
}
]]></style>
</defs>
<path fill-rule="evenodd" d="M0,0L1210,0l0,1045L0,1045L0,0Z" class="g1_43" />
<path fill-rule="evenodd" d="M0,0L1210,0l0,1045L0,1045L0,0Z" class="g1_43" />
<image x="828" y="984" width="334" height="49" xlink:href="img/1.png" />
<path fill-rule="evenodd" d="M202.7,277.6l0,-0.9l0.2,-0.9L203,275l0,-0.9l0.3,-0.8l0.4,-0.9l0.3,-0.8l0.3,-0.9l0.3,-0.7l0.4,-0.8l0.5,-0.8l0.4,-0.7l0.7,-0.6l0.6,-0.8l0.4,-0.6l0.6,-0.6l0.8,-0.6l0.8,-0.5l0.6,-0.5l0.7,-0.4l0.8,-0.5l0.8,-0.3l0.9,-0.4l0.7,-0.3l1,-0.2l0.7,-0.3l0.9,-0.2l1,0l0.7,-0.1l0.9,0l770.8,0l0.9,0l0.8,0.1l0.9,0l0.9,0.4l0.8,0.1l0.9,0.2l0.8,0.3l0.7,0.4l0.9,0.3l0.8,0.5l0.8,0.4l0.7,0.5l0.6,0.6l0.7,0.5l0.7,0.6l0.6,0.7l0.5,0.7l0.6,0.6l0.5,0.7l0.4,0.8l0.5,0.8l0.3,0.7l0.3,0.9l0.3,0.8l0.3,0.9l0.2,0.8l0.1,0.9l0.2,0.9l0,0.8l0.1,0.9l0,67.2l0,0.8l-0.1,0.9l0,0.9l-0.3,0.9l-0.2,0.8l-0.2,0.9l-0.3,0.8l-0.4,0.7l-0.3,1l-0.5,0.7l-0.4,0.6l-0.5,0.8l-0.6,0.8l-0.5,0.6l-0.6,0.6l-0.7,0.6l-0.7,0.6l-0.6,0.5l-0.7,0.6l-0.8,0.4l-0.8,0.3l-0.7,0.5l-0.9,0.3l-0.8,0.3l-0.9,0.3l-0.8,0.2l-0.9,0.1l-0.9,0.2l-0.8,0l-0.9,0l-770.8,0.1l-0.9,-0.1l-0.7,0l-1,-0.2L216,361.2L215.3,361l-1,-0.3l-0.7,-0.3l-0.9,-0.3l-0.8,-0.3l-0.8,-0.5l-0.7,-0.4l-0.6,-0.5L209,357.8l-0.8,-0.6l-0.6,-0.6L207.2,356l-0.6,-0.6l-0.7,-0.8l-0.4,-0.8L205,353.2l-0.4,-0.7l-0.3,-1L204,350.8L203.7,350l-0.4,-0.9L203,348.3l0,-0.9l-0.1,-0.9l-0.2,-0.9l0,-0.8l0,-67.2Z" class="g1_43" />
<path d="M202.7,277.6l0,-0.9l0.2,-0.9L203,275l0,-0.9l0.3,-0.8l0.4,-0.9l0.3,-0.8l0.3,-0.9l0.3,-0.7l0.4,-0.8l0.5,-0.8l0.4,-0.7l0.7,-0.6l0.6,-0.8l0.4,-0.6l0.6,-0.6l0.8,-0.6l0.8,-0.5l0.6,-0.5l0.7,-0.4l0.8,-0.5l0.8,-0.3l0.9,-0.4l0.7,-0.3l1,-0.2l0.7,-0.3l0.9,-0.2l1,0l0.7,-0.1l0.9,0l770.8,0l0.9,0l0.8,0.1l0.9,0l0.9,0.4l0.8,0.1l0.9,0.2l0.8,0.3l0.7,0.4l0.9,0.3l0.8,0.5l0.8,0.4l0.7,0.5l0.6,0.6l0.7,0.5l0.7,0.6l0.6,0.7l0.5,0.7l0.6,0.6l0.5,0.7l0.4,0.8l0.5,0.8l0.3,0.7l0.3,0.9l0.3,0.8l0.3,0.9l0.2,0.8l0.1,0.9l0.2,0.9l0,0.8l0.1,0.9l0,67.2l0,0.8l-0.1,0.9l0,0.9l-0.3,0.9l-0.2,0.8l-0.2,0.9l-0.3,0.8l-0.4,0.7l-0.3,1l-0.5,0.7l-0.4,0.6l-0.5,0.8l-0.6,0.8l-0.5,0.6l-0.6,0.6l-0.7,0.6l-0.7,0.6l-0.6,0.5l-0.7,0.6l-0.8,0.4l-0.8,0.3l-0.7,0.5l-0.9,0.3l-0.8,0.3l-0.9,0.3l-0.8,0.2l-0.9,0.1l-0.9,0.2l-0.8,0l-0.9,0l-770.8,0.1l-0.9,-0.1l-0.7,0l-1,-0.2L216,361.2L215.3,361l-1,-0.3l-0.7,-0.3l-0.9,-0.3l-0.8,-0.3l-0.8,-0.5l-0.7,-0.4l-0.6,-0.5L209,357.8l-0.8,-0.6l-0.6,-0.6L207.2,356l-0.6,-0.6l-0.7,-0.8l-0.4,-0.8L205,353.2l-0.4,-0.7l-0.3,-1L204,350.8L203.7,350l-0.4,-0.9L203,348.3l0,-0.9l-0.1,-0.9l-0.2,-0.9l0,-0.8l0,-67.2Z" class="g2_43" />
<path d="M298,336l460,0" class="g3_43" />
</svg>