<?xml version="1.0" encoding="UTF-8" standalone="no"?>
<!DOCTYPE svg PUBLIC "-//W3C//DTD SVG 1.1//EN"
"http://www.w3.org/Graphics/SVG/1.1/DTD/svg11.dtd">
<svg viewBox="0 0 1210 1045" version="1.1" xmlns="http://www.w3.org/2000/svg" xmlns:xlink="http://www.w3.org/1999/xlink">
<defs>
<style type="text/css"><![CDATA[
.g8_7{
fill: #E0AF0E;
}
.g9_7{
fill: none;
stroke: #E0AF0E;
stroke-width: 2;
stroke-linecap: butt;
stroke-linejoin: miter;
stroke-miterlimit: 7;
}
.g10_7{
fill: #F69200;
}
.g11_7{
fill: none;
stroke: #F69200;
stroke-width: 2;
stroke-linecap: butt;
stroke-linejoin: miter;
stroke-miterlimit: 7;
}
.g4_7{
fill: none;
stroke: #A6B727;
stroke-width: 2;
stroke-linecap: butt;
stroke-linejoin: miter;
stroke-miterlimit: 7;
}
.g7_7{
fill: none;
stroke: #CBC11B;
stroke-width: 2;
stroke-linecap: butt;
stroke-linejoin: miter;
stroke-miterlimit: 7;
}
.g2_7{
fill: none;
stroke: #418AB3;
stroke-width: 2;
stroke-linecap: butt;
stroke-linejoin: miter;
stroke-miterlimit: 7;
}
.g3_7{
fill: none;
stroke: #0000EE;
stroke-width: 2;
stroke-linecap: butt;
stroke-linejoin: miter;
}
.g5_7{
fill: #A6B727;
}
.g6_7{
fill: #CBC11B;
}
.g1_7{
fill: #FFFFFF;
}
]]></style>
</defs>
<path fill-rule="evenodd" d="M0,0L1210,0l0,1045L0,1045L0,0Z" class="g1_7" />
<path fill-rule="evenodd" d="M0,0L1210,0l0,1045L0,1045L0,0Z" class="g1_7" />
<image x="828" y="984" width="334" height="49" xlink:href="img/1.png" />
<path fill-rule="evenodd" d="M229.2,88.9l0,-0.7l0.1,-1l0.2,-0.9l0,-0.7l0.3,-1l0.1,-0.7L230.2,83l0.3,-0.8L231,81.4l0.5,-0.7l0.4,-0.8l0.5,-0.8l0.4,-0.6l0.6,-0.6l0.7,-0.6l0.6,-0.6l0.6,-0.6L236,75.6l0.7,-0.4l0.7,-0.6l0.8,-0.4l0.7,-0.4l1,-0.3l0.7,-0.3L241.4,73l0.9,-0.3l0.8,-0.1l0.9,0l0.9,-0.2l0.8,0l718.6,0l0.8,0l0.9,0.2l0.9,0l0.8,0.3l0.9,0.1l0.8,0.2l0.7,0.3l1,0.3l0.7,0.4l0.8,0.5l0.7,0.5l0.7,0.4l0.7,0.5l0.6,0.6l0.6,0.6l0.7,0.6l0.6,0.6l0.4,0.8l0.5,0.6l0.4,0.8l0.5,0.7l0.3,0.8l0.5,0.8l0.1,0.9l0.3,0.7l0.2,1l0.1,0.7l0.2,0.9l0,1l0.1,0.7l0,66.3l0,0.9l0,1l-0.1,0.7l-0.2,0.9l-0.1,0.8l-0.3,0.9l-0.3,0.8l-0.3,0.7l-0.5,0.8l-0.5,0.8l-0.3,0.7l-0.6,0.8l-0.4,0.6l-0.6,0.8l-0.7,0.4l-0.6,0.6l-0.6,0.7l-0.7,0.6l-0.7,0.4l-0.7,0.5l-0.8,0.4l-0.7,0.3l-1,0.4l-0.7,0.3l-0.8,0.3l-0.9,0.1l-0.8,0.2l-0.9,0.1l-0.9,0l-0.8,0l-718.6,0.2l-0.8,0L244,171.7l-0.9,-0.1l-0.8,0l-0.9,-0.3L240.6,171l-0.7,-0.2l-1,-0.5L238.2,170l-0.8,-0.4l-0.7,-0.5L236,168.7l-0.7,-0.5l-0.6,-0.6L234.1,167l-0.7,-0.6l-0.6,-0.6L232.4,165l-0.5,-0.8l-0.4,-0.6L231,162.9l-0.5,-1l-0.3,-0.7l-0.3,-0.8l-0.1,-0.9l-0.3,-0.8l0,-0.9l-0.2,-0.7l-0.1,-1l0,-0.9l0,-66.3Z" class="g1_7" />
<path d="M229.2,88.9l0,-0.7l0.1,-1l0.2,-0.9l0,-0.7l0.3,-1l0.1,-0.7L230.2,83l0.3,-0.8L231,81.4l0.5,-0.7l0.4,-0.8l0.5,-0.8l0.4,-0.6l0.6,-0.6l0.7,-0.6l0.6,-0.6l0.6,-0.6L236,75.6l0.7,-0.4l0.7,-0.6l0.8,-0.4l0.7,-0.4l1,-0.3l0.7,-0.3L241.4,73l0.9,-0.3l0.8,-0.1l0.9,0l0.9,-0.2l0.8,0l718.6,0l0.8,0l0.9,0.2l0.9,0l0.8,0.3l0.9,0.1l0.8,0.2l0.7,0.3l1,0.3l0.7,0.4l0.8,0.5l0.7,0.5l0.7,0.4l0.7,0.5l0.6,0.6l0.6,0.6l0.7,0.6l0.6,0.6l0.4,0.8l0.5,0.6l0.4,0.8l0.5,0.7l0.3,0.8l0.5,0.8l0.1,0.9l0.3,0.7l0.2,1l0.1,0.7l0.2,0.9l0,1l0.1,0.7l0,66.3l0,0.9l0,1l-0.1,0.7l-0.2,0.9l-0.1,0.8l-0.3,0.9l-0.3,0.8l-0.3,0.7l-0.5,0.8l-0.5,0.8l-0.3,0.7l-0.6,0.8l-0.4,0.6l-0.6,0.8l-0.7,0.4l-0.6,0.6l-0.6,0.7l-0.7,0.6l-0.7,0.4l-0.7,0.5l-0.8,0.4l-0.7,0.3l-1,0.4l-0.7,0.3l-0.8,0.3l-0.9,0.1l-0.8,0.2l-0.9,0.1l-0.9,0l-0.8,0l-718.6,0.2l-0.8,0L244,171.7l-0.9,-0.1l-0.8,0l-0.9,-0.3L240.6,171l-0.7,-0.2l-1,-0.5L238.2,170l-0.8,-0.4l-0.7,-0.5L236,168.7l-0.7,-0.5l-0.6,-0.6L234.1,167l-0.7,-0.6l-0.6,-0.6L232.4,165l-0.5,-0.8l-0.4,-0.6L231,162.9l-0.5,-1l-0.3,-0.7l-0.3,-0.8l-0.1,-0.9l-0.3,-0.8l0,-0.9l-0.2,-0.7l-0.1,-1l0,-0.9l0,-66.3Z" class="g2_7" />
<path d="M292,147l460,0" class="g3_7" />
<path d="M114,545l981,0" class="g4_7" />
<path d="M114,471l981,0" class="g4_7" />
<path d="M114,396l981,0" class="g4_7" />
<path d="M114,322l981,0" class="g4_7" />
<path fill-rule="evenodd" d="M126.3,251.8l231.5,0l0.6,0l0.6,0.1l0.6,0l0.7,0.2l0.6,0.1l0.6,0.2l0.4,0.1l0.6,0.3l0.7,0.4l0.6,0.3l0.4,0.3l0.5,0.3l0.4,0.3l0.5,0.4l0.5,0.5l0.4,0.5l0.5,0.4l0.3,0.5l0.3,0.4l0.4,0.6l0.2,0.5l0.3,0.6l0.3,0.6l0.2,0.5l0.1,0.6l0.2,0.6l0.1,0.6l0.2,0.6l0,0.6l0,0.6l0,59l-255,0l0,-59l0,-0.6l0,-0.6l0.1,-0.6l0.2,-0.6l0.1,-0.6l0.2,-0.6l0.1,-0.5l0.4,-0.6l0.3,-0.6l0.1,-0.5l0.5,-0.6l0.3,-0.4l0.3,-0.5l0.4,-0.4l0.5,-0.5l0.5,-0.5l0.4,-0.4l0.5,-0.3l0.4,-0.3l0.6,-0.5l0.5,-0.1l0.6,-0.4l0.6,-0.3l0.5,-0.1l0.6,-0.2l0.6,-0.1l0.6,-0.2l0.6,-0.1l0.6,0l0.6,0Z" class="g5_7" />
<path d="M126.3,251.8l231.5,0l0.6,0l0.6,0.1l0.6,0l0.7,0.2l0.6,0.1l0.6,0.2l0.4,0.1l0.6,0.3l0.7,0.4l0.6,0.3l0.4,0.3l0.5,0.3l0.4,0.3l0.5,0.4l0.5,0.5l0.4,0.5l0.5,0.4l0.3,0.5l0.3,0.4l0.4,0.6l0.2,0.5l0.3,0.6l0.3,0.6l0.2,0.5l0.1,0.6l0.2,0.6l0.1,0.6l0.2,0.6l0,0.6l0,0.6l0,59l-255,0l0,-59l0,-0.6l0,-0.6l0.1,-0.6l0.2,-0.6l0.1,-0.6l0.2,-0.6l0.1,-0.5l0.4,-0.6l0.3,-0.6l0.1,-0.5l0.5,-0.6l0.3,-0.4l0.3,-0.5l0.4,-0.4l0.5,-0.5l0.5,-0.5l0.4,-0.4l0.5,-0.3l0.4,-0.3l0.6,-0.5l0.5,-0.1l0.6,-0.4l0.6,-0.3l0.5,-0.1l0.6,-0.2l0.6,-0.1l0.6,-0.2l0.6,-0.1l0.6,0l0.6,0Z" class="g4_7" />
<path fill-rule="evenodd" d="M126.3,326l231.5,0l0.6,0l0.6,0.2l0.6,0l0.7,0.1l0.6,0.2l0.6,0.1l0.4,0.3l0.6,0.2l0.7,0.3l0.6,0.3l0.4,0.3l0.5,0.3l0.4,0.5l0.5,0.3l0.5,0.4l0.4,0.5l0.5,0.5l0.3,0.4l0.3,0.6L368,332l0.2,0.6l0.3,0.5l0.3,0.6l0.2,0.6l0.1,0.6l0.2,0.6l0.1,0.6l0.2,0.6l0,0.6l0,0.6l0,59l-255,0l0,-59l0,-0.6l0,-0.6l0.1,-0.7l0.2,-0.7l0.1,-0.4l0.2,-0.6l0.1,-0.6l0.4,-0.6l0.3,-0.5l0.1,-0.6l0.5,-0.5l0.3,-0.6l0.3,-0.4l0.4,-0.5l0.5,-0.5l0.5,-0.4l0.4,-0.3l0.5,-0.5l0.4,-0.3l0.6,-0.3l0.5,-0.3l0.6,-0.3l0.6,-0.2l0.5,-0.3l0.6,-0.1l0.6,-0.2l0.6,-0.1l0.6,0l0.6,-0.2l0.6,0Z" class="g6_7" />
<path d="M126.3,326l231.5,0l0.6,0l0.6,0.2l0.6,0l0.7,0.1l0.6,0.2l0.6,0.1l0.4,0.3l0.6,0.2l0.7,0.3l0.6,0.3l0.4,0.3l0.5,0.3l0.4,0.5l0.5,0.3l0.5,0.4l0.4,0.5l0.5,0.5l0.3,0.4l0.3,0.6L368,332l0.2,0.6l0.3,0.5l0.3,0.6l0.2,0.6l0.1,0.6l0.2,0.6l0.1,0.6l0.2,0.6l0,0.6l0,0.6l0,59l-255,0l0,-59l0,-0.6l0,-0.6l0.1,-0.7l0.2,-0.7l0.1,-0.4l0.2,-0.6l0.1,-0.6l0.4,-0.6l0.3,-0.5l0.1,-0.6l0.5,-0.5l0.3,-0.6l0.3,-0.4l0.4,-0.5l0.5,-0.5l0.5,-0.4l0.4,-0.3l0.5,-0.5l0.4,-0.3l0.6,-0.3l0.5,-0.3l0.6,-0.3l0.6,-0.2l0.5,-0.3l0.6,-0.1l0.6,-0.2l0.6,-0.1l0.6,0l0.6,-0.2l0.6,0Z" class="g7_7" />
<path fill-rule="evenodd" d="M126.3,400.4l231.5,0l0.6,0l0.6,0l0.6,0l0.7,0.2l0.6,0.1l0.6,0.3l0.4,0.2l0.6,0.1l0.7,0.4l0.6,0.3l0.4,0.3l0.5,0.3l0.4,0.4l0.5,0.3l0.5,0.5l0.4,0.5l0.5,0.4l0.3,0.5l0.3,0.6l0.4,0.4l0.2,0.6l0.3,0.7l0.3,0.4l0.2,0.6l0.1,0.6l0.2,0.7l0.1,0.6l0.2,0.6l0,0.6l0,0.6l0,59l-255,0l0,-59l0,-0.6l0,-0.6l0.1,-0.6l0.2,-0.6l0.1,-0.7l0.2,-0.6l0.1,-0.6l0.4,-0.6l0.3,-0.5l0.1,-0.6l0.5,-0.4l0.3,-0.6l0.3,-0.5l0.4,-0.4l0.5,-0.5l0.5,-0.5L119,403l0.5,-0.4l0.4,-0.3l0.6,-0.3l0.5,-0.3l0.6,-0.4l0.6,-0.1l0.5,-0.3l0.6,-0.2l0.6,-0.1l0.6,-0.2l0.6,0l0.6,0l0.6,0Z" class="g8_7" />
<path d="M126.3,400.4l231.5,0l0.6,0l0.6,0l0.6,0l0.7,0.2l0.6,0.1l0.6,0.3l0.4,0.2l0.6,0.1l0.7,0.4l0.6,0.3l0.4,0.3l0.5,0.3l0.4,0.4l0.5,0.3l0.5,0.5l0.4,0.5l0.5,0.4l0.3,0.5l0.3,0.6l0.4,0.4l0.2,0.6l0.3,0.7l0.3,0.4l0.2,0.6l0.1,0.6l0.2,0.7l0.1,0.6l0.2,0.6l0,0.6l0,0.6l0,59l-255,0l0,-59l0,-0.6l0,-0.6l0.1,-0.6l0.2,-0.6l0.1,-0.7l0.2,-0.6l0.1,-0.6l0.4,-0.6l0.3,-0.5l0.1,-0.6l0.5,-0.4l0.3,-0.6l0.3,-0.5l0.4,-0.4l0.5,-0.5l0.5,-0.5L119,403l0.5,-0.4l0.4,-0.3l0.6,-0.3l0.5,-0.3l0.6,-0.4l0.6,-0.1l0.5,-0.3l0.6,-0.2l0.6,-0.1l0.6,-0.2l0.6,0l0.6,0l0.6,0Z" class="g9_7" />
<path fill-rule="evenodd" d="M126.3,474.7l231.5,0l0.6,0l0.6,0l0.6,0.1l0.7,0l0.6,0.2l0.6,0.3l0.4,0.1l0.6,0.3l0.7,0.2l0.6,0.3l0.4,0.3l0.5,0.5l0.4,0.3l0.5,0.4l0.5,0.3l0.4,0.5L367,479l0.3,0.6l0.3,0.4l0.4,0.5l0.2,0.6l0.3,0.6l0.3,0.5l0.2,0.6l0.1,0.6l0.2,0.6l0.1,0.6l0.2,0.6l0,0.6l0,0.6l0,59l-255,0l0,-59l0,-0.6l0,-0.6l0.1,-0.6l0.2,-0.6l0.1,-0.6l0.2,-0.6l0.1,-0.6l0.4,-0.6l0.3,-0.5l0.1,-0.6l0.5,-0.5l0.3,-0.4l0.3,-0.6l0.4,-0.5l0.5,-0.5l0.5,-0.3l0.4,-0.4l0.5,-0.3l0.4,-0.5l0.6,-0.3l0.5,-0.3l0.6,-0.2l0.6,-0.3l0.5,-0.3l0.6,-0.1l0.6,-0.2l0.6,0l0.6,-0.1l0.6,0l0.6,0Z" class="g10_7" />
<path d="M126.3,474.7l231.5,0l0.6,0l0.6,0l0.6,0.1l0.7,0l0.6,0.2l0.6,0.3l0.4,0.1l0.6,0.3l0.7,0.2l0.6,0.3l0.4,0.3l0.5,0.5l0.4,0.3l0.5,0.4l0.5,0.3l0.4,0.5L367,479l0.3,0.6l0.3,0.4l0.4,0.5l0.2,0.6l0.3,0.6l0.3,0.5l0.2,0.6l0.1,0.6l0.2,0.6l0.1,0.6l0.2,0.6l0,0.6l0,0.6l0,59l-255,0l0,-59l0,-0.6l0,-0.6l0.1,-0.6l0.2,-0.6l0.1,-0.6l0.2,-0.6l0.1,-0.6l0.4,-0.6l0.3,-0.5l0.1,-0.6l0.5,-0.5l0.3,-0.4l0.3,-0.6l0.4,-0.5l0.5,-0.5l0.5,-0.3l0.4,-0.4l0.5,-0.3l0.4,-0.5l0.6,-0.3l0.5,-0.3l0.6,-0.2l0.6,-0.3l0.5,-0.3l0.6,-0.1l0.6,-0.2l0.6,0l0.6,-0.1l0.6,0l0.6,0Z" class="g11_7" />
</svg>