<?xml version="1.0" encoding="UTF-8" standalone="no"?>
<!DOCTYPE svg PUBLIC "-//W3C//DTD SVG 1.1//EN"
"http://www.w3.org/Graphics/SVG/1.1/DTD/svg11.dtd">
<svg viewBox="0 0 1155 1210" version="1.1" xmlns="http://www.w3.org/2000/svg" xmlns:xlink="http://www.w3.org/1999/xlink">
<defs>
<clipPath id="c0_8"><path d="M0.5,1210.5L0.5,0.5l1155,0l0,1210Z" /></clipPath>
<style type="text/css"><![CDATA[
.g1_8{
fill: #FFFFFF;
}
]]></style>
</defs>
<path fill-rule="evenodd" d="M0,0L1155,0l0,1210L0,1210L0,0Z" class="g1_8" />
<path fill-rule="evenodd" d="M0,0L1155,0l0,1210L0,1210L0,0Z" class="g1_8" />
<image x="790" y="1140" width="319" height="55" xlink:href="img/1.png" />
<g clip-path="url(#c0_8)">
<g fill="#626262" >
<use xlink:href="#f0_q" transform="matrix(12,0,0,12,38.5,41.3)" />
<use xlink:href="#f1_16" transform="matrix(12,0,0,12,64.8,42.3)" />
<use xlink:href="#f1_d" transform="matrix(12,0,0,12,78.8,42.3)" />
<use xlink:href="#f1_1k" transform="matrix(12,0,0,12,84,42.3)" />
<use xlink:href="#f1_b" transform="matrix(12,0,0,12,96.7,42.3)" />
<use xlink:href="#f1_l" transform="matrix(12,0,0,12,108,42.3)" />
<use xlink:href="#f1_b" transform="matrix(12,0,0,12,115.2,42.3)" />
<use xlink:href="#f1_4" transform="matrix(12,0,0,12,126.5,42.3)" />
<use xlink:href="#f1_c" transform="matrix(12,0,0,12,138.1,42.3)" />
<use xlink:href="#f1_s" transform="matrix(12,0,0,12,151,42.3)" />
<use xlink:href="#f1_r" transform="matrix(12,0,0,12,162,42.3)" />
<use xlink:href="#f1_c" transform="matrix(12,0,0,12,172.9,42.3)" />
<use xlink:href="#f1_f" transform="matrix(12,0,0,12,180,42.3)" />
<use xlink:href="#f1_7" transform="matrix(12,0,0,12,191.5,42.3)" />
<use xlink:href="#f1_4" transform="matrix(12,0,0,12,202.6,42.3)" />
<use xlink:href="#f1_1d" transform="matrix(12,0,0,12,220.1,42.3)" />
<use xlink:href="#f1_7" transform="matrix(12,0,0,12,235.9,42.3)" />
<use xlink:href="#f1_h" transform="matrix(12,0,0,12,247.1,42.3)" />
<use xlink:href="#f1_i" transform="matrix(12,0,0,12,258.8,42.3)" />
<use xlink:href="#f1_a" transform="matrix(12,0,0,12,270.3,42.3)" />
<use xlink:href="#f1_b" transform="matrix(12,0,0,12,275.5,42.3)" />
<use xlink:href="#f1_g" transform="matrix(12,0,0,12,286.8,42.3)" />
<use xlink:href="#f1_k" transform="matrix(12,0,0,12,302.2,42.3)" />
<use xlink:href="#f1_l" transform="matrix(12,0,0,12,313.5,42.3)" />
<use xlink:href="#f1_b" transform="matrix(12,0,0,12,320.7,42.3)" />
<use xlink:href="#f1_k" transform="matrix(12,0,0,12,337.9,42.3)" />
<use xlink:href="#f1_q" transform="matrix(12,0,0,12,349.2,42.3)" />
<use xlink:href="#f1_k" transform="matrix(12,0,0,12,360,42.3)" />
<use xlink:href="#f1_d" transform="matrix(12,0,0,12,371.5,42.3)" />
<use xlink:href="#f1_a" transform="matrix(12,0,0,12,376.5,42.3)" />
<use xlink:href="#f1_k" transform="matrix(12,0,0,12,381.7,42.3)" />
<use xlink:href="#f1_m" transform="matrix(12,0,0,12,393,42.3)" />
<use xlink:href="#f1_a" transform="matrix(12,0,0,12,404.6,42.3)" />
<use xlink:href="#f1_b" transform="matrix(12,0,0,12,409.6,42.3)" />
<use xlink:href="#f1_e" transform="matrix(12,0,0,12,426.9,42.3)" />
<use xlink:href="#f1_7" transform="matrix(12,0,0,12,433.3,42.3)" />
<use xlink:href="#f1_l" transform="matrix(12,0,0,12,444.4,42.3)" />
<use xlink:href="#f1_6" transform="matrix(12,0,0,12,458,42.3)" />
<use xlink:href="#f1_7" transform="matrix(12,0,0,12,468.2,42.3)" />
<use xlink:href="#f1_4" transform="matrix(12,0,0,12,479.5,42.3)" />
<use xlink:href="#f1_4" transform="matrix(12,0,0,12,491,42.3)" />
<use xlink:href="#f1_b" transform="matrix(12,0,0,12,502.6,42.3)" />
<use xlink:href="#f1_6" transform="matrix(12,0,0,12,513.9,42.3)" />
<use xlink:href="#f1_c" transform="matrix(12,0,0,12,524.1,42.3)" />
<use xlink:href="#f1_d" transform="matrix(12,0,0,12,531.3,42.3)" />
<use xlink:href="#f1_4" transform="matrix(12,0,0,12,536.4,42.3)" />
<use xlink:href="#f1_x" transform="matrix(12,0,0,12,548,42.3)" />
<use xlink:href="#f1_c" transform="matrix(12,0,0,12,565.6,42.3)" />
<use xlink:href="#f1_7" transform="matrix(12,0,0,12,572.6,42.3)" />
<use xlink:href="#f1_q" transform="matrix(12,0,0,12,589.7,42.3)" />
<use xlink:href="#f1_k" transform="matrix(12,0,0,12,600.6,42.3)" />
<use xlink:href="#f1_l" transform="matrix(12,0,0,12,611.8,42.3)" />
<use xlink:href="#f1_d" transform="matrix(12,0,0,12,619.6,42.3)" />
<use xlink:href="#f1_7" transform="matrix(12,0,0,12,624.7,42.3)" />
<use xlink:href="#f1_i" transform="matrix(12,0,0,12,636,42.3)" />
<use xlink:href="#f1_g" transform="matrix(12,0,0,12,647.4,42.3)" />
<use xlink:href="#f1_h" transform="matrix(12,0,0,12,662.8,42.3)" />
<use xlink:href="#f1_k" transform="matrix(12,0,0,12,674.6,42.3)" />
<use xlink:href="#f1_c" transform="matrix(12,0,0,12,685.9,42.3)" />
<use xlink:href="#f1_k" transform="matrix(12,0,0,12,693.1,42.3)" />
<use xlink:href="#f1_m" transform="matrix(12,0,0,12,704.4,42.3)" />
<use xlink:href="#f1_k" transform="matrix(12,0,0,12,716,42.3)" />
<use xlink:href="#f1_g" transform="matrix(12,0,0,12,727.3,42.3)" />
<use xlink:href="#f1_b" transform="matrix(12,0,0,12,736.9,42.3)" />
<use xlink:href="#f1_g" transform="matrix(12,0,0,12,748.2,42.3)" />
<use xlink:href="#f1_1c" transform="matrix(12,0,0,12,757.6,42.3)" />
<use xlink:href="#f1_1g" transform="matrix(12,0,0,12,769.4,42.3)" />
<use xlink:href="#f1_f" transform="matrix(12,0,0,12,780.8,42.3)" />
<use xlink:href="#f1_b" transform="matrix(12,0,0,12,792.3,42.3)" />
<use xlink:href="#f1_r" transform="matrix(12,0,0,12,803.7,42.3)" />
<use xlink:href="#f1_k" transform="matrix(12,0,0,12,820.3,42.3)" />
<use xlink:href="#f1_l" transform="matrix(12,0,0,12,831.6,42.3)" />
<use xlink:href="#f1_b" transform="matrix(12,0,0,12,838.8,42.3)" />
<use xlink:href="#f1_x" transform="matrix(12,0,0,12,856.1,42.3)" />
<use xlink:href="#f1_d" transform="matrix(12,0,0,12,867.8,42.3)" />
<use xlink:href="#f1_q" transform="matrix(12,0,0,12,872.9,42.3)" />
<use xlink:href="#f1_b" transform="matrix(12,0,0,12,883.7,42.3)" />
<use xlink:href="#f1_4" transform="matrix(12,0,0,12,895,42.3)" />
<use xlink:href="#f1_d" transform="matrix(12,0,0,12,912.4,42.3)" />
<use xlink:href="#f1_4" transform="matrix(12,0,0,12,917.6,42.3)" />
<use xlink:href="#f1_c" transform="matrix(12,0,0,12,935,42.3)" />
<use xlink:href="#f1_f" transform="matrix(12,0,0,12,942.2,42.3)" />
<use xlink:href="#f1_b" transform="matrix(12,0,0,12,953.7,42.3)" />
<use xlink:href="#f1_c" transform="matrix(12,0,0,12,970.9,42.3)" />
<use xlink:href="#f1_k" transform="matrix(12,0,0,12,978.1,42.3)" />
<use xlink:href="#f1_m" transform="matrix(12,0,0,12,989.4,42.3)" />
<use xlink:href="#f1_a" transform="matrix(12,0,0,12,1001,42.3)" />
<use xlink:href="#f1_b" transform="matrix(12,0,0,12,1006.2,42.3)" />
<use xlink:href="#f1_m" transform="matrix(12,0,0,12,1023.3,42.3)" />
<use xlink:href="#f1_b" transform="matrix(12,0,0,12,1034.9,42.3)" />
<use xlink:href="#f1_a" transform="matrix(12,0,0,12,1046.2,42.3)" />
<use xlink:href="#f1_7" transform="matrix(12,0,0,12,1051.3,42.3)" />
<use xlink:href="#f1_12" transform="matrix(12,0,0,12,1062.5,42.3)" />
<use xlink:href="#f1_n" transform="matrix(12,0,0,12,1076.4,42.3)" />
<use xlink:href="#f0_q" transform="matrix(12,0,0,12,38.5,395.4)" />
<use xlink:href="#f1_u" transform="matrix(12,0,0,12,64.8,396.5)" />
<use xlink:href="#f1_4" transform="matrix(12,0,0,12,70.1,396.5)" />
<use xlink:href="#f1_c" transform="matrix(12,0,0,12,87.5,396.5)" />
<use xlink:href="#f1_f" transform="matrix(12,0,0,12,94.6,396.5)" />
<use xlink:href="#f1_d" transform="matrix(12,0,0,12,106.2,396.5)" />
<use xlink:href="#f1_g" transform="matrix(12,0,0,12,111.3,396.5)" />
<use xlink:href="#f1_8" transform="matrix(12,0,0,12,126.6,396.5)" />
<use xlink:href="#f1_7" transform="matrix(12,0,0,12,144.5,396.5)" />
<use xlink:href="#f1_h" transform="matrix(12,0,0,12,155.6,396.5)" />
<use xlink:href="#f1_i" transform="matrix(12,0,0,12,167.4,396.5)" />
<use xlink:href="#f1_a" transform="matrix(12,0,0,12,178.8,396.5)" />
<use xlink:href="#f1_b" transform="matrix(12,0,0,12,184,396.5)" />
<use xlink:href="#f1_j" transform="matrix(12,0,0,12,195.3,396.5)" />
<use xlink:href="#f1_12" transform="matrix(12,0,0,12,207,396.5)" />
<use xlink:href="#f1_b" transform="matrix(12,0,0,12,222,396.5)" />
<use xlink:href="#f1_12" transform="matrix(12,0,0,12,239.3,396.5)" />
<use xlink:href="#f1_d" transform="matrix(12,0,0,12,254.4,396.5)" />
<use xlink:href="#f1_a" transform="matrix(12,0,0,12,259.4,396.5)" />
<use xlink:href="#f1_a" transform="matrix(12,0,0,12,264.6,396.5)" />
<use xlink:href="#f1_m" transform="matrix(12,0,0,12,275.6,396.5)" />
<use xlink:href="#f1_b" transform="matrix(12,0,0,12,287.2,396.5)" />
<use xlink:href="#f1_6" transform="matrix(12,0,0,12,304.3,396.5)" />
<use xlink:href="#f1_7" transform="matrix(12,0,0,12,314.7,396.5)" />
<use xlink:href="#f1_4" transform="matrix(12,0,0,12,325.8,396.5)" />
<use xlink:href="#f1_4" transform="matrix(12,0,0,12,337.3,396.5)" />
<use xlink:href="#f1_b" transform="matrix(12,0,0,12,348.9,396.5)" />
<use xlink:href="#f1_6" transform="matrix(12,0,0,12,360.2,396.5)" />
<use xlink:href="#f1_c" transform="matrix(12,0,0,12,370.4,396.5)" />
<use xlink:href="#f1_d" transform="matrix(12,0,0,12,377.7,396.5)" />
<use xlink:href="#f1_4" transform="matrix(12,0,0,12,382.7,396.5)" />
<use xlink:href="#f1_x" transform="matrix(12,0,0,12,394.3,396.5)" />
<use xlink:href="#f1_c" transform="matrix(12,0,0,12,411.9,396.5)" />
<use xlink:href="#f1_7" transform="matrix(12,0,0,12,419.1,396.5)" />
<use xlink:href="#f1_3" transform="matrix(12,0,0,12,436,396.5)" />
<use xlink:href="#f1_l" transform="matrix(12,0,0,12,450.5,396.5)" />
<use xlink:href="#f1_k" transform="matrix(12,0,0,12,458.2,396.5)" />
<use xlink:href="#f1_6" transform="matrix(12,0,0,12,469.6,396.5)" />
<use xlink:href="#f1_a" transform="matrix(12,0,0,12,479.8,396.5)" />
<use xlink:href="#f1_b" transform="matrix(12,0,0,12,485,396.5)" />
<use xlink:href="#f1_16" transform="matrix(12,0,0,12,502.1,396.5)" />
<use xlink:href="#f1_k" transform="matrix(12,0,0,12,516.3,396.5)" />
<use xlink:href="#f1_c" transform="matrix(12,0,0,12,527.6,396.5)" />
<use xlink:href="#f1_k" transform="matrix(12,0,0,12,534.8,396.5)" />
<use xlink:href="#f1_m" transform="matrix(12,0,0,12,546,396.5)" />
<use xlink:href="#f1_k" transform="matrix(12,0,0,12,557.7,396.5)" />
<use xlink:href="#f1_g" transform="matrix(12,0,0,12,568.9,396.5)" />
<use xlink:href="#f1_b" transform="matrix(12,0,0,12,578.6,396.5)" />
<use xlink:href="#f1_e" transform="matrix(12,0,0,12,595.7,396.5)" />
<use xlink:href="#f1_l" transform="matrix(12,0,0,12,602.2,396.5)" />
<use xlink:href="#f1_7" transform="matrix(12,0,0,12,609.2,396.5)" />
<use xlink:href="#f1_8" transform="matrix(12,0,0,12,620.5,396.5)" />
<use xlink:href="#f1_s" transform="matrix(12,0,0,12,644.1,396.5)" />
<use xlink:href="#f1_r" transform="matrix(12,0,0,12,655.1,396.5)" />
<use xlink:href="#f1_c" transform="matrix(12,0,0,12,665.9,396.5)" />
<use xlink:href="#f1_f" transform="matrix(12,0,0,12,673.1,396.5)" />
<use xlink:href="#f1_7" transform="matrix(12,0,0,12,684.7,396.5)" />
<use xlink:href="#f1_4" transform="matrix(12,0,0,12,695.8,396.5)" />
<use xlink:href="#f1_j" transform="matrix(12,0,0,12,707.4,396.5)" />
<use xlink:href="#f1_f" transform="matrix(12,0,0,12,719.1,396.5)" />
<use xlink:href="#f1_b" transform="matrix(12,0,0,12,730.7,396.5)" />
<use xlink:href="#f1_4" transform="matrix(12,0,0,12,742,396.5)" />
<use xlink:href="#f1_6" transform="matrix(12,0,0,12,753.6,396.5)" />
<use xlink:href="#f1_b" transform="matrix(12,0,0,12,763.8,396.5)" />
<use xlink:href="#f1_12" transform="matrix(12,0,0,12,781,396.5)" />
<use xlink:href="#f1_b" transform="matrix(12,0,0,12,796,396.5)" />
<use xlink:href="#f1_12" transform="matrix(12,0,0,12,813.2,396.5)" />
<use xlink:href="#f1_d" transform="matrix(12,0,0,12,828.3,396.5)" />
<use xlink:href="#f1_a" transform="matrix(12,0,0,12,833.4,396.5)" />
<use xlink:href="#f1_a" transform="matrix(12,0,0,12,838.6,396.5)" />
<use xlink:href="#f1_i" transform="matrix(12,0,0,12,849.5,396.5)" />
<use xlink:href="#f1_g" transform="matrix(12,0,0,12,861,396.5)" />
<use xlink:href="#f1_b" transform="matrix(12,0,0,12,870.5,396.5)" />
</g>
<g fill="#C00000" >
<use xlink:href="#f2_l" transform="matrix(12,0,0,12,888.4,396.5)" />
<use xlink:href="#f2_s" transform="matrix(12,0,0,12,899.3,396.5)" />
<use xlink:href="#f2_t" transform="matrix(12,0,0,12,911.2,396.5)" />
<use xlink:href="#f2_k" transform="matrix(12,0,0,12,920.3,396.5)" />
<use xlink:href="#f2_d" transform="matrix(12,0,0,12,935.9,396.5)" />
<use xlink:href="#f2_7" transform="matrix(12,0,0,12,944.9,396.5)" />
<use xlink:href="#f2_l" transform="matrix(12,0,0,12,957.4,396.5)" />
<use xlink:href="#f2_m" transform="matrix(12,0,0,12,968.1,396.5)" />
<use xlink:href="#f2_b" transform="matrix(12,0,0,12,974.2,396.5)" />
</g>
<g fill="#626262" >
<use xlink:href="#f1_8" transform="matrix(12,0,0,12,992.6,396.5)" />
<use xlink:href="#f1_7" transform="matrix(12,0,0,12,1010.3,396.5)" />
<use xlink:href="#f1_h" transform="matrix(12,0,0,12,1021.5,396.5)" />
<use xlink:href="#f1_i" transform="matrix(12,0,0,12,1033.2,396.5)" />
<use xlink:href="#f1_a" transform="matrix(12,0,0,12,1044.8,396.5)" />
<use xlink:href="#f1_b" transform="matrix(12,0,0,12,1050,396.5)" />
<use xlink:href="#f1_1c" transform="matrix(12,0,0,12,1061.3,396.5)" />
</g>
</g>
<image x="308" y="73" width="511" height="289" xlink:href="img/2.png" />
<defs>
	<path d="M264.3,297.9c0,0,-42.8,0,-79.4,16.8c0,0,-36.7,16.8,-64.2,44.3c0,0,-29,29.1,-44.3,67.3c0,0,-16.8,38.1,-16.8,82.5c0,0,0,41.2,15.3,77.9c0,0,16.8,38.2,44.3,65.7c0,0,29,27.5,65.7,42.7c0,0,36.6,16.8,79.4,16.8c0,0,42.8,0,81,-15.2c0,0,38.2,-16.8,65.7,-44.3c0,0,29,-27.5,45.8,-64.2c0,0,16.8,-38.2,16.8,-79.4c0,0,0,-44.4,-16.8,-82.5c0,0,-16.8,-38.2,-44.3,-65.7c0,0,-29,-29.1,-67.2,-45.9c0,0,-38.2,-16.8,-81,-16.8Z" 
	id="f0_q"
	transform="scale(0.001,-0.001)" />

	<path d="M481.3,123.8c0,0,230.6,0,337.6,103.8c0,0,106.9,103.9,106.9,330c0,0,0,223.1,-106.9,327c0,0,-107,103.9,-337.6,103.9l-181.9,0l0,-864.7ZM149.7,0l0,1113.8l308.6,0c0,0,323.9,0,475.2,-134.5c0,0,151.2,-136,151.2,-421.7c0,0,0,-288.7,-151.2,-423.2C933.5,134.4,780.7,0,458.3,0Z" 
	id="f1_16"
	transform="scale(0.001,-0.001)" />

	<path d="M143,0l0,834l138,0L281,0Zm0,985l0,174l138,0l0,-174Z" 
	id="f1_d"
	transform="scale(0.001,-0.001)" />

	<path d="M165,0l0,728.8l-131.4,0l0,105.4l131.4,0l0,58c0,0,0,140.6,64.2,203.2c0,0,65.7,64.2,207.7,64.2l129.9,0l0,-113.1l-131.4,0c0,0,-74.8,0,-103.9,-30.5c0,0,-27.5,-30.6,-27.5,-107l0,-74.8l375.9,0l0,58c0,0,0,140.6,64.1,203.2c0,0,65.7,64.2,207.8,64.2l129.9,0l0,-113.1l-131.4,0c0,0,-74.9,0,-102.4,-30.5c0,0,-29,-30.6,-29,-107l0,-74.8l226.1,0l0,-105.4l-226.1,0L818.9,0l-139,0l0,728.8l-375.9,0L304,0Z" 
	id="f1_1k"
	transform="scale(0.001,-0.001)" />

	<path d="M230.7,490.4l490.4,1.5c0,0,-1.5,111.6,-62.6,178.8c0,0,-62.7,67.2,-163.5,67.2c0,0,-114.6,0,-183.3,-64.1c0,0,-70.3,-65.7,-81,-183.4ZM516.4,-21.3c0,0,-198.6,0,-314.7,116C201.7,94.7,84,210.8,84,409.4c0,0,0,204.8,110,325.5c0,0,111.6,120.7,299.5,120.7c0,0,168,0,265.8,-108.5c0,0,99.3,-110,99.3,-296.4l0,-67.2l-632.5,0c0,0,9.2,-140.6,85.6,-213.9c0,0,76.4,-74.9,213.9,-74.9c0,0,77.9,0,152.7,18.4c0,0,74.9,19.8,148.2,58l0,-129.8c0,0,-74.8,-30.6,-151.2,-45.8c0,0,-77.9,-16.8,-158.9,-16.8Z" 
	id="f1_b"
	transform="scale(0.001,-0.001)" />

	<path d="M137.5,0l0,834.2l139,0l0,-129.9c0,0,42.8,76.4,111.6,113.1c0,0,70.2,38.2,169.5,38.2c0,0,13.8,0,30.6,-1.6c0,0,16.8,-3,38.2,-6.1l1.5,-142.1c0,0,-24.4,13.8,-50.4,19.9c0,0,-27.5,6.1,-61.1,6.1c0,0,-116.1,0,-177.2,-74.9c0,0,-62.7,-76.3,-62.7,-216.9l0,-440Z" 
	id="f1_l"
	transform="scale(0.001,-0.001)" />

	<path d="M137.5,0l0,834.2l139,0l0,-129.9c0,0,48.9,76.4,114.6,113.1c0,0,67.2,38.2,154.3,38.2c0,0,145.2,0,218.5,-88.7c0,0,73.3,-90.1,73.3,-262.7L837.2,0L699.7,0l0,499.6c0,0,0,117.6,-45.8,175.7c0,0,-45.8,59.6,-139,59.6c0,0,-110,0,-174.2,-70.3c0,0,-64.2,-70.3,-64.2,-192.5L276.5,0Z" 
	id="f1_4"
	transform="scale(0.001,-0.001)" />

	<path d="M420.1,0c0,0,-158.8,0,-218.4,58.1c0,0,-61.1,59.5,-61.1,216.9l0,453.8l-100.9,0l0,105.4l100.9,0l0,238.3l139,0l0,-238.3l282.6,0l0,-105.4l-282.6,0l0,-453.8c0,0,0,-102.4,27.5,-131.4c0,0,27.5,-29,113,-29l142.1,0L562.2,0Z" 
	id="f1_c"
	transform="scale(0.001,-0.001)" />

	<path d="M488.9,571.4c0,0,105.4,0,161.9,53.5c0,0,58.1,55,58.1,155.8c0,0,0,99.3,-56.5,152.8c0,0,-58.1,55,-163.5,55l-189.5,0l0,-417.1ZM149.7,0l0,1113.8l339.2,0c0,0,187.9,0,282.6,-84.1c0,0,96.3,-85.5,96.3,-249c0,0,0,-165,-94.7,-249c0,0,-96.3,-85.6,-284.2,-85.6l-189.5,0L299.4,0Z" 
	id="f1_s"
	transform="scale(0.001,-0.001)" />

	<path d="M120.7,-317.7l0,116.1l79.4,0c0,0,56.6,0,87.1,26c0,0,32.1,27.5,70.3,126.8l24.4,61L44.3,834.2l145.1,0L450.7,181.8L711.9,834.2l146.7,0L490.4,-76.3c0,0,-58,-149.7,-113,-195.5c0,0,-55,-45.9,-148.2,-45.9Z" 
	id="f1_r"
	transform="scale(0.001,-0.001)" />

	<path d="M137.5,0l0,1159.6l139,0l0,-455.3c0,0,48.9,76.4,114.6,113.1c0,0,67.2,38.2,154.3,38.2c0,0,145.2,0,218.5,-88.7c0,0,73.3,-90.1,73.3,-262.7L837.2,0L699.7,0l0,499.6c0,0,0,117.6,-45.8,175.7c0,0,-45.8,59.6,-139,59.6c0,0,-110,0,-174.2,-70.3c0,0,-64.2,-70.3,-64.2,-192.5L276.5,0Z" 
	id="f1_f"
	transform="scale(0.001,-0.001)" />

	<path d="M467.5,94.7c0,0,108.5,0,172.6,85.6c0,0,64.2,87.1,64.2,235.3c0,0,0,149.7,-64.2,235.2c0,0,-64.1,87.1,-172.6,87.1c0,0,-111.5,0,-175.7,-85.5c0,0,-64.2,-85.6,-64.2,-236.8c0,0,0,-149.8,64.2,-235.3c0,0,64.2,-85.6,175.7,-85.6Zm0,-116c0,0,-180.3,0,-281.1,116C186.4,94.7,84,210.8,84,415.6c0,0,0,206.2,100.9,322.3c0,0,102.3,117.7,282.6,117.7c0,0,178.8,0,281.1,-116.2c0,0,102.4,-117.6,102.4,-323.8c0,0,0,-204.8,-102.4,-320.9c0,0,-102.3,-116,-281.1,-116Z" 
	id="f1_7"
	transform="scale(0.001,-0.001)" />

	<path d="M149.7,0l0,1113.8l224.6,0L658.5,354.4l285.7,759.4l224.6,0L1168.8,0L1020.6,0l0,977.8L733.3,213.9l-151.2,0L294.9,977.8L294.9,0Z" 
	id="f1_1d"
	transform="scale(0.001,-0.001)" />

	<path d="M458.3,93.2c0,0,110,0,172.7,85.6c0,0,62.6,85.5,62.6,236.8c0,0,0,152.7,-62.6,238.3c0,0,-62.7,85.5,-172.7,85.5c0,0,-108.4,0,-171.1,-85.5c0,0,-62.6,-85.6,-62.6,-238.3c0,0,0,-151.3,62.6,-236.8c0,0,62.7,-85.6,171.1,-85.6ZM424.7,-21.3c0,0,-151.2,0,-245.9,120.6C178.8,99.3,84,220,84,415.6c0,0,0,197,94.8,317.7c0,0,94.7,122.3,245.9,122.3c0,0,93.2,0,158.9,-36.7c0,0,65.7,-36.7,110,-111.5l0,452.2l136,0L829.6,0l-136,0l0,125.3c0,0,-44.3,-74.9,-110,-110c0,0,-65.7,-36.6,-158.9,-36.6Z" 
	id="f1_h"
	transform="scale(0.001,-0.001)" />

	<path d="M421.7,-21.3c0,0,-143.6,0,-218.5,88.5L128.3,328.5l0,505.7l137.5,0l0,-499.6c0,0,0,-119.2,45.9,-178.8c0,0,47.3,-59.5,139,-59.5c0,0,111.5,0,175.7,70.2c0,0,65.7,71.8,65.7,194.1l0,473.6l136,0L828.1,0l-136,0l0,126.8c0,0,-50.4,-74.9,-116.1,-111.5c0,0,-67.2,-36.6,-154.3,-36.6Z" 
	id="f1_i"
	transform="scale(0.001,-0.001)" />

	<path d="M143,0l0,1159l138,0L281,0Z" 
	id="f1_a"
	transform="scale(0.001,-0.001)" />

	<path d="M375.8,-21.3c0,0,-67.2,0,-140.5,12.2c0,0,-73.4,12.2,-152.8,39.7l0,140.5c0,0,76.4,-39.7,149.7,-58c0,0,73.4,-19.9,146.7,-19.9c0,0,96.2,0,148.2,32.1c0,0,51.9,33.6,51.9,94.7c0,0,0,55,-36.6,84c0,0,-38.2,30.6,-165,58.1l-48.9,12.2c0,0,-126.8,26,-183.4,81c0,0,-56.5,56.5,-56.5,152.8c0,0,0,119.1,82.5,183.3c0,0,84,64.2,238.3,64.2c0,0,74.9,0,142.1,-10.7c0,0,67.3,-12.3,123.8,-35.2l0,-129.8c0,0,-58.1,30.5,-120.7,44.3c0,0,-62.7,15.2,-129.9,15.2c0,0,-102.3,0,-152.8,-30.5c0,0,-50.4,-32.1,-50.4,-94.7c0,0,0,-47.4,35.2,-74.9c0,0,36.6,-27.5,148.2,-51.9l45.8,-10.7c0,0,146.7,-30.6,207.8,-87.1c0,0,62.6,-58.1,62.6,-160.4c0,0,0,-116.1,-91.7,-183.4c0,0,-93.1,-67.1,-253.6,-67.1Z" 
	id="f1_g"
	transform="scale(0.001,-0.001)" />

	<path d="M407.9,93.2c0,0,113.1,0,181.8,79.4c0,0,70.3,81,70.3,215.5l0,30.5l-137.5,0c0,0,-166.5,0,-230.7,-36.7c0,0,-64.2,-38.1,-64.2,-129.8c0,0,0,-73.3,47.4,-116.1c0,0,48.9,-42.8,132.9,-42.8ZM371.3,-21.3c0,0,-128.4,0,-203.2,71.7c0,0,-76.4,71.8,-76.4,192.5c0,0,0,140.6,93.2,212.4c0,0,94.7,71.8,282.6,71.8l192.5,0l0,13.7c0,0,0,94.8,-62.6,145.2c0,0,-62.7,51.9,-175.7,51.9c0,0,-71.8,0,-139.1,-16.8c0,0,-67.2,-16.8,-129.8,-51.9l0,126.8c0,0,74.8,30.5,145.1,44.3c0,0,71.8,15.3,139,15.3c0,0,180.3,0,268.9,-93.2c0,0,90.2,-94.8,90.2,-285.7L796,0L660,0l0,126.8c0,0,-47.4,-76.4,-117.6,-111.5c0,0,-70.3,-36.6,-171.1,-36.6Z" 
	id="f1_k"
	transform="scale(0.001,-0.001)" />

	<path d="M357.5,0L44.3,834.2l145.1,0L450.7,132.9L711.9,834.2l146.7,0L543.9,0Z" 
	id="f1_q"
	transform="scale(0.001,-0.001)" />

	<path d="M508.8,93.2c0,0,110,0,171.1,85.6c0,0,62.6,85.5,62.6,236.8c0,0,0,152.7,-61.1,238.3c0,0,-62.6,85.5,-172.6,85.5c0,0,-108.5,0,-169.6,-85.5c0,0,-62.7,-85.6,-62.7,-238.3c0,0,0,-151.3,61.1,-236.8c0,0,62.7,-85.6,171.2,-85.6ZM542.4,-21.3c0,0,-91.7,0,-157.4,35.1c0,0,-65.7,36.6,-108.5,111.5L276.5,0l-139,0l0,1159.6l139,0l0,-452.2c0,0,42.8,74.8,108.5,111.5c0,0,65.7,36.7,157.4,36.7c0,0,152.7,0,247.5,-120.7c0,0,96.2,-122.3,96.2,-319.3c0,0,0,-195.6,-94.7,-316.3c0,0,-96.3,-120.6,-249,-120.6Z" 
	id="f1_m"
	transform="scale(0.001,-0.001)" />

	<path d="M165,0l0,728.8l-131.4,0l0,105.4l131.4,0l0,58c0,0,0,140.6,64.2,203.2c0,0,65.7,64.2,207.7,64.2l129.9,0l0,-113.1l-131.4,0c0,0,-74.8,0,-102.3,-30.5c0,0,-29.1,-30.6,-29.1,-107l0,-74.8l226.1,0l0,-105.4l-226.1,0L304,0Z" 
	id="f1_e"
	transform="scale(0.001,-0.001)" />

	<path d="M495,-21.3c0,0,-189.4,0,-299.4,117.6C195.6,96.3,84,215.4,84,415.6c0,0,0,204.7,111.6,322.3c0,0,113,117.7,308.6,117.7c0,0,62.6,0,122.2,-13.8c0,0,61.1,-13.7,117.6,-39.7l0,-128.3c0,0,-58,32,-116.1,47.3c0,0,-58,16.8,-119.1,16.8c0,0,-133,0,-206.3,-84c0,0,-74.9,-84,-74.9,-238.3c0,0,0,-152.8,73.4,-236.8c0,0,74.8,-84.1,207.8,-84.1c0,0,61.1,0,119.1,15.3c0,0,58.1,16.8,116.1,48.9L744,30.6c0,0,-56.5,-26,-117.6,-38.1c0,0,-62.6,-13.8,-131.4,-13.8Z" 
	id="f1_6"
	transform="scale(0.001,-0.001)" />

	<path d="M458.3,114.6c0,0,111.6,0,172.7,81c0,0,62.6,82.5,62.6,230.7c0,0,0,149.7,-61.1,230.6c0,0,-62.6,82.5,-174.2,82.5c0,0,-110,0,-171.1,-80.9c0,0,-62.6,-82.5,-62.6,-232.2c0,0,0,-148.2,61.1,-229.2c0,0,62.6,-82.5,172.6,-82.5ZM444.6,-317.7c0,0,-71.8,0,-136,10.7c0,0,-64.2,12.2,-123.7,33.6l0,134.5c0,0,59.5,-33.6,117.6,-48.9c0,0,59.6,-15.3,120.7,-15.3c0,0,136,0,203.2,70.3c0,0,67.2,70.3,67.2,210.7l0,68.8c0,0,-42.8,-74.9,-108.5,-110C585.1,36.7,517.9,0,424.7,0c0,0,-152.8,0,-245.9,116.1c0,0,-94.8,117.7,-94.8,310.2c0,0,0,194,93.2,311.6c0,0,94.7,117.7,247.5,117.7c0,0,93.2,0,158.9,-36.7c0,0,67.2,-36.7,110,-111.5l0,126.8l136,0l0,-731.8c0,0,0,-210.8,-94.7,-314.7c0,0,-94.8,-105.4,-290.3,-105.4Z" 
	id="f1_x"
	transform="scale(0.001,-0.001)" />

	<path d="M161,0l0,189l158,0L319,0Z" 
	id="f1_1c"
	transform="scale(0.001,-0.001)" />

	<path d="M389,0l0,985L-3,985l0,128l939,0l0,-128l-396,0L540,0Z" 
	id="f1_1g"
	transform="scale(0.001,-0.001)" />

	<path d="M282.6,0L62.6,834.2l137.5,0L372.8,183.3L542.4,834.2l161.9,0L876.9,183.3l171.2,650.9l135.9,0L965.6,0l-162,0L624.9,684.4L444.6,0Z" 
	id="f1_12"
	transform="scale(0.001,-0.001)" />

	<path d="M178,0l0,189l158,0L336,0Zm0,600l0,189l158,0l0,-189Z" 
	id="f1_n"
	transform="scale(0.001,-0.001)" />

	<path d="M149,0l0,1113l150,0L299,0Z" 
	id="f1_u"
	transform="scale(0.001,-0.001)" />

	<path d="M137.5,0l0,834.2l139,0l0,-129.9c0,0,45.9,77.9,111.6,114.6c0,0,65.7,36.7,155.8,36.7c0,0,91.7,0,154.3,-45.9c0,0,64.2,-47.3,96.2,-135.9c0,0,50.5,93.1,122.3,137.5c0,0,71.8,44.3,168,44.3c0,0,131.4,0,201.7,-91.7c0,0,71.8,-91.7,71.8,-259.7L1358.2,0l-139,0l0,499.6c0,0,0,119.2,-41.3,177.2c0,0,-42.8,58.1,-129.8,58.1c0,0,-107,0,-168.1,-70.3c0,0,-62.6,-70.3,-62.6,-192.5L817.4,0L678.3,0l0,499.6c0,0,0,120.7,-41.2,177.2c0,0,-42.8,58.1,-131.4,58.1c0,0,-105.4,0,-166.5,-70.3c0,0,-62.7,-71.8,-62.7,-192.5L276.5,0Z" 
	id="f1_8"
	transform="scale(0.001,-0.001)" />

	<path d="M117.6,-177.1L178.8,61.1l0,128.3l157.3,0l0,-128.3L213.9,-177.1Z" 
	id="f1_j"
	transform="scale(0.001,-0.001)" />

	<path d="M601.9,99.3c0,0,163.5,0,258.2,122.2c0,0,96.3,123.8,96.3,333.1c0,0,0,210.8,-94.7,333c0,0,-96.3,123.8,-259.8,123.8c0,0,-165,0,-261.2,-122.2c0,0,-96.3,-123.8,-96.3,-334.6c0,0,0,-209.3,96.3,-331.5c0,0,96.2,-123.8,261.2,-123.8Zm0,-120.6c0,0,-235.2,0,-375.8,155.7c0,0,-140.5,155.9,-140.5,420.2c0,0,0,264.3,140.5,421.7c0,0,140.6,157.3,375.8,157.3c0,0,233.8,0,372.8,-157.3c0,0,140.6,-157.4,140.6,-421.7c0,0,0,-262.8,-139,-418.6c0,0,-140.6,-157.3,-374.4,-157.3Z" 
	id="f1_3"
	transform="scale(0.001,-0.001)" />

	<path d="M545.4,-21.3c0,0,-226.1,0,-352.9,114.5c0,0,-128.3,116.1,-128.3,322.4c0,0,0,207.7,126.8,323.8c0,0,128.3,116.2,354.4,116.2c0,0,65.7,0,129.9,-12.3c0,0,64.1,-12.2,126.8,-35.1l0,-216.9c0,0,-53.5,36.6,-108.5,55c0,0,-55,18.3,-114.6,18.3c0,0,-111.5,0,-172.6,-65.7c0,0,-62.6,-65.7,-62.6,-183.3c0,0,0,-116.2,61.1,-181.8c0,0,62.6,-65.7,174.1,-65.7c0,0,62.7,0,119.2,18.3c0,0,56.5,19.9,103.9,56.5l0,-218.5c0,0,-62.7,-24.4,-126.8,-35c0,0,-64.2,-10.7,-129.9,-10.7Z" 
	id="f2_l"
	transform="scale(0.001,-0.001)" />

	<path d="M22.9,0L339.2,426.3L36.7,834.2l282.6,0L490.4,586.7L664.6,834.2l282.6,0L644.7,427.8L961,0L678.3,0L490.4,262.8L305.6,0Z" 
	id="f2_s"
	transform="scale(0.001,-0.001)" />

	<path d="M0,-359l0,141l762,0l0,-141Z" 
	id="f2_t"
	transform="scale(0.001,-0.001)" />

	<path d="M647.8,186.4c0,0,132.9,0,204.7,96.2c0,0,71.8,97.8,71.8,272c0,0,0,177.2,-71.8,273.5c0,0,-71.8,96.2,-204.7,96.2c0,0,-131.4,0,-203.2,-96.2c0,0,-71.8,-96.3,-71.8,-273.5c0,0,0,-174.2,71.8,-270.4c0,0,71.8,-97.8,203.2,-97.8Zm0,-207.7c0,0,-267.4,0,-420.2,152.7c0,0,-152.7,154.3,-152.7,423.2c0,0,0,271.9,152.7,424.7c0,0,152.8,154.3,420.2,154.3c0,0,268.9,0,420.1,-152.8c0,0,152.8,-154.3,152.8,-426.2c0,0,0,-268.9,-151.3,-421.7c0,0,-152.7,-154.2,-421.6,-154.2Z" 
	id="f2_k"
	transform="scale(0.001,-0.001)" />

	<path d="M126.8,0l0,834.2l267.4,0l0,-136c0,0,51.9,81,117.6,119.2c0,0,67.2,38.2,160.4,38.2c0,0,13.8,0,29.1,-1.6c0,0,16.8,-1.5,45.8,-4.6l1.5,-242.9c0,0,-35.1,16.8,-70.3,24.5c0,0,-35.1,7.6,-70.2,7.6c0,0,-102.4,0,-157.4,-65.7c0,0,-56.5,-65.7,-56.5,-189.4L394.2,0Z" 
	id="f2_d"
	transform="scale(0.001,-0.001)" />

	<path d="M462.9,155.8c0,0,74.9,0,125.3,53.5c0,0,51.9,53.5,51.9,136l0,30.5l-137.5,0c0,0,-84,0,-125.2,-29c0,0,-42.8,-29,-42.8,-84c0,0,0,-50.4,33.6,-77.9c0,0,33.6,-29.1,94.7,-29.1ZM356,-21.3c0,0,-129.9,0,-210.9,74.8c0,0,-80.9,74.8,-80.9,197.1c0,0,0,146.6,100.8,215.4c0,0,102.4,68.7,317.8,68.7l157.3,0l0,19.9c0,0,0,64.2,-48.8,93.2c0,0,-50.5,29,-155.9,29c0,0,-85.5,0,-158.9,-16.8c0,0,-74.8,-16.8,-139,-51.9l0,204.7c0,0,85.6,19.8,172.6,30.5c0,0,87.1,12.3,172.7,12.3c0,0,226.1,0,326.9,-88.7c0,0,100.9,-90.1,100.9,-290.2L910.6,0L640.1,0l0,123.8c0,0,-53.4,-76.4,-120.7,-110c0,0,-67.2,-35.1,-163.4,-35.1Z" 
	id="f2_7"
	transform="scale(0.001,-0.001)" />

	<path d="M126,0l0,1159l268,0L394,0Z" 
	id="f2_m"
	transform="scale(0.001,-0.001)" />

	<path d="M687.5,508.8c0,0,0,74.8,-44.3,120.6c0,0,-44.3,47.4,-116.1,47.4c0,0,-77.9,0,-126.8,-42.8c0,0,-48.9,-44.3,-59.6,-125.2ZM542.4,-21.3c0,0,-226.1,0,-351.4,114.5c0,0,-126.8,114.6,-126.8,322.4c0,0,0,204.7,123.7,322.3c0,0,123.8,117.7,340.7,117.7c0,0,197.1,0,314.7,-119.2c0,0,117.7,-119.2,117.7,-317.8l0,-74.8l-623.4,0c0,0,9.2,-94.8,67.3,-140.6c0,0,58,-47.4,163.4,-47.4c0,0,84.1,0,171.1,24.5c0,0,88.7,24.4,183.4,74.8l0,-204.7c0,0,-96.3,-36.6,-191,-53.4c0,0,-94.7,-18.3,-189.4,-18.3Z" 
	id="f2_b"
	transform="scale(0.001,-0.001)" />


</defs>
</svg>