<?xml version="1.0" encoding="UTF-8" standalone="no"?>
<!DOCTYPE svg PUBLIC "-//W3C//DTD SVG 1.1//EN"
"http://www.w3.org/Graphics/SVG/1.1/DTD/svg11.dtd">
<svg viewBox="0 0 1210 1210" version="1.1" xmlns="http://www.w3.org/2000/svg" xmlns:xlink="http://www.w3.org/1999/xlink">
<defs>
<style type="text/css"><![CDATA[
.g2_4{
fill: none;
stroke: #0000EE;
stroke-width: 2;
stroke-linecap: butt;
stroke-linejoin: miter;
}
.g3_4{
fill: none;
stroke: #418AB3;
stroke-width: 2;
stroke-linecap: butt;
stroke-linejoin: miter;
stroke-miterlimit: 7;
}
.g1_4{
fill: #FFFFFF;
}
]]></style>
</defs>
<path fill-rule="evenodd" d="M0,0L1210,0l0,1210L0,1210L0,0Z" class="g1_4" />
<path fill-rule="evenodd" d="M0,0L1210,0l0,1210L0,1210L0,0Z" class="g1_4" />
<path d="M244,203l32,0" class="g2_4" />
<path d="M244,692l50,0" class="g2_4" />
<image x="446" y="339" width="318" height="230" xlink:href="img/1.png" />
<path fill-rule="evenodd" d="M980.8,15.3l0,-0.3l0,-0.3l0,-0.3L981,14.1l0,-0.3l0.1,-0.4l0,-0.3l0.2,-0.3l0.1,-0.3l0.2,-0.3l0.1,-0.3l0.4,-0.1l0.1,-0.3l0.2,-0.3L982.7,11l0.1,-0.3l0.3,-0.2l0.2,-0.1l0.3,-0.2l0.3,-0.3l0.3,-0.1l0.3,-0.2l0.2,0L985,9.5l0.4,0l0.3,-0.2l0.3,0l0.3,-0.1l0.3,0l0.3,0l189.5,0l0.3,0l0.3,0l0.3,0.1l0.3,0l0.3,0.2l0.3,0l0.3,0.1l0.3,0l0.3,0.3l0.3,0l0.2,0.3l0.3,0.2l0.3,0.1l0.2,0.3l0.3,0.2l0.1,0.2l0.3,0.3l0.2,0.3l0.1,0.3l0.2,0.1l0.1,0.3l0.2,0.3l0.1,0.3l0,0.3l0.2,0.4l0.1,0.3l0,0.3l0,0.3l0,0.3l0,0.3l0.2,24.4l0,0.3l-0.2,0.3l0,0.3l0,0.3l-0.1,0.4l0,0.3l-0.2,0.3l-0.1,0.3l-0.2,0.3l-0.1,0.3l-0.2,0.1l-0.1,0.3l-0.2,0.3l-0.3,0.3l-0.1,0.2l-0.3,0.2l-0.2,0.3l-0.3,0.1l-0.3,0.2l-0.2,0.1l-0.3,0.2l-0.3,0.1l-0.3,0.2l-0.3,0.1l-0.3,0l-0.3,0.2l-0.3,0l-0.3,0l-0.3,0.1l-0.3,0l-189.5,0l-0.3,0l-0.3,0L986,45.7l-0.3,0l-0.3,-0.2l-0.4,0l-0.3,-0.1l-0.2,0l-0.3,-0.2l-0.3,-0.1l-0.3,-0.3l-0.3,-0.2l-0.2,-0.1l-0.3,-0.2L982.7,44l-0.3,-0.2l-0.2,-0.3l-0.1,-0.3l-0.4,-0.1l-0.1,-0.3l-0.2,-0.3l-0.1,-0.3l-0.2,-0.3l0,-0.3L981,41.3l0,-0.4l-0.2,-0.3l0,-0.3l0,-0.3l0,-0.3l0,-24.4Z" class="g1_4" />
<path d="M980.8,15.3l0,-0.3l0,-0.3l0,-0.3L981,14.1l0,-0.3l0.1,-0.4l0,-0.3l0.2,-0.3l0.1,-0.3l0.2,-0.3l0.1,-0.3l0.4,-0.1l0.1,-0.3l0.2,-0.3L982.7,11l0.1,-0.3l0.3,-0.2l0.2,-0.1l0.3,-0.2l0.3,-0.3l0.3,-0.1l0.3,-0.2l0.2,0L985,9.5l0.4,0l0.3,-0.2l0.3,0l0.3,-0.1l0.3,0l0.3,0l189.5,0l0.3,0l0.3,0l0.3,0.1l0.3,0l0.3,0.2l0.3,0l0.3,0.1l0.3,0l0.3,0.3l0.3,0l0.2,0.3l0.3,0.2l0.3,0.1l0.2,0.3l0.3,0.2l0.1,0.2l0.3,0.3l0.2,0.3l0.1,0.3l0.2,0.1l0.1,0.3l0.2,0.3l0.1,0.3l0,0.3l0.2,0.4l0.1,0.3l0,0.3l0,0.3l0,0.3l0,0.3l0.2,24.4l0,0.3l-0.2,0.3l0,0.3l0,0.3l-0.1,0.4l0,0.3l-0.2,0.3l-0.1,0.3l-0.2,0.3l-0.1,0.3l-0.2,0.1l-0.1,0.3l-0.2,0.3l-0.3,0.3l-0.1,0.2l-0.3,0.2l-0.2,0.3l-0.3,0.1l-0.3,0.2l-0.2,0.1l-0.3,0.2l-0.3,0.1l-0.3,0.2l-0.3,0.1l-0.3,0l-0.3,0.2l-0.3,0l-0.3,0l-0.3,0.1l-0.3,0l-189.5,0l-0.3,0l-0.3,0L986,45.7l-0.3,0l-0.3,-0.2l-0.4,0l-0.3,-0.1l-0.2,0l-0.3,-0.2l-0.3,-0.1l-0.3,-0.3l-0.3,-0.2l-0.2,-0.1l-0.3,-0.2L982.7,44l-0.3,-0.2l-0.2,-0.3l-0.1,-0.3l-0.4,-0.1l-0.1,-0.3l-0.2,-0.3l-0.1,-0.3l-0.2,-0.3l0,-0.3L981,41.3l0,-0.4l-0.2,-0.3l0,-0.3l0,-0.3l0,-0.3l0,-24.4Z" class="g3_4" />
</svg>