<?xml version="1.0" encoding="UTF-8" standalone="no"?>
<!DOCTYPE svg PUBLIC "-//W3C//DTD SVG 1.1//EN"
"http://www.w3.org/Graphics/SVG/1.1/DTD/svg11.dtd">
<svg viewBox="0 0 1210 1045" version="1.1" xmlns="http://www.w3.org/2000/svg" xmlns:xlink="http://www.w3.org/1999/xlink">
<defs>
<style type="text/css"><![CDATA[
.g3_13{
fill: none;
stroke: #418AB3;
stroke-width: 1;
stroke-linecap: butt;
stroke-linejoin: miter;
}
.g4_13{
fill: none;
stroke: #838383;
stroke-width: 1;
stroke-linecap: butt;
stroke-linejoin: miter;
stroke-miterlimit: 7;
}
.g7_13{
fill: #418AB3;
fill-opacity: 0.02;
}
.g2_13{
fill: none;
stroke: #418AB3;
stroke-width: 2;
stroke-linecap: butt;
stroke-linejoin: miter;
stroke-miterlimit: 7;
}
.g6_13{
fill: none;
stroke: #838383;
stroke-width: 2;
stroke-linecap: butt;
stroke-linejoin: miter;
stroke-miterlimit: 7;
}
.g5_13{
fill: #418AB3;
}
.g1_13{
fill: #FFFFFF;
}
]]></style>
</defs>
<path fill-rule="evenodd" d="M0,0L1210,0l0,1045L0,1045L0,0Z" class="g1_13" />
<path fill-rule="evenodd" d="M0,0L1210,0l0,1045L0,1045L0,0Z" class="g1_13" />
<image x="828" y="984" width="334" height="49" xlink:href="img/1.png" />
<path fill-rule="evenodd" d="M334.1,528.3l0,-0.1l0,-0.4l0,-0.3l0,-0.3l0.2,-0.3l0,-0.3l0.1,-0.1l0.2,-0.3l0,-0.2l0.1,-0.3l0.2,-0.1l0.1,-0.4l0.2,-0.3l0.1,-0.1l0.4,-0.2l0.1,-0.3l0.2,-0.1l0.3,-0.2l0.3,-0.1l0.1,-0.2l0.3,-0.1l0.2,0l0.3,-0.2l0.1,-0.1l0.3,0l0.3,0l0.4,-0.2l0.3,0l0.3,0l0.1,0l488.8,0l0.1,0l0.3,0l0.3,0l0.3,0.2l0.2,0l0.3,0l0.3,0.1l0.1,0.2l0.3,0.1l0.4,0.2l0.1,0l0.3,0.1l0.2,0.3l0.3,0.2l0.1,0.1l0.2,0.2l0.1,0.3l0.2,0.1l0.1,0.4l0.2,0.1l0.1,0.3l0.2,0.2l0.1,0.3l0,0.1l0.2,0.3l0,0.3l0.2,0.3l0,0.3l0,0.4l0,0.1l0,21.4l0,0.1l0,0.4l0,0.3l0,0.3l-0.2,0.3l0,0.1l-0.2,0.3l-0.1,0.3l-0.2,0.2l0,0.3l-0.1,0.1l-0.2,0.3l-0.3,0.2l-0.1,0.3l-0.2,0.2l-0.1,0.1l-0.3,0.2l-0.2,0.3l-0.1,0.1l-0.3,0l-0.4,0.2l-0.1,0.1l-0.3,0.2l-0.3,0l-0.2,0.1l-0.3,0l-0.3,0.2l-0.3,0l-0.3,0l-0.1,0L339.3,555l-0.1,0l-0.3,-0.1l-0.3,0l-0.4,0l-0.3,-0.2l-0.3,0l-0.1,-0.1l-0.3,-0.2l-0.2,0l-0.3,-0.1l-0.1,-0.2L336.3,554L336,553.8l-0.2,-0.1l-0.1,-0.3l-0.4,-0.2l-0.1,-0.1L335,552.7l-0.1,-0.1l-0.2,-0.3l-0.1,-0.2l0,-0.3l-0.2,-0.3l-0.1,-0.1l0,-0.3l-0.2,-0.3l0,-0.3l0,-0.3l0,-0.4l0,-0.1l0,-21.4Z" class="g1_13" />
<path d="M334.1,528.3l0,-0.1l0,-0.4l0,-0.3l0,-0.3l0.2,-0.3l0,-0.3l0.1,-0.1l0.2,-0.3l0,-0.2l0.1,-0.3l0.2,-0.1l0.1,-0.4l0.2,-0.3l0.1,-0.1l0.4,-0.2l0.1,-0.3l0.2,-0.1l0.3,-0.2l0.3,-0.1l0.1,-0.2l0.3,-0.1l0.2,0l0.3,-0.2l0.1,-0.1l0.3,0l0.3,0l0.4,-0.2l0.3,0l0.3,0l0.1,0l488.8,0l0.1,0l0.3,0l0.3,0l0.3,0.2l0.2,0l0.3,0l0.3,0.1l0.1,0.2l0.3,0.1l0.4,0.2l0.1,0l0.3,0.1l0.2,0.3l0.3,0.2l0.1,0.1l0.2,0.2l0.1,0.3l0.2,0.1l0.1,0.4l0.2,0.1l0.1,0.3l0.2,0.2l0.1,0.3l0,0.1l0.2,0.3l0,0.3l0.2,0.3l0,0.3l0,0.4l0,0.1l0,21.4l0,0.1l0,0.4l0,0.3l0,0.3l-0.2,0.3l0,0.1l-0.2,0.3l-0.1,0.3l-0.2,0.2l0,0.3l-0.1,0.1l-0.2,0.3l-0.3,0.2l-0.1,0.3l-0.2,0.2l-0.1,0.1l-0.3,0.2l-0.2,0.3l-0.1,0.1l-0.3,0l-0.4,0.2l-0.1,0.1l-0.3,0.2l-0.3,0l-0.2,0.1l-0.3,0l-0.3,0.2l-0.3,0l-0.3,0l-0.1,0L339.3,555l-0.1,0l-0.3,-0.1l-0.3,0l-0.4,0l-0.3,-0.2l-0.3,0l-0.1,-0.1l-0.3,-0.2l-0.2,0l-0.3,-0.1l-0.1,-0.2L336.3,554L336,553.8l-0.2,-0.1l-0.1,-0.3l-0.4,-0.2l-0.1,-0.1L335,552.7l-0.1,-0.1l-0.2,-0.3l-0.1,-0.2l0,-0.3l-0.2,-0.3l-0.1,-0.1l0,-0.3l-0.2,-0.3l0,-0.3l0,-0.3l0,-0.4l0,-0.1l0,-21.4Z" class="g2_13" />
<image x="165" y="76" width="935" height="400" xlink:href="img/2.png" />
<image x="856" y="90" width="145" height="50" xlink:href="shade/1.png" />
<path d="M856.5,138.5l143,0l0,-48l-143,0l0,48Z" class="g3_13" />
<path d="M856.5,90.5l143,0l0,48l-143,0l0,-48Z" class="g4_13" />
<path d="M928.1,138.7L745.7,251.2" class="g3_13" />
<path fill-rule="evenodd" d="M738.5,255.6l5.4,-8.6l4.7,7.7l-10.1,0.9Z" class="g5_13" />
<path fill-rule="evenodd" d="M110,362.8l98.5,0l42.4,0l28.2,0l0,32.1l0,13.8l0,9.1l-28.2,0l-4,109.6L208.5,417.8l-98.5,0l0,-9.1l0,-13.8l0,-32.1Z" class="g1_13" />
<path d="M110,362.8l98.5,0l42.4,0l28.2,0l0,32.1l0,13.8l0,9.1l-28.2,0l-4,109.6L208.5,417.8l-98.5,0l0,-9.1l0,-13.8l0,-32.1Z" class="g6_13" />
<path fill-rule="evenodd" d="M873.4,429.3l28,0l42.2,0l98.3,0l0,36.1l0,15.4l0,10.4l-98.3,0L831.1,534.9l70.3,-43.7l-28,0l0,-10.4l0,-15.4l0,-36.1Z" class="g1_13" />
<path d="M873.4,429.3l28,0l42.2,0l98.3,0l0,36.1l0,15.4l0,10.4l-98.3,0L831.1,534.9l70.3,-43.7l-28,0l0,-10.4l0,-15.4l0,-36.1Z" class="g6_13" />
<path fill-rule="evenodd" d="M367.3,297.9l0.3,-5.9l0.9,-6.2l1.5,-5.9l2.2,-5.8l2.7,-6l3.4,-5.6l3.9,-5.7l4.5,-5.5l5,-5.5l5.7,-5.2l6.1,-5.2l6.7,-4.9l7,-4.7l7.8,-4.6l8.1,-4.4l8.4,-4.1l9,-3.9l9.4,-3.6l9.6,-3.4l10.1,-3.2L490,195.7l10.5,-2.4L511.3,191l11.2,-2.2l11.3,-1.6l11.5,-1.4l11.4,-1.1l11.8,-0.8l11.6,-0.4l11.8,-0.2l11.7,0.2l11.8,0.4l11.6,0.8l11.6,1.1l11.5,1.4l11.3,1.6l11,2.2l11,2.3l10.5,2.4l10.3,2.9l10,3.2l9.8,3.4l9.3,3.6l8.9,3.9l8.5,4.1l8.1,4.4l7.7,4.5l7.2,4.8l6.5,4.9l6.3,5.1l5.7,5.3l5,5.4l4.4,5.6l4,5.7l3.4,5.6l2.7,5.8l2.1,6l1.6,5.9l0.9,6l0.3,6l-0.3,6.1l-0.9,5.9l-1.6,6l-2.1,5.8l-2.7,6l-3.4,5.6l-4,5.7l-4.6,5.5l-4.8,5.5l-5.7,5.2l-6.3,5.1l-6.5,4.9l-7.2,4.8l-7.7,4.6l-8.1,4.4l-8.5,4.1l-8.9,3.8l-9.4,3.7l-9.7,3.4l-10,3.2L693.9,400l-10.7,2.6l-10.8,2.3l-11,1.9l-11.3,1.7l-11.5,1.4L627,411l-11.6,0.7l-11.8,0.5l-11.7,0.1l-11.8,-0.1l-11.8,-0.5L556.7,411l-11.6,-1.1l-11.4,-1.4l-11.2,-1.7l-11.2,-1.9l-10.8,-2.3L490,400l-10.4,-2.9l-10.1,-3.2l-9.6,-3.4l-9.4,-3.7l-9,-3.8L433,378.9l-8.1,-4.4l-7.7,-4.6l-7.1,-4.8l-6.6,-4.9l-6.1,-5.1l-5.7,-5.2l-5,-5.5l-4.6,-5.5l-4,-5.7l-3.2,-5.6l-2.7,-6L370,315.8l-1.7,-6l-0.9,-5.9l-0.3,-6.1l0.2,0.1Z" class="g7_13" />
<path d="M367.3,297.9l0.3,-5.9l0.9,-6.2l1.5,-5.9l2.2,-5.8l2.7,-6l3.4,-5.6l3.9,-5.7l4.5,-5.5l5,-5.5l5.7,-5.2l6.1,-5.2l6.7,-4.9l7,-4.7l7.8,-4.6l8.1,-4.4l8.4,-4.1l9,-3.9l9.4,-3.6l9.6,-3.4l10.1,-3.2L490,195.7l10.5,-2.4L511.3,191l11.2,-2.2l11.3,-1.6l11.5,-1.4l11.4,-1.1l11.8,-0.8l11.6,-0.4l11.8,-0.2l11.7,0.2l11.8,0.4l11.6,0.8l11.6,1.1l11.5,1.4l11.3,1.6l11,2.2l11,2.3l10.5,2.4l10.3,2.9l10,3.2l9.8,3.4l9.3,3.6l8.9,3.9l8.5,4.1l8.1,4.4l7.7,4.5l7.2,4.8l6.5,4.9l6.3,5.1l5.7,5.3l5,5.4l4.4,5.6l4,5.7l3.4,5.6l2.7,5.8l2.1,6l1.6,5.9l0.9,6l0.3,6l-0.3,6.1l-0.9,5.9l-1.6,6l-2.1,5.8l-2.7,6l-3.4,5.6l-4,5.7l-4.6,5.5l-4.8,5.5l-5.7,5.2l-6.3,5.1l-6.5,4.9l-7.2,4.8l-7.7,4.6l-8.1,4.4l-8.5,4.1l-8.9,3.8l-9.4,3.7l-9.7,3.4l-10,3.2L693.9,400l-10.7,2.6l-10.8,2.3l-11,1.9l-11.3,1.7l-11.5,1.4L627,411l-11.6,0.7l-11.8,0.5l-11.7,0.1l-11.8,-0.1l-11.8,-0.5L556.7,411l-11.6,-1.1l-11.4,-1.4l-11.2,-1.7l-11.2,-1.9l-10.8,-2.3L490,400l-10.4,-2.9l-10.1,-3.2l-9.6,-3.4l-9.4,-3.7l-9,-3.8L433,378.9l-8.1,-4.4l-7.7,-4.6l-7.1,-4.8l-6.6,-4.9l-6.1,-5.1l-5.7,-5.2l-5,-5.5l-4.6,-5.5l-4,-5.7l-3.2,-5.6l-2.7,-6L370,315.8l-1.7,-6l-0.9,-5.9l-0.3,-6.1l0.2,0.1Z" class="g2_13" />
<path fill-rule="evenodd" d="M848.4,9.2l29.3,0l44.2,0l103.1,0l0,33.3l0,14.3l0,9.7l-103.1,0L710.6,152.9L877.7,66.5l-29.3,0l0,-9.7l0,-14.3l0,-33.3Z" class="g1_13" />
<path d="M848.4,9.2l29.3,0l44.2,0l103.1,0l0,33.3l0,14.3l0,9.7l-103.1,0L710.6,152.9L877.7,66.5l-29.3,0l0,-9.7l0,-14.3l0,-33.3Z" class="g6_13" />
</svg>