<?xml version="1.0" encoding="UTF-8" standalone="no"?>
<!DOCTYPE svg PUBLIC "-//W3C//DTD SVG 1.1//EN"
"http://www.w3.org/Graphics/SVG/1.1/DTD/svg11.dtd">
<svg viewBox="0 0 1210 1045" version="1.1" xmlns="http://www.w3.org/2000/svg" xmlns:xlink="http://www.w3.org/1999/xlink">
<defs>
<clipPath id="c0_9"><path d="M220,162.9l-0.3,-0.2l-0.3,0l-0.3,-0.1l-0.2,-0.2l-0.3,0l-0.4,-0.5l-0.5,-0.3L217.2,161l-0.3,-0.6l-0.4,-0.6l-0.3,-0.9l-0.3,-0.8l-0.3,-0.7l-0.2,-1l-0.3,-1L215,154.3l0,-0.9l0,-1.1l0,-42l0,-1.1l0,-1l0.1,-1.3l0.3,-0.7l0.2,-0.9l0.3,-1l0.3,-0.7l0.3,-0.8l0.4,-0.6l0.3,-0.6l0.5,-0.8l0.5,-0.3l0.4,-0.3l0.3,-0.1l0.2,-0.2l0.3,0l0.3,-0.1l138.4,0l0.3,0.1l0.3,0l0.3,0.2l0.2,0.1l0.4,0.3l0.5,0.3l0.5,0.8l0.4,0.6l0.3,0.6l0.5,0.8l0.3,0.7l0.1,1l0.3,0.9l0.2,0.7l0.1,1.3l0,1l0,1.1l0,42l0,1.1l0,0.9l-0.1,1.1l-0.2,1l-0.3,1l-0.1,0.7l-0.3,0.8l-0.5,0.9l-0.3,0.6l-0.4,0.6l-0.5,0.6l-0.5,0.3l-0.4,0.5l-0.2,0l-0.3,0.2l-0.3,0.1l-0.3,0l-0.1,0.2Z" /></clipPath>
<clipPath id="c1_9"><path d="M248,324.5l-0.8,-0.2l-0.8,-0.1l-0.7,-0.3l-0.6,-0.3L244.4,323l-0.7,-0.6l-0.6,-0.6l-0.6,-1L242,320.2l-0.5,-0.9l-0.1,-1.1l-0.5,-0.9l-0.3,-1L240.5,315l-0.2,-1l0,-1.3l0,-46.9l0,-1l0.2,-1.3l0.1,-1l0.3,-1.2l0.5,-1l0.1,-0.9l0.5,-0.9l0.5,-0.8l0.6,-0.7l0.6,-0.8l0.7,-0.4l0.7,-0.7l0.6,-0.3l0.7,-0.3l0.8,-0.1l0.8,-0.2l112.7,0l0.8,0.2l0.7,0.1l0.8,0.3l0.8,0.3l0.6,0.7l0.7,0.4l0.5,0.8l0.6,0.7l0.5,0.8l0.4,0.9l0.5,0.9l0.3,1l0.3,1.2l0.1,1l0,1.3l0.2,1l0,46.9l-0.2,1.3l0,1l-0.1,1.3l-0.3,1l-0.3,0.9l-0.5,1.1l-0.4,0.9l-0.5,0.6l-0.6,1l-0.5,0.6l-0.7,0.6l-0.6,0.6l-0.8,0.3l-0.8,0.3l-0.7,0.1l-0.8,0.2Z" /></clipPath>
<clipPath id="c2_9"><path d="M90.3,300.1l-0.6,-0.2l-0.6,0l-0.5,-0.5l-0.8,-0.1L87.4,299l-0.3,-0.5l-0.6,-0.6L86,297.3l-0.4,-0.6l-0.4,-0.8l-0.3,-0.6l-0.1,-0.9l-0.3,-0.8l-0.2,-0.9l0,-0.9l-0.1,-0.9l0,-36.4l0.1,-0.9l0,-0.9l0.2,-0.8L84.8,251l0.1,-0.8l0.3,-0.7l0.4,-0.8L86,248.1l0.5,-0.6L87.1,247l0.3,-0.4L87.8,246l0.8,-0.2l0.5,-0.1l0.6,-0.2l103.9,0l0.6,0.2l0.6,0.1l0.5,0.2l0.6,0.6l0.4,0.4l0.5,0.5l0.4,0.6l0.5,0.6l0.3,0.8l0.3,0.7l0.3,0.8l0.2,0.9l0.1,0.8l0,0.9l0.2,0.9l0,36.4l-0.2,0.9l0,0.9l-0.1,0.9l-0.2,0.8l-0.3,0.9l-0.3,0.6l-0.3,0.8l-0.5,0.6l-0.4,0.6l-0.5,0.6l-0.4,0.5l-0.6,0.3l-0.5,0.1l-0.6,0.5l-0.6,0l-0.6,0.2Z" /></clipPath>
<clipPath id="c3_9"><path d="M69.1,166.5l-0.3,-0.1l0,-0.2l-0.5,0L68,165.9l-0.5,-0.3L67.2,165l-0.7,-0.6l-0.3,-0.9l-0.5,-0.8l-0.3,-0.8l-0.3,-1l-0.3,-1.1l-0.3,-1.1l-0.3,-2.4l0,-2.6l0,-51.5l0,-2.6l0.3,-2.3l0.3,-1L65.1,95l0.3,-0.9l0.3,-0.9l0.5,-0.8l0.3,-0.7l0.7,-0.6l0.3,-0.7L68,90l0.3,-0.2l0.5,-0.1l0,-0.2l113,0l0.3,0.2l0.3,0.1l0.2,0.2l0.7,0.4l0.3,0.7l0.5,0.6l0.5,0.7l0.4,0.8l0.3,0.9l0.3,0.9l0.3,1.3l0.5,1l0.1,2.3l0.2,2.6l0,51.5l-0.2,2.6l-0.1,2.4l-0.5,1.1l-0.3,1.1l-0.3,1l-0.3,0.8l-0.4,0.8l-0.5,0.9l-0.5,0.6l-0.3,0.6l-0.7,0.3l-0.2,0.3l-0.3,0l-0.3,0.2l-0.3,0.1Z" /></clipPath>
<clipPath id="c4_9"><path d="M383,231.2l-0.6,-0.5l-0.5,0l-0.4,-0.3L381,229.9l-0.3,-0.3l-0.3,-0.4L380,228.6l-0.3,-0.5l-0.2,-0.6l-0.3,-0.6L379,226.1l-0.1,-0.6l0,-0.9l0,-0.5l0,-28.5l0,-0.7l0,-0.9l0.1,-0.4l0.2,-0.8l0.3,-0.5l0.2,-0.6L380,191l0.4,-0.3l0.3,-0.5l0.3,-0.4l0.5,-0.4l0.4,-0.3l0.5,-0.3l0.6,-0.1l0.5,-0.2l98.5,0l0.5,0.2l0.6,0.1l0.4,0.3l0.5,0.3l0.5,0.4l0.3,0.4l0.4,0.5l0.3,0.3l0.3,0.7l0.3,0.6l0.2,0.5l0.1,0.8l0.2,0.4l0.2,0.9l0,0.7l0,28.5l0,0.5l-0.2,0.9l-0.2,0.6l-0.1,0.8l-0.2,0.6l-0.3,0.6l-0.3,0.5l-0.3,0.6l-0.4,0.4l-0.3,0.3l-0.5,0.5l-0.5,0.3l-0.4,0l-0.6,0.5Z" /></clipPath>
<clipPath id="c5_9"><path d="M0.5,1045.5L0.5,0.5l1210,0l0,1045Z" /></clipPath>
<style type="text/css"><![CDATA[
.g5_9{
fill: none;
stroke: #346E8F;
stroke-width: 2;
stroke-linecap: butt;
stroke-linejoin: miter;
stroke-miterlimit: 7;
}
.g9_9{
fill: #D8E8F1;
fill-opacity: 0.9;
}
.g8_9{
fill: none;
stroke: #418AB3;
stroke-width: 1;
stroke-linecap: butt;
stroke-linejoin: miter;
stroke-miterlimit: 7;
}
.g11_9{
fill: none;
stroke: #418AB3;
stroke-width: 2;
stroke-linecap: butt;
stroke-linejoin: miter;
stroke-miterlimit: 7;
}
.g2_9{
fill: none;
stroke: #838383;
stroke-width: 1;
stroke-linecap: butt;
stroke-linejoin: miter;
stroke-miterlimit: 7;
}
.g3_9{
fill: none;
stroke: #316786;
stroke-width: 1;
stroke-linecap: butt;
stroke-linejoin: miter;
stroke-miterlimit: 7;
}
.g4_9{
fill: none;
stroke: #316786;
stroke-width: 1;
stroke-linecap: butt;
stroke-linejoin: miter;
}
.g7_9{
fill: #D8E8F1;
}
.g6_9{
fill: none;
stroke: #346E8F;
stroke-width: 1;
stroke-linecap: butt;
stroke-linejoin: miter;
}
.g10_9{
fill: none;
stroke: #9E9E9E;
stroke-width: 3;
stroke-linecap: butt;
stroke-linejoin: miter;
stroke-miterlimit: 7;
stroke-opacity: 0.9;
}
.g1_9{
fill: #FFFFFF;
}
]]></style>
</defs>
<path fill-rule="evenodd" d="M0,0L1210,0l0,1045L0,1045L0,0Z" class="g1_9" />
<path fill-rule="evenodd" d="M0,0L1210,0l0,1045L0,1045L0,0Z" class="g1_9" />
<image x="828" y="984" width="334" height="49" xlink:href="img/1.png" />
<image x="212" y="187" width="138" height="46" xlink:href="shade/1.png" />
<path d="M212.7,194.9c0,-3.9,2.3,-7.1,5.3,-7.1l126.2,0c3.1,0,5.5,3.2,5.5,7.1l0,29.5c0,4,-2.4,7.4,-5.5,7.4l-126.2,0c-3,0,-5.3,-3.4,-5.3,-7.4l0,-29.5Z" class="g2_9" />
<path d="M288.4,187.8l0.5,-31.2" class="g3_9" />
<image x="214" y="99" width="150" height="65" xlink:href="shade/2.png" />
<g clip-path="url(#c0_9)">
<path d="M214.5,162.5l149,0l0,-63l-149,0l0,63Z" class="g4_9" />
</g>
<path d="M215,110.2c0,-5.9,2.4,-10.4,5.3,-10.4l137.4,0c2.9,0,5.3,4.5,5.3,10.4l0,42c0,5.8,-2.4,10.5,-5.3,10.5l-137.4,0c-2.9,0,-5.3,-4.7,-5.3,-10.5l0,-42Z" class="g3_9" />
<path d="M288.8,231.8l0.4,27.3" class="g3_9" />
<image x="240" y="254" width="129" height="71" xlink:href="shade/3.png" />
<g clip-path="url(#c1_9)">
<path d="M240.5,324.5l128,0l0,-70l-128,0l0,70Z" class="g4_9" />
</g>
<path d="M240.3,265.8c0,-6.4,3.5,-11.6,7.8,-11.6l112.8,0c4.1,0,7.6,5.2,7.6,11.6l0,46.8c0,6.6,-3.5,11.7,-7.6,11.7l-112.8,0c-4.3,0,-7.8,-5.1,-7.8,-11.7l0,-46.8Z" class="g3_9" />
<path d="M238.6,231.8l-58.5,25.9" class="g3_9" />
<image x="84" y="245" width="116" height="56" xlink:href="shade/4.png" />
<g clip-path="url(#c2_9)">
<path d="M84.5,300.5l115,0l0,-55l-115,0l0,55Z" class="g4_9" />
</g>
<path d="M84.3,254.5c0,-5,2.6,-9.1,6,-9.1l102.8,0c3.2,0,6,4.1,6,9.1l0,36.4c0,5,-2.8,9,-6,9l-102.8,0c-3.4,0,-6,-4,-6,-9l0,-36.4Z" class="g3_9" />
<path d="M248.6,196.8L180.4,165.9" class="g5_9" />
<image x="64" y="89" width="125" height="78" xlink:href="shade/5.png" />
<g clip-path="url(#c3_9)">
<path d="M64.5,166.5l122,0l0,-77l-122,0l0,77Z" class="g6_9" />
</g>
<path d="M64.2,102.2c0,-7.2,2.4,-12.8,5.6,-12.8l111.2,0c3.1,0,5.7,5.6,5.7,12.8l0,51.3c0,7.2,-2.6,13,-5.7,13l-111.2,0c-3.2,0,-5.6,-5.8,-5.6,-13l0,-51.3Z" class="g3_9" />
<path fill-rule="evenodd" d="M402.1,109.4c0,-5.4,2.8,-9.6,6.1,-9.6l118.4,0c3.4,0,6.1,4.2,6.1,9.6l0,38.8c0,5.3,-2.7,9.8,-6.1,9.8l-118.4,0c-3.3,0,-6.1,-4.5,-6.1,-9.8l0,-38.8Z" class="g7_9" />
<path d="M402.1,109.4c0,-5.4,2.8,-9.6,6.1,-9.6l118.4,0c3.4,0,6.1,4.2,6.1,9.6l0,38.8c0,5.3,-2.7,9.8,-6.1,9.8l-118.4,0c-3.3,0,-6.1,-4.5,-6.1,-9.8l0,-38.8Z" class="g3_9" />
<path fill-rule="evenodd" d="M409.8,263.5c0,-3.9,2.5,-7.1,5.8,-7.1l105.8,0c3.2,0,5.8,3.2,5.8,7.1l0,29.1c0,4.1,-2.6,7.3,-5.8,7.3l-105.8,0c-3.3,0,-5.8,-3.2,-5.8,-7.3l0,-29.1Z" class="g7_9" />
<path d="M409.8,263.5c0,-3.9,2.5,-7.1,5.8,-7.1l105.8,0c3.2,0,5.8,3.2,5.8,7.1l0,29.1c0,4.1,-2.6,7.3,-5.8,7.3l-105.8,0c-3.3,0,-5.8,-3.2,-5.8,-7.3l0,-29.1Z" class="g3_9" />
<image x="378" y="188" width="110" height="44" xlink:href="shade/6.png" />
<g clip-path="url(#c4_9)">
<path d="M378.5,231.5l108,0l0,-43l-108,0l0,43Z" class="g4_9" />
</g>
<path d="M378.9,195.6c0,-4,2.3,-7.1,5.2,-7.1l97.5,0c2.9,0,5.2,3.1,5.2,7.1l0,28.4c0,3.9,-2.3,7.2,-5.2,7.2l-97.5,0c-2.9,0,-5.2,-3.3,-5.2,-7.2l0,-28.4Z" class="g3_9" />
<path d="M452.5,158.5l0,29" class="g8_9" />
<path d="M453.5,228.5l0,29" class="g8_9" />
<path d="M378.5,209.5l-29,0" class="g8_9" />
<path fill-rule="evenodd" d="M1140.9,25.7l0,34.5c0,4.7,-2.9,8.7,-6.4,8.7l-406.8,0l0,-51.9l406.8,0c3.5,0,6.4,3.8,6.4,8.7Z" class="g9_9" />
<path d="M1140.9,25.7l0,34.5c0,4.7,-2.9,8.7,-6.4,8.7l-406.8,0l0,-51.9l406.8,0c3.5,0,6.4,3.8,6.4,8.7Z" class="g10_9" />
<image x="555" y="20" width="157" height="54" xlink:href="shade/7.png" />
<path d="M555.7,29.3c0,-4.9,3.5,-8.7,7.7,-8.7l139.8,0c4.5,0,7.8,3.8,7.8,8.7l0,34.9c0,4.7,-3.3,8.7,-7.8,8.7l-139.8,0c-4.2,0,-7.7,-4,-7.7,-8.7l0,-34.9Z" class="g3_9" />
<path fill-rule="evenodd" d="M1140.9,88l0,50c0,7,-2.9,12.5,-6.4,12.5l-406.8,0l0,-75l406.8,0c3.5,0,6.4,5.6,6.4,12.5Z" class="g9_9" />
<path d="M1140.9,88l0,50c0,7,-2.9,12.5,-6.4,12.5l-406.8,0l0,-75l406.8,0c3.5,0,6.4,5.6,6.4,12.5Z" class="g10_9" />
<image x="555" y="88" width="157" height="53" xlink:href="shade/8.png" />
<path d="M555.7,97c0,-4.9,3.5,-8.7,7.7,-8.7l139.8,0c4.5,0,7.8,3.8,7.8,8.7l0,34.8c0,4.9,-3.3,8.8,-7.8,8.8l-139.8,0c-4.2,0,-7.7,-3.9,-7.7,-8.8l0,-34.8Z" class="g3_9" />
<path fill-rule="evenodd" d="M1140.9,166.8l0,38.8c0,5.4,-2.9,9.8,-6.4,9.8l-406.8,0l0,-58.3l406.8,0c3.5,0,6.4,4.4,6.4,9.7Z" class="g9_9" />
<path d="M1140.9,166.8l0,38.8c0,5.4,-2.9,9.8,-6.4,9.8l-406.8,0l0,-58.3l406.8,0c3.5,0,6.4,4.4,6.4,9.7Z" class="g10_9" />
<image x="555" y="156" width="157" height="54" xlink:href="shade/9.png" />
<path d="M555.7,165.6c0,-4.9,3.5,-8.7,7.7,-8.7l139.8,0c4.5,0,7.8,3.8,7.8,8.7l0,34.8c0,4.8,-3.3,8.8,-7.8,8.8l-139.8,0c-4.2,0,-7.7,-4,-7.7,-8.8l0,-34.8Z" class="g3_9" />
<path fill-rule="evenodd" d="M1140.9,230.2l0,41.6c0,5.6,-2.9,10.4,-6.4,10.4l-406.8,0l0,-62.2l406.8,0c3.5,0,6.4,4.6,6.4,10.2Z" class="g9_9" />
<path d="M1140.9,230.2l0,41.6c0,5.6,-2.9,10.4,-6.4,10.4l-406.8,0l0,-62.2l406.8,0c3.5,0,6.4,4.6,6.4,10.2Z" class="g10_9" />
<image x="555" y="223" width="157" height="54" xlink:href="shade/10.png" />
<path d="M555.7,232.4c0,-4.9,3.5,-8.7,7.7,-8.7l139.8,0c4.5,0,7.8,3.8,7.8,8.7l0,34.7c0,4.8,-3.3,8.8,-7.8,8.8l-139.8,0c-4.2,0,-7.7,-4,-7.7,-8.8l0,-34.7Z" class="g3_9" />
<path fill-rule="evenodd" d="M1140.9,297l0,41.6c0,5.6,-2.9,10.2,-6.4,10.2l-406.8,0l0,-62.2l406.8,0c3.5,0,6.4,4.7,6.4,10.4Z" class="g9_9" />
<path d="M1140.9,297l0,41.6c0,5.6,-2.9,10.2,-6.4,10.2l-406.8,0l0,-62.2l406.8,0c3.5,0,6.4,4.7,6.4,10.4Z" class="g10_9" />
<image x="555" y="290" width="157" height="53" xlink:href="shade/11.png" />
<path d="M555.7,299c0,-4.7,3.5,-8.7,7.7,-8.7l139.8,0c4.5,0,7.8,4,7.8,8.7l0,34.8c0,4.9,-3.3,8.7,-7.8,8.7l-139.8,0c-4.2,0,-7.7,-3.8,-7.7,-8.7l0,-34.8Z" class="g3_9" />
<path fill-rule="evenodd" d="M1140.9,363.8l0,41.4c0,5.8,-2.9,10.4,-6.4,10.4l-406.8,0l0,-62.2l406.8,0c3.5,0,6.4,4.6,6.4,10.4Z" class="g9_9" />
<path d="M1140.9,363.8l0,41.4c0,5.8,-2.9,10.4,-6.4,10.4l-406.8,0l0,-62.2l406.8,0c3.5,0,6.4,4.6,6.4,10.4Z" class="g10_9" />
<image x="555" y="358" width="157" height="53" xlink:href="shade/12.png" />
<path d="M555.7,367.6c0,-4.8,3.5,-8.7,7.7,-8.7l139.8,0c4.5,0,7.8,3.9,7.8,8.7l0,34.8c0,4.9,-3.3,8.7,-7.8,8.7l-139.8,0c-4.2,0,-7.7,-3.8,-7.7,-8.7l0,-34.8Z" class="g3_9" />
<path fill-rule="evenodd" d="M1140.9,433.4l0,53.5c0,7.3,-2.9,13.4,-6.4,13.4l-406.8,0l0,-80.2l406.8,0c3.5,0,6.4,6,6.4,13.3Z" class="g9_9" />
<path d="M1140.9,433.4l0,53.5c0,7.3,-2.9,13.4,-6.4,13.4l-406.8,0l0,-80.2l406.8,0c3.5,0,6.4,6,6.4,13.3Z" class="g10_9" />
<image x="555" y="425" width="157" height="54" xlink:href="shade/13.png" />
<path d="M555.7,434.3c0,-4.8,3.5,-8.7,7.7,-8.7l139.8,0c4.5,0,7.8,3.9,7.8,8.7l0,34.9c0,4.9,-3.3,8.7,-7.8,8.7l-139.8,0c-4.2,0,-7.7,-3.8,-7.7,-8.7l0,-34.9Z" class="g3_9" />
<g clip-path="url(#c5_9)">
<path d="M541.9,-1.4l-0.8,493.8" class="g11_9" />
</g>
</svg>