<?xml version="1.0" encoding="UTF-8" standalone="no"?>
<!DOCTYPE svg PUBLIC "-//W3C//DTD SVG 1.1//EN"
"http://www.w3.org/Graphics/SVG/1.1/DTD/svg11.dtd">
<svg viewBox="0 0 1100 825" version="1.1" xmlns="http://www.w3.org/2000/svg" xmlns:xlink="http://www.w3.org/1999/xlink">
<defs>
<clipPath id="c0_21"><path d="M480.5,192.5l0,-140l88,0l0,140Z" /></clipPath>
<style type="text/css"><![CDATA[
.g3_21{
fill: none;
stroke: #CEDAE4;
stroke-width: 1;
stroke-linecap: butt;
stroke-linejoin: miter;
stroke-miterlimit: 7;
stroke-opacity: 0.9;
}
.g6_21{
fill: #DDAEB0;
}
.g4_21{
fill: none;
stroke: #000000;
stroke-width: 2;
stroke-linecap: butt;
stroke-linejoin: round;
}
.g7_21{
fill: #DE9D94;
}
.g16_21{
fill: #F7CF00;
}
.g15_21{
fill: #885695;
}
.g2_21{
fill: #CEDAE4;
fill-opacity: 0.9;
}
.g9_21{
fill: #ECB269;
}
.g13_21{
fill: #C6D828;
}
.g22_21{
fill: #5A2728;
}
.g8_21{
fill: #F2C390;
}
.g14_21{
fill: #995895;
}
.g1_21{
fill: #FFFFFF;
}
.g11_21{
fill: #DFD922;
}
.g20_21{
fill: none;
stroke: #8E672D;
stroke-width: 1;
stroke-linecap: butt;
stroke-linejoin: miter;
}
.g23_21{
fill: none;
stroke: #E3642F;
stroke-width: 1;
stroke-linecap: butt;
stroke-linejoin: miter;
}
.g18_21{
fill: none;
stroke: #60432C;
stroke-width: 1;
stroke-linecap: butt;
stroke-linejoin: miter;
}
.g10_21{
fill: #60432C;
}
.g19_21{
fill: none;
stroke: #131516;
stroke-width: 1;
stroke-linecap: butt;
stroke-linejoin: miter;
}
.g12_21{
fill: #B3C82A;
}
.g21_21{
fill: #F0A764;
}
.g5_21{
fill: #DED9B0;
}
.g17_21{
fill: #E6A4BE;
}
]]></style>
</defs>
<path fill-rule="evenodd" d="M0,0L1100,0l0,825L0,825L0,0Z" class="g1_21" />
<path fill-rule="evenodd" d="M0,0L1100,0l0,825L0,825L0,0Z" class="g1_21" />
<image x="753" y="777" width="303" height="38" xlink:href="img/1.png" />
<path fill-rule="evenodd" d="M413.6,304l0,-1.5l0.1,-1.4l0.2,-1.3l0.3,-1.4l0.3,-1.4l0.4,-1.4l0.5,-1.3l0.5,-1.3l0.6,-1.3l0.7,-1.3l0.6,-1.2l1,-1.1l0.7,-1.2l0.9,-1.1l1.1,-1l0.9,-0.9l1.3,-1l1,-0.9l1.2,-0.7l1.3,-0.8l1,-0.6l1.4,-0.6l1.2,-0.6l1.4,-0.5l1.4,-0.5l1.4,-0.3l1.3,-0.1l1.6,-0.3l1.3,0l1.4,-0.2l273.5,0l1.4,0.2l1.3,0.1l1.6,0.2l1.3,0.1l1.4,0.5l1.2,0.3l1.4,0.5l1.4,0.6l1.2,0.6l1.2,0.6l1.3,0.8L730,282l1,0.9l1.1,1l1.1,0.9l0.9,1l0.9,1.1l0.9,1.2l0.8,1.1l0.8,1.2l0.6,1.3l0.6,1.3l0.6,1.3l0.5,1.3l0.4,1.4l0.3,1.4l0.2,1.4l0.3,1.3l0,1.4l0.1,1.5l0,154.8l0,1.4l-0.1,1.3l-0.2,1.6l-0.3,1.3l-0.3,1.4l-0.4,1.2l-0.5,1.4l-0.5,1.4l-0.6,1.2l-0.7,1.2l-0.8,1.3l-0.8,1.2l-0.9,1l-0.9,1.1l-0.9,1.1l-1.1,0.9l-1.1,0.9l-1,0.9l-1.2,0.8l-1.3,0.8l-1.2,0.6l-1.2,0.6l-1.4,0.6l-1.4,0.5l-1.2,0.4l-1.4,0.3l-1.3,0.2l-1.6,0.3l-1.3,0l-1.4,0.1l-273.5,0l-1.4,0l-1.3,-0.1l-1.6,-0.2L435,485.2l-1.4,-0.3l-1.4,-0.4L430.8,484l-1.2,-0.5l-1.4,-0.6l-1,-0.7l-1.3,-0.8l-1.2,-0.8l-1,-0.7l-1.3,-1.1l-0.9,-0.9l-1.1,-1.1l-0.9,-1.1l-0.7,-1l-1,-1.2l-0.6,-1.3L416.5,471l-0.6,-1.2l-0.5,-1.4L414.9,467l-0.4,-1.2l-0.3,-1.4l-0.3,-1.3l-0.2,-1.6l-0.1,-1.3l0,-1.4l0,-154.8Z" class="g2_21" />
<path d="M413.6,304l0,-1.5l0.1,-1.4l0.2,-1.3l0.3,-1.4l0.3,-1.4l0.4,-1.4l0.5,-1.3l0.5,-1.3l0.6,-1.3l0.7,-1.3l0.6,-1.2l1,-1.1l0.7,-1.2l0.9,-1.1l1.1,-1l0.9,-0.9l1.3,-1l1,-0.9l1.2,-0.7l1.3,-0.8l1,-0.6l1.4,-0.6l1.2,-0.6l1.4,-0.5l1.4,-0.5l1.4,-0.3l1.3,-0.1l1.6,-0.3l1.3,0l1.4,-0.2l273.5,0l1.4,0.2l1.3,0.1l1.6,0.2l1.3,0.1l1.4,0.5l1.2,0.3l1.4,0.5l1.4,0.6l1.2,0.6l1.2,0.6l1.3,0.8L730,282l1,0.9l1.1,1l1.1,0.9l0.9,1l0.9,1.1l0.9,1.2l0.8,1.1l0.8,1.2l0.6,1.3l0.6,1.3l0.6,1.3l0.5,1.3l0.4,1.4l0.3,1.4l0.2,1.4l0.3,1.3l0,1.4l0.1,1.5l0,154.8l0,1.4l-0.1,1.3l-0.2,1.6l-0.3,1.3l-0.3,1.4l-0.4,1.2l-0.5,1.4l-0.5,1.4l-0.6,1.2l-0.7,1.2l-0.8,1.3l-0.8,1.2l-0.9,1l-0.9,1.1l-0.9,1.1l-1.1,0.9l-1.1,0.9l-1,0.9l-1.2,0.8l-1.3,0.8l-1.2,0.6l-1.2,0.6l-1.4,0.6l-1.4,0.5l-1.2,0.4l-1.4,0.3l-1.3,0.2l-1.6,0.3l-1.3,0l-1.4,0.1l-273.5,0l-1.4,0l-1.3,-0.1l-1.6,-0.2L435,485.2l-1.4,-0.3l-1.4,-0.4L430.8,484l-1.2,-0.5l-1.4,-0.6l-1,-0.7l-1.3,-0.8l-1.2,-0.8l-1,-0.7l-1.3,-1.1l-0.9,-0.9l-1.1,-1.1l-0.9,-1.1l-0.7,-1l-1,-1.2l-0.6,-1.3L416.5,471l-0.6,-1.2l-0.5,-1.4L414.9,467l-0.4,-1.2l-0.3,-1.4l-0.3,-1.3l-0.2,-1.6l-0.1,-1.3l0,-1.4l0,-154.8Z" class="g3_21" />
<image x="443" y="36" width="113" height="155" xlink:href="shade/1.png" />
<image x="423" y="203" width="152" height="292" xlink:href="shade/2.png" />
<image x="597" y="62" width="113" height="132" xlink:href="img/2.png" />
<image x="585" y="203" width="146" height="292" xlink:href="shade/3.png" />
<path d="M385.8,458.6l-1.1,0l-1.1,0l-1,0l-1.1,0l-1.1,-0.1l-1.1,0l-1,0l-0.9,-0.2l-1.1,0l-0.9,-0.1L374.5,458l-1,0l-0.9,-0.1l-0.7,-0.2l-0.8,0l-0.8,-0.1l-0.7,-0.2L369,457.3l-0.7,-0.2L367.7,457l-0.6,-0.2l-0.3,-0.1l-0.4,-0.2l-0.3,-0.2L365.6,456l-0.2,-0.1l-0.3,-0.2l0,-0.1L365,455.4l0,-0.3l0,-109.2l-0.2,-0.2l0,-0.1l-0.1,-0.2l-0.3,-0.1L364.2,345l-0.3,0l-0.4,-0.3l-0.3,-0.2l-0.7,-0.1l-0.4,-0.2l-0.6,-0.1l-0.6,-0.2l-0.6,-0.1l-0.8,-0.2l-0.8,-0.2l-0.7,0l-0.8,-0.1l-0.9,-0.2l-0.9,0l-1,-0.1l-0.9,-0.2l-1,0l-1,-0.1l-1,0l-0.9,0l-1.3,-0.2l-0.9,0l-1.1,0l-1.2,0l-1,0l1,0l1.1,0l1.1,0l1,-0.1l1.1,0l0.9,0l1.1,0l0.9,-0.2l1.1,0l0.9,-0.1l0.9,0l0.8,-0.2l0.9,-0.1l0.8,0l0.9,-0.2l0.6,-0.1l0.7,-0.2l0.7,-0.1l0.7,-0.2l0.5,-0.2l0.6,-0.1l0.4,-0.2l0.5,-0.1l0.5,-0.2l0.3,-0.1l0.3,-0.2l0.1,-0.1l0.2,-0.2l0.1,-0.1l0.2,-0.3l0,-0.2l0,-109.4l0,-0.1l0.1,-0.2l0.2,-0.1l0.1,-0.2l0.3,-0.1l0.4,-0.2l0.4,-0.1l0.3,-0.4l0.5,-0.1l0.6,-0.2l0.4,-0.1l0.8,-0.2l0.6,-0.1l0.6,-0.2l1,0l0.7,-0.1l0.8,-0.2l0.9,-0.1l0.8,0l1,-0.2l0.9,0l1,-0.1l1,0l0.9,-0.2l1.1,0l1.1,0l1.1,-0.1l1,0l1.1,0l1.1,0" class="g4_21" />
<path fill-rule="evenodd" d="M547.6,95.5l13.9,7.9l5.5,-1.3L548.9,94.3l-1.3,1.2Z" class="g5_21" />
<path fill-rule="evenodd" d="M544.8,117.6l2.8,-22.1l13.9,7.9l-0.3,23.9l-1.9,-1l-2.1,-0.9l-2.6,-1.3l-1.4,-0.7l-1.4,-0.9l-1.3,-0.7L549.1,121l-1.2,-0.9l-1.3,-0.8l-1,-0.9l-0.8,-0.8Z" class="g6_21" />
<g clip-path="url(#c0_21)">
<path fill-rule="evenodd" d="M568.3,125.7l-7.1,1.6l0.3,-23.9l5.5,-1.3l1.3,23.6Z" class="g7_21" />
</g>
<path fill-rule="evenodd" d="M532.9,90l0.3,0l0.3,0l0.5,0.1l0.3,0.2l0.3,0.1l0.3,0.3l0.4,0.4l0.3,0.3l0.3,0.4l0.5,0.3l0.5,0.6l0.6,0.8l0.6,0.8l1.7,1.6l1.8,2l2,2.2l3.3,3.3l1.4,1.6l0.5,-10.9l-0.3,-0.3L548,93.5l-0.3,-0.6l-0.3,-0.6L547.3,92l-0.2,-0.3l0,-0.3l0,-0.3l0.2,-0.4l0.1,-0.3L547.6,90l0.3,-0.3l0.9,-0.8l0.9,-0.7l0.9,-0.8l0.9,-0.8l0.9,-0.7l0.3,-0.3l0.4,-0.4l0.1,-0.3l0.2,-0.3l0.1,0l0.3,0l0.3,0.2l0.3,0l0.2,0.1l0.1,0l0,0.2l0,0.1l0,0.2l0,0.3L554.6,86l-0.5,0.8l-0.6,0.6l-0.1,0.1l0.6,0l0.4,0l0.6,0l0.7,0l0.3,0l0.3,0.2l0.1,0l0.3,0.1l0.2,0.4l0,0.1l0.4,0.2l0.2,0l0.4,0.1l0.3,0.2l0.2,0.3l0.2,0.1l0,0.2l0.1,0.1l0,0.3l0,0.3l0.3,0l0.3,0.2l0.2,0.1l0.1,0.2l0,0.1l0,0.4l0,0.1l-0.1,0.2l-0.2,0.3L559,91.8l0.2,0.2l0.1,0.1l0.2,0.2l0,0.1l0,0.2l-0.2,0.1l0,0.2L559.2,93l-0.3,0l-0.3,0.2l-0.4,0.1l-0.3,0.2L557,93.7L554.9,94l-1.1,0.1l-0.7,0.3l-0.5,0l-0.2,0.2l-0.3,0.1L552,95l0,0.2l0,0.4l0.1,1.4l0.5,3.8l0.3,2.3l0.2,2l0,1.1l0,0.9l0,0.8l-0.2,0.6l-0.2,0.3l-0.1,0.1l-0.2,0.3l0,0.2l-0.1,0.1l-0.3,0.2l-0.2,0l-0.3,0l-0.4,0.1l-0.5,-0.1l-0.6,0l-0.5,-0.3l-0.6,-0.2l-0.4,-0.3l-1.1,-0.4L546.6,108L546,107.7l-8.7,-6.1L532.9,90Z" class="g8_21" />
<path fill-rule="evenodd" d="M553.4,87.5l-0.3,0.2l-0.4,0.1l-0.3,0.4l-0.3,0.1l-0.3,0.3l0,0.2l0,0.1l0,0.2l0.2,0.1l0,0.2l0.1,0.1l0.2,0l0.1,0l0.2,0l0.1,0l0.4,-0.1l0.7,-0.3l0.5,-0.3l0.4,0l1.1,-0.3l0.6,0l0.5,-0.2l0.6,0.3l-0.6,0.2l-0.6,0l-0.6,0.1l-0.8,0.2l-0.8,0.3l-0.3,0.1l-0.4,0.2l-0.3,0.1l-0.2,0.3l-0.3,0.2l-0.2,0.1l0,0.2l0,0.1l0,0.2l0.2,0l0.1,0l0.2,0l0.5,0l0.4,-0.2l0.5,-0.1l0.4,-0.2l0.5,-0.3l0.6,0L556.4,90L557,89.8l1.1,0l0.5,0L558.1,90l-0.6,0l-0.6,0.1l-0.6,0.3l-0.6,0.2L555,91.1l-0.3,0.1l-0.1,0.2l0,0.1l0,0.2l0.1,0l0.2,0.1l0.3,0l0.5,-0.1l0.6,0l0.6,-0.2l1,0l0.8,0l0.3,0l-0.4,0.2l-1.1,0.1l-0.6,0l-0.6,0.3l-0.2,0L556,92.3l-0.2,0.1l0,0.2l0,0.1l0.2,0l0,0.2l0.3,0l0.3,0l0.4,0l0.3,0l0.5,-0.2l0,0.2L557.5,93L557,93.5l-1.7,0.3l-0.1,-0.1l-0.3,-0.2l-0.2,-0.3L554.6,93l0,-0.3l0,-0.3l-0.2,0l-0.1,0l-0.3,0l-0.2,0l-0.3,-0.3l0,-0.1l0,-0.3l-0.4,0l-0.4,-0.2l-0.3,-0.1l-0.3,-0.3l-0.3,-0.4l0,-0.1l0,-0.2l0,-0.1l0,-0.2L551.7,90l-0.2,-0.2l-0.3,-0.3l-0.1,0l0,-0.1l0,-0.3l0,-0.2l0.1,-0.1l0.2,-0.3l0.3,-0.2l0.4,-0.1l0.6,-0.4l0.7,-0.3Z" class="g9_21" />
<path fill-rule="evenodd" d="M556.9,93l0.1,0.2l0.3,0.5l0.3,0.9l0.5,1l0.1,0.7l0.4,0.7l0,0.8l0.1,0.7l0,1l0,1l-0.1,0.9l-0.2,1l0.3,0.1l0.3,-1.1l0,-0.9l0,-1l0,-1l0,-0.7L558.9,97l-0.2,-0.7l-0.3,-0.7l-0.3,-1.2l-0.5,-0.7L557.3,93l-0.1,-0.1L556.9,93Z" class="g10_21" />
<path fill-rule="evenodd" d="M557.6,92.9l0.2,0l0.4,0.4l0.7,0.5l0.4,0.3l0.3,0.5l0.3,0.4l0.3,0.5l0.3,0.6l0.3,0.6l0.2,0.6l0.2,0.8l0,0.7l0,1l0.4,0l0,-1l0,-0.7l-0.3,-0.8l-0.1,-0.7l-0.4,-0.7l-0.3,-0.6l-0.3,-0.4l-0.3,-0.5L559.5,94l-0.3,-0.3L558.6,93l-0.5,-0.3l-0.3,-0.1l-0.2,0.3Z" class="g10_21" />
<path fill-rule="evenodd" d="M524.2,90.1l-0.3,0.2l-0.5,0L523,90.6l-0.7,0.3l-0.1,0.3l-0.5,0.2l-0.1,0.4l-0.5,0.3L521,92.6l-0.3,0.6L519.6,95l-1.8,3.4l-1.4,2l-1.4,2.3l-1.5,2.3l-1.7,2.6l-1.8,2.6l-2,2.5l-2.2,2.6l-1,1.3l-1.1,1.2l-1.1,1.4l-1.2,1l-1.2,1.3l-1.1,1l-1.4,1.3l-1.2,0.9l-1,1l-1.4,1l-6,3.9l-0.3,0.3l-0.1,0.2l-0.2,0.3l0,0.4l0,0.2l0.2,0.2l0,0.1l0.1,0.2l0.3,0.1l0.3,0.2l0,0.1l0,0.2l0.2,0.3l0.1,0.1l0.3,0.2l0.3,0.1l0.4,0l0.1,0.2l0.5,0l0,0.1l0,0.2l0.3,0.3l0.1,0.2l0.2,0l0.3,0.1l0.1,0l0.3,0l0.3,-0.1l0.4,0l0,0.1l0.1,0.2l0.2,0.3l0.3,0l0.1,0.1l0.3,0l0.3,0.2l0.3,0l0.5,0l0.4,-0.2l0.7,0l0.3,0l0.6,-0.1l0.1,0l0.3,-0.2l0.2,-0.1l0,-0.2l0,-0.1l-0.2,-0.2l-0.1,-0.2l-0.3,0l-0.5,-0.1l-0.4,0l-0.2,-0.2L495.2,134L495,133.8l0,-0.1l0.2,-0.5l0.1,-0.3l0.2,-0.3l0.1,-0.3l0.5,-0.5l0.1,0.4l0,0.4l0.2,0.5l0.1,0.4l0.2,0.2l0.1,0.1l0.3,0.3l0.2,0.2l0.3,0.1l0.3,0l0.6,0l0.2,0l0.1,0l0,-0.1l0,-0.2L498.7,134l0,-0.5l-0.2,-0.4l-0.1,-0.6l0.1,-0.5l0,-0.3l0.2,-0.9l0.1,-0.8l0.2,-0.7l0,-0.8l0,-0.6l-0.2,-0.6l0,-0.5l-0.3,-0.5l0.8,-0.4l2,-1.5l2.7,-2.5l1.7,-1.4l1.8,-1.6l1.9,-1.9l1.8,-1.8l2,-2l1.8,-2l1.8,-2.1l1,-1.1l0.7,-1.1l0.8,-1l0.8,-1.2l0.6,-1.1l0.7,-1.1l2.8,-12.4Z" class="g8_21" />
<path fill-rule="evenodd" d="M493.8,131.5l-0.3,0.2l-0.3,0.1l-0.3,0.5l-0.2,0.5l-0.3,0.6l-0.1,0.6l0,0.3l0,0.5l-0.7,0.1l0,-0.5l0,-0.3l0.3,-0.6l0.2,-0.4l0.5,-0.6l0.1,-0.3L493,132l0.3,-0.3l0.5,-0.2Z" class="g9_21" />
<path fill-rule="evenodd" d="M492.4,130.5l-0.3,0.3l-0.5,0.4l-0.4,0.5l-0.3,0.5l-0.3,0.6l-0.2,0.3l-0.1,0.3l0,0.3l0,0.3l-1,-0.2l0.4,-0.4l0.1,-0.5l0.5,-0.6l0.3,-0.6l0.3,-0.3l0.3,-0.3l0.3,-0.2l0.1,-0.3l0.5,0l0.3,-0.1Z" class="g9_21" />
<path fill-rule="evenodd" d="M488.4,132.8l0,-0.3l0.5,-0.8l0.1,-0.5l0.5,-0.3l0.3,-0.3l0.5,-0.3l-0.5,0.2l-0.5,0.1l-0.3,0.3l-0.3,0.2l-0.1,0.1l-0.2,0.2l-0.1,0.1l-0.2,0.3l0,0.4l0.2,0.3l0.1,0.3Z" class="g9_21" />
<path fill-rule="evenodd" d="M495.2,133.2l0.4,0.2l0.5,0.1l0.6,0.2l0.4,0.3l0.2,0.1l0.3,0.3l0.1,0.4l0.2,0.1l0.2,0.5l0,0.3l0,0.7l0,0.8l-0.2,1.4l-0.2,1l-0.1,0.3l0.3,0.2l0.2,-0.5l0.1,-1l0.2,-1.4l0.1,-0.8l-0.1,-0.7l0,-0.5l-0.2,-0.3l-0.1,-0.3l-0.2,-0.3L497.6,134l-0.3,-0.2L497,133.7l-0.2,-0.2l-0.6,-0.3l-0.4,-0.1l-0.5,-0.2l-0.1,0.3Z" class="g10_21" />
<path fill-rule="evenodd" d="M483.8,133.4l1.4,1l3.2,2.8l2.2,1.5l2.1,1.7l2.1,1.4l1.9,1.4l5.2,-0.7l-2,-1l-2,-1.3l-2.4,-1.5L493,137.2l-1.2,-0.9l-1.2,-0.8l-0.9,-0.7l-1,-0.8L488,133.4l-0.5,-0.6l-3.7,0.6Z" class="g11_21" />
<path fill-rule="evenodd" d="M480.3,156.8l0.2,-3.1l0.3,-3.2l0.5,-3.8l0.6,-4l0.3,-2l0.3,-1.8l0.3,-1.7l0.4,-1.5l0.3,-1.3l0.3,-1l12.9,9.8l-0.5,3l-0.4,3.4l-0.6,3.8l-0.5,4.4l-0.5,4.3l-0.1,2l-0.2,1.8l0,1.5l0.2,1.6L480.3,156.8Z" class="g12_21" />
<path fill-rule="evenodd" d="M501.9,142.5l-0.3,3.1l-0.5,3.2l-0.3,3.8l-0.1,2.2l-0.2,2.1l0,2.1l0,2l0,2l0.2,1.7l0.1,1.7L501,167l0.1,0.6l-7,1.4l0,-2.9l0.1,-3.1l0.3,-4l0.3,-4.2l0.4,-2.2l0.3,-2.1l0.1,-2.2l0.5,-2.1l0.3,-1.8l0.4,-1.9l5.1,0Z" class="g13_21" />
<path fill-rule="evenodd" d="M520.5,141.6l7.7,37.5l-5.7,8.2l0,0.2l0,0.1l0.2,0.2l0.3,0.1l0.1,0l0.2,0l0.7,-0.1l0.8,-0.2l0.6,-0.3L526,187l0.5,-0.3l0.6,-0.5l1.4,-0.9l1,-1l1.1,-1l0.9,-0.7l0.8,-0.8l-4.8,-39.1l-7,-1.1Z" class="g8_21" />
<path fill-rule="evenodd" d="M530.7,142.7l3.4,8.6l0.3,0.4l0.9,1.2l0.6,0.9l0.7,1.1l0.7,1.1l0.6,1.4l0.8,1.6l0.6,1.6l0.5,1.7l0.3,1l0.3,0.9l0.1,1l0,1l0.2,1.1l0.1,1.1l0,1l-0.1,1.1l-0.2,1.1l0,1l-0.4,1.6l-0.3,1.3l-0.5,1.6l-0.5,1.7l0,0.6l0,0.7l0,0.5l0,0.4l0.2,0.2l0,0.1l0.2,0l0.1,0l0.2,0l0.1,0l0.3,-0.3l0.5,-0.3l0.3,-0.3l0.4,-0.6l0.3,-0.4l0.4,-0.6l0.3,-0.8l0.6,-1.5l0.4,-1.6l0.2,-0.6l0.1,-0.7l0.2,-0.7l0,-0.6l0,-0.6l0.1,-0.9l0.3,-2.1l0.2,-1.3l0.1,-1.2l0,-1.4l0,-1.5l0,-1.5l-0.1,-1.5l-0.3,-1.7l-0.3,-1.5l-0.3,-1l-0.2,-0.7l-0.4,-0.9l-0.3,-0.7l-0.5,-0.9l-0.5,-0.7L541,151.4l-0.6,-0.8l-0.2,-0.3L539.8,150l-0.2,-0.4l-0.3,-0.5l-0.1,-0.4L539,148l0,-0.3l0,-0.3l0.2,-0.6l0,-0.9l0,-2L539,141.6l-8.3,1.1Z" class="g8_21" />
<path fill-rule="evenodd" d="M524.6,89.5L524,90.9l-0.7,1.5l-0.8,1.9l-0.9,2.3l-0.8,2.2l-0.3,1.1l-0.3,1.2l-0.3,1.3l-0.1,1l0,1.1l0,1.1l0,0.9l0.1,0.9l0.3,0.9l0.2,0.8l0.3,0.7l0.3,0.7l0.4,0.6l0.3,0.6l0.5,0.7l0.5,0.7l0.1,0.1l0.9,0.9l-0.6,0.6l-0.6,1l-0.8,1l-0.7,1.2l-0.8,1.6l-0.4,0.7l-0.4,1l-0.3,0.7l-0.3,0.9l-0.6,2.2l-0.7,2.7l-0.7,2.8l-0.6,2.9l-0.9,4.7l-0.4,2l0.3,0.1l0.6,0.4l1,0.4l0.7,0.2l0.7,0.3l0.9,0.3l1,0.1l1,0.3l1.2,0.3l1.4,0.2l1.5,0.1l1.6,0.4l1.7,0l1.8,0.1l1.5,0l1.5,-0.1l1.4,0l1.2,-0.2l1.4,-0.2l2.2,-0.3l3.5,-0.6l0.7,-0.1l0.6,0l0.7,-0.2l0.6,0.2l-0.3,-1.1L544.8,138L544,134l-0.4,-2.2l-0.5,-2.4L542.7,127l-0.8,-2.3l-0.6,-2.3l-0.8,-2.2l-0.7,-2l-0.5,-0.9l-0.5,-0.7l-0.4,-0.8l-0.5,-0.6l-0.4,-0.5l-0.3,-0.4L537,113.7l0.2,-0.2l0.3,-0.4l0.3,-0.7l0.4,-0.9l0.2,-0.6l0.1,-0.6l0.2,-0.6l0.1,-0.8l0.2,-0.7l0,-0.9l0,-1l-0.2,-0.7l-0.1,-1.3l-0.2,-1l-0.3,-1.2l-0.3,-1.3L537,98.2l-0.9,-2.4l-0.9,-2.3l-0.6,-1.1l-0.5,-0.9l-0.4,-0.8L533.3,90l-0.4,-0.5l-0.5,-0.3l-0.3,-0.3l-0.4,-0.1l-0.6,0l-0.7,0l-0.6,0l-0.6,0l-1.4,0.1l-1.2,0.2l-1,0.3l-1,0.1Z" class="g14_21" />
<path fill-rule="evenodd" d="M526.2,90l-0.3,0.6l-0.3,0.6l-0.5,0.9l-0.5,1.2L524,94.7l-0.3,1.6l-0.4,1.5L523,99.6l-0.3,2l0,0.9l0,1.1l0,1.1l0,0.9l0.1,1l0.2,1.3l0.3,0.9l0.1,1l0.5,1.3l0.3,1l0.4,1.1l0.6,1.1l-0.9,3.3l-0.9,3.6l-1.1,4.2l-0.4,2.3l-0.5,2.3l-0.4,2.5l-0.5,2.1l-0.3,2.1l-0.1,2l0,1.9l0,0.6l0,0.7l0.6,0.2l1.6,0.3l1.3,0.3l1.3,0.1l1.6,0.4l1.3,0l-0.1,-3.6L527.5,136l0,-4.5l0,-2.4l0,-2.4l0,-2.3l0.3,-2.3l0.2,-2.2l0.3,-2l0.2,-0.7l0.3,-0.8l0.1,-0.7l0.2,-0.7l0,-0.7l-0.6,-1.9l-0.7,-3l-0.3,-1.7l-0.1,-1.8l-0.3,-2l-0.2,-2.1l-0.1,-2l-0.2,-2.3l0.2,-2l0.1,-1.1l0,-0.9l0.2,-1.1l0.1,-0.9l0.3,-0.9l0.3,-0.9L526.2,90Z" class="g15_21" />
<path fill-rule="evenodd" d="M529.4,89.7l0.1,0.4l0.6,1.6l0.3,1l0.3,1.3l0.4,1.3l0.3,1.7l0.3,1.8l0.3,1.9l0.1,2.1l0,2.2l0,2.3l-0.1,2.4l-0.2,1.4l-0.1,1.2l-0.3,1.2l-0.3,1.4l0.3,0.3l0.1,0.5l0.3,0.6l0.3,0.7l0.3,1.2l0.5,1.3l0.3,1.5l0.3,1.8l0.3,2l0.3,2.5l0.2,2.6l0.1,2.9l0,3l-0.1,3.5l-0.3,3.9l0.9,0l2,-0.2l1,-0.2l1.1,-0.1l0.9,-0.2l0.5,-0.1l0.3,-0.2l-0.2,-1l-0.1,-2.6l-0.5,-4l-0.1,-2.1l-0.3,-2.3L539,127.7l-0.5,-2.4L537.9,123l-0.6,-2.2L537,119.9l-0.3,-1l-0.4,-1l-0.4,-0.7l-0.4,-0.6L535,115.8l-0.4,-0.5L534,114.9l0.3,-0.5l0.3,-0.4l0.3,-0.8l0.4,-0.9l0.3,-1.1l0.3,-1.4l0.2,-1.3l0,-0.9l0.2,-1l0,-0.9l-0.2,-0.9l0,-1.1l-0.2,-1l-0.1,-1.1l-0.2,-1.1l-0.3,-1.2l-0.4,-1.4l-0.3,-1.2L534,95.3L533.5,94l-0.6,-1.4l-0.8,-1.5l-0.9,-1.6l-1.8,0.2Z" class="g15_21" />
<path fill-rule="evenodd" d="M522.8,113.5l0.3,0.2l0.9,0.1l1.6,0.2l0.9,0.1l1,0l1.1,0.2l1.1,0l1.2,0l1.2,0l1.2,-0.2l1.4,-0.1l1.2,-0.3l1.4,-0.3l0.2,0l0,0.1l0,0.2l0,0.1l0,0.2l0,0.1l-0.3,0.2l-0.3,0l-0.6,0.3l-0.5,0.1l-0.6,0.2l-0.6,0.1l-0.9,0l-0.8,0.2l-1.1,0l-1.2,0.1l-1.2,-0.1l-1.4,0L526.5,115l-1.6,-0.3l-1.8,-0.3L523,114.3l-0.3,-0.2l0,-0.1l-0.2,-0.2l0.2,-0.1l0.1,-0.2Z" class="g16_21" />
<path fill-rule="evenodd" d="M522.7,186.5l0.1,0.2l0.2,0.1l0.1,0.2l0.3,0.2l0.5,0l0.1,0l0.3,0l0.3,-0.2l0.3,-0.2l0.3,-0.3l0.5,-0.1l1.1,-0.8l1.2,-1l1.1,-1l2.1,-1.8l0.8,-0.9l0.4,1.7l0.2,1.3l0.4,1.3l-1.8,0.4l0,-0.3l-0.1,-0.4l0,-0.3l-0.2,-0.2l0,-0.1l-0.2,0l-0.1,0.1l-0.2,0.5l-0.3,0.7l-0.3,0.3l-0.1,0.5l-0.3,0.3l-0.3,0.3l-0.5,0.5l-1.1,0.6L526,189l-1.7,0.9l-1.6,0.9l-1.6,0.8l-0.7,0.3l-0.5,0.3l-0.5,0.8l-0.3,-0.7l-0.4,0l-0.3,-0.1L517.9,192l-0.1,0l0,-0.3l-0.2,0l0,-0.1l0,-0.2l0.3,-0.3l0.5,-0.4l1.2,-1.3l1.4,-1.3l1.7,-1.6Z" class="g17_21" />
<path fill-rule="evenodd" d="M538.5,180l-1,4.7l0.1,0.2l0,0.1l0.2,0.3l0.1,0.2l0.3,0.1l0.3,0.2l0.5,0l0.2,0l0.3,0l0.3,-0.2l0.1,-0.1l0.5,-0.3l0.6,-0.5l0.3,-0.6l0.5,-0.8l0.3,-0.6l0.1,-0.9l0.2,-0.9l0.3,-0.9l0.4,-1.9l0.6,-1.3l0.2,-0.6l0.4,2.4l0,-0.2l0.4,0l0.1,-0.1L545,178l0.3,-0.3l0.1,-0.5l0.2,-0.6l0.1,-1.4l0,-0.4l0,-0.5l-0.1,-0.4l0,-0.3l-0.3,-0.4L545,172.9l-0.3,-0.1l-0.4,-0.2L544,172.2L543.7,172l0,-0.1l-0.3,0.7l-0.6,2l-0.3,1.2l-0.3,1.1l-0.4,0.9l-0.4,0.6l-0.7,1.3l-0.3,0.3l-0.3,0.3l-0.3,0.1l-0.3,0.2l-0.2,0l-0.1,-0.2l-0.2,0l-0.3,-0.1L538.5,180Z" class="g17_21" />
<path fill-rule="evenodd" d="M510,73.9l-0.3,0l-0.6,-0.1L508,73.6l-0.5,0l-0.6,0.2l-0.7,0l-0.5,0.1l-0.6,0.2l-0.5,0.3L504,74.7L503.6,75l-0.2,0.3l-0.2,0.3l-0.1,0.2l-0.2,0.4l0,0.3l-0.1,0.3l0.1,0.4l0,0.1l0,0.3l0.2,0.2l0.3,0.4l0.5,0.3l0.3,0.3l0.6,0.3l0.4,0.2l0.6,0.1l0.7,0.2l0.6,0l0.4,0l0.9,0l0.7,0l0.1,0l0.2,-0.2l0.1,-0.3l0,-0.4l0.2,-0.9l0.1,-1.1L510,74.9l0,-1Z" class="g9_21" />
<path fill-rule="evenodd" d="M544,76.8l0.3,0l0.8,0L546,77l0.6,0.2l0.5,0.1l0.6,0.2l0.6,0.1l0.5,0.3l0.4,0.3l0.5,0.5l0.3,0.4l0,0.3l0.2,0.2l0,0.5l0,0.1l0,0.5l0,0.3L550,81.1l-0.2,0.3l-0.1,0.2l-0.2,0.3l-0.4,0.3l-0.5,0.3l-0.4,0.2l-0.6,0.1L546.9,83l-0.6,0l-0.6,0l-0.6,0l-0.4,0l-1,-0.2l-0.6,-0.1l0,-0.2L543,82.3L543,82l0,-0.4l0.1,-0.9l0.2,-1.1l0.4,-1.8l0.3,-1Z" class="g9_21" />
<path fill-rule="evenodd" d="M513,67.5l0,0.2l-0.6,0.7l-0.7,1.1l-0.8,1.4l-0.5,0.8L510,72.6l-0.5,0.9l-0.3,1.1l-0.3,1l-0.1,0.9l-0.4,1.3l0,1l0,0.6l0.2,0.5l0.2,0.6l0,0.5l0.3,0.4l0.1,0.5l0.3,0.4l0.2,0.5l0.4,0.5l0.3,0.4l0.8,0.8l0.9,0.6l0.9,0.8l0.9,0.6l1.1,0.4l1.2,0.6l1,0.3l1.2,0.5l1,0.5l1.1,0.1l0.9,0.3l0.2,0.2l0.3,0.1l0.4,0.3l1,0.3l0.3,0.2l0.4,0.1l0.6,0l0.6,0l0.7,0l0.6,0l0.6,-0.1l0.7,-0.2l1,-0.1l0.9,0l1.2,-0.3l1.5,-0.2l0.8,-0.3L534,89.1l0.9,-0.3l0.7,-0.3l1,-0.3l0.9,-0.5l0.7,-0.5l1,-0.4l0.9,-0.6l0.7,-0.6l0.8,-0.8L542.4,84L543,83.1l0.6,-0.9L544,81.1l0.5,-0.9L544.8,79l0.3,-1.2l0.2,-1.6l0.1,-1.3l-0.1,-1.6l-0.2,-1.6l0,-0.4l-0.4,-0.6l-0.7,-1l-0.4,-0.8l-0.5,-0.6l-0.6,-0.8l-0.7,-0.6l-0.7,-0.7l-0.9,-0.7l-1,-0.7l-1.1,-0.5L537.5,64l-0.6,-0.3l-0.6,-0.1l-0.7,-0.4l-1.3,-0.3l-1.4,-0.3l-1.5,-0.1l-1.6,-0.2l-1.3,0l-1.6,0.2l-1.3,0.1L524,62.8l-1.5,0.3L521,63.6l-1.4,0.3l-1.4,0.6l-1.4,0.6l-1.2,0.7l-1.2,0.8L513,67.5Z" class="g8_21" />
<path fill-rule="evenodd" d="M514.6,73.5l0,0.1l-0.2,0.3l-0.1,0.7l0,0.3l0,0.3l0.1,0.4l0.2,0.3l0.1,0.3l0.3,0.5l0.3,0.1l0.6,0.4l0.5,0.3l0.8,0.1l0.7,0l0.8,0l0.7,-0.1l0.5,0l0.5,-0.2l0.4,-0.1l0.5,-0.4l0.4,-0.1l0.2,-0.5l0.3,-0.3l0.1,-0.4l0,-0.2L521.9,75l-0.6,-0.4L521,74.3l-0.5,-0.4l-0.6,-0.1l-0.5,-0.3l-0.7,-0.2l-0.6,0l-0.9,-0.1l-0.8,0l-0.9,0.1l-0.9,0.2Z" class="g1_21" />
<path fill-rule="evenodd" d="M518.4,73.6l-0.2,0.3l-0.1,0.4l-0.2,0.3l0,0.4l0,0.3l0,0.2l0.2,0.3l0.1,0.1l0.2,0.2l0.3,0.1l0.1,0.2l0.3,0l0.7,0.1l0.6,0.2L521,76.5l0.3,0l0.1,-0.1l0.3,-0.2l0.2,-0.1l0.3,-0.2l0,-0.1l0.1,-0.2l0,-0.1l0,-0.3l0,-0.2l-0.1,-0.1L522,74.6l-0.3,-0.2l-0.3,-0.3l-0.3,-0.2L521,73.8l-0.8,-0.2l-0.3,-0.1l-0.5,0l-0.3,-0.2l-0.3,0.2l-0.3,0l-0.1,0.1Z" class="g10_21" />
<path d="M524.5,80.5l0,-2" class="g18_21" />
<path fill-rule="evenodd" d="M533.5,75.8l0.2,0.3l0.3,0.6l0.3,0.5l0.3,0.3l0.3,0.3l0.3,0.3l0.4,0.3l0.5,0.1l0.5,0.2l0.6,0.1l0.7,0l0.6,0l0.7,0l0.4,-0.1l0.3,-0.2l0.5,-0.3l0.3,-0.1l0.1,-0.3l0.3,-0.3l0.2,-0.3l0.1,-0.5l0.2,-0.5l0.2,-0.6l0,-0.1l-0.4,0l-0.6,-0.3l-0.9,-0.3l-0.4,-0.2l-0.7,-0.1l-0.6,0l-0.7,0l-0.6,0l-0.8,0l-0.6,0.3L534.7,75l-0.6,0.3l-0.6,0.5Z" class="g1_21" />
<path fill-rule="evenodd" d="M537,75l0,0.3l0,0.5l0,0.3l0.2,0.3l0,0.1l0.1,0.3l0.2,0.2l0.3,0.2l0.1,0.1l0.5,0.2l0.4,0l0.4,0l0.4,0l0.3,-0.2l0.3,0l0.3,-0.1L540.8,77l0.3,-0.5l0.3,-0.3l0.2,-0.3l0.2,-0.3l-0.5,-0.3L540.8,75l-0.6,-0.1l-0.7,-0.3l-0.3,0l-0.5,0l-0.5,0l-0.3,0.1l-0.4,0.2L537,75Z" class="g10_21" />
<path fill-rule="evenodd" d="M513.9,73.9l0.4,-0.1l0.6,-0.2l1,0l0.5,-0.1l0.6,0l0.8,0l0.6,0.1l0.6,0.2l0.8,0.1l0.6,0.5l0.6,0.5l0.7,0.4l0.5,0.6l0.1,0l0.4,0l0.1,0L523,75.8l0,-0.2l0,-0.3l-0.3,-0.4l-0.4,-0.3l-0.4,-0.7l-0.5,-0.4l-0.3,-0.2L520.7,73l-0.3,-0.1l-0.5,-0.2l-0.5,-0.1L519,72.4l-0.5,0l-0.4,-0.1l-0.5,0l-0.4,0l-0.5,0.1l-0.5,0l-0.6,0.2l-0.7,0.3L514.7,73l-0.1,0.2l-0.3,0.1l-0.2,0.2l0,0.3l-0.2,0.1Z" class="g10_21" />
<path d="M515.5,78.5l3,0" class="g18_21" />
<path d="M517.5,69.5l3,0" class="g18_21" />
<path fill-rule="evenodd" d="M537.2,70l0.3,0l0.4,0l0.5,0.1l0.6,0.2l0.3,0l0.2,0.1l0.3,0.2l0.1,0.1l0.2,0.3l0.1,0.3l-0.1,-0.4l-0.3,-0.3l-0.2,-0.3L539.5,70l-0.3,0L539,69.8l-0.3,0l-0.3,-0.1l-0.5,0.1l-0.3,0L537.2,70Z" class="g10_21" />
<path fill-rule="evenodd" d="M533,75.5l0,0.1l0,0.2l0,0.1l0.2,0.2l0.1,0l0.4,0l0.3,0l0.6,-0.2L535,75.6l0.8,-0.3l0.5,-0.1L536.7,75l0.5,0l0.6,0l0.6,0l0.6,0l0.8,0.2l0.6,0.1l0.9,0.3l0.8,0.3l0.1,0l0.2,-0.1l0,-0.2l-0.2,-0.1l-0.1,-0.3L541.8,75l-0.4,-0.1L541,74.6l-0.5,-0.3l-0.7,-0.2l-0.6,-0.2l-1,-0.1l-0.7,0l-0.9,0.1l-0.7,0l-0.7,0.4l-0.6,0.3L534,74.7L533.5,75l-0.3,0.3L533,75.5Z" class="g10_21" />
<path d="M536.5,79.5l3,0" class="g18_21" />
<path d="M519.5,75.5l2,0" class="g19_21" />
<path d="M538.5,76.5l2,0" class="g19_21" />
<path d="M537.5,77.5l0,-1" class="g20_21" />
<path fill-rule="evenodd" d="M521.7,83.6l-0.6,1.2l0.2,0.1l0.4,0.2l0.5,0.1l0.3,0.4l0.6,0.1l0.6,0.2l0.6,0l0.8,0.1l0.8,0l0.9,0l1,-0.1l1.1,-0.3L530,85.2l1.2,-0.3l-0.6,-1.3l-0.2,0.1l-0.6,0.2L529.1,84l-1.3,0.3l-0.7,0l-0.6,0l-0.8,0l-0.8,0L524,84.2L523.3,84l-0.8,-0.1l-0.8,-0.3Z" class="g21_21" />
<g clip-path="url(#c0_21)">
<path fill-rule="evenodd" d="M535.3,66.2l-0.6,0.1L533,66.6l-2.4,0.5l-1.5,0.3l-1.7,0.1l-1.8,0.3L523.7,68l-1.8,0.1l-1.8,0l-1.9,0l-0.9,0L516.4,68l-0.8,0l-0.7,-0.2l-1,-0.1L513,67.5l-1.3,2.2l-1.1,1.6L510,72.1l-0.3,0.6l-0.2,-0.1l-0.3,-0.3l-0.3,-0.8l-0.5,-0.8l-0.1,-0.6l-0.2,-0.4L508,69.1l0,-0.8l0,-0.8l0,-0.6l0.1,-0.7l0.3,-1l0.2,-0.4l0.2,-0.3L509.1,64l0.3,-0.4l0.4,-0.5l0.3,-0.5L511,61.9L512.3,61l1,-1l1.4,-0.9l1.4,-0.7l1.4,-0.7L519,57l1.5,-0.6l1.4,-0.5l1.5,-0.4l1.5,-0.2l0.7,-0.1l0.6,0L526.9,55l0.6,0l0,-0.2l0.7,-0.3l0.6,-0.4l0.4,-0.3l0.5,-0.2l0.6,-0.3l0.8,-0.1l0.6,-0.3l0.7,-0.2L533,52.6l1,0l0.9,0l0.9,0l0.9,0.3l0.9,0.1l0.9,0.2l1,0.3l0.7,0.4l0.6,0.3l0.8,0.5l0.6,0.5l0.6,0.3l0.5,0.6l0.4,0.4l0.3,0.6l0.2,0.6l0.1,0.5l0.2,0.8l-0.2,0.4l0.5,0.3l0.5,0.3l0.4,0.5l0.6,0.6l0.6,0.6l0.7,0.8l0.4,0.9l0.3,0.5l0.2,0.4l0.1,0.6l0.2,0.5l0.1,0.6l0,0.6l0,0.6l-0.1,0.6l-0.2,0.8l-0.1,0.6L548.2,70l-0.3,0.7l-0.5,0.8l-0.5,0.8L546.3,73l-0.7,0.8l-0.5,-2.1L544,71.3l-1.3,-0.4l-1.6,-0.8l-0.7,-0.3l-0.8,-0.4l-0.9,-0.5l-0.8,-0.5l-0.7,-0.6l-0.6,-0.4l-0.7,-0.6l-0.6,-0.6Z" class="g22_21" />
</g>
<path fill-rule="evenodd" d="M534.4,65.2l-0.1,0.3l-0.8,0.8l-0.6,0.5l-0.8,0.4l-0.7,0.6l-1,0.5l-0.9,0.6l-1,0.6L527.1,70l-1.2,0.4l-0.8,0.2l-0.8,0.1L523.7,71l-0.9,0L522,71.2l-0.7,0.1l-0.9,0l-1,0l0.7,0l1.2,0l0.9,0l1.1,-0.1l1,-0.2l1.3,0l1.2,-0.3l1.4,-0.3L529.4,70l0.7,-0.3l0.6,-0.3l0.7,-0.3L532,68.8l0.6,-0.5l0.6,-0.5l0.5,-0.4l0.6,-0.5l0.4,-0.4l0.5,-0.7l-0.6,-0.7l-0.2,0.1Z" class="g22_21" />
<path d="M521.5,85.5l9,0" class="g23_21" />
<path fill-rule="evenodd" d="M494.8,133.7l0.4,0.1l0.3,0.3l0,0.3l0.1,0.4l0,0.3l0,0.3l-0.1,0.3l0,0.3l-0.2,0.4l-0.3,0.3l-1.1,1.9l-0.9,1.6l-1.1,1.9l0.5,0.1l0.9,-1.8l0.9,-1.7l1.3,-1.8l0.1,-0.5l0.2,-0.4l0.1,-0.3l0,-0.3l0.2,-0.3l-0.2,-0.3l0,-0.4l-0.1,-0.1l-0.2,-0.5l-0.1,-0.1l-0.3,-0.2l-0.4,0.2Z" class="g10_21" />
<path fill-rule="evenodd" d="M485.7,137.3l0.3,0.2l2.7,-4l-0.4,-0.1l-2.6,3.9Z" class="g10_21" />
</svg>