<?xml version="1.0" encoding="UTF-8" standalone="no"?>
<!DOCTYPE svg PUBLIC "-//W3C//DTD SVG 1.1//EN"
"http://www.w3.org/Graphics/SVG/1.1/DTD/svg11.dtd">
<svg viewBox="0 0 1155 1210" version="1.1" xmlns="http://www.w3.org/2000/svg" xmlns:xlink="http://www.w3.org/1999/xlink">
<defs>
<clipPath id="c0_7"><path d="M0.5,1210.5L0.5,0.5l1155,0l0,1210Z" /></clipPath>
<style type="text/css"><![CDATA[
.g2_7{
fill: none;
stroke: #418AB3;
stroke-width: 2;
stroke-linecap: butt;
stroke-linejoin: miter;
stroke-miterlimit: 7;
}
.g1_7{
fill: #FFFFFF;
}
]]></style>
</defs>
<path fill-rule="evenodd" d="M0,0L1155,0l0,1210L0,1210L0,0Z" class="g1_7" />
<path fill-rule="evenodd" d="M0,0L1155,0l0,1210L0,1210L0,0Z" class="g1_7" />
<image x="790" y="1140" width="319" height="55" xlink:href="img/1.png" />
<g clip-path="url(#c0_7)">
<g fill="#626262" >
<use xlink:href="#f0_c" transform="matrix(40,0,0,40,110.8,371.4)" />
<use xlink:href="#f0_4" transform="matrix(40,0,0,40,156.7,371.4)" />
<use xlink:href="#f0_8" transform="matrix(40,0,0,40,196.4,371.4)" />
<use xlink:href="#f0_3" transform="matrix(40,0,0,40,225.6,371.4)" />
<use xlink:href="#f0_e" transform="matrix(40,0,0,40,269,371.4)" />
<use xlink:href="#f0_i" transform="matrix(40,0,0,40,310.8,371.4)" />
<use xlink:href="#f0_k" transform="matrix(40,0,0,40,375.4,371.4)" />
<use xlink:href="#f0_d" transform="matrix(40,0,0,40,427.5,371.4)" />
<use xlink:href="#f0_7" transform="matrix(40,0,0,40,457.6,371.4)" />
<use xlink:href="#f0_l" transform="matrix(40,0,0,40,498.6,371.4)" />
<use xlink:href="#f0_m" transform="matrix(40,0,0,40,534.7,371.4)" />
<use xlink:href="#f0_b" transform="matrix(40,0,0,40,555.6,371.4)" />
<use xlink:href="#f0_n" transform="matrix(40,0,0,40,618.2,371.4)" />
<use xlink:href="#f0_i" transform="matrix(40,0,0,40,641.2,371.4)" />
<use xlink:href="#f0_8" transform="matrix(40,0,0,40,684.6,371.4)" />
<use xlink:href="#f0_b" transform="matrix(40,0,0,40,713.7,371.4)" />
<use xlink:href="#f0_f" transform="matrix(40,0,0,40,755.1,371.4)" />
<use xlink:href="#f0_d" transform="matrix(40,0,0,40,798.9,371.4)" />
<use xlink:href="#f0_7" transform="matrix(40,0,0,40,829,371.4)" />
<use xlink:href="#f0_8" transform="matrix(40,0,0,40,869.9,371.4)" />
<use xlink:href="#f0_h" transform="matrix(40,0,0,40,899.1,371.4)" />
<use xlink:href="#f0_e" transform="matrix(40,0,0,40,920,371.4)" />
<use xlink:href="#f0_i" transform="matrix(40,0,0,40,961.9,371.4)" />
<use xlink:href="#f0_o" transform="matrix(40,0,0,40,1005.2,371.4)" />
<use xlink:href="#f0_c" transform="matrix(40,0,0,40,57.8,444.7)" />
<use xlink:href="#f0_d" transform="matrix(40,0,0,40,102.6,444.7)" />
<use xlink:href="#f0_b" transform="matrix(40,0,0,40,132.7,444.7)" />
<use xlink:href="#f0_o" transform="matrix(40,0,0,40,174,444.7)" />
<use xlink:href="#f0_d" transform="matrix(40,0,0,40,199.4,444.7)" />
<use xlink:href="#f0_b" transform="matrix(40,0,0,40,229.5,444.7)" />
<use xlink:href="#f0_p" transform="matrix(40,0,0,40,270.8,444.7)" />
<use xlink:href="#f0_q" transform="matrix(40,0,0,40,314.7,444.7)" />
<use xlink:href="#f0_h" transform="matrix(40,0,0,40,358.1,444.7)" />
<use xlink:href="#f0_a" transform="matrix(40,0,0,40,379,444.7)" />
<use xlink:href="#f0_h" transform="matrix(40,0,0,40,415.1,444.7)" />
<use xlink:href="#f0_8" transform="matrix(40,0,0,40,436,444.7)" />
<use xlink:href="#f0_b" transform="matrix(40,0,0,40,465.2,444.7)" />
<use xlink:href="#f0_a" transform="matrix(40,0,0,40,506.6,444.7)" />
<use xlink:href="#f0_7" transform="matrix(40,0,0,40,564.1,444.7)" />
<use xlink:href="#f0_i" transform="matrix(40,0,0,40,605.2,444.7)" />
<use xlink:href="#f0_r" transform="matrix(40,0,0,40,648.6,444.7)" />
<use xlink:href="#f0_n" transform="matrix(40,0,0,40,713.6,444.7)" />
<use xlink:href="#f0_i" transform="matrix(40,0,0,40,736.4,444.7)" />
<use xlink:href="#f0_a" transform="matrix(40,0,0,40,780,444.7)" />
<use xlink:href="#f0_8" transform="matrix(40,0,0,40,816.1,444.7)" />
<use xlink:href="#f0_7" transform="matrix(40,0,0,40,845.3,444.7)" />
<use xlink:href="#f0_m" transform="matrix(40,0,0,40,886.4,444.7)" />
<use xlink:href="#f0_m" transform="matrix(40,0,0,40,907.3,444.7)" />
<use xlink:href="#f0_7" transform="matrix(40,0,0,40,928,444.7)" />
<use xlink:href="#f0_8" transform="matrix(40,0,0,40,969.1,444.7)" />
<use xlink:href="#f0_h" transform="matrix(40,0,0,40,998.3,444.7)" />
<use xlink:href="#f0_e" transform="matrix(40,0,0,40,1019.2,444.7)" />
<use xlink:href="#f0_i" transform="matrix(40,0,0,40,1060.8,444.7)" />
<use xlink:href="#f1_z" transform="matrix(32,0,0,32,467.3,256.1)" />
<use xlink:href="#f1_b" transform="matrix(32,0,0,32,498.5,256.1)" />
<use xlink:href="#f1_6" transform="matrix(32,0,0,32,528.6,256.1)" />
<use xlink:href="#f1_c" transform="matrix(32,0,0,32,555.4,256.1)" />
<use xlink:href="#f1_d" transform="matrix(32,0,0,32,574.5,256.1)" />
<use xlink:href="#f1_7" transform="matrix(32,0,0,32,588.1,256.1)" />
<use xlink:href="#f1_4" transform="matrix(32,0,0,32,618.1,256.1)" />
<use xlink:href="#f1_t" transform="matrix(30.6,0,0,30.6,664.1,256.1)" />
</g>
</g>
<path fill-rule="evenodd" d="M898.3,34.7l0,-0.3l0,-0.5l0,-0.3l0.2,-0.4l0,-0.4l0.1,-0.3l0.2,-0.4l0.1,-0.3l0.2,-0.3l0.1,-0.3l0.2,-0.3l0.3,-0.5l0.2,-0.3l0.3,-0.2l0.3,-0.3l0.1,-0.3L900.9,29l0.3,-0.1l0.3,-0.3l0.3,-0.2l0.5,-0.1l0.3,-0.2L902.9,28l0.5,-0.2l0.3,-0.1l0.3,0l0.4,-0.2l0.4,0l0.4,0l0.3,0l211,0l0.5,0l0.3,0l0.3,0l0.4,0.2l0.3,0l0.5,0.1l0.3,0.2l0.3,0.1l0.5,0.2l0.3,0.1l0.3,0.2l0.3,0.3l0.3,0.1l0.3,0.3l0.1,0.3l0.3,0.3l0.4,0.3l0.1,0.4l0.3,0.3l0.2,0.3l0.1,0.3l0.2,0.3l0.1,0.3l0.2,0.4l0.1,0.3l0,0.4l0.2,0.4l0,0.5l0,0.3l0,0.3l0.1,29.2l0,0.4l-0.1,0.3l0,0.3l-0.2,0.5l0,0.3l-0.1,0.5l0,0.3l-0.3,0.3l-0.2,0.4l-0.1,0.3l-0.2,0.3l-0.1,0.3l-0.3,0.3l-0.4,0.4l-0.3,0.3l-0.1,0.1l-0.3,0.3l-0.3,0.2l-0.3,0.3l-0.3,0.1l-0.3,0.2l-0.5,0.1l-0.3,0.2l-0.3,0.1l-0.5,0.2l-0.3,0l-0.4,0.1l-0.3,0l-0.3,0l-0.5,0l-211,0.2l-0.3,0L904.8,71l-0.4,0L904,71l-0.3,-0.1l-0.3,-0.2l-0.5,0l-0.3,-0.3l-0.3,0l-0.5,-0.3L901.5,70l-0.3,-0.2l-0.3,-0.3l-0.3,-0.1l-0.1,-0.3l-0.3,-0.3l-0.3,-0.4l-0.2,-0.3l-0.3,-0.3l-0.2,-0.3l-0.1,-0.3l-0.2,-0.4l-0.1,-0.3l-0.2,-0.3l-0.1,-0.5l0,-0.3l-0.2,-0.5l0,-0.3l0,-0.3l0,-0.4l0,-29.2Z" class="g1_7" />
<path d="M898.3,34.7l0,-0.3l0,-0.5l0,-0.3l0.2,-0.4l0,-0.4l0.1,-0.3l0.2,-0.4l0.1,-0.3l0.2,-0.3l0.1,-0.3l0.2,-0.3l0.3,-0.5l0.2,-0.3l0.3,-0.2l0.3,-0.3l0.1,-0.3L900.9,29l0.3,-0.1l0.3,-0.3l0.3,-0.2l0.5,-0.1l0.3,-0.2L902.9,28l0.5,-0.2l0.3,-0.1l0.3,0l0.4,-0.2l0.4,0l0.4,0l0.3,0l211,0l0.5,0l0.3,0l0.3,0l0.4,0.2l0.3,0l0.5,0.1l0.3,0.2l0.3,0.1l0.5,0.2l0.3,0.1l0.3,0.2l0.3,0.3l0.3,0.1l0.3,0.3l0.1,0.3l0.3,0.3l0.4,0.3l0.1,0.4l0.3,0.3l0.2,0.3l0.1,0.3l0.2,0.3l0.1,0.3l0.2,0.4l0.1,0.3l0,0.4l0.2,0.4l0,0.5l0,0.3l0,0.3l0.1,29.2l0,0.4l-0.1,0.3l0,0.3l-0.2,0.5l0,0.3l-0.1,0.5l0,0.3l-0.3,0.3l-0.2,0.4l-0.1,0.3l-0.2,0.3l-0.1,0.3l-0.3,0.3l-0.4,0.4l-0.3,0.3l-0.1,0.1l-0.3,0.3l-0.3,0.2l-0.3,0.3l-0.3,0.1l-0.3,0.2l-0.5,0.1l-0.3,0.2l-0.3,0.1l-0.5,0.2l-0.3,0l-0.4,0.1l-0.3,0l-0.3,0l-0.5,0l-211,0.2l-0.3,0L904.8,71l-0.4,0L904,71l-0.3,-0.1l-0.3,-0.2l-0.5,0l-0.3,-0.3l-0.3,0l-0.5,-0.3L901.5,70l-0.3,-0.2l-0.3,-0.3l-0.3,-0.1l-0.1,-0.3l-0.3,-0.3l-0.3,-0.4l-0.2,-0.3l-0.3,-0.3l-0.2,-0.3l-0.1,-0.3l-0.2,-0.4l-0.1,-0.3l-0.2,-0.3l-0.1,-0.5l0,-0.3l-0.2,-0.5l0,-0.3l0,-0.3l0,-0.4l0,-29.2Z" class="g2_7" />
<g clip-path="url(#c0_7)">
<g fill="#626262" >
<use xlink:href="#f1_16" transform="matrix(13.4,0,0,13.4,921.7,57.4)" />
<use xlink:href="#f1_i" transform="matrix(13.4,0,0,13.4,937.5,57.4)" />
<use xlink:href="#f1_l" transform="matrix(13.4,0,0,13.4,950.3,57.4)" />
<use xlink:href="#f1_k" transform="matrix(13.4,0,0,13.4,958.7,57.4)" />
<use xlink:href="#f1_c" transform="matrix(13.4,0,0,13.4,971.3,57.4)" />
<use xlink:href="#f1_d" transform="matrix(13.4,0,0,13.4,979.4,57.4)" />
<use xlink:href="#f1_7" transform="matrix(13.4,0,0,13.4,985.1,57.4)" />
<use xlink:href="#f1_4" transform="matrix(13.4,0,0,13.4,997.6,57.4)" />
<use xlink:href="#f1_n" transform="matrix(13.4,0,0,13.4,1016.7,57.4)" />
<use xlink:href="#f1_y" transform="matrix(13.4,0,0,13.4,1030,57.4)" />
<use xlink:href="#f1_1j" transform="matrix(13.4,0,0,13.4,1042.8,57.4)" />
<use xlink:href="#f1_8" transform="matrix(13.4,0,0,13.4,1062,57.4)" />
<use xlink:href="#f1_d" transform="matrix(13.4,0,0,13.4,1081.9,57.4)" />
<use xlink:href="#f1_4" transform="matrix(13.4,0,0,13.4,1087.6,57.4)" />
</g>
</g>
<defs>
	<path d="M585.1,594.3c0,0,84.1,0,129.9,39.7c0,0,45.8,41.3,45.8,116.1c0,0,0,74.9,-45.8,114.6c0,0,-45.8,39.7,-129.9,39.7l-158.8,0l0,-310.1ZM139,0l0,1113.8l476.7,0c0,0,212.4,0,325.4,-94.8c0,0,114.6,-94.7,114.6,-268.9c0,0,0,-175.7,-113.1,-270.4c0,0,-114.5,-94.7,-326.9,-94.7l-189.4,0l0,-385Z" 
	id="f0_c"
	transform="scale(0.001,-0.001)" />

	<path d="M152.8,-328.4l0,174.2l82.5,0c0,0,68.7,0,99.3,21.4c0,0,30.5,22.9,47.3,77.9l7.7,24.4L18.3,834.2l267.4,0L508.8,267.4L699.7,834.2l267.4,0L615.7,-77.8c0,0,-51.9,-140.6,-122.2,-195.6c0,0,-71.8,-55,-186.4,-55Z" 
	id="f0_4"
	transform="scale(0.001,-0.001)" />

	<path d="M443.1,0c0,0,-158.9,0,-224.6,65.7c0,0,-65.7,65.7,-65.7,223.1l0,354.4l-132.9,0l0,191l132.9,0l0,238.3l265.8,0l0,-238.3l276.5,0l0,-191l-276.5,0l0,-354.4c0,0,0,-58.1,22.9,-78c0,0,24.5,-21.4,93.2,-21.4l136,0L670.7,0Z" 
	id="f0_8"
	transform="scale(0.001,-0.001)" />

	<path d="M126.8,0l0,1159.6l267.4,0l0,-447.7c0,0,61.1,73.4,128.3,108.5c0,0,68.8,35.2,149.7,35.2c0,0,145.2,0,220,-88.7c0,0,74.9,-90.1,74.9,-258.1L967.1,0L699.7,0l0,82.5l0,304c0,0,0,110,-4.6,151.3c0,0,-6.1,41.2,-18.3,61.1c0,0,-15.3,26,-41.2,39.7c0,0,-27.5,15.3,-62.7,15.3c0,0,-82.5,0,-129.8,-64.2c0,0,-48.9,-65.7,-48.9,-178.7l0,-411Z" 
	id="f0_3"
	transform="scale(0.001,-0.001)" />

	<path d="M525.6,168.1c0,0,87,0,132.9,64.1c0,0,45.8,64.2,45.8,183.4c0,0,0,120.7,-45.8,184.8c0,0,-45.9,64.2,-132.9,64.2c0,0,-88.7,0,-134.5,-64.2c0,0,-47.3,-64.1,-47.3,-184.8c0,0,0,-119.2,45.8,-183.4c0,0,47.3,-64.1,136,-64.1Zm0,-189.4c0,0,-217,0,-339.2,116c0,0,-122.2,116.1,-122.2,320.9c0,0,0,206.2,122.2,322.3c0,0,122.2,117.7,339.2,117.7c0,0,215.4,0,336.1,-116.2c0,0,122.2,-117.6,122.2,-323.8c0,0,0,-204.8,-120.7,-320.9c0,0,-122.2,-116,-337.6,-116Z" 
	id="f0_e"
	transform="scale(0.001,-0.001)" />

	<path d="M126.8,0l0,834.2l267.4,0l0,-122.3c0,0,61.1,73.4,128.3,108.5c0,0,68.8,35.2,149.7,35.2c0,0,145.2,0,220,-88.7c0,0,74.9,-90.1,74.9,-258.1L967.1,0L699.7,0l0,82.5l0,305.6c0,0,0,108.4,-4.6,149.7c0,0,-6.1,41.2,-18.3,61.1c0,0,-15.3,26,-41.2,39.7c0,0,-27.5,15.3,-62.7,15.3c0,0,-82.5,0,-129.8,-64.2c0,0,-48.9,-65.7,-48.9,-178.7l0,-411Z" 
	id="f0_i"
	transform="scale(0.001,-0.001)" />

	<path d="M647.8,186.4c0,0,132.9,0,204.7,96.2c0,0,71.8,97.8,71.8,272c0,0,0,177.2,-71.8,273.5c0,0,-71.8,96.2,-204.7,96.2c0,0,-131.4,0,-203.2,-96.2c0,0,-71.8,-96.3,-71.8,-273.5c0,0,0,-174.2,71.8,-270.4c0,0,71.8,-97.8,203.2,-97.8Zm0,-207.7c0,0,-267.4,0,-420.2,152.7c0,0,-152.7,154.3,-152.7,423.2c0,0,0,271.9,152.7,424.7c0,0,152.8,154.3,420.2,154.3c0,0,268.9,0,420.1,-152.8c0,0,152.8,-154.3,152.8,-426.2c0,0,0,-268.9,-151.3,-421.7c0,0,-152.7,-154.2,-421.6,-154.2Z" 
	id="f0_k"
	transform="scale(0.001,-0.001)" />

	<path d="M126.8,0l0,834.2l267.4,0l0,-136c0,0,51.9,81,117.6,119.2c0,0,67.2,38.2,160.4,38.2c0,0,13.8,0,29.1,-1.6c0,0,16.8,-1.5,45.8,-4.6l1.5,-242.9c0,0,-35.1,16.8,-70.3,24.5c0,0,-35.1,7.6,-70.2,7.6c0,0,-102.4,0,-157.4,-65.7c0,0,-56.5,-65.7,-56.5,-189.4L394.2,0Z" 
	id="f0_d"
	transform="scale(0.001,-0.001)" />

	<path d="M462.9,155.8c0,0,74.9,0,125.3,53.5c0,0,51.9,53.5,51.9,136l0,30.5l-137.5,0c0,0,-84,0,-125.2,-29c0,0,-42.8,-29,-42.8,-84c0,0,0,-50.4,33.6,-77.9c0,0,33.6,-29.1,94.7,-29.1ZM356,-21.3c0,0,-129.9,0,-210.9,74.8c0,0,-80.9,74.8,-80.9,197.1c0,0,0,146.6,100.8,215.4c0,0,102.4,68.7,317.8,68.7l157.3,0l0,19.9c0,0,0,64.2,-48.8,93.2c0,0,-50.5,29,-155.9,29c0,0,-85.5,0,-158.9,-16.8c0,0,-74.8,-16.8,-139,-51.9l0,204.7c0,0,85.6,19.8,172.6,30.5c0,0,87.1,12.3,172.7,12.3c0,0,226.1,0,326.9,-88.7c0,0,100.9,-90.1,100.9,-290.2L910.6,0L640.1,0l0,123.8c0,0,-53.4,-76.4,-120.7,-110c0,0,-67.2,-35.1,-163.4,-35.1Z" 
	id="f0_7"
	transform="scale(0.001,-0.001)" />

	<path d="M545.4,-21.3c0,0,-226.1,0,-352.9,114.5c0,0,-128.3,116.1,-128.3,322.4c0,0,0,207.7,126.8,323.8c0,0,128.3,116.2,354.4,116.2c0,0,65.7,0,129.9,-12.3c0,0,64.1,-12.2,126.8,-35.1l0,-216.9c0,0,-53.5,36.6,-108.5,55c0,0,-55,18.3,-114.6,18.3c0,0,-111.5,0,-172.6,-65.7c0,0,-62.6,-65.7,-62.6,-183.3c0,0,0,-116.2,61.1,-181.8c0,0,62.6,-65.7,174.1,-65.7c0,0,62.7,0,119.2,18.3c0,0,56.5,19.9,103.9,56.5l0,-218.5c0,0,-62.7,-24.4,-126.8,-35c0,0,-64.2,-10.7,-129.9,-10.7Z" 
	id="f0_l"
	transform="scale(0.001,-0.001)" />

	<path d="M126,0l0,1159l268,0L394,0Z" 
	id="f0_m"
	transform="scale(0.001,-0.001)" />

	<path d="M687.5,508.8c0,0,0,74.8,-44.3,120.6c0,0,-44.3,47.4,-116.1,47.4c0,0,-77.9,0,-126.8,-42.8c0,0,-48.9,-44.3,-59.6,-125.2ZM542.4,-21.3c0,0,-226.1,0,-351.4,114.5c0,0,-126.8,114.6,-126.8,322.4c0,0,0,204.7,123.7,322.3c0,0,123.8,117.7,340.7,117.7c0,0,197.1,0,314.7,-119.2c0,0,117.7,-119.2,117.7,-317.8l0,-74.8l-623.4,0c0,0,9.2,-94.8,67.3,-140.6c0,0,58,-47.4,163.4,-47.4c0,0,84.1,0,171.1,24.5c0,0,88.7,24.4,183.4,74.8l0,-204.7c0,0,-96.3,-36.6,-191,-53.4c0,0,-94.7,-18.3,-189.4,-18.3Z" 
	id="f0_b"
	transform="scale(0.001,-0.001)" />

	<path d="M139,0l0,1113l287,0L426,0Z" 
	id="f0_n"
	transform="scale(0.001,-0.001)" />

	<path d="M519.4,192.5c0,0,84.1,0,129.9,61.1c0,0,47.4,62.7,47.4,172.7c0,0,0,113,-45.9,174.1c0,0,-47.3,61.1,-131.4,61.1c0,0,-82.5,0,-128.3,-61.1c0,0,-45.8,-61.1,-45.8,-174.1c0,0,0,-114.6,44.3,-174.2c0,0,44.3,-59.6,129.8,-59.6ZM469,-328.4c0,0,-79.4,0,-151.2,10.7c0,0,-73.4,12.2,-148.2,36.7l0,209.3c0,0,70.3,-41.3,137.5,-61.1c0,0,67.2,-19.9,136,-19.9c0,0,129.8,0,190.9,58.1c0,0,62.7,58,62.7,178.6l0,56.6c0,0,-56.6,-73.4,-122.3,-107C574.4,33.6,508.8,0,420.1,0c0,0,-152.7,0,-252,119.2c0,0,-100.9,120.7,-100.9,307.1c0,0,0,187.9,99.3,307c0,0,100.9,120.7,253.6,120.7c0,0,88.7,0,154.3,-33.6c0,0,65.7,-35.1,122.3,-110l0,123.8l267.3,0L964,84c0,0,0,-200,-126.8,-305.4c0,0,-126.8,-107,-368.2,-107Z" 
	id="f0_f"
	transform="scale(0.001,-0.001)" />

	<path d="M126,0l0,834l268,0L394,0Zm0,942l0,217l268,0l0,-217Z" 
	id="f0_h"
	transform="scale(0.001,-0.001)" />

	<path d="M82,330l0,216l468,0l0,-216Z" 
	id="f0_o"
	transform="scale(0.001,-0.001)" />

	<path d="M519.4,171.1c0,0,85.6,0,131.4,62.7c0,0,45.9,62.6,45.9,181.8c0,0,0,120.7,-45.9,183.3c0,0,-45.8,62.6,-131.4,62.6c0,0,-84,0,-128.3,-62.6c0,0,-45.8,-62.6,-45.8,-183.3c0,0,0,-119.2,44.3,-181.8c0,0,45.8,-62.7,129.8,-62.7ZM696.7,-317.7l0,438.4c0,0,-56.6,-74.9,-122.3,-108.5c0,0,-65.6,-33.5,-154.3,-33.5c0,0,-154.3,0,-253.6,122.1c0,0,-99.3,122.3,-99.3,314.8c0,0,0,194,99.3,316.2c0,0,99.3,122.2,253.6,122.2c0,0,88.7,0,154.3,-33.6c0,0,65.7,-35.1,122.3,-110l0,123.8l267.3,0l0,-1151.9Z" 
	id="f0_p"
	transform="scale(0.001,-0.001)" />

	<path d="M414,-21.3c0,0,-143.6,0,-218.4,88.5c0,0,-76.4,88.6,-76.4,256.7l0,510.3l267.3,0l0,-82.5c0,0,0,-68.8,0,-171.1c0,0,-1.5,-102.4,-1.5,-136c0,0,0,-100.8,4.6,-145.2c0,0,6.1,-45.8,19.8,-65.6c0,0,15.3,-26,41.3,-39.8c0,0,27.5,-13.7,61.1,-13.7c0,0,84,0,131.4,64.1c0,0,48.9,64.2,48.9,177.3l0,412.5l265.8,0L957.9,0L692.1,0l0,120.7c0,0,-61.1,-73.3,-128.3,-106.9c0,0,-67.3,-35.1,-149.8,-35.1Z" 
	id="f0_q"
	transform="scale(0.001,-0.001)" />

	<path d="M444.6,-21.3c0,0,-84,0,-171.1,12.2c0,0,-88.6,12.2,-181.8,39.7l0,201.6c0,0,79.4,-38.2,163.4,-56.5c0,0,84.1,-19.9,169.6,-19.9c0,0,79.5,0,117.7,21.4c0,0,39.7,21.4,39.7,64.2c0,0,0,35.1,-26,51.9c0,0,-27.5,18.4,-110,27.5l-45.8,6.1c0,0,-178.8,23,-250.6,82.5c0,0,-71.8,61.2,-71.8,184.9c0,0,0,132.9,90.2,197.1c0,0,91.6,64.2,279.5,64.2c0,0,74.9,0,155.9,-10.7c0,0,80.9,-12.3,177.2,-36.7l0,-203.2c0,0,-85.6,36.7,-165,53.5c0,0,-81,18.3,-151.3,18.3c0,0,-76.3,0,-113,-18.3c0,0,-36.7,-19.9,-36.7,-58.1c0,0,0,-32.1,27.5,-48.9c0,0,27.5,-18.3,100.9,-25.9l45.8,-7.7c0,0,206.2,-26,276.5,-85.5c0,0,70.3,-59.6,70.3,-186.4c0,0,0,-134.5,-97.8,-200.2c0,0,-99.3,-67.1,-293.3,-67.1Z" 
	id="f0_a"
	transform="scale(0.001,-0.001)" />

	<path d="M519.4,171.1c0,0,85.6,0,131.4,62.7c0,0,45.9,62.6,45.9,181.8c0,0,0,120.7,-45.9,183.3c0,0,-45.8,62.6,-131.4,62.6c0,0,-84,0,-128.3,-62.6c0,0,-45.8,-62.6,-45.8,-183.3c0,0,0,-119.2,44.3,-181.8c0,0,45.8,-62.7,129.8,-62.7ZM420.1,-21.3c0,0,-154.3,0,-253.6,122.1c0,0,-99.3,122.3,-99.3,314.8c0,0,0,194,99.3,316.2c0,0,99.3,123.8,253.6,123.8c0,0,87.1,0,152.8,-35.2c0,0,67.2,-35.1,123.8,-108.5l0,447.7l267.3,0L964,0L696.7,0l0,120.7c0,0,-56.6,-74.9,-122.3,-108.5c0,0,-65.6,-33.5,-154.3,-33.5Z" 
	id="f0_r"
	transform="scale(0.001,-0.001)" />

	<path d="M456.8,-21.3c0,0,-77.9,0,-166.5,16.8c0,0,-90.2,18.3,-186.4,53.4l0,154.3c0,0,91.7,-50.4,180.3,-76.4c0,0,88.6,-27.5,172.6,-27.5c0,0,129.9,0,200.1,50.4c0,0,70.3,52,70.3,145.2c0,0,0,82.5,-50.4,128.3c0,0,-50.4,47.4,-166.5,70.3l-91.7,16.8c0,0,-168,33.6,-242.9,105.4c0,0,-76.4,71.8,-76.4,200.1c0,0,0,146.7,103.9,232.3c0,0,105.4,85.5,287.2,85.5c0,0,79.5,0,160.4,-13.7c0,0,81,-15.3,166.6,-42.8l0,-148.2c0,0,-85.6,41.2,-162,61.1c0,0,-76.4,21.4,-146.6,21.4c0,0,-123.8,0,-189.5,-47.4c0,0,-67.2,-48.9,-67.2,-137.5c0,0,0,-73.3,44.3,-110c0,0,44.3,-38.2,168,-61.1l90.2,-19.8c0,0,169.6,-32.1,249,-111.6c0,0,81,-80.9,81,-216.9c0,0,0,-162,-108.5,-244.5c0,0,-108.5,-83.9,-319.3,-83.9Z" 
	id="f1_z"
	transform="scale(0.001,-0.001)" />

	<path d="M230.7,490.4l490.4,1.5c0,0,-1.5,111.6,-62.6,178.8c0,0,-62.7,67.2,-163.5,67.2c0,0,-114.6,0,-183.3,-64.1c0,0,-70.3,-65.7,-81,-183.4ZM516.4,-21.3c0,0,-198.6,0,-314.7,116C201.7,94.7,84,210.8,84,409.4c0,0,0,204.8,110,325.5c0,0,111.6,120.7,299.5,120.7c0,0,168,0,265.8,-108.5c0,0,99.3,-110,99.3,-296.4l0,-67.2l-632.5,0c0,0,9.2,-140.6,85.6,-213.9c0,0,76.4,-74.9,213.9,-74.9c0,0,77.9,0,152.7,18.4c0,0,74.9,19.8,148.2,58l0,-129.8c0,0,-74.8,-30.6,-151.2,-45.8c0,0,-77.9,-16.8,-158.9,-16.8Z" 
	id="f1_b"
	transform="scale(0.001,-0.001)" />

	<path d="M495,-21.3c0,0,-189.4,0,-299.4,117.6C195.6,96.3,84,215.4,84,415.6c0,0,0,204.7,111.6,322.3c0,0,113,117.7,308.6,117.7c0,0,62.6,0,122.2,-13.8c0,0,61.1,-13.7,117.6,-39.7l0,-128.3c0,0,-58,32,-116.1,47.3c0,0,-58,16.8,-119.1,16.8c0,0,-133,0,-206.3,-84c0,0,-74.9,-84,-74.9,-238.3c0,0,0,-152.8,73.4,-236.8c0,0,74.8,-84.1,207.8,-84.1c0,0,61.1,0,119.1,15.3c0,0,58.1,16.8,116.1,48.9L744,30.6c0,0,-56.5,-26,-117.6,-38.1c0,0,-62.6,-13.8,-131.4,-13.8Z" 
	id="f1_6"
	transform="scale(0.001,-0.001)" />

	<path d="M420.1,0c0,0,-158.8,0,-218.4,58.1c0,0,-61.1,59.5,-61.1,216.9l0,453.8l-100.9,0l0,105.4l100.9,0l0,238.3l139,0l0,-238.3l282.6,0l0,-105.4l-282.6,0l0,-453.8c0,0,0,-102.4,27.5,-131.4c0,0,27.5,-29,113,-29l142.1,0L562.2,0Z" 
	id="f1_c"
	transform="scale(0.001,-0.001)" />

	<path d="M143,0l0,834l138,0L281,0Zm0,985l0,174l138,0l0,-174Z" 
	id="f1_d"
	transform="scale(0.001,-0.001)" />

	<path d="M467.5,94.7c0,0,108.5,0,172.6,85.6c0,0,64.2,87.1,64.2,235.3c0,0,0,149.7,-64.2,235.2c0,0,-64.1,87.1,-172.6,87.1c0,0,-111.5,0,-175.7,-85.5c0,0,-64.2,-85.6,-64.2,-236.8c0,0,0,-149.8,64.2,-235.3c0,0,64.2,-85.6,175.7,-85.6Zm0,-116c0,0,-180.3,0,-281.1,116C186.4,94.7,84,210.8,84,415.6c0,0,0,206.2,100.9,322.3c0,0,102.3,117.7,282.6,117.7c0,0,178.8,0,281.1,-116.2c0,0,102.4,-117.6,102.4,-323.8c0,0,0,-204.8,-102.4,-320.9c0,0,-102.3,-116,-281.1,-116Z" 
	id="f1_7"
	transform="scale(0.001,-0.001)" />

	<path d="M137.5,0l0,834.2l139,0l0,-129.9c0,0,48.9,76.4,114.6,113.1c0,0,67.2,38.2,154.3,38.2c0,0,145.2,0,218.5,-88.7c0,0,73.3,-90.1,73.3,-262.7L837.2,0L699.7,0l0,499.6c0,0,0,117.6,-45.8,175.7c0,0,-45.8,59.6,-139,59.6c0,0,-110,0,-174.2,-70.3c0,0,-64.2,-70.3,-64.2,-192.5L276.5,0Z" 
	id="f1_4"
	transform="scale(0.001,-0.001)" />

	<path d="M111.5,0l0,126.8c0,0,85.6,88.6,233.8,236.8c0,0,148.2,149.7,186.4,194c0,0,71.8,81,100.8,137.5c0,0,29,56.6,29,110c0,0,0,88.7,-62.6,145.2c0,0,-62.6,56.5,-162,56.5c0,0,-71.8,0,-149.7,-24.4c0,0,-79.4,-26,-168,-74.9l0,151.3c0,0,90.1,36.6,169.6,55c0,0,79.4,19.8,145.1,19.8c0,0,172.6,0,275,-87.1c0,0,103.9,-87.1,103.9,-230.7c0,0,0,-68.7,-26,-129.8c0,0,-26,-62.7,-93.2,-145.2c0,0,-19.8,-22.9,-119.2,-125.2c0,0,-99.3,-103.9,-282.6,-288.8l527.1,0L818.9,0Z" 
	id="f1_t"
	transform="scale(0.001,-0.001)" />

	<path d="M481.3,123.8c0,0,230.6,0,337.6,103.8c0,0,106.9,103.9,106.9,330c0,0,0,223.1,-106.9,327c0,0,-107,103.9,-337.6,103.9l-181.9,0l0,-864.7ZM149.7,0l0,1113.8l308.6,0c0,0,323.9,0,475.2,-134.5c0,0,151.2,-136,151.2,-421.7c0,0,0,-288.7,-151.2,-423.2C933.5,134.4,780.7,0,458.3,0Z" 
	id="f1_16"
	transform="scale(0.001,-0.001)" />

	<path d="M421.7,-21.3c0,0,-143.6,0,-218.5,88.5L128.3,328.5l0,505.7l137.5,0l0,-499.6c0,0,0,-119.2,45.9,-178.8c0,0,47.3,-59.5,139,-59.5c0,0,111.5,0,175.7,70.2c0,0,65.7,71.8,65.7,194.1l0,473.6l136,0L828.1,0l-136,0l0,126.8c0,0,-50.4,-74.9,-116.1,-111.5c0,0,-67.2,-36.6,-154.3,-36.6Z" 
	id="f1_i"
	transform="scale(0.001,-0.001)" />

	<path d="M137.5,0l0,834.2l139,0l0,-129.9c0,0,42.8,76.4,111.6,113.1c0,0,70.2,38.2,169.5,38.2c0,0,13.8,0,30.6,-1.6c0,0,16.8,-3,38.2,-6.1l1.5,-142.1c0,0,-24.4,13.8,-50.4,19.9c0,0,-27.5,6.1,-61.1,6.1c0,0,-116.1,0,-177.2,-74.9c0,0,-62.7,-76.3,-62.7,-216.9l0,-440Z" 
	id="f1_l"
	transform="scale(0.001,-0.001)" />

	<path d="M407.9,93.2c0,0,113.1,0,181.8,79.4c0,0,70.3,81,70.3,215.5l0,30.5l-137.5,0c0,0,-166.5,0,-230.7,-36.7c0,0,-64.2,-38.1,-64.2,-129.8c0,0,0,-73.3,47.4,-116.1c0,0,48.9,-42.8,132.9,-42.8ZM371.3,-21.3c0,0,-128.4,0,-203.2,71.7c0,0,-76.4,71.8,-76.4,192.5c0,0,0,140.6,93.2,212.4c0,0,94.7,71.8,282.6,71.8l192.5,0l0,13.7c0,0,0,94.8,-62.6,145.2c0,0,-62.7,51.9,-175.7,51.9c0,0,-71.8,0,-139.1,-16.8c0,0,-67.2,-16.8,-129.8,-51.9l0,126.8c0,0,74.8,30.5,145.1,44.3c0,0,71.8,15.3,139,15.3c0,0,180.3,0,268.9,-93.2c0,0,90.2,-94.8,90.2,-285.7L796,0L660,0l0,126.8c0,0,-47.4,-76.4,-117.6,-111.5c0,0,-70.3,-36.6,-171.1,-36.6Z" 
	id="f1_k"
	transform="scale(0.001,-0.001)" />

	<path d="M178,0l0,189l158,0L336,0Zm0,600l0,189l158,0l0,-189Z" 
	id="f1_n"
	transform="scale(0.001,-0.001)" />

	<path d="M412.5,-21.3c0,0,-68.7,0,-143.6,12.2c0,0,-74.9,13.7,-152.8,41.2l0,146.7c0,0,62.7,-36.7,136,-55c0,0,74.8,-19.9,157.3,-19.9c0,0,140.6,0,215.5,56.5c0,0,74.8,56.5,74.8,162c0,0,0,99.3,-68.7,154.3c0,0,-70.3,56.5,-192.5,56.5l-129.9,0l0,123.7l136,0c0,0,110,0,168,44.4c0,0,59.6,44.3,59.6,126.8c0,0,0,87,-59.6,132.9c0,0,-61.1,45.8,-174.1,45.8c0,0,-62.7,0,-132.9,-13.7c0,0,-71.8,-13.8,-155.9,-41.3l0,132.9c0,0,85.6,24.5,160.4,36.7c0,0,74.9,12.2,140.6,12.2c0,0,172.6,0,271.9,-77.9c0,0,100.9,-77.9,100.9,-210.8c0,0,0,-93.2,-53.5,-155.9c0,0,-53.5,-64.1,-151.2,-88.6c0,0,108.4,-24.4,169.5,-96.2c0,0,61.1,-73.4,61.1,-181.8c0,0,0,-163.5,-113,-253.6c0,0,-114.6,-90.1,-323.9,-90.1Z" 
	id="f1_y"
	transform="scale(0.001,-0.001)" />

	<path d="M484.3,96.3c0,0,117.6,0,175.7,114.5c0,0,59.6,114.6,59.6,343.8c0,0,0,230.7,-58.1,345.3c0,0,-59.6,114.5,-177.2,114.5c0,0,-116.1,0,-174.2,-114.5c0,0,-58,-114.6,-58,-345.3c0,0,0,-229.2,58,-343.8c0,0,58.1,-114.5,174.2,-114.5Zm0,-117.6c0,0,-186.4,0,-285.7,146.6c0,0,-99.3,148.2,-99.3,429.3c0,0,0,282.6,99.3,430.8c0,0,99.3,148.2,285.7,148.2c0,0,187.9,0,285.7,-148.2c0,0,99.3,-148.2,99.3,-430.8c0,0,0,-281.1,-97.8,-427.8c0,0,-99.3,-148.1,-287.2,-148.1Z" 
	id="f1_1j"
	transform="scale(0.001,-0.001)" />

	<path d="M137.5,0l0,834.2l139,0l0,-129.9c0,0,45.9,77.9,111.6,114.6c0,0,65.7,36.7,155.8,36.7c0,0,91.7,0,154.3,-45.9c0,0,64.2,-47.3,96.2,-135.9c0,0,50.5,93.1,122.3,137.5c0,0,71.8,44.3,168,44.3c0,0,131.4,0,201.7,-91.7c0,0,71.8,-91.7,71.8,-259.7L1358.2,0l-139,0l0,499.6c0,0,0,119.2,-41.3,177.2c0,0,-42.8,58.1,-129.8,58.1c0,0,-107,0,-168.1,-70.3c0,0,-62.6,-70.3,-62.6,-192.5L817.4,0L678.3,0l0,499.6c0,0,0,120.7,-41.2,177.2c0,0,-42.8,58.1,-131.4,58.1c0,0,-105.4,0,-166.5,-70.3c0,0,-62.7,-71.8,-62.7,-192.5L276.5,0Z" 
	id="f1_8"
	transform="scale(0.001,-0.001)" />


</defs>
</svg>