<?xml version="1.0" encoding="UTF-8" standalone="no"?>
<!DOCTYPE svg PUBLIC "-//W3C//DTD SVG 1.1//EN"
"http://www.w3.org/Graphics/SVG/1.1/DTD/svg11.dtd">
<svg viewBox="0 0 1210 1210" version="1.1" xmlns="http://www.w3.org/2000/svg" xmlns:xlink="http://www.w3.org/1999/xlink">
<defs>
<style type="text/css"><![CDATA[
.g2_58{
fill: none;
stroke: #418AB3;
stroke-width: 2;
stroke-linecap: butt;
stroke-linejoin: miter;
stroke-miterlimit: 7;
}
.g3_58{
fill: none;
stroke: #0000EE;
stroke-width: 2;
stroke-linecap: butt;
stroke-linejoin: miter;
}
.g1_58{
fill: #FFFFFF;
}
]]></style>
</defs>
<path fill-rule="evenodd" d="M0,0L1210,0l0,1210L0,1210L0,0Z" class="g1_58" />
<path fill-rule="evenodd" d="M0,0L1210,0l0,1210L0,1210L0,0Z" class="g1_58" />
<path fill-rule="evenodd" d="M199.4,345.3l0,-0.8l0,-0.9l0.1,-0.8l0.2,-0.7l0.1,-0.8l0.3,-0.8l0.2,-0.7l0.3,-0.8l0.5,-0.7l0.3,-0.7l0.4,-0.7l0.5,-0.6l0.4,-0.6l0.5,-0.7l0.6,-0.6l0.6,-0.4l0.6,-0.6l0.6,-0.5l0.7,-0.5L207,332l0.6,-0.3l0.8,-0.3l0.8,-0.3l0.7,-0.3l0.8,-0.3l0.7,-0.2l0.8,-0.1l0.8,0l0.7,-0.2l1,0l785.2,0l0.8,0l0.8,0.2l0.7,0l0.8,0.1l0.8,0.2l0.9,0.3l0.6,0.3l0.7,0.3l0.8,0.3l0.8,0.3l0.6,0.4l0.6,0.5l0.6,0.5l0.6,0.6l0.6,0.4l0.6,0.6l0.5,0.7l0.5,0.6l0.4,0.7l0.5,0.6l0.3,0.7l0.4,0.7l0.3,0.8l0.2,0.7l0.3,0.8l0.2,0.8l0.1,0.7l0.2,0.8l0,0.9l0,0.8l0.1,61.1l-0.1,0.8l0,0.9l0,0.7l-0.3,0.8l-0.2,0.8l-0.2,0.7l-0.3,0.8l-0.3,0.8l-0.3,0.6l-0.4,0.7l-0.3,0.6l-0.6,0.6l-0.5,0.8l-0.5,0.6l-0.6,0.5l-0.4,0.6l-0.6,0.5l-0.8,0.6l-0.6,0.3l-0.6,0.4l-0.8,0.5l-0.8,0.3l-0.7,0.3l-0.6,0.3l-0.9,0.2l-0.8,0.1l-0.8,0.2l-0.7,0.1l-0.8,0.2l-0.8,0l-785.2,0l-1,0l-0.7,0l-0.8,-0.2l-0.8,-0.1l-0.7,-0.2l-0.8,-0.3l-0.7,-0.1l-0.8,-0.5L207.6,420L207,419.7l-0.7,-0.5l-0.7,-0.4L205,418.3l-0.6,-0.6l-0.6,-0.5l-0.6,-0.6L202.7,416l-0.4,-0.6l-0.5,-0.8L201.4,414l-0.3,-0.7l-0.5,-0.6l-0.3,-0.8l-0.2,-0.8l-0.3,-0.7l-0.1,-0.8l-0.2,-0.8l-0.1,-0.7l0,-0.9l0,-0.8l0,-61.1Z" class="g1_58" />
<path d="M199.4,345.3l0,-0.8l0,-0.9l0.1,-0.8l0.2,-0.7l0.1,-0.8l0.3,-0.8l0.2,-0.7l0.3,-0.8l0.5,-0.7l0.3,-0.7l0.4,-0.7l0.5,-0.6l0.4,-0.6l0.5,-0.7l0.6,-0.6l0.6,-0.4l0.6,-0.6l0.6,-0.5l0.7,-0.5L207,332l0.6,-0.3l0.8,-0.3l0.8,-0.3l0.7,-0.3l0.8,-0.3l0.7,-0.2l0.8,-0.1l0.8,0l0.7,-0.2l1,0l785.2,0l0.8,0l0.8,0.2l0.7,0l0.8,0.1l0.8,0.2l0.9,0.3l0.6,0.3l0.7,0.3l0.8,0.3l0.8,0.3l0.6,0.4l0.6,0.5l0.6,0.5l0.6,0.6l0.6,0.4l0.6,0.6l0.5,0.7l0.5,0.6l0.4,0.7l0.5,0.6l0.3,0.7l0.4,0.7l0.3,0.8l0.2,0.7l0.3,0.8l0.2,0.8l0.1,0.7l0.2,0.8l0,0.9l0,0.8l0.1,61.1l-0.1,0.8l0,0.9l0,0.7l-0.3,0.8l-0.2,0.8l-0.2,0.7l-0.3,0.8l-0.3,0.8l-0.3,0.6l-0.4,0.7l-0.3,0.6l-0.6,0.6l-0.5,0.8l-0.5,0.6l-0.6,0.5l-0.4,0.6l-0.6,0.5l-0.8,0.6l-0.6,0.3l-0.6,0.4l-0.8,0.5l-0.8,0.3l-0.7,0.3l-0.6,0.3l-0.9,0.2l-0.8,0.1l-0.8,0.2l-0.7,0.1l-0.8,0.2l-0.8,0l-785.2,0l-1,0l-0.7,0l-0.8,-0.2l-0.8,-0.1l-0.7,-0.2l-0.8,-0.3l-0.7,-0.1l-0.8,-0.5L207.6,420L207,419.7l-0.7,-0.5l-0.7,-0.4L205,418.3l-0.6,-0.6l-0.6,-0.5l-0.6,-0.6L202.7,416l-0.4,-0.6l-0.5,-0.8L201.4,414l-0.3,-0.7l-0.5,-0.6l-0.3,-0.8l-0.2,-0.8l-0.3,-0.7l-0.1,-0.8l-0.2,-0.8l-0.1,-0.7l0,-0.9l0,-0.8l0,-61.1Z" class="g2_58" />
<path d="M308,401l65,0" class="g3_58" />
<path d="M373,401l396,0" class="g3_58" />
<path d="M769,401l6,0" class="g3_58" />
</svg>