<?xml version="1.0" encoding="UTF-8" standalone="no"?>
<!DOCTYPE svg PUBLIC "-//W3C//DTD SVG 1.1//EN"
"http://www.w3.org/Graphics/SVG/1.1/DTD/svg11.dtd">
<svg viewBox="0 0 1210 1210" version="1.1" xmlns="http://www.w3.org/2000/svg" xmlns:xlink="http://www.w3.org/1999/xlink">
<defs>
<style type="text/css"><![CDATA[
.g2_2{
fill: none;
stroke: #418AB3;
stroke-width: 2;
stroke-linecap: butt;
stroke-linejoin: miter;
stroke-miterlimit: 7;
}
.g3_2{
fill: none;
stroke: #0000EE;
stroke-width: 2;
stroke-linecap: butt;
stroke-linejoin: miter;
}
.g4_2{
fill: #B1D1E3;
}
.g1_2{
fill: #FFFFFF;
}
]]></style>
</defs>
<path fill-rule="evenodd" d="M0,0L1210,0l0,1210L0,1210L0,0Z" class="g1_2" />
<path fill-rule="evenodd" d="M0,0L1210,0l0,1210L0,1210L0,0Z" class="g1_2" />
<path fill-rule="evenodd" d="M192.5,208.1l0,-0.9l0,-0.9l0.2,-1l0.1,-0.9l0.3,-0.9l0.2,-0.9l0.3,-0.8l0.4,-0.9l0.3,-0.8l0.5,-0.9l0.5,-0.7l0.6,-0.8l0.6,-0.8l0.4,-0.6l0.8,-0.7l0.6,-0.7l0.8,-0.6l0.6,-0.4l0.7,-0.6l1,-0.5l0.7,-0.5l0.8,-0.4l0.9,-0.3l0.9,-0.3l0.8,-0.3l0.9,-0.2l0.9,-0.1l0.9,-0.2l1,0l0.9,-0.1l833.4,0l0.7,0.1l1.1,0l0.9,0.2l0.9,0.1l0.8,0.2l0.9,0.3l0.9,0.3l1,0.4l0.7,0.3l0.8,0.5l0.7,0.5l0.8,0.6l0.8,0.4l0.7,0.6l0.6,0.7l0.7,0.7l0.6,0.6l0.6,0.8l0.4,0.8l0.7,0.7l0.3,0.9l0.4,0.8l0.3,0.9l0.3,0.8l0.3,0.9l0.2,0.9l0.1,0.9l0.2,1l0.1,0.9l0,0.9l0,70.7l0,0.9l0,1l-0.1,0.9l-0.2,0.9l-0.3,0.9l-0.1,0.9l-0.3,0.9l-0.5,0.8l-0.3,0.9l-0.4,0.8l-0.5,0.7l-0.6,0.8l-0.6,0.8l-0.5,0.6l-0.8,0.7l-0.6,0.7l-0.7,0.6l-0.6,0.4l-1,0.6l-0.7,0.5l-0.8,0.5l-0.7,0.4l-1,0.3l-0.9,0.3l-0.7,0.3l-1,0.2l-0.9,0.1l-0.9,0.2l-1.1,0l-0.7,0.1l-833.4,0l-0.9,0l-1,0l-0.9,-0.1l-0.9,-0.2l-0.9,-0.3l-0.8,-0.3l-0.9,-0.1L202.9,295l-0.8,-0.4l-0.7,-0.4l-1,-0.6l-0.7,-0.4l-0.6,-0.6L198.3,292l-0.6,-0.7l-0.8,-0.6L196.5,290l-0.6,-0.8l-0.6,-0.8l-0.5,-0.7l-0.5,-0.8L194,286l-0.4,-0.8l-0.3,-0.9l-0.2,-0.9l-0.3,-0.9l-0.1,-0.9l-0.2,-0.9l0,-1l0,-0.9l0,-70.7Z" class="g1_2" />
<path d="M192.5,208.1l0,-0.9l0,-0.9l0.2,-1l0.1,-0.9l0.3,-0.9l0.2,-0.9l0.3,-0.8l0.4,-0.9l0.3,-0.8l0.5,-0.9l0.5,-0.7l0.6,-0.8l0.6,-0.8l0.4,-0.6l0.8,-0.7l0.6,-0.7l0.8,-0.6l0.6,-0.4l0.7,-0.6l1,-0.5l0.7,-0.5l0.8,-0.4l0.9,-0.3l0.9,-0.3l0.8,-0.3l0.9,-0.2l0.9,-0.1l0.9,-0.2l1,0l0.9,-0.1l833.4,0l0.7,0.1l1.1,0l0.9,0.2l0.9,0.1l0.8,0.2l0.9,0.3l0.9,0.3l1,0.4l0.7,0.3l0.8,0.5l0.7,0.5l0.8,0.6l0.8,0.4l0.7,0.6l0.6,0.7l0.7,0.7l0.6,0.6l0.6,0.8l0.4,0.8l0.7,0.7l0.3,0.9l0.4,0.8l0.3,0.9l0.3,0.8l0.3,0.9l0.2,0.9l0.1,0.9l0.2,1l0.1,0.9l0,0.9l0,70.7l0,0.9l0,1l-0.1,0.9l-0.2,0.9l-0.3,0.9l-0.1,0.9l-0.3,0.9l-0.5,0.8l-0.3,0.9l-0.4,0.8l-0.5,0.7l-0.6,0.8l-0.6,0.8l-0.5,0.6l-0.8,0.7l-0.6,0.7l-0.7,0.6l-0.6,0.4l-1,0.6l-0.7,0.5l-0.8,0.5l-0.7,0.4l-1,0.3l-0.9,0.3l-0.7,0.3l-1,0.2l-0.9,0.1l-0.9,0.2l-1.1,0l-0.7,0.1l-833.4,0l-0.9,0l-1,0l-0.9,-0.1l-0.9,-0.2l-0.9,-0.3l-0.8,-0.3l-0.9,-0.1L202.9,295l-0.8,-0.4l-0.7,-0.4l-1,-0.6l-0.7,-0.4l-0.6,-0.6L198.3,292l-0.6,-0.7l-0.8,-0.6L196.5,290l-0.6,-0.8l-0.6,-0.8l-0.5,-0.7l-0.5,-0.8L194,286l-0.4,-0.8l-0.3,-0.9l-0.2,-0.9l-0.3,-0.9l-0.1,-0.9l-0.2,-0.9l0,-1l0,-0.9l0,-70.7Z" class="g2_2" />
<path d="M310,269l65,0" class="g3_2" />
<path d="M375,269l409,0" class="g3_2" />
<path d="M784,269l6,0" class="g3_2" />
<path fill-rule="evenodd" d="M183.3,355.1l0,-0.7l0,-0.6l0.2,-0.6l0.1,-0.7l0.2,-0.7l0.1,-0.6l0.2,-0.6l0.3,-0.4l0.3,-0.6l0.3,-0.7l0.3,-0.6l0.3,-0.4l0.5,-0.5l0.3,-0.4l0.4,-0.5l0.5,-0.5l0.6,-0.4l0.5,-0.5l0.4,-0.3l0.6,-0.3l0.7,-0.3l0.4,-0.3l0.6,-0.1l0.6,-0.4l0.6,-0.1l0.7,-0.2l0.6,-0.1l0.7,0l0.6,-0.2l0.7,0l862.4,0l0.8,0l0.6,0.2l0.6,0l0.6,0.1l0.6,0.2l0.6,0.1l0.6,0.4l0.6,0.1l0.6,0.3l0.5,0.3l0.6,0.3l0.5,0.3l0.4,0.5l0.6,0.4l0.5,0.5l0.5,0.5l0.3,0.4l0.4,0.5l0.3,0.6l0.3,0.4l0.3,0.7l0.3,0.6l0.3,0.4l0.2,0.6l0.2,0.6l0.1,0.7l0.2,0.7l0,0.6l0.1,0.6l0,0.7l0.2,48.8l-0.2,0l0,0.7l0,0.6l-0.1,0.6l0,0.6l-0.3,0.8l-0.2,0.6l-0.2,0.6l-0.3,0.4l-0.3,0.6l-0.3,0.7l-0.3,0.4l-0.3,0.6l-0.4,0.5l-0.3,0.4l-0.5,0.5l-0.5,0.5l-0.6,0.4l-0.4,0.3l-0.5,0.5l-0.6,0.3l-0.5,0.3l-0.6,0.3l-0.6,0.1l-0.6,0.4l-0.6,0.1l-0.6,0.2L1060,416l-0.6,0l-0.6,0.2l-0.8,0l-862.4,0l-0.7,0L194.3,416l-0.7,0L193,415.9l-0.7,-0.2l-0.6,-0.1l-0.6,-0.4l-0.6,-0.1l-0.4,-0.3l-0.7,-0.3l-0.6,-0.3l-0.4,-0.3l-0.5,-0.5L187.3,413l-0.5,-0.5L186.4,412l-0.3,-0.4l-0.5,-0.5l-0.3,-0.4L185,410.1l-0.3,-0.7l-0.3,-0.6l-0.3,-0.4l-0.2,-0.6l-0.1,-0.6l-0.2,-0.7l-0.1,-0.7l-0.2,-0.6l0,-0.6l0,-0.7l0,-48.8Z" class="g4_2" />
<path d="M183.3,355.1l0,-0.7l0,-0.6l0.2,-0.6l0.1,-0.7l0.2,-0.7l0.1,-0.6l0.2,-0.6l0.3,-0.4l0.3,-0.6l0.3,-0.7l0.3,-0.6l0.3,-0.4l0.5,-0.5l0.3,-0.4l0.4,-0.5l0.5,-0.5l0.6,-0.4l0.5,-0.5l0.4,-0.3l0.6,-0.3l0.7,-0.3l0.4,-0.3l0.6,-0.1l0.6,-0.4l0.6,-0.1l0.7,-0.2l0.6,-0.1l0.7,0l0.6,-0.2l0.7,0l862.4,0l0.8,0l0.6,0.2l0.6,0l0.6,0.1l0.6,0.2l0.6,0.1l0.6,0.4l0.6,0.1l0.6,0.3l0.5,0.3l0.6,0.3l0.5,0.3l0.4,0.5l0.6,0.4l0.5,0.5l0.5,0.5l0.3,0.4l0.4,0.5l0.3,0.6l0.3,0.4l0.3,0.7l0.3,0.6l0.3,0.4l0.2,0.6l0.2,0.6l0.1,0.7l0.2,0.7l0,0.6l0.1,0.6l0,0.7l0.2,48.8l-0.2,0l0,0.7l0,0.6l-0.1,0.6l0,0.6l-0.3,0.8l-0.2,0.6l-0.2,0.6l-0.3,0.4l-0.3,0.6l-0.3,0.7l-0.3,0.4l-0.3,0.6l-0.4,0.5l-0.3,0.4l-0.5,0.5l-0.5,0.5l-0.6,0.4l-0.4,0.3l-0.5,0.5l-0.6,0.3l-0.5,0.3l-0.6,0.3l-0.6,0.1l-0.6,0.4l-0.6,0.1l-0.6,0.2L1060,416l-0.6,0l-0.6,0.2l-0.8,0l-862.4,0l-0.7,0L194.3,416l-0.7,0L193,415.9l-0.7,-0.2l-0.6,-0.1l-0.6,-0.4l-0.6,-0.1l-0.4,-0.3l-0.7,-0.3l-0.6,-0.3l-0.4,-0.3l-0.5,-0.5L187.3,413l-0.5,-0.5L186.4,412l-0.3,-0.4l-0.5,-0.5l-0.3,-0.4L185,410.1l-0.3,-0.7l-0.3,-0.6l-0.3,-0.4l-0.2,-0.6l-0.1,-0.6l-0.2,-0.7l-0.1,-0.7l-0.2,-0.6l0,-0.6l0,-0.7l0,-48.8Z" class="g2_2" />
</svg>