<?xml version="1.0" encoding="UTF-8" standalone="no"?>
<!DOCTYPE svg PUBLIC "-//W3C//DTD SVG 1.1//EN"
"http://www.w3.org/Graphics/SVG/1.1/DTD/svg11.dtd">
<svg viewBox="0 0 1210 1210" version="1.1" xmlns="http://www.w3.org/2000/svg" xmlns:xlink="http://www.w3.org/1999/xlink">
<defs>
<style type="text/css"><![CDATA[
.g2_74{
fill: none;
stroke: #418AB3;
stroke-width: 2;
stroke-linecap: butt;
stroke-linejoin: miter;
stroke-miterlimit: 7;
}
.g3_74{
fill: none;
stroke: #0000EE;
stroke-width: 2;
stroke-linecap: butt;
stroke-linejoin: miter;
}
.g1_74{
fill: #FFFFFF;
}
]]></style>
</defs>
<path fill-rule="evenodd" d="M0,0L1210,0l0,1210L0,1210L0,0Z" class="g1_74" />
<path fill-rule="evenodd" d="M0,0L1210,0l0,1210L0,1210L0,0Z" class="g1_74" />
<path fill-rule="evenodd" d="M165,210.8l0,-1l0,-1l0.2,-0.9l0.1,-0.9l0.3,-0.9l0.3,-0.9l0.3,-0.9l0.3,-1l0.5,-0.9l0.4,-0.7l0.5,-0.9l0.6,-0.8l0.5,-0.8l0.6,-0.6l0.7,-0.8l0.7,-0.6l0.7,-0.6l0.8,-0.6l0.8,-0.6l0.9,-0.5l0.7,-0.4l0.9,-0.5l1,-0.3l0.7,-0.3l0.9,-0.3l1,-0.1l1,-0.3l0.9,0l1,-0.2l0.9,0l843.5,0l0.9,0l0.9,0.2l1.1,0l0.9,0.3l0.9,0.1l0.9,0.3l0.9,0.3l0.8,0.3l0.9,0.5l0.9,0.4l0.8,0.5l0.8,0.6l0.7,0.6l0.8,0.6l0.6,0.6l0.8,0.8l0.6,0.8l0.4,0.6l0.6,0.8l0.5,0.9l0.5,0.7l0.4,0.9l0.3,1l0.3,0.9l0.3,0.9l0.3,0.9l0.2,0.9l0.1,0.9l0,1l0,1L1045,284l-0.2,0.9l0,0.9l-0.1,1l-0.2,1l-0.3,1l-0.1,0.9l-0.3,0.7l-0.5,0.9l-0.3,1l-0.4,0.7l-0.7,0.9l-0.4,0.8l-0.6,0.8l-0.6,0.7l-0.6,0.6l-0.8,0.7l-0.8,0.6l-0.7,0.6l-0.8,0.6l-0.8,0.5l-0.9,0.4l-0.7,0.5l-1,0.3l-0.9,0.3l-0.9,0.3l-0.9,0.1l-0.9,0.3l-1.1,0l-0.9,0.2l-0.9,0l-843.5,0.1l-0.9,-0.1l-1,0L180.4,302l-1,-0.1l-1,-0.2l-0.9,-0.3l-0.7,-0.3l-1,-0.4l-0.9,-0.3l-0.7,-0.6l-0.9,-0.5l-0.8,-0.5l-0.8,-0.6L171,297.6l-0.7,-0.8l-0.7,-0.6L169,295.5l-0.5,-0.8l-0.6,-0.8l-0.5,-0.7L167,292.3l-0.5,-1l-0.3,-0.7l-0.3,-0.9l-0.3,-0.9l-0.3,-1l-0.1,-1l-0.2,-1l0,-0.9l0,-0.9l0,-73.2Z" class="g1_74" />
<path d="M165,210.8l0,-1l0,-1l0.2,-0.9l0.1,-0.9l0.3,-0.9l0.3,-0.9l0.3,-0.9l0.3,-1l0.5,-0.9l0.4,-0.7l0.5,-0.9l0.6,-0.8l0.5,-0.8l0.6,-0.6l0.7,-0.8l0.7,-0.6l0.7,-0.6l0.8,-0.6l0.8,-0.6l0.9,-0.5l0.7,-0.4l0.9,-0.5l1,-0.3l0.7,-0.3l0.9,-0.3l1,-0.1l1,-0.3l0.9,0l1,-0.2l0.9,0l843.5,0l0.9,0l0.9,0.2l1.1,0l0.9,0.3l0.9,0.1l0.9,0.3l0.9,0.3l0.8,0.3l0.9,0.5l0.9,0.4l0.8,0.5l0.8,0.6l0.7,0.6l0.8,0.6l0.6,0.6l0.8,0.8l0.6,0.8l0.4,0.6l0.6,0.8l0.5,0.9l0.5,0.7l0.4,0.9l0.3,1l0.3,0.9l0.3,0.9l0.3,0.9l0.2,0.9l0.1,0.9l0,1l0,1L1045,284l-0.2,0.9l0,0.9l-0.1,1l-0.2,1l-0.3,1l-0.1,0.9l-0.3,0.7l-0.5,0.9l-0.3,1l-0.4,0.7l-0.7,0.9l-0.4,0.8l-0.6,0.8l-0.6,0.7l-0.6,0.6l-0.8,0.7l-0.8,0.6l-0.7,0.6l-0.8,0.6l-0.8,0.5l-0.9,0.4l-0.7,0.5l-1,0.3l-0.9,0.3l-0.9,0.3l-0.9,0.1l-0.9,0.3l-1.1,0l-0.9,0.2l-0.9,0l-843.5,0.1l-0.9,-0.1l-1,0L180.4,302l-1,-0.1l-1,-0.2l-0.9,-0.3l-0.7,-0.3l-1,-0.4l-0.9,-0.3l-0.7,-0.6l-0.9,-0.5l-0.8,-0.5l-0.8,-0.6L171,297.6l-0.7,-0.8l-0.7,-0.6L169,295.5l-0.5,-0.8l-0.6,-0.8l-0.5,-0.7L167,292.3l-0.5,-1l-0.3,-0.7l-0.3,-0.9l-0.3,-0.9l-0.3,-1l-0.1,-1l-0.2,-1l0,-0.9l0,-0.9l0,-73.2Z" class="g2_74" />
<path d="M308,273l47,0" class="g3_74" />
<path d="M355,273l19,0" class="g3_74" />
<path d="M374,273l384,0" class="g3_74" />
<path d="M758,273l6,0" class="g3_74" />
<image x="91" y="330" width="866" height="415" xlink:href="img/1.png" />
</svg>