<?xml version="1.0" encoding="UTF-8" standalone="no"?>
<!DOCTYPE svg PUBLIC "-//W3C//DTD SVG 1.1//EN"
"http://www.w3.org/Graphics/SVG/1.1/DTD/svg11.dtd">
<svg viewBox="0 0 1100 825" version="1.1" xmlns="http://www.w3.org/2000/svg" xmlns:xlink="http://www.w3.org/1999/xlink">
<defs>
<style type="text/css"><![CDATA[
.g2_130{
fill: none;
stroke: #418AB3;
stroke-width: 2;
stroke-linecap: butt;
stroke-linejoin: miter;
stroke-miterlimit: 7;
}
.g1_130{
fill: #FFFFFF;
}
]]></style>
</defs>
<path fill-rule="evenodd" d="M0,0L1100,0l0,825L0,825L0,0Z" class="g1_130" />
<path fill-rule="evenodd" d="M0,0L1100,0l0,825L0,825L0,0Z" class="g1_130" />
<image x="753" y="777" width="303" height="38" xlink:href="img/1.png" />
<path fill-rule="evenodd" d="M916.8,11.8l0,-0.3l0,-0.3l0,-0.4L917,10.5l0,-0.1l0,-0.3l0.1,-0.3l0.2,-0.3l0.1,-0.2l0,-0.3l0.3,-0.3l0,-0.1L918,8.3l0.2,-0.2l0.1,-0.3l0.4,-0.2l0.1,-0.1l0.3,-0.2l0.2,-0.1L919.6,7l0.3,-0.1L920,6.7l0.3,-0.1l0.3,0l0.3,-0.2l0.2,0l0.3,-0.1l0.3,0l0.3,0l0.3,0l167.6,0l0.3,0l0.3,0l0.3,0l0.3,0.1l0.3,0l0.2,0.2l0.3,0l0.3,0.1l0.3,0.2l0.2,0.1l0.3,0.2l0.1,0.1l0.3,0.2l0.2,0.1l0.3,0.3l0.1,0.2l0.2,0.2l0.1,0.3l0.4,0.3l0,0.1l0.1,0.3l0.2,0.2l0.1,0.3l0.2,0.3l0,0.3l0,0.3l0.1,0.1l0,0.4l0,0.3l0,0.3l0.2,22.3l0,0.3l-0.2,0.1l0,0.3l0,0.3l-0.1,0.3l0,0.4l-0.2,0.3l-0.1,0.1l0,0.3l-0.2,0.3l-0.1,0.2l-0.4,0.3l-0.1,0.1l-0.2,0.3l-0.1,0.2l-0.3,0.1l-0.2,0.3l-0.3,0.2l-0.1,0.2l-0.3,0.1l-0.2,0.2l-0.3,0l-0.3,0.1l-0.3,0.2l-0.2,0l-0.3,0.1l-0.3,0l-0.3,0l-0.3,0.2l-0.3,0l-167.6,0l-0.3,0l-0.3,0l-0.3,-0.2l-0.3,0l-0.2,0l-0.3,-0.1l-0.3,-0.2l-0.3,0L919.9,39l-0.3,-0.2l-0.3,-0.1l-0.2,-0.2l-0.3,-0.2L918.7,38l-0.4,-0.1l-0.1,-0.2L918,37.4l-0.3,-0.1l0,-0.3l-0.3,-0.2l0,-0.3l-0.1,-0.3l-0.2,-0.1L917,35.8l0,-0.4l0,-0.3l-0.2,-0.3l0,-0.3l0,-0.1l0,-0.3l0,-22.3Z" class="g1_130" />
<path d="M916.8,11.8l0,-0.3l0,-0.3l0,-0.4L917,10.5l0,-0.1l0,-0.3l0.1,-0.3l0.2,-0.3l0.1,-0.2l0,-0.3l0.3,-0.3l0,-0.1L918,8.3l0.2,-0.2l0.1,-0.3l0.4,-0.2l0.1,-0.1l0.3,-0.2l0.2,-0.1L919.6,7l0.3,-0.1L920,6.7l0.3,-0.1l0.3,0l0.3,-0.2l0.2,0l0.3,-0.1l0.3,0l0.3,0l0.3,0l167.6,0l0.3,0l0.3,0l0.3,0l0.3,0.1l0.3,0l0.2,0.2l0.3,0l0.3,0.1l0.3,0.2l0.2,0.1l0.3,0.2l0.1,0.1l0.3,0.2l0.2,0.1l0.3,0.3l0.1,0.2l0.2,0.2l0.1,0.3l0.4,0.3l0,0.1l0.1,0.3l0.2,0.2l0.1,0.3l0.2,0.3l0,0.3l0,0.3l0.1,0.1l0,0.4l0,0.3l0,0.3l0.2,22.3l0,0.3l-0.2,0.1l0,0.3l0,0.3l-0.1,0.3l0,0.4l-0.2,0.3l-0.1,0.1l0,0.3l-0.2,0.3l-0.1,0.2l-0.4,0.3l-0.1,0.1l-0.2,0.3l-0.1,0.2l-0.3,0.1l-0.2,0.3l-0.3,0.2l-0.1,0.2l-0.3,0.1l-0.2,0.2l-0.3,0l-0.3,0.1l-0.3,0.2l-0.2,0l-0.3,0.1l-0.3,0l-0.3,0l-0.3,0.2l-0.3,0l-167.6,0l-0.3,0l-0.3,0l-0.3,-0.2l-0.3,0l-0.2,0l-0.3,-0.1l-0.3,-0.2l-0.3,0L919.9,39l-0.3,-0.2l-0.3,-0.1l-0.2,-0.2l-0.3,-0.2L918.7,38l-0.4,-0.1l-0.1,-0.2L918,37.4l-0.3,-0.1l0,-0.3l-0.3,-0.2l0,-0.3l-0.1,-0.3l-0.2,-0.1L917,35.8l0,-0.4l0,-0.3l-0.2,-0.3l0,-0.3l0,-0.1l0,-0.3l0,-22.3Z" class="g2_130" />
<image x="45" y="337" width="834" height="301" xlink:href="img/2.png" />
</svg>