<?xml version="1.0" encoding="UTF-8" standalone="no"?>
<!DOCTYPE svg PUBLIC "-//W3C//DTD SVG 1.1//EN"
"http://www.w3.org/Graphics/SVG/1.1/DTD/svg11.dtd">
<svg viewBox="0 0 1210 1210" version="1.1" xmlns="http://www.w3.org/2000/svg" xmlns:xlink="http://www.w3.org/1999/xlink">
<defs>
<style type="text/css"><![CDATA[
.g2_46{
fill: none;
stroke: #418AB3;
stroke-width: 2;
stroke-linecap: butt;
stroke-linejoin: miter;
stroke-miterlimit: 7;
}
.g3_46{
fill: none;
stroke: #0000EE;
stroke-width: 2;
stroke-linecap: butt;
stroke-linejoin: miter;
}
.g1_46{
fill: #FFFFFF;
}
]]></style>
</defs>
<path fill-rule="evenodd" d="M0,0L1210,0l0,1210L0,1210L0,0Z" class="g1_46" />
<path fill-rule="evenodd" d="M0,0L1210,0l0,1210L0,1210L0,0Z" class="g1_46" />
<path fill-rule="evenodd" d="M201.7,766.9l0,-0.7l0,-0.9l0.1,-0.8l0.2,-0.8l0.1,-0.7l0.3,-0.8l0.2,-0.8l0.3,-0.7l0.4,-0.6l0.4,-0.8l0.4,-0.8l0.5,-0.6l0.4,-0.6l0.5,-0.6l0.6,-0.6l0.6,-0.5l0.6,-0.6l0.6,-0.4l0.6,-0.5l0.8,-0.4l0.6,-0.4l0.8,-0.3l0.7,-0.3l0.8,-0.3l0.8,-0.3l0.7,-0.1l0.8,-0.2l0.8,0l0.7,-0.1l0.9,0l713.5,0l0.8,0l0.7,0.1l0.8,0l0.8,0.2l0.7,0.1l1,0.3l0.6,0.3l0.7,0.3l0.8,0.3l0.8,0.4l0.6,0.4l0.6,0.5l0.6,0.4l0.6,0.6l0.6,0.5l0.6,0.6l0.5,0.6l0.4,0.6l0.5,0.8l0.5,0.6l0.3,0.8l0.4,0.6l0.3,0.7l0.2,0.8l0.3,0.8l0.1,0.7l0.2,0.8l0.1,0.8l0,0.9l0,0.7l0.2,61.2l-0.2,0.7l0,0.9l0,0.8l-0.3,0.8l-0.1,0.7l-0.2,0.8l-0.3,0.8l-0.3,0.7l-0.3,0.6l-0.4,0.8l-0.3,0.6l-0.7,0.8l-0.4,0.6l-0.5,0.6l-0.6,0.5l-0.4,0.6L940,840l-0.7,0.4l-0.6,0.3l-0.6,0.5l-0.8,0.5l-0.8,0.3l-0.7,0.3l-0.6,0.3l-1,0.1l-0.7,0.2l-0.8,0.1l-0.8,0.2l-0.7,0.1l-0.8,0l-713.5,0l-0.9,0l-0.7,0l-0.8,-0.1L213.7,843L213,842.9l-0.8,-0.3l-0.8,-0.2L210.7,842l-0.8,-0.3l-0.6,-0.4l-0.8,-0.4l-0.6,-0.5L207.3,840l-0.6,-0.6l-0.6,-0.5l-0.6,-0.6L205,837.7l-0.4,-0.6l-0.5,-0.6l-0.4,-0.8l-0.4,-0.8l-0.4,-0.6l-0.3,-0.7l-0.2,-0.8L202.1,832L202,831.3l-0.2,-0.8l-0.1,-0.8l0,-0.9l0,-0.7l0,-61.2Z" class="g1_46" />
<path d="M201.7,766.9l0,-0.7l0,-0.9l0.1,-0.8l0.2,-0.8l0.1,-0.7l0.3,-0.8l0.2,-0.8l0.3,-0.7l0.4,-0.6l0.4,-0.8l0.4,-0.8l0.5,-0.6l0.4,-0.6l0.5,-0.6l0.6,-0.6l0.6,-0.5l0.6,-0.6l0.6,-0.4l0.6,-0.5l0.8,-0.4l0.6,-0.4l0.8,-0.3l0.7,-0.3l0.8,-0.3l0.8,-0.3l0.7,-0.1l0.8,-0.2l0.8,0l0.7,-0.1l0.9,0l713.5,0l0.8,0l0.7,0.1l0.8,0l0.8,0.2l0.7,0.1l1,0.3l0.6,0.3l0.7,0.3l0.8,0.3l0.8,0.4l0.6,0.4l0.6,0.5l0.6,0.4l0.6,0.6l0.6,0.5l0.6,0.6l0.5,0.6l0.4,0.6l0.5,0.8l0.5,0.6l0.3,0.8l0.4,0.6l0.3,0.7l0.2,0.8l0.3,0.8l0.1,0.7l0.2,0.8l0.1,0.8l0,0.9l0,0.7l0.2,61.2l-0.2,0.7l0,0.9l0,0.8l-0.3,0.8l-0.1,0.7l-0.2,0.8l-0.3,0.8l-0.3,0.7l-0.3,0.6l-0.4,0.8l-0.3,0.6l-0.7,0.8l-0.4,0.6l-0.5,0.6l-0.6,0.5l-0.4,0.6L940,840l-0.7,0.4l-0.6,0.3l-0.6,0.5l-0.8,0.5l-0.8,0.3l-0.7,0.3l-0.6,0.3l-1,0.1l-0.7,0.2l-0.8,0.1l-0.8,0.2l-0.7,0.1l-0.8,0l-713.5,0l-0.9,0l-0.7,0l-0.8,-0.1L213.7,843L213,842.9l-0.8,-0.3l-0.8,-0.2L210.7,842l-0.8,-0.3l-0.6,-0.4l-0.8,-0.4l-0.6,-0.5L207.3,840l-0.6,-0.6l-0.6,-0.5l-0.6,-0.6L205,837.7l-0.4,-0.6l-0.5,-0.6l-0.4,-0.8l-0.4,-0.8l-0.4,-0.6l-0.3,-0.7l-0.2,-0.8L202.1,832L202,831.3l-0.2,-0.8l-0.1,-0.8l0,-0.9l0,-0.7l0,-61.2Z" class="g2_46" />
<path d="M273,823l65,0" class="g3_46" />
<path d="M338,823l399,0" class="g3_46" />
<image x="91" y="311" width="840" height="305" xlink:href="img/1.png" />
</svg>