<?xml version="1.0" encoding="UTF-8" standalone="no"?>
<!DOCTYPE svg PUBLIC "-//W3C//DTD SVG 1.1//EN"
"http://www.w3.org/Graphics/SVG/1.1/DTD/svg11.dtd">
<svg viewBox="0 0 1155 1210" version="1.1" xmlns="http://www.w3.org/2000/svg" xmlns:xlink="http://www.w3.org/1999/xlink">
<defs>
<clipPath id="c0_21"><path d="M0.5,1210.5L0.5,0.5l1155,0l0,1210Z" /></clipPath>
<style type="text/css"><![CDATA[
.g1_21{
fill: #FFFFFF;
}
]]></style>
</defs>
<path fill-rule="evenodd" d="M0,0L1155,0l0,1210L0,1210L0,0Z" class="g1_21" />
<path fill-rule="evenodd" d="M0,0L1155,0l0,1210L0,1210L0,0Z" class="g1_21" />
<image x="790" y="1140" width="319" height="55" xlink:href="img/1.png" />
<g clip-path="url(#c0_21)">
<g fill="#626262" >
<use xlink:href="#f0_w" transform="matrix(12,0,0,12,38.5,33.2)" />
<use xlink:href="#f0_x" transform="matrix(12,0,0,12,51.3,33.2)" />
<use xlink:href="#f0_d" transform="matrix(12,0,0,12,64.8,33.2)" />
<use xlink:href="#f0_e" transform="matrix(12,0,0,12,73.6,33.2)" />
<use xlink:href="#f0_y" transform="matrix(12,0,0,12,86.2,33.2)" />
<use xlink:href="#f0_l" transform="matrix(12,0,0,12,103.1,33.2)" />
<use xlink:href="#f0_e" transform="matrix(12,0,0,12,113.9,33.2)" />
<use xlink:href="#f0_q" transform="matrix(12,0,0,12,126.3,33.2)" />
<use xlink:href="#f0_i" transform="matrix(12,0,0,12,139.3,33.2)" />
<use xlink:href="#f0_8" transform="matrix(12,0,0,12,152.4,33.2)" />
<use xlink:href="#f1_q" transform="matrix(12,0,0,12,91.1,83.9)" />
<use xlink:href="#f2_15" transform="matrix(12,0,0,12,117.2,84.9)" />
<use xlink:href="#f2_7" transform="matrix(12,0,0,12,130,84.9)" />
<use xlink:href="#f2_4" transform="matrix(12,0,0,12,141.3,84.9)" />
<use xlink:href="#f2_c" transform="matrix(12,0,0,12,152.7,84.9)" />
<use xlink:href="#f2_k" transform="matrix(12,0,0,12,159.9,84.9)" />
<use xlink:href="#f2_d" transform="matrix(12,0,0,12,171.2,84.9)" />
<use xlink:href="#f2_4" transform="matrix(12,0,0,12,176.4,84.9)" />
<use xlink:href="#f2_g" transform="matrix(12,0,0,12,188,84.9)" />
<use xlink:href="#f2_c" transform="matrix(12,0,0,12,203.3,84.9)" />
<use xlink:href="#f2_f" transform="matrix(12,0,0,12,210.5,84.9)" />
<use xlink:href="#f2_b" transform="matrix(12,0,0,12,222.1,84.9)" />
<use xlink:href="#f2_4" transform="matrix(12,0,0,12,239.2,84.9)" />
<use xlink:href="#f2_i" transform="matrix(12,0,0,12,250.8,84.9)" />
<use xlink:href="#f2_8" transform="matrix(12,0,0,12,262.4,84.9)" />
<use xlink:href="#f2_m" transform="matrix(12,0,0,12,280.1,84.9)" />
<use xlink:href="#f2_b" transform="matrix(12,0,0,12,291.7,84.9)" />
<use xlink:href="#f2_l" transform="matrix(12,0,0,12,303,84.9)" />
<use xlink:href="#f2_7" transform="matrix(12,0,0,12,316.6,84.9)" />
<use xlink:href="#f2_e" transform="matrix(12,0,0,12,327.7,84.9)" />
<use xlink:href="#f2_l" transform="matrix(12,0,0,12,340.1,84.9)" />
<use xlink:href="#f2_7" transform="matrix(12,0,0,12,347.1,84.9)" />
<use xlink:href="#f2_12" transform="matrix(12,0,0,12,358.4,84.9)" />
<use xlink:href="#f2_g" transform="matrix(12,0,0,12,373.4,84.9)" />
<use xlink:href="#f2_e" transform="matrix(12,0,0,12,388.8,84.9)" />
<use xlink:href="#f2_b" transform="matrix(12,0,0,12,395.2,84.9)" />
<use xlink:href="#f2_c" transform="matrix(12,0,0,12,406.5,84.9)" />
<use xlink:href="#f2_6" transform="matrix(12,0,0,12,413.7,84.9)" />
<use xlink:href="#f2_f" transform="matrix(12,0,0,12,423.9,84.9)" />
<use xlink:href="#f2_b" transform="matrix(12,0,0,12,435.5,84.9)" />
<use xlink:href="#f2_h" transform="matrix(12,0,0,12,446.8,84.9)" />
<use xlink:href="#f2_m" transform="matrix(12,0,0,12,464.4,84.9)" />
<use xlink:href="#f2_r" transform="matrix(12,0,0,12,476,84.9)" />
<use xlink:href="#f2_c" transform="matrix(12,0,0,12,492.6,84.9)" />
<use xlink:href="#f2_f" transform="matrix(12,0,0,12,499.8,84.9)" />
<use xlink:href="#f2_b" transform="matrix(12,0,0,12,511.4,84.9)" />
<use xlink:href="#f2_6" transform="matrix(12,0,0,12,528.5,84.9)" />
<use xlink:href="#f2_i" transform="matrix(12,0,0,12,538.9,84.9)" />
<use xlink:href="#f2_l" transform="matrix(12,0,0,12,550.4,84.9)" />
<use xlink:href="#f2_g" transform="matrix(12,0,0,12,558,84.9)" />
<use xlink:href="#f2_7" transform="matrix(12,0,0,12,567.6,84.9)" />
<use xlink:href="#f2_l" transform="matrix(12,0,0,12,578.7,84.9)" />
<use xlink:href="#f2_1c" transform="matrix(12,0,0,12,584.6,84.9)" />
<use xlink:href="#f1_q" transform="matrix(12,0,0,12,91.1,135.7)" />
<use xlink:href="#f2_u" transform="matrix(12,0,0,12,117.2,136.7)" />
<use xlink:href="#f2_c" transform="matrix(12,0,0,12,122.5,136.7)" />
<use xlink:href="#f2_24" transform="matrix(12,0,0,12,129.7,136.7)" />
<use xlink:href="#f2_g" transform="matrix(12,0,0,12,134.7,136.7)" />
<use xlink:href="#f2_k" transform="matrix(12,0,0,12,150.2,136.7)" />
<use xlink:href="#f2_l" transform="matrix(12,0,0,12,167.4,136.7)" />
<use xlink:href="#f2_b" transform="matrix(12,0,0,12,174.6,136.7)" />
<use xlink:href="#f2_k" transform="matrix(12,0,0,12,185.9,136.7)" />
<use xlink:href="#f2_h" transform="matrix(12,0,0,12,197.3,136.7)" />
<use xlink:href="#f2_7" transform="matrix(12,0,0,12,214.9,136.7)" />
<use xlink:href="#f2_4" transform="matrix(12,0,0,12,226,136.7)" />
<use xlink:href="#f2_a" transform="matrix(12,0,0,12,237.6,136.7)" />
<use xlink:href="#f2_r" transform="matrix(12,0,0,12,242.7,136.7)" />
<use xlink:href="#f2_k" transform="matrix(12,0,0,12,259.5,136.7)" />
<use xlink:href="#f2_c" transform="matrix(12,0,0,12,270.8,136.7)" />
<use xlink:href="#f2_c" transform="matrix(12,0,0,12,277.9,136.7)" />
<use xlink:href="#f2_l" transform="matrix(12,0,0,12,285.1,136.7)" />
<use xlink:href="#f2_d" transform="matrix(12,0,0,12,292.8,136.7)" />
<use xlink:href="#f2_m" transform="matrix(12,0,0,12,297.9,136.7)" />
<use xlink:href="#f2_i" transform="matrix(12,0,0,12,309.4,136.7)" />
<use xlink:href="#f2_c" transform="matrix(12,0,0,12,321,136.7)" />
<use xlink:href="#f2_b" transform="matrix(12,0,0,12,328.2,136.7)" />
<use xlink:href="#f2_1c" transform="matrix(12,0,0,12,339.5,136.7)" />
</g>
</g>
<image x="100" y="192" width="912" height="473" xlink:href="img/2.png" />
<defs>
	<path d="M178.8,0l0,197.1l253.6,0l0,721.1l-261.3,-55l0,195.6l259.7,55l272,0l0,-916.7l253.6,0L956.4,0Z" 
	id="f0_w"
	transform="scale(0.001,-0.001)" />

	<path d="M155,0l0,287l268,0L423,0Z" 
	id="f0_x"
	transform="scale(0.001,-0.001)" />

	<path d="M126.8,0l0,834.2l267.4,0l0,-136c0,0,51.9,81,117.6,119.2c0,0,67.2,38.2,160.4,38.2c0,0,13.8,0,29.1,-1.6c0,0,16.8,-1.5,45.8,-4.6l1.5,-242.9c0,0,-35.1,16.8,-70.3,24.5c0,0,-35.1,7.6,-70.2,7.6c0,0,-102.4,0,-157.4,-65.7c0,0,-56.5,-65.7,-56.5,-189.4L394.2,0Z" 
	id="f0_d"
	transform="scale(0.001,-0.001)" />

	<path d="M525.6,168.1c0,0,87,0,132.9,64.1c0,0,45.8,64.2,45.8,183.4c0,0,0,120.7,-45.8,184.8c0,0,-45.9,64.2,-132.9,64.2c0,0,-88.7,0,-134.5,-64.2c0,0,-47.3,-64.1,-47.3,-184.8c0,0,0,-119.2,45.8,-183.4c0,0,47.3,-64.1,136,-64.1Zm0,-189.4c0,0,-217,0,-339.2,116c0,0,-122.2,116.1,-122.2,320.9c0,0,0,206.2,122.2,322.3c0,0,122.2,117.7,339.2,117.7c0,0,215.4,0,336.1,-116.2c0,0,122.2,-117.6,122.2,-323.8c0,0,0,-204.8,-120.7,-320.9c0,0,-122.2,-116,-337.6,-116Z" 
	id="f0_e"
	transform="scale(0.001,-0.001)" />

	<path d="M273.5,0L53.5,834.2l259.7,0l139,-576l142.1,576l223.1,0l139,-569.9l142.1,569.9l259.7,0L1138.2,0L846.4,0L704.3,572.9L565.3,0Z" 
	id="f0_y"
	transform="scale(0.001,-0.001)" />

	<path d="M545.4,-21.3c0,0,-226.1,0,-352.9,114.5c0,0,-128.3,116.1,-128.3,322.4c0,0,0,207.7,126.8,323.8c0,0,128.3,116.2,354.4,116.2c0,0,65.7,0,129.9,-12.3c0,0,64.1,-12.2,126.8,-35.1l0,-216.9c0,0,-53.5,36.6,-108.5,55c0,0,-55,18.3,-114.6,18.3c0,0,-111.5,0,-172.6,-65.7c0,0,-62.6,-65.7,-62.6,-183.3c0,0,0,-116.2,61.1,-181.8c0,0,62.6,-65.7,174.1,-65.7c0,0,62.7,0,119.2,18.3c0,0,56.5,19.9,103.9,56.5l0,-218.5c0,0,-62.7,-24.4,-126.8,-35c0,0,-64.2,-10.7,-129.9,-10.7Z" 
	id="f0_l"
	transform="scale(0.001,-0.001)" />

	<path d="M414,-21.3c0,0,-143.6,0,-218.4,88.5c0,0,-76.4,88.6,-76.4,256.7l0,510.3l267.3,0l0,-82.5c0,0,0,-68.8,0,-171.1c0,0,-1.5,-102.4,-1.5,-136c0,0,0,-100.8,4.6,-145.2c0,0,6.1,-45.8,19.8,-65.6c0,0,15.3,-26,41.3,-39.8c0,0,27.5,-13.7,61.1,-13.7c0,0,84,0,131.4,64.1c0,0,48.9,64.2,48.9,177.3l0,412.5l265.8,0L957.9,0L692.1,0l0,120.7c0,0,-61.1,-73.3,-128.3,-106.9c0,0,-67.3,-35.1,-149.8,-35.1Z" 
	id="f0_q"
	transform="scale(0.001,-0.001)" />

	<path d="M126.8,0l0,834.2l267.4,0l0,-122.3c0,0,61.1,73.4,128.3,108.5c0,0,68.8,35.2,149.7,35.2c0,0,145.2,0,220,-88.7c0,0,74.9,-90.1,74.9,-258.1L967.1,0L699.7,0l0,82.5l0,305.6c0,0,0,108.4,-4.6,149.7c0,0,-6.1,41.2,-18.3,61.1c0,0,-15.3,26,-41.2,39.7c0,0,-27.5,15.3,-62.7,15.3c0,0,-82.5,0,-129.8,-64.2c0,0,-48.9,-65.7,-48.9,-178.7l0,-411Z" 
	id="f0_i"
	transform="scale(0.001,-0.001)" />

	<path d="M443.1,0c0,0,-158.9,0,-224.6,65.7c0,0,-65.7,65.7,-65.7,223.1l0,354.4l-132.9,0l0,191l132.9,0l0,238.3l265.8,0l0,-238.3l276.5,0l0,-191l-276.5,0l0,-354.4c0,0,0,-58.1,22.9,-78c0,0,24.5,-21.4,93.2,-21.4l136,0L670.7,0Z" 
	id="f0_8"
	transform="scale(0.001,-0.001)" />

	<path d="M264.3,297.9c0,0,-42.8,0,-79.4,16.8c0,0,-36.7,16.8,-64.2,44.3c0,0,-29,29.1,-44.3,67.3c0,0,-16.8,38.1,-16.8,82.5c0,0,0,41.2,15.3,77.9c0,0,16.8,38.2,44.3,65.7c0,0,29,27.5,65.7,42.7c0,0,36.6,16.8,79.4,16.8c0,0,42.8,0,81,-15.2c0,0,38.2,-16.8,65.7,-44.3c0,0,29,-27.5,45.8,-64.2c0,0,16.8,-38.2,16.8,-79.4c0,0,0,-44.4,-16.8,-82.5c0,0,-16.8,-38.2,-44.3,-65.7c0,0,-29,-29.1,-67.2,-45.9c0,0,-38.2,-16.8,-81,-16.8Z" 
	id="f1_q"
	transform="scale(0.001,-0.001)" />

	<path d="M629.4,-21.3c0,0,-253.6,0,-398.7,154.2c0,0,-145.1,154.3,-145.1,421.7c0,0,0,268.9,145.1,423.2c0,0,145.1,155.8,398.7,155.8c0,0,99.4,0,188,-26c0,0,88.6,-27.5,166.5,-80.9l0,-158.9c0,0,-76.4,71.8,-162,106.9c0,0,-87,35.2,-184.8,35.2c0,0,-191,0,-291.8,-116.1c0,0,-100.9,-117.7,-100.9,-339.2c0,0,0,-220,100.9,-336.1c0,0,100.8,-117.7,291.8,-117.7c0,0,97.8,0,183.3,35.2c0,0,87.1,35.1,163.5,106.9l0,-157.3c0,0,-79.5,-55,-168.1,-81c0,0,-88.6,-25.9,-186.4,-25.9Z" 
	id="f2_15"
	transform="scale(0.001,-0.001)" />

	<path d="M467.5,94.7c0,0,108.5,0,172.6,85.6c0,0,64.2,87.1,64.2,235.3c0,0,0,149.7,-64.2,235.2c0,0,-64.1,87.1,-172.6,87.1c0,0,-111.5,0,-175.7,-85.5c0,0,-64.2,-85.6,-64.2,-236.8c0,0,0,-149.8,64.2,-235.3c0,0,64.2,-85.6,175.7,-85.6Zm0,-116c0,0,-180.3,0,-281.1,116C186.4,94.7,84,210.8,84,415.6c0,0,0,206.2,100.9,322.3c0,0,102.3,117.7,282.6,117.7c0,0,178.8,0,281.1,-116.2c0,0,102.4,-117.6,102.4,-323.8c0,0,0,-204.8,-102.4,-320.9c0,0,-102.3,-116,-281.1,-116Z" 
	id="f2_7"
	transform="scale(0.001,-0.001)" />

	<path d="M137.5,0l0,834.2l139,0l0,-129.9c0,0,48.9,76.4,114.6,113.1c0,0,67.2,38.2,154.3,38.2c0,0,145.2,0,218.5,-88.7c0,0,73.3,-90.1,73.3,-262.7L837.2,0L699.7,0l0,499.6c0,0,0,117.6,-45.8,175.7c0,0,-45.8,59.6,-139,59.6c0,0,-110,0,-174.2,-70.3c0,0,-64.2,-70.3,-64.2,-192.5L276.5,0Z" 
	id="f2_4"
	transform="scale(0.001,-0.001)" />

	<path d="M420.1,0c0,0,-158.8,0,-218.4,58.1c0,0,-61.1,59.5,-61.1,216.9l0,453.8l-100.9,0l0,105.4l100.9,0l0,238.3l139,0l0,-238.3l282.6,0l0,-105.4l-282.6,0l0,-453.8c0,0,0,-102.4,27.5,-131.4c0,0,27.5,-29,113,-29l142.1,0L562.2,0Z" 
	id="f2_c"
	transform="scale(0.001,-0.001)" />

	<path d="M407.9,93.2c0,0,113.1,0,181.8,79.4c0,0,70.3,81,70.3,215.5l0,30.5l-137.5,0c0,0,-166.5,0,-230.7,-36.7c0,0,-64.2,-38.1,-64.2,-129.8c0,0,0,-73.3,47.4,-116.1c0,0,48.9,-42.8,132.9,-42.8ZM371.3,-21.3c0,0,-128.4,0,-203.2,71.7c0,0,-76.4,71.8,-76.4,192.5c0,0,0,140.6,93.2,212.4c0,0,94.7,71.8,282.6,71.8l192.5,0l0,13.7c0,0,0,94.8,-62.6,145.2c0,0,-62.7,51.9,-175.7,51.9c0,0,-71.8,0,-139.1,-16.8c0,0,-67.2,-16.8,-129.8,-51.9l0,126.8c0,0,74.8,30.5,145.1,44.3c0,0,71.8,15.3,139,15.3c0,0,180.3,0,268.9,-93.2c0,0,90.2,-94.8,90.2,-285.7L796,0L660,0l0,126.8c0,0,-47.4,-76.4,-117.6,-111.5c0,0,-70.3,-36.6,-171.1,-36.6Z" 
	id="f2_k"
	transform="scale(0.001,-0.001)" />

	<path d="M143,0l0,834l138,0L281,0Zm0,985l0,174l138,0l0,-174Z" 
	id="f2_d"
	transform="scale(0.001,-0.001)" />

	<path d="M375.8,-21.3c0,0,-67.2,0,-140.5,12.2c0,0,-73.4,12.2,-152.8,39.7l0,140.5c0,0,76.4,-39.7,149.7,-58c0,0,73.4,-19.9,146.7,-19.9c0,0,96.2,0,148.2,32.1c0,0,51.9,33.6,51.9,94.7c0,0,0,55,-36.6,84c0,0,-38.2,30.6,-165,58.1l-48.9,12.2c0,0,-126.8,26,-183.4,81c0,0,-56.5,56.5,-56.5,152.8c0,0,0,119.1,82.5,183.3c0,0,84,64.2,238.3,64.2c0,0,74.9,0,142.1,-10.7c0,0,67.3,-12.3,123.8,-35.2l0,-129.8c0,0,-58.1,30.5,-120.7,44.3c0,0,-62.7,15.2,-129.9,15.2c0,0,-102.3,0,-152.8,-30.5c0,0,-50.4,-32.1,-50.4,-94.7c0,0,0,-47.4,35.2,-74.9c0,0,36.6,-27.5,148.2,-51.9l45.8,-10.7c0,0,146.7,-30.6,207.8,-87.1c0,0,62.6,-58.1,62.6,-160.4c0,0,0,-116.1,-91.7,-183.4c0,0,-93.1,-67.1,-253.6,-67.1Z" 
	id="f2_g"
	transform="scale(0.001,-0.001)" />

	<path d="M137.5,0l0,1159.6l139,0l0,-455.3c0,0,48.9,76.4,114.6,113.1c0,0,67.2,38.2,154.3,38.2c0,0,145.2,0,218.5,-88.7c0,0,73.3,-90.1,73.3,-262.7L837.2,0L699.7,0l0,499.6c0,0,0,117.6,-45.8,175.7c0,0,-45.8,59.6,-139,59.6c0,0,-110,0,-174.2,-70.3c0,0,-64.2,-70.3,-64.2,-192.5L276.5,0Z" 
	id="f2_f"
	transform="scale(0.001,-0.001)" />

	<path d="M230.7,490.4l490.4,1.5c0,0,-1.5,111.6,-62.6,178.8c0,0,-62.7,67.2,-163.5,67.2c0,0,-114.6,0,-183.3,-64.1c0,0,-70.3,-65.7,-81,-183.4ZM516.4,-21.3c0,0,-198.6,0,-314.7,116C201.7,94.7,84,210.8,84,409.4c0,0,0,204.8,110,325.5c0,0,111.6,120.7,299.5,120.7c0,0,168,0,265.8,-108.5c0,0,99.3,-110,99.3,-296.4l0,-67.2l-632.5,0c0,0,9.2,-140.6,85.6,-213.9c0,0,76.4,-74.9,213.9,-74.9c0,0,77.9,0,152.7,18.4c0,0,74.9,19.8,148.2,58l0,-129.8c0,0,-74.8,-30.6,-151.2,-45.8c0,0,-77.9,-16.8,-158.9,-16.8Z" 
	id="f2_b"
	transform="scale(0.001,-0.001)" />

	<path d="M421.7,-21.3c0,0,-143.6,0,-218.5,88.5L128.3,328.5l0,505.7l137.5,0l0,-499.6c0,0,0,-119.2,45.9,-178.8c0,0,47.3,-59.5,139,-59.5c0,0,111.5,0,175.7,70.2c0,0,65.7,71.8,65.7,194.1l0,473.6l136,0L828.1,0l-136,0l0,126.8c0,0,-50.4,-74.9,-116.1,-111.5c0,0,-67.2,-36.6,-154.3,-36.6Z" 
	id="f2_i"
	transform="scale(0.001,-0.001)" />

	<path d="M137.5,0l0,834.2l139,0l0,-129.9c0,0,45.9,77.9,111.6,114.6c0,0,65.7,36.7,155.8,36.7c0,0,91.7,0,154.3,-45.9c0,0,64.2,-47.3,96.2,-135.9c0,0,50.5,93.1,122.3,137.5c0,0,71.8,44.3,168,44.3c0,0,131.4,0,201.7,-91.7c0,0,71.8,-91.7,71.8,-259.7L1358.2,0l-139,0l0,499.6c0,0,0,119.2,-41.3,177.2c0,0,-42.8,58.1,-129.8,58.1c0,0,-107,0,-168.1,-70.3c0,0,-62.6,-70.3,-62.6,-192.5L817.4,0L678.3,0l0,499.6c0,0,0,120.7,-41.2,177.2c0,0,-42.8,58.1,-131.4,58.1c0,0,-105.4,0,-166.5,-70.3c0,0,-62.7,-71.8,-62.7,-192.5L276.5,0Z" 
	id="f2_8"
	transform="scale(0.001,-0.001)" />

	<path d="M508.8,93.2c0,0,110,0,171.1,85.6c0,0,62.6,85.5,62.6,236.8c0,0,0,152.7,-61.1,238.3c0,0,-62.6,85.5,-172.6,85.5c0,0,-108.5,0,-169.6,-85.5c0,0,-62.7,-85.6,-62.7,-238.3c0,0,0,-151.3,61.1,-236.8c0,0,62.7,-85.6,171.2,-85.6ZM542.4,-21.3c0,0,-91.7,0,-157.4,35.1c0,0,-65.7,36.6,-108.5,111.5L276.5,0l-139,0l0,1159.6l139,0l0,-452.2c0,0,42.8,74.8,108.5,111.5c0,0,65.7,36.7,157.4,36.7c0,0,152.7,0,247.5,-120.7c0,0,96.2,-122.3,96.2,-319.3c0,0,0,-195.6,-94.7,-316.3c0,0,-96.3,-120.6,-249,-120.6Z" 
	id="f2_m"
	transform="scale(0.001,-0.001)" />

	<path d="M137.5,0l0,834.2l139,0l0,-129.9c0,0,42.8,76.4,111.6,113.1c0,0,70.2,38.2,169.5,38.2c0,0,13.8,0,30.6,-1.6c0,0,16.8,-3,38.2,-6.1l1.5,-142.1c0,0,-24.4,13.8,-50.4,19.9c0,0,-27.5,6.1,-61.1,6.1c0,0,-116.1,0,-177.2,-74.9c0,0,-62.7,-76.3,-62.7,-216.9l0,-440Z" 
	id="f2_l"
	transform="scale(0.001,-0.001)" />

	<path d="M165,0l0,728.8l-131.4,0l0,105.4l131.4,0l0,58c0,0,0,140.6,64.2,203.2c0,0,65.7,64.2,207.7,64.2l129.9,0l0,-113.1l-131.4,0c0,0,-74.8,0,-102.3,-30.5c0,0,-29.1,-30.6,-29.1,-107l0,-74.8l226.1,0l0,-105.4l-226.1,0L304,0Z" 
	id="f2_e"
	transform="scale(0.001,-0.001)" />

	<path d="M282.6,0L62.6,834.2l137.5,0L372.8,183.3L542.4,834.2l161.9,0L876.9,183.3l171.2,650.9l135.9,0L965.6,0l-162,0L624.9,684.4L444.6,0Z" 
	id="f2_12"
	transform="scale(0.001,-0.001)" />

	<path d="M495,-21.3c0,0,-189.4,0,-299.4,117.6C195.6,96.3,84,215.4,84,415.6c0,0,0,204.7,111.6,322.3c0,0,113,117.7,308.6,117.7c0,0,62.6,0,122.2,-13.8c0,0,61.1,-13.7,117.6,-39.7l0,-128.3c0,0,-58,32,-116.1,47.3c0,0,-58,16.8,-119.1,16.8c0,0,-133,0,-206.3,-84c0,0,-74.9,-84,-74.9,-238.3c0,0,0,-152.8,73.4,-236.8c0,0,74.8,-84.1,207.8,-84.1c0,0,61.1,0,119.1,15.3c0,0,58.1,16.8,116.1,48.9L744,30.6c0,0,-56.5,-26,-117.6,-38.1c0,0,-62.6,-13.8,-131.4,-13.8Z" 
	id="f2_6"
	transform="scale(0.001,-0.001)" />

	<path d="M458.3,93.2c0,0,110,0,172.7,85.6c0,0,62.6,85.5,62.6,236.8c0,0,0,152.7,-62.6,238.3c0,0,-62.7,85.5,-172.7,85.5c0,0,-108.4,0,-171.1,-85.5c0,0,-62.6,-85.6,-62.6,-238.3c0,0,0,-151.3,62.6,-236.8c0,0,62.7,-85.6,171.1,-85.6ZM424.7,-21.3c0,0,-151.2,0,-245.9,120.6C178.8,99.3,84,220,84,415.6c0,0,0,197,94.8,317.7c0,0,94.7,122.3,245.9,122.3c0,0,93.2,0,158.9,-36.7c0,0,65.7,-36.7,110,-111.5l0,452.2l136,0L829.6,0l-136,0l0,125.3c0,0,-44.3,-74.9,-110,-110c0,0,-65.7,-36.6,-158.9,-36.6Z" 
	id="f2_h"
	transform="scale(0.001,-0.001)" />

	<path d="M120.7,-317.7l0,116.1l79.4,0c0,0,56.6,0,87.1,26c0,0,32.1,27.5,70.3,126.8l24.4,61L44.3,834.2l145.1,0L450.7,181.8L711.9,834.2l146.7,0L490.4,-76.3c0,0,-58,-149.7,-113,-195.5c0,0,-55,-45.9,-148.2,-45.9Z" 
	id="f2_r"
	transform="scale(0.001,-0.001)" />

	<path d="M161,0l0,189l158,0L319,0Z" 
	id="f2_1c"
	transform="scale(0.001,-0.001)" />

	<path d="M149,0l0,1113l150,0L299,0Z" 
	id="f2_u"
	transform="scale(0.001,-0.001)" />

	<path d="M146,699l0,414l127,0l0,-414Z" 
	id="f2_24"
	transform="scale(0.001,-0.001)" />

	<path d="M143,0l0,1159l138,0L281,0Z" 
	id="f2_a"
	transform="scale(0.001,-0.001)" />


</defs>
</svg>