<?xml version="1.0" encoding="UTF-8" standalone="no"?>
<!DOCTYPE svg PUBLIC "-//W3C//DTD SVG 1.1//EN"
"http://www.w3.org/Graphics/SVG/1.1/DTD/svg11.dtd">
<svg viewBox="0 0 1210 1210" version="1.1" xmlns="http://www.w3.org/2000/svg" xmlns:xlink="http://www.w3.org/1999/xlink">
<defs>
<style type="text/css"><![CDATA[
.g2_57{
fill: none;
stroke: #418AB3;
stroke-width: 2;
stroke-linecap: butt;
stroke-linejoin: miter;
stroke-miterlimit: 7;
}
.g1_57{
fill: #FFFFFF;
}
]]></style>
</defs>
<path fill-rule="evenodd" d="M0,0L1210,0l0,1210L0,1210L0,0Z" class="g1_57" />
<path fill-rule="evenodd" d="M0,0L1210,0l0,1210L0,1210L0,0Z" class="g1_57" />
<path fill-rule="evenodd" d="M889.2,26l0,-0.5l0,-0.4l0,-0.3l0.1,-0.5l0.2,-0.5l0,-0.3l0.1,-0.3l0.2,-0.4l0.1,-0.3l0.3,-0.3l0.2,-0.5l0.1,-0.3l0.3,-0.3l0.4,-0.3l0.3,-0.3l0.1,-0.3L891.9,20l0.5,-0.3l0.1,-0.1L893,19.2l0.3,-0.1l0.3,-0.2l0.5,-0.1l0.3,-0.2l0.4,-0.1l0.3,0l0.5,-0.2l0.4,0l0.3,0l0.5,0l266.8,0l0.4,0l0.3,0l0.5,0l0.3,0.2l0.4,0l0.3,0.1l0.5,0.2l0.3,0.1l0.5,0.2l0.3,0.1l0.3,0.4l0.3,0.1l0.3,0.3l0.3,0.3l0.3,0.2l0.3,0.3l0.3,0.3l0.2,0.3l0.3,0.3l0.1,0.5l0.2,0.3l0.1,0.3l0.2,0.4l0.1,0.3l0.2,0.5l0.1,0.3l0,0.5l0,0.3l0.2,0.4l0,0.5l0,30.4l0,0.4l0,0.3l-0.2,0.5l0,0.5l-0.1,0.3l-0.2,0.4l0,0.3l-0.3,0.3l-0.1,0.5l-0.2,0.3l-0.1,0.3l-0.3,0.5l-0.2,0.3l-0.3,0.3l-0.3,0.3l-0.3,0.1l-0.3,0.3l-0.3,0.3l-0.3,0.2l-0.3,0.1l-0.3,0.4l-0.5,0.1l-0.3,0.2l-0.5,0l-0.3,0.1l-0.4,0.2l-0.3,0l-0.5,0.1l-0.3,0l-0.4,0L896.8,64.2l0,-0.2l-0.5,0L896,64l-0.4,0l-0.5,-0.1l-0.3,0l-0.4,-0.2l-0.3,-0.1l-0.5,-0.2l-0.3,-0.1L893,62.9l-0.5,-0.1l-0.1,-0.2l-0.5,-0.3L891.6,62l-0.1,-0.1l-0.3,-0.3l-0.4,-0.3L890.5,61l-0.1,-0.3l-0.2,-0.5l-0.3,-0.3l-0.1,-0.3l-0.2,-0.5l-0.1,-0.3l0,-0.4l-0.2,-0.3l-0.1,-0.5l0,-0.5l0,-0.3l0,-0.4l0,-30.4Z" class="g1_57" />
<path d="M889.2,26l0,-0.5l0,-0.4l0,-0.3l0.1,-0.5l0.2,-0.5l0,-0.3l0.1,-0.3l0.2,-0.4l0.1,-0.3l0.3,-0.3l0.2,-0.5l0.1,-0.3l0.3,-0.3l0.4,-0.3l0.3,-0.3l0.1,-0.3L891.9,20l0.5,-0.3l0.1,-0.1L893,19.2l0.3,-0.1l0.3,-0.2l0.5,-0.1l0.3,-0.2l0.4,-0.1l0.3,0l0.5,-0.2l0.4,0l0.3,0l0.5,0l266.8,0l0.4,0l0.3,0l0.5,0l0.3,0.2l0.4,0l0.3,0.1l0.5,0.2l0.3,0.1l0.5,0.2l0.3,0.1l0.3,0.4l0.3,0.1l0.3,0.3l0.3,0.3l0.3,0.2l0.3,0.3l0.3,0.3l0.2,0.3l0.3,0.3l0.1,0.5l0.2,0.3l0.1,0.3l0.2,0.4l0.1,0.3l0.2,0.5l0.1,0.3l0,0.5l0,0.3l0.2,0.4l0,0.5l0,30.4l0,0.4l0,0.3l-0.2,0.5l0,0.5l-0.1,0.3l-0.2,0.4l0,0.3l-0.3,0.3l-0.1,0.5l-0.2,0.3l-0.1,0.3l-0.3,0.5l-0.2,0.3l-0.3,0.3l-0.3,0.3l-0.3,0.1l-0.3,0.3l-0.3,0.3l-0.3,0.2l-0.3,0.1l-0.3,0.4l-0.5,0.1l-0.3,0.2l-0.5,0l-0.3,0.1l-0.4,0.2l-0.3,0l-0.5,0.1l-0.3,0l-0.4,0L896.8,64.2l0,-0.2l-0.5,0L896,64l-0.4,0l-0.5,-0.1l-0.3,0l-0.4,-0.2l-0.3,-0.1l-0.5,-0.2l-0.3,-0.1L893,62.9l-0.5,-0.1l-0.1,-0.2l-0.5,-0.3L891.6,62l-0.1,-0.1l-0.3,-0.3l-0.4,-0.3L890.5,61l-0.1,-0.3l-0.2,-0.5l-0.3,-0.3l-0.1,-0.3l-0.2,-0.5l-0.1,-0.3l0,-0.4l-0.2,-0.3l-0.1,-0.5l0,-0.5l0,-0.3l0,-0.4l0,-30.4Z" class="g2_57" />
</svg>