<?xml version="1.0" encoding="UTF-8" standalone="no"?>
<!DOCTYPE svg PUBLIC "-//W3C//DTD SVG 1.1//EN"
"http://www.w3.org/Graphics/SVG/1.1/DTD/svg11.dtd">
<svg viewBox="0 0 1210 1210" version="1.1" xmlns="http://www.w3.org/2000/svg" xmlns:xlink="http://www.w3.org/1999/xlink">
<defs>
<style type="text/css"><![CDATA[
.g2_30{
fill: none;
stroke: #418AB3;
stroke-width: 2;
stroke-linecap: butt;
stroke-linejoin: miter;
stroke-miterlimit: 7;
}
.g3_30{
fill: none;
stroke: #0000EE;
stroke-width: 2;
stroke-linecap: butt;
stroke-linejoin: miter;
}
.g4_30{
fill: #B1D1E3;
}
.g1_30{
fill: #FFFFFF;
}
]]></style>
</defs>
<path fill-rule="evenodd" d="M0,0L1210,0l0,1210L0,1210L0,0Z" class="g1_30" />
<path fill-rule="evenodd" d="M0,0L1210,0l0,1210L0,1210L0,0Z" class="g1_30" />
<path fill-rule="evenodd" d="M146.7,201.7l0,-1.1l0.1,-0.9l0.2,-0.9l0.1,-1l0.2,-0.9l0.3,-1l0.3,-1l0.4,-0.7l0.4,-0.9l0.4,-1l0.5,-0.7l0.6,-0.8l0.6,-0.7l0.6,-0.8l0.6,-0.6l0.8,-0.6l0.7,-0.8l0.7,-0.5l0.9,-0.6l0.7,-0.4l0.9,-0.5l0.8,-0.4l0.9,-0.3l0.9,-0.4l1,-0.3l0.9,-0.3l0.9,-0.1l1.1,-0.2l0.9,0l0.9,0l760.8,0l0.9,0l1,0l1,0.2l1,0.1l0.9,0.3l0.9,0.3l0.9,0.4l0.9,0.3l0.8,0.4l0.9,0.5l0.8,0.4l0.7,0.6l0.8,0.7l0.8,0.6l0.6,0.6l0.7,0.6l0.6,0.8l0.7,0.7l0.4,0.8l0.5,0.9l0.4,0.8l0.5,0.9l0.4,0.9l0.4,0.8l0.3,1l0.1,0.9l0.2,1l0.1,0.9l0,0.9l0.2,1.1l0,73.1l0,1.1l-0.2,0.9l-0.1,0.9l-0.2,1l-0.1,0.9l-0.3,0.9l-0.4,0.9l-0.4,0.9l-0.3,1l-0.5,0.7l-0.6,0.9l-0.4,0.8l-0.7,0.8l-0.6,0.6l-0.6,0.7l-0.7,0.6l-0.8,0.7l-0.8,0.6l-0.7,0.6l-0.8,0.4l-0.9,0.5l-0.8,0.5l-0.9,0.3l-0.9,0.3l-0.9,0.3l-0.9,0.3l-1,0.1l-1,0l-1,0.2l-0.9,0L165,293.3l0,-0.1l-0.9,0l-0.9,0L162.1,293l-0.9,-0.1l-0.9,-0.3l-1,-0.3L158.4,292l-0.9,-0.3l-0.8,-0.5l-0.9,-0.5l-0.7,-0.4l-0.9,-0.6l-0.7,-0.5l-0.7,-0.8L152,287.8l-0.6,-0.6l-0.6,-0.7l-0.6,-0.8l-0.6,-0.8l-0.5,-0.7l-0.4,-0.9l-0.4,-1l-0.4,-0.7l-0.3,-0.9l-0.3,-1.1l-0.2,-0.9l-0.1,-1l-0.2,-0.9l-0.1,-0.9l0,-1.1l0,-73.1Z" class="g1_30" />
<path d="M146.7,201.7l0,-1.1l0.1,-0.9l0.2,-0.9l0.1,-1l0.2,-0.9l0.3,-1l0.3,-1l0.4,-0.7l0.4,-0.9l0.4,-1l0.5,-0.7l0.6,-0.8l0.6,-0.7l0.6,-0.8l0.6,-0.6l0.8,-0.6l0.7,-0.8l0.7,-0.5l0.9,-0.6l0.7,-0.4l0.9,-0.5l0.8,-0.4l0.9,-0.3l0.9,-0.4l1,-0.3l0.9,-0.3l0.9,-0.1l1.1,-0.2l0.9,0l0.9,0l760.8,0l0.9,0l1,0l1,0.2l1,0.1l0.9,0.3l0.9,0.3l0.9,0.4l0.9,0.3l0.8,0.4l0.9,0.5l0.8,0.4l0.7,0.6l0.8,0.7l0.8,0.6l0.6,0.6l0.7,0.6l0.6,0.8l0.7,0.7l0.4,0.8l0.5,0.9l0.4,0.8l0.5,0.9l0.4,0.9l0.4,0.8l0.3,1l0.1,0.9l0.2,1l0.1,0.9l0,0.9l0.2,1.1l0,73.1l0,1.1l-0.2,0.9l-0.1,0.9l-0.2,1l-0.1,0.9l-0.3,0.9l-0.4,0.9l-0.4,0.9l-0.3,1l-0.5,0.7l-0.6,0.9l-0.4,0.8l-0.7,0.8l-0.6,0.6l-0.6,0.7l-0.7,0.6l-0.8,0.7l-0.8,0.6l-0.7,0.6l-0.8,0.4l-0.9,0.5l-0.8,0.5l-0.9,0.3l-0.9,0.3l-0.9,0.3l-0.9,0.3l-1,0.1l-1,0l-1,0.2l-0.9,0L165,293.3l0,-0.1l-0.9,0l-0.9,0L162.1,293l-0.9,-0.1l-0.9,-0.3l-1,-0.3L158.4,292l-0.9,-0.3l-0.8,-0.5l-0.9,-0.5l-0.7,-0.4l-0.9,-0.6l-0.7,-0.5l-0.7,-0.8L152,287.8l-0.6,-0.6l-0.6,-0.7l-0.6,-0.8l-0.6,-0.8l-0.5,-0.7l-0.4,-0.9l-0.4,-1l-0.4,-0.7l-0.3,-0.9l-0.3,-1.1l-0.2,-0.9l-0.1,-1l-0.2,-0.9l-0.1,-0.9l0,-1.1l0,-73.1Z" class="g2_30" />
<path d="M252,263l47,0" class="g3_30" />
<path d="M299,263l19,0" class="g3_30" />
<path d="M318,263l383,0" class="g3_30" />
<path fill-rule="evenodd" d="M101.9,328.8l0,-0.6l0.2,-0.6l0,-0.8l0.1,-0.6l0.2,-0.6l0.1,-0.6l0.3,-0.7l0.2,-0.6l0.3,-0.6l0.3,-0.4l0.3,-0.6l0.4,-0.5l0.4,-0.5l0.4,-0.6l0.5,-0.4l0.4,-0.5l0.5,-0.3l0.4,-0.5l0.7,-0.3l0.4,-0.3l0.6,-0.3l0.6,-0.3l0.6,-0.3l0.7,-0.1l0.6,-0.2l0.4,-0.1l0.8,-0.2l0.6,-0.1l0.6,0l0.6,0l862.6,0l0.6,0l0.6,0l0.6,0.1l0.7,0.2l0.6,0.1l0.6,0.2l0.6,0.1l0.6,0.3l0.6,0.3l0.6,0.3l0.5,0.3l0.4,0.3l0.6,0.5l0.5,0.5l0.5,0.3l0.4,0.4l0.3,0.6l0.5,0.5l0.4,0.5l0.4,0.6l0.3,0.4l0.3,0.6l0.1,0.6l0.2,0.7l0.3,0.6l0.1,0.6l0,0.6l0.2,0.8l0,0.6l0,0.6l0.1,48.9l0,0.6l-0.1,0.6l-0.2,0.6l0,0.6l-0.1,0.6l-0.2,0.6l-0.3,0.6l-0.1,0.7l-0.3,0.6l-0.3,0.4l-0.4,0.6l-0.4,0.5l-0.3,0.6l-0.5,0.5l-0.4,0.4l-0.5,0.5l-0.5,0.3l-0.6,0.4l-0.4,0.3l-0.5,0.4l-0.6,0.3l-0.6,0.3L981,389l-0.6,0.1l-0.6,0.2l-0.6,0.1l-0.7,0.2l-0.6,0.1l-0.6,0l-0.6,0l-862.6,0.2l0,-0.2l-0.6,0l-0.6,0l-0.6,0l-0.8,-0.1l-0.4,-0.2l-0.6,-0.3L109.8,389l-0.6,-0.2l-0.6,-0.3L108,388.2l-0.4,-0.3l-0.7,-0.5l-0.4,-0.3L106,386.7l-0.4,-0.5l-0.5,-0.4l-0.4,-0.5l-0.4,-0.5l-0.4,-0.6l-0.3,-0.6l-0.3,-0.4L103,382.6l-0.2,-0.7l-0.3,-0.6l-0.1,-0.6l-0.2,-0.6l-0.1,-0.6l0,-0.6l-0.2,-0.6l0,-0.6l0,-48.9Z" class="g4_30" />
<path d="M101.9,328.8l0,-0.6l0.2,-0.6l0,-0.8l0.1,-0.6l0.2,-0.6l0.1,-0.6l0.3,-0.7l0.2,-0.6l0.3,-0.6l0.3,-0.4l0.3,-0.6l0.4,-0.5l0.4,-0.5l0.4,-0.6l0.5,-0.4l0.4,-0.5l0.5,-0.3l0.4,-0.5l0.7,-0.3l0.4,-0.3l0.6,-0.3l0.6,-0.3l0.6,-0.3l0.7,-0.1l0.6,-0.2l0.4,-0.1l0.8,-0.2l0.6,-0.1l0.6,0l0.6,0l862.6,0l0.6,0l0.6,0l0.6,0.1l0.7,0.2l0.6,0.1l0.6,0.2l0.6,0.1l0.6,0.3l0.6,0.3l0.6,0.3l0.5,0.3l0.4,0.3l0.6,0.5l0.5,0.5l0.5,0.3l0.4,0.4l0.3,0.6l0.5,0.5l0.4,0.5l0.4,0.6l0.3,0.4l0.3,0.6l0.1,0.6l0.2,0.7l0.3,0.6l0.1,0.6l0,0.6l0.2,0.8l0,0.6l0,0.6l0.1,48.9l0,0.6l-0.1,0.6l-0.2,0.6l0,0.6l-0.1,0.6l-0.2,0.6l-0.3,0.6l-0.1,0.7l-0.3,0.6l-0.3,0.4l-0.4,0.6l-0.4,0.5l-0.3,0.6l-0.5,0.5l-0.4,0.4l-0.5,0.5l-0.5,0.3l-0.6,0.4l-0.4,0.3l-0.5,0.4l-0.6,0.3l-0.6,0.3L981,389l-0.6,0.1l-0.6,0.2l-0.6,0.1l-0.7,0.2l-0.6,0.1l-0.6,0l-0.6,0l-862.6,0.2l0,-0.2l-0.6,0l-0.6,0l-0.6,0l-0.8,-0.1l-0.4,-0.2l-0.6,-0.3L109.8,389l-0.6,-0.2l-0.6,-0.3L108,388.2l-0.4,-0.3l-0.7,-0.5l-0.4,-0.3L106,386.7l-0.4,-0.5l-0.5,-0.4l-0.4,-0.5l-0.4,-0.5l-0.4,-0.6l-0.3,-0.6l-0.3,-0.4L103,382.6l-0.2,-0.7l-0.3,-0.6l-0.1,-0.6l-0.2,-0.6l-0.1,-0.6l0,-0.6l-0.2,-0.6l0,-0.6l0,-48.9Z" class="g2_30" />
</svg>