<?xml version="1.0" encoding="UTF-8" standalone="no"?>
<!DOCTYPE svg PUBLIC "-//W3C//DTD SVG 1.1//EN"
"http://www.w3.org/Graphics/SVG/1.1/DTD/svg11.dtd">
<svg viewBox="0 0 1210 1045" version="1.1" xmlns="http://www.w3.org/2000/svg" xmlns:xlink="http://www.w3.org/1999/xlink">
<defs>
<style type="text/css"><![CDATA[
.g2_12{
fill: none;
stroke: #418AB3;
stroke-width: 2;
stroke-linecap: butt;
stroke-linejoin: miter;
stroke-miterlimit: 7;
}
.g3_12{
fill: none;
stroke: #0000EE;
stroke-width: 2;
stroke-linecap: butt;
stroke-linejoin: miter;
}
.g1_12{
fill: #FFFFFF;
}
]]></style>
</defs>
<path fill-rule="evenodd" d="M0,0L1210,0l0,1045L0,1045L0,0Z" class="g1_12" />
<path fill-rule="evenodd" d="M0,0L1210,0l0,1045L0,1045L0,0Z" class="g1_12" />
<image x="828" y="984" width="334" height="49" xlink:href="img/1.png" />
<path fill-rule="evenodd" d="M261.3,79.4l0,-0.9l0.1,-0.9l0.2,-0.9l0,-0.8L261.9,75l0.3,-0.8l0.3,-0.9l0.3,-0.7l0.3,-0.8L263.5,71L264,70.3l0.5,-0.8l0.6,-0.7l0.4,-0.7l0.6,-0.6l0.7,-0.6l0.7,-0.6l0.6,-0.5l0.8,-0.6l0.8,-0.4l0.7,-0.3L271.2,64l0.9,-0.3l0.8,-0.3l0.9,-0.3l0.7,-0.2l1,-0.1l0.9,-0.2l0.7,0l1,0l653.8,0l1,0l0.7,0l0.9,0.2l1,0.1l0.7,0.2l0.9,0.3l0.8,0.3l0.8,0.3l0.9,0.5l0.7,0.3l0.8,0.4l0.8,0.6l0.6,0.5l0.6,0.6l0.8,0.6l0.6,0.6l0.4,0.7l0.6,0.7l0.5,0.8l0.5,0.7l0.4,0.8l0.3,0.8l0.3,0.7l0.3,0.9l0.3,0.8l0.2,0.9l0.1,0.8l0.2,0.9l0,0.9l0.2,0.9l0,67.1l0,0.9l-0.2,0.9l-0.2,1l-0.1,0.7l-0.2,0.9l-0.3,0.8l-0.3,0.9l-0.3,0.8l-0.3,0.8l-0.4,0.7l-0.5,0.8l-0.5,0.7l-0.6,0.7l-0.4,0.7l-0.6,0.6l-0.8,0.6l-0.6,0.7l-0.6,0.4l-0.8,0.5l-0.8,0.4l-0.7,0.5l-0.8,0.4l-0.9,0.4l-0.8,0.3l-0.9,0.1l-0.7,0.3l-1,0.2l-0.9,0l-0.7,0.1l-1,0l-653.8,0.2l0,-0.2l-1,0l-0.7,0l-0.9,-0.1l-1,-0.2l-0.7,-0.1l-0.9,-0.3l-0.8,-0.3l-0.9,-0.4l-0.8,-0.4L269.7,161l-0.8,-0.4l-0.8,-0.5l-0.6,-0.4L266.8,159l-0.7,-0.6l-0.6,-0.6l-0.4,-0.7l-0.6,-0.7L264,155.7l-0.5,-0.8l-0.4,-0.7l-0.3,-0.8l-0.3,-0.8l-0.3,-0.9l-0.3,-0.8L261.6,150l0,-0.7l-0.2,-1l-0.1,-0.9l0,-0.9l0,-67.1Z" class="g1_12" />
<path d="M261.3,79.4l0,-0.9l0.1,-0.9l0.2,-0.9l0,-0.8L261.9,75l0.3,-0.8l0.3,-0.9l0.3,-0.7l0.3,-0.8L263.5,71L264,70.3l0.5,-0.8l0.6,-0.7l0.4,-0.7l0.6,-0.6l0.7,-0.6l0.7,-0.6l0.6,-0.5l0.8,-0.6l0.8,-0.4l0.7,-0.3L271.2,64l0.9,-0.3l0.8,-0.3l0.9,-0.3l0.7,-0.2l1,-0.1l0.9,-0.2l0.7,0l1,0l653.8,0l1,0l0.7,0l0.9,0.2l1,0.1l0.7,0.2l0.9,0.3l0.8,0.3l0.8,0.3l0.9,0.5l0.7,0.3l0.8,0.4l0.8,0.6l0.6,0.5l0.6,0.6l0.8,0.6l0.6,0.6l0.4,0.7l0.6,0.7l0.5,0.8l0.5,0.7l0.4,0.8l0.3,0.8l0.3,0.7l0.3,0.9l0.3,0.8l0.2,0.9l0.1,0.8l0.2,0.9l0,0.9l0.2,0.9l0,67.1l0,0.9l-0.2,0.9l-0.2,1l-0.1,0.7l-0.2,0.9l-0.3,0.8l-0.3,0.9l-0.3,0.8l-0.3,0.8l-0.4,0.7l-0.5,0.8l-0.5,0.7l-0.6,0.7l-0.4,0.7l-0.6,0.6l-0.8,0.6l-0.6,0.7l-0.6,0.4l-0.8,0.5l-0.8,0.4l-0.7,0.5l-0.8,0.4l-0.9,0.4l-0.8,0.3l-0.9,0.1l-0.7,0.3l-1,0.2l-0.9,0l-0.7,0.1l-1,0l-653.8,0.2l0,-0.2l-1,0l-0.7,0l-0.9,-0.1l-1,-0.2l-0.7,-0.1l-0.9,-0.3l-0.8,-0.3l-0.9,-0.4l-0.8,-0.4L269.7,161l-0.8,-0.4l-0.8,-0.5l-0.6,-0.4L266.8,159l-0.7,-0.6l-0.6,-0.6l-0.4,-0.7l-0.6,-0.7L264,155.7l-0.5,-0.8l-0.4,-0.7l-0.3,-0.8l-0.3,-0.8l-0.3,-0.9l-0.3,-0.8L261.6,150l0,-0.7l-0.2,-1l-0.1,-0.9l0,-0.9l0,-67.1Z" class="g2_12" />
<path d="M291,138l468,0" class="g3_12" />
</svg>