<?xml version="1.0" encoding="UTF-8" standalone="no"?>
<!DOCTYPE svg PUBLIC "-//W3C//DTD SVG 1.1//EN"
"http://www.w3.org/Graphics/SVG/1.1/DTD/svg11.dtd">
<svg viewBox="0 0 1100 825" version="1.1" xmlns="http://www.w3.org/2000/svg" xmlns:xlink="http://www.w3.org/1999/xlink">
<defs>
<style type="text/css"><![CDATA[
.g2_115{
fill: none;
stroke: #000000;
stroke-width: 2;
stroke-linecap: butt;
stroke-linejoin: miter;
stroke-miterlimit: 7;
}
.g3_115{
fill: none;
stroke: #0070C0;
stroke-width: 2;
stroke-linecap: butt;
stroke-linejoin: miter;
}
.g1_115{
fill: #FFFFFF;
}
]]></style>
</defs>
<path fill-rule="evenodd" d="M0,0L1100,0l0,825L0,825L0,0Z" class="g1_115" />
<path fill-rule="evenodd" d="M0,0L1100,0l0,825L0,825L0,0Z" class="g1_115" />
<image x="753" y="777" width="303" height="38" xlink:href="img/1.png" />
<path fill-rule="evenodd" d="M76.8,255.4l0,-0.6L77,254.2l0.2,-0.6l0,-0.6l0.1,-0.8l0.2,-0.6l0.3,-0.4l0.3,-0.6l0.1,-0.7l0.3,-0.6l0.3,-0.4l0.5,-0.6l0.5,-0.5l0.3,-0.6l0.4,-0.5L81,246.3L81.4,246L82,245.5l0.5,-0.3l0.6,-0.4l0.6,-0.4l0.5,-0.1L84.8,244l0.6,-0.2L86,243.5l0.6,-0.1l0.6,0L88,243.2l0.6,0l0.6,0l598.6,0l0.6,0l0.6,0l0.6,0.2l0.6,0l0.8,0.1l0.6,0.3l0.6,0.2l0.6,0.3l0.5,0.1l0.6,0.5l0.6,0.3l0.5,0.3l0.4,0.5l0.7,0.4l0.4,0.3l0.5,0.6l0.3,0.5l0.4,0.5l0.3,0.6l0.3,0.4l0.4,0.6l0.3,0.7l0.3,0.6l0.1,0.4l0.2,0.6l0.3,0.8l0,0.6l0.1,0.6l0,0.6l0,0.6l0.2,49.5l-0.2,0l0,0.7l0,0.6l-0.1,0.6l0,0.7l-0.2,0.7l-0.1,0.6l-0.3,0.6L699,310l-0.2,0.4l-0.5,0.7l-0.3,0.6l-0.3,0.4l-0.4,0.6l-0.3,0.5l-0.5,0.5l-0.4,0.4l-0.7,0.5l-0.4,0.3l-0.5,0.3l-0.6,0.4l-0.6,0.3l-0.5,0.2l-0.6,0.3l-0.6,0.2l-0.6,0.3l-0.8,0.1l-0.6,0.2l-0.6,0l-0.6,0l-0.6,0L89.2,317.3l-0.6,0L88,317.2l-0.8,0L86.6,317L86,316.9l-0.6,-0.2l-0.6,-0.3l-0.6,-0.1l-0.5,-0.4l-0.6,-0.3l-0.6,-0.3L82,314.9l-0.6,-0.3L81,314.1l-0.5,-0.4l-0.4,-0.5l-0.3,-0.5l-0.5,-0.6l-0.5,-0.4l-0.3,-0.6l-0.3,-0.7L78.1,310l-0.3,-0.6l-0.3,-0.6l-0.2,-0.6l-0.1,-0.7l0,-0.6L77,306.2l-0.2,-0.6l0,-0.7l0,-49.5Z" class="g1_115" />
<path d="M76.8,255.4l0,-0.6L77,254.2l0.2,-0.6l0,-0.6l0.1,-0.8l0.2,-0.6l0.3,-0.4l0.3,-0.6l0.1,-0.7l0.3,-0.6l0.3,-0.4l0.5,-0.6l0.5,-0.5l0.3,-0.6l0.4,-0.5L81,246.3L81.4,246L82,245.5l0.5,-0.3l0.6,-0.4l0.6,-0.4l0.5,-0.1L84.8,244l0.6,-0.2L86,243.5l0.6,-0.1l0.6,0L88,243.2l0.6,0l0.6,0l598.6,0l0.6,0l0.6,0l0.6,0.2l0.6,0l0.8,0.1l0.6,0.3l0.6,0.2l0.6,0.3l0.5,0.1l0.6,0.5l0.6,0.3l0.5,0.3l0.4,0.5l0.7,0.4l0.4,0.3l0.5,0.6l0.3,0.5l0.4,0.5l0.3,0.6l0.3,0.4l0.4,0.6l0.3,0.7l0.3,0.6l0.1,0.4l0.2,0.6l0.3,0.8l0,0.6l0.1,0.6l0,0.6l0,0.6l0.2,49.5l-0.2,0l0,0.7l0,0.6l-0.1,0.6l0,0.7l-0.2,0.7l-0.1,0.6l-0.3,0.6L699,310l-0.2,0.4l-0.5,0.7l-0.3,0.6l-0.3,0.4l-0.4,0.6l-0.3,0.5l-0.5,0.5l-0.4,0.4l-0.7,0.5l-0.4,0.3l-0.5,0.3l-0.6,0.4l-0.6,0.3l-0.5,0.2l-0.6,0.3l-0.6,0.2l-0.6,0.3l-0.8,0.1l-0.6,0.2l-0.6,0l-0.6,0l-0.6,0L89.2,317.3l-0.6,0L88,317.2l-0.8,0L86.6,317L86,316.9l-0.6,-0.2l-0.6,-0.3l-0.6,-0.1l-0.5,-0.4l-0.6,-0.3l-0.6,-0.3L82,314.9l-0.6,-0.3L81,314.1l-0.5,-0.4l-0.4,-0.5l-0.3,-0.5l-0.5,-0.6l-0.5,-0.4l-0.3,-0.6l-0.3,-0.7L78.1,310l-0.3,-0.6l-0.3,-0.6l-0.2,-0.6l-0.1,-0.7l0,-0.6L77,306.2l-0.2,-0.6l0,-0.7l0,-49.5Z" class="g2_115" />
<path d="M104,302l420,0" class="g3_115" />
</svg>