<?xml version="1.0" encoding="UTF-8" standalone="no"?>
<!DOCTYPE svg PUBLIC "-//W3C//DTD SVG 1.1//EN"
"http://www.w3.org/Graphics/SVG/1.1/DTD/svg11.dtd">
<svg viewBox="0 0 1210 1210" version="1.1" xmlns="http://www.w3.org/2000/svg" xmlns:xlink="http://www.w3.org/1999/xlink">
<defs>
<style type="text/css"><![CDATA[
.g2_159{
fill: none;
stroke: #418AB3;
stroke-width: 2;
stroke-linecap: butt;
stroke-linejoin: miter;
stroke-miterlimit: 7;
}
.g3_159{
fill: none;
stroke: #0000EE;
stroke-width: 2;
stroke-linecap: butt;
stroke-linejoin: miter;
}
.g1_159{
fill: #FFFFFF;
}
]]></style>
</defs>
<path fill-rule="evenodd" d="M0,0L1210,0l0,1210L0,1210L0,0Z" class="g1_159" />
<path fill-rule="evenodd" d="M0,0L1210,0l0,1210L0,1210L0,0Z" class="g1_159" />
<path fill-rule="evenodd" d="M110,77.9l0,-1.2l0.2,-1.2l0.1,-1.3l0.2,-1L110.8,72l0.3,-1.1l0.4,-1.2L112,68.6l0.4,-1.1l0.7,-1l0.6,-1.1l0.6,-0.9L115,63.6l0.8,-1l0.9,-0.9L117.5,61l0.9,-1l1.1,-0.6l0.9,-0.7l1.1,-0.6l1,-0.7L123.6,57l1.1,-0.5l1,-0.4L127,55.8l1,-0.3l1.2,-0.2l1.3,-0.1L131.7,55l1.2,0l789,0l1.2,0l1.2,0.2l1.2,0.1l1.1,0.2l1.2,0.3l1.1,0.3l1.2,0.4l1.1,0.5l1.1,0.4l1,0.7l1.1,0.6l0.9,0.7l0.9,0.6l0.9,1l1,0.7l0.7,0.9l0.8,1l0.7,0.9l0.8,0.9l0.6,1.1l0.5,1l0.6,1.1l0.5,1.1l0.3,1.2L944,72l0.2,1.2l0.3,1l0.1,1.3l0,1.2l0.2,1.2l0,91.7l0,1.2l-0.2,1.1l-0.1,1.2l-0.2,1.2l-0.3,1.2l-0.3,1.1l-0.4,1.1l-0.5,1.2l-0.5,1.1l-0.6,1l-0.6,1l-0.8,1l-0.6,0.9l-0.7,1l-0.9,0.7l-1,0.9l-0.7,0.8l-1.1,0.8l-0.9,0.6l-1.1,0.6l-1,0.6l-1.1,0.5l-1.1,0.6l-1.2,0.3l-1.1,0.3l-1.2,0.3l-1.1,0.3l-1.2,0.1l-1.2,0l-1.2,0l-789,0.2l-1.2,-0.2l-1.2,0l-1.3,-0.1L128,191.9l-1,-0.2l-1.3,-0.4l-1,-0.3l-1.1,-0.5l-1.1,-0.6l-1,-0.5l-1.1,-0.6l-0.9,-0.7l-1.1,-0.8l-0.9,-0.8l-0.8,-0.7l-0.9,-0.9l-0.8,-1L114.3,183l-0.6,-1l-0.6,-1l-0.7,-1L112,178.9l-0.5,-1.1l-0.4,-1.2l-0.3,-1.1l-0.3,-1.2l-0.2,-1.2l-0.1,-1.2L110,170.8l0,-1.2l0,-91.7Z" class="g1_159" />
<path d="M110,77.9l0,-1.2l0.2,-1.2l0.1,-1.3l0.2,-1L110.8,72l0.3,-1.1l0.4,-1.2L112,68.6l0.4,-1.1l0.7,-1l0.6,-1.1l0.6,-0.9L115,63.6l0.8,-1l0.9,-0.9L117.5,61l0.9,-1l1.1,-0.6l0.9,-0.7l1.1,-0.6l1,-0.7L123.6,57l1.1,-0.5l1,-0.4L127,55.8l1,-0.3l1.2,-0.2l1.3,-0.1L131.7,55l1.2,0l789,0l1.2,0l1.2,0.2l1.2,0.1l1.1,0.2l1.2,0.3l1.1,0.3l1.2,0.4l1.1,0.5l1.1,0.4l1,0.7l1.1,0.6l0.9,0.7l0.9,0.6l0.9,1l1,0.7l0.7,0.9l0.8,1l0.7,0.9l0.8,0.9l0.6,1.1l0.5,1l0.6,1.1l0.5,1.1l0.3,1.2L944,72l0.2,1.2l0.3,1l0.1,1.3l0,1.2l0.2,1.2l0,91.7l0,1.2l-0.2,1.1l-0.1,1.2l-0.2,1.2l-0.3,1.2l-0.3,1.1l-0.4,1.1l-0.5,1.2l-0.5,1.1l-0.6,1l-0.6,1l-0.8,1l-0.6,0.9l-0.7,1l-0.9,0.7l-1,0.9l-0.7,0.8l-1.1,0.8l-0.9,0.6l-1.1,0.6l-1,0.6l-1.1,0.5l-1.1,0.6l-1.2,0.3l-1.1,0.3l-1.2,0.3l-1.1,0.3l-1.2,0.1l-1.2,0l-1.2,0l-789,0.2l-1.2,-0.2l-1.2,0l-1.3,-0.1L128,191.9l-1,-0.2l-1.3,-0.4l-1,-0.3l-1.1,-0.5l-1.1,-0.6l-1,-0.5l-1.1,-0.6l-0.9,-0.7l-1.1,-0.8l-0.9,-0.8l-0.8,-0.7l-0.9,-0.9l-0.8,-1L114.3,183l-0.6,-1l-0.6,-1l-0.7,-1L112,178.9l-0.5,-1.1l-0.4,-1.2l-0.3,-1.1l-0.3,-1.2l-0.2,-1.2l-0.1,-1.2L110,170.8l0,-1.2l0,-91.7Z" class="g2_159" />
<path d="M269,132l454,0" class="g3_159" />
<path d="M263,165l472,0" class="g3_159" />
</svg>