<?xml version="1.0" encoding="UTF-8" standalone="no"?>
<!DOCTYPE svg PUBLIC "-//W3C//DTD SVG 1.1//EN"
"http://www.w3.org/Graphics/SVG/1.1/DTD/svg11.dtd">
<svg version="1.1" xmlns="http://www.w3.org/2000/svg" xmlns:xlink="http://www.w3.org/1999/xlink">
<defs>
<clipPath id="c0_3"><path d="M0.5,825.5l0,-825l1466,0l0,825Z" /></clipPath>
<style type="text/css"><![CDATA[
.g4_3{
fill: none;
stroke: #000000;
stroke-width: 2;
stroke-linecap: butt;
stroke-linejoin: miter;
}
.g3_3{
fill: none;
stroke: #5B9BD5;
stroke-width: 2;
stroke-linecap: butt;
stroke-linejoin: miter;
stroke-miterlimit: 7;
}
.g2_3{
fill: none;
stroke: #48A1FA;
stroke-width: 1;
stroke-linecap: butt;
stroke-linejoin: miter;
stroke-miterlimit: 7;
}
.g1_3{
fill: #FFFFFF;
}
]]></style>
</defs>
<path fill-rule="evenodd" d="M0,0L1466,0l0,825L0,825L0,0Z" class="g1_3" />
<path fill-rule="evenodd" d="M0,0L1466,0l0,825L0,825L0,0Z" class="g1_3" />
<g clip-path="url(#c0_3)">
<use 
xlink:href ="#F1_2" 
 transform="matrix(0.0105 , 0, 0 , -0.0105, 59.7 , 801.9)"
fill="#FFFFFF" 
stroke="none" 
 />
<use 
xlink:href ="#F1_3" 
 transform="matrix(0.0105 , 0, 0 , -0.0105, 71 , 801.9)"
fill="#FFFFFF" 
stroke="none" 
 />
<use 
xlink:href ="#F1_4" 
 transform="matrix(0.0105 , 0, 0 , -0.0105, 80 , 801.9)"
fill="#FFFFFF" 
stroke="none" 
 />
<use 
xlink:href ="#F1_5" 
 transform="matrix(0.0105 , 0, 0 , -0.0105, 89 , 801.9)"
fill="#FFFFFF" 
stroke="none" 
 />
<use 
xlink:href ="#F1_6" 
 transform="matrix(0.0105 , 0, 0 , -0.0105, 97.1 , 801.9)"
fill="#FFFFFF" 
stroke="none" 
 />
<use 
xlink:href ="#F1_7" 
 transform="matrix(0.0105 , 0, 0 , -0.0105, 102.3 , 801.9)"
fill="#FFFFFF" 
stroke="none" 
 />
<use 
xlink:href ="#F1_8" 
 transform="matrix(0.0105 , 0, 0 , -0.0105, 106 , 801.9)"
fill="#FFFFFF" 
stroke="none" 
 />
<use 
xlink:href ="#F1_9" 
 transform="matrix(0.0105 , 0, 0 , -0.0105, 115 , 801.9)"
fill="#FFFFFF" 
stroke="none" 
 />
<use 
xlink:href ="#F1_10" 
 transform="matrix(0.0105 , 0, 0 , -0.0105, 124 , 801.9)"
fill="#FFFFFF" 
stroke="none" 
 />
<use 
xlink:href ="#F1_12" 
 transform="matrix(0.0105 , 0, 0 , -0.0105, 132.7 , 801.9)"
fill="#FFFFFF" 
stroke="none" 
 />
<use 
xlink:href ="#F1_13" 
 transform="matrix(0.0105 , 0, 0 , -0.0105, 153.5 , 801.9)"
fill="#FFFFFF" 
stroke="none" 
 />
<use 
xlink:href ="#F1_14" 
 transform="matrix(0.0105 , 0, 0 , -0.0105, 162.3 , 801.9)"
fill="#FFFFFF" 
stroke="none" 
 />
<use 
xlink:href ="#F1_15" 
 transform="matrix(0.0105 , 0, 0 , -0.0105, 171 , 801.9)"
fill="#FFFFFF" 
stroke="none" 
 />
<use 
xlink:href ="#F1_16" 
 transform="matrix(0.0105 , 0, 0 , -0.0105, 180 , 801.9)"
fill="#FFFFFF" 
stroke="none" 
 />
<use 
xlink:href ="#F1_17" 
 transform="matrix(0.0105 , 0, 0 , -0.0105, 188.9 , 801.9)"
fill="#FFFFFF" 
stroke="none" 
 />
<use 
xlink:href ="#F1_18" 
 transform="matrix(0.0105 , 0, 0 , -0.0105, 197.6 , 801.9)"
fill="#FFFFFF" 
stroke="none" 
 />
<use 
xlink:href ="#F1_19" 
 transform="matrix(0.0105 , 0, 0 , -0.0105, 202 , 801.9)"
fill="#FFFFFF" 
stroke="none" 
 />
<use 
xlink:href ="#F1_20" 
 transform="matrix(0.0105 , 0, 0 , -0.0105, 211 , 801.9)"
fill="#FFFFFF" 
stroke="none" 
 />
<use 
xlink:href ="#F1_3" 
 transform="matrix(0.0105 , 0, 0 , -0.0105, 215.4 , 801.9)"
fill="#FFFFFF" 
stroke="none" 
 />
<use 
xlink:href ="#F1_21" 
 transform="matrix(0.0105 , 0, 0 , -0.0105, 224.3 , 801.9)"
fill="#FFFFFF" 
stroke="none" 
 />
<use 
xlink:href ="#F1_5" 
 transform="matrix(0.0105 , 0, 0 , -0.0105, 232.2 , 801.9)"
fill="#FFFFFF" 
stroke="none" 
 />
<use 
xlink:href ="#F1_21" 
 transform="matrix(0.0105 , 0, 0 , -0.0105, 240.3 , 801.9)"
fill="#FFFFFF" 
stroke="none" 
 />
<use 
xlink:href ="#F1_22" 
 transform="matrix(0.0105 , 0, 0 , -0.0105, 252.5 , 801.9)"
fill="#FFFFFF" 
stroke="none" 
 />
<use 
xlink:href ="#F1_7" 
 transform="matrix(0.0105 , 0, 0 , -0.0105, 261.4 , 801.9)"
fill="#FFFFFF" 
stroke="none" 
 />
<use 
xlink:href ="#F1_23" 
 transform="matrix(0.0105 , 0, 0 , -0.0105, 265.1 , 801.9)"
fill="#FFFFFF" 
stroke="none" 
 />
<use 
xlink:href ="#F1_7" 
 transform="matrix(0.0105 , 0, 0 , -0.0105, 278.5 , 801.9)"
fill="#FFFFFF" 
stroke="none" 
 />
<use 
xlink:href ="#F1_10" 
 transform="matrix(0.0105 , 0, 0 , -0.0105, 282 , 801.9)"
fill="#FFFFFF" 
stroke="none" 
 />
<use 
xlink:href ="#F1_24" 
 transform="matrix(0.0105 , 0, 0 , -0.0105, 286.4 , 801.9)"
fill="#FFFFFF" 
stroke="none" 
 />
<use 
xlink:href ="#F1_25" 
 transform="matrix(0.0105 , 0, 0 , -0.0105, 295.4 , 801.9)"
fill="#FFFFFF" 
stroke="none" 
 />
<use 
xlink:href ="#F1_26" 
 transform="matrix(0.012 , 0, 0 , -0.012, 80.8 , 22.9)"
fill="#5B9BD5" 
stroke="none" 
 />
<use 
xlink:href ="#F2_38" 
 transform="matrix(0.012 , 0, 0 , -0.012, 108.6 , 24)"
fill="#000000" 
stroke="none" 
 />
<use 
xlink:href ="#F2_6" 
 transform="matrix(0.012 , 0, 0 , -0.012, 121.4 , 24)"
fill="#000000" 
stroke="none" 
 />
<use 
xlink:href ="#F2_13" 
 transform="matrix(0.012 , 0, 0 , -0.012, 132.9 , 24)"
fill="#000000" 
stroke="none" 
 />
<use 
xlink:href ="#F2_12" 
 transform="matrix(0.012 , 0, 0 , -0.012, 140.5 , 24)"
fill="#000000" 
stroke="none" 
 />
<use 
xlink:href ="#F2_4" 
 transform="matrix(0.012 , 0, 0 , -0.012, 147.7 , 24)"
fill="#000000" 
stroke="none" 
 />
<use 
xlink:href ="#F2_11" 
 transform="matrix(0.012 , 0, 0 , -0.012, 159 , 24)"
fill="#000000" 
stroke="none" 
 />
<use 
xlink:href ="#F2_9" 
 transform="matrix(0.012 , 0, 0 , -0.012, 168.6 , 24)"
fill="#000000" 
stroke="none" 
 />
<use 
xlink:href ="#F2_6" 
 transform="matrix(0.012 , 0, 0 , -0.012, 173.6 , 24)"
fill="#000000" 
stroke="none" 
 />
<use 
xlink:href ="#F2_10" 
 transform="matrix(0.012 , 0, 0 , -0.012, 185.1 , 24)"
fill="#000000" 
stroke="none" 
 />
<use 
xlink:href ="#F2_41" 
 transform="matrix(0.012 , 0, 0 , -0.012, 202.3 , 24)"
fill="#000000" 
stroke="none" 
 />
<use 
xlink:href ="#F2_13" 
 transform="matrix(0.012 , 0, 0 , -0.012, 213 , 24)"
fill="#000000" 
stroke="none" 
 />
<use 
xlink:href ="#F2_14" 
 transform="matrix(0.012 , 0, 0 , -0.012, 220.2 , 24)"
fill="#000000" 
stroke="none" 
 />
<use 
xlink:href ="#F2_7" 
 transform="matrix(0.012 , 0, 0 , -0.012, 231.4 , 24)"
fill="#000000" 
stroke="none" 
 />
<use 
xlink:href ="#F2_17" 
 transform="matrix(0.012 , 0, 0 , -0.012, 243.1 , 24)"
fill="#000000" 
stroke="none" 
 />
<use 
xlink:href ="#F2_29" 
 transform="matrix(0.012 , 0, 0 , -0.012, 254.7 , 24)"
fill="#000000" 
stroke="none" 
 />
<use 
xlink:href ="#F2_12" 
 transform="matrix(0.012 , 0, 0 , -0.012, 264.9 , 24)"
fill="#000000" 
stroke="none" 
 />
<use 
xlink:href ="#F2_14" 
 transform="matrix(0.012 , 0, 0 , -0.012, 277.9 , 24)"
fill="#000000" 
stroke="none" 
 />
<use 
xlink:href ="#F2_16" 
 transform="matrix(0.012 , 0, 0 , -0.012, 289.1 , 24)"
fill="#000000" 
stroke="none" 
 />
<use 
xlink:href ="#F2_12" 
 transform="matrix(0.012 , 0, 0 , -0.012, 301.3 , 24)"
fill="#000000" 
stroke="none" 
 />
<use 
xlink:href ="#F2_3" 
 transform="matrix(0.012 , 0, 0 , -0.012, 308.6 , 24)"
fill="#000000" 
stroke="none" 
 />
<use 
xlink:href ="#F2_4" 
 transform="matrix(0.012 , 0, 0 , -0.012, 320.1 , 24)"
fill="#000000" 
stroke="none" 
 />
<use 
xlink:href ="#F2_13" 
 transform="matrix(0.012 , 0, 0 , -0.012, 337.3 , 24)"
fill="#000000" 
stroke="none" 
 />
<use 
xlink:href ="#F2_4" 
 transform="matrix(0.012 , 0, 0 , -0.012, 344.5 , 24)"
fill="#000000" 
stroke="none" 
 />
<use 
xlink:href ="#F2_29" 
 transform="matrix(0.012 , 0, 0 , -0.012, 355.8 , 24)"
fill="#000000" 
stroke="none" 
 />
<use 
xlink:href ="#F2_14" 
 transform="matrix(0.012 , 0, 0 , -0.012, 366 , 24)"
fill="#000000" 
stroke="none" 
 />
<use 
xlink:href ="#F2_13" 
 transform="matrix(0.012 , 0, 0 , -0.012, 377.2 , 24)"
fill="#000000" 
stroke="none" 
 />
<use 
xlink:href ="#F2_7" 
 transform="matrix(0.012 , 0, 0 , -0.012, 384.5 , 24)"
fill="#000000" 
stroke="none" 
 />
<use 
xlink:href ="#F2_11" 
 transform="matrix(0.012 , 0, 0 , -0.012, 396.2 , 24)"
fill="#000000" 
stroke="none" 
 />
<use 
xlink:href ="#F2_42" 
 transform="matrix(0.012 , 0, 0 , -0.012, 411.7 , 24)"
fill="#000000" 
stroke="none" 
 />
<use 
xlink:href ="#F2_13" 
 transform="matrix(0.012 , 0, 0 , -0.012, 423.7 , 24)"
fill="#000000" 
stroke="none" 
 />
<use 
xlink:href ="#F2_14" 
 transform="matrix(0.012 , 0, 0 , -0.012, 430.9 , 24)"
fill="#000000" 
stroke="none" 
 />
<use 
xlink:href ="#F2_20" 
 transform="matrix(0.012 , 0, 0 , -0.012, 442.1 , 24)"
fill="#000000" 
stroke="none" 
 />
<use 
xlink:href ="#F2_11" 
 transform="matrix(0.012 , 0, 0 , -0.012, 457.2 , 24)"
fill="#000000" 
stroke="none" 
 />
<use 
xlink:href ="#F2_16" 
 transform="matrix(0.012 , 0, 0 , -0.012, 472.5 , 24)"
fill="#000000" 
stroke="none" 
 />
<use 
xlink:href ="#F2_13" 
 transform="matrix(0.012 , 0, 0 , -0.012, 479 , 24)"
fill="#000000" 
stroke="none" 
 />
<use 
xlink:href ="#F2_14" 
 transform="matrix(0.012 , 0, 0 , -0.012, 486 , 24)"
fill="#000000" 
stroke="none" 
 />
<use 
xlink:href ="#F2_8" 
 transform="matrix(0.012 , 0, 0 , -0.012, 497.2 , 24)"
fill="#000000" 
stroke="none" 
 />
<use 
xlink:href ="#F2_12" 
 transform="matrix(0.012 , 0, 0 , -0.012, 520.8 , 24)"
fill="#000000" 
stroke="none" 
 />
<use 
xlink:href ="#F2_20" 
 transform="matrix(0.012 , 0, 0 , -0.012, 528 , 24)"
fill="#000000" 
stroke="none" 
 />
<use 
xlink:href ="#F2_14" 
 transform="matrix(0.012 , 0, 0 , -0.012, 543 , 24)"
fill="#000000" 
stroke="none" 
 />
<use 
xlink:href ="#F2_14" 
 transform="matrix(0.012 , 0, 0 , -0.012, 560.1 , 24)"
fill="#000000" 
stroke="none" 
 />
<use 
xlink:href ="#F2_13" 
 transform="matrix(0.012 , 0, 0 , -0.012, 571.2 , 24)"
fill="#000000" 
stroke="none" 
 />
<use 
xlink:href ="#F2_8" 
 transform="matrix(0.012 , 0, 0 , -0.012, 584.8 , 24)"
fill="#000000" 
stroke="none" 
 />
<use 
xlink:href ="#F2_14" 
 transform="matrix(0.012 , 0, 0 , -0.012, 602.5 , 24)"
fill="#000000" 
stroke="none" 
 />
<use 
xlink:href ="#F2_13" 
 transform="matrix(0.012 , 0, 0 , -0.012, 613.8 , 24)"
fill="#000000" 
stroke="none" 
 />
<use 
xlink:href ="#F2_4" 
 transform="matrix(0.012 , 0, 0 , -0.012, 620.9 , 24)"
fill="#000000" 
stroke="none" 
 />
<use 
xlink:href ="#F2_43" 
 transform="matrix(0.012 , 0, 0 , -0.012, 638.1 , 24)"
fill="#000000" 
stroke="none" 
 />
<use 
xlink:href ="#F2_14" 
 transform="matrix(0.012 , 0, 0 , -0.012, 643.3 , 24)"
fill="#000000" 
stroke="none" 
 />
<use 
xlink:href ="#F2_9" 
 transform="matrix(0.012 , 0, 0 , -0.012, 654.4 , 24)"
fill="#000000" 
stroke="none" 
 />
<use 
xlink:href ="#F2_10" 
 transform="matrix(0.012 , 0, 0 , -0.012, 659.6 , 24)"
fill="#000000" 
stroke="none" 
 />
<use 
xlink:href ="#F2_4" 
 transform="matrix(0.012 , 0, 0 , -0.012, 671.1 , 24)"
fill="#000000" 
stroke="none" 
 />
<use 
xlink:href ="#F2_7" 
 transform="matrix(0.012 , 0, 0 , -0.012, 682.5 , 24)"
fill="#000000" 
stroke="none" 
 />
<use 
xlink:href ="#F2_12" 
 transform="matrix(0.012 , 0, 0 , -0.012, 700 , 24)"
fill="#000000" 
stroke="none" 
 />
<use 
xlink:href ="#F2_6" 
 transform="matrix(0.012 , 0, 0 , -0.012, 707.2 , 24)"
fill="#000000" 
stroke="none" 
 />
<use 
xlink:href ="#F2_26" 
 transform="matrix(0.012 , 0, 0 , -0.012, 718.5 , 24)"
fill="#000000" 
stroke="none" 
 />
<use 
xlink:href ="#F2_22" 
 transform="matrix(0.012 , 0, 0 , -0.012, 730 , 24)"
fill="#000000" 
stroke="none" 
 />
<use 
xlink:href ="#F2_4" 
 transform="matrix(0.012 , 0, 0 , -0.012, 735.1 , 24)"
fill="#000000" 
stroke="none" 
 />
<use 
xlink:href ="#F2_11" 
 transform="matrix(0.012 , 0, 0 , -0.012, 746.4 , 24)"
fill="#000000" 
stroke="none" 
 />
<use 
xlink:href ="#F1_26" 
 transform="matrix(0.012 , 0, 0 , -0.012, 80.8 , 65.7)"
fill="#5B9BD5" 
stroke="none" 
 />
<use 
xlink:href ="#F2_27" 
 transform="matrix(0.012 , 0, 0 , -0.012, 108.6 , 66.8)"
fill="#000000" 
stroke="none" 
 />
<use 
xlink:href ="#F2_19" 
 transform="matrix(0.012 , 0, 0 , -0.012, 120.4 , 66.8)"
fill="#000000" 
stroke="none" 
 />
<use 
xlink:href ="#F2_10" 
 transform="matrix(0.012 , 0, 0 , -0.012, 131.2 , 66.8)"
fill="#000000" 
stroke="none" 
 />
<use 
xlink:href ="#F2_12" 
 transform="matrix(0.012 , 0, 0 , -0.012, 142.7 , 66.8)"
fill="#000000" 
stroke="none" 
 />
<use 
xlink:href ="#F2_6" 
 transform="matrix(0.012 , 0, 0 , -0.012, 149.9 , 66.8)"
fill="#000000" 
stroke="none" 
 />
<use 
xlink:href ="#F2_44" 
 transform="matrix(0.012 , 0, 0 , -0.012, 161.3 , 66.8)"
fill="#000000" 
stroke="none" 
 />
<use 
xlink:href ="#F2_9" 
 transform="matrix(0.012 , 0, 0 , -0.012, 177.9 , 66.8)"
fill="#000000" 
stroke="none" 
 />
<use 
xlink:href ="#F2_11" 
 transform="matrix(0.012 , 0, 0 , -0.012, 183 , 66.8)"
fill="#000000" 
stroke="none" 
 />
<use 
xlink:href ="#F2_6" 
 transform="matrix(0.012 , 0, 0 , -0.012, 198.4 , 66.8)"
fill="#000000" 
stroke="none" 
 />
<use 
xlink:href ="#F2_11" 
 transform="matrix(0.012 , 0, 0 , -0.012, 209.8 , 66.8)"
fill="#000000" 
stroke="none" 
 />
<use 
xlink:href ="#F2_16" 
 transform="matrix(0.012 , 0, 0 , -0.012, 225.1 , 66.8)"
fill="#000000" 
stroke="none" 
 />
<use 
xlink:href ="#F2_14" 
 transform="matrix(0.012 , 0, 0 , -0.012, 231.7 , 66.8)"
fill="#000000" 
stroke="none" 
 />
<use 
xlink:href ="#F2_22" 
 transform="matrix(0.012 , 0, 0 , -0.012, 242.8 , 66.8)"
fill="#000000" 
stroke="none" 
 />
<use 
xlink:href ="#F2_22" 
 transform="matrix(0.012 , 0, 0 , -0.012, 247.8 , 66.8)"
fill="#000000" 
stroke="none" 
 />
<use 
xlink:href ="#F2_14" 
 transform="matrix(0.012 , 0, 0 , -0.012, 253 , 66.8)"
fill="#000000" 
stroke="none" 
 />
<use 
xlink:href ="#F2_20" 
 transform="matrix(0.012 , 0, 0 , -0.012, 264.2 , 66.8)"
fill="#000000" 
stroke="none" 
 />
<use 
xlink:href ="#F2_11" 
 transform="matrix(0.012 , 0, 0 , -0.012, 279.1 , 66.8)"
fill="#000000" 
stroke="none" 
 />
<use 
xlink:href ="#F1_26" 
 transform="matrix(0.012 , 0, 0 , -0.012, 80.8 , 191.9)"
fill="#5B9BD5" 
stroke="none" 
 />
<use 
xlink:href ="#F2_45" 
 transform="matrix(0.012 , 0, 0 , -0.012, 108.6 , 193)"
fill="#000000" 
stroke="none" 
 />
<use 
xlink:href ="#F2_18" 
 transform="matrix(0.012 , 0, 0 , -0.012, 120.2 , 193)"
fill="#000000" 
stroke="none" 
 />
<use 
xlink:href ="#F2_4" 
 transform="matrix(0.012 , 0, 0 , -0.012, 130.9 , 193)"
fill="#000000" 
stroke="none" 
 />
<use 
xlink:href ="#F2_13" 
 transform="matrix(0.012 , 0, 0 , -0.012, 142.3 , 193)"
fill="#000000" 
stroke="none" 
 />
<use 
xlink:href ="#F2_19" 
 transform="matrix(0.012 , 0, 0 , -0.012, 150 , 193)"
fill="#000000" 
stroke="none" 
 />
<use 
xlink:href ="#F2_13" 
 transform="matrix(0.012 , 0, 0 , -0.012, 166.7 , 193)"
fill="#000000" 
stroke="none" 
 />
<use 
xlink:href ="#F2_14" 
 transform="matrix(0.012 , 0, 0 , -0.012, 173.8 , 193)"
fill="#000000" 
stroke="none" 
 />
<use 
xlink:href ="#F2_20" 
 transform="matrix(0.012 , 0, 0 , -0.012, 185.1 , 193)"
fill="#000000" 
stroke="none" 
 />
<use 
xlink:href ="#F2_16" 
 transform="matrix(0.012 , 0, 0 , -0.012, 205.8 , 193)"
fill="#000000" 
stroke="none" 
 />
<use 
xlink:href ="#F2_13" 
 transform="matrix(0.012 , 0, 0 , -0.012, 212.3 , 193)"
fill="#000000" 
stroke="none" 
 />
<use 
xlink:href ="#F2_14" 
 transform="matrix(0.012 , 0, 0 , -0.012, 219.5 , 193)"
fill="#000000" 
stroke="none" 
 />
<use 
xlink:href ="#F2_8" 
 transform="matrix(0.012 , 0, 0 , -0.012, 230.6 , 193)"
fill="#000000" 
stroke="none" 
 />
<use 
xlink:href ="#F2_12" 
 transform="matrix(0.012 , 0, 0 , -0.012, 254.3 , 193)"
fill="#000000" 
stroke="none" 
 />
<use 
xlink:href ="#F2_6" 
 transform="matrix(0.012 , 0, 0 , -0.012, 261.5 , 193)"
fill="#000000" 
stroke="none" 
 />
<use 
xlink:href ="#F2_26" 
 transform="matrix(0.012 , 0, 0 , -0.012, 272.7 , 193)"
fill="#000000" 
stroke="none" 
 />
<use 
xlink:href ="#F2_22" 
 transform="matrix(0.012 , 0, 0 , -0.012, 284.4 , 193)"
fill="#000000" 
stroke="none" 
 />
<use 
xlink:href ="#F2_4" 
 transform="matrix(0.012 , 0, 0 , -0.012, 289.5 , 193)"
fill="#000000" 
stroke="none" 
 />
<use 
xlink:href ="#F2_46" 
 transform="matrix(0.012 , 0, 0 , -0.012, 300.8 , 193)"
fill="#000000" 
stroke="none" 
 />
<use 
xlink:href ="#F2_20" 
 transform="matrix(0.012 , 0, 0 , -0.012, 318.2 , 193)"
fill="#000000" 
stroke="none" 
 />
<use 
xlink:href ="#F2_9" 
 transform="matrix(0.012 , 0, 0 , -0.012, 333.2 , 193)"
fill="#000000" 
stroke="none" 
 />
<use 
xlink:href ="#F2_22" 
 transform="matrix(0.012 , 0, 0 , -0.012, 338.4 , 193)"
fill="#000000" 
stroke="none" 
 />
<use 
xlink:href ="#F2_22" 
 transform="matrix(0.012 , 0, 0 , -0.012, 343.5 , 193)"
fill="#000000" 
stroke="none" 
 />
<use 
xlink:href ="#F2_26" 
 transform="matrix(0.012 , 0, 0 , -0.012, 354.5 , 193)"
fill="#000000" 
stroke="none" 
 />
<use 
xlink:href ="#F2_4" 
 transform="matrix(0.012 , 0, 0 , -0.012, 366 , 193)"
fill="#000000" 
stroke="none" 
 />
<use 
xlink:href ="#F2_29" 
 transform="matrix(0.012 , 0, 0 , -0.012, 383.2 , 193)"
fill="#000000" 
stroke="none" 
 />
<use 
xlink:href ="#F2_14" 
 transform="matrix(0.012 , 0, 0 , -0.012, 393.4 , 193)"
fill="#000000" 
stroke="none" 
 />
<use 
xlink:href ="#F2_8" 
 transform="matrix(0.012 , 0, 0 , -0.012, 404.6 , 193)"
fill="#000000" 
stroke="none" 
 />
<use 
xlink:href ="#F2_26" 
 transform="matrix(0.012 , 0, 0 , -0.012, 422.4 , 193)"
fill="#000000" 
stroke="none" 
 />
<use 
xlink:href ="#F2_9" 
 transform="matrix(0.012 , 0, 0 , -0.012, 433.9 , 193)"
fill="#000000" 
stroke="none" 
 />
<use 
xlink:href ="#F2_10" 
 transform="matrix(0.012 , 0, 0 , -0.012, 439.1 , 193)"
fill="#000000" 
stroke="none" 
 />
<use 
xlink:href ="#F2_4" 
 transform="matrix(0.012 , 0, 0 , -0.012, 450.7 , 193)"
fill="#000000" 
stroke="none" 
 />
<use 
xlink:href ="#F2_7" 
 transform="matrix(0.012 , 0, 0 , -0.012, 462 , 193)"
fill="#000000" 
stroke="none" 
 />
<use 
xlink:href ="#F2_20" 
 transform="matrix(0.012 , 0, 0 , -0.012, 479.5 , 193)"
fill="#000000" 
stroke="none" 
 />
<use 
xlink:href ="#F2_9" 
 transform="matrix(0.012 , 0, 0 , -0.012, 494.6 , 193)"
fill="#000000" 
stroke="none" 
 />
<use 
xlink:href ="#F2_12" 
 transform="matrix(0.012 , 0, 0 , -0.012, 499.7 , 193)"
fill="#000000" 
stroke="none" 
 />
<use 
xlink:href ="#F2_3" 
 transform="matrix(0.012 , 0, 0 , -0.012, 506.9 , 193)"
fill="#000000" 
stroke="none" 
 />
<use 
xlink:href ="#F2_6" 
 transform="matrix(0.012 , 0, 0 , -0.012, 524.3 , 193)"
fill="#000000" 
stroke="none" 
 />
<use 
xlink:href ="#F2_22" 
 transform="matrix(0.012 , 0, 0 , -0.012, 535.6 , 193)"
fill="#000000" 
stroke="none" 
 />
<use 
xlink:href ="#F2_22" 
 transform="matrix(0.012 , 0, 0 , -0.012, 540.7 , 193)"
fill="#000000" 
stroke="none" 
 />
<use 
xlink:href ="#F2_13" 
 transform="matrix(0.012 , 0, 0 , -0.012, 551.7 , 193)"
fill="#000000" 
stroke="none" 
 />
<use 
xlink:href ="#F2_14" 
 transform="matrix(0.012 , 0, 0 , -0.012, 558.9 , 193)"
fill="#000000" 
stroke="none" 
 />
<use 
xlink:href ="#F2_20" 
 transform="matrix(0.012 , 0, 0 , -0.012, 570.1 , 193)"
fill="#000000" 
stroke="none" 
 />
<use 
xlink:href ="#F2_11" 
 transform="matrix(0.012 , 0, 0 , -0.012, 585 , 193)"
fill="#000000" 
stroke="none" 
 />
<use 
xlink:href ="#F2_14" 
 transform="matrix(0.012 , 0, 0 , -0.012, 600.5 , 193)"
fill="#000000" 
stroke="none" 
 />
<use 
xlink:href ="#F2_16" 
 transform="matrix(0.012 , 0, 0 , -0.012, 611.6 , 193)"
fill="#000000" 
stroke="none" 
 />
<use 
xlink:href ="#F2_12" 
 transform="matrix(0.012 , 0, 0 , -0.012, 624 , 193)"
fill="#000000" 
stroke="none" 
 />
<use 
xlink:href ="#F2_6" 
 transform="matrix(0.012 , 0, 0 , -0.012, 631 , 193)"
fill="#000000" 
stroke="none" 
 />
<use 
xlink:href ="#F2_26" 
 transform="matrix(0.012 , 0, 0 , -0.012, 642.4 , 193)"
fill="#000000" 
stroke="none" 
 />
<use 
xlink:href ="#F2_22" 
 transform="matrix(0.012 , 0, 0 , -0.012, 654 , 193)"
fill="#000000" 
stroke="none" 
 />
<use 
xlink:href ="#F2_4" 
 transform="matrix(0.012 , 0, 0 , -0.012, 659.1 , 193)"
fill="#000000" 
stroke="none" 
 />
<use 
xlink:href ="#F2_47" 
 transform="matrix(0.012 , 0, 0 , -0.012, 670.5 , 193)"
fill="#000000" 
stroke="none" 
 />
<use 
xlink:href ="#F1_26" 
 transform="matrix(0.012 , 0, 0 , -0.012, 80.8 , 234.7)"
fill="#5B9BD5" 
stroke="none" 
 />
<use 
xlink:href ="#F2_40" 
 transform="matrix(0.012 , 0, 0 , -0.012, 108.6 , 235.7)"
fill="#000000" 
stroke="none" 
 />
<use 
xlink:href ="#F2_16" 
 transform="matrix(0.012 , 0, 0 , -0.012, 114 , 235.7)"
fill="#000000" 
stroke="none" 
 />
<use 
xlink:href ="#F2_12" 
 transform="matrix(0.012 , 0, 0 , -0.012, 126.2 , 235.7)"
fill="#000000" 
stroke="none" 
 />
<use 
xlink:href ="#F2_6" 
 transform="matrix(0.012 , 0, 0 , -0.012, 133.4 , 235.7)"
fill="#000000" 
stroke="none" 
 />
<use 
xlink:href ="#F2_26" 
 transform="matrix(0.012 , 0, 0 , -0.012, 144.8 , 235.7)"
fill="#000000" 
stroke="none" 
 />
<use 
xlink:href ="#F2_22" 
 transform="matrix(0.012 , 0, 0 , -0.012, 156.3 , 235.7)"
fill="#000000" 
stroke="none" 
 />
<use 
xlink:href ="#F2_4" 
 transform="matrix(0.012 , 0, 0 , -0.012, 161.5 , 235.7)"
fill="#000000" 
stroke="none" 
 />
<use 
xlink:href ="#F2_46" 
 transform="matrix(0.012 , 0, 0 , -0.012, 172.8 , 235.7)"
fill="#000000" 
stroke="none" 
 />
<use 
xlink:href ="#F2_3" 
 transform="matrix(0.012 , 0, 0 , -0.012, 190.2 , 235.7)"
fill="#000000" 
stroke="none" 
 />
<use 
xlink:href ="#F2_6" 
 transform="matrix(0.012 , 0, 0 , -0.012, 201.8 , 235.7)"
fill="#000000" 
stroke="none" 
 />
<use 
xlink:href ="#F2_11" 
 transform="matrix(0.012 , 0, 0 , -0.012, 213.1 , 235.7)"
fill="#000000" 
stroke="none" 
 />
<use 
xlink:href ="#F2_8" 
 transform="matrix(0.012 , 0, 0 , -0.012, 228.5 , 235.7)"
fill="#000000" 
stroke="none" 
 />
<use 
xlink:href ="#F2_13" 
 transform="matrix(0.012 , 0, 0 , -0.012, 252.2 , 235.7)"
fill="#000000" 
stroke="none" 
 />
<use 
xlink:href ="#F2_14" 
 transform="matrix(0.012 , 0, 0 , -0.012, 259.3 , 235.7)"
fill="#000000" 
stroke="none" 
 />
<use 
xlink:href ="#F2_20" 
 transform="matrix(0.012 , 0, 0 , -0.012, 270.5 , 235.7)"
fill="#000000" 
stroke="none" 
 />
<use 
xlink:href ="#F2_11" 
 transform="matrix(0.012 , 0, 0 , -0.012, 285.5 , 235.7)"
fill="#000000" 
stroke="none" 
 />
<use 
xlink:href ="#F2_6" 
 transform="matrix(0.012 , 0, 0 , -0.012, 300.9 , 235.7)"
fill="#000000" 
stroke="none" 
 />
<use 
xlink:href ="#F2_10" 
 transform="matrix(0.012 , 0, 0 , -0.012, 312.2 , 235.7)"
fill="#000000" 
stroke="none" 
 />
<use 
xlink:href ="#F2_7" 
 transform="matrix(0.012 , 0, 0 , -0.012, 323.8 , 235.7)"
fill="#000000" 
stroke="none" 
 />
<use 
xlink:href ="#F2_12" 
 transform="matrix(0.012 , 0, 0 , -0.012, 341.3 , 235.7)"
fill="#000000" 
stroke="none" 
 />
<use 
xlink:href ="#F2_6" 
 transform="matrix(0.012 , 0, 0 , -0.012, 348.5 , 235.7)"
fill="#000000" 
stroke="none" 
 />
<use 
xlink:href ="#F2_26" 
 transform="matrix(0.012 , 0, 0 , -0.012, 359.8 , 235.7)"
fill="#000000" 
stroke="none" 
 />
<use 
xlink:href ="#F2_22" 
 transform="matrix(0.012 , 0, 0 , -0.012, 371.4 , 235.7)"
fill="#000000" 
stroke="none" 
 />
<use 
xlink:href ="#F2_4" 
 transform="matrix(0.012 , 0, 0 , -0.012, 376.6 , 235.7)"
fill="#000000" 
stroke="none" 
 />
<use 
xlink:href ="#F2_47" 
 transform="matrix(0.012 , 0, 0 , -0.012, 387.9 , 235.7)"
fill="#000000" 
stroke="none" 
 />
<use 
xlink:href ="#F2_3" 
 transform="matrix(0.012 , 0, 0 , -0.012, 405.3 , 235.7)"
fill="#000000" 
stroke="none" 
 />
<use 
xlink:href ="#F2_6" 
 transform="matrix(0.012 , 0, 0 , -0.012, 416.8 , 235.7)"
fill="#000000" 
stroke="none" 
 />
<use 
xlink:href ="#F2_11" 
 transform="matrix(0.012 , 0, 0 , -0.012, 428.2 , 235.7)"
fill="#000000" 
stroke="none" 
 />
<use 
xlink:href ="#F2_10" 
 transform="matrix(0.012 , 0, 0 , -0.012, 443.6 , 235.7)"
fill="#000000" 
stroke="none" 
 />
<use 
xlink:href ="#F2_13" 
 transform="matrix(0.012 , 0, 0 , -0.012, 461 , 235.7)"
fill="#000000" 
stroke="none" 
 />
<use 
xlink:href ="#F2_14" 
 transform="matrix(0.012 , 0, 0 , -0.012, 468.2 , 235.7)"
fill="#000000" 
stroke="none" 
 />
<use 
xlink:href ="#F2_20" 
 transform="matrix(0.012 , 0, 0 , -0.012, 479.4 , 235.7)"
fill="#000000" 
stroke="none" 
 />
<use 
xlink:href ="#F2_11" 
 transform="matrix(0.012 , 0, 0 , -0.012, 494.3 , 235.7)"
fill="#000000" 
stroke="none" 
 />
<use 
xlink:href ="#F2_12" 
 transform="matrix(0.012 , 0, 0 , -0.012, 509.8 , 235.7)"
fill="#000000" 
stroke="none" 
 />
<use 
xlink:href ="#F2_3" 
 transform="matrix(0.012 , 0, 0 , -0.012, 516.9 , 235.7)"
fill="#000000" 
stroke="none" 
 />
<use 
xlink:href ="#F2_4" 
 transform="matrix(0.012 , 0, 0 , -0.012, 528.6 , 235.7)"
fill="#000000" 
stroke="none" 
 />
<use 
xlink:href ="#F2_10" 
 transform="matrix(0.012 , 0, 0 , -0.012, 539.8 , 235.7)"
fill="#000000" 
stroke="none" 
 />
<use 
xlink:href ="#F2_12" 
 transform="matrix(0.012 , 0, 0 , -0.012, 557.2 , 235.7)"
fill="#000000" 
stroke="none" 
 />
<use 
xlink:href ="#F2_3" 
 transform="matrix(0.012 , 0, 0 , -0.012, 564.4 , 235.7)"
fill="#000000" 
stroke="none" 
 />
<use 
xlink:href ="#F2_4" 
 transform="matrix(0.012 , 0, 0 , -0.012, 575.9 , 235.7)"
fill="#000000" 
stroke="none" 
 />
<use 
xlink:href ="#F2_14" 
 transform="matrix(0.012 , 0, 0 , -0.012, 593.1 , 235.7)"
fill="#000000" 
stroke="none" 
 />
<use 
xlink:href ="#F2_17" 
 transform="matrix(0.012 , 0, 0 , -0.012, 604.3 , 235.7)"
fill="#000000" 
stroke="none" 
 />
<use 
xlink:href ="#F2_12" 
 transform="matrix(0.012 , 0, 0 , -0.012, 615.9 , 235.7)"
fill="#000000" 
stroke="none" 
 />
<use 
xlink:href ="#F2_15" 
 transform="matrix(0.012 , 0, 0 , -0.012, 623.1 , 235.7)"
fill="#000000" 
stroke="none" 
 />
<use 
xlink:href ="#F2_17" 
 transform="matrix(0.012 , 0, 0 , -0.012, 634.5 , 235.7)"
fill="#000000" 
stroke="none" 
 />
<use 
xlink:href ="#F2_12" 
 transform="matrix(0.012 , 0, 0 , -0.012, 646.1 , 235.7)"
fill="#000000" 
stroke="none" 
 />
<use 
xlink:href ="#F2_20" 
 transform="matrix(0.012 , 0, 0 , -0.012, 659.1 , 235.7)"
fill="#000000" 
stroke="none" 
 />
<use 
xlink:href ="#F2_9" 
 transform="matrix(0.012 , 0, 0 , -0.012, 674.1 , 235.7)"
fill="#000000" 
stroke="none" 
 />
<use 
xlink:href ="#F2_22" 
 transform="matrix(0.012 , 0, 0 , -0.012, 679.2 , 235.7)"
fill="#000000" 
stroke="none" 
 />
<use 
xlink:href ="#F2_22" 
 transform="matrix(0.012 , 0, 0 , -0.012, 684.4 , 235.7)"
fill="#000000" 
stroke="none" 
 />
<use 
xlink:href ="#F2_3" 
 transform="matrix(0.012 , 0, 0 , -0.012, 695.4 , 235.7)"
fill="#000000" 
stroke="none" 
 />
<use 
xlink:href ="#F2_6" 
 transform="matrix(0.012 , 0, 0 , -0.012, 706.8 , 235.7)"
fill="#000000" 
stroke="none" 
 />
<use 
xlink:href ="#F2_18" 
 transform="matrix(0.012 , 0, 0 , -0.012, 718.3 , 235.7)"
fill="#000000" 
stroke="none" 
 />
<use 
xlink:href ="#F2_4" 
 transform="matrix(0.012 , 0, 0 , -0.012, 729 , 235.7)"
fill="#000000" 
stroke="none" 
 />
<use 
xlink:href ="#F2_8" 
 transform="matrix(0.012 , 0, 0 , -0.012, 746.2 , 235.7)"
fill="#000000" 
stroke="none" 
 />
<use 
xlink:href ="#F2_48" 
 transform="matrix(0.012 , 0, 0 , -0.012, 764.1 , 235.7)"
fill="#000000" 
stroke="none" 
 />
<use 
xlink:href ="#F2_10" 
 transform="matrix(0.012 , 0, 0 , -0.012, 773.2 , 235.7)"
fill="#000000" 
stroke="none" 
 />
<use 
xlink:href ="#F2_13" 
 transform="matrix(0.012 , 0, 0 , -0.012, 790.5 , 235.7)"
fill="#000000" 
stroke="none" 
 />
<use 
xlink:href ="#F2_14" 
 transform="matrix(0.012 , 0, 0 , -0.012, 797.8 , 235.7)"
fill="#000000" 
stroke="none" 
 />
<use 
xlink:href ="#F2_20" 
 transform="matrix(0.012 , 0, 0 , -0.012, 809 , 235.7)"
fill="#000000" 
stroke="none" 
 />
<use 
xlink:href ="#F2_11" 
 transform="matrix(0.012 , 0, 0 , -0.012, 824 , 235.7)"
fill="#000000" 
stroke="none" 
 />
</g>
<image x="174" y="79" width="892" height="61" xlink:href="shade/1.png" />
<path d="M174.5,79.5l891,0l0,59l-891,0l0,-59Z" class="g2_3" />
<g clip-path="url(#c0_3)">
<use 
xlink:href ="#F2_27" 
 transform="matrix(0.012 , 0, 0 , -0.012, 266.1 , 116.6)"
fill="#000000" 
stroke="none" 
 />
<use 
xlink:href ="#F2_45" 
 transform="matrix(0.012 , 0, 0 , -0.012, 277.9 , 116.6)"
fill="#000000" 
stroke="none" 
 />
<use 
xlink:href ="#F2_49" 
 transform="matrix(0.012 , 0, 0 , -0.012, 289.3 , 116.6)"
fill="#000000" 
stroke="none" 
 />
<use 
xlink:href ="#F2_45" 
 transform="matrix(0.012 , 0, 0 , -0.012, 299.7 , 116.6)"
fill="#000000" 
stroke="none" 
 />
<use 
xlink:href ="#F2_38" 
 transform="matrix(0.012 , 0, 0 , -0.012, 311.2 , 116.6)"
fill="#000000" 
stroke="none" 
 />
<use 
xlink:href ="#F2_2" 
 transform="matrix(0.012 , 0, 0 , -0.012, 324 , 116.6)"
fill="#000000" 
stroke="none" 
 />
<use 
xlink:href ="#F2_50" 
 transform="matrix(0.012 , 0, 0 , -0.012, 341.2 , 116.6)"
fill="#000000" 
stroke="none" 
 />
<use 
xlink:href ="#F2_50" 
 transform="matrix(0.012 , 0, 0 , -0.012, 356.7 , 116.6)"
fill="#000000" 
stroke="none" 
 />
<use 
xlink:href ="#F2_48" 
 transform="matrix(0.012 , 0, 0 , -0.012, 372.1 , 116.6)"
fill="#000000" 
stroke="none" 
 />
<use 
xlink:href ="#F2_14" 
 transform="matrix(0.012 , 0, 0 , -0.012, 387 , 116.6)"
fill="#000000" 
stroke="none" 
 />
<use 
xlink:href ="#F2_13" 
 transform="matrix(0.012 , 0, 0 , -0.012, 398.2 , 116.6)"
fill="#000000" 
stroke="none" 
 />
<use 
xlink:href ="#F2_29" 
 transform="matrix(0.012 , 0, 0 , -0.012, 411.8 , 116.6)"
fill="#000000" 
stroke="none" 
 />
<use 
xlink:href ="#F2_14" 
 transform="matrix(0.012 , 0, 0 , -0.012, 422 , 116.6)"
fill="#000000" 
stroke="none" 
 />
<use 
xlink:href ="#F2_22" 
 transform="matrix(0.012 , 0, 0 , -0.012, 433.1 , 116.6)"
fill="#000000" 
stroke="none" 
 />
<use 
xlink:href ="#F2_17" 
 transform="matrix(0.012 , 0, 0 , -0.012, 438.3 , 116.6)"
fill="#000000" 
stroke="none" 
 />
<use 
xlink:href ="#F2_8" 
 transform="matrix(0.012 , 0, 0 , -0.012, 449.7 , 116.6)"
fill="#000000" 
stroke="none" 
 />
<use 
xlink:href ="#F2_10" 
 transform="matrix(0.012 , 0, 0 , -0.012, 467.6 , 116.6)"
fill="#000000" 
stroke="none" 
 />
<use 
xlink:href ="#F2_22" 
 transform="matrix(0.012 , 0, 0 , -0.012, 485 , 116.6)"
fill="#000000" 
stroke="none" 
 />
<use 
xlink:href ="#F2_9" 
 transform="matrix(0.012 , 0, 0 , -0.012, 490 , 116.6)"
fill="#000000" 
stroke="none" 
 />
<use 
xlink:href ="#F2_11" 
 transform="matrix(0.012 , 0, 0 , -0.012, 495.2 , 116.6)"
fill="#000000" 
stroke="none" 
 />
<use 
xlink:href ="#F2_12" 
 transform="matrix(0.012 , 0, 0 , -0.012, 504.7 , 116.6)"
fill="#000000" 
stroke="none" 
 />
<use 
xlink:href ="#F2_51" 
 transform="matrix(0.012 , 0, 0 , -0.012, 511.9 , 116.6)"
fill="#000000" 
stroke="none" 
 />
<use 
xlink:href ="#F2_51" 
 transform="matrix(0.012 , 0, 0 , -0.012, 527.3 , 116.6)"
fill="#000000" 
stroke="none" 
 />
<use 
xlink:href ="#F2_52" 
 transform="matrix(0.012 , 0, 0 , -0.012, 548.5 , 116.6)"
fill="#000000" 
stroke="none" 
 />
<use 
xlink:href ="#F2_53" 
 transform="matrix(0.012 , 0, 0 , -0.012, 559.2 , 116.6)"
fill="#000000" 
stroke="none" 
 />
<use 
xlink:href ="#F2_25" 
 transform="matrix(0.012 , 0, 0 , -0.012, 572 , 116.6)"
fill="#000000" 
stroke="none" 
 />
<use 
xlink:href ="#F2_54" 
 transform="matrix(0.012 , 0, 0 , -0.012, 586.5 , 116.6)"
fill="#000000" 
stroke="none" 
 />
<use 
xlink:href ="#F2_50" 
 transform="matrix(0.012 , 0, 0 , -0.012, 608.1 , 116.6)"
fill="#000000" 
stroke="none" 
 />
<use 
xlink:href ="#F2_50" 
 transform="matrix(0.012 , 0, 0 , -0.012, 623.5 , 116.6)"
fill="#000000" 
stroke="none" 
 />
<use 
xlink:href ="#F2_12" 
 transform="matrix(0.012 , 0, 0 , -0.012, 638.9 , 116.6)"
fill="#000000" 
stroke="none" 
 />
<use 
xlink:href ="#F2_6" 
 transform="matrix(0.012 , 0, 0 , -0.012, 646.1 , 116.6)"
fill="#000000" 
stroke="none" 
 />
<use 
xlink:href ="#F2_26" 
 transform="matrix(0.012 , 0, 0 , -0.012, 657.4 , 116.6)"
fill="#000000" 
stroke="none" 
 />
<use 
xlink:href ="#F2_22" 
 transform="matrix(0.012 , 0, 0 , -0.012, 669 , 116.6)"
fill="#000000" 
stroke="none" 
 />
<use 
xlink:href ="#F2_4" 
 transform="matrix(0.012 , 0, 0 , -0.012, 674 , 116.6)"
fill="#000000" 
stroke="none" 
 />
<use 
xlink:href ="#F2_46" 
 transform="matrix(0.012 , 0, 0 , -0.012, 685.5 , 116.6)"
fill="#000000" 
stroke="none" 
 />
<use 
xlink:href ="#F2_51" 
 transform="matrix(0.012 , 0, 0 , -0.012, 696.9 , 116.6)"
fill="#000000" 
stroke="none" 
 />
<use 
xlink:href ="#F2_51" 
 transform="matrix(0.012 , 0, 0 , -0.012, 712.3 , 116.6)"
fill="#000000" 
stroke="none" 
 />
<use 
xlink:href ="#F2_38" 
 transform="matrix(0.012 , 0, 0 , -0.012, 733.6 , 116.6)"
fill="#000000" 
stroke="none" 
 />
<use 
xlink:href ="#F2_53" 
 transform="matrix(0.012 , 0, 0 , -0.012, 746.4 , 116.6)"
fill="#000000" 
stroke="none" 
 />
<use 
xlink:href ="#F2_25" 
 transform="matrix(0.012 , 0, 0 , -0.012, 759.2 , 116.6)"
fill="#000000" 
stroke="none" 
 />
<use 
xlink:href ="#F2_27" 
 transform="matrix(0.012 , 0, 0 , -0.012, 773.7 , 116.6)"
fill="#000000" 
stroke="none" 
 />
<use 
xlink:href ="#F2_27" 
 transform="matrix(0.012 , 0, 0 , -0.012, 785.4 , 116.6)"
fill="#000000" 
stroke="none" 
 />
<use 
xlink:href ="#F2_36" 
 transform="matrix(0.012 , 0, 0 , -0.012, 803 , 116.6)"
fill="#000000" 
stroke="none" 
 />
<use 
xlink:href ="#F2_25" 
 transform="matrix(0.012 , 0, 0 , -0.012, 808.4 , 116.6)"
fill="#000000" 
stroke="none" 
 />
<use 
xlink:href ="#F2_40" 
 transform="matrix(0.012 , 0, 0 , -0.012, 822.9 , 116.6)"
fill="#000000" 
stroke="none" 
 />
<use 
xlink:href ="#F2_55" 
 transform="matrix(0.012 , 0, 0 , -0.012, 828.2 , 116.6)"
fill="#000000" 
stroke="none" 
 />
<use 
xlink:href ="#F2_50" 
 transform="matrix(0.012 , 0, 0 , -0.012, 847.8 , 116.6)"
fill="#000000" 
stroke="none" 
 />
<use 
xlink:href ="#F2_50" 
 transform="matrix(0.012 , 0, 0 , -0.012, 863.2 , 116.6)"
fill="#000000" 
stroke="none" 
 />
<use 
xlink:href ="#F2_12" 
 transform="matrix(0.012 , 0, 0 , -0.012, 878.5 , 116.6)"
fill="#000000" 
stroke="none" 
 />
<use 
xlink:href ="#F2_6" 
 transform="matrix(0.012 , 0, 0 , -0.012, 885.6 , 116.6)"
fill="#000000" 
stroke="none" 
 />
<use 
xlink:href ="#F2_26" 
 transform="matrix(0.012 , 0, 0 , -0.012, 897.1 , 116.6)"
fill="#000000" 
stroke="none" 
 />
<use 
xlink:href ="#F2_22" 
 transform="matrix(0.012 , 0, 0 , -0.012, 908.5 , 116.6)"
fill="#000000" 
stroke="none" 
 />
<use 
xlink:href ="#F2_4" 
 transform="matrix(0.012 , 0, 0 , -0.012, 913.7 , 116.6)"
fill="#000000" 
stroke="none" 
 />
<use 
xlink:href ="#F2_47" 
 transform="matrix(0.012 , 0, 0 , -0.012, 925 , 116.6)"
fill="#000000" 
stroke="none" 
 />
<use 
xlink:href ="#F2_51" 
 transform="matrix(0.012 , 0, 0 , -0.012, 936.6 , 116.6)"
fill="#000000" 
stroke="none" 
 />
<use 
xlink:href ="#F2_51" 
 transform="matrix(0.012 , 0, 0 , -0.012, 952 , 116.6)"
fill="#000000" 
stroke="none" 
 />
<use 
xlink:href ="#F2_56" 
 transform="matrix(0.012 , 0, 0 , -0.012, 967.3 , 116.6)"
fill="#000000" 
stroke="none" 
 />
</g>
<path fill-rule="evenodd" d="M267.2,293.6l0.2,-0.9l0,-0.7l0.1,-1l0.2,-0.9l0.1,-0.7l0.2,-0.8l0.3,-0.9l0.4,-0.8l0.3,-0.7l0.3,-0.8l0.7,-0.8l0.4,-0.6l0.5,-0.8l0.6,-0.6l0.4,-0.6l0.7,-0.4l0.7,-0.6l0.6,-0.7l0.8,-0.4l0.8,-0.5l0.6,-0.3l0.7,-0.4l1,-0.3l0.7,-0.3l0.8,-0.2l0.9,-0.3l0.8,-0.2l0.9,0l0.7,-0.1l1,0l672.9,0l1,0l0.7,0.1l0.9,0l0.8,0.2l0.9,0.3l0.8,0.2l0.7,0.3l1,0.3l0.6,0.4l0.7,0.3l0.8,0.5l0.8,0.4l0.6,0.7l0.6,0.6L968,282l0.6,0.6l0.6,0.8l0.5,0.6l0.4,0.8l0.5,0.6l0.5,0.8l0.3,0.7l0.3,0.8l0.3,0.9l0.3,0.8l0.1,0.7l0.2,0.9l0.1,1l0,0.7l0,0.9l0.2,65.1l-0.2,0.9l0,0.8l-0.1,0.9l-0.2,0.8l-0.1,0.7l-0.3,1l-0.2,0.7l-0.4,0.8l-0.3,0.8l-0.5,0.7l-0.5,0.8l-0.4,0.6l-0.5,0.8l-0.6,0.6l-0.4,0.6l-0.8,0.6l-0.6,0.5l-0.6,0.6l-0.8,0.4l-0.8,0.5l-0.7,0.4l-0.6,0.3l-1,0.3l-0.7,0.4l-0.8,0.3l-0.9,0.1l-0.8,0.2l-0.9,0.1l-0.7,0l-1,0l-672.9,0.2l-1,-0.2l-0.7,0L281,374.8l-0.8,-0.2l-0.9,-0.1l-0.8,-0.3l-0.7,-0.4l-1,-0.3l-0.7,-0.3l-0.6,-0.4l-0.8,-0.5l-0.8,-0.4l-0.6,-0.5l-0.7,-0.6l-0.7,-0.6l-0.4,-0.6L270.9,369l-0.5,-0.7L270,367.6l-0.7,-0.8L269,366.1l-0.3,-0.8l-0.4,-0.8L268,363.8l-0.2,-1l-0.1,-0.7l-0.2,-0.8l-0.1,-0.9l0,-0.8l-0.2,-0.9l0,-65.1Z" class="g1_3" />
<path d="M267.2,293.6l0.2,-0.9l0,-0.7l0.1,-1l0.2,-0.9l0.1,-0.7l0.2,-0.8l0.3,-0.9l0.4,-0.8l0.3,-0.7l0.3,-0.8l0.7,-0.8l0.4,-0.6l0.5,-0.8l0.6,-0.6l0.4,-0.6l0.7,-0.4l0.7,-0.6l0.6,-0.7l0.8,-0.4l0.8,-0.5l0.6,-0.3l0.7,-0.4l1,-0.3l0.7,-0.3l0.8,-0.2l0.9,-0.3l0.8,-0.2l0.9,0l0.7,-0.1l1,0l672.9,0l1,0l0.7,0.1l0.9,0l0.8,0.2l0.9,0.3l0.8,0.2l0.7,0.3l1,0.3l0.6,0.4l0.7,0.3l0.8,0.5l0.8,0.4l0.6,0.7l0.6,0.6L968,282l0.6,0.6l0.6,0.8l0.5,0.6l0.4,0.8l0.5,0.6l0.5,0.8l0.3,0.7l0.3,0.8l0.3,0.9l0.3,0.8l0.1,0.7l0.2,0.9l0.1,1l0,0.7l0,0.9l0.2,65.1l-0.2,0.9l0,0.8l-0.1,0.9l-0.2,0.8l-0.1,0.7l-0.3,1l-0.2,0.7l-0.4,0.8l-0.3,0.8l-0.5,0.7l-0.5,0.8l-0.4,0.6l-0.5,0.8l-0.6,0.6l-0.4,0.6l-0.8,0.6l-0.6,0.5l-0.6,0.6l-0.8,0.4l-0.8,0.5l-0.7,0.4l-0.6,0.3l-1,0.3l-0.7,0.4l-0.8,0.3l-0.9,0.1l-0.8,0.2l-0.9,0.1l-0.7,0l-1,0l-672.9,0.2l-1,-0.2l-0.7,0L281,374.8l-0.8,-0.2l-0.9,-0.1l-0.8,-0.3l-0.7,-0.4l-1,-0.3l-0.7,-0.3l-0.6,-0.4l-0.8,-0.5l-0.8,-0.4l-0.6,-0.5l-0.7,-0.6l-0.7,-0.6l-0.4,-0.6L270.9,369l-0.5,-0.7L270,367.6l-0.7,-0.8L269,366.1l-0.3,-0.8l-0.4,-0.8L268,363.8l-0.2,-1l-0.1,-0.7l-0.2,-0.8l-0.1,-0.9l0,-0.8l-0.2,-0.9l0,-65.1Z" class="g3_3" />
<g clip-path="url(#c0_3)">
<use 
xlink:href ="#F4_2" 
 transform="matrix(0.012 , 0, 0 , -0.012, 575.2 , 322.5)"
fill="#000000" 
stroke="none" 
 />
<use 
xlink:href ="#F4_3" 
 transform="matrix(0.012 , 0, 0 , -0.012, 588 , 322.5)"
fill="#000000" 
stroke="none" 
 />
<use 
xlink:href ="#F4_4" 
 transform="matrix(0.012 , 0, 0 , -0.012, 595.5 , 322.5)"
fill="#000000" 
stroke="none" 
 />
<use 
xlink:href ="#F4_5" 
 transform="matrix(0.012 , 0, 0 , -0.012, 606.6 , 322.5)"
fill="#000000" 
stroke="none" 
 />
<use 
xlink:href ="#F4_5" 
 transform="matrix(0.012 , 0, 0 , -0.012, 616.1 , 322.5)"
fill="#000000" 
stroke="none" 
 />
<use 
xlink:href ="#F4_7" 
 transform="matrix(0.012 , 0, 0 , -0.012, 631.5 , 322.5)"
fill="#000000" 
stroke="none" 
 />
<use 
xlink:href ="#F4_4" 
 transform="matrix(0.012 , 0, 0 , -0.012, 637 , 322.5)"
fill="#000000" 
stroke="none" 
 />
<use 
xlink:href ="#F4_8" 
 transform="matrix(0.012 , 0, 0 , -0.012, 648.2 , 322.5)"
fill="#000000" 
stroke="none" 
 />
<use 
xlink:href ="#F4_9" 
 transform="matrix(0.012 , 0, 0 , -0.012, 653.3 , 322.5)"
fill="#000000" 
stroke="none" 
 />
<use 
xlink:href ="#F2_3" 
 transform="matrix(0.012 , 0, 0 , -0.012, 312.1 , 353.7)"
fill="#000000" 
stroke="none" 
 />
<use 
xlink:href ="#F2_12" 
 transform="matrix(0.012 , 0, 0 , -0.012, 323.7 , 353.7)"
fill="#000000" 
stroke="none" 
 />
<use 
xlink:href ="#F2_12" 
 transform="matrix(0.012 , 0, 0 , -0.012, 330.9 , 353.7)"
fill="#000000" 
stroke="none" 
 />
<use 
xlink:href ="#F2_15" 
 transform="matrix(0.012 , 0, 0 , -0.012, 338.1 , 353.7)"
fill="#000000" 
stroke="none" 
 />
<use 
xlink:href ="#F2_11" 
 transform="matrix(0.012 , 0, 0 , -0.012, 349.6 , 353.7)"
fill="#000000" 
stroke="none" 
 />
<use 
xlink:href ="#F2_37" 
 transform="matrix(0.012 , 0, 0 , -0.012, 359.2 , 353.7)"
fill="#000000" 
stroke="none" 
 />
<use 
xlink:href ="#F2_42" 
 transform="matrix(0.012 , 0, 0 , -0.012, 365.4 , 353.7)"
fill="#000000" 
stroke="none" 
 />
<use 
xlink:href ="#F2_42" 
 transform="matrix(0.012 , 0, 0 , -0.012, 371.5 , 353.7)"
fill="#000000" 
stroke="none" 
 />
<use 
xlink:href ="#F2_20" 
 transform="matrix(0.012 , 0, 0 , -0.012, 377.8 , 353.7)"
fill="#000000" 
stroke="none" 
 />
<use 
xlink:href ="#F2_20" 
 transform="matrix(0.012 , 0, 0 , -0.012, 392.9 , 353.7)"
fill="#000000" 
stroke="none" 
 />
<use 
xlink:href ="#F2_20" 
 transform="matrix(0.012 , 0, 0 , -0.012, 407.9 , 353.7)"
fill="#000000" 
stroke="none" 
 />
<use 
xlink:href ="#F2_24" 
 transform="matrix(0.012 , 0, 0 , -0.012, 421 , 353.7)"
fill="#000000" 
stroke="none" 
 />
<use 
xlink:href ="#F2_19" 
 transform="matrix(0.012 , 0, 0 , -0.012, 426.9 , 353.7)"
fill="#000000" 
stroke="none" 
 />
<use 
xlink:href ="#F2_14" 
 transform="matrix(0.012 , 0, 0 , -0.012, 437.8 , 353.7)"
fill="#000000" 
stroke="none" 
 />
<use 
xlink:href ="#F2_17" 
 transform="matrix(0.012 , 0, 0 , -0.012, 448.9 , 353.7)"
fill="#000000" 
stroke="none" 
 />
<use 
xlink:href ="#F2_12" 
 transform="matrix(0.012 , 0, 0 , -0.012, 460.4 , 353.7)"
fill="#000000" 
stroke="none" 
 />
<use 
xlink:href ="#F2_17" 
 transform="matrix(0.012 , 0, 0 , -0.012, 467.6 , 353.7)"
fill="#000000" 
stroke="none" 
 />
<use 
xlink:href ="#F2_26" 
 transform="matrix(0.012 , 0, 0 , -0.012, 479.2 , 353.7)"
fill="#000000" 
stroke="none" 
 />
<use 
xlink:href ="#F2_4" 
 transform="matrix(0.012 , 0, 0 , -0.012, 490.6 , 353.7)"
fill="#000000" 
stroke="none" 
 />
<use 
xlink:href ="#F2_24" 
 transform="matrix(0.012 , 0, 0 , -0.012, 502.1 , 353.7)"
fill="#000000" 
stroke="none" 
 />
<use 
xlink:href ="#F2_29" 
 transform="matrix(0.012 , 0, 0 , -0.012, 507.9 , 353.7)"
fill="#000000" 
stroke="none" 
 />
<use 
xlink:href ="#F2_14" 
 transform="matrix(0.012 , 0, 0 , -0.012, 518.1 , 353.7)"
fill="#000000" 
stroke="none" 
 />
<use 
xlink:href ="#F2_8" 
 transform="matrix(0.012 , 0, 0 , -0.012, 529.4 , 353.7)"
fill="#000000" 
stroke="none" 
 />
<use 
xlink:href ="#F2_42" 
 transform="matrix(0.012 , 0, 0 , -0.012, 547.1 , 353.7)"
fill="#000000" 
stroke="none" 
 />
<use 
xlink:href ="#F2_20" 
 transform="matrix(0.012 , 0, 0 , -0.012, 553.4 , 353.7)"
fill="#000000" 
stroke="none" 
 />
<use 
xlink:href ="#F2_6" 
 transform="matrix(0.012 , 0, 0 , -0.012, 568.4 , 353.7)"
fill="#000000" 
stroke="none" 
 />
<use 
xlink:href ="#F2_12" 
 transform="matrix(0.012 , 0, 0 , -0.012, 579.8 , 353.7)"
fill="#000000" 
stroke="none" 
 />
<use 
xlink:href ="#F2_29" 
 transform="matrix(0.012 , 0, 0 , -0.012, 586.8 , 353.7)"
fill="#000000" 
stroke="none" 
 />
<use 
xlink:href ="#F2_3" 
 transform="matrix(0.012 , 0, 0 , -0.012, 597.2 , 353.7)"
fill="#000000" 
stroke="none" 
 />
<use 
xlink:href ="#F2_33" 
 transform="matrix(0.012 , 0, 0 , -0.012, 608.6 , 353.7)"
fill="#000000" 
stroke="none" 
 />
<use 
xlink:href ="#F2_18" 
 transform="matrix(0.012 , 0, 0 , -0.012, 618.4 , 353.7)"
fill="#000000" 
stroke="none" 
 />
<use 
xlink:href ="#F2_57" 
 transform="matrix(0.012 , 0, 0 , -0.012, 629.2 , 353.7)"
fill="#000000" 
stroke="none" 
 />
<use 
xlink:href ="#F2_9" 
 transform="matrix(0.012 , 0, 0 , -0.012, 644.8 , 353.7)"
fill="#000000" 
stroke="none" 
 />
<use 
xlink:href ="#F2_46" 
 transform="matrix(0.012 , 0, 0 , -0.012, 649.8 , 353.7)"
fill="#000000" 
stroke="none" 
 />
<use 
xlink:href ="#F2_29" 
 transform="matrix(0.012 , 0, 0 , -0.012, 661.4 , 353.7)"
fill="#000000" 
stroke="none" 
 />
<use 
xlink:href ="#F2_15" 
 transform="matrix(0.012 , 0, 0 , -0.012, 671.7 , 353.7)"
fill="#000000" 
stroke="none" 
 />
<use 
xlink:href ="#F2_15" 
 transform="matrix(0.012 , 0, 0 , -0.012, 683.3 , 353.7)"
fill="#000000" 
stroke="none" 
 />
<use 
xlink:href ="#F2_20" 
 transform="matrix(0.012 , 0, 0 , -0.012, 694.7 , 353.7)"
fill="#000000" 
stroke="none" 
 />
<use 
xlink:href ="#F2_53" 
 transform="matrix(0.012 , 0, 0 , -0.012, 709.7 , 353.7)"
fill="#000000" 
stroke="none" 
 />
<use 
xlink:href ="#F2_58" 
 transform="matrix(0.012 , 0, 0 , -0.012, 721.8 , 353.7)"
fill="#000000" 
stroke="none" 
 />
<use 
xlink:href ="#F2_32" 
 transform="matrix(0.012 , 0, 0 , -0.012, 734.1 , 353.7)"
fill="#000000" 
stroke="none" 
 />
<use 
xlink:href ="#F2_22" 
 transform="matrix(0.012 , 0, 0 , -0.012, 747.9 , 353.7)"
fill="#000000" 
stroke="none" 
 />
<use 
xlink:href ="#F2_54" 
 transform="matrix(0.012 , 0, 0 , -0.012, 753.1 , 353.7)"
fill="#000000" 
stroke="none" 
 />
</g>
<path d="M312,355l457,0" class="g4_3" />
<g clip-path="url(#c0_3)">
<use 
xlink:href ="#F4_10" 
 transform="matrix(0.012 , 0, 0 , -0.012, 774.9 , 353.7)"
fill="#000000" 
stroke="none" 
 />
<use 
xlink:href ="#F4_11" 
 transform="matrix(0.012 , 0, 0 , -0.012, 782.1 , 353.7)"
fill="#000000" 
stroke="none" 
 />
<use 
xlink:href ="#F4_12" 
 transform="matrix(0.012 , 0, 0 , -0.012, 796.1 , 353.7)"
fill="#000000" 
stroke="none" 
 />
<use 
xlink:href ="#F4_3" 
 transform="matrix(0.012 , 0, 0 , -0.012, 807.7 , 353.7)"
fill="#000000" 
stroke="none" 
 />
<use 
xlink:href ="#F4_13" 
 transform="matrix(0.012 , 0, 0 , -0.012, 815.2 , 353.7)"
fill="#000000" 
stroke="none" 
 />
<use 
xlink:href ="#F4_14" 
 transform="matrix(0.012 , 0, 0 , -0.012, 826.4 , 353.7)"
fill="#000000" 
stroke="none" 
 />
<use 
xlink:href ="#F4_8" 
 transform="matrix(0.012 , 0, 0 , -0.012, 833.5 , 353.7)"
fill="#000000" 
stroke="none" 
 />
<use 
xlink:href ="#F4_4" 
 transform="matrix(0.012 , 0, 0 , -0.012, 838.7 , 353.7)"
fill="#000000" 
stroke="none" 
 />
<use 
xlink:href ="#F4_9" 
 transform="matrix(0.012 , 0, 0 , -0.012, 849.9 , 353.7)"
fill="#000000" 
stroke="none" 
 />
<use 
xlink:href ="#F4_15" 
 transform="matrix(0.012 , 0, 0 , -0.012, 861.3 , 353.7)"
fill="#000000" 
stroke="none" 
 />
<use 
xlink:href ="#F4_16" 
 transform="matrix(0.012 , 0, 0 , -0.012, 873.5 , 353.7)"
fill="#000000" 
stroke="none" 
 />
<use 
xlink:href ="#F4_15" 
 transform="matrix(0.012 , 0, 0 , -0.012, 885.1 , 353.7)"
fill="#000000" 
stroke="none" 
 />
<use 
xlink:href ="#F4_17" 
 transform="matrix(0.012 , 0, 0 , -0.012, 891.4 , 353.7)"
fill="#000000" 
stroke="none" 
 />
<use 
xlink:href ="#F4_18" 
 transform="matrix(0.012 , 0, 0 , -0.012, 903.1 , 353.7)"
fill="#000000" 
stroke="none" 
 />
<use 
xlink:href ="#F4_19" 
 transform="matrix(0.012 , 0, 0 , -0.012, 914.9 , 353.7)"
fill="#000000" 
stroke="none" 
 />
</g>
<defs>
	<path d="M589.7,-13.7c0,0,-128.3,0,-223,39.7c0,0,-96.3,39.7,-160.4,111.5c0,0,-65.7,73.3,-97.8,172.6c0,0,-32.1,100.9,-32.1,220c0,0,0,122.3,33.6,221.6c0,0,35.1,99.3,99.3,168c0,0,65.7,70.3,160.4,108.5c0,0,96.3,38.2,218.5,38.2c0,0,168.1,0,281.1,-65.7c0,0,113.1,-65.7,165,-195.6L899.9,760.8c0,0,-15.3,36.7,-39.8,70.3c0,0,-25.9,35.2,-64.1,61.1c0,0,-38.2,26,-88.6,41.3c0,0,-52,16.8,-117.7,16.8c0,0,-88.6,0,-157.3,-29c0,0,-70.3,-30.6,-116.1,-85.6c0,0,-47.4,-56.5,-70.3,-132.9c0,0,-24.5,-77.9,-24.5,-172.7c0,0,0,-94.7,26,-172.6c0,0,26,-79.4,73.3,-136c0,0,48.9,-58,117.7,-88.6c0,0,70.3,-32.1,157.3,-32.1c0,0,61.1,0,111.6,15.3c0,0,50.4,16.8,90.1,45.8c0,0,41.3,29.1,73.3,68.8c0,0,32.1,41.2,56.6,88.6l117.6,-58c0,0,-29,-58.1,-70.3,-108.5c0,0,-42.8,-52,-97.8,-88.6c0,0,-56.5,-36.7,-128.3,-56.6c0,0,-71.8,-21.3,-158.9,-21.3Z" 
	id="F1_2"
	 />

	<path d="M418.6,84c0,0,52,0,93.2,13.8c0,0,42.8,15.3,71.8,51.9c0,0,29,36.7,44.3,97.8c0,0,15.3,62.6,15.3,155.8c0,0,0,94.8,-13.8,155.9c0,0,-15.2,61.1,-42.7,97.7c0,0,-27.5,36.7,-67.3,50.5c0,0,-41.2,15.2,-91.6,15.2c0,0,-52,0,-93.2,-15.2c0,0,-41.3,-15.3,-70.3,-52c0,0,-29,-38.2,-44.3,-99.3c0,0,-15.3,-61.1,-15.3,-152.8c0,0,0,-93.2,15.3,-154.3c0,0,16.8,-62.6,45.8,-99.3c0,0,29.1,-36.6,67.3,-50.4c0,0,39.7,-15.3,85.5,-15.3Zm1.5,-97.7c0,0,-84,0,-149.7,24.4c0,0,-67.2,24.4,-113,76.4c0,0,-45.9,51.9,-70.3,129.8c0,0,-24.5,79.5,-24.5,186.4c0,0,0,418.6,362.1,418.6c0,0,94.7,0,162,-25.9c0,0,68.7,-27.5,111.5,-79.5c0,0,44.3,-51.9,65.7,-129.8c0,0,21.4,-77.9,21.4,-183.4c0,0,0,-212.3,-93.2,-314.7c0,0,-93.2,-102.3,-272,-102.3Z" 
	id="F1_3"
	 />

	<path d="M452.2,84c0,0,56.6,0,93.2,21.4c0,0,36.7,21.4,58.1,62.7c0,0,22.9,41.2,30.5,99.3c0,0,9.2,59.5,9.2,135.9c0,0,0,74.9,-7.6,133c0,0,-9.2,58,-30.6,97.7c0,0,-22.9,41.3,-59.6,61.1c0,0,-36.6,21.4,-91.6,21.4c0,0,-44.4,0,-84.1,-12.2c0,0,-39.7,-12.2,-68.7,-47.4c0,0,-30.6,-36.6,-47.4,-99.3c0,0,-16.8,-64.1,-16.8,-165c0,0,0,-85.5,13.8,-143.6c0,0,13.7,-59.6,41.2,-96.2c0,0,27.5,-36.7,67.2,-52c0,0,41.3,-16.8,93.2,-16.8ZM102.4,-316.2l0,957.9c0,0,0,29,0,55c0,0,-1.6,27.5,-1.6,48.9c0,0,-1.5,22.9,-1.5,38.2c0,0,-1.5,15.2,-1.5,22.9l129.8,0c0,0,0,-3.1,1.6,-15.3c0,0,1.5,-13.8,1.5,-32.1c0,0,1.5,-19.9,3.1,-41.2c0,0,1.5,-21.4,1.5,-41.3l3,0c0,0,18.4,38.2,41.3,65.7c0,0,24.4,27.5,55,44.3c0,0,30.5,18.3,68.7,26c0,0,38.2,7.6,84.1,7.6c0,0,84,0,140.5,-29c0,0,58.1,-30.6,91.7,-84c0,0,35.1,-55,50.4,-131.4c0,0,15.3,-76.4,15.3,-169.6c0,0,0,-91.7,-15.3,-169.6c0,0,-15.3,-77.9,-48.9,-132.9c0,0,-35.1,-56.5,-91.7,-87.1c0,0,-58,-30.5,-142,-30.5c0,0,-85.6,0,-149.8,32c0,0,-65.7,32.1,-100.8,107l-3,0c0,0,0,-1.5,0,-13.8c0,0,1.5,-12.2,1.5,-30.5c0,0,0,-18.4,0,-39.7c0,0,1.5,-21.4,1.5,-41.3l0,-316.2Z" 
	id="F1_4"
	 />

	<path d="M142.1,-316.2c0,0,-26,0,-47.4,1.6c0,0,-21.4,1.5,-45.8,6.1l0,100.8c0,0,13.7,-1.5,32.1,-3c0,0,18.3,-1.6,30.5,-1.6c0,0,59.6,0,110,44.3c0,0,50.4,44.3,88.6,140.6L322.4,3.1L3.1,806.7l143.6,0L316.3,360.6c0,0,7.6,-19.9,18.3,-53.5c0,0,12.2,-33.6,22.9,-67.2c0,0,12.2,-33.6,21.4,-59.6c0,0,9.2,-27.5,10.7,-35.2c0,0,1.5,9.2,10.7,32.1c0,0,9.1,24.5,19.8,53.5c0,0,10.7,30.6,21.4,61.1c0,0,10.7,30.6,18.4,53.5L618.8,806.7l142,0L449.2,0c0,0,-27.5,-71.7,-56.6,-129.8c0,0,-30.5,-59.5,-67.2,-100.8c0,0,-36.6,-41.2,-81,-62.6c0,0,-44.3,-23,-102.3,-23Z" 
	id="F1_5"
	 />

	<path d="M105.4,0l0,618.8c0,0,0,24.4,0,50.4c0,0,-1.5,27.5,-1.5,51.9c0,0,-1.5,24.5,-1.5,45.8c0,0,-1.6,23,-1.6,39.8l126.8,0c0,0,0,-16.8,1.6,-38.2c0,0,1.5,-22.9,1.5,-45.9c0,0,1.5,-22.9,1.5,-44.3c0,0,1.6,-21.4,1.6,-36.6l3,0c0,0,13.8,45.8,29,79.4c0,0,16.8,35.2,38.2,56.5c0,0,21.4,21.4,50.4,32.1c0,0,30.6,12.2,73.4,12.2c0,0,16.8,0,32.1,-3c0,0,15.2,-3.1,22.9,-4.6l0,-123.7c0,0,-13.8,4.5,-30.6,6.1c0,0,-18.3,1.5,-41.2,1.5c0,0,-45.9,0,-77.9,-19.9c0,0,-33.7,-21.4,-53.5,-58c0,0,-21.4,-38.2,-30.6,-88.6c0,0,-9.1,-52,-9.1,-111.6L239.9,0Z" 
	id="F1_6"
	 />

	<path d="M100,0l0,806l135,0L235,0Zm0,977l0,129l135,0l0,-129Z" 
	id="F1_7"
	 />

	<path d="M397.2,93.2c0,0,39.7,0,77.9,16.8c0,0,38.2,16.8,68.8,53.5c0,0,30.5,38.2,48.9,96.2c0,0,19.8,59.6,19.8,143.6c0,0,0,84.1,-18.3,143.6c0,0,-18.3,59.6,-47.4,97.8c0,0,-30.5,38.2,-68.7,56.6c0,0,-38.2,18.3,-79.4,18.3c0,0,-50.5,0,-87.1,-18.3c0,0,-38.2,-18.4,-62.7,-56.6c0,0,-24.4,-38.2,-35.1,-97.8c0,0,-12.2,-61.1,-12.2,-143.6c0,0,0,-87,10.7,-146.6c0,0,12.2,-59.6,36.6,-96.3c0,0,24.5,-36.6,61.1,-51.9c0,0,36.7,-15.3,87.1,-15.3Zm10.7,-409.4c0,0,-68.7,0,-122.2,13.8c0,0,-55,15.3,-91.7,41.2c0,0,-38.2,26,-62.6,62.7c0,0,-24.5,36.7,-35.1,81l135.9,19.8c0,0,13.8,-56.5,59.6,-85.5c0,0,45.8,-30.6,120.7,-30.6c0,0,44.3,0,81,12.2c0,0,38.2,12.3,64.1,39.8c0,0,26,29,39.8,73.3c0,0,15.2,45.8,15.2,108.4l0,129.8l-1.5,0c0,0,-15.3,-30.5,-36.7,-58c0,0,-22.9,-29.1,-53.4,-50.4c0,0,-32.1,-21.4,-73.4,-33.7c0,0,-42.7,-12.1,-96.2,-12.1c0,0,-76.4,0,-131.4,24.4c0,0,-55,24.4,-90.1,76.4c0,0,-35.2,51.9,-50.5,128.3c0,0,-16.8,76.4,-16.8,177.2c0,0,0,96.3,15.3,174.2c0,0,16.8,77.9,53.5,131.4c0,0,36.7,55,94.7,82.5c0,0,58.1,29,140.6,29c0,0,85.5,0,148.2,-38.2c0,0,62.6,-39.7,97.7,-113.1l1.6,0c0,0,0,19.9,0,42.8c0,0,1.5,22.9,3,42.8c0,0,1.6,21.4,3.1,35.1c0,0,1.5,15.3,3,18.4l126.8,0c0,0,0,-7.7,0,-22.9c0,0,-1.5,-16.9,-1.5,-38.2c0,0,-1.5,-23,-1.5,-50.5c0,0,-1.5,-27.5,-1.5,-56.5l0,-615.7c0,0,0,-167.9,-82.5,-253.5c0,0,-84.1,-85.6,-255.2,-85.6Z" 
	id="F1_8"
	 />

	<path d="M105.4,0l0,1106.1l134.5,0l0,-287.2c0,0,0,-24.5,0,-48.9c0,0,-1.6,-26,-3.1,-45.8c0,0,-1.5,-21.4,-1.5,-35.2c0,0,-1.5,-15.2,-1.5,-21.4l1.5,0c0,0,22.9,41.3,48.9,70.3c0,0,25.9,29,56.5,47.4c0,0,32.1,18.3,68.7,27.5c0,0,38.2,9.1,84.1,9.1c0,0,77.9,0,126.8,-21.3c0,0,50.4,-21.4,79.4,-58.1c0,0,29.1,-38.2,39.7,-90.1c0,0,10.7,-52,10.7,-114.6L750.1,0L614.2,0l0,510.3c0,0,0,51.9,-6.1,90.1c0,0,-6.2,39.7,-23,65.7c0,0,-18.3,26,-50.4,38.2c0,0,-33.6,13.8,-87.1,13.8c0,0,-47.3,0,-85.5,-16.8c0,0,-38.2,-18.4,-65.7,-48.9c0,0,-27.5,-32.1,-41.3,-76.4c0,0,-15.2,-44.3,-15.2,-100.9L239.9,0Z" 
	id="F1_9"
	 />

	<path d="M276.5,-10.6c0,0,-160.4,0,-160.4,180.2l0,539.3l-93.2,0l0,97.8l97.8,0l39.7,180.2l90.2,0l0,-180.2l148.2,0l0,-97.8l-148.2,0l0,-510.3c0,0,0,-58,18.3,-81c0,0,18.3,-22.9,65.7,-22.9c0,0,19.8,0,38.2,1.6c0,0,18.3,3,39.7,7.6l0,-99.3c0,0,-30.6,-6,-62.6,-10.6c0,0,-32.1,-4.6,-73.4,-4.6Z" 
	id="F1_10"
	 />

	<path d="M670.7,174.2c0,0,51.9,0,96.2,22.9c0,0,44.4,24.4,79.5,61.1c0,0,36.7,38.2,62.6,87.1c0,0,26,50.4,39.8,102.3c0,0,6.1,27.5,10.6,56.6c0,0,6.2,30.5,6.2,51.9c0,0,0,38.2,-12.3,68.8c0,0,-12.2,32,-35.1,53.4c0,0,-24.4,23,-58.1,35.2c0,0,-33.6,12.2,-74.8,12.2c0,0,-64.2,0,-111.5,-30.6c0,0,-48.9,-32,-81,-84c0,0,-33.6,-51.9,-50.4,-116.1c0,0,-16.8,-64.2,-16.8,-129.9c0,0,0,-88.6,35.1,-139c0,0,36.7,-51.9,110,-51.9Zm39.7,-384.9c0,0,-140.5,0,-250.5,42.7c0,0,-110,42.8,-186.4,119.2c0,0,-76.4,76.3,-114.6,181.7c0,0,-39.7,107,-39.7,232.2c0,0,0,103.9,22.9,198.7c0,0,24.4,96.2,67.2,178.7c0,0,44.3,82.5,107,148.2c0,0,64.1,67.2,143.6,114.6c0,0,80.9,48.9,175.7,74.8c0,0,96.2,26,203.2,26c0,0,149.7,0,258.1,-44.3c0,0,110,-44.3,180.3,-117.6c0,0,71.8,-74.9,105.4,-172.7c0,0,35.2,-99.3,35.2,-209.3c0,0,0,-106.9,-24.5,-195.5c0,0,-25.9,-90.2,-68.7,-154.3c0,0,-44.3,-64.2,-105.4,-99.3c0,0,-62.7,-36.7,-134.5,-36.7c0,0,-41.2,0,-70.3,9.2c0,0,-30.5,10.7,-48.8,27.5c0,0,-18.4,18.3,-26,42.7c0,0,-9.2,24.5,-9.2,52c0,0,0,12.2,0,27.5c0,0,1.5,16.8,1.5,24.4l-4.5,0c0,0,-16.8,-33.6,-42.8,-65.7c0,0,-26,-33.6,-59.6,-59.6c0,0,-35.1,-25.9,-79.4,-41.2c0,0,-44.3,-16.8,-96.3,-16.8c0,0,-62.6,0,-108.5,21.4c0,0,-47.3,22.9,-77.9,61.1c0,0,-30.5,38.2,-44.3,90.1c0,0,-15.3,53.5,-15.3,114.6c0,0,0,90.2,26,172.7c0,0,26,82.5,74.9,145.1c0,0,50.4,62.6,119.1,100.8c0,0,68.8,38.2,154.3,38.2c0,0,44.3,0,79.5,-9.1c0,0,36.7,-10.7,64.2,-29.1c0,0,27.5,-18.3,47.3,-42.8c0,0,19.9,-24.4,33.6,-55l4.6,0l29,119.2l116.1,0l-87,-377.3c0,0,-13.8,-62.7,-19.9,-107c0,0,-7.6,-44.3,-7.6,-81c0,0,0,-36.6,15.2,-53.4c0,0,16.8,-16.8,45.9,-16.8c0,0,45.8,0,85.5,29c0,0,39.8,30.5,68.8,84c0,0,30.5,53.5,47.3,123.8c0,0,16.8,71.8,16.8,155.8c0,0,0,96.2,-30.5,178.7c0,0,-32.1,84.1,-91.7,143.7c0,0,-59.6,61.1,-148.2,94.7c0,0,-90.1,35.1,-206.2,35.1c0,0,-99.3,0,-183.4,-24.4c0,0,-85.5,-24.5,-154.3,-67.2c0,0,-68.7,-42.8,-120.7,-102.4c0,0,-51.9,-61.1,-87,-132.9c0,0,-35.2,-71.8,-52,-152.8c0,0,-18.3,-82.5,-18.3,-168.1c0,0,0,-105.4,32.1,-194c0,0,32.1,-88.6,93.2,-151.2c0,0,62.6,-62.6,152.7,-97.7c0,0,90.2,-36.7,207.8,-36.7c0,0,79.5,0,146.7,12.2c0,0,67.2,12.3,123.7,29.1c0,0,58.1,18.3,102.4,39.7c0,0,44.3,21.4,77.9,38.1l41.3,-82.4c0,0,-38.2,-21.4,-88.6,-44.3c0,0,-50.5,-24.5,-111.6,-44.3c0,0,-62.6,-19.9,-134.4,-32.1c0,0,-73.4,-12.2,-157.4,-12.2Z" 
	id="F1_12"
	 />

	<path d="M76.4,0l0,94.7c0,0,38.2,87.1,91.7,152.8c0,0,55,67.2,116.1,120.7c0,0,61.1,55,119.1,100.8c0,0,59.6,45.9,107,91.7c0,0,48.9,47.4,77.9,97.8c0,0,29,50.4,29,114.6c0,0,0,45.8,-12.2,79.4c0,0,-13.7,33.6,-38.2,56.5c0,0,-26,22.9,-61.1,33.6c0,0,-36.7,12.3,-79.4,12.3c0,0,-41.3,0,-76.4,-10.7c0,0,-35.2,-10.7,-62.7,-32.1c0,0,-27.5,-22.9,-44.3,-56.5c0,0,-18.3,-33.7,-22.9,-78L82.5,791.4c0,0,6.1,56.5,30.6,105.4c0,0,24.4,50.4,67.2,87.1c0,0,44.3,38.2,105.4,59.6c0,0,61.1,22.9,140.6,22.9c0,0,77.9,0,139,-18.3c0,0,61.1,-19.9,102.3,-56.6c0,0,42.8,-36.6,65.7,-90.1c0,0,23,-53.5,23,-123.8c0,0,0,-51.9,-18.4,-99.3c0,0,-19.8,-48.9,-51.9,-91.6c0,0,-32.1,-44.3,-73.4,-84.1c0,0,-41.2,-39.7,-87,-77.9c0,0,-45.9,-39.7,-91.7,-76.4c0,0,-47.4,-38.2,-87.1,-76.4c0,0,-41.2,-38.1,-73.3,-76.3c0,0,-32.1,-39.8,-50.4,-82.5l548.4,0L771.5,0Z" 
	id="F1_13"
	 />

	<path d="M423.2,94.7c0,0,53.5,0,96.2,21.4c0,0,42.8,21.4,71.9,71.8c0,0,29,50.4,44.3,132.9c0,0,16.8,84.1,16.8,204.8c0,0,0,125.2,-13.8,207.7c0,0,-15.3,84.1,-44.3,133c0,0,-29,50.4,-71.8,70.2c0,0,-42.8,19.9,-96.2,19.9c0,0,-56.6,0,-99.4,-19.9c0,0,-42.7,-21.4,-71.8,-70.2c0,0,-30.5,-50.5,-45.8,-133c0,0,-15.3,-84,-15.3,-207.7c0,0,0,-120.7,15.3,-203.2c0,0,15.3,-84.1,44.3,-134.5c0,0,30.6,-50.4,73.3,-71.8c0,0,42.8,-21.4,96.3,-21.4ZM421.7,-13.7c0,0,-76.4,0,-142.1,25.9c0,0,-67.2,27.5,-116.1,90.2c0,0,-48.9,64.1,-76.4,166.5c0,0,-27.5,103.9,-27.5,256.7c0,0,0,158.8,27.5,262.7c0,0,27.5,103.9,76.4,165c0,0,50.4,62.7,117.6,87.1c0,0,67.2,26,145.2,26c0,0,76.3,0,142,-24.5c0,0,65.7,-25.9,114.6,-87c0,0,48.9,-62.7,77.9,-166.6c0,0,29.1,-103.9,29.1,-262.7c0,0,0,-151.3,-29.1,-255.2c0,0,-29,-103.9,-77.9,-166.5c0,0,-50.4,-64.2,-117.6,-90.1c0,0,-67.2,-27.5,-143.6,-27.5Z" 
	id="F1_14"
	 />

	<path d="M116.1,0l0,113.1l267.4,0l0,809.7L146.7,753.2l0,126.8l247.5,169.6l123.7,0l0,-936.5l256.7,0L774.6,0Z" 
	id="F1_15"
	 />

	<path d="M438.5,93.2c0,0,47.3,0,85.5,16.8c0,0,39.8,16.8,65.7,47.4c0,0,27.5,32,41.3,77.9c0,0,13.7,45.8,13.7,102.3c0,0,0,53.5,-12.2,97.8c0,0,-13.7,44.3,-39.7,74.9c0,0,-27.5,30.5,-67.2,47.3c0,0,-39.8,16.8,-91.7,16.8c0,0,-36.7,0,-73.3,-10.6c0,0,-38.2,-10.7,-68.8,-33.7c0,0,-30.5,-24.4,-48.9,-64.1c0,0,-19.8,-39.7,-19.8,-96.3c0,0,0,-58,15.2,-108.4c0,0,15.3,-50.5,42.8,-87.1c0,0,29,-38.2,67.2,-59.6c0,0,39.8,-21.4,90.2,-21.4Zm4.6,-106.9c0,0,-93.2,0,-160.5,33.6c0,0,-68.7,35.1,-114.5,100.8c0,0,-45.9,65.7,-68.8,161.9c0,0,-22.9,96.3,-22.9,218.5c0,0,0,139,26,244.5c0,0,25.9,106.9,73.3,177.2c0,0,48.9,71.8,119.2,106.9c0,0,70.2,36.7,157.3,36.7c0,0,55,0,100.9,-10.7c0,0,47.3,-12.2,85.5,-36.7c0,0,38.2,-25.9,67.2,-65.7c0,0,29.1,-41.2,47.4,-100.8L624.9,828.1c0,0,-21.4,68.7,-67.3,97.7c0,0,-45.8,30.6,-106.9,30.6c0,0,-55,0,-99.3,-26c0,0,-44.3,-26,-74.9,-77.9c0,0,-32.1,-51.9,-48.9,-129.9c0,0,-16.8,-77.9,-16.8,-181.8c0,0,36.7,67.3,102.4,102.4c0,0,67.2,35.1,152.8,35.1c0,0,71.8,0,129.8,-22.9c0,0,58.1,-22.9,99.3,-65.7c0,0,41.3,-44.3,64.2,-106.9c0,0,22.9,-62.7,22.9,-139c0,0,0,-79.5,-21.4,-145.2c0,0,-22.9,-67.2,-65.7,-114.6c0,0,-42.7,-47.3,-105.4,-71.8c0,0,-64.1,-25.9,-146.6,-25.9Z" 
	id="F1_16"
	 />

	<path d="M136,-193.9c0,0,33.6,47.3,51.9,96.2c0,0,18.4,50.4,18.4,97.7L140.6,0l0,161.9l145.1,0l0,-125.2c0,0,0,-36.7,-3.1,-68.7c0,0,-3,-33.6,-10.7,-61.1c0,0,-7.6,-29,-18.3,-53.5c0,0,-10.7,-24.4,-26,-47.3Z" 
	id="F1_17"
	 />

	<path d="M140,0l0,1049l142,0L282,0Z" 
	id="F1_18"
	 />

	<path d="M105.4,0l0,634c0,0,0,26,0,53.5c0,0,-1.5,27.5,-1.5,51.9c0,0,-1.5,26,-1.5,42.8c0,0,-1.6,18.4,-1.6,24.5l126.8,0c0,0,0,-4.6,0,-19.9c0,0,1.6,-16.8,3.1,-38.2c0,0,1.5,-21.4,1.5,-42.8c0,0,1.6,-22.9,1.6,-38.2l1.5,0c0,0,19.8,35.2,42.8,64.2c0,0,22.9,29,53.4,47.4c0,0,30.6,19.8,70.3,30.5c0,0,39.7,12.2,91.7,12.2c0,0,67.2,0,116.1,-16.8c0,0,48.9,-16.8,79.4,-50.4c0,0,32.1,-35.1,45.9,-88.6c0,0,15.2,-55,15.2,-128.3L750.1,0L614.2,0l0,510.3c0,0,0,59.6,-7.7,99.3c0,0,-9.1,39.7,-27.5,64.2c0,0,-19.8,24.4,-51.9,33.6c0,0,-32.1,10.7,-79.5,10.7c0,0,-47.3,0,-85.5,-16.8c0,0,-38.2,-16.9,-65.7,-48.9c0,0,-27.5,-32.1,-41.3,-78c0,0,-15.2,-47.3,-15.2,-106.9L239.9,0Z" 
	id="F1_19"
	 />

	<path d="M134.4,0l0,708.9l-113,0l0,97.8l113,0l0,90.1c0,0,0,44.3,7.7,82.5c0,0,9.2,38.2,30.5,65.7c0,0,21.4,27.5,59.6,42.8c0,0,38.2,16.8,99.3,16.8c0,0,22.9,0,48.9,-1.5c0,0,26,-3.1,45.9,-7.7l0,-102.3c0,0,-13.8,3,-29.1,4.5c0,0,-16.8,1.6,-30.5,1.6c0,0,-30.6,0,-48.9,-7.7c0,0,-19.9,-7.6,-30.6,-22.9c0,0,-10.7,-15.3,-13.7,-38.2c0,0,-4.6,-22.9,-4.6,-51.9l0,-71.8l157.4,0l0,-97.8l-157.4,0L268.9,0Z" 
	id="F1_20"
	 />

	<path d="M380.4,-13.7c0,0,-70.3,0,-126.8,9.2c0,0,-56.5,10.6,-97.8,33.5c0,0,-42.7,24.5,-71.8,62.7c0,0,-29,39.7,-42.7,97.7l119.1,23c0,0,16.8,-65.7,70.3,-94.8c0,0,55,-30.5,149.7,-30.5c0,0,42.8,0,79.5,4.6c0,0,36.6,6.1,62.6,19.8c0,0,26,15.3,39.7,39.8c0,0,15.3,24.4,15.3,61.1c0,0,0,36.6,-16.8,59.5c0,0,-18.3,23,-48.9,38.2c0,0,-30.5,16.8,-73.3,27.5c0,0,-44.3,12.3,-96.3,26c0,0,-48.9,13.8,-96.2,29c0,0,-47.4,15.3,-85.6,41.3c0,0,-38.2,26,-62.6,64.2c0,0,-24.5,38.2,-24.5,94.7c0,0,0,110,78,168c0,0,79.4,58.1,230.6,58.1c0,0,133,0,210.9,-45.8c0,0,79.4,-47.4,100.8,-151.3L572.9,606.5c0,0,-6.1,30.6,-24.4,52c0,0,-18.4,21.4,-42.8,33.6c0,0,-26,13.7,-58.1,19.8c0,0,-32,6.2,-65.7,6.2c0,0,-91.6,0,-134.4,-27.5c0,0,-42.8,-27.5,-42.8,-84.1c0,0,0,-33.6,15.3,-53.4c0,0,16.8,-21.4,44.3,-35.2c0,0,29,-15.3,68.8,-26c0,0,41.2,-12.2,90.1,-22.9c0,0,32.1,-9.1,65.7,-18.3c0,0,33.6,-9.2,64.2,-21.4c0,0,32,-13.7,59.5,-30.5c0,0,29.1,-18.4,48.9,-42.8c0,0,21.4,-24.5,33.6,-56.6c0,0,12.3,-33.6,12.3,-77.9c0,0,0,-56.5,-21.4,-100.8c0,0,-21.4,-44.3,-62.7,-73.3c0,0,-42.7,-30.6,-103.9,-45.9c0,0,-61.1,-15.2,-139,-15.2Z" 
	id="F1_21"
	 />

	<path d="M125,0l0,1049l142,0l0,-933l530,0L797,0Z" 
	id="F1_22"
	 />

	<path d="M105.4,0l0,634c0,0,0,26,0,53.5c0,0,-1.5,27.5,-1.5,51.9c0,0,-1.5,26,-1.5,42.8c0,0,-1.6,18.4,-1.6,24.5l126.8,0c0,0,0,-4.6,0,-19.9c0,0,1.6,-16.8,3.1,-38.2c0,0,1.5,-21.4,1.5,-42.8c0,0,1.6,-22.9,1.6,-38.2l1.5,0c0,0,18.3,35.2,38.2,64.2c0,0,21.4,29,48.9,47.4c0,0,29,19.8,64.1,30.5c0,0,36.7,12.2,85.6,12.2c0,0,91.7,0,143.6,-36.6c0,0,53.5,-36.7,74.9,-117.7l3,0c0,0,16.8,35.2,39.7,64.2c0,0,23,29,52,47.4c0,0,30.5,19.8,67.2,30.5c0,0,38.2,12.2,85.6,12.2c0,0,61.1,0,105.4,-16.8c0,0,44.3,-16.8,71.8,-50.4c0,0,29,-35.1,42.8,-88.6c0,0,13.7,-55,13.7,-128.3L1171.8,0L1038.9,0l0,510.3c0,0,0,59.6,-7.6,99.3c0,0,-7.7,39.7,-24.5,64.2c0,0,-18.3,24.4,-45.8,33.6c0,0,-29.1,10.7,-70.3,10.7c0,0,-42.8,0,-76.4,-15.3c0,0,-35.1,-16.8,-58,-47.4c0,0,-24.5,-32.1,-38.2,-79.4c0,0,-13.8,-47.4,-13.8,-108.5L704.3,0L571.4,0l0,510.3c0,0,0,59.6,-6.1,99.3c0,0,-7.7,39.7,-24.5,64.2c0,0,-18.3,24.4,-45.8,33.6c0,0,-29,10.7,-70.3,10.7c0,0,-42.8,0,-76.4,-16.8c0,0,-35.1,-16.9,-59.5,-48.9c0,0,-24.5,-32.1,-36.7,-78c0,0,-13.8,-47.3,-13.8,-106.9L238.3,0Z" 
	id="F1_23"
	 />

	<path d="M641.7,476.7c0,0,-10.7,128.3,-64.2,186.4c0,0,-53.5,59.5,-154.3,59.5c0,0,-33.6,0,-70.3,-10.7c0,0,-36.6,-12.2,-67.2,-39.7c0,0,-32.1,-27.5,-53.5,-74.8c0,0,-22.9,-47.4,-25.9,-120.7ZM430.8,-13.7c0,0,-178.7,0,-271.9,105.4c0,0,-94.7,105.4,-94.7,316.2c0,0,0,113.1,27.5,191c0,0,29,79.4,77.9,128.3c0,0,50.4,50.4,114.6,71.8c0,0,65.7,22.9,140.5,22.9c0,0,102.4,0,169.6,-32c0,0,68.8,-33.6,110,-91.7c0,0,41.3,-58.1,58.1,-136c0,0,18.3,-79.4,18.3,-169.6l0,-18.3l-576,0c0,0,0,-62.6,12.2,-116.1c0,0,13.8,-53.5,41.3,-91.7c0,0,27.5,-39.7,70.3,-59.6c0,0,42.8,-21.3,102.3,-21.3c0,0,87.1,0,139.1,35.1c0,0,53.4,35.1,71.8,88.6L759.3,175.7c0,0,-12.2,-33.6,-35.1,-67.2c0,0,-22.9,-35.2,-61.1,-61.1c0,0,-38.2,-27.5,-94.8,-44.3c0,0,-58,-16.8,-137.5,-16.8Z" 
	id="F1_24"
	 />

	<path d="M394.2,88.6c0,0,53.4,0,93.2,16.8c0,0,41.2,16.8,68.7,55c0,0,27.5,38.2,41.3,99.3c0,0,13.7,62.7,13.7,152.8c0,0,0,85.6,-13.7,145.1c0,0,-13.8,59.6,-41.3,96.3c0,0,-27.5,36.7,-67.2,51.9c0,0,-41.3,16.8,-93.2,16.8c0,0,-48.9,0,-84,-16.8c0,0,-36.7,-18.3,-59.6,-56.5c0,0,-24.5,-38.2,-35.2,-97.8c0,0,-12.2,-61.1,-12.2,-148.2c0,0,0,-84,9.2,-143.6c0,0,10.7,-59.6,33.6,-97.8c0,0,24.4,-38.1,59.6,-55c0,0,36.7,-18.3,87.1,-18.3ZM360.6,-13.7c0,0,-152.8,0,-224.6,100.8c0,0,-73.4,102.3,-73.4,311.7c0,0,0,423.1,298,423.1c0,0,91.6,0,152.7,-33.6c0,0,61.1,-33.6,97.8,-106.9l1.5,0c0,0,0,7.6,0,22.9c0,0,0,16.8,0,33.6c0,0,-1.5,18.4,-1.5,33.6c0,0,0,15.3,0,22.9l0,311.7l134.5,0l0,-941.1c0,0,0,-29,0,-55c0,0,1.5,-27.5,1.5,-48.9c0,0,1.5,-22.9,1.5,-38.2c0,0,1.5,-16.8,1.5,-22.9L621.8,0c0,0,-1.5,6.1,-1.5,19.9c0,0,-1.5,13.7,-3.1,32c0,0,-1.5,18.4,-1.5,38.2c0,0,-1.5,19.9,-1.5,38.2l-3.1,0c0,0,-36.7,-76.4,-97.8,-108.4c0,0,-62.6,-33.6,-152.7,-33.6Z" 
	id="F1_25"
	 />

	<path d="M264.3,297.9c0,0,-42.8,0,-79.4,16.8c0,0,-36.7,16.8,-64.2,44.3c0,0,-29,29.1,-44.3,67.3c0,0,-16.8,38.1,-16.8,82.5c0,0,0,41.2,15.3,77.9c0,0,16.8,38.2,44.3,65.7c0,0,29,27.5,65.7,42.7c0,0,36.6,16.8,79.4,16.8c0,0,42.8,0,81,-15.2c0,0,38.2,-16.8,65.7,-44.3c0,0,29,-27.5,45.8,-64.2c0,0,16.8,-38.2,16.8,-79.4c0,0,0,-44.4,-16.8,-82.5c0,0,-16.8,-38.2,-44.3,-65.7c0,0,-29,-29.1,-67.2,-45.9c0,0,-38.2,-16.8,-81,-16.8Z" 
	id="F1_26"
	 />

	<path d="M629.4,-21.3c0,0,-253.6,0,-398.7,154.2c0,0,-145.1,154.3,-145.1,421.7c0,0,0,268.9,145.1,423.2c0,0,145.1,155.8,398.7,155.8c0,0,99.4,0,188,-26c0,0,88.6,-27.5,166.5,-80.9l0,-158.9c0,0,-76.4,71.8,-162,106.9c0,0,-87,35.2,-184.8,35.2c0,0,-191,0,-291.8,-116.1c0,0,-100.9,-117.7,-100.9,-339.2c0,0,0,-220,100.9,-336.1c0,0,100.8,-117.7,291.8,-117.7c0,0,97.8,0,183.3,35.2c0,0,87.1,35.1,163.5,106.9l0,-157.3c0,0,-79.5,-55,-168.1,-81c0,0,-88.6,-25.9,-186.4,-25.9Z" 
	id="F2_38"
	 />

	<path d="M407.9,93.2c0,0,113.1,0,181.8,79.4c0,0,70.3,81,70.3,215.5l0,30.5l-137.5,0c0,0,-166.5,0,-230.7,-36.7c0,0,-64.2,-38.1,-64.2,-129.8c0,0,0,-73.3,47.4,-116.1c0,0,48.9,-42.8,132.9,-42.8ZM371.3,-21.3c0,0,-128.4,0,-203.2,71.7c0,0,-76.4,71.8,-76.4,192.5c0,0,0,140.6,93.2,212.4c0,0,94.7,71.8,282.6,71.8l192.5,0l0,13.7c0,0,0,94.8,-62.6,145.2c0,0,-62.7,51.9,-175.7,51.9c0,0,-71.8,0,-139.1,-16.8c0,0,-67.2,-16.8,-129.8,-51.9l0,126.8c0,0,74.8,30.5,145.1,44.3c0,0,71.8,15.3,139,15.3c0,0,180.3,0,268.9,-93.2c0,0,90.2,-94.8,90.2,-285.7L796,0L660,0l0,126.8c0,0,-47.4,-76.4,-117.6,-111.5c0,0,-70.3,-36.6,-171.1,-36.6Z" 
	id="F2_6"
	 />

	<path d="M137.5,0l0,834.2l139,0l0,-129.9c0,0,42.8,76.4,111.6,113.1c0,0,70.2,38.2,169.5,38.2c0,0,13.8,0,30.6,-1.6c0,0,16.8,-3,38.2,-6.1l1.5,-142.1c0,0,-24.4,13.8,-50.4,19.9c0,0,-27.5,6.1,-61.1,6.1c0,0,-116.1,0,-177.2,-74.9c0,0,-62.7,-76.3,-62.7,-216.9l0,-440Z" 
	id="F2_13"
	 />

	<path d="M420.1,0c0,0,-158.8,0,-218.4,58.1c0,0,-61.1,59.5,-61.1,216.9l0,453.8l-100.9,0l0,105.4l100.9,0l0,238.3l139,0l0,-238.3l282.6,0l0,-105.4l-282.6,0l0,-453.8c0,0,0,-102.4,27.5,-131.4c0,0,27.5,-29,113,-29l142.1,0L562.2,0Z" 
	id="F2_12"
	 />

	<path d="M230.7,490.4l490.4,1.5c0,0,-1.5,111.6,-62.6,178.8c0,0,-62.7,67.2,-163.5,67.2c0,0,-114.6,0,-183.3,-64.1c0,0,-70.3,-65.7,-81,-183.4ZM516.4,-21.3c0,0,-198.6,0,-314.7,116C201.7,94.7,84,210.8,84,409.4c0,0,0,204.8,110,325.5c0,0,111.6,120.7,299.5,120.7c0,0,168,0,265.8,-108.5c0,0,99.3,-110,99.3,-296.4l0,-67.2l-632.5,0c0,0,9.2,-140.6,85.6,-213.9c0,0,76.4,-74.9,213.9,-74.9c0,0,77.9,0,152.7,18.4c0,0,74.9,19.8,148.2,58l0,-129.8c0,0,-74.8,-30.6,-151.2,-45.8c0,0,-77.9,-16.8,-158.9,-16.8Z" 
	id="F2_4"
	 />

	<path d="M375.8,-21.3c0,0,-67.2,0,-140.5,12.2c0,0,-73.4,12.2,-152.8,39.7l0,140.5c0,0,76.4,-39.7,149.7,-58c0,0,73.4,-19.9,146.7,-19.9c0,0,96.2,0,148.2,32.1c0,0,51.9,33.6,51.9,94.7c0,0,0,55,-36.6,84c0,0,-38.2,30.6,-165,58.1l-48.9,12.2c0,0,-126.8,26,-183.4,81c0,0,-56.5,56.5,-56.5,152.8c0,0,0,119.1,82.5,183.3c0,0,84,64.2,238.3,64.2c0,0,74.9,0,142.1,-10.7c0,0,67.3,-12.3,123.8,-35.2l0,-129.8c0,0,-58.1,30.5,-120.7,44.3c0,0,-62.7,15.2,-129.9,15.2c0,0,-102.3,0,-152.8,-30.5c0,0,-50.4,-32.1,-50.4,-94.7c0,0,0,-47.4,35.2,-74.9c0,0,36.6,-27.5,148.2,-51.9l45.8,-10.7c0,0,146.7,-30.6,207.8,-87.1c0,0,62.6,-58.1,62.6,-160.4c0,0,0,-116.1,-91.7,-183.4c0,0,-93.1,-67.1,-253.6,-67.1Z" 
	id="F2_11"
	 />

	<path d="M143,0l0,834l138,0L281,0Zm0,985l0,174l138,0l0,-174Z" 
	id="F2_9"
	 />

	<path d="M137.5,0l0,834.2l139,0l0,-129.9c0,0,48.9,76.4,114.6,113.1c0,0,67.2,38.2,154.3,38.2c0,0,145.2,0,218.5,-88.7c0,0,73.3,-90.1,73.3,-262.7L837.2,0L699.7,0l0,499.6c0,0,0,117.6,-45.8,175.7c0,0,-45.8,59.6,-139,59.6c0,0,-110,0,-174.2,-70.3c0,0,-64.2,-70.3,-64.2,-192.5L276.5,0Z" 
	id="F2_10"
	 />

	<path d="M488.9,571.4c0,0,105.4,0,161.9,53.5c0,0,58.1,55,58.1,155.8c0,0,0,99.3,-56.5,152.8c0,0,-58.1,55,-163.5,55l-189.5,0l0,-417.1ZM149.7,0l0,1113.8l339.2,0c0,0,187.9,0,282.6,-84.1c0,0,96.3,-85.5,96.3,-249c0,0,0,-165,-94.7,-249c0,0,-96.3,-85.6,-284.2,-85.6l-189.5,0L299.4,0Z" 
	id="F2_41"
	 />

	<path d="M467.5,94.7c0,0,108.5,0,172.6,85.6c0,0,64.2,87.1,64.2,235.3c0,0,0,149.7,-64.2,235.2c0,0,-64.1,87.1,-172.6,87.1c0,0,-111.5,0,-175.7,-85.5c0,0,-64.2,-85.6,-64.2,-236.8c0,0,0,-149.8,64.2,-235.3c0,0,64.2,-85.6,175.7,-85.6Zm0,-116c0,0,-180.3,0,-281.1,116C186.4,94.7,84,210.8,84,415.6c0,0,0,206.2,100.9,322.3c0,0,102.3,117.7,282.6,117.7c0,0,178.8,0,281.1,-116.2c0,0,102.4,-117.6,102.4,-323.8c0,0,0,-204.8,-102.4,-320.9c0,0,-102.3,-116,-281.1,-116Z" 
	id="F2_14"
	 />

	<path d="M458.3,93.2c0,0,110,0,172.7,85.6c0,0,62.6,85.5,62.6,236.8c0,0,0,152.7,-62.6,238.3c0,0,-62.7,85.5,-172.7,85.5c0,0,-108.4,0,-171.1,-85.5c0,0,-62.6,-85.6,-62.6,-238.3c0,0,0,-151.3,62.6,-236.8c0,0,62.7,-85.6,171.1,-85.6ZM424.7,-21.3c0,0,-151.2,0,-245.9,120.6C178.8,99.3,84,220,84,415.6c0,0,0,197,94.8,317.7c0,0,94.7,122.3,245.9,122.3c0,0,93.2,0,158.9,-36.7c0,0,65.7,-36.7,110,-111.5l0,452.2l136,0L829.6,0l-136,0l0,125.3c0,0,-44.3,-74.9,-110,-110c0,0,-65.7,-36.6,-158.9,-36.6Z" 
	id="F2_7"
	 />

	<path d="M421.7,-21.3c0,0,-143.6,0,-218.5,88.5L128.3,328.5l0,505.7l137.5,0l0,-499.6c0,0,0,-119.2,45.9,-178.8c0,0,47.3,-59.5,139,-59.5c0,0,111.5,0,175.7,70.2c0,0,65.7,71.8,65.7,194.1l0,473.6l136,0L828.1,0l-136,0l0,126.8c0,0,-50.4,-74.9,-116.1,-111.5c0,0,-67.2,-36.6,-154.3,-36.6Z" 
	id="F2_17"
	 />

	<path d="M495,-21.3c0,0,-189.4,0,-299.4,117.6C195.6,96.3,84,215.4,84,415.6c0,0,0,204.7,111.6,322.3c0,0,113,117.7,308.6,117.7c0,0,62.6,0,122.2,-13.8c0,0,61.1,-13.7,117.6,-39.7l0,-128.3c0,0,-58,32,-116.1,47.3c0,0,-58,16.8,-119.1,16.8c0,0,-133,0,-206.3,-84c0,0,-74.9,-84,-74.9,-238.3c0,0,0,-152.8,73.4,-236.8c0,0,74.8,-84.1,207.8,-84.1c0,0,61.1,0,119.1,15.3c0,0,58.1,16.8,116.1,48.9L744,30.6c0,0,-56.5,-26,-117.6,-38.1c0,0,-62.6,-13.8,-131.4,-13.8Z" 
	id="F2_29"
	 />

	<path d="M165,0l0,728.8l-131.4,0l0,105.4l131.4,0l0,58c0,0,0,140.6,64.2,203.2c0,0,65.7,64.2,207.7,64.2l129.9,0l0,-113.1l-131.4,0c0,0,-74.8,0,-102.3,-30.5c0,0,-29.1,-30.6,-29.1,-107l0,-74.8l226.1,0l0,-105.4l-226.1,0L304,0Z" 
	id="F2_16"
	 />

	<path d="M137.5,0l0,1159.6l139,0l0,-455.3c0,0,48.9,76.4,114.6,113.1c0,0,67.2,38.2,154.3,38.2c0,0,145.2,0,218.5,-88.7c0,0,73.3,-90.1,73.3,-262.7L837.2,0L699.7,0l0,499.6c0,0,0,117.6,-45.8,175.7c0,0,-45.8,59.6,-139,59.6c0,0,-110,0,-174.2,-70.3c0,0,-64.2,-70.3,-64.2,-192.5L276.5,0Z" 
	id="F2_3"
	 />

	<path d="M0,-140.5L386.5,1113.8l126.8,0L126.8,-140.5Z" 
	id="F2_42"
	 />

	<path d="M282.6,0L62.6,834.2l137.5,0L372.8,183.3L542.4,834.2l161.9,0L876.9,183.3l171.2,650.9l135.9,0L965.6,0l-162,0L624.9,684.4L444.6,0Z" 
	id="F2_20"
	 />

	<path d="M137.5,0l0,834.2l139,0l0,-129.9c0,0,45.9,77.9,111.6,114.6c0,0,65.7,36.7,155.8,36.7c0,0,91.7,0,154.3,-45.9c0,0,64.2,-47.3,96.2,-135.9c0,0,50.5,93.1,122.3,137.5c0,0,71.8,44.3,168,44.3c0,0,131.4,0,201.7,-91.7c0,0,71.8,-91.7,71.8,-259.7L1358.2,0l-139,0l0,499.6c0,0,0,119.2,-41.3,177.2c0,0,-42.8,58.1,-129.8,58.1c0,0,-107,0,-168.1,-70.3c0,0,-62.6,-70.3,-62.6,-192.5L817.4,0L678.3,0l0,499.6c0,0,0,120.7,-41.2,177.2c0,0,-42.8,58.1,-131.4,58.1c0,0,-105.4,0,-166.5,-70.3c0,0,-62.7,-71.8,-62.7,-192.5L276.5,0Z" 
	id="F2_8"
	 />

	<path d="M-27.4,-317.7l0,117.7l35,0c0,0,79.5,0,107,35.1c0,0,29,36.7,29,151.2l0,847.9l137.5,0l0,-847.9c0,0,0,-160.4,-61.1,-232.2c0,0,-61.1,-71.8,-195.6,-71.8Zm171,1303.1l0,174.2l137.5,0l0,-174.2Z" 
	id="F2_43"
	 />

	<path d="M508.8,93.2c0,0,110,0,171.1,85.6c0,0,62.6,85.5,62.6,236.8c0,0,0,152.7,-61.1,238.3c0,0,-62.6,85.5,-172.6,85.5c0,0,-108.5,0,-169.6,-85.5c0,0,-62.7,-85.6,-62.7,-238.3c0,0,0,-151.3,61.1,-236.8c0,0,62.7,-85.6,171.2,-85.6ZM542.4,-21.3c0,0,-91.7,0,-157.4,35.1c0,0,-65.7,36.6,-108.5,111.5L276.5,0l-139,0l0,1159.6l139,0l0,-452.2c0,0,42.8,74.8,108.5,111.5c0,0,65.7,36.7,157.4,36.7c0,0,152.7,0,247.5,-120.7c0,0,96.2,-122.3,96.2,-319.3c0,0,0,-195.6,-94.7,-316.3c0,0,-96.3,-120.6,-249,-120.6Z" 
	id="F2_26"
	 />

	<path d="M143,0l0,1159l138,0L281,0Z" 
	id="F2_22"
	 />

	<path d="M456.8,-21.3c0,0,-77.9,0,-166.5,16.8c0,0,-90.2,18.3,-186.4,53.4l0,154.3c0,0,91.7,-50.4,180.3,-76.4c0,0,88.6,-27.5,172.6,-27.5c0,0,129.9,0,200.1,50.4c0,0,70.3,52,70.3,145.2c0,0,0,82.5,-50.4,128.3c0,0,-50.4,47.4,-166.5,70.3l-91.7,16.8c0,0,-168,33.6,-242.9,105.4c0,0,-76.4,71.8,-76.4,200.1c0,0,0,146.7,103.9,232.3c0,0,105.4,85.5,287.2,85.5c0,0,79.5,0,160.4,-13.7c0,0,81,-15.3,166.6,-42.8l0,-148.2c0,0,-85.6,41.2,-162,61.1c0,0,-76.4,21.4,-146.6,21.4c0,0,-123.8,0,-189.5,-47.4c0,0,-67.2,-48.9,-67.2,-137.5c0,0,0,-73.3,44.3,-110c0,0,44.3,-38.2,168,-61.1l90.2,-19.8c0,0,169.6,-32.1,249,-111.6c0,0,81,-80.9,81,-216.9c0,0,0,-162,-108.5,-244.5c0,0,-108.5,-83.9,-319.3,-83.9Z" 
	id="F2_27"
	 />

	<path d="M120.7,-317.7l0,116.1l79.4,0c0,0,56.6,0,87.1,26c0,0,32.1,27.5,70.3,126.8l24.4,61L44.3,834.2l145.1,0L450.7,181.8L711.9,834.2l146.7,0L490.4,-76.3c0,0,-58,-149.7,-113,-195.5c0,0,-55,-45.9,-148.2,-45.9Z" 
	id="F2_19"
	 />

	<path d="M42.8,0L368.2,436.9L70.3,834.2l161.9,0L453.8,537.8L675.3,834.2l161.9,0L536.3,427.8L854,0L692.1,0L447.6,326.9L204.7,0Z" 
	id="F2_44"
	 />

	<path d="M149,0l0,1113l705,0l0,-128l-555,0l0,-329l530,0l0,-126l-530,0l0,-404l567,0L866,0Z" 
	id="F2_45"
	 />

	<path d="M357.5,0L44.3,834.2l145.1,0L450.7,132.9L711.9,834.2l146.7,0L543.9,0Z" 
	id="F2_18"
	 />

	<path d="M189.4,0l0,126.8l246,0l0,849.5L166.5,922.8l0,136l267.4,55l149.7,0l0,-987l246,0L829.6,0Z" 
	id="F2_46"
	 />

	<path d="M111.5,0l0,126.8c0,0,85.6,88.6,233.8,236.8c0,0,148.2,149.7,186.4,194c0,0,71.8,81,100.8,137.5c0,0,29,56.6,29,110c0,0,0,88.7,-62.6,145.2c0,0,-62.6,56.5,-162,56.5c0,0,-71.8,0,-149.7,-24.4c0,0,-79.4,-26,-168,-74.9l0,151.3c0,0,90.1,36.6,169.6,55c0,0,79.4,19.8,145.1,19.8c0,0,172.6,0,275,-87.1c0,0,103.9,-87.1,103.9,-230.7c0,0,0,-68.7,-26,-129.8c0,0,-26,-62.7,-93.2,-145.2c0,0,-19.8,-22.9,-119.2,-125.2c0,0,-99.3,-103.9,-282.6,-288.8l527.1,0L818.9,0Z" 
	id="F2_47"
	 />

	<path d="M149,0l0,1113l150,0L299,0Z" 
	id="F2_40"
	 />

	<path d="M508.8,93.2c0,0,110,0,171.1,85.6c0,0,62.6,85.5,62.6,236.8c0,0,0,152.7,-61.1,238.3c0,0,-62.6,85.5,-172.6,85.5c0,0,-108.5,0,-169.6,-85.5c0,0,-62.7,-85.6,-62.7,-238.3c0,0,0,-151.3,61.1,-236.8c0,0,62.7,-85.6,171.2,-85.6ZM137.5,-317.7l0,1151.9l139,0l0,-126.8c0,0,42.8,74.8,108.5,111.5c0,0,65.7,36.7,157.4,36.7c0,0,152.7,0,247.5,-120.7c0,0,96.2,-122.3,96.2,-319.3c0,0,0,-195.6,-94.7,-316.3c0,0,-96.3,-120.6,-249,-120.6c0,0,-91.7,0,-157.4,35.1c0,0,-65.7,36.6,-108.5,111.5l0,-443Z" 
	id="F2_15"
	 />

	<path d="M339.2,436.9l0,281.2L88.6,566.8L44.3,638.6L313.2,785.3L44.3,928.9l44.3,74.9L339.2,852.5l0,281.1l84,0l0,-281.1l250.6,151.3l44.3,-74.9L449.2,785.3L718.1,638.6L673.8,566.8L423.2,718.1l0,-281.2Z" 
	id="F2_48"
	 />

	<path d="M149,0l0,1113l150,0l0,-987l542,0L841,0Z" 
	id="F2_49"
	 />

	<path d="M389,0l0,985L-3,985l0,128l939,0l0,-128l-396,0L540,0Z" 
	id="F2_2"
	 />

	<path d="M1116.8,68.8L160.4,415.6l0,125.2l956.4,346.8l0,-135.9L348.3,476.7l768.5,-272l0,-135.9Z" 
	id="F2_50"
	 />

	<path d="M160.4,68.8l0,135.9l768.5,272l-768.5,275l0,135.9L1116.8,540.8l0,-125.2L160.4,68.8Z" 
	id="F2_51"
	 />

	<path d="M149,0l0,1113l640,0l0,-128l-490,0l0,-327l441,0l0,-127l-441,0L299,0Z" 
	id="F2_52"
	 />

	<path d="M488.9,594.3c0,0,110,0,165,50.4c0,0,55,50.4,55,148.2c0,0,0,97.8,-55,146.7c0,0,-55,48.9,-165,48.9l-189.5,0l0,-394.2ZM149.7,0l0,1113.8l339.2,0c0,0,191,0,284.2,-79.5c0,0,94.7,-81,94.7,-241.4c0,0,0,-105.4,-48.9,-174.1c0,0,-48.9,-70.3,-142.1,-97.8c0,0,48.9,-15.3,94.7,-68.8c0,0,45.9,-55,91.7,-148.2L1017.5,0L855.6,0L711.9,285.7c0,0,-55,111.5,-106.9,148.2c0,0,-51.9,36.7,-140.6,36.7l-165,0L299.4,0Z" 
	id="F2_53"
	 />

	<path d="M601.9,99.3c0,0,163.5,0,258.2,122.2c0,0,96.3,123.8,96.3,333.1c0,0,0,210.8,-94.7,333c0,0,-96.3,123.8,-259.8,123.8c0,0,-165,0,-261.2,-122.2c0,0,-96.3,-123.8,-96.3,-334.6c0,0,0,-209.3,96.3,-331.5c0,0,96.2,-123.8,261.2,-123.8Zm0,-120.6c0,0,-235.2,0,-375.8,155.7c0,0,-140.5,155.9,-140.5,420.2c0,0,0,264.3,140.5,421.7c0,0,140.6,157.3,375.8,157.3c0,0,233.8,0,372.8,-157.3c0,0,140.6,-157.4,140.6,-421.7c0,0,0,-262.8,-139,-418.6c0,0,-140.6,-157.3,-374.4,-157.3Z" 
	id="F2_25"
	 />

	<path d="M149.7,0l0,1113.8l224.6,0L658.5,354.4l285.7,759.4l224.6,0L1168.8,0L1020.6,0l0,977.8L733.3,213.9l-151.2,0L294.9,977.8L294.9,0Z" 
	id="F2_54"
	 />

	<path d="M-77.8,-305.5l0,126.8l47.3,0c0,0,97.7,0,139,56.6c0,0,41.2,56.5,41.2,198.5l0,1037.4l149.7,0l0,-1037.4c0,0,0,-200.1,-76.3,-290.2c0,0,-76.4,-91.7,-244.4,-91.7Z" 
	id="F2_36"
	 />

	<path d="M149.7,0l0,1113.8l201.7,0l495,-932l0,932l145.1,0L991.5,0L789.9,0l-495,930.4L294.9,0Z" 
	id="F2_55"
	 />

	<path d="M117.6,-177.1L178.8,61.1l0,128.3l157.3,0l0,-128.3L213.9,-177.1Zm61.2,777.5l0,189.5l157.3,0l0,-189.5Z" 
	id="F2_56"
	 />

	<path d="M517.9,-21.3c0,0,-213.9,0,-334.6,116c0,0,-120.7,116.1,-120.7,322.4c0,0,0,132.9,45.9,261.2c0,0,47.3,128.4,132.9,235.3c0,0,90.1,111.5,206.2,165c0,0,117.7,55,273.5,55c0,0,94.7,0,180.3,-26c0,0,85.5,-27.5,158.9,-80.9L1029.7,867.8c0,0,-71.8,73.3,-151.2,108.5c0,0,-81,35.1,-174.2,35.1c0,0,-126.8,0,-223,-61.1c0,0,-97.8,-61.1,-166.6,-187.9c0,0,-45.8,-79.5,-68.7,-169.6c0,0,-24.5,-90.2,-24.5,-180.3c0,0,0,-152.8,79.5,-232.2c0,0,79.4,-81,229.1,-81c0,0,103.9,0,198.7,33.6c0,0,96.2,33.6,186.3,99.3L880,55C880,55,791.4,16.8,701.3,-1.4c0,0,-91.7,-19.9,-183.4,-19.9Z" 
	id="F4_2"
	 />

	<path d="M53.5,0L216.9,834.2l136,0l-26,-129.9c0,0,55,73.3,129.9,111.5c0,0,76.4,39.8,162,39.8c0,0,22.9,0,44.3,-3.1c0,0,21.3,-3.1,42.7,-9.2L679.9,707.4c0,0,-19.9,12.2,-47.4,18.3c0,0,-27.5,6.1,-58.1,6.1c0,0,-108.4,0,-190.9,-82.5c0,0,-82.5,-84,-108.5,-224.6L189.4,0Z" 
	id="F4_3"
	 />

	<path d="M403.3,94.7c0,0,137.5,0,227.7,119.2c0,0,91.6,120.7,91.6,305.5c0,0,0,108.5,-48.8,163.5c0,0,-48.9,55,-142.1,55c0,0,-77.9,0,-137.5,-35.1c0,0,-61.1,-36.7,-108.5,-110c0,0,-35.1,-55,-53.5,-125.3c0,0,-19.8,-71.8,-19.8,-148.2c0,0,0,-113,47.3,-168c0,0,47.4,-56.6,143.6,-56.6Zm-16.8,-116c0,0,-146.6,0,-232.2,90.1c0,0,-85.5,90.1,-85.5,247.5c0,0,0,90.1,29,184.8c0,0,30.5,94.7,77.9,158.9c0,0,73.3,99.3,163.5,146.7c0,0,91.6,48.9,206.2,48.9c0,0,143.6,0,230.7,-88.7c0,0,87.1,-90.1,87.1,-232.2c0,0,0,-99.3,-29,-197.1c0,0,-29.1,-99.3,-74.9,-165C759.3,172.6,686,73.3,595.8,26c0,0,-91.6,-47.3,-209.3,-47.3Z" 
	id="F4_4"
	 />

	<path d="M317.8,-21.3c0,0,-67.2,0,-140.6,12.2c0,0,-73.3,12.2,-160.4,39.7l26,140.5c0,0,76.4,-38.2,148.2,-58c0,0,73.3,-19.9,140.5,-19.9c0,0,100.9,0,163.5,42.8c0,0,64.2,42.8,64.2,110c0,0,0,71.8,-166.6,114.6l-13.7,4.5l-47.4,12.3c0,0,-103.9,27.5,-152.7,71.8c0,0,-48.9,45.8,-48.9,116.1c0,0,0,132.9,100.8,210.8c0,0,100.8,79.5,273.5,79.5c0,0,67.2,0,131.4,-10.7c0,0,64.1,-12.3,126.8,-35.2l-26,-129.8c0,0,-53.5,30.5,-113.1,44.3c0,0,-61.1,15.2,-125.2,15.2c0,0,-108.5,0,-171.2,-36.6c0,0,-62.6,-36.7,-62.6,-99.3c0,0,0,-74.9,145.1,-114.6c0,0,10.7,-3.1,16.9,-4.6l44.3,-12.2c0,0,135.9,-38.2,181.8,-79.5c0,0,47.3,-42.7,47.3,-114.5c0,0,0,-133,-105.4,-215.5c0,0,-106.9,-83.9,-276.5,-83.9Z" 
	id="F4_5"
	 />

	<path d="M-250.5,-305.5l26,126.8l45.8,0c0,0,100.9,0,152.8,58.1c0,0,51.9,58.1,79.4,197L253.6,1113.8l152.8,0L203.2,76.4c0,0,-39.7,-200.1,-131.4,-290.2c0,0,-93.1,-91.7,-261.1,-91.7Z" 
	id="F4_7"
	 />

	<path d="M53.5,0L216.9,834.2l136,0L189.4,0ZM246,985.4l33.6,174.2l136,0L381.9,985.4Z" 
	id="F4_8"
	 />

	<path d="M53.5,0L215.4,834.2l136,0L323.9,702.8c0,0,58,73.3,137.5,113c0,0,81,39.8,171.1,39.8c0,0,110,0,169.6,-59.6c0,0,61.1,-61.1,61.1,-168.1c0,0,0,-27.5,-3.1,-58c0,0,-3,-30.6,-9.1,-65.7L753.2,0l-139,0l97.7,498.1c0,0,7.7,35.1,10.7,61.1c0,0,4.6,27.5,4.6,44.3c0,0,0,62.6,-39.7,96.2c0,0,-39.7,35.2,-111.5,35.2c0,0,-110,0,-189.5,-73.4c0,0,-79.4,-73.3,-103.9,-198.6L189.4,0Z" 
	id="F4_9"
	 />

	<path d="M178,0l0,189l158,0L336,0Zm0,600l0,189l158,0l0,-189Z" 
	id="F2_37"
	 />

	<path d="M161,0l0,189l158,0L319,0Z" 
	id="F2_24"
	 />

	<path d="M290.3,0l0,189.4l152.8,0L443.1,0Zm4.6,297.9l0,114.6c0,0,0,76.4,21.4,123.8c0,0,21.3,48.8,88.6,113l67.2,67.2c0,0,41.2,39.8,59.6,74.9c0,0,19.8,35.1,19.8,70.3c0,0,0,67.2,-48.9,108.4c0,0,-48.8,41.3,-128.3,41.3c0,0,-59.6,0,-125.3,-26c0,0,-67.2,-27.5,-140.5,-76.4l0,140.6c0,0,70.3,41.2,142.1,62.6c0,0,71.8,21.4,149.7,21.4c0,0,137.5,0,220,-71.8c0,0,82.5,-73.3,82.5,-192.5c0,0,0,-56.5,-26,-106.9c0,0,-27.5,-52,-94.7,-116.1L516.4,582.1c0,0,-35.1,-35.2,-48.9,-53.5c0,0,-15.3,-19.8,-21.4,-39.7c0,0,-3,-15.3,-4.6,-36.7c0,0,-3,-22.9,-3,-62.6l0,-91.7Z" 
	id="F2_33"
	 />

	<path d="M160,261l0,127l956,0l0,-127Zm0,307l0,125l956,0l0,-125Z" 
	id="F2_57"
	 />

	<path d="M727.2,411L521,964L317.8,411ZM10.7,0L436.9,1113.8l169.6,0L1031.3,0L875.4,0L773.1,285.7l-501.2,0L169.6,0Z" 
	id="F2_58"
	 />

	<path d="M149,0l0,1113l150,0l0,-457l548,0l0,457l150,0L997,0L847,0l0,530l-548,0L299,0Z" 
	id="F2_32"
	 />

	<path d="M253.6,-200c0,0,-68.7,128.3,-102.3,247.4c0,0,-33.7,120.7,-33.7,238.3c0,0,0,221.5,102.4,438.5c0,0,102.4,216.9,310.1,433.9l120.7,0c0,0,-197,-246,-294.8,-467.5c0,0,-97.8,-223.1,-97.8,-429.3c0,0,0,-117.7,29,-232.3c0,0,29.1,-116,85.6,-229Z" 
	id="F4_10"
	 />

	<path d="M412.5,123.8c0,0,253.6,0,392.6,145.1c0,0,139.1,145.1,139.1,409.4c0,0,0,160.5,-90.2,235.3c0,0,-90.1,74.9,-281.1,74.9l-189.4,0L216.9,123.8ZM39.7,0l217,1113.8l323.9,0c0,0,258.2,0,389.5,-110c0,0,133,-110,133,-325.5c0,0,0,-142,-50.5,-273.4c0,0,-50.4,-131.4,-137.5,-221.6c0,0,-88.6,-93.2,-224.5,-137.5C690.6,45.8,553.1,0,366.7,0Z" 
	id="F4_11"
	 />

	<path d="M317.8,-21.3c0,0,-108.5,0,-169.6,59.5c0,0,-61.1,59.6,-61.1,166.5c0,0,0,22.9,3,56.6c0,0,4.6,33.6,10.7,68.7l97.8,504.2l139,0L239.9,336.1c0,0,-7.7,-36.7,-10.7,-62.6c0,0,-4.6,-26,-4.6,-44.3c0,0,0,-62.7,38.2,-97.8c0,0,39.7,-35.1,111.5,-35.1c0,0,110,0,189.5,74.8c0,0,80.9,74.9,105.4,201.7l93.2,461.4l135.9,0L736.4,0l-136,0l27.5,129.9c0,0,-58,-71.8,-137.5,-111.6c0,0,-81,-39.6,-172.6,-39.6Z" 
	id="F4_12"
	 />

	<path d="M359,94.7c0,0,113.1,0,195.6,79.5c0,0,84,79.4,111.5,213.9l4.6,30.5l-136,0c0,0,-169.6,0,-250.5,-44.3c0,0,-81,-45.8,-81,-140.5c0,0,0,-65.7,41.2,-102.4c0,0,41.3,-36.7,114.6,-36.7Zm-53.4,-116c0,0,-107,0,-174.2,64.1c0,0,-68.8,65.7,-68.8,168c0,0,0,145.2,116.2,230.7c0,0,116.1,85.6,322.3,85.6l191,0l7.6,36.7c0,0,0,6.1,0,12.2c0,0,1.6,7.6,1.6,22.9c0,0,0,65.7,-53.5,102.4c0,0,-53.5,36.6,-151.3,36.6c0,0,-67.2,0,-137.5,-16.8c0,0,-71.8,-16.8,-145.1,-51.9L236.8,796c0,0,77.9,30.5,151.3,44.3c0,0,74.8,15.3,145.1,15.3c0,0,146.7,0,223.1,-64.2c0,0,77.9,-64.2,77.9,-187.9c0,0,0,-24.5,-3.1,-56.6c0,0,-4.6,-33.6,-10.7,-70.2L727.2,0L589.7,0l24.5,126.8c0,0,-59.6,-74.9,-136,-111.5c0,0,-77.9,-36.6,-172.6,-36.6Z" 
	id="F4_13"
	 />

	<path d="M357.5,0c0,0,-122.2,0,-181.8,47.4c0,0,-59.6,47.3,-59.6,143.6c0,0,0,18.3,1.5,38.2c0,0,3.1,21.4,7.7,45.8l88.6,453.8l-117.6,0l22.9,105.4l113,0l47.4,238.3l136,0L371.3,834.2l273.4,0L624.9,728.8l-275,0L261.3,275c0,0,-4.6,-26,-6.2,-42.8c0,0,-1.5,-16.8,-1.5,-27.5c0,0,0,-47.3,27.5,-68.7c0,0,29,-21.4,93.2,-21.4l137.5,0L488.9,0Z" 
	id="F4_14"
	 />

	<path d="M77.9,0l38.2,189.4l157.4,0L235.3,0ZM195.6,600.4l36.6,189.5l157.4,0L352.9,600.4Z" 
	id="F4_15"
	 />

	<path d="M4.6,0l26,126.8L533.2,557.6c0,0,100.8,87.1,142.1,152.8c0,0,42.8,65.7,42.8,136c0,0,0,71.8,-50.5,117.6c0,0,-51.9,45.9,-132.9,45.9c0,0,-71.8,0,-157.3,-26c0,0,-87.1,-26,-186.4,-73.3l29,148.2c0,0,91.7,36.6,175.7,55c0,0,84,19.8,155.8,19.8c0,0,146.7,0,235.3,-77.9c0,0,90.1,-77.9,90.1,-203.2c0,0,0,-85.6,-42.7,-161.9c0,0,-42.8,-78,-131.4,-152.8L221.5,125.3l533.2,0L728.8,0Z" 
	id="F4_16"
	 />

	<path d="M314.7,-21.3c0,0,-67.2,0,-137.5,10.7c0,0,-70.3,12.1,-146.6,36.6L58.1,165c0,0,68.7,-33.6,137.5,-50.4c0,0,68.7,-16.8,139,-16.8c0,0,145.1,0,239.8,87.1c0,0,94.8,88.6,94.8,220c0,0,0,96.2,-61.1,149.7c0,0,-62.7,53.5,-174.2,53.5c0,0,-59.6,0,-122.2,-13.8c0,0,-64.2,-13.7,-131.4,-41.2l106.9,560.7l600.4,0L863.2,986.9l-459.9,0l-53.4,-275c0,0,33.6,12.3,68.7,16.9c0,0,35.2,4.5,71.8,4.5c0,0,154.3,0,244.5,-82.5c0,0,90.1,-82.5,90.1,-224.5c0,0,0,-99.4,-45.8,-189.5c0,0,-47.4,-91.7,-131.4,-160.4c0,0,-59.6,-47.4,-145.2,-71.8c0,0,-87,-25.9,-187.9,-25.9Z" 
	id="F4_17"
	 />

	<path d="M450.7,495c0,0,116.1,0,194,88.6c0,0,79.5,88.6,79.5,220c0,0,0,99.3,-48.9,154.3c0,0,-48.9,56.5,-134.5,56.5c0,0,-114.5,0,-192.5,-90.1c0,0,-79.4,-91.7,-79.4,-224.6c0,0,0,-94.7,48.9,-149.7c0,0,50.4,-55,132.9,-55ZM291.8,-21.3c0,0,-56.5,0,-113,10.7c0,0,-58.1,10.6,-113.1,35l29,136c0,0,42.8,-27.5,97.8,-42.8c0,0,55,-15.2,119.2,-15.2c0,0,154.3,0,247.5,97.7c0,0,94.7,97.8,140.5,305.6c0,0,-55,-64.2,-126.8,-96.3c0,0,-73.3,-33.6,-157.3,-33.6c0,0,-134.5,0,-213.9,78c0,0,-81,79.4,-81,212.3c0,0,0,108.5,38.2,201.7c0,0,39.7,93.2,117.6,163.5c0,0,52,50.4,120.7,76.3c0,0,68.8,26,145.2,26c0,0,155.8,0,244.4,-97.8c0,0,90.1,-99.3,90.1,-268.9c0,0,0,-157.3,-41.2,-304c0,0,-41.3,-146.6,-114.6,-253.6c0,0,-77.9,-114.6,-186.4,-172.6c0,0,-110,-58,-242.9,-58Z" 
	id="F4_18"
	 />

	<path d="M-94.6,-200c0,0,197,244.3,293.2,465.8c0,0,97.8,223.1,97.8,429.3c0,0,0,117.7,-27.5,233.8c0,0,-27.5,116.1,-84,229.2l119.1,0c0,0,68.8,-128.4,102.4,-247.5c0,0,33.6,-120.7,33.6,-238.4c0,0,0,-221.5,-103.9,-440c0,0,-103.9,-220,-308.6,-432.2Z" 
	id="F4_19"
	 />


</defs>
</svg>