<?xml version="1.0" encoding="UTF-8" standalone="no"?>
<!DOCTYPE svg PUBLIC "-//W3C//DTD SVG 1.1//EN"
"http://www.w3.org/Graphics/SVG/1.1/DTD/svg11.dtd">
<svg viewBox="0 0 1100 825" version="1.1" xmlns="http://www.w3.org/2000/svg" xmlns:xlink="http://www.w3.org/1999/xlink">
<defs>
<style type="text/css"><![CDATA[
.g3_47{
fill: none;
stroke: #418AB3;
stroke-width: 1;
stroke-linecap: butt;
stroke-linejoin: round;
}
.g2_47{
fill: none;
stroke: #0070C0;
stroke-width: 2;
stroke-linecap: butt;
stroke-linejoin: miter;
}
.g4_47{
fill: none;
stroke: #418AB3;
stroke-width: 2;
stroke-linecap: butt;
stroke-linejoin: miter;
stroke-miterlimit: 7;
}
.g1_47{
fill: #FFFFFF;
}
]]></style>
</defs>
<path fill-rule="evenodd" d="M0,0L1100,0l0,825L0,825L0,0Z" class="g1_47" />
<path fill-rule="evenodd" d="M0,0L1100,0l0,825L0,825L0,0Z" class="g1_47" />
<image x="753" y="777" width="303" height="38" xlink:href="img/1.png" />
<path d="M19,214l623,0" class="g2_47" />
<path d="M550.5,650.5l-341,0l0,-385l680,0l0,385l-339,0Z" class="g3_47" />
<path fill-rule="evenodd" d="M208,668l682,0l0,78l-682,0l0,-78Z" class="g1_47" />
<path d="M208,668l682,0l0,78l-682,0l0,-78Z" class="g4_47" />
</svg>