<?xml version="1.0" encoding="UTF-8" standalone="no"?>
<!DOCTYPE svg PUBLIC "-//W3C//DTD SVG 1.1//EN"
"http://www.w3.org/Graphics/SVG/1.1/DTD/svg11.dtd">
<svg viewBox="0 0 1155 1210" version="1.1" xmlns="http://www.w3.org/2000/svg" xmlns:xlink="http://www.w3.org/1999/xlink">
<defs>
<clipPath id="c0_2"><path d="M0.5,1210.5L0.5,0.5l1155,0l0,1210Z" /></clipPath>
<style type="text/css"><![CDATA[
.g2_2{
fill: none;
stroke: #418AB3;
stroke-width: 2;
stroke-linecap: butt;
stroke-linejoin: miter;
stroke-miterlimit: 7;
}
.g1_2{
fill: #FFFFFF;
}
]]></style>
</defs>
<path fill-rule="evenodd" d="M0,0L1155,0l0,1210L0,1210L0,0Z" class="g1_2" />
<path fill-rule="evenodd" d="M0,0L1155,0l0,1210L0,1210L0,0Z" class="g1_2" />
<image x="790" y="1140" width="319" height="55" xlink:href="img/1.png" />
<g clip-path="url(#c0_2)">
<g fill="#626262" >
<use xlink:href="#f0_2" transform="matrix(38.2,0,0,38.2,86.2,363)" />
<use xlink:href="#f0_3" transform="matrix(38.2,0,0,38.2,150.5,363)" />
<use xlink:href="#f0_4" transform="matrix(38.2,0,0,38.2,192,363)" />
<use xlink:href="#f0_6" transform="matrix(40,0,0,40,250.4,363)" />
<use xlink:href="#f0_7" transform="matrix(40,0,0,40,301.1,363)" />
<use xlink:href="#f0_8" transform="matrix(40,0,0,40,342.2,363)" />
<use xlink:href="#f0_7" transform="matrix(40,0,0,40,371.3,363)" />
<use xlink:href="#f0_9" transform="matrix(40,0,0,40,412.4,363)" />
<use xlink:href="#f0_7" transform="matrix(40,0,0,40,456.2,363)" />
<use xlink:href="#f0_a" transform="matrix(40,0,0,40,497.2,363)" />
<use xlink:href="#f0_b" transform="matrix(40,0,0,40,533.5,363)" />
<use xlink:href="#f0_c" transform="matrix(38.2,0,0,38.2,595.4,363)" />
<use xlink:href="#f0_d" transform="matrix(38.2,0,0,38.2,638.1,363)" />
<use xlink:href="#f0_e" transform="matrix(38.2,0,0,38.2,666.8,363)" />
<use xlink:href="#f0_f" transform="matrix(38.2,0,0,38.2,706.9,363)" />
<use xlink:href="#f0_d" transform="matrix(38.2,0,0,38.2,748.7,363)" />
<use xlink:href="#f0_7" transform="matrix(38.2,0,0,38.2,777.4,363)" />
<use xlink:href="#f0_g" transform="matrix(38.2,0,0,38.2,816.7,363)" />
<use xlink:href="#f0_g" transform="matrix(38.2,0,0,38.2,877.4,363)" />
<use xlink:href="#f0_h" transform="matrix(38.2,0,0,38.2,938,363)" />
<use xlink:href="#f0_i" transform="matrix(38.2,0,0,38.2,958.1,363)" />
<use xlink:href="#f0_f" transform="matrix(38.2,0,0,38.2,999.8,363)" />
<use xlink:href="#f0_j" transform="matrix(38.2,0,0,38.2,1041.5,363)" />
<use xlink:href="#f1_z" transform="matrix(32,0,0,32,501,265.7)" />
<use xlink:href="#f1_b" transform="matrix(32,0,0,32,532.1,265.7)" />
<use xlink:href="#f1_6" transform="matrix(32,0,0,32,562.2,265.7)" />
<use xlink:href="#f1_c" transform="matrix(32,0,0,32,589.2,265.7)" />
<use xlink:href="#f1_d" transform="matrix(32,0,0,32,608.3,265.7)" />
<use xlink:href="#f1_7" transform="matrix(32,0,0,32,621.7,265.7)" />
<use xlink:href="#f1_4" transform="matrix(32,0,0,32,651.8,265.7)" />
<use xlink:href="#f1_2" transform="matrix(30.6,0,0,30.6,697.7,265.7)" />
</g>
</g>
<path fill-rule="evenodd" d="M916.7,33.3l0,-0.3l0,-0.3l0.1,-0.3l0,-0.3L917,31.8l0,-0.3l0.1,-0.3l0,-0.3l0.2,-0.2l0.1,-0.3l0.2,-0.3l0.1,-0.2L918,29.6l0.2,-0.3l0.1,-0.1L918.7,29l0.1,-0.1l0.3,-0.3l0.2,-0.2l0.3,-0.1l0.3,-0.2L920,28l0.3,0l0.3,-0.2l0.3,-0.1l0.4,0l0.3,0l0.3,-0.2l0.3,0l0.3,0l198.4,0l0.3,0l0.3,0l0.3,0.2l0.2,0l0.3,0l0.3,0.1l0.3,0.2l0.3,0l0.3,0.1l0.2,0.2l0.3,0.1l0.3,0.2l0.1,0.3l0.4,0.1l0.1,0.2l0.2,0.1l0.3,0.3l0.1,0.3l0.2,0.2l0.1,0.3l0.2,0.3l0.1,0.2l0,0.3l0.2,0.3l0.1,0.3l0,0.3l0,0.3l0.2,0.3l0,0.3l0,0.3l0.1,23.1l-0.1,0l0,0.1l0,0.3l0,0.3l-0.2,0.3l0,0.3l-0.1,0.4l0,0.3l-0.2,0.3L1126,59l-0.2,0.1l-0.1,0.3l-0.2,0.3l-0.1,0.2l-0.3,0.1l-0.2,0.3l-0.1,0.2l-0.4,0.3l-0.1,0.2l-0.3,0.1l-0.3,0.2l-0.2,0.1l-0.3,0.2l-0.3,0l-0.3,0.1l-0.3,0.2l-0.1,0l-0.4,0l-0.3,0.1l-0.3,0l-0.3,0L922.5,62l-0.3,0l-0.3,0l-0.3,0l-0.3,-0.1l-0.4,0l-0.3,-0.2l-0.3,0L920,61.6l-0.1,-0.2l-0.3,-0.1l-0.3,-0.2L919.1,61l-0.3,-0.2l-0.1,-0.1l-0.4,-0.4l-0.1,-0.1L918,59.9l-0.3,-0.2l-0.1,-0.3l-0.2,-0.3L917.3,59l-0.2,-0.3l0,-0.3L917,58.1l0,-0.4l-0.2,-0.3l0,-0.3l-0.1,-0.3l0,-0.3l0,-0.1l0,-23.1Z" class="g1_2" />
<path d="M916.7,33.3l0,-0.3l0,-0.3l0.1,-0.3l0,-0.3L917,31.8l0,-0.3l0.1,-0.3l0,-0.3l0.2,-0.2l0.1,-0.3l0.2,-0.3l0.1,-0.2L918,29.6l0.2,-0.3l0.1,-0.1L918.7,29l0.1,-0.1l0.3,-0.3l0.2,-0.2l0.3,-0.1l0.3,-0.2L920,28l0.3,0l0.3,-0.2l0.3,-0.1l0.4,0l0.3,0l0.3,-0.2l0.3,0l0.3,0l198.4,0l0.3,0l0.3,0l0.3,0.2l0.2,0l0.3,0l0.3,0.1l0.3,0.2l0.3,0l0.3,0.1l0.2,0.2l0.3,0.1l0.3,0.2l0.1,0.3l0.4,0.1l0.1,0.2l0.2,0.1l0.3,0.3l0.1,0.3l0.2,0.2l0.1,0.3l0.2,0.3l0.1,0.2l0,0.3l0.2,0.3l0.1,0.3l0,0.3l0,0.3l0.2,0.3l0,0.3l0,0.3l0.1,23.1l-0.1,0l0,0.1l0,0.3l0,0.3l-0.2,0.3l0,0.3l-0.1,0.4l0,0.3l-0.2,0.3L1126,59l-0.2,0.1l-0.1,0.3l-0.2,0.3l-0.1,0.2l-0.3,0.1l-0.2,0.3l-0.1,0.2l-0.4,0.3l-0.1,0.2l-0.3,0.1l-0.3,0.2l-0.2,0.1l-0.3,0.2l-0.3,0l-0.3,0.1l-0.3,0.2l-0.1,0l-0.4,0l-0.3,0.1l-0.3,0l-0.3,0L922.5,62l-0.3,0l-0.3,0l-0.3,0l-0.3,-0.1l-0.4,0l-0.3,-0.2l-0.3,0L920,61.6l-0.1,-0.2l-0.3,-0.1l-0.3,-0.2L919.1,61l-0.3,-0.2l-0.1,-0.1l-0.4,-0.4l-0.1,-0.1L918,59.9l-0.3,-0.2l-0.1,-0.3l-0.2,-0.3L917.3,59l-0.2,-0.3l0,-0.3L917,58.1l0,-0.4l-0.2,-0.3l0,-0.3l-0.1,-0.3l0,-0.3l0,-0.1l0,-23.1Z" class="g2_2" />
<g clip-path="url(#c0_2)">
<g fill="#626262" >
<use xlink:href="#f1_16" transform="matrix(13.4,0,0,13.4,932.3,53)" />
<use xlink:href="#f1_i" transform="matrix(13.4,0,0,13.4,948,53)" />
<use xlink:href="#f1_l" transform="matrix(13.4,0,0,13.4,960.8,53)" />
<use xlink:href="#f1_k" transform="matrix(13.4,0,0,13.4,969.2,53)" />
<use xlink:href="#f1_c" transform="matrix(13.4,0,0,13.4,981.9,53)" />
<use xlink:href="#f1_d" transform="matrix(13.4,0,0,13.4,990,53)" />
<use xlink:href="#f1_7" transform="matrix(13.4,0,0,13.4,995.6,53)" />
<use xlink:href="#f1_4" transform="matrix(13.4,0,0,13.4,1008,53)" />
<use xlink:href="#f1_n" transform="matrix(13.4,0,0,13.4,1027.2,53)" />
<use xlink:href="#f1_2" transform="matrix(13.4,0,0,13.4,1040.5,53)" />
<use xlink:href="#f1_14" transform="matrix(13.4,0,0,13.4,1053.5,53)" />
<use xlink:href="#f1_8" transform="matrix(13.4,0,0,13.4,1072.7,53)" />
<use xlink:href="#f1_d" transform="matrix(13.4,0,0,13.4,1092.6,53)" />
<use xlink:href="#f1_4" transform="matrix(13.4,0,0,13.4,1098.2,53)" />
</g>
</g>
<defs>
	<path d="M310.1,0L44.3,1113.8l275,0L511.8,304l191,809.8l278,0L1171.8,304l192.5,809.8l272,0L1373.5,0l-330,0L840.3,846.4L640.1,0Z" 
	id="f0_2"
	transform="scale(0.001,-0.001)" />

	<path d="M126.8,0l0,1159.6l267.4,0l0,-447.7c0,0,61.1,73.4,128.3,108.5c0,0,68.8,35.2,149.7,35.2c0,0,145.2,0,220,-88.7c0,0,74.9,-90.1,74.9,-258.1L967.1,0L699.7,0l0,82.5l0,304c0,0,0,110,-4.6,151.3c0,0,-6.1,41.2,-18.3,61.1c0,0,-15.3,26,-41.2,39.7c0,0,-27.5,15.3,-62.7,15.3c0,0,-82.5,0,-129.8,-64.2c0,0,-48.9,-65.7,-48.9,-178.7l0,-411Z" 
	id="f0_3"
	transform="scale(0.001,-0.001)" />

	<path d="M152.8,-328.4l0,174.2l82.5,0c0,0,68.7,0,99.3,21.4c0,0,30.5,22.9,47.3,77.9l7.7,24.4L18.3,834.2l267.4,0L508.8,267.4L699.7,834.2l267.4,0L615.7,-77.8c0,0,-51.9,-140.6,-122.2,-195.6c0,0,-71.8,-55,-186.4,-55Z" 
	id="f0_4"
	transform="scale(0.001,-0.001)" />

	<path d="M530.1,216.9c0,0,175.7,0,267.4,87.1c0,0,93.2,87.1,93.2,253.6c0,0,0,165,-91.7,250.6c0,0,-93.2,87.1,-268.9,87.1l-103.8,0l0,-678.4ZM139,0l0,1113.8l304.1,0c0,0,253.6,0,377.3,-36.7c0,0,123.8,-36.7,212.4,-122.2c0,0,79.4,-76.4,116.1,-174.2c0,0,38.2,-99.3,38.2,-223.1c0,0,0,-126.8,-36.7,-224.5c0,0,-38.2,-99.3,-117.6,-174.2c0,0,-88.6,-87.1,-213.9,-122.2C818.9,36.7,693.6,0,443.1,0Z" 
	id="f0_6"
	transform="scale(0.001,-0.001)" />

	<path d="M462.9,155.8c0,0,74.9,0,125.3,53.5c0,0,51.9,53.5,51.9,136l0,30.5l-137.5,0c0,0,-84,0,-125.2,-29c0,0,-42.8,-29,-42.8,-84c0,0,0,-50.4,33.6,-77.9c0,0,33.6,-29.1,94.7,-29.1ZM356,-21.3c0,0,-129.9,0,-210.9,74.8c0,0,-80.9,74.8,-80.9,197.1c0,0,0,146.6,100.8,215.4c0,0,102.4,68.7,317.8,68.7l157.3,0l0,19.9c0,0,0,64.2,-48.8,93.2c0,0,-50.5,29,-155.9,29c0,0,-85.5,0,-158.9,-16.8c0,0,-74.8,-16.8,-139,-51.9l0,204.7c0,0,85.6,19.8,172.6,30.5c0,0,87.1,12.3,172.7,12.3c0,0,226.1,0,326.9,-88.7c0,0,100.9,-90.1,100.9,-290.2L910.6,0L640.1,0l0,123.8c0,0,-53.4,-76.4,-120.7,-110c0,0,-67.2,-35.1,-163.4,-35.1Z" 
	id="f0_7"
	transform="scale(0.001,-0.001)" />

	<path d="M443.1,0c0,0,-158.9,0,-224.6,65.7c0,0,-65.7,65.7,-65.7,223.1l0,354.4l-132.9,0l0,191l132.9,0l0,238.3l265.8,0l0,-238.3l276.5,0l0,-191l-276.5,0l0,-354.4c0,0,0,-58.1,22.9,-78c0,0,24.5,-21.4,93.2,-21.4l136,0L670.7,0Z" 
	id="f0_8"
	transform="scale(0.001,-0.001)" />

	<path d="M571.4,171.1c0,0,87.1,0,131.4,62.7c0,0,45.8,62.6,45.8,181.8c0,0,0,120.7,-44.3,183.3c0,0,-45.8,62.6,-132.9,62.6c0,0,-85.6,0,-131.4,-62.6c0,0,-45.8,-64.2,-45.8,-183.3c0,0,0,-117.7,45.8,-180.3c0,0,45.8,-64.2,131.4,-64.2ZM670.7,-21.3c0,0,-87.1,0,-154.3,33.5c0,0,-67.2,35.2,-122.2,108.5L394.2,0L126.8,0l0,1159.6l267.4,0l0,-447.7c0,0,55,73.4,122.2,108.5c0,0,67.2,35.2,154.3,35.2c0,0,155.8,0,253.6,-122.3c0,0,99.3,-123.7,99.3,-317.7c0,0,0,-192.5,-97.8,-314.8c0,0,-99.3,-122.1,-255.1,-122.1Z" 
	id="f0_9"
	transform="scale(0.001,-0.001)" />

	<path d="M444.6,-21.3c0,0,-84,0,-171.1,12.2c0,0,-88.6,12.2,-181.8,39.7l0,201.6c0,0,79.4,-38.2,163.4,-56.5c0,0,84.1,-19.9,169.6,-19.9c0,0,79.5,0,117.7,21.4c0,0,39.7,21.4,39.7,64.2c0,0,0,35.1,-26,51.9c0,0,-27.5,18.4,-110,27.5l-45.8,6.1c0,0,-178.8,23,-250.6,82.5c0,0,-71.8,61.2,-71.8,184.9c0,0,0,132.9,90.2,197.1c0,0,91.6,64.2,279.5,64.2c0,0,74.9,0,155.9,-10.7c0,0,80.9,-12.3,177.2,-36.7l0,-203.2c0,0,-85.6,36.7,-165,53.5c0,0,-81,18.3,-151.3,18.3c0,0,-76.3,0,-113,-18.3c0,0,-36.7,-19.9,-36.7,-58.1c0,0,0,-32.1,27.5,-48.9c0,0,27.5,-18.3,100.9,-25.9l45.8,-7.7c0,0,206.2,-26,276.5,-85.5c0,0,70.3,-59.6,70.3,-186.4c0,0,0,-134.5,-97.8,-200.2c0,0,-99.3,-67.1,-293.3,-67.1Z" 
	id="f0_a"
	transform="scale(0.001,-0.001)" />

	<path d="M687.5,508.8c0,0,0,74.8,-44.3,120.6c0,0,-44.3,47.4,-116.1,47.4c0,0,-77.9,0,-126.8,-42.8c0,0,-48.9,-44.3,-59.6,-125.2ZM542.4,-21.3c0,0,-226.1,0,-351.4,114.5c0,0,-126.8,114.6,-126.8,322.4c0,0,0,204.7,123.7,322.3c0,0,123.8,117.7,340.7,117.7c0,0,197.1,0,314.7,-119.2c0,0,117.7,-119.2,117.7,-317.8l0,-74.8l-623.4,0c0,0,9.2,-94.8,67.3,-140.6c0,0,58,-47.4,163.4,-47.4c0,0,84.1,0,171.1,24.5c0,0,88.7,24.4,183.4,74.8l0,-204.7c0,0,-96.3,-36.6,-191,-53.4c0,0,-94.7,-18.3,-189.4,-18.3Z" 
	id="f0_b"
	transform="scale(0.001,-0.001)" />

	<path d="M585.1,594.3c0,0,84.1,0,129.9,39.7c0,0,45.8,41.3,45.8,116.1c0,0,0,74.9,-45.8,114.6c0,0,-45.8,39.7,-129.9,39.7l-158.8,0l0,-310.1ZM139,0l0,1113.8l476.7,0c0,0,212.4,0,325.4,-94.8c0,0,114.6,-94.7,114.6,-268.9c0,0,0,-175.7,-113.1,-270.4c0,0,-114.5,-94.7,-326.9,-94.7l-189.4,0l0,-385Z" 
	id="f0_c"
	transform="scale(0.001,-0.001)" />

	<path d="M126.8,0l0,834.2l267.4,0l0,-136c0,0,51.9,81,117.6,119.2c0,0,67.2,38.2,160.4,38.2c0,0,13.8,0,29.1,-1.6c0,0,16.8,-1.5,45.8,-4.6l1.5,-242.9c0,0,-35.1,16.8,-70.3,24.5c0,0,-35.1,7.6,-70.2,7.6c0,0,-102.4,0,-157.4,-65.7c0,0,-56.5,-65.7,-56.5,-189.4L394.2,0Z" 
	id="f0_d"
	transform="scale(0.001,-0.001)" />

	<path d="M525.6,168.1c0,0,87,0,132.9,64.1c0,0,45.8,64.2,45.8,183.4c0,0,0,120.7,-45.8,184.8c0,0,-45.9,64.2,-132.9,64.2c0,0,-88.7,0,-134.5,-64.2c0,0,-47.3,-64.1,-47.3,-184.8c0,0,0,-119.2,45.8,-183.4c0,0,47.3,-64.1,136,-64.1Zm0,-189.4c0,0,-217,0,-339.2,116c0,0,-122.2,116.1,-122.2,320.9c0,0,0,206.2,122.2,322.3c0,0,122.2,117.7,339.2,117.7c0,0,215.4,0,336.1,-116.2c0,0,122.2,-117.6,122.2,-323.8c0,0,0,-204.8,-120.7,-320.9c0,0,-122.2,-116,-337.6,-116Z" 
	id="f0_e"
	transform="scale(0.001,-0.001)" />

	<path d="M519.4,192.5c0,0,84.1,0,129.9,61.1c0,0,47.4,62.7,47.4,172.7c0,0,0,113,-45.9,174.1c0,0,-47.3,61.1,-131.4,61.1c0,0,-82.5,0,-128.3,-61.1c0,0,-45.8,-61.1,-45.8,-174.1c0,0,0,-114.6,44.3,-174.2c0,0,44.3,-59.6,129.8,-59.6ZM469,-328.4c0,0,-79.4,0,-151.2,10.7c0,0,-73.4,12.2,-148.2,36.7l0,209.3c0,0,70.3,-41.3,137.5,-61.1c0,0,67.2,-19.9,136,-19.9c0,0,129.8,0,190.9,58.1c0,0,62.7,58,62.7,178.6l0,56.6c0,0,-56.6,-73.4,-122.3,-107C574.4,33.6,508.8,0,420.1,0c0,0,-152.7,0,-252,119.2c0,0,-100.9,120.7,-100.9,307.1c0,0,0,187.9,99.3,307c0,0,100.9,120.7,253.6,120.7c0,0,88.7,0,154.3,-33.6c0,0,65.7,-35.1,122.3,-110l0,123.8l267.3,0L964,84c0,0,0,-200,-126.8,-305.4c0,0,-126.8,-107,-368.2,-107Z" 
	id="f0_f"
	transform="scale(0.001,-0.001)" />

	<path d="M126.8,0l0,834.2l267.4,0l0,-122.3c0,0,50.4,71.9,113,107c0,0,64.2,36.7,140.6,36.7c0,0,87.1,0,152.8,-41.3c0,0,67.2,-42.8,100.8,-117.6c0,0,51.9,76.4,120.7,117.6c0,0,70.3,41.3,154.3,41.3c0,0,143.6,0,218.5,-88.7c0,0,74.8,-90.1,74.8,-258.1L1469.7,0L1202.4,0l0,435.4c0,0,0,9.2,0,19.9c0,0,1.5,10.7,1.5,29c0,0,0,88.6,-26,128.3c0,0,-27.5,41.3,-85.5,41.3c0,0,-74.9,0,-116.1,-62.6c0,0,-42.8,-62.7,-44.4,-181.9L931.9,0L664.6,0l0,435.4c0,0,0,137.5,-24.5,177.2c0,0,-24.4,41.3,-85.5,41.3c0,0,-76.4,0,-117.7,-62.6c0,0,-42.7,-64.2,-42.7,-180.3l0,-411Z" 
	id="f0_g"
	transform="scale(0.001,-0.001)" />

	<path d="M126,0l0,834l268,0L394,0Zm0,942l0,217l268,0l0,-217Z" 
	id="f0_h"
	transform="scale(0.001,-0.001)" />

	<path d="M126.8,0l0,834.2l267.4,0l0,-122.3c0,0,61.1,73.4,128.3,108.5c0,0,68.8,35.2,149.7,35.2c0,0,145.2,0,220,-88.7c0,0,74.9,-90.1,74.9,-258.1L967.1,0L699.7,0l0,82.5l0,305.6c0,0,0,108.4,-4.6,149.7c0,0,-6.1,41.2,-18.3,61.1c0,0,-15.3,26,-41.2,39.7c0,0,-27.5,15.3,-62.7,15.3c0,0,-82.5,0,-129.8,-64.2c0,0,-48.9,-65.7,-48.9,-178.7l0,-411Z" 
	id="f0_i"
	transform="scale(0.001,-0.001)" />

	<path d="M258.2,0l0,264.3l270.4,0L528.6,0Zm0,375.8l0,36.7c0,0,0,61.1,24.4,108.5c0,0,26,47.3,103.9,119.1l48.9,44.3c0,0,41.3,38.2,61.1,71.9c0,0,19.9,35.1,19.9,70.2c0,0,0,52,-35.1,81c0,0,-36.7,29,-100.9,29c0,0,-59.6,0,-129.8,-24.4c0,0,-70.3,-24.5,-146.7,-74.9l0,235.3c0,0,90.1,30.6,165,45.8c0,0,74.9,15.3,143.6,15.3c0,0,183.3,0,278.1,-73.3c0,0,96.2,-74.9,96.2,-218.5c0,0,0,-73.3,-29,-129.9c0,0,-29,-58,-99.3,-125.2L609.6,543.9c0,0,-50.4,-45.8,-65.7,-73.3c0,0,-15.3,-27.5,-15.3,-61.2l0,-33.6Z" 
	id="f0_j"
	transform="scale(0.001,-0.001)" />

	<path d="M456.8,-21.3c0,0,-77.9,0,-166.5,16.8c0,0,-90.2,18.3,-186.4,53.4l0,154.3c0,0,91.7,-50.4,180.3,-76.4c0,0,88.6,-27.5,172.6,-27.5c0,0,129.9,0,200.1,50.4c0,0,70.3,52,70.3,145.2c0,0,0,82.5,-50.4,128.3c0,0,-50.4,47.4,-166.5,70.3l-91.7,16.8c0,0,-168,33.6,-242.9,105.4c0,0,-76.4,71.8,-76.4,200.1c0,0,0,146.7,103.9,232.3c0,0,105.4,85.5,287.2,85.5c0,0,79.5,0,160.4,-13.7c0,0,81,-15.3,166.6,-42.8l0,-148.2c0,0,-85.6,41.2,-162,61.1c0,0,-76.4,21.4,-146.6,21.4c0,0,-123.8,0,-189.5,-47.4c0,0,-67.2,-48.9,-67.2,-137.5c0,0,0,-73.3,44.3,-110c0,0,44.3,-38.2,168,-61.1l90.2,-19.8c0,0,169.6,-32.1,249,-111.6c0,0,81,-80.9,81,-216.9c0,0,0,-162,-108.5,-244.5c0,0,-108.5,-83.9,-319.3,-83.9Z" 
	id="f1_z"
	transform="scale(0.001,-0.001)" />

	<path d="M230.7,490.4l490.4,1.5c0,0,-1.5,111.6,-62.6,178.8c0,0,-62.7,67.2,-163.5,67.2c0,0,-114.6,0,-183.3,-64.1c0,0,-70.3,-65.7,-81,-183.4ZM516.4,-21.3c0,0,-198.6,0,-314.7,116C201.7,94.7,84,210.8,84,409.4c0,0,0,204.8,110,325.5c0,0,111.6,120.7,299.5,120.7c0,0,168,0,265.8,-108.5c0,0,99.3,-110,99.3,-296.4l0,-67.2l-632.5,0c0,0,9.2,-140.6,85.6,-213.9c0,0,76.4,-74.9,213.9,-74.9c0,0,77.9,0,152.7,18.4c0,0,74.9,19.8,148.2,58l0,-129.8c0,0,-74.8,-30.6,-151.2,-45.8c0,0,-77.9,-16.8,-158.9,-16.8Z" 
	id="f1_b"
	transform="scale(0.001,-0.001)" />

	<path d="M495,-21.3c0,0,-189.4,0,-299.4,117.6C195.6,96.3,84,215.4,84,415.6c0,0,0,204.7,111.6,322.3c0,0,113,117.7,308.6,117.7c0,0,62.6,0,122.2,-13.8c0,0,61.1,-13.7,117.6,-39.7l0,-128.3c0,0,-58,32,-116.1,47.3c0,0,-58,16.8,-119.1,16.8c0,0,-133,0,-206.3,-84c0,0,-74.9,-84,-74.9,-238.3c0,0,0,-152.8,73.4,-236.8c0,0,74.8,-84.1,207.8,-84.1c0,0,61.1,0,119.1,15.3c0,0,58.1,16.8,116.1,48.9L744,30.6c0,0,-56.5,-26,-117.6,-38.1c0,0,-62.6,-13.8,-131.4,-13.8Z" 
	id="f1_6"
	transform="scale(0.001,-0.001)" />

	<path d="M420.1,0c0,0,-158.8,0,-218.4,58.1c0,0,-61.1,59.5,-61.1,216.9l0,453.8l-100.9,0l0,105.4l100.9,0l0,238.3l139,0l0,-238.3l282.6,0l0,-105.4l-282.6,0l0,-453.8c0,0,0,-102.4,27.5,-131.4c0,0,27.5,-29,113,-29l142.1,0L562.2,0Z" 
	id="f1_c"
	transform="scale(0.001,-0.001)" />

	<path d="M143,0l0,834l138,0L281,0Zm0,985l0,174l138,0l0,-174Z" 
	id="f1_d"
	transform="scale(0.001,-0.001)" />

	<path d="M467.5,94.7c0,0,108.5,0,172.6,85.6c0,0,64.2,87.1,64.2,235.3c0,0,0,149.7,-64.2,235.2c0,0,-64.1,87.1,-172.6,87.1c0,0,-111.5,0,-175.7,-85.5c0,0,-64.2,-85.6,-64.2,-236.8c0,0,0,-149.8,64.2,-235.3c0,0,64.2,-85.6,175.7,-85.6Zm0,-116c0,0,-180.3,0,-281.1,116C186.4,94.7,84,210.8,84,415.6c0,0,0,206.2,100.9,322.3c0,0,102.3,117.7,282.6,117.7c0,0,178.8,0,281.1,-116.2c0,0,102.4,-117.6,102.4,-323.8c0,0,0,-204.8,-102.4,-320.9c0,0,-102.3,-116,-281.1,-116Z" 
	id="f1_7"
	transform="scale(0.001,-0.001)" />

	<path d="M137.5,0l0,834.2l139,0l0,-129.9c0,0,48.9,76.4,114.6,113.1c0,0,67.2,38.2,154.3,38.2c0,0,145.2,0,218.5,-88.7c0,0,73.3,-90.1,73.3,-262.7L837.2,0L699.7,0l0,499.6c0,0,0,117.6,-45.8,175.7c0,0,-45.8,59.6,-139,59.6c0,0,-110,0,-174.2,-70.3c0,0,-64.2,-70.3,-64.2,-192.5L276.5,0Z" 
	id="f1_4"
	transform="scale(0.001,-0.001)" />

	<path d="M189.4,0l0,126.8l246,0l0,849.5L166.5,922.8l0,136l267.4,55l149.7,0l0,-987l246,0L829.6,0Z" 
	id="f1_2"
	transform="scale(0.001,-0.001)" />

	<path d="M481.3,123.8c0,0,230.6,0,337.6,103.8c0,0,106.9,103.9,106.9,330c0,0,0,223.1,-106.9,327c0,0,-107,103.9,-337.6,103.9l-181.9,0l0,-864.7ZM149.7,0l0,1113.8l308.6,0c0,0,323.9,0,475.2,-134.5c0,0,151.2,-136,151.2,-421.7c0,0,0,-288.7,-151.2,-423.2C933.5,134.4,780.7,0,458.3,0Z" 
	id="f1_16"
	transform="scale(0.001,-0.001)" />

	<path d="M421.7,-21.3c0,0,-143.6,0,-218.5,88.5L128.3,328.5l0,505.7l137.5,0l0,-499.6c0,0,0,-119.2,45.9,-178.8c0,0,47.3,-59.5,139,-59.5c0,0,111.5,0,175.7,70.2c0,0,65.7,71.8,65.7,194.1l0,473.6l136,0L828.1,0l-136,0l0,126.8c0,0,-50.4,-74.9,-116.1,-111.5c0,0,-67.2,-36.6,-154.3,-36.6Z" 
	id="f1_i"
	transform="scale(0.001,-0.001)" />

	<path d="M137.5,0l0,834.2l139,0l0,-129.9c0,0,42.8,76.4,111.6,113.1c0,0,70.2,38.2,169.5,38.2c0,0,13.8,0,30.6,-1.6c0,0,16.8,-3,38.2,-6.1l1.5,-142.1c0,0,-24.4,13.8,-50.4,19.9c0,0,-27.5,6.1,-61.1,6.1c0,0,-116.1,0,-177.2,-74.9c0,0,-62.7,-76.3,-62.7,-216.9l0,-440Z" 
	id="f1_l"
	transform="scale(0.001,-0.001)" />

	<path d="M407.9,93.2c0,0,113.1,0,181.8,79.4c0,0,70.3,81,70.3,215.5l0,30.5l-137.5,0c0,0,-166.5,0,-230.7,-36.7c0,0,-64.2,-38.1,-64.2,-129.8c0,0,0,-73.3,47.4,-116.1c0,0,48.9,-42.8,132.9,-42.8ZM371.3,-21.3c0,0,-128.4,0,-203.2,71.7c0,0,-76.4,71.8,-76.4,192.5c0,0,0,140.6,93.2,212.4c0,0,94.7,71.8,282.6,71.8l192.5,0l0,13.7c0,0,0,94.8,-62.6,145.2c0,0,-62.7,51.9,-175.7,51.9c0,0,-71.8,0,-139.1,-16.8c0,0,-67.2,-16.8,-129.8,-51.9l0,126.8c0,0,74.8,30.5,145.1,44.3c0,0,71.8,15.3,139,15.3c0,0,180.3,0,268.9,-93.2c0,0,90.2,-94.8,90.2,-285.7L796,0L660,0l0,126.8c0,0,-47.4,-76.4,-117.6,-111.5c0,0,-70.3,-36.6,-171.1,-36.6Z" 
	id="f1_k"
	transform="scale(0.001,-0.001)" />

	<path d="M178,0l0,189l158,0L336,0Zm0,600l0,189l158,0l0,-189Z" 
	id="f1_n"
	transform="scale(0.001,-0.001)" />

	<path d="M411,-21.3c0,0,-70.3,0,-143.6,10.7c0,0,-73.4,12.1,-149.8,36.6l0,151.2c0,0,67.3,-36.6,137.5,-55c0,0,71.8,-18.3,152.8,-18.3c0,0,128.4,0,203.2,67.2c0,0,76.4,68.8,76.4,184.9c0,0,0,117.6,-74.9,184.8c0,0,-76.3,67.3,-204.7,67.3c0,0,-61.1,0,-120.7,-12.3c0,0,-61.1,-13.7,-123.7,-42.7l0,560.7l592.8,0l0,-128.4l-453.8,0l0,-271.9c0,0,32.1,10.7,64.2,15.3c0,0,33.6,6.1,67.2,6.1c0,0,186.4,0,294.9,-100.9c0,0,108.4,-102.3,108.4,-278c0,0,0,-178.8,-111.5,-278.1c0,0,-111.5,-99.2,-314.7,-99.2Z" 
	id="f1_14"
	transform="scale(0.001,-0.001)" />

	<path d="M137.5,0l0,834.2l139,0l0,-129.9c0,0,45.9,77.9,111.6,114.6c0,0,65.7,36.7,155.8,36.7c0,0,91.7,0,154.3,-45.9c0,0,64.2,-47.3,96.2,-135.9c0,0,50.5,93.1,122.3,137.5c0,0,71.8,44.3,168,44.3c0,0,131.4,0,201.7,-91.7c0,0,71.8,-91.7,71.8,-259.7L1358.2,0l-139,0l0,499.6c0,0,0,119.2,-41.3,177.2c0,0,-42.8,58.1,-129.8,58.1c0,0,-107,0,-168.1,-70.3c0,0,-62.6,-70.3,-62.6,-192.5L817.4,0L678.3,0l0,499.6c0,0,0,120.7,-41.2,177.2c0,0,-42.8,58.1,-131.4,58.1c0,0,-105.4,0,-166.5,-70.3c0,0,-62.7,-71.8,-62.7,-192.5L276.5,0Z" 
	id="f1_8"
	transform="scale(0.001,-0.001)" />


</defs>
</svg>