<?xml version="1.0" encoding="UTF-8" standalone="no"?>
<!DOCTYPE svg PUBLIC "-//W3C//DTD SVG 1.1//EN"
"http://www.w3.org/Graphics/SVG/1.1/DTD/svg11.dtd">
<svg viewBox="0 0 1100 825" version="1.1" xmlns="http://www.w3.org/2000/svg" xmlns:xlink="http://www.w3.org/1999/xlink">
<defs>
<style type="text/css"><![CDATA[
.g2_3{
fill: none;
stroke: #000000;
stroke-width: 2;
stroke-linecap: butt;
stroke-linejoin: miter;
stroke-miterlimit: 7;
}
.g3_3{
fill: none;
stroke: #0070C0;
stroke-width: 2;
stroke-linecap: butt;
stroke-linejoin: miter;
}
.g1_3{
fill: #FFFFFF;
}
]]></style>
</defs>
<path fill-rule="evenodd" d="M0,0L1100,0l0,825L0,825L0,0Z" class="g1_3" />
<path fill-rule="evenodd" d="M0,0L1100,0l0,825L0,825L0,0Z" class="g1_3" />
<image x="753" y="777" width="303" height="38" xlink:href="img/1.png" />
<path fill-rule="evenodd" d="M233.8,29.5l0,-0.6l0.1,-0.6l0,-0.6L234.1,27l0.1,-0.7l0.2,-0.6l0.3,-0.6l0.1,-0.7L235.1,24l0.3,-0.6l0.3,-0.6L236,22.3l0.5,-0.5L237,21.2l0.4,-0.4l0.5,-0.5L238.3,20l0.5,-0.4l0.6,-0.4L240,18.8l0.5,-0.3l0.6,-0.2L241.7,18l0.6,-0.1l0.6,-0.3l0.6,-0.2l0.6,0l0.6,-0.1l0.8,0l0.6,0l607.8,0l0.6,0l0.7,0l0.7,0.1l0.6,0l0.6,0.2l0.6,0.3l0.6,0.1l0.6,0.3l0.6,0.2l0.5,0.4l0.6,0.3l0.5,0.4l0.6,0.4l0.4,0.5l0.5,0.3l0.4,0.4l0.5,0.6l0.3,0.5l0.5,0.5l0.3,0.6l0.3,0.6l0.1,0.4l0.3,0.7l0.3,0.6l0.2,0.6l0.1,0.7l0.2,0.7l0,0.6l0.2,0.6l0,0.6l0,49.5l0,0.6l-0.2,0.6l0,0.6l-0.2,0.6l-0.1,0.8l-0.2,0.6l-0.3,0.6L865.2,84l-0.3,0.5l-0.3,0.6l-0.3,0.6l-0.5,0.5l-0.3,0.4L863,87.2l-0.4,0.5l-0.5,0.5l-0.4,0.3l-0.6,0.4l-0.5,0.3L860,89.5l-0.5,0.3l-0.6,0.3l-0.6,0.3l-0.6,0.2l-0.6,0.1l-0.6,0.4l-0.6,0l-0.7,0.1l-0.7,0l-0.6,0L246.1,91.4l-0.6,0l-0.8,-0.2l-0.6,-0.1l-0.6,0l-0.6,-0.2l-0.6,-0.2l-0.6,-0.3l-0.6,-0.3L240.5,90L240,89.7l-0.6,-0.3l-0.6,-0.5l-0.5,-0.4l-0.4,-0.3l-0.5,-0.5L237,87.2l-0.5,-0.6L236,86.2l-0.3,-0.5l-0.3,-0.6l-0.3,-0.6L234.8,84l-0.1,-0.6l-0.3,-0.6l-0.2,-0.6l-0.1,-0.8L233.9,81l0,-0.8l-0.1,-0.6l0,-0.6l0,-49.5Z" class="g1_3" />
<path d="M233.8,29.5l0,-0.6l0.1,-0.6l0,-0.6L234.1,27l0.1,-0.7l0.2,-0.6l0.3,-0.6l0.1,-0.7L235.1,24l0.3,-0.6l0.3,-0.6L236,22.3l0.5,-0.5L237,21.2l0.4,-0.4l0.5,-0.5L238.3,20l0.5,-0.4l0.6,-0.4L240,18.8l0.5,-0.3l0.6,-0.2L241.7,18l0.6,-0.1l0.6,-0.3l0.6,-0.2l0.6,0l0.6,-0.1l0.8,0l0.6,0l607.8,0l0.6,0l0.7,0l0.7,0.1l0.6,0l0.6,0.2l0.6,0.3l0.6,0.1l0.6,0.3l0.6,0.2l0.5,0.4l0.6,0.3l0.5,0.4l0.6,0.4l0.4,0.5l0.5,0.3l0.4,0.4l0.5,0.6l0.3,0.5l0.5,0.5l0.3,0.6l0.3,0.6l0.1,0.4l0.3,0.7l0.3,0.6l0.2,0.6l0.1,0.7l0.2,0.7l0,0.6l0.2,0.6l0,0.6l0,49.5l0,0.6l-0.2,0.6l0,0.6l-0.2,0.6l-0.1,0.8l-0.2,0.6l-0.3,0.6L865.2,84l-0.3,0.5l-0.3,0.6l-0.3,0.6l-0.5,0.5l-0.3,0.4L863,87.2l-0.4,0.5l-0.5,0.5l-0.4,0.3l-0.6,0.4l-0.5,0.3L860,89.5l-0.5,0.3l-0.6,0.3l-0.6,0.3l-0.6,0.2l-0.6,0.1l-0.6,0.4l-0.6,0l-0.7,0.1l-0.7,0l-0.6,0L246.1,91.4l-0.6,0l-0.8,-0.2l-0.6,-0.1l-0.6,0l-0.6,-0.2l-0.6,-0.2l-0.6,-0.3l-0.6,-0.3L240.5,90L240,89.7l-0.6,-0.3l-0.6,-0.5l-0.5,-0.4l-0.4,-0.3l-0.5,-0.5L237,87.2l-0.5,-0.6L236,86.2l-0.3,-0.5l-0.3,-0.6l-0.3,-0.6L234.8,84l-0.1,-0.6l-0.3,-0.6l-0.2,-0.6l-0.1,-0.8L233.9,81l0,-0.8l-0.1,-0.6l0,-0.6l0,-49.5Z" class="g2_3" />
<path d="M278,76l415,0" class="g3_3" />
</svg>