<?xml version="1.0" encoding="UTF-8" standalone="no"?>
<!DOCTYPE svg PUBLIC "-//W3C//DTD SVG 1.1//EN"
"http://www.w3.org/Graphics/SVG/1.1/DTD/svg11.dtd">
<svg viewBox="0 0 1100 825" version="1.1" xmlns="http://www.w3.org/2000/svg" xmlns:xlink="http://www.w3.org/1999/xlink">
<defs>
<style type="text/css"><![CDATA[
.g2_37{
fill: none;
stroke: #418AB3;
stroke-width: 1;
stroke-linecap: butt;
stroke-linejoin: round;
}
.g3_37{
fill: none;
stroke: #418AB3;
stroke-width: 2;
stroke-linecap: butt;
stroke-linejoin: miter;
stroke-miterlimit: 7;
}
.g1_37{
fill: #FFFFFF;
}
]]></style>
</defs>
<path fill-rule="evenodd" d="M0,0L1100,0l0,825L0,825L0,0Z" class="g1_37" />
<path fill-rule="evenodd" d="M0,0L1100,0l0,825L0,825L0,0Z" class="g1_37" />
<image x="753" y="777" width="303" height="38" xlink:href="img/1.png" />
<path d="M796.5,421.5l-258,0l0,-312l516,0l0,312l-258,0Z" class="g2_37" />
<path fill-rule="evenodd" d="M913,12.8l0,-0.3l0,-0.1l0.2,-0.3l0,-0.3l0,-0.3l0.1,-0.3l0.2,-0.4l0,-0.1l0.1,-0.3l0.2,-0.3l0.1,-0.2l0.2,-0.3l0.1,-0.1l0.2,-0.3L914.5,9l0.3,-0.1L915,8.6l0.3,-0.2l0.1,-0.1l0.4,-0.2l0.3,-0.2l0.3,-0.1l0.1,0l0.3,-0.2l0.3,-0.1l0.3,0l0.3,0L918,7.3l0.2,0l0.3,0l167.8,0l0.3,0l0.1,0l0.3,0.2l0.3,0l0.3,0.1l0.3,0l0.3,0.2l0.2,0l0.3,0.1l0.3,0.2l0.2,0.2l0.3,0.1l0.1,0.2l0.3,0.3l0.2,0.1l0.1,0.2l0.3,0.3l0.2,0.1l0.1,0.3l0.2,0.2l0.1,0.3l0,0.3l0.2,0.1l0.1,0.4l0,0.3l0.2,0.3l0,0.3l0,0.3l0.1,0.1l0,0.3l0,22.3l0,0.3l0,0.4l-0.1,0.3l0,0.1l-0.2,0.3l0,0.3l-0.1,0.3l0,0.3l-0.2,0.2l-0.1,0.3l-0.2,0.1l-0.1,0.3l-0.2,0.4l-0.1,0.1l-0.3,0.2l-0.2,0.3l-0.3,0.1l-0.1,0.2l-0.3,0.1l-0.2,0.2l-0.3,0.1l-0.3,0.2l-0.2,0.1l-0.3,0l-0.3,0.2l-0.3,0l-0.3,0l-0.3,0.1l-0.1,0l-0.3,0l-167.8,0l-0.3,0l-0.2,0l-0.3,0l-0.3,-0.1l-0.3,0l-0.3,-0.2l-0.3,0l-0.1,-0.1L916.1,40l-0.3,-0.1l-0.4,-0.2l-0.1,-0.1L915,39.4l-0.2,-0.1l-0.3,-0.2l-0.1,-0.3l-0.2,-0.1l-0.1,-0.4l-0.2,-0.1l-0.1,-0.3l-0.2,-0.3l-0.1,-0.2l0,-0.3l-0.2,-0.3l-0.1,-0.3l0,-0.1l0,-0.3L913,35.8l0,-0.4l0,-0.3l0,-22.3Z" class="g1_37" />
<path d="M913,12.8l0,-0.3l0,-0.1l0.2,-0.3l0,-0.3l0,-0.3l0.1,-0.3l0.2,-0.4l0,-0.1l0.1,-0.3l0.2,-0.3l0.1,-0.2l0.2,-0.3l0.1,-0.1l0.2,-0.3L914.5,9l0.3,-0.1L915,8.6l0.3,-0.2l0.1,-0.1l0.4,-0.2l0.3,-0.2l0.3,-0.1l0.1,0l0.3,-0.2l0.3,-0.1l0.3,0l0.3,0L918,7.3l0.2,0l0.3,0l167.8,0l0.3,0l0.1,0l0.3,0.2l0.3,0l0.3,0.1l0.3,0l0.3,0.2l0.2,0l0.3,0.1l0.3,0.2l0.2,0.2l0.3,0.1l0.1,0.2l0.3,0.3l0.2,0.1l0.1,0.2l0.3,0.3l0.2,0.1l0.1,0.3l0.2,0.2l0.1,0.3l0,0.3l0.2,0.1l0.1,0.4l0,0.3l0.2,0.3l0,0.3l0,0.3l0.1,0.1l0,0.3l0,22.3l0,0.3l0,0.4l-0.1,0.3l0,0.1l-0.2,0.3l0,0.3l-0.1,0.3l0,0.3l-0.2,0.2l-0.1,0.3l-0.2,0.1l-0.1,0.3l-0.2,0.4l-0.1,0.1l-0.3,0.2l-0.2,0.3l-0.3,0.1l-0.1,0.2l-0.3,0.1l-0.2,0.2l-0.3,0.1l-0.3,0.2l-0.2,0.1l-0.3,0l-0.3,0.2l-0.3,0l-0.3,0l-0.3,0.1l-0.1,0l-0.3,0l-167.8,0l-0.3,0l-0.2,0l-0.3,0l-0.3,-0.1l-0.3,0l-0.3,-0.2l-0.3,0l-0.1,-0.1L916.1,40l-0.3,-0.1l-0.4,-0.2l-0.1,-0.1L915,39.4l-0.2,-0.1l-0.3,-0.2l-0.1,-0.3l-0.2,-0.1l-0.1,-0.4l-0.2,-0.1l-0.1,-0.3l-0.2,-0.3l-0.1,-0.2l0,-0.3l-0.2,-0.3l-0.1,-0.3l0,-0.1l0,-0.3L913,35.8l0,-0.4l0,-0.3l0,-22.3Z" class="g3_37" />
</svg>