<?xml version="1.0" encoding="UTF-8" standalone="no"?>
<!DOCTYPE svg PUBLIC "-//W3C//DTD SVG 1.1//EN"
"http://www.w3.org/Graphics/SVG/1.1/DTD/svg11.dtd">
<svg viewBox="0 0 1100 825" version="1.1" xmlns="http://www.w3.org/2000/svg" xmlns:xlink="http://www.w3.org/1999/xlink">
<defs>
<style type="text/css"><![CDATA[
.g4_22{
fill: none;
stroke: #000000;
stroke-width: 1;
stroke-linecap: butt;
stroke-linejoin: miter;
stroke-miterlimit: 7;
}
.g2_22{
fill: none;
stroke: #418AB3;
stroke-width: 2;
stroke-linecap: butt;
stroke-linejoin: miter;
stroke-miterlimit: 7;
}
.g3_22{
fill: none;
stroke: #000000;
stroke-width: 2;
stroke-linecap: butt;
stroke-linejoin: miter;
stroke-miterlimit: 7;
}
.g1_22{
fill: #FFFFFF;
}
]]></style>
</defs>
<path fill-rule="evenodd" d="M0,0L1100,0l0,825L0,825L0,0Z" class="g1_22" />
<path fill-rule="evenodd" d="M0,0L1100,0l0,825L0,825L0,0Z" class="g1_22" />
<image x="753" y="777" width="303" height="38" xlink:href="img/1.png" />
<path fill-rule="evenodd" d="M907.8,15.1l0,-0.3L908,14.5l0,-0.3l0,-0.3l0,-0.3l0.1,-0.3l0.2,-0.2l0,-0.3l0.1,-0.3l0.2,-0.1l0.1,-0.3l0.2,-0.3L909,11.6l0.3,-0.3l0.2,-0.1L909.6,11l0.3,-0.2l0.2,-0.3l0.3,-0.1l0.2,-0.2l0.3,-0.1l0.3,-0.2l0.3,0l0.1,-0.1l0.3,-0.2l0.3,0l0.3,0l0.3,0l0.4,-0.1l0.3,0l167.6,0l0.3,0l0.3,0.1l0.3,0l0.1,0l0.3,0.2l0.3,0l0.3,0.1l0.3,0l0.2,0.2l0.3,0.1l0.2,0.2l0.3,0.1l0.3,0.3l0.1,0.2l0.2,0.2l0.1,0.3l0.3,0.1l0.2,0.2l0.1,0.3l0.2,0.3l0.1,0.1l0.2,0.3l0.2,0.3l0,0.3l0.1,0.2l0,0.3l0,0.3l0.2,0.3l0,0.3l0,0.3l0,22.2l0,0.3l0,0.3l0,0.3l-0.2,0.1l0,0.4l-0.1,0.3l0,0.3l-0.2,0.3l-0.2,0.3l-0.1,0.1l-0.2,0.3l-0.1,0.2l-0.2,0.3l-0.1,0.1l-0.3,0.4l-0.2,0.1l-0.1,0.2l-0.3,0.1l-0.3,0.2l-0.2,0.1l-0.3,0.2l-0.2,0.1l-0.3,0.2l-0.3,0l-0.3,0.1l-0.3,0l-0.1,0l-0.3,0.2l-0.3,0l-0.3,0L913.5,42.9l0,-0.1l-0.3,0l-0.4,0l-0.3,0l-0.3,-0.2l-0.3,0l-0.3,0l-0.1,-0.1l-0.3,-0.2l-0.3,-0.1l-0.3,0l-0.2,-0.3l-0.3,0l-0.2,-0.3l-0.3,-0.2l-0.1,-0.1l-0.2,-0.4L909,40.8l-0.1,-0.3l-0.2,-0.2L908.6,40l-0.2,-0.1l-0.1,-0.3l0,-0.3L908.1,39L908,38.7l0,-0.2l0,-0.3l0,-0.3l-0.2,-0.3l0,-0.3l0,-22.2Z" class="g1_22" />
<path d="M907.8,15.1l0,-0.3L908,14.5l0,-0.3l0,-0.3l0,-0.3l0.1,-0.3l0.2,-0.2l0,-0.3l0.1,-0.3l0.2,-0.1l0.1,-0.3l0.2,-0.3L909,11.6l0.3,-0.3l0.2,-0.1L909.6,11l0.3,-0.2l0.2,-0.3l0.3,-0.1l0.2,-0.2l0.3,-0.1l0.3,-0.2l0.3,0l0.1,-0.1l0.3,-0.2l0.3,0l0.3,0l0.3,0l0.4,-0.1l0.3,0l167.6,0l0.3,0l0.3,0.1l0.3,0l0.1,0l0.3,0.2l0.3,0l0.3,0.1l0.3,0l0.2,0.2l0.3,0.1l0.2,0.2l0.3,0.1l0.3,0.3l0.1,0.2l0.2,0.2l0.1,0.3l0.3,0.1l0.2,0.2l0.1,0.3l0.2,0.3l0.1,0.1l0.2,0.3l0.2,0.3l0,0.3l0.1,0.2l0,0.3l0,0.3l0.2,0.3l0,0.3l0,0.3l0,22.2l0,0.3l0,0.3l0,0.3l-0.2,0.1l0,0.4l-0.1,0.3l0,0.3l-0.2,0.3l-0.2,0.3l-0.1,0.1l-0.2,0.3l-0.1,0.2l-0.2,0.3l-0.1,0.1l-0.3,0.4l-0.2,0.1l-0.1,0.2l-0.3,0.1l-0.3,0.2l-0.2,0.1l-0.3,0.2l-0.2,0.1l-0.3,0.2l-0.3,0l-0.3,0.1l-0.3,0l-0.1,0l-0.3,0.2l-0.3,0l-0.3,0L913.5,42.9l0,-0.1l-0.3,0l-0.4,0l-0.3,0l-0.3,-0.2l-0.3,0l-0.3,0l-0.1,-0.1l-0.3,-0.2l-0.3,-0.1l-0.3,0l-0.2,-0.3l-0.3,0l-0.2,-0.3l-0.3,-0.2l-0.1,-0.1l-0.2,-0.4L909,40.8l-0.1,-0.3l-0.2,-0.2L908.6,40l-0.2,-0.1l-0.1,-0.3l0,-0.3L908.1,39L908,38.7l0,-0.2l0,-0.3l0,-0.3l-0.2,-0.3l0,-0.3l0,-22.2Z" class="g2_22" />
<path fill-rule="evenodd" d="M688,106l126,0l0,168l-126,0l0,-168Z" class="g1_22" />
<path d="M688,106l126,0l0,168l-126,0l0,-168Z" class="g3_22" />
<path d="M688.5,152.5l126,0" class="g4_22" />
</svg>