<?xml version="1.0" encoding="UTF-8" standalone="no"?>
<!DOCTYPE svg PUBLIC "-//W3C//DTD SVG 1.1//EN"
"http://www.w3.org/Graphics/SVG/1.1/DTD/svg11.dtd">
<svg viewBox="0 0 1210 1210" version="1.1" xmlns="http://www.w3.org/2000/svg" xmlns:xlink="http://www.w3.org/1999/xlink">
<defs>
<style type="text/css"><![CDATA[
.g2_47{
fill: none;
stroke: #418AB3;
stroke-width: 2;
stroke-linecap: butt;
stroke-linejoin: miter;
stroke-miterlimit: 7;
}
.g3_47{
fill: none;
stroke: #0000EE;
stroke-width: 2;
stroke-linecap: butt;
stroke-linejoin: miter;
}
.g1_47{
fill: #FFFFFF;
}
]]></style>
</defs>
<path fill-rule="evenodd" d="M0,0L1210,0l0,1210L0,1210L0,0Z" class="g1_47" />
<path fill-rule="evenodd" d="M0,0L1210,0l0,1210L0,1210L0,0Z" class="g1_47" />
<path fill-rule="evenodd" d="M187.9,73.3l0,-1l0,-1l0.2,-0.9l0.1,-0.9l0.3,-0.9l0.3,-1.1l0.3,-0.7l0.3,-1l0.5,-0.9l0.5,-0.7l0.4,-0.9l0.6,-0.8l0.5,-0.8L192.7,61l0.6,-0.7l0.6,-0.6L194.6,59l0.8,-0.5l0.8,-0.6l0.9,-0.5L197.8,57l1,-0.5l0.7,-0.3l0.9,-0.3l1.1,-0.3l0.9,-0.3l0.9,-0.1l1,-0.2l0.9,0l1.1,0l797.5,0l0.9,0l0.9,0l0.9,0.2l1.1,0.1l0.7,0.3l0.9,0.3l1,0.3l0.9,0.3L1012,57l0.8,0.4l0.9,0.5l0.7,0.6l0.8,0.6l0.8,0.6l0.6,0.6l0.7,0.7l0.7,0.7l0.4,0.8l0.6,0.8l0.5,0.9l0.4,0.7l0.5,0.9l0.3,1l0.3,0.7l0.3,1.1l0.3,0.9l0.2,0.9l0.1,0.9l0,1l0,1l0.2,73.4l-0.2,0l0,0.9l0,0.9l-0.1,0.9l-0.2,0.9l-0.3,1l-0.1,0.9l-0.3,0.9l-0.5,0.9l-0.5,0.9l-0.4,0.8l-0.5,0.9l-0.4,0.8l-0.6,0.7l-0.7,0.6l-0.7,0.8l-0.6,0.8l-0.8,0.6l-0.8,0.4l-0.7,0.6l-0.9,0.5l-0.8,0.5l-0.9,0.4l-0.9,0.3l-0.8,0.3l-1.1,0.3l-0.7,0.3l-1.1,0.2l-0.9,0.1l-0.9,0l-0.9,0L206.3,165l0,-0.2l-1.1,0l-0.9,0l-1,-0.1l-0.9,-0.2l-0.9,-0.3l-1.1,-0.3l-0.9,-0.3l-0.7,-0.3l-1,-0.4l-0.7,-0.5l-0.9,-0.5l-0.8,-0.6l-0.8,-0.4l-0.7,-0.6l-0.6,-0.8l-0.6,-0.6l-0.8,-0.8l-0.5,-0.7l-0.6,-0.8l-0.4,-0.8l-0.5,-0.9L189.4,154l-0.3,-0.8l-0.3,-0.9l-0.3,-1l-0.3,-1l-0.1,-0.9l-0.2,-0.9l0,-0.9l0,-0.9l0,-73.4Z" class="g1_47" />
<path d="M187.9,73.3l0,-1l0,-1l0.2,-0.9l0.1,-0.9l0.3,-0.9l0.3,-1.1l0.3,-0.7l0.3,-1l0.5,-0.9l0.5,-0.7l0.4,-0.9l0.6,-0.8l0.5,-0.8L192.7,61l0.6,-0.7l0.6,-0.6L194.6,59l0.8,-0.5l0.8,-0.6l0.9,-0.5L197.8,57l1,-0.5l0.7,-0.3l0.9,-0.3l1.1,-0.3l0.9,-0.3l0.9,-0.1l1,-0.2l0.9,0l1.1,0l797.5,0l0.9,0l0.9,0l0.9,0.2l1.1,0.1l0.7,0.3l0.9,0.3l1,0.3l0.9,0.3L1012,57l0.8,0.4l0.9,0.5l0.7,0.6l0.8,0.6l0.8,0.6l0.6,0.6l0.7,0.7l0.7,0.7l0.4,0.8l0.6,0.8l0.5,0.9l0.4,0.7l0.5,0.9l0.3,1l0.3,0.7l0.3,1.1l0.3,0.9l0.2,0.9l0.1,0.9l0,1l0,1l0.2,73.4l-0.2,0l0,0.9l0,0.9l-0.1,0.9l-0.2,0.9l-0.3,1l-0.1,0.9l-0.3,0.9l-0.5,0.9l-0.5,0.9l-0.4,0.8l-0.5,0.9l-0.4,0.8l-0.6,0.7l-0.7,0.6l-0.7,0.8l-0.6,0.8l-0.8,0.6l-0.8,0.4l-0.7,0.6l-0.9,0.5l-0.8,0.5l-0.9,0.4l-0.9,0.3l-0.8,0.3l-1.1,0.3l-0.7,0.3l-1.1,0.2l-0.9,0.1l-0.9,0l-0.9,0L206.3,165l0,-0.2l-1.1,0l-0.9,0l-1,-0.1l-0.9,-0.2l-0.9,-0.3l-1.1,-0.3l-0.9,-0.3l-0.7,-0.3l-1,-0.4l-0.7,-0.5l-0.9,-0.5l-0.8,-0.6l-0.8,-0.4l-0.7,-0.6l-0.6,-0.8l-0.6,-0.6l-0.8,-0.8l-0.5,-0.7l-0.6,-0.8l-0.4,-0.8l-0.5,-0.9L189.4,154l-0.3,-0.8l-0.3,-0.9l-0.3,-1l-0.3,-1l-0.1,-0.9l-0.2,-0.9l0,-0.9l0,-0.9l0,-73.4Z" class="g2_47" />
<path d="M310,135l66,0" class="g3_47" />
<path d="M376,135l380,0" class="g3_47" />
<path d="M756,135l6,0" class="g3_47" />
<image x="88" y="265" width="934" height="418" xlink:href="img/1.png" />
</svg>