<?xml version="1.0" encoding="UTF-8" standalone="no"?>
<!DOCTYPE svg PUBLIC "-//W3C//DTD SVG 1.1//EN"
"http://www.w3.org/Graphics/SVG/1.1/DTD/svg11.dtd">
<svg viewBox="0 0 1210 1210" version="1.1" xmlns="http://www.w3.org/2000/svg" xmlns:xlink="http://www.w3.org/1999/xlink">
<defs>
<style type="text/css"><![CDATA[
.g2_135{
fill: #BFBFBF;
}
.g3_135{
fill: none;
stroke: #B2B2B2;
stroke-width: 4;
stroke-linecap: butt;
stroke-linejoin: miter;
stroke-miterlimit: 7;
}
.g1_135{
fill: #FFFFFF;
}
]]></style>
</defs>
<path fill-rule="evenodd" d="M0,0L1210,0l0,1210L0,1210L0,0Z" class="g1_135" />
<path fill-rule="evenodd" d="M0,0L1210,0l0,1210L0,1210L0,0Z" class="g1_135" />
<image x="94" y="100" width="721" height="262" xlink:href="img/1.png" />
<image x="99" y="449" width="914" height="289" xlink:href="img/2.png" />
<path fill-rule="evenodd" d="M1012.3,490.9l0.2,-1.2l0,-1.1l0.1,-1.2l0.2,-1.1l0.3,-1.1l0.3,-1l0.4,-1.1l0.3,-1.1l0.7,-1.1l0.4,-0.9l0.6,-1l0.6,-1l0.8,-0.9l0.8,-0.7l0.7,-1l0.8,-0.7l0.9,-0.8l0.9,-0.6l0.9,-0.6l1,-0.6l1,-0.6l0.9,-0.5l1.1,-0.4l1.1,-0.4l1,-0.3l1.3,-0.3l1,-0.3l1.1,0l1.2,-0.1l1.1,0l32.5,0l54.1,0l1.2,0l1.1,0.1l1.1,0l1.2,0.3l1.1,0.3l1,0.3l1.1,0.4l1.1,0.4l1.1,0.5l0.9,0.6l0.9,0.6l0.9,0.6l0.9,0.8l0.9,0.6l0.8,0.7l0.8,1l0.7,0.7l0.8,0.9l0.6,1l0.6,1l0.5,0.9l0.4,1.1l0.5,1.1l0.5,1.1l0.3,1l0.3,1.1l0.1,1.1l0.2,1.2l0,1.1l0.1,1.2l0,11.9l0,50.4l0,96l0,1l-0.1,1.2l-0.2,1.1l-0.1,1.1l-0.3,1.1l-0.3,1.2l-0.4,1l-0.6,1l-0.4,1l-0.5,1.1l-0.6,0.9l-0.6,0.9l-0.8,0.9l-0.7,1l-0.8,0.7l-0.8,0.8l-0.9,0.8l-0.7,0.6l-1.1,0.7l-0.9,0.5l-0.9,0.6l-1.1,0.5l-1.1,0.4l-1.1,0.3l-1,0.3l-1.1,0.3l-1.2,0.3l-1.1,0l-1.1,0.2l-1.2,0l-54.1,0.1l-32.5,0l-1.1,-0.1l-1.2,0l-1.1,-0.2l-1,-0.3l-1.3,-0.1l-1,-0.3l-1.1,-0.5l-1.1,-0.4l-0.9,-0.5l-1,-0.5l-1,-0.6l-0.9,-0.6l-0.9,-0.7l-0.9,-0.8l-0.8,-0.8l-0.7,-0.7l-0.8,-1l-0.8,-0.9l-0.6,-0.9l-0.6,-0.9l-0.4,-1.1l-0.7,-1l-0.3,-1l-0.4,-1l-0.3,-1.2l-0.3,-1.1l-0.2,-1.1l-0.1,-1.1l0,-1.2l-0.2,-1l0,-96L932.9,512.9l79.4,-10.1l0,-11.9Z" class="g2_135" />
<path d="M1012.3,490.9l0,0l0.2,-1.2l0,-1.1l0.1,-1.2l0.2,-1.1l0.3,-1.1l0.3,-1l0.4,-1.1l0.3,-1.1l0.7,-1.1l0.4,-0.9l0.6,-1l0.6,-1l0.8,-0.9l0.8,-0.7l0.7,-1l0.8,-0.7l0.9,-0.8l0.9,-0.6l0.9,-0.6l1,-0.6l1,-0.6l0.9,-0.5l1.1,-0.4l1.1,-0.4l1,-0.3l1.3,-0.3l1,-0.3l1.1,0l1.2,-0.1l1.1,0l32.5,0l54.1,0l1.2,0l1.1,0.1l1.1,0l1.2,0.3l1.1,0.3l1,0.3l1.1,0.4l1.1,0.4l1.1,0.5l0.9,0.6l0.9,0.6l0.9,0.6l0.9,0.8l0.9,0.6l0.8,0.7l0.8,1l0.7,0.7l0.8,0.9l0.6,1l0.6,1l0.5,0.9l0.4,1.1l0.5,1.1l0.5,1.1l0.3,1l0.3,1.1l0.1,1.1l0.2,1.2l0,1.1l0.1,1.2l0,11.9l0,50.4l0,96l0,1l-0.1,1.2l-0.2,1.1l-0.1,1.1l-0.3,1.1l-0.3,1.2l-0.4,1l-0.6,1l-0.4,1l-0.5,1.1l-0.6,0.9l-0.6,0.9l-0.8,0.9l-0.7,1l-0.8,0.7l-0.8,0.8l-0.9,0.8l-0.7,0.6l-1.1,0.7l-0.9,0.5l-0.9,0.6l-1.1,0.5l-1.1,0.4l-1.1,0.3l-1,0.3l-1.1,0.3l-1.2,0.3l-1.1,0l-1.1,0.2l-1.2,0l-54.1,0.1l-32.5,0l-1.1,-0.1l-1.2,0l-1.1,-0.2l-1,-0.3l-1.3,-0.1l-1,-0.3l-1.1,-0.5l-1.1,-0.4l-0.9,-0.5l-1,-0.5l-1,-0.6l-0.9,-0.6l-0.9,-0.7l-0.9,-0.8l-0.8,-0.8l-0.7,-0.7l-0.8,-1l-0.8,-0.9l-0.6,-0.9l-0.6,-0.9l-0.4,-1.1l-0.7,-1l-0.3,-1l-0.4,-1l-0.3,-1.2l-0.3,-1.1l-0.2,-1.1l-0.1,-1.1l0,-1.2l-0.2,-1l0,-96L932.9,512.9l79.4,-10.1l0,-11.9Z" class="g3_135" />
<image x="95" y="853" width="751" height="277" xlink:href="img/3.png" />
<path fill-rule="evenodd" d="M162.4,792.3l0,-0.8l0.2,-0.6l0,-0.6l0.1,-0.6l0.2,-0.6l0.1,-0.6l0.3,-0.6l0.2,-0.6l0.3,-0.6l0.3,-0.7l0.3,-0.4l0.4,-0.5l0.4,-0.6l0.4,-0.4l0.5,-0.5l0.4,-0.5l0.5,-0.4l0.4,-0.3l0.7,-0.3l0.6,-0.5l0.4,-0.3l0.6,-0.3l0.6,-0.2l0.7,-0.3l0.6,-0.1l0.6,-0.2l0.6,-0.1l0.6,0l0.6,-0.2l0.6,0l221.6,0l100.2,0l54.4,0l0.6,0l0.7,0.2l0.6,0.1l0.7,0l0.6,0.2l0.6,0.1l0.6,0.3l0.6,0.4l0.5,0.1l0.6,0.3l0.6,0.5l0.4,0.3l0.7,0.3l0.4,0.4l0.5,0.5l0.4,0.5l0.3,0.4l0.5,0.6l0.3,0.5l0.3,0.6l0.3,0.5l0.3,0.6l0.3,0.6l0.2,0.6l0.1,0.6l0.2,0.6l0.1,0.6l0,0.6l0.2,0.6l0,0.8l0.1,30.7l0,18.3l0,0.8l-0.1,0.6l-0.2,0.6l0,0.6l-0.1,0.7l-0.2,0.6l-0.3,0.6l-0.1,0.6l-0.3,0.6l-0.3,0.5l-0.3,0.6l-0.5,0.4l-0.5,0.6l-0.3,0.5l-0.4,0.5l-0.5,0.4l-0.4,0.5l-0.7,0.3l-0.4,0.4l-0.6,0.3l-0.5,0.3l-0.6,0.4l-0.6,0.1l-0.6,0.2l-0.6,0.3l-0.6,0.1l-0.7,0.2l-0.6,0l-0.7,0l-0.6,0l-54.4,0.1l-102.5,54l2.3,-54l-221.6,0l-0.6,0l-0.6,-0.1l-0.6,0l-0.6,-0.2l-0.6,-0.1L171,853.1L170.3,853l-0.6,-0.3l-0.6,-0.4L168.7,852l-0.6,-0.3l-0.7,-0.3L167,851l-0.5,-0.5l-0.4,-0.4l-0.5,-0.5l-0.4,-0.5l-0.4,-0.4l-0.4,-0.6l-0.3,-0.5L163.8,847l-0.3,-0.6l-0.2,-0.6L163,845.2l-0.1,-0.6l-0.2,-0.7l-0.1,-0.6l0,-0.6l-0.2,-0.6l0,-0.8l0,-18.3l0,-30.7Z" class="g2_135" />
<path d="M162.4,792.3l0,0l0,-0.8l0.2,-0.6l0,-0.6l0.1,-0.6l0.2,-0.6l0.1,-0.6l0.3,-0.6l0.2,-0.6l0.3,-0.6l0.3,-0.7l0.3,-0.4l0.4,-0.5l0.4,-0.6l0.4,-0.4l0.5,-0.5l0.4,-0.5l0.5,-0.4l0.4,-0.3l0.7,-0.3l0.6,-0.5l0.4,-0.3l0.6,-0.3l0.6,-0.2l0.7,-0.3l0.6,-0.1l0.6,-0.2l0.6,-0.1l0.6,0l0.6,-0.2l0.6,0l221.6,0l100.2,0l54.4,0l0.6,0l0.7,0.2l0.6,0.1l0.7,0l0.6,0.2l0.6,0.1l0.6,0.3l0.6,0.4l0.5,0.1l0.6,0.3l0.6,0.5l0.4,0.3l0.7,0.3l0.4,0.4l0.5,0.5l0.4,0.5l0.3,0.4l0.5,0.6l0.3,0.5l0.3,0.6l0.3,0.5l0.3,0.6l0.3,0.6l0.2,0.6l0.1,0.6l0.2,0.6l0.1,0.6l0,0.6l0.2,0.6l0,0.8l0.1,30.7l0,18.3l0,0.8l-0.1,0.6l-0.2,0.6l0,0.6l-0.1,0.7l-0.2,0.6l-0.3,0.6l-0.1,0.6l-0.3,0.6l-0.3,0.5l-0.3,0.6l-0.5,0.4l-0.5,0.6l-0.3,0.5l-0.4,0.5l-0.5,0.4l-0.4,0.5l-0.7,0.3l-0.4,0.4l-0.6,0.3l-0.5,0.3l-0.6,0.4l-0.6,0.1l-0.6,0.2l-0.6,0.3l-0.6,0.1l-0.7,0.2l-0.6,0l-0.7,0l-0.6,0l-54.4,0.1l-102.5,54l2.3,-54l-221.6,0l-0.6,0l-0.6,-0.1l-0.6,0l-0.6,-0.2l-0.6,-0.1L171,853.1L170.3,853l-0.6,-0.3l-0.6,-0.4L168.7,852l-0.6,-0.3l-0.7,-0.3L167,851l-0.5,-0.5l-0.4,-0.4l-0.5,-0.5l-0.4,-0.5l-0.4,-0.4l-0.4,-0.6l-0.3,-0.5L163.8,847l-0.3,-0.6l-0.2,-0.6L163,845.2l-0.1,-0.6l-0.2,-0.7l-0.1,-0.6l0,-0.6l-0.2,-0.6l0,-0.8l0,-18.3l0,-30.7Z" class="g3_135" />
<image x="579" y="733" width="270" height="109" xlink:href="img/4.png" />
</svg>