<?xml version="1.0" encoding="UTF-8" standalone="no"?>
<!DOCTYPE svg PUBLIC "-//W3C//DTD SVG 1.1//EN"
"http://www.w3.org/Graphics/SVG/1.1/DTD/svg11.dtd">
<svg viewBox="0 0 1210 1045" version="1.1" xmlns="http://www.w3.org/2000/svg" xmlns:xlink="http://www.w3.org/1999/xlink">
<defs>
<style type="text/css"><![CDATA[
.g5_23{
fill: none;
stroke: #418AB3;
stroke-width: 1;
stroke-linecap: butt;
stroke-linejoin: miter;
}
.g2_23{
fill: #418AB3;
}
.g7_23{
fill: none;
stroke: #418AB3;
stroke-width: 2;
stroke-linecap: butt;
stroke-linejoin: miter;
stroke-miterlimit: 7;
}
.g3_23{
fill: #BFBFBF;
fill-opacity: 0.2;
}
.g6_23{
fill: none;
stroke: #000000;
stroke-width: 1;
stroke-linecap: butt;
stroke-linejoin: miter;
}
.g1_23{
fill: #FFFFFF;
}
.g4_23{
fill: #FFFFFF;
fill-opacity: 0.2;
}
]]></style>
</defs>
<path fill-rule="evenodd" d="M0,0L1210,0l0,1045L0,1045L0,0Z" class="g1_23" />
<path fill-rule="evenodd" d="M0,0L1210,0l0,1045L0,1045L0,0Z" class="g1_23" />
<image x="828" y="984" width="334" height="49" xlink:href="img/1.png" />
<path fill-rule="evenodd" d="M100,171l165,0l0,56l-165,0l0,-56Z" class="g2_23" />
<path fill-rule="evenodd" d="M265,171l110,0l0,56l-110,0l0,-56Z" class="g3_23" />
<path fill-rule="evenodd" d="M375,171l147,0l0,56l-147,0l0,-56Z" class="g3_23" />
<path fill-rule="evenodd" d="M522,171l83,0l0,56l-83,0l0,-56Z" class="g3_23" />
<path fill-rule="evenodd" d="M605,171l64,0l0,56l-64,0l0,-56Z" class="g4_23" />
<path fill-rule="evenodd" d="M669,171l110,0l0,56l-110,0l0,-56Z" class="g4_23" />
<path fill-rule="evenodd" d="M779,171l73,0l0,56l-73,0l0,-56Z" class="g4_23" />
<path fill-rule="evenodd" d="M852,171l107,0l0,56l-107,0l0,-56Z" class="g4_23" />
<path fill-rule="evenodd" d="M959,171l108,0l0,56l-108,0l0,-56Z" class="g4_23" />
<path fill-rule="evenodd" d="M100,227l165,0l0,57l-165,0l0,-57Z" class="g2_23" />
<path fill-rule="evenodd" d="M100,284l165,0l0,57l-165,0l0,-57Z" class="g2_23" />
<path fill-rule="evenodd" d="M265,284l110,0l0,57l-110,0l0,-57Z" class="g3_23" />
<path fill-rule="evenodd" d="M375,284l147,0l0,57l-147,0l0,-57Z" class="g3_23" />
<path fill-rule="evenodd" d="M522,284l83,0l0,57l-83,0l0,-57Z" class="g1_23" />
<path fill-rule="evenodd" d="M605,284l64,0l0,57l-64,0l0,-57Z" class="g1_23" />
<path fill-rule="evenodd" d="M669,284l110,0l0,57l-110,0l0,-57Z" class="g1_23" />
<path fill-rule="evenodd" d="M779,284l73,0l0,57l-73,0l0,-57Z" class="g1_23" />
<path fill-rule="evenodd" d="M852,284l107,0l0,57l-107,0l0,-57Z" class="g1_23" />
<path fill-rule="evenodd" d="M959,284l108,0l0,57l-108,0l0,-57Z" class="g1_23" />
<path fill-rule="evenodd" d="M100,341l165,0l0,56l-165,0l0,-56Z" class="g2_23" />
<path fill-rule="evenodd" d="M522,341l83,0l0,56l-83,0l0,-56Z" class="g1_23" />
<path fill-rule="evenodd" d="M605,341l64,0l0,56l-64,0l0,-56Z" class="g1_23" />
<path fill-rule="evenodd" d="M669,341l110,0l0,56l-110,0l0,-56Z" class="g1_23" />
<path fill-rule="evenodd" d="M779,341l73,0l0,56l-73,0l0,-56Z" class="g1_23" />
<path fill-rule="evenodd" d="M852,341l107,0l0,56l-107,0l0,-56Z" class="g1_23" />
<path fill-rule="evenodd" d="M959,341l108,0l0,56l-108,0l0,-56Z" class="g1_23" />
<path d="M100.5,64.5l967,0" class="g5_23" />
<path d="M100.5,228.5l0,-58" class="g6_23" />
<path d="M265.5,227.5l0,-56" class="g6_23" />
<path d="M100.5,172.5l166,0" class="g6_23" />
<path d="M265.5,227.5l0,-56" class="g6_23" />
<path d="M375.5,227.5l0,-56" class="g6_23" />
<path d="M265.5,172.5l111,0" class="g6_23" />
<path d="M375.5,227.5l0,-56" class="g6_23" />
<path d="M521.5,227.5l0,-56" class="g6_23" />
<path d="M375.5,172.5l148,0" class="g6_23" />
<path d="M521.5,227.5l0,-56" class="g6_23" />
<path d="M604.5,227.5l0,-56" class="g6_23" />
<path d="M521.5,172.5l84,0" class="g6_23" />
<path d="M604.5,227.5l0,-56" class="g6_23" />
<path d="M604.5,172.5l65,0" class="g6_23" />
<path d="M669.5,172.5l110,0" class="g6_23" />
<path d="M779.5,172.5l73,0" class="g6_23" />
<path d="M852.5,172.5l107,0" class="g6_23" />
<path d="M959.5,172.5l108,0" class="g6_23" />
<path d="M100.5,285.5l0,-58" class="g6_23" />
<path d="M265.5,284.5l0,-57" class="g6_23" />
<path d="M100.5,228.5l165,0" class="g6_23" />
<path d="M265.5,284.5l0,-57" class="g6_23" />
<path d="M375.5,284.5l0,-57" class="g6_23" />
<path d="M265.5,228.5l110,0" class="g6_23" />
<path d="M375.5,284.5l0,-57" class="g6_23" />
<path d="M521.5,284.5l0,-57" class="g6_23" />
<path d="M375.5,228.5l147,0" class="g6_23" />
<path d="M521.5,284.5l0,-57" class="g6_23" />
<path d="M604.5,284.5l0,-57" class="g6_23" />
<path d="M522.5,228.5l83,0" class="g6_23" />
<path d="M604.5,284.5l0,-57" class="g6_23" />
<path d="M668.5,284.5l0,-57" class="g6_23" />
<path d="M605.5,228.5l64,0" class="g6_23" />
<path d="M668.5,284.5l0,-57" class="g6_23" />
<path d="M778.5,284.5l0,-57" class="g6_23" />
<path d="M668.5,228.5l111,0" class="g6_23" />
<path d="M778.5,284.5l0,-57" class="g6_23" />
<path d="M851.5,284.5l0,-57" class="g6_23" />
<path d="M778.5,228.5l74,0" class="g6_23" />
<path d="M851.5,284.5l0,-57" class="g6_23" />
<path d="M958.5,285.5l0,-58" class="g6_23" />
<path d="M851.5,228.5l109,0" class="g6_23" />
<path d="M958.5,284.5l0,-57" class="g6_23" />
<path d="M1066.5,285.5l0,-58" class="g6_23" />
<path d="M958.5,228.5l109,0" class="g6_23" />
<path d="M100.5,341.5l0,-57" class="g6_23" />
<path d="M265.5,341.5l0,-57" class="g6_23" />
<path d="M100.5,285.5l165,0" class="g6_23" />
<path d="M265.5,341.5l0,-57" class="g6_23" />
<path d="M375.5,341.5l0,-57" class="g6_23" />
<path d="M265.5,285.5l110,0" class="g6_23" />
<path d="M375.5,341.5l0,-57" class="g6_23" />
<path d="M521.5,341.5l0,-57" class="g6_23" />
<path d="M375.5,285.5l147,0" class="g6_23" />
<path d="M521.5,341.5l0,-57" class="g6_23" />
<path d="M522.5,285.5l83,0" class="g6_23" />
<path d="M604.5,285.5l65,0" class="g6_23" />
<path d="M668.5,285.5l111,0" class="g6_23" />
<path d="M778.5,285.5l74,0" class="g6_23" />
<path d="M851.5,285.5l109,0" class="g6_23" />
<path d="M958.5,285.5l109,0" class="g6_23" />
<path d="M100.5,398.5l0,-58" class="g6_23" />
<path d="M100.5,398.5l166,0" class="g6_23" />
<path d="M265.5,397.5l0,-56" class="g6_23" />
<path d="M100.5,341.5l165,0" class="g6_23" />
<path d="M265.5,397.5l0,-56" class="g6_23" />
<path d="M265.5,398.5l111,0" class="g6_23" />
<path d="M375.5,398.5l0,-58" class="g6_23" />
<path d="M265.5,341.5l110,0" class="g6_23" />
<path d="M375.5,397.5l0,-56" class="g6_23" />
<path d="M375.5,398.5l148,0" class="g6_23" />
<path d="M521.5,398.5l0,-58" class="g6_23" />
<path d="M375.5,341.5l147,0" class="g6_23" />
<path d="M521.5,398.5l0,-58" class="g6_23" />
<path fill-rule="evenodd" d="M980.8,10.7l0,-0.3l0,-0.3l0,-0.3L981,9.5l0,-0.3l0.1,-0.3l0,-0.3l0.2,-0.3l0.1,-0.4l0.2,-0.3l0.1,-0.3L982.1,7l0.1,-0.1l0.2,-0.3l0.3,-0.2l0.1,-0.3L983.1,6l0.2,-0.2l0.3,-0.1l0.3,-0.4l0.3,-0.1L984.5,5l0.2,0L985,4.9l0.4,-0.2l0.3,0l0.3,0l0.3,-0.1l0.3,0l0.3,0l189.5,0l0.3,0l0.3,0l0.3,0.1l0.3,0l0.3,0l0.3,0.2l0.3,0.1l0.3,0l0.3,0.3l0.3,0l0.2,0.4l0.3,0.1l0.3,0.2l0.2,0.3l0.3,0.1l0.1,0.2l0.3,0.3l0.2,0.1l0.1,0.3l0.2,0.3l0.1,0.3l0.2,0.4l0.1,0.3l0,0.3l0.2,0.3l0.1,0.3l0,0.3l0,0.3l0,0.3l0,0.3l0.2,24.4l0,0.3l-0.2,0.4l0,0.3l0,0.3l-0.1,0.3l0,0.3l-0.2,0.3l-0.1,0.3l-0.2,0.3l-0.1,0.3l-0.2,0.1l-0.1,0.4l-0.2,0.3l-0.3,0.3l-0.1,0.1l-0.3,0.2l-0.2,0.3l-0.3,0.1l-0.3,0.2l-0.2,0.1l-0.3,0.2l-0.3,0.1l-0.3,0.2l-0.3,0.1l-0.3,0l-0.3,0.2l-0.3,0l-0.3,0l-0.3,0.2l-0.3,0l-189.5,0l-0.3,0l-0.3,0L986,41.1l-0.3,0l-0.3,-0.2l-0.4,0l-0.3,-0.1l-0.2,-0.2l-0.3,0l-0.3,-0.3l-0.3,-0.1L983.3,40l-0.2,-0.1l-0.3,-0.2l-0.1,-0.3l-0.3,-0.1L982.2,39l-0.1,-0.3l-0.4,-0.2l-0.1,-0.3l-0.2,-0.3l-0.1,-0.3l-0.2,-0.3l0,-0.3L981,36.7l0,-0.3l-0.2,-0.3l0,-0.3l0,-0.4l0,-0.3l0,-24.4Z" class="g1_23" />
<path d="M980.8,10.7l0,-0.3l0,-0.3l0,-0.3L981,9.5l0,-0.3l0.1,-0.3l0,-0.3l0.2,-0.3l0.1,-0.4l0.2,-0.3l0.1,-0.3L982.1,7l0.1,-0.1l0.2,-0.3l0.3,-0.2l0.1,-0.3L983.1,6l0.2,-0.2l0.3,-0.1l0.3,-0.4l0.3,-0.1L984.5,5l0.2,0L985,4.9l0.4,-0.2l0.3,0l0.3,0l0.3,-0.1l0.3,0l0.3,0l189.5,0l0.3,0l0.3,0l0.3,0.1l0.3,0l0.3,0l0.3,0.2l0.3,0.1l0.3,0l0.3,0.3l0.3,0l0.2,0.4l0.3,0.1l0.3,0.2l0.2,0.3l0.3,0.1l0.1,0.2l0.3,0.3l0.2,0.1l0.1,0.3l0.2,0.3l0.1,0.3l0.2,0.4l0.1,0.3l0,0.3l0.2,0.3l0.1,0.3l0,0.3l0,0.3l0,0.3l0,0.3l0.2,24.4l0,0.3l-0.2,0.4l0,0.3l0,0.3l-0.1,0.3l0,0.3l-0.2,0.3l-0.1,0.3l-0.2,0.3l-0.1,0.3l-0.2,0.1l-0.1,0.4l-0.2,0.3l-0.3,0.3l-0.1,0.1l-0.3,0.2l-0.2,0.3l-0.3,0.1l-0.3,0.2l-0.2,0.1l-0.3,0.2l-0.3,0.1l-0.3,0.2l-0.3,0.1l-0.3,0l-0.3,0.2l-0.3,0l-0.3,0l-0.3,0.2l-0.3,0l-189.5,0l-0.3,0l-0.3,0L986,41.1l-0.3,0l-0.3,-0.2l-0.4,0l-0.3,-0.1l-0.2,-0.2l-0.3,0l-0.3,-0.3l-0.3,-0.1L983.3,40l-0.2,-0.1l-0.3,-0.2l-0.1,-0.3l-0.3,-0.1L982.2,39l-0.1,-0.3l-0.4,-0.2l-0.1,-0.3l-0.2,-0.3l-0.1,-0.3l-0.2,-0.3l0,-0.3L981,36.7l0,-0.3l-0.2,-0.3l0,-0.3l0,-0.4l0,-0.3l0,-24.4Z" class="g7_23" />
</svg>