<?xml version="1.0" encoding="UTF-8" standalone="no"?>
<!DOCTYPE svg PUBLIC "-//W3C//DTD SVG 1.1//EN"
"http://www.w3.org/Graphics/SVG/1.1/DTD/svg11.dtd">
<svg viewBox="0 0 1210 1045" version="1.1" xmlns="http://www.w3.org/2000/svg" xmlns:xlink="http://www.w3.org/1999/xlink">
<defs>
<style type="text/css"><![CDATA[
.g2_70{
fill: none;
stroke: #418AB3;
stroke-width: 2;
stroke-linecap: butt;
stroke-linejoin: miter;
stroke-miterlimit: 7;
}
.g3_70{
fill: none;
stroke: #0000EE;
stroke-width: 2;
stroke-linecap: butt;
stroke-linejoin: miter;
}
.g4_70{
fill: #8ABAD4;
}
.g1_70{
fill: #FFFFFF;
}
]]></style>
</defs>
<path fill-rule="evenodd" d="M0,0L1210,0l0,1045L0,1045L0,0Z" class="g1_70" />
<path fill-rule="evenodd" d="M0,0L1210,0l0,1045L0,1045L0,0Z" class="g1_70" />
<image x="828" y="984" width="334" height="49" xlink:href="img/1.png" />
<path fill-rule="evenodd" d="M252.1,361.2l0,-1l0,-0.7l0.1,-0.8l0.2,-0.9l0.1,-0.8l0.3,-0.7l0.4,-0.8l0.3,-0.7l0.3,-0.8l0.4,-0.8l0.3,-0.7l0.6,-0.7l0.5,-0.6l0.5,-0.6l0.6,-0.6l0.6,-0.6l0.6,-0.6l0.6,-0.5l0.8,-0.4l0.7,-0.5l0.6,-0.3l0.8,-0.4l0.8,-0.4l0.7,-0.3l0.9,-0.1l0.8,-0.2l0.8,-0.3l0.7,0l1,0l0.7,-0.1l674.2,0l0.8,0.1l0.9,0l0.8,0.2l0.7,0.1l1,0.2l0.7,0.1l0.8,0.3l0.7,0.4l0.8,0.4l0.8,0.3l0.6,0.5l0.7,0.4l0.7,0.6l0.6,0.5l0.6,0.6l0.6,0.6l0.4,0.6l0.7,0.6l0.3,0.8l0.4,0.6l0.5,0.8l0.3,0.8l0.3,0.7l0.3,0.8l0.3,0.7l0.2,0.8l0.1,0.9l0.2,0.8l0,0.7l0,1l0.1,63.2l-0.1,0l0,0.8l0,0.7l-0.2,1l-0.1,0.7l-0.2,0.8l-0.3,0.9l-0.3,0.8l-0.3,0.7l-0.3,0.6l-0.5,0.8l-0.3,0.8l-0.4,0.6l-0.7,0.7l-0.4,0.7l-0.6,0.6l-0.6,0.4l-0.6,0.6l-0.7,0.5l-0.7,0.5L950,438l-0.8,0.5l-0.8,0.3l-0.7,0.3l-0.8,0.3l-0.7,0.1l-1,0.3l-0.7,0.2l-0.8,0l-0.9,0.2l-0.8,0l-674.2,0l-0.7,0l-1,0L265.4,440l-0.8,-0.2l-0.8,-0.1l-0.9,-0.3l-0.7,-0.3l-0.8,-0.3l-0.8,-0.3L260,438l-0.7,-0.4l-0.8,-0.5l-0.6,-0.5L257.3,436l-0.6,-0.4L256.1,435l-0.5,-0.7l-0.5,-0.6L254.5,433l-0.3,-0.6l-0.4,-0.8l-0.3,-0.8l-0.3,-0.7l-0.4,-0.8l-0.3,-0.9l-0.1,-0.8l-0.2,-0.7l-0.1,-1l0,-0.7l0,-0.8l0,-63.2Z" class="g1_70" />
<path d="M252.1,361.2l0,-1l0,-0.7l0.1,-0.8l0.2,-0.9l0.1,-0.8l0.3,-0.7l0.4,-0.8l0.3,-0.7l0.3,-0.8l0.4,-0.8l0.3,-0.7l0.6,-0.7l0.5,-0.6l0.5,-0.6l0.6,-0.6l0.6,-0.6l0.6,-0.6l0.6,-0.5l0.8,-0.4l0.7,-0.5l0.6,-0.3l0.8,-0.4l0.8,-0.4l0.7,-0.3l0.9,-0.1l0.8,-0.2l0.8,-0.3l0.7,0l1,0l0.7,-0.1l674.2,0l0.8,0.1l0.9,0l0.8,0.2l0.7,0.1l1,0.2l0.7,0.1l0.8,0.3l0.7,0.4l0.8,0.4l0.8,0.3l0.6,0.5l0.7,0.4l0.7,0.6l0.6,0.5l0.6,0.6l0.6,0.6l0.4,0.6l0.7,0.6l0.3,0.8l0.4,0.6l0.5,0.8l0.3,0.8l0.3,0.7l0.3,0.8l0.3,0.7l0.2,0.8l0.1,0.9l0.2,0.8l0,0.7l0,1l0.1,63.2l-0.1,0l0,0.8l0,0.7l-0.2,1l-0.1,0.7l-0.2,0.8l-0.3,0.9l-0.3,0.8l-0.3,0.7l-0.3,0.6l-0.5,0.8l-0.3,0.8l-0.4,0.6l-0.7,0.7l-0.4,0.7l-0.6,0.6l-0.6,0.4l-0.6,0.6l-0.7,0.5l-0.7,0.5L950,438l-0.8,0.5l-0.8,0.3l-0.7,0.3l-0.8,0.3l-0.7,0.1l-1,0.3l-0.7,0.2l-0.8,0l-0.9,0.2l-0.8,0l-674.2,0l-0.7,0l-1,0L265.4,440l-0.8,-0.2l-0.8,-0.1l-0.9,-0.3l-0.7,-0.3l-0.8,-0.3l-0.8,-0.3L260,438l-0.7,-0.4l-0.8,-0.5l-0.6,-0.5L257.3,436l-0.6,-0.4L256.1,435l-0.5,-0.7l-0.5,-0.6L254.5,433l-0.3,-0.6l-0.4,-0.8l-0.3,-0.8l-0.3,-0.7l-0.4,-0.8l-0.3,-0.9l-0.1,-0.8l-0.2,-0.7l-0.1,-1l0,-0.7l0,-0.8l0,-63.2Z" class="g2_70" />
<path d="M293,418l469,0" class="g3_70" />
<path fill-rule="evenodd" d="M135.8,248.1l0,-0.6l0,-0.6l0.2,-0.6l0.1,-0.6l0,-0.6l0.3,-0.7l0.2,-0.6l0.1,-0.4l0.3,-0.6l0.3,-0.6l0.4,-0.5l0.4,-0.5l0.3,-0.6l0.5,-0.4l0.3,-0.5l0.4,-0.3l0.5,-0.5l0.6,-0.3l0.5,-0.4l0.4,-0.3l0.6,-0.3l0.6,-0.3l0.5,-0.2l0.6,-0.1l0.6,-0.3l0.6,0l0.7,-0.2l0.6,-0.2l0.6,0l0.6,0l914.8,0l0.6,0l0.6,0l0.6,0.2l0.7,0.2l0.6,0l0.6,0.3l0.6,0.1l0.5,0.3l0.6,0.2l0.6,0.3l0.4,0.3l0.5,0.4l0.5,0.3l0.6,0.5l0.3,0.5l0.4,0.3l0.5,0.4l0.3,0.6l0.3,0.5l0.5,0.5l0.3,0.6l0.1,0.6l0.3,0.4l0.2,0.6l0.1,0.7l0.2,0.6l0.1,0.6l0,0.6l0.2,0.6l0,0.6l0,47.1l0,0.6l0,0.6L1074,297l0,0.6l-0.1,0.6l-0.3,0.6l-0.2,0.5l-0.1,0.6l-0.3,0.6l-0.3,0.5l-0.4,0.4L1072,302l-0.4,0.5l-0.5,0.5l-0.3,0.4l-0.4,0.5l-0.5,0.3l-0.5,0.4l-0.6,0.3l-0.4,0.3l-0.6,0.4l-0.6,0.3l-0.5,0.1l-0.6,0.3l-0.6,0.2l-0.6,0.1l-0.7,0l-0.6,0.2l-0.6,0l-0.6,0l-914.8,0.1l-0.6,0l-0.6,0l-0.6,-0.1l-0.7,-0.2l-0.6,-0.1l-0.6,-0.2l-0.6,-0.1l-0.5,-0.3l-0.6,-0.3l-0.6,-0.2l-0.4,-0.5l-0.5,-0.3l-0.6,-0.3l-0.5,-0.4l-0.4,-0.5L138.9,303l-0.5,-0.5L138.1,302l-0.4,-0.4L137.3,301L137,300.5l-0.3,-0.6l-0.1,-0.6l-0.2,-0.5l-0.3,-0.6l0,-0.6L136,297l-0.2,-0.6l0,-0.6l0,-0.6l0,-47.1Z" class="g4_70" />
<path d="M368,264l582,0" class="g3_70" />
</svg>