<?xml version="1.0" encoding="UTF-8" standalone="no"?>
<!DOCTYPE svg PUBLIC "-//W3C//DTD SVG 1.1//EN"
"http://www.w3.org/Graphics/SVG/1.1/DTD/svg11.dtd">
<svg viewBox="0 0 1210 1210" version="1.1" xmlns="http://www.w3.org/2000/svg" xmlns:xlink="http://www.w3.org/1999/xlink">
<defs>
<style type="text/css"><![CDATA[
.g2_43{
fill: none;
stroke: #418AB3;
stroke-width: 2;
stroke-linecap: butt;
stroke-linejoin: miter;
stroke-miterlimit: 7;
}
.g3_43{
fill: none;
stroke: #0000EE;
stroke-width: 2;
stroke-linecap: butt;
stroke-linejoin: miter;
}
.g1_43{
fill: #FFFFFF;
}
]]></style>
</defs>
<path fill-rule="evenodd" d="M0,0L1210,0l0,1210L0,1210L0,0Z" class="g1_43" />
<path fill-rule="evenodd" d="M0,0L1210,0l0,1210L0,1210L0,0Z" class="g1_43" />
<path fill-rule="evenodd" d="M59.6,663.7l0,-1.7l0.1,-1.5L60,658.8l0.3,-1.5l0.4,-1.7L61.1,654l0.6,-1.5L62.3,651l0.6,-1.5l0.8,-1.4l0.9,-1.4l0.9,-1.4l1,-1.2l1,-1.4l1.3,-1L70,640.4l1.2,-1l1.2,-0.9l1.4,-1l1.4,-0.9l1.3,-0.7l1.6,-0.7l1.5,-0.6L81.1,634l1.6,-0.4l1.6,-0.3L85.9,633l1.6,-0.3l1.6,-0.2l1.7,0l1010.1,0l1.7,0l1.5,0.2l1.7,0.3l1.5,0.3l1.7,0.3l1.5,0.4l1.6,0.6l1.5,0.6l1.4,0.7l1.5,0.7l1.4,0.9l1.3,1l1.3,1l1.2,0.9l1.2,1.3l1.1,1l1.1,1.4l1,1.2l0.9,1.4l0.8,1.4l0.8,1.4l0.7,1.5l0.6,1.5l0.7,1.5l0.4,1.6l0.3,1.7l0.3,1.5l0.2,1.7l0.1,1.5l0,1.7l0.2,124.6l0,1.6l-0.2,1.6l-0.3,1.6l-0.1,1.7l-0.5,1.5l-0.4,1.7l-0.7,1.3l-0.6,1.6l-0.6,1.5l-0.7,1.4l-1,1.3l-0.9,1.4l-1,1.4l-1,1.2l-1.2,1.2l-1.2,1.1l-1.2,1.1l-1.3,0.9l-1.3,0.9l-1.4,0.9l-1.4,0.8l-1.5,0.8l-1.5,0.6l-1.6,0.4l-1.5,0.5l-1.7,0.4l-1.5,0.3l-1.7,0.2l-1.5,0.1l-1.7,0L90.8,819.5l-1.7,-0.2l-1.6,0L85.9,819l-1.6,-0.3l-1.6,-0.3L81.1,818l-1.5,-0.6l-1.5,-0.6l-1.6,-0.7l-1.3,-0.7l-1.4,-0.9l-1.4,-1l-1.2,-1L70,811.4l-1.2,-1.1l-1.3,-1.2l-1,-1.2l-1,-1.2l-0.9,-1.4l-0.9,-1.4l-0.8,-1.5L62.3,801l-0.6,-1.5L61.1,798l-0.4,-1.7l-0.4,-1.5L60,793.2l-0.3,-1.7l-0.1,-1.6l0,-1.6l0,-124.6Z" class="g1_43" />
<path d="M59.6,663.7l0,-1.7l0.1,-1.5L60,658.8l0.3,-1.5l0.4,-1.7L61.1,654l0.6,-1.5L62.3,651l0.6,-1.5l0.8,-1.4l0.9,-1.4l0.9,-1.4l1,-1.2l1,-1.4l1.3,-1L70,640.4l1.2,-1l1.2,-0.9l1.4,-1l1.4,-0.9l1.3,-0.7l1.6,-0.7l1.5,-0.6L81.1,634l1.6,-0.4l1.6,-0.3L85.9,633l1.6,-0.3l1.6,-0.2l1.7,0l1010.1,0l1.7,0l1.5,0.2l1.7,0.3l1.5,0.3l1.7,0.3l1.5,0.4l1.6,0.6l1.5,0.6l1.4,0.7l1.5,0.7l1.4,0.9l1.3,1l1.3,1l1.2,0.9l1.2,1.3l1.1,1l1.1,1.4l1,1.2l0.9,1.4l0.8,1.4l0.8,1.4l0.7,1.5l0.6,1.5l0.7,1.5l0.4,1.6l0.3,1.7l0.3,1.5l0.2,1.7l0.1,1.5l0,1.7l0.2,124.6l0,1.6l-0.2,1.6l-0.3,1.6l-0.1,1.7l-0.5,1.5l-0.4,1.7l-0.7,1.3l-0.6,1.6l-0.6,1.5l-0.7,1.4l-1,1.3l-0.9,1.4l-1,1.4l-1,1.2l-1.2,1.2l-1.2,1.1l-1.2,1.1l-1.3,0.9l-1.3,0.9l-1.4,0.9l-1.4,0.8l-1.5,0.8l-1.5,0.6l-1.6,0.4l-1.5,0.5l-1.7,0.4l-1.5,0.3l-1.7,0.2l-1.5,0.1l-1.7,0L90.8,819.5l-1.7,-0.2l-1.6,0L85.9,819l-1.6,-0.3l-1.6,-0.3L81.1,818l-1.5,-0.6l-1.5,-0.6l-1.6,-0.7l-1.3,-0.7l-1.4,-0.9l-1.4,-1l-1.2,-1L70,811.4l-1.2,-1.1l-1.3,-1.2l-1,-1.2l-1,-1.2l-0.9,-1.4l-0.9,-1.4l-0.8,-1.5L62.3,801l-0.6,-1.5L61.1,798l-0.4,-1.7l-0.4,-1.5L60,793.2l-0.3,-1.7l-0.1,-1.6l0,-1.6l0,-124.6Z" class="g2_43" />
<path d="M424,685l445,0" class="g3_43" />
<path d="M412,718l443,0" class="g3_43" />
<path d="M404,751l456,0" class="g3_43" />
<path d="M393,784l456,0" class="g3_43" />
<image x="394" y="91" width="689" height="493" xlink:href="img/1.png" />
</svg>