<?xml version="1.0" encoding="UTF-8" standalone="no"?>
<!DOCTYPE svg PUBLIC "-//W3C//DTD SVG 1.1//EN"
"http://www.w3.org/Graphics/SVG/1.1/DTD/svg11.dtd">
<svg viewBox="0 0 1210 1045" version="1.1" xmlns="http://www.w3.org/2000/svg" xmlns:xlink="http://www.w3.org/1999/xlink">
<defs>
<style type="text/css"><![CDATA[
.g5_80{
fill: #A6B727;
}
.g2_80{
fill: #418AB3;
}
.g3_80{
fill: #CEDAE4;
}
.g6_80{
fill: none;
stroke: #FFFFFF;
stroke-width: 1;
stroke-linecap: butt;
stroke-linejoin: miter;
}
.g4_80{
fill: #E8EDF2;
}
.g7_80{
fill: none;
stroke: #418AB3;
stroke-width: 2;
stroke-linecap: butt;
stroke-linejoin: miter;
stroke-miterlimit: 7;
}
.g1_80{
fill: #FFFFFF;
}
]]></style>
</defs>
<path fill-rule="evenodd" d="M0,0L1210,0l0,1045L0,1045L0,0Z" class="g1_80" />
<path fill-rule="evenodd" d="M0,0L1210,0l0,1045L0,1045L0,0Z" class="g1_80" />
<image x="828" y="984" width="334" height="49" xlink:href="img/1.png" />
<path fill-rule="evenodd" d="M308,182l152,0l0,49l-152,0l0,-49Z" class="g2_80" />
<path fill-rule="evenodd" d="M460,182l113,0l0,49l-113,0l0,-49Z" class="g2_80" />
<path fill-rule="evenodd" d="M573,182l82,0l0,49l-82,0l0,-49Z" class="g2_80" />
<path fill-rule="evenodd" d="M655,182l248,0l0,49l-248,0l0,-49Z" class="g2_80" />
<path fill-rule="evenodd" d="M308,231l152,0l0,48l-152,0l0,-48Z" class="g2_80" />
<path fill-rule="evenodd" d="M460,231l113,0l0,48l-113,0l0,-48Z" class="g3_80" />
<path fill-rule="evenodd" d="M573,231l82,0l0,48l-82,0l0,-48Z" class="g3_80" />
<path fill-rule="evenodd" d="M655,231l248,0l0,48l-248,0l0,-48Z" class="g3_80" />
<path fill-rule="evenodd" d="M308,279l152,0l0,57l-152,0l0,-57Z" class="g2_80" />
<path fill-rule="evenodd" d="M460,279l113,0l0,57l-113,0l0,-57Z" class="g4_80" />
<path fill-rule="evenodd" d="M573,279l82,0l0,57l-82,0l0,-57Z" class="g4_80" />
<path fill-rule="evenodd" d="M655,279l248,0l0,57l-248,0l0,-57Z" class="g4_80" />
<path fill-rule="evenodd" d="M308,336l152,0l0,48l-152,0l0,-48Z" class="g5_80" />
<path fill-rule="evenodd" d="M460,336l113,0l0,48l-113,0l0,-48Z" class="g5_80" />
<path fill-rule="evenodd" d="M573,336l82,0l0,48l-82,0l0,-48Z" class="g5_80" />
<path fill-rule="evenodd" d="M655,336l248,0l0,48l-248,0l0,-48Z" class="g5_80" />
<path fill-rule="evenodd" d="M308,384l152,0l0,73l-152,0l0,-73Z" class="g5_80" />
<path fill-rule="evenodd" d="M460,384l113,0l0,73l-113,0l0,-73Z" class="g5_80" />
<path fill-rule="evenodd" d="M573,384l82,0l0,73l-82,0l0,-73Z" class="g5_80" />
<path fill-rule="evenodd" d="M655,384l248,0l0,73l-248,0l0,-73Z" class="g5_80" />
<path d="M307.5,232.5l0,-50" class="g6_80" />
<path d="M459.5,231.5l0,-49" class="g6_80" />
<path d="M307.5,183.5l153,0" class="g6_80" />
<path d="M459.5,231.5l0,-49" class="g6_80" />
<path d="M572.5,231.5l0,-49" class="g6_80" />
<path d="M459.5,183.5l114,0" class="g6_80" />
<path d="M572.5,231.5l0,-49" class="g6_80" />
<path d="M655.5,232.5l0,-50" class="g6_80" />
<path d="M572.5,183.5l84,0" class="g6_80" />
<path d="M655.5,231.5l0,-49" class="g6_80" />
<path d="M902.5,232.5l0,-50" class="g6_80" />
<path d="M655.5,183.5l248,0" class="g6_80" />
<path d="M307.5,280.5l0,-51" class="g6_80" />
<path d="M459.5,279.5l0,-48" class="g6_80" />
<path fill-rule="evenodd" d="M460.2,231.2l-0.6,1.9l-150.4,0l-0.6,-1.9l0.6,-2l150.4,0l0.6,2Z" class="g1_80" />
<path d="M459.5,279.5l0,-48" class="g6_80" />
<path d="M572.5,279.5l0,-48" class="g6_80" />
<path fill-rule="evenodd" d="M573.4,231.2l-0.6,1.9l-112,0l-0.6,-1.9l0.6,-2l112,0l0.6,2Z" class="g1_80" />
<path d="M572.5,279.5l0,-48" class="g6_80" />
<path d="M655.5,280.5l0,-51" class="g6_80" />
<path fill-rule="evenodd" d="M655.9,231.2l-0.6,1.9l-81.3,0l-0.6,-1.9l0.6,-2l81.3,0l0.6,2Z" class="g1_80" />
<path d="M655.5,279.5l0,-48" class="g6_80" />
<path d="M902.5,280.5l0,-51" class="g6_80" />
<path fill-rule="evenodd" d="M903.4,231.2l-0.6,1.9l-246.3,0l-0.6,-1.9l0.6,-2l246.3,0l0.6,2Z" class="g1_80" />
<path d="M307.5,336.5l0,-57" class="g6_80" />
<path d="M459.5,336.5l0,-57" class="g6_80" />
<path d="M308.5,280.5l152,0" class="g6_80" />
<path d="M459.5,336.5l0,-57" class="g6_80" />
<path d="M572.5,336.5l0,-57" class="g6_80" />
<path d="M460.5,280.5l113,0" class="g6_80" />
<path d="M572.5,336.5l0,-57" class="g6_80" />
<path d="M655.5,336.5l0,-57" class="g6_80" />
<path d="M573.5,280.5l82,0" class="g6_80" />
<path d="M655.5,336.5l0,-57" class="g6_80" />
<path d="M902.5,336.5l0,-57" class="g6_80" />
<path d="M655.5,280.5l248,0" class="g6_80" />
<path d="M307.5,385.5l0,-50" class="g6_80" />
<path d="M459.5,384.5l0,-48" class="g6_80" />
<path d="M308.5,336.5l152,0" class="g6_80" />
<path d="M459.5,384.5l0,-48" class="g6_80" />
<path d="M572.5,384.5l0,-48" class="g6_80" />
<path d="M460.5,336.5l113,0" class="g6_80" />
<path d="M572.5,384.5l0,-48" class="g6_80" />
<path d="M655.5,385.5l0,-50" class="g6_80" />
<path d="M573.5,336.5l82,0" class="g6_80" />
<path d="M655.5,384.5l0,-48" class="g6_80" />
<path d="M902.5,385.5l0,-50" class="g6_80" />
<path d="M655.5,336.5l248,0" class="g6_80" />
<path d="M307.5,458.5l0,-75" class="g6_80" />
<path d="M307.5,458.5l153,0" class="g6_80" />
<path d="M459.5,457.5l0,-73" class="g6_80" />
<path d="M308.5,385.5l152,0" class="g6_80" />
<path d="M459.5,457.5l0,-73" class="g6_80" />
<path d="M459.5,458.5l114,0" class="g6_80" />
<path d="M572.5,457.5l0,-73" class="g6_80" />
<path d="M460.5,385.5l113,0" class="g6_80" />
<path d="M572.5,457.5l0,-73" class="g6_80" />
<path d="M572.5,458.5l84,0" class="g6_80" />
<path d="M655.5,458.5l0,-75" class="g6_80" />
<path d="M573.5,385.5l82,0" class="g6_80" />
<path d="M655.5,457.5l0,-73" class="g6_80" />
<path d="M655.5,458.5l248,0" class="g6_80" />
<path d="M902.5,458.5l0,-75" class="g6_80" />
<path d="M655.5,385.5l248,0" class="g6_80" />
<path fill-rule="evenodd" d="M980.8,19.1l0,-0.3l0,-0.5l0,-0.3L981,17.9l0,-0.3l0.1,-0.5l0,-0.3l0.2,-0.1l0.1,-0.4L981.6,16l0.1,-0.3l0.4,-0.3l0.1,-0.3L982.4,15l0.3,-0.3l0.1,-0.2l0.3,-0.1l0.2,-0.3l0.3,-0.2l0.3,-0.1l0.3,-0.2l0.3,-0.2l0.2,-0.1l0.3,0l0.4,-0.2l0.3,0L986,13l0.3,0l0.3,0l0.3,0l189.5,0l0.3,0l0.3,0l0.3,0l0.3,0.1l0.3,0l0.3,0.2l0.3,0.1l0.3,0l0.3,0.2l0.3,0.2l0.2,0.1l0.3,0.2l0.3,0.3l0.2,0.1l0.3,0.3l0.1,0.2l0.3,0.3l0.2,0.1l0.1,0.3l0.2,0.3l0.1,0.3l0.2,0.4L1182,17l0,0.3l0.2,0.3l0.1,0.3l0,0.1l0,0.3l0,0.5l0,0.3l0.2,24.4l0,0.3l-0.2,0.4l0,0.3l0,0.3l-0.1,0.3l0,0.3l-0.2,0.3l-0.1,0.3l-0.2,0.3l-0.1,0.1l-0.2,0.3l-0.1,0.4l-0.2,0.3l-0.3,0.1l-0.1,0.3l-0.3,0.2l-0.2,0.1l-0.3,0.3l-0.3,0.2l-0.2,0.1l-0.3,0.2l-0.3,0.1l-0.3,0.2l-0.3,0l-0.3,0.1l-0.3,0l-0.3,0.2l-0.3,0l-0.3,0l-0.3,0L986.9,49.7l-0.3,0l-0.3,-0.2l-0.3,0l-0.3,0l-0.3,-0.2l-0.4,0l-0.3,-0.1L984.5,49l-0.3,-0.1l-0.3,-0.2l-0.3,-0.1l-0.3,-0.2l-0.2,-0.1L982.8,48l-0.1,-0.2l-0.3,-0.3l-0.2,-0.1l-0.1,-0.3l-0.4,-0.4l-0.1,-0.1l-0.2,-0.3L981.3,46l-0.2,-0.3l0,-0.3L981,45.1l0,-0.3l-0.2,-0.3l0,-0.3l0,-0.4l0,-0.3l0,-24.4Z" class="g1_80" />
<path d="M980.8,19.1l0,-0.3l0,-0.5l0,-0.3L981,17.9l0,-0.3l0.1,-0.5l0,-0.3l0.2,-0.1l0.1,-0.4L981.6,16l0.1,-0.3l0.4,-0.3l0.1,-0.3L982.4,15l0.3,-0.3l0.1,-0.2l0.3,-0.1l0.2,-0.3l0.3,-0.2l0.3,-0.1l0.3,-0.2l0.3,-0.2l0.2,-0.1l0.3,0l0.4,-0.2l0.3,0L986,13l0.3,0l0.3,0l0.3,0l189.5,0l0.3,0l0.3,0l0.3,0l0.3,0.1l0.3,0l0.3,0.2l0.3,0.1l0.3,0l0.3,0.2l0.3,0.2l0.2,0.1l0.3,0.2l0.3,0.3l0.2,0.1l0.3,0.3l0.1,0.2l0.3,0.3l0.2,0.1l0.1,0.3l0.2,0.3l0.1,0.3l0.2,0.4L1182,17l0,0.3l0.2,0.3l0.1,0.3l0,0.1l0,0.3l0,0.5l0,0.3l0.2,24.4l0,0.3l-0.2,0.4l0,0.3l0,0.3l-0.1,0.3l0,0.3l-0.2,0.3l-0.1,0.3l-0.2,0.3l-0.1,0.1l-0.2,0.3l-0.1,0.4l-0.2,0.3l-0.3,0.1l-0.1,0.3l-0.3,0.2l-0.2,0.1l-0.3,0.3l-0.3,0.2l-0.2,0.1l-0.3,0.2l-0.3,0.1l-0.3,0.2l-0.3,0l-0.3,0.1l-0.3,0l-0.3,0.2l-0.3,0l-0.3,0l-0.3,0L986.9,49.7l-0.3,0l-0.3,-0.2l-0.3,0l-0.3,0l-0.3,-0.2l-0.4,0l-0.3,-0.1L984.5,49l-0.3,-0.1l-0.3,-0.2l-0.3,-0.1l-0.3,-0.2l-0.2,-0.1L982.8,48l-0.1,-0.2l-0.3,-0.3l-0.2,-0.1l-0.1,-0.3l-0.4,-0.4l-0.1,-0.1l-0.2,-0.3L981.3,46l-0.2,-0.3l0,-0.3L981,45.1l0,-0.3l-0.2,-0.3l0,-0.3l0,-0.4l0,-0.3l0,-24.4Z" class="g7_80" />
</svg>