<?xml version="1.0" encoding="UTF-8" standalone="no"?>
<!DOCTYPE svg PUBLIC "-//W3C//DTD SVG 1.1//EN"
"http://www.w3.org/Graphics/SVG/1.1/DTD/svg11.dtd">
<svg viewBox="0 0 1210 1045" version="1.1" xmlns="http://www.w3.org/2000/svg" xmlns:xlink="http://www.w3.org/1999/xlink">
<defs>
<style type="text/css"><![CDATA[
.g2_21{
fill: none;
stroke: #418AB3;
stroke-width: 2;
stroke-linecap: butt;
stroke-linejoin: miter;
stroke-miterlimit: 7;
}
.g1_21{
fill: #FFFFFF;
}
]]></style>
</defs>
<path fill-rule="evenodd" d="M0,0L1210,0l0,1045L0,1045L0,0Z" class="g1_21" />
<path fill-rule="evenodd" d="M0,0L1210,0l0,1045L0,1045L0,0Z" class="g1_21" />
<image x="828" y="984" width="334" height="49" xlink:href="img/1.png" />
<path fill-rule="evenodd" d="M980.8,10.5l0,-0.3l0,-0.4l0,-0.3L981,9.2l0,-0.3l0.1,-0.3l0,-0.3l0.2,-0.4l0.1,-0.3l0.2,-0.3l0.1,-0.1l0.4,-0.3l0.1,-0.3l0.2,-0.2l0.3,-0.3L982.8,6l0.3,-0.3l0.2,-0.2l0.3,-0.2l0.3,-0.1L984.2,5l0.3,-0.1l0.2,-0.2l0.3,0l0.4,-0.1l0.3,-0.2l0.3,0l0.3,0l0.3,0l0.3,0l189.5,0l0.3,0l0.3,0l0.3,0l0.3,0l0.3,0.2l0.3,0.1l0.3,0l0.3,0.2l0.3,0.1l0.3,0.2l0.2,0.1l0.3,0.2l0.3,0.3l0.2,0.2l0.3,0.3l0.1,0.1l0.3,0.3l0.2,0.2l0.1,0.3l0.2,0.3l0.1,0.1l0.2,0.3l0.1,0.4l0,0.3l0.2,0.3l0.1,0.3l0,0.3l0,0.3l0,0.4l0,0.3l0.2,24.3l0,0.3l-0.2,0.5l0,0.3l0,0.3l-0.1,0.3l0,0.3l-0.2,0.3l-0.1,0.3l-0.2,0.3l-0.1,0.2l-0.2,0.3l-0.1,0.3l-0.2,0.2l-0.3,0.3l-0.1,0.3l-0.3,0.1l-0.2,0.2l-0.3,0.3l-0.3,0.1l-0.2,0.2l-0.3,0.1l-0.3,0.2l-0.3,0.1l-0.3,0l-0.3,0.2l-0.3,0l-0.3,0.1l-0.3,0l-0.3,0l-0.3,0L986.9,41.1l0,-0.2l-0.3,0l-0.3,0l-0.3,0l-0.3,0l-0.3,-0.1L985,40.6l-0.3,0l-0.2,-0.1l-0.3,-0.2l-0.3,-0.1L983.6,40l-0.3,-0.1l-0.2,-0.2l-0.3,-0.3l-0.1,-0.1L982.4,39l-0.2,-0.2l-0.1,-0.3l-0.4,-0.3L981.6,38l-0.2,-0.3l-0.1,-0.3l-0.2,-0.3l0,-0.3L981,36.5l0,-0.3l-0.2,-0.3l0,-0.3l0,-0.5l0,-0.3l0,-24.3Z" class="g1_21" />
<path d="M980.8,10.5l0,-0.3l0,-0.4l0,-0.3L981,9.2l0,-0.3l0.1,-0.3l0,-0.3l0.2,-0.4l0.1,-0.3l0.2,-0.3l0.1,-0.1l0.4,-0.3l0.1,-0.3l0.2,-0.2l0.3,-0.3L982.8,6l0.3,-0.3l0.2,-0.2l0.3,-0.2l0.3,-0.1L984.2,5l0.3,-0.1l0.2,-0.2l0.3,0l0.4,-0.1l0.3,-0.2l0.3,0l0.3,0l0.3,0l0.3,0l189.5,0l0.3,0l0.3,0l0.3,0l0.3,0l0.3,0.2l0.3,0.1l0.3,0l0.3,0.2l0.3,0.1l0.3,0.2l0.2,0.1l0.3,0.2l0.3,0.3l0.2,0.2l0.3,0.3l0.1,0.1l0.3,0.3l0.2,0.2l0.1,0.3l0.2,0.3l0.1,0.1l0.2,0.3l0.1,0.4l0,0.3l0.2,0.3l0.1,0.3l0,0.3l0,0.3l0,0.4l0,0.3l0.2,24.3l0,0.3l-0.2,0.5l0,0.3l0,0.3l-0.1,0.3l0,0.3l-0.2,0.3l-0.1,0.3l-0.2,0.3l-0.1,0.2l-0.2,0.3l-0.1,0.3l-0.2,0.2l-0.3,0.3l-0.1,0.3l-0.3,0.1l-0.2,0.2l-0.3,0.3l-0.3,0.1l-0.2,0.2l-0.3,0.1l-0.3,0.2l-0.3,0.1l-0.3,0l-0.3,0.2l-0.3,0l-0.3,0.1l-0.3,0l-0.3,0l-0.3,0L986.9,41.1l0,-0.2l-0.3,0l-0.3,0l-0.3,0l-0.3,0l-0.3,-0.1L985,40.6l-0.3,0l-0.2,-0.1l-0.3,-0.2l-0.3,-0.1L983.6,40l-0.3,-0.1l-0.2,-0.2l-0.3,-0.3l-0.1,-0.1L982.4,39l-0.2,-0.2l-0.1,-0.3l-0.4,-0.3L981.6,38l-0.2,-0.3l-0.1,-0.3l-0.2,-0.3l0,-0.3L981,36.5l0,-0.3l-0.2,-0.3l0,-0.3l0,-0.5l0,-0.3l0,-24.3Z" class="g2_21" />
</svg>