<?xml version="1.0" encoding="UTF-8" standalone="no"?>
<!DOCTYPE svg PUBLIC "-//W3C//DTD SVG 1.1//EN"
"http://www.w3.org/Graphics/SVG/1.1/DTD/svg11.dtd">
<svg viewBox="0 0 1100 825" version="1.1" xmlns="http://www.w3.org/2000/svg" xmlns:xlink="http://www.w3.org/1999/xlink">
<defs>
<style type="text/css"><![CDATA[
.g2_1{
fill: #5B9BD5;
}
.g4_1{
fill: #C4D4EB;
}
.g3_1{
fill: none;
stroke: #FFFFFF;
stroke-width: 2;
stroke-linecap: butt;
stroke-linejoin: miter;
stroke-miterlimit: 7;
}
.g1_1{
fill: #FFFFFF;
}
]]></style>
</defs>
<path fill-rule="evenodd" d="M0,0L1100,0l0,825L0,825L0,0Z" class="g1_1" />
<path fill-rule="evenodd" d="M0,0L1100,0l0,825L0,825L0,0Z" class="g1_1" />
<path fill-rule="evenodd" d="M90.1,28.1c0,-5.9,4.3,-10.5,9.5,-10.5l790.3,0c5.2,0,9.5,4.6,9.5,10.5l0,85c0,5.8,-4.3,10.7,-9.5,10.7l-790.3,0c-5.2,0,-9.5,-4.9,-9.5,-10.7l0,-85Z" class="g2_1" />
<path d="M90.1,28.1c0,-5.9,4.3,-10.5,9.5,-10.5l790.3,0c5.2,0,9.5,4.6,9.5,10.5l0,85c0,5.8,-4.3,10.7,-9.5,10.7l-790.3,0c-5.2,0,-9.5,-4.9,-9.5,-10.7l0,-85Z" class="g3_1" />
<path fill-rule="evenodd" d="M90.1,139.8c0,-7,4.3,-12.7,9.5,-12.7l790.3,0c5.2,0,9.5,5.7,9.5,12.7l0,102.4c0,7,-4.3,12.8,-9.5,12.8L99.6,255c-5.2,0,-9.5,-5.8,-9.5,-12.8l0,-102.4Z" class="g2_1" />
<path d="M90.1,139.8c0,-7,4.3,-12.7,9.5,-12.7l790.3,0c5.2,0,9.5,5.7,9.5,12.7l0,102.4c0,7,-4.3,12.8,-9.5,12.8L99.6,255c-5.2,0,-9.5,-5.8,-9.5,-12.8l0,-102.4Z" class="g3_1" />
<path fill-rule="evenodd" d="M99.5,154.2l0,-0.7l0,-0.7l0.1,-0.6l0.2,-0.8l0,-0.6l0.3,-0.8l0.1,-0.6l0.3,-0.6l0.3,-0.6l0.3,-0.6l0.3,-0.6l0.5,-0.6l0.5,-0.5l0.4,-0.6l0.5,-0.5l0.4,-0.4l0.6,-0.5l0.5,-0.4l0.6,-0.3l0.6,-0.5l0.6,-0.3l0.6,-0.3l0.7,-0.3l0.6,-0.2l0.7,-0.1l0.6,-0.2l0.8,-0.1l0.6,-0.2l0.8,0l0.6,0l136.1,0l0.6,0l0.8,0l0.8,0.2l0.6,0.1l0.6,0.2l0.7,0.1l0.7,0.3l0.6,0.2l0.6,0.3l0.6,0.3l0.6,0.5l0.6,0.3l0.5,0.4l0.6,0.5l0.4,0.4l0.5,0.6l0.5,0.5l0.4,0.5l0.5,0.6l0.3,0.6l0.3,0.6l0.3,0.6l0.3,0.8l0.2,0.6l0.3,0.6l0,0.8l0.1,0.6l0.2,0.6l0,0.7l0,0.7l0.1,75.7l0,0.8l-0.1,0.8l0,0.6l-0.2,0.6l-0.1,0.7l-0.3,0.7l-0.2,0.6l-0.3,0.7l-0.3,0.6l-0.3,0.7l-0.3,0.6l-0.5,0.4l-0.4,0.6l-0.5,0.5l-0.5,0.6l-0.4,0.5l-0.6,0.4l-0.5,0.3l-0.6,0.5l-0.6,0.3l-0.6,0.4l-0.6,0.4l-0.6,0.1l-0.7,0.3l-0.7,0.2l-0.6,0.1l-0.6,0.2l-0.8,0l-0.8,0.1l-0.6,0l-136.1,0.2l0,-0.2l-0.6,0l-0.8,0l-0.6,-0.1l-0.8,-0.2l-0.6,-0.1l-0.7,-0.2l-0.6,-0.1l-0.7,-0.3l-0.6,-0.4L106,241.5l-0.6,-0.4l-0.6,-0.3l-0.5,-0.5l-0.6,-0.4l-0.4,-0.5l-0.5,-0.5l-0.4,-0.6l-0.5,-0.4l-0.5,-0.6l-0.3,-0.6L100.8,236l-0.3,-0.6l-0.3,-0.6l-0.1,-0.7l-0.3,-0.7l0,-0.6l-0.2,-0.7l-0.1,-0.6l0,-0.8l0,-0.8l0,-75.7Z" class="g4_1" />
<path d="M99.5,154.2l0,-0.7l0,-0.7l0.1,-0.6l0.2,-0.8l0,-0.6l0.3,-0.8l0.1,-0.6l0.3,-0.6l0.3,-0.6l0.3,-0.6l0.3,-0.6l0.5,-0.6l0.5,-0.5l0.4,-0.6l0.5,-0.5l0.4,-0.4l0.6,-0.5l0.5,-0.4l0.6,-0.3l0.6,-0.5l0.6,-0.3l0.6,-0.3l0.7,-0.3l0.6,-0.2l0.7,-0.1l0.6,-0.2l0.8,-0.1l0.6,-0.2l0.8,0l0.6,0l136.1,0l0.6,0l0.8,0l0.8,0.2l0.6,0.1l0.6,0.2l0.7,0.1l0.7,0.3l0.6,0.2l0.6,0.3l0.6,0.3l0.6,0.5l0.6,0.3l0.5,0.4l0.6,0.5l0.4,0.4l0.5,0.6l0.5,0.5l0.4,0.5l0.5,0.6l0.3,0.6l0.3,0.6l0.3,0.6l0.3,0.8l0.2,0.6l0.3,0.6l0,0.8l0.1,0.6l0.2,0.6l0,0.7l0,0.7l0.1,75.7l0,0.8l-0.1,0.8l0,0.6l-0.2,0.6l-0.1,0.7l-0.3,0.7l-0.2,0.6l-0.3,0.7l-0.3,0.6l-0.3,0.7l-0.3,0.6l-0.5,0.4l-0.4,0.6l-0.5,0.5l-0.5,0.6l-0.4,0.5l-0.6,0.4l-0.5,0.3l-0.6,0.5l-0.6,0.3l-0.6,0.4l-0.6,0.4l-0.6,0.1l-0.7,0.3l-0.7,0.2l-0.6,0.1l-0.6,0.2l-0.8,0l-0.8,0.1l-0.6,0l-136.1,0.2l0,-0.2l-0.6,0l-0.8,0l-0.6,-0.1l-0.8,-0.2l-0.6,-0.1l-0.7,-0.2l-0.6,-0.1l-0.7,-0.3l-0.6,-0.4L106,241.5l-0.6,-0.4l-0.6,-0.3l-0.5,-0.5l-0.6,-0.4l-0.4,-0.5l-0.5,-0.5l-0.4,-0.6l-0.5,-0.4l-0.5,-0.6l-0.3,-0.6L100.8,236l-0.3,-0.6l-0.3,-0.6l-0.1,-0.7l-0.3,-0.7l0,-0.6l-0.2,-0.7l-0.1,-0.6l0,-0.8l0,-0.8l0,-75.7Z" class="g3_1" />
<path fill-rule="evenodd" d="M90.1,277.7c0,-10.3,4.3,-18.7,9.5,-18.7l790.3,0c5.2,0,9.5,8.4,9.5,18.7l0,150.4c0,10.4,-4.3,18.8,-9.5,18.8l-790.3,0c-5.2,0,-9.5,-8.4,-9.5,-18.8l0,-150.4Z" class="g2_1" />
<path d="M90.1,277.7c0,-10.3,4.3,-18.7,9.5,-18.7l790.3,0c5.2,0,9.5,8.4,9.5,18.7l0,150.4c0,10.4,-4.3,18.8,-9.5,18.8l-790.3,0c-5.2,0,-9.5,-8.4,-9.5,-18.8l0,-150.4Z" class="g3_1" />
<path fill-rule="evenodd" d="M99.5,296.5l0,-1l0,-0.9l0.1,-1.1l0.2,-0.9l0.3,-0.9l0.3,-1.1l0.3,-0.9l0.3,-0.9l0.4,-1l0.5,-0.7l0.6,-0.9l0.5,-0.8l0.6,-0.9l0.7,-0.6l0.7,-0.8l0.7,-0.8l0.6,-0.6l0.9,-0.6l0.8,-0.4l0.9,-0.7l0.8,-0.4l0.9,-0.5l0.9,-0.3l0.9,-0.4l1.1,-0.2l0.9,-0.3l0.9,-0.2l1.1,-0.1l0.9,0l1.1,-0.2l124.7,0l0.9,0.2l1.1,0l0.9,0.1l0.9,0.2l1.1,0.3l0.9,0.3l0.9,0.3l0.9,0.3l0.9,0.5l0.9,0.4l0.8,0.7l0.8,0.4l0.7,0.6l0.8,0.6l0.8,0.8l0.7,0.8l0.6,0.7l0.6,0.8l0.7,0.8l0.4,0.9l0.5,0.7l0.4,1l0.3,0.9l0.3,0.9l0.4,1.1l0.3,0.9l0.1,0.9l0.2,1.1l0,0.9l0,1L262,405l-0.1,0.9l0,1.1l-0.2,0.9l-0.1,1.1l-0.3,0.9l-0.4,0.9l-0.3,0.9l-0.3,1l-0.4,0.9l-0.5,0.9l-0.4,0.7l-0.7,1l-0.6,0.7l-0.6,0.8l-0.7,0.8l-0.7,0.6l-0.9,0.6l-0.7,0.6l-0.8,0.6l-0.8,0.5l-0.9,0.4l-0.9,0.5l-0.9,0.4l-0.9,0.3l-0.9,0.3l-1.1,0.2l-0.9,0.2l-0.9,0.1L244,424l-0.9,0l-124.7,0l-1.1,0l-0.9,0l-1.1,-0.2l-0.9,-0.3l-0.9,-0.2L112.4,423l-0.9,-0.3l-0.9,-0.4L109.7,422l-0.8,-0.6L108,420.9l-0.8,-0.6l-0.9,-0.6l-0.6,-0.6L105,418.5l-0.7,-0.8l-0.7,-0.8L103,416.2l-0.5,-0.8l-0.6,-0.9l-0.5,-0.9L101,412.7l-0.3,-1l-0.3,-0.9l-0.3,-0.9L99.8,409l-0.2,-0.9L99.5,407l0,-1.1l0,-0.9l0,-108.5Z" class="g4_1" />
<path d="M99.5,296.5l0,-1l0,-0.9l0.1,-1.1l0.2,-0.9l0.3,-0.9l0.3,-1.1l0.3,-0.9l0.3,-0.9l0.4,-1l0.5,-0.7l0.6,-0.9l0.5,-0.8l0.6,-0.9l0.7,-0.6l0.7,-0.8l0.7,-0.8l0.6,-0.6l0.9,-0.6l0.8,-0.4l0.9,-0.7l0.8,-0.4l0.9,-0.5l0.9,-0.3l0.9,-0.4l1.1,-0.2l0.9,-0.3l0.9,-0.2l1.1,-0.1l0.9,0l1.1,-0.2l124.7,0l0.9,0.2l1.1,0l0.9,0.1l0.9,0.2l1.1,0.3l0.9,0.3l0.9,0.3l0.9,0.3l0.9,0.5l0.9,0.4l0.8,0.7l0.8,0.4l0.7,0.6l0.8,0.6l0.8,0.8l0.7,0.8l0.6,0.7l0.6,0.8l0.7,0.8l0.4,0.9l0.5,0.7l0.4,1l0.3,0.9l0.3,0.9l0.4,1.1l0.3,0.9l0.1,0.9l0.2,1.1l0,0.9l0,1L262,405l-0.1,0.9l0,1.1l-0.2,0.9l-0.1,1.1l-0.3,0.9l-0.4,0.9l-0.3,0.9l-0.3,1l-0.4,0.9l-0.5,0.9l-0.4,0.7l-0.7,1l-0.6,0.7l-0.6,0.8l-0.7,0.8l-0.7,0.6l-0.9,0.6l-0.7,0.6l-0.8,0.6l-0.8,0.5l-0.9,0.4l-0.9,0.5l-0.9,0.4l-0.9,0.3l-0.9,0.3l-1.1,0.2l-0.9,0.2l-0.9,0.1L244,424l-0.9,0l-124.7,0l-1.1,0l-0.9,0l-1.1,-0.2l-0.9,-0.3l-0.9,-0.2L112.4,423l-0.9,-0.3l-0.9,-0.4L109.7,422l-0.8,-0.6L108,420.9l-0.8,-0.6l-0.9,-0.6l-0.6,-0.6L105,418.5l-0.7,-0.8l-0.7,-0.8L103,416.2l-0.5,-0.8l-0.6,-0.9l-0.5,-0.9L101,412.7l-0.3,-1l-0.3,-0.9l-0.3,-0.9L99.8,409l-0.2,-0.9L99.5,407l0,-1.1l0,-0.9l0,-108.5Z" class="g3_1" />
<path fill-rule="evenodd" d="M90.1,460c0,-5.8,4.3,-10.4,9.5,-10.4l790.3,0c5.2,0,9.5,4.6,9.5,10.4l0,83.3c0,5.8,-4.3,10.5,-9.5,10.5l-790.3,0c-5.2,0,-9.5,-4.7,-9.5,-10.5l0,-83.3Z" class="g2_1" />
<path d="M90.1,460c0,-5.8,4.3,-10.4,9.5,-10.4l790.3,0c5.2,0,9.5,4.6,9.5,10.4l0,83.3c0,5.8,-4.3,10.5,-9.5,10.5l-790.3,0c-5.2,0,-9.5,-4.7,-9.5,-10.5l0,-83.3Z" class="g3_1" />
<path fill-rule="evenodd" d="M99.5,474.8l0,-0.4l0,-0.6l0,-0.5l0.1,-0.5l0.2,-0.6l0.1,-0.4l0.2,-0.5l0.1,-0.4l0.2,-0.5l0.3,-0.5l0.3,-0.3l0.3,-0.4l0.3,-0.5l0.3,-0.3l0.3,-0.4l0.5,-0.3l0.3,-0.4l0.4,-0.3l0.3,-0.3l0.5,-0.3l0.5,-0.3l0.4,-0.1l0.5,-0.2l0.4,-0.1l0.5,-0.2l0.6,-0.1l0.5,0l0.4,-0.2l0.5,0l0.6,0l143.1,0l0.6,0l0.5,0l0.5,0.2l0.6,0l0.4,0.1l0.5,0.2l0.4,0.1l0.5,0.2l0.5,0.3l0.4,0.1l0.5,0.3L258,467l0.3,0.3l0.5,0.4l0.3,0.3l0.3,0.4l0.5,0.3l0.1,0.5l0.3,0.4l0.3,0.3l0.3,0.5l0.2,0.5l0.2,0.4l0.1,0.5l0.2,0.4l0.1,0.6l0.2,0.5l0,0.5l0,0.6l0,0.4l0.1,55.5l0,0.4l0,0.7l-0.1,0.4l0,0.5l-0.2,0.4l-0.1,0.6l-0.2,0.5l-0.3,0.5l-0.2,0.4l-0.3,0.3l-0.1,0.5l-0.3,0.4l-0.3,0.5l-0.3,0.3l-0.5,0.5l-0.3,0.3l-0.5,0.3l-0.3,0.3l-0.4,0.3l-0.5,0.1l-0.4,0.3l-0.5,0.4l-0.5,0.1l-0.4,0.2l-0.5,0.1l-0.4,0.2l-0.6,0l-0.5,0.1l-0.5,0l-0.6,0l-143.1,0.2l-0.6,0L108,539.9l-0.4,0l-0.5,-0.1l-0.6,-0.2L106,539.5l-0.4,-0.2l-0.5,-0.1L104.7,539l-0.5,-0.3l-0.5,-0.3l-0.3,-0.3L103,537.8l-0.3,-0.3l-0.5,-0.3l-0.3,-0.3l-0.3,-0.5l-0.3,-0.5L101,535.6l-0.3,-0.4l-0.3,-0.5l-0.2,-0.4l-0.1,-0.5l-0.2,-0.5l-0.1,-0.6l-0.2,-0.4l-0.1,-0.5l0,-0.4l0,-0.7l0,-0.4l0,-55.5Z" class="g4_1" />
<path d="M99.5,474.8l0,-0.4l0,-0.6l0,-0.5l0.1,-0.5l0.2,-0.6l0.1,-0.4l0.2,-0.5l0.1,-0.4l0.2,-0.5l0.3,-0.5l0.3,-0.3l0.3,-0.4l0.3,-0.5l0.3,-0.3l0.3,-0.4l0.5,-0.3l0.3,-0.4l0.4,-0.3l0.3,-0.3l0.5,-0.3l0.5,-0.3l0.4,-0.1l0.5,-0.2l0.4,-0.1l0.5,-0.2l0.6,-0.1l0.5,0l0.4,-0.2l0.5,0l0.6,0l143.1,0l0.6,0l0.5,0l0.5,0.2l0.6,0l0.4,0.1l0.5,0.2l0.4,0.1l0.5,0.2l0.5,0.3l0.4,0.1l0.5,0.3L258,467l0.3,0.3l0.5,0.4l0.3,0.3l0.3,0.4l0.5,0.3l0.1,0.5l0.3,0.4l0.3,0.3l0.3,0.5l0.2,0.5l0.2,0.4l0.1,0.5l0.2,0.4l0.1,0.6l0.2,0.5l0,0.5l0,0.6l0,0.4l0.1,55.5l0,0.4l0,0.7l-0.1,0.4l0,0.5l-0.2,0.4l-0.1,0.6l-0.2,0.5l-0.3,0.5l-0.2,0.4l-0.3,0.3l-0.1,0.5l-0.3,0.4l-0.3,0.5l-0.3,0.3l-0.5,0.5l-0.3,0.3l-0.5,0.3l-0.3,0.3l-0.4,0.3l-0.5,0.1l-0.4,0.3l-0.5,0.4l-0.5,0.1l-0.4,0.2l-0.5,0.1l-0.4,0.2l-0.6,0l-0.5,0.1l-0.5,0l-0.6,0l-143.1,0.2l-0.6,0L108,539.9l-0.4,0l-0.5,-0.1l-0.6,-0.2L106,539.5l-0.4,-0.2l-0.5,-0.1L104.7,539l-0.5,-0.3l-0.5,-0.3l-0.3,-0.3L103,537.8l-0.3,-0.3l-0.5,-0.3l-0.3,-0.3l-0.3,-0.5l-0.3,-0.5L101,535.6l-0.3,-0.4l-0.3,-0.5l-0.2,-0.4l-0.1,-0.5l-0.2,-0.5l-0.1,-0.6l-0.2,-0.4l-0.1,-0.5l0,-0.4l0,-0.7l0,-0.4l0,-55.5Z" class="g3_1" />
<path fill-rule="evenodd" d="M100.1,34.7l0,-0.6l0.1,-0.6l0,-0.7l0.2,-0.6l0.1,-0.6L100.7,31l0.1,-0.6l0.3,-0.6l0.3,-0.6l0.3,-0.6l0.4,-0.5l0.3,-0.4L102.8,27l0.3,-0.4l0.5,-0.5L104,25.7l0.7,-0.3l0.4,-0.5l0.5,-0.5l0.6,-0.3l0.4,-0.3l0.6,-0.3l0.7,-0.1l0.6,-0.2l0.6,-0.1l0.6,-0.3l0.6,0l0.8,-0.2l0.4,0l0.8,0l138.3,0l0.6,0l0.6,0l0.6,0.2l0.6,0l0.6,0.3l0.6,0.1l0.6,0.2l0.6,0.3l0.7,0.1l0.4,0.3l0.6,0.5l0.5,0.3l0.4,0.5l0.7,0.3l0.4,0.4l0.5,0.5l0.3,0.4l0.4,0.7l0.3,0.4l0.3,0.6l0.4,0.5l0.3,0.6l0.3,0.6L262,31l0.2,0.6l0.1,0.6l0.2,0.6l0,0.7l0.1,0.6l0,0.6l0,69.8l0,0.6l0,0.6l-0.1,0.6l0,0.6l-0.2,0.8l-0.1,0.6l-0.3,0.5l-0.3,0.6l-0.2,0.6l-0.3,0.6l-0.5,0.5l-0.3,0.6l-0.3,0.4l-0.4,0.5l-0.5,0.5l-0.4,0.4l-0.5,0.5l-0.6,0.3l-0.5,0.4l-0.4,0.3l-0.6,0.3l-0.7,0.4l-0.6,0.1l-0.6,0.2l-0.6,0.3l-0.6,0.1l-0.6,0.2l-0.6,0l-0.6,0l-0.6,0l-138.3,0.1l-0.8,0l-0.4,-0.1l-0.8,0l-0.6,-0.2l-0.6,-0.1l-0.6,-0.2L107.9,116l-0.7,-0.3l-0.6,-0.4L106.2,115l-0.6,-0.3l-0.5,-0.3L104.7,114L104,113.7l-0.4,-0.6l-0.5,-0.4l-0.3,-0.6l-0.4,-0.4l-0.3,-0.5l-0.4,-0.6L101.4,110l-0.3,-0.5l-0.3,-0.6l-0.1,-0.6l-0.2,-0.6l-0.1,-0.6l-0.2,-0.8l0,-0.6l-0.1,-0.6l0,-0.6l0,-69.8Z" class="g4_1" />
<path d="M100.1,34.7l0,-0.6l0.1,-0.6l0,-0.7l0.2,-0.6l0.1,-0.6L100.7,31l0.1,-0.6l0.3,-0.6l0.3,-0.6l0.3,-0.6l0.4,-0.5l0.3,-0.4L102.8,27l0.3,-0.4l0.5,-0.5L104,25.7l0.7,-0.3l0.4,-0.5l0.5,-0.5l0.6,-0.3l0.4,-0.3l0.6,-0.3l0.7,-0.1l0.6,-0.2l0.6,-0.1l0.6,-0.3l0.6,0l0.8,-0.2l0.4,0l0.8,0l138.3,0l0.6,0l0.6,0l0.6,0.2l0.6,0l0.6,0.3l0.6,0.1l0.6,0.2l0.6,0.3l0.7,0.1l0.4,0.3l0.6,0.5l0.5,0.3l0.4,0.5l0.7,0.3l0.4,0.4l0.5,0.5l0.3,0.4l0.4,0.7l0.3,0.4l0.3,0.6l0.4,0.5l0.3,0.6l0.3,0.6L262,31l0.2,0.6l0.1,0.6l0.2,0.6l0,0.7l0.1,0.6l0,0.6l0,69.8l0,0.6l0,0.6l-0.1,0.6l0,0.6l-0.2,0.8l-0.1,0.6l-0.3,0.5l-0.3,0.6l-0.2,0.6l-0.3,0.6l-0.5,0.5l-0.3,0.6l-0.3,0.4l-0.4,0.5l-0.5,0.5l-0.4,0.4l-0.5,0.5l-0.6,0.3l-0.5,0.4l-0.4,0.3l-0.6,0.3l-0.7,0.4l-0.6,0.1l-0.6,0.2l-0.6,0.3l-0.6,0.1l-0.6,0.2l-0.6,0l-0.6,0l-0.6,0l-138.3,0.1l-0.8,0l-0.4,-0.1l-0.8,0l-0.6,-0.2l-0.6,-0.1l-0.6,-0.2L107.9,116l-0.7,-0.3l-0.6,-0.4L106.2,115l-0.6,-0.3l-0.5,-0.3L104.7,114L104,113.7l-0.4,-0.6l-0.5,-0.4l-0.3,-0.6l-0.4,-0.4l-0.3,-0.5l-0.4,-0.6L101.4,110l-0.3,-0.5l-0.3,-0.6l-0.1,-0.6l-0.2,-0.6l-0.1,-0.6l-0.2,-0.8l0,-0.6l-0.1,-0.6l0,-0.6l0,-69.8Z" class="g3_1" />
</svg>