<?xml version="1.0" encoding="UTF-8" standalone="no"?>
<!DOCTYPE svg PUBLIC "-//W3C//DTD SVG 1.1//EN"
"http://www.w3.org/Graphics/SVG/1.1/DTD/svg11.dtd">
<svg viewBox="0 0 1210 1045" version="1.1" xmlns="http://www.w3.org/2000/svg" xmlns:xlink="http://www.w3.org/1999/xlink">
<defs>
<style type="text/css"><![CDATA[
.g2_61{
fill: #418AB3;
}
.g5_61{
fill: none;
stroke: #FFFFFF;
stroke-width: 1;
stroke-linecap: butt;
stroke-linejoin: miter;
}
.g3_61{
fill: #CEDAE4;
}
.g4_61{
fill: #E8EDF2;
}
.g1_61{
fill: #FFFFFF;
}
]]></style>
</defs>
<path fill-rule="evenodd" d="M0,0L1210,0l0,1045L0,1045L0,0Z" class="g1_61" />
<path fill-rule="evenodd" d="M0,0L1210,0l0,1045L0,1045L0,0Z" class="g1_61" />
<image x="828" y="984" width="334" height="49" xlink:href="img/1.png" />
<path fill-rule="evenodd" d="M231,111l183,0l0,52l-183,0l0,-52Z" class="g2_61" />
<path fill-rule="evenodd" d="M414,111l163,0l0,52l-163,0l0,-52Z" class="g2_61" />
<path fill-rule="evenodd" d="M577,111l273,0l0,52l-273,0l0,-52Z" class="g2_61" />
<path fill-rule="evenodd" d="M850,111l128,0l0,52l-128,0l0,-52Z" class="g2_61" />
<path fill-rule="evenodd" d="M231,163l183,0l0,30l-183,0l0,-30Z" class="g3_61" />
<path fill-rule="evenodd" d="M414,163l163,0l0,30l-163,0l0,-30Z" class="g3_61" />
<path fill-rule="evenodd" d="M577,163l273,0l0,30l-273,0l0,-30Z" class="g3_61" />
<path fill-rule="evenodd" d="M850,163l128,0l0,30l-128,0l0,-30Z" class="g3_61" />
<path fill-rule="evenodd" d="M231,193l183,0l0,30l-183,0l0,-30Z" class="g4_61" />
<path fill-rule="evenodd" d="M414,193l163,0l0,30l-163,0l0,-30Z" class="g4_61" />
<path fill-rule="evenodd" d="M577,193l273,0l0,30l-273,0l0,-30Z" class="g4_61" />
<path fill-rule="evenodd" d="M850,193l128,0l0,30l-128,0l0,-30Z" class="g4_61" />
<path fill-rule="evenodd" d="M231,223l183,0l0,31l-183,0l0,-31Z" class="g3_61" />
<path fill-rule="evenodd" d="M414,223l163,0l0,31l-163,0l0,-31Z" class="g3_61" />
<path fill-rule="evenodd" d="M577,223l273,0l0,31l-273,0l0,-31Z" class="g3_61" />
<path fill-rule="evenodd" d="M850,223l128,0l0,31l-128,0l0,-31Z" class="g3_61" />
<path d="M230.5,164.5l0,-54" class="g5_61" />
<path d="M414.5,163.5l0,-52" class="g5_61" />
<path d="M230.5,111.5l185,0" class="g5_61" />
<path d="M414.5,163.5l0,-52" class="g5_61" />
<path d="M577.5,163.5l0,-52" class="g5_61" />
<path d="M414.5,111.5l164,0" class="g5_61" />
<path d="M577.5,163.5l0,-52" class="g5_61" />
<path d="M850.5,164.5l0,-54" class="g5_61" />
<path d="M577.5,111.5l274,0" class="g5_61" />
<path d="M850.5,163.5l0,-52" class="g5_61" />
<path d="M977.5,164.5l0,-54" class="g5_61" />
<path d="M850.5,111.5l128,0" class="g5_61" />
<path d="M230.5,194.5l0,-32" class="g5_61" />
<path d="M414.5,193.5l0,-30" class="g5_61" />
<path fill-rule="evenodd" d="M414.8,163.6l-0.8,2l-181.8,0l-0.6,-2l0.6,-2.1l181.8,0l0.8,2.1Z" class="g1_61" />
<path d="M414.5,193.5l0,-30" class="g5_61" />
<path d="M577.5,193.5l0,-30" class="g5_61" />
<path fill-rule="evenodd" d="M577.7,163.6l-0.7,2l-161.6,0l-0.6,-2l0.6,-2.1l161.6,0l0.7,2.1Z" class="g1_61" />
<path d="M577.5,193.5l0,-30" class="g5_61" />
<path d="M850.5,194.5l0,-32" class="g5_61" />
<path fill-rule="evenodd" d="M850.8,163.6l-0.6,2l-271.9,0l-0.6,-2l0.6,-2.1l271.9,0l0.6,2.1Z" class="g1_61" />
<path d="M850.5,193.5l0,-30" class="g5_61" />
<path d="M977.5,194.5l0,-32" class="g5_61" />
<path fill-rule="evenodd" d="M978.2,163.6l-0.6,2l-126.2,0l-0.6,-2l0.6,-2.1l126.2,0l0.6,2.1Z" class="g1_61" />
<path d="M230.5,224.5l0,-31" class="g5_61" />
<path d="M414.5,223.5l0,-30" class="g5_61" />
<path d="M231.5,194.5l183,0" class="g5_61" />
<path d="M414.5,223.5l0,-30" class="g5_61" />
<path d="M577.5,223.5l0,-30" class="g5_61" />
<path d="M414.5,194.5l163,0" class="g5_61" />
<path d="M577.5,223.5l0,-30" class="g5_61" />
<path d="M850.5,224.5l0,-31" class="g5_61" />
<path d="M577.5,194.5l273,0" class="g5_61" />
<path d="M850.5,223.5l0,-30" class="g5_61" />
<path d="M977.5,224.5l0,-31" class="g5_61" />
<path d="M850.5,194.5l128,0" class="g5_61" />
<path d="M230.5,254.5l0,-31" class="g5_61" />
<path d="M230.5,254.5l185,0" class="g5_61" />
<path d="M414.5,254.5l0,-31" class="g5_61" />
<path d="M231.5,224.5l183,0" class="g5_61" />
<path d="M414.5,254.5l0,-31" class="g5_61" />
<path d="M414.5,254.5l164,0" class="g5_61" />
<path d="M577.5,254.5l0,-31" class="g5_61" />
<path d="M414.5,224.5l163,0" class="g5_61" />
<path d="M577.5,254.5l0,-31" class="g5_61" />
<path d="M577.5,254.5l274,0" class="g5_61" />
<path d="M850.5,254.5l0,-31" class="g5_61" />
<path d="M577.5,224.5l273,0" class="g5_61" />
<path d="M850.5,254.5l0,-31" class="g5_61" />
<path d="M850.5,254.5l128,0" class="g5_61" />
<path d="M977.5,254.5l0,-31" class="g5_61" />
<path d="M850.5,224.5l128,0" class="g5_61" />
<path fill-rule="evenodd" d="M157,311l150,0l0,52l-150,0l0,-52Z" class="g2_61" />
<path fill-rule="evenodd" d="M307,311l327,0l0,52l-327,0l0,-52Z" class="g2_61" />
<path fill-rule="evenodd" d="M157,363l150,0l0,31l-150,0l0,-31Z" class="g3_61" />
<path fill-rule="evenodd" d="M307,363l327,0l0,31l-327,0l0,-31Z" class="g3_61" />
<path fill-rule="evenodd" d="M157,394l150,0l0,30l-150,0l0,-30Z" class="g4_61" />
<path fill-rule="evenodd" d="M307,394l327,0l0,30l-327,0l0,-30Z" class="g4_61" />
<path fill-rule="evenodd" d="M157,424l150,0l0,30l-150,0l0,-30Z" class="g3_61" />
<path fill-rule="evenodd" d="M307,424l327,0l0,30l-327,0l0,-30Z" class="g3_61" />
<path fill-rule="evenodd" d="M157,454l150,0l0,30l-150,0l0,-30Z" class="g4_61" />
<path fill-rule="evenodd" d="M307,454l327,0l0,30l-327,0l0,-30Z" class="g4_61" />
<path fill-rule="evenodd" d="M157,484l150,0l0,31l-150,0l0,-31Z" class="g3_61" />
<path fill-rule="evenodd" d="M307,484l327,0l0,31l-327,0l0,-31Z" class="g3_61" />
<path d="M157.5,365.5l0,-54" class="g5_61" />
<path d="M307.5,365.5l0,-54" class="g5_61" />
<path d="M157.5,312.5l151,0" class="g5_61" />
<path d="M307.5,363.5l0,-52" class="g5_61" />
<path d="M633.5,365.5l0,-54" class="g5_61" />
<path d="M307.5,312.5l328,0" class="g5_61" />
<path d="M157.5,394.5l0,-32" class="g5_61" />
<path d="M307.5,394.5l0,-32" class="g5_61" />
<path fill-rule="evenodd" d="M307.8,363.9l-0.6,2l-148.6,0l-0.6,-2l0.6,-2.1l148.6,0l0.6,2.1Z" class="g1_61" />
<path d="M307.5,394.5l0,-31" class="g5_61" />
<path d="M633.5,394.5l0,-32" class="g5_61" />
<path fill-rule="evenodd" d="M634.5,363.9l-0.6,2l-325.4,0l-0.7,-2l0.7,-2.1l325.4,0l0.6,2.1Z" class="g1_61" />
<path d="M157.5,425.5l0,-32" class="g5_61" />
<path d="M307.5,425.5l0,-32" class="g5_61" />
<path d="M157.5,394.5l150,0" class="g5_61" />
<path d="M307.5,424.5l0,-30" class="g5_61" />
<path d="M633.5,425.5l0,-32" class="g5_61" />
<path d="M307.5,394.5l327,0" class="g5_61" />
<path d="M157.5,455.5l0,-32" class="g5_61" />
<path d="M307.5,455.5l0,-32" class="g5_61" />
<path d="M157.5,425.5l150,0" class="g5_61" />
<path d="M307.5,454.5l0,-30" class="g5_61" />
<path d="M633.5,455.5l0,-32" class="g5_61" />
<path d="M307.5,425.5l327,0" class="g5_61" />
<path d="M157.5,485.5l0,-32" class="g5_61" />
<path d="M307.5,485.5l0,-32" class="g5_61" />
<path d="M157.5,455.5l150,0" class="g5_61" />
<path d="M307.5,484.5l0,-30" class="g5_61" />
<path d="M633.5,485.5l0,-32" class="g5_61" />
<path d="M307.5,455.5l327,0" class="g5_61" />
<path d="M157.5,515.5l0,-31" class="g5_61" />
<path d="M157.5,515.5l151,0" class="g5_61" />
<path d="M307.5,515.5l0,-31" class="g5_61" />
<path d="M157.5,485.5l150,0" class="g5_61" />
<path d="M307.5,515.5l0,-31" class="g5_61" />
<path d="M307.5,515.5l328,0" class="g5_61" />
<path d="M633.5,515.5l0,-31" class="g5_61" />
<path d="M307.5,485.5l327,0" class="g5_61" />
<path fill-rule="evenodd" d="M760,311l138,0l0,52l-138,0l0,-52Z" class="g2_61" />
<path fill-rule="evenodd" d="M898,311l164,0l0,52l-164,0l0,-52Z" class="g2_61" />
<path fill-rule="evenodd" d="M760,363l138,0l0,31l-138,0l0,-31Z" class="g3_61" />
<path fill-rule="evenodd" d="M898,363l164,0l0,31l-164,0l0,-31Z" class="g3_61" />
<path fill-rule="evenodd" d="M760,394l138,0l0,30l-138,0l0,-30Z" class="g4_61" />
<path fill-rule="evenodd" d="M898,394l164,0l0,30l-164,0l0,-30Z" class="g4_61" />
<path fill-rule="evenodd" d="M760,424l138,0l0,30l-138,0l0,-30Z" class="g3_61" />
<path fill-rule="evenodd" d="M898,424l164,0l0,30l-164,0l0,-30Z" class="g3_61" />
<path fill-rule="evenodd" d="M760,454l138,0l0,30l-138,0l0,-30Z" class="g4_61" />
<path fill-rule="evenodd" d="M898,454l164,0l0,30l-164,0l0,-30Z" class="g4_61" />
<path d="M760.5,365.5l0,-54" class="g5_61" />
<path d="M897.5,365.5l0,-54" class="g5_61" />
<path d="M760.5,312.5l138,0" class="g5_61" />
<path d="M897.5,363.5l0,-52" class="g5_61" />
<path d="M1061.5,365.5l0,-54" class="g5_61" />
<path d="M897.5,312.5l166,0" class="g5_61" />
<path d="M760.5,394.5l0,-32" class="g5_61" />
<path d="M897.5,394.5l0,-32" class="g5_61" />
<path fill-rule="evenodd" d="M898.3,363.9l-0.6,2l-136.3,0l-0.6,-2l0.6,-2.1l136.3,0l0.6,2.1Z" class="g1_61" />
<path d="M897.5,394.5l0,-31" class="g5_61" />
<path d="M1061.5,394.5l0,-32" class="g5_61" />
<path fill-rule="evenodd" d="M1062.4,363.9l-0.6,2l-162.9,0l-0.6,-2l0.6,-2.1l162.9,0l0.6,2.1Z" class="g1_61" />
<path d="M760.5,425.5l0,-32" class="g5_61" />
<path d="M897.5,425.5l0,-32" class="g5_61" />
<path d="M760.5,394.5l138,0" class="g5_61" />
<path d="M897.5,424.5l0,-30" class="g5_61" />
<path d="M1061.5,425.5l0,-32" class="g5_61" />
<path d="M898.5,394.5l164,0" class="g5_61" />
<path d="M760.5,455.5l0,-32" class="g5_61" />
<path d="M897.5,455.5l0,-32" class="g5_61" />
<path d="M760.5,425.5l138,0" class="g5_61" />
<path d="M897.5,454.5l0,-30" class="g5_61" />
<path d="M1061.5,455.5l0,-32" class="g5_61" />
<path d="M898.5,425.5l164,0" class="g5_61" />
<path d="M760.5,485.5l0,-32" class="g5_61" />
<path d="M760.5,485.5l138,0" class="g5_61" />
<path d="M897.5,485.5l0,-32" class="g5_61" />
<path d="M760.5,455.5l138,0" class="g5_61" />
<path d="M897.5,484.5l0,-30" class="g5_61" />
<path d="M897.5,485.5l166,0" class="g5_61" />
<path d="M1061.5,485.5l0,-32" class="g5_61" />
<path d="M898.5,455.5l164,0" class="g5_61" />
</svg>