<?xml version="1.0" encoding="UTF-8" standalone="no"?>
<!DOCTYPE svg PUBLIC "-//W3C//DTD SVG 1.1//EN"
"http://www.w3.org/Graphics/SVG/1.1/DTD/svg11.dtd">
<svg version="1.1" xmlns="http://www.w3.org/2000/svg" xmlns:xlink="http://www.w3.org/1999/xlink">
<defs>
<clipPath id="c0_65"><path d="M0.5,825.5l0,-825l1466,0l0,825Z" /></clipPath>
<style type="text/css"><![CDATA[
.g2_65{
fill: none;
stroke: #0563C1;
stroke-width: 2;
stroke-linecap: butt;
stroke-linejoin: miter;
}
.g1_65{
fill: #FFFFFF;
}
]]></style>
</defs>
<path fill-rule="evenodd" d="M0,0L1466,0l0,825L0,825L0,0Z" class="g1_65" />
<path fill-rule="evenodd" d="M0,0L1466,0l0,825L0,825L0,0Z" class="g1_65" />
<g clip-path="url(#c0_65)">
<use 
xlink:href ="#F1_2" 
 transform="matrix(0.0105 , 0, 0 , -0.0105, 59.7 , 801.9)"
fill="#FFFFFF" 
stroke="none" 
 />
<use 
xlink:href ="#F1_3" 
 transform="matrix(0.0105 , 0, 0 , -0.0105, 71 , 801.9)"
fill="#FFFFFF" 
stroke="none" 
 />
<use 
xlink:href ="#F1_4" 
 transform="matrix(0.0105 , 0, 0 , -0.0105, 80 , 801.9)"
fill="#FFFFFF" 
stroke="none" 
 />
<use 
xlink:href ="#F1_5" 
 transform="matrix(0.0105 , 0, 0 , -0.0105, 89 , 801.9)"
fill="#FFFFFF" 
stroke="none" 
 />
<use 
xlink:href ="#F1_6" 
 transform="matrix(0.0105 , 0, 0 , -0.0105, 97.1 , 801.9)"
fill="#FFFFFF" 
stroke="none" 
 />
<use 
xlink:href ="#F1_7" 
 transform="matrix(0.0105 , 0, 0 , -0.0105, 102.3 , 801.9)"
fill="#FFFFFF" 
stroke="none" 
 />
<use 
xlink:href ="#F1_8" 
 transform="matrix(0.0105 , 0, 0 , -0.0105, 106 , 801.9)"
fill="#FFFFFF" 
stroke="none" 
 />
<use 
xlink:href ="#F1_9" 
 transform="matrix(0.0105 , 0, 0 , -0.0105, 115 , 801.9)"
fill="#FFFFFF" 
stroke="none" 
 />
<use 
xlink:href ="#F1_10" 
 transform="matrix(0.0105 , 0, 0 , -0.0105, 124 , 801.9)"
fill="#FFFFFF" 
stroke="none" 
 />
<use 
xlink:href ="#F1_12" 
 transform="matrix(0.0105 , 0, 0 , -0.0105, 132.7 , 801.9)"
fill="#FFFFFF" 
stroke="none" 
 />
<use 
xlink:href ="#F1_13" 
 transform="matrix(0.0105 , 0, 0 , -0.0105, 153.5 , 801.9)"
fill="#FFFFFF" 
stroke="none" 
 />
<use 
xlink:href ="#F1_14" 
 transform="matrix(0.0105 , 0, 0 , -0.0105, 162.3 , 801.9)"
fill="#FFFFFF" 
stroke="none" 
 />
<use 
xlink:href ="#F1_15" 
 transform="matrix(0.0105 , 0, 0 , -0.0105, 171 , 801.9)"
fill="#FFFFFF" 
stroke="none" 
 />
<use 
xlink:href ="#F1_16" 
 transform="matrix(0.0105 , 0, 0 , -0.0105, 180 , 801.9)"
fill="#FFFFFF" 
stroke="none" 
 />
<use 
xlink:href ="#F1_17" 
 transform="matrix(0.0105 , 0, 0 , -0.0105, 188.9 , 801.9)"
fill="#FFFFFF" 
stroke="none" 
 />
<use 
xlink:href ="#F1_18" 
 transform="matrix(0.0105 , 0, 0 , -0.0105, 197.6 , 801.9)"
fill="#FFFFFF" 
stroke="none" 
 />
<use 
xlink:href ="#F1_19" 
 transform="matrix(0.0105 , 0, 0 , -0.0105, 202 , 801.9)"
fill="#FFFFFF" 
stroke="none" 
 />
<use 
xlink:href ="#F1_20" 
 transform="matrix(0.0105 , 0, 0 , -0.0105, 211 , 801.9)"
fill="#FFFFFF" 
stroke="none" 
 />
<use 
xlink:href ="#F1_3" 
 transform="matrix(0.0105 , 0, 0 , -0.0105, 215.4 , 801.9)"
fill="#FFFFFF" 
stroke="none" 
 />
<use 
xlink:href ="#F1_21" 
 transform="matrix(0.0105 , 0, 0 , -0.0105, 224.3 , 801.9)"
fill="#FFFFFF" 
stroke="none" 
 />
<use 
xlink:href ="#F1_5" 
 transform="matrix(0.0105 , 0, 0 , -0.0105, 232.2 , 801.9)"
fill="#FFFFFF" 
stroke="none" 
 />
<use 
xlink:href ="#F1_21" 
 transform="matrix(0.0105 , 0, 0 , -0.0105, 240.3 , 801.9)"
fill="#FFFFFF" 
stroke="none" 
 />
<use 
xlink:href ="#F1_22" 
 transform="matrix(0.0105 , 0, 0 , -0.0105, 252.5 , 801.9)"
fill="#FFFFFF" 
stroke="none" 
 />
<use 
xlink:href ="#F1_7" 
 transform="matrix(0.0105 , 0, 0 , -0.0105, 261.4 , 801.9)"
fill="#FFFFFF" 
stroke="none" 
 />
<use 
xlink:href ="#F1_23" 
 transform="matrix(0.0105 , 0, 0 , -0.0105, 265.1 , 801.9)"
fill="#FFFFFF" 
stroke="none" 
 />
<use 
xlink:href ="#F1_7" 
 transform="matrix(0.0105 , 0, 0 , -0.0105, 278.5 , 801.9)"
fill="#FFFFFF" 
stroke="none" 
 />
<use 
xlink:href ="#F1_10" 
 transform="matrix(0.0105 , 0, 0 , -0.0105, 282 , 801.9)"
fill="#FFFFFF" 
stroke="none" 
 />
<use 
xlink:href ="#F1_24" 
 transform="matrix(0.0105 , 0, 0 , -0.0105, 286.4 , 801.9)"
fill="#FFFFFF" 
stroke="none" 
 />
<use 
xlink:href ="#F1_25" 
 transform="matrix(0.0105 , 0, 0 , -0.0105, 295.4 , 801.9)"
fill="#FFFFFF" 
stroke="none" 
 />
<use 
xlink:href ="#F1_26" 
 transform="matrix(0.012 , 0, 0 , -0.012, 79.4 , 22.8)"
fill="#000000" 
stroke="none" 
 />
<use 
xlink:href ="#F2_3" 
 transform="matrix(0.012 , 0, 0 , -0.012, 113.8 , 23.7)"
fill="#0563C1" 
stroke="none" 
 />
<use 
xlink:href ="#F2_12" 
 transform="matrix(0.012 , 0, 0 , -0.012, 125.3 , 23.7)"
fill="#0563C1" 
stroke="none" 
 />
<use 
xlink:href ="#F2_12" 
 transform="matrix(0.012 , 0, 0 , -0.012, 132.5 , 23.7)"
fill="#0563C1" 
stroke="none" 
 />
<use 
xlink:href ="#F2_15" 
 transform="matrix(0.012 , 0, 0 , -0.012, 139.7 , 23.7)"
fill="#0563C1" 
stroke="none" 
 />
<use 
xlink:href ="#F2_37" 
 transform="matrix(0.012 , 0, 0 , -0.012, 151.3 , 23.7)"
fill="#0563C1" 
stroke="none" 
 />
<use 
xlink:href ="#F2_42" 
 transform="matrix(0.012 , 0, 0 , -0.012, 157.4 , 23.7)"
fill="#0563C1" 
stroke="none" 
 />
<use 
xlink:href ="#F2_42" 
 transform="matrix(0.012 , 0, 0 , -0.012, 163.6 , 23.7)"
fill="#0563C1" 
stroke="none" 
 />
<use 
xlink:href ="#F2_20" 
 transform="matrix(0.012 , 0, 0 , -0.012, 169.9 , 23.7)"
fill="#0563C1" 
stroke="none" 
 />
<use 
xlink:href ="#F2_20" 
 transform="matrix(0.012 , 0, 0 , -0.012, 184.8 , 23.7)"
fill="#0563C1" 
stroke="none" 
 />
<use 
xlink:href ="#F2_20" 
 transform="matrix(0.012 , 0, 0 , -0.012, 199.9 , 23.7)"
fill="#0563C1" 
stroke="none" 
 />
<use 
xlink:href ="#F2_24" 
 transform="matrix(0.012 , 0, 0 , -0.012, 213.1 , 23.7)"
fill="#0563C1" 
stroke="none" 
 />
<use 
xlink:href ="#F2_10" 
 transform="matrix(0.012 , 0, 0 , -0.012, 218.9 , 23.7)"
fill="#0563C1" 
stroke="none" 
 />
<use 
xlink:href ="#F2_15" 
 transform="matrix(0.012 , 0, 0 , -0.012, 230.5 , 23.7)"
fill="#0563C1" 
stroke="none" 
 />
<use 
xlink:href ="#F2_12" 
 transform="matrix(0.012 , 0, 0 , -0.012, 242.1 , 23.7)"
fill="#0563C1" 
stroke="none" 
 />
<use 
xlink:href ="#F2_4" 
 transform="matrix(0.012 , 0, 0 , -0.012, 249.1 , 23.7)"
fill="#0563C1" 
stroke="none" 
 />
<use 
xlink:href ="#F2_22" 
 transform="matrix(0.012 , 0, 0 , -0.012, 260.6 , 23.7)"
fill="#0563C1" 
stroke="none" 
 />
<use 
xlink:href ="#F2_18" 
 transform="matrix(0.012 , 0, 0 , -0.012, 265.6 , 23.7)"
fill="#0563C1" 
stroke="none" 
 />
<use 
xlink:href ="#F2_9" 
 transform="matrix(0.012 , 0, 0 , -0.012, 276.5 , 23.7)"
fill="#0563C1" 
stroke="none" 
 />
<use 
xlink:href ="#F2_7" 
 transform="matrix(0.012 , 0, 0 , -0.012, 281.6 , 23.7)"
fill="#0563C1" 
stroke="none" 
 />
<use 
xlink:href ="#F2_4" 
 transform="matrix(0.012 , 0, 0 , -0.012, 293.4 , 23.7)"
fill="#0563C1" 
stroke="none" 
 />
<use 
xlink:href ="#F2_14" 
 transform="matrix(0.012 , 0, 0 , -0.012, 304.7 , 23.7)"
fill="#0563C1" 
stroke="none" 
 />
<use 
xlink:href ="#F2_11" 
 transform="matrix(0.012 , 0, 0 , -0.012, 315.8 , 23.7)"
fill="#0563C1" 
stroke="none" 
 />
<use 
xlink:href ="#F2_24" 
 transform="matrix(0.012 , 0, 0 , -0.012, 325.4 , 23.7)"
fill="#0563C1" 
stroke="none" 
 />
<use 
xlink:href ="#F2_9" 
 transform="matrix(0.012 , 0, 0 , -0.012, 331.2 , 23.7)"
fill="#0563C1" 
stroke="none" 
 />
<use 
xlink:href ="#F2_10" 
 transform="matrix(0.012 , 0, 0 , -0.012, 336.4 , 23.7)"
fill="#0563C1" 
stroke="none" 
 />
<use 
xlink:href ="#F2_42" 
 transform="matrix(0.012 , 0, 0 , -0.012, 347.9 , 23.7)"
fill="#0563C1" 
stroke="none" 
 />
<use 
xlink:href ="#F2_47" 
 transform="matrix(0.012 , 0, 0 , -0.012, 354.1 , 23.7)"
fill="#0563C1" 
stroke="none" 
 />
<use 
xlink:href ="#F2_68" 
 transform="matrix(0.012 , 0, 0 , -0.012, 365.7 , 23.7)"
fill="#0563C1" 
stroke="none" 
 />
<use 
xlink:href ="#F2_46" 
 transform="matrix(0.012 , 0, 0 , -0.012, 377.5 , 23.7)"
fill="#0563C1" 
stroke="none" 
 />
<use 
xlink:href ="#F2_47" 
 transform="matrix(0.012 , 0, 0 , -0.012, 388.9 , 23.7)"
fill="#0563C1" 
stroke="none" 
 />
<use 
xlink:href ="#F2_42" 
 transform="matrix(0.012 , 0, 0 , -0.012, 400.5 , 23.7)"
fill="#0563C1" 
stroke="none" 
 />
<use 
xlink:href ="#F2_46" 
 transform="matrix(0.012 , 0, 0 , -0.012, 406.6 , 23.7)"
fill="#0563C1" 
stroke="none" 
 />
<use 
xlink:href ="#F2_46" 
 transform="matrix(0.012 , 0, 0 , -0.012, 418.2 , 23.7)"
fill="#0563C1" 
stroke="none" 
 />
<use 
xlink:href ="#F2_42" 
 transform="matrix(0.012 , 0, 0 , -0.012, 429.8 , 23.7)"
fill="#0563C1" 
stroke="none" 
 />
<use 
xlink:href ="#F2_7" 
 transform="matrix(0.012 , 0, 0 , -0.012, 436 , 23.7)"
fill="#0563C1" 
stroke="none" 
 />
<use 
xlink:href ="#F2_6" 
 transform="matrix(0.012 , 0, 0 , -0.012, 447.7 , 23.7)"
fill="#0563C1" 
stroke="none" 
 />
<use 
xlink:href ="#F2_12" 
 transform="matrix(0.012 , 0, 0 , -0.012, 459.1 , 23.7)"
fill="#0563C1" 
stroke="none" 
 />
<use 
xlink:href ="#F2_6" 
 transform="matrix(0.012 , 0, 0 , -0.012, 466.2 , 23.7)"
fill="#0563C1" 
stroke="none" 
 />
<use 
xlink:href ="#F2_26" 
 transform="matrix(0.012 , 0, 0 , -0.012, 477.6 , 23.7)"
fill="#0563C1" 
stroke="none" 
 />
<use 
xlink:href ="#F2_6" 
 transform="matrix(0.012 , 0, 0 , -0.012, 489.1 , 23.7)"
fill="#0563C1" 
stroke="none" 
 />
<use 
xlink:href ="#F2_11" 
 transform="matrix(0.012 , 0, 0 , -0.012, 500.5 , 23.7)"
fill="#0563C1" 
stroke="none" 
 />
<use 
xlink:href ="#F2_4" 
 transform="matrix(0.012 , 0, 0 , -0.012, 510 , 23.7)"
fill="#0563C1" 
stroke="none" 
 />
<use 
xlink:href ="#F2_78" 
 transform="matrix(0.012 , 0, 0 , -0.012, 521.4 , 23.7)"
fill="#0563C1" 
stroke="none" 
 />
<use 
xlink:href ="#F2_8" 
 transform="matrix(0.012 , 0, 0 , -0.012, 528 , 23.7)"
fill="#0563C1" 
stroke="none" 
 />
<use 
xlink:href ="#F2_6" 
 transform="matrix(0.012 , 0, 0 , -0.012, 545.7 , 23.7)"
fill="#0563C1" 
stroke="none" 
 />
<use 
xlink:href ="#F2_10" 
 transform="matrix(0.012 , 0, 0 , -0.012, 557.2 , 23.7)"
fill="#0563C1" 
stroke="none" 
 />
<use 
xlink:href ="#F2_6" 
 transform="matrix(0.012 , 0, 0 , -0.012, 568.6 , 23.7)"
fill="#0563C1" 
stroke="none" 
 />
<use 
xlink:href ="#F2_23" 
 transform="matrix(0.012 , 0, 0 , -0.012, 580.1 , 23.7)"
fill="#0563C1" 
stroke="none" 
 />
<use 
xlink:href ="#F2_4" 
 transform="matrix(0.012 , 0, 0 , -0.012, 591.8 , 23.7)"
fill="#0563C1" 
stroke="none" 
 />
<use 
xlink:href ="#F2_8" 
 transform="matrix(0.012 , 0, 0 , -0.012, 603.1 , 23.7)"
fill="#0563C1" 
stroke="none" 
 />
<use 
xlink:href ="#F2_4" 
 transform="matrix(0.012 , 0, 0 , -0.012, 620.8 , 23.7)"
fill="#0563C1" 
stroke="none" 
 />
<use 
xlink:href ="#F2_10" 
 transform="matrix(0.012 , 0, 0 , -0.012, 632.3 , 23.7)"
fill="#0563C1" 
stroke="none" 
 />
<use 
xlink:href ="#F2_12" 
 transform="matrix(0.012 , 0, 0 , -0.012, 643.7 , 23.7)"
fill="#0563C1" 
stroke="none" 
 />
<use 
xlink:href ="#F2_78" 
 transform="matrix(0.012 , 0, 0 , -0.012, 650.9 , 23.7)"
fill="#0563C1" 
stroke="none" 
 />
<use 
xlink:href ="#F2_11" 
 transform="matrix(0.012 , 0, 0 , -0.012, 657.5 , 23.7)"
fill="#0563C1" 
stroke="none" 
 />
<use 
xlink:href ="#F2_19" 
 transform="matrix(0.012 , 0, 0 , -0.012, 667.1 , 23.7)"
fill="#0563C1" 
stroke="none" 
 />
<use 
xlink:href ="#F2_11" 
 transform="matrix(0.012 , 0, 0 , -0.012, 677.8 , 23.7)"
fill="#0563C1" 
stroke="none" 
 />
<use 
xlink:href ="#F2_12" 
 transform="matrix(0.012 , 0, 0 , -0.012, 687.4 , 23.7)"
fill="#0563C1" 
stroke="none" 
 />
<use 
xlink:href ="#F2_4" 
 transform="matrix(0.012 , 0, 0 , -0.012, 694.6 , 23.7)"
fill="#0563C1" 
stroke="none" 
 />
<use 
xlink:href ="#F2_8" 
 transform="matrix(0.012 , 0, 0 , -0.012, 705.9 , 23.7)"
fill="#0563C1" 
stroke="none" 
 />
<use 
xlink:href ="#F2_24" 
 transform="matrix(0.012 , 0, 0 , -0.012, 723.7 , 23.7)"
fill="#0563C1" 
stroke="none" 
 />
<use 
xlink:href ="#F2_3" 
 transform="matrix(0.012 , 0, 0 , -0.012, 729.5 , 23.7)"
fill="#0563C1" 
stroke="none" 
 />
<use 
xlink:href ="#F2_12" 
 transform="matrix(0.012 , 0, 0 , -0.012, 741 , 23.7)"
fill="#0563C1" 
stroke="none" 
 />
<use 
xlink:href ="#F2_8" 
 transform="matrix(0.012 , 0, 0 , -0.012, 748.2 , 23.7)"
fill="#0563C1" 
stroke="none" 
 />
<use 
xlink:href ="#F2_22" 
 transform="matrix(0.012 , 0, 0 , -0.012, 766 , 23.7)"
fill="#0563C1" 
stroke="none" 
 />
</g>
<path d="M113,25l658,0" class="g2_65" />
<g clip-path="url(#c0_65)">
<use 
xlink:href ="#F1_26" 
 transform="matrix(0.012 , 0, 0 , -0.012, 79.4 , 66.6)"
fill="#000000" 
stroke="none" 
 />
<use 
xlink:href ="#F2_3" 
 transform="matrix(0.012 , 0, 0 , -0.012, 113.8 , 67.7)"
fill="#0563C1" 
stroke="none" 
 />
<use 
xlink:href ="#F2_12" 
 transform="matrix(0.012 , 0, 0 , -0.012, 125.3 , 67.7)"
fill="#0563C1" 
stroke="none" 
 />
<use 
xlink:href ="#F2_12" 
 transform="matrix(0.012 , 0, 0 , -0.012, 132.5 , 67.7)"
fill="#0563C1" 
stroke="none" 
 />
<use 
xlink:href ="#F2_15" 
 transform="matrix(0.012 , 0, 0 , -0.012, 139.7 , 67.7)"
fill="#0563C1" 
stroke="none" 
 />
<use 
xlink:href ="#F2_37" 
 transform="matrix(0.012 , 0, 0 , -0.012, 151.3 , 67.7)"
fill="#0563C1" 
stroke="none" 
 />
<use 
xlink:href ="#F2_42" 
 transform="matrix(0.012 , 0, 0 , -0.012, 157.4 , 67.7)"
fill="#0563C1" 
stroke="none" 
 />
<use 
xlink:href ="#F2_42" 
 transform="matrix(0.012 , 0, 0 , -0.012, 163.6 , 67.7)"
fill="#0563C1" 
stroke="none" 
 />
<use 
xlink:href ="#F2_14" 
 transform="matrix(0.012 , 0, 0 , -0.012, 169.9 , 67.7)"
fill="#0563C1" 
stroke="none" 
 />
<use 
xlink:href ="#F2_13" 
 transform="matrix(0.012 , 0, 0 , -0.012, 181 , 67.7)"
fill="#0563C1" 
stroke="none" 
 />
<use 
xlink:href ="#F2_6" 
 transform="matrix(0.012 , 0, 0 , -0.012, 188.6 , 67.7)"
fill="#0563C1" 
stroke="none" 
 />
<use 
xlink:href ="#F2_29" 
 transform="matrix(0.012 , 0, 0 , -0.012, 200.1 , 67.7)"
fill="#0563C1" 
stroke="none" 
 />
<use 
xlink:href ="#F2_22" 
 transform="matrix(0.012 , 0, 0 , -0.012, 210.3 , 67.7)"
fill="#0563C1" 
stroke="none" 
 />
<use 
xlink:href ="#F2_4" 
 transform="matrix(0.012 , 0, 0 , -0.012, 215.5 , 67.7)"
fill="#0563C1" 
stroke="none" 
 />
<use 
xlink:href ="#F2_18" 
 transform="matrix(0.012 , 0, 0 , -0.012, 226.8 , 67.7)"
fill="#0563C1" 
stroke="none" 
 />
<use 
xlink:href ="#F2_9" 
 transform="matrix(0.012 , 0, 0 , -0.012, 237.6 , 67.7)"
fill="#0563C1" 
stroke="none" 
 />
<use 
xlink:href ="#F2_7" 
 transform="matrix(0.012 , 0, 0 , -0.012, 242.6 , 67.7)"
fill="#0563C1" 
stroke="none" 
 />
<use 
xlink:href ="#F2_4" 
 transform="matrix(0.012 , 0, 0 , -0.012, 254.4 , 67.7)"
fill="#0563C1" 
stroke="none" 
 />
<use 
xlink:href ="#F2_14" 
 transform="matrix(0.012 , 0, 0 , -0.012, 265.8 , 67.7)"
fill="#0563C1" 
stroke="none" 
 />
<use 
xlink:href ="#F2_12" 
 transform="matrix(0.012 , 0, 0 , -0.012, 277 , 67.7)"
fill="#0563C1" 
stroke="none" 
 />
<use 
xlink:href ="#F2_17" 
 transform="matrix(0.012 , 0, 0 , -0.012, 284.2 , 67.7)"
fill="#0563C1" 
stroke="none" 
 />
<use 
xlink:href ="#F2_12" 
 transform="matrix(0.012 , 0, 0 , -0.012, 295.6 , 67.7)"
fill="#0563C1" 
stroke="none" 
 />
<use 
xlink:href ="#F2_14" 
 transform="matrix(0.012 , 0, 0 , -0.012, 302.8 , 67.7)"
fill="#0563C1" 
stroke="none" 
 />
<use 
xlink:href ="#F2_13" 
 transform="matrix(0.012 , 0, 0 , -0.012, 313.9 , 67.7)"
fill="#0563C1" 
stroke="none" 
 />
<use 
xlink:href ="#F2_9" 
 transform="matrix(0.012 , 0, 0 , -0.012, 321.7 , 67.7)"
fill="#0563C1" 
stroke="none" 
 />
<use 
xlink:href ="#F2_6" 
 transform="matrix(0.012 , 0, 0 , -0.012, 326.8 , 67.7)"
fill="#0563C1" 
stroke="none" 
 />
<use 
xlink:href ="#F2_22" 
 transform="matrix(0.012 , 0, 0 , -0.012, 338.2 , 67.7)"
fill="#0563C1" 
stroke="none" 
 />
<use 
xlink:href ="#F2_11" 
 transform="matrix(0.012 , 0, 0 , -0.012, 343.2 , 67.7)"
fill="#0563C1" 
stroke="none" 
 />
<use 
xlink:href ="#F2_24" 
 transform="matrix(0.012 , 0, 0 , -0.012, 352.8 , 67.7)"
fill="#0563C1" 
stroke="none" 
 />
<use 
xlink:href ="#F2_29" 
 transform="matrix(0.012 , 0, 0 , -0.012, 358.7 , 67.7)"
fill="#0563C1" 
stroke="none" 
 />
<use 
xlink:href ="#F2_14" 
 transform="matrix(0.012 , 0, 0 , -0.012, 368.9 , 67.7)"
fill="#0563C1" 
stroke="none" 
 />
<use 
xlink:href ="#F2_8" 
 transform="matrix(0.012 , 0, 0 , -0.012, 380 , 67.7)"
fill="#0563C1" 
stroke="none" 
 />
<use 
xlink:href ="#F2_42" 
 transform="matrix(0.012 , 0, 0 , -0.012, 397.9 , 67.7)"
fill="#0563C1" 
stroke="none" 
 />
</g>
<path d="M113,69l291,0" class="g2_65" />
<g clip-path="url(#c0_65)">
<use 
xlink:href ="#F1_26" 
 transform="matrix(0.012 , 0, 0 , -0.012, 79.4 , 110.5)"
fill="#000000" 
stroke="none" 
 />
<use 
xlink:href ="#F2_3" 
 transform="matrix(0.012 , 0, 0 , -0.012, 113.8 , 111.5)"
fill="#0563C1" 
stroke="none" 
 />
<use 
xlink:href ="#F2_12" 
 transform="matrix(0.012 , 0, 0 , -0.012, 125.3 , 111.5)"
fill="#0563C1" 
stroke="none" 
 />
<use 
xlink:href ="#F2_12" 
 transform="matrix(0.012 , 0, 0 , -0.012, 132.5 , 111.5)"
fill="#0563C1" 
stroke="none" 
 />
<use 
xlink:href ="#F2_15" 
 transform="matrix(0.012 , 0, 0 , -0.012, 139.7 , 111.5)"
fill="#0563C1" 
stroke="none" 
 />
<use 
xlink:href ="#F2_11" 
 transform="matrix(0.012 , 0, 0 , -0.012, 151.3 , 111.5)"
fill="#0563C1" 
stroke="none" 
 />
<use 
xlink:href ="#F2_37" 
 transform="matrix(0.012 , 0, 0 , -0.012, 160.7 , 111.5)"
fill="#0563C1" 
stroke="none" 
 />
<use 
xlink:href ="#F2_42" 
 transform="matrix(0.012 , 0, 0 , -0.012, 167 , 111.5)"
fill="#0563C1" 
stroke="none" 
 />
<use 
xlink:href ="#F2_42" 
 transform="matrix(0.012 , 0, 0 , -0.012, 173.2 , 111.5)"
fill="#0563C1" 
stroke="none" 
 />
<use 
xlink:href ="#F2_20" 
 transform="matrix(0.012 , 0, 0 , -0.012, 179.3 , 111.5)"
fill="#0563C1" 
stroke="none" 
 />
<use 
xlink:href ="#F2_20" 
 transform="matrix(0.012 , 0, 0 , -0.012, 194.4 , 111.5)"
fill="#0563C1" 
stroke="none" 
 />
<use 
xlink:href ="#F2_20" 
 transform="matrix(0.012 , 0, 0 , -0.012, 209.4 , 111.5)"
fill="#0563C1" 
stroke="none" 
 />
<use 
xlink:href ="#F2_24" 
 transform="matrix(0.012 , 0, 0 , -0.012, 222.7 , 111.5)"
fill="#0563C1" 
stroke="none" 
 />
<use 
xlink:href ="#F2_17" 
 transform="matrix(0.012 , 0, 0 , -0.012, 228.5 , 111.5)"
fill="#0563C1" 
stroke="none" 
 />
<use 
xlink:href ="#F2_7" 
 transform="matrix(0.012 , 0, 0 , -0.012, 240.1 , 111.5)"
fill="#0563C1" 
stroke="none" 
 />
<use 
xlink:href ="#F2_4" 
 transform="matrix(0.012 , 0, 0 , -0.012, 251.7 , 111.5)"
fill="#0563C1" 
stroke="none" 
 />
<use 
xlink:href ="#F2_8" 
 transform="matrix(0.012 , 0, 0 , -0.012, 263.2 , 111.5)"
fill="#0563C1" 
stroke="none" 
 />
<use 
xlink:href ="#F2_19" 
 transform="matrix(0.012 , 0, 0 , -0.012, 280.9 , 111.5)"
fill="#0563C1" 
stroke="none" 
 />
<use 
xlink:href ="#F2_24" 
 transform="matrix(0.012 , 0, 0 , -0.012, 289 , 111.5)"
fill="#0563C1" 
stroke="none" 
 />
<use 
xlink:href ="#F2_29" 
 transform="matrix(0.012 , 0, 0 , -0.012, 294.8 , 111.5)"
fill="#0563C1" 
stroke="none" 
 />
<use 
xlink:href ="#F2_14" 
 transform="matrix(0.012 , 0, 0 , -0.012, 305.2 , 111.5)"
fill="#0563C1" 
stroke="none" 
 />
<use 
xlink:href ="#F2_8" 
 transform="matrix(0.012 , 0, 0 , -0.012, 316.3 , 111.5)"
fill="#0563C1" 
stroke="none" 
 />
<use 
xlink:href ="#F2_42" 
 transform="matrix(0.012 , 0, 0 , -0.012, 334.1 , 111.5)"
fill="#0563C1" 
stroke="none" 
 />
<use 
xlink:href ="#F2_14" 
 transform="matrix(0.012 , 0, 0 , -0.012, 340.3 , 111.5)"
fill="#0563C1" 
stroke="none" 
 />
<use 
xlink:href ="#F2_13" 
 transform="matrix(0.012 , 0, 0 , -0.012, 351.5 , 111.5)"
fill="#0563C1" 
stroke="none" 
 />
<use 
xlink:href ="#F2_6" 
 transform="matrix(0.012 , 0, 0 , -0.012, 359.1 , 111.5)"
fill="#0563C1" 
stroke="none" 
 />
<use 
xlink:href ="#F2_29" 
 transform="matrix(0.012 , 0, 0 , -0.012, 370.5 , 111.5)"
fill="#0563C1" 
stroke="none" 
 />
<use 
xlink:href ="#F2_22" 
 transform="matrix(0.012 , 0, 0 , -0.012, 380.8 , 111.5)"
fill="#0563C1" 
stroke="none" 
 />
<use 
xlink:href ="#F2_4" 
 transform="matrix(0.012 , 0, 0 , -0.012, 385.9 , 111.5)"
fill="#0563C1" 
stroke="none" 
 />
<use 
xlink:href ="#F2_78" 
 transform="matrix(0.012 , 0, 0 , -0.012, 397.2 , 111.5)"
fill="#0563C1" 
stroke="none" 
 />
<use 
xlink:href ="#F2_15" 
 transform="matrix(0.012 , 0, 0 , -0.012, 403.8 , 111.5)"
fill="#0563C1" 
stroke="none" 
 />
<use 
xlink:href ="#F2_22" 
 transform="matrix(0.012 , 0, 0 , -0.012, 415.4 , 111.5)"
fill="#0563C1" 
stroke="none" 
 />
<use 
xlink:href ="#F2_11" 
 transform="matrix(0.012 , 0, 0 , -0.012, 420.6 , 111.5)"
fill="#0563C1" 
stroke="none" 
 />
<use 
xlink:href ="#F2_31" 
 transform="matrix(0.012 , 0, 0 , -0.012, 430 , 111.5)"
fill="#0563C1" 
stroke="none" 
 />
<use 
xlink:href ="#F2_22" 
 transform="matrix(0.012 , 0, 0 , -0.012, 441.8 , 111.5)"
fill="#0563C1" 
stroke="none" 
 />
<use 
xlink:href ="#F2_78" 
 transform="matrix(0.012 , 0, 0 , -0.012, 446.8 , 111.5)"
fill="#0563C1" 
stroke="none" 
 />
<use 
xlink:href ="#F2_12" 
 transform="matrix(0.012 , 0, 0 , -0.012, 453.5 , 111.5)"
fill="#0563C1" 
stroke="none" 
 />
<use 
xlink:href ="#F2_17" 
 transform="matrix(0.012 , 0, 0 , -0.012, 460.6 , 111.5)"
fill="#0563C1" 
stroke="none" 
 />
<use 
xlink:href ="#F2_12" 
 transform="matrix(0.012 , 0, 0 , -0.012, 472.2 , 111.5)"
fill="#0563C1" 
stroke="none" 
 />
<use 
xlink:href ="#F2_14" 
 transform="matrix(0.012 , 0, 0 , -0.012, 479.3 , 111.5)"
fill="#0563C1" 
stroke="none" 
 />
<use 
xlink:href ="#F2_13" 
 transform="matrix(0.012 , 0, 0 , -0.012, 490.5 , 111.5)"
fill="#0563C1" 
stroke="none" 
 />
<use 
xlink:href ="#F2_9" 
 transform="matrix(0.012 , 0, 0 , -0.012, 498.1 , 111.5)"
fill="#0563C1" 
stroke="none" 
 />
<use 
xlink:href ="#F2_6" 
 transform="matrix(0.012 , 0, 0 , -0.012, 503.3 , 111.5)"
fill="#0563C1" 
stroke="none" 
 />
<use 
xlink:href ="#F2_22" 
 transform="matrix(0.012 , 0, 0 , -0.012, 514.6 , 111.5)"
fill="#0563C1" 
stroke="none" 
 />
<use 
xlink:href ="#F2_42" 
 transform="matrix(0.012 , 0, 0 , -0.012, 519.8 , 111.5)"
fill="#0563C1" 
stroke="none" 
 />
</g>
<path d="M113,113l413,0" class="g2_65" />
<g clip-path="url(#c0_65)">
<use 
xlink:href ="#F1_26" 
 transform="matrix(0.012 , 0, 0 , -0.012, 79.4 , 154.5)"
fill="#000000" 
stroke="none" 
 />
<use 
xlink:href ="#F2_3" 
 transform="matrix(0.012 , 0, 0 , -0.012, 113.8 , 155.5)"
fill="#0563C1" 
stroke="none" 
 />
<use 
xlink:href ="#F2_12" 
 transform="matrix(0.012 , 0, 0 , -0.012, 125.3 , 155.5)"
fill="#0563C1" 
stroke="none" 
 />
<use 
xlink:href ="#F2_12" 
 transform="matrix(0.012 , 0, 0 , -0.012, 132.5 , 155.5)"
fill="#0563C1" 
stroke="none" 
 />
<use 
xlink:href ="#F2_15" 
 transform="matrix(0.012 , 0, 0 , -0.012, 139.7 , 155.5)"
fill="#0563C1" 
stroke="none" 
 />
<use 
xlink:href ="#F2_37" 
 transform="matrix(0.012 , 0, 0 , -0.012, 151.3 , 155.5)"
fill="#0563C1" 
stroke="none" 
 />
<use 
xlink:href ="#F2_42" 
 transform="matrix(0.012 , 0, 0 , -0.012, 157.4 , 155.5)"
fill="#0563C1" 
stroke="none" 
 />
<use 
xlink:href ="#F2_42" 
 transform="matrix(0.012 , 0, 0 , -0.012, 163.6 , 155.5)"
fill="#0563C1" 
stroke="none" 
 />
<use 
xlink:href ="#F2_20" 
 transform="matrix(0.012 , 0, 0 , -0.012, 169.9 , 155.5)"
fill="#0563C1" 
stroke="none" 
 />
<use 
xlink:href ="#F2_20" 
 transform="matrix(0.012 , 0, 0 , -0.012, 184.8 , 155.5)"
fill="#0563C1" 
stroke="none" 
 />
<use 
xlink:href ="#F2_20" 
 transform="matrix(0.012 , 0, 0 , -0.012, 199.9 , 155.5)"
fill="#0563C1" 
stroke="none" 
 />
<use 
xlink:href ="#F2_24" 
 transform="matrix(0.012 , 0, 0 , -0.012, 213.1 , 155.5)"
fill="#0563C1" 
stroke="none" 
 />
<use 
xlink:href ="#F2_22" 
 transform="matrix(0.012 , 0, 0 , -0.012, 218.9 , 155.5)"
fill="#0563C1" 
stroke="none" 
 />
<use 
xlink:href ="#F2_4" 
 transform="matrix(0.012 , 0, 0 , -0.012, 224.1 , 155.5)"
fill="#0563C1" 
stroke="none" 
 />
<use 
xlink:href ="#F2_6" 
 transform="matrix(0.012 , 0, 0 , -0.012, 235.4 , 155.5)"
fill="#0563C1" 
stroke="none" 
 />
<use 
xlink:href ="#F2_13" 
 transform="matrix(0.012 , 0, 0 , -0.012, 246.8 , 155.5)"
fill="#0563C1" 
stroke="none" 
 />
<use 
xlink:href ="#F2_10" 
 transform="matrix(0.012 , 0, 0 , -0.012, 254.1 , 155.5)"
fill="#0563C1" 
stroke="none" 
 />
<use 
xlink:href ="#F2_78" 
 transform="matrix(0.012 , 0, 0 , -0.012, 265.6 , 155.5)"
fill="#0563C1" 
stroke="none" 
 />
<use 
xlink:href ="#F2_20" 
 transform="matrix(0.012 , 0, 0 , -0.012, 272.3 , 155.5)"
fill="#0563C1" 
stroke="none" 
 />
<use 
xlink:href ="#F2_9" 
 transform="matrix(0.012 , 0, 0 , -0.012, 287.3 , 155.5)"
fill="#0563C1" 
stroke="none" 
 />
<use 
xlink:href ="#F2_12" 
 transform="matrix(0.012 , 0, 0 , -0.012, 292.5 , 155.5)"
fill="#0563C1" 
stroke="none" 
 />
<use 
xlink:href ="#F2_3" 
 transform="matrix(0.012 , 0, 0 , -0.012, 299.6 , 155.5)"
fill="#0563C1" 
stroke="none" 
 />
<use 
xlink:href ="#F2_78" 
 transform="matrix(0.012 , 0, 0 , -0.012, 311.1 , 155.5)"
fill="#0563C1" 
stroke="none" 
 />
<use 
xlink:href ="#F2_18" 
 transform="matrix(0.012 , 0, 0 , -0.012, 317.2 , 155.5)"
fill="#0563C1" 
stroke="none" 
 />
<use 
xlink:href ="#F2_9" 
 transform="matrix(0.012 , 0, 0 , -0.012, 328 , 155.5)"
fill="#0563C1" 
stroke="none" 
 />
<use 
xlink:href ="#F2_7" 
 transform="matrix(0.012 , 0, 0 , -0.012, 333.1 , 155.5)"
fill="#0563C1" 
stroke="none" 
 />
<use 
xlink:href ="#F2_4" 
 transform="matrix(0.012 , 0, 0 , -0.012, 344.8 , 155.5)"
fill="#0563C1" 
stroke="none" 
 />
<use 
xlink:href ="#F2_14" 
 transform="matrix(0.012 , 0, 0 , -0.012, 356.1 , 155.5)"
fill="#0563C1" 
stroke="none" 
 />
<use 
xlink:href ="#F2_78" 
 transform="matrix(0.012 , 0, 0 , -0.012, 367.6 , 155.5)"
fill="#0563C1" 
stroke="none" 
 />
<use 
xlink:href ="#F2_12" 
 transform="matrix(0.012 , 0, 0 , -0.012, 374.1 , 155.5)"
fill="#0563C1" 
stroke="none" 
 />
<use 
xlink:href ="#F2_17" 
 transform="matrix(0.012 , 0, 0 , -0.012, 381.3 , 155.5)"
fill="#0563C1" 
stroke="none" 
 />
<use 
xlink:href ="#F2_12" 
 transform="matrix(0.012 , 0, 0 , -0.012, 392.8 , 155.5)"
fill="#0563C1" 
stroke="none" 
 />
<use 
xlink:href ="#F2_14" 
 transform="matrix(0.012 , 0, 0 , -0.012, 400 , 155.5)"
fill="#0563C1" 
stroke="none" 
 />
<use 
xlink:href ="#F2_13" 
 transform="matrix(0.012 , 0, 0 , -0.012, 411.1 , 155.5)"
fill="#0563C1" 
stroke="none" 
 />
<use 
xlink:href ="#F2_9" 
 transform="matrix(0.012 , 0, 0 , -0.012, 418.9 , 155.5)"
fill="#0563C1" 
stroke="none" 
 />
<use 
xlink:href ="#F2_6" 
 transform="matrix(0.012 , 0, 0 , -0.012, 423.9 , 155.5)"
fill="#0563C1" 
stroke="none" 
 />
<use 
xlink:href ="#F2_22" 
 transform="matrix(0.012 , 0, 0 , -0.012, 435.4 , 155.5)"
fill="#0563C1" 
stroke="none" 
 />
<use 
xlink:href ="#F2_11" 
 transform="matrix(0.012 , 0, 0 , -0.012, 440.4 , 155.5)"
fill="#0563C1" 
stroke="none" 
 />
<use 
xlink:href ="#F2_24" 
 transform="matrix(0.012 , 0, 0 , -0.012, 450 , 155.5)"
fill="#0563C1" 
stroke="none" 
 />
<use 
xlink:href ="#F2_29" 
 transform="matrix(0.012 , 0, 0 , -0.012, 455.8 , 155.5)"
fill="#0563C1" 
stroke="none" 
 />
<use 
xlink:href ="#F2_14" 
 transform="matrix(0.012 , 0, 0 , -0.012, 466 , 155.5)"
fill="#0563C1" 
stroke="none" 
 />
<use 
xlink:href ="#F2_8" 
 transform="matrix(0.012 , 0, 0 , -0.012, 477.2 , 155.5)"
fill="#0563C1" 
stroke="none" 
 />
<use 
xlink:href ="#F2_42" 
 transform="matrix(0.012 , 0, 0 , -0.012, 495 , 155.5)"
fill="#0563C1" 
stroke="none" 
 />
<use 
xlink:href ="#F2_15" 
 transform="matrix(0.012 , 0, 0 , -0.012, 501.3 , 155.5)"
fill="#0563C1" 
stroke="none" 
 />
<use 
xlink:href ="#F2_22" 
 transform="matrix(0.012 , 0, 0 , -0.012, 512.8 , 155.5)"
fill="#0563C1" 
stroke="none" 
 />
<use 
xlink:href ="#F2_11" 
 transform="matrix(0.012 , 0, 0 , -0.012, 517.9 , 155.5)"
fill="#0563C1" 
stroke="none" 
 />
<use 
xlink:href ="#F2_31" 
 transform="matrix(0.012 , 0, 0 , -0.012, 527.4 , 155.5)"
fill="#0563C1" 
stroke="none" 
 />
<use 
xlink:href ="#F2_22" 
 transform="matrix(0.012 , 0, 0 , -0.012, 539.2 , 155.5)"
fill="#0563C1" 
stroke="none" 
 />
<use 
xlink:href ="#F2_78" 
 transform="matrix(0.012 , 0, 0 , -0.012, 544.3 , 155.5)"
fill="#0563C1" 
stroke="none" 
 />
<use 
xlink:href ="#F2_14" 
 transform="matrix(0.012 , 0, 0 , -0.012, 551 , 155.5)"
fill="#0563C1" 
stroke="none" 
 />
<use 
xlink:href ="#F2_13" 
 transform="matrix(0.012 , 0, 0 , -0.012, 562.2 , 155.5)"
fill="#0563C1" 
stroke="none" 
 />
<use 
xlink:href ="#F2_6" 
 transform="matrix(0.012 , 0, 0 , -0.012, 570 , 155.5)"
fill="#0563C1" 
stroke="none" 
 />
<use 
xlink:href ="#F2_29" 
 transform="matrix(0.012 , 0, 0 , -0.012, 581.2 , 155.5)"
fill="#0563C1" 
stroke="none" 
 />
<use 
xlink:href ="#F2_22" 
 transform="matrix(0.012 , 0, 0 , -0.012, 591.5 , 155.5)"
fill="#0563C1" 
stroke="none" 
 />
<use 
xlink:href ="#F2_4" 
 transform="matrix(0.012 , 0, 0 , -0.012, 596.6 , 155.5)"
fill="#0563C1" 
stroke="none" 
 />
<use 
xlink:href ="#F2_78" 
 transform="matrix(0.012 , 0, 0 , -0.012, 607.9 , 155.5)"
fill="#0563C1" 
stroke="none" 
 />
<use 
xlink:href ="#F2_12" 
 transform="matrix(0.012 , 0, 0 , -0.012, 614.5 , 155.5)"
fill="#0563C1" 
stroke="none" 
 />
<use 
xlink:href ="#F2_17" 
 transform="matrix(0.012 , 0, 0 , -0.012, 621.7 , 155.5)"
fill="#0563C1" 
stroke="none" 
 />
<use 
xlink:href ="#F2_12" 
 transform="matrix(0.012 , 0, 0 , -0.012, 633.3 , 155.5)"
fill="#0563C1" 
stroke="none" 
 />
<use 
xlink:href ="#F2_14" 
 transform="matrix(0.012 , 0, 0 , -0.012, 640.5 , 155.5)"
fill="#0563C1" 
stroke="none" 
 />
<use 
xlink:href ="#F2_13" 
 transform="matrix(0.012 , 0, 0 , -0.012, 651.6 , 155.5)"
fill="#0563C1" 
stroke="none" 
 />
<use 
xlink:href ="#F2_9" 
 transform="matrix(0.012 , 0, 0 , -0.012, 659.2 , 155.5)"
fill="#0563C1" 
stroke="none" 
 />
<use 
xlink:href ="#F2_6" 
 transform="matrix(0.012 , 0, 0 , -0.012, 664.4 , 155.5)"
fill="#0563C1" 
stroke="none" 
 />
<use 
xlink:href ="#F2_22" 
 transform="matrix(0.012 , 0, 0 , -0.012, 675.7 , 155.5)"
fill="#0563C1" 
stroke="none" 
 />
<use 
xlink:href ="#F2_78" 
 transform="matrix(0.012 , 0, 0 , -0.012, 680.9 , 155.5)"
fill="#0563C1" 
stroke="none" 
 />
<use 
xlink:href ="#F2_18" 
 transform="matrix(0.012 , 0, 0 , -0.012, 686.8 , 155.5)"
fill="#0563C1" 
stroke="none" 
 />
<use 
xlink:href ="#F2_9" 
 transform="matrix(0.012 , 0, 0 , -0.012, 697.7 , 155.5)"
fill="#0563C1" 
stroke="none" 
 />
<use 
xlink:href ="#F2_7" 
 transform="matrix(0.012 , 0, 0 , -0.012, 702.8 , 155.5)"
fill="#0563C1" 
stroke="none" 
 />
<use 
xlink:href ="#F2_4" 
 transform="matrix(0.012 , 0, 0 , -0.012, 714.6 , 155.5)"
fill="#0563C1" 
stroke="none" 
 />
<use 
xlink:href ="#F2_14" 
 transform="matrix(0.012 , 0, 0 , -0.012, 725.9 , 155.5)"
fill="#0563C1" 
stroke="none" 
 />
</g>
<path d="M113,157l624,0" class="g2_65" />
<g clip-path="url(#c0_65)">
<use 
xlink:href ="#F1_26" 
 transform="matrix(0.012 , 0, 0 , -0.012, 79.4 , 198.3)"
fill="#000000" 
stroke="none" 
 />
<use 
xlink:href ="#F2_3" 
 transform="matrix(0.012 , 0, 0 , -0.012, 113.8 , 199.4)"
fill="#0563C1" 
stroke="none" 
 />
<use 
xlink:href ="#F2_12" 
 transform="matrix(0.012 , 0, 0 , -0.012, 125.3 , 199.4)"
fill="#0563C1" 
stroke="none" 
 />
<use 
xlink:href ="#F2_12" 
 transform="matrix(0.012 , 0, 0 , -0.012, 132.5 , 199.4)"
fill="#0563C1" 
stroke="none" 
 />
<use 
xlink:href ="#F2_15" 
 transform="matrix(0.012 , 0, 0 , -0.012, 139.7 , 199.4)"
fill="#0563C1" 
stroke="none" 
 />
<use 
xlink:href ="#F2_37" 
 transform="matrix(0.012 , 0, 0 , -0.012, 151.3 , 199.4)"
fill="#0563C1" 
stroke="none" 
 />
<use 
xlink:href ="#F2_42" 
 transform="matrix(0.012 , 0, 0 , -0.012, 157.4 , 199.4)"
fill="#0563C1" 
stroke="none" 
 />
<use 
xlink:href ="#F2_42" 
 transform="matrix(0.012 , 0, 0 , -0.012, 163.6 , 199.4)"
fill="#0563C1" 
stroke="none" 
 />
<use 
xlink:href ="#F2_20" 
 transform="matrix(0.012 , 0, 0 , -0.012, 169.9 , 199.4)"
fill="#0563C1" 
stroke="none" 
 />
<use 
xlink:href ="#F2_20" 
 transform="matrix(0.012 , 0, 0 , -0.012, 184.8 , 199.4)"
fill="#0563C1" 
stroke="none" 
 />
<use 
xlink:href ="#F2_20" 
 transform="matrix(0.012 , 0, 0 , -0.012, 199.9 , 199.4)"
fill="#0563C1" 
stroke="none" 
 />
<use 
xlink:href ="#F2_24" 
 transform="matrix(0.012 , 0, 0 , -0.012, 213.1 , 199.4)"
fill="#0563C1" 
stroke="none" 
 />
<use 
xlink:href ="#F2_11" 
 transform="matrix(0.012 , 0, 0 , -0.012, 218.9 , 199.4)"
fill="#0563C1" 
stroke="none" 
 />
<use 
xlink:href ="#F2_21" 
 transform="matrix(0.012 , 0, 0 , -0.012, 228.5 , 199.4)"
fill="#0563C1" 
stroke="none" 
 />
<use 
xlink:href ="#F2_9" 
 transform="matrix(0.012 , 0, 0 , -0.012, 239.2 , 199.4)"
fill="#0563C1" 
stroke="none" 
 />
<use 
xlink:href ="#F2_22" 
 transform="matrix(0.012 , 0, 0 , -0.012, 244.2 , 199.4)"
fill="#0563C1" 
stroke="none" 
 />
<use 
xlink:href ="#F2_22" 
 transform="matrix(0.012 , 0, 0 , -0.012, 249.4 , 199.4)"
fill="#0563C1" 
stroke="none" 
 />
<use 
xlink:href ="#F2_26" 
 transform="matrix(0.012 , 0, 0 , -0.012, 254.4 , 199.4)"
fill="#0563C1" 
stroke="none" 
 />
<use 
xlink:href ="#F2_17" 
 transform="matrix(0.012 , 0, 0 , -0.012, 266 , 199.4)"
fill="#0563C1" 
stroke="none" 
 />
<use 
xlink:href ="#F2_9" 
 transform="matrix(0.012 , 0, 0 , -0.012, 277.6 , 199.4)"
fill="#0563C1" 
stroke="none" 
 />
<use 
xlink:href ="#F2_22" 
 transform="matrix(0.012 , 0, 0 , -0.012, 282.7 , 199.4)"
fill="#0563C1" 
stroke="none" 
 />
<use 
xlink:href ="#F2_7" 
 transform="matrix(0.012 , 0, 0 , -0.012, 287.9 , 199.4)"
fill="#0563C1" 
stroke="none" 
 />
<use 
xlink:href ="#F2_4" 
 transform="matrix(0.012 , 0, 0 , -0.012, 299.6 , 199.4)"
fill="#0563C1" 
stroke="none" 
 />
<use 
xlink:href ="#F2_13" 
 transform="matrix(0.012 , 0, 0 , -0.012, 310.9 , 199.4)"
fill="#0563C1" 
stroke="none" 
 />
<use 
xlink:href ="#F2_11" 
 transform="matrix(0.012 , 0, 0 , -0.012, 318.5 , 199.4)"
fill="#0563C1" 
stroke="none" 
 />
<use 
xlink:href ="#F2_24" 
 transform="matrix(0.012 , 0, 0 , -0.012, 328.1 , 199.4)"
fill="#0563C1" 
stroke="none" 
 />
<use 
xlink:href ="#F2_29" 
 transform="matrix(0.012 , 0, 0 , -0.012, 333.9 , 199.4)"
fill="#0563C1" 
stroke="none" 
 />
<use 
xlink:href ="#F2_14" 
 transform="matrix(0.012 , 0, 0 , -0.012, 344.2 , 199.4)"
fill="#0563C1" 
stroke="none" 
 />
<use 
xlink:href ="#F2_8" 
 transform="matrix(0.012 , 0, 0 , -0.012, 355.5 , 199.4)"
fill="#0563C1" 
stroke="none" 
 />
<use 
xlink:href ="#F2_42" 
 transform="matrix(0.012 , 0, 0 , -0.012, 373.2 , 199.4)"
fill="#0563C1" 
stroke="none" 
 />
<use 
xlink:href ="#F2_25" 
 transform="matrix(0.012 , 0, 0 , -0.012, 379.4 , 199.4)"
fill="#0563C1" 
stroke="none" 
 />
<use 
xlink:href ="#F2_13" 
 transform="matrix(0.012 , 0, 0 , -0.012, 393.9 , 199.4)"
fill="#0563C1" 
stroke="none" 
 />
<use 
xlink:href ="#F2_6" 
 transform="matrix(0.012 , 0, 0 , -0.012, 401.6 , 199.4)"
fill="#0563C1" 
stroke="none" 
 />
<use 
xlink:href ="#F2_29" 
 transform="matrix(0.012 , 0, 0 , -0.012, 412.9 , 199.4)"
fill="#0563C1" 
stroke="none" 
 />
<use 
xlink:href ="#F2_22" 
 transform="matrix(0.012 , 0, 0 , -0.012, 423.1 , 199.4)"
fill="#0563C1" 
stroke="none" 
 />
<use 
xlink:href ="#F2_4" 
 transform="matrix(0.012 , 0, 0 , -0.012, 428.2 , 199.4)"
fill="#0563C1" 
stroke="none" 
 />
<use 
xlink:href ="#F2_42" 
 transform="matrix(0.012 , 0, 0 , -0.012, 439.5 , 199.4)"
fill="#0563C1" 
stroke="none" 
 />
<use 
xlink:href ="#F2_25" 
 transform="matrix(0.012 , 0, 0 , -0.012, 445.8 , 199.4)"
fill="#0563C1" 
stroke="none" 
 />
<use 
xlink:href ="#F2_13" 
 transform="matrix(0.012 , 0, 0 , -0.012, 460.3 , 199.4)"
fill="#0563C1" 
stroke="none" 
 />
<use 
xlink:href ="#F2_6" 
 transform="matrix(0.012 , 0, 0 , -0.012, 467.9 , 199.4)"
fill="#0563C1" 
stroke="none" 
 />
<use 
xlink:href ="#F2_29" 
 transform="matrix(0.012 , 0, 0 , -0.012, 479.3 , 199.4)"
fill="#0563C1" 
stroke="none" 
 />
<use 
xlink:href ="#F2_22" 
 transform="matrix(0.012 , 0, 0 , -0.012, 489.6 , 199.4)"
fill="#0563C1" 
stroke="none" 
 />
<use 
xlink:href ="#F2_4" 
 transform="matrix(0.012 , 0, 0 , -0.012, 494.7 , 199.4)"
fill="#0563C1" 
stroke="none" 
 />
<use 
xlink:href ="#F2_78" 
 transform="matrix(0.012 , 0, 0 , -0.012, 506 , 199.4)"
fill="#0563C1" 
stroke="none" 
 />
<use 
xlink:href ="#F2_38" 
 transform="matrix(0.012 , 0, 0 , -0.012, 512.6 , 199.4)"
fill="#0563C1" 
stroke="none" 
 />
<use 
xlink:href ="#F2_14" 
 transform="matrix(0.012 , 0, 0 , -0.012, 525.4 , 199.4)"
fill="#0563C1" 
stroke="none" 
 />
<use 
xlink:href ="#F2_10" 
 transform="matrix(0.012 , 0, 0 , -0.012, 536.7 , 199.4)"
fill="#0563C1" 
stroke="none" 
 />
<use 
xlink:href ="#F2_11" 
 transform="matrix(0.012 , 0, 0 , -0.012, 548.2 , 199.4)"
fill="#0563C1" 
stroke="none" 
 />
<use 
xlink:href ="#F2_17" 
 transform="matrix(0.012 , 0, 0 , -0.012, 557.8 , 199.4)"
fill="#0563C1" 
stroke="none" 
 />
<use 
xlink:href ="#F2_22" 
 transform="matrix(0.012 , 0, 0 , -0.012, 569.2 , 199.4)"
fill="#0563C1" 
stroke="none" 
 />
<use 
xlink:href ="#F2_12" 
 transform="matrix(0.012 , 0, 0 , -0.012, 574.4 , 199.4)"
fill="#0563C1" 
stroke="none" 
 />
<use 
xlink:href ="#F2_9" 
 transform="matrix(0.012 , 0, 0 , -0.012, 581.4 , 199.4)"
fill="#0563C1" 
stroke="none" 
 />
<use 
xlink:href ="#F2_10" 
 transform="matrix(0.012 , 0, 0 , -0.012, 586.6 , 199.4)"
fill="#0563C1" 
stroke="none" 
 />
<use 
xlink:href ="#F2_23" 
 transform="matrix(0.012 , 0, 0 , -0.012, 598.2 , 199.4)"
fill="#0563C1" 
stroke="none" 
 />
<use 
xlink:href ="#F2_78" 
 transform="matrix(0.012 , 0, 0 , -0.012, 609.8 , 199.4)"
fill="#0563C1" 
stroke="none" 
 />
<use 
xlink:href ="#F2_2" 
 transform="matrix(0.012 , 0, 0 , -0.012, 614.7 , 199.4)"
fill="#0563C1" 
stroke="none" 
 />
<use 
xlink:href ="#F2_13" 
 transform="matrix(0.012 , 0, 0 , -0.012, 623.2 , 199.4)"
fill="#0563C1" 
stroke="none" 
 />
<use 
xlink:href ="#F2_6" 
 transform="matrix(0.012 , 0, 0 , -0.012, 630.9 , 199.4)"
fill="#0563C1" 
stroke="none" 
 />
<use 
xlink:href ="#F2_9" 
 transform="matrix(0.012 , 0, 0 , -0.012, 642.3 , 199.4)"
fill="#0563C1" 
stroke="none" 
 />
<use 
xlink:href ="#F2_10" 
 transform="matrix(0.012 , 0, 0 , -0.012, 647.4 , 199.4)"
fill="#0563C1" 
stroke="none" 
 />
<use 
xlink:href ="#F2_9" 
 transform="matrix(0.012 , 0, 0 , -0.012, 659 , 199.4)"
fill="#0563C1" 
stroke="none" 
 />
<use 
xlink:href ="#F2_10" 
 transform="matrix(0.012 , 0, 0 , -0.012, 664.1 , 199.4)"
fill="#0563C1" 
stroke="none" 
 />
<use 
xlink:href ="#F2_23" 
 transform="matrix(0.012 , 0, 0 , -0.012, 675.6 , 199.4)"
fill="#0563C1" 
stroke="none" 
 />
<use 
xlink:href ="#F2_24" 
 transform="matrix(0.012 , 0, 0 , -0.012, 687.3 , 199.4)"
fill="#0563C1" 
stroke="none" 
 />
<use 
xlink:href ="#F2_29" 
 transform="matrix(0.012 , 0, 0 , -0.012, 693.2 , 199.4)"
fill="#0563C1" 
stroke="none" 
 />
<use 
xlink:href ="#F2_16" 
 transform="matrix(0.012 , 0, 0 , -0.012, 703.5 , 199.4)"
fill="#0563C1" 
stroke="none" 
 />
<use 
xlink:href ="#F2_8" 
 transform="matrix(0.012 , 0, 0 , -0.012, 709.9 , 199.4)"
fill="#0563C1" 
stroke="none" 
 />
<use 
xlink:href ="#F2_33" 
 transform="matrix(0.012 , 0, 0 , -0.012, 727.7 , 199.4)"
fill="#0563C1" 
stroke="none" 
 />
<use 
xlink:href ="#F2_12" 
 transform="matrix(0.012 , 0, 0 , -0.012, 737.4 , 199.4)"
fill="#0563C1" 
stroke="none" 
 />
<use 
xlink:href ="#F2_6" 
 transform="matrix(0.012 , 0, 0 , -0.012, 744.6 , 199.4)"
fill="#0563C1" 
stroke="none" 
 />
<use 
xlink:href ="#F2_26" 
 transform="matrix(0.012 , 0, 0 , -0.012, 755.9 , 199.4)"
fill="#0563C1" 
stroke="none" 
 />
<use 
xlink:href ="#F2_57" 
 transform="matrix(0.012 , 0, 0 , -0.012, 767.5 , 199.4)"
fill="#0563C1" 
stroke="none" 
 />
<use 
xlink:href ="#F2_16" 
 transform="matrix(0.012 , 0, 0 , -0.012, 783.1 , 199.4)"
fill="#0563C1" 
stroke="none" 
 />
<use 
xlink:href ="#F2_13" 
 transform="matrix(0.012 , 0, 0 , -0.012, 789.5 , 199.4)"
fill="#0563C1" 
stroke="none" 
 />
<use 
xlink:href ="#F2_4" 
 transform="matrix(0.012 , 0, 0 , -0.012, 796.5 , 199.4)"
fill="#0563C1" 
stroke="none" 
 />
<use 
xlink:href ="#F2_4" 
 transform="matrix(0.012 , 0, 0 , -0.012, 808 , 199.4)"
fill="#0563C1" 
stroke="none" 
 />
<use 
xlink:href ="#F2_78" 
 transform="matrix(0.012 , 0, 0 , -0.012, 819.2 , 199.4)"
fill="#0563C1" 
stroke="none" 
 />
<use 
xlink:href ="#F2_12" 
 transform="matrix(0.012 , 0, 0 , -0.012, 825.8 , 199.4)"
fill="#0563C1" 
stroke="none" 
 />
<use 
xlink:href ="#F2_17" 
 transform="matrix(0.012 , 0, 0 , -0.012, 833 , 199.4)"
fill="#0563C1" 
stroke="none" 
 />
<use 
xlink:href ="#F2_12" 
 transform="matrix(0.012 , 0, 0 , -0.012, 844.6 , 199.4)"
fill="#0563C1" 
stroke="none" 
 />
<use 
xlink:href ="#F2_14" 
 transform="matrix(0.012 , 0, 0 , -0.012, 851.6 , 199.4)"
fill="#0563C1" 
stroke="none" 
 />
<use 
xlink:href ="#F2_13" 
 transform="matrix(0.012 , 0, 0 , -0.012, 862.9 , 199.4)"
fill="#0563C1" 
stroke="none" 
 />
<use 
xlink:href ="#F2_9" 
 transform="matrix(0.012 , 0, 0 , -0.012, 870.5 , 199.4)"
fill="#0563C1" 
stroke="none" 
 />
<use 
xlink:href ="#F2_6" 
 transform="matrix(0.012 , 0, 0 , -0.012, 875.7 , 199.4)"
fill="#0563C1" 
stroke="none" 
 />
<use 
xlink:href ="#F2_22" 
 transform="matrix(0.012 , 0, 0 , -0.012, 887 , 199.4)"
fill="#0563C1" 
stroke="none" 
 />
<use 
xlink:href ="#F2_11" 
 transform="matrix(0.012 , 0, 0 , -0.012, 892.2 , 199.4)"
fill="#0563C1" 
stroke="none" 
 />
</g>
<path d="M113,201l789,0" class="g2_65" />
<g clip-path="url(#c0_65)">
<use 
xlink:href ="#F1_26" 
 transform="matrix(0.012 , 0, 0 , -0.012, 79.4 , 242.3)"
fill="#000000" 
stroke="none" 
 />
<use 
xlink:href ="#F2_3" 
 transform="matrix(0.012 , 0, 0 , -0.012, 113.8 , 243.4)"
fill="#0563C1" 
stroke="none" 
 />
<use 
xlink:href ="#F2_12" 
 transform="matrix(0.012 , 0, 0 , -0.012, 125.3 , 243.4)"
fill="#0563C1" 
stroke="none" 
 />
<use 
xlink:href ="#F2_12" 
 transform="matrix(0.012 , 0, 0 , -0.012, 132.5 , 243.4)"
fill="#0563C1" 
stroke="none" 
 />
<use 
xlink:href ="#F2_15" 
 transform="matrix(0.012 , 0, 0 , -0.012, 139.7 , 243.4)"
fill="#0563C1" 
stroke="none" 
 />
<use 
xlink:href ="#F2_37" 
 transform="matrix(0.012 , 0, 0 , -0.012, 151.3 , 243.4)"
fill="#0563C1" 
stroke="none" 
 />
<use 
xlink:href ="#F2_42" 
 transform="matrix(0.012 , 0, 0 , -0.012, 157.4 , 243.4)"
fill="#0563C1" 
stroke="none" 
 />
<use 
xlink:href ="#F2_42" 
 transform="matrix(0.012 , 0, 0 , -0.012, 163.6 , 243.4)"
fill="#0563C1" 
stroke="none" 
 />
<use 
xlink:href ="#F2_20" 
 transform="matrix(0.012 , 0, 0 , -0.012, 169.9 , 243.4)"
fill="#0563C1" 
stroke="none" 
 />
<use 
xlink:href ="#F2_20" 
 transform="matrix(0.012 , 0, 0 , -0.012, 184.8 , 243.4)"
fill="#0563C1" 
stroke="none" 
 />
<use 
xlink:href ="#F2_20" 
 transform="matrix(0.012 , 0, 0 , -0.012, 199.9 , 243.4)"
fill="#0563C1" 
stroke="none" 
 />
<use 
xlink:href ="#F2_24" 
 transform="matrix(0.012 , 0, 0 , -0.012, 213.1 , 243.4)"
fill="#0563C1" 
stroke="none" 
 />
<use 
xlink:href ="#F2_9" 
 transform="matrix(0.012 , 0, 0 , -0.012, 218.9 , 243.4)"
fill="#0563C1" 
stroke="none" 
 />
<use 
xlink:href ="#F2_10" 
 transform="matrix(0.012 , 0, 0 , -0.012, 224.1 , 243.4)"
fill="#0563C1" 
stroke="none" 
 />
<use 
xlink:href ="#F2_30" 
 transform="matrix(0.012 , 0, 0 , -0.012, 235.7 , 243.4)"
fill="#0563C1" 
stroke="none" 
 />
<use 
xlink:href ="#F2_10" 
 transform="matrix(0.012 , 0, 0 , -0.012, 247.1 , 243.4)"
fill="#0563C1" 
stroke="none" 
 />
<use 
xlink:href ="#F2_9" 
 transform="matrix(0.012 , 0, 0 , -0.012, 258.7 , 243.4)"
fill="#0563C1" 
stroke="none" 
 />
<use 
xlink:href ="#F2_12" 
 transform="matrix(0.012 , 0, 0 , -0.012, 263.8 , 243.4)"
fill="#0563C1" 
stroke="none" 
 />
<use 
xlink:href ="#F2_4" 
 transform="matrix(0.012 , 0, 0 , -0.012, 271 , 243.4)"
fill="#0563C1" 
stroke="none" 
 />
<use 
xlink:href ="#F2_11" 
 transform="matrix(0.012 , 0, 0 , -0.012, 282.4 , 243.4)"
fill="#0563C1" 
stroke="none" 
 />
<use 
xlink:href ="#F2_21" 
 transform="matrix(0.012 , 0, 0 , -0.012, 291.9 , 243.4)"
fill="#0563C1" 
stroke="none" 
 />
<use 
xlink:href ="#F2_9" 
 transform="matrix(0.012 , 0, 0 , -0.012, 302.6 , 243.4)"
fill="#0563C1" 
stroke="none" 
 />
<use 
xlink:href ="#F2_22" 
 transform="matrix(0.012 , 0, 0 , -0.012, 307.6 , 243.4)"
fill="#0563C1" 
stroke="none" 
 />
<use 
xlink:href ="#F2_22" 
 transform="matrix(0.012 , 0, 0 , -0.012, 312.8 , 243.4)"
fill="#0563C1" 
stroke="none" 
 />
<use 
xlink:href ="#F2_11" 
 transform="matrix(0.012 , 0, 0 , -0.012, 317.8 , 243.4)"
fill="#0563C1" 
stroke="none" 
 />
<use 
xlink:href ="#F2_24" 
 transform="matrix(0.012 , 0, 0 , -0.012, 327.4 , 243.4)"
fill="#0563C1" 
stroke="none" 
 />
<use 
xlink:href ="#F2_29" 
 transform="matrix(0.012 , 0, 0 , -0.012, 333.2 , 243.4)"
fill="#0563C1" 
stroke="none" 
 />
<use 
xlink:href ="#F2_14" 
 transform="matrix(0.012 , 0, 0 , -0.012, 343.6 , 243.4)"
fill="#0563C1" 
stroke="none" 
 />
<use 
xlink:href ="#F2_8" 
 transform="matrix(0.012 , 0, 0 , -0.012, 354.8 , 243.4)"
fill="#0563C1" 
stroke="none" 
 />
<use 
xlink:href ="#F2_42" 
 transform="matrix(0.012 , 0, 0 , -0.012, 372.5 , 243.4)"
fill="#0563C1" 
stroke="none" 
 />
<use 
xlink:href ="#F2_12" 
 transform="matrix(0.012 , 0, 0 , -0.012, 378.7 , 243.4)"
fill="#0563C1" 
stroke="none" 
 />
<use 
xlink:href ="#F2_13" 
 transform="matrix(0.012 , 0, 0 , -0.012, 385.9 , 243.4)"
fill="#0563C1" 
stroke="none" 
 />
<use 
xlink:href ="#F2_6" 
 transform="matrix(0.012 , 0, 0 , -0.012, 393.5 , 243.4)"
fill="#0563C1" 
stroke="none" 
 />
<use 
xlink:href ="#F2_9" 
 transform="matrix(0.012 , 0, 0 , -0.012, 405 , 243.4)"
fill="#0563C1" 
stroke="none" 
 />
<use 
xlink:href ="#F2_10" 
 transform="matrix(0.012 , 0, 0 , -0.012, 410 , 243.4)"
fill="#0563C1" 
stroke="none" 
 />
<use 
xlink:href ="#F2_9" 
 transform="matrix(0.012 , 0, 0 , -0.012, 421.6 , 243.4)"
fill="#0563C1" 
stroke="none" 
 />
<use 
xlink:href ="#F2_10" 
 transform="matrix(0.012 , 0, 0 , -0.012, 426.7 , 243.4)"
fill="#0563C1" 
stroke="none" 
 />
<use 
xlink:href ="#F2_23" 
 transform="matrix(0.012 , 0, 0 , -0.012, 438.3 , 243.4)"
fill="#0563C1" 
stroke="none" 
 />
<use 
xlink:href ="#F2_42" 
 transform="matrix(0.012 , 0, 0 , -0.012, 450 , 243.4)"
fill="#0563C1" 
stroke="none" 
 />
<use 
xlink:href ="#F2_22" 
 transform="matrix(0.012 , 0, 0 , -0.012, 456.1 , 243.4)"
fill="#0563C1" 
stroke="none" 
 />
<use 
xlink:href ="#F2_4" 
 transform="matrix(0.012 , 0, 0 , -0.012, 461.3 , 243.4)"
fill="#0563C1" 
stroke="none" 
 />
<use 
xlink:href ="#F2_6" 
 transform="matrix(0.012 , 0, 0 , -0.012, 472.6 , 243.4)"
fill="#0563C1" 
stroke="none" 
 />
<use 
xlink:href ="#F2_13" 
 transform="matrix(0.012 , 0, 0 , -0.012, 484 , 243.4)"
fill="#0563C1" 
stroke="none" 
 />
<use 
xlink:href ="#F2_10" 
 transform="matrix(0.012 , 0, 0 , -0.012, 491.4 , 243.4)"
fill="#0563C1" 
stroke="none" 
 />
<use 
xlink:href ="#F2_9" 
 transform="matrix(0.012 , 0, 0 , -0.012, 503 , 243.4)"
fill="#0563C1" 
stroke="none" 
 />
<use 
xlink:href ="#F2_10" 
 transform="matrix(0.012 , 0, 0 , -0.012, 508 , 243.4)"
fill="#0563C1" 
stroke="none" 
 />
<use 
xlink:href ="#F2_23" 
 transform="matrix(0.012 , 0, 0 , -0.012, 519.6 , 243.4)"
fill="#0563C1" 
stroke="none" 
 />
<use 
xlink:href ="#F2_78" 
 transform="matrix(0.012 , 0, 0 , -0.012, 531.4 , 243.4)"
fill="#0563C1" 
stroke="none" 
 />
<use 
xlink:href ="#F2_11" 
 transform="matrix(0.012 , 0, 0 , -0.012, 537.9 , 243.4)"
fill="#0563C1" 
stroke="none" 
 />
<use 
xlink:href ="#F2_31" 
 transform="matrix(0.012 , 0, 0 , -0.012, 547.4 , 243.4)"
fill="#0563C1" 
stroke="none" 
 />
<use 
xlink:href ="#F2_22" 
 transform="matrix(0.012 , 0, 0 , -0.012, 559.2 , 243.4)"
fill="#0563C1" 
stroke="none" 
 />
<use 
xlink:href ="#F2_78" 
 transform="matrix(0.012 , 0, 0 , -0.012, 564.3 , 243.4)"
fill="#0563C1" 
stroke="none" 
 />
<use 
xlink:href ="#F2_16" 
 transform="matrix(0.012 , 0, 0 , -0.012, 570.9 , 243.4)"
fill="#0563C1" 
stroke="none" 
 />
<use 
xlink:href ="#F2_14" 
 transform="matrix(0.012 , 0, 0 , -0.012, 577.3 , 243.4)"
fill="#0563C1" 
stroke="none" 
 />
<use 
xlink:href ="#F2_13" 
 transform="matrix(0.012 , 0, 0 , -0.012, 588.5 , 243.4)"
fill="#0563C1" 
stroke="none" 
 />
<use 
xlink:href ="#F2_78" 
 transform="matrix(0.012 , 0, 0 , -0.012, 594.9 , 243.4)"
fill="#0563C1" 
stroke="none" 
 />
<use 
xlink:href ="#F2_14" 
 transform="matrix(0.012 , 0, 0 , -0.012, 601.6 , 243.4)"
fill="#0563C1" 
stroke="none" 
 />
<use 
xlink:href ="#F2_13" 
 transform="matrix(0.012 , 0, 0 , -0.012, 612.9 , 243.4)"
fill="#0563C1" 
stroke="none" 
 />
<use 
xlink:href ="#F2_6" 
 transform="matrix(0.012 , 0, 0 , -0.012, 620.5 , 243.4)"
fill="#0563C1" 
stroke="none" 
 />
<use 
xlink:href ="#F2_29" 
 transform="matrix(0.012 , 0, 0 , -0.012, 631.8 , 243.4)"
fill="#0563C1" 
stroke="none" 
 />
<use 
xlink:href ="#F2_22" 
 transform="matrix(0.012 , 0, 0 , -0.012, 642 , 243.4)"
fill="#0563C1" 
stroke="none" 
 />
<use 
xlink:href ="#F2_4" 
 transform="matrix(0.012 , 0, 0 , -0.012, 647.2 , 243.4)"
fill="#0563C1" 
stroke="none" 
 />
<use 
xlink:href ="#F2_24" 
 transform="matrix(0.012 , 0, 0 , -0.012, 658.5 , 243.4)"
fill="#0563C1" 
stroke="none" 
 />
<use 
xlink:href ="#F2_3" 
 transform="matrix(0.012 , 0, 0 , -0.012, 664.4 , 243.4)"
fill="#0563C1" 
stroke="none" 
 />
<use 
xlink:href ="#F2_12" 
 transform="matrix(0.012 , 0, 0 , -0.012, 675.9 , 243.4)"
fill="#0563C1" 
stroke="none" 
 />
<use 
xlink:href ="#F2_8" 
 transform="matrix(0.012 , 0, 0 , -0.012, 683.1 , 243.4)"
fill="#0563C1" 
stroke="none" 
 />
<use 
xlink:href ="#F2_22" 
 transform="matrix(0.012 , 0, 0 , -0.012, 700.9 , 243.4)"
fill="#0563C1" 
stroke="none" 
 />
</g>
<path d="M113,245l593,0" class="g2_65" />
<g clip-path="url(#c0_65)">
<use 
xlink:href ="#F1_26" 
 transform="matrix(0.012 , 0, 0 , -0.012, 79.4 , 286.2)"
fill="#000000" 
stroke="none" 
 />
<use 
xlink:href ="#F2_3" 
 transform="matrix(0.012 , 0, 0 , -0.012, 113.8 , 287.2)"
fill="#0563C1" 
stroke="none" 
 />
<use 
xlink:href ="#F2_12" 
 transform="matrix(0.012 , 0, 0 , -0.012, 125.3 , 287.2)"
fill="#0563C1" 
stroke="none" 
 />
<use 
xlink:href ="#F2_12" 
 transform="matrix(0.012 , 0, 0 , -0.012, 132.5 , 287.2)"
fill="#0563C1" 
stroke="none" 
 />
<use 
xlink:href ="#F2_15" 
 transform="matrix(0.012 , 0, 0 , -0.012, 139.7 , 287.2)"
fill="#0563C1" 
stroke="none" 
 />
<use 
xlink:href ="#F2_37" 
 transform="matrix(0.012 , 0, 0 , -0.012, 151.3 , 287.2)"
fill="#0563C1" 
stroke="none" 
 />
<use 
xlink:href ="#F2_42" 
 transform="matrix(0.012 , 0, 0 , -0.012, 157.4 , 287.2)"
fill="#0563C1" 
stroke="none" 
 />
<use 
xlink:href ="#F2_42" 
 transform="matrix(0.012 , 0, 0 , -0.012, 163.6 , 287.2)"
fill="#0563C1" 
stroke="none" 
 />
<use 
xlink:href ="#F2_20" 
 transform="matrix(0.012 , 0, 0 , -0.012, 169.9 , 287.2)"
fill="#0563C1" 
stroke="none" 
 />
<use 
xlink:href ="#F2_20" 
 transform="matrix(0.012 , 0, 0 , -0.012, 184.8 , 287.2)"
fill="#0563C1" 
stroke="none" 
 />
<use 
xlink:href ="#F2_20" 
 transform="matrix(0.012 , 0, 0 , -0.012, 199.9 , 287.2)"
fill="#0563C1" 
stroke="none" 
 />
<use 
xlink:href ="#F2_24" 
 transform="matrix(0.012 , 0, 0 , -0.012, 213.1 , 287.2)"
fill="#0563C1" 
stroke="none" 
 />
<use 
xlink:href ="#F2_46" 
 transform="matrix(0.012 , 0, 0 , -0.012, 218.9 , 287.2)"
fill="#0563C1" 
stroke="none" 
 />
<use 
xlink:href ="#F2_21" 
 transform="matrix(0.012 , 0, 0 , -0.012, 230.5 , 287.2)"
fill="#0563C1" 
stroke="none" 
 />
<use 
xlink:href ="#F2_4" 
 transform="matrix(0.012 , 0, 0 , -0.012, 240.4 , 287.2)"
fill="#0563C1" 
stroke="none" 
 />
<use 
xlink:href ="#F2_19" 
 transform="matrix(0.012 , 0, 0 , -0.012, 251.7 , 287.2)"
fill="#0563C1" 
stroke="none" 
 />
<use 
xlink:href ="#F2_7" 
 transform="matrix(0.012 , 0, 0 , -0.012, 262.6 , 287.2)"
fill="#0563C1" 
stroke="none" 
 />
<use 
xlink:href ="#F2_6" 
 transform="matrix(0.012 , 0, 0 , -0.012, 274.3 , 287.2)"
fill="#0563C1" 
stroke="none" 
 />
<use 
xlink:href ="#F2_12" 
 transform="matrix(0.012 , 0, 0 , -0.012, 285.6 , 287.2)"
fill="#0563C1" 
stroke="none" 
 />
<use 
xlink:href ="#F2_6" 
 transform="matrix(0.012 , 0, 0 , -0.012, 292.8 , 287.2)"
fill="#0563C1" 
stroke="none" 
 />
<use 
xlink:href ="#F2_24" 
 transform="matrix(0.012 , 0, 0 , -0.012, 304.1 , 287.2)"
fill="#0563C1" 
stroke="none" 
 />
<use 
xlink:href ="#F2_29" 
 transform="matrix(0.012 , 0, 0 , -0.012, 310 , 287.2)"
fill="#0563C1" 
stroke="none" 
 />
<use 
xlink:href ="#F2_14" 
 transform="matrix(0.012 , 0, 0 , -0.012, 320.3 , 287.2)"
fill="#0563C1" 
stroke="none" 
 />
<use 
xlink:href ="#F2_8" 
 transform="matrix(0.012 , 0, 0 , -0.012, 331.4 , 287.2)"
fill="#0563C1" 
stroke="none" 
 />
<use 
xlink:href ="#F2_42" 
 transform="matrix(0.012 , 0, 0 , -0.012, 349.3 , 287.2)"
fill="#0563C1" 
stroke="none" 
 />
<use 
xlink:href ="#F2_11" 
 transform="matrix(0.012 , 0, 0 , -0.012, 355.5 , 287.2)"
fill="#0563C1" 
stroke="none" 
 />
<use 
xlink:href ="#F2_31" 
 transform="matrix(0.012 , 0, 0 , -0.012, 365 , 287.2)"
fill="#0563C1" 
stroke="none" 
 />
<use 
xlink:href ="#F2_22" 
 transform="matrix(0.012 , 0, 0 , -0.012, 376.7 , 287.2)"
fill="#0563C1" 
stroke="none" 
 />
<use 
xlink:href ="#F2_42" 
 transform="matrix(0.012 , 0, 0 , -0.012, 381.8 , 287.2)"
fill="#0563C1" 
stroke="none" 
 />
<use 
xlink:href ="#F2_11" 
 transform="matrix(0.012 , 0, 0 , -0.012, 388 , 287.2)"
fill="#0563C1" 
stroke="none" 
 />
<use 
xlink:href ="#F2_31" 
 transform="matrix(0.012 , 0, 0 , -0.012, 397.5 , 287.2)"
fill="#0563C1" 
stroke="none" 
 />
<use 
xlink:href ="#F2_22" 
 transform="matrix(0.012 , 0, 0 , -0.012, 409.3 , 287.2)"
fill="#0563C1" 
stroke="none" 
 />
<use 
xlink:href ="#F2_11" 
 transform="matrix(0.012 , 0, 0 , -0.012, 414.4 , 287.2)"
fill="#0563C1" 
stroke="none" 
 />
<use 
xlink:href ="#F2_4" 
 transform="matrix(0.012 , 0, 0 , -0.012, 423.9 , 287.2)"
fill="#0563C1" 
stroke="none" 
 />
<use 
xlink:href ="#F2_22" 
 transform="matrix(0.012 , 0, 0 , -0.012, 435.3 , 287.2)"
fill="#0563C1" 
stroke="none" 
 />
<use 
xlink:href ="#F2_4" 
 transform="matrix(0.012 , 0, 0 , -0.012, 440.4 , 287.2)"
fill="#0563C1" 
stroke="none" 
 />
<use 
xlink:href ="#F2_29" 
 transform="matrix(0.012 , 0, 0 , -0.012, 451.8 , 287.2)"
fill="#0563C1" 
stroke="none" 
 />
<use 
xlink:href ="#F2_12" 
 transform="matrix(0.012 , 0, 0 , -0.012, 462 , 287.2)"
fill="#0563C1" 
stroke="none" 
 />
<use 
xlink:href ="#F2_24" 
 transform="matrix(0.012 , 0, 0 , -0.012, 469.2 , 287.2)"
fill="#0563C1" 
stroke="none" 
 />
<use 
xlink:href ="#F2_3" 
 transform="matrix(0.012 , 0, 0 , -0.012, 475 , 287.2)"
fill="#0563C1" 
stroke="none" 
 />
<use 
xlink:href ="#F2_12" 
 transform="matrix(0.012 , 0, 0 , -0.012, 486.6 , 287.2)"
fill="#0563C1" 
stroke="none" 
 />
<use 
xlink:href ="#F2_8" 
 transform="matrix(0.012 , 0, 0 , -0.012, 493.7 , 287.2)"
fill="#0563C1" 
stroke="none" 
 />
<use 
xlink:href ="#F2_22" 
 transform="matrix(0.012 , 0, 0 , -0.012, 511.5 , 287.2)"
fill="#0563C1" 
stroke="none" 
 />
<use 
xlink:href ="#F2_92" 
 transform="matrix(0.012 , 0, 0 , -0.012, 516.6 , 287.2)"
fill="#0563C1" 
stroke="none" 
 />
<use 
xlink:href ="#F2_74" 
 transform="matrix(0.012 , 0, 0 , -0.012, 532.1 , 287.2)"
fill="#0563C1" 
stroke="none" 
 />
<use 
xlink:href ="#F2_47" 
 transform="matrix(0.012 , 0, 0 , -0.012, 544.8 , 287.2)"
fill="#0563C1" 
stroke="none" 
 />
<use 
xlink:href ="#F2_61" 
 transform="matrix(0.012 , 0, 0 , -0.012, 556.4 , 287.2)"
fill="#0563C1" 
stroke="none" 
 />
</g>
<path d="M113,289l455,0" class="g2_65" />
<g clip-path="url(#c0_65)">
<use 
xlink:href ="#F1_26" 
 transform="matrix(0.012 , 0, 0 , -0.012, 79.4 , 330.2)"
fill="#000000" 
stroke="none" 
 />
<use 
xlink:href ="#F2_3" 
 transform="matrix(0.012 , 0, 0 , -0.012, 113.8 , 331.1)"
fill="#0563C1" 
stroke="none" 
 />
<use 
xlink:href ="#F2_12" 
 transform="matrix(0.012 , 0, 0 , -0.012, 125.3 , 331.1)"
fill="#0563C1" 
stroke="none" 
 />
<use 
xlink:href ="#F2_12" 
 transform="matrix(0.012 , 0, 0 , -0.012, 132.5 , 331.1)"
fill="#0563C1" 
stroke="none" 
 />
<use 
xlink:href ="#F2_15" 
 transform="matrix(0.012 , 0, 0 , -0.012, 139.7 , 331.1)"
fill="#0563C1" 
stroke="none" 
 />
<use 
xlink:href ="#F2_37" 
 transform="matrix(0.012 , 0, 0 , -0.012, 151.3 , 331.1)"
fill="#0563C1" 
stroke="none" 
 />
<use 
xlink:href ="#F2_42" 
 transform="matrix(0.012 , 0, 0 , -0.012, 157.4 , 331.1)"
fill="#0563C1" 
stroke="none" 
 />
<use 
xlink:href ="#F2_42" 
 transform="matrix(0.012 , 0, 0 , -0.012, 163.6 , 331.1)"
fill="#0563C1" 
stroke="none" 
 />
<use 
xlink:href ="#F2_20" 
 transform="matrix(0.012 , 0, 0 , -0.012, 169.9 , 331.1)"
fill="#0563C1" 
stroke="none" 
 />
<use 
xlink:href ="#F2_20" 
 transform="matrix(0.012 , 0, 0 , -0.012, 184.8 , 331.1)"
fill="#0563C1" 
stroke="none" 
 />
<use 
xlink:href ="#F2_20" 
 transform="matrix(0.012 , 0, 0 , -0.012, 199.9 , 331.1)"
fill="#0563C1" 
stroke="none" 
 />
<use 
xlink:href ="#F2_24" 
 transform="matrix(0.012 , 0, 0 , -0.012, 213.1 , 331.1)"
fill="#0563C1" 
stroke="none" 
 />
<use 
xlink:href ="#F2_11" 
 transform="matrix(0.012 , 0, 0 , -0.012, 218.9 , 331.1)"
fill="#0563C1" 
stroke="none" 
 />
<use 
xlink:href ="#F2_12" 
 transform="matrix(0.012 , 0, 0 , -0.012, 228.5 , 331.1)"
fill="#0563C1" 
stroke="none" 
 />
<use 
xlink:href ="#F2_17" 
 transform="matrix(0.012 , 0, 0 , -0.012, 235.7 , 331.1)"
fill="#0563C1" 
stroke="none" 
 />
<use 
xlink:href ="#F2_7" 
 transform="matrix(0.012 , 0, 0 , -0.012, 247.2 , 331.1)"
fill="#0563C1" 
stroke="none" 
 />
<use 
xlink:href ="#F2_19" 
 transform="matrix(0.012 , 0, 0 , -0.012, 258.9 , 331.1)"
fill="#0563C1" 
stroke="none" 
 />
<use 
xlink:href ="#F2_12" 
 transform="matrix(0.012 , 0, 0 , -0.012, 269.7 , 331.1)"
fill="#0563C1" 
stroke="none" 
 />
<use 
xlink:href ="#F2_14" 
 transform="matrix(0.012 , 0, 0 , -0.012, 276.9 , 331.1)"
fill="#0563C1" 
stroke="none" 
 />
<use 
xlink:href ="#F2_10" 
 transform="matrix(0.012 , 0, 0 , -0.012, 288.1 , 331.1)"
fill="#0563C1" 
stroke="none" 
 />
<use 
xlink:href ="#F2_9" 
 transform="matrix(0.012 , 0, 0 , -0.012, 299.7 , 331.1)"
fill="#0563C1" 
stroke="none" 
 />
<use 
xlink:href ="#F2_23" 
 transform="matrix(0.012 , 0, 0 , -0.012, 304.7 , 331.1)"
fill="#0563C1" 
stroke="none" 
 />
<use 
xlink:href ="#F2_3" 
 transform="matrix(0.012 , 0, 0 , -0.012, 316.5 , 331.1)"
fill="#0563C1" 
stroke="none" 
 />
<use 
xlink:href ="#F2_12" 
 transform="matrix(0.012 , 0, 0 , -0.012, 328.1 , 331.1)"
fill="#0563C1" 
stroke="none" 
 />
<use 
xlink:href ="#F2_24" 
 transform="matrix(0.012 , 0, 0 , -0.012, 335.1 , 331.1)"
fill="#0563C1" 
stroke="none" 
 />
<use 
xlink:href ="#F2_29" 
 transform="matrix(0.012 , 0, 0 , -0.012, 341 , 331.1)"
fill="#0563C1" 
stroke="none" 
 />
<use 
xlink:href ="#F2_14" 
 transform="matrix(0.012 , 0, 0 , -0.012, 351.3 , 331.1)"
fill="#0563C1" 
stroke="none" 
 />
<use 
xlink:href ="#F2_8" 
 transform="matrix(0.012 , 0, 0 , -0.012, 362.4 , 331.1)"
fill="#0563C1" 
stroke="none" 
 />
<use 
xlink:href ="#F2_42" 
 transform="matrix(0.012 , 0, 0 , -0.012, 380.1 , 331.1)"
fill="#0563C1" 
stroke="none" 
 />
<use 
xlink:href ="#F2_7" 
 transform="matrix(0.012 , 0, 0 , -0.012, 386.4 , 331.1)"
fill="#0563C1" 
stroke="none" 
 />
<use 
xlink:href ="#F2_26" 
 transform="matrix(0.012 , 0, 0 , -0.012, 398.1 , 331.1)"
fill="#0563C1" 
stroke="none" 
 />
<use 
xlink:href ="#F2_8" 
 transform="matrix(0.012 , 0, 0 , -0.012, 409.7 , 331.1)"
fill="#0563C1" 
stroke="none" 
 />
<use 
xlink:href ="#F2_11" 
 transform="matrix(0.012 , 0, 0 , -0.012, 427.5 , 331.1)"
fill="#0563C1" 
stroke="none" 
 />
<use 
xlink:href ="#F2_42" 
 transform="matrix(0.012 , 0, 0 , -0.012, 437.1 , 331.1)"
fill="#0563C1" 
stroke="none" 
 />
<use 
xlink:href ="#F2_7" 
 transform="matrix(0.012 , 0, 0 , -0.012, 443.2 , 331.1)"
fill="#0563C1" 
stroke="none" 
 />
<use 
xlink:href ="#F2_6" 
 transform="matrix(0.012 , 0, 0 , -0.012, 454.9 , 331.1)"
fill="#0563C1" 
stroke="none" 
 />
<use 
xlink:href ="#F2_12" 
 transform="matrix(0.012 , 0, 0 , -0.012, 466.2 , 331.1)"
fill="#0563C1" 
stroke="none" 
 />
<use 
xlink:href ="#F2_6" 
 transform="matrix(0.012 , 0, 0 , -0.012, 473.4 , 331.1)"
fill="#0563C1" 
stroke="none" 
 />
<use 
xlink:href ="#F2_26" 
 transform="matrix(0.012 , 0, 0 , -0.012, 484.8 , 331.1)"
fill="#0563C1" 
stroke="none" 
 />
<use 
xlink:href ="#F2_6" 
 transform="matrix(0.012 , 0, 0 , -0.012, 496.3 , 331.1)"
fill="#0563C1" 
stroke="none" 
 />
<use 
xlink:href ="#F2_11" 
 transform="matrix(0.012 , 0, 0 , -0.012, 507.7 , 331.1)"
fill="#0563C1" 
stroke="none" 
 />
<use 
xlink:href ="#F2_4" 
 transform="matrix(0.012 , 0, 0 , -0.012, 517.2 , 331.1)"
fill="#0563C1" 
stroke="none" 
 />
<use 
xlink:href ="#F2_78" 
 transform="matrix(0.012 , 0, 0 , -0.012, 528.5 , 331.1)"
fill="#0563C1" 
stroke="none" 
 />
<use 
xlink:href ="#F2_8" 
 transform="matrix(0.012 , 0, 0 , -0.012, 535.2 , 331.1)"
fill="#0563C1" 
stroke="none" 
 />
<use 
xlink:href ="#F2_14" 
 transform="matrix(0.012 , 0, 0 , -0.012, 553 , 331.1)"
fill="#0563C1" 
stroke="none" 
 />
<use 
xlink:href ="#F2_7" 
 transform="matrix(0.012 , 0, 0 , -0.012, 564.1 , 331.1)"
fill="#0563C1" 
stroke="none" 
 />
<use 
xlink:href ="#F2_4" 
 transform="matrix(0.012 , 0, 0 , -0.012, 575.9 , 331.1)"
fill="#0563C1" 
stroke="none" 
 />
<use 
xlink:href ="#F2_22" 
 transform="matrix(0.012 , 0, 0 , -0.012, 587.1 , 331.1)"
fill="#0563C1" 
stroke="none" 
 />
<use 
xlink:href ="#F2_24" 
 transform="matrix(0.012 , 0, 0 , -0.012, 592.3 , 331.1)"
fill="#0563C1" 
stroke="none" 
 />
<use 
xlink:href ="#F2_15" 
 transform="matrix(0.012 , 0, 0 , -0.012, 598.1 , 331.1)"
fill="#0563C1" 
stroke="none" 
 />
<use 
xlink:href ="#F2_3" 
 transform="matrix(0.012 , 0, 0 , -0.012, 609.7 , 331.1)"
fill="#0563C1" 
stroke="none" 
 />
<use 
xlink:href ="#F2_15" 
 transform="matrix(0.012 , 0, 0 , -0.012, 621.3 , 331.1)"
fill="#0563C1" 
stroke="none" 
 />
</g>
<path d="M113,332l520,0" class="g2_65" />
<defs>
	<path d="M589.7,-13.7c0,0,-128.3,0,-223,39.7c0,0,-96.3,39.7,-160.4,111.5c0,0,-65.7,73.3,-97.8,172.6c0,0,-32.1,100.9,-32.1,220c0,0,0,122.3,33.6,221.6c0,0,35.1,99.3,99.3,168c0,0,65.7,70.3,160.4,108.5c0,0,96.3,38.2,218.5,38.2c0,0,168.1,0,281.1,-65.7c0,0,113.1,-65.7,165,-195.6L899.9,760.8c0,0,-15.3,36.7,-39.8,70.3c0,0,-25.9,35.2,-64.1,61.1c0,0,-38.2,26,-88.6,41.3c0,0,-52,16.8,-117.7,16.8c0,0,-88.6,0,-157.3,-29c0,0,-70.3,-30.6,-116.1,-85.6c0,0,-47.4,-56.5,-70.3,-132.9c0,0,-24.5,-77.9,-24.5,-172.7c0,0,0,-94.7,26,-172.6c0,0,26,-79.4,73.3,-136c0,0,48.9,-58,117.7,-88.6c0,0,70.3,-32.1,157.3,-32.1c0,0,61.1,0,111.6,15.3c0,0,50.4,16.8,90.1,45.8c0,0,41.3,29.1,73.3,68.8c0,0,32.1,41.2,56.6,88.6l117.6,-58c0,0,-29,-58.1,-70.3,-108.5c0,0,-42.8,-52,-97.8,-88.6c0,0,-56.5,-36.7,-128.3,-56.6c0,0,-71.8,-21.3,-158.9,-21.3Z" 
	id="F1_2"
	 />

	<path d="M418.6,84c0,0,52,0,93.2,13.8c0,0,42.8,15.3,71.8,51.9c0,0,29,36.7,44.3,97.8c0,0,15.3,62.6,15.3,155.8c0,0,0,94.8,-13.8,155.9c0,0,-15.2,61.1,-42.7,97.7c0,0,-27.5,36.7,-67.3,50.5c0,0,-41.2,15.2,-91.6,15.2c0,0,-52,0,-93.2,-15.2c0,0,-41.3,-15.3,-70.3,-52c0,0,-29,-38.2,-44.3,-99.3c0,0,-15.3,-61.1,-15.3,-152.8c0,0,0,-93.2,15.3,-154.3c0,0,16.8,-62.6,45.8,-99.3c0,0,29.1,-36.6,67.3,-50.4c0,0,39.7,-15.3,85.5,-15.3Zm1.5,-97.7c0,0,-84,0,-149.7,24.4c0,0,-67.2,24.4,-113,76.4c0,0,-45.9,51.9,-70.3,129.8c0,0,-24.5,79.5,-24.5,186.4c0,0,0,418.6,362.1,418.6c0,0,94.7,0,162,-25.9c0,0,68.7,-27.5,111.5,-79.5c0,0,44.3,-51.9,65.7,-129.8c0,0,21.4,-77.9,21.4,-183.4c0,0,0,-212.3,-93.2,-314.7c0,0,-93.2,-102.3,-272,-102.3Z" 
	id="F1_3"
	 />

	<path d="M452.2,84c0,0,56.6,0,93.2,21.4c0,0,36.7,21.4,58.1,62.7c0,0,22.9,41.2,30.5,99.3c0,0,9.2,59.5,9.2,135.9c0,0,0,74.9,-7.6,133c0,0,-9.2,58,-30.6,97.7c0,0,-22.9,41.3,-59.6,61.1c0,0,-36.6,21.4,-91.6,21.4c0,0,-44.4,0,-84.1,-12.2c0,0,-39.7,-12.2,-68.7,-47.4c0,0,-30.6,-36.6,-47.4,-99.3c0,0,-16.8,-64.1,-16.8,-165c0,0,0,-85.5,13.8,-143.6c0,0,13.7,-59.6,41.2,-96.2c0,0,27.5,-36.7,67.2,-52c0,0,41.3,-16.8,93.2,-16.8ZM102.4,-316.2l0,957.9c0,0,0,29,0,55c0,0,-1.6,27.5,-1.6,48.9c0,0,-1.5,22.9,-1.5,38.2c0,0,-1.5,15.2,-1.5,22.9l129.8,0c0,0,0,-3.1,1.6,-15.3c0,0,1.5,-13.8,1.5,-32.1c0,0,1.5,-19.9,3.1,-41.2c0,0,1.5,-21.4,1.5,-41.3l3,0c0,0,18.4,38.2,41.3,65.7c0,0,24.4,27.5,55,44.3c0,0,30.5,18.3,68.7,26c0,0,38.2,7.6,84.1,7.6c0,0,84,0,140.5,-29c0,0,58.1,-30.6,91.7,-84c0,0,35.1,-55,50.4,-131.4c0,0,15.3,-76.4,15.3,-169.6c0,0,0,-91.7,-15.3,-169.6c0,0,-15.3,-77.9,-48.9,-132.9c0,0,-35.1,-56.5,-91.7,-87.1c0,0,-58,-30.5,-142,-30.5c0,0,-85.6,0,-149.8,32c0,0,-65.7,32.1,-100.8,107l-3,0c0,0,0,-1.5,0,-13.8c0,0,1.5,-12.2,1.5,-30.5c0,0,0,-18.4,0,-39.7c0,0,1.5,-21.4,1.5,-41.3l0,-316.2Z" 
	id="F1_4"
	 />

	<path d="M142.1,-316.2c0,0,-26,0,-47.4,1.6c0,0,-21.4,1.5,-45.8,6.1l0,100.8c0,0,13.7,-1.5,32.1,-3c0,0,18.3,-1.6,30.5,-1.6c0,0,59.6,0,110,44.3c0,0,50.4,44.3,88.6,140.6L322.4,3.1L3.1,806.7l143.6,0L316.3,360.6c0,0,7.6,-19.9,18.3,-53.5c0,0,12.2,-33.6,22.9,-67.2c0,0,12.2,-33.6,21.4,-59.6c0,0,9.2,-27.5,10.7,-35.2c0,0,1.5,9.2,10.7,32.1c0,0,9.1,24.5,19.8,53.5c0,0,10.7,30.6,21.4,61.1c0,0,10.7,30.6,18.4,53.5L618.8,806.7l142,0L449.2,0c0,0,-27.5,-71.7,-56.6,-129.8c0,0,-30.5,-59.5,-67.2,-100.8c0,0,-36.6,-41.2,-81,-62.6c0,0,-44.3,-23,-102.3,-23Z" 
	id="F1_5"
	 />

	<path d="M105.4,0l0,618.8c0,0,0,24.4,0,50.4c0,0,-1.5,27.5,-1.5,51.9c0,0,-1.5,24.5,-1.5,45.8c0,0,-1.6,23,-1.6,39.8l126.8,0c0,0,0,-16.8,1.6,-38.2c0,0,1.5,-22.9,1.5,-45.9c0,0,1.5,-22.9,1.5,-44.3c0,0,1.6,-21.4,1.6,-36.6l3,0c0,0,13.8,45.8,29,79.4c0,0,16.8,35.2,38.2,56.5c0,0,21.4,21.4,50.4,32.1c0,0,30.6,12.2,73.4,12.2c0,0,16.8,0,32.1,-3c0,0,15.2,-3.1,22.9,-4.6l0,-123.7c0,0,-13.8,4.5,-30.6,6.1c0,0,-18.3,1.5,-41.2,1.5c0,0,-45.9,0,-77.9,-19.9c0,0,-33.7,-21.4,-53.5,-58c0,0,-21.4,-38.2,-30.6,-88.6c0,0,-9.1,-52,-9.1,-111.6L239.9,0Z" 
	id="F1_6"
	 />

	<path d="M100,0l0,806l135,0L235,0Zm0,977l0,129l135,0l0,-129Z" 
	id="F1_7"
	 />

	<path d="M397.2,93.2c0,0,39.7,0,77.9,16.8c0,0,38.2,16.8,68.8,53.5c0,0,30.5,38.2,48.9,96.2c0,0,19.8,59.6,19.8,143.6c0,0,0,84.1,-18.3,143.6c0,0,-18.3,59.6,-47.4,97.8c0,0,-30.5,38.2,-68.7,56.6c0,0,-38.2,18.3,-79.4,18.3c0,0,-50.5,0,-87.1,-18.3c0,0,-38.2,-18.4,-62.7,-56.6c0,0,-24.4,-38.2,-35.1,-97.8c0,0,-12.2,-61.1,-12.2,-143.6c0,0,0,-87,10.7,-146.6c0,0,12.2,-59.6,36.6,-96.3c0,0,24.5,-36.6,61.1,-51.9c0,0,36.7,-15.3,87.1,-15.3Zm10.7,-409.4c0,0,-68.7,0,-122.2,13.8c0,0,-55,15.3,-91.7,41.2c0,0,-38.2,26,-62.6,62.7c0,0,-24.5,36.7,-35.1,81l135.9,19.8c0,0,13.8,-56.5,59.6,-85.5c0,0,45.8,-30.6,120.7,-30.6c0,0,44.3,0,81,12.2c0,0,38.2,12.3,64.1,39.8c0,0,26,29,39.8,73.3c0,0,15.2,45.8,15.2,108.4l0,129.8l-1.5,0c0,0,-15.3,-30.5,-36.7,-58c0,0,-22.9,-29.1,-53.4,-50.4c0,0,-32.1,-21.4,-73.4,-33.7c0,0,-42.7,-12.1,-96.2,-12.1c0,0,-76.4,0,-131.4,24.4c0,0,-55,24.4,-90.1,76.4c0,0,-35.2,51.9,-50.5,128.3c0,0,-16.8,76.4,-16.8,177.2c0,0,0,96.3,15.3,174.2c0,0,16.8,77.9,53.5,131.4c0,0,36.7,55,94.7,82.5c0,0,58.1,29,140.6,29c0,0,85.5,0,148.2,-38.2c0,0,62.6,-39.7,97.7,-113.1l1.6,0c0,0,0,19.9,0,42.8c0,0,1.5,22.9,3,42.8c0,0,1.6,21.4,3.1,35.1c0,0,1.5,15.3,3,18.4l126.8,0c0,0,0,-7.7,0,-22.9c0,0,-1.5,-16.9,-1.5,-38.2c0,0,-1.5,-23,-1.5,-50.5c0,0,-1.5,-27.5,-1.5,-56.5l0,-615.7c0,0,0,-167.9,-82.5,-253.5c0,0,-84.1,-85.6,-255.2,-85.6Z" 
	id="F1_8"
	 />

	<path d="M105.4,0l0,1106.1l134.5,0l0,-287.2c0,0,0,-24.5,0,-48.9c0,0,-1.6,-26,-3.1,-45.8c0,0,-1.5,-21.4,-1.5,-35.2c0,0,-1.5,-15.2,-1.5,-21.4l1.5,0c0,0,22.9,41.3,48.9,70.3c0,0,25.9,29,56.5,47.4c0,0,32.1,18.3,68.7,27.5c0,0,38.2,9.1,84.1,9.1c0,0,77.9,0,126.8,-21.3c0,0,50.4,-21.4,79.4,-58.1c0,0,29.1,-38.2,39.7,-90.1c0,0,10.7,-52,10.7,-114.6L750.1,0L614.2,0l0,510.3c0,0,0,51.9,-6.1,90.1c0,0,-6.2,39.7,-23,65.7c0,0,-18.3,26,-50.4,38.2c0,0,-33.6,13.8,-87.1,13.8c0,0,-47.3,0,-85.5,-16.8c0,0,-38.2,-18.4,-65.7,-48.9c0,0,-27.5,-32.1,-41.3,-76.4c0,0,-15.2,-44.3,-15.2,-100.9L239.9,0Z" 
	id="F1_9"
	 />

	<path d="M276.5,-10.6c0,0,-160.4,0,-160.4,180.2l0,539.3l-93.2,0l0,97.8l97.8,0l39.7,180.2l90.2,0l0,-180.2l148.2,0l0,-97.8l-148.2,0l0,-510.3c0,0,0,-58,18.3,-81c0,0,18.3,-22.9,65.7,-22.9c0,0,19.8,0,38.2,1.6c0,0,18.3,3,39.7,7.6l0,-99.3c0,0,-30.6,-6,-62.6,-10.6c0,0,-32.1,-4.6,-73.4,-4.6Z" 
	id="F1_10"
	 />

	<path d="M670.7,174.2c0,0,51.9,0,96.2,22.9c0,0,44.4,24.4,79.5,61.1c0,0,36.7,38.2,62.6,87.1c0,0,26,50.4,39.8,102.3c0,0,6.1,27.5,10.6,56.6c0,0,6.2,30.5,6.2,51.9c0,0,0,38.2,-12.3,68.8c0,0,-12.2,32,-35.1,53.4c0,0,-24.4,23,-58.1,35.2c0,0,-33.6,12.2,-74.8,12.2c0,0,-64.2,0,-111.5,-30.6c0,0,-48.9,-32,-81,-84c0,0,-33.6,-51.9,-50.4,-116.1c0,0,-16.8,-64.2,-16.8,-129.9c0,0,0,-88.6,35.1,-139c0,0,36.7,-51.9,110,-51.9Zm39.7,-384.9c0,0,-140.5,0,-250.5,42.7c0,0,-110,42.8,-186.4,119.2c0,0,-76.4,76.3,-114.6,181.7c0,0,-39.7,107,-39.7,232.2c0,0,0,103.9,22.9,198.7c0,0,24.4,96.2,67.2,178.7c0,0,44.3,82.5,107,148.2c0,0,64.1,67.2,143.6,114.6c0,0,80.9,48.9,175.7,74.8c0,0,96.2,26,203.2,26c0,0,149.7,0,258.1,-44.3c0,0,110,-44.3,180.3,-117.6c0,0,71.8,-74.9,105.4,-172.7c0,0,35.2,-99.3,35.2,-209.3c0,0,0,-106.9,-24.5,-195.5c0,0,-25.9,-90.2,-68.7,-154.3c0,0,-44.3,-64.2,-105.4,-99.3c0,0,-62.7,-36.7,-134.5,-36.7c0,0,-41.2,0,-70.3,9.2c0,0,-30.5,10.7,-48.8,27.5c0,0,-18.4,18.3,-26,42.7c0,0,-9.2,24.5,-9.2,52c0,0,0,12.2,0,27.5c0,0,1.5,16.8,1.5,24.4l-4.5,0c0,0,-16.8,-33.6,-42.8,-65.7c0,0,-26,-33.6,-59.6,-59.6c0,0,-35.1,-25.9,-79.4,-41.2c0,0,-44.3,-16.8,-96.3,-16.8c0,0,-62.6,0,-108.5,21.4c0,0,-47.3,22.9,-77.9,61.1c0,0,-30.5,38.2,-44.3,90.1c0,0,-15.3,53.5,-15.3,114.6c0,0,0,90.2,26,172.7c0,0,26,82.5,74.9,145.1c0,0,50.4,62.6,119.1,100.8c0,0,68.8,38.2,154.3,38.2c0,0,44.3,0,79.5,-9.1c0,0,36.7,-10.7,64.2,-29.1c0,0,27.5,-18.3,47.3,-42.8c0,0,19.9,-24.4,33.6,-55l4.6,0l29,119.2l116.1,0l-87,-377.3c0,0,-13.8,-62.7,-19.9,-107c0,0,-7.6,-44.3,-7.6,-81c0,0,0,-36.6,15.2,-53.4c0,0,16.8,-16.8,45.9,-16.8c0,0,45.8,0,85.5,29c0,0,39.8,30.5,68.8,84c0,0,30.5,53.5,47.3,123.8c0,0,16.8,71.8,16.8,155.8c0,0,0,96.2,-30.5,178.7c0,0,-32.1,84.1,-91.7,143.7c0,0,-59.6,61.1,-148.2,94.7c0,0,-90.1,35.1,-206.2,35.1c0,0,-99.3,0,-183.4,-24.4c0,0,-85.5,-24.5,-154.3,-67.2c0,0,-68.7,-42.8,-120.7,-102.4c0,0,-51.9,-61.1,-87,-132.9c0,0,-35.2,-71.8,-52,-152.8c0,0,-18.3,-82.5,-18.3,-168.1c0,0,0,-105.4,32.1,-194c0,0,32.1,-88.6,93.2,-151.2c0,0,62.6,-62.6,152.7,-97.7c0,0,90.2,-36.7,207.8,-36.7c0,0,79.5,0,146.7,12.2c0,0,67.2,12.3,123.7,29.1c0,0,58.1,18.3,102.4,39.7c0,0,44.3,21.4,77.9,38.1l41.3,-82.4c0,0,-38.2,-21.4,-88.6,-44.3c0,0,-50.5,-24.5,-111.6,-44.3c0,0,-62.6,-19.9,-134.4,-32.1c0,0,-73.4,-12.2,-157.4,-12.2Z" 
	id="F1_12"
	 />

	<path d="M76.4,0l0,94.7c0,0,38.2,87.1,91.7,152.8c0,0,55,67.2,116.1,120.7c0,0,61.1,55,119.1,100.8c0,0,59.6,45.9,107,91.7c0,0,48.9,47.4,77.9,97.8c0,0,29,50.4,29,114.6c0,0,0,45.8,-12.2,79.4c0,0,-13.7,33.6,-38.2,56.5c0,0,-26,22.9,-61.1,33.6c0,0,-36.7,12.3,-79.4,12.3c0,0,-41.3,0,-76.4,-10.7c0,0,-35.2,-10.7,-62.7,-32.1c0,0,-27.5,-22.9,-44.3,-56.5c0,0,-18.3,-33.7,-22.9,-78L82.5,791.4c0,0,6.1,56.5,30.6,105.4c0,0,24.4,50.4,67.2,87.1c0,0,44.3,38.2,105.4,59.6c0,0,61.1,22.9,140.6,22.9c0,0,77.9,0,139,-18.3c0,0,61.1,-19.9,102.3,-56.6c0,0,42.8,-36.6,65.7,-90.1c0,0,23,-53.5,23,-123.8c0,0,0,-51.9,-18.4,-99.3c0,0,-19.8,-48.9,-51.9,-91.6c0,0,-32.1,-44.3,-73.4,-84.1c0,0,-41.2,-39.7,-87,-77.9c0,0,-45.9,-39.7,-91.7,-76.4c0,0,-47.4,-38.2,-87.1,-76.4c0,0,-41.2,-38.1,-73.3,-76.3c0,0,-32.1,-39.8,-50.4,-82.5l548.4,0L771.5,0Z" 
	id="F1_13"
	 />

	<path d="M423.2,94.7c0,0,53.5,0,96.2,21.4c0,0,42.8,21.4,71.9,71.8c0,0,29,50.4,44.3,132.9c0,0,16.8,84.1,16.8,204.8c0,0,0,125.2,-13.8,207.7c0,0,-15.3,84.1,-44.3,133c0,0,-29,50.4,-71.8,70.2c0,0,-42.8,19.9,-96.2,19.9c0,0,-56.6,0,-99.4,-19.9c0,0,-42.7,-21.4,-71.8,-70.2c0,0,-30.5,-50.5,-45.8,-133c0,0,-15.3,-84,-15.3,-207.7c0,0,0,-120.7,15.3,-203.2c0,0,15.3,-84.1,44.3,-134.5c0,0,30.6,-50.4,73.3,-71.8c0,0,42.8,-21.4,96.3,-21.4ZM421.7,-13.7c0,0,-76.4,0,-142.1,25.9c0,0,-67.2,27.5,-116.1,90.2c0,0,-48.9,64.1,-76.4,166.5c0,0,-27.5,103.9,-27.5,256.7c0,0,0,158.8,27.5,262.7c0,0,27.5,103.9,76.4,165c0,0,50.4,62.7,117.6,87.1c0,0,67.2,26,145.2,26c0,0,76.3,0,142,-24.5c0,0,65.7,-25.9,114.6,-87c0,0,48.9,-62.7,77.9,-166.6c0,0,29.1,-103.9,29.1,-262.7c0,0,0,-151.3,-29.1,-255.2c0,0,-29,-103.9,-77.9,-166.5c0,0,-50.4,-64.2,-117.6,-90.1c0,0,-67.2,-27.5,-143.6,-27.5Z" 
	id="F1_14"
	 />

	<path d="M116.1,0l0,113.1l267.4,0l0,809.7L146.7,753.2l0,126.8l247.5,169.6l123.7,0l0,-936.5l256.7,0L774.6,0Z" 
	id="F1_15"
	 />

	<path d="M438.5,93.2c0,0,47.3,0,85.5,16.8c0,0,39.8,16.8,65.7,47.4c0,0,27.5,32,41.3,77.9c0,0,13.7,45.8,13.7,102.3c0,0,0,53.5,-12.2,97.8c0,0,-13.7,44.3,-39.7,74.9c0,0,-27.5,30.5,-67.2,47.3c0,0,-39.8,16.8,-91.7,16.8c0,0,-36.7,0,-73.3,-10.6c0,0,-38.2,-10.7,-68.8,-33.7c0,0,-30.5,-24.4,-48.9,-64.1c0,0,-19.8,-39.7,-19.8,-96.3c0,0,0,-58,15.2,-108.4c0,0,15.3,-50.5,42.8,-87.1c0,0,29,-38.2,67.2,-59.6c0,0,39.8,-21.4,90.2,-21.4Zm4.6,-106.9c0,0,-93.2,0,-160.5,33.6c0,0,-68.7,35.1,-114.5,100.8c0,0,-45.9,65.7,-68.8,161.9c0,0,-22.9,96.3,-22.9,218.5c0,0,0,139,26,244.5c0,0,25.9,106.9,73.3,177.2c0,0,48.9,71.8,119.2,106.9c0,0,70.2,36.7,157.3,36.7c0,0,55,0,100.9,-10.7c0,0,47.3,-12.2,85.5,-36.7c0,0,38.2,-25.9,67.2,-65.7c0,0,29.1,-41.2,47.4,-100.8L624.9,828.1c0,0,-21.4,68.7,-67.3,97.7c0,0,-45.8,30.6,-106.9,30.6c0,0,-55,0,-99.3,-26c0,0,-44.3,-26,-74.9,-77.9c0,0,-32.1,-51.9,-48.9,-129.9c0,0,-16.8,-77.9,-16.8,-181.8c0,0,36.7,67.3,102.4,102.4c0,0,67.2,35.1,152.8,35.1c0,0,71.8,0,129.8,-22.9c0,0,58.1,-22.9,99.3,-65.7c0,0,41.3,-44.3,64.2,-106.9c0,0,22.9,-62.7,22.9,-139c0,0,0,-79.5,-21.4,-145.2c0,0,-22.9,-67.2,-65.7,-114.6c0,0,-42.7,-47.3,-105.4,-71.8c0,0,-64.1,-25.9,-146.6,-25.9Z" 
	id="F1_16"
	 />

	<path d="M136,-193.9c0,0,33.6,47.3,51.9,96.2c0,0,18.4,50.4,18.4,97.7L140.6,0l0,161.9l145.1,0l0,-125.2c0,0,0,-36.7,-3.1,-68.7c0,0,-3,-33.6,-10.7,-61.1c0,0,-7.6,-29,-18.3,-53.5c0,0,-10.7,-24.4,-26,-47.3Z" 
	id="F1_17"
	 />

	<path d="M140,0l0,1049l142,0L282,0Z" 
	id="F1_18"
	 />

	<path d="M105.4,0l0,634c0,0,0,26,0,53.5c0,0,-1.5,27.5,-1.5,51.9c0,0,-1.5,26,-1.5,42.8c0,0,-1.6,18.4,-1.6,24.5l126.8,0c0,0,0,-4.6,0,-19.9c0,0,1.6,-16.8,3.1,-38.2c0,0,1.5,-21.4,1.5,-42.8c0,0,1.6,-22.9,1.6,-38.2l1.5,0c0,0,19.8,35.2,42.8,64.2c0,0,22.9,29,53.4,47.4c0,0,30.6,19.8,70.3,30.5c0,0,39.7,12.2,91.7,12.2c0,0,67.2,0,116.1,-16.8c0,0,48.9,-16.8,79.4,-50.4c0,0,32.1,-35.1,45.9,-88.6c0,0,15.2,-55,15.2,-128.3L750.1,0L614.2,0l0,510.3c0,0,0,59.6,-7.7,99.3c0,0,-9.1,39.7,-27.5,64.2c0,0,-19.8,24.4,-51.9,33.6c0,0,-32.1,10.7,-79.5,10.7c0,0,-47.3,0,-85.5,-16.8c0,0,-38.2,-16.9,-65.7,-48.9c0,0,-27.5,-32.1,-41.3,-78c0,0,-15.2,-47.3,-15.2,-106.9L239.9,0Z" 
	id="F1_19"
	 />

	<path d="M134.4,0l0,708.9l-113,0l0,97.8l113,0l0,90.1c0,0,0,44.3,7.7,82.5c0,0,9.2,38.2,30.5,65.7c0,0,21.4,27.5,59.6,42.8c0,0,38.2,16.8,99.3,16.8c0,0,22.9,0,48.9,-1.5c0,0,26,-3.1,45.9,-7.7l0,-102.3c0,0,-13.8,3,-29.1,4.5c0,0,-16.8,1.6,-30.5,1.6c0,0,-30.6,0,-48.9,-7.7c0,0,-19.9,-7.6,-30.6,-22.9c0,0,-10.7,-15.3,-13.7,-38.2c0,0,-4.6,-22.9,-4.6,-51.9l0,-71.8l157.4,0l0,-97.8l-157.4,0L268.9,0Z" 
	id="F1_20"
	 />

	<path d="M380.4,-13.7c0,0,-70.3,0,-126.8,9.2c0,0,-56.5,10.6,-97.8,33.5c0,0,-42.7,24.5,-71.8,62.7c0,0,-29,39.7,-42.7,97.7l119.1,23c0,0,16.8,-65.7,70.3,-94.8c0,0,55,-30.5,149.7,-30.5c0,0,42.8,0,79.5,4.6c0,0,36.6,6.1,62.6,19.8c0,0,26,15.3,39.7,39.8c0,0,15.3,24.4,15.3,61.1c0,0,0,36.6,-16.8,59.5c0,0,-18.3,23,-48.9,38.2c0,0,-30.5,16.8,-73.3,27.5c0,0,-44.3,12.3,-96.3,26c0,0,-48.9,13.8,-96.2,29c0,0,-47.4,15.3,-85.6,41.3c0,0,-38.2,26,-62.6,64.2c0,0,-24.5,38.2,-24.5,94.7c0,0,0,110,78,168c0,0,79.4,58.1,230.6,58.1c0,0,133,0,210.9,-45.8c0,0,79.4,-47.4,100.8,-151.3L572.9,606.5c0,0,-6.1,30.6,-24.4,52c0,0,-18.4,21.4,-42.8,33.6c0,0,-26,13.7,-58.1,19.8c0,0,-32,6.2,-65.7,6.2c0,0,-91.6,0,-134.4,-27.5c0,0,-42.8,-27.5,-42.8,-84.1c0,0,0,-33.6,15.3,-53.4c0,0,16.8,-21.4,44.3,-35.2c0,0,29,-15.3,68.8,-26c0,0,41.2,-12.2,90.1,-22.9c0,0,32.1,-9.1,65.7,-18.3c0,0,33.6,-9.2,64.2,-21.4c0,0,32,-13.7,59.5,-30.5c0,0,29.1,-18.4,48.9,-42.8c0,0,21.4,-24.5,33.6,-56.6c0,0,12.3,-33.6,12.3,-77.9c0,0,0,-56.5,-21.4,-100.8c0,0,-21.4,-44.3,-62.7,-73.3c0,0,-42.7,-30.6,-103.9,-45.9c0,0,-61.1,-15.2,-139,-15.2Z" 
	id="F1_21"
	 />

	<path d="M125,0l0,1049l142,0l0,-933l530,0L797,0Z" 
	id="F1_22"
	 />

	<path d="M105.4,0l0,634c0,0,0,26,0,53.5c0,0,-1.5,27.5,-1.5,51.9c0,0,-1.5,26,-1.5,42.8c0,0,-1.6,18.4,-1.6,24.5l126.8,0c0,0,0,-4.6,0,-19.9c0,0,1.6,-16.8,3.1,-38.2c0,0,1.5,-21.4,1.5,-42.8c0,0,1.6,-22.9,1.6,-38.2l1.5,0c0,0,18.3,35.2,38.2,64.2c0,0,21.4,29,48.9,47.4c0,0,29,19.8,64.1,30.5c0,0,36.7,12.2,85.6,12.2c0,0,91.7,0,143.6,-36.6c0,0,53.5,-36.7,74.9,-117.7l3,0c0,0,16.8,35.2,39.7,64.2c0,0,23,29,52,47.4c0,0,30.5,19.8,67.2,30.5c0,0,38.2,12.2,85.6,12.2c0,0,61.1,0,105.4,-16.8c0,0,44.3,-16.8,71.8,-50.4c0,0,29,-35.1,42.8,-88.6c0,0,13.7,-55,13.7,-128.3L1171.8,0L1038.9,0l0,510.3c0,0,0,59.6,-7.6,99.3c0,0,-7.7,39.7,-24.5,64.2c0,0,-18.3,24.4,-45.8,33.6c0,0,-29.1,10.7,-70.3,10.7c0,0,-42.8,0,-76.4,-15.3c0,0,-35.1,-16.8,-58,-47.4c0,0,-24.5,-32.1,-38.2,-79.4c0,0,-13.8,-47.4,-13.8,-108.5L704.3,0L571.4,0l0,510.3c0,0,0,59.6,-6.1,99.3c0,0,-7.7,39.7,-24.5,64.2c0,0,-18.3,24.4,-45.8,33.6c0,0,-29,10.7,-70.3,10.7c0,0,-42.8,0,-76.4,-16.8c0,0,-35.1,-16.9,-59.5,-48.9c0,0,-24.5,-32.1,-36.7,-78c0,0,-13.8,-47.3,-13.8,-106.9L238.3,0Z" 
	id="F1_23"
	 />

	<path d="M641.7,476.7c0,0,-10.7,128.3,-64.2,186.4c0,0,-53.5,59.5,-154.3,59.5c0,0,-33.6,0,-70.3,-10.7c0,0,-36.6,-12.2,-67.2,-39.7c0,0,-32.1,-27.5,-53.5,-74.8c0,0,-22.9,-47.4,-25.9,-120.7ZM430.8,-13.7c0,0,-178.7,0,-271.9,105.4c0,0,-94.7,105.4,-94.7,316.2c0,0,0,113.1,27.5,191c0,0,29,79.4,77.9,128.3c0,0,50.4,50.4,114.6,71.8c0,0,65.7,22.9,140.5,22.9c0,0,102.4,0,169.6,-32c0,0,68.8,-33.6,110,-91.7c0,0,41.3,-58.1,58.1,-136c0,0,18.3,-79.4,18.3,-169.6l0,-18.3l-576,0c0,0,0,-62.6,12.2,-116.1c0,0,13.8,-53.5,41.3,-91.7c0,0,27.5,-39.7,70.3,-59.6c0,0,42.8,-21.3,102.3,-21.3c0,0,87.1,0,139.1,35.1c0,0,53.4,35.1,71.8,88.6L759.3,175.7c0,0,-12.2,-33.6,-35.1,-67.2c0,0,-22.9,-35.2,-61.1,-61.1c0,0,-38.2,-27.5,-94.8,-44.3c0,0,-58,-16.8,-137.5,-16.8Z" 
	id="F1_24"
	 />

	<path d="M394.2,88.6c0,0,53.4,0,93.2,16.8c0,0,41.2,16.8,68.7,55c0,0,27.5,38.2,41.3,99.3c0,0,13.7,62.7,13.7,152.8c0,0,0,85.6,-13.7,145.1c0,0,-13.8,59.6,-41.3,96.3c0,0,-27.5,36.7,-67.2,51.9c0,0,-41.3,16.8,-93.2,16.8c0,0,-48.9,0,-84,-16.8c0,0,-36.7,-18.3,-59.6,-56.5c0,0,-24.5,-38.2,-35.2,-97.8c0,0,-12.2,-61.1,-12.2,-148.2c0,0,0,-84,9.2,-143.6c0,0,10.7,-59.6,33.6,-97.8c0,0,24.4,-38.1,59.6,-55c0,0,36.7,-18.3,87.1,-18.3ZM360.6,-13.7c0,0,-152.8,0,-224.6,100.8c0,0,-73.4,102.3,-73.4,311.7c0,0,0,423.1,298,423.1c0,0,91.6,0,152.7,-33.6c0,0,61.1,-33.6,97.8,-106.9l1.5,0c0,0,0,7.6,0,22.9c0,0,0,16.8,0,33.6c0,0,-1.5,18.4,-1.5,33.6c0,0,0,15.3,0,22.9l0,311.7l134.5,0l0,-941.1c0,0,0,-29,0,-55c0,0,1.5,-27.5,1.5,-48.9c0,0,1.5,-22.9,1.5,-38.2c0,0,1.5,-16.8,1.5,-22.9L621.8,0c0,0,-1.5,6.1,-1.5,19.9c0,0,-1.5,13.7,-3.1,32c0,0,-1.5,18.4,-1.5,38.2c0,0,-1.5,19.9,-1.5,38.2l-3.1,0c0,0,-36.7,-76.4,-97.8,-108.4c0,0,-62.6,-33.6,-152.7,-33.6Z" 
	id="F1_25"
	 />

	<path d="M264.3,297.9c0,0,-42.8,0,-79.4,16.8c0,0,-36.7,16.8,-64.2,44.3c0,0,-29,29.1,-44.3,67.3c0,0,-16.8,38.1,-16.8,82.5c0,0,0,41.2,15.3,77.9c0,0,16.8,38.2,44.3,65.7c0,0,29,27.5,65.7,42.7c0,0,36.6,16.8,79.4,16.8c0,0,42.8,0,81,-15.2c0,0,38.2,-16.8,65.7,-44.3c0,0,29,-27.5,45.8,-64.2c0,0,16.8,-38.2,16.8,-79.4c0,0,0,-44.4,-16.8,-82.5c0,0,-16.8,-38.2,-44.3,-65.7c0,0,-29,-29.1,-67.2,-45.9c0,0,-38.2,-16.8,-81,-16.8Z" 
	id="F1_26"
	 />

	<path d="M137.5,0l0,1159.6l139,0l0,-455.3c0,0,48.9,76.4,114.6,113.1c0,0,67.2,38.2,154.3,38.2c0,0,145.2,0,218.5,-88.7c0,0,73.3,-90.1,73.3,-262.7L837.2,0L699.7,0l0,499.6c0,0,0,117.6,-45.8,175.7c0,0,-45.8,59.6,-139,59.6c0,0,-110,0,-174.2,-70.3c0,0,-64.2,-70.3,-64.2,-192.5L276.5,0Z" 
	id="F2_3"
	 />

	<path d="M420.1,0c0,0,-158.8,0,-218.4,58.1c0,0,-61.1,59.5,-61.1,216.9l0,453.8l-100.9,0l0,105.4l100.9,0l0,238.3l139,0l0,-238.3l282.6,0l0,-105.4l-282.6,0l0,-453.8c0,0,0,-102.4,27.5,-131.4c0,0,27.5,-29,113,-29l142.1,0L562.2,0Z" 
	id="F2_12"
	 />

	<path d="M508.8,93.2c0,0,110,0,171.1,85.6c0,0,62.6,85.5,62.6,236.8c0,0,0,152.7,-61.1,238.3c0,0,-62.6,85.5,-172.6,85.5c0,0,-108.5,0,-169.6,-85.5c0,0,-62.7,-85.6,-62.7,-238.3c0,0,0,-151.3,61.1,-236.8c0,0,62.7,-85.6,171.2,-85.6ZM137.5,-317.7l0,1151.9l139,0l0,-126.8c0,0,42.8,74.8,108.5,111.5c0,0,65.7,36.7,157.4,36.7c0,0,152.7,0,247.5,-120.7c0,0,96.2,-122.3,96.2,-319.3c0,0,0,-195.6,-94.7,-316.3c0,0,-96.3,-120.6,-249,-120.6c0,0,-91.7,0,-157.4,35.1c0,0,-65.7,36.6,-108.5,111.5l0,-443Z" 
	id="F2_15"
	 />

	<path d="M178,0l0,189l158,0L336,0Zm0,600l0,189l158,0l0,-189Z" 
	id="F2_37"
	 />

	<path d="M0,-140.5L386.5,1113.8l126.8,0L126.8,-140.5Z" 
	id="F2_42"
	 />

	<path d="M282.6,0L62.6,834.2l137.5,0L372.8,183.3L542.4,834.2l161.9,0L876.9,183.3l171.2,650.9l135.9,0L965.6,0l-162,0L624.9,684.4L444.6,0Z" 
	id="F2_20"
	 />

	<path d="M161,0l0,189l158,0L319,0Z" 
	id="F2_24"
	 />

	<path d="M137.5,0l0,834.2l139,0l0,-129.9c0,0,48.9,76.4,114.6,113.1c0,0,67.2,38.2,154.3,38.2c0,0,145.2,0,218.5,-88.7c0,0,73.3,-90.1,73.3,-262.7L837.2,0L699.7,0l0,499.6c0,0,0,117.6,-45.8,175.7c0,0,-45.8,59.6,-139,59.6c0,0,-110,0,-174.2,-70.3c0,0,-64.2,-70.3,-64.2,-192.5L276.5,0Z" 
	id="F2_10"
	 />

	<path d="M230.7,490.4l490.4,1.5c0,0,-1.5,111.6,-62.6,178.8c0,0,-62.7,67.2,-163.5,67.2c0,0,-114.6,0,-183.3,-64.1c0,0,-70.3,-65.7,-81,-183.4ZM516.4,-21.3c0,0,-198.6,0,-314.7,116C201.7,94.7,84,210.8,84,409.4c0,0,0,204.8,110,325.5c0,0,111.6,120.7,299.5,120.7c0,0,168,0,265.8,-108.5c0,0,99.3,-110,99.3,-296.4l0,-67.2l-632.5,0c0,0,9.2,-140.6,85.6,-213.9c0,0,76.4,-74.9,213.9,-74.9c0,0,77.9,0,152.7,18.4c0,0,74.9,19.8,148.2,58l0,-129.8c0,0,-74.8,-30.6,-151.2,-45.8c0,0,-77.9,-16.8,-158.9,-16.8Z" 
	id="F2_4"
	 />

	<path d="M143,0l0,1159l138,0L281,0Z" 
	id="F2_22"
	 />

	<path d="M357.5,0L44.3,834.2l145.1,0L450.7,132.9L711.9,834.2l146.7,0L543.9,0Z" 
	id="F2_18"
	 />

	<path d="M143,0l0,834l138,0L281,0Zm0,985l0,174l138,0l0,-174Z" 
	id="F2_9"
	 />

	<path d="M458.3,93.2c0,0,110,0,172.7,85.6c0,0,62.6,85.5,62.6,236.8c0,0,0,152.7,-62.6,238.3c0,0,-62.7,85.5,-172.7,85.5c0,0,-108.4,0,-171.1,-85.5c0,0,-62.6,-85.6,-62.6,-238.3c0,0,0,-151.3,62.6,-236.8c0,0,62.7,-85.6,171.1,-85.6ZM424.7,-21.3c0,0,-151.2,0,-245.9,120.6C178.8,99.3,84,220,84,415.6c0,0,0,197,94.8,317.7c0,0,94.7,122.3,245.9,122.3c0,0,93.2,0,158.9,-36.7c0,0,65.7,-36.7,110,-111.5l0,452.2l136,0L829.6,0l-136,0l0,125.3c0,0,-44.3,-74.9,-110,-110c0,0,-65.7,-36.6,-158.9,-36.6Z" 
	id="F2_7"
	 />

	<path d="M467.5,94.7c0,0,108.5,0,172.6,85.6c0,0,64.2,87.1,64.2,235.3c0,0,0,149.7,-64.2,235.2c0,0,-64.1,87.1,-172.6,87.1c0,0,-111.5,0,-175.7,-85.5c0,0,-64.2,-85.6,-64.2,-236.8c0,0,0,-149.8,64.2,-235.3c0,0,64.2,-85.6,175.7,-85.6Zm0,-116c0,0,-180.3,0,-281.1,116C186.4,94.7,84,210.8,84,415.6c0,0,0,206.2,100.9,322.3c0,0,102.3,117.7,282.6,117.7c0,0,178.8,0,281.1,-116.2c0,0,102.4,-117.6,102.4,-323.8c0,0,0,-204.8,-102.4,-320.9c0,0,-102.3,-116,-281.1,-116Z" 
	id="F2_14"
	 />

	<path d="M375.8,-21.3c0,0,-67.2,0,-140.5,12.2c0,0,-73.4,12.2,-152.8,39.7l0,140.5c0,0,76.4,-39.7,149.7,-58c0,0,73.4,-19.9,146.7,-19.9c0,0,96.2,0,148.2,32.1c0,0,51.9,33.6,51.9,94.7c0,0,0,55,-36.6,84c0,0,-38.2,30.6,-165,58.1l-48.9,12.2c0,0,-126.8,26,-183.4,81c0,0,-56.5,56.5,-56.5,152.8c0,0,0,119.1,82.5,183.3c0,0,84,64.2,238.3,64.2c0,0,74.9,0,142.1,-10.7c0,0,67.3,-12.3,123.8,-35.2l0,-129.8c0,0,-58.1,30.5,-120.7,44.3c0,0,-62.7,15.2,-129.9,15.2c0,0,-102.3,0,-152.8,-30.5c0,0,-50.4,-32.1,-50.4,-94.7c0,0,0,-47.4,35.2,-74.9c0,0,36.6,-27.5,148.2,-51.9l45.8,-10.7c0,0,146.7,-30.6,207.8,-87.1c0,0,62.6,-58.1,62.6,-160.4c0,0,0,-116.1,-91.7,-183.4c0,0,-93.1,-67.1,-253.6,-67.1Z" 
	id="F2_11"
	 />

	<path d="M111.5,0l0,126.8c0,0,85.6,88.6,233.8,236.8c0,0,148.2,149.7,186.4,194c0,0,71.8,81,100.8,137.5c0,0,29,56.6,29,110c0,0,0,88.7,-62.6,145.2c0,0,-62.6,56.5,-162,56.5c0,0,-71.8,0,-149.7,-24.4c0,0,-79.4,-26,-168,-74.9l0,151.3c0,0,90.1,36.6,169.6,55c0,0,79.4,19.8,145.1,19.8c0,0,172.6,0,275,-87.1c0,0,103.9,-87.1,103.9,-230.7c0,0,0,-68.7,-26,-129.8c0,0,-26,-62.7,-93.2,-145.2c0,0,-19.8,-22.9,-119.2,-125.2c0,0,-99.3,-103.9,-282.6,-288.8l527.1,0L818.9,0Z" 
	id="F2_47"
	 />

	<path d="M484.3,96.3c0,0,117.6,0,175.7,114.5c0,0,59.6,114.6,59.6,343.8c0,0,0,230.7,-58.1,345.3c0,0,-59.6,114.5,-177.2,114.5c0,0,-116.1,0,-174.2,-114.5c0,0,-58,-114.6,-58,-345.3c0,0,0,-229.2,58,-343.8c0,0,58.1,-114.5,174.2,-114.5Zm0,-117.6c0,0,-186.4,0,-285.7,146.6c0,0,-99.3,148.2,-99.3,429.3c0,0,0,282.6,99.3,430.8c0,0,99.3,148.2,285.7,148.2c0,0,187.9,0,285.7,-148.2c0,0,99.3,-148.2,99.3,-430.8c0,0,0,-281.1,-97.8,-427.8c0,0,-99.3,-148.1,-287.2,-148.1Z" 
	id="F2_68"
	 />

	<path d="M189.4,0l0,126.8l246,0l0,849.5L166.5,922.8l0,136l267.4,55l149.7,0l0,-987l246,0L829.6,0Z" 
	id="F2_46"
	 />

	<path d="M407.9,93.2c0,0,113.1,0,181.8,79.4c0,0,70.3,81,70.3,215.5l0,30.5l-137.5,0c0,0,-166.5,0,-230.7,-36.7c0,0,-64.2,-38.1,-64.2,-129.8c0,0,0,-73.3,47.4,-116.1c0,0,48.9,-42.8,132.9,-42.8ZM371.3,-21.3c0,0,-128.4,0,-203.2,71.7c0,0,-76.4,71.8,-76.4,192.5c0,0,0,140.6,93.2,212.4c0,0,94.7,71.8,282.6,71.8l192.5,0l0,13.7c0,0,0,94.8,-62.6,145.2c0,0,-62.7,51.9,-175.7,51.9c0,0,-71.8,0,-139.1,-16.8c0,0,-67.2,-16.8,-129.8,-51.9l0,126.8c0,0,74.8,30.5,145.1,44.3c0,0,71.8,15.3,139,15.3c0,0,180.3,0,268.9,-93.2c0,0,90.2,-94.8,90.2,-285.7L796,0L660,0l0,126.8c0,0,-47.4,-76.4,-117.6,-111.5c0,0,-70.3,-36.6,-171.1,-36.6Z" 
	id="F2_6"
	 />

	<path d="M508.8,93.2c0,0,110,0,171.1,85.6c0,0,62.6,85.5,62.6,236.8c0,0,0,152.7,-61.1,238.3c0,0,-62.6,85.5,-172.6,85.5c0,0,-108.5,0,-169.6,-85.5c0,0,-62.7,-85.6,-62.7,-238.3c0,0,0,-151.3,61.1,-236.8c0,0,62.7,-85.6,171.2,-85.6ZM542.4,-21.3c0,0,-91.7,0,-157.4,35.1c0,0,-65.7,36.6,-108.5,111.5L276.5,0l-139,0l0,1159.6l139,0l0,-452.2c0,0,42.8,74.8,108.5,111.5c0,0,65.7,36.7,157.4,36.7c0,0,152.7,0,247.5,-120.7c0,0,96.2,-122.3,96.2,-319.3c0,0,0,-195.6,-94.7,-316.3c0,0,-96.3,-120.6,-249,-120.6Z" 
	id="F2_26"
	 />

	<path d="M73,355l0,123l403,0l0,-123Z" 
	id="F2_78"
	 />

	<path d="M137.5,0l0,834.2l139,0l0,-129.9c0,0,45.9,77.9,111.6,114.6c0,0,65.7,36.7,155.8,36.7c0,0,91.7,0,154.3,-45.9c0,0,64.2,-47.3,96.2,-135.9c0,0,50.5,93.1,122.3,137.5c0,0,71.8,44.3,168,44.3c0,0,131.4,0,201.7,-91.7c0,0,71.8,-91.7,71.8,-259.7L1358.2,0l-139,0l0,499.6c0,0,0,119.2,-41.3,177.2c0,0,-42.8,58.1,-129.8,58.1c0,0,-107,0,-168.1,-70.3c0,0,-62.6,-70.3,-62.6,-192.5L817.4,0L678.3,0l0,499.6c0,0,0,120.7,-41.2,177.2c0,0,-42.8,58.1,-131.4,58.1c0,0,-105.4,0,-166.5,-70.3c0,0,-62.7,-71.8,-62.7,-192.5L276.5,0Z" 
	id="F2_8"
	 />

	<path d="M458.3,114.6c0,0,111.6,0,172.7,81c0,0,62.6,82.5,62.6,230.7c0,0,0,149.7,-61.1,230.6c0,0,-62.6,82.5,-174.2,82.5c0,0,-110,0,-171.1,-80.9c0,0,-62.6,-82.5,-62.6,-232.2c0,0,0,-148.2,61.1,-229.2c0,0,62.6,-82.5,172.6,-82.5ZM444.6,-317.7c0,0,-71.8,0,-136,10.7c0,0,-64.2,12.2,-123.7,33.6l0,134.5c0,0,59.5,-33.6,117.6,-48.9c0,0,59.6,-15.3,120.7,-15.3c0,0,136,0,203.2,70.3c0,0,67.2,70.3,67.2,210.7l0,68.8c0,0,-42.8,-74.9,-108.5,-110C585.1,36.7,517.9,0,424.7,0c0,0,-152.8,0,-245.9,116.1c0,0,-94.8,117.7,-94.8,310.2c0,0,0,194,93.2,311.6c0,0,94.7,117.7,247.5,117.7c0,0,93.2,0,158.9,-36.7c0,0,67.2,-36.7,110,-111.5l0,126.8l136,0l0,-731.8c0,0,0,-210.8,-94.7,-314.7c0,0,-94.8,-105.4,-290.3,-105.4Z" 
	id="F2_23"
	 />

	<path d="M120.7,-317.7l0,116.1l79.4,0c0,0,56.6,0,87.1,26c0,0,32.1,27.5,70.3,126.8l24.4,61L44.3,834.2l145.1,0L450.7,181.8L711.9,834.2l146.7,0L490.4,-76.3c0,0,-58,-149.7,-113,-195.5c0,0,-55,-45.9,-148.2,-45.9Z" 
	id="F2_19"
	 />

	<path d="M137.5,0l0,834.2l139,0l0,-129.9c0,0,42.8,76.4,111.6,113.1c0,0,70.2,38.2,169.5,38.2c0,0,13.8,0,30.6,-1.6c0,0,16.8,-3,38.2,-6.1l1.5,-142.1c0,0,-24.4,13.8,-50.4,19.9c0,0,-27.5,6.1,-61.1,6.1c0,0,-116.1,0,-177.2,-74.9c0,0,-62.7,-76.3,-62.7,-216.9l0,-440Z" 
	id="F2_13"
	 />

	<path d="M495,-21.3c0,0,-189.4,0,-299.4,117.6C195.6,96.3,84,215.4,84,415.6c0,0,0,204.7,111.6,322.3c0,0,113,117.7,308.6,117.7c0,0,62.6,0,122.2,-13.8c0,0,61.1,-13.7,117.6,-39.7l0,-128.3c0,0,-58,32,-116.1,47.3c0,0,-58,16.8,-119.1,16.8c0,0,-133,0,-206.3,-84c0,0,-74.9,-84,-74.9,-238.3c0,0,0,-152.8,73.4,-236.8c0,0,74.8,-84.1,207.8,-84.1c0,0,61.1,0,119.1,15.3c0,0,58.1,16.8,116.1,48.9L744,30.6c0,0,-56.5,-26,-117.6,-38.1c0,0,-62.6,-13.8,-131.4,-13.8Z" 
	id="F2_29"
	 />

	<path d="M421.7,-21.3c0,0,-143.6,0,-218.5,88.5L128.3,328.5l0,505.7l137.5,0l0,-499.6c0,0,0,-119.2,45.9,-178.8c0,0,47.3,-59.5,139,-59.5c0,0,111.5,0,175.7,70.2c0,0,65.7,71.8,65.7,194.1l0,473.6l136,0L828.1,0l-136,0l0,126.8c0,0,-50.4,-74.9,-116.1,-111.5c0,0,-67.2,-36.6,-154.3,-36.6Z" 
	id="F2_17"
	 />

	<path d="M458.3,93.2c0,0,110,0,172.7,85.6c0,0,62.6,85.5,62.6,236.8c0,0,0,152.7,-62.6,238.3c0,0,-62.7,85.5,-172.7,85.5c0,0,-108.4,0,-171.1,-85.5c0,0,-62.6,-85.6,-62.6,-238.3c0,0,0,-151.3,62.6,-236.8c0,0,62.7,-85.6,171.1,-85.6ZM693.6,-317.7l0,443c0,0,-44.3,-74.9,-110,-110c0,0,-65.7,-36.6,-158.9,-36.6c0,0,-151.2,0,-245.9,120.6C178.8,99.3,84,220,84,415.6c0,0,0,197,94.8,317.7c0,0,94.7,122.3,245.9,122.3c0,0,93.2,0,158.9,-36.7c0,0,65.7,-36.7,110,-111.5l0,126.8l136,0l0,-1151.9Z" 
	id="F2_31"
	 />

	<path d="M137.5,0l0,1159.6l139,0l0,-684.5L686,834.2l174.1,0L417.1,444.6L880,0L699.7,0L276.5,407.9L276.5,0Z" 
	id="F2_21"
	 />

	<path d="M601.9,99.3c0,0,163.5,0,258.2,122.2c0,0,96.3,123.8,96.3,333.1c0,0,0,210.8,-94.7,333c0,0,-96.3,123.8,-259.8,123.8c0,0,-165,0,-261.2,-122.2c0,0,-96.3,-123.8,-96.3,-334.6c0,0,0,-209.3,96.3,-331.5c0,0,96.2,-123.8,261.2,-123.8Zm0,-120.6c0,0,-235.2,0,-375.8,155.7c0,0,-140.5,155.9,-140.5,420.2c0,0,0,264.3,140.5,421.7c0,0,140.6,157.3,375.8,157.3c0,0,233.8,0,372.8,-157.3c0,0,140.6,-157.4,140.6,-421.7c0,0,0,-262.8,-139,-418.6c0,0,-140.6,-157.3,-374.4,-157.3Z" 
	id="F2_25"
	 />

	<path d="M629.4,-21.3c0,0,-253.6,0,-398.7,154.2c0,0,-145.1,154.3,-145.1,421.7c0,0,0,268.9,145.1,423.2c0,0,145.1,155.8,398.7,155.8c0,0,99.4,0,188,-26c0,0,88.6,-27.5,166.5,-80.9l0,-158.9c0,0,-76.4,71.8,-162,106.9c0,0,-87,35.2,-184.8,35.2c0,0,-191,0,-291.8,-116.1c0,0,-100.9,-117.7,-100.9,-339.2c0,0,0,-220,100.9,-336.1c0,0,100.8,-117.7,291.8,-117.7c0,0,97.8,0,183.3,35.2c0,0,87.1,35.1,163.5,106.9l0,-157.3c0,0,-79.5,-55,-168.1,-81c0,0,-88.6,-25.9,-186.4,-25.9Z" 
	id="F2_38"
	 />

	<path d="M389,0l0,985L-3,985l0,128l939,0l0,-128l-396,0L540,0Z" 
	id="F2_2"
	 />

	<path d="M165,0l0,728.8l-131.4,0l0,105.4l131.4,0l0,58c0,0,0,140.6,64.2,203.2c0,0,65.7,64.2,207.7,64.2l129.9,0l0,-113.1l-131.4,0c0,0,-74.8,0,-102.3,-30.5c0,0,-29.1,-30.6,-29.1,-107l0,-74.8l226.1,0l0,-105.4l-226.1,0L304,0Z" 
	id="F2_16"
	 />

	<path d="M290.3,0l0,189.4l152.8,0L443.1,0Zm4.6,297.9l0,114.6c0,0,0,76.4,21.4,123.8c0,0,21.3,48.8,88.6,113l67.2,67.2c0,0,41.2,39.8,59.6,74.9c0,0,19.8,35.1,19.8,70.3c0,0,0,67.2,-48.9,108.4c0,0,-48.8,41.3,-128.3,41.3c0,0,-59.6,0,-125.3,-26c0,0,-67.2,-27.5,-140.5,-76.4l0,140.6c0,0,70.3,41.2,142.1,62.6c0,0,71.8,21.4,149.7,21.4c0,0,137.5,0,220,-71.8c0,0,82.5,-73.3,82.5,-192.5c0,0,0,-56.5,-26,-106.9c0,0,-27.5,-52,-94.7,-116.1L516.4,582.1c0,0,-35.1,-35.2,-48.9,-53.5c0,0,-15.3,-19.8,-21.4,-39.7c0,0,-3,-15.3,-4.6,-36.7c0,0,-3,-22.9,-3,-62.6l0,-91.7Z" 
	id="F2_33"
	 />

	<path d="M160,261l0,127l956,0l0,-127Zm0,307l0,125l956,0l0,-125Z" 
	id="F2_57"
	 />

	<path d="M679.9,985.4l0,172.7l139,0l0,-172.7ZM165,0l0,728.8l-131.4,0l0,105.4l131.4,0l0,58c0,0,0,137.5,64.2,201.7c0,0,65.7,65.7,198.6,65.7l139,0l0,-113.1l-131.4,0c0,0,-74.8,0,-102.3,-30.5c0,0,-29.1,-30.6,-29.1,-107l0,-74.8l514.9,0L818.9,0l-139,0l0,728.8l-375.9,0L304,0Z" 
	id="F2_30"
	 />

	<path d="M575,0l0,414l-415,0l0,126l415,0l0,416l126,0l0,-416l415,0l0,-126l-415,0L701,0Z" 
	id="F2_92"
	 />

	<path d="M540.8,123.8c0,0,122.3,0,180.3,48.8c0,0,59.6,50.5,59.6,154.3c0,0,0,105.5,-58.1,154.4c0,0,-59.5,50.4,-181.8,50.4l-241.4,0l0,-407.9ZM522.5,653.9c0,0,111.5,0,165,41.2c0,0,53.5,41.3,53.5,126.8c0,0,0,84.1,-53.5,125.3c0,0,-53.5,41.3,-165,41.3l-223.1,0l0,-334.6ZM149.7,0l0,1113.8l385,0c0,0,171.1,0,264.3,-71.9c0,0,93.2,-71.8,93.2,-204.7c0,0,0,-102.3,-47.3,-161.9c0,0,-47.4,-61.1,-140.6,-74.9c0,0,111.5,-24.4,172.6,-99.3c0,0,62.7,-76.4,62.7,-189.4c0,0,0,-149.8,-100.8,-230.7C838.8,81,736.4,0,548.5,0Z" 
	id="F2_74"
	 />

	<path d="M467.5,495c0,0,100.8,0,160.4,68.8c0,0,59.6,70.2,59.6,190.9c0,0,0,119.2,-59.6,189.5c0,0,-59.6,70.2,-160.4,70.2c0,0,-102.4,0,-160.4,-70.2c0,0,-59.6,-70.3,-59.6,-189.5c0,0,0,-120.7,58.1,-189.4c0,0,59.5,-70.3,161.9,-70.3ZM403.3,-21.3c0,0,-56.5,0,-114.5,10.7c0,0,-59.6,10.6,-122.3,33.5l0,136c0,0,56.6,-26,114.6,-39.7c0,0,59.6,-15.3,114.6,-15.3c0,0,149.7,0,227.6,100.8c0,0,79.5,100.9,90.2,304.1c0,0,-42.8,-64.2,-108.5,-97.8c0,0,-67.2,-33.6,-148.2,-33.6c0,0,-166.5,0,-264.3,100.8c0,0,-97.8,100.8,-97.8,276.5c0,0,0,171.1,100.9,275c0,0,102.3,103.9,271.9,103.9c0,0,192.5,0,293.3,-148.2c0,0,102.4,-148.2,102.4,-430.8c0,0,0,-262.8,-123.8,-418.6c0,0,-125.2,-157.3,-336.1,-157.3Z" 
	id="F2_61"
	 />


</defs>
</svg>