<?xml version="1.0" encoding="UTF-8" standalone="no"?>
<!DOCTYPE svg PUBLIC "-//W3C//DTD SVG 1.1//EN"
"http://www.w3.org/Graphics/SVG/1.1/DTD/svg11.dtd">
<svg viewBox="0 0 1100 825" version="1.1" xmlns="http://www.w3.org/2000/svg" xmlns:xlink="http://www.w3.org/1999/xlink">
<defs>
<style type="text/css"><![CDATA[
.g5_15{
fill: none;
stroke: #000000;
stroke-width: 1;
stroke-linecap: butt;
stroke-linejoin: miter;
stroke-miterlimit: 7;
}
.g2_15{
fill: none;
stroke: #000000;
stroke-width: 2;
stroke-linecap: butt;
stroke-linejoin: miter;
stroke-miterlimit: 7;
}
.g3_15{
fill: none;
stroke: #0070C0;
stroke-width: 2;
stroke-linecap: butt;
stroke-linejoin: miter;
}
.g4_15{
fill: #418AB3;
}
.g1_15{
fill: #FFFFFF;
}
]]></style>
</defs>
<path fill-rule="evenodd" d="M0,0L1100,0l0,825L0,825L0,0Z" class="g1_15" />
<path fill-rule="evenodd" d="M0,0L1100,0l0,825L0,825L0,0Z" class="g1_15" />
<image x="753" y="777" width="303" height="38" xlink:href="img/1.png" />
<path fill-rule="evenodd" d="M39.7,41.1l0,-0.6l0,-0.6l0.2,-0.6l0,-0.6L40,37.9l0.3,-0.6l0.2,-0.6l0.3,-0.6l0.1,-0.5L41.3,35l0.4,-0.6L42,33.9l0.5,-0.4l0.3,-0.7l0.4,-0.4l0.5,-0.5l0.6,-0.3l0.5,-0.4l0.6,-0.3l0.4,-0.5l0.6,-0.3l0.7,-0.2l0.6,-0.3l0.4,-0.3l0.6,-0.1L49.5,29l0.6,0l0.6,-0.1l0.6,0l0.6,0l607.9,0l0.7,0l0.6,0l0.6,0.1l0.6,0l0.8,0.2l0.6,0.1l0.4,0.3l0.6,0.3l0.6,0.2l0.7,0.5l0.6,0.3l0.4,0.3l0.5,0.4l0.4,0.3l0.7,0.5l0.3,0.4l0.4,0.7l0.5,0.4l0.3,0.5l0.3,0.6l0.3,0.6l0.3,0.5l0.3,0.6l0.2,0.6l0.1,0.6l0.2,0.8l0.1,0.6l0.2,0.6l0,0.6l0,0.6l0.1,49.5l-0.1,0l0,0.6l0,0.6l-0.2,0.6l0,0.6l-0.1,0.8l-0.3,0.6L671.3,95L671,95.6l-0.2,0.5l-0.4,0.6l-0.3,0.6l-0.3,0.5l-0.5,0.4l-0.4,0.6l-0.3,0.5l-0.7,0.5l-0.4,0.3l-0.5,0.4l-0.4,0.3l-0.6,0.3l-0.7,0.3l-0.6,0.4l-0.6,0.3l-0.4,0.1l-0.6,0.2l-0.8,0.3l-0.6,0l-0.6,0.1l-0.6,0l-0.7,0L51.9,103l-0.6,0l-0.6,-0.2l-0.6,-0.1l-0.6,0l-0.8,-0.2l-0.6,-0.1l-0.4,-0.3l-0.6,-0.3l-0.7,-0.2l-0.6,-0.3l-0.4,-0.5l-0.6,-0.3l-0.5,-0.4L43.7,99.8L43.2,99.3L42.8,98.8L42.5,98.2L42,97.8L41.7,97.3L41.3,96.7L40.9,96.1L40.8,95.6L40.5,95L40.3,94.4L40,93.8L39.9,93l0,-0.6L39.7,91.8l0,-0.6l0,-0.6l0,-49.5Z" class="g1_15" />
<path d="M39.7,41.1l0,-0.6l0,-0.6l0.2,-0.6l0,-0.6L40,37.9l0.3,-0.6l0.2,-0.6l0.3,-0.6l0.1,-0.5L41.3,35l0.4,-0.6L42,33.9l0.5,-0.4l0.3,-0.7l0.4,-0.4l0.5,-0.5l0.6,-0.3l0.5,-0.4l0.6,-0.3l0.4,-0.5l0.6,-0.3l0.7,-0.2l0.6,-0.3l0.4,-0.3l0.6,-0.1L49.5,29l0.6,0l0.6,-0.1l0.6,0l0.6,0l607.9,0l0.7,0l0.6,0l0.6,0.1l0.6,0l0.8,0.2l0.6,0.1l0.4,0.3l0.6,0.3l0.6,0.2l0.7,0.5l0.6,0.3l0.4,0.3l0.5,0.4l0.4,0.3l0.7,0.5l0.3,0.4l0.4,0.7l0.5,0.4l0.3,0.5l0.3,0.6l0.3,0.6l0.3,0.5l0.3,0.6l0.2,0.6l0.1,0.6l0.2,0.8l0.1,0.6l0.2,0.6l0,0.6l0,0.6l0.1,49.5l-0.1,0l0,0.6l0,0.6l-0.2,0.6l0,0.6l-0.1,0.8l-0.3,0.6L671.3,95L671,95.6l-0.2,0.5l-0.4,0.6l-0.3,0.6l-0.3,0.5l-0.5,0.4l-0.4,0.6l-0.3,0.5l-0.7,0.5l-0.4,0.3l-0.5,0.4l-0.4,0.3l-0.6,0.3l-0.7,0.3l-0.6,0.4l-0.6,0.3l-0.4,0.1l-0.6,0.2l-0.8,0.3l-0.6,0l-0.6,0.1l-0.6,0l-0.7,0L51.9,103l-0.6,0l-0.6,-0.2l-0.6,-0.1l-0.6,0l-0.8,-0.2l-0.6,-0.1l-0.4,-0.3l-0.6,-0.3l-0.7,-0.2l-0.6,-0.3l-0.4,-0.5l-0.6,-0.3l-0.5,-0.4L43.7,99.8L43.2,99.3L42.8,98.8L42.5,98.2L42,97.8L41.7,97.3L41.3,96.7L40.9,96.1L40.8,95.6L40.5,95L40.3,94.4L40,93.8L39.9,93l0,-0.6L39.7,91.8l0,-0.6l0,-0.6l0,-49.5Z" class="g2_15" />
<path d="M77,88l424,0" class="g3_15" />
<path fill-rule="evenodd" d="M854,270l206,0l0,126l-206,0l0,-126Z" class="g1_15" />
<path d="M854,270l206,0l0,126l-206,0l0,-126Z" class="g2_15" />
<path fill-rule="evenodd" d="M591,270l206,0l0,126l-206,0l0,-126Z" class="g1_15" />
<path d="M591,270l206,0l0,126l-206,0l0,-126Z" class="g2_15" />
<path fill-rule="evenodd" d="M948.9,75.3l0,-0.4l0.2,-0.6l0,-0.5l0.1,-0.5l0,-0.4l0.2,-0.5L949.5,72l0.2,-0.5L950,71l0.1,-0.3l0.3,-0.4l0.3,-0.5L951,69.5l0.3,-0.4l0.4,-0.3L952,68.4l0.4,-0.3l0.3,-0.3l0.5,-0.3l0.3,-0.1l0.4,-0.3l0.5,-0.2l0.5,-0.1l0.4,-0.3l0.5,0l0.4,-0.2l0.5,-0.1l0.5,0l0.4,0l0.5,0l4.6,0l20.6,0l38.9,0l0.5,0l0.5,0l0.4,0l0.5,0.1l0.4,0.2l0.5,0.1l0.4,0.2l0.5,0.1l0.5,0.2l0.4,0.3l0.3,0.1l0.5,0.3l0.4,0.3l0.3,0.3l0.4,0.4l0.3,0.3l0.3,0.4l0.3,0.5l0.3,0.3l0.3,0.4l0.1,0.3l0.3,0.5l0.2,0.5l0.1,0.4l0.2,0.5l0,0.4l0.2,0.5l0,0.5l0.1,0.6l0,0.4l0,22.9l0,13.9l0,0.5l0,0.5l-0.1,0.4l0,0.5l-0.2,0.4l-0.2,0.5l-0.1,0.4l-0.2,0.5l-0.3,0.5l-0.1,0.4l-0.3,0.3l-0.2,0.5l-0.3,0.4l-0.3,0.3l-0.4,0.4l-0.4,0.3l-0.3,0.3l-0.4,0.3l-0.3,0.3l-0.5,0.3l-0.4,0.1l-0.5,0.3l-0.5,0.2l-0.3,0.1l-0.6,0.2l-0.4,0l-0.5,0.2l-0.4,0l-0.5,0.1l-0.5,0l-38.9,0l-20.6,0l-4.6,0l-0.5,0l-0.4,0l-0.5,-0.1l-0.5,0L955.8,121l-0.5,-0.2l-0.4,-0.1l-0.5,-0.2l-0.5,-0.1l-0.4,-0.3l-0.3,-0.2l-0.5,-0.3l-0.3,-0.3L952,119l-0.3,-0.3l-0.4,-0.5L951,117.9l-0.3,-0.4l-0.3,-0.3l-0.3,-0.5L950,116.3L949.7,116l-0.2,-0.7L949.4,115l-0.2,-0.6l0,-0.4l-0.1,-0.5l0,-0.4l-0.2,-0.5l0,-0.5l-69.8,-0.4L948.9,98.2l0,-22.9Z" class="g4_15" />
<path fill-rule="evenodd" d="M591.4,178.3l0,-0.5l0.2,-0.4l0,-0.6l0.1,-0.5l0,-0.5l0.2,-0.4l0.1,-0.5l0.2,-0.4l0.3,-0.3l0.1,-0.5l0.3,-0.5l0.3,-0.4l0.3,-0.3l0.3,-0.5l0.4,-0.3l0.3,-0.3l0.4,-0.3l0.3,-0.3l0.5,-0.3l0.3,-0.2l0.4,-0.3l0.5,-0.1l0.5,-0.2l0.4,-0.3l0.5,0l0.4,-0.1l0.5,-0.2l0.5,0l0.4,0l0.5,0l38.9,0l20.7,0l4.5,0l0.5,0l0.5,0l0.4,0l0.5,0.2l0.4,0.1l0.5,0.2l0.4,0.1l0.5,0.2l0.5,0.1l0.4,0.3l0.3,0.4l0.5,0.1l0.4,0.3l0.3,0.3l0.4,0.3l0.3,0.3l0.3,0.5l0.3,0.4l0.3,0.3l0.3,0.5l0.1,0.5l0.3,0.3l0.2,0.4l0.1,0.5l0.2,0.4l0,0.5l0.2,0.5l0,0.6l0.1,0.4l0,0.5l0,23.1l0,13.7l0,0.5l0,0.4l-0.1,0.5l0,0.4l-0.2,0.7l-0.2,0.3l-0.1,0.6l-0.2,0.3l-0.3,0.4l-0.1,0.5l-0.3,0.5l-0.2,0.3l-0.3,0.4l-0.3,0.3l-0.4,0.3l-0.4,0.3l-0.3,0.3l-0.4,0.3l-0.3,0.3l-0.5,0.4l-0.4,0.1l-0.5,0.3l-0.5,0.2l-0.3,0.1L667,224l-0.4,0l-0.5,0.1l-0.4,0l-0.5,0.2l-0.5,0l-4.5,0l20,29.8L639.5,224.3l-38.9,0l-0.5,0l-0.4,0l-0.5,-0.2l-0.5,0L598.3,224l-0.5,0l-0.4,-0.3l-0.5,-0.2l-0.5,-0.1L596,223.1l-0.3,-0.2l-0.5,-0.3l-0.3,-0.3L594.5,222l-0.3,-0.3l-0.4,-0.3l-0.3,-0.5l-0.3,-0.4l-0.3,-0.3l-0.3,-0.5l-0.1,-0.5l-0.3,-0.3L592,218.5L591.9,218l-0.2,-0.4l0,-0.7l-0.1,-0.4l0,-0.5l-0.2,-0.4l0,-0.5l0,-13.7l0,-23.1Z" class="g4_15" />
<path fill-rule="evenodd" d="M990.2,181.3l0,-0.4l0,-0.5l0.1,-0.4l0.2,-0.6l0,-0.5l0.1,-0.5l0.2,-0.4l0.1,-0.5l0.3,-0.3l0.2,-0.4l0.3,-0.5l0.1,-0.5l0.3,-0.3l0.3,-0.3l0.5,-0.4l0.3,-0.3l0.5,-0.3l0.3,-0.3l0.4,-0.3l0.3,-0.2l0.5,-0.3l0.5,-0.2l0.4,-0.1l0.5,-0.2l0.4,-0.1l0.5,-0.2l0.4,0l0.5,-0.1l0.5,0l0.4,0l4.6,0l20.6,0l39,0l0.4,0l0.5,0l0.5,0.1l0.4,0l0.5,0.2l0.4,0.1l0.5,0.2l0.5,0.1l0.4,0.2l0.5,0.3l0.3,0.3l0.4,0.2l0.3,0.3l0.5,0.3l0.3,0.3l0.3,0.4l0.3,0.3l0.3,0.5l0.3,0.3l0.3,0.5l0.2,0.4l0.1,0.3l0.3,0.5l0.2,0.4l0.1,0.5l0,0.5l0.2,0.6l0,0.4l0.2,0.5l0,0.4l0,23.1l0,13.8l0,0.4l0,0.5l-0.2,0.4l0,0.7l-0.2,0.4l-0.1,0.5l-0.2,0.4l-0.1,0.3l-0.3,0.5l-0.2,0.4l-0.3,0.5l-0.1,0.3l-0.3,0.5l-0.3,0.3l-0.5,0.3l-0.3,0.4l-0.3,0.3l-0.5,0.4l-0.3,0.1l-0.4,0.3l-0.5,0.2l-0.4,0.3l-0.5,0.1l-0.5,0.2l-0.4,0.1l-0.5,0l-0.4,0.2l-0.5,0.1l-0.5,0l-0.4,0l-39,0L984,263.4l19.9,-36.1l-4.6,0l-0.4,0l-0.5,0l-0.5,0l-0.4,-0.1L997,227l-0.4,0l-0.5,-0.1l-0.4,-0.3l-0.5,-0.2l-0.5,-0.3L994.4,226L994,225.7l-0.3,-0.4L993.2,225l-0.3,-0.3l-0.5,-0.3L992.1,224l-0.3,-0.3l-0.1,-0.5l-0.3,-0.5l-0.2,-0.3L990.9,222l-0.1,-0.5l-0.2,-0.4l-0.1,-0.5l0,-0.4l-0.2,-0.7l-0.1,-0.4l0,-0.5l0,-0.4l0,-13.8l0,-23.1Z" class="g4_15" />
<path d="M853.5,306.5l206,0" class="g5_15" />
<path d="M591.5,306.5l206,0" class="g5_15" />
<path fill-rule="evenodd" d="M753,11l127,0l0,216l-127,0L753,11Z" class="g1_15" />
<path d="M753,11l127,0l0,216l-127,0L753,11Z" class="g2_15" />
<path d="M752.5,44.5l126,0" class="g5_15" />
<path d="M753.5,139.5l125,0" class="g5_15" />
</svg>