<?xml version="1.0" encoding="UTF-8" standalone="no"?>
<!DOCTYPE svg PUBLIC "-//W3C//DTD SVG 1.1//EN"
"http://www.w3.org/Graphics/SVG/1.1/DTD/svg11.dtd">
<svg viewBox="0 0 1210 1045" version="1.1" xmlns="http://www.w3.org/2000/svg" xmlns:xlink="http://www.w3.org/1999/xlink">
<defs>
<style type="text/css"><![CDATA[
.g2_91{
fill: #E6E6E6;
}
.g3_91{
fill: none;
stroke: #418AB3;
stroke-width: 2;
stroke-linecap: butt;
stroke-linejoin: miter;
stroke-miterlimit: 7;
}
.g1_91{
fill: #FFFFFF;
}
]]></style>
</defs>
<path fill-rule="evenodd" d="M0,0L1210,0l0,1045L0,1045L0,0Z" class="g1_91" />
<path fill-rule="evenodd" d="M0,0L1210,0l0,1045L0,1045L0,0Z" class="g1_91" />
<image x="828" y="984" width="334" height="49" xlink:href="img/1.png" />
<path fill-rule="evenodd" d="M181,60l877,0l0,72l-877,0l0,-72Z" class="g2_91" />
<path fill-rule="evenodd" d="M105,199l151,0l0,96l-151,0l0,-96Z" class="g1_91" />
<path d="M105,199l151,0l0,96l-151,0l0,-96Z" class="g3_91" />
<path fill-rule="evenodd" d="M256,199l206,0l0,96l-206,0l0,-96Z" class="g1_91" />
<path d="M256,199l206,0l0,96l-206,0l0,-96Z" class="g3_91" />
</svg>