<?xml version="1.0" encoding="UTF-8" standalone="no"?>
<!DOCTYPE svg PUBLIC "-//W3C//DTD SVG 1.1//EN"
"http://www.w3.org/Graphics/SVG/1.1/DTD/svg11.dtd">
<svg viewBox="0 0 1100 825" version="1.1" xmlns="http://www.w3.org/2000/svg" xmlns:xlink="http://www.w3.org/1999/xlink">
<defs>
<style type="text/css"><![CDATA[
.g2_38{
fill: none;
stroke: #418AB3;
stroke-width: 2;
stroke-linecap: butt;
stroke-linejoin: miter;
stroke-miterlimit: 7;
}
.g1_38{
fill: #FFFFFF;
}
]]></style>
</defs>
<path fill-rule="evenodd" d="M0,0L1100,0l0,825L0,825L0,0Z" class="g1_38" />
<path fill-rule="evenodd" d="M0,0L1100,0l0,825L0,825L0,0Z" class="g1_38" />
<path fill-rule="evenodd" d="M907.5,17.9l0,-0.3l0.2,-0.3l0,-0.3l0,-0.3l0,-0.4L907.8,16L908,15.9l0,-0.3l0.1,-0.3l0.2,-0.2l0.1,-0.3l0.2,-0.1l0.3,-0.3L909,14.1l0.2,-0.2l0.1,-0.1l0.3,-0.2l0.2,-0.3l0.3,-0.2L910.2,13l0.4,-0.2l0.3,0l0.3,-0.1l0.1,-0.2l0.3,0l0.3,-0.1l0.3,0l0.3,0l0.3,0l0.4,0l167.6,0l0.3,0l0.3,0l0.3,0l0.1,0l0.3,0.1l0.3,0l0.3,0.2l0.3,0.1l0.2,0l0.3,0.2l0.2,0.1l0.3,0.3l0.3,0.2l0.1,0.2l0.2,0.1l0.3,0.3l0.1,0.2l0.2,0.3l0.1,0.1l0.2,0.3l0.1,0.2l0.2,0.3l0.1,0.3l0,0.3l0.2,0.1l0,0.4l0,0.3l0.2,0.3l0,0.3l0,0.3l0,22.1l0,0.3l0,0.3l0,0.3l-0.2,0.4l0,0.3l-0.2,0.1l0,0.3l-0.1,0.3l-0.2,0.3l-0.1,0.2l-0.2,0.3l-0.1,0.1l-0.2,0.3l-0.1,0.2l-0.3,0.3l-0.2,0.2l-0.1,0.1l-0.3,0.2l-0.3,0.3l-0.2,0l-0.3,0.1l-0.2,0.2l-0.3,0.1l-0.3,0.2l-0.3,0l-0.3,0l-0.1,0.1l-0.3,0l-0.3,0l-0.3,0L913.2,45.7l0,-0.2l-0.4,0l-0.3,0l-0.3,0l-0.3,0l-0.3,-0.1l-0.3,0l-0.1,-0.2l-0.3,-0.1l-0.3,0l-0.4,-0.2l-0.1,-0.1l-0.3,-0.2l-0.2,-0.3l-0.3,-0.1L909.2,44L909,43.8l-0.1,-0.3l-0.3,-0.3l-0.2,-0.1l-0.1,-0.3l-0.2,-0.2L908,42.3L908,42l-0.2,-0.1l-0.1,-0.3l0,-0.3l0,-0.4l0,-0.3l-0.2,-0.3l0,-0.3l0,-22.1Z" class="g1_38" />
<path d="M907.5,17.9l0,-0.3l0.2,-0.3l0,-0.3l0,-0.3l0,-0.4L907.8,16L908,15.9l0,-0.3l0.1,-0.3l0.2,-0.2l0.1,-0.3l0.2,-0.1l0.3,-0.3L909,14.1l0.2,-0.2l0.1,-0.1l0.3,-0.2l0.2,-0.3l0.3,-0.2L910.2,13l0.4,-0.2l0.3,0l0.3,-0.1l0.1,-0.2l0.3,0l0.3,-0.1l0.3,0l0.3,0l0.3,0l0.4,0l167.6,0l0.3,0l0.3,0l0.3,0l0.1,0l0.3,0.1l0.3,0l0.3,0.2l0.3,0.1l0.2,0l0.3,0.2l0.2,0.1l0.3,0.3l0.3,0.2l0.1,0.2l0.2,0.1l0.3,0.3l0.1,0.2l0.2,0.3l0.1,0.1l0.2,0.3l0.1,0.2l0.2,0.3l0.1,0.3l0,0.3l0.2,0.1l0,0.4l0,0.3l0.2,0.3l0,0.3l0,0.3l0,22.1l0,0.3l0,0.3l0,0.3l-0.2,0.4l0,0.3l-0.2,0.1l0,0.3l-0.1,0.3l-0.2,0.3l-0.1,0.2l-0.2,0.3l-0.1,0.1l-0.2,0.3l-0.1,0.2l-0.3,0.3l-0.2,0.2l-0.1,0.1l-0.3,0.2l-0.3,0.3l-0.2,0l-0.3,0.1l-0.2,0.2l-0.3,0.1l-0.3,0.2l-0.3,0l-0.3,0l-0.1,0.1l-0.3,0l-0.3,0l-0.3,0L913.2,45.7l0,-0.2l-0.4,0l-0.3,0l-0.3,0l-0.3,0l-0.3,-0.1l-0.3,0l-0.1,-0.2l-0.3,-0.1l-0.3,0l-0.4,-0.2l-0.1,-0.1l-0.3,-0.2l-0.2,-0.3l-0.3,-0.1L909.2,44L909,43.8l-0.1,-0.3l-0.3,-0.3l-0.2,-0.1l-0.1,-0.3l-0.2,-0.2L908,42.3L908,42l-0.2,-0.1l-0.1,-0.3l0,-0.3l0,-0.4l0,-0.3l-0.2,-0.3l0,-0.3l0,-22.1Z" class="g2_38" />
</svg>