<?xml version="1.0" encoding="UTF-8" standalone="no"?>
<!DOCTYPE svg PUBLIC "-//W3C//DTD SVG 1.1//EN"
"http://www.w3.org/Graphics/SVG/1.1/DTD/svg11.dtd">
<svg viewBox="0 0 1210 1045" version="1.1" xmlns="http://www.w3.org/2000/svg" xmlns:xlink="http://www.w3.org/1999/xlink">
<defs>
<clipPath id="c0_49"><path d="M352.6,365L352,364.8l-0.5,-0.1l-0.6,-0.2l-0.6,-0.1l-0.4,-0.2l-0.6,-0.1l-0.5,-0.5l-0.5,-0.1l-0.6,-0.3l-0.4,-0.4l-0.5,-0.3l-0.5,-0.4l-0.4,-0.5l-0.3,-0.3l-0.3,-0.4l-0.6,-0.5l-0.3,-0.5l-0.3,-0.6l-0.3,-0.4l0,-0.6l-0.5,-0.5l-0.2,-0.6L343,356.7L342.8,356l-0.1,-0.5l0,-0.6l0,-0.5l0,-0.6l0,-64.3l0,-0.7l0,-0.4l0,-0.6l0.1,-0.6l0.2,-0.6l0.1,-0.6l0.2,-0.5l0.5,-0.6l0,-0.4l0.3,-0.6l0.3,-0.5l0.3,-0.5l0.6,-0.4l0.3,-0.5l0.3,-0.4l0.4,-0.5l0.5,-0.3l0.5,-0.3l0.4,-0.3l0.6,-0.3l0.5,-0.3l0.5,-0.3l0.6,-0.2l0.4,-0.3l0.6,-0.1l0.6,-0.2l0.5,0l0.6,-0.1l566.7,0l0.4,0.1l0.6,0l0.6,0.2l0.7,0.1l0.4,0.3l0.8,0.2l0.3,0.3l0.6,0.3l0.6,0.3l0.3,0.3l0.5,0.3l0.4,0.3l0.5,0.5l0.3,0.4l0.4,0.5l0.4,0.4l0.3,0.5l0.3,0.6l0.3,0.5l0.3,0.4l0.1,0.6l0.2,0.5l0.3,0.6l0,0.6l0.1,0.6l0.2,0.6l0,0.4l0,0.7l0.1,64.3l-0.1,0l0,0.6l0,0.5l0,0.6L929,356l-0.1,0.7l0,0.5l-0.3,0.6l-0.3,0.5l-0.3,0.6l-0.3,0.4l-0.3,0.6l-0.3,0.5l-0.4,0.2l-0.4,0.7l-0.3,0.3l-0.5,0.5l-0.4,0.4l-0.5,0.3l-0.3,0.4l-0.6,0.3l-0.6,0.1l-0.3,0.3l-0.8,0.3l-0.4,0.2l-0.7,0.1l-0.6,0.2l-0.6,0.1l-0.4,0l-0.6,0.2Z" /></clipPath>
<clipPath id="c1_49"><path d="M394.9,467.5l-0.6,-0.2l-0.4,-0.1L393.2,467l-0.6,-0.1l-0.4,-0.2l-0.6,-0.1l-0.5,-0.3L390.5,466L390,465.7l-0.4,-0.3l-0.5,-0.5l-0.4,-0.5l-0.5,-0.3l-0.4,-0.3l-0.4,-0.4L387,462.9l-0.3,-0.6l-0.2,-0.5l-0.4,-0.4l-0.2,-0.6l-0.3,-0.5l-0.1,-0.6l-0.2,-0.4l-0.1,-0.7L385,458l0,-0.6l0,-0.6l0,-0.5L385,392l0,-0.6l0,-0.6l0,-0.5l0.2,-0.7l0.1,-0.5l0.2,-0.6l0.1,-0.4l0.3,-0.7l0.2,-0.4l0.4,-0.6l0.2,-0.5l0.3,-0.4l0.4,-0.5l0.4,-0.5l0.4,-0.4l0.5,-0.3l0.4,-0.5l0.5,-0.3l0.4,-0.3l0.5,-0.3l0.6,-0.5l0.5,-0.1l0.6,-0.2l0.4,-0.3l0.6,-0.1l0.7,-0.2l0.4,0l0.6,-0.1l566.7,0L962,381l0.7,0l0.6,0.2l0.7,0.1l0.3,0.3l0.6,0.2l0.7,0.1l0.3,0.5l0.6,0.3l0.6,0.3l0.3,0.3l0.4,0.5l0.4,0.3l0.4,0.4l0.5,0.5l0.3,0.5l0.3,0.4l0.4,0.6l0.2,0.5l0.3,0.4l0.2,0.7l0.1,0.4l0.2,0.6l0.1,0.5l0.2,0.7l0.3,0.5l0,0.6l0,0.6l0,64.3l0,0.5l0,0.6l-0.3,0.6l0,0.6l-0.2,0.7l-0.1,0.4l-0.3,0.6l-0.2,0.5l-0.3,0.6l-0.2,0.4l-0.4,0.5l-0.3,0.6l-0.3,0.3l-0.5,0.6l-0.3,0.3l-0.5,0.3l-0.4,0.5l-0.3,0.5l-0.6,0.3l-0.6,0.3l-0.3,0.3l-0.7,0.1l-0.6,0.3l-0.3,0.2l-0.7,0.1l-0.6,0.2l-0.7,0.1l-0.4,0l-0.6,0.2Z" /></clipPath>
<style type="text/css"><![CDATA[
.g7_49{
fill-opacity: 0.9;
}
.g10_49{
fill: none;
stroke: #5E5E5E;
stroke-width: 2;
stroke-linecap: butt;
stroke-linejoin: miter;
stroke-miterlimit: 7;
stroke-opacity: 0.9;
}
.g4_49{
fill: none;
stroke: #FFFFFF;
stroke-width: 2;
stroke-linecap: butt;
stroke-linejoin: miter;
stroke-miterlimit: 7;
}
.g8_49{
fill: none;
stroke: #CEDAE4;
stroke-width: 2;
stroke-linecap: butt;
stroke-linejoin: miter;
stroke-miterlimit: 7;
stroke-opacity: 0.9;
}
.g2_49{
fill: none;
stroke: #418AB3;
stroke-width: 1;
stroke-linecap: butt;
stroke-linejoin: miter;
stroke-miterlimit: 7;
}
.g6_49{
fill: none;
stroke: #418AB3;
stroke-width: 1;
stroke-linecap: butt;
stroke-linejoin: miter;
}
.g3_49{
fill: #316786;
}
.g5_49{
fill: none;
stroke: #FFFFFF;
stroke-width: 1;
stroke-linecap: butt;
stroke-linejoin: miter;
}
.g9_49{
fill: #FFFFFF;
fill-opacity: 0.9;
}
.g1_49{
fill: #FFFFFF;
}
]]></style>
</defs>
<path fill-rule="evenodd" d="M0,0L1210,0l0,1045L0,1045L0,0Z" class="g1_49" />
<path fill-rule="evenodd" d="M0,0L1210,0l0,1045L0,1045L0,0Z" class="g1_49" />
<image x="828" y="984" width="334" height="49" xlink:href="img/1.png" />
<image x="238" y="73" width="589" height="88" xlink:href="shade/1.png" />
<path d="M238.3,84.5l0,-0.6l0,-0.6l0.2,-0.6l0.1,-0.5l0,-0.6L238.9,81l0.2,-0.5l0.2,-0.6l0.3,-0.5l0.3,-0.6l0.3,-0.4l0.3,-0.5l0.3,-0.4L241.2,77l0.3,-0.5L242,76.2l0.5,-0.4l0.4,-0.3l0.5,-0.3L244,74.9l0.4,-0.3l0.7,-0.4l0.4,-0.3l0.6,-0.1l0.5,-0.2l0.6,-0.1l0.6,-0.2l0.6,0l0.5,0l0.6,0l564.2,0l0.6,0l0.6,0l0.6,0l0.6,0.2l0.5,0.1l0.6,0.2l0.6,0.1l0.5,0.3l0.4,0.4l0.6,0.3l0.5,0.3l0.5,0.3l0.4,0.3l0.5,0.4l0.4,0.3l0.5,0.5l0.3,0.5l0.5,0.4l0.3,0.5l0.3,0.4l0.1,0.6l0.3,0.5l0.3,0.6l0.2,0.5l0.1,0.6l0.2,0.6l0.1,0.6l0,0.5l0,0.6l0,0.6l0.2,64.2l0,0.6l-0.2,0.6l0,0.6l-0.1,0.6l-0.2,0.5l-0.1,0.6l-0.2,0.6l-0.3,0.4l-0.3,0.6l-0.1,0.5l-0.3,0.5l-0.3,0.6l-0.5,0.3l-0.3,0.4l-0.5,0.5l-0.4,0.5l-0.3,0.3l-0.6,0.4l-0.5,0.3l-0.5,0.3l-0.6,0.3l-0.4,0.2l-0.5,0.3l-0.6,0.1l-0.6,0.2l-0.5,0.2l-0.6,0.1l-0.6,0l-0.6,0.2l-0.6,0l-564.2,0l-0.6,0l-0.5,0l-0.6,-0.2l-0.6,-0.1l-0.6,-0.2l-0.5,-0.2l-0.6,-0.1L245.1,159l-0.7,-0.3L244,158.4l-0.6,-0.3l-0.5,-0.3l-0.4,-0.4L242,157.1l-0.5,-0.5l-0.3,-0.5l-0.4,-0.3l-0.3,-0.4l-0.3,-0.6l-0.3,-0.5l-0.3,-0.5l-0.3,-0.6l-0.2,-0.4l-0.2,-0.6l-0.3,-0.6l0,-0.5l-0.1,-0.6l-0.2,-0.6l0,-0.6l0,-0.6l0,-64.2Z" class="g2_49" />
<path fill-rule="evenodd" d="M309.8,186.7l0,-0.6l0,-0.6l0.2,-0.6l0.1,-0.5l0,-0.6l0.3,-0.6l0.2,-0.5l0.1,-0.6l0.4,-0.4l0.3,-0.7l0.3,-0.4l0.3,-0.5l0.3,-0.4l0.4,-0.5l0.3,-0.4l0.5,-0.4L314,178l0.4,-0.5l0.5,-0.1l0.6,-0.3l0.4,-0.3l0.7,-0.3l0.4,-0.3l0.6,-0.2l0.5,-0.2l0.6,-0.1l0.6,-0.2l0.6,0l0.5,0l0.6,0l564.2,0l0.6,0l0.6,0l0.6,0l0.6,0.2l0.5,0.1l0.6,0.2l0.6,0.2l0.5,0.3l0.4,0.3l0.6,0.3l0.5,0.3l0.5,0.3l0.4,0.3l0.5,0.4l0.4,0.4l0.5,0.4l0.3,0.5l0.5,0.4l0.3,0.5L895,181l0.1,0.7l0.3,0.4l0.3,0.6l0.2,0.5l0.1,0.6l0.2,0.6l0.1,0.6l0,0.5l0,0.6l0,0.6l0.2,64.2l0,0.6l-0.2,0.6l0,0.6l-0.1,0.6l-0.2,0.5l-0.1,0.6l-0.2,0.6l-0.3,0.4l-0.3,0.7l-0.1,0.4l-0.3,0.5l-0.3,0.4l-0.5,0.5l-0.3,0.4l-0.5,0.5l-0.4,0.5l-0.3,0.3l-0.6,0.4l-0.5,0.3l-0.5,0.3l-0.6,0.3l-0.4,0.2l-0.5,0.3l-0.6,0.2l-0.6,0.1l-0.5,0.2L887,262l-0.6,0l-0.6,0.2l-0.6,0l-564.2,0l-0.6,0l-0.5,0L319.3,262l-0.6,-0.1l-0.6,-0.2l-0.5,-0.1L317,261.4l-0.4,-0.1l-0.7,-0.4l-0.4,-0.3l-0.6,-0.3L314.4,260L314,259.6l-0.5,-0.3L313,258.8l-0.3,-0.5L312.3,258L312,257.4L311.7,257l-0.3,-0.5l-0.3,-0.4l-0.4,-0.7L310.6,255l-0.2,-0.6l-0.3,-0.6l0,-0.5L310,252.7l-0.2,-0.6l0,-0.6l0,-0.6l0,-64.2Z" class="g3_49" />
<path d="M309.8,186.7l0,-0.6l0,-0.6l0.2,-0.6l0.1,-0.5l0,-0.6l0.3,-0.6l0.2,-0.5l0.1,-0.6l0.4,-0.4l0.3,-0.7l0.3,-0.4l0.3,-0.5l0.3,-0.4l0.4,-0.5l0.3,-0.4l0.5,-0.4L314,178l0.4,-0.5l0.5,-0.1l0.6,-0.3l0.4,-0.3l0.7,-0.3l0.4,-0.3l0.6,-0.2l0.5,-0.2l0.6,-0.1l0.6,-0.2l0.6,0l0.5,0l0.6,0l564.2,0l0.6,0l0.6,0l0.6,0l0.6,0.2l0.5,0.1l0.6,0.2l0.6,0.2l0.5,0.3l0.4,0.3l0.6,0.3l0.5,0.3l0.5,0.3l0.4,0.3l0.5,0.4l0.4,0.4l0.5,0.4l0.3,0.5l0.5,0.4l0.3,0.5L895,181l0.1,0.7l0.3,0.4l0.3,0.6l0.2,0.5l0.1,0.6l0.2,0.6l0.1,0.6l0,0.5l0,0.6l0,0.6l0.2,64.2l0,0.6l-0.2,0.6l0,0.6l-0.1,0.6l-0.2,0.5l-0.1,0.6l-0.2,0.6l-0.3,0.4l-0.3,0.7l-0.1,0.4l-0.3,0.5l-0.3,0.4l-0.5,0.5l-0.3,0.4l-0.5,0.5l-0.4,0.5l-0.3,0.3l-0.6,0.4l-0.5,0.3l-0.5,0.3l-0.6,0.3l-0.4,0.2l-0.5,0.3l-0.6,0.2l-0.6,0.1l-0.5,0.2L887,262l-0.6,0l-0.6,0.2l-0.6,0l-564.2,0l-0.6,0l-0.5,0L319.3,262l-0.6,-0.1l-0.6,-0.2l-0.5,-0.1L317,261.4l-0.4,-0.1l-0.7,-0.4l-0.4,-0.3l-0.6,-0.3L314.4,260L314,259.6l-0.5,-0.3L313,258.8l-0.3,-0.5L312.3,258L312,257.4L311.7,257l-0.3,-0.5l-0.3,-0.4l-0.4,-0.7L310.6,255l-0.2,-0.6l-0.3,-0.6l0,-0.5L310,252.7l-0.2,-0.6l0,-0.6l0,-0.6l0,-64.2Z" class="g4_49" />
<image x="342" y="278" width="588" height="89" xlink:href="shade/2.png" />
<g clip-path="url(#c0_49)">
<path d="M342.5,364.5l587,0l0,-86l-587,0l0,86Z" class="g5_49" />
</g>
<path d="M342.7,289.5l0,-0.6l0,-0.6l0.1,-0.6l0.2,-0.6l0.1,-0.5l0.2,-0.6l0.1,-0.6l0.2,-0.5l0.3,-0.6l0.3,-0.4l0.3,-0.5l0.3,-0.5l0.3,-0.6l0.5,-0.3l0.4,-0.4l0.3,-0.5l0.5,-0.3l0.5,-0.5l0.6,-0.3l0.4,-0.3l0.5,-0.3l0.6,-0.3l0.5,-0.1l0.6,-0.2l0.4,-0.1l0.6,-0.2l0.7,-0.1l0.6,0l0.6,-0.2l0.4,0l564.2,0l0.7,0l0.6,0.2l0.6,0l0.6,0.1l0.4,0.2l0.7,0.1l0.6,0.2l0.4,0.3l0.6,0.1l0.5,0.3l0.5,0.3l0.6,0.3l0.3,0.5l0.4,0.3l0.5,0.5l0.4,0.4l0.3,0.3l0.5,0.6l0.3,0.5l0.3,0.5l0.3,0.6l0.2,0.4l0.3,0.5l0.1,0.6l0.2,0.6l0.1,0.5l0.2,0.6l0,0.6l0.1,0.6l0,0.6l0,64.2l0,0.6l-0.1,0.6l0,0.5L929,356l-0.1,0.6l-0.2,0.6l-0.1,0.5l-0.3,0.6l-0.2,0.4l-0.3,0.6l-0.3,0.5l-0.3,0.4l-0.5,0.5l-0.3,0.5l-0.4,0.4l-0.5,0.3l-0.3,0.5l-0.4,0.3l-0.6,0.3l-0.5,0.3l-0.5,0.3l-0.6,0.3l-0.4,0.2l-0.6,0.3l-0.7,0.1l-0.4,0l-0.6,0.2l-0.6,0.1l-0.6,0l-0.7,0L353.8,365l0,-0.2l-0.4,0l-0.6,0l-0.6,0l-0.7,-0.1l-0.6,-0.2l-0.4,-0.1l-0.6,-0.2l-0.5,-0.3l-0.6,-0.1l-0.5,-0.3l-0.4,-0.3l-0.6,-0.4l-0.5,-0.4l-0.5,-0.5L346,361.6l-0.4,-0.4l-0.5,-0.5l-0.3,-0.5l-0.3,-0.4l-0.3,-0.5l-0.3,-0.4l-0.3,-0.6l-0.2,-0.6l-0.1,-0.5l-0.2,-0.6L343,356l-0.2,-0.5l-0.1,-0.6l0,-0.6l0,-0.6l0,-64.2Z" class="g2_49" />
<image x="384" y="380" width="589" height="87" xlink:href="shade/3.png" />
<g clip-path="url(#c1_49)">
<path d="M385.5,467.5l586,0l0,-87l-586,0l0,87Z" class="g6_49" />
</g>
<path d="M385,392l0,-0.6l0,-0.6l0.2,-0.6l0.1,-0.6l0.2,-0.5l0.1,-0.6l0.2,-0.6l0.1,-0.5l0.3,-0.6l0.3,-0.4l0.3,-0.5l0.3,-0.4l0.3,-0.7l0.5,-0.3l0.5,-0.4l0.3,-0.5l0.4,-0.3l0.5,-0.4l0.4,-0.3l0.7,-0.3l0.4,-0.4l0.6,-0.3l0.5,-0.1l0.6,-0.2l0.4,-0.1l0.7,-0.2l0.6,-0.1l0.6,0l0.4,-0.2l0.7,0l564.2,0l0.6,0l0.6,0.2l0.6,0l0.6,0.1l0.5,0.2l0.6,0.1l0.6,0.2l0.4,0.3l0.7,0.1l0.4,0.4l0.5,0.3l0.4,0.3l0.5,0.4l0.4,0.3l0.5,0.5l0.5,0.4l0.3,0.3l0.4,0.7l0.3,0.4l0.3,0.5l0.3,0.4l0.2,0.6l0.3,0.5l0.2,0.6l0.1,0.6l0.2,0.5l0.1,0.6l0,0.6l0.2,0.6l0,0.6l0,64.2l0,0.6l-0.2,0.6l0,0.5l-0.1,0.6l-0.2,0.6l-0.1,0.6l-0.2,0.5l-0.3,0.6l-0.2,0.4l-0.3,0.6l-0.3,0.5l-0.3,0.5l-0.4,0.4l-0.3,0.5l-0.5,0.4l-0.5,0.3l-0.3,0.5l-0.6,0.3l-0.4,0.3l-0.5,0.3l-0.4,0.3l-0.7,0.3l-0.4,0.2l-0.6,0.1l-0.6,0.3l-0.5,0l-0.6,0.2l-0.6,0.1l-0.6,0l-0.6,0l-564.2,0.2l0,-0.2l-0.7,0l-0.4,0l-0.6,0l-0.6,-0.1L393.2,467l-0.4,-0.1l-0.6,-0.2l-0.5,-0.3l-0.6,-0.3L390.7,466L390,465.7l-0.4,-0.3l-0.5,-0.5l-0.4,-0.5l-0.3,-0.3l-0.5,-0.4l-0.5,-0.5l-0.3,-0.4l-0.3,-0.5l-0.3,-0.5l-0.3,-0.6l-0.3,-0.4l-0.1,-0.6l-0.2,-0.5l-0.1,-0.6l-0.2,-0.6L385.2,458L385,457.4l0,-0.6l0,-0.6L385,392Z" class="g2_49" />
<path fill-rule="evenodd" d="M768.6,170.7l12.6,0l0,-31.1l31.1,0l0,31.1l12.7,0l-28.3,25.5L768.6,170.7Z" class="g7_49" />
<path d="M768.6,170.7l12.6,0l0,-31.1l31.1,0l0,31.1l12.7,0l-28.3,25.5L768.6,170.7Z" class="g8_49" />
<path fill-rule="evenodd" d="M817.7,273.2l12.6,0l0,-31l31.1,0l0,31l12.6,0l-28.1,25.3L817.7,273.2Z" class="g9_49" />
<path d="M817.7,273.2l12.6,0l0,-31l31.1,0l0,31l12.6,0l-28.1,25.3L817.7,273.2Z" class="g10_49" />
<path fill-rule="evenodd" d="M866.1,375.7l12.7,0l0,-31l31,0l0,31l12.7,0L894.4,401L866.1,375.7Z" class="g9_49" />
<path d="M866.1,375.7l12.7,0l0,-31l31,0l0,31l12.7,0L894.4,401L866.1,375.7Z" class="g10_49" />
</svg>