<?xml version="1.0" encoding="UTF-8" standalone="no"?>
<!DOCTYPE svg PUBLIC "-//W3C//DTD SVG 1.1//EN"
"http://www.w3.org/Graphics/SVG/1.1/DTD/svg11.dtd">
<svg viewBox="0 0 1210 1045" version="1.1" xmlns="http://www.w3.org/2000/svg" xmlns:xlink="http://www.w3.org/1999/xlink">
<defs>
<style type="text/css"><![CDATA[
.g2_99{
fill: none;
stroke: #0000B3;
stroke-width: 2;
stroke-linecap: butt;
stroke-linejoin: miter;
}
.g1_99{
fill: #FFFFFF;
}
]]></style>
</defs>
<path fill-rule="evenodd" d="M0,0L1210,0l0,1045L0,1045L0,0Z" class="g1_99" />
<path fill-rule="evenodd" d="M0,0L1210,0l0,1045L0,1045L0,0Z" class="g1_99" />
<image x="828" y="984" width="334" height="49" xlink:href="img/1.png" />
<path d="M100,71l177,0" class="g2_99" />
<path d="M100,115l123,0" class="g2_99" />
<path d="M100,159l105,0" class="g2_99" />
<path d="M100,203l272,0" class="g2_99" />
<path d="M100,247l147,0" class="g2_99" />
<path d="M100,291l140,0" class="g2_99" />
<path d="M100,335l133,0" class="g2_99" />
<path d="M100,378l127,0" class="g2_99" />
<path d="M100,422l118,0" class="g2_99" />
<path d="M100,466l104,0" class="g2_99" />
<path d="M100,510l75,0" class="g2_99" />
<path d="M175,510l67,0" class="g2_99" />
<path d="M100,554l154,0" class="g2_99" />
<path d="M100,598l204,0" class="g2_99" />
<path d="M100,704l70,0" class="g2_99" />
<path d="M170,704l353,0" class="g2_99" />
</svg>