<?xml version="1.0" encoding="UTF-8" standalone="no"?>
<!DOCTYPE svg PUBLIC "-//W3C//DTD SVG 1.1//EN"
"http://www.w3.org/Graphics/SVG/1.1/DTD/svg11.dtd">
<svg viewBox="0 0 1210 1045" version="1.1" xmlns="http://www.w3.org/2000/svg" xmlns:xlink="http://www.w3.org/1999/xlink">
<defs>
<style type="text/css"><![CDATA[
.g2_15{
fill: none;
stroke: #0000EE;
stroke-width: 2;
stroke-linecap: butt;
stroke-linejoin: miter;
}
.g1_15{
fill: #FFFFFF;
}
]]></style>
</defs>
<path fill-rule="evenodd" d="M0,0L1210,0l0,1045L0,1045L0,0Z" class="g1_15" />
<path fill-rule="evenodd" d="M0,0L1210,0l0,1045L0,1045L0,0Z" class="g1_15" />
<image x="828" y="984" width="334" height="49" xlink:href="img/1.png" />
<path d="M100,69l170,0" class="g2_15" />
<path d="M100,113l229,0" class="g2_15" />
<path d="M100,157l158,0" class="g2_15" />
<path d="M100,201l93,0" class="g2_15" />
<path d="M193,201l43,0" class="g2_15" />
<path d="M100,307l423,0" class="g2_15" />
<path d="M100,351l66,0" class="g2_15" />
<path d="M166,351l88,0" class="g2_15" />
<path d="M254,351l163,0" class="g2_15" />
<path d="M100,395l66,0" class="g2_15" />
<path d="M166,395l88,0" class="g2_15" />
<path d="M254,395l163,0" class="g2_15" />
</svg>