<?xml version="1.0" encoding="UTF-8" standalone="no"?>
<!DOCTYPE svg PUBLIC "-//W3C//DTD SVG 1.1//EN"
"http://www.w3.org/Graphics/SVG/1.1/DTD/svg11.dtd">
<svg viewBox="0 0 1210 1210" version="1.1" xmlns="http://www.w3.org/2000/svg" xmlns:xlink="http://www.w3.org/1999/xlink">
<defs>
<style type="text/css"><![CDATA[
.g2_10{
fill: none;
stroke: #418AB3;
stroke-width: 2;
stroke-linecap: butt;
stroke-linejoin: miter;
stroke-miterlimit: 7;
}
.g1_10{
fill: #FFFFFF;
}
]]></style>
</defs>
<path fill-rule="evenodd" d="M0,0L1210,0l0,1210L0,1210L0,0Z" class="g1_10" />
<path fill-rule="evenodd" d="M0,0L1210,0l0,1210L0,1210L0,0Z" class="g1_10" />
<path fill-rule="evenodd" d="M916.7,25.4l0,-0.5l0,-0.3l0,-0.3l0.1,-0.5L917,23.5l0,-0.3l0.1,-0.4l0.2,-0.3l0.1,-0.3l0.2,-0.4l0.1,-0.3L918,21.2l0.2,-0.3l0.3,-0.3l0.2,-0.3L919,20.2l0.3,-0.3l0.3,-0.3l0.3,-0.2l0.3,-0.2l0.3,-0.1l0.3,-0.2l0.5,-0.1l0.3,-0.2l0.3,-0.1l0.3,0l0.4,-0.2l0.3,0l0.3,0l0.5,0l258.3,0l0.5,0l0.3,0l0.5,0l0.3,0.2l0.3,0l0.4,0.1l0.3,0.2l0.3,0.1l0.3,0.2l0.4,0.1l0.3,0.2l0.3,0.2l0.3,0.3l0.3,0.3l0.3,0.1l0.1,0.3l0.3,0.3l0.3,0.3l0.2,0.3l0.2,0.3l0.1,0.4l0.2,0.3l0.1,0.3l0.2,0.4l0.1,0.3l0,0.3l0.2,0.5l0,0.3l0,0.5l0,0.3l0.1,28.2l0,0.3l-0.1,0.5l0,0.3l0,0.5l-0.2,0.3l-0.1,0.3l0,0.3l-0.2,0.4l-0.1,0.3l-0.3,0.3l-0.2,0.3l-0.2,0.3l-0.3,0.4l-0.1,0.3l-0.3,0.3l-0.3,0.1l-0.3,0.3l-0.3,0.2l-0.3,0.1l-0.3,0.3l-0.4,0.2l-0.3,0.1l-0.3,0.2l-0.3,0.1l-0.4,0l-0.3,0.2l-0.3,0l-0.5,0.2l-0.3,0l-0.5,0l-258.3,0l-0.5,0l-0.3,0l-0.3,0l-0.4,-0.2l-0.3,-0.2l-0.3,0l-0.3,-0.1L920.8,60l-0.3,-0.1l-0.3,-0.2l-0.3,-0.1l-0.3,-0.3l-0.3,-0.2L919,58.8l-0.3,-0.1l-0.2,-0.3l-0.3,-0.3L918,57.7l-0.3,-0.3l-0.1,-0.3l-0.2,-0.3l-0.1,-0.3l-0.2,-0.4L917,55.8l0,-0.3l-0.2,-0.3l-0.1,-0.5l0,-0.3l0,-0.5l0,-0.3l0,-28.2Z" class="g1_10" />
<path d="M916.7,25.4l0,-0.5l0,-0.3l0,-0.3l0.1,-0.5L917,23.5l0,-0.3l0.1,-0.4l0.2,-0.3l0.1,-0.3l0.2,-0.4l0.1,-0.3L918,21.2l0.2,-0.3l0.3,-0.3l0.2,-0.3L919,20.2l0.3,-0.3l0.3,-0.3l0.3,-0.2l0.3,-0.2l0.3,-0.1l0.3,-0.2l0.5,-0.1l0.3,-0.2l0.3,-0.1l0.3,0l0.4,-0.2l0.3,0l0.3,0l0.5,0l258.3,0l0.5,0l0.3,0l0.5,0l0.3,0.2l0.3,0l0.4,0.1l0.3,0.2l0.3,0.1l0.3,0.2l0.4,0.1l0.3,0.2l0.3,0.2l0.3,0.3l0.3,0.3l0.3,0.1l0.1,0.3l0.3,0.3l0.3,0.3l0.2,0.3l0.2,0.3l0.1,0.4l0.2,0.3l0.1,0.3l0.2,0.4l0.1,0.3l0,0.3l0.2,0.5l0,0.3l0,0.5l0,0.3l0.1,28.2l0,0.3l-0.1,0.5l0,0.3l0,0.5l-0.2,0.3l-0.1,0.3l0,0.3l-0.2,0.4l-0.1,0.3l-0.3,0.3l-0.2,0.3l-0.2,0.3l-0.3,0.4l-0.1,0.3l-0.3,0.3l-0.3,0.1l-0.3,0.3l-0.3,0.2l-0.3,0.1l-0.3,0.3l-0.4,0.2l-0.3,0.1l-0.3,0.2l-0.3,0.1l-0.4,0l-0.3,0.2l-0.3,0l-0.5,0.2l-0.3,0l-0.5,0l-258.3,0l-0.5,0l-0.3,0l-0.3,0l-0.4,-0.2l-0.3,-0.2l-0.3,0l-0.3,-0.1L920.8,60l-0.3,-0.1l-0.3,-0.2l-0.3,-0.1l-0.3,-0.3l-0.3,-0.2L919,58.8l-0.3,-0.1l-0.2,-0.3l-0.3,-0.3L918,57.7l-0.3,-0.3l-0.1,-0.3l-0.2,-0.3l-0.1,-0.3l-0.2,-0.4L917,55.8l0,-0.3l-0.2,-0.3l-0.1,-0.5l0,-0.3l0,-0.5l0,-0.3l0,-28.2Z" class="g2_10" />
</svg>