<?xml version="1.0" encoding="UTF-8" standalone="no"?>
<!DOCTYPE svg PUBLIC "-//W3C//DTD SVG 1.1//EN"
"http://www.w3.org/Graphics/SVG/1.1/DTD/svg11.dtd">
<svg viewBox="0 0 1210 1045" version="1.1" xmlns="http://www.w3.org/2000/svg" xmlns:xlink="http://www.w3.org/1999/xlink">
<defs>
<style type="text/css"><![CDATA[
.g4_64{
fill: none;
stroke: #418AB3;
stroke-width: 2;
stroke-linecap: butt;
stroke-linejoin: miter;
stroke-miterlimit: 7;
}
.g2_64{
fill: #418AB3;
}
.g5_64{
fill: none;
stroke: #418AB3;
stroke-width: 2;
stroke-linecap: butt;
stroke-linejoin: miter;
}
.g3_64{
fill: none;
stroke: #418AB3;
stroke-width: 1;
stroke-linecap: butt;
stroke-linejoin: miter;
}
.g1_64{
fill: #FFFFFF;
}
]]></style>
</defs>
<path fill-rule="evenodd" d="M0,0L1210,0l0,1045L0,1045L0,0Z" class="g1_64" />
<path fill-rule="evenodd" d="M0,0L1210,0l0,1045L0,1045L0,0Z" class="g1_64" />
<image x="828" y="984" width="334" height="49" xlink:href="img/1.png" />
<path fill-rule="evenodd" d="M256,85l165,0l0,22l-165,0l0,-22Z" class="g2_64" />
<path d="M256.5,107.5l0,-23" class="g3_64" />
<path d="M421.5,107.5l0,-23" class="g3_64" />
<path d="M256.5,85.5l165,0" class="g3_64" />
<path d="M256.5,129.5l0,-22" class="g3_64" />
<path d="M421.5,129.5l0,-22" class="g3_64" />
<path d="M256.5,107.5l165,0" class="g3_64" />
<path d="M256.5,151.5l0,-22" class="g3_64" />
<path d="M421.5,151.5l0,-22" class="g3_64" />
<path d="M256.5,129.5l165,0" class="g3_64" />
<path d="M256.5,174.5l0,-23" class="g3_64" />
<path d="M256.5,174.5l165,0" class="g3_64" />
<path d="M421.5,174.5l0,-23" class="g3_64" />
<path d="M256.5,151.5l165,0" class="g3_64" />
<path fill-rule="evenodd" d="M165,209l173,0l0,25l-173,0l0,-25Z" class="g2_64" />
<path d="M164.5,234.5l0,-25" class="g3_64" />
<path d="M337.5,234.5l0,-25" class="g3_64" />
<path d="M164.5,210.5l174,0" class="g3_64" />
<path d="M164.5,257.5l0,-24" class="g3_64" />
<path d="M337.5,257.5l0,-24" class="g3_64" />
<path d="M165.5,234.5l173,0" class="g3_64" />
<path d="M164.5,280.5l0,-23" class="g3_64" />
<path d="M337.5,280.5l0,-23" class="g3_64" />
<path d="M165.5,257.5l173,0" class="g3_64" />
<path d="M164.5,305.5l0,-25" class="g3_64" />
<path d="M337.5,305.5l0,-25" class="g3_64" />
<path d="M165.5,280.5l173,0" class="g3_64" />
<path d="M164.5,330.5l0,-26" class="g3_64" />
<path d="M337.5,330.5l0,-26" class="g3_64" />
<path d="M165.5,305.5l173,0" class="g3_64" />
<path d="M164.5,354.5l0,-25" class="g3_64" />
<path d="M337.5,354.5l0,-25" class="g3_64" />
<path d="M165.5,330.5l173,0" class="g3_64" />
<path d="M164.5,379.5l0,-26" class="g3_64" />
<path d="M337.5,379.5l0,-26" class="g3_64" />
<path d="M165.5,354.5l173,0" class="g3_64" />
<path d="M164.5,403.5l0,-25" class="g3_64" />
<path d="M337.5,403.5l0,-25" class="g3_64" />
<path d="M165.5,379.5l173,0" class="g3_64" />
<path d="M164.5,428.5l0,-26" class="g3_64" />
<path d="M337.5,428.5l0,-26" class="g3_64" />
<path d="M165.5,403.5l173,0" class="g3_64" />
<path d="M164.5,452.5l0,-25" class="g3_64" />
<path d="M337.5,452.5l0,-25" class="g3_64" />
<path d="M165.5,428.5l173,0" class="g3_64" />
<path d="M164.5,477.5l0,-26" class="g3_64" />
<path d="M337.5,477.5l0,-26" class="g3_64" />
<path d="M165.5,452.5l173,0" class="g3_64" />
<path d="M164.5,501.5l0,-25" class="g3_64" />
<path d="M164.5,501.5l174,0" class="g3_64" />
<path d="M337.5,501.5l0,-25" class="g3_64" />
<path d="M165.5,477.5l173,0" class="g3_64" />
<path fill-rule="evenodd" d="M370,242l193,0l0,26l-193,0l0,-26Z" class="g2_64" />
<path d="M370.5,269.5l0,-27" class="g3_64" />
<path d="M563.5,269.5l0,-27" class="g3_64" />
<path d="M370.5,242.5l193,0" class="g3_64" />
<path d="M370.5,294.5l0,-26" class="g3_64" />
<path d="M563.5,294.5l0,-26" class="g3_64" />
<path d="M370.5,269.5l193,0" class="g3_64" />
<path d="M370.5,318.5l0,-25" class="g3_64" />
<path d="M563.5,318.5l0,-25" class="g3_64" />
<path d="M370.5,294.5l193,0" class="g3_64" />
<path d="M370.5,343.5l0,-25" class="g3_64" />
<path d="M563.5,343.5l0,-25" class="g3_64" />
<path d="M370.5,318.5l193,0" class="g3_64" />
<path d="M370.5,370.5l0,-27" class="g3_64" />
<path d="M563.5,370.5l0,-27" class="g3_64" />
<path d="M370.5,343.5l193,0" class="g3_64" />
<path d="M370.5,396.5l0,-27" class="g3_64" />
<path d="M563.5,396.5l0,-27" class="g3_64" />
<path d="M370.5,370.5l193,0" class="g3_64" />
<path d="M370.5,422.5l0,-27" class="g3_64" />
<path d="M563.5,422.5l0,-27" class="g3_64" />
<path d="M370.5,396.5l193,0" class="g3_64" />
<path d="M370.5,449.5l0,-27" class="g3_64" />
<path d="M563.5,449.5l0,-27" class="g3_64" />
<path d="M370.5,422.5l193,0" class="g3_64" />
<path d="M370.5,475.5l0,-27" class="g3_64" />
<path d="M563.5,475.5l0,-27" class="g3_64" />
<path d="M370.5,449.5l193,0" class="g3_64" />
<path d="M370.5,501.5l0,-27" class="g3_64" />
<path d="M370.5,501.5l193,0" class="g3_64" />
<path d="M563.5,501.5l0,-27" class="g3_64" />
<path d="M370.5,475.5l193,0" class="g3_64" />
<path fill-rule="evenodd" d="M649,31l168,0l0,22L649,53l0,-22Z" class="g2_64" />
<path d="M649.5,54.5l0,-23" class="g3_64" />
<path d="M816.5,54.5l0,-23" class="g3_64" />
<path d="M649.5,32.5l168,0" class="g3_64" />
<path d="M649.5,76.5l0,-23" class="g3_64" />
<path d="M816.5,76.5l0,-23" class="g3_64" />
<path d="M649.5,54.5l168,0" class="g3_64" />
<path d="M649.5,98.5l0,-23" class="g3_64" />
<path d="M816.5,98.5l0,-23" class="g3_64" />
<path d="M649.5,76.5l168,0" class="g3_64" />
<path d="M649.5,120.5l0,-23" class="g3_64" />
<path d="M816.5,120.5l0,-23" class="g3_64" />
<path d="M649.5,98.5l168,0" class="g3_64" />
<path d="M649.5,142.5l0,-23" class="g3_64" />
<path d="M816.5,142.5l0,-23" class="g3_64" />
<path d="M649.5,120.5l168,0" class="g3_64" />
<path d="M649.5,187.5l0,-46" class="g3_64" />
<path d="M816.5,187.5l0,-46" class="g3_64" />
<path d="M649.5,142.5l168,0" class="g3_64" />
<path d="M649.5,209.5l0,-23" class="g3_64" />
<path d="M816.5,209.5l0,-23" class="g3_64" />
<path d="M649.5,187.5l168,0" class="g3_64" />
<path d="M649.5,231.5l0,-23" class="g3_64" />
<path d="M816.5,231.5l0,-23" class="g3_64" />
<path d="M649.5,209.5l168,0" class="g3_64" />
<path d="M649.5,253.5l0,-23" class="g3_64" />
<path d="M816.5,253.5l0,-23" class="g3_64" />
<path d="M649.5,231.5l168,0" class="g3_64" />
<path d="M649.5,275.5l0,-23" class="g3_64" />
<path d="M649.5,275.5l168,0" class="g3_64" />
<path d="M816.5,275.5l0,-23" class="g3_64" />
<path d="M649.5,253.5l168,0" class="g3_64" />
<path fill-rule="evenodd" d="M615,297l171,0l0,45l-171,0l0,-45Z" class="g2_64" />
<path d="M614.5,343.5l0,-47" class="g3_64" />
<path d="M785.5,343.5l0,-47" class="g3_64" />
<path d="M614.5,297.5l172,0" class="g3_64" />
<path d="M614.5,365.5l0,-23" class="g3_64" />
<path d="M785.5,365.5l0,-23" class="g3_64" />
<path d="M615.5,343.5l171,0" class="g3_64" />
<path d="M614.5,387.5l0,-23" class="g3_64" />
<path d="M785.5,387.5l0,-23" class="g3_64" />
<path d="M615.5,365.5l171,0" class="g3_64" />
<path d="M614.5,409.5l0,-23" class="g3_64" />
<path d="M785.5,409.5l0,-23" class="g3_64" />
<path d="M615.5,387.5l171,0" class="g3_64" />
<path d="M614.5,431.5l0,-23" class="g3_64" />
<path d="M785.5,431.5l0,-23" class="g3_64" />
<path d="M615.5,409.5l171,0" class="g3_64" />
<path d="M614.5,453.5l0,-23" class="g3_64" />
<path d="M785.5,453.5l0,-23" class="g3_64" />
<path d="M615.5,431.5l171,0" class="g3_64" />
<path d="M614.5,475.5l0,-23" class="g3_64" />
<path d="M785.5,475.5l0,-23" class="g3_64" />
<path d="M615.5,453.5l171,0" class="g3_64" />
<path d="M614.5,497.5l0,-23" class="g3_64" />
<path d="M785.5,497.5l0,-23" class="g3_64" />
<path d="M615.5,475.5l171,0" class="g3_64" />
<path d="M614.5,519.5l0,-23" class="g3_64" />
<path d="M785.5,519.5l0,-23" class="g3_64" />
<path d="M615.5,497.5l171,0" class="g3_64" />
<path d="M614.5,541.5l0,-23" class="g3_64" />
<path d="M614.5,541.5l172,0" class="g3_64" />
<path d="M785.5,541.5l0,-23" class="g3_64" />
<path d="M615.5,519.5l171,0" class="g3_64" />
<path fill-rule="evenodd" d="M873,236l229,0l0,22l-229,0l0,-22Z" class="g2_64" />
<path d="M872.5,259.5l0,-24" class="g3_64" />
<path d="M1101.5,259.5l0,-24" class="g3_64" />
<path d="M872.5,236.5l230,0" class="g3_64" />
<path d="M872.5,281.5l0,-23" class="g3_64" />
<path d="M1101.5,281.5l0,-23" class="g3_64" />
<path d="M873.5,259.5l229,0" class="g3_64" />
<path d="M872.5,303.5l0,-23" class="g3_64" />
<path d="M1101.5,303.5l0,-23" class="g3_64" />
<path d="M873.5,281.5l229,0" class="g3_64" />
<path d="M872.5,325.5l0,-23" class="g3_64" />
<path d="M1101.5,325.5l0,-23" class="g3_64" />
<path d="M873.5,303.5l229,0" class="g3_64" />
<path d="M872.5,348.5l0,-24" class="g3_64" />
<path d="M1101.5,348.5l0,-24" class="g3_64" />
<path d="M873.5,325.5l229,0" class="g3_64" />
<path d="M872.5,370.5l0,-23" class="g3_64" />
<path d="M1101.5,370.5l0,-23" class="g3_64" />
<path d="M873.5,348.5l229,0" class="g3_64" />
<path d="M872.5,393.5l0,-23" class="g3_64" />
<path d="M1101.5,393.5l0,-23" class="g3_64" />
<path d="M873.5,370.5l229,0" class="g3_64" />
<path d="M872.5,416.5l0,-23" class="g3_64" />
<path d="M1101.5,416.5l0,-23" class="g3_64" />
<path d="M873.5,393.5l229,0" class="g3_64" />
<path d="M872.5,439.5l0,-23" class="g3_64" />
<path d="M1101.5,439.5l0,-23" class="g3_64" />
<path d="M873.5,416.5l229,0" class="g3_64" />
<path d="M872.5,462.5l0,-24" class="g3_64" />
<path d="M1101.5,462.5l0,-24" class="g3_64" />
<path d="M873.5,439.5l229,0" class="g3_64" />
<path d="M872.5,485.5l0,-24" class="g3_64" />
<path d="M1101.5,485.5l0,-24" class="g3_64" />
<path d="M873.5,462.5l229,0" class="g3_64" />
<path d="M872.5,508.5l0,-24" class="g3_64" />
<path d="M1101.5,508.5l0,-24" class="g3_64" />
<path d="M873.5,485.5l229,0" class="g3_64" />
<path d="M872.5,530.5l0,-23" class="g3_64" />
<path d="M872.5,530.5l230,0" class="g3_64" />
<path d="M1101.5,530.5l0,-23" class="g3_64" />
<path d="M873.5,508.5l229,0" class="g3_64" />
<path d="M142.5,119.2l-3,181" class="g4_64" />
<path d="M139,300l47,0" class="g4_64" />
<path d="M142,119l106,0" class="g5_64" />
<path fill-rule="evenodd" d="M256.7,119.2l-9,4.6l0,-9.1l9,4.5Z" class="g2_64" />
<path d="M359,307l11,0" class="g4_64" />
<path d="M359,242l0,65" class="g4_64" />
<path d="M359,242l-12,0" class="g5_64" />
<path fill-rule="evenodd" d="M339.2,242.6l9,-4.6l0,9.2l-9,-4.6Z" class="g2_64" />
<path d="M586,119l-156,0" class="g5_64" />
<path fill-rule="evenodd" d="M421.7,119.2l9,-4.5l0,9.1l-9,-4.6Z" class="g2_64" />
<path d="M586.7,119.2L586.1,401" class="g4_64" />
<path d="M586,401l28,0" class="g4_64" />
<path d="M593,284l-22,0" class="g5_64" />
<path fill-rule="evenodd" d="M563.3,284.2l9.2,-4.6l0,9.2l-9.2,-4.6Z" class="g2_64" />
<path d="M593,133l0,151" class="g4_64" />
<path d="M593,133l56,0" class="g4_64" />
<path d="M843.6,112.6L843,272.4" class="g4_64" />
<path d="M817,112l26,0" class="g4_64" />
<path d="M843,272l21,0" class="g5_64" />
<path fill-rule="evenodd" d="M873.1,272.6L864,277l0,-9l9.1,4.6Z" class="g2_64" />
<path d="M829,292l0,109" class="g4_64" />
<path d="M830,401l-35,0" class="g5_64" />
<path fill-rule="evenodd" d="M787.1,401l9,-4.5l0,9.1l-9,-4.6Z" class="g2_64" />
<path d="M829,292l44,0" class="g4_64" />
</svg>